<?xml version="1.0" standalone="no"?>
<!DOCTYPE svg PUBLIC "-//W3C//DTD SVG 1.1//EN" "http://www.w3.org/Graphics/SVG/1.1/DTD/svg11.dtd" >
<svg>
<metadata>
Created by FontForge 20110222 at Mon Apr 20 10:36:59 2015
 By www-data
Copyright (c) 2015 by Groen. All rights reserved.
</metadata>
<defs>
<font id="FireVector" horiz-adv-x="382" >
  <font-face 
    font-family="Fire Vector"
    font-weight="400"
    font-stretch="normal"
    units-per-em="1000"
    panose-1="0 0 0 0 0 0 0 0 0 0"
    ascent="750"
    descent="-250"
    x-height="494"
    cap-height="710"
    bbox="-230 -556.363 752.111 983"
    underline-thickness="50"
    underline-position="-50"
    unicode-range="U+0020-FB02"
  />
<missing-glyph horiz-adv-x="205" 
 />
    <glyph glyph-name="T_h" unicode="Th" horiz-adv-x="695" 
d="M372 769l1 -1c-1 -3 3 -3 1 -4c-2 1 -2 0 -4 1c1 -2 -4 -6 -4 -7c0 1 2 -2 2 -2c0 -3 -2 -9 3 -9c1 2 1 7 1 12c2 -2 3 -3 4 -1c5 -7 8 -15 9 -26c19 -19 9 -29 13 -36c-1 1 -3 -8 -2 -11c0 -9 4 -18 7 -22v-4c2 -2 3 -5 5 -8h17c15 9 59 26 73 36l1 -2l1 -1
c1 -6 -3 -1 -3 -6c6 -6 -25 -30 -18 -36c-4 -5 -2 -14 -5 -19c-1 3 -8 -1 -10 -2c-2 -2 -2 -4 -2 -5c-5 -1 -8 1 -12 0c-2 -3 -1 -4 -2 -6c-3 -2 -8 -1 -11 -1c-2 -2 2 -5 0 -6h-22c1 -1 1 -4 1 -7c2 0 -2 -4 0 -4c3 0 1 5 4 4c12 -4 21 -36 11 -27c-1 -5 2 -11 -2 -12
c1 0 1 0 1 -1h-1v-1c0 -3 -3 -6 -1 -8c3 -2 5 -7 2 -10c5 -1 1 -10 4 -14c-1 -2 -2 -3 -3 -6c3 -7 -2 -13 1 -22c-1 -4 -1 -10 -4 -13c0 -2 1 -3 1 -4c-1 -5 -3 -7 -4 -11c-1 -3 1 -5 0 -8c-4 -4 -3 -11 -7 -14h1c-2 -1 -1 -3 -2 -4c0 -5 -2 -9 -4 -15c-1 -5 -1 -11 -2 -18
c-2 0 -3 -10 0 -13c-3 0 -3 -4 -4 -5c-2 -12 2 -29 -1 -41l2 -2h-2l2 -1c0 -14 -3 -34 0 -49c-1 -5 -1 -10 -1 -15c4 4 4 12 3 16c8 20 17 44 19 65c7 2 3 11 11 11c3 4 -3 8 4 7c-1 12 7 16 8 28c4 3 6 7 10 8c10 24 26 34 36 57c4 2 7 8 12 10c18 3 31 0 42 -1
c5 0 8 3 13 0c7 -1 16 -5 22 -11c1 0 1 -1 0 -1h5s-1 -3 0 -3c3 1 1 0 7 -4c4 -2 10 -6 17 -8c1 -8 8 -11 11 -20c1 -3 0 -7 1 -11c2 -7 7 -20 7 -32c1 -11 -3 -21 1 -31c-5 -18 -4 -30 -5 -51c7 -3 -1 -22 7 -27c-3 -12 4 -20 5 -32c3 -18 -1 -41 7 -56c-4 -32 4 -56 8 -89
c3 -17 3 -35 9 -47c2 -3 6 -2 7 -6c-8 -40 27 -59 17 -99c-4 2 -6 5 -8 5c0 -1 -1 -4 -1 -9c2 6 13 -31 4 -28c-1 -7 4 -6 5 -7c0 -3 4 -3 3 -8c-11 -7 -13 5 -15 11c-5 12 -12 26 -22 33c-5 -4 1 -13 -3 -16c-11 5 -18 15 -26 25c-1 3 -5 6 -7 9c-8 14 -8 28 -13 42
c-1 6 -7 10 -8 15c-1 4 -3 12 0 14c0 5 -5 3 -5 5c0 6 2 6 1 10c0 5 -3 8 -7 9c0 4 -2 12 -5 8c-3 1 4 4 0 7c0 2 -3 1 -3 -2c-2 3 0 11 -1 14c-3 5 -3 15 -7 21l-3 9c-1 5 -5 9 -6 13c-7 23 -2 50 -8 66c-2 5 4 1 4 4c-3 4 -4 1 -7 2c0 10 -7 22 -2 26c-6 8 -6 23 -5 35
c-3 1 1 -4 -4 -3c1 14 0 27 1 39c0 4 3 6 3 8c1 7 -1 17 -1 23c0 5 2 10 2 14c0 5 -2 9 -2 13c0 8 4 15 5 23c1 9 6 17 7 25c1 11 -3 22 1 34c-17 15 -33 -9 -47 -17c-2 -10 -8 -19 -13 -27v-8c-6 -6 -6 -15 -12 -20c-3 -15 -11 -29 -16 -47c-2 -3 1 -6 0 -9
c-2 -4 -6 -9 -7 -14c-4 -14 -5 -33 -11 -45c0 -1 -1 -4 -4 -5c-8 -15 -7 -35 -12 -53c-1 -3 -5 -8 -7 -13c-4 -12 -2 -26 -5 -39c0 -1 -4 -4 -4 -6c-3 -10 -2 -21 -3 -32c-1 -9 -4 -17 -5 -27c0 -5 1 -10 0 -17c-2 -9 -8 -13 -14 -21c-6 0 -10 2 -16 2c-2 -11 0 -23 -6 -32
h-7c-4 1 -3 -6 -6 -10c0 0 -9 -4 -2 -5c-2 -1 -3 0 -4 0c1 -5 -15 -5 -22 -10c-1 8 -5 14 -5 25c0 1 4 7 4 11v8c1 4 4 7 3 11c0 2 -3 1 -3 2c-5 31 3 63 -7 86c0 5 3 5 2 9c0 1 -3 1 -4 0c1 6 0 19 2 18c-1 7 -2 12 -5 15c-7 44 0 89 -4 129c-2 20 -7 37 -3 58
c3 11 8 21 10 33c2 14 1 31 2 47c0 7 2 27 3 31c1 3 4 4 4 7v2c-2 4 1 8 1 14c0 4 -2 10 -3 13c0 1 1 2 1 2s-1 0 -2 1c0 4 2 8 1 11c-1 12 -1 27 -3 42c-15 26 -9 14 1 15c1 6 1 13 1 20c-20 -2 -37 -3 -41 -2c1 4 -1 3 -2 4c-4 -2 -7 -1 -11 -4c0 2 -1 4 -3 4
c-8 2 -15 0 -23 0c-2 -5 -3 -9 -4 -15c1 -1 4 1 4 -1l-1 -1l1 -1c-3 1 -3 -1 -6 -1c0 -22 -5 -39 -4 -60c1 0 3 0 3 -1v-1c-2 0 -3 0 -3 -1c0 -5 -2 -13 1 -19c-3 0 -4 3 -4 -2c1 -3 3 4 5 0c-1 -2 1 -1 1 -2l-3 -6c3 -7 -2 -22 1 -32l-1 -1l1 -1v-1c1 -10 -8 -14 -10 -21
c0 -3 1 -7 2 -11c0 -1 -1 -2 -1 -3s2 -1 2 -2c0 -2 -2 -4 -2 -5c0 -2 1 -4 -1 -6c2 0 2 -2 4 -3c-8 1 -2 -13 -2 -13c-3 2 -5 0 -7 -2c1 -1 -1 -8 1 -10c-6 -4 -4 -19 -5 -30c-2 1 -3 4 -5 2c-4 -29 2 -55 0 -86c0 -1 3 -1 4 -2h-3c-1 -25 8 -39 6 -61c0 -3 3 -2 3 -4
c-4 -3 0 -7 0 -11c0 -6 1 -19 0 -28c-1 -2 -2 -4 -2 -5c-1 -13 4 -23 4 -34c4 -4 4 -12 5 -19c1 -2 4 -1 4 -3c3 -13 3 -31 5 -43c-3 -2 -5 -7 -4 -14c-4 0 -4 -2 -3 -4c-1 1 -3 1 -4 0c-1 -13 -2 -29 -2 -40l-2 1l1 -2c0 -4 -3 -6 -2 -11c-3 -3 -4 -6 -8 -10
c-1 -4 -3 -6 -5 -9c-1 -12 -1 -25 0 -38c-6 0 -5 -8 -7 -11c-2 -2 -5 -3 -8 -4c1 -8 -5 -9 -9 -13c-4 -3 -5 -7 -9 -9c-4 11 2 24 -1 37c0 0 -2 1 -4 1l1 1h-2c0 4 4 -1 4 2c0 16 4 44 -4 58c-2 -9 1 -21 -6 -27c-1 -3 2 -3 2 -6c-1 -2 -3 -1 -3 -4c3 -7 -2 -15 3 -23l-1 1
v-2h-2v-9c-6 -7 -5 -22 -8 -32s-7 -18 -11 -27h-17c-3 21 -8 45 -6 69c-1 1 -2 1 -3 1v1h-1c1 2 4 0 5 2c2 21 6 40 8 61c-1 2 -3 3 -3 5c2 1 2 8 3 11c1 19 -1 34 -2 51c0 2 -1 3 -2 5c0 0 1 2 1 3c0 2 -1 4 -1 6c-1 12 1 25 1 38c0 7 -1 12 0 18c0 2 1 3 1 5
c1 7 1 15 0 21c0 12 -3 26 -6 36c-3 8 -7 25 -8 35c0 1 2 3 1 4c0 3 -2 5 -2 8c-5 29 3 63 -5 88l1 1l-2 1c0 24 7 48 -2 65c3 5 1 12 1 19c0 13 3 27 3 38c0 2 -1 4 -1 5c0 10 4 16 4 28c1 12 4 24 4 36h1l-1 1c3 9 3 19 6 29c3 12 10 23 5 35c5 2 5 11 5 18
c-6 2 -9 1 -16 1c-5 -8 -24 2 -32 -5c0 2 -2 3 -4 4c-16 -4 -29 3 -43 2c-3 2 -1 -2 -3 -2c0 2 2 2 1 4c-3 2 -7 -1 -12 0h-1v-1c-5 5 -18 2 -23 7c-1 -1 -4 0 -7 2c-6 -1 -21 -3 -25 3c-2 -2 -7 -2 -8 -6c0 12 -5 23 0 30l1 -1l1 2c6 -4 21 -4 30 -5c3 0 0 3 3 3
c22 -1 42 2 62 3c8 1 17 0 25 1c2 0 2 1 4 1c17 2 36 -2 57 -2c1 3 1 8 3 11c2 1 5 1 8 1c0 7 4 11 4 18c4 2 4 9 10 11c6 -2 11 -6 18 -8c-1 -4 2 -4 4 -5c-1 -8 5 -12 5 -22c5 -2 10 -1 15 3c-1 4 0 7 6 8c-2 3 0 9 -2 12c6 8 2 18 4 28c9 0 22 -5 31 -1c2 -2 6 -1 9 -2
c1 -1 1 -4 3 -3c1 -5 3 -8 7 -11c1 -12 1 -27 -4 -36c7 -4 14 0 21 -1c3 -1 6 -3 9 -4c1 0 3 1 5 1s4 -2 6 -2c3 0 11 0 21 1c0 2 1 4 1 6c1 1 0 4 3 3c-4 4 -1 10 0 15c0 4 -1 7 -1 10c0 2 2 5 2 6c0 7 1 11 0 17c2 21 -5 30 5 57v1c1 4 3 7 4 11c1 6 1 14 2 21
c0 2 -2 1 -2 5c2 2 5 0 7 0c2 -1 6 -4 7 -5h-2c0 -2 2 -6 2 -7c2 0 1 0 3 -4v-7c-2 -3 1 -6 -2 -7c2 -1 3 -2 4 -2c2 3 7 0 8 3c0 2 -4 2 0 3v-1h1zM623 155c7 19 7 48 1 69h-4c-1 -27 -1 -47 3 -69zM206 64c-1 -2 -4 0 -5 -2c0 -15 6 -25 4 -41c0 -2 4 -1 4 -4
c-2 -1 -4 2 -4 -2c3 -1 3 1 6 1c-5 43 -5 47 -5 48zM119 422c1 0 2 0 1 2c2 9 5 21 2 32c-3 -9 -5 -23 -3 -34zM204 65l2 -1v1v1c0 7 1 16 -4 20c-1 -3 -1 -7 -1 -10c1 -3 0 -9 4 -10zM566 268c0 5 3 17 0 25c-2 -8 -4 -18 0 -25zM568 252v1c0 4 0 7 -3 7c0 -3 -3 -4 0 -7
h-1l1 -1c-1 -3 0 -1 -1 -7h4c0 4 0 6 -2 7h2zM443 369c4 -2 6 7 1 5c0 -2 -3 -2 -1 -5zM144 449c1 1 1 5 1 8c-4 1 -3 -8 -1 -8zM208 601c-2 0 -1 3 -3 2c1 -3 -1 -10 1 -12c2 5 -1 5 2 10zM623 148v-5h2v5h-2zM144 478c-1 -1 -1 -3 -1 -5c3 -1 2 5 1 5zM459 631
c-2 0 -4 1 -4 -2c2 0 4 1 4 2zM400 695c-1 0 -2 1 -2 1c1 2 1 1 2 -1z" />
    <glyph glyph-name="t.001_t" unicode="&#xe016;t" horiz-adv-x="362" 
d="M677 631h4c4 -1 4 -8 2 -12c-2 1 -5 0 -6 0c-8 6 -2 -8 -5 -10c0 -10 -5 7 -7 -2c0 -5 -16 -14 -8 -16c-18 -14 -34 -31 -59 -43c-11 -14 -65 -2 -85 -8c1 -5 -5 -3 -7 -5c0 -4 2 -4 5 -4c-11 -14 -61 25 -71 8c-11 0 -73 -4 -139 -10l-2 -20c-2 -35 -1 -147 -1 -191
c0 -23 -2 -45 -2 -70c2 -55 10 -107 12 -153c8 0 18 0 22 3c0 -12 -12 -10 -17 -20c5 -12 11 -24 7 -42c0 -6 -4 -9 -8 -14c4 -30 -14 -34 -20 -60c-5 0 -8 5 -10 0c-6 -9 2 -21 -1 -32c-11 11 -19 18 -27 37c-18 31 -29 71 -38 119c0 9 -2 23 -3 42c-5 67 -25 140 -25 207
c0 20 5 37 9 55c5 21 -1 108 4 123c-49 -4 -75 -1 -83 -4c-2 -35 -1 -147 -1 -191c0 -23 -2 -45 -2 -70c2 -66 18 -154 17 -170c5 -12 11 -24 7 -42c0 -6 27 -99 23 -104c4 -30 43 -145 37 -171c-5 0 -8 5 -10 0c-6 -9 2 -21 -1 -32c-11 11 -19 18 -27 37
c-18 31 -101 212 -110 260c0 9 -18 83 -19 102c-5 67 -25 140 -25 207c0 20 6 37 9 55c2 14 1 108 4 119c-3 5 -67 -4 -70 -7c-20 11 -7 26 -27 41c32 5 63 -11 104 -7c9 30 20 87 0 114c4 7 -2 15 0 25c29 18 49 -18 54 -45c9 3 1 12 3 21c20 -9 23 -28 37 -43
c-5 -20 0 -34 1 -54c12 4 30 24 79 26c0 21 10 196 0 236c4 7 -2 15 0 25c29 18 54 -86 59 -113c9 3 1 12 3 21c20 -9 23 -28 37 -43c-4 -16 0 -126 2 -140c111 5 234 11 252 27c5 0 5 3 10 1c34 25 82 15 113 39v-2zM120 -97h2c2 -5 59 -130 63 -128c-2 6 -57 125 -61 128
l2 5l-4 -2c0 4 0 6 -4 8c0 -4 2 -6 2 -8v-3zM270 -7h2c2 -5 2 -19 6 -17c-2 6 0 14 -4 17l2 5l-4 -2c0 4 0 6 -4 8c0 -4 2 -6 2 -8v-3z" />
    <glyph glyph-name="t_t" unicode="tt" horiz-adv-x="365" 
d="M533 605h4c4 -1 4 -8 2 -12c-2 1 -5 0 -6 0c-8 6 -2 -8 -5 -10c0 -10 -5 7 -7 -2c0 -5 -16 -14 -8 -16c-18 -14 -34 -31 -59 -43c-11 -14 -26 -25 -46 -31c1 -5 -5 -3 -7 -5c0 -4 2 -4 5 -4c-11 -14 -32 -13 -42 -30c-24 0 -42 -14 -66 -23c-2 -35 0 -67 0 -111
c0 -23 -2 -45 -2 -70c2 -55 10 -107 12 -153c8 0 18 0 22 3c0 -12 -12 -10 -17 -20c5 -12 11 -24 7 -42c0 -6 -4 -9 -8 -14c4 -30 -14 -34 -20 -60c-5 0 -8 5 -10 0c-6 -9 2 -21 -1 -32c-11 11 -19 18 -27 37c-18 31 -29 71 -38 119c0 9 -2 23 -3 42c-5 67 -25 140 -25 207
c0 20 6 37 9 55c2 14 0 28 3 39c-1 1 -37 3 -83 4v-4c-2 -35 0 -67 0 -111c0 -23 -2 -45 -2 -70c2 -55 10 -107 12 -153c8 0 18 0 22 3c0 -12 -12 -10 -17 -20c5 -12 11 -24 7 -42c0 -6 -4 -9 -8 -14c4 -30 -14 -34 -20 -60c-5 0 -8 5 -10 0c-6 -9 2 -21 -1 -32
c-11 11 -19 18 -27 37c-18 31 -29 71 -38 119c0 9 -2 23 -3 42c-5 67 -25 140 -25 207c0 20 6 37 9 55c2 14 0 28 3 39c-3 5 -18 3 -21 0c-3 2 -8 4 -12 6c-44 0 -85 0 -86 -1c-20 11 20 19 0 34c14 2 69 -1 128 -4c8 31 16 81 -2 106c4 7 -2 15 0 25c29 18 49 -18 54 -45
c9 3 1 12 3 21c20 -9 23 -28 37 -43c-5 -20 0 -34 1 -54l-2 -16c39 -2 75 -4 88 -2c9 30 20 87 0 114c4 7 -2 15 0 25c29 18 49 -18 54 -45c9 3 1 12 3 21c20 -9 23 -28 37 -43c-5 -20 0 -34 1 -54c44 15 87 34 119 62c5 0 5 3 10 1c34 25 71 46 102 70v-2zM270 -7h2
c2 -5 2 -19 6 -17c-2 6 0 14 -4 17l2 5l-4 -2c0 4 0 6 -4 8c0 -4 2 -6 2 -8v-3zM89 -7h2c2 -5 2 -19 6 -17c-2 6 0 14 -4 17l2 5l-4 -2c0 4 0 6 -4 8c0 -4 2 -6 2 -8v-3z" />
    <glyph glyph-name=".notdef" horiz-adv-x="205" 
 />
    <glyph glyph-name=".null" horiz-adv-x="0" 
 />
    <glyph glyph-name="CR" horiz-adv-x="205" 
 />
    <glyph glyph-name="space" unicode=" " horiz-adv-x="205" 
 />
    <glyph glyph-name="B.001" unicode="&#xe005;" horiz-adv-x="451" 
d="M73 513c-3 0 -6 -2 -9 -2c-12 -15 -115 -125 -128 -142c1 -3 -1 -4 -1 -6c-2 2 -2 -2 -3 0c-1 0 -1 0 -1 -1c-7 1 -15 3 -18 8c5 26 82 107 87 130c5 7 38 44 44 51c11 11 25 17 36 26c10 10 9 27 11 45c1 8 5 15 3 24c6 -1 7 3 10 5c4 12 -12 103 -13 115c2 1 4 3 4 6
c1 -1 2 -3 5 -2c-1 2 -5 2 -7 2c0 0 3 2 0 3c0 2 5 -1 6 1c0 2 -3 2 -3 0c-2 3 4 3 7 3c0 -2 -2 -2 -3 -2c11 0 45 -80 55 -85c-1 -1 -1 -1 1 -1c-1 -13 4 -16 4 -28c6 -5 8 -22 0 -27c3 -1 4 -6 0 -7c15 -12 38 10 59 4c0 1 -3 0 -2 3c7 -1 11 2 14 -2c4 -1 1 1 3 3
c3 -2 8 -1 9 -4c2 0 5 0 6 3c1 -3 12 1 17 -3c-1 -4 8 -9 10 -5c2 -5 5 -4 9 -3c1 -4 6 -4 8 -5c3 -2 3 -6 9 -6c1 -13 14 -10 22 -11c-6 -3 6 -11 0 -14c2 0 6 -3 6 -2c3 0 0 -1 0 -3c2 3 2 1 4 -1c2 0 0 4 0 4c2 -2 5 -4 7 -7c-1 -3 -1 -5 -4 -5c4 -2 2 -11 5 -13
c-2 -7 4 -10 7 -17c-2 -14 1 -16 4 -23c0 -4 -1 -5 -2 -7c-1 -3 1 -2 1 -4c-2 -2 -1 -6 -4 -7c2 -18 -10 -33 -13 -50c-5 -1 -5 -6 -7 -10c-2 0 -3 0 -4 -1c-2 -6 -7 -8 -8 -15c-5 -3 -10 -5 -10 -14c-6 -2 -11 -5 -10 -13c-3 -2 -17 0 -15 -10c-4 1 0 4 -2 5
c-3 1 -2 -1 -4 -2c1 -5 6 -2 2 -6c7 -2 17 -5 26 -5c3 3 4 7 6 9c1 -2 -1 -11 -4 -9c2 -4 8 -2 13 -3c8 -4 17 -7 26 -11c6 -12 27 -15 39 -24c1 -9 8 -15 11 -24c1 -2 0 -5 1 -8c2 -5 5 -9 6 -15c0 -4 -3 -9 3 -12c0 -1 -2 0 -3 -2c3 -7 3 -15 3 -23s2 -17 -2 -20
c0 -2 1 -2 2 -2c-5 -9 -4 -23 -6 -37c-6 1 -4 -7 -8 -9c4 -11 -7 -17 -2 -27c-8 0 -12 -5 -12 -13c-3 1 -1 -4 -5 -2c-4 -14 -14 -21 -17 -34c-1 -1 -2 -1 -2 -4c-1 -1 2 -6 -1 -5c0 -1 3 -2 1 -3c0 -3 3 3 2 -2c-10 3 -12 -3 -13 -11c-9 -2 -11 -6 -13 -13h-5
c-3 -4 -5 -8 -6 -14c-3 1 -2 -2 -6 -1c-13 -22 -39 -33 -62 -45c-1 0 -1 -1 -1 -2c-12 -3 -21 -10 -34 -13c-2 0 -4 3 -8 1c0 -3 5 1 4 -3c-7 3 -14 -2 -22 -1c-9 5 -25 1 -36 0c-1 8 -19 0 -24 2c-1 -21 -8 -169 -12 -193c-1 0 -1 2 -1 3c4 -137 -2 -33 -18 -36
c-2 -7 -5 -10 -9 -15c-7 21 -2 55 -9 76c-3 9 7 151 7 162c0 6 0 12 -1 15c-4 8 -22 6 -23 16c-7 -1 -8 5 -11 6c-3 17 -25 24 -26 41c-4 4 -46 72 -47 79c-8 15 -17 35 -16 52c10 -13 28 -17 33 -36h5c12 -16 65 -93 77 -108h6c5 35 -5 70 1 106c8 43 -1 88 -4 129
c-8 26 -8 60 -7 86c0 4 -3 9 0 11c-1 3 -2 4 -3 5c0 27 3 47 3 73c-1 2 1 2 1 1c-2 10 4 28 -1 37zM128 66c0 -6 -2 -13 -1 -20c5 0 7 2 9 1c1 2 -1 6 5 5c3 11 -6 15 -7 24c-9 1 -5 -6 -6 -10zM164 582c-7 -2 -4 -8 -11 -9c-6 -8 0 -19 -3 -26c0 -3 -3 -3 -2 -5
c0 -2 3 -5 4 -7c-2 -1 0 -4 -2 -5c1 -2 3 -4 4 -7c-8 -11 -3 -26 -3 -40c0 -4 -3 -10 -3 -14c1 -8 6 -20 6 -30c0 -3 -3 -3 -3 -5c8 -14 -2 -33 6 -46c-1 -7 -1 -7 -3 -13c5 1 6 1 12 0c2 1 2 3 3 3c12 4 16 15 22 23c2 3 5 4 7 6c4 6 6 11 11 17c14 14 30 29 38 49
c2 0 1 3 3 2c0 8 5 9 7 13c1 4 3 9 3 13c3 7 2 13 4 23c1 5 6 10 7 16c4 13 1 35 -1 48c-6 7 -12 9 -20 13c-4 3 -6 7 -9 8c-10 2 -21 -3 -29 -4c-18 -3 -31 -7 -43 -11c-2 -3 -4 -7 -5 -12zM157 282c-4 -5 1 -10 -1 -16c7 -21 6 -50 12 -73c6 -9 7 -22 10 -33
c1 -3 -2 -4 -2 -7c7 -2 3 -10 3 -14c0 -10 2 -20 0 -30c-2 -5 -5 -9 -5 -14c-4 1 -5 -1 -6 -3c0 -13 -9 -22 -7 -34c32 2 49 20 64 41c0 4 -10 0 -9 3c6 0 7 0 11 -2c7 7 9 18 15 24c5 20 18 39 30 58c4 20 9 45 7 67c-3 42 8 86 -25 108c-17 7 -34 -4 -52 -6
c0 -6 -7 -5 -12 -6c-3 -1 -5 -3 -7 -3c-11 -3 -21 -2 -25 -12c-2 -4 0 -10 0 -18c-7 -3 -5 -24 -1 -30zM287 481c5 13 11 22 12 35c0 4 -2 9 1 13c-4 1 -2 5 -6 6c2 1 4 -1 4 1c-1 0 -1 2 -1 3c-3 1 -3 -2 -6 -2c3 -3 -5 -10 -1 -14c-11 -9 -7 -32 -12 -48c6 -1 6 4 9 6z
M303 160c0 -1 -4 -4 -1 -5c0 1 4 3 1 5zM317 593c0 2 0 3 1 2c1 4 -1 4 0 7h-8c1 -3 3 -8 7 -9zM317 179c2 14 17 25 12 42c0 -2 -3 0 -3 0c-1 -2 -3 -7 -5 -5c6 16 9 39 5 57c-1 3 -3 13 -8 12v-59c-2 -2 -4 -7 -2 -10c0 0 1 0 0 -2c3 2 2 1 6 0c-4 -13 -7 -21 -9 -35h4z
M319 286c1 3 0 10 -3 10c0 -5 -1 -10 3 -10z" />
    <glyph glyph-name="A.001" unicode="&#xe006;" horiz-adv-x="517" 
d="M482 98c-1 -6 9 -6 9 -13c-5 -4 -4 -12 1 -15c1 -13 7 -20 8 -33h3c1 -4 51 -123 53 -129c5 -1 8 -1 12 0c2 -32 34 -110 39 -136c1 -1 2 -3 5 -2c1 -6 2 -12 1 -18c5 -6 8 -14 2 -20c2 -9 9 -9 7 -19c1 -2 3 -4 6 -4c3 -18 8 -34 10 -54c1 -2 1 0 3 0c0 -10 3 -16 3 -27
c1 0 1 2 1 3c4 -7 5 -18 7 -26c1 2 2 2 3 0c0 -4 -1 -1 -3 -1c0 -4 4 -3 3 -5c1 0 1 1 1 3c2 -8 7 -21 10 -32c1 0 2 0 2 2c4 -10 10 -22 7 -33c-1 2 -2 4 -3 0c-1 0 0 2 0 4c-5 0 -4 1 -7 5c-1 0 -2 0 -3 1c-3 4 -1 10 -8 13c-2 1 -4 -2 -4 4c-1 0 -1 -2 -1 -2
c-2 0 -1 6 2 5c-11 7 -14 19 -22 30c0 -1 0 -3 -2 -2c0 2 -1 3 -3 3c4 1 -1 5 -3 7c-1 1 2 1 1 4c-9 3 -17 16 -19 30c-3 3 -6 6 -8 9c-5 18 -13 29 -17 47c-11 13 -14 36 -22 51c0 2 1 2 1 5c-7 16 -34 94 -42 107c-4 13 -9 34 -16 43c-2 0 -4 0 -5 -3c1 -3 4 -3 5 -6
c-1 -10 3 -20 9 -20c-3 -2 -1 -4 -2 -8c8 -9 33 -83 35 -99c6 -11 7 -22 8 -36c-1 -3 -7 -2 -7 -7c-16 18 -43 104 -58 124c-5 15 -8 31 -16 47c-2 6 -3 7 -6 16c-1 9 -56 127 -58 136c-10 19 -16 43 -24 68c-3 10 -8 18 -8 30c-8 14 -39 97 -44 115c-11 11 -22 15 -38 12
c-18 4 -40 7 -61 2c-2 2 -5 1 -7 3c-15 -1 -19 -15 -35 -15c-2 0 1 -3 1 -3c-5 -3 -8 -8 -11 -13c4 -6 1 -12 -4 -13c2 -5 10 -12 6 -19c0 -2 1 -2 3 -2c-9 -9 -5 -22 -11 -32c-5 1 -7 -2 -7 -7c-2 -1 -4 -1 -5 -3c2 -6 -2 -4 -4 -7c-4 -5 -1 -14 -6 -19c-1 0 -3 0 -3 -1
c-1 -4 0 -9 -3 -12c0 0 -7 -1 -3 -4c-10 -1 -7 -18 -15 -19c0 -8 -20 -91 -25 -100h-7c-1 -6 -4 -10 -4 -17c-7 -2 -11 -9 -11 -17c-7 1 -5 -6 -13 -7v-5c-5 1 -7 -7 -9 -12c-6 -1 -5 -10 -9 -12c1 -15 -12 -14 -21 -18c-1 60 35 171 53 211v6c12 22 26 42 33 70
c11 15 19 38 26 57c3 2 4 7 3 10c-2 7 -212 20 -213 26c-1 3 -5 4 -6 7c13 7 -28 38 -22 54c4 13 62 -53 68 -43c0 2 185 -19 185 -17c14 19 36 94 48 115c5 27 18 47 27 71c-1 4 0 3 -1 5c16 24 22 56 37 80c4 17 12 29 18 44c1 6 -1 11 -2 16c0 1 -1 2 -3 2
c-3 19 -35 111 -32 133l6 -3c3 1 4 4 4 9c17 -15 49 -116 65 -135c2 -19 12 -35 11 -51c0 -1 2 0 3 -1c0 -2 -2 -2 -3 -2c0 -3 4 -2 4 -3c2 -6 -1 -16 4 -16c-2 -5 2 -15 4 -16c0 -1 -2 -2 1 -3c-4 -4 -2 -14 -2 -23c0 -1 2 0 3 -1c-5 -3 -2 -13 4 -15c-2 -3 0 -6 1 -9
c6 3 5 -2 11 -3c-4 -3 -5 -6 -5 -14c-2 0 -2 0 -4 -3c2 -8 1 -10 4 -17h-2c9 -5 6 -32 18 -37c-5 -5 2 -14 0 -24c1 -2 3 -3 5 -4c2 -19 8 -29 19 -40c0 -4 -3 -3 -3 -6c3 -7 -1 -16 6 -22c1 -4 -2 -3 -2 -6c2 -4 7 -5 8 -7v3c3 1 1 -4 4 -3c0 -13 6 -17 12 -20
c44 -3 79 10 111 24c-2 -6 -4 -16 -11 -18c-4 -10 -9 -21 -21 -24c-5 -6 -8 -7 -19 -10c-5 -2 -10 -6 -20 -4c-9 2 -22 -1 -28 -7c0 -9 -4 -15 2 -27c0 -3 4 -3 6 -5c3 -6 28 -73 25 -79c0 -1 2 -1 3 -1c0 -9 4 -10 7 -15c-3 -12 7 -22 8 -31c-1 -1 -1 0 -2 0zM210 298
c32 -4 70 -4 101 -2c6 13 -7 33 -6 49c-2 2 -3 6 -6 9c2 1 2 5 2 10c-12 28 -17 71 -23 105h-4c-1 -3 0 -7 -5 -7c1 -5 -2 -6 -4 -8c1 -14 -8 -24 -6 -32c-4 -4 -7 -7 -9 -10c-1 -5 3 -2 3 -3c-9 -5 -3 -21 -10 -28c2 -1 2 -1 2 -3c-6 0 -5 -6 -9 -8c-1 -1 1 -1 1 -2
c-2 -6 -10 -7 -13 -14c2 -6 6 0 11 -3c-3 -5 -7 -7 -10 -12c1 -7 0 -19 -4 -23c-1 1 1 4 -1 4c-5 -8 -9 -10 -10 -22zM485 73c1 0 2 1 2 2c-1 0 -1 3 -3 3c1 -3 -1 -3 1 -5zM548 -81c2 0 2 2 2 5c-3 1 -6 -2 -2 -5zM561 -121c1 0 3 0 3 1c-1 2 -1 8 -4 5c0 -2 1 -3 1 -6z
M568 -111c0 7 -1 6 0 14c-11 2 -10 -13 0 -14z" />
    <glyph glyph-name="F.001" unicode="&#xe007;" horiz-adv-x="211" 
d="M100 716c-1 -3 2 -5 0 -6c-1 1 -2 0 -6 1c1 -2 -4 -5 -4 -7c0 1 -2 -49 -2 -50c0 -4 -2 -10 3 -10c2 3 7 54 7 61c2 -2 3 -4 5 -1c5 -9 6 -64 6 -77c4 -2 6 -5 11 -7h13c9 0 18 2 29 3c10 0 95 5 104 5c18 -1 138 1 157 1c20 1 38 1 58 0c7 0 13 0 21 1c0 -2 -1 -6 1 -8
c2 1 4 0 6 -1v-14c-2 -1 -2 -3 -4 -2c-1 -2 -2 -4 -5 -5c-9 -5 -20 -10 -35 -7c-2 1 0 5 -3 4c-4 -2 -7 -2 -9 -5c-7 5 -15 1 -22 2c-4 1 -7 6 -12 8c-4 1 -1 -5 -4 -4c-1 0 0 3 -1 4c-2 -5 -10 1 -13 1c-7 1 -116 -8 -124 -5c-3 -2 -4 -5 -6 -7c-3 4 -8 0 -12 -1
c-1 2 -82 -6 -87 -3c-3 -2 -8 0 -10 -1c-2 3 -10 2 -15 4c-2 -4 -9 -4 -13 -1c-1 -4 3 -1 2 -4c-2 0 -4 -1 -8 -1c-2 2 -1 4 -3 1c-2 2 -1 -1 0 -2c-3 0 -3 -5 -2 -11c0 -10 5 -20 9 -25v-4c4 -4 7 -9 9 -15h-1l-1 -1c-1 0 -1 -1 -1 -2c1 0 1 -1 2 -1h2v1c1 -3 3 0 3 -3
c0 -10 1 -22 0 -32c3 -2 0 -3 2 -5c-1 0 0 -6 -1 -7c1 0 1 -4 1 -8c4 -2 -2 -4 1 -4c4 0 1 5 5 4c7 0 14 2 20 0v1h1c-1 -2 6 -1 3 0v2h-2c-1 0 -2 0 -2 1c3 2 7 -1 11 0c2 4 9 2 12 5c16 2 30 7 45 11l1 -1l1 -1c-2 -6 -6 -9 -12 -9c-6 -3 -9 -9 -12 -13c3 -3 3 -7 2 -10
c-3 0 -7 0 -10 -1c-2 -4 -3 -9 -8 -11c1 2 -1 2 -3 2c-10 -1 -14 -1 -27 -1c-1 -4 -5 -3 -6 -7c-1 -6 2 -13 -2 -14c1 0 1 0 1 -1h-1v0c0 -4 -3 -8 -1 -10c3 -2 5 -9 2 -12c5 0 1 -11 4 -16c-1 -3 -2 -4 -3 -7c3 -7 -2 -97 1 -106c-1 -4 -1 -12 -4 -16c0 -2 1 -3 1 -4
c-1 -5 -5 -8 -6 -12s1 -7 0 -10c-4 -4 -3 -13 -8 -15c2 0 3 0 3 -1c-4 0 -3 -4 -5 -5c1 -5 -3 -10 -4 -17c-1 -6 -1 -13 -2 -20c-3 -2 -5 -12 -1 -16c-4 0 -4 -4 -5 -6c-3 -13 3 -33 -1 -47c1 -1 1 -2 2 -3h-2h2c0 -16 -4 -39 1 -57c-2 -11 0 -21 0 -30c-3 -3 -1 -8 -2 -14
c0 -5 -3 -12 0 -15c-1 -1 -3 2 -2 0c1 -8 -3 -10 -7 -13c-1 -8 -5 -12 -8 -15l-1 1l-2 -1c0 12 -5 19 -6 29h1h-1c-1 7 -1 14 -5 16c-6 -9 -1 -21 -6 -30c2 0 1 -2 1 -4c0 -4 -5 -130 -5 -134c0 -2 -1 -1 -1 -3c0 1 1 -1 1 -1c0 -1 -1 -3 -1 -4s1 -2 1 -5l-1 1v-1
c-1 0 -1 -5 0 -5v-1h1c1 -3 -1 -1 -1 -2c2 -6 -3 -8 -2 -16c-3 -2 -2 -7 -2 -11c-3 3 0 0 0 -2c-1 -1 -6 -3 -5 -5c1 -6 -1 -8 -3 -14c-2 1 -2 5 -5 5c0 -2 -1 -6 -4 -6c2 -3 2 -5 1 -9c1 -1 3 1 3 -3l-1 -1v-1c-5 -2 -1 -12 -4 -16c0 1 0 2 -1 2c1 -3 -4 -7 -1 -9
c-5 -2 -5 73 -10 70l1 1h-2c0 1 0 2 -1 2v2l-1 -1c4 5 -2 -71 -3 -65c-1 3 1 7 1 10c-1 3 -3 7 -4 11c-2 11 -2 17 -3 29c0 2 1 6 -1 9c4 0 -2 5 2 5c-5 3 0 10 -4 15l-1 1h-1c-5 14 2 151 -1 166c-1 2 -2 3 -3 5c-1 10 -1 20 -2 27c-3 16 0 32 2 47c0 2 -1 5 0 8
c1 6 4 11 4 18c1 6 1 13 2 19c5 35 -2 69 2 103c-3 11 3 33 -3 46c0 1 1 0 2 0c-4 5 -1 12 -1 18c0 4 -2 92 -2 96v2c0 1 0 1 -1 2c0 3 1 8 1 12c-2 15 -1 31 -5 48c-10 -1 -96 2 -106 7c0 2 -1 3 -4 3c2 5 -1 0 -1 4c10 2 102 2 112 4c4 28 1 54 4 84c0 1 0 3 2 2
c-3 6 -1 12 0 19c0 3 -1 6 -1 11c0 2 2 4 3 7c1 7 2 12 1 19c-6 5 -155 -3 -166 0c2 3 -1 1 -2 2c-2 1 -4 4 -6 6c-2 1 -4 3 -5 5c-2 6 -6 10 -4 14c16 -1 168 5 185 3c1 7 4 73 8 84c0 -2 -1 0 -1 0c2 4 3 9 4 12c2 8 3 17 4 25c0 2 -4 1 -3 5c3 3 6 1 10 0c1 -1 7 -4 8 -4
l-2 -2c0 -2 2 -5 2 -7c1 0 1 0 2 -5v-1l1 -1v-5v-1v-1c-2 -3 2 -5 -2 -6c2 -1 4 -3 5 -4c2 5 8 2 9 5c3 2 -4 2 3 2v-1l1 1v-1h-1z" />
    <glyph glyph-name="C.001" unicode="&#xe004;" horiz-adv-x="400" 
d="M332 249c0 -5 -2 -12 4 -12c12 4 13 25 16 33c11 -5 15 -15 19 -24c-3 -16 -4 -32 -9 -46c-3 -14 -2 -29 -13 -35c0 -1 2 -1 3 -2c-2 0 -3 -3 -5 -2c-5 -9 -7 -23 -7 -35c-4 -3 -6 -10 -10 -14c-6 -21 -23 -22 -28 -39c-1 0 -1 1 -2 1c-1 1 0 -3 0 -3
c-13 -9 -21 -22 -30 -37c-1 5 -7 0 -10 -2c-2 -2 1 -2 0 -4c-5 1 -2 -2 -2 -5c-3 1 -4 0 -4 -2c-2 1 -2 2 -1 4c-2 -3 -8 0 -8 -4c-2 -2 1 -2 3 -2c-8 -6 -17 -6 -27 -3c-4 -4 -14 -7 -17 -4c-2 -1 2 -2 1 -4c-3 1 -5 -2 -6 -3c-6 3 -14 -2 -16 -2s-1 1 0 1
c-2 0 -1 -1 -2 -2c-8 -2 -32 0 -45 3c-15 5 -45 24 -52 34c-3 0 -2 2 -5 1c-3 7 -5 12 -9 16c-2 1 -6 1 -8 3c-5 6 -12 17 -19 23c-6 8 -13 25 -15 34c0 4 -4 5 -5 8c-2 5 -2 13 -4 19c-5 13 -10 25 -10 41c-4 10 0 24 -4 34c0 3 2 3 2 5c-3 -6 -2 11 -3 16
c-2 17 -1 42 -4 58c2 16 3 36 7 55c0 2 0 4 -2 4c7 9 6 18 7 28c5 17 16 34 20 53c5 4 5 11 6 17c0 4 4 6 5 9c5 9 5 21 8 26c1 1 3 1 3 2c3 9 5 18 8 25c1 3 5 5 4 9c21 28 45 54 70 75c-1 3 0 5 0 6c2 0 6 -1 8 -1c3 0 4 2 4 6c9 -1 13 8 24 10c6 0 11 -5 14 -2
c-1 -4 6 -4 11 -7c-2 -3 -4 0 -6 -1c6 -3 14 -13 19 -4c-2 4 -5 8 -15 10c0 2 -1 5 0 7h-5c3 5 13 2 17 5c19 -5 59 -5 73 -22c11 -2 11 -12 21 -15c6 -14 2 -65 10 -77c-5 -1 -55 -100 -56 -104c-6 -5 -46 -52 -55 -52c-3 10 96 207 81 208c-2 5 -12 7 -15 13
c-3 1 -6 1 -6 0c-35 8 -41 -19 -63 -22c-2 -3 0 -3 0 -4c-4 -3 -8 -4 -9 -11c-9 -6 -11 -20 -15 -32c-8 -23 -19 -47 -17 -67c-14 -14 -3 -42 -19 -53c-2 -23 -6 -43 -9 -67c-1 0 -1 1 -2 1c-2 -4 -1 -9 2 -9c-1 -10 -5 -17 -10 -22c0 -5 3 -6 0 -10c0 -3 5 -4 3 -6
c-8 -20 11 -34 1 -52c-1 -2 3 -1 4 -2c3 -16 17 -27 17 -47c0 -1 2 1 4 -1c-2 -8 2 -13 4 -23c0 -2 -3 -1 -3 -2c-2 -3 1 -4 -1 -7c5 -6 10 -11 8 -21c2 -4 3 -7 5 -12c1 -3 1 -4 1 -9c2 -4 7 -9 10 -13c3 -7 6 -12 12 -20c3 -4 14 -13 17 -13c8 -3 26 0 33 5c2 2 4 5 7 9
c10 10 19 20 29 34c4 5 12 11 15 15c2 6 5 8 7 14c13 12 24 28 28 49c3 14 1 29 11 39c-1 1 1 4 -2 4c4 2 2 5 5 8c0 1 -1 2 -3 3c1 1 3 -2 5 -2c-4 3 -8 10 -3 15zM55 377c0 3 3 6 0 7c-2 -1 -1 -5 0 -7zM59 354c2 3 2 12 -1 12c1 -2 -4 -10 1 -12zM66 405
c0 -4 -1 -3 -1 -6c4 -2 3 5 1 6zM54 327c2 2 1 9 4 9c-3 0 0 4 -3 4c0 -4 -4 -11 -1 -13zM52 318c5 -1 2 4 1 5c-2 -1 0 -2 -1 -5zM49 242c2 2 3 5 3 8c-4 0 -7 -7 -3 -8zM54 199c7 -7 -3 -21 4 -30c4 1 7 2 11 1c0 3 1 6 -2 7c4 5 -1 9 -2 16c-1 5 3 13 -4 14
c-1 -5 -7 -3 -7 -8zM63 142c2 -1 6 -2 8 -4c0 1 1 3 2 2c0 -6 7 -7 8 -12c3 -12 8 -20 17 -29c2 -10 13 -20 21 -29c-2 0 -3 1 -4 1c-1 -3 1 -4 0 -6c2 0 3 0 5 -1c-1 0 -1 -2 -2 -4c2 -2 9 -1 9 -2c-2 -2 -3 -2 -3 -3c7 -3 7 -10 19 -10c2 -6 1 -9 7 -11c3 -2 6 0 9 -1
c0 -1 1 -3 2 -3c6 -3 20 -4 24 0c-7 3 -18 3 -23 5c2 -1 3 -1 3 1c-6 4 -11 8 -21 8c-1 9 -16 20 -24 25c0 1 1 2 1 4c-4 1 -3 4 -4 7c-1 2 -5 3 -6 6c-3 4 -4 9 -5 11c-1 1 -3 1 -3 2c-11 20 -13 45 -29 64c-6 -2 -11 2 -15 2c-1 -10 5 -14 4 -23z" />
    <glyph glyph-name="u.001" unicode="&#xe008;" horiz-adv-x="348" 
d="M425 -180c-1 0 -1 0 -1 3h-5c-38 17 -135 71 -166 144c0 -12 6 -26 0 -34c-12 5 -16 20 -22 34c-6 10 -12 24 -15 38c-7 24 1 54 -11 77c-29 -17 -43 -49 -71 -67c-51 -18 -96 6 -118 36c-9 36 -17 71 -15 109c0 20 4 40 6 58c0 45 -8 222 2 263c-2 9 6 4 7 9
c-1 28 -4 101 0 124c11 5 22 11 30 5c13 -5 6 -78 12 -96c6 2 4 14 14 12c12 -10 14 -31 18 -54c-1 -5 8 0 10 -5c4 -34 -4 -202 -6 -242c-2 -56 6 -112 16 -160c30 -7 39 3 50 26c14 32 20 62 33 98c3 6 10 16 12 23c2 11 -2 25 -2 39c-1 11 -7 28 -7 40c-3 25 6 56 7 87
c0 17 -1 35 0 49c2 11 6 33 8 51c10 2 16 8 24 7c7 -7 6 -16 7 -25c7 -15 11 -29 14 -47c3 -9 6 -16 9 -21c0 -14 -6 -28 4 -40c10 3 -4 33 10 37c14 -2 2 -31 14 -36c-6 -17 3 -37 2 -53c-2 -6 -6 -10 -6 -14c-8 -32 -10 -88 -7 -123c5 -42 2 -85 14 -121
c2 -8 11 -18 13 -26c1 -8 -2 -16 0 -22c1 -14 12 -22 14 -34c0 -8 -7 -11 -7 -20c7 -16 13 -29 22 -39c0 -30 103 -62 87 -90zM80 51c9 3 16 -12 14 -6c-5 14 -18 26 -22 43c-2 8 0 17 0 22c-2 9 -3 17 -6 24c-2 8 4 22 -8 24c-17 -36 0 -93 22 -107zM275 339
c-2 -5 0 -8 1 -5c0 2 -1 8 -1 5z" />
    <glyph glyph-name="q.001" unicode="&#xe009;" horiz-adv-x="412" 
d="M361 409c-10 -9 0 -18 5 -15c0 -45 -5 -81 -9 -123c-2 -15 4 -31 4 -46c-4 -12 -8 -27 -8 -43c0 -33 10 -79 8 -110c-8 -99 -6 -214 11 -306c4 -10 -6 1 -9 -8c9 -7 -6 -12 -2 -30c-4 0 -6 2 -8 2c0 -17 -8 -38 -23 -48c-7 0 -3 18 -6 31c-9 -21 -23 -179 -26 -207
c-4 -23 0 -92 -19 -48c-4 3 -11 3 -21 3c-21 43 -1 216 -4 267c-2 61 -6 111 -2 169c2 28 -5 52 0 89c-4 10 5 0 10 0c-18 12 -14 63 -10 87c-10 -3 -20 -9 -28 -15c-15 -9 -28 -24 -43 -26c3 -5 -9 -8 3 -8c-48 -13 -104 -3 -130 23c-2 7 3 10 -3 14c0 0 -12 6 -9 -3
c-5 14 -8 29 -22 33c1 19 -9 24 -9 42c-15 10 -10 58 -10 80c-5 91 43 169 99 211c0 1 3 4 3 4l5 -3l-3 5c8 9 23 10 31 19c12 -3 20 -6 35 -9c1 0 7 -3 7 -3c16 -3 28 3 40 2c15 -2 26 -11 39 -11c5 -15 22 -15 28 -31c7 9 11 27 0 33c18 0 11 19 23 22c4 54 30 91 30 148
c1 -3 7 -3 13 -3c4 -12 4 -27 10 -36c7 0 15 0 20 -9c0 -40 -5 -76 -5 -112c-4 0 0 9 -6 9c-2 -6 -7 -19 0 -21c-4 -7 -4 -7 -4 -18l-5 3v-4zM93 110c0 -7 4 -13 10 -15c5 5 -6 9 -10 15zM242 361c-10 4 -13 12 -18 17c-13 7 -30 10 -40 2c-8 -4 -13 -10 -21 -15
c-38 -26 -66 -107 -60 -161c2 -39 10 -91 39 -94c24 -4 64 38 75 48c4 5 10 7 15 13c20 20 25 35 35 66c8 30 14 60 14 100c-11 12 -27 12 -39 24zM44 191c0 -5 -5 -15 7 -13c-4 2 1 13 -4 13v3l-3 1c7 18 3 33 7 57c-9 -6 -9 -18 -9 -24c-3 -7 0 -18 0 -28c2 -5 0 -6 0 -6z
" />
    <glyph glyph-name="s.001" unicode="&#xe011;" horiz-adv-x="320" 
d="M137 224c-25 7 -44 20 -60 34c-6 6 -6 -9 -9 -2c-23 31 -37 70 -37 102c0 44 40 82 71 101c6 6 8 12 10 14c23 5 27 19 45 19c27 2 45 -25 75 -21c21 -18 48 -51 29 -90c-24 -14 -37 -55 -72 -38c15 22 30 45 30 82c-12 11 -33 0 -47 -10c-29 -15 -58 -30 -52 -66
c0 -10 7 -28 15 -35c0 0 2 2 4 -2c4 -11 23 -21 40 -31c9 -4 18 -9 29 -14c69 63 132 116 147 136l3 -3h4c78 15 -18 -66 -117 -148h1c7 -6 9 -15 20 -15c0 -13 12 -20 18 -18c2 -34 4 -69 -12 -96c-4 -6 -8 -6 -11 -8c-3 -4 0 -10 -3 -12c-7 -13 -21 -23 -32 -35
c-12 -15 -22 -29 -29 -39c-13 -10 -25 -13 -38 -20c-24 -14 -41 -30 -79 -35c-17 -2 -35 0 -49 5c-5 13 -27 23 -37 20c-12 42 65 128 152 211c-2 5 -5 10 -9 14zM80 53h5v-2c33 4 35 37 58 50c9 20 14 48 12 74c-24 -22 -44 -41 -55 -55c9 -7 -71 -72 -67 -79
c17 2 38 5 47 14v-2zM93 314c0 10 0 19 -6 22c-12 -30 11 -70 35 -57c2 -15 21 -18 37 -23c-16 25 -51 33 -66 58zM179 459c-17 8 -44 2 -46 -14c46 12 49 10 49 10h2c2 0 13 -8 13 -2c-3 2 -6 6 -13 4l-2 2l-3 -2s-17 2 0 2z" />
    <glyph glyph-name="y.001" unicode="&#xe010;" horiz-adv-x="407" 
d="M363 175l3 -2c-6 -20 0 -19 2 -39c-8 3 -8 4 -10 -2c-2 -5 5 -5 10 -7c-12 -2 -2 -9 0 -16c4 -19 -5 -38 -5 -65c-3 -25 5 -50 3 -71c-2 -8 -5 -17 -8 -25c44 1 80 3 91 10c3 -2 35 -8 35 4h2l3 2c3 0 3 2 3 5h6l2 2c5 -7 7 -9 5 -19c6 -6 2 6 8 3c-2 -11 5 -11 10 -18
c5 -19 -84 -23 -182 -25c-1 -25 -19 -25 -14 -45c-5 2 -5 -2 -11 -2c4 -8 -8 -11 -10 -16c-4 -10 0 -19 -6 -30c-12 -12 -17 -31 -34 -37c2 -5 -6 -5 -2 -11c-7 6 -10 -4 -12 -6c-5 -3 -15 0 -21 -3c-8 -2 -8 -14 -20 -11c-2 -3 -2 -5 -2 -11c-18 -2 -20 -21 -43 -21
c-6 -14 -62 -8 -94 -5c-4 10 -15 10 -27 12c-2 4 -4 14 -13 12c0 15 -10 22 -20 29c-14 27 1 84 9 115c0 4 79 38 79 44c-2 18 56 22 125 22c5 19 10 40 14 62c0 16 0 36 -2 45c-4 3 -10 4 -7 7c-18 -15 -29 -44 -41 -62c-2 -2 -11 0 -8 -6c-32 -14 -75 -18 -102 2
c-20 28 -42 73 -55 123c-3 19 -6 38 -10 59c-12 33 -21 67 -21 113c0 9 0 22 7 27c2 9 -5 18 -2 24c0 11 7 30 7 47c2 20 2 41 -3 58c-2 17 20 126 18 140c0 9 9 19 6 26c19 1 27 0 37 -7c6 -19 -20 -138 -15 -156c-7 -20 6 -32 22 -34c5 -21 5 -34 9 -53c5 3 4 14 5 19
c14 2 22 0 30 -5c-4 -45 -21 -104 -2 -147c0 0 -6 -2 -2 -5h4c11 -47 -4 -109 22 -151c-2 -13 3 -19 11 -21c7 2 0 6 2 13c11 3 5 -9 11 -11c37 27 85 77 66 131c7 25 0 50 3 76c2 0 0 -5 2 -7c6 2 0 10 6 10c0 8 -6 5 -6 8c6 42 0 95 14 130c-6 35 9 54 9 90
c12 6 22 16 32 2c-3 -34 24 -55 14 -103c18 0 37 7 43 -12h7v-3h1c9 -41 3 -70 17 -109c0 -3 2 2 4 -3c2 -10 -4 -13 -9 -20c-3 -9 9 -17 -3 -28v-1l-2 -2l2 -3c-6 0 -9 -2 -9 -9h7v3h5c9 0 -5 -12 7 -14h2l2 -3l-2 -3c-4 -3 -18 -3 -6 -7zM83 -118c2 -17 -31 -72 -24 -88
c18 -12 41 -14 61 -2c21 11 48 33 58 50c5 7 13 15 13 27c6 6 15 13 20 25c0 5 -2 8 0 11c0 1 0 3 1 4c-74 -3 -132 -10 -129 -27zM181 -223c-19 -3 -32 -20 -52 -26c-14 0 -25 -3 -31 -9c38 -4 68 13 83 35zM160 32c-8 -3 -13 -3 -21 -3c0 -12 23 -12 21 3zM79 -238v5h-4
v-5h4zM451 -41c-1 0 -1 0 -2 -1c0 1 0 1 2 1z" />
    <glyph glyph-name="w.001" unicode="&#xe012;" horiz-adv-x="412" 
d="M412 444c-3 -15 -8 -31 -9 -43c-5 -25 -23 -41 -19 -76c-9 -7 -9 -21 -10 -33c-23 -43 -42 -93 -55 -147c-13 -19 -14 -46 -26 -63c0 -6 1 -6 1 -1c-1 -20 -15 -23 -19 -52c0 -11 7 -20 7 -32c0 -5 -2 -8 -3 -16c0 -14 4 -31 3 -45c-2 -5 -9 -9 -7 -16h-5
c0 16 -7 24 -19 30c-3 27 0 50 -7 74c-8 28 -27 64 -38 98c-1 9 -5 20 -12 27c4 4 5 5 5 8c-6 9 -6 22 -16 30c-12 -44 -15 -93 -26 -137c0 -3 -4 -9 -5 -12c-4 -14 32 -120 32 -136c-1 -15 -8 -22 -16 -30c-4 14 -4 30 -13 47c-4 13 -34 93 -38 107c0 3 2 6 0 12
c-4 15 -13 35 -18 55c0 1 2 4 0 9c-3 9 -13 21 -15 41c0 3 -8 0 -8 6l2 4h-3c-2 15 -14 20 -15 39c0 3 -3 0 -3 -1c-11 20 -26 39 -30 70c-10 7 -9 19 -9 29c-3 0 -3 2 -4 14c-2 13 1 9 -8 17c-2 6 -2 4 2 8c-2 11 -1 -11 1 4c-9 -7 -9 30 -14 50c-7 15 -7 47 -9 64
c2 3 3 6 8 7c-6 16 3 36 29 28c1 -10 10 -12 14 -18l-4 -5l2 -2c-2 -12 -3 -35 5 -47c3 17 -5 32 0 44l3 -1l1 3c2 -3 12 -12 5 -15c18 -19 14 -55 21 -78c8 -3 17 -3 22 -9c3 -17 -6 -18 15 -18c3 -26 12 -44 20 -63c-6 -4 0 -8 -5 -12c7 -24 13 -50 22 -72
c13 6 9 21 12 33c11 38 31 81 31 137l2 -3l2 3c3 -15 8 -34 19 -49c0 -16 -7 -42 -5 -70c0 -7 8 -3 12 -10c7 -8 7 -27 11 -39c5 -12 11 -23 17 -31c12 29 20 55 30 82c30 67 63 121 83 196c6 29 72 164 75 197v-1h1c0 -9 6 6 0 4v2h-1c9 11 1 27 15 34c8 0 8 -4 17 -4
c1 -22 -65 -154 -56 -172c-12 -16 -8 -37 -8 -57c8 0 2 12 9 6l-1 -2z" />
    <glyph glyph-name="z.001" unicode="&#xe013;" horiz-adv-x="436" 
d="M-40 -26c-2 0 -2 0 -6 2c-4 30 16 50 24 73c32 28 39 77 69 104c0 8 8 13 5 20c17 15 25 33 37 51c26 34 50 64 75 96c13 18 28 33 35 51c21 4 23 30 33 42c12 7 24 14 30 27c-40 3 -78 -7 -115 -17c-18 -6 -32 -10 -60 -16c-22 -2 -67 17 -87 29c5 23 -19 32 -34 34
c5 8 37 16 34 28c30 5 73 -16 105 -28c62 12 127 17 199 17c5 5 12 5 10 13c7 2 5 -8 12 -10c15 8 43 22 59 5c4 -18 -8 -30 -18 -42c-16 -20 -28 -38 -43 -60c-5 -8 -13 -16 -18 -26c-10 -14 -24 -32 -34 -49c-18 -5 -26 -22 -38 -38c-10 -14 -32 -30 -38 -54
c-12 -2 -17 -12 -19 -28c22 6 55 20 87 18c12 0 27 -5 40 -10c25 -5 132 -74 144 -89c3 -15 63 -105 77 -118c8 -7 11 -55 21 -65c13 -10 26 -138 4 -159c-8 5 -4 15 -6 23c-2 22 -10 118 -22 128c-37 73 -116 178 -148 199c-63 41 -138 14 -165 4c-22 -8 -50 -16 -70 -26
c-4 -2 -7 -10 -14 -12c-3 -2 -8 0 -14 -2c-16 -10 -32 -22 -46 -32c-6 -11 -13 -16 -20 -26c-13 -2 -5 13 -20 10c-33 -12 -45 -42 -65 -67zM234 178c-18 8 -40 3 -45 -12c23 -3 41 -7 45 12z" />
    <glyph glyph-name="p.001" unicode="&#xe014;" horiz-adv-x="451" 
d="M67 -418c-5 -20 -24 -32 -27 -61c-7 0 -14 -1 -28 -1c-19 76 -11 246 -11 328c0 51 6 101 10 153c0 38 -7 78 -7 123c0 22 0 38 3 61c0 5 4 7 5 12c2 21 -1 41 0 64c0 33 6 66 7 101c6 39 -61 -99 -60 -62c4 16 11 62 15 80c9 42 15 42 46 139c3 0 21 128 21 130
c29 0 24 -18 38 -28c0 -13 7 -22 7 -36c28 -7 39 -69 34 -109c5 -5 13 -6 20 -10c5 -20 -2 -35 -2 -72c43 14 85 59 144 59c49 3 77 -27 103 -58c6 -10 13 -20 21 -24c10 -25 14 -52 10 -88c0 -9 -6 -17 -6 -25c-3 -14 -3 -29 -3 -40c-8 -33 -22 -79 -31 -109c0 0 3 -5 3 -7
c-3 0 -3 1 -3 1c-10 -31 -47 -55 -73 -78c-32 0 -50 -13 -76 -19v-5l-6 2v-5c-32 3 -59 10 -83 17c-7 -3 0 -20 0 -32c2 -46 -8 -180 -13 -225c-8 5 0 81 -7 74c-17 17 -15 47 -18 72c-10 -25 -4 -48 -4 -76c0 -31 -16 -157 -14 -188c0 -13 6 -23 -2 -38v-4v-2h-2h-2v-5
c-5 0 -9 0 -9 -4v-3v-2zM86 -32c0 -4 -2 -12 4 -10c0 6 0 10 -4 10zM201 387c-5 -2 -42 -30 -51 -41c-10 -8 -12 -20 -17 -35c0 -10 -2 -17 -6 -24c-7 -71 -5 -165 4 -246c4 -4 14 -9 26 -13c7 9 17 11 31 13c1 12 9 16 20 19c5 12 12 17 20 21c10 28 30 53 37 87
c3 48 0 98 1 146c-20 10 -6 43 -20 71c-18 4 -26 10 -45 2zM232 41c-4 -2 -16 -4 -5 -9c0 2 14 7 5 9zM339 124c3 6 15 17 8 23c-3 -8 -11 -8 -11 -19l-5 2l3 -4c-22 -4 -22 -23 -29 -35v13c-19 -10 -34 -47 -47 -63c45 10 59 45 78 81h3v2zM77 117c-7 7 0 37 -4 36
c0 -14 -5 -31 2 -43c0 4 -2 7 2 7zM282 422c15 -11 27 -23 34 -42c1 5 5 0 7 0c16 31 -11 54 -41 42z" />
    <glyph glyph-name="r.001" unicode="&#xe015;" horiz-adv-x="316" 
d="M258 342l56 -80c-10 5 -49 -27 -56 -20c20 39 -57 115 -41 156c-16 8 -5 10 -15 3c-9 -5 -24 -7 -25 -17c-19 2 -32 -14 -42 -24c-30 -16 -39 -64 -39 -111c-11 -4 -5 3 -7 5c-4 -21 9 -42 11 -66c2 0 2 3 2 5c2 -19 10 -52 9 -66c0 -3 -4 -5 -4 -7c-1 -17 -1 -40 3 -57
c1 -9 9 -19 8 -29c0 -2 0 -14 -3 -15c-2 -3 -15 0 -7 -10c-6 5 -11 7 -9 16c-6 9 -23 7 -24 21l-1 5l-2 -2c-1 5 -1 9 -3 9c-2 -2 -2 -4 -1 -9l-3 -3h5c-1 -12 4 -21 5 -32c1 -7 -3 -10 -5 -17c-4 -31 6 -64 -16 -78c-8 0 -14 -98 -25 -90c-17 46 2 205 -20 239l-3 2h-3
c0 3 0 8 3 8c-3 25 -3 49 -2 86c0 19 -4 41 -4 59c0 48 10 92 9 139c-2 20 -6 36 1 53c-5 11 -10 28 -8 45c-1 4 -37 -140 -36 -135c-3 30 -5 73 0 103c9 -3 45 147 55 145c-2 -10 9 -15 11 -21c10 -17 4 -36 18 -48h4h3h1c3 -9 5 5 10 3c8 -38 -4 -59 5 -97
c8 3 12 16 23 26c9 12 27 21 44 33c15 12 28 28 45 30c22 8 47 0 73 -7c11 -13 24 -25 38 -42c-2 -17 -8 -40 0 -52l-2 -2h4c-1 -5 2 -14 -8 -12c1 -2 1 -7 2 -12c-12 -2 -11 -14 -17 -20c-4 -5 -20 -5 -17 -10zM141 406c-5 0 -2 4 -5 4c-4 -19 -19 -28 -22 -48
c35 32 52 81 116 88c-5 12 -18 10 -30 10c-6 -3 2 -5 -3 -8c-27 0 -51 -21 -56 -46z" />
    <glyph glyph-name="t.001" unicode="&#xe016;" horiz-adv-x="181" 
d="M677 637c4 -1 4 -8 2 -12c-5 2 -12 -3 -6 0c-8 6 -2 -8 -5 -10c0 -10 -5 7 -7 -2c0 -5 -16 -14 -8 -16c-18 -14 -34 -31 -59 -43c-11 -14 -65 -2 -85 -8c1 -5 -5 -3 -7 -5c0 -4 2 -4 5 -4c-11 -14 -61 25 -71 8c-24 0 -298 -21 -322 -30c-2 -35 3 -153 3 -197
c0 -23 -2 -45 -2 -70c2 -66 18 -154 17 -170c5 -12 11 -24 7 -42c0 -6 27 -99 23 -104c4 -30 43 -145 37 -171c-5 0 -8 5 -10 0c-6 -9 2 -21 -1 -32c-11 11 -19 18 -27 37c-18 31 -101 212 -110 260c0 9 -18 83 -19 102c-5 67 -25 140 -25 207c0 20 3 123 6 141
c2 14 0 28 3 39c-3 5 -67 -4 -70 -7c-20 11 -7 26 -27 41c32 5 63 -11 104 -7c9 30 20 87 0 114c4 7 -2 15 0 25c29 18 49 -18 54 -45c9 3 1 12 3 21c20 -9 23 -28 37 -43c-5 -20 0 -34 1 -54c44 15 400 11 432 39c5 0 5 3 10 1c34 25 82 15 113 39v-2h4zM122 -97
c2 -5 59 -130 63 -128c-2 6 -57 125 -61 128l2 5l-4 -2c0 4 0 6 -4 8c0 -4 2 -6 2 -8v-3h2z" />
    <glyph glyph-name="x.001" unicode="&#xe017;" horiz-adv-x="338" 
d="M321 -22c-24 12 -32 40 -53 53c-4 -2 0 -10 -4 -10c-18 21 -39 39 -55 64c-5 -1 -11 -3 -17 -5c-27 21 -41 64 -60 82c-6 -18 -24 -26 -24 -49h-17c-5 -2 -10 -8 -10 -18c-21 -15 -51 -88 -81 -95c-5 4 -10 7 -5 13c-14 -19 -96 -150 -114 -166c-16 -4 -21 -23 -38 -21
c-2 19 16 37 23 51c0 9 4 13 6 21c6 0 4 3 8 0c1 11 88 125 83 136c3 3 3 3 6 3c-3 8 0 10 0 18c15 13 48 70 67 77c-1 6 2 6 2 12c12 15 24 37 35 56c6 14 16 28 18 36c0 17 -20 44 -27 62c-7 13 -10 29 -18 42c-3 12 -8 20 -13 32c0 1 0 3 -3 6c-2 3 -2 3 -3 11
c-2 16 -19 13 -23 32c4 11 4 21 -4 27c12 7 22 8 30 13c3 -10 16 4 22 -1c5 -10 8 -37 16 -40c10 -15 15 -35 25 -50c-2 19 -15 37 -14 54c16 0 14 -17 18 -27c11 -25 25 -51 37 -76c13 25 27 64 51 86c2 9 5 11 5 19c16 12 19 34 32 47c0 11 8 17 13 25c2 10 84 145 86 158
c4 -3 4 0 4 3c12 -2 14 0 23 0c2 -10 -75 -145 -76 -155c-2 -14 -23 -39 -13 -52c1 -5 -7 -14 -8 -20c3 -6 16 -2 19 -4c-3 -23 -19 -43 -29 -66c2 -4 8 -2 8 -4c-10 -15 -22 -41 -32 -60c-3 -8 -8 -18 -9 -24c-7 -6 -28 -25 -23 -40c2 -6 7 -13 11 -22c4 -8 4 -18 12 -23
c0 -11 4 -16 11 -18c4 -17 14 -30 24 -39c-4 -10 6 -15 9 -19c10 -20 15 -41 32 -50c-4 -13 10 -16 10 -28c0 -4 3 -2 5 -2c0 -25 18 -33 24 -52h-5z" />
    <glyph glyph-name="m.001" unicode="&#xe018;" horiz-adv-x="441" 
d="M11 109v33c0 2 -2 2 -2 2c0 6 2 9 2 15c0 3 -2 8 -2 12c-1 11 2 24 1 35c-2 31 -2 69 -2 102c0 27 1 96 -1 123c-1 20 -7 39 -7 60c-1 21 -14 112 -15 140c3 3 6 9 9 12c18 6 22 -13 32 -27c2 -4 10 -9 12 -15c0 -1 0 -3 1 -5c5 -8 20 -93 19 -104c2 -6 9 -12 11 -19
c1 -6 0 -14 0 -22c1 -15 11 -29 11 -43c5 9 5 18 9 26c1 5 5 7 7 10c2 4 0 7 2 9c1 4 5 5 6 7c4 8 5 17 7 27c6 7 9 15 15 24c1 2 1 6 3 8c8 8 29 18 42 20c7 1 13 0 18 0c8 -2 16 -9 22 -14c4 -5 9 -15 12 -22c5 -11 5 -27 7 -45c2 -15 0 -27 6 -39c2 -26 -5 -91 -6 -121
c7 5 7 14 9 22c5 14 13 30 21 45c5 7 9 16 12 25c13 14 22 30 37 44c7 0 9 4 15 6c5 -2 11 1 16 0c4 -2 6 -5 11 -8c11 -6 19 -7 28 -15c10 -17 7 -32 8 -55c1 -18 4 -39 2 -57c0 -8 -1 -16 -1 -25c-1 -24 -1 -51 1 -77c0 -3 4 -7 4 -11c0 -9 14 -93 21 -100
c-2 -17 -3 -33 0 -49c2 -12 12 -47 12 -58c0 -3 -3 -4 -3 -8c-1 -4 0 -8 0 -10c-1 -11 38 -116 39 -126c0 -5 3 -6 4 -9c1 -4 0 -9 1 -13c3 -9 8 -17 14 -26c0 -8 1 -18 -2 -21c-20 7 -72 116 -84 130c-8 -6 1 -18 -2 -27c-6 1 -8 7 -11 10v3c-3 2 -6 6 -9 8
c-20 22 -33 62 -39 99c-1 4 0 29 -1 33c-3 5 -5 7 -5 11c-2 17 -1 38 -8 52c4 29 -13 137 -9 171c6 37 8 69 -7 95c-5 -3 -7 -9 -9 -17c-5 -1 -6 -8 -11 -10c0 -5 0 -9 -2 -12c-11 -16 -14 -45 -18 -67c-4 -3 -4 -5 -6 -6c-3 -30 -18 -49 -18 -83c-3 7 -1 -2 -6 -2
c-3 -17 -14 -23 -21 -36c-4 -4 -7 -1 -10 -5c-4 -8 2 -16 2 -25c0 -14 -7 -35 -3 -52c1 -5 5 -13 6 -25c1 -13 5 -19 -2 -27l-3 1l-1 -1c-4 12 -10 22 -12 33c-7 8 -10 18 -15 30c-5 11 -10 29 -14 45c-5 18 -10 33 -8 56c2 8 5 17 7 26c2 26 -5 57 -8 90
c-3 35 1 110 -3 137c-2 4 -3 10 -8 13c-7 -1 -8 -7 -8 -12c-6 -2 -8 -8 -13 -10c-1 -9 -3 -57 -8 -63c-1 -17 -12 -32 -15 -52c-1 -6 0 -15 -1 -23c-3 -17 -10 -33 -10 -50c0 -9 2 -18 2 -28c0 -9 -1 -16 -1 -25c0 -13 2 -24 2 -34c0 -3 -2 -6 -2 -12c-1 -8 2 -17 -4 -17v3
h-1c0 10 -6 14 -6 26c-6 -4 -10 -7 -15 -13c-2 -47 -1 -95 -13 -137c-8 1 -20 -35 -26 -33c-5 18 4 80 1 101c-1 6 -4 10 -5 16c-2 15 1 31 -7 41v2h1l2 1c3 0 3 7 0 7l-2 2zM150 483c16 -10 18 13 13 25c-10 -4 -12 -15 -13 -25zM328 398c-1 9 1 20 -3 22
c-13 4 -10 -29 3 -22zM341 189c-5 -12 15 -106 15 -126c0 -9 -3 -19 6 -22c0 25 -18 126 -16 151c0 1 -1 3 -2 3c0 -3 -4 -2 -3 -6zM385 -80c1 5 -3 15 -8 17c0 -8 1 -15 8 -17z" />
    <glyph glyph-name="b.001" unicode="&#xe019;" horiz-adv-x="348" 
d="M80 961c13 -5 9 -26 14 -48c2 -12 9 -24 12 -36c10 -24 7 -224 10 -259c1 -19 3 -38 2 -58c-1 -11 -3 -23 -2 -34c0 -24 5 -48 2 -71c11 2 15 12 22 16c32 25 89 17 125 -1c2 -4 6 -7 6 -13c0 -2 4 -3 6 -4c5 -4 5 -7 12 -18c7 -12 11 -21 13 -43c1 -11 2 -28 3 -44
c1 -46 8 -93 4 -136c-1 -15 -9 -31 -9 -47c-6 -14 -14 -28 -16 -46c-7 0 -7 -7 -9 -12c-2 -3 -6 -4 -11 -8c-3 -5 -5 -12 -11 -19c-3 -1 -8 -4 -12 -8c-7 -5 -19 -11 -29 -18c-11 -6 -18 -10 -27 -15c-11 -5 -22 -16 -32 -21c-17 -4 -32 0 -48 -5c-2 -12 10 -102 12 -113
c-1 -5 -10 -25 -17 -28c-3 13 -23 117 -25 129c-19 -4 -127 -45 -144 -41c5 9 16 11 21 20c-2 9 -2 21 -5 29c-4 8 85 10 82 20c-6 16 -14 71 -18 89c-12 55 -12 93 -10 142c2 23 5 48 5 70c-1 22 -5 39 -3 57c1 20 5 36 8 53c4 23 -12 90 1 107c0 21 -7 66 -4 86
c2 18 1 33 4 47c4 8 7 18 10 26c2 13 -2 26 5 37c-2 13 2 20 3 30c13 -3 28 -89 39 -94c3 10 0 192 0 207c0 26 -2 57 5 74h3zM108 153c0 -28 -8 -62 -4 -89c16 1 19 14 29 19c1 4 1 7 0 9c6 0 5 4 5 11c19 6 22 28 31 44c-1 13 4 21 10 26c-1 8 3 9 2 18c9 5 14 15 14 28
c3 2 5 4 7 7c0 9 2 16 5 21c5 9 8 21 8 32c0 6 5 18 5 23c2 15 0 30 1 43c1 14 7 42 -3 59c-2 3 -4 4 -6 6c-1 4 -2 6 -3 9c-5 5 -15 10 -20 15c-30 4 -46 -7 -67 -14c-21 -15 -9 -67 -7 -103c-6 -3 -8 -7 -10 -9c-2 -20 1 -38 2 -62c0 -15 -4 -30 -4 -45
c-3 -16 -3 -32 4 -47l-1 -1h2zM242 453c-12 14 -51 25 -65 10c23 -1 52 -12 65 -10zM39 282c0 -3 -2 -4 -2 -7c-4 -20 -3 -35 -2 -59c0 -15 -1 -40 8 -48c7 5 6 14 5 20c-1 36 -5 64 -3 95c0 15 5 30 -3 47c-7 -13 -3 -29 -3 -48zM197 91c-5 -1 -7 -6 -9 -8
c11 -7 18 5 25 11c6 8 14 16 21 20c3 12 15 15 18 27c13 9 16 24 17 44c-2 1 -3 1 -5 1c-17 -33 -46 -59 -66 -92h-4zM65 32c4 0 4 2 7 1v11c-9 1 -10 -8 -7 -12z" />
    <glyph glyph-name="v.001" unicode="&#xe020;" horiz-adv-x="379" 
d="M171 -37c-9 4 1 26 -5 28c-4 0 -10 -10 -18 -10c-12 0 -9 8 -20 8c-9 46 -32 75 -52 111c0 2 -2 2 -5 2c-7 23 -20 43 -30 68c-10 23 -15 50 -22 75c-5 16 -13 33 -16 58c-7 42 -28 141 -34 185c-4 24 -12 69 -20 91c10 -3 4 31 14 31c6 -3 8 -12 14 -13
c2 -25 25 -38 25 -58c30 -2 59 -137 67 -159c5 2 9 2 17 2c8 -22 15 -49 15 -72c0 -3 3 -5 5 -7c-4 -66 28 -101 36 -159c7 -6 6 -24 14 -29c8 5 8 15 10 20c3 7 10 15 8 23c5 0 3 7 8 9c0 6 4 8 2 15c22 28 33 67 53 95c0 6 4 8 2 16c8 4 6 12 8 17c7 10 17 18 22 28
c6 10 10 22 18 30c0 4 4 4 5 4c0 10 5 12 3 22c2 0 2 -4 2 -6c18 30 50 82 68 112c7 -5 26 29 35 27c2 -15 -8 -15 -14 -23c-2 -23 -37 -86 -36 -114c0 -4 7 -4 10 -4c-3 -10 -8 -20 -8 -33c-12 -7 -10 -25 -18 -36c5 -7 16 6 20 0c-15 -34 -43 -58 -57 -96
c-32 -29 -43 -67 -68 -107c-8 -27 -22 -60 -33 -87c-9 -17 -17 -40 -14 -64c-3 0 -1 5 -5 5v-5l-5 2zM282 237c0 -2 -7 -7 -1 -10c1 4 6 4 4 10h4l-2 3c0 5 10 3 8 11h4l-2 2h4c4 22 21 30 26 50c-8 2 -7 -6 -10 -13c0 0 -5 0 -6 -2c-2 -1 0 -5 -2 -7l-7 -4c0 -2 5 -4 3 -6
c-3 -4 -10 -6 -8 -14l-2 2v-4c-6 -2 -6 -10 -10 -15l-3 1v-4z" />
    <glyph glyph-name="i.001" unicode="&#xe021;" horiz-adv-x="147" 
d="M181 -157v-12c1 -12 79 -55 67 -62c-15 4 -88 51 -100 57c0 5 -1 9 -3 13c-6 7 -10 17 -20 19c-7 13 -45 53 -52 64c-2 11 -32 65 -39 74c-2 11 -3 21 -6 31c-2 7 -5 16 -6 31c-2 23 -16 140 -14 170c0 13 3 26 -3 37c5 4 6 9 5 19c-1 3 -4 6 -4 9c0 6 3 13 3 18
c1 14 1 30 1 45c-11 -8 -11 -27 -30 -27c0 11 1 19 7 23c1 3 0 7 1 10c2 5 6 9 9 14c1 3 2 9 3 11c3 8 3 15 5 24c4 13 15 15 6 35c5 7 12 11 18 18c3 0 7 0 9 1c8 4 16 14 28 16c14 2 33 -6 45 -2c4 -22 -2 -40 -7 -60c-2 -25 -1 -35 -6 -61c-7 -62 -8 -212 0 -266
c7 0 5 6 10 6c-5 -28 5 -44 3 -76h-2v-1c-1 3 -6 3 -9 1c-4 -21 36 -80 44 -98c-1 -2 -6 -3 -7 -8c-2 -11 43 -54 44 -73zM61 552c-31 8 -18 55 -4 73c8 2 13 0 21 0c5 2 5 9 5 17v-1l1 3c1 1 5 1 3 -3c5 6 12 -2 13 -3c6 -13 2 -51 -1 -62c-6 -4 -8 -7 -13 -12
c-7 0 -13 -1 -21 -1c-1 -3 -3 -8 -4 -11z" />
    <glyph glyph-name="d.001" unicode="&#xe022;" horiz-adv-x="402" 
d="M309 982c-1 -8 4 -9 8 -11c-1 -5 5 -5 2 -10h-3l1 -2c-1 0 -1 -5 -1 -6l-2 -2l3 1c2 -8 5 -87 11 -94c1 -4 1 6 6 1c-2 -4 4 -7 7 -10c2 -9 -4 -30 -3 -44c0 -3 4 -6 4 -8c0 -13 -4 -26 -4 -38s-1 -22 0 -33c3 -9 -3 -170 -1 -178c2 -9 -4 -16 0 -23c3 -5 7 -10 7 -16
c6 0 13 1 14 -2c5 -21 -1 -41 -3 -61c-1 -20 0 -41 -1 -61c0 -10 -5 -19 -5 -29c-5 -48 0 -93 -1 -138c0 -19 -5 -37 -5 -56c0 -15 5 -31 5 -45c0 -17 -6 -31 -5 -47c1 -19 0 -41 0 -61c0 -10 -4 -21 -4 -34v-78c0 -3 -3 -9 -5 -11c-3 -21 -1 -52 -23 -57c3 15 0 38 1 57
c-1 5 -4 2 -8 5c-9 24 -8 98 -16 123c-4 -3 -10 -5 -8 -12c-4 10 -7 0 -12 2c-8 25 -13 60 -11 92c-18 -4 -25 -23 -35 -32c-16 -12 -34 -22 -52 -31c-2 -5 -9 -4 -9 -9c-10 5 -27 -5 -41 -5c-32 0 -62 17 -69 45c-6 4 -9 8 -12 14c-4 -1 -9 13 -9 6c-5 14 -7 32 -20 39
c-5 29 -10 66 -9 97c0 14 2 33 9 43c4 36 14 68 23 98c6 5 14 16 14 22c12 8 15 22 26 32c4 5 15 9 22 14c9 6 16 15 27 16c26 4 55 -1 74 -10c8 -2 16 -15 34 -13c5 -2 7 -7 19 -6c2 6 5 13 5 19c0 3 -3 6 -3 11c-2 13 3 27 4 42c6 74 -2 320 13 385c19 0 17 -10 37 -8
c3 13 -3 98 -1 118l3 -2zM124 405c5 -1 10 -8 18 -4c0 4 0 5 1 6c-4 4 -19 7 -19 -2zM243 362c-18 1 -31 6 -45 1c-13 -3 -21 -15 -28 -26c-4 -4 -7 -6 -9 -10c-3 -1 -3 -4 -4 -5c-1 -4 -5 -3 -6 -4c-12 -11 -13 -16 -22 -33c-3 -7 -9 -18 -11 -23c-1 -3 0 -7 0 -9
c-1 -4 -7 -11 -11 -18c-10 -22 -12 -46 -3 -75c3 -11 16 -29 25 -37c4 -1 9 -1 13 -5c5 -2 6 -5 10 -8c19 -7 28 0 41 7c21 8 31 13 43 30c8 9 24 38 25 51c2 10 -4 22 -4 32c-2 35 9 74 3 118c-5 7 -14 8 -17 14zM77 265c2 4 5 6 5 13c-5 0 -8 -9 -5 -13zM129 92
c-5 14 -22 18 -31 30c0 -1 -3 -1 -4 -1c3 -18 12 -25 26 -29l-1 -1l1 -4v-3c14 -7 58 -16 66 3c-10 0 -20 0 -25 -3c-5 4 -18 4 -25 8c-2 -1 -2 -4 -2 -5c-1 0 -5 0 -5 1l3 3zM134 52c-6 4 -15 2 -23 2c-2 -12 23 -11 23 -2z" />
    <glyph glyph-name="f.001" unicode="&#xe023;" horiz-adv-x="180" 
d="M91 225c-2 -5 -1 -13 -4 -18l-2 2l-1 -1c-1 2 -2 2 -4 2c1 -3 -1 -12 4 -9l1 -1h2c5 -22 -2 -44 -1 -67c1 -10 6 -26 7 -42c-1 -7 -4 -12 -5 -19c-1 -3 1 -7 0 -12c-3 -14 -8 -30 -8 -45c-2 -20 3 -47 3 -70c0 -16 0 -31 2 -46c1 -21 10 -44 6 -63c-1 -4 -5 -7 -7 -11
c-1 -2 -4 -6 -6 -9c-2 2 -2 9 -6 9c-8 1 -7 -3 -13 -3c-4 -12 1 -28 -2 -40c-2 -8 -20 -119 -18 -127c-7 -6 -11 -14 -16 -23c-7 0 -17 -3 -21 0c-1 8 1 17 3 23c-2 8 12 124 11 132c-1 12 -9 24 -10 36c-1 5 1 11 0 14c-2 5 -5 10 -6 13c-1 6 0 11 -1 16c-1 27 7 56 5 81
c2 3 6 5 5 9c-6 4 -1 -6 -5 -4c-7 15 -9 43 -9 65c1 29 2 59 4 87c0 13 2 25 3 37c0 15 -3 30 -3 43c0 3 -1 3 -1 4c0 5 1 8 2 12c2 18 0 37 0 53c-1 9 4 18 -5 24c-11 4 -22 -9 -30 -11c-8 0 -14 5 -22 10c10 19 36 23 56 32v56c1 9 3 16 4 24c1 10 3 19 3 27
c1 9 2 16 6 23c4 13 9 25 11 38c7 10 13 19 15 31c11 10 20 22 33 31c7 7 17 17 38 13c5 0 16 -6 25 -10c19 -11 30 -23 36 -47c6 -17 0 -36 -8 -50c-5 0 -10 -34 -12 -28c-1 4 -5 50 -5 56c-2 8 -9 19 -6 27c-6 2 -5 4 -5 8c-3 -2 -6 5 -12 12c-4 6 -6 12 -11 12
c-10 3 -12 -11 -21 -14c-4 -13 -12 -28 -11 -42c-6 -12 -8 -29 -7 -44c1 -10 6 -20 7 -31c1 -13 -5 -25 -1 -39c0 -8 3 -21 2 -31c10 1 75 3 153 5c28 1 58 -1 88 0c33 1 66 6 96 7c65 3 185 7 193 10c0 -6 59 -11 63 -16c0 -6 -71 -5 -69 -13c-13 -4 -90 -11 -102 -15
c7 -4 21 2 27 -4h-2l1 -2c-6 -5 -62 -4 -133 -5c-23 0 -48 -5 -73 -5c-27 0 -53 4 -79 4c-83 0 -154 -5 -163 -7c-1 -11 0 -29 2 -44c0 -7 -1 -16 4 -20c0 1 0 1 2 1l1 -1h2zM70 -163c5 5 1 20 -3 23c-2 -5 -3 -20 3 -23z" />
    <glyph glyph-name="g.001" unicode="&#xe024;" horiz-adv-x="363" 
d="M165 41v-1c-2 -2 -7 -12 -4 -11c5 -7 -13 0 -14 -5c6 0 -2 -6 7 -4c3 -3 -9 -5 -13 -8c-9 12 -11 29 -13 49c-10 -1 -16 -8 -23 -13c-6 -4 -14 -8 -23 -14c-12 -8 -67 -68 -82 -74c-5 1 -10 5 -14 9c9 10 -5 15 0 25c4 1 7 2 11 4c4 8 57 62 61 69c14 1 15 14 28 15
c6 8 6 8 10 16c0 1 -1 4 -4 4c12 4 24 5 33 9c-3 4 -3 6 5 6c1 23 1 43 2 66c-4 8 -14 5 -21 7c-15 4 -26 15 -39 20c-2 5 -3 11 -11 11c0 4 4 4 0 8c-15 20 -42 44 -51 71c-3 15 -5 37 -5 54c0 15 5 29 4 45c13 14 22 31 33 45c3 0 3 -1 5 -1c0 1 -1 1 -2 1c4 1 5 6 11 8
c0 2 -2 2 -2 6c8 0 12 9 17 13c11 9 33 4 45 17c7 31 -5 68 0 93h4v1l3 1l-1 1c11 -1 24 1 32 0v26s28 51 26 49c3 -33 -18 -133 -15 -165c38 1 80 2 85 -35c0 -1 9 2 8 -5h-3c7 -4 1 -11 3 -20c-1 -1 -1 -4 -3 -5c-1 -27 -9 -43 -21 -61c-9 -1 -15 1 -24 1
c-16 17 3 50 -7 68c-15 6 -16 21 -35 19c-5 -2 0 -4 -2 -7c-4 1 -3 7 -8 3s0 -14 0 -21c-2 0 -4 3 -9 2c1 -14 -3 -21 -4 -35c-4 0 -10 -2 -14 -1c-3 10 -8 22 -8 36c-6 1 -6 -3 -11 -3c0 -5 4 -7 3 -11c-4 -5 -4 -13 -8 -15c1 -13 -6 -25 -3 -41c3 -12 14 -19 14 -31
c17 -15 27 -40 48 -51c27 -2 39 1 53 13c6 3 15 11 17 15c11 12 11 29 20 42c-1 1 -1 5 -1 7s4 -21 3 -22c8 6 5 18 13 23c7 4 97 175 103 176c17 4 -1 -3 8 -13c2 -21 -74 -201 -81 -215c0 -2 7 0 6 -3c1 -10 -11 -16 -11 -22c-1 -2 -6 -3 -9 -6c-5 -15 -16 -23 -23 -35
c-18 -3 -30 -9 -37 -23c-9 0 -20 -9 -23 -13c-24 2 -23 -33 -23 -58l-1 1l-1 -3c-3 -3 2 -12 2 -20c14 2 37 8 50 3c10 -1 15 -11 24 -8c0 -8 9 -5 14 -8c2 -6 12 -7 18 -10c5 -7 9 -12 16 -18c5 -16 22 -28 24 -46c3 -4 -1 -8 -1 -12c0 -5 5 -8 5 -12c1 -9 -4 -16 -4 -24
c0 -4 4 -4 4 -8c1 -9 -3 -18 -6 -29c78 -23 152 -51 158 -52c1 -15 -35 1 -37 -12c-7 -1 -72 21 -121 36c-2 -22 -11 -42 -21 -59c1 -1 1 -3 3 -3c-14 -24 -30 -44 -49 -60c0 -1 0 -2 1 -2c-4 0 -6 -6 -14 -7c-3 -3 -2 -9 -4 -14c-6 -1 -5 3 -8 2c-8 -11 -25 -10 -30 -20
c-6 -3 -4 2 -8 1c-17 -10 -45 -12 -65 -19l-2 1v-2h-1c-3 0 -4 0 -3 -1c-7 0 -10 2 -21 0c-29 15 -65 21 -93 38c-16 22 -6 57 -6 85c4 -1 4 2 6 2v15c-1 7 -3 0 -6 2c6 13 36 52 51 58c1 1 104 36 102 39c10 5 29 4 52 1c0 1 1 1 1 2c3 23 13 48 9 81c-1 10 -7 25 -16 26
c-10 1 -23 -2 -29 -10c2 -14 -1 -23 -5 -33h-1v-1c-2 0 0 2 -3 2c0 -2 0 -6 1 -8h-1zM163 -40c-23 -10 -93 -67 -103 -93h-3c-3 -9 -1 -23 -2 -37c0 -8 -6 -20 2 -22c3 2 3 8 3 11h2v1c10 -2 7 -18 9 -29c25 -6 49 10 56 30c7 9 20 20 29 31c2 4 3 8 7 14c6 9 16 15 21 28
c4 7 9 16 11 23c1 5 0 10 1 12c1 4 8 11 9 15c0 3 1 6 1 9c-22 4 -42 8 -43 7zM149 229v1c5 4 7 -2 10 -2c15 -3 29 8 34 18c-6 -2 -11 2 -11 -2h-24c-1 5 -13 2 -22 4c-28 5 -44 33 -58 57c0 2 3 7 -4 6c4 -6 -3 -11 -1 -20c4 -10 13 -28 23 -38c3 -1 7 -1 8 -3
c3 -1 8 -9 13 -13c2 -1 8 -1 11 -3c5 -2 8 -11 19 -9v4h2zM242 -55c-2 -8 -7 -14 -8 -24c-4 -5 -12 -12 -10 -19c7 0 9 5 9 11c2 3 8 3 5 9h5c2 8 5 15 7 21c-2 1 -5 1 -8 2zM262 -19l-1 1h1c2 7 9 20 2 23c0 -8 -6 -11 -6 -22v-4c-2 0 -1 -8 -4 -4v-2c2 -1 4 -1 6 -2
c1 3 1 5 2 8v2zM219 464c3 3 -1 4 -1 9h-8c0 -8 3 -8 9 -9zM73 320v-3c1 0 1 -2 4 -2c0 4 0 6 -4 5z" />
    <glyph glyph-name="o.001" unicode="&#xe025;" horiz-adv-x="368" 
d="M137 -4v1c1 1 3 1 7 1c-3 2 -4 2 -4 4c-1 0 -1 1 -2 1c-55 25 -93 49 -98 63h-7c4 1 4 6 5 9c-5 11 -6 22 -13 27c0 14 -5 24 -14 30c3 20 -8 35 -9 53c-3 2 -6 7 -9 10c1 11 1 23 -3 30c6 12 1 31 1 43c2 1 3 1 7 1v2h1l2 -2c5 2 0 4 0 9c8 18 -3 47 7 64h3
c6 -1 10 15 0 12c2 3 7 2 7 8c6 2 3 -3 6 -5c1 4 4 5 5 8c0 3 -4 2 -5 2l4 4c4 -1 10 5 17 2c8 11 5 30 8 46c20 9 26 43 48 50c4 10 25 -6 29 4c4 -4 4 -24 8 -26c19 -2 12 42 25 33c6 1 31 49 37 53c20 5 34 4 46 2h8c3 -2 3 -8 7 -5c-1 -6 5 -9 11 -13
c4 -15 12 -28 15 -46c1 -2 23 -68 27 -71c-4 -3 -1 -15 4 -15c2 -10 0 -15 7 -22c-2 -3 0 -11 3 -17c1 -5 4 -5 5 -12c2 -10 -6 -32 -4 -41c0 -3 3 -7 3 -14c0 -11 0 -28 -4 -43c0 0 2 -1 2 -2h-4c0 -4 2 -8 4 -10c0 -2 -2 -2 -4 -2c5 -8 -1 -15 4 -24c0 -1 -5 -1 -5 0
c-3 -4 -6 -11 -4 -19c-15 -9 -10 -32 -18 -46c0 -2 1 -2 3 -4c-14 -9 -19 -28 -25 -45l-2 2l-2 -3c-6 -4 -13 -13 -12 -20c-3 -1 -11 -1 -8 -9h-7c-1 -3 -4 -7 -4 -14c-12 -10 -30 -34 -38 -40c-3 -2 -8 -6 -12 -6s-6 -3 -6 -3c-3 0 -22 7 -27 0c-7 5 -15 -2 -26 0
c3 5 0 2 -1 5h1zM247 332c-16 -2 -68 46 -101 70c-8 3 -15 -9 -15 -21c-3 -1 -6 -1 -8 -3c1 2 1 5 1 5s-3 3 -3 1c-2 -1 1 -3 1 -4c0 0 -5 -4 -8 -8c3 -7 -3 -19 -3 -30c-6 4 -4 -15 -5 -24c-1 -5 -5 -10 -5 -16l-3 1v-3c-3 2 -1 -10 0 -4h1l2 -1c8 -11 -2 -24 6 -32
c-1 -2 -4 -3 -4 -7c-5 -42 -11 -70 -5 -107c1 -2 1 -9 3 -17c4 0 4 4 5 0c-8 -8 12 -27 7 -42c4 0 1 3 5 3c0 -4 -4 -4 -4 -9c3 -1 7 0 7 -3c0 -11 9 -17 15 -15c0 0 -4 -2 -3 -2c11 -1 16 3 24 -5c11 0 15 11 22 8c1 3 1 7 1 10c3 2 7 2 10 4c2 3 8 13 10 18c2 3 5 9 6 12
h4c1 6 1 13 1 18c3 3 4 7 8 7c0 9 10 16 13 27c5 23 -6 35 0 56c0 3 2 5 5 6c1 7 -3 11 4 12c-1 9 5 16 0 22l4 2h-1c0 7 0 5 2 2c3 5 3 13 4 20c-2 1 -5 1 -5 4c-1 3 1 3 4 3c-5 6 -2 17 1 28c-2 7 -3 12 -3 14zM259 363c3 34 -27 102 -49 125c-59 -38 6 -99 44 -146
c-1 8 -1 16 5 21zM98 70c0 2 3 2 3 4c-4 4 -10 10 -17 4c-5 13 -10 28 -16 40c-3 0 -3 -1 -6 -1c2 7 -3 8 -2 14l-1 2v3c1 2 3 2 3 5c-3 2 -6 0 -7 -1c4 -4 1 -7 1 -7l1 -2c-4 1 -4 -2 -6 -3c2 -20 38 -57 65 -87l16 3c-19 -1 -22 19 -34 26zM28 218c2 0 5 6 5 8
c2 10 0 25 0 35s-1 18 -4 22c-1 -20 -11 -49 -1 -65zM82 291c-3 -1 -7 -18 -2 -18c7 10 7 26 7 38h-4c-1 -5 -4 -13 -1 -20zM52 242v-24c7 1 0 12 5 16c2 0 2 -2 3 -2c2 2 2 4 0 5c-3 -4 -4 7 -8 5zM200 66c2 -3 11 -4 14 -2c0 6 0 8 -3 8c-1 -2 -8 -2 -11 -6zM62 246
c3 6 8 15 2 20c0 -5 -7 -14 -2 -20zM30 374c-1 -1 -1 -2 -2 -3c0 0 -1 1 -1 2c-5 -7 2 11 3 1zM122 377l1 1c0 -2 -1 -4 -1 -1zM254 535v1c1 -1 1 -1 0 -1z" />
    <glyph glyph-name="j.001" unicode="&#xe026;" horiz-adv-x="172" 
d="M122 326c0 -26 -3 -55 -3 -78c-1 -44 3 -82 4 -120c0 -34 -2 -106 -3 -142c0 -1 -1 -2 -1 -3c110 11 194 -4 159 -24c11 -2 10 -18 18 -23c-1 -12 -75 -8 -79 2c-5 12 -45 13 -99 5c-3 -65 -8 -168 -32 -194c-6 0 -7 3 -9 6c-11 -11 -19 -25 -27 -39
c-23 -11 -42 -26 -63 -38c-22 -4 -35 -14 -59 -14c-1 0 -6 2 -8 2c-4 0 -4 -3 -14 0c-14 4 -32 8 -49 15c-11 3 -20 9 -34 11c-8 8 -19 12 -29 19c-4 12 -4 30 -17 34c0 16 -7 32 -7 51c0 11 42 62 50 70c46 48 115 79 186 97c0 9 0 18 -1 27c-3 24 3 88 2 113
c-3 55 -11 108 -3 168c2 11 4 22 7 33c3 25 6 45 8 67c-22 -7 -23 -49 -52 -38c0 10 8 11 14 16c5 13 11 28 22 36c3 22 20 30 23 52c12 10 19 26 27 40c8 6 18 2 25 5c8 1 11 9 18 12c7 2 11 -3 16 2c10 -3 11 -14 18 -19c-1 -32 -7 -54 -7 -84c0 -22 -1 -44 -1 -67z
M-191 -211c-8 -14 2 -23 9 -36c0 -1 5 -3 5 -4c3 -8 -3 -16 6 -21c30 8 34 -27 57 -28c9 -2 31 4 40 8c15 6 26 20 41 26c8 16 20 27 20 52c10 12 15 87 18 134c-109 -29 -215 -78 -196 -131zM137 601c-2 -8 8 -5 4 -10c-6 -25 -21 -40 -36 -54c-22 -4 -31 6 -41 15
c-8 40 13 66 21 96c6 6 17 6 27 9c3 2 4 6 6 11c-3 10 -11 5 -14 14c-3 0 -11 -3 -10 4c0 1 0 3 2 3c17 1 39 1 47 -16c9 -21 -2 -51 -6 -72z" />
    <glyph glyph-name="c.001" unicode="&#xe027;" horiz-adv-x="392" 
d="M308 375c-4 5 -10 9 -15 13c1 20 -2 37 -17 43c-23 -15 -43 -32 -60 -53c-8 2 -9 -1 -15 -3c-15 -10 -22 -30 -34 -43c2 -12 -7 -17 -3 -26c-12 -10 -23 -40 -27 -66c-1 -22 -1 -52 2 -75c2 -5 6 -9 8 -17c3 -9 2 -22 5 -31c8 -21 23 -38 36 -49c7 0 15 0 17 6
c15 -23 123 79 136 94c24 40 119 143 138 188c15 -9 74 101 74 84c-13 -9 -81 -134 -88 -153c-4 -9 -21 -28 -23 -39c-13 -6 -91 -119 -108 -123c-11 -50 -148 -128 -206 -117c-2 10 -13 8 -15 17c-7 0 -11 4 -21 2c-13 13 -22 28 -37 39c-7 30 -30 47 -35 79
c-2 5 -10 5 -12 9c0 23 -9 43 -7 64c0 7 5 11 7 16c2 8 4 17 6 27c6 26 7 58 15 80c7 -4 6 2 4 8c3 1 3 -2 3 -4c0 5 8 7 10 13c3 9 2 20 5 28c8 15 30 32 43 43c17 13 36 22 49 35c26 12 56 19 80 30c15 4 25 -3 36 -5c15 -2 30 2 43 0c15 0 26 -6 39 -13
c4 -4 4 -13 11 -13c-3 -13 10 -21 10 -32s-6 -23 -13 -32c-21 -2 -21 -22 -41 -24zM193 421c8 8 19 10 23 19c-6 4 -15 0 -19 -4c6 -3 -9 -11 -4 -15zM147 375c2 3 5 5 0 7c2 -4 -6 -5 0 -7zM128 87c2 9 -4 11 -7 17c-4 13 -6 30 -15 35c0 -20 9 -32 13 -50v-2h2
c0 -8 0 -13 9 -11c2 5 -2 5 -4 9h2v2zM147 57c0 4 0 9 -6 7c0 -3 0 -7 4 -7v-2h2v-2c13 -13 32 -34 56 -22c-13 13 -34 18 -53 26l-1 2z" />
    <glyph glyph-name="a.001" unicode="&#xe028;" 
d="M275 528h4c4 -9 12 -18 20 -22c-1 -10 6 -11 7 -18c5 -5 8 -12 16 -16c8 -45 14 -126 16 -185c0 -16 4 -34 2 -51l-4 -5c-6 -18 0 -42 -3 -60c-2 -14 -7 -23 -5 -38c2 -25 4 -52 4 -78c0 -66 105 -148 133 -138c37 13 -26 -5 -26 -17c0 -7 8 -20 1 -17
c-72 31 -181 123 -189 198c0 6 -4 9 -6 17c-3 -7 -8 -3 -11 -5c-11 -6 -10 -24 -24 -29c-2 -9 -14 -10 -16 -24c-7 0 -10 -8 -13 -15c-9 -2 -18 -5 -21 -12c-14 2 -28 -2 -36 -5c-13 3 -26 4 -38 7c-4 5 -9 12 -17 12c-1 8 -6 12 -12 13c-4 19 -16 26 -20 48
c-2 5 -5 7 -8 10c-1 17 -12 29 -16 42c-1 8 0 20 -7 28c-2 33 -14 70 -2 95c-5 15 2 23 3 35c0 2 -3 8 -1 11c1 4 2 9 5 12c2 3 2 10 3 17c3 3 6 8 9 12c3 11 4 15 10 22c-1 11 4 15 5 22c2 2 3 2 5 2c0 5 0 9 1 11c2 4 7 5 8 7c1 3 -1 7 1 9c1 5 6 6 6 11c8 5 13 9 16 17
c5 2 8 2 12 3c3 2 5 7 10 9c3 3 15 3 25 5c8 0 18 4 24 4s29 -6 37 -9c2 0 4 -5 4 -5c2 -2 7 0 9 0c11 -4 20 -10 30 -10c12 -15 28 -26 39 -41c1 24 7 81 3 106c3 6 7 8 7 15zM237 168c1 9 2 11 4 15c-5 32 5 71 -1 113c-3 4 -5 10 -10 13c4 7 -3 12 -4 17
c-2 7 -1 14 -3 20c-4 12 -13 21 -14 32c-11 0 -9 7 -14 12c10 0 0 17 -2 21c-40 8 -52 -26 -60 -56c-2 -6 -5 -12 -6 -17c-2 -9 -3 -15 -3 -27c-6 -17 -11 -41 -9 -66c1 -7 5 -20 6 -30c3 -46 14 -93 36 -117c10 7 15 -5 24 -5c7 0 15 9 21 13c8 7 14 11 21 23
c6 9 12 13 13 24l2 -1l2 1c2 -1 1 -8 3 -8c1 3 2 17 -2 18c0 -1 -2 -1 -2 0l-1 3zM70 247c1 -11 -1 -27 7 -32c-7 25 8 48 2 74h-4c-4 -11 -6 -24 -5 -42zM143 58c-2 0 -2 1 -2 3c-11 3 -23 10 -31 18c-1 -4 -5 -6 -8 -7c-3 3 -5 10 -13 9c7 -26 23 -37 50 -35c0 3 2 8 4 10
l2 -2l2 1c0 -1 1 -6 1 -7c7 -2 8 1 7 8c-3 -1 -3 2 -8 2v-2h-2z" />
    <glyph glyph-name="k.001" unicode="&#xe029;" horiz-adv-x="412" 
d="M3 411c-5 9 1 20 2 30c-1 7 -3 16 -2 23c1 11 4 25 4 40c1 28 -2 57 2 83c1 7 3 14 4 20c2 6 -1 12 -2 20c-1 38 1 76 4 113c2 14 2 134 5 150c0 7 -2 17 -1 23c1 7 8 12 7 19c14 -2 25 -105 38 -105c6 -8 11 -19 20 -30c1 -3 0 -4 1 -6c3 -2 4 -2 5 -4c3 -5 1 -10 5 -14
c6 -9 18 -12 21 -23c3 -7 2 -15 2 -23c0 -18 -2 -42 -6 -54c-2 -15 6 -30 5 -44c1 -6 -4 -13 -3 -18c0 -4 2 -10 2 -14s-4 -9 -4 -11c-2 -24 13 -47 10 -71c1 -4 -3 -7 -3 -10c1 -5 5 -10 6 -16c0 -2 -4 -4 -4 -6c0 -10 3 -23 3 -34s-4 -22 -2 -32c18 7 31 19 49 26
c3 9 10 17 14 26c7 0 11 2 19 2c12 5 25 9 36 18c26 2 36 2 64 0c7 -9 17 -14 26 -16c1 -7 13 -11 17 -17c8 -14 9 -46 9 -67c0 -14 -4 -28 -14 -34c-21 16 -22 46 -41 63c-1 12 -12 16 -11 28c-29 4 -49 -6 -67 -16c-8 -6 -17 -9 -20 -16c-9 0 -9 -5 -13 -7
c-2 -13 6 -22 7 -32c2 -7 9 -6 11 -10c5 -14 8 -27 13 -37c10 -25 23 -55 34 -82c9 -20 84 -134 94 -151c0 -3 2 -1 5 -3v-3c4 -7 11 -17 12 -25c8 -9 14 -18 17 -30c2 -3 9 -9 5 -12c1 -5 5 3 5 -1c4 -7 47 -67 49 -70c10 -14 16 -34 30 -47c1 -1 1 -6 2 -8
c3 -4 8 -6 12 -9c-2 -19 58 -95 64 -107c7 -14 5 -29 -17 -22c-10 4 -64 81 -74 87c-10 15 -23 27 -32 44c-17 3 -19 21 -32 32c0 2 -4 3 -1 9c-14 7 -58 78 -71 84c-1 12 -14 13 -15 28c-7 5 -11 8 -14 14c-5 9 -8 20 -14 28s-83 115 -89 124c-1 4 -2 9 -5 14
c-5 6 -10 12 -13 19c-2 2 -1 9 -3 13c-3 6 -10 11 -13 17c-2 5 -1 14 -4 21c-2 7 -5 17 -9 31c-9 -8 -19 -20 -23 -31c-3 -10 -4 -24 0 -38c0 -6 8 -10 9 -13c2 -6 0 -11 1 -16c2 -8 9 -13 9 -20c1 -6 -2 -9 0 -14c-6 -4 -16 -9 -13 -19c1 -10 3 -21 8 -32
c7 -24 26 -47 18 -67c-8 -6 -12 3 -19 -2c-5 2 -6 6 -12 13c-6 -1 -5 -10 -7 -14c1 -7 -2 -13 -2 -17c-1 -12 -20 -81 -21 -91c-2 -13 5 -33 3 -41c-2 -10 -14 -13 -21 -21c-12 1 -17 -6 -27 -2c-6 -1 -2 5 -3 7c-8 6 -13 14 -17 22c-5 2 -11 3 -15 7c4 14 6 26 5 46
c-1 15 9 91 12 104c2 13 2 26 3 40c1 27 5 55 -3 87c-3 14 -8 26 -11 43c-2 14 -10 26 -13 40c-2 18 -3 39 -4 57c2 14 10 29 0 47c-2 7 8 -3 6 4c-3 3 4 6 -1 8l-2 1h-1zM243 457c5 3 19 -3 22 6c-9 1 -23 1 -22 -6z" />
    <glyph glyph-name="n.001" unicode="&#xe030;" horiz-adv-x="391" 
d="M391 -14c-8 -40 58 -99 48 -139c-4 2 -6 5 -8 5c0 -1 -1 -5 -1 -12c1 15 73 -105 62 -102c-1 -7 4 -6 5 -7c0 -3 4 -3 3 -8c-11 -7 -13 5 -15 11c-5 12 -70 103 -80 110c-5 -4 1 -13 -3 -16c-11 5 -18 15 -26 25c-1 3 -5 6 -7 9c-8 14 -8 28 -13 42c-1 6 -38 50 -39 55
c-1 4 -3 12 0 14c0 5 -5 3 -5 5c0 6 2 6 1 10c0 5 -3 8 -7 9c0 4 -2 12 -5 8c-3 1 4 4 0 7c0 2 -3 1 -3 -2c-2 3 0 11 -1 14c-3 5 -33 83 -37 89l-3 9c-1 5 -5 9 -6 13c-7 23 -2 50 -8 66c-2 5 4 1 4 4c-3 4 -4 1 -7 2c0 10 -7 22 -2 26c-6 8 -6 23 -5 35c-3 1 1 -4 -4 -3
c1 14 0 27 1 39c0 4 3 6 3 8c1 7 -1 17 -1 23c0 5 2 10 2 14c0 5 -2 9 -2 13c0 8 4 15 5 23c1 9 6 17 7 25c1 11 -3 22 1 34c-17 15 -33 -9 -47 -17c-2 -10 -8 -19 -13 -27v-8c-6 -6 -6 -15 -12 -20c-3 -15 -11 -29 -16 -47c-2 -3 1 -6 0 -9c-2 -4 -6 -9 -7 -14
c-4 -14 -5 -33 -11 -45c0 -1 -1 -4 -4 -5c-8 -15 -7 -35 -12 -53c-1 -3 -5 -8 -7 -13c-4 -12 -2 -26 -5 -39c0 -1 -4 -4 -4 -6c-3 -10 -2 -21 -3 -32c-1 -9 -4 -17 -5 -27c0 -5 1 -10 0 -17c-2 -9 -8 -13 -14 -21c-6 0 -10 2 -16 2c-2 -11 0 -23 -6 -32h-7
c-4 1 -3 -6 -6 -10c0 0 -9 -4 -2 -5c-2 -1 -3 0 -4 0c1 -5 -15 -5 -22 -10c-1 8 -5 14 -5 25c0 1 4 7 4 11v8c1 4 4 7 3 11c0 2 -3 1 -3 2c-5 31 3 63 -7 86c0 5 3 5 2 9c0 2 -4 2 -4 0c2 5 0 19 2 18c-1 7 -2 12 -5 15c-7 44 0 89 -4 129c-2 20 -7 37 -3 58
c3 11 8 21 10 33c2 14 -13 94 -12 110c0 7 2 27 3 31c1 3 4 4 4 7c1 3 -1 7 0 8c0 1 3 0 3 1c1 4 4 11 5 14c1 5 0 12 1 16s4 4 5 7c3 9 2 21 5 28c6 5 16 7 27 5c5 -2 6 -10 10 -15c4 -25 -12 -37 -9 -67c3 -5 13 -2 19 -5c5 -20 15 -106 15 -130c2 -42 -1 -88 2 -124
c7 1 9 13 7 18c8 20 17 44 19 65c7 2 3 11 11 11c3 4 -3 8 4 7c-1 12 7 16 8 28c4 3 6 7 10 8c10 24 26 34 36 57c4 2 7 8 12 10c18 3 31 0 42 -1c5 0 8 3 13 0c7 -1 16 -5 22 -11c1 0 1 -1 0 -1h5c0 0 -1 -3 0 -3c3 1 1 0 7 -4c4 -2 10 -6 17 -8c1 -8 8 -11 11 -20
c1 -3 0 -7 1 -11c2 -7 7 -20 7 -32c1 -11 -3 -21 1 -31c-5 -18 -4 -30 -5 -51c7 -3 -1 -22 7 -27c-3 -12 4 -20 5 -32c3 -18 -1 -41 7 -56c-4 -32 34 -124 38 -157c3 -17 3 -35 9 -47c2 -3 6 -2 7 -6zM130 369c4 -2 6 7 1 5c0 -2 -3 -2 -1 -5zM253 268c0 5 3 17 0 25
c-2 -8 -4 -18 0 -25zM255 253c0 4 0 7 -3 7c0 -3 -3 -4 0 -7h-1l1 -1c-1 -3 0 -1 -1 -7h4c0 4 0 6 -2 7h2v1zM310 155c7 19 7 48 1 69h-4c-1 -27 -1 -47 3 -69zM310 143h2v5h-2v-5z" />
    <glyph glyph-name="h.001" unicode="&#xe031;" 
d="M50 923l1 -1c-1 -3 3 -3 1 -4c-2 1 -2 0 -4 1c1 -2 -4 -6 -4 -7c0 1 2 -2 2 -2c0 -3 -2 -9 3 -9c1 2 1 7 1 12c2 -2 3 -3 4 -1c5 -7 8 -15 9 -26c19 -19 9 -29 13 -36c-1 1 -3 -8 -2 -11c0 -9 12 -137 15 -141v-4c3 -2 5 -8 7 -13h-2v-2s0 -1 1 -1h2c0 -2 2 0 3 -2
c0 -9 1 -19 0 -28c2 -1 0 -2 2 -4c-1 0 0 -4 -1 -5c1 -1 1 -4 1 -8c2 0 -2 -4 0 -4c3 0 1 5 4 4c12 -4 21 -36 11 -27c-1 -5 3 -46 -1 -47c1 0 1 0 1 -1h-1v-1c0 -3 -3 -6 -1 -8c3 -2 5 -7 2 -10c5 -1 1 -10 4 -14c-1 -2 -2 -3 -3 -6c3 -7 -2 -13 1 -22c-1 -4 -1 -10 -4 -13
c0 -2 1 -3 1 -4c-1 -5 -3 -7 -4 -11c-1 -3 1 -5 0 -8c-4 -4 -3 -11 -7 -14h1c-2 -1 -1 -3 -2 -4c0 -5 -2 -9 -4 -15c-1 -5 -1 -11 -2 -18c-2 0 -3 -10 0 -13c-3 0 -3 -4 -4 -5c-2 -12 2 -29 -1 -41l2 -2h-2l2 -1c0 -14 -3 -34 0 -49c-1 -5 -1 -10 -1 -15c4 4 4 12 3 16
c8 20 17 44 19 65c7 2 3 11 11 11c3 4 -3 8 4 7c-1 12 7 16 8 28c4 3 6 7 10 8c10 24 26 34 36 57c4 2 7 8 12 10c18 3 31 0 42 -1c5 0 8 3 13 0c7 -1 16 -5 22 -11c1 0 1 -1 0 -1h5s-1 -3 0 -3c3 1 1 0 7 -4c4 -2 10 -6 17 -8c1 -8 8 -11 11 -20c1 -3 0 -7 1 -11
c2 -7 7 -20 7 -32c1 -11 -3 -21 1 -31c-5 -18 -4 -30 -5 -51c7 -3 -1 -22 7 -27c-3 -12 4 -20 5 -32c3 -18 -1 -41 7 -56c-4 -32 4 -56 8 -89c3 -17 16 -89 22 -101c2 -3 6 -2 7 -6c-8 -40 109 -167 99 -207c-4 2 -6 5 -8 5c0 -1 -1 -4 -1 -10c2 9 14 -30 4 -27
c-1 -7 4 -6 5 -7c0 -3 4 -3 3 -8c-11 -7 -13 5 -15 11c-5 12 -62 112 -72 119c-5 -4 1 -13 -3 -16c-11 5 -18 15 -26 25c-1 3 -5 6 -7 9c-8 14 -40 50 -45 64c-1 6 -7 10 -8 15c-1 4 -3 12 0 14c0 5 -5 3 -5 5c0 6 2 6 1 10c0 5 -3 8 -7 9c0 4 -2 12 -5 8c-3 1 4 4 0 7
c0 2 -3 1 -3 -2c-2 3 -13 65 -14 68c-3 5 -3 15 -7 21l-3 9c-1 5 -5 9 -6 13c-7 23 -2 50 -8 66c-2 5 4 1 4 4c-3 4 -4 1 -7 2c0 10 -7 22 -2 26c-6 8 -6 23 -5 35c-3 1 1 -4 -4 -3c1 14 0 27 1 39c0 4 3 6 3 8c1 7 -1 17 -1 23c0 5 2 10 2 14c0 5 -2 9 -2 13c0 8 4 15 5 23
c1 9 6 17 7 25c1 11 -3 22 1 34c-17 15 -33 -9 -47 -17c-2 -10 -8 -19 -13 -27v-8c-6 -6 -6 -15 -12 -20c-3 -15 -11 -29 -16 -47c-2 -3 1 -6 0 -9c-2 -4 -6 -9 -7 -14c-4 -14 -5 -33 -11 -45c0 -1 -1 -4 -4 -5c-8 -15 -7 -35 -12 -53c-1 -3 -5 -8 -7 -13
c-4 -12 -2 -26 -5 -39c0 -1 -4 -4 -4 -6c-3 -10 -2 -21 -3 -32c-1 -9 -4 -17 -5 -27c0 -5 1 -10 0 -17c-2 -9 -8 -13 -14 -21c-6 0 -10 2 -16 2c-2 -11 0 -23 -6 -32h-7c-4 1 -8 -75 -11 -79c0 0 -9 -4 -2 -5c-2 -1 -3 0 -4 0c1 -5 -15 -5 -22 -10c-1 8 -5 14 -5 25
c0 1 4 7 4 11v8c1 4 9 76 8 80c0 2 -3 1 -3 2c-5 31 3 63 -7 86c0 5 3 5 2 9c0 1 -3 1 -4 0c1 6 0 19 2 18c-1 7 -2 12 -5 15c-7 44 0 89 -4 129c-2 20 -7 37 -3 58c3 11 8 21 10 33c2 14 1 31 2 47c0 7 2 27 3 31c1 3 4 4 4 7v2c-2 4 1 8 1 14c0 4 -2 10 -3 13c0 1 1 2 1 2
s-1 0 -2 1c0 4 2 8 1 11c-1 12 -1 27 -3 42c-15 26 -10 49 0 50c3 24 0 47 2 72c1 1 0 4 3 3c-4 4 -1 10 0 15c0 4 -1 7 -1 10c0 2 -6 124 -6 125c0 7 1 11 0 17c2 21 -5 30 5 57v1c1 4 3 7 4 11c1 6 1 14 2 21c0 2 -2 1 -2 5c2 2 5 0 7 0c2 -1 6 -4 7 -5h-2c0 -2 2 -6 2 -7
c2 0 1 0 3 -4v-7c-2 -3 1 -6 -2 -7c2 -1 3 -2 4 -2c2 3 7 0 8 3c0 2 -4 2 0 3v-1h1zM310 155c7 19 7 48 1 69h-4c-1 -27 -1 -47 3 -69zM253 268c0 5 3 17 0 25c-2 -8 -4 -18 0 -25zM255 252v1c0 4 0 7 -3 7c0 -3 -3 -4 0 -7h-1l1 -1c-1 -3 0 -1 -1 -7h4c0 4 0 6 -2 7h2z
M130 369c4 -2 6 7 1 5c0 -2 -3 -2 -1 -5zM310 148v-5h2v5h-2zM78 849c-1 0 -2 1 -2 1c1 2 1 1 2 -1z" />
    <glyph glyph-name="l.001" unicode="&#xe032;" horiz-adv-x="140" 
d="M189 -216v-12c1 -12 36 -74 -4 -31c-15 4 -17 20 -29 26c0 5 -1 9 -3 13c-6 7 -10 17 -20 19c-7 13 -51 58 -58 69c-2 11 -3 28 -10 37c-2 11 -34 78 -37 88c-2 7 -5 16 -6 31c-2 23 -23 174 -21 204c0 13 3 26 -3 37c5 4 6 9 5 19c-1 3 -4 6 -4 9c0 6 3 13 3 18
c1 20 -7 55 -1 114c-2 18 3 67 5 86c0 13 3 26 -3 37c5 4 6 9 5 19c-1 3 -4 6 -4 9c0 6 3 13 3 18c1 14 1 30 1 45c-11 -8 -11 -27 -30 -27c0 11 1 19 7 23c1 3 0 7 1 10c2 5 6 9 9 14c1 3 2 9 3 11c3 8 3 15 5 24c4 13 17 31 8 51c5 7 12 11 18 18c3 0 7 0 9 1
c8 4 36 109 48 111c14 2 33 -6 45 -2c4 -22 -22 -135 -27 -155c-2 -25 -3 -51 -8 -77c20 -31 18 -75 9 -119c2 0 5 0 7 1c4 -22 -8 -68 -13 -88c-2 -25 -3 -51 -8 -76v-1c-7 -62 -1 -246 7 -300c7 0 5 6 10 6c-5 -28 5 -44 3 -76h-2v-1c-1 3 -6 3 -9 1
c-4 -21 38 -100 46 -118c-1 -2 -6 -3 -7 -8c-2 -11 49 -59 50 -78zM74 359v-3l16 3c-1 2 -6 2 -8 0h-8z" />
    <glyph glyph-name="e.001" unicode="&#xe034;" horiz-adv-x="359" 
d="M448 300v-28c-6 -13 -104 -162 -117 -172c-9 -8 -60 -70 -72 -75c-9 -4 -19 -9 -30 -12c-30 -12 -54 -27 -99 -21c-11 1 -17 7 -29 4c-7 11 -20 9 -31 17c-17 10 -27 29 -42 43c-15 44 -34 86 -32 148c-9 8 -107 24 -121 30c0 8 1 8 -2 14c12 0 112 -14 118 -7
c9 9 8 18 9 33c4 27 15 65 20 82c10 30 37 51 59 73c18 16 30 27 49 44c15 12 16 14 35 20c11 3 30 10 48 7c8 -3 20 -7 29 -13c19 -10 26 -17 40 -33c10 -12 13 -10 16 -30c0 -3 3 -4 3 -7c2 -10 0 -30 -2 -36c-4 -16 -24 -21 -28 -42c-6 -7 -15 -13 -16 -25
c-20 -8 -33 -24 -54 -32c-8 -15 -29 -15 -38 -29c-12 6 -21 -7 -30 -12c-5 -31 -6 -78 3 -111c1 -7 3 -16 4 -19c9 -20 33 -37 51 -37c10 0 15 7 27 7c19 12 45 1 58 19c5 5 20 26 26 33c62 67 125 139 129 153c2 6 3 18 19 14zM123 347c27 39 51 102 112 104
c6 0 13 -4 22 -2c-7 16 -47 7 -56 11c-6 -13 -38 -24 -40 -40c-8 -8 -14 -15 -17 -27c-6 2 -13 -6 -9 -12c-12 -7 -16 -21 -16 -34l-3 -1l2 -2c-8 2 -11 -12 -4 -13c4 3 11 8 7 13h2v3zM219 355c4 14 19 22 21 40c1 10 -2 19 -4 34h-5c-36 -36 -75 -70 -91 -127
c28 17 53 35 79 53zM100 62c0 13 -6 13 -6 24c-8 0 -8 7 -17 5c0 -17 11 -25 23 -29zM165 50c-9 6 -18 16 -31 19c-4 -15 19 -39 31 -19z" />
    <glyph glyph-name="Euro" unicode="&#x20ac;" horiz-adv-x="445" 
d="M353 58c-7 -12 -19 -17 -34 -21c4 -5 13 -8 20 -8c14 0 25 14 33 21c-2 -9 -3 -17 -8 -22c-9 -9 -33 -16 -54 -13c-12 1 -23 9 -34 10c-10 1 -18 -3 -27 -1c-31 2 -44 26 -70 30c-1 9 -10 10 -18 14c0 2 1 2 1 0c0 8 -13 13 -17 21c-3 2 -5 3 -8 4c-1 4 -4 5 -4 11
c-9 8 -11 23 -23 29c2 2 1 3 1 9c-10 18 -16 40 -17 66c-7 10 -28 6 -31 19c-14 5 -31 6 -44 12c-5 1 -6 -2 -10 -2c-1 6 -4 9 -9 11c5 4 2 9 4 17c-6 1 -11 10 -16 16c-11 2 -21 3 -25 13c37 13 92 -3 126 -8c-4 34 -12 73 -9 107c0 4 0 9 1 13c0 3 3 6 4 8c1 5 0 9 1 15
c1 2 4 5 5 9c4 10 7 21 12 31c-17 13 -43 17 -52 38c-12 3 -23 8 -37 9c-4 0 -8 9 -9 3c-1 6 -7 8 -8 13c18 0 43 -4 63 -7c5 3 6 10 8 15c10 -13 26 -26 47 -25l-1 -3l2 2c0 -4 8 -6 11 -3c0 3 -2 3 -2 4h2v1h1c9 19 21 34 31 51c3 0 3 3 7 3c8 12 16 26 22 35
c-1 7 2 10 3 15c4 2 6 6 10 10c8 9 16 20 28 29c4 3 9 5 13 8c10 7 22 14 41 16c36 2 63 -16 78 -41c2 -1 4 -3 4 0c3 -10 7 -18 15 -25c9 -26 19 -51 14 -89c-5 11 -12 21 -14 35c-7 -2 -10 -7 -15 -11l-1 1h-3c-2 18 -8 43 -19 50c-2 1 -3 1 -4 -2c-3 0 0 7 -3 8
c-12 4 -24 20 -37 20c-6 0 -8 -7 -15 -5c-11 -13 -24 -25 -27 -46c-5 1 -5 -3 -7 -4c-7 -17 -12 -35 -23 -50c0 -5 -2 -6 0 -10c-9 -6 -9 -20 -13 -30c21 -15 49 -15 80 -23c13 -4 35 -10 53 -4l1 -1l1 1c8 -10 34 3 39 -7c2 -6 -4 -4 -2 -10c1 -2 6 4 8 0c0 -4 0 -8 4 -8
c-3 -6 -10 -10 -11 -18c-18 5 -39 8 -61 11c-4 0 1 -7 -3 -7c5 -5 16 -5 26 -5l-1 -3l1 -1c-58 -8 -89 23 -143 21c-26 -33 -17 -104 -17 -151c6 -6 16 -4 25 -4c12 0 28 -2 42 0c1 0 4 3 5 3c10 0 15 -3 24 1c1 2 5 4 6 4c2 0 6 -1 7 -1c12 4 18 13 26 19l2 -2l2 1
c3 -2 -1 -5 1 -8c12 3 31 8 44 15c5 2 4 1 5 -4l-1 -3l1 -1c-21 -4 -33 -17 -51 -24v-8c-1 2 -1 4 -4 6c-7 -4 -16 -8 -20 -15c-12 -1 -21 -6 -29 -12c3 -3 7 2 12 0l-1 -2l3 -1c-7 -7 -17 -7 -25 -11h-3l1 -1c-19 -4 -38 -9 -59 -13c2 -15 7 -28 11 -40
c6 -17 10 -35 21 -48c0 -12 5 -12 8 -21c6 -8 9 -20 19 -24c6 -17 20 -26 33 -36c25 -2 43 5 59 13v-3zM112 392c6 4 6 14 8 21c-5 -4 -8 -12 -8 -21zM129 312c0 4 6 16 0 18c0 -6 -4 -13 0 -18zM215 95c2 2 0 3 -3 5c0 -3 0 -5 3 -5z" />
    <glyph glyph-name="dollar" unicode="$" 
d="M161 760c1 -5 1 -9 1 -13c9 -9 27 -9 28 -25c7 9 5 22 8 37c8 -8 8 -21 8 -34c3 -3 6 4 12 1c6 -19 2 -38 0 -57c-1 -1 -5 -3 -8 0c-3 -17 -1 -41 -1 -55c8 -4 12 -6 22 -10c2 -3 3 -6 5 -8c4 -4 10 -7 13 -11c1 -2 1 -6 5 -8c2 -4 7 -6 9 -10c7 -7 13 -14 19 -21
c6 -8 8 -10 13 -18s9 -23 12 -40c4 -26 7 -54 -1 -75c-4 3 -6 -5 -9 -2c-1 6 1 10 -1 16c-4 5 -4 -4 -9 -2c1 16 -10 34 -11 49c-1 8 -2 14 -7 22c-2 4 -5 12 -10 12c-2 -14 5 -43 -5 -51c-13 37 -25 77 -56 93c-1 -3 -1 -8 1 -14c-2 -2 -1 0 -3 1c0 -7 2 -15 2 -23
c-2 -10 -4 -28 -4 -40c0 -4 0 -9 1 -12c-1 -12 -3 -23 -4 -36c-2 -18 -1 -37 -1 -58c-2 -13 -6 -22 -3 -40c8 -5 16 -3 25 -4c2 0 4 -2 7 -4c9 -3 24 -3 34 -7c6 -2 12 -8 19 -7c11 -11 23 -19 35 -30c2 -11 8 -17 15 -24c1 -11 7 -14 11 -21c2 1 1 2 3 2
c0 -24 9 -48 10 -72c1 -14 -3 -29 -1 -48c0 -4 4 -12 0 -14h-3l1 -1c-6 -5 -9 -10 -8 -21c-6 -4 -9 -10 -11 -16c-4 -6 -7 -12 -8 -20c-6 -2 -11 -9 -14 -16c-2 -1 0 -4 -2 -5c-1 -1 -8 -2 -5 -8c-2 0 -4 0 -6 -2c-6 -8 -15 -15 -26 -20c0 -2 -4 -4 -3 -8
c-7 2 -13 -4 -20 -4c-3 0 0 -5 0 -6c-13 4 -30 -6 -41 -6c-2 -1 -6 -1 -5 -5c-6 4 -7 -1 -12 -1c-2 -27 6 -59 6 -87c-1 -2 -6 -8 -4 -11c-1 -5 -7 -6 -7 -12c-4 0 -7 2 -12 2s-7 -3 -11 -2c-7 1 -8 7 -14 9c-4 -14 -8 -27 -6 -45c-4 4 -8 8 -14 12c-5 23 6 42 6 63
c0 26 -6 51 -10 75c-6 4 -19 4 -25 6c-1 2 -6 1 -5 6c-8 -4 -13 8 -23 6c-2 1 -2 3 -2 6c-6 2 -7 -4 -9 -2c-2 5 -3 9 -2 14c-4 6 -5 0 -7 2c-3 4 -1 4 -1 8c-6 5 -9 16 -13 24c-4 0 -3 -6 -2 -9c-8 1 -4 16 -14 16c4 5 -1 14 -1 22c-2 13 0 28 -5 36c4 12 2 25 4 38
c1 6 4 10 5 16c2 20 7 45 17 60c1 10 5 19 11 25c1 -10 3 -7 3 -16c10 0 17 -7 18 -14c1 -6 -1 -7 -4 -13c-2 -12 0 -28 -2 -40c-1 -13 1 -33 4 -46c3 -5 6 -20 8 -28c3 -5 6 -10 9 -14c1 -2 -1 -4 1 -5c5 -10 11 -15 16 -28c6 -3 8 -10 13 -15c1 -1 6 1 5 -4c5 3 2 11 1 16
c0 14 -3 30 3 39c3 15 2 30 4 46c1 3 2 9 4 12c-4 9 3 21 -2 32c5 6 3 14 4 23c3 11 8 22 1 38c10 16 3 40 7 56c1 4 3 5 3 9c3 8 2 18 2 26c-18 4 -31 12 -44 18l-1 1h-1c0 3 -2 3 -2 4c-1 2 -4 0 -7 2c-14 25 -39 39 -48 67c-2 0 -3 5 -3 0c-4 9 -4 21 -11 27
c0 13 -6 26 -7 38c-4 23 5 43 9 66c8 3 6 13 9 19c1 2 4 5 7 8c2 6 5 13 7 19c4 6 5 14 9 18c5 8 15 11 17 21c4 -4 6 -9 10 -11c11 2 21 8 25 19c9 0 14 6 23 8c-15 41 8 65 17 96c-1 5 0 5 -1 9c5 4 6 13 7 20l2 -2zM134 395c1 -10 2 -18 9 -23c-5 20 -2 41 1 62
c0 7 -1 16 -1 23c0 2 2 5 1 7c1 17 -4 32 0 48c1 2 1 5 2 7c1 10 0 22 1 32c0 8 4 18 -5 22h-2c-1 -5 -5 -5 -7 -7c-9 -13 -10 -36 -14 -55c-4 -15 -9 -29 -8 -43c1 -15 2 -30 10 -46c3 -9 7 -19 11 -25l-1 -2h3zM75 525c1 4 9 13 4 16c-2 -6 -5 -9 -6 -16l-2 -1l1 -1
c-6 -6 -10 -22 -6 -27c0 8 7 16 7 27h2v2zM88 408c4 5 1 18 1 29c-1 8 0 15 -5 20c-1 -14 -4 -36 4 -49zM118 346c-3 6 -5 10 -11 13c-2 3 -5 12 -8 9c5 -8 10 -16 19 -22zM238 281c-1 5 -5 7 -2 12c-7 3 -16 7 -24 7c7 -8 14 -17 26 -19zM232 67c10 8 18 19 13 40
c-4 3 -9 4 -9 11c1 4 7 2 10 5c-4 23 -9 47 -15 63c-2 8 -8 15 -12 22c-2 9 -3 19 -7 29c-2 2 -3 4 -4 7v3c-2 10 -8 18 -11 29c-3 1 -9 0 -10 3c2 0 4 1 4 3c-5 0 -5 6 -10 5c-1 -1 0 -5 -1 -6c1 -2 7 1 6 -4c-3 0 -5 0 -6 -1c-9 -30 -6 -75 0 -115l-2 -1l1 -1
c0 -12 2 -23 0 -35c-2 -5 -4 -9 -5 -14c-4 -29 1 -63 7 -92c8 0 31 16 29 23h1v2h4c6 7 13 13 16 22l2 -1zM289 220c1 8 -3 20 -9 25c0 -11 1 -20 8 -25v-1h1c-2 -6 3 -18 7 -25c0 -2 -3 -6 2 -5c-3 9 -3 22 -8 30v1h-1zM301 161c4 3 3 21 -3 21c1 -8 2 -14 2 -21l-1 -2h2
c0 -1 -2 -5 1 -5c0 2 2 2 1 5l-2 1v1zM292 92c2 -1 5 8 0 7c0 -2 -2 -4 0 -7zM283 77c-9 -3 -17 -13 -16 -22c6 4 15 15 17 22c0 0 2 5 -2 4c0 -1 1 -2 1 -4zM45 57c-3 7 -4 17 -10 20c0 -9 1 -19 10 -20zM57 32c-1 1 -1 3 -1 6c-2 0 -3 2 -6 2c3 -6 4 -12 10 -15l-2 -3h3
v-1c2 -3 6 -6 6 -11c7 -2 14 -16 20 -12c-10 9 -15 18 -23 28c1 2 3 4 2 8c-5 1 -2 -7 -6 -3l-1 1h-2zM193 -9c-1 4 2 4 2 6c-3 0 -3 1 -5 1c0 -3 2 -4 3 -7z" />
    <glyph glyph-name="numbersign" unicode="#" horiz-adv-x="544" 
d="M244 666c0 -1 0 -4 1 -6c1 -7 12 0 12 -8c2 5 0 23 1 32c3 2 4 2 8 -3c2 8 14 5 16 13c6 -31 -20 -49 -2 -83c1 -13 -8 -24 -7 -36c-2 0 -1 6 -3 6c-6 -3 -3 -21 -11 -17c0 -15 -8 -23 -8 -38c-8 -10 -9 -26 -13 -40c17 -6 33 7 48 13c26 5 52 8 75 17c8 25 15 54 28 72
c11 -1 17 6 17 7c1 2 6 3 2 11c5 -1 4 5 7 2c-1 22 4 38 11 54c10 1 18 4 21 13c9 -2 16 0 19 4c0 10 9 20 24 17c-1 -6 4 -12 2 -23c-2 -3 -9 -3 -7 -11c-1 -2 -3 1 -4 1c3 -10 -3 -7 -1 -15c-8 -3 -4 -16 -5 -26c-4 -1 -3 -6 -7 -4c-2 -23 -16 -31 -18 -51c-3 0 -4 3 -7 1
c-5 -4 -9 -16 -5 -27c11 -14 24 2 39 -1c-1 -6 2 -6 0 -10c6 -2 14 -2 19 0c10 1 22 11 29 1c-4 -11 -24 -14 -34 -24c-10 0 -16 -3 -25 -4c2 -7 0 -10 -1 -13c-15 -4 -31 -11 -41 -21c-5 -9 -5 -24 -12 -28c-1 -13 -5 -23 -9 -29c0 -4 -1 -7 0 -12c-2 -2 -2 -9 -6 -7
c2 -5 -2 -5 0 -9c-8 -8 -7 -26 -16 -34c3 -19 -9 -23 -8 -41c-2 -2 -2 -7 -6 -7c-2 -20 -12 -34 -17 -50c7 -8 16 -1 22 0c3 0 8 -1 10 0c8 1 13 9 21 9c9 -2 13 -10 22 -13c2 -6 3 -9 0 -13c3 3 4 -3 12 -1c5 -6 12 -11 18 -13c1 -4 1 -9 1 -13c-4 -4 -11 -4 -16 -7
c-6 -4 -7 -5 -15 -7c-13 -1 -28 -11 -44 -16c-6 -1 -14 -1 -18 -2c-6 -3 -16 -12 -26 -13c-3 -2 -3 -6 -4 -10c-7 -1 -11 -6 -19 -6c-1 -7 2 -7 4 -13c-6 -12 -9 -29 -8 -46c-2 0 0 -5 -3 -3c-1 -10 -1 -13 -4 -23c0 -3 -3 -4 -4 -8c1 -1 3 -4 2 -6c0 0 -1 2 -1 3
c-2 -4 0 -17 0 -27c-2 -1 -2 -3 -4 -4c3 -10 -4 -16 -7 -24c-1 -3 1 -9 0 -12c-1 -12 -3 -17 -6 -28c-1 -4 -2 -8 -2 -16c-1 -1 -2 -4 -5 -5c-4 -2 -6 1 -8 4c-6 0 -13 -6 -14 4c-3 -1 1 -8 -4 -3c-3 2 0 8 -6 8c-4 21 2 25 -4 36c-6 -4 -5 -18 -11 -22
c-1 -10 -4 -17 -7 -26c-5 -1 -7 3 -13 4c0 15 0 26 1 39c6 7 9 25 12 38c2 4 3 4 3 10c2 10 2 18 6 23c-3 39 14 52 13 87c-14 -3 -38 -8 -58 -14c-3 -1 -6 -1 -8 -1c-2 -3 -5 -6 -7 -6h-8c-11 -3 -19 -11 -30 -13c0 -5 -6 -5 -10 -7c-2 -4 2 -7 1 -10c-6 -3 -14 0 -20 -7
l-1 3h-1v1c-7 2 -4 -5 -5 -9c1 -5 5 4 4 -3h-4c3 -12 -3 -13 0 -24c-3 -10 -3 -16 -4 -26c0 -4 4 -4 4 -11c-2 -5 -7 -5 -5 -13c-4 2 -3 -4 -7 -3c0 -10 -8 -11 -12 -18c-4 -1 -2 5 -5 7c-9 -7 -2 -34 -5 -47c-13 0 -23 12 -23 27c-6 -6 -11 -11 -11 -24
c-10 -7 -10 -26 -19 -34c-7 3 -10 8 -14 13c5 37 21 58 26 95c8 13 11 34 20 45c-1 11 6 13 6 24c-10 6 -13 -8 -24 -3c-7 -5 -14 -12 -26 -10c-8 0 -14 6 -20 5c-2 5 -6 12 -5 18c27 9 51 26 78 27c2 7 20 10 17 23c-3 7 -13 3 -18 7c-4 4 -4 12 -7 18c11 6 26 6 34 13
c2 4 2 11 9 13c1 4 -2 4 0 8c0 3 2 6 3 9c3 5 2 11 9 11c-5 2 -1 13 -3 14c9 7 13 16 13 31c3 2 4 0 6 2c3 14 11 20 10 39c8 16 12 42 19 60c-3 20 9 20 7 37c-25 -2 -56 1 -82 -4c-8 -2 -17 -9 -26 -10c-5 0 -16 -2 -19 8c16 6 33 14 51 20c0 6 -2 14 1 20c1 0 2 0 2 1
c5 0 9 -3 15 -1c1 0 2 3 5 3c4 0 9 -2 15 -2c12 2 28 13 40 14c6 2 10 -1 12 3c7 12 8 31 14 44c0 20 12 28 14 46c0 3 0 6 -1 9c16 15 18 45 32 61c-2 5 1 5 0 9c7 5 7 20 9 32c3 -1 1 8 5 3c-1 6 3 9 3 13c1 -1 2 -1 3 -4l-1 -4zM217 415c-2 -7 -8 -13 -10 -18
c-3 -10 -4 -24 -9 -34c-1 -2 -3 -3 -4 -5c-1 -6 -2 -14 -3 -22c-2 -11 -6 -19 -5 -32c-4 -2 -4 -9 -5 -14c-5 -16 -11 -34 -12 -55c-2 -3 -3 -8 -3 -15c-1 -5 -6 -6 -4 -15c19 -2 42 12 59 15c7 0 12 -2 17 0c24 3 41 14 39 45c6 10 9 25 12 41c5 3 5 14 10 19
c1 14 3 28 7 36c1 2 0 5 1 6c6 15 12 24 17 37c3 13 10 28 7 44c-36 -16 -72 -24 -114 -33zM364 427c0 2 0 8 -3 5c1 -3 1 -5 3 -5zM354 395c1 5 6 7 4 19c3 0 5 7 1 8c1 -11 -12 -17 -5 -27zM336 349h1c4 4 7 11 8 18c-6 3 -4 -6 -9 -4c0 -6 2 -10 -1 -14h-1h-1
c-1 0 -1 0 0 -2h-2l1 -1h-4c0 -7 4 -7 4 -12h-7c-4 -15 -13 -28 -10 -54c-1 2 -2 2 -4 2c-2 -16 -11 -24 -11 -43c5 -4 10 3 15 3c0 19 6 30 6 51c0 2 4 5 5 6c1 5 -1 13 5 16c-2 8 0 8 -3 15c6 0 7 6 7 13h-1v1c1 0 1 2 1 3l1 -1v3zM276 143c-2 -18 -14 -34 -12 -55
c-7 -9 -8 -24 -10 -38c1 -3 2 -9 4 -10c2 5 3 8 6 11c-2 18 9 18 4 37c7 10 7 28 13 40c-4 9 2 11 2 19c-4 2 -3 -4 -7 -4zM87 59c3 2 6 10 3 15c0 -7 -4 -7 -3 -15zM66 -9c3 0 5 2 3 6c-3 0 -3 -1 -3 -6z" />
    <glyph glyph-name="slash" unicode="/" 
d="M55 -24c4 14 10 24 16 35c6 -6 6 2 14 2c-1 4 1 4 1 7c-2 4 -5 5 -10 6c-2 8 -3 13 -1 20c8 17 22 41 26 63c3 4 7 5 7 13c5 2 5 7 10 5c2 7 4 12 7 16c0 3 0 4 -2 4c9 7 11 20 15 30c9 2 7 17 13 23c1 4 -1 6 -1 9c6 17 16 31 20 51c11 12 15 38 28 42c1 16 11 21 12 37
c4 1 5 8 8 10c1 6 0 6 1 11c13 12 16 38 28 53v6c13 17 17 37 28 57v7c7 8 13 20 17 32c9 4 9 18 17 25c-1 7 1 10 1 17c3 0 3 4 7 3c3 4 6 6 5 13c7 4 8 17 16 22c-1 11 8 9 7 21c7 1 7 9 9 16c5 4 8 12 10 21c3 0 3 3 6 1c7 27 20 45 34 63c4 -1 5 -1 9 -4
c2 -9 -3 -14 -1 -19c1 -4 7 -3 9 -6c-2 -11 -3 -19 -3 -31c-2 0 -2 -3 -6 -1c-3 -7 -6 -16 -7 -23c0 -1 2 -2 -1 -2c4 -4 7 -8 14 -6c2 -6 2 -17 2 -26c-14 -12 -15 -39 -28 -52c1 -20 -4 -31 -11 -40c-1 -4 0 -8 2 -10c-7 -7 -14 -12 -16 -25c-2 0 -3 1 -4 1
c-8 -20 -21 -34 -28 -57h-4c-3 -18 -16 -23 -16 -44c-2 0 -1 4 -4 2c-5 -7 -7 -19 -16 -23c-3 -15 -10 -24 -16 -33c2 -26 -14 -30 -15 -53c-6 2 -4 -5 -8 -5c-1 -6 -5 -13 -7 -18c-3 -7 -6 -13 -11 -17c-1 -17 -14 -20 -14 -38c-2 -2 -3 -4 -5 -4c-2 -15 -4 -29 -13 -36
c2 -4 0 -2 0 -8c-7 -6 -6 -17 -10 -27c-1 -2 -3 -3 -3 -4c-3 -5 -1 -13 -4 -19c-6 -19 -22 -32 -25 -53c-1 -2 -3 -2 -6 -2c-3 -9 -5 -19 -11 -23c-2 -14 -10 -21 -14 -32c-5 3 -10 -4 -15 -5c-2 -3 -5 -4 -5 -9c-6 1 -8 -4 -10 -2c2 8 -1 15 4 23c0 1 -1 1 -1 2
c-7 -1 -12 -13 -15 -19c-4 -8 -7 -18 -10 -25c-9 -7 -16 5 -20 2c-1 9 5 9 5 17c-2 4 -5 8 -9 11l-1 1zM128 112c2 1 0 6 -2 6c0 -2 -1 -2 -1 -5l-1 -1l1 -2h-1c0 -4 0 -7 -2 -9h-1h-1c2 8 -4 0 0 -2v-3l1 3c1 0 1 -2 2 -2c2 3 0 8 5 8c0 3 -2 3 -2 5l2 -1v3z" />
    <glyph glyph-name="comma" unicode="," horiz-adv-x="242" 
d="M89 -17c0 2 1 3 2 5c-6 10 -20 12 -28 21c-6 14 -3 33 0 44c6 14 15 26 25 35c1 1 2 4 0 4c19 10 27 31 55 32c11 -10 29 -13 33 -29c0 -2 2 -2 5 -2c0 -2 -3 -1 -3 -4c4 -12 5 -27 4 -40c-1 -15 -9 -29 -11 -40c-7 -4 -10 -14 -13 -21h-2l1 -2c-10 -9 -23 -15 -29 -28
h-5c-3 -10 -16 -11 -18 -23c-8 0 -10 -5 -13 -11c-2 1 -2 2 -5 1c-17 -9 -30 -22 -50 -28v1v2c0 3 3 3 2 6c6 -1 6 6 9 8c4 2 8 5 12 7c1 1 1 4 2 5c6 6 15 14 19 23v7c5 4 10 7 11 15c7 2 11 9 12 17c-5 2 -8 -5 -13 -6l-1 1h-1zM121 71c3 0 9 -1 11 1c0 5 0 9 -2 12
c-6 -1 -8 -7 -9 -13zM113 58c0 -8 -2 -18 7 -17c4 5 5 14 9 21c-6 4 -12 -3 -16 -4zM90 33c0 -8 12 -13 16 -6c-2 5 -4 10 -11 10c0 -4 -3 -3 -5 -4zM94 -1c9 -1 11 2 13 8c-17 -2 -22 5 -32 10c4 -8 6 -17 17 -17l-1 -2z" />
    <glyph glyph-name="period" unicode="." horiz-adv-x="279" 
d="M119 103c-10 -8 -14 -22 -28 -25c-11 5 -24 8 -33 0c-1 6 6 12 7 20c1 6 0 11 0 17c5 1 5 -2 9 -2c13 13 25 28 37 42c5 6 11 10 15 16c4 1 14 3 10 9c7 0 18 2 27 0c7 -2 11 -10 17 -8c1 -3 3 -5 3 -8c13 -9 29 -17 29 -36c0 -3 1 -6 -2 -8c2 -6 5 -12 9 -17
c13 -41 -23 -68 -43 -92c-12 -1 -20 -7 -28 -12c-21 -2 -29 8 -45 11c1 7 -2 13 -1 22c1 12 6 25 7 34c8 10 14 22 17 39v1h-1c5 8 3 22 3 31c0 1 -1 1 -2 1c-7 -11 -24 -13 -24 -31c3 -3 12 0 15 -2v-2h2zM151 132c6 1 8 9 3 10c-2 -2 0 -8 -3 -10zM90 90c-1 4 -2 8 -7 8
c0 -5 2 -7 7 -8zM132 50c-4 -1 -8 -12 -2 -18c11 0 11 19 2 18z" />
    <glyph glyph-name="bullet" unicode="&#x2022;" horiz-adv-x="396" 
d="M149 339h2c-16 -13 -21 -35 -44 -41c-18 8 -39 14 -54 0c-1 11 10 20 12 33c2 9 0 17 0 28c8 1 8 -4 14 -4c21 21 40 45 60 68c8 9 18 16 24 25c7 2 23 6 16 15c11 0 29 3 43 0c12 -4 18 -16 28 -13c2 -4 5 -8 5 -12c21 -15 46 -28 46 -59c0 -4 2 -10 -2 -12
c2 -11 8 -20 13 -28c22 -66 -36 -109 -68 -148c-20 -1 -33 -12 -46 -20c-33 -3 -47 13 -72 19c1 10 -3 20 -2 35c2 20 10 40 11 55c14 16 23 35 28 62v2h-1c8 12 4 35 4 50c0 1 -1 1 -3 1c-12 -18 -39 -20 -39 -50c6 -5 19 0 25 -3v-3zM203 386c10 1 13 14 5 16
c-3 -3 0 -14 -5 -16zM105 318c-2 6 -3 13 -11 13c0 -8 3 -11 11 -13zM173 254c-7 -1 -14 -20 -3 -29c17 0 17 30 3 29z" />
    <glyph glyph-name="backslash" unicode="\" horiz-adv-x="433" 
d="M421 -24l-1 -1l-1 -1c-4 -3 -7 -7 -9 -11c0 -8 6 -8 5 -17c-4 3 -11 -9 -20 -2c-3 7 -6 17 -10 25c-3 6 -8 18 -15 19c0 -1 -1 -1 -1 -2c5 -8 2 -15 4 -23c-2 -2 -4 3 -10 2c0 5 -3 6 -5 9c-5 1 -10 8 -15 5c-4 11 -12 18 -14 32c-6 4 -8 14 -11 23c-3 0 -5 0 -6 2
c-3 21 -19 34 -25 53c-3 6 -1 14 -4 19c0 1 -2 2 -3 4c-4 10 -3 21 -10 27c0 6 -2 4 0 8c-9 7 -11 21 -13 36c-2 0 -3 2 -5 4c0 18 -13 21 -14 38c-5 4 -8 10 -11 17c-2 5 -6 12 -7 18c-4 0 -2 7 -8 5c-1 23 -17 27 -15 53c-6 9 -13 18 -16 33c-9 4 -11 16 -16 23
c-3 2 -2 -2 -4 -2c0 21 -13 26 -16 44h-4c-7 23 -20 37 -28 57c-1 0 -2 -1 -4 -1c-2 13 -9 18 -16 25c2 2 3 6 2 10c-7 9 -12 20 -11 40c-13 13 -14 40 -28 52c0 9 0 20 2 26c7 -2 10 2 14 6c-3 0 -1 1 -1 2c-1 7 -4 16 -7 23c-4 -2 -4 1 -6 1c0 12 -1 20 -3 31c2 3 8 2 9 6
c2 5 -3 10 -1 19c4 3 5 3 9 4c14 -18 27 -36 34 -63c3 2 3 -1 6 -1c2 -9 5 -17 10 -21c2 -7 2 -15 9 -16c-1 -12 8 -10 7 -21c8 -5 9 -18 16 -22c-1 -7 2 -9 5 -13c4 1 4 -3 7 -3c0 -7 2 -10 1 -17c8 -7 8 -21 17 -25c4 -12 10 -24 17 -32v-7c11 -20 15 -40 28 -57v-6
c12 -15 15 -41 28 -53c1 -5 0 -5 1 -11c3 -2 4 -9 8 -10c1 -16 11 -21 12 -37c13 -4 17 -30 28 -42c4 -20 14 -34 20 -51c0 -3 -2 -5 -1 -9c6 -6 4 -21 13 -23c4 -10 6 -23 15 -30c-2 0 -2 -1 -2 -4c3 -4 5 -9 7 -16c5 2 5 -3 10 -5c0 -8 4 -9 7 -13c4 -22 18 -46 26 -63
c2 -7 1 -12 -1 -20c-5 -1 -8 -2 -10 -6c0 -3 2 -3 1 -7c8 0 8 -8 14 -2c6 -11 12 -21 16 -35zM348 112v-3l2 1c0 -2 -2 -2 -2 -5c5 0 3 -5 5 -8c1 0 1 2 2 2l1 -3v3c4 2 -2 10 0 2h-1h-1c-2 2 -2 5 -2 9h-1l1 2l-1 1c0 3 -1 3 -1 5c-2 0 -4 -5 -2 -6z" />
    <glyph glyph-name="bar" unicode="|" horiz-adv-x="220" 
d="M88 -137l-1 1c-2 16 -1 28 0 42c9 -8 5 2 14 2c-4 5 -1 5 -2 8c-5 5 -8 6 -14 8c-7 9 -10 15 -11 24c0 20 3 49 -3 75c1 5 5 6 1 16c4 2 2 8 9 6c-1 8 -1 14 0 19c-3 3 -3 4 -5 4c7 9 2 24 1 36c9 3 -1 21 4 28c-1 5 -5 7 -6 11c-2 20 1 37 -4 61c6 14 -2 45 10 50
c-7 19 2 25 -6 44c5 2 2 10 5 12c-3 8 -4 8 -5 14c8 14 -2 45 3 63c0 2 -1 4 -2 7c6 21 0 44 2 68c-1 3 -3 6 -4 9c4 9 4 24 3 38c8 5 1 22 6 30c-5 8 -3 12 -7 20c4 0 1 5 6 4c2 5 4 7 -1 16c6 4 1 20 6 26c-6 13 4 11 -2 25c6 1 3 11 1 19c4 5 3 15 1 25c3 0 2 4 5 2
c-5 32 0 53 7 75c4 -1 5 -1 11 -5c6 -11 3 -17 8 -23c3 -4 9 -3 12 -7c3 -13 7 -22 12 -37c-2 0 -1 -3 -5 -1c0 -8 1 -19 3 -28c0 -1 3 -2 0 -2c6 -5 11 -10 18 -7c4 -7 9 -21 14 -31c-9 -15 3 -47 -5 -63c11 -24 11 -37 9 -47c0 -5 3 -10 6 -12c-4 -9 -9 -15 -4 -30
c-2 0 -5 1 -6 1c1 -24 -5 -41 -2 -68h-4c5 -22 -5 -28 4 -53c-2 0 -3 5 -5 2c-2 -8 2 -22 -5 -27c4 -18 1 -29 -1 -40c14 -31 -1 -36 9 -63c-7 2 -2 -6 -6 -6c2 -7 1 -16 1 -22c1 -8 0 -15 -3 -20c7 -20 -6 -24 4 -46c-1 -2 -2 -4 -4 -4c5 -18 10 -35 4 -44c4 -4 1 -2 4 -9
c-5 -7 1 -20 2 -32c0 -3 -2 -4 -1 -5c-1 -6 6 -16 4 -23c4 -23 -7 -38 0 -63c-1 -3 -3 -3 -6 -3c2 -11 4 -23 0 -27c4 -17 0 -26 1 -39c-7 4 -9 -4 -14 -6c-1 -3 -3 -4 -1 -10c-7 1 -6 -5 -9 -3c-2 10 -9 18 -7 28c0 1 -2 1 -3 2c-6 -1 -6 -15 -6 -23c0 -9 1 -21 2 -30
c-6 -8 -20 6 -22 3c-6 11 0 11 -3 20c-4 5 -10 10 -15 13zM100 23l-1 4c1 1 -4 7 -6 7c1 -3 0 -3 1 -6v-1l2 -3h-1c2 -5 4 -8 2 -11h-1h-1c-2 10 -4 0 1 -2l1 -4v4c2 0 3 -2 4 -2c0 3 -5 9 1 9c-1 4 -3 4 -5 6z" />
    <glyph glyph-name="paragraph" unicode="&#xb6;" horiz-adv-x="539" 
d="M12 578h1v10c0 1 -1 2 -1 3c0 3 1 6 1 8c0 4 0 5 1 8c2 4 2 11 2 17c0 1 1 3 2 4v8c0 -1 4 1 3 4c1 0 0 1 1 0c0 3 1 6 2 9c3 0 2 1 4 1v1c1 2 4 3 3 5h1c-1 3 3 4 -1 5c0 1 2 0 2 2c8 -2 7 6 10 7c0 5 5 9 5 12c5 3 5 7 9 11v1c2 0 0 -1 2 -1c0 1 2 1 2 3c5 2 8 6 10 10
c1 2 3 0 3 2c2 0 2 4 4 4c3 2 7 3 11 5c5 3 14 4 18 8c2 1 5 2 7 3v-2c1 0 3 1 3 1c0 3 0 3 -2 3c-6 0 -8 -4 -16 -4c-3 4 4 5 5 8c3 -1 1 1 4 1c0 -1 2 -2 2 0h3c-1 1 -1 1 -1 2h9c1 1 3 0 6 0h1c4 -2 6 0 8 -2h1s1 2 2 0c6 -1 8 2 13 0v2h20c2 0 4 1 7 0h1c2 -2 6 0 8 -2
h9c3 2 6 2 9 -1v-1h3c0 -1 1 -1 2 -1c3 1 6 1 10 0c4 1 8 -3 11 -2c1 -1 1 1 2 1c6 -1 11 -4 15 -2c3 -2 2 0 4 -2c4 4 12 0 20 -2c0 1 0 2 2 2c10 -7 11 1 21 -3c2 2 5 2 9 2c2 0 6 0 9 -1c0 2 4 -1 3 3c11 -6 15 3 28 -5c0 2 1 4 2 7c2 -2 11 11 16 4c-1 -3 -1 -6 -1 -10
h2c2 4 9 2 13 3c1 1 -1 1 -1 3c11 -6 14 0 23 -3v3c13 -2 21 2 31 0v3c7 -2 10 0 14 3c1 -2 2 -4 5 -4c5 1 10 1 21 -5c8 5 22 -2 29 3c4 -3 11 -6 15 -9c-2 -4 0 -6 3 -10c0 2 0 0 1 0c4 -1 8 -1 12 -1v2c8 -2 11 -5 17 -7c2 -1 2 -5 3 -7c3 -3 6 -1 11 -5c1 -4 1 -4 2 -7
c-10 -3 -20 -6 -33 -3c0 -2 -2 -1 -2 -3c-4 1 -9 2 -11 -1c-3 1 -8 3 -9 -1c-6 4 -6 -2 -11 2c-3 -3 -10 0 -11 -4c-5 3 -6 2 -8 1c0 -3 -2 -1 -2 -4c-3 3 -6 1 -9 5c-4 -4 -12 0 -14 -4c-7 0 -13 0 -17 -2c-1 1 -2 2 -4 2c-11 -1 -22 4 -31 0c-2 1 -3 1 -3 1
c-3 -1 -5 -1 -8 -1c0 -6 0 -12 -1 -20c2 -4 1 -16 0 -27c2 0 3 0 4 -3c-5 -25 3 -39 0 -62c1 -7 -4 -17 -3 -23c-1 -1 1 -2 1 -5c-1 -12 -5 -25 -2 -32c-2 -7 0 -5 -3 -9c5 -8 1 -25 -2 -43c1 0 2 -2 2 -4c-7 -22 3 -26 -2 -46c2 -5 2 -12 2 -19c0 -6 0 -15 -1 -22
c3 0 -1 -8 4 -6c-7 -27 4 -32 -6 -63c1 -10 3 -21 1 -39c5 -5 2 -19 3 -27c2 -3 2 2 4 2c-7 -25 0 -31 -3 -52h3c-2 -27 2 -44 1 -68c1 0 3 1 4 1c-3 -15 0 -21 3 -30c-2 -2 -4 -6 -4 -11c1 -10 1 -23 -6 -47c5 -16 -3 -47 3 -62c-3 -10 -7 -24 -10 -31c-5 3 -8 -2 -12 -7
c2 0 0 -1 0 -2c-2 -9 -2 -20 -2 -28c2 2 2 -1 3 -1c-3 -15 -6 -23 -8 -36c-2 -4 -7 -3 -9 -7c-3 -6 -1 -12 -5 -23c-5 -4 -5 -4 -8 -5c-5 22 -8 43 -5 74c-2 -2 -1 2 -3 2c1 10 2 20 -1 25c1 8 3 18 -1 19c4 14 -3 12 2 25c-4 6 0 21 -5 25c4 9 2 11 1 16c-3 -1 -1 4 -4 4
c3 8 1 12 5 20c-4 8 1 25 -4 30c0 14 0 28 -3 37c1 3 3 6 3 9c-1 24 3 47 -1 68c1 3 1 5 1 6c-3 18 4 49 -2 63c1 6 2 6 4 14c-2 2 0 10 -4 12c6 18 -1 24 4 43c-8 5 -2 36 -7 50c4 24 2 40 3 60c1 4 4 6 4 11c-3 7 4 25 -2 28c0 12 4 27 -1 35c1 0 1 1 3 4v19
c-5 -2 -3 4 -6 6c3 10 0 11 -1 16c5 26 2 54 2 74c1 9 3 15 8 24c4 2 6 3 10 8c1 3 -1 3 1 8c-6 0 -3 10 -9 2c-1 6 -1 13 -1 19c-6 -1 -13 0 -18 -2c-10 3 -18 2 -27 2c-2 1 -2 4 -5 4c-3 -2 -12 4 -13 -1c-5 0 -12 3 -16 -1c0 1 0 1 -2 3h-9c2 -5 -1 -3 -2 -5
c-3 -15 -5 -30 -7 -46c1 0 2 -1 3 -3c-5 -25 3 -39 0 -62c1 -7 -4 -17 -3 -23c-1 -1 1 -2 1 -5c-1 -12 -5 -25 -2 -32c-2 -7 0 -5 -3 -9c5 -8 1 -25 -2 -43c1 0 2 -2 2 -4c-7 -22 3 -26 -2 -46c2 -5 2 -12 2 -19c0 -6 0 -15 -1 -22c3 0 -1 -8 4 -6c-7 -27 4 -32 -6 -63
c1 -10 3 -21 1 -39c5 -5 2 -19 3 -27c2 -3 2 2 4 2c-7 -25 0 -31 -3 -52h3c-2 -27 2 -44 1 -68c1 0 3 1 4 1c-3 -15 0 -21 3 -30c-2 -2 -4 -6 -4 -11c1 -10 1 -23 -6 -47c5 -16 -3 -47 3 -62c-3 -10 -7 -24 -10 -31c-5 3 -8 -2 -12 -7c2 0 0 -1 0 -2c-2 -9 -2 -20 -2 -28
c2 2 2 -1 3 -1c-3 -15 -6 -23 -8 -36c-2 -4 -7 -3 -9 -7c-3 -6 -1 -12 -5 -23c-5 -4 -5 -4 -8 -5c-5 22 -8 43 -5 74c-2 -2 -1 2 -3 2c1 10 2 20 -1 25c1 8 3 18 -1 19c4 14 -3 12 2 25c-4 6 0 21 -5 25c4 9 2 11 1 16c-3 -1 -1 4 -4 4c3 8 1 12 5 20c-4 8 1 25 -4 30
c0 14 0 28 -3 37c1 3 3 6 3 9c-1 24 3 47 -1 68c1 3 1 5 1 6c-3 18 4 49 -2 63c1 6 2 6 4 14c-2 2 0 10 -4 12c6 18 -1 24 4 43c-8 5 -2 36 -7 50c4 24 2 40 3 60c1 3 3 5 4 9h-6c-7 0 -12 -4 -18 -4c-1 0 -6 0 -8 -1c-5 0 -11 -1 -15 -1c-1 0 -1 1 -1 1c-8 1 -16 -1 -23 0
c0 1 -2 1 -2 1c-7 0 -10 5 -17 6l1 1c-2 0 -3 3 -6 4c0 0 0 1 -1 0v2c0 2 -1 0 -1 0c-1 1 -1 2 0 2c-5 0 -7 5 -12 7c-1 3 -2 3 -3 6c-2 1 0 2 -2 2c-5 0 -5 7 -9 9v2c0 1 -2 2 0 3c-2 0 -1 1 -3 1c0 1 1 1 1 3c-1 -2 -3 2 -3 1c-1 1 0 6 -2 6c1 1 -3 3 -4 5c0 0 -1 0 -1 -2
c-1 0 -1 2 0 2c-1 2 -4 3 -3 7h-1c-1 0 -1 2 -1 4c-2 3 -3 5 -4 7c0 0 1 0 1 2c-1 1 -5 4 -4 6c-1 1 -1 4 -1 5c-5 11 -2 25 -9 34c2 1 0 1 2 2c-2 2 0 5 0 6c0 2 -2 3 -2 5v5c0 2 -2 2 -2 3c1 2 1 5 0 8zM22 621c0 -4 -3 -12 -1 -14c1 -3 0 -6 1 -10c0 0 0 -3 1 -3
c5 0 1 7 3 10c2 7 2 17 1 23c1 1 2 3 0 3c-1 -2 -5 -6 -5 -9zM138 441l-1 1s-5 0 -5 2c-6 -1 -9 5 -14 5c-1 0 -3 -2 -5 0c0 -2 2 -2 2 -3c0 -2 3 -2 3 -4c3 0 6 -2 10 -3c5 0 10 -2 11 0c0 1 -1 0 -1 1v1zM66 598v-2c-1 -5 0 -11 1 -16c0 9 2 14 2 21c1 1 1 3 -2 3
c-2 0 0 -3 -1 -6zM341 534l1 4l-2 -1c1 2 2 2 3 6c-2 0 -3 0 -3 1c0 -2 -1 -4 -2 -7h1l-2 -3v-7c1 0 5 6 4 7zM78 667c-2 0 -2 -3 -2 -4h1c-3 -1 -2 -4 -2 -7c4 1 3 5 3 7h-1c2 1 3 4 1 4zM342 551c-1 0 -2 -1 -2 -1v4l-1 -4c-4 -2 -2 -12 -1 -2h2v-2c0 1 1 3 2 5zM69 614
c0 1 0 1 1 1c-1 4 1 8 1 13c-1 -4 -4 -11 -2 -14zM74 641c-3 0 -3 -5 -3 -7c3 2 1 6 3 7zM67 607c2 1 2 4 0 4c-1 0 -1 -4 0 -4zM74 649v-3c1 0 1 3 0 3z" />
    <glyph glyph-name="grave" unicode="`" horiz-adv-x="271" 
d="M94 671c8 2 1 14 0 16c5 3 10 2 15 0c21 -41 48 -77 74 -114c9 -8 17 -17 24 -27c4 2 7 -1 8 -6c-13 -2 -21 9 -30 1c2 -6 10 -7 9 -16c-8 -4 -18 3 -24 7c-7 5 -13 11 -19 15c-25 21 -47 42 -68 68c-5 7 -9 13 -13 21c-6 11 -13 20 -13 32c7 -1 11 -5 16 -8
c3 12 -18 22 -7 33c19 5 16 -16 28 -22z" />
    <glyph glyph-name="acute" unicode="&#xb4;" horiz-adv-x="291" 
d="M176 671c12 6 9 27 28 22c11 -11 -10 -21 -7 -33c5 3 9 7 16 8c0 -12 -7 -21 -13 -32c-4 -8 -8 -14 -13 -21c-21 -26 -43 -47 -68 -68c-6 -4 -12 -10 -19 -15c-6 -4 -16 -11 -24 -7c-1 9 7 10 9 16c-9 8 -17 -3 -30 -1c1 5 4 8 8 6c7 10 15 19 24 27c26 37 53 73 74 114
c5 2 10 3 15 0c-1 -2 -8 -14 0 -16z" />
    <glyph glyph-name="quotesingle" unicode="'" horiz-adv-x="245" 
d="M117 625c1 -5 4 -18 5 -25c9 1 6 11 14 13c4 -10 15 -11 17 -20c2 -7 -5 -10 -1 -17c3 -1 6 -1 10 0c0 -6 7 -11 13 -14c5 -14 -8 -14 -2 -28c-5 6 -10 -2 -7 -9c-5 2 -8 -13 -12 -20c0 -2 -3 -3 -2 -5c0 -3 -3 -4 -4 -7c-3 -5 -2 -11 -3 -15c-2 -3 -7 -3 -4 -8
c-8 -5 -8 -15 -15 -21c-4 0 -4 -3 -10 -3v1l-2 1c3 2 1 7 0 12c-5 -2 -10 -5 -12 -11h-2h-1v2c-12 7 -12 -10 -16 -16c-4 0 -8 2 -10 4c-7 32 6 49 7 75c3 1 3 5 5 6c0 2 2 3 0 6c3 -1 0 3 3 2c-2 10 3 15 3 24c8 2 4 11 5 17c1 11 9 20 8 33c8 4 6 16 10 23l1 -1zM97 469
c-1 2 1 2 1 5c-3 0 -5 -4 -1 -5z" />
    <glyph glyph-name="quotedbl" unicode="&#x22;" horiz-adv-x="374" 
d="M115 624l2 1c1 -5 4 -18 5 -25c9 1 6 11 14 13c4 -10 15 -11 17 -20c2 -7 -5 -10 -1 -17c3 -1 6 -1 10 0c0 -6 7 -11 13 -14c5 -14 -8 -14 -2 -28c-5 6 -10 -2 -7 -9c-5 2 -8 -13 -12 -20c0 -2 -3 -3 -2 -5c0 -3 -3 -4 -4 -7c-3 -5 -2 -11 -3 -15c-2 -3 -7 -3 -4 -8
c-8 -5 -8 -15 -15 -21c-4 0 -4 -3 -10 -3v1l-2 1c3 2 1 7 0 12c-5 -2 -10 -5 -12 -11h-2h-1v2c-12 7 -12 -10 -16 -16c-4 0 -8 2 -10 4c-7 32 6 49 7 75c3 1 3 5 5 6c0 2 2 3 0 6c3 -1 0 3 3 2c-2 10 3 15 3 24c8 2 4 11 5 17c1 11 9 20 8 33c8 4 6 16 10 23zM97 469
c-1 2 1 2 1 5c-3 0 -5 -4 -1 -5zM238 624l2 1c1 -5 4 -18 5 -25c9 1 6 11 14 13c4 -10 15 -11 17 -20c2 -7 -5 -10 -1 -17c3 -1 6 -1 10 0c0 -6 7 -11 13 -14c5 -14 -8 -14 -2 -28c-5 6 -10 -2 -7 -9c-5 2 -8 -13 -12 -20c0 -2 -3 -3 -2 -5c0 -3 -3 -4 -4 -7
c-3 -5 -2 -11 -3 -15c-2 -3 -7 -3 -4 -8c-8 -5 -8 -15 -15 -21c-4 0 -4 -3 -10 -3v1l-2 1c3 2 1 7 0 12c-5 -2 -10 -5 -12 -11h-2h-1v2c-12 7 -12 -10 -16 -16c-4 0 -8 2 -10 4c-7 32 6 49 7 75c3 1 3 5 5 6c0 2 2 3 0 6c3 -1 0 3 3 2c-2 10 3 15 3 24c8 2 4 11 5 17
c1 11 9 20 8 33c8 4 6 16 10 23zM220 469c-1 2 1 2 1 5c-3 0 -5 -4 -1 -5z" />
    <glyph glyph-name="fraction" unicode="&#x2044;" horiz-adv-x="205" 
d="M-80 176c4 14 10 24 16 35c6 -6 6 2 14 2c-1 4 1 4 1 7c-2 4 -5 5 -10 6c-2 8 -3 13 -1 20c8 17 22 41 26 63c3 4 7 5 7 13c5 2 5 7 10 5c2 7 4 12 7 16c0 3 0 4 -2 4c9 7 11 20 15 30c9 2 7 17 13 23c1 4 -1 6 -1 9c6 17 16 31 20 51c11 12 15 38 28 42
c1 16 11 21 12 37c4 1 5 8 8 10c1 6 0 6 1 11c13 12 16 38 28 53v6c13 17 17 37 28 57v7c7 8 13 20 17 32c9 4 9 18 17 25c-1 7 1 10 1 17c3 0 3 4 7 3c3 4 6 6 5 13c7 4 8 17 16 22c-1 11 8 9 7 21c7 1 7 9 9 16c5 4 8 12 10 21c3 0 3 3 6 1c7 27 20 45 34 63
c4 -1 5 -1 9 -4c2 -9 -3 -14 -1 -19c1 -4 7 -3 9 -6c-2 -11 -3 -19 -3 -31c-2 0 -2 -3 -6 -1c-3 -7 -6 -16 -7 -23c0 -1 2 -2 -1 -2c4 -4 7 -8 14 -6c2 -6 2 -17 2 -26c-14 -12 -15 -39 -28 -52c1 -20 -4 -31 -11 -40c-1 -4 0 -8 2 -10c-7 -7 -14 -12 -16 -25
c-2 0 -3 1 -4 1c-8 -20 -21 -34 -28 -57h-4c-3 -18 -16 -23 -16 -44c-2 0 -1 4 -4 2c-5 -7 -7 -19 -16 -23c-3 -15 -10 -24 -16 -33c2 -26 -14 -30 -15 -53c-6 2 -4 -5 -8 -5c-1 -6 -5 -13 -7 -18c-3 -7 -6 -13 -11 -17c-1 -17 -14 -20 -14 -38c-2 -2 -3 -4 -5 -4
c-2 -15 -4 -29 -13 -36c2 -4 0 -2 0 -8c-7 -6 -6 -17 -10 -27c-1 -2 -3 -3 -3 -4c-3 -5 -1 -13 -4 -19c-6 -19 -22 -32 -25 -53c-1 -2 -3 -2 -6 -2c-3 -9 -5 -19 -11 -23c-2 -14 -10 -21 -14 -32c-5 3 -10 -4 -15 -5c-2 -3 -5 -4 -5 -9c-6 1 -8 -4 -10 -2c2 8 -1 15 4 23
c0 1 -1 1 -1 2c-7 -1 -12 -13 -15 -19c-4 -8 -7 -18 -10 -25c-9 -7 -16 5 -20 2c-1 9 5 9 5 17c-2 4 -5 8 -9 11l-1 1zM-7 312c2 1 0 6 -2 6c0 -2 -1 -2 -1 -5l-1 -1l1 -2h-1c0 -4 0 -7 -2 -9h-1h-1c2 8 -4 0 0 -2v-3l1 3c1 0 1 -2 2 -2c2 3 0 8 5 8c0 3 -2 3 -2 5l2 -1v3z
" />
    <glyph glyph-name="hyphen" unicode="-" horiz-adv-x="442" 
d="M65 301v2c6 1 10 0 14 0c-1 -6 2 -4 4 -8c1 2 1 0 2 1c1 2 1 5 1 8c2 3 3 5 7 6c7 0 18 -2 26 2c2 -1 3 -3 5 -1c2 -2 3 -1 3 -4h7c1 1 2 1 1 2c4 -3 9 -1 14 0c1 -6 6 0 10 -2c1 0 1 2 2 3c7 1 14 -1 21 3c6 -4 16 1 20 -6c5 4 8 0 14 3c1 -2 3 -1 5 -2c2 1 2 2 4 3
c6 -5 16 1 23 -2c1 0 1 0 2 1c8 -3 16 1 24 -1c1 1 2 2 3 2c3 -2 9 -2 13 -1c4 -5 8 -1 12 -3c3 2 4 2 6 4c1 -2 2 -1 3 -4c1 0 2 -2 5 1c2 -3 6 0 10 -3c4 3 4 -3 8 1c2 -4 4 -1 8 -1c2 -2 5 -1 8 0c0 -2 2 -1 1 -3c11 3 20 0 28 -3c0 -3 1 -4 0 -7c-3 -3 -5 -2 -7 -5
c-1 -1 0 -4 -1 -6c-4 -2 -6 -4 -11 -7c0 1 -1 0 -1 3c-3 0 -6 -1 -9 -2c-1 0 -1 -2 -1 0c0 -3 -2 -7 0 -10c-2 -3 -5 -6 -9 -9c-6 6 -15 -2 -23 3c-6 -7 -11 -7 -15 -5c-2 0 -2 -2 -3 -4c-4 2 -7 5 -11 3v3c-9 -1 -16 3 -25 0v3c-7 -3 -11 3 -18 -3c-1 2 1 2 0 3
c-4 1 -8 -1 -11 3c-5 -2 -9 0 -14 1c-9 -9 -12 0 -21 -6c0 5 -2 1 -3 4c-2 -1 -5 -1 -8 -1c-2 0 -5 0 -7 2c-5 -4 -10 2 -16 -2c0 0 -1 0 -2 2c-5 -4 -10 -6 -14 -3c-1 -2 -1 0 -3 -2c-3 3 -7 -1 -11 -1h-2c-2 0 -5 -3 -7 -3c-8 -1 -15 5 -22 1c-1 0 -2 1 -3 3
c-3 -1 -6 -3 -9 0c-5 -3 -8 0 -14 -1c1 4 -3 6 -4 8c-1 0 -1 2 -3 0c-1 4 -3 4 -3 6c3 1 5 5 9 4c0 0 0 1 1 1c-2 4 -7 4 -10 4s-7 -1 -10 -1c-4 4 -1 11 -2 13c2 2 3 -1 6 1c1 3 2 5 3 9v0zM123 295l1 2c1 -2 2 1 2 2h-2h-1v-2l-1 1c0 -1 -1 -2 -3 -1v0v1c3 1 -1 3 -1 -1
h-1h1v-2c2 0 3 2 4 0c0 0 0 2 1 2v-2z" />
    <glyph glyph-name="equal" unicode="=" horiz-adv-x="442" 
d="M65 301v2c6 1 10 0 14 0c-1 -6 2 -4 4 -8c1 2 1 0 2 1c1 2 1 5 1 8c2 3 3 5 7 6c7 0 18 -2 26 2c2 -1 3 -3 5 -1c2 -2 3 -1 3 -4h7c1 1 2 1 1 2c4 -3 9 -1 14 0c1 -6 6 0 10 -2c1 0 1 2 2 3c7 1 14 -1 21 3c6 -4 16 1 20 -6c5 4 8 0 14 3c1 -2 3 -1 5 -2c2 1 2 2 4 3
c6 -5 16 1 23 -2c1 0 1 0 2 1c8 -3 16 1 24 -1c1 1 2 2 3 2c3 -2 9 -2 13 -1c4 -5 8 -1 12 -3c3 2 4 2 6 4c1 -2 2 -1 3 -4c1 0 2 -2 5 1c2 -3 6 0 10 -3c4 3 4 -3 8 1c2 -4 4 -1 8 -1c2 -2 5 -1 8 0c0 -2 2 -1 1 -3c11 3 20 0 28 -3c0 -3 1 -4 0 -7c-3 -3 -5 -2 -7 -5
c-1 -1 0 -4 -1 -6c-4 -2 -6 -4 -11 -7c0 1 -1 0 -1 3c-3 0 -6 -1 -9 -2c-1 0 -1 -2 -1 0c0 -3 -2 -7 0 -10c-2 -3 -5 -6 -9 -9c-6 6 -15 -2 -23 3c-6 -7 -11 -7 -15 -5c-2 0 -2 -2 -3 -4c-4 2 -7 5 -11 3v3c-9 -1 -16 3 -25 0v3c-7 -3 -11 3 -18 -3c-1 2 1 2 0 3
c-4 1 -8 -1 -11 3c-5 -2 -9 0 -14 1c-9 -9 -12 0 -21 -6c0 5 -2 1 -3 4c-2 -1 -5 -1 -8 -1c-2 0 -5 0 -7 2c-5 -4 -10 2 -16 -2c0 0 -1 0 -2 2c-5 -4 -10 -6 -14 -3c-1 -2 -1 0 -3 -2c-3 3 -7 -1 -11 -1h-2c-2 0 -5 -3 -7 -3c-8 -1 -15 5 -22 1c-1 0 -2 1 -3 3
c-3 -1 -6 -3 -9 0c-5 -3 -8 0 -14 -1c1 4 -3 6 -4 8c-1 0 -1 2 -3 0c-1 4 -3 4 -3 6c3 1 5 5 9 4c0 0 0 1 1 1c-2 4 -7 4 -10 4s-7 -1 -10 -1c-4 4 -1 11 -2 13c2 2 3 -1 6 1c1 3 2 5 3 9v0zM123 295l1 2c1 -2 2 1 2 2h-2h-1v-2l-1 1c0 -1 -1 -2 -3 -1v0v1c3 1 -1 3 -1 -1
h-1h1v-2c2 0 3 2 4 0c0 0 0 2 1 2v-2zM72 453v2c6 1 10 0 14 0c-1 -6 2 -4 4 -8c1 2 1 0 2 1c1 2 1 5 1 8c2 3 3 5 7 6c7 0 18 -2 26 2c2 -1 3 -3 5 -1c2 -2 3 -1 3 -4h7c1 1 2 1 1 2c4 -3 9 -1 14 0c1 -6 6 0 10 -2c1 0 1 2 2 3c7 1 14 -1 21 3c6 -4 16 1 20 -6
c5 4 8 0 14 3c1 -2 3 -1 5 -2c2 1 2 2 4 3c6 -5 16 1 23 -2c1 0 1 0 2 1c8 -3 16 1 24 -1c1 1 2 2 3 2c3 -2 9 -2 13 -1c4 -5 8 -1 12 -3c3 2 4 2 6 4c1 -2 2 -1 3 -4c1 0 2 -2 5 1c2 -3 6 0 10 -3c4 3 4 -3 8 1c2 -4 4 -1 8 -1c2 -2 5 -1 8 0c0 -2 2 -1 1 -3
c11 3 20 0 28 -3c0 -3 1 -4 0 -7c-3 -3 -5 -2 -7 -5c-1 -1 0 -4 -1 -6c-4 -2 -6 -4 -11 -7c0 1 -1 0 -1 3c-3 0 -6 -1 -9 -2c-1 0 -1 -2 -1 0c0 -3 -2 -7 0 -10c-2 -3 -5 -6 -9 -9c-6 6 -15 -2 -23 3c-6 -7 -11 -7 -15 -5c-2 0 -2 -2 -3 -4c-4 2 -7 5 -11 3v3
c-9 -1 -16 3 -25 0v3c-7 -3 -11 3 -18 -3c-1 2 1 2 0 3c-4 1 -8 -1 -11 3c-5 -2 -9 0 -14 1c-9 -9 -12 0 -21 -6c0 5 -2 1 -3 4c-2 -1 -5 -1 -8 -1c-2 0 -5 0 -7 2c-5 -4 -10 2 -16 -2c0 0 -1 0 -2 2c-5 -4 -10 -6 -14 -3c-1 -2 -1 0 -3 -2c-3 3 -7 -1 -11 -1h-2
c-2 0 -5 -3 -7 -3c-8 -1 -15 5 -22 1c-1 0 -2 1 -3 3c-3 -1 -6 -3 -9 0c-5 -3 -8 0 -14 -1c1 4 -3 6 -4 8c-1 0 -1 2 -3 0c-1 4 -3 4 -3 6c3 1 5 5 9 4c0 0 0 1 1 1c-2 4 -7 4 -10 4s-7 -1 -10 -1c-4 4 -1 11 -2 13c2 2 3 -1 6 1c1 3 2 5 3 9v0zM130 447l1 2c1 -2 2 1 2 2
h-2h-1v-2l-1 1c0 -1 -1 -2 -3 -1v0v1c3 1 -1 3 -1 -1h-1h1v-2c2 0 3 2 4 0c0 0 0 2 1 2v-2z" />
    <glyph glyph-name="underscore" unicode="_" horiz-adv-x="633" 
d="M47 -159v2c10 1 17 0 24 0c-2 -7 3 -4 6 -9c2 2 2 0 4 1c1 2 1 6 1 9c4 3 5 6 12 7c12 0 30 -3 43 2c3 -1 5 -3 8 -1c4 -2 5 -1 5 -5h12c2 1 3 1 2 3c6 -4 15 -2 23 0c2 -7 10 0 17 -3c1 0 1 3 3 4c12 1 23 -1 35 3c10 -4 27 1 33 -7c9 5 14 0 24 4c1 -3 4 -1 8 -3
c3 2 3 3 6 4c10 -6 27 1 39 -2c1 0 1 0 3 1c13 -4 27 1 40 -1c2 1 3 2 5 2c5 -2 15 -2 22 -1c6 -6 13 -1 20 -4c5 3 6 3 10 5c1 -2 3 -1 5 -5c1 0 3 -2 8 1c3 -3 10 0 17 -3c6 3 6 -3 13 1c3 -4 6 -1 13 -1c3 -2 8 -1 13 0c0 -2 4 -1 2 -3c18 3 33 0 47 -3c0 -4 1 -5 0 -8
c-5 -3 -9 -2 -12 -6c-2 -1 0 -4 -2 -6c-6 -2 -10 -5 -18 -8c0 1 -2 0 -2 3c-5 0 -10 -1 -15 -2c-1 0 -1 -2 -1 0c0 -3 -4 -7 0 -11c-4 -3 -9 -6 -15 -10c-10 7 -25 -2 -38 4c-10 -8 -19 -8 -25 -6c-4 0 -4 -2 -5 -4c-7 2 -12 5 -19 3v3c-15 -1 -26 4 -41 0v4
c-12 -4 -19 3 -30 -4c-2 3 1 3 0 4c-7 1 -14 -1 -19 3c-8 -2 -15 0 -23 1c-15 -10 -20 0 -35 -6c0 5 -3 1 -5 4c-3 -1 -8 -1 -13 -1c-3 0 -8 0 -12 2c-8 -4 -16 2 -26 -2c0 0 -2 0 -4 2c-8 -4 -16 -7 -23 -3c-2 -2 -2 0 -5 -2c-5 3 -12 -2 -18 -2h-4c-3 0 -8 -3 -11 -3
c-14 -1 -25 6 -37 1c-1 0 -3 1 -5 4c-5 -2 -10 -4 -15 0c-8 -4 -13 0 -23 -2c2 5 -5 7 -7 9c-1 0 -1 2 -5 0c-1 5 -5 5 -5 7c5 1 9 5 15 4c0 0 0 1 2 1c-3 5 -12 5 -17 5s-11 -1 -16 -1c-7 4 -2 12 -4 14c4 2 5 -1 10 1c2 3 4 5 5 10v0zM144 -166l1 2c2 -2 4 1 4 3h-4h-1v-3
l-2 1c0 -1 -2 -2 -5 -1v0v1c5 2 -2 4 -2 -1h-1h1v-2c4 0 5 2 7 0c0 0 0 2 2 2v-2z" />
    <glyph glyph-name="colon" unicode=":" horiz-adv-x="299" 
d="M117 103h2c-10 -8 -14 -22 -28 -25c-11 5 -24 8 -33 0c-1 6 6 12 7 20c1 6 0 11 0 17c5 1 5 -2 9 -2c13 13 25 28 37 42c5 6 11 10 15 16c4 1 14 3 10 9c7 0 18 2 27 0c7 -2 11 -10 17 -8c1 -3 3 -5 3 -8c13 -9 29 -17 29 -36c0 -3 1 -6 -2 -8c2 -6 5 -12 9 -17
c13 -41 -23 -68 -43 -92c-12 -1 -20 -7 -28 -12c-21 -2 -29 8 -45 11c1 7 -2 13 -1 22c1 12 6 25 7 34c8 10 14 22 17 39v1h-1c5 8 3 22 3 31c0 1 -1 1 -2 1c-7 -11 -24 -13 -24 -31c3 -3 12 0 15 -2v-2zM151 132c6 1 8 9 3 10c-2 -2 0 -8 -3 -10zM90 90c-1 4 -2 8 -7 8
c0 -5 2 -7 7 -8zM132 50c-4 -1 -8 -12 -2 -18c11 0 11 19 2 18zM118 419h2c-10 -8 -14 -22 -28 -25c-11 5 -24 8 -33 0c-1 6 6 12 7 20c1 6 0 11 0 17c5 1 5 -2 9 -2c13 13 25 28 37 42c5 6 11 10 15 16c4 1 14 3 10 9c7 0 18 2 27 0c7 -2 11 -10 17 -8c1 -3 3 -5 3 -8
c13 -9 29 -17 29 -36c0 -3 1 -6 -2 -8c2 -6 5 -12 9 -17c13 -41 -23 -68 -43 -92c-12 -1 -20 -7 -28 -12c-21 -2 -29 8 -45 11c1 7 -2 13 -1 22c1 12 6 25 7 34c8 10 14 22 17 39v1h-1c5 8 3 22 3 31c0 1 -1 1 -2 1c-7 -11 -24 -13 -24 -31c3 -3 12 0 15 -2v-2zM152 448
c6 1 8 9 3 10c-2 -2 0 -8 -3 -10zM91 406c-1 4 -2 8 -7 8c0 -5 2 -7 7 -8zM133 366c-4 -1 -8 -12 -2 -18c11 0 11 19 2 18z" />
    <glyph glyph-name="semicolon" unicode=";" horiz-adv-x="325" 
d="M118 419h2c-10 -8 -14 -22 -28 -25c-11 5 -24 8 -33 0c-1 6 6 12 7 20c1 6 0 11 0 17c5 1 5 -2 9 -2c13 13 25 28 37 42c5 6 11 10 15 16c4 1 14 3 10 9c7 0 18 2 27 0c7 -2 11 -10 17 -8c1 -3 3 -5 3 -8c13 -9 29 -17 29 -36c0 -3 1 -6 -2 -8c2 -6 5 -12 9 -17
c13 -41 -23 -68 -43 -92c-12 -1 -20 -7 -28 -12c-21 -2 -29 8 -45 11c1 7 -2 13 -1 22c1 12 6 25 7 34c8 10 14 22 17 39v1h-1c5 8 3 22 3 31c0 1 -1 1 -2 1c-7 -11 -24 -13 -24 -31c3 -3 12 0 15 -2v-2zM152 448c6 1 8 9 3 10c-2 -2 0 -8 -3 -10zM91 406c-1 4 -2 8 -7 8
c0 -5 2 -7 7 -8zM133 366c-4 -1 -8 -12 -2 -18c11 0 11 19 2 18zM102 -17h-1c0 2 1 3 2 5c-6 10 -20 12 -28 21c-6 14 -3 33 0 44c6 14 15 26 25 35c1 1 2 4 0 4c19 10 27 31 55 32c11 -10 29 -13 33 -29c0 -2 2 -2 5 -2c0 -2 -3 -1 -3 -4c4 -12 5 -27 4 -40
c-1 -15 -9 -29 -11 -40c-7 -4 -10 -14 -13 -21h-2l1 -2c-10 -9 -23 -15 -29 -28h-5c-3 -10 -16 -11 -18 -23c-8 0 -10 -5 -13 -11c-2 1 -2 2 -5 1c-17 -9 -30 -22 -50 -28v1v2c0 3 3 3 2 6c6 -1 6 6 9 8c4 2 8 5 12 7c1 1 1 4 2 5c6 6 15 14 19 23v7c5 4 10 7 11 15
c7 2 11 9 12 17c-5 2 -8 -5 -13 -6zM133 71c3 0 9 -1 11 1c0 5 0 9 -2 12c-6 -1 -8 -7 -9 -13zM125 58c0 -8 -2 -18 7 -17c4 5 5 14 9 21c-6 4 -12 -3 -16 -4zM102 33c0 -8 12 -13 16 -6c-2 5 -4 10 -11 10c0 -4 -3 -3 -5 -4zM103 -2l3 1c9 -1 11 2 13 8
c-17 -2 -22 5 -32 10c4 -8 6 -17 17 -17z" />
    <glyph glyph-name="parenleft" unicode="(" horiz-adv-x="345" 
d="M223 -148c0 11 -17 8 -20 18c-9 0 -11 10 -18 11c-3 5 -5 7 -9 12c-1 2 -4 2 -7 2c-1 6 -6 9 -9 14c-4 1 -4 -2 -7 0c3 8 -5 15 -13 15c4 7 -5 13 -10 21c-10 13 -21 28 -33 36c0 5 -1 9 -6 14c-5 2 -6 -6 -9 -2c-5 4 -1 8 -1 14c-4 22 -18 38 -22 58c0 3 -5 2 -5 5
c-1 4 2 4 2 7c-7 8 -3 15 -13 22c4 14 -2 24 -2 37c0 5 -5 4 -6 6c3 1 7 3 7 7c-1 10 -4 20 -2 32c1 5 -5 4 -5 6c0 13 0 25 -4 31c4 4 4 16 7 22c-2 2 0 7 -3 8c6 38 17 76 31 105c2 4 0 4 0 10c9 22 25 39 26 69c5 3 7 8 12 10c2 23 20 28 22 48c15 13 26 33 39 49
c4 0 7 1 11 2c5 5 12 10 18 14c7 4 12 10 18 13c8 5 24 1 25 12c20 1 28 12 38 22c15 -5 35 -2 44 -12c-2 -15 -18 -15 -27 -21c-12 -8 -18 -21 -28 -28c-5 -11 -13 -18 -19 -28c1 -8 -5 -7 -5 -17c-2 0 -3 1 -4 1c-5 -10 -12 -17 -17 -28c-4 -8 -9 -18 -15 -28
c-1 -4 4 -4 2 -9c-3 0 -4 -1 -5 -1c-10 -20 -17 -41 -25 -63c0 -4 4 -4 3 -8c-13 -22 -11 -47 -16 -73c-1 -7 -5 -14 -5 -22c0 -1 1 -3 1 -7c-1 -5 -5 -11 -5 -17c-2 -23 2 -50 -3 -74c5 -13 9 -31 8 -48c9 -4 10 -12 15 -20c-4 -41 11 -78 34 -98c4 1 4 -4 8 -2
c-1 -4 -1 -3 0 -7c4 -5 10 -3 14 -5c-1 -5 1 -6 1 -11c9 -8 16 -18 28 -24c9 -26 34 -34 48 -56c7 6 7 -1 17 0c-1 -5 -5 -10 -7 -14c8 -19 30 -24 56 -28c8 -6 19 -12 30 -16c2 -4 4 -10 5 -14c-12 -5 -23 2 -33 4c-2 0 -2 -2 -2 -4c-3 10 -16 10 -28 13
c-10 3 -27 11 -41 14c-6 1 -2 -5 -7 -4c5 12 -7 15 -15 19l-1 2h-1c-4 16 -22 19 -33 28c-6 5 -7 11 -13 13h-4c1 -2 -1 -7 0 -12c50 -29 50 -32 50 -32l2 1c-1 -10 -18 -8 -18 -15c-12 -9 -30 0 -41 -3v3v1zM174 479c2 2 2 8 7 11h-7c-4 -3 -4 -7 0 -11zM98 268
c5 4 6 12 6 22c8 6 5 16 6 24c3 17 11 33 9 48c6 8 7 22 12 33c0 1 0 2 -1 2c-23 -30 -31 -84 -32 -129zM99 254c-1 3 3 9 -1 9c0 -3 -2 -7 1 -9z" />
    <glyph glyph-name="parenright" unicode=")" horiz-adv-x="362" 
d="M116 -148v-1v-3c-11 3 -29 -6 -41 3c0 7 -17 5 -18 15l2 -1s0 3 50 32c1 5 -1 10 0 12h-4c-6 -2 -7 -8 -13 -13c-11 -9 -29 -12 -33 -28h-1l-1 -2c-8 -4 -20 -7 -15 -19c-5 -1 -1 5 -7 4c-14 -3 -31 -11 -41 -14c-12 -3 -25 -3 -28 -13c0 2 0 4 -2 4
c-10 -2 -21 -9 -33 -4c1 4 3 10 5 14c11 4 22 10 30 16c26 4 48 9 56 28c-2 4 -6 9 -7 14c10 -1 10 6 17 0c14 22 39 30 48 56c12 6 19 16 28 24c0 5 2 6 1 11c4 2 10 0 14 5c1 4 1 3 0 7c4 -2 4 3 8 2c23 20 38 57 34 98c5 8 6 16 15 20c-1 17 3 35 8 48c-5 24 -1 51 -3 74
c0 6 -4 12 -5 17c0 4 1 6 1 7c0 8 -4 15 -5 22c-5 26 -3 51 -16 73c-1 4 3 4 3 8c-8 22 -15 43 -25 63c-1 0 -2 1 -5 1c-2 5 3 5 2 9c-6 10 -11 20 -15 28c-5 11 -12 18 -17 28c-1 0 -2 -1 -4 -1c0 10 -6 9 -5 17c-6 10 -14 17 -19 28c-10 7 -16 20 -28 28
c-9 6 -25 6 -27 21c9 10 29 7 44 12c10 -10 18 -21 38 -22c1 -11 17 -7 25 -12c6 -3 11 -9 18 -13c6 -4 13 -9 18 -14c4 -1 7 -2 11 -2c13 -16 24 -36 39 -49c2 -20 20 -25 22 -48c5 -2 7 -7 12 -10c1 -30 17 -47 26 -69c0 -6 -2 -6 0 -10c14 -29 25 -67 31 -105
c-3 -1 -1 -6 -3 -8c3 -6 3 -18 7 -22c-4 -6 -4 -18 -4 -31c0 -2 -6 -1 -5 -6c2 -12 -1 -22 -2 -32c0 -4 4 -6 7 -7c-1 -2 -6 -1 -6 -6c0 -13 -6 -23 -2 -37c-10 -7 -6 -14 -13 -22c0 -3 3 -3 2 -7c0 -3 -5 -2 -5 -5c-4 -20 -18 -36 -22 -58c0 -6 4 -10 -1 -14
c-3 -4 -4 4 -9 2c-5 -5 -6 -9 -6 -14c-12 -8 -23 -23 -33 -36c-5 -8 -14 -14 -10 -21c-8 0 -16 -7 -13 -15c-3 -2 -3 1 -7 0c-3 -5 -8 -8 -9 -14c-3 0 -6 0 -7 -2c-4 -5 -6 -7 -9 -12c-7 -1 -9 -11 -18 -11c-3 -10 -20 -7 -20 -18zM165 479c4 4 4 8 0 11h-7c5 -3 5 -9 7 -11
zM241 268c-1 45 -9 99 -32 129c-1 0 -1 -1 -1 -2c5 -11 6 -25 12 -33c-2 -15 6 -31 9 -48c1 -8 -2 -18 6 -24c0 -10 1 -18 6 -22zM240 254c3 2 1 6 1 9c-4 0 0 -6 -1 -9z" />
    <glyph glyph-name="less" unicode="&#x3c;" horiz-adv-x="451" 
d="M46 328v1c2 4 2 7 3 10c-3 5 -6 4 -8 10c3 0 4 9 11 8c4 -4 9 -10 14 -14c1 -2 3 -4 5 -5c1 1 3 2 4 3c0 -2 1 -3 2 -3c-3 4 -4 8 -6 12c1 2 3 -1 6 2c2 -3 4 -3 6 -4c0 0 -1 0 -1 1c1 5 2 9 5 13c9 9 24 20 33 34c3 1 5 1 7 6c4 0 6 3 8 0c3 5 6 7 8 9s2 2 0 3
c8 2 12 10 17 15c6 -1 10 9 14 11c2 3 2 5 2 7c9 9 19 15 26 27c10 4 20 20 29 20c5 10 12 10 17 20c3 0 5 4 8 4c2 4 1 4 3 7c12 4 20 20 32 27c0 1 1 1 2 3c12 7 20 20 32 30c1 0 1 3 2 4c7 3 13 9 19 16c6 0 10 9 17 11c1 5 3 7 5 11c2 -1 3 2 5 0c3 1 6 2 7 7
c5 1 9 9 15 9c3 8 8 4 10 13c5 -2 7 3 10 7c4 1 8 6 12 11c2 -1 3 1 4 -1c11 16 24 24 38 31c2 -2 3 -2 4 -5c-1 -7 -5 -9 -6 -12c0 -3 4 -5 4 -7c-4 -6 -7 -11 -10 -19c-1 0 -2 -2 -4 0c-4 -3 -8 -8 -11 -13c0 0 1 -1 -1 0c1 -4 2 -7 7 -8c0 -5 -4 -12 -6 -18
c-11 -4 -19 -21 -31 -26c-5 -13 -11 -19 -18 -23c-1 -2 -2 -5 -1 -7c-6 -2 -12 -4 -17 -11c-1 0 -1 1 -2 2c-10 -11 -21 -17 -32 -30c-1 1 -2 2 -3 2c-6 -11 -16 -10 -21 -25c-1 1 0 3 -2 3c-5 -3 -9 -11 -16 -11c-6 -8 -12 -12 -18 -16c-6 -18 -17 -16 -24 -30
c-3 3 -4 -2 -6 -1c-2 -4 -7 -7 -10 -10c-4 -4 -7 -6 -11 -8c-5 -11 -14 -8 -18 -21c-2 0 -4 -1 -4 0c-6 -10 -11 -18 -18 -20c0 -3 -1 -2 -2 -5c-6 -3 -9 -10 -14 -16c-1 0 -3 0 -3 -1c-3 -2 -4 -9 -7 -11c-10 -11 -23 -15 -30 -28c-1 0 -3 0 -4 1c-3 -3 -6 -7 -8 -9h2
c7 -13 20 -17 30 -28c3 -2 4 -9 7 -11c0 -1 2 -1 3 -1c5 -6 8 -13 14 -16c1 -3 2 -2 2 -5c7 -2 12 -10 18 -20c0 1 2 0 4 0c4 -13 13 -10 18 -21c4 -2 7 -4 11 -8c3 -3 8 -6 10 -10c2 1 3 -4 6 -1c7 -14 18 -12 24 -30c6 -4 12 -8 18 -16c7 0 11 -8 16 -11c2 0 1 2 2 3
c5 -15 15 -14 21 -25c1 0 2 1 3 2c11 -13 22 -19 32 -30c1 1 1 2 2 2c5 -7 11 -9 17 -11c-1 -2 0 -5 1 -7c7 -4 13 -10 18 -23c12 -5 20 -22 31 -26c2 -6 6 -13 6 -18c-5 -1 -6 -4 -7 -8c2 1 1 0 1 0c3 -5 7 -10 11 -13c2 2 3 0 4 0c3 -8 6 -13 10 -19c0 -2 -4 -4 -4 -7
c1 -3 5 -5 6 -12c-1 -3 -2 -3 -4 -5c-14 7 -27 15 -38 31c-1 -2 -2 0 -4 -1c-4 5 -8 10 -12 11c-3 4 -5 9 -10 7c-2 9 -7 5 -10 13c-6 0 -10 8 -15 9c-1 5 -4 6 -7 7c-2 -2 -3 1 -5 0c-2 4 -4 6 -5 11c-7 2 -11 11 -17 11c-6 7 -12 13 -19 16c-1 1 -1 4 -2 4
c-12 10 -20 23 -32 30c-1 2 -2 2 -2 3c-12 7 -20 23 -32 27c-2 3 -1 3 -3 7c-3 0 -5 4 -8 4c-5 10 -12 10 -17 20c-9 0 -19 16 -29 20c-7 12 -17 18 -26 27c0 2 0 4 -2 7c-4 2 -8 12 -14 11c-5 5 -9 13 -17 15c2 1 2 1 0 3s-5 4 -8 9c-2 -3 -4 0 -8 0c-2 5 -4 5 -7 6
c-9 14 -24 25 -33 34c-3 4 -4 8 -5 13c2 1 4 3 4 6c-5 -4 -10 -10 -14 -14c-7 -1 -8 8 -11 8c2 6 5 5 8 10c-1 1 -1 2 -1 4c-4 4 -8 8 -12 13zM136 387l1 3c2 0 2 4 0 4c0 -1 -1 -1 -2 -3v-1h-1c-1 -3 -2 -5 -4 -5h-1c4 5 -2 1 0 -1l-1 -2l1 1c1 0 0 -1 1 -1c2 0 2 5 5 3
c1 2 0 2 0 4zM127 260l-1 3l-1 -2c0 2 1 2 0 4c-3 -2 -3 3 -5 3c-1 0 0 -1 -1 -1l-1 1l1 -2c-2 -2 4 -6 0 -1h1c2 0 3 -2 4 -5h1v-1c1 -2 2 -2 2 -3c2 0 2 4 0 4z" />
    <glyph glyph-name="greater" unicode="&#x3e;" horiz-adv-x="416" 
d="M368 329v-1c-4 -5 -8 -9 -12 -13c0 -2 0 -3 -1 -4c3 -5 6 -4 8 -10c-3 0 -4 -9 -11 -8c-4 4 -9 10 -14 14c0 -3 2 -5 4 -6c-1 -5 -2 -9 -5 -13c-9 -9 -24 -20 -33 -34c-3 -1 -5 -1 -7 -6c-4 0 -6 -3 -8 0c-3 -5 -6 -7 -8 -9s-2 -2 0 -3c-8 -2 -12 -10 -17 -15
c-6 1 -10 -9 -14 -11c-2 -3 -2 -5 -2 -7c-9 -9 -19 -15 -26 -27c-10 -4 -20 -20 -29 -20c-5 -10 -12 -10 -17 -20c-3 0 -5 -4 -8 -4c-2 -4 -1 -4 -3 -7c-12 -4 -20 -20 -32 -27c0 -1 -1 -1 -2 -3c-12 -7 -20 -20 -32 -30c-1 0 -1 -3 -2 -4c-7 -3 -13 -9 -19 -16
c-6 0 -10 -9 -17 -11c-1 -5 -3 -7 -5 -11c-2 1 -3 -2 -5 0c-3 -1 -6 -2 -7 -7c-5 -1 -9 -9 -15 -9c-3 -8 -8 -4 -10 -13c-5 2 -7 -3 -10 -7c-4 -1 -8 -6 -12 -11c-2 1 -3 -1 -4 1c-11 -16 -24 -24 -38 -31c-2 2 -3 2 -4 5c1 7 5 9 6 12c0 3 -4 5 -4 7c4 6 7 11 10 19
c1 0 2 2 4 0c4 3 8 8 11 13c0 0 -1 1 1 0c-1 4 -2 7 -7 8c0 5 4 12 6 18c11 4 19 21 31 26c5 13 11 19 18 23c1 2 2 5 1 7c6 2 12 4 17 11c1 0 1 -1 2 -2c10 11 21 17 32 30c1 -1 2 -2 3 -2c6 11 16 10 21 25c1 -1 0 -3 2 -3c5 3 9 11 16 11c6 8 12 12 18 16
c6 18 17 16 24 30c3 -3 4 2 6 1c2 4 7 7 10 10c4 4 7 6 11 8c5 11 14 8 18 21c2 0 4 1 4 0c6 10 11 18 18 20c0 3 1 2 2 5c6 3 9 10 14 16c1 0 3 0 3 1c3 2 4 9 7 11c10 11 23 15 30 28h2c-2 2 -5 6 -8 9c-1 -1 -3 -1 -4 -1c-7 13 -20 17 -30 28c-3 2 -4 9 -7 11
c0 1 -2 1 -3 1c-5 6 -8 13 -14 16c-1 3 -2 2 -2 5c-7 2 -12 10 -18 20c0 -1 -2 0 -4 0c-4 13 -13 10 -18 21c-4 2 -7 4 -11 8c-3 3 -8 6 -10 10c-2 -1 -3 4 -6 1c-7 14 -18 12 -24 30c-6 4 -12 8 -18 16c-7 0 -11 8 -16 11c-2 0 -1 -2 -2 -3c-5 15 -15 14 -21 25
c-1 0 -2 -1 -3 -2c-11 13 -22 19 -32 30c-1 -1 -1 -2 -2 -2c-5 7 -11 9 -17 11c1 2 0 5 -1 7c-7 4 -13 10 -18 23c-12 5 -20 22 -31 26c-2 6 -6 13 -6 18c5 1 6 4 7 8c-2 -1 -1 0 -1 0c-3 5 -7 10 -11 13c-2 -2 -3 0 -4 0c-3 8 -6 13 -10 19c0 2 4 4 4 7c-1 3 -5 5 -6 12
c1 3 2 3 4 5c14 -7 27 -15 38 -31c1 2 2 0 4 1c4 -5 8 -10 12 -11c3 -4 5 -9 10 -7c2 -9 7 -5 10 -13c6 0 10 -8 15 -9c1 -5 4 -6 7 -7c2 2 3 -1 5 0c2 -4 4 -6 5 -11c7 -2 11 -11 17 -11c6 -7 12 -13 19 -16c1 -1 1 -4 2 -4c12 -10 20 -23 32 -30c1 -2 2 -2 2 -3
c12 -7 20 -23 32 -27c2 -3 1 -3 3 -7c3 0 5 -4 8 -4c5 -10 12 -10 17 -20c9 0 19 -16 29 -20c7 -12 17 -18 26 -27c0 -2 0 -4 2 -7c4 -2 8 -12 14 -11c5 -5 9 -13 17 -15c-2 -1 -2 -1 0 -3s5 -4 8 -9c2 3 4 0 8 0c2 -5 4 -5 7 -6c9 -14 24 -25 33 -34c3 -4 4 -8 5 -13
c0 -1 -1 -1 -1 -1c2 1 4 1 6 4c3 -3 5 0 6 -2c-2 -4 -3 -8 -6 -12c1 0 2 1 2 3c1 -1 3 -2 4 -3c2 1 4 3 5 5c5 4 10 10 14 14c7 1 8 -8 11 -8c-2 -6 -5 -5 -8 -10c1 -3 1 -6 3 -10zM277 390l1 -3l1 2c0 -2 -1 -2 0 -4c3 2 3 -3 5 -3c1 0 0 1 1 1l1 -1l-1 2c2 2 -4 6 0 1h-1
c-2 0 -3 2 -4 5h-1v1c-1 2 -2 2 -2 3c-2 0 -2 -4 0 -4zM288 263l-1 -3c-2 0 -2 -4 0 -4c0 1 1 1 2 3v1h1c1 3 2 5 4 5h1c-4 -5 2 -1 0 1l1 2l-1 -1c-1 0 0 1 -1 1c-2 0 -2 -5 -5 -3c-1 -2 0 -2 0 -4z" />
    <glyph glyph-name="question" unicode="?" horiz-adv-x="371" 
d="M215 389c-1 0 -1 0 -1 1c-6 0 -3 -9 -10 -9c0 -4 -2 -6 -2 -11c-4 -4 -9 -7 -9 -16c-8 -16 -15 -35 -24 -51c1 -1 2 -2 4 -3c0 -2 -4 -2 -5 -2c-2 -6 -2 -14 -4 -21c-2 -8 -5 -11 -6 -21c-1 -13 -6 -25 -7 -37s3 -27 -2 -37c1 -5 0 -5 0 -10c-4 0 -5 1 -6 2
c-5 -6 -16 -2 -23 -3c-2 -2 0 -6 -1 -7c-2 -1 -4 1 -8 -1c-7 10 -19 23 -31 20c0 1 -2 1 -3 1c-3 10 -8 22 -9 34s1 26 1 38c0 4 2 9 3 14c0 4 0 8 1 10c7 9 9 21 14 27c2 12 4 23 9 31c-2 16 13 23 15 39c7 -1 14 10 19 16c4 5 10 6 7 10c5 0 10 9 13 15c3 2 2 -2 4 -2
c11 6 22 17 25 28c0 1 0 1 -1 1v1l-1 1c10 22 35 36 39 60h5c4 8 15 14 18 25c1 3 1 13 2 21c3 19 1 46 -2 66c-1 7 -2 11 -3 21s-11 35 -13 38s-12 9 -15 10c-7 1 -30 2 -38 1c-7 -1 -15 -4 -17 -10c-3 1 -3 -2 -7 -1c-3 -6 -12 -9 -12 -18c-9 -5 -9 -20 -19 -25
c0 -5 -2 -7 -1 -12c-1 0 -1 2 -1 3c-11 -18 -17 -41 -22 -63c0 -3 1 -4 3 -4c-4 -1 -5 -4 -5 -8c0 -3 2 -3 5 -3c2 -7 2 -15 5 -19c17 0 34 12 45 20c3 3 7 6 8 10c9 -1 7 6 13 8c3 -10 -2 -11 -7 -18c4 -1 3 -3 4 -5c-8 -12 -13 -25 -27 -32c0 -2 -2 -3 -1 -6
c-8 -5 -19 -6 -20 -18c-5 8 -19 -2 -24 3c0 -2 -1 -2 -3 -2l-1 2h-1v1c-5 1 -10 14 -15 7c0 -2 3 -3 3 -7h-2l-1 -1c-8 1 -11 6 -11 15v1l-1 1c0 1 0 1 1 1c-1 13 -4 33 -2 48c1 6 5 11 6 18c3 10 4 22 6 33c2 10 11 28 17 35c1 1 4 2 5 4c2 3 0 6 5 7c1 3 0 5 1 7
c9 3 13 11 18 18c2 0 2 -1 3 -1c11 10 22 21 36 29c1 1 2 3 0 3c13 2 26 10 39 7c1 0 0 4 3 4c10 0 18 2 27 0c6 -1 16 -8 24 -9c11 -2 21 1 35 -1c-1 -7 7 -11 12 -15c3 0 1 4 4 3c7 -8 13 -14 20 -21l-1 -2l2 1c0 -10 6 -14 11 -20c0 -7 2 -22 4 -18c1 -8 4 -18 7 -27
c0 -3 2 -3 5 -3c0 -3 -4 -2 -5 -3c3 -7 -6 -22 0 -29c-6 -22 -17 -38 -22 -60h-2v-1c-5 -1 -7 -6 -6 -12c-4 -3 -9 -7 -12 -11c-2 -4 -3 -9 -5 -12c-5 -7 -9 -10 -12 -17c-2 -1 -5 -2 -7 -4c0 -3 0 -7 5 -6c-7 -1 -12 -4 -12 -12h-5c-3 -8 -13 -10 -16 -19c-5 1 -3 -3 -8 -2
c0 -9 -7 -10 -11 -15c0 -2 1 -3 4 -3c-7 -2 -15 -3 -15 -12l-2 -1v-1zM248 643c1 -2 4 -2 5 -4v-8c6 -4 0 -13 7 -18c2 11 1 27 1 35c-3 0 -5 0 -7 1c4 3 0 5 -1 10h-4c-1 -5 2 -11 -1 -16zM323 650c0 2 0 4 -2 4c0 -2 -1 -4 1 -4l-1 -2h2c0 -5 5 -4 1 0v1zM251 602h3
c0 3 0 4 -3 4v-4zM281 539c1 3 2 -2 4 0c2 6 1 10 4 17c-8 3 -8 -11 -8 -17zM201 464c4 3 13 11 9 16c-4 -3 -1 -9 -8 -8c0 -2 -3 -8 -1 -8zM79 74h2c-8 -6 -11 -17 -22 -19c-8 3 -17 6 -24 0c-1 4 4 9 6 15v12c3 1 3 -1 6 -1c10 10 19 21 27 32c5 4 9 8 12 12c3 1 10 2 7 6
c5 0 14 3 21 0c5 -1 8 -7 13 -5c1 -2 2 -4 2 -7c10 -6 22 -13 22 -27c0 -2 1 -4 -1 -5c1 -5 3 -9 6 -13c10 -31 -17 -52 -33 -69c-8 -1 -15 -6 -20 -10c-17 -1 -22 7 -34 9c0 5 -2 10 -1 16c1 9 4 19 5 26c6 7 11 17 13 29v1h-1c4 6 2 16 2 24h-1c-5 -8 -18 -10 -18 -23
c2 -2 9 0 11 -2v-1zM105 95c4 2 5 7 2 8c-1 -1 0 -6 -2 -8zM59 64c-1 3 -2 6 -5 6c0 -4 1 -5 5 -6zM91 34c-4 -1 -7 -9 -2 -14c8 0 8 14 2 14z" />
    <glyph glyph-name="exclam" unicode="!" horiz-adv-x="257" 
d="M79 74h2c-8 -6 -11 -17 -22 -19c-8 3 -17 6 -24 0c-1 4 4 9 6 15v12c3 1 3 -1 6 -1c10 10 19 21 27 32c5 4 9 8 12 12c3 1 10 2 7 6c5 0 14 3 21 0c5 -1 8 -7 13 -5c1 -2 2 -4 2 -7c10 -6 22 -13 22 -27c0 -2 1 -4 -1 -5c1 -5 3 -9 6 -13c10 -31 -17 -52 -33 -69
c-8 -1 -15 -6 -20 -10c-17 -1 -22 7 -34 9c0 5 -2 10 -1 16c1 9 4 19 5 26c6 7 11 17 13 29v1h-1c4 6 2 16 2 24h-1c-5 -8 -18 -10 -18 -23c2 -2 9 0 11 -2v-1zM105 95c4 2 5 7 2 8c-1 -1 0 -6 -2 -8zM59 64c-1 3 -2 6 -5 6c0 -4 1 -5 5 -6zM91 34c-4 -1 -7 -9 -2 -14
c8 0 8 14 2 14zM197 617c-13 -9 -6 -32 -9 -58c0 -2 -2 -3 -2 -6c0 -2 1 -4 1 -7s-1 -9 -2 -17c-1 -9 -5 -19 -2 -27c-3 -6 -5 -17 -3 -23c-2 -3 -4 -3 -5 -5c1 -7 5 -12 3 -22c0 -4 -3 2 -4 -2c-1 -7 0 -17 -1 -26c0 -4 -3 -6 -3 -9c-2 -12 1 -25 -4 -32
c4 -9 -4 -16 -6 -24c-1 -4 0 -10 -1 -15c-2 -8 -5 -25 0 -35c-4 -3 -4 -11 -8 -14c0 -5 0 -17 3 -15c2 -4 2 -13 2 -21c2 -4 7 -11 4 -18c-2 0 -2 1 -3 1c1 -2 -1 -8 0 -17c0 -2 -4 -1 -5 -3v-3l-3 -1v-3c-10 0 -7 -14 -17 -15c0 -4 -2 -5 -1 -10c-2 0 -1 4 -3 4
c-8 -7 -18 -9 -27 -13c-2 -4 0 -8 -1 -10c-5 2 -8 1 -13 6c0 10 -2 16 -5 20c-6 41 -10 87 -7 133c1 17 -3 37 -2 56c1 16 3 40 3 57c4 5 2 9 4 19c0 8 4 17 4 25c0 18 0 36 2 54c1 14 6 27 8 44c0 7 0 21 2 30c1 6 4 25 1 31l-1 1h-1c-1 9 -3 17 -7 22c4 5 2 12 3 18
c3 18 0 49 23 52c1 0 3 -3 5 -2c8 2 12 8 22 9c4 -4 7 -7 6 -16c4 -1 5 -6 6 -9c1 -4 2 3 4 0c0 -6 -1 -9 -4 -14c3 -7 5 -15 5 -23c1 -2 3 -2 4 -2c0 -6 1 -13 1 -19c8 1 13 -3 22 -4c-1 -3 0 -5 3 -3c0 -5 0 -9 3 -9s4 1 4 3l1 -2l1 2c2 -9 0 -22 1 -32h-2z" />
    <glyph glyph-name="ampersand" unicode="&#x26;" horiz-adv-x="542" 
d="M399 292c1 -6 6 -8 7 -12c6 4 15 9 9 17c17 4 10 27 25 31l-1 -3l4 -1c-11 -10 -7 -26 -8 -40c-5 -3 -10 -5 -7 -13c6 3 7 8 8 15c5 -1 7 8 7 10s5 2 6 5c8 -7 -2 -9 -2 -15c3 -3 10 -3 15 -3c4 -7 -1 -9 -1 -15h-1l-2 2c-4 4 -4 -3 -1 -3v-3h3c0 -3 3 -1 3 -5
c-10 -2 -2 -17 -14 -15c4 -2 -1 -5 4 -5c-3 -4 -6 -6 -6 -12c-7 1 -11 -5 -12 -12c-3 0 -17 -11 -10 -11c0 -3 -4 -2 -8 -4c-4 -3 -4 -8 -7 -11c-2 -1 -15 -5 -8 -9c-2 -1 -3 -5 -9 -6c2 -11 -10 -11 -7 -22c-7 1 -4 -6 -4 -9c-5 -4 -15 -4 -13 -13c-5 3 -7 -3 -8 -6
c1 -3 4 -2 5 -6c-12 0 -6 -16 -17 -14c3 -17 9 -29 17 -44h3l-2 -3h3c-3 -9 10 -17 7 -23c2 -4 7 -7 10 -12c6 -9 9 -22 19 -26c-4 -4 6 -19 11 -34c4 -11 5 -24 14 -27c4 -12 9 -26 9 -36c-5 -3 -9 -7 -17 -7c-5 16 -11 29 -19 39c-5 4 -3 -5 -8 -5c3 -14 13 -22 16 -38
c11 -10 9 -20 16 -35c-1 -3 -9 -7 -14 -2c1 -9 -4 -21 5 -25c-1 -5 -13 -2 -15 -5c-4 3 -4 10 -9 10c-2 4 -2 7 1 8c-9 3 -8 17 -18 17c0 6 -5 10 -9 13c-2 3 0 6 -4 5c0 5 -1 12 -5 21c-3 3 -9 8 -7 13c-8 5 -9 19 -17 27c2 10 -9 18 -11 26c-2 3 0 3 0 4
c-7 13 -15 26 -22 32c-7 8 -8 18 -16 24c-12 -4 -12 -16 -27 -15c-3 -1 -1 -3 -1 -6c-4 -3 -15 -1 -16 -7c-3 -1 -3 4 -7 3c-9 -3 -18 -1 -27 -3c-4 -1 -9 -3 -14 -3c-16 0 -31 10 -47 11c-7 12 -22 14 -29 26c-6 0 -7 7 -12 5c-3 12 -9 19 -12 30c-1 3 -5 1 -6 3
c0 1 1 2 1 5c-5 8 -9 16 -16 23c0 2 -3 3 -3 4c-6 8 -4 14 -7 22c-1 3 -4 5 -5 8c-1 8 0 14 -1 22c-3 10 -8 29 -8 42c-2 6 2 11 1 18c1 5 -4 13 1 17c-2 5 -2 0 -6 0l-3 1h-2c4 6 18 13 10 23c10 -1 13 4 10 12c10 -4 11 6 16 12c3 2 8 3 10 7c9 8 19 17 28 26c1 2 2 2 6 3
c8 4 16 10 21 17c-9 11 -11 32 -22 41c-5 21 -11 34 -12 55c-1 2 -2 4 -5 4c5 6 1 16 0 25c-4 13 3 26 3 38c-7 25 7 31 -3 55c3 1 4 3 6 6c0 12 4 21 11 29c1 23 15 35 24 51c0 3 -1 7 -2 9c6 6 14 7 19 12c28 1 70 9 96 0c9 -2 18 -8 26 -12c5 -2 8 -3 13 -6
c1 -1 5 -1 7 -3c1 -1 2 -3 4 -5c7 -5 16 -9 25 -15c2 -6 6 -9 10 -11c2 -4 -2 -2 -2 -5c8 -4 9 -15 17 -19c-3 -6 3 -11 0 -15c3 -5 7 -14 9 -24c1 -5 -1 -11 0 -16c4 -22 16 -49 9 -63c2 -13 2 -26 -2 -34c-2 -4 1 -5 2 -8c-13 0 -5 -15 -21 -14c0 -3 -1 -5 -1 -9
c-18 -16 -32 -34 -53 -48c1 -3 1 -4 1 -7c-5 9 -9 0 -15 -4c-4 -1 -11 -1 -12 -2c-12 -7 -18 -18 -26 -21c1 -5 -1 -9 0 -14c1 -4 4 -5 7 -9c2 -8 0 -17 6 -21c1 -4 -4 -1 -4 -4c-1 -8 11 -8 7 -13c14 -5 11 -31 24 -40c-1 -9 7 -10 11 -16c1 -1 0 -5 1 -6c1 -3 7 -7 8 -7
l-1 -1l2 -1c3 -14 12 -21 14 -35c3 -1 4 -4 7 -5c4 5 9 6 4 18c9 -3 8 2 8 11c1 4 6 7 5 11l1 -1l-1 2l5 5c4 22 18 34 19 56c9 10 15 26 22 38c-1 6 2 10 2 14l1 -3zM205 650c-2 -6 -18 0 -19 -6c6 -11 21 -7 28 -9c16 -4 35 -10 47 -15c-8 23 -34 24 -56 30zM231 386
c13 3 17 12 30 15c0 9 11 13 9 20h4c-1 9 7 13 5 24c4 -2 4 1 7 1c0 10 1 16 4 25c0 2 -2 6 0 9c1 2 0 7 0 9c2 4 6 6 7 11c4 11 -1 21 -3 34c-7 4 -8 7 -11 13c-10 7 -15 17 -22 30c-8 4 -14 12 -19 19c-15 6 -38 21 -47 6c-25 0 -18 -25 -25 -38c2 -10 2 -14 6 -21
c-10 -10 0 -27 1 -41c1 -4 0 -8 0 -12c2 -13 6 -26 9 -38c5 -16 13 -29 10 -42c7 -8 9 -24 16 -33c10 0 15 4 19 9zM316 592c1 2 0 6 -4 6c0 -3 1 -6 4 -6zM316 484c2 2 -2 6 -2 10c-7 0 -4 -9 2 -10zM128 443c3 6 -3 20 -2 28c-1 0 -2 1 -5 1c-1 -8 -2 -22 7 -29zM164 425
c-1 8 -3 24 -9 33c2 -12 2 -24 9 -33zM179 392c3 2 -1 9 -6 7c1 -5 1 -9 6 -7zM130 250c-1 -2 3 -2 1 -6c-3 -5 -9 -11 -7 -20c9 2 2 15 11 16c2 2 -1 5 0 6c12 12 26 21 33 38c-25 2 -34 -17 -38 -34zM220 184c2 0 1 1 2 1c0 4 -2 6 -1 8c-10 7 -13 23 -18 36
c-3 0 -3 2 -4 3c-3 1 -3 -4 -5 0c0 10 -5 17 -11 25c-6 -2 0 -12 0 -13c-4 0 -4 -3 -6 -3c0 -9 -8 -9 -5 -19c-7 -4 -2 -18 -7 -24c3 -6 0 -10 4 -14c-3 0 -3 -4 -3 -5c-1 -5 2 -13 -2 -14c0 1 -1 0 -1 0c3 -11 0 -24 9 -34c-6 -13 0 -20 1 -39c3 0 4 3 4 0
c1 -5 4 -17 12 -18c-3 -3 -3 -1 -2 -5c5 -3 9 -7 17 -6v-1l1 -1v-3c12 -6 30 -4 37 4c10 -1 14 3 20 8c-3 6 2 6 -1 16c5 0 5 5 5 10c-15 27 -28 56 -42 85c-3 0 -6 -1 -6 2h2v1zM251 213c0 5 -3 7 -7 7c2 -4 3 -7 7 -7zM135 136c0 1 -1 4 -2 4c-2 -1 1 -3 1 -4h-1v-1
c-2 -2 0 -5 0 -8c9 -1 6 5 4 8v1h-2zM147 123c-8 1 -6 -4 -9 -8c5 2 12 0 13 4c-4 3 -5 -2 -4 4zM125 105c5 -1 4 8 -1 6c-2 -2 2 -2 1 -6zM155 87c-7 5 -8 14 -16 15c-5 -10 5 -23 5 -35c8 0 11 -9 10 -15c3 -1 5 1 5 -5c7 -2 17 -4 18 -13c-3 0 -7 5 -5 0
c4 -3 11 -8 14 -4c-3 0 -3 1 -3 2c12 -2 28 -7 41 -5c6 1 10 12 18 5c5 4 14 4 15 12c-11 1 -19 1 -23 -6c-22 0 -39 7 -55 13c0 5 -9 5 -7 9c-4 0 -7 0 -8 2l-1 1h-2c0 2 0 2 2 2c-3 6 -3 15 -6 21l-1 1h-1zM120 91c0 1 1 6 -3 6c2 -2 0 -6 3 -6zM147 47c1 4 -1 4 -3 6
c-2 0 -1 -2 -6 -1c0 2 0 4 -1 6c-4 -2 -3 4 -7 3c1 -7 5 -10 9 -17h5l-1 -3l3 -1c5 -4 0 -1 -2 -4c8 -5 17 -17 26 -15c-1 5 -6 5 -9 7c3 2 7 3 3 6c-4 1 0 -4 -4 -3c0 1 1 3 1 4c-6 0 -9 4 -13 8v1zM196 18c2 4 -7 4 -6 1c1 -1 4 -1 6 -1zM379 -32h4c-1 2 -3 3 -5 3
c0 -1 1 -2 1 -3z" />
    <glyph glyph-name="braceleft" unicode="{" horiz-adv-x="371" 
d="M72 377h1c0 6 2 14 0 23c8 10 10 27 12 42c5 4 5 13 7 20c1 7 7 13 3 17c7 5 9 13 10 26c0 4 6 5 8 8c6 22 23 37 29 59c12 4 16 16 24 24c6 5 15 7 19 15c12 2 15 12 27 13c8 2 16 -2 25 -2c5 0 9 2 14 4c13 1 33 -2 44 -7c10 -4 16 -14 26 -13c1 -9 11 -18 1 -22
c-4 -2 -3 4 -4 6c-14 8 -23 20 -40 20c-22 -1 -35 -22 -50 -30c-6 -13 -22 -18 -28 -33c-2 -6 4 -6 6 -10c-3 -12 2 -24 1 -36c0 -10 -3 -21 -4 -31c0 -12 2 -26 2 -37c-1 -14 3 -29 2 -42c0 -2 -1 -6 -1 -9c1 -4 3 -10 -1 -14c3 -21 -4 -41 4 -57c-7 -9 -4 -18 -8 -26
c-8 -13 -23 -17 -34 -26c1 -5 -3 -7 1 -12c-10 -6 -12 -19 -18 -26c-8 -3 -15 -7 -18 -12c-5 3 -12 -1 -18 0c-4 0 -1 3 -4 4c-5 1 -9 -2 -11 3c-3 0 -7 1 -5 -3c-11 11 -34 11 -40 0c9 -9 23 -14 32 -25c3 0 3 -4 9 -2c3 -8 7 -15 15 -17c1 -8 6 -11 11 -15
c5 -12 15 -18 19 -31c2 -3 5 -5 9 -5c-2 -8 5 -16 8 -25c0 -4 1 -10 2 -15c2 -12 10 -21 8 -33c0 -3 4 -3 5 -7c3 -44 -3 -83 18 -117c0 -18 13 -24 19 -35c17 -4 41 -2 49 9c0 -1 0 -4 1 -4c10 9 18 17 20 33c12 9 10 28 19 40v-2h3c1 -12 3 -27 4 -38c8 4 10 14 11 23
c4 7 6 16 9 24l1 -1l3 1c0 -4 1 -7 4 -8c-3 -35 -14 -63 -26 -90c-7 -3 -8 -10 -11 -16c-4 1 -4 -1 -6 -1c-8 -11 -22 -14 -29 -24c-17 0 -31 -1 -50 0c-15 1 -31 10 -45 12c-12 1 -25 -2 -37 -2c-2 7 -3 15 -14 14c-2 11 -7 22 -16 27c-11 29 -22 59 -24 93c0 3 -2 5 -2 9
c-1 4 1 8 1 12c-1 8 -3 17 -3 25c-2 13 2 26 1 39c-2 13 -8 30 -12 45c-4 23 -14 44 -21 70c-4 4 -6 4 -6 8c-10 9 -22 21 -33 34c-2 13 7 19 9 29c17 5 39 -1 53 8c3 3 4 9 10 16c5 8 12 8 11 21c0 2 -3 5 -4 8c-1 5 -2 14 -3 22c-2 18 -2 35 -3 54h-1v1zM104 378
c2 1 2 11 -2 9c1 -2 0 -9 2 -9zM101 343c5 1 5 -4 10 -3c-1 16 -7 24 -8 36c-2 -11 -6 -19 -2 -33zM124 -76c5 -3 3 9 0 6v-6zM130 -93c2 5 2 14 -5 14c-2 -6 1 -10 5 -14zM261 -131c0 -3 1 -6 1 -8c5 1 8 4 8 10c-4 0 -6 -1 -9 -2zM233 -139c4 -1 11 0 13 2
c-5 4 -12 2 -14 -2l-3 1l2 -2v-3c-7 3 -12 -4 -23 -1c1 -6 11 -6 13 -4c4 -7 9 -4 17 -6c-1 6 -2 6 -2 10c-3 0 -4 1 -4 4h1v1z" />
    <glyph glyph-name="braceright" unicode="}" horiz-adv-x="354" 
d="M259 377v-1h-1c-1 -19 -1 -36 -3 -54c-1 -8 -2 -17 -3 -22c-1 -3 -4 -6 -4 -8c-1 -13 6 -13 11 -21c6 -7 7 -13 10 -16c14 -9 36 -3 53 -8c2 -10 11 -16 9 -29c-11 -13 -23 -25 -33 -34c0 -4 -2 -4 -6 -8c-7 -26 -17 -47 -21 -70c-4 -15 -10 -32 -12 -45
c-1 -13 3 -26 1 -39c0 -8 -2 -17 -3 -25c0 -4 2 -8 1 -12c0 -4 -2 -6 -2 -9c-2 -34 -13 -64 -24 -93c-9 -5 -14 -16 -16 -27c-11 1 -12 -7 -14 -14c-12 0 -25 3 -37 2c-14 -2 -30 -11 -45 -12c-19 -1 -33 0 -50 0c-7 10 -21 13 -29 24c-2 0 -2 2 -6 1c-3 6 -4 13 -11 16
c-12 27 -23 55 -26 90c3 1 4 4 4 8l3 -1l1 1c3 -8 5 -17 9 -24c1 -9 3 -19 11 -23c1 11 3 26 4 38h3v2c9 -12 7 -31 19 -40c2 -16 10 -24 20 -33c1 0 1 3 1 4c8 -11 32 -13 49 -9c6 11 19 17 19 35c21 34 15 73 18 117c1 4 5 4 5 7c-2 12 6 21 8 33c1 5 2 11 2 15
c3 9 10 17 8 25c4 0 7 2 9 5c4 13 14 19 19 31c5 4 10 7 11 15c8 2 12 9 15 17c6 -2 6 2 9 2c9 11 23 16 32 25c-6 11 -29 11 -40 0c2 4 -2 3 -5 3c-2 -5 -6 -2 -11 -3c-3 -1 0 -4 -4 -4c-6 -1 -13 3 -18 0c-3 5 -10 9 -18 12c-6 7 -8 20 -18 26c4 5 0 7 1 12
c-11 9 -26 13 -34 26c-4 8 -1 17 -8 26c8 16 1 36 4 57c-4 4 -2 10 -1 14c0 3 -1 7 -1 9c-1 13 3 28 2 42c0 11 2 25 2 37c-1 10 -4 21 -4 31c-1 12 4 24 1 36c2 4 8 4 6 10c-6 15 -22 20 -28 33c-15 8 -28 29 -50 30c-17 0 -26 -12 -40 -20c-1 -2 0 -8 -4 -6
c-10 4 0 13 1 22c10 -1 16 9 26 13c11 5 31 8 44 7c5 -2 9 -4 14 -4c9 0 17 4 25 2c12 -1 15 -11 27 -13c4 -8 13 -10 19 -15c8 -8 12 -20 24 -24c6 -22 23 -37 29 -59c2 -3 8 -4 8 -8c1 -13 3 -21 10 -26c-4 -4 2 -10 3 -17c2 -7 2 -16 7 -20c2 -15 4 -32 12 -42
c-2 -9 0 -17 0 -23h1zM227 378c2 0 1 7 2 9c-4 2 -4 -8 -2 -9zM230 343c4 14 0 22 -2 33c-1 -12 -7 -20 -8 -36c5 -1 5 4 10 3zM207 -76v6c-3 3 -5 -9 0 -6zM201 -93c4 4 7 8 5 14c-7 0 -7 -9 -5 -14zM70 -131c-3 1 -5 2 -9 2c0 -6 3 -9 8 -10c0 2 1 5 1 8zM98 -139v-1h1
c0 -3 -1 -4 -4 -4c0 -4 -1 -4 -2 -10c8 2 13 -1 17 6c2 -2 12 -2 13 4c-11 -3 -16 4 -23 1v3l2 2l-3 -1c-2 4 -9 6 -14 2c2 -2 9 -3 13 -2z" />
    <glyph glyph-name="tilde" unicode="&#x2dc;" horiz-adv-x="408" 
d="M43 571c3 9 9 17 17 24c10 10 18 18 30 25c1 0 5 -1 6 0c10 4 22 7 34 9c6 1 14 -3 20 -4c5 -1 9 -1 16 -4c3 -2 8 -4 12 -7c9 -5 15 -11 27 -15c6 -1 13 -4 19 -5c13 -4 30 -2 45 -3c4 0 8 -3 13 -2c6 1 14 3 17 6c7 3 10 8 19 14c5 12 16 16 22 26c10 -8 5 -24 1 -39
c0 -2 5 -1 4 -4c0 -4 -7 -5 -8 -11c-6 2 -6 -4 -10 -4c0 -3 -4 -4 -4 -6c-5 0 -8 -6 -14 -6c-2 -2 -4 -4 -6 -5c-7 0 -12 -3 -16 -5c-8 -1 -16 -2 -23 -3h-1v-1c-21 2 -38 2 -60 4c-4 0 -8 1 -13 1c-10 1 -24 4 -35 7c-7 4 -15 8 -21 14c0 5 -1 8 -2 11c-13 3 -27 -2 -42 0
c-11 -6 -20 -14 -28 -22c-3 -3 -7 -6 -10 -6c2 18 14 20 21 33c-5 2 -9 -4 -12 -7s-6 -6 -9 -11c-4 0 -4 -4 -7 -6v1zM176 595c-3 4 -10 11 -15 8c7 -4 13 -12 22 -13c1 3 -4 3 -7 5z" />
    <glyph glyph-name="asciitilde" unicode="~" horiz-adv-x="613" 
d="M64 205l-3 2c5 14 14 26 26 37c16 16 28 28 47 39c1 0 7 -2 9 0c15 6 34 11 53 14c9 1 21 -5 31 -6c7 -2 14 -2 24 -7c5 -3 13 -6 19 -11c14 -7 23 -17 42 -23c9 -1 20 -6 29 -7c20 -7 47 -4 70 -5c6 0 12 -5 20 -3c9 1 22 4 26 9c11 5 16 12 30 22c7 18 24 25 34 40
c15 -12 7 -37 1 -60c0 -3 8 -2 6 -7c0 -6 -10 -7 -12 -17c-9 4 -9 -6 -15 -6c0 -4 -7 -6 -7 -9c-7 0 -12 -9 -21 -9c-3 -3 -7 -7 -10 -8c-10 0 -18 -5 -24 -8c-13 -1 -25 -3 -36 -4h-2v-2c-32 3 -58 3 -92 6c-7 0 -13 2 -21 2c-15 1 -37 6 -54 11c-11 6 -23 12 -32 21
c0 8 -2 13 -3 17c-20 5 -42 -3 -65 0c-17 -9 -31 -21 -44 -34c-4 -4 -10 -9 -15 -9c3 28 22 31 32 51c-7 3 -14 -6 -18 -11c-5 -4 -9 -9 -14 -17c-6 0 -6 -6 -11 -9v1zM267 244c-5 6 -16 17 -23 12c10 -6 20 -18 34 -20c1 5 -7 5 -11 8z" />
    <glyph glyph-name="emdash" unicode="&#x2014;" horiz-adv-x="639" 
d="M48 290v2c10 1 17 0 24 0c-2 -7 3 -4 6 -9c2 2 2 0 4 1c1 2 1 6 1 9c4 3 5 6 12 7c12 0 30 -3 43 2c3 -1 5 -3 8 -1c4 -2 5 -1 5 -5h12c2 1 3 1 2 3c6 -4 15 -2 23 0c2 -7 10 0 17 -3c1 0 1 3 3 4c12 1 23 -1 35 3c10 -4 27 1 33 -7c9 5 14 0 24 4c1 -3 4 -1 8 -3
c3 2 3 3 6 4c10 -6 27 1 39 -2c1 0 1 0 3 1c13 -4 27 1 40 -1c2 1 3 2 5 2c5 -2 15 -2 22 -1c6 -6 13 -1 20 -4c5 3 6 3 10 5c1 -2 3 -1 5 -5c1 0 3 -2 8 1c3 -3 10 0 17 -3c6 3 6 -3 13 1c3 -4 6 -1 13 -1c3 -2 8 -1 13 0c0 -2 4 -1 2 -3c18 3 33 0 47 -3c0 -4 1 -5 0 -8
c-5 -3 -9 -2 -12 -6c-2 -1 0 -4 -2 -6c-6 -2 -10 -5 -18 -8c0 1 -2 0 -2 3c-5 0 -10 -1 -15 -2c-1 0 -1 -2 -1 0c0 -3 -4 -7 0 -11c-4 -3 -9 -6 -15 -10c-10 7 -25 -2 -38 4c-10 -8 -19 -8 -25 -6c-4 0 -4 -2 -5 -4c-7 2 -12 5 -19 3v3c-15 -1 -26 4 -41 0v4
c-12 -4 -19 3 -30 -4c-2 3 1 3 0 4c-7 1 -14 -1 -19 3c-8 -2 -15 0 -23 1c-15 -10 -20 0 -35 -6c0 5 -3 1 -5 4c-3 -1 -8 -1 -13 -1c-3 0 -8 0 -12 2c-8 -4 -16 2 -26 -2c0 0 -2 0 -4 2c-8 -4 -16 -7 -23 -3c-2 -2 -2 0 -5 -2c-5 3 -12 -2 -18 -2h-4c-3 0 -8 -3 -11 -3
c-14 -1 -25 6 -37 1c-1 0 -3 1 -5 4c-5 -2 -10 -4 -15 0c-8 -4 -13 0 -23 -2c2 5 -5 7 -7 9c-1 0 -1 2 -5 0c-1 5 -5 5 -5 7c5 1 9 5 15 4c0 0 0 1 2 1c-3 5 -12 5 -17 5s-11 -1 -16 -1c-7 4 -2 12 -4 14c4 2 5 -1 10 1c2 3 4 5 5 10v0zM145 283l1 2c2 -2 4 1 4 3h-4h-1v-3
l-2 1c0 -1 -2 -2 -5 -1v0v1c5 2 -2 4 -2 -1h-1h1v-2c4 0 5 2 7 0c0 0 0 2 2 2v-2z" />
    <glyph glyph-name="endash" unicode="&#x2013;" horiz-adv-x="553" 
d="M67 289v2c8 1 14 0 20 0c-2 -8 2 -4 5 -10c1 2 1 0 3 1c1 2 1 7 1 10c3 3 4 7 10 8c10 0 25 -4 35 2c3 -1 4 -3 7 -1c3 -2 4 -1 4 -6h10c2 1 2 1 2 4c5 -5 12 -3 19 0c1 -8 8 0 14 -4c1 0 1 4 2 5c10 1 19 -1 29 3c8 -4 22 1 27 -8c8 6 12 0 20 5c1 -4 4 -1 7 -4
c2 3 2 4 5 5c8 -7 22 1 32 -2c1 0 1 0 3 1c10 -5 22 1 33 -1c1 1 2 2 4 2c4 -2 12 -2 18 -1c5 -7 11 -1 17 -5c4 4 4 4 8 6c1 -2 2 -1 4 -6c1 0 2 -2 7 1c2 -3 8 0 14 -3c5 3 5 -3 10 1c3 -4 5 -1 11 -1c3 -2 7 -1 11 0c0 -2 3 -1 1 -3c15 3 28 0 39 -3c0 -5 1 -6 0 -9
c-4 -3 -7 -2 -10 -7c-1 -1 0 -4 -1 -6c-5 -2 -8 -6 -15 -9c0 1 -2 0 -2 3c-4 0 -8 -1 -12 -2c-1 0 -1 -2 -1 0c0 -3 -3 -7 0 -12c-3 -3 -7 -6 -12 -10c-9 7 -21 -3 -32 4c-8 -9 -16 -9 -20 -7c-4 0 -4 -2 -5 -4c-5 2 -10 5 -15 3v4c-13 -2 -22 4 -34 0v4
c-10 -4 -16 3 -25 -4c-2 3 1 3 0 4c-6 1 -12 -1 -16 3c-6 -2 -12 0 -19 1c-12 -11 -16 0 -29 -6c0 5 -2 1 -4 4c-2 -1 -6 -1 -11 -1c-2 0 -6 0 -10 2c-6 -4 -13 2 -21 -2c0 0 -2 0 -3 2c-7 -4 -14 -7 -19 -3c-2 -2 -2 0 -4 -2c-5 3 -10 -2 -15 -2h-4c-2 0 -6 -4 -9 -4
c-11 -1 -20 7 -30 1c-1 0 -3 1 -5 5c-4 -2 -8 -5 -12 0c-7 -5 -11 0 -19 -2c2 5 -4 7 -6 9c-1 0 -1 2 -4 0c-1 6 -4 6 -4 8c4 1 7 5 12 4c0 0 0 1 2 1c-2 6 -10 6 -14 6s-9 -1 -13 -1c-6 4 -2 13 -4 15c4 2 5 -1 9 1c1 3 3 5 4 11v0zM147 281l1 2c2 -2 3 1 3 4h-3h-1v-4
l-2 1c0 -1 -1 -2 -4 -1v0v1c4 3 -1 5 -1 -1h-1h1v-2c3 0 4 2 5 0c0 0 0 2 2 2v-2z" />
    <glyph glyph-name="quotesinglbase" unicode="&#x201a;" horiz-adv-x="268" 
d="M90 -17h-1c0 2 1 3 2 5c-6 10 -20 12 -28 21c-6 14 -3 33 0 44c6 14 15 26 25 35c1 1 2 4 0 4c19 10 27 31 55 32c11 -10 29 -13 33 -29c0 -2 2 -2 5 -2c0 -2 -3 -1 -3 -4c4 -12 5 -27 4 -40c-1 -15 -9 -29 -11 -40c-7 -4 -10 -14 -13 -21h-2l1 -2
c-10 -9 -23 -15 -29 -28h-5c-3 -10 -16 -11 -18 -23c-8 0 -10 -5 -13 -11c-2 1 -2 2 -5 1c-17 -9 -30 -22 -50 -28v1v2c0 3 3 3 2 6c6 -1 6 6 9 8c4 2 8 5 12 7c1 1 1 4 2 5c6 6 15 14 19 23v7c5 4 10 7 11 15c7 2 11 9 12 17c-5 2 -8 -5 -13 -6zM121 71c3 0 9 -1 11 1
c0 5 0 9 -2 12c-6 -1 -8 -7 -9 -13zM113 58c0 -8 -2 -18 7 -17c4 5 5 14 9 21c-6 4 -12 -3 -16 -4zM90 33c0 -8 12 -13 16 -6c-2 5 -4 10 -11 10c0 -4 -3 -3 -5 -4zM91 -2l3 1c9 -1 11 2 13 8c-17 -2 -22 5 -32 10c4 -8 6 -17 17 -17z" />
    <glyph glyph-name="quotedblbase" unicode="&#x201e;" horiz-adv-x="388" 
d="M90 -17h-1c0 2 1 3 2 5c-6 10 -20 12 -28 21c-6 14 -3 33 0 44c6 14 15 26 25 35c1 1 2 4 0 4c19 10 27 31 55 32c11 -10 29 -13 33 -29c0 -2 2 -2 5 -2c0 -2 -3 -1 -3 -4c4 -12 5 -27 4 -40c-1 -15 -9 -29 -11 -40c-7 -4 -10 -14 -13 -21h-2l1 -2
c-10 -9 -23 -15 -29 -28h-5c-3 -10 -16 -11 -18 -23c-8 0 -10 -5 -13 -11c-2 1 -2 2 -5 1c-17 -9 -30 -22 -50 -28v1v2c0 3 3 3 2 6c6 -1 6 6 9 8c4 2 8 5 12 7c1 1 1 4 2 5c6 6 15 14 19 23v7c5 4 10 7 11 15c7 2 11 9 12 17c-5 2 -8 -5 -13 -6zM121 71c3 0 9 -1 11 1
c0 5 0 9 -2 12c-6 -1 -8 -7 -9 -13zM113 58c0 -8 -2 -18 7 -17c4 5 5 14 9 21c-6 4 -12 -3 -16 -4zM90 33c0 -8 12 -13 16 -6c-2 5 -4 10 -11 10c0 -4 -3 -3 -5 -4zM91 -2l3 1c9 -1 11 2 13 8c-17 -2 -22 5 -32 10c4 -8 6 -17 17 -17zM248 -17h-1c0 2 1 3 2 5
c-6 10 -20 12 -28 21c-6 14 -3 33 0 44c6 14 15 26 25 35c1 1 2 4 0 4c19 10 27 31 55 32c11 -10 29 -13 33 -29c0 -2 2 -2 5 -2c0 -2 -3 -1 -3 -4c4 -12 5 -27 4 -40c-1 -15 -9 -29 -11 -40c-7 -4 -10 -14 -13 -21h-2l1 -2c-10 -9 -23 -15 -29 -28h-5
c-3 -10 -16 -11 -18 -23c-8 0 -10 -5 -13 -11c-2 1 -2 2 -5 1c-17 -9 -30 -22 -50 -28v1v2c0 3 3 3 2 6c6 -1 6 6 9 8c4 2 8 5 12 7c1 1 1 4 2 5c6 6 15 14 19 23v7c5 4 10 7 11 15c7 2 11 9 12 17c-5 2 -8 -5 -13 -6zM279 71c3 0 9 -1 11 1c0 5 0 9 -2 12
c-6 -1 -8 -7 -9 -13zM271 58c0 -8 -2 -18 7 -17c4 5 5 14 9 21c-6 4 -12 -3 -16 -4zM248 33c0 -8 12 -13 16 -6c-2 5 -4 10 -11 10c0 -4 -3 -3 -5 -4zM249 -2l3 1c9 -1 11 2 13 8c-17 -2 -22 5 -32 10c4 -8 6 -17 17 -17z" />
    <glyph glyph-name="quoteright" unicode="&#x2019;" horiz-adv-x="257" 
d="M112 486h-1c0 2 1 3 2 5c-6 10 -20 12 -28 21c-6 14 -3 33 0 44c6 14 15 26 25 35c1 1 2 4 0 4c19 10 27 31 55 32c11 -10 29 -13 33 -29c0 -2 2 -2 5 -2c0 -2 -3 -1 -3 -4c4 -12 5 -27 4 -40c-1 -15 -9 -29 -11 -40c-7 -4 -10 -14 -13 -21h-2l1 -2
c-10 -9 -23 -15 -29 -28h-5c-3 -10 -16 -11 -18 -23c-8 0 -10 -5 -13 -11c-2 1 -2 2 -5 1c-17 -9 -30 -22 -50 -28v1v2c0 3 3 3 2 6c6 -1 6 6 9 8c4 2 8 5 12 7c1 1 1 4 2 5c6 6 15 14 19 23v7c5 4 10 7 11 15c7 2 11 9 12 17c-5 2 -8 -5 -13 -6zM143 574c3 0 9 -1 11 1
c0 5 0 9 -2 12c-6 -1 -8 -7 -9 -13zM135 561c0 -8 -2 -18 7 -17c4 5 5 14 9 21c-6 4 -12 -3 -16 -4zM112 536c0 -8 12 -13 16 -6c-2 5 -4 10 -11 10c0 -4 -3 -3 -5 -4zM113 501l3 1c9 -1 11 2 13 8c-17 -2 -22 5 -32 10c4 -8 6 -17 17 -17z" />
    <glyph glyph-name="quoteleft" unicode="&#x2018;" horiz-adv-x="277" 
d="M152 541h1c0 -2 -1 -3 -2 -5c6 -10 20 -12 28 -21c6 -14 3 -33 0 -44c-6 -14 -15 -26 -25 -35c-1 -1 -2 -4 0 -4c-19 -10 -27 -31 -55 -32c-11 10 -29 13 -33 29c0 2 -2 2 -5 2c0 2 3 1 3 4c-4 12 -5 27 -4 40c1 15 9 29 11 40c7 4 10 14 13 21h2l-1 2c10 9 23 15 29 28
h5c3 10 16 11 18 23c8 0 10 5 13 11c2 -1 2 -2 5 -1c17 9 30 22 50 28v-1v-2c0 -3 -3 -3 -2 -6c-6 1 -6 -6 -9 -8c-4 -2 -8 -5 -12 -7c-1 -1 -1 -4 -2 -5c-6 -6 -15 -14 -19 -23v-7c-5 -4 -10 -7 -11 -15c-7 -2 -11 -9 -12 -17c5 -2 8 5 13 6zM121 453c-3 0 -9 1 -11 -1
c0 -5 0 -9 2 -12c6 1 8 7 9 13zM129 466c0 8 2 18 -7 17c-4 -5 -5 -14 -9 -21c6 -4 12 3 16 4zM152 491c0 8 -12 13 -16 6c2 -5 4 -10 11 -10c0 4 3 3 5 4zM151 526l-3 -1c-9 1 -11 -2 -13 -8c17 2 22 -5 32 -10c-4 8 -6 17 -17 17z" />
    <glyph glyph-name="quotedblleft" unicode="&#x201c;" horiz-adv-x="425" 
d="M152 541h1c0 -2 -1 -3 -2 -5c6 -10 20 -12 28 -21c6 -14 3 -33 0 -44c-6 -14 -15 -26 -25 -35c-1 -1 -2 -4 0 -4c-19 -10 -27 -31 -55 -32c-11 10 -29 13 -33 29c0 2 -2 2 -5 2c0 2 3 1 3 4c-4 12 -5 27 -4 40c1 15 9 29 11 40c7 4 10 14 13 21h2l-1 2c10 9 23 15 29 28
h5c3 10 16 11 18 23c8 0 10 5 13 11c2 -1 2 -2 5 -1c17 9 30 22 50 28v-1v-2c0 -3 -3 -3 -2 -6c-6 1 -6 -6 -9 -8c-4 -2 -8 -5 -12 -7c-1 -1 -1 -4 -2 -5c-6 -6 -15 -14 -19 -23v-7c-5 -4 -10 -7 -11 -15c-7 -2 -11 -9 -12 -17c5 -2 8 5 13 6zM121 453c-3 0 -9 1 -11 -1
c0 -5 0 -9 2 -12c6 1 8 7 9 13zM129 466c0 8 2 18 -7 17c-4 -5 -5 -14 -9 -21c6 -4 12 3 16 4zM152 491c0 8 -12 13 -16 6c2 -5 4 -10 11 -10c0 4 3 3 5 4zM151 526l-3 -1c-9 1 -11 -2 -13 -8c17 2 22 -5 32 -10c-4 8 -6 17 -17 17zM309 541h1c0 -2 -1 -3 -2 -5
c6 -10 20 -12 28 -21c6 -14 3 -33 0 -44c-6 -14 -15 -26 -25 -35c-1 -1 -2 -4 0 -4c-19 -10 -27 -31 -55 -32c-11 10 -29 13 -33 29c0 2 -2 2 -5 2c0 2 3 1 3 4c-4 12 -5 27 -4 40c1 15 9 29 11 40c7 4 10 14 13 21h2l-1 2c10 9 23 15 29 28h5c3 10 16 11 18 23
c8 0 10 5 13 11c2 -1 2 -2 5 -1c17 9 30 22 50 28v-1v-2c0 -3 -3 -3 -2 -6c-6 1 -6 -6 -9 -8c-4 -2 -8 -5 -12 -7c-1 -1 -1 -4 -2 -5c-6 -6 -15 -14 -19 -23v-7c-5 -4 -10 -7 -11 -15c-7 -2 -11 -9 -12 -17c5 -2 8 5 13 6zM278 453c-3 0 -9 1 -11 -1c0 -5 0 -9 2 -12
c6 1 8 7 9 13zM286 466c0 8 2 18 -7 17c-4 -5 -5 -14 -9 -21c6 -4 12 3 16 4zM309 491c0 8 -12 13 -16 6c2 -5 4 -10 11 -10c0 4 3 3 5 4zM308 526l-3 -1c-9 1 -11 -2 -13 -8c17 2 22 -5 32 -10c-4 8 -6 17 -17 17z" />
    <glyph glyph-name="quotedblright" unicode="&#x201d;" horiz-adv-x="425" 
d="M112 486h-1c0 2 1 3 2 5c-6 10 -20 12 -28 21c-6 14 -3 33 0 44c6 14 15 26 25 35c1 1 2 4 0 4c19 10 27 31 55 32c11 -10 29 -13 33 -29c0 -2 2 -2 5 -2c0 -2 -3 -1 -3 -4c4 -12 5 -27 4 -40c-1 -15 -9 -29 -11 -40c-7 -4 -10 -14 -13 -21h-2l1 -2
c-10 -9 -23 -15 -29 -28h-5c-3 -10 -16 -11 -18 -23c-8 0 -10 -5 -13 -11c-2 1 -2 2 -5 1c-17 -9 -30 -22 -50 -28v1v2c0 3 3 3 2 6c6 -1 6 6 9 8c4 2 8 5 12 7c1 1 1 4 2 5c6 6 15 14 19 23v7c5 4 10 7 11 15c7 2 11 9 12 17c-5 2 -8 -5 -13 -6zM143 574c3 0 9 -1 11 1
c0 5 0 9 -2 12c-6 -1 -8 -7 -9 -13zM135 561c0 -8 -2 -18 7 -17c4 5 5 14 9 21c-6 4 -12 -3 -16 -4zM112 536c0 -8 12 -13 16 -6c-2 5 -4 10 -11 10c0 -4 -3 -3 -5 -4zM113 501l3 1c9 -1 11 2 13 8c-17 -2 -22 5 -32 10c4 -8 6 -17 17 -17zM269 486h-1c0 2 1 3 2 5
c-6 10 -20 12 -28 21c-6 14 -3 33 0 44c6 14 15 26 25 35c1 1 2 4 0 4c19 10 27 31 55 32c11 -10 29 -13 33 -29c0 -2 2 -2 5 -2c0 -2 -3 -1 -3 -4c4 -12 5 -27 4 -40c-1 -15 -9 -29 -11 -40c-7 -4 -10 -14 -13 -21h-2l1 -2c-10 -9 -23 -15 -29 -28h-5
c-3 -10 -16 -11 -18 -23c-8 0 -10 -5 -13 -11c-2 1 -2 2 -5 1c-17 -9 -30 -22 -50 -28v1v2c0 3 3 3 2 6c6 -1 6 6 9 8c4 2 8 5 12 7c1 1 1 4 2 5c6 6 15 14 19 23v7c5 4 10 7 11 15c7 2 11 9 12 17c-5 2 -8 -5 -13 -6zM300 574c3 0 9 -1 11 1c0 5 0 9 -2 12
c-6 -1 -8 -7 -9 -13zM292 561c0 -8 -2 -18 7 -17c4 5 5 14 9 21c-6 4 -12 -3 -16 -4zM269 536c0 -8 12 -13 16 -6c-2 5 -4 10 -11 10c0 -4 -3 -3 -5 -4zM270 501l3 1c9 -1 11 2 13 8c-17 -2 -22 5 -32 10c4 -8 6 -17 17 -17z" />
    <glyph glyph-name="dieresis" unicode="&#xa8;" horiz-adv-x="465" 
d="M98 585h2c-10 -8 -14 -22 -28 -25c-11 5 -24 8 -33 0c-1 6 6 12 7 20c1 6 0 11 0 17c5 1 5 -2 9 -2c13 13 25 28 37 42c5 6 11 10 15 16c4 1 14 3 10 9c7 0 18 2 27 0c7 -2 11 -10 17 -8c1 -3 3 -5 3 -8c13 -9 29 -17 29 -36c0 -3 1 -6 -2 -8c2 -6 5 -12 9 -17
c13 -41 -23 -68 -43 -92c-12 -1 -20 -7 -28 -12c-21 -2 -29 8 -45 11c1 7 -2 13 -1 22c1 12 6 25 7 34c8 10 14 22 17 39v1h-1c5 8 3 22 3 31c0 1 -1 1 -2 1c-7 -11 -24 -13 -24 -31c3 -3 12 0 15 -2v-2zM132 614c6 1 8 9 3 10c-2 -2 0 -8 -3 -10zM71 572c-1 4 -2 8 -7 8
c0 -5 2 -7 7 -8zM113 532c-4 -1 -8 -12 -2 -18c11 0 11 19 2 18zM292 585h2c-10 -8 -14 -22 -28 -25c-11 5 -24 8 -33 0c-1 6 6 12 7 20c1 6 0 11 0 17c5 1 5 -2 9 -2c13 13 25 28 37 42c5 6 11 10 15 16c4 1 14 3 10 9c7 0 18 2 27 0c7 -2 11 -10 17 -8c1 -3 3 -5 3 -8
c13 -9 29 -17 29 -36c0 -3 1 -6 -2 -8c2 -6 5 -12 9 -17c13 -41 -23 -68 -43 -92c-12 -1 -20 -7 -28 -12c-21 -2 -29 8 -45 11c1 7 -2 13 -1 22c1 12 6 25 7 34c8 10 14 22 17 39v1h-1c5 8 3 22 3 31c0 1 -1 1 -2 1c-7 -11 -24 -13 -24 -31c3 -3 12 0 15 -2v-2zM326 614
c6 1 8 9 3 10c-2 -2 0 -8 -3 -10zM265 572c-1 4 -2 8 -7 8c0 -5 2 -7 7 -8zM307 532c-4 -1 -8 -12 -2 -18c11 0 11 19 2 18z" />
    <glyph glyph-name="ellipsis" unicode="&#x2026;" horiz-adv-x="713" 
d="M119 103c-10 -8 -14 -22 -28 -25c-11 5 -24 8 -33 0c-1 6 6 12 7 20c1 6 0 11 0 17c5 1 5 -2 9 -2c13 13 25 28 37 42c5 6 11 10 15 16c4 1 14 3 10 9c7 0 18 2 27 0c7 -2 11 -10 17 -8c1 -3 3 -5 3 -8c13 -9 29 -17 29 -36c0 -3 1 -6 -2 -8c2 -6 5 -12 9 -17
c13 -41 -23 -68 -43 -92c-12 -1 -20 -7 -28 -12c-21 -2 -29 8 -45 11c1 7 -2 13 -1 22c1 12 6 25 7 34c8 10 14 22 17 39v1h-1c5 8 3 22 3 31c0 1 -1 1 -2 1c-7 -11 -24 -13 -24 -31c3 -3 12 0 15 -2v-2h2zM151 132c6 1 8 9 3 10c-2 -2 0 -8 -3 -10zM90 90c-1 4 -2 8 -7 8
c0 -5 2 -7 7 -8zM132 50c-4 -1 -8 -12 -2 -18c11 0 11 19 2 18zM323 103c-10 -8 -14 -22 -28 -25c-11 5 -24 8 -33 0c-1 6 6 12 7 20c1 6 0 11 0 17c5 1 5 -2 9 -2c13 13 25 28 37 42c5 6 11 10 15 16c4 1 14 3 10 9c7 0 18 2 27 0c7 -2 11 -10 17 -8c1 -3 3 -5 3 -8
c13 -9 29 -17 29 -36c0 -3 1 -6 -2 -8c2 -6 5 -12 9 -17c13 -41 -23 -68 -43 -92c-12 -1 -20 -7 -28 -12c-21 -2 -29 8 -45 11c1 7 -2 13 -1 22c1 12 6 25 7 34c8 10 14 22 17 39v1h-1c5 8 3 22 3 31c0 1 -1 1 -2 1c-7 -11 -24 -13 -24 -31c3 -3 12 0 15 -2v-2h2zM355 132
c6 1 8 9 3 10c-2 -2 0 -8 -3 -10zM294 90c-1 4 -2 8 -7 8c0 -5 2 -7 7 -8zM336 50c-4 -1 -8 -12 -2 -18c11 0 11 19 2 18zM538 103c-10 -8 -14 -22 -28 -25c-11 5 -24 8 -33 0c-1 6 6 12 7 20c1 6 0 11 0 17c5 1 5 -2 9 -2c13 13 25 28 37 42c5 6 11 10 15 16c4 1 14 3 10 9
c7 0 18 2 27 0c7 -2 11 -10 17 -8c1 -3 3 -5 3 -8c13 -9 29 -17 29 -36c0 -3 1 -6 -2 -8c2 -6 5 -12 9 -17c13 -41 -23 -68 -43 -92c-12 -1 -20 -7 -28 -12c-21 -2 -29 8 -45 11c1 7 -2 13 -1 22c1 12 6 25 7 34c8 10 14 22 17 39v1h-1c5 8 3 22 3 31c0 1 -1 1 -2 1
c-7 -11 -24 -13 -24 -31c3 -3 12 0 15 -2v-2h2zM570 132c6 1 8 9 3 10c-2 -2 0 -8 -3 -10zM509 90c-1 4 -2 8 -7 8c0 -5 2 -7 7 -8zM551 50c-4 -1 -8 -12 -2 -18c11 0 11 19 2 18z" />
    <glyph glyph-name="yen" unicode="&#xa5;" horiz-adv-x="351" 
d="M17 124v2c6 1 10 0 14 0c-1 -6 2 -4 4 -8c1 2 1 0 2 1c1 2 1 5 1 8c2 3 3 5 7 6c7 0 18 -2 26 2c2 -1 3 -3 5 -1c2 -2 3 -1 3 -4h7c1 1 2 1 1 2c4 -3 9 -1 14 0c1 -6 6 0 10 -2c1 0 1 2 2 3c7 1 14 -1 21 3c1 -1 3 -2 4 -2c0 4 0 8 2 12h2v2h4c1 1 3 5 0 6l1 2l-2 -1
c-1 7 3 8 3 13c-6 -2 -3 9 -9 9c3 2 7 3 10 5c0 9 -1 20 6 22c2 6 -6 1 -5 7c2 2 4 -2 5 1c-1 4 -6 6 -7 10c4 0 2 2 0 6s4 3 5 7c-2 -1 -4 0 -6 0s-5 0 -7 2c-5 -4 -10 2 -16 -2c0 0 -1 0 -2 2c-5 -4 -10 -6 -14 -3c-1 -2 -1 0 -3 -2c-3 3 -7 -1 -11 -1h-2
c-2 0 -5 -3 -7 -3c-8 -1 -15 5 -22 1c-1 0 -2 1 -3 3c-3 -1 -6 -3 -9 0c-5 -3 -8 0 -14 -1c1 4 -3 6 -4 8c-1 0 -1 2 -3 0c-1 4 -3 4 -3 6c3 1 5 5 9 4c0 0 0 1 1 1c-2 4 -7 4 -10 4s-7 -1 -10 -1c-4 4 -1 11 -2 13c2 2 3 -1 6 1c1 3 2 5 3 9v2c6 1 10 0 14 0
c-1 -6 2 -4 4 -8c1 2 1 0 2 1c1 2 1 5 1 8c2 3 3 5 7 6c7 0 18 -2 26 2c2 -1 3 -3 5 -1c2 -2 3 -1 3 -4h7l1 1c4 -2 9 0 14 1c1 -6 6 0 10 -2c1 0 1 2 2 3c7 1 14 -1 21 3c0 -1 1 -1 2 -1c0 10 -10 19 -11 29c-2 9 -1 18 -8 19c2 22 -14 26 -16 41c-4 3 -7 5 -10 9
c1 1 0 5 2 5c-1 4 -8 1 -7 8h4c-1 1 -6 3 -6 1c-4 2 2 4 0 8c-5 -6 -2 2 -4 4c-3 1 1 -7 -3 -4c1 4 -8 9 -2 8h3l1 2c4 -2 1 4 5 3c0 2 -1 3 -4 3c0 -2 0 -2 -1 -2h-4c-2 4 -4 3 -9 2c-3 3 1 9 -3 6c0 2 1 6 -5 6c4 4 2 9 -1 13v2l-2 -1c-1 2 -3 3 -4 6l2 1v2c3 0 1 5 -3 3
v2l-2 1v1c-6 2 -2 6 -7 9c-2 -1 -2 -3 -4 -3c-4 12 -9 23 -5 34c0 2 -2 0 -3 -2c-10 10 -4 35 -13 45c-1 21 -19 24 -17 47c2 1 3 3 4 5c6 -1 8 -4 13 0v-3h2c4 -4 -1 -18 8 -17c0 8 -4 12 -8 18l1 2h-1c-5 8 -8 18 -12 26h12c-3 26 -11 49 -22 69c5 7 0 11 4 19
c5 0 10 -7 13 -5c5 -3 5 -12 12 -13c-1 -12 10 -16 7 -26c5 -3 3 -11 7 -16c4 -4 7 -5 9 -8c7 -6 9 -14 13 -23c2 -5 6 -6 6 -15c6 -6 8 -16 14 -20c7 -18 19 -33 29 -48c3 -2 7 -9 11 -13c1 -3 1 -4 2 -7c2 -2 3 -1 4 -2s0 -4 0 -4c6 -4 8 -13 11 -20c1 -2 4 -3 5 -6
c1 -2 0 -5 2 -7c12 -25 27 -48 37 -74c16 4 17 24 31 32c1 5 5 8 7 13c1 1 3 2 5 2c5 12 13 21 18 33c2 0 3 2 6 1c7 17 22 27 28 46c16 9 18 32 29 45v6c12 14 17 35 32 46c1 3 2 6 4 8c3 0 5 1 8 2c6 9 10 21 18 29c1 8 3 14 10 15c-1 -6 3 -7 0 -18h2
c0 -7 -5 -18 -12 -26c-1 -9 -1 -23 -3 -31c0 -2 0 -1 -2 0c0 -8 3 -15 0 -21c3 -4 7 1 12 0c-2 -4 -4 -7 -10 -8c1 -6 -1 -9 -1 -14c3 -4 9 3 11 -1c0 -5 -2 -6 -1 -12c-3 -2 -2 1 -6 0c-1 -4 -3 -7 -3 -14c-7 -1 -10 -13 -14 -22h-2l1 -2h-2c-2 -8 -13 -13 -10 -22
c-11 2 -3 -18 -17 -19c3 -12 -12 -14 -12 -26c-1 1 -2 1 -4 1c-5 -9 -7 -17 -10 -26c-2 1 -3 3 -5 3c-1 -6 -7 -8 -6 -18c-5 2 -4 -3 -4 -7c-6 1 -7 -4 -7 -11c-2 0 -5 -8 -3 -9c-13 -12 -15 -33 -29 -44c2 -6 -2 -10 -3 -16c0 -12 7 -26 11 -40c1 0 3 1 5 0c3 2 4 2 6 4
c1 -2 2 -1 3 -4c1 0 2 -2 5 1c2 -3 6 0 10 -3c4 3 4 -3 8 1c2 -4 4 -1 8 -1c2 -2 5 -1 8 0c0 -2 2 -1 1 -3c11 3 20 0 28 -3c0 -3 1 -4 0 -7c-3 -3 -5 -2 -7 -5c-1 -1 0 -4 -1 -6c-4 -2 -6 -4 -11 -7c0 1 -1 0 -1 3c-3 0 -6 -1 -9 -2c-1 0 -1 -2 -1 -1c-1 -3 -2 -7 0 -9
c-2 -3 -5 -6 -9 -9c-6 6 -15 -2 -23 3c-6 -7 -11 -7 -15 -5c-2 0 -2 -2 -3 -4c-3 1 -6 3 -8 3h1c0 -1 -2 -1 -3 -1c-3 -16 3 -30 -1 -45c4 -16 -8 -38 1 -52c2 0 4 1 6 0c3 2 4 2 6 4c1 -2 2 -1 3 -4c1 0 2 -2 5 1c2 -3 6 0 10 -3c4 3 4 -3 8 1c2 -4 4 -1 8 -1
c2 -2 5 -1 8 0c0 -2 2 -1 1 -3c11 3 20 0 28 -3c0 -3 1 -4 0 -7c-3 -3 -5 -2 -7 -5c-1 -1 0 -4 -1 -6c-4 -2 -6 -4 -11 -7c0 1 -1 0 -1 3c-3 0 -6 -1 -9 -2c-1 0 -1 -1 -1 -1c0 -3 -2 -6 0 -9c-2 -3 -5 -6 -9 -9c-6 6 -15 -2 -23 3c-6 -7 -11 -7 -15 -5c-2 0 -2 -2 -3 -4
c-3 1 -6 3 -9 3c1 -2 1 -4 2 -6c-7 -13 -6 -32 -11 -48c0 -4 -4 -6 -5 -9c-4 -11 -3 -24 -10 -32c0 -8 1 -17 -6 -22v-1h-1l-2 1c-7 8 4 18 -2 27c-3 0 -2 -3 -5 -2c-13 -18 -12 -36 -16 -58c0 -2 -3 -3 -4 -6c-4 -16 -8 -32 -13 -46s-15 -26 -17 -41c-6 -8 -9 -16 -8 -29
c-4 -3 -5 -3 -11 -1c1 6 -1 5 -4 6c-2 38 4 78 7 115c1 13 3 36 6 50c2 14 -2 30 -2 45c0 7 3 13 2 21c-3 13 -2 28 -1 43h-1c-2 0 -5 0 -7 2c-5 -4 -10 2 -16 -2c0 0 -1 0 -2 2c-5 -4 -10 -6 -14 -3c-1 -2 -1 0 -3 -2c-3 3 -7 -1 -11 -1h-2c-2 0 -5 -3 -7 -3
c-8 -1 -15 5 -22 1c-1 0 -2 1 -3 3c-3 -1 -6 -3 -9 0c-5 -3 -8 0 -14 -1c1 4 -3 6 -4 8c-1 0 -1 2 -3 0c-1 4 -3 4 -3 6c3 1 5 5 9 4c0 0 0 1 1 1c-2 4 -7 4 -10 4s-7 -1 -10 -1c-4 4 -1 11 -2 13c2 2 3 -1 6 1c1 3 2 5 3 9zM202 383c8 -2 15 7 18 12c4 6 10 16 11 23
c-3 3 -9 -2 -13 2c-3 -14 -19 -17 -16 -37zM68 524c-3 -1 -7 -5 -7 -8c0 -4 10 -8 10 -16h10c3 8 -8 24 -13 24zM233 176v-2c0 -7 -4 -17 -5 -26c-1 -4 0 -10 0 -15l1 1c1 -1 4 -2 7 -2c-1 23 -3 36 -3 44zM237 202c0 9 1 19 2 29h-3c-2 -10 -7 -23 1 -29zM237 153v-21h1
c0 7 -1 14 -1 21zM82 272l-1 1c0 -1 -1 -2 -3 -1v1c3 1 -1 3 -1 -1v-2c2 0 3 2 4 0c0 0 0 2 1 2zM75 120l-1 1c0 -1 -1 -2 -3 -1v1c3 1 -1 3 -1 -1v-2c2 0 3 2 4 0c0 0 0 2 1 2zM231 186c-1 -4 1 -6 2 -10c-1 12 -2 11 -2 10zM75 118l1 2c1 -2 2 1 2 2h-3v-4zM82 270l1 2
c1 -2 2 1 2 2h-3v-4z" />
    <glyph glyph-name="circumflex" unicode="&#x2c6;" horiz-adv-x="453" 
d="M94 548c-12 -6 -9 -27 -28 -22c-11 11 10 21 7 33c-5 -3 -9 -7 -16 -8c0 12 7 21 13 32c4 8 8 14 13 21c21 26 43 47 68 68c6 4 12 10 19 15c6 4 16 11 24 7c1 -9 -7 -10 -9 -16c9 -8 17 3 30 1c-1 -5 -4 -8 -8 -6c-7 -10 -15 -19 -24 -27c-26 -37 -53 -73 -74 -114
c-5 -2 -10 -3 -15 0c1 2 8 14 0 16zM354 548c12 -6 9 -27 28 -22c11 11 -10 21 -7 33c5 -3 9 -7 16 -8c0 12 -7 21 -13 32c-4 8 -8 14 -13 21c-21 26 -43 47 -68 68c-6 4 -12 10 -19 15c-6 4 -16 11 -24 7c-1 -9 7 -10 9 -16c-9 -8 -17 3 -30 1c1 -5 4 -8 8 -6
c7 -10 15 -19 24 -27c26 -37 53 -73 74 -114c5 -2 10 -3 15 0c-1 2 -8 14 0 16z" />
    <glyph glyph-name="caron" unicode="&#x2c7;" horiz-adv-x="479" 
d="M94 637c8 2 1 14 0 16c5 3 10 2 15 0c21 -41 48 -77 74 -114c9 -8 17 -17 24 -27c4 2 7 -1 8 -6c-13 -2 -21 9 -30 1c2 -6 10 -7 9 -16c-8 -4 -18 3 -24 7c-7 5 -13 11 -19 15c-25 21 -47 42 -68 68c-5 7 -9 13 -13 21c-6 11 -13 20 -13 32c7 -1 11 -5 16 -8
c3 12 -18 22 -7 33c19 5 16 -16 28 -22zM354 637c12 6 9 27 28 22c11 -11 -10 -21 -7 -33c5 3 9 7 16 8c0 -12 -7 -21 -13 -32c-4 -8 -8 -14 -13 -21c-21 -26 -43 -47 -68 -68c-6 -4 -12 -10 -19 -15c-6 -4 -16 -11 -24 -7c-1 9 7 10 9 16c-9 8 -17 -3 -30 -1c1 5 4 8 8 6
c7 10 15 19 24 27c26 37 53 73 74 114c5 2 10 3 15 0c-1 -2 -8 -14 0 -16z" />
    <glyph glyph-name="hungarumlaut" unicode="&#x2dd;" horiz-adv-x="453" 
d="M176 671c12 6 9 27 28 22c11 -11 -10 -21 -7 -33c5 3 9 7 16 8c0 -12 -7 -21 -13 -32c-4 -8 -8 -14 -13 -21c-21 -26 -43 -47 -68 -68c-6 -4 -12 -10 -19 -15c-6 -4 -16 -11 -24 -7c-1 9 7 10 9 16c-9 8 -17 -3 -30 -1c1 5 4 8 8 6c7 10 15 19 24 27c26 37 53 73 74 114
c5 2 10 3 15 0c-1 -2 -8 -14 0 -16zM342 671c12 6 9 27 28 22c11 -11 -10 -21 -7 -33c5 3 9 7 16 8c0 -12 -7 -21 -13 -32c-4 -8 -8 -14 -13 -21c-21 -26 -43 -47 -68 -68c-6 -4 -12 -10 -19 -15c-6 -4 -16 -11 -24 -7c-1 9 7 10 9 16c-9 8 -17 -3 -30 -1c1 5 4 8 8 6
c7 10 15 19 24 27c26 37 53 73 74 114c5 2 10 3 15 0c-1 -2 -8 -14 0 -16z" />
    <glyph glyph-name="plus" unicode="+" horiz-adv-x="422" 
d="M232 434l2 1c1 -6 0 -10 0 -14c-6 0 -4 -3 -8 -5c2 -1 0 -1 1 -2c2 -1 5 -1 8 0c3 -2 5 -3 7 -7c0 -7 -2 -18 2 -26c-1 -2 -3 -3 -1 -5c-2 -2 0 -3 -3 -3v-7c0 -1 1 -2 1 -2c-2 -4 0 -8 1 -13c-6 -1 0 -6 -2 -10c0 -1 2 -1 3 -2c2 -7 0 -14 4 -21c-2 -2 -2 -5 -2 -8
c1 0 2 -1 3 -1s1 0 2 1c8 -3 16 1 24 -1c1 1 2 2 3 2c3 -2 9 -2 13 -1c4 -5 8 -1 12 -3c3 2 4 2 6 4c1 -2 2 -1 3 -4c1 0 2 -2 5 1c2 -3 6 0 10 -3c4 3 4 -3 8 1c2 -4 4 -1 8 -1c2 -2 5 -1 8 0c0 -2 2 -1 1 -3c11 3 20 0 28 -3c0 -3 1 -4 0 -7c-3 -3 -5 -2 -7 -5
c-1 -1 0 -4 -1 -6c-4 -2 -6 -4 -11 -7c0 1 -1 0 -1 3c-3 0 -6 -1 -9 -2c-1 0 -1 -1 -1 -1v1c0 -3 -2 -7 0 -10c-2 -3 -5 -6 -9 -9c-6 6 -15 -2 -23 3c-6 -7 -11 -7 -15 -5c-2 0 -2 -2 -3 -4c-4 2 -7 5 -11 3v3c-9 -1 -16 3 -25 0v3c-7 -3 -11 2 -17 -2c0 -2 -1 -4 -1 -5
s0 -1 1 -2c-3 -8 1 -16 0 -24c1 -1 2 -2 2 -3c-2 -3 -2 -9 -1 -13c-5 -4 -1 -8 -3 -12c2 -3 2 -4 4 -6c-1 -1 0 -2 -3 -3c0 -1 -2 -2 1 -5c-3 -2 0 -6 -3 -10c3 -4 -3 -4 1 -8c-4 -2 -1 -4 -1 -8c-2 -2 0 -5 1 -8c-2 0 -1 -2 -3 -1c3 -11 0 -20 -3 -28c-3 -1 -4 -2 -7 -1
c-3 3 -2 5 -5 7c-1 1 -4 0 -6 1c-2 4 -4 6 -7 11c1 0 0 1 3 1c0 3 -1 6 -2 9l-1 1c-3 0 -6 2 -9 0c-3 1 -7 4 -10 8c6 6 -2 15 3 23c-7 6 -8 11 -6 15c0 2 -2 2 -4 3c2 4 5 7 3 11h3c-1 9 3 16 -1 25h3c-3 7 3 11 -3 18c2 1 2 -1 3 0v7c-2 -1 -5 0 -7 0s-5 0 -7 2
c-5 -4 -10 2 -16 -2c0 0 -1 0 -2 2c-5 -4 -10 -6 -14 -3c-1 -2 -1 0 -3 -2c-3 3 -7 -1 -11 -1h-2c-2 0 -5 -3 -7 -3c-8 -1 -15 5 -22 1c-1 0 -2 1 -3 3c-3 -1 -6 -3 -9 0c-5 -3 -8 0 -14 -1c1 4 -3 6 -4 8c-1 0 -1 2 -3 0c-1 4 -3 4 -3 6c3 1 5 5 9 4c0 0 0 1 1 1
c-2 4 -7 4 -10 4s-7 -1 -10 -1c-4 4 -1 11 -2 13c2 2 3 -1 6 1c1 3 2 5 3 9v2c6 1 10 0 14 0c-1 -6 2 -4 4 -8c1 2 1 0 2 1c1 2 1 5 1 8c2 3 3 5 7 6c7 0 18 -2 26 2c2 -1 3 -3 5 -1c2 -2 3 -1 3 -4h7c1 1 2 1 1 2c4 -3 9 -1 14 0c1 -6 6 0 10 -2c1 0 1 2 2 3
c7 1 14 -1 21 3c3 -2 8 -2 12 -2c0 2 0 4 2 6c-4 5 2 10 -2 16c0 0 0 1 2 2c-5 5 -7 10 -4 14c-2 1 0 1 -2 3c3 3 -1 7 -1 11v2c0 2 -3 5 -3 7c-2 8 4 15 0 22c0 1 1 2 3 3c-1 3 -3 6 0 9c-4 5 -1 8 -2 14c4 -1 6 3 8 4c0 1 2 2 0 3c4 2 4 4 6 4c1 -3 5 -5 4 -9
c0 0 1 0 1 -1c4 2 4 7 4 10s-1 7 -1 10c4 4 11 1 13 2c2 -2 -1 -3 1 -6c3 -1 5 -2 9 -3zM227 376l2 -1c-2 -1 1 -2 2 -2v3h-2l1 1c-1 0 -2 1 -1 3h1c1 -3 3 1 -1 1h-2c0 -2 2 -3 0 -4c0 0 2 0 2 -1h-2zM123 297l-1 1c0 -1 -1 -2 -3 -1v1c3 1 -1 3 -1 -1v-2c2 0 3 2 4 0
c0 0 0 2 1 2zM123 295l1 2c1 -2 2 1 2 2h-3v-4z" />
    <glyph glyph-name="multiply" unicode="&#xd7;" horiz-adv-x="439" 
d="M356 145l-1 -1c-2 -3 -3 -7 -5 -10c1 -4 4 -3 4 -6c-3 -1 -7 -9 -13 -8c-3 3 -5 8 -8 11c-2 3 -6 7 -12 6c1 -1 1 -2 1 -2c4 -3 2 -7 4 -11c-3 -2 -4 0 -8 -1c0 3 -2 1 -2 2c-3 0 -9 2 -11 -1c-4 6 -9 6 -10 13c-6 1 -6 6 -8 9c-2 0 -4 -1 -6 1c-2 10 -13 12 -19 20
c-1 2 0 8 -2 10c0 0 -1 1 -2 1c-3 4 -3 11 -8 12c-1 3 -2 2 -1 4c-6 2 -8 8 -9 16c-3 -1 -3 0 -3 0c-2 9 -11 9 -12 18c-2 -1 -4 0 -5 1c-2 -1 -4 -2 -5 -1c-1 -9 -10 -9 -12 -18c0 0 0 -1 -3 0c-1 -8 -3 -14 -9 -16c1 -2 0 -1 -1 -4c-5 -1 -5 -8 -8 -12c-1 0 -2 -1 -2 -1
c-2 -2 -1 -8 -2 -10c-6 -8 -17 -10 -19 -20c-2 -2 -4 -1 -6 -1c-2 -3 -2 -8 -8 -9c-1 -7 -6 -7 -10 -13c-2 3 -8 1 -11 1c0 -1 -2 1 -2 -2c-4 1 -5 -1 -8 1c2 4 0 8 4 11c0 0 0 1 1 2c-6 1 -10 -3 -12 -6c-3 -3 -5 -8 -8 -11c-6 -1 -10 7 -13 8c0 3 3 2 4 6c-2 3 -3 7 -5 10
l-1 1c3 8 8 10 11 14c4 -5 5 -1 10 -2c-1 3 1 1 1 2c-1 4 -3 5 -6 8c-1 4 -2 6 1 11c6 7 16 16 19 27c2 1 6 0 5 4c4 0 4 1 6 0c3 3 5 6 6 6v2c5 3 8 9 11 14c6 -4 5 6 10 9c0 0 -1 2 -1 3c4 8 12 13 14 23c5 1 8 6 12 10c-1 1 -1 2 -1 3c-7 -1 -9 5 -13 8c-2 1 0 -2 -2 -2
c0 11 -9 10 -12 19c-1 -1 -1 -1 -3 -2c-5 11 -14 15 -21 24c0 0 -2 -1 -3 -2c-1 6 -6 6 -11 9c1 2 2 3 0 5c-4 3 -8 7 -7 19c-11 3 -12 19 -21 20c-1 5 -1 11 -1 15c5 0 6 5 9 7c-2 -1 0 0 -1 1c-1 5 -3 8 -6 11c-3 -2 -2 -1 -3 -2c-1 8 -2 11 -3 16c1 3 4 4 4 6
c2 4 -1 5 -1 10c2 3 3 3 6 5c9 -5 20 -12 26 -25c1 4 1 0 4 2c1 -4 3 -8 6 -8c3 -3 2 -8 7 -7c0 -7 5 -2 7 -9c5 -1 6 -7 10 -7c0 -5 2 -4 4 -6c3 1 2 0 5 1c0 -4 1 -5 2 -9c5 -3 5 -9 12 -10c2 -4 8 -10 12 -11c1 -1 0 -3 1 -5c8 -6 11 -17 20 -22c1 -2 1 -2 1 -3
c4 -2 7 -7 10 -11c3 4 5 9 10 11c0 1 0 1 1 3c9 5 12 16 20 22c1 2 0 4 1 5c4 1 10 7 12 11c7 1 7 7 12 10c1 4 2 5 2 9c3 -1 2 0 5 -1c2 2 4 1 4 6c4 0 5 6 10 7c2 7 7 2 7 9c5 -1 4 4 7 7c3 0 5 4 6 8c3 -2 3 2 4 -2c6 13 17 20 26 25c3 -2 4 -2 6 -5c0 -5 -3 -6 -1 -10
c0 -2 3 -3 4 -6c-1 -5 -2 -8 -3 -16c-1 1 0 0 -3 2c-3 -3 -5 -6 -6 -11c-1 -1 1 -2 -1 -1c3 -2 4 -7 9 -7c0 -4 0 -10 -1 -15c-9 -1 -10 -17 -21 -20c1 -12 -3 -16 -7 -19c-2 -2 -1 -3 0 -5c-5 -3 -10 -3 -11 -9c-1 1 -3 2 -3 2c-7 -9 -16 -13 -21 -24c-2 1 -2 1 -3 2
c-3 -9 -12 -8 -12 -19c-2 0 0 3 -2 2c-4 -3 -6 -9 -13 -8c0 -1 -1 -2 -1 -3c3 -4 7 -9 12 -10c2 -10 10 -15 14 -23c0 -1 -1 -3 -1 -3c5 -3 4 -13 10 -9c3 -5 5 -11 11 -14c-1 0 0 -1 0 -2c1 0 3 -3 6 -6c2 1 2 0 6 0c-1 -4 3 -3 5 -4c3 -11 13 -20 19 -27c3 -5 2 -7 1 -11
c-3 -3 -5 -4 -6 -8c0 -1 2 1 1 -2c5 1 6 -3 10 2c3 -4 8 -6 11 -14zM139 196l-2 2c3 -1 1 3 0 4c-1 -2 -1 -2 -2 -2v-1l1 -1l-1 -1c1 0 1 -3 -2 -3h-1c2 4 -3 2 0 -1c0 0 2 -1 3 -2c1 2 -1 4 3 4c0 0 -2 2 -2 3zM303 198l-2 -2l3 2c0 -1 -2 -3 -2 -3c4 0 2 -2 3 -4
c1 1 3 2 3 2c3 3 -2 5 0 1h-1c-3 0 -3 3 -2 3l-1 1l1 1v1c-1 0 -1 0 -2 2c-1 -1 -3 -5 0 -4z" />
    <glyph glyph-name="asterisk" unicode="*" horiz-adv-x="416" 
d="M182 310h-2c-1 6 0 10 0 14c6 -1 4 2 8 4c-2 1 0 1 -1 2c-2 1 -5 1 -8 1c-3 2 -5 3 -6 7c1 7 3 18 -1 26c1 2 3 3 1 5c2 2 1 3 4 3v7c-1 0 -1 1 -2 1c3 4 1 9 0 14c6 1 0 6 2 10c0 1 -2 1 -3 2v1c-1 -1 -2 -1 -2 -1c-1 0 -3 1 -3 1c-3 -4 -11 -3 -9 -8
c-4 -3 -9 -5 -12 -10c0 1 -1 0 -1 1c0 -1 -3 -3 -6 -5c1 -2 0 -2 0 -5c-3 1 -2 -3 -3 -5c-9 -2 -18 -11 -24 -16c-4 -3 -6 -1 -10 0c-2 3 -3 4 -7 5c0 0 1 -2 -1 -1c1 -4 -3 -5 1 -8c-3 -3 -5 -7 -12 -10v1c-3 2 -6 3 -9 4c-4 -1 -3 -3 -5 -3c-1 2 -8 7 -7 12c2 3 7 3 10 6
c3 2 6 5 5 10c0 -1 -1 -1 -1 -1c-3 -3 -6 -1 -10 -2c-2 2 0 3 -1 7c3 0 1 2 2 2c0 2 2 6 -1 9c5 3 5 7 11 8c1 5 6 5 9 7c0 1 -1 3 1 5c8 2 10 11 17 16c2 1 7 -1 9 1c0 0 1 1 1 2c3 2 9 2 10 7c3 1 2 1 3 1c3 5 8 6 15 7c-1 3 0 3 0 3c8 1 8 8 16 9c-1 2 0 4 0 5s-1 3 0 4
c-8 1 -8 9 -16 11c0 0 -1 0 0 3c-7 1 -11 2 -13 8c-2 -1 -1 0 -3 0c-1 5 -7 5 -11 7c0 1 -1 2 -1 2c-1 2 -6 2 -8 3c-7 5 -9 14 -17 16c-2 2 -1 3 0 5c-3 2 -7 2 -8 7c-6 1 -6 5 -11 10c2 0 0 6 0 8c0 1 1 2 -1 3c1 3 -1 4 1 7c3 -3 7 -1 9 -5c0 0 1 0 2 -1c1 6 -2 9 -4 11
c-3 2 -7 5 -10 8c-1 5 6 7 7 10c3 0 2 -3 5 -4c3 2 6 3 9 5l1 1c6 -3 8 -7 12 -10c-5 -3 -1 -4 -2 -9h2c3 0 4 2 7 5c3 0 5 1 9 -2c6 -5 13 -14 22 -16c1 -2 0 -5 4 -5c0 -3 1 -3 0 -5c2 -2 5 -5 5 -6h2c2 -4 8 -7 12 -9c-4 -5 5 -5 7 -9c0 0 1 1 2 1c1 -1 2 -2 3 -2
c0 2 0 4 1 6c-1 1 -2 2 -2 3c2 3 2 9 1 13c5 4 1 8 3 12c-2 3 -2 4 -4 6c2 1 1 2 4 3c0 1 2 2 -1 5c3 2 0 6 3 10c-3 4 3 4 0 8c4 2 1 4 1 8c2 2 1 5 0 8c2 0 1 2 3 1c-3 11 0 20 3 28c3 0 4 1 7 0c3 -3 2 -5 5 -7c1 -1 4 0 6 -1c2 -4 4 -6 7 -11c-1 0 0 -1 -3 -1
c0 -3 1 -6 2 -9c0 -1 0 -1 1 -1c3 -1 6 -2 9 0c3 -2 6 -5 9 -9c-7 -6 1 -15 -4 -23c7 -6 7 -11 5 -15c0 -2 2 -2 4 -3c-2 -4 -5 -7 -3 -11h-3c0 -5 -1 -9 -1 -14c7 5 10 12 17 17l-2 2c5 1 5 5 8 10c1 -1 2 -2 4 0c3 3 6 7 16 5c4 9 18 10 19 18c4 1 9 1 12 1
c0 -4 5 -6 6 -9c0 2 0 0 1 1c5 1 7 3 10 5c-2 3 -1 2 -2 3c7 1 10 2 14 2c2 0 3 -3 5 -3c4 -2 4 1 9 0c2 -2 2 -3 4 -5c-4 -8 -11 -17 -22 -22c3 -1 0 -1 1 -3c-3 -1 -7 -3 -7 -5c-2 -3 -6 -2 -6 -6c-6 0 -1 -5 -7 -6c-1 -5 -6 -5 -7 -8c-5 0 -4 -2 -5 -4v-4
c-3 0 -4 -1 -7 -2c-3 -4 -8 -4 -9 -10c-3 -2 -9 -7 -9 -10c-1 -1 -3 0 -5 -1c-6 -6 -15 -9 -20 -17h-2c-2 -4 -6 -6 -10 -9c4 -3 8 -4 10 -9c1 0 1 0 2 -1c5 -7 13 -10 19 -18c1 -1 3 0 4 -1c1 -3 6 -8 9 -10c1 -6 6 -6 9 -10c3 -1 4 -2 8 -2c-1 -2 0 -2 -1 -4
c2 -2 0 -4 4 -4c0 -3 5 -5 6 -9c6 -2 2 -6 8 -6c-1 -4 3 -4 6 -6c0 -3 3 -5 7 -5c-2 -3 2 -3 -2 -4c11 -5 17 -15 21 -23c-2 -3 -2 -4 -4 -5c-5 1 -6 3 -9 1c-2 0 -3 -2 -5 -3c-5 1 -7 2 -14 3c1 0 0 0 2 2c-3 3 -6 4 -10 5c-1 1 -2 -1 -1 1c-1 -2 -6 -2 -6 -7
c-3 0 -8 0 -13 1c-1 8 -14 9 -16 18c-10 0 -14 4 -16 7c-2 2 -3 1 -5 0c-2 4 -2 9 -7 10c0 1 1 2 1 2c-6 5 -10 11 -16 16c0 -2 0 -3 -1 -4c2 -1 0 -1 2 -3c-3 -3 1 -7 1 -11v-2c0 -2 3 -5 3 -7c1 -8 -5 -15 -1 -22c0 -1 -1 -2 -3 -3c0 -3 2 -6 -1 -9c3 -5 0 -8 1 -14
c-4 1 -6 -3 -8 -4c0 -1 -2 -1 0 -3c-4 -1 -4 -3 -6 -3c-1 3 -5 5 -4 9c0 0 -1 0 -1 1c-4 -2 -4 -7 -4 -10s1 -7 1 -10c-4 -4 -11 -1 -13 -2c-2 2 1 3 -1 6c-3 1 -5 2 -9 3zM134 531l1 2c0 -3 3 -1 4 0c-2 1 -2 1 -2 2h-1l-1 -1c-1 0 -3 0 -3 3c3 -1 2 3 -1 0l-2 -2
c2 -1 4 1 4 -3l2 2zM132 390l-2 2l2 -3c-1 0 -3 2 -3 2c0 -4 -1 -2 -3 -3l2 -2c2 -3 4 1 1 0v1c0 2 2 2 2 1l1 1l1 -1h1c0 1 0 1 1 2c0 1 -4 3 -3 0zM189 368l-2 1c2 1 -1 2 -2 2v-3h2l-1 -1c1 0 2 -1 1 -3h-1c-1 3 -3 -1 1 -1h2c0 2 -2 3 0 4c0 0 -2 0 -2 1h2z" />
    <glyph glyph-name="trademark" unicode="&#x2122;" horiz-adv-x="465" 
d="M77 307v-1h-1v-4c-3 -4 -2 -12 -4 -17s-4 -9 -6 -13h-8c-2 10 -4 23 -3 35h-2v1v0c0 1 2 0 2 1c1 11 3 20 4 31c0 1 -1 2 -1 3c1 0 1 4 1 5c1 10 0 18 -1 27c0 1 0 1 -1 2c0 0 1 1 1 2s-1 2 -1 3c0 6 1 13 1 19c0 4 -1 6 0 9v3c1 4 1 8 0 11c0 6 -1 13 -3 18
c-1 4 -3 13 -4 18c0 1 1 2 1 2c0 2 -2 3 -2 4c-2 15 2 33 -2 45v1h-1c0 13 4 25 -1 34c2 2 1 6 1 9c0 7 1 14 1 20v2c0 6 2 9 2 15s2 12 2 18h1l-1 1c2 4 2 9 3 15c2 6 5 11 3 18c2 1 2 5 2 9c-3 1 -4 0 -8 0c-3 -4 -12 1 -16 -2c0 1 -1 1 -2 2c-9 -2 -15 1 -22 1
c-2 1 -1 -1 -2 -1c0 1 1 1 1 2c-2 1 -4 -1 -7 0v0v-1c-3 3 -9 1 -12 4c0 -1 -2 0 -4 1c-3 -1 -10 -2 -12 1c-1 -1 -4 -1 -4 -3c0 7 -3 12 0 16v-1l1 1c3 -2 10 -2 15 -2c1 0 0 1 1 1c12 0 22 1 32 2h13c1 0 1 1 2 1c9 1 19 -1 29 -1c1 1 1 4 2 5s2 1 4 1c0 4 2 6 2 9
c2 1 2 5 5 6c3 -1 6 -3 9 -4c0 -2 1 -2 2 -3c0 -4 3 -6 3 -11c3 -1 5 -1 8 1c-1 2 0 4 3 5c-1 1 0 4 -1 6c3 4 1 9 2 14c4 0 11 -3 16 -1c1 -1 3 0 4 -1c1 0 1 -2 2 -1c0 -3 1 -4 3 -6c1 -6 1 -14 -2 -18c4 -2 8 0 11 -1c2 0 3 -1 5 -2c0 0 1 1 2 1s2 -1 3 -1
c8 0 16 0 23 -1c8 5 17 7 25 13v-1l1 -1c0 -3 -2 0 -2 -3c3 -3 1 -9 4 -12c-2 -3 0 -8 -2 -10c0 2 -5 -1 -6 -1c-1 -1 -1 -2 -1 -3c-2 0 -4 1 -6 0c-1 -1 0 -2 -1 -3s-4 0 -5 0c-1 -1 1 -3 0 -3h-14v1v-1c-8 1 -20 0 -26 1c1 2 0 1 -1 2c-2 -1 -4 -1 -6 -2c0 1 0 2 -1 2
c-4 1 -8 0 -12 0c-1 -3 -1 -5 -2 -8c1 0 2 1 2 0v-1v0c-1 0 -1 -1 -3 -1c0 -11 -3 -20 -2 -31h2v0v-1h-2c0 -3 -1 -7 1 -10c-2 0 -3 2 -3 -1c1 -2 2 2 3 0c0 -1 1 -1 1 -1c-1 -1 -1 -2 -2 -3c2 -4 -1 -11 1 -17h-1l1 -1v0c0 -5 -5 -7 -6 -11c0 -1 1 -3 1 -5v-2
c0 -1 1 -1 1 -1c0 -1 -1 -2 -1 -3s0 -2 -1 -3c1 0 1 -1 2 -1c-4 0 -1 -7 -1 -7c-1 1 -2 0 -3 -1c0 0 -1 -4 0 -5c-3 -2 -2 -10 -2 -15c-1 0 -2 2 -3 1c-2 -15 1 -29 0 -44c0 -1 2 -1 2 -1h-1c-1 -13 4 -20 3 -32c0 -1 1 -1 1 -2c-2 -1 0 -3 0 -5c0 -4 1 -10 0 -15
c0 -1 -1 -2 -1 -2c0 -7 2 -12 2 -18c2 -2 2 -6 3 -9c0 -2 2 -1 2 -2c2 -7 2 -16 3 -22c-2 -1 -3 -4 -3 -7c-2 0 -2 -1 -1 -2h-2c-1 -7 -1 -15 -1 -21l-1 1v-1c0 -2 -1 -3 -1 -6c-1 -1 -2 -3 -4 -5c0 -2 -1 -3 -2 -5c-1 -6 -1 -12 0 -19c-3 0 -3 -4 -4 -6c-1 -1 -2 -1 -4 -2
c1 -4 -3 -4 -5 -7c-2 -1 -2 -3 -4 -4c-2 6 1 12 -1 19h-2l1 1h-1c0 2 2 -1 2 1c0 8 2 22 -2 30c-1 -5 0 -11 -3 -14c-1 -2 1 -2 1 -3c-1 -1 -2 -1 -2 -2c2 -4 -1 -8 2 -12h-1zM50 559c1 0 2 0 1 1c1 5 3 11 1 16c-2 -4 -3 -11 -2 -17zM63 573c1 0 1 2 1 4c-2 0 -2 -4 -1 -4z
M63 588v-3c1 0 1 3 0 3zM94 376h1c0 -1 -2 0 -2 -1c0 -8 3 -13 2 -21c0 -2 2 -1 2 -3c-1 0 -2 1 -2 -1c1 0 1 1 3 1l-3 25v1c0 3 1 8 -2 10v-5c0 -2 0 -5 2 -5zM96 651c-1 0 0 1 -1 1c0 -2 -1 -5 0 -6c1 2 0 2 1 5zM189 662c-1 0 -2 1 -2 -1c1 0 2 0 2 1zM212 702h1
c1 0 1 -1 4 -1c1 -3 6 -3 7 -6c2 0 3 -1 4 -1c1 -4 6 -3 9 -6c1 0 1 1 2 0c2 -1 3 -3 3 -4s1 1 2 0v-2c2 -1 2 1 3 1v-1h1v-4h-1v0h-1v-1h1v0h1v-2c0 -1 1 -1 2 -2c0 0 -1 -1 -2 -1c1 0 3 1 2 -1c1 0 2 0 3 -1v0v0v-2c1 0 1 1 1 2v-1v1c1 0 2 0 2 -1v0v-1c-1 0 -1 -1 -1 -2
s1 -1 2 -1c0 -1 -1 -1 -1 -1c1 -1 2 -1 3 -2c-1 -3 0 -2 -1 -3c0 -1 2 -1 2 0c3 -2 3 -6 5 -8c0 0 1 -1 1 1c1 -2 3 -4 3 -8c3 -1 2 -6 4 -8h-2c1 -1 3 -1 4 -1c0 -2 0 -3 2 -3c0 -2 0 -5 2 -5c-3 -3 0 -7 -1 -10c2 0 1 -1 3 0h-1c0 2 1 -1 2 -1c0 -2 2 -3 3 -5
c0 -1 -1 -2 -1 -3c1 -1 2 -2 3 -2c-1 -1 -1 -2 -1 -4l3 -3c-1 -2 0 -4 0 -7c1 -1 2 1 2 0c0 -2 0 -2 1 -3c0 -2 -1 -1 0 -4c0 0 0 1 1 1v0h1c1 -1 0 -2 0 -2c1 -1 1 -2 1 -3c0 -4 -1 -7 2 -8v-2c1 -1 2 -1 3 -1c1 -2 0 -3 0 -4c1 -2 2 -3 3 -4c-2 -3 1 -5 0 -7
c1 0 1 -2 2 -2c0 -3 2 -7 2 -10h1c0 -4 0 -7 3 -7c0 -1 0 -2 -1 -2c2 -2 1 -6 1 -8c1 -1 1 -1 2 -1c-1 -5 1 -8 4 -8c0 -2 -1 -7 2 -8c-1 -1 0 -2 0 -3c3 0 2 -5 5 -6c2 1 3 4 3 7c1 1 1 4 2 6c0 1 1 2 2 3c1 4 1 7 2 10c0 1 1 1 1 2c1 1 0 1 0 2h1s0 3 1 4c0 1 -1 1 -1 2
c2 -1 1 1 2 1c0 4 2 7 3 11c1 3 3 7 4 12v2c0 3 2 5 3 7c0 5 1 9 4 13c-1 0 0 1 -1 1c2 2 2 3 2 6c1 0 2 1 2 1c2 6 5 9 6 16h2c0 1 1 2 0 3c3 5 5 10 9 14v4c2 4 3 9 5 14c0 1 1 2 0 2c1 0 2 3 4 3c0 1 1 1 0 3c2 -1 2 -1 2 1c1 -1 2 1 2 2c1 1 1 1 1 3c1 1 2 1 2 2v2
c1 2 3 4 3 7c1 1 3 1 4 2c2 -2 3 -3 5 -4c2 0 2 1 3 1c0 -4 3 -6 1 -9c0 -2 1 -2 2 -3c0 -4 -3 -8 0 -10c-1 0 -1 -3 -1 -4l1 1c-5 -10 6 -17 3 -26c0 -1 1 1 1 0v-7c0 -1 -1 -3 -2 -4c1 -5 -2 -9 -1 -13c-3 -3 -2 -17 -2 -22c0 -3 3 -4 5 -4c-2 -8 -2 -19 -3 -27
c0 -2 2 -1 2 -2c-1 0 -2 0 -3 -1v-10h-2c-1 -1 -1 -4 -2 -5c1 -1 2 -3 3 -4c-1 -1 -1 -2 -2 -4c0 -1 1 -1 2 -2c-1 -4 0 -10 -3 -13c1 -3 0 -5 2 -7c-1 -2 0 -5 0 -7c0 -1 -1 -1 -1 -2c0 -5 2 -9 1 -13v-6c1 -5 -1 -10 -1 -14c0 -2 2 -4 2 -6c0 -3 -1 -6 -1 -8s1 -4 1 -5
c0 -2 -1 -3 -1 -5c-1 -2 0 -3 -1 -5c0 -1 0 1 1 0c0 -4 0 -6 -1 -9c2 -3 0 -5 2 -9c-2 -13 0 -23 -1 -33c0 -1 1 -1 1 -1c1 -4 1 -8 0 -11c-5 -4 -2 -10 -2 -16c0 -3 -1 -7 -1 -10c0 -4 2 -9 2 -15c1 -5 -1 -11 1 -14c0 -1 -1 -1 -1 -1c1 -1 1 -2 0 -3v-2c0 -2 -1 -4 0 -4
c-1 -2 -6 -1 -7 -1s0 1 0 3c-1 1 -2 3 -2 5c-3 3 -3 7 -4 11h1c-2 1 -2 5 -4 5c1 1 1 4 1 5s-1 2 -1 3h-1s1 1 0 1v1c-1 2 0 4 0 5s-2 1 -1 2h-1c-2 6 -3 13 -5 19c0 6 -1 12 -3 17c1 1 0 3 0 4c-1 2 -2 6 -1 7v0v0c0 3 0 6 1 8c0 1 -1 0 -1 0c-2 0 -1 -3 -3 -2
c0 -4 0 -7 -1 -10c0 -1 0 -1 1 -1c-2 -2 -1 -6 -4 -7v0h-1c1 5 -1 9 -5 7c-1 3 -1 4 -1 6c-1 6 2 14 0 21c1 3 1 8 1 13v8c-1 2 -2 4 -2 7s1 6 1 9c0 9 -2 18 -3 27v0c-2 20 -3 43 -5 63c-3 -3 -3 -6 -3 -10c-1 0 -1 1 -1 0c-1 0 1 -1 0 -2s-3 -5 -1 -5c0 -1 -1 -1 -2 -2
c0 -3 -1 -6 -2 -7v-3c-1 1 -1 -1 -2 -2c-1 -5 -3 -9 -2 -14c-1 0 -1 -1 -2 -1c0 -1 -2 -3 0 -4h-2c1 -5 -4 -5 -2 -10c-1 0 -2 -1 -3 -2c0 -3 1 -6 0 -10v1v-1c-2 0 -1 -3 -3 -2c1 -2 1 0 2 0c-1 -3 -4 -3 -5 -5c-2 0 -4 -1 -5 -1c-2 -4 -5 -4 -10 -3c1 3 0 10 -3 12
c1 2 0 5 -2 5c0 1 1 1 1 2c-1 -2 0 0 -1 1c0 1 -1 1 -2 2v1c0 1 -1 2 0 3c-2 0 -3 4 -3 6c0 0 -1 1 -2 1c0 3 -2 4 -3 5v2c-1 4 -3 6 -5 9c-1 2 -2 4 -4 6c-1 6 -4 11 -7 17c-2 1 -3 3 -4 5c0 1 0 2 -1 4s-3 3 -4 5c0 1 -1 1 -2 2c0 1 -1 2 -1 4h-1v0v1c0 4 -2 6 -4 7h-1
c1 -2 0 -7 2 -8c-1 -1 -2 0 -2 -1c0 -2 0 -5 -1 -7c0 -1 1 -1 1 -2c-1 -2 0 -9 0 -13c0 -1 -2 -2 -1 -3c0 0 2 0 0 -1c-1 0 0 -1 -1 -1c0 -3 0 -4 -1 -6c2 -5 1 -11 1 -17c0 -1 1 -2 2 -1c-2 -3 -1 -6 -2 -9c0 -2 1 -5 1 -7c0 -5 -1 -10 0 -14c1 -9 0 -21 2 -31
c0 -1 -2 -1 -2 -2c0 -3 0 -7 3 -7c1 -3 1 -5 2 -8c-1 0 1 -3 -1 -3c1 0 1 0 1 -2c-3 0 -4 -2 -6 -3v-24v0v0v-1c-1 -8 1 -16 0 -25c0 -2 2 -1 2 -2h-1c-1 -2 -3 -3 -6 -3v-2c-3 -2 -4 -8 -6 -11c-1 1 -1 3 -1 5v6c0 1 1 2 1 3c0 2 -2 3 -1 5c-1 1 -2 2 -3 2c1 4 0 5 -1 7
c-2 1 -2 0 -5 0c1 4 1 11 0 14c-2 0 -2 -1 -4 -1c0 -6 -2 -18 -1 -24c-1 -5 -2 -9 -4 -14c0 -5 -1 -9 -3 -12c-5 -1 -7 1 -10 3c-1 7 0 16 0 24c0 4 -2 11 -1 16c0 2 -1 4 0 6c0 5 3 9 4 13c0 3 1 7 1 10c0 1 -1 3 -1 3c1 1 1 1 1 2s-1 3 -1 4c0 3 2 5 2 8v3v2
c0 5 0 10 -1 15c2 -1 0 2 1 2c1 2 -1 1 -1 2c2 6 -1 15 3 19v16c1 2 2 4 1 6v7c-1 1 -1 0 -1 1c4 4 0 10 1 17c0 1 1 1 1 2c0 7 -2 12 -3 18c-1 2 -2 4 -2 6v3c0 2 -2 4 -2 6c0 1 -1 0 -1 1c2 2 0 7 0 11c0 1 1 1 1 2c0 0 -1 2 -1 3c0 3 -1 7 -1 11c0 2 1 5 2 7
c0 1 -1 2 -1 4c0 0 1 0 1 1v6c0 3 1 6 0 9c2 5 -1 13 1 19c0 1 -1 1 -1 2c1 1 1 5 1 8c0 4 1 7 1 10v8c1 6 2 11 2 17c0 3 2 7 2 11c0 1 -1 4 -1 6c-1 1 0 3 -1 4c0 1 -1 0 0 2c-1 2 -3 4 -2 6c-1 2 -2 2 -2 4h-1c1 1 -1 1 -1 2c0 2 2 2 -1 2c3 1 1 1 0 4c-1 2 0 5 -3 5v3v0
zM269 573c0 -1 -1 0 -1 -1c2 -3 1 -8 3 -10c1 -5 3 -8 4 -12c1 -1 0 -1 0 -2c4 -3 4 -10 8 -12c0 -8 7 -12 9 -20l3 -3c-1 -3 4 -4 2 -5c4 -3 4 -10 8 -14c0 9 -6 15 -8 23c-1 2 -1 3 -2 4c0 4 -2 7 -4 10c0 2 -1 3 -2 4c-2 8 -5 14 -7 21c-3 2 -5 6 -7 9c-2 2 -3 4 -3 6
c-1 1 -1 2 -2 2c1 2 0 5 -2 5c-1 -2 1 -4 1 -5zM372 535v0c0 -4 0 -8 1 -11c0 -3 -1 -7 1 -8c2 2 0 6 0 8c0 1 1 2 2 3c-1 1 0 2 -1 3c3 10 1 26 1 38c0 2 1 5 0 6c0 1 -1 0 -1 1h1s-1 4 -2 4c-1 -4 -1 -9 -2 -13c0 -1 0 -2 -1 -3c0 0 1 0 1 -1c0 0 -1 -3 -1 -4
c0 -4 1 -9 0 -13c0 -3 0 -8 1 -9v-1zM399 440v3c-1 0 -2 -3 0 -3zM399 444v1h-1v-1h1z" />
    <glyph glyph-name="six" unicode="6" horiz-adv-x="385" 
d="M137 351c-1 -4 23 25 43 10c10 -8 33 7 46 -2c9 -6 19 9 28 1c15 -13 -2 -12 7 -18c6 -4 13 -9 19 -13c10 -7 20 -14 28 -20c25 -18 18 -114 17 -118c-3 -13 -2 -27 -13 -33c0 -1 2 -1 3 -2c-2 0 -3 -3 -5 -2c-4 -8 -6 -22 -6 -33c-4 -3 14 -11 10 -14
c-5 -20 -22 -21 -26 -37h-2c-1 1 0 -2 0 -2c-13 -9 -20 -21 -29 -36c-1 5 -7 0 -9 -2c-2 -1 1 -1 0 -3c-5 1 -2 -2 -2 -5c-3 1 -4 0 -4 -2c-2 1 -2 2 -1 4c-2 -3 -8 0 -8 -4c-2 -2 1 -2 3 -2c-7 -6 -16 -6 -26 -3c-3 -4 -13 -6 -16 -4c-2 -1 2 -1 1 -3c-3 1 -5 -2 -5 -3
c-6 3 -14 -2 -16 -2s-1 0 -1 1c-1 0 0 -1 -1 -2c-7 -2 -30 0 -42 3c-15 5 -43 23 -50 32c-3 0 -2 2 -5 1c-3 7 -5 12 -8 15c-2 1 -6 1 -8 3c-5 6 -11 16 -18 22c-6 8 -12 24 -14 32c0 4 -4 5 -5 8c-2 5 -2 12 -4 18c-5 13 -9 24 -9 39c-4 10 0 23 -4 33c0 2 2 2 2 4
c-3 -5 -2 11 -3 16c-2 16 -1 40 -4 55c2 15 3 34 7 52c0 2 0 4 -2 4c6 9 5 17 6 27c5 16 16 32 19 50c5 4 5 11 6 16c0 4 4 6 5 9c5 9 5 20 8 25c1 1 2 1 2 2c3 8 5 17 8 23c1 3 5 5 4 9c20 27 43 51 67 71c-1 3 0 5 0 6c1 0 5 -1 7 -1c3 0 4 2 4 6c9 -1 12 8 23 9
c6 0 10 -4 13 -1c-1 -4 6 -4 11 -7c-2 -3 -4 0 -6 -1c6 -3 13 -12 18 -4c-2 4 -5 8 -14 10c0 2 -1 4 0 6h-5c3 5 12 2 16 5c18 -5 56 -5 70 -21c10 -2 10 -11 20 -14c5 -14 13 -24 21 -35c-5 -1 0 -5 -1 -9c-6 -5 -13 -6 -21 -6c-3 10 -4 25 -18 26c-2 5 -12 7 -15 12
c-3 1 -5 1 -5 0c-34 8 -39 -18 -60 -21c-2 -2 0 -2 0 -3c-4 -3 -8 -4 -9 -11c-9 -6 -10 -19 -14 -30c-8 -22 -18 -45 -16 -64c-14 -13 -3 -40 -19 -51v-6c3 -5 5 -10 7 -15zM122 309c-1 0 -1 1 -2 1c-2 -4 -1 -9 2 -9c-1 -10 -5 -16 -10 -21c0 -5 3 -6 0 -10c0 -2 5 -3 3 -5
c-7 -19 11 -33 1 -50c-1 -2 3 -1 4 -2c3 -15 16 -25 16 -44c0 -1 2 1 4 -1c-2 -8 2 -13 4 -22c0 -2 -3 -1 -3 -2c-2 -3 1 -4 -1 -7c5 -6 10 -10 8 -20c2 -4 2 -7 4 -11c1 -3 1 -4 1 -9c2 -4 7 -8 10 -12c3 -7 6 -12 11 -19c3 -4 14 -13 16 -13c8 -3 25 0 32 5c2 2 4 5 7 9
c9 9 18 19 27 32c4 5 -8 12 -6 15c2 6 5 8 7 14c13 11 23 64 27 84c1 3 15 55 1 65c-12 9 -7 18 -24 30c-8 5 -16 11 -24 16c-18 12 -53 -15 -69 -3c-16 10 -30 12 -43 12c-1 -8 -2 -15 -3 -23zM60 135c2 -1 6 -2 8 -4c0 1 1 3 2 2c0 -5 6 -6 7 -11c3 -12 8 -19 16 -28
c2 -9 13 -19 20 -27c-2 0 -3 1 -3 1c-1 -3 0 -4 0 -6c1 0 2 0 3 -1c0 -1 0 -3 -1 -4c2 -2 9 -1 9 -2c-2 -2 -3 -2 -3 -3c7 -2 7 -9 18 -9c2 -6 1 -9 7 -11c3 -2 6 0 8 -1c0 -1 1 -2 2 -2c6 -3 19 -4 23 0c-6 2 -16 2 -21 3c1 0 2 0 2 2c-6 4 -10 8 -20 8c-1 8 -15 19 -23 24
c0 1 1 2 1 4c-4 0 -3 3 -4 6c-1 2 -4 3 -5 6c-3 4 -4 8 -5 10c-1 1 -3 1 -3 2c-10 19 -12 43 -28 61c-5 -2 -10 2 -14 2c-1 -9 5 -13 4 -22zM51 190c7 -7 -2 -20 4 -29c4 1 7 2 11 1c0 3 1 6 -2 7c4 4 -1 8 -2 15c-1 5 3 12 -4 13c-1 -5 -7 -3 -7 -7zM56 337c2 3 2 12 -1 12
c1 -2 -4 -10 1 -12zM47 230c2 2 3 5 3 8c-4 0 -7 -7 -3 -8zM51 311c2 2 1 8 3 9c-1 0 0 4 -2 4c0 -4 -3 -11 -1 -13zM63 386c0 -4 -1 -3 -1 -6c4 -2 3 5 1 6zM52 359c0 3 3 6 0 7c-2 -1 -1 -5 0 -7zM50 303c4 -1 1 4 0 5c-1 -1 0 -2 0 -5z" />
    <glyph glyph-name="nine" unicode="9" horiz-adv-x="385" 
d="M194 273c1 4 -23 -25 -43 -10c-10 8 -33 -7 -46 2c-9 6 -19 -9 -28 -1c-15 13 2 12 -7 18c-6 4 -13 9 -19 13c-10 7 -9 38 -17 44c-25 18 -16 89 -15 93c3 13 -9 3 2 9c0 1 -2 1 -3 2c2 0 3 3 5 2c4 8 6 22 6 33c4 3 -14 11 -10 14c5 20 22 21 26 37h2c1 -1 0 2 0 2
c13 9 20 21 29 36c1 -5 7 0 9 2c2 1 -1 1 0 3c5 -1 2 2 2 5c3 -1 4 0 4 2c2 -1 2 -2 1 -4c2 3 8 0 8 4c2 2 -1 2 -3 2c7 6 16 6 26 3c3 4 13 6 16 4c2 1 -2 1 -1 3c3 -1 5 2 5 3c6 -3 14 2 16 2s1 0 1 -1c1 0 0 1 1 2c7 2 30 0 42 -3c15 -5 43 -23 50 -32c3 0 2 -2 5 -1
c3 -7 5 -12 8 -15c2 -1 6 -1 8 -3c5 -6 11 -16 18 -22c6 -8 12 -24 14 -32c0 -4 4 -5 5 -8c2 -5 2 -12 4 -18c5 -13 9 -24 9 -39c4 -10 0 -23 4 -33c0 -2 -2 -2 -2 -4c3 5 2 -11 3 -16c2 -16 -1 -15 2 -30c-2 -15 -3 -34 -7 -52c0 -2 0 -4 2 -4c-6 -9 -5 -17 -6 -27
c-5 -16 -14 -57 -17 -75c-5 -4 -5 -11 -6 -16c0 -4 -4 -6 -5 -9c-5 -9 -5 -20 -8 -25c-1 -1 -2 -1 -2 -2c-3 -8 -5 -17 -8 -23c-1 -3 -5 -5 -4 -9c-20 -27 -43 -51 -67 -71c1 -3 0 -5 0 -6c-1 0 -5 1 -7 1c-3 0 -4 -2 -4 -6c-9 1 -12 -8 -23 -9c-6 0 -10 4 -13 1
c1 4 -6 4 -11 7c2 3 4 0 6 1c-6 3 -13 12 -18 4c2 -4 5 -8 14 -10c0 -2 1 -4 0 -6h5c-3 -5 -12 -2 -16 -5c-18 5 -56 5 -70 21c-10 2 -10 11 -20 14c-5 14 -13 24 -21 35c5 1 0 5 1 9c6 5 13 6 21 6c3 -10 4 -25 18 -26c2 -5 12 -7 15 -12c3 -1 5 -1 5 0c34 -8 39 18 60 21
c2 2 0 2 0 3c4 3 8 4 9 11c9 6 10 19 14 30c8 22 18 45 16 64c14 13 1 65 17 76v6c-3 5 -5 10 -7 15zM209 315c1 0 1 -1 2 -1c2 4 1 9 -2 9c1 10 5 16 10 21c0 5 -3 6 0 10c0 2 -5 3 -3 5c7 19 -9 8 1 25c1 2 -3 1 -4 2c-3 15 -16 25 -16 44c0 1 -2 -1 -4 1c2 8 -2 13 -4 22
c0 2 3 1 3 2c2 3 -1 4 1 7c-5 6 -10 10 -8 20c-2 4 -2 7 -4 11c-1 3 -1 4 -1 9c-2 4 -7 8 -10 12c-3 7 -6 12 -11 19c-3 4 -14 13 -16 13c-8 3 -25 0 -32 -5c-2 -2 -4 -5 -7 -9c-9 -9 -18 -19 -27 -32c-4 -5 8 -12 6 -15c-2 -6 -5 -8 -7 -14c-13 -11 -12 -40 -16 -60
c-1 -3 -17 -30 -3 -40c12 -9 7 -18 24 -30c8 -5 5 -35 13 -40c18 -12 53 15 69 3c16 -10 30 -12 43 -12c1 8 2 15 3 23zM273 464c-2 1 -6 2 -8 4c0 -1 -1 -3 -2 -2c0 5 -6 6 -7 11c-3 12 -8 19 -16 28c-2 9 -13 19 -20 27c2 0 3 -1 3 -1c1 3 0 4 0 6c-1 0 -2 0 -3 1
c0 1 0 3 1 4c-2 2 -9 1 -9 2c2 2 3 2 3 3c-7 2 -7 9 -18 9c-2 6 -1 9 -7 11c-3 2 -6 0 -8 1c0 1 -1 2 -2 2c-6 3 -19 4 -23 0c6 -2 16 -2 21 -3c-1 0 -2 0 -2 -2c6 -4 10 -8 20 -8c1 -8 15 -19 23 -24c0 -1 -1 -2 -1 -4c4 0 3 -3 4 -6c1 -2 4 -3 5 -6c3 -4 4 -8 5 -10
c1 -1 3 -1 3 -2c10 -19 12 -43 28 -61c5 2 10 -2 14 -2c1 9 -5 13 -4 22zM282 409c-7 7 2 20 -4 29c-4 -1 -7 -2 -11 -1c0 -3 -1 -6 2 -7c-4 -4 1 -8 2 -15c1 -5 -3 -12 4 -13c1 5 7 3 7 7zM275 287c-2 -3 -2 -12 1 -12c-1 2 4 10 -1 12zM286 369c-2 -2 -3 -5 -3 -8
c4 0 7 7 3 8zM280 313c-2 -2 -1 -8 -3 -9c1 0 0 -4 2 -4c0 4 3 11 1 13zM268 238c0 4 1 3 1 6c-4 2 -3 -5 -1 -6zM279 265c0 -3 -3 -6 0 -7c2 1 1 5 0 7zM281 321c-4 1 -1 -4 0 -5c1 1 0 2 0 5z" />
    <glyph glyph-name="five" unicode="5" horiz-adv-x="405" 
d="M334 597h-1c-2 0 -2 -2 -3 -1c1 1 0 1 1 2c-2 0 -3 2 -3 2s-1 -1 -2 -1s-4 1 -4 -1c2 -1 3 -2 6 -2c-1 -1 -2 -1 0 -1c-3 -3 -6 -5 -12 -7c-8 -8 -13 -4 -17 -7v1s-3 1 -5 0c-5 0 -9 -3 -12 -4c-1 -1 -2 -1 -2 -1c-1 0 -3 -3 -6 -3v0v-1c-1 0 0 -1 -1 -2
c-4 -1 -9 -1 -15 -2c0 -1 -1 0 -2 -1c0 1 -2 0 -2 1c-1 -1 -2 -1 -4 -1c0 0 -1 1 -1 0s2 0 1 -1c-1 -7 -15 -12 -12 -7c-2 0 -5 -1 -6 -1v1h-1c-1 0 -3 2 -4 0c-1 -1 -3 -1 -4 -1c0 -1 -5 0 -7 -1c-1 0 -2 0 -3 1c-4 -2 -7 0 -11 -1c-3 0 -5 0 -6 1h-2c-3 0 -3 1 -6 1
c-1 0 -2 -1 -4 0c-2 2 -6 0 -7 2c0 1 -3 1 -3 1c-1 0 -5 1 -7 2c-3 1 -7 0 -9 0c-1 1 -6 2 -7 0c0 1 -2 1 -2 3c-6 0 -14 -3 -21 0c0 -1 0 -1 -1 -3c-5 0 -12 0 -19 -1c1 -3 0 -5 1 -6h-1s-1 -4 -1 -6c0 -4 4 -8 6 -11v-2c1 -1 4 -4 5 -6h-1v-1h2c0 -1 1 0 3 -1v-15
c1 0 0 -1 1 -2c-1 0 0 -2 -1 -2c1 -1 1 -2 1 -3c1 0 -1 -2 0 -2s0 2 1 2c10 -2 16 -18 9 -14c0 -2 1 -5 -1 -6h-1v-1c0 -1 -2 -3 0 -4c2 0 3 -2 2 -4c2 0 0 -5 2 -7c-1 -1 -1 -2 -2 -3c2 -4 -2 -7 1 -11c-1 -2 -1 -5 -3 -6v-2c0 -3 -2 -3 -3 -6c0 -1 1 -2 0 -4
c-3 -2 -2 -6 -4 -6h1c-1 0 -1 -2 -2 -2c1 -2 -1 -5 -3 -7c-1 -3 -1 -7 -1 -9c-1 -1 -2 -6 0 -7c-2 0 -2 -1 -4 -2c-1 -5 1 -11 0 -17c3 2 7 3 11 4c10 45 84 46 136 37c2 -9 12 -7 13 -15c6 0 10 -4 19 -2c11 -11 19 -25 32 -34c7 -27 27 -43 32 -71c1 -4 9 -4 11 -8
c0 -20 7 -38 5 -57c0 -6 -3 -10 -5 -13l-6 -24c-5 -24 -6 -52 -14 -72c-5 4 -4 -2 -2 -6c-3 -1 -3 0 -3 2c-1 -3 -8 -6 -9 -11c-3 -8 -2 -17 -5 -25c-6 -12 -27 -28 -38 -37c-15 -12 -32 -21 -43 -32c-24 -11 -50 -17 -72 -26c-13 -4 -22 2 -31 4c-14 2 -27 -2 -39 0
c-12 0 -23 5 -34 11c-3 4 -3 12 -10 12c3 11 -9 19 -9 29c0 9 6 20 12 27c18 2 18 21 36 23c4 -5 9 -9 14 -12c-1 -18 2 -34 14 -38c21 13 39 27 54 47c7 -2 8 1 14 3c12 8 19 26 29 37c-2 11 6 15 3 23c11 9 20 36 24 59c1 19 1 46 -2 66c-2 5 -5 9 -7 16s-1 19 -4 27
c-8 19 -20 34 -32 44c-7 0 -13 0 -15 -6c-14 21 -46 10 -58 -4c-7 -11 -14 -22 -22 -33c0 -2 -1 -3 -3 -4c0 -3 -4 -5 -5 -7h-1l-14 -20v-1h-1l1 -1l-2 -1c1 -3 0 -4 -2 -7c-1 0 -1 1 -2 1c-1 -2 -2 -3 -3 -5c0 -1 3 1 2 -2h-2c-2 -2 0 -5 -1 -7c0 1 0 2 -1 2
c1 -2 -2 -3 0 -5c-4 0 -4 -3 -6 -4v1c-1 -4 -3 -7 -4 -10c-14 8 -4 26 -4 42h1c0 1 -1 1 0 2c-2 1 1 4 -2 6v1h-1c-2 6 -1 13 -4 18c0 1 -1 2 -1 3c0 4 0 9 -1 12c-1 7 0 13 1 19v4c0 3 1 4 3 8c0 2 0 4 1 7c2 15 -1 30 1 44c-2 4 1 14 -2 20h2c-4 2 -1 5 -1 7
c0 1 -1 5 -3 6l1 1s-1 0 -1 1c0 2 2 4 0 5c0 6 0 13 -1 21c-11 13 -7 7 0 8c3 10 0 22 1 34c2 0 0 2 3 1c-3 3 -1 6 0 8c0 2 -1 4 -1 5s2 3 2 3c0 4 1 6 0 8c0 7 -1 11 -1 17c-1 0 -1 2 -2 2l1 -2s-2 2 -3 2c0 -1 0 -2 -1 -2v1c-1 1 -3 1 -2 0l-2 1l1 -2c-2 0 -1 2 -2 2
c-1 -2 -3 0 -5 0c-2 1 -3 1 -6 0c2 2 0 0 -1 0l-1 2c-3 -1 -4 0 -7 1c1 1 2 1 2 2l-3 1s-1 -1 -3 -1h-2v0c-3 2 -5 0 -8 0c1 0 1 1 2 1c-2 -1 -3 1 -5 0c0 3 -3 3 -4 4c1 0 1 0 1 1h1l-1 1c3 -2 5 1 8 2h3c2 0 2 1 4 2c5 1 8 1 12 1c1 0 3 1 4 2c0 -2 3 1 3 -1c1 2 3 0 5 2
h1v1c6 2 13 1 20 4c0 2 -3 2 -2 3c2 1 3 0 4 0c0 0 3 -1 4 -1h7c7 2 13 1 19 1h4c3 0 4 -1 9 -1c2 0 5 0 7 -1c15 0 29 3 44 2c4 2 15 0 20 2v0c2 2 5 0 8 0c1 0 4 1 5 2l1 -1s0 1 1 1c2 0 4 -1 5 0c6 1 14 2 21 2c12 10 6 6 8 1c11 -1 22 2 35 2c0 -2 1 0 1 -3c2 3 5 1 7 1
s4 1 5 1s3 -2 3 -2c5 1 7 0 10 1c10 0 14 4 27 -1h1c1 0 3 -1 5 -1c4 -1 8 0 11 -1c2 0 1 2 2 1c2 -1 1 -3 1 -3s-1 -3 -2 -3h-3c0 -1 0 -1 -3 -3h-4c-1 1 -2 0 -3 1c1 -1 0 -1 0 -3c2 -1 0 -3 2 -3c0 -1 1 -1 1 0v-1zM244 386l1 2c0 -4 0 -7 5 -5c0 1 0 5 -3 5v2h-2v2
c-12 12 -28 30 -49 19c11 -11 29 -16 47 -23zM262 363v-2c-2 -7 4 -9 6 -14c4 -12 6 -27 13 -32c0 19 -7 29 -11 44v2h-2c0 8 0 12 -8 10c-2 -4 2 -4 4 -8h-2zM204 65c-6 -6 -17 -8 -20 -16c5 -4 14 0 16 3c-4 3 9 9 4 13zM245 107c-1 -3 -4 -5 0 -7c-1 4 5 5 0 7zM111 557
c-1 0 -2 1 -2 1c1 1 0 0 2 -1z" />
    <glyph glyph-name="two" unicode="2" horiz-adv-x="396" 
d="M32 53v2h2c3 6 8 11 15 14c1 3 0 3 0 4c3 3 7 4 8 11c9 5 50 25 54 37c7 22 62 93 60 112c60 35 46 66 67 101c8 19 -10 33 -1 50c1 2 -3 1 -4 2c-2 15 -16 25 -16 44c0 1 -2 -1 -4 1c2 8 -2 13 -3 22c0 2 2 1 2 2c2 3 -1 4 1 7c-4 6 -9 10 -7 20c-2 4 -3 7 -5 11
c-1 3 -1 4 -1 9c-2 4 -7 8 -9 12c-3 7 -6 12 -12 19c-3 4 -13 13 -16 13c-8 3 -25 0 -32 -5c-1 -2 -3 -5 -6 -9c-10 -9 -18 -19 -28 -32c-4 -5 -11 -11 -14 -14c-2 -6 -5 -8 -7 -14c-12 -11 -23 -26 -26 -46c-3 -14 -1 -28 -11 -37c1 -1 -1 -4 2 -4c-4 -2 -2 -5 -5 -8
c0 -1 1 -2 3 -3c-1 -1 -3 2 -5 2c4 -3 8 -9 3 -14c0 5 2 11 -4 11c-11 -4 -12 -24 -15 -31c-10 5 -14 14 -18 23c3 15 4 30 9 44c2 13 1 27 12 33c0 1 -2 1 -3 2c2 0 3 3 5 2c5 8 7 22 7 33c3 3 5 10 9 13c6 20 22 21 27 38c1 0 1 -1 2 -1c1 -1 0 2 0 2c12 9 20 21 28 36
c1 -5 7 0 10 2c2 1 -1 1 0 3c5 -1 2 2 2 5c3 -1 3 0 3 2c2 -1 2 -2 1 -4c2 3 8 0 8 4c2 2 -1 2 -3 2c8 6 16 6 26 3c4 4 13 6 16 4c2 1 -2 2 -1 3c3 -1 5 2 6 3c6 -3 13 2 15 2c1 0 1 -1 0 -1c1 0 1 1 2 2c8 2 30 0 43 -3c14 -4 43 -23 49 -32c3 0 2 -2 5 -1
c3 -7 5 -11 9 -15c2 -1 5 -1 7 -3c5 -6 12 -16 18 -22c6 -8 13 -24 15 -32c0 -4 4 -5 5 -8c1 -5 1 -12 3 -18c5 -13 10 -24 10 -39c4 -10 0 -23 4 -33c0 -2 -2 -2 -2 -4c3 5 2 -11 3 -16c7 -16 -8 -70 -48 -128c-5 -4 -35 -47 -36 -53c0 -3 -4 -5 -5 -8
c-5 -9 -31 -35 -34 -40c-1 -1 -3 -1 -3 -2c-3 -9 -5 -17 -8 -24c-1 -3 -5 -5 -4 -8c-11 -15 -34 -31 -56 -45c3 -1 5 -1 7 -4c5 4 8 0 13 3c1 -2 3 -1 5 -2c2 1 2 2 4 3c6 -5 15 1 22 -2c1 0 1 0 2 1c7 -3 15 1 22 -1c1 1 2 2 3 2c3 -2 9 -2 13 -1c4 -5 7 -1 11 -3
c3 2 4 2 6 4c1 -2 2 -1 3 -4c1 0 2 -2 4 1c2 -3 6 0 10 -3c4 3 4 -3 8 1c2 -4 3 -1 7 -1c2 -2 5 -1 8 0c0 -2 2 -1 1 -3c10 3 19 0 27 -3v-6c-3 -3 -5 -2 -7 -5c-1 -1 0 -4 -1 -6c-4 -2 -6 -4 -11 -7c0 1 -1 0 -1 3c-2 0 -5 -1 -8 -2c-1 0 -1 -1 -1 -1c0 -2 -2 -5 0 -8
c-2 -3 -5 -6 -9 -9c-5 6 -14 -2 -22 3c-5 -6 -10 -6 -14 -5c-2 0 -2 -1 -3 -3c-4 2 -6 4 -10 2v3c-9 -1 -15 3 -24 0v3c-7 -3 -10 3 -17 -3c-1 2 1 2 0 3c-4 1 -8 -1 -11 3c-4 -2 -8 0 -13 1c-9 -9 -11 0 -20 -6c0 5 -2 1 -3 4c-2 -1 -5 -1 -7 -1s-5 0 -7 2
c-5 -4 -10 2 -15 -2c0 0 -1 0 -2 2c-5 -4 -10 -6 -14 -3c-1 -2 -1 0 -2 -2c-3 3 -7 -1 -11 -1h-2c-2 0 -5 -3 -7 -3c-5 0 -11 2 -16 2h-2h-1c-1 0 -1 -1 -1 -1c-1 0 -2 0 -3 2h-1c-3 -1 -6 -2 -8 1c-3 -2 -5 -2 -8 -1v-3h5c-3 -5 -12 -2 -16 -5c-4 -5 -10 11 -10 29h-3
c-4 4 -1 11 -2 13c2 2 3 -1 6 1c0 2 1 4 2 8zM293 464c-2 1 -5 2 -7 4c0 -1 -1 -3 -2 -2c0 5 -7 6 -8 11c-3 12 -7 19 -16 28c-2 9 -12 19 -20 27c2 0 3 -1 4 -1c1 3 -1 4 0 6c-2 0 -3 0 -5 1c1 0 1 2 2 4c-2 2 -9 1 -9 2c2 2 3 2 3 3c-6 3 -6 9 -18 9c-2 6 -1 9 -6 11
c-3 2 -6 0 -9 1c0 1 -1 2 -2 2c-6 3 -19 4 -23 0c7 -2 17 -2 22 -4c-2 1 -3 1 -3 -1c6 -4 11 -8 20 -8c1 -8 15 -19 23 -24c0 -1 -1 -2 -1 -3c4 -1 3 -4 4 -7c1 -2 5 -3 6 -6c3 -4 3 -8 4 -10c1 -1 3 -1 3 -2c11 -19 13 -43 28 -61c6 2 10 -2 14 -2c1 9 -5 13 -4 22z
M302 409c-7 7 3 20 -4 29c-4 -1 -7 -2 -10 -1c0 -3 -1 -6 2 -7c-4 -4 1 -8 1 -15c1 -5 -2 -12 4 -13c1 5 7 3 7 7zM269 267c-2 -3 -2 -12 1 -12c-1 2 3 10 -1 12zM273 292c-2 -2 -2 -7 -3 -8c1 -1 0 -4 2 -4c0 4 4 10 1 12zM307 369c-2 -2 -3 -5 -3 -8c4 0 7 7 3 8zM262 218
c0 4 1 3 1 6c-4 2 -3 -5 -1 -6zM272 245c0 -3 -2 -6 0 -7c2 1 1 5 0 7zM44 15c-1 1 -3 2 -3 3c-1 0 -1 1 -3 0c2 -1 3 -2 6 -3z" />
    <glyph glyph-name="dotlessi" unicode="&#x131;" horiz-adv-x="147" 
d="M105 -15v-12c1 -12 8 -24 -4 -31c-15 4 -17 20 -29 26c0 5 -1 9 -3 13c-6 7 -10 17 -20 19c-7 13 -8 30 -15 41c-2 11 -3 28 -10 37c-2 11 -3 21 -6 31c-2 7 -5 16 -6 31c-2 23 -6 58 -4 88c0 13 3 26 -3 37c5 4 6 9 5 19c-1 3 -4 6 -4 9c0 6 3 13 3 18c1 14 4 62 4 77
c-24 -6 -29 18 -49 -15c1 3 2 9 3 11c3 8 3 15 5 24c4 13 17 31 8 51c5 7 12 11 18 18c3 0 40 3 42 4c8 4 16 14 28 16c14 2 33 -6 45 -2c4 -22 -2 -40 -7 -60c-2 -25 -3 -51 -8 -77c-7 -62 -18 -130 -10 -184c7 0 5 6 10 6c-5 -28 5 -44 3 -76h-2v-1c-1 3 -6 3 -9 1
c-4 -21 7 -43 15 -61c-1 -2 -6 -3 -7 -8c-2 -11 6 -31 7 -50z" />
    <glyph glyph-name="bracketleft" unicode="[" horiz-adv-x="319" 
d="M87 625v2h8c1 2 2 4 3 7c2 -1 3 -1 7 -3c0 0 0 1 1 1c5 0 13 -2 18 1c1 0 2 -2 3 0c2 -2 2 -1 2 -3h5c1 0 2 0 1 1c3 -2 6 -1 9 0c1 -4 4 0 7 -1c1 0 1 1 1 2c5 1 10 -1 15 2c4 -3 10 1 13 -4c4 3 6 0 10 2c0 -2 2 -1 3 -2c1 1 1 2 3 3c4 -4 11 0 15 -2c1 0 1 0 2 1
c5 -2 11 1 16 -1c1 1 1 2 2 2c2 -2 6 -2 9 -1c2 -4 5 -1 8 -2c2 1 3 1 4 3c1 -2 1 -1 2 -3c1 0 1 -2 3 0c2 -2 4 0 7 -2c3 2 3 -2 6 1c1 -3 2 -1 5 -1c1 -1 3 -1 5 0c0 -1 2 -1 1 -2c7 2 14 0 19 -3c0 -2 1 -3 0 -5c-2 -2 -3 -1 -5 -4v-4c-3 -2 -4 -3 -8 -6c0 1 -1 0 -1 3
c-2 0 -4 -1 -6 -2c0 -2 -2 -5 0 -8c-2 -2 -4 -4 -6 -7c-4 5 -11 -1 -16 3c-4 -6 -7 -6 -10 -4c-1 0 -1 -2 -2 -3c-3 1 -5 4 -8 2v2c-6 0 -10 3 -17 0v3c-4 -3 -7 2 -12 -3c0 2 1 2 0 3c-2 0 -5 -1 -7 2c-4 -2 -6 0 -10 1c-6 -7 -8 0 -14 -5c0 4 -1 1 -2 3c-1 -1 -3 -1 -5 -1
s-4 0 -5 2c-3 -3 -7 2 -11 -2c0 0 -1 0 -1 2c-4 -3 -7 -5 -10 -2c0 -2 0 0 -2 -2c-2 2 -4 -1 -7 -1h-2c-1 0 -1 0 -2 -1c2 -5 5 -11 8 -18c-2 0 -1 -3 -5 -1c0 -7 1 -17 3 -24c0 -1 3 -2 0 -2c6 -5 10 -9 17 -6c4 -6 9 -19 13 -27c-8 -14 3 -42 -4 -56c10 -21 10 -32 8 -41
c0 -4 3 -8 6 -10c-4 -8 -9 -13 -4 -26h-6c1 -20 -4 -35 -1 -59h-4c4 -19 -5 -24 4 -46c-2 0 -3 4 -5 1c-2 -7 2 -19 -5 -23c4 -16 1 -26 -1 -35c13 -27 -1 -32 9 -55c-7 1 -2 -6 -6 -6c2 -6 1 -14 1 -19c1 -7 0 -13 -3 -17c7 -18 -6 -21 4 -40c-1 -2 -2 -4 -4 -4
c5 -16 10 -31 4 -38c4 -4 1 -2 4 -8c-5 -6 1 -18 2 -28c0 -3 -2 -4 -1 -5c-1 -5 5 -14 3 -20c4 -20 -6 -33 0 -55c-1 -3 -2 -3 -5 -3c2 -9 3 -20 0 -23c1 -5 1 -9 1 -12c2 0 5 0 7 1c4 -3 10 1 13 -4c4 3 6 0 10 2c0 -2 2 -1 3 -2c1 1 1 2 3 3c4 -4 11 0 15 -2c1 0 1 0 2 1
c5 -2 11 1 16 -1c1 1 1 2 2 2c2 -2 6 -2 9 -1c2 -4 5 -1 8 -2c2 1 3 1 4 3c1 -2 1 -1 2 -3c1 0 1 -2 3 0c2 -2 4 0 7 -2c3 2 3 -2 6 1c1 -3 2 -1 5 -1c1 -1 3 -1 5 0c0 -1 2 -1 1 -2c7 2 14 0 19 -3c0 -2 1 -3 0 -5c-2 -2 -3 -1 -5 -4v-4c-3 -2 -4 -3 -8 -6c0 1 -1 0 -1 3
c-2 0 -4 -1 -6 -2c0 -2 -2 -5 0 -8c-2 -2 -4 -4 -6 -7c-4 5 -11 -1 -16 3c-4 -6 -7 -6 -10 -4c-1 0 -1 -2 -2 -3c-3 1 -5 4 -8 2v2c-6 0 -10 3 -17 0v3c-4 -3 -7 2 -12 -3c0 2 1 2 0 3c-2 0 -5 -1 -7 2c-4 -2 -6 0 -10 1c-6 -7 -8 0 -14 -5c0 4 -1 1 -2 3c-1 -1 -3 -1 -5 -1
s-4 0 -5 2c-3 -3 -7 2 -11 -2c0 0 -1 0 -1 2c-4 -3 -7 -5 -10 -2c0 -2 0 0 -2 -2c-2 2 -4 -1 -7 -1h-2c-1 0 -3 -2 -4 -2c-3 0 -5 1 -8 2c1 -6 1 -11 2 -16c-5 -7 -19 5 -21 3c-4 7 -2 9 -2 13c-1 0 -3 1 -4 0c1 3 -2 5 -2 7c-1 0 -1 1 -2 0c-1 3 -3 3 -3 4c0 0 1 1 2 1
c-2 2 -4 3 -6 3l-3 3v1c0 1 -1 1 -1 2c-1 13 0 23 1 34c9 -7 5 2 14 2c-4 4 -1 4 -2 7c-5 4 -8 5 -14 7c-6 7 -9 13 -10 21c0 17 3 42 -3 65c1 5 5 5 1 14c4 2 2 7 8 5v17c-2 3 -2 4 -4 4c6 7 2 21 1 31c8 3 -1 18 3 24c0 5 -4 7 -5 10c-2 18 1 32 -4 53c6 13 -2 40 9 44
c-6 17 2 22 -5 39c5 1 2 8 5 10c-3 7 -4 7 -5 12c7 13 -2 40 3 56c0 1 -1 3 -2 6c5 18 0 38 2 59c-1 3 -3 5 -4 8c4 8 4 21 3 33c7 5 1 19 5 26c-4 7 -2 11 -6 18c4 0 1 4 5 3c2 5 4 7 -1 14c6 4 1 18 6 23c-6 12 4 10 -2 22c6 1 3 10 1 17c4 4 3 13 1 22c3 0 2 3 5 1
c-2 12 -3 22 -2 32v1c1 2 1 4 1 7h-1c-2 0 -4 -1 -6 -1c-3 3 -1 9 -2 10c2 2 2 0 4 1c1 2 2 4 2 7zM99 -3l-1 4c1 1 -4 6 -6 6c1 -3 0 -3 1 -5v-1l2 -3h-1c2 -4 4 -7 2 -10h-2c-2 9 -4 0 1 -1l1 -4v4c2 0 3 -2 4 -2c0 3 -5 8 1 8c-1 3 -3 3 -5 5zM127 622l-1 1
c0 -1 -1 -2 -2 -1v1c2 0 -1 2 -1 -1v-2c2 0 2 2 3 0c0 0 0 2 1 2zM127 623v-1c1 -2 2 1 2 1h-2z" />
    <glyph glyph-name="bracketright" unicode="]" horiz-adv-x="236" 
d="M187 627v-2c0 -3 1 -5 2 -7c2 -1 2 1 4 -1c-1 -1 1 -7 -2 -10c-2 0 -4 1 -6 1h-1c0 -3 0 -5 1 -7v-1c1 -10 0 -20 -2 -32c3 2 2 -1 5 -1c-2 -9 -3 -18 1 -22c-2 -7 -5 -16 1 -17c-6 -12 4 -10 -2 -22c5 -5 0 -19 6 -23c-5 -7 -3 -9 -1 -14c4 1 1 -3 5 -3
c-4 -7 -2 -11 -6 -18c4 -7 -2 -21 5 -26c-1 -12 -1 -25 3 -33c-1 -3 -3 -5 -4 -8c2 -21 -3 -41 2 -59c-1 -3 -2 -5 -2 -6c5 -16 -4 -43 3 -56c-1 -5 -2 -5 -5 -12c3 -2 0 -9 5 -10c-7 -17 1 -22 -5 -39c11 -4 3 -31 9 -44c-5 -21 -2 -35 -4 -53c-1 -3 -5 -5 -5 -10
c4 -6 -5 -21 3 -24c-1 -10 -5 -24 1 -31c-2 0 -2 -1 -4 -4v-17c6 2 4 -3 8 -5c-4 -9 0 -9 1 -14c-6 -23 -3 -48 -3 -65c-1 -8 -4 -14 -10 -21c-6 -2 -9 -3 -14 -7c-1 -3 2 -3 -2 -7c9 0 5 -9 14 -2c1 -11 2 -21 1 -34c0 -1 -1 -1 -1 -2v-1l-3 -3c-2 0 -4 -1 -6 -3
c1 0 2 -1 2 -1c0 -1 -2 -1 -3 -4c-1 1 -1 0 -2 0c0 -2 -3 -4 -2 -7c-1 1 -3 0 -4 0c0 -4 2 -6 -2 -13c-2 2 -16 -10 -21 -3c1 5 1 10 2 16c-3 -1 -5 -2 -8 -2c-1 0 -3 2 -4 2h-2c-3 0 -5 3 -7 1c-2 2 -2 0 -2 2c-3 -3 -6 -1 -10 2c0 -2 -1 -2 -1 -2c-4 4 -8 -1 -11 2
c-1 -2 -3 -2 -5 -2s-4 0 -5 1c-1 -2 -2 1 -2 -3c-6 5 -8 -2 -14 5c-4 -1 -6 -3 -10 -1c-2 -3 -5 -2 -7 -2c-1 -1 0 -1 0 -3c-5 5 -8 0 -12 3v-3c-7 3 -11 0 -17 0v-2c-3 2 -5 -1 -8 -2c-1 1 -1 3 -2 3c-3 -2 -6 -2 -10 4c-5 -4 -12 2 -16 -3c-2 3 -4 5 -6 7c2 3 0 6 0 8
c-2 1 -4 2 -6 2c0 -3 -1 -2 -1 -3c-4 3 -5 4 -8 6v4c-2 3 -3 2 -5 4c-1 2 0 3 0 5c5 3 12 5 19 3c-1 1 1 1 1 2c2 -1 4 -1 5 0c3 0 4 -2 5 1c3 -3 3 1 6 -1c3 2 5 0 7 2c2 -2 2 0 3 0c1 2 1 1 2 3c1 -2 2 -2 4 -3c3 1 6 -2 8 2c3 -1 7 -1 9 1c1 0 1 -1 2 -2c5 2 11 -1 16 1
c1 -1 1 -1 2 -1c4 2 11 -2 15 2c2 -1 2 -2 3 -3c1 1 3 0 3 2c4 -2 6 1 10 -2c3 5 9 1 13 4c2 -1 5 -1 7 -1c0 3 0 7 1 12c-3 3 -2 14 0 23c-3 0 -4 0 -5 3c6 22 -4 35 0 55c-2 6 4 15 3 20c1 1 -1 2 -1 5c1 10 7 22 2 28c3 6 0 4 4 8c-6 7 -1 22 4 38c-2 0 -3 2 -4 4
c10 19 -3 22 4 40c-3 4 -4 10 -3 17c0 5 -1 13 1 19c-4 0 1 7 -6 6c10 23 -4 28 9 55c-2 9 -5 19 -1 35c-7 4 -3 16 -5 23c-2 3 -3 -1 -5 -1c9 22 0 27 4 46h-4c3 24 -2 39 -1 59h-6c5 13 0 18 -4 26c3 2 6 6 6 10c-2 9 -2 20 8 41c-7 14 4 42 -4 56c4 8 9 21 13 27
c7 -3 11 1 17 6c-3 0 0 1 0 2c2 7 3 17 3 24c-4 -2 -3 1 -5 1c3 7 6 13 8 18c-1 1 -1 1 -2 1h-2c-3 0 -5 3 -7 1c-2 2 -2 0 -2 2c-3 -3 -6 -1 -10 2c0 -2 -1 -2 -1 -2c-4 4 -8 -1 -11 2c-1 -2 -3 -2 -5 -2s-4 0 -5 1c-1 -2 -2 1 -2 -3c-6 5 -8 -2 -14 5c-4 -1 -6 -3 -10 -1
c-2 -3 -5 -2 -7 -2c-1 -1 0 -1 0 -3c-5 5 -8 0 -12 3v-3c-7 3 -11 0 -17 0v-2c-3 2 -5 -1 -8 -2c-1 1 -1 3 -2 3c-3 -2 -6 -2 -10 4c-5 -4 -12 2 -16 -3c-2 3 -4 5 -6 7c2 3 0 6 0 8c-2 1 -4 2 -6 2c0 -3 -1 -2 -1 -3c-4 3 -5 4 -8 6v4c-2 3 -3 2 -5 4c-1 2 0 3 0 5
c5 3 12 5 19 3c-1 1 1 1 1 2c2 -1 4 -1 5 0c3 0 4 -2 5 1c3 -3 3 1 6 -1c3 2 5 0 7 2c2 -2 2 0 3 0c1 2 1 1 2 3c1 -2 2 -2 4 -3c3 1 6 -2 8 2c3 -1 7 -1 9 1c1 0 1 -1 2 -2c5 2 11 -1 16 1c1 -1 1 -1 2 -1c4 2 11 -2 15 2c2 -1 2 -2 3 -3c1 1 3 0 3 2c4 -2 6 1 10 -2
c3 5 9 1 13 4c5 -3 10 -1 15 -2c0 -1 0 -2 1 -2c3 1 6 -3 7 1c3 -1 6 -2 9 0c-1 -1 0 -1 1 -1h5c0 2 0 1 2 3c1 -2 2 0 3 0c5 -3 13 -1 18 -1c1 0 1 -1 1 -1c4 2 5 2 7 3c1 -3 2 -5 3 -7h8zM176 1l-1 -4l3 1c-2 -2 -4 -2 -5 -5c6 0 1 -5 1 -8c1 0 2 2 4 2v-4l1 4
c5 1 3 10 1 1h-2c-2 3 0 6 2 10h-1l2 3v1c1 2 0 2 1 5c-2 0 -7 -5 -6 -6zM148 623l-1 -1c1 0 1 -2 1 -2c1 2 1 0 3 0v2c0 3 -3 1 -1 1v-1c-1 -1 -2 0 -2 1zM147 622v1h-2s1 -3 2 -1z" />
    <glyph glyph-name="zero" unicode="0" horiz-adv-x="374" 
d="M1 297v2c1 5 0 11 1 16c0 2 -2 5 -2 7c0 4 2 10 2 15c-1 6 -1 10 1 15c2 10 2 20 3 32c0 3 1 5 2 7c1 5 0 11 1 16c0 -1 4 3 2 6c2 0 1 2 2 1c0 7 2 11 5 16c2 3 1 4 4 5v2c1 1 6 4 3 8c0 1 2 1 3 1c-3 3 2 7 -2 8c0 3 3 1 3 4c9 -4 8 11 14 14c0 9 6 15 6 22
c5 4 5 15 10 20c1 2 0 1 1 3c1 0 0 -2 2 -2c0 2 3 2 3 6c7 3 10 12 14 19c1 3 3 0 3 5c4 0 4 5 5 8c5 2 10 5 16 8c5 6 18 8 23 14c3 4 8 6 11 7v-3c1 0 2 2 3 3c0 2 -1 2 -3 2c-7 -1 -11 -6 -21 -4c-3 5 5 8 6 14c4 -3 2 2 5 2h1v0c0 -1 4 -3 4 0h-1h1h-1h4v0v0
c4 -1 4 0 0 0v0v0c-1 1 -1 1 -3 1c3 2 9 3 12 1c2 3 7 2 9 2v-2l1 -1c5 -1 8 1 10 -1h1s2 2 4 0c6 -1 11 1 16 0v1c11 0 18 2 27 2c2 0 7 2 10 1c1 -1 1 -3 1 -3c3 -1 8 1 10 -1h15c0 0 0 -1 -1 0c1 -2 3 0 5 -1c3 -2 4 -4 8 -2c0 -4 6 -2 6 -5c9 2 13 -8 20 -10v-2l1 1
c6 -9 14 -15 20 -22c-1 -1 -1 -2 0 -2c1 -3 2 -3 4 -4c-2 -5 3 -9 1 -12c1 -4 4 -5 6 -7c0 -3 2 -4 1 -8c3 -3 3 -9 6 -12c-1 -1 -2 -2 -3 -4c4 -12 -3 -25 3 -36c-1 -3 -2 -7 -3 -11c3 27 8 -72 0 -92c0 -1 -1 -1 -2 -4c0 -3 2 -4 4 -4c0 -2 -1 -1 -1 -2c2 -4 1 -11 4 -12
c0 -2 -3 0 -2 -3c5 -2 3 -15 3 -25c0 -4 -4 -5 -3 -9c0 -1 1 -2 2 -3c-1 -3 -3 -4 -3 -6c-1 -19 -2 -34 -4 -51c1 -2 1 1 2 -1c-1 -1 -3 -2 -4 -4v-7s-1 -2 -1 -4c-2 -34 4 -65 -7 -91c0 -3 0 -5 1 -7c-3 0 -5 -3 -9 -4c-1 -17 -7 -30 -20 -36v16c0 8 3 18 0 22
c-4 -3 -1 -14 -3 -19h-3c-1 -7 -4 -14 -4 -23c0 -3 -3 -3 -3 -5c1 -3 -2 -5 3 -6c-4 -1 -6 -3 -5 -7c-3 -4 -5 -8 -9 -11v-6c-4 -4 -6 -9 -10 -11c-1 -1 -2 -2 -1 -4c-8 -2 -8 -10 -15 -13c1 -2 -1 -2 -1 -4c-2 0 -5 -2 -6 -3c-5 -1 -11 -8 -17 -10h-5c-9 -1 -16 -5 -23 -4
c-2 -2 -9 -1 -11 -5c-6 1 -15 -2 -19 -1c-2 0 -1 1 -1 2c-12 1 -23 -3 -31 0c0 2 -4 1 -4 3c-8 1 -14 8 -21 11c0 1 1 1 1 1c-3 0 -5 4 -9 6c1 2 1 4 -1 2c-1 0 0 3 -1 3c0 3 -1 0 -2 1c-1 2 0 3 1 3c-7 0 -8 11 -16 14c-1 4 -2 7 -5 10c-1 3 0 6 -2 6s0 0 1 0
c-7 0 -8 12 -11 16c0 2 0 2 1 3c-1 2 -4 4 -1 6c-2 1 -1 3 -4 4c0 1 2 1 1 2c-2 0 -3 6 -4 3c-2 3 1 11 -4 11c2 3 -2 6 -3 10c-1 1 -2 0 -2 -1c-3 0 -3 2 0 2c-3 3 -5 6 -4 12c-2 0 -2 -1 -2 -1c-2 2 -2 6 -2 10c-2 4 -3 9 -4 13c0 1 1 1 1 2c-1 5 -6 10 -4 13
c-2 1 -2 8 -2 12c-7 18 -5 45 -12 61c1 3 -1 3 1 5c-2 3 0 8 0 12c0 3 -2 6 -2 8c0 3 1 8 0 13c0 1 -3 1 -3 2c2 6 1 12 0 17h1zM13 379c0 -8 -3 -23 -1 -27c1 -7 0 -13 1 -18c0 -2 0 -9 3 -10c6 3 2 15 3 23c3 15 3 31 2 43c1 1 2 7 -1 6c-1 -5 -6 -11 -7 -17zM72 335
c0 -1 -1 -3 -1 -5c-1 -8 1 -20 2 -28c1 14 2 23 2 37c2 3 2 7 -1 8c-5 -2 -1 -8 -2 -12zM74 351c1 1 2 8 0 11c-2 -2 -2 -10 0 -11zM75 365c0 1 1 1 2 1c-2 11 2 21 1 33c0 -9 -7 -26 -3 -34zM81 418c-3 -2 -2 -11 -2 -14c2 3 1 10 2 14zM82 430c-1 -1 -1 -3 -1 -5
c2 0 2 5 1 5zM87 458c-5 0 -4 -7 -4 -12c5 2 4 9 4 12zM87 466c-2 -1 -2 -4 -2 -7c3 0 5 7 2 7zM179 63v1c2 -1 1 2 2 1c0 -1 0 -3 2 -3c2 2 4 -5 7 -6c-2 0 -3 0 -3 -2c1 0 1 2 4 1c5 -4 10 -6 18 -7c0 4 0 10 4 13c1 20 13 36 10 57v0c0 4 2 9 0 14c6 4 6 18 6 23
c2 -1 1 1 2 1c0 13 3 25 4 37c1 5 -1 14 1 17c0 0 1 0 1 2v10c0 2 1 4 1 7s-1 6 -1 8c-1 20 1 39 -2 58c3 -1 0 1 -1 3s-1 10 -1 14c0 1 2 2 2 4c1 4 -1 11 -1 18v2c-2 5 2 17 -3 19c4 1 0 6 1 10c0 1 3 1 2 3c-5 17 -2 46 -3 69c-1 6 0 21 -4 28c4 13 -4 32 -4 50
c0 0 -2 0 -3 2c2 3 0 5 1 6c-3 0 -2 -3 -4 0c2 0 2 1 2 1c-3 7 -8 12 -13 15c-1 0 -1 4 -4 5c-5 4 -13 8 -17 11c-1 1 -1 4 -5 5c-5 1 -9 -3 -15 -2c0 -1 -1 -3 -3 -3c0 1 -1 2 -3 1c-5 -1 -7 -4 -11 -6h-3c-2 -2 -5 -7 -8 -9c-1 -1 -2 -1 -2 -2c-4 -3 -3 -12 -5 -18
c-4 -2 -4 -6 -4 -11h-1c-1 -10 -7 -17 -4 -28c-3 -1 -3 -1 -5 -2c2 -8 -4 -18 2 -21c-10 -2 -5 -20 -6 -30c-2 0 -2 1 -4 1c0 -9 -1 -16 -1 -26c1 -1 1 2 1 0s-1 1 -1 -2c0 -5 -5 -7 -2 -17c0 -1 2 -3 2 -4c0 1 -2 -1 -2 -1v-16c0 -2 2 -2 2 -5c-2 -22 -6 -37 -2 -62
c3 -2 3 1 3 -2c0 -1 0 0 -3 -1c-1 -6 2 -15 1 -24c0 -2 2 1 2 -2v-1v-1c-1 0 -1 -1 0 -1v0v0h1c3 0 2 -4 4 -6l1 -2l1 1c1 -6 -1 -15 5 -15c-2 0 -5 -4 -2 -7v2c0 -2 0 -6 1 -2c-1 -1 2 -10 -1 -5c1 -6 8 -9 5 -14c2 -1 1 2 3 2c3 -10 -2 -25 4 -31c2 -3 -2 -2 -2 -5
c0 -4 4 -4 3 -7c-3 -1 3 -6 -1 -8c5 0 5 -4 5 -7v2c6 -8 2 -13 8 -18c-3 -2 0 -4 1 -6c-2 0 -4 -1 -4 -3c0 -1 3 1 4 1c0 -3 2 -3 2 -6c1 -2 -1 -1 -1 -3c3 0 1 -3 1 -6c1 -1 1 1 2 1c4 -9 4 -18 9 -24c0 -1 -1 -5 0 -7c4 1 1 0 5 0v0v1c1 -5 3 -10 8 -12c0 -3 3 -8 6 -10
l-1 -1l-1 -1v-5h2v-1l1 1c0 -2 -1 -2 -1 -3c2 0 3 1 3 2v0zM121 189c0 1 1 1 1 1c0 2 0 3 1 3c-2 0 -5 -3 -2 -4zM166 35l-1 1c0 3 -6 1 -6 6c-7 -1 -10 8 -17 8c-3 0 -4 -2 -7 0c0 -2 2 -3 3 -5c0 -3 3 -3 3 -6c3 -1 9 -5 14 -7s11 -4 14 0c-1 2 -2 -1 -3 2c2 0 1 1 0 1v0z
M249 527c3 1 3 -2 5 0c-2 4 -1 11 -5 12c-2 -4 2 -6 0 -12zM282 136c0 2 5 12 0 11c1 -6 -1 -8 0 -11z" />
    <glyph glyph-name="one" unicode="1" horiz-adv-x="194" 
d="M60 0h-1c-2 10 -1 17 0 26c9 -5 5 0 14 0c-4 3 -1 3 -2 5c-5 3 -8 4 -14 5c-7 4 -10 8 -11 14c0 11 3 28 -3 44c1 3 5 3 1 9c4 1 2 5 9 3c-1 5 -1 8 0 11c-3 2 -3 3 -5 3c7 5 2 14 1 21c2 0 3 1 4 2c-2 5 -3 11 -5 18c0 1 -1 2 -1 3c-1 6 -1 13 -1 20c-1 3 -1 6 -1 10
c-1 2 -2 4 -2 6c0 0 0 1 1 2c-2 24 -4 52 -2 77c0 16 3 31 -3 44c5 5 6 11 5 22c-1 4 -4 8 -4 12c0 6 3 14 3 21c1 16 1 35 1 53c-13 -9 -13 -32 -35 -32c0 12 1 23 8 27c1 4 0 9 1 11c3 7 8 12 11 17c1 4 2 11 3 13c4 9 4 18 7 29c4 15 19 36 9 59c6 9 14 13 21 22
c4 0 9 0 11 2c9 4 19 15 33 18c17 2 39 -7 53 -3c5 -26 -3 -46 -8 -70c-3 -30 -4 -61 -10 -91l-3 -41c5 -9 4 -15 3 -19c0 -3 3 -6 6 -8c-4 -4 -9 -8 -4 -16h-6c1 -14 -5 -24 -2 -40h-4v-1c4 -12 -5 -17 4 -30c-2 0 -3 3 -5 1c-2 -3 0 -10 -2 -14l-1 -15l-1 -13
c10 -16 -3 -20 7 -34c-7 1 -2 -3 -6 -3c2 -5 1 -10 1 -13c1 -5 0 -9 -3 -12c7 -12 -6 -14 4 -27c-1 -1 -2 -3 -4 -3c5 -10 10 -20 4 -25c4 -3 1 -1 4 -6c-5 -3 1 -11 2 -18c0 -2 -2 -2 -1 -3c-1 -4 6 -9 4 -13c4 -14 -7 -23 0 -38c-1 -2 -3 -2 -6 -2c2 -5 4 -13 0 -14
c4 -11 0 -16 1 -24c-7 3 -9 -2 -14 -4c-1 -1 -3 -2 -1 -5c-7 1 -6 -3 -9 -2c-1 1 -1 2 -2 3v-6c-5 5 -8 12 -13 17c-1 -3 -1 -6 -1 -9c0 -6 1 -13 2 -18c-6 -5 -20 3 -22 2c-6 6 0 6 -3 11c-4 3 -10 6 -15 7zM68 86v1h-1c-2 7 -4 0 1 -1z" />
    <glyph glyph-name="seven" unicode="7" horiz-adv-x="262" 
d="M19 585l1 1c5 2 10 0 15 0c-1 -7 2 -5 4 -12c1 4 3 1 3 2c1 4 0 6 0 12c2 6 2 8 6 8c8 0 19 -2 27 3c2 -1 3 -5 7 -1c1 -4 3 -2 4 -9c3 1 5 0 7 0c1 4 1 2 1 4c4 -5 9 -2 13 0c3 -8 8 1 11 -4c2 1 2 5 3 6c7 1 14 -1 23 1c6 -3 16 4 20 -8c5 7 10 0 15 6c2 -5 5 -3 5 -6
c4 3 3 5 5 6c7 -8 16 1 23 -4c2 0 2 1 3 3c9 -7 17 -2 26 -4c1 1 2 2 2 4c5 -4 11 -5 15 -3c4 -6 8 -2 11 -4c1 0 2 -1 2 -1c2 3 4 1 7 4c1 -3 1 0 2 -4c3 -1 4 -3 5 1c3 -5 9 -1 11 -5c4 4 5 -3 10 1c1 -3 5 -1 6 -1c4 -2 8 -2 11 0c0 -3 1 -2 1 -5c11 5 21 0 30 -6
c1 -3 1 -4 1 -9c-3 -5 -5 -2 -7 -8c-1 -2 1 -7 0 -9c-4 -2 -7 -6 -11 -10c-1 3 -1 0 -2 4c-2 0 -6 -1 -10 -2c-1 -6 -2 -9 1 -15c-2 -4 -5 -8 -8 -12c-2 2 -5 3 -6 3v-2c0 -2 1 -3 2 -4s2 -4 3 -6c-2 -1 -4 -1 -5 -3v-1c-3 -2 -5 -5 -6 -8v-2c-1 -2 -2 -3 -2 -4
c-2 -1 -2 -2 -2 -3c-1 -1 -1 -2 -1 -3c0 -2 -2 -5 -3 -7c-1 -1 -2 -1 -3 -2c0 -1 0 -2 -1 -3c-2 -1 -3 -2 -4 -2c1 -5 2 -8 3 -11v-8c0 -1 -1 -3 -1 -4c0 0 -1 0 -1 -1v0c-1 -3 -3 -5 -5 -7c-2 -1 -1 -3 1 -5l3 -2v0l-6 -3c-1 -1 -2 -2 -4 -3c-2 -2 -4 -3 -5 -6
c-2 -1 -2 -2 -2 -3v-3h-2c-3 0 -4 1 -5 1c-2 -5 -4 -8 -8 -13c-1 -1 -1 -1 -2 -1c-1 -2 -2 -4 -4 -6c-1 0 -1 -1 -1 -2c-2 -3 -3 -5 -5 -6c0 -1 -1 -2 -1 -3c-1 -1 -2 -2 -2 -4c-2 -2 -3 -5 -3 -8h-5v-2s-1 -1 -1 -2v-2c0 -2 -1 -3 -2 -3c-1 -1 -1 -2 -3 -3
c-1 -2 -2 -3 -4 -5l-2 -6s-1 0 -1 -1v-2v-2c0 -2 0 -2 1 -4h-2l-2 2h-1h-4c0 0 -1 0 -1 -1c0 0 0 -1 -1 -2c0 -1 0 -1 -1 -2v-3v-1c-1 -2 -3 -5 -5 -7h-1c-1 0 -2 -1 -3 -1c0 -1 0 -3 -2 -4v-2s-1 -2 -1 -3c-2 -2 -3 -4 -4 -6l-3 -3c-1 -2 -3 -3 -4 -4s-1 -2 -3 -3
c-1 0 -1 -1 -1 -1c5 -10 0 -16 -3 -22c0 0 -1 0 -1 -1c-3 -4 -6 -9 -4 -16h-5c-1 0 -1 -1 -1 -1h-1c-1 -1 0 -3 -2 -3h-1v-2c-1 -3 -5 -8 -7 -10c0 -1 -1 -3 -1 -4c-2 -1 -2 -2 -2 -3l-3 -3c0 -1 0 -1 -1 -1l-2 -3c0 -3 -1 -6 -2 -8l-1 -1c-1 0 -1 -1 -2 -2l-1 -2l-4 -12
c-1 -2 -2 -3 -3 -5c-1 -1 -2 -1 -3 -3c0 -1 -1 -3 0 -5v-1c0 -1 1 -1 1 -1c-1 -2 -3 -3 -6 -3v-2c0 -1 1 -2 1 -3v-4c1 -3 0 -7 -1 -10c0 0 0 -1 -1 -1v-1l-3 -3c0 -1 -1 -1 -1 -1c-1 0 -2 -1 -2 -1c0 -1 -1 -1 -1 -1c1 -1 1 -1 1 -2c1 -1 0 -1 1 -4c-1 0 -3 -1 -4 -2
s-1 -1 -1 -2c-1 -1 -2 -2 -2 -4v-11c-4 -1 -5 -2 -5 -3h-1v-4c0 -2 1 -3 1 -4v-4s-1 -2 -1 -3c-1 -1 -1 -2 -2 -4c0 -1 -1 -2 -2 -3c0 -1 -1 -1 -1 -1c-2 -4 -5 -7 -8 -9c-3 -3 -5 -6 -7 -10c-1 -1 -1 -3 -1 -3c0 -1 -1 -1 -1 -2v-2c-1 -2 0 -3 0 -4c-2 -1 -5 -2 -6 -2h-5
v-9v-2s-1 -2 -1 -2l-2 -2h-2c0 -1 0 -1 -1 -1c0 -12 -9 -17 -11 -25c-8 3 -16 -2 -22 -4c-2 -2 -6 -2 -5 -6c-6 0 -9 0 -11 -1h-1h-1v1s-1 0 -1 1c-1 3 -3 6 -3 8v4s1 1 1 2c1 0 1 1 2 1c0 0 -3 0 -3 1c-7 -1 -11 -5 -15 -10c0 -1 -1 -1 -1 -2c-1 -1 -1 -2 -1 -3
c-3 -4 -5 -12 -7 -17c-9 -5 -21 2 -27 2l-1 -1c-1 1 -2 2 -2 3c-1 5 5 5 4 10c-4 2 -10 5 -16 7l-3 2h-1c0 1 1 3 1 4l2 5c3 6 5 10 9 15c0 1 1 2 2 3c0 -1 2 -1 3 -2h4c3 0 4 1 5 2c3 1 5 1 10 1c-2 0 -3 1 -3 2c-1 0 1 0 1 2c-3 1 -4 2 -7 3c-2 1 -6 1 -8 2
c-3 1 -5 2 -6 4c-2 2 -3 4 -3 6v2v3s1 0 1 1c6 9 16 23 20 37c0 3 1 6 1 8c1 2 3 3 5 4c1 1 1 2 2 2v1c0 1 -1 2 -1 3c2 0 3 0 4 1c4 1 5 3 12 3v1c1 3 2 5 3 6s2 2 3 4c-3 2 -3 3 -4 3c12 6 8 15 13 22c1 0 2 0 3 1c2 1 3 1 3 2v1c1 2 1 6 2 8s4 4 6 5c-1 1 -1 2 -2 3
c0 1 0 1 -2 2l-2 2v1v1c1 1 1 2 2 4c2 1 2 3 3 5s2 3 2 4h1c2 5 4 8 6 13c1 3 1 6 2 10c5 2 7 6 9 9c5 9 11 33 24 35v1c-1 2 0 4 0 6v2c1 1 2 2 3 4c0 0 0 1 1 1c1 2 1 3 1 5c0 1 1 1 1 2v4c0 1 -1 2 -1 3c2 0 4 1 6 2c0 1 0 1 2 2c1 0 3 2 5 3c-1 3 -3 3 -3 5c0 1 0 2 1 3
c1 0 1 1 1 1c3 2 5 4 7 7c1 2 2 3 2 4c0 0 2 0 2 1c2 6 3 13 6 19l3 3l3 4v1c1 0 0 1 0 3c4 2 6 5 8 7c1 1 1 2 2 3c0 1 1 3 1 3c1 1 2 3 3 5c0 1 0 1 1 2c1 3 12 7 12 9c1 1 1 3 2 5l3 1c0 3 2 5 4 8h-1c-1 1 -1 3 -2 5c2 1 4 2 5 4c2 2 3 5 5 6c1 3 10 14 11 16
c1 1 1 3 1 5v1h2c3 0 5 2 7 3c1 1 1 2 2 3v2c2 1 2 5 4 7l1 1c1 0 1 1 4 2c0 0 0 1 1 1c-1 1 -3 2 -3 3v1c0 2 2 3 2 5c0 1 -2 1 -2 2v0c4 0 4 1 4 2c1 1 2 1 6 1c1 2 22 23 23 25c1 1 1 2 -1 3v1c1 0 4 1 5 3c1 0 1 1 1 2h1c0 1 0 1 1 2c0 0 0 1 1 1c1 2 1 3 2 5l3 2
c1 0 1 0 2 1c0 0 1 0 1 1v1v3s0 1 1 1l3 3c1 1 2 3 1 4v4h3l1 1c1 1 1 1 2 1c1 1 1 1 1 2c-3 0 -6 0 -7 4c-5 -4 -11 0 -15 2c-9 -11 -14 0 -22 -7c0 6 -2 0 -3 4c-3 -1 -6 0 -8 1c-2 -2 -7 -1 -9 1c-5 -6 -10 6 -15 -2c-2 1 -3 2 -3 4c-5 -5 -11 -8 -16 -4c0 -4 0 -1 -2 -4
c-5 6 -7 0 -12 0h-2c-2 0 -5 -4 -8 -3c-7 -3 -16 7 -23 2c-1 1 -1 1 -3 4c-4 -3 -7 -4 -9 -2c-6 -1 -11 2 -14 -1c0 7 -39 -19 -42 -15c0 1 -1 3 -3 2c-2 6 -3 6 -3 6c3 2 5 8 8 7c1 0 0 2 1 2c-2 5 -7 5 -11 5h-10c-5 3 -2 16 -5 17c4 6 6 0 7 4c2 2 2 7 2 11v2zM18 124
l1 3c-1 1 -3 3 -4 3s-2 1 -3 1v-1c1 0 1 -1 0 -2l1 -1v-2h-3c2 -1 3 -2 4 -3c0 -2 0 -3 -4 -4h-3c0 1 1 2 0 3c0 0 -2 -1 -2 -3c1 0 2 -1 4 -1l1 -2v2c4 0 4 -1 6 -1v2v2c0 1 0 2 3 2l-4 2v1zM82 574l1 1c0 -1 2 4 2 6l-2 -2h-1l-1 -1v1c-2 -3 -2 -5 -4 -3v2v1v-1l-1 -2h1
v-2c1 -1 2 2 3 -1c1 1 1 2 2 3v-2z" />
    <glyph glyph-name="three" unicode="3" horiz-adv-x="391" 
d="M58 91c3 -5 10 -7 14 -11c-1 -15 2 -28 16 -32c22 11 40 24 56 40c8 -2 9 1 15 3c14 7 20 23 31 32c-1 9 6 13 3 20c11 7 22 30 25 50c1 17 1 40 -1 57c-2 4 -6 7 -8 13c-3 6 -2 17 -5 23c-8 17 -22 29 -34 38h-4c-2 -1 -4 -2 -5 -2c-2 -1 -4 -1 -5 -1s-2 -1 -2 -2l-2 2
c-6 1 -12 3 -17 4c-8 1 -15 1 -22 0c-8 -2 -15 -6 -19 -10c2 2 1 6 -1 11c-5 2 -10 4 -16 7c-2 2 -2 7 -7 7c1 3 2 6 4 8c2 -3 5 -6 9 -10c0 1 0 2 1 3c-3 3 -5 6 -8 9c2 2 4 2 7 3l10 1c12 10 32 15 54 18c7 5 13 10 19 16c6 -1 6 1 11 3c10 5 15 17 23 24c-1 7 4 10 2 15
c8 5 17 22 19 38c1 12 1 30 -1 42c-1 3 -4 6 -6 10c-2 5 -1 13 -4 18c-6 12 -16 21 -25 28c-4 0 -10 0 -12 -4c-10 14 -36 6 -45 -3c-17 -22 -40 -40 -53 -66c-11 5 -3 17 -3 27c10 5 9 18 13 29c3 5 8 8 9 15c9 4 15 10 26 13c8 28 67 30 108 23c1 -6 9 -5 10 -10
c5 0 8 -1 14 -1c10 -7 16 -16 27 -21c4 -18 21 -27 25 -46c2 -3 6 -3 8 -6c0 -12 6 -24 5 -36c0 -3 -3 -6 -5 -9c-2 -4 -3 -10 -4 -16c-4 -15 -5 -33 -11 -45c-5 3 -4 -2 -2 -5c-3 -1 -3 1 -3 2c-1 -3 -5 -4 -7 -7c-2 -5 -2 -12 -3 -16c-6 -8 -21 -19 -30 -24
c-2 -2 -4 -3 -6 -4c4 -1 8 -2 14 -1c13 -10 21 -22 35 -29c6 -23 28 -36 34 -61c2 -3 8 -3 10 -7c0 -17 9 -32 7 -48c0 -5 -4 -9 -7 -12c-2 -6 -3 -14 -5 -21c-5 -20 -7 -44 -14 -61c-7 4 -6 -2 -3 -6c-4 -1 -4 1 -4 3c-1 -4 -7 -6 -9 -10c-3 -6 -3 -15 -5 -21
c-7 -11 -28 -25 -40 -32c-16 -10 -34 -17 -46 -28c-24 -8 -52 -14 -75 -22c-14 -3 -24 2 -35 4c-14 2 -28 -2 -40 0c-14 0 -24 4 -37 10c-3 3 -3 9 -9 9c2 11 -10 17 -10 25c0 9 5 17 12 24c20 2 20 17 39 19zM227 311v-1c-2 -7 4 -9 6 -13c5 -11 6 -23 14 -28
c0 16 -8 25 -12 39v2h-2c0 5 0 9 -8 8c-1 -4 2 -4 4 -7h-2zM213 571l1 2c0 -3 0 -5 5 -5c0 2 0 5 -3 5c-2 0 -2 0 -2 1c-10 8 -22 20 -39 13c9 -7 24 -10 37 -14zM229 556h-1c-2 -6 3 -7 4 -10c4 -8 5 -18 11 -21c0 12 -6 19 -9 29v2h-2c0 3 0 6 -6 6c-1 -3 2 -3 3 -6z
M166 56c-7 -6 -18 -8 -22 -15c6 -3 15 0 18 3c-6 2 8 8 4 12zM74 348c-16 18 -8 14 2 2c-1 0 -1 -1 -2 -2zM211 333h-2c0 -4 0 -7 6 -7c0 3 0 7 -4 7zM207 331l2 2v2c-1 0 -1 0 -1 1c-2 -1 -4 -2 -6 -2c1 -1 2 -1 4 -1zM209 91c-2 -3 -5 -5 0 -6c-2 3 6 4 0 6zM214 391
c-1 -3 -4 -4 0 -5c-1 2 5 3 0 5z" />
    <glyph glyph-name="eight" unicode="8" horiz-adv-x="388" 
d="M144 333v-1c-1 0 -1 1 -1 1c-2 1 -3 4 -5 2c1 4 -5 6 -9 7c-3 8 -10 15 -13 25c-2 1 -3 2 -5 3c2 2 0 9 -5 9c0 5 0 8 -5 12c1 1 -1 6 -3 9s-4 2 -5 6c-1 6 0 12 -2 16c-1 2 -4 5 -5 8c0 7 -2 16 0 24h-2l3 1c0 2 -1 5 -3 6c0 1 1 1 3 1c-4 4 -1 9 -4 14h3c3 2 5 6 4 10
c10 7 5 18 11 27c0 1 -1 1 -2 2c10 6 14 17 17 26l2 -1l1 3c5 2 10 7 9 11c2 0 7 1 6 5h5c0 3 4 6 3 8c8 7 21 21 28 25c2 1 5 5 8 5c4 0 5 1 5 1c2 0 17 -2 21 1c6 -2 11 3 20 3c-3 -4 0 -3 1 -4c-1 -1 -3 -1 -7 -1c2 -1 3 -1 4 -1c1 -1 1 -2 2 -2c43 -10 73 -22 77 -29h5
c-2 -1 -2 -4 -2 -5c4 -5 6 -11 11 -14c1 -8 4 -14 11 -16c-1 -11 8 -18 10 -30c2 0 5 -3 8 -4c-1 -7 -1 -13 3 -17c-4 -6 0 -17 0 -24c-1 0 -2 -1 -4 -1v-1h-1l-3 1c-2 -1 1 -2 1 -5c-5 -10 4 -26 -3 -36h-2c-5 1 -7 -9 -1 -8c-2 -1 -4 -2 -4 -4c-4 -1 -2 1 -5 2
c0 -2 -2 -3 -3 -4c1 -2 3 0 4 -1c-2 -1 -3 -2 -5 -4c2 -6 3 -10 0 -14c-4 3 -8 -3 -14 -1c-6 -7 -15 -12 -17 -21c-8 -3 -12 -9 -16 -14h11h-1c1 -1 3 0 6 0c3 -1 4 -2 8 -1c0 -3 5 -1 5 -3c10 1 14 -5 22 -6v-1h1c5 -4 14 -8 20 -12c-1 -1 -1 -1 0 -2s3 -1 5 -2
c-2 -3 3 -5 1 -7c1 -2 4 -3 5 -4c0 -1 2 -2 1 -5c3 -1 3 -4 7 -7c-1 0 -3 -1 -4 -2c5 -7 -3 -14 4 -20c-2 -2 -3 -5 -4 -7c-4 1 -4 5 -7 7v2c-7 9 -14 17 -26 21c-1 2 -7 4 -10 5c-2 -2 3 -3 3 -6c-2 3 0 -5 3 -5c1 -7 7 -11 14 -17c1 0 2 -1 2 -1c0 -1 1 -3 1 -4
c1 -4 5 -7 6 -13c2 -1 2 -2 3 -2c-1 -5 7 -7 6 -12l1 -1v-3c1 -8 -1 -18 4 -24c0 -1 -1 -1 -2 -3c0 -1 2 -2 4 -2c1 -1 -1 0 -1 -1c3 -2 2 -6 5 -7c0 -1 -3 0 -2 -1c5 -2 3 -9 3 -15c0 -2 -4 -3 -3 -5c0 -1 1 -2 2 -2c-1 -2 -3 -2 -4 -3c-1 -12 -2 -20 -4 -30c1 -1 1 0 2 -1
c-1 0 -3 -1 -4 -2v-6c-2 -20 3 -38 -7 -53c0 -1 0 -3 1 -4c-4 0 -6 -2 -10 -2c-1 -10 -7 -18 -20 -21v9c0 5 3 11 0 13c-5 -2 -2 -8 -4 -11h-3c-1 -4 -4 -8 -4 -14c0 -1 -3 -1 -3 -2c1 -2 -2 -3 3 -3c-4 -1 -6 -3 -5 -5c-4 -2 -5 -5 -9 -6v-4c-4 -2 -6 -5 -11 -6
c-1 -1 -2 -1 -1 -2c-8 -1 -8 -6 -15 -8c1 -1 -1 -1 -1 -2c-2 0 -5 -1 -6 -2c-6 -1 -12 -4 -19 -6h-4c-9 0 -17 -3 -25 -2c-1 -1 -8 -1 -10 -3c-7 1 -16 -1 -20 0c-2 0 -1 0 -1 1c-12 0 -24 -2 -32 0c0 1 -4 0 -4 1c-9 1 -15 5 -22 7h1c-4 0 -6 3 -9 4c1 1 1 2 -1 1
c-1 0 0 2 -1 2c0 1 -1 0 -2 0c-1 1 0 2 1 2c-8 0 -9 6 -16 8c-1 3 -3 4 -6 6c-1 2 0 3 -2 3c-6 1 -8 7 -11 9c0 2 0 2 1 3c-1 1 -4 2 -1 3c-2 0 -1 1 -4 2c0 1 2 1 1 2c-2 -1 -3 3 -4 1c-1 2 1 6 -3 6c2 2 -3 4 -4 6c-1 1 -2 0 -2 0c-3 0 -3 1 0 1c-3 2 -5 4 -4 7
c-2 0 -2 -1 -2 -1c-2 1 -2 3 -2 6c-2 2 -4 5 -5 8c0 0 1 0 1 1c-1 3 -6 5 -4 7c-2 1 -2 5 -2 7c-6 11 -4 26 -12 36c1 1 -1 1 1 2c-2 2 0 5 0 7s-2 4 -2 5c0 2 1 5 0 7c0 1 -3 1 -3 2c2 3 1 6 0 10h1v1c1 2 0 6 1 9c0 1 -2 3 -2 4c0 2 2 6 2 9c-1 3 -1 5 1 8c2 6 2 12 3 19
c0 2 2 3 3 4c1 3 0 6 1 9c0 -1 4 2 2 4c2 0 1 1 2 0c0 4 1 7 4 9c2 2 1 3 4 3v1c2 1 7 3 4 5c0 1 2 1 3 1c-3 1 2 4 -2 5c0 1 3 0 3 2c10 -2 9 6 14 8c0 5 6 8 6 12c6 3 6 9 11 12c1 1 0 1 1 2c1 0 0 -1 2 -1c0 1 4 1 4 3c6 2 9 7 13 11c2 2 4 0 4 3c4 0 4 3 5 4
c5 2 10 4 16 5c5 4 18 5 23 7c-3 1 -5 2 -8 3zM214 36c2 0 0 2 2 1c0 -1 0 -2 2 -2c2 2 4 -2 7 -3c-2 0 -3 0 -3 -1c1 0 1 1 4 0c6 -2 11 -3 18 -4c1 3 1 6 5 8c1 12 14 21 11 33h-1c1 2 3 5 1 8c6 3 6 10 6 13c2 0 1 1 2 1c0 7 3 15 3 22c1 2 0 7 1 9c0 0 1 0 2 1
c0 3 -1 4 0 6c0 1 1 2 1 4s-1 3 -1 5c-2 11 1 22 -3 34c4 -2 0 0 0 1c-1 1 -1 6 -1 8c0 1 1 1 1 2c1 3 0 7 0 11c0 0 1 -1 0 1c-2 3 1 10 -3 11c3 1 0 3 1 6c0 1 2 0 2 2c-5 9 -2 26 -3 39c-1 4 0 13 -4 16c4 8 -4 19 -4 30c-1 0 -3 0 -4 1c2 1 0 2 1 3c-3 0 -2 -2 -4 0
c2 0 2 1 2 1c-3 4 -8 7 -13 8c-1 1 -1 3 -4 3c-5 3 -14 5 -18 7h-1c-2 1 -5 2 -7 3c-4 -1 -7 -2 -12 -1c-1 -1 -2 -2 -4 -2c0 0 -1 1 -3 0c-5 0 -7 -2 -11 -3h-3c-2 -1 -5 -4 -9 -5c-1 -1 -2 -1 -2 -1c-4 -2 -3 -7 -5 -11c-4 -1 -4 -3 -4 -7h-1c-1 -5 -7 -9 -4 -15
c-3 -1 -3 -1 -5 -2c2 -4 -4 -10 2 -12c-10 -1 -5 -11 -6 -17h-4c0 -5 -2 -9 -2 -15h1c-1 0 -1 0 -1 -1c0 -2 -5 -4 -2 -10c0 0 1 -1 1 -2l-1 -1v-9c0 -1 2 -1 2 -3c-2 -12 -6 -21 -2 -35c3 -1 3 0 3 -1s0 0 -3 -1c-1 -4 2 -9 1 -14c0 -1 2 0 2 -1v-1c-1 0 -1 -1 0 -1h2
c3 0 2 -2 4 -4l1 -1l1 1c1 -3 -1 -8 4 -9c-2 -1 -4 -3 -1 -4c0 -1 0 -1 1 0c-1 -1 2 -6 -1 -3c1 -3 8 -5 6 -8c1 0 0 1 2 1c3 -5 -2 -14 4 -18c2 -1 -2 -1 -2 -2c0 -3 4 -3 3 -5c-3 0 3 -3 -1 -4c4 0 5 -2 5 -3c7 -5 3 -7 9 -11c-3 -1 0 -2 1 -3c-2 0 -4 0 -4 -1
c0 -2 3 0 4 0c0 -2 2 -2 2 -4c1 -1 -1 0 -1 -1c3 0 1 -2 1 -4c1 0 1 1 2 1c4 -5 4 -11 9 -14c0 -1 -1 -3 0 -4c4 1 1 0 5 0c1 -3 4 -5 9 -6c0 -2 3 -5 6 -6l-1 -1h-1v-4c0 1 1 1 2 1v-1h1c0 -1 -1 -1 -1 -1c2 0 3 0 3 1zM183 353h2c4 0 -3 3 1 4c0 -3 1 -4 4 -3
c1 -3 5 -3 6 -6c7 -3 7 4 13 0c0 -2 -1 -3 -2 -4c4 0 8 1 13 0v1h5c2 4 5 8 4 12c8 -1 12 6 11 12c3 1 5 1 7 4c0 2 2 10 2 11l3 -1c1 1 -1 2 -1 3c0 0 4 2 6 4c-3 4 1 10 1 17c4 -2 3 9 3 13s3 7 3 10l3 -1l-1 2c2 0 1 6 0 2v1h-2c-6 6 0 13 -6 18c1 1 2 1 3 3
c3 24 6 40 -1 60c0 1 -1 5 -2 10c-5 -1 -4 -3 -5 -1c6 6 -10 15 -8 23c-1 0 0 -1 -2 -2c-1 3 2 3 2 6c-1 1 -6 0 -5 1c-1 6 -8 9 -12 7c1 1 3 2 2 2c-8 -1 -12 -2 -18 2c-9 -2 -12 -7 -18 -6c-2 -2 -1 -5 0 -6c-2 -1 -5 -1 -8 -2c-1 -3 -6 -10 -7 -11c-1 -3 -3 -6 -4 -7h-3
v-11c-2 -1 -3 -4 -6 -5c1 -3 -7 -9 -9 -15c-2 -14 6 -19 2 -31c0 -2 -1 -3 -3 -3c0 -4 3 -6 -4 -6c2 -6 -2 -11 2 -14v-1l1 1c0 -5 0 -3 -2 -2c-1 -3 -1 -8 -1 -11c0 -1 4 0 3 -2c1 -3 -1 -2 -3 -2c7 -4 3 -10 2 -17c0 -9 4 -14 -2 -18c-1 -16 3 -36 13 -50h3v1h-3
c3 1 10 2 13 1c1 0 4 1 6 1c-1 1 -2 3 -2 5zM257 559c-1 0 -3 -1 -2 -2c3 -2 9 -5 13 -1c5 -8 9 -15 14 -22c2 1 2 2 5 2c-2 -5 2 -4 2 -9l1 -1v-1c0 -1 -2 -1 -2 -4c2 0 4 0 5 2c-3 2 -2 3 -2 3v1c4 0 3 2 5 4c-3 10 -32 28 -54 44l-14 -3c15 2 18 -10 29 -13zM43 219
c0 -5 -3 -13 -1 -16c1 -4 0 -7 1 -10c0 -1 0 -5 2 -6c6 2 2 9 3 13c3 9 3 18 2 25c1 1 3 5 -1 4c-1 -3 -6 -7 -6 -10zM201 20l-1 1c0 1 -7 0 -7 3c-7 -1 -10 5 -17 5c-3 0 -4 -2 -8 0c0 -2 3 -2 4 -3c0 -2 3 -2 3 -4c3 0 9 -3 14 -4s12 -2 15 0c-1 1 -2 -1 -3 1c2 0 1 1 0 1
zM317 480c-1 1 -3 -3 -4 -4c-1 -5 2 -14 2 -20c0 -4 2 -9 4 -11c-1 11 6 27 -2 35zM278 438c3 0 5 9 1 9c-6 -6 -4 -14 -4 -21h3c1 3 3 7 0 12zM103 193c0 0 -1 -1 -1 -2c-1 -5 1 -12 2 -17c1 8 2 14 2 22c2 2 2 4 -1 4c-5 -1 -1 -4 -2 -7zM299 466v14c-6 -1 0 -7 -3 -10
c-3 0 -3 2 -3 2c-2 -2 -1 -3 0 -3c2 2 4 -3 6 -3zM179 556c-2 1 -9 2 -12 0c0 -3 0 -4 3 -4c1 1 6 2 9 4zM292 464c-2 -4 -6 -10 -1 -11c0 2 5 8 1 11zM106 211c0 0 1 0 2 1c-2 5 1 11 1 17c-1 -6 -7 -15 -3 -18zM119 269c-2 -1 -2 -2 -2 -4h1c-4 -1 -3 -5 -3 -7
c5 1 4 5 4 7h-1c2 0 3 4 1 4zM286 305c3 0 4 -1 6 0c-2 2 -1 6 -6 6c-2 -2 2 -3 0 -6zM110 233c2 2 2 5 2 7c-3 -1 -2 -5 -2 -7zM105 202c1 2 2 5 0 7c-2 -1 -2 -6 0 -7zM154 109h2c0 1 0 2 1 3c-3 0 -6 -3 -3 -3zM321 78c0 2 5 7 0 6c1 -3 -1 -4 0 -6zM173 336h1
c0 2 -1 2 -3 2c1 -1 1 -2 2 -2zM114 248c-1 0 -1 -1 -1 -2c2 0 2 2 1 2zM141 233h-1s1 -1 1 0z" />
    <glyph glyph-name="four" unicode="4" horiz-adv-x="378" 
d="M308 267l1 -1c-8 -3 -8 -10 -8 -19c2 1 4 1 5 1c1 -1 2 -2 4 -1c1 -5 2 -5 2 -5c-3 -2 -4 -5 -8 -4v-2c1 -4 7 -4 10 -4c4 0 7 1 10 1c4 -2 2 -11 3 -12c-2 -4 -4 0 -5 -2c-2 -2 -2 -6 -2 -8v-1l-1 -1c-5 -1 -9 0 -15 0c1 4 -1 3 -4 8c-1 -3 -2 -1 -2 -2c-1 -2 0 -3 0 -7
c-1 -3 -4 -4 -7 -4c2 -2 4 -5 5 -6c-2 -3 -4 -10 -2 -14c-2 -1 -3 -1 -4 -2c1 -4 4 -8 2 -13c0 -3 -2 1 -3 -1c-1 -5 0 -10 -1 -16c0 -3 -2 -3 -2 -5c-2 -8 1 -15 -4 -19c4 -5 -4 -10 -5 -15c-1 -1 0 -5 -1 -8c-2 -5 -5 -15 0 -21c-4 -2 -4 -6 -8 -8c0 -3 0 -10 3 -10
c2 -1 2 -7 2 -11c2 -3 6 -7 4 -12c-2 0 -2 1 -3 1c1 -1 -1 -4 0 -10c0 -1 -4 -1 -5 -2v-1h-2v-2c-9 0 -7 -9 -15 -9c0 -3 -2 -3 -1 -6c-1 0 -1 2 -2 2c-8 -4 -17 -6 -25 -8c-2 -2 0 -4 -1 -6c-4 2 -6 1 -10 4c0 6 -2 9 -5 12c-5 24 -9 51 -6 79c1 9 -3 21 -2 33
c1 9 3 23 3 33c3 3 1 6 3 11c0 6 4 10 4 15v14c-4 0 -7 0 -11 -1c-6 3 -15 -3 -19 5c-6 -4 -10 1 -15 -3c-2 2 -5 1 -6 3c-2 -2 -1 -2 -4 -3c-7 5 -15 -1 -23 2c-2 0 -2 -1 -3 -1c-8 4 -15 0 -25 1c-1 0 -2 -1 -2 -1c-4 1 -10 2 -15 1c-2 5 -7 2 -10 3c-1 0 -2 1 -2 1
c-2 -3 -4 -1 -6 -4c-1 3 -2 0 -3 4c-3 1 -3 2 -5 -1c-2 4 -7 1 -10 4c-3 -3 -5 1 -9 -1c-1 1 -5 1 -7 0c-3 1 -7 1 -9 1c-1 1 -2 0 -2 2c-11 -3 -20 0 -29 5c-1 2 -1 2 -1 6c3 4 5 2 7 5c1 1 -1 5 0 7c4 1 6 3 11 6c0 -2 0 0 1 -3c3 0 7 1 10 2c1 4 2 6 -1 11c2 2 5 4 8 7
c2 -1 4 -2 6 -2c0 1 0 2 -1 2c0 1 -1 1 -1 2c-1 2 -2 3 -3 4c2 1 3 1 4 3h1c3 2 5 4 5 5c1 1 1 1 1 2c1 1 2 2 2 3c1 1 1 1 1 2l1 1c1 2 3 4 3 5c1 0 2 2 3 2c1 1 1 1 2 1c2 1 2 2 4 2c-2 4 -2 6 -3 8v6l1 2v1c2 2 3 2 4 3c2 2 1 4 0 4l-2 2h-1c2 1 3 2 5 2c1 1 2 2 4 2
c3 2 5 3 5 4c1 1 1 1 1 2c1 1 0 2 0 3h3c3 0 4 -1 5 -1c2 3 5 5 7 8c1 0 1 1 2 2c2 1 3 2 4 3c1 0 1 1 2 2c2 2 3 3 5 4v2c1 0 2 1 2 2c2 2 3 4 3 6h5v1l1 1v1c1 1 2 3 3 3c0 1 0 2 1 2c1 1 3 2 5 3l2 5s1 0 1 1v2c0 1 0 2 -1 3h2l2 -1h1c1 -1 2 0 3 0h1s0 1 1 2l1 1
c0 1 0 1 1 2v1c1 0 2 2 4 3c1 1 2 1 2 2h3c0 1 0 2 1 3v1c0 1 1 1 1 2c2 1 3 3 5 5l2 2c1 0 3 1 5 2c1 1 1 1 1 2c1 0 2 1 2 1c-5 6 -1 11 3 14c0 0 1 0 1 1c3 4 6 6 4 11h5v1h1c1 0 0 2 3 2h1c1 3 5 7 7 9c0 0 1 1 1 2c1 0 1 1 1 2l3 2c0 1 0 1 1 1l2 2c0 2 1 4 2 5
c1 0 1 1 2 2l2 1h1c1 1 2 1 3 3c1 0 2 1 3 2c0 1 1 2 0 4c0 1 -1 1 -1 1c1 1 4 2 6 2v1c0 1 -1 2 -1 3v2c-1 3 0 5 1 7c0 0 0 1 1 1l3 2s1 0 1 1c1 0 1 1 1 1h2c-1 1 -2 1 -2 2c0 0 1 0 0 2c1 1 3 1 4 2c1 0 1 0 1 1c1 1 2 1 2 3v7c3 1 4 1 5 2l1 1v2c0 1 -1 2 -1 3
s-1 2 0 3c0 0 1 1 1 2c1 1 1 1 1 2s1 1 2 2c0 1 1 1 1 1c3 3 5 5 8 7c3 1 5 4 7 6c1 0 2 1 2 2s1 1 1 1v2c1 1 0 2 0 3c1 1 3 1 5 1h4v6c0 1 0 1 1 2l1 1s1 0 2 1h3c0 8 8 12 11 17c7 -1 15 2 21 4c2 1 6 1 5 4h13s1 0 1 -1c0 -2 2 -4 2 -6v-2s-1 0 -1 -1c-1 0 -1 -1 -1 -1
s2 0 2 -1c6 1 11 3 14 7c0 1 1 1 1 1c1 1 1 2 1 2c3 2 4 9 7 12c9 3 21 -2 26 -2h1c1 0 2 0 2 -1c1 -3 -5 -4 -4 -7c4 -1 10 -3 15 -4l4 -2h1c0 -1 -1 -2 -1 -3l-3 -3c-2 -4 -4 -7 -8 -11c0 0 0 -1 -1 -2c-1 1 -3 1 -4 2h-4c-2 0 -3 -1 -5 -2h-9c1 0 2 -1 2 -1
c1 0 -1 0 -1 -1c3 -1 5 -2 7 -2c3 -1 6 -1 8 -2c3 -1 5 -2 7 -3c1 -1 2 -2 2 -4v-3s-1 0 -1 -1c-6 -6 -16 -16 -19 -25c-1 -3 -2 -4 -2 -6c-1 -1 -2 -2 -4 -2c-1 0 -1 -1 -2 -1v-2s1 0 1 -1c-2 0 -3 0 -4 -1c-4 0 -5 -2 -12 -2v-1c-1 -2 -2 -3 -3 -4c0 -1 -2 -1 -3 -3
c2 -1 3 -2 3 -2c-10 -4 -7 -9 -11 -14c0 0 -2 0 -3 -1s-2 -1 -3 -2v-1c-1 -1 -1 -3 -2 -5c-1 -1 -3 -2 -5 -4c1 0 1 -1 2 -2l1 -1h2v-3c-1 0 -1 0 -2 -1c-1 -2 -1 -4 -2 -4c-1 -1 -2 -2 -2 -3h-1c-3 -4 -4 -6 -6 -9c-1 -2 -2 -5 -3 -6c-3 -2 -6 -4 -8 -7
c-5 -6 -8 -13 -22 -15c1 0 1 -1 1 -2c1 -1 0 -2 0 -3c-1 0 -1 0 -1 -1c0 0 -1 -1 -2 -3h-1c-1 -2 -2 -3 -2 -3c0 -1 -1 -1 -1 -2v-3c0 -1 1 -1 1 -2c-2 0 -3 -1 -5 -1c0 -1 -1 -1 -2 -2c-1 0 -3 -1 -5 -1c2 -3 3 -4 3 -5s0 -2 -1 -2h-1c-3 0 -6 -2 -7 -4s-2 -2 -2 -4h-1
c-3 -4 -4 -10 -7 -13l-3 -3l-3 -2c-1 0 0 -1 0 -2c-3 -1 -5 -3 -7 -6c-1 0 -1 -1 -2 -1s-2 -2 -2 -2c-1 -1 -1 -2 -2 -4l-1 -1c-1 -2 -12 -4 -13 -7c0 -1 0 -1 -1 -3h-2c-1 -2 -3 -3 -4 -5v-1c1 -1 1 -2 2 -3c-2 0 -3 -1 -5 -3c-1 -1 -2 -3 -4 -4c-1 -2 -9 -9 -10 -10
s-1 -2 -2 -4h-2l-6 -3l-2 -2s-1 0 -1 -1c-1 -1 -1 -4 -3 -5l-1 -1c-1 0 -2 -1 -3 -2h-1c1 0 1 -1 1 -1v-7h-3c-1 -1 -2 -1 -5 -1c-2 -1 -22 -16 -23 -17c-1 0 -1 -1 1 -3c-2 -1 -4 -1 -5 -2c-1 0 -1 -1 -1 -1s0 -1 -1 -1c0 -1 0 -1 -1 -1h-1c-1 -1 -1 -2 -2 -3l-3 -2l-1 -1
s-1 0 -2 -1h1c0 -2 0 -2 -1 -2c0 0 0 -1 -1 -1l-3 -2c0 -1 -2 -2 -1 -3c0 -1 0 -2 1 -3h-7v-2c2 0 5 0 7 -3c5 3 9 0 14 -1c8 7 14 0 22 4c0 -3 1 0 2 -2c3 1 6 0 8 -1c3 2 6 1 9 0c5 3 10 -4 15 1c2 -1 3 -1 3 -3c5 4 10 6 15 3c0 2 0 1 1 2c5 -3 7 0 12 0h2h6
c1 3 1 6 2 10c0 5 0 13 2 19c1 3 3 14 1 18h-2c-1 5 -2 10 -6 13c4 4 2 7 3 11c2 11 0 29 20 30c1 0 3 -1 5 -1c7 1 10 5 18 6c4 -3 7 -5 6 -9c3 -1 4 -4 5 -6c1 -3 2 2 4 0c0 -4 -1 -5 -4 -8c3 -5 5 -9 5 -14c1 -1 3 -1 3 -1c0 -4 1 -8 1 -11c8 0 12 -2 19 -3
c-1 -2 0 -2 3 -2c0 -2 0 -5 3 -5c2 0 3 1 3 2l1 -1l1 1c2 -6 0 -13 1 -19h-2zM319 514v-2s2 -1 3 -2h3c-1 1 -1 2 0 2h-1v1h2c-1 2 -2 2 -3 3c0 1 0 1 3 2h3c0 -1 -1 -1 0 -1c0 0 2 0 2 1c-1 0 -2 1 -4 1l-1 2v-2c-3 0 -3 1 -4 1v-3s-1 -1 -3 -1c1 -1 3 -1 3 -2v-1z" />
    <glyph glyph-name="Scaron" unicode="&#x160;" horiz-adv-x="401" 
d="M218 254c0 0 -2 7 -5 4c0 3 -1 7 -3 8c-1 -3 -10 5 -10 7c-1 -1 -3 -1 -5 -1c-6 10 -15 17 -21 25c-3 0 -3 -3 -7 -3c-11 7 -15 20 -26 26c1 3 -2 2 -1 5c-13 4 -16 17 -30 19c2 4 -2 10 -8 11c-2 9 -13 10 -17 18c-4 1 -5 6 -10 5c0 8 -7 15 -12 12c-4 3 0 12 -8 11
c2 4 3 13 -5 13c-1 11 -6 16 -6 32c-3 3 -6 1 -11 4c3 4 -3 11 -9 13c2 2 3 2 4 5c0 4 -4 5 -6 7c-1 1 1 1 2 1c0 3 -2 0 -4 2c0 6 -2 10 -1 16c3 0 7 -1 7 3c1 2 -3 0 -2 2c-2 -2 -5 -1 -7 1c5 9 -3 26 7 30c2 -2 2 2 6 1c-1 11 1 18 6 27c1 3 -2 -2 -2 1c1 4 4 2 6 3
c-1 6 3 7 1 12c2 -1 1 1 4 1c-1 1 -2 6 2 5c-3 1 -1 3 -2 3c2 2 5 2 8 4c-1 5 2 8 3 11c4 -2 3 3 8 1c3 6 3 14 12 13c0 2 3 6 1 8c2 2 5 2 5 4c2 1 2 0 2 -1c1 2 7 3 10 1c18 14 52 13 79 16c2 0 2 3 3 6c7 1 17 -6 28 -9c4 -1 8 0 12 -2c11 -3 22 -7 31 -10
c6 -2 12 -1 16 -7c5 -1 9 -4 11 -9c10 -2 13 -11 20 -17c2 7 8 -11 13 -10c2 -11 5 -23 13 -30c0 -10 2 -16 7 -21c-1 -8 3 -16 2 -24c0 -4 -3 -5 -3 -9c1 -1 3 -6 5 -6c-3 -11 5 -27 4 -39c-2 0 -1 1 -3 2c-1 -7 0 -10 -3 -17c-4 0 -7 0 -10 -1c-3 -7 -2 -20 -8 -29
c-6 0 -8 -6 -11 -10c-3 20 -7 40 -14 58c-1 23 -4 33 -8 53c-1 3 -2 6 -3 8c1 3 0 8 -3 11c2 8 -7 14 -5 23c-6 12 -18 26 -30 34c-3 1 -8 1 -12 3c0 1 1 3 0 3c-4 3 -14 5 -18 5c-8 0 -15 -6 -24 -6c-6 -5 -18 -5 -23 -11c0 1 -2 -4 -2 -4c0 -1 5 -1 -1 -1c1 -3 -1 -4 0 -8
c-10 -3 -11 -6 -12 -17c-1 0 -2 -2 -4 -1c-1 -10 0 -20 -2 -30c-4 3 0 -7 0 -11c1 -9 -3 -26 -1 -35c2 -5 7 -12 7 -18c0 -2 -2 -3 -3 -6c-3 -1 -2 2 -4 2c-1 -3 -3 -5 -1 -8c-1 1 -3 3 -5 3c1 -4 7 -6 5 -11c0 -4 8 0 6 -5c2 1 1 2 1 3c2 -1 1 -7 0 -9c1 0 1 -1 1 -2
c2 0 3 1 3 2c3 0 2 -4 5 -4c-3 -1 -5 -4 -8 -4c2 -3 6 2 6 -2c-2 -2 -4 0 -6 0c0 -4 3 -3 7 -3c-1 -2 0 -2 0 -2c5 -1 7 -2 13 -1c-1 -3 -3 -4 -5 -1c-2 -3 -1 -1 -2 -1c-5 0 -6 -8 -1 -9c4 -2 9 -3 8 -9c4 -1 6 -4 11 -2c0 1 -4 0 -1 1c2 0 2 -4 5 -5c1 -2 0 -3 -2 -2
c0 -2 2 -2 1 -4c3 0 6 2 6 -2c2 5 0 10 4 14c1 -6 -1 -15 7 -17c-1 -1 0 -3 -1 -3c5 -3 10 -6 16 -8c1 -1 0 -2 -1 -4c2 -1 2 -2 5 -1c2 -7 20 -1 25 -6c2 -5 -1 -6 1 -9c2 1 4 0 6 -1c-3 -6 8 -7 8 -13c34 -8 43 -40 65 -59c0 -3 2 -4 1 -7c8 -8 10 -23 18 -32
c3 -32 19 -73 3 -105c-1 -6 -5 -9 -4 -17c-8 -6 -7 -15 -12 -24c-2 1 -6 -1 -6 0c-2 -1 -2 -3 -4 -4c2 -4 2 -7 -1 -11c-2 -1 -2 1 -4 1c-1 -1 3 -3 -3 -2c2 -2 3 -4 0 -5c0 0 1 0 1 -1c-4 -15 -16 -23 -30 -29c1 -4 -2 -5 -1 -8c-4 -1 -10 -2 -10 -9c-7 -2 -7 -2 -14 -1
c-2 -5 -18 -6 -26 -5c0 1 2 0 4 2c-1 2 -6 -1 -8 2c1 -3 -4 -2 -4 -6c-6 3 -10 1 -17 1c-4 8 -18 5 -23 11c-11 -2 -17 3 -24 5c-4 0 -8 0 -8 3c-3 -4 -17 0 -15 6c-5 0 -11 1 -15 2c-2 0 -4 0 -4 -2c-5 2 -9 6 -14 9c-8 17 -30 25 -35 42c-2 2 -4 3 -7 5c2 1 0 1 0 4
c-4 1 -4 5 -8 6c3 5 1 13 -4 14v4c-5 3 -2 8 -7 11v5c-11 16 -17 34 -25 55c3 6 -4 12 -7 19c-8 24 -6 50 -3 78c2 20 -6 42 -3 69c3 -1 0 3 4 2c-1 1 -2 1 -4 0c1 10 -3 19 -1 26c5 -5 14 -16 8 -25c0 -2 4 1 3 -2c3 2 -2 5 3 6c0 -4 1 -6 0 -10c3 -6 11 -4 12 -8
s-2 -1 -2 -3c1 -2 5 -2 4 -6c9 -1 9 -11 13 -14c3 1 4 1 5 0c2 -11 8 -20 9 -32c1 -2 3 -2 6 -2c1 -4 -1 -4 0 -7h-3c-1 -2 2 -1 3 -1c1 -2 -1 -1 -2 -1c1 -4 5 -3 6 -6c-3 2 -2 -5 1 -3c1 -2 -1 -1 -1 -2c17 1 13 -31 22 -42c0 -1 1 -1 2 -1h-4c1 -10 1 -20 3 -29
c3 -3 7 -4 13 -5c12 -17 18 -41 31 -58c5 -2 5 -8 8 -13c6 -11 14 -19 24 -28c-3 -3 5 -1 3 -7c10 -6 28 -5 34 4c3 0 3 2 6 1c3 5 8 9 14 13v4c9 3 10 12 18 16c1 4 4 8 7 11c4 20 -3 43 1 62h4c2 0 -1 6 3 5c0 2 -3 2 -5 4c0 1 1 2 2 3h-5c0 5 -7 9 -3 13c0 7 -13 4 -9 12
c-2 0 -3 7 -1 6c-1 2 -3 2 -5 2c1 4 -3 7 -2 10c-2 2 -4 3 -7 2c1 3 -3 2 -3 4c0 1 1 1 2 1zM11 353c-2 -2 -6 -2 -8 -4v1c0 -1 -1 -3 0 -3s3 2 5 1c-2 -1 -4 -3 -5 -2c0 -4 9 -2 11 -1c-2 2 -4 -1 -4 1c2 2 2 3 1 7zM70 507c4 -4 1 -15 8 -16c1 10 -1 27 -5 33
c3 4 5 20 -1 24c-7 -14 -1 -27 -2 -41zM122 580c4 -1 4 3 5 5c-4 0 -7 -2 -5 -5zM144 600c-7 0 -16 -5 -19 -13c11 0 16 6 19 13zM199 42c-4 -1 -10 1 -10 -3c3 -2 9 0 10 3zM241 31c-1 -1 1 -2 1 0c1 1 9 2 11 6c1 10 11 10 12 19c14 6 21 21 26 34c-4 0 -5 -2 -8 -3
c-3 -10 -14 -12 -19 -21c-10 0 -11 -9 -19 -11c-1 -5 -4 -8 -5 -12c-6 -2 -10 -6 -14 -10c-7 -3 -18 -3 -23 -10c13 -2 30 1 38 8zM215 266c1 3 0 6 -1 7c0 -2 -2 -7 1 -7zM229 266c-2 0 -2 5 -4 7c-3 -2 2 -5 -1 -7c-3 -1 -1 5 -3 2c0 -3 7 -5 8 -2zM71 837c8 2 1 14 0 16
c5 3 10 2 15 0c21 -41 48 -77 74 -114c9 -8 17 -17 24 -27c4 2 7 -1 8 -6c-13 -2 -21 9 -30 1c2 -6 10 -7 9 -16c-8 -4 -18 3 -24 7c-7 5 -13 11 -19 15c-25 21 -47 42 -68 68c-5 7 -9 13 -13 21c-6 11 -13 20 -13 32c7 -1 11 -5 16 -8c3 12 -18 22 -7 33
c19 5 16 -16 28 -22zM331 837c12 6 9 27 28 22c11 -11 -10 -21 -7 -33c5 3 9 7 16 8c0 -12 -7 -21 -13 -32c-4 -8 -8 -14 -13 -21c-21 -26 -43 -47 -68 -68c-6 -4 -12 -10 -19 -15c-6 -4 -16 -11 -24 -7c-1 9 7 10 9 16c-9 8 -17 -3 -30 -1c1 5 4 8 8 6c7 10 15 19 24 27
c26 37 53 73 74 114c5 2 10 3 15 0c-1 -2 -8 -14 0 -16z" />
    </font>
</defs>
</svg>
