<?xml version="1.0" standalone="no"?>
<!DOCTYPE svg PUBLIC "-//W3C//DTD SVG 1.1//EN" "http://www.w3.org/Graphics/SVG/1.1/DTD/svg11.dtd" >
<svg xmlns="http://www.w3.org/2000/svg">
<metadata>
Created by FontPrep 20130207 at Tue Apr 21 08:23:53 2015
 By Tyler Finck
Copyright (c) 2014 by Tyler Bradford Finck. All rights reserved.
</metadata>
<defs>
<font id="866b16b5e2dcd7e8543c3f2eba49f2e4" horiz-adv-x='1024' >
  <font-face 
    font-family="UpstaterShadow"
    font-weight="400"
    font-stretch="normal"
    units-per-em="1000"
    panose-1="2 0 5 8 0 0 0 2 0 4"
    ascent="793"
    descent="-207"
    x-height="540"
    cap-height="750"
    bbox="-71 -526 838 1138"
    underline-thickness="50"
    underline-position="-50"
    unicode-range="U+000D-FB04"
  />
<missing-glyph horiz-adv-x="150" 
 />
    <glyph glyph-name=".notdef" horiz-adv-x="150" 
 />
    <glyph glyph-name=".null" horiz-adv-x="0" 
 />
    <glyph glyph-name="nonmarkingreturn" unicode="&#xd;" horiz-adv-x="158" 
 />
    <glyph glyph-name="NULL" horiz-adv-x="0" 
 />
    <glyph glyph-name="NULL" horiz-adv-x="0" 
 />
    <glyph glyph-name="space" unicode=" " horiz-adv-x="130" 
 />
    <glyph glyph-name="exclam" unicode="!" horiz-adv-x="186" 
d="M58 108l-1 30h33l5 555v57h35v-87l-5 -555h-67zM130 -43h-76v30h41v61h35v-91z" />
    <glyph glyph-name="quotedbl" unicode="&#x22;" horiz-adv-x="274" 
d="M214 780l-2 -30h37l-10 -134h-67v30h32zM103 646v104h34v-104h1v-30h-67l-3 30h35z" />
    <glyph glyph-name="numbersign" unicode="#" horiz-adv-x="434" 
d="M367 214v57h35v-87h-78q-3 -56 -7 -113.5t-7 -113.5h-77l2 30h40l14 227h78zM198 -13l13 197h-8l-15 -227h-77l2 30h40l15 227h45zM375 466v57h35v-87h-70l-8 -135h-37l10 165h70zM225 553h-37l13 196h37zM347 553h-37l12 196h37zM183 466h44l-10 -165l8 135h-7l-9 -135
h-37zM105 436h-31v30h33zM89 184h-23v30h25zM111 553q2 28 3.5 56t3.5 57zM233 553q2 28 3.5 56t3.5 57zM119 690l6 89zM241 690l6 89zM118 666v6.5t1 7.5zM240 666v6.5t1 7.5zM241 690v-10v10zM119 690v-10v10z" />
    <glyph glyph-name="dollar" unicode="$" horiz-adv-x="286" 
d="M125 553q0 -25 0.5 -47t5 -42t14 -40t25.5 -41q24 -30 37.5 -55.5t20 -53t8.5 -61.5t2 -81q0 -40 -10 -71.5t-46 -48.5v-55h-75v30h40v55q19 8 30.5 20t17 27.5t7 34t1.5 38.5q0 48 -1 81.5t-7.5 60.5t-20.5 52t-39 57q-20 25 -29 46.5t-13 44.5t-3.5 48.5t0.5 57.5
q0 13 2 24t15 11q11 0 15 -12.5t5 -29.5q-2 -5 -2 -11v-12v-27zM203 620q0 22 -4 41t-13 33q26 -12 39 -40.5t13 -63.5v-79h-77v30h42v79zM88 196h37q0 -3 -0.5 -7.5t-0.5 -9.5q-1 -8 -1 -16v-16v-12q-5 -13 -15 -13q-13 0 -16.5 17t-3.5 38v19zM182 700q-15 18 -35 26v31
h35v-57zM13 559q0 -32 3 -58.5t10.5 -50.5t20 -47.5t32.5 -48.5q-21 27 -34 50t-20 46.5t-9.5 49.5t-2.5 59zM72 726q-37 -17 -47.5 -48t-11.5 -73q0 21 1.5 39.5t7.5 34t18 27.5t32 20zM94 332q20 -32 26 -60t7 -65q-1 36 -6.5 64.5t-26.5 60.5zM13 139q1 -34 14.5 -60
t39.5 -37q-27 11 -40 36.5t-14 60.5zM72 35q-4 4 -5 7q2 -2 5 -2v-5zM88 196v6.5t1 6.5q0 10 1 13q0 -5 -0.5 -11.5t-1.5 -14.5zM127 579q0 -7 -0.5 -14t-0.5 -12v3v11t1 12zM186 694q-2 2 -2 1q-2 2 -2 3v2zM79 354q4 -6 8 -11.5t7 -10.5q-5 8 -15 22zM127 159
q0 -2 -0.5 -5t-0.5 -6q0 3 0.5 6t0.5 5zM124 141l2 7zM124 138q-1 -1 -1 -3q0 2 1 3zM124 138v3v-3z" />
    <glyph glyph-name="percent" unicode="%" horiz-adv-x="548" 
d="M414 749h44l-104 -338l2 3q-20 -23 -21 -66l-120 -391h-81l9 30h37l243 792zM504 342q0 38 -12 61q23 -8 35 -30t12 -61v-258q0 -51 -23 -74t-62 -23q-24 0 -42 8.5t-29 27.5q15 -6 36 -6q39 0 62 23t23 74v258zM102 327q39 0 61.5 24t22.5 74v257q0 36 -13 60
q22 -9 35 -31t13 -59v-263l-122 -402l102 337q-21 -27 -64 -27q-52 0 -72 36q16 -6 37 -6zM89 672q0 6 2.5 12t9.5 6q8 0 10 -5.5t2 -12.5v-237q0 -8 -3 -13t-11 -5q-6 0 -8 6t-2 12v237zM419 77q-6 0 -8.5 6t-2.5 11v238q0 5 2.5 11t8.5 6t9 -5t3 -12v-237q0 -7 -3 -12.5
t-9 -5.5zM492 403l-2 2zM489 408q0 -1 0.5 -1.5t0.5 -1.5q0 1 -0.5 1.5t-0.5 1.5z" />
    <glyph glyph-name="ampersand" unicode="&#x26;" horiz-adv-x="341" 
d="M202 668q0 26 -4.5 47.5t-14.5 38.5q29 -11 41.5 -42t12.5 -74q0 -40 -3 -73.5t-9.5 -65t-16.5 -62.5t-23 -66q3 -16 11 -47t17 -65h-6v-73q-5 13 -13 43t-17 63.5t-16.5 64t-10.5 44.5q13 36 23 67t16.5 62t9.5 64.5t3 73.5zM155 -53q-32 0 -52.5 11t-33.5 29
q11 -5 23 -7.5t28 -2.5q29 0 49.5 12.5t25.5 25.5l10 -28h71q-6 16 -10 26t-7 18.5t-6 18.5t-8 27q13 20 19.5 53.5t6.5 74.5v24h35v-54q0 -39 -7 -73.5t-19 -54.5l3 -11q4 -13 6.5 -21.5t5.5 -16t6.5 -17t9.5 -24.5h-71l-10 28q-6 -13 -26 -25.5t-49 -12.5zM120 111
q0 -14 1 -27.5t4 -25.5h-6q-11 0 -17.5 8t-10.5 20t-5 26.5t-1 28.5q0 54 8.5 91t13.5 60q7 -20 14.5 -46.5t15.5 -54.5l-7 21q-4 -20 -7 -45t-3 -56zM99 670q0 9 2.5 21t13.5 12q5 0 8 -4.5t4.5 -10t2 -11t0.5 -8.5v-73q0 -19 -5 -46t-10 -45q-2 7 -4.5 18.5t-5 24.5
t-4.5 24.5t-2 19.5v78z" />
    <glyph glyph-name="quotesingle" unicode="'" horiz-adv-x="164" 
d="M90 646l6 104h37l-8 -134h-52l-2 30h19z" />
    <glyph glyph-name="parenleft" unicode="(" 
d="M142 -74l-12 30h69q-24 38 -40 90.5t-26 110t-14.5 114.5t-4.5 103q0 57 3.5 110t11.5 102.5t22.5 97.5t37.5 96h50q-27 -52 -44.5 -103.5t-27.5 -105t-14 -109.5t-4 -118q0 -46 4.5 -103t14.5 -114.5t26 -110t40 -90.5h-92zM189 780q3 8 7 15t8 15q-4 -8 -8 -15t-7 -15z
" />
    <glyph glyph-name="parenright" unicode=")" horiz-adv-x="211" 
d="M47 -74q5 7 8.5 14.5t7.5 15.5h41q19 45 33 97t22 106.5t12 109.5t4 105q0 111 -14.5 209.5t-53.5 196.5h23q46 -105 63 -211t17 -225q0 -50 -4 -105t-12 -109.5t-22 -106.5t-33 -97h-92zM95 810l12 -30z" />
    <glyph glyph-name="asterisk" unicode="*" horiz-adv-x="394" 
d="M318 479l-57 42v-69h-77v30h42v69l57 -42l50 74l-4 -6l39 -24zM308 715l10 7l50 -73l-69 -44l-41 26l75 48zM149 494l-21 -15l-26 37l47 35v-57zM261 736l-35 -24v38h35v-14zM41 583l70 44l-35 22l4 5l-39 25l77 -48zM324 588l-25 17zM261 736l22 16zM327 587l3 -2
q-1 0 -3 2zM324 588l3 -1q-1 0 -1.5 0.5t-1.5 0.5z" />
    <glyph glyph-name="plus" unicode="+" horiz-adv-x="323" 
d="M287 310h-58v-68h-77v30h42v68h58v56h35v-86zM229 426h-35v38h35v-38zM117 310h-25v30h25v-30z" />
    <glyph glyph-name="comma" unicode="," horiz-adv-x="144" 
d="M74 -106h-52l7 30h10l68 154l-13 -30h48z" />
    <glyph glyph-name="hyphen" unicode="-" horiz-adv-x="267" 
d="M249 310h-195v30h160v56h35v-86z" />
    <glyph glyph-name="period" unicode="." horiz-adv-x="142" 
d="M111 -43h-77v30h42v61h35v-91z" />
    <glyph glyph-name="slash" unicode="/" horiz-adv-x="389" 
d="M95 -13l202 763h43l-210 -793h-81l8 30h38z" />
    <glyph glyph-name="zero" unicode="0" horiz-adv-x="282" 
d="M139 -53q-59 0 -80 37q17 -7 45 -7q45 0 70 22.5t25 79.5v609q0 55 -25 80q6 -6 12 -15q23 -9 35.5 -31.5t12.5 -63.5v-609q0 -57 -25 -79.5t-70 -22.5zM104 703q14 0 16.5 -7t2.5 -20v-14q-1 -5 -1 -16v-570q-3 -12 -18 -12q-12 0 -14.5 8.5t-2.5 19.5v584q0 11 2 19
t15 8zM122 76q0 2 0.5 3t0.5 3q0 -2 -0.5 -3t-0.5 -3z" />
    <glyph glyph-name="one" unicode="1" horiz-adv-x="166" 
d="M64 -43v30h41v763h35v-793h-76zM29 569h-16l10 30h6v-30z" />
    <glyph glyph-name="two" unicode="2" horiz-adv-x="251" 
d="M199 688q0 40 -13 64q23 -9 35.5 -31.5t12.5 -62.5q0 -68 -5.5 -123.5t-14.5 -102t-20 -86.5t-22 -79q-14 -45 -26.5 -92.5t-20.5 -100.5h-38q6 54 16.5 99t23 88t25.5 86.5t23.5 94t17 110.5t6.5 136zM46 -43l-3 30h146v57h35v-87h-178zM119 569h-73v30h39v56
q0 23 3.5 35.5t17.5 12.5q11 0 14 -10t3 -27v-7q-2 -6 -2.5 -14.5t-0.5 -19.5v-45q0 -4 -0.5 -7t-0.5 -6v2z" />
    <glyph glyph-name="three" unicode="3" horiz-adv-x="271" 
d="M240 431q0 -18 -4.5 -31t-11 -22t-13.5 -15t-13 -9q6 -3 13 -9t13.5 -15t11 -22.5t4.5 -32.5v-221q0 -62 -25 -84.5t-73 -22.5q-55 0 -79 38q19 -8 44 -8q48 0 73 22.5t25 84.5v221q0 19 -4.5 32.5t-11 22.5t-13.5 15t-13 9q6 3 13 8.5t13.5 14.5t11 22t4.5 32v222
q0 45 -13 70q24 -9 36 -32.5t12 -67.5v-222zM128 668q-6 -7 -6 -41v-58h-76v30h41v58q1 29 4 37.5t17 8.5t17 -8.5t3 -26.5zM109 64q-16 0 -20 11.5t-4 38.5v23h35v-53q0 -5 -0.5 -9t0.5 -8q-5 -3 -11 -3zM108 334q15 -7 19 -25q-4 1 -8 1h-9v23q-1 0 -2 1zM63 -15
q-4 2 -5 2q1 0 5 -2z" />
    <glyph glyph-name="four" unicode="4" horiz-adv-x="299" 
d="M260 269h-35v481h35v-481zM186 -43v30h39v196h37v56h35v-86h-37v-196h-74zM81 269l70 282v-171l-28 -111h-42zM151 153h-105v30h105v-30z" />
    <glyph glyph-name="five" unicode="5" horiz-adv-x="264" 
d="M141 -53q-53 0 -77 38q19 -8 42 -8q45 0 69 26t24 83v313q0 43 -13 69q25 -8 36.5 -33.5t11.5 -65.5v-313q0 -57 -24 -83t-69 -26zM192 693v57h35v-87h-105v-163q-17 -3 -25 -13.5t-10 -17.5v224h105zM123 362q-2 -7 -1.5 -14.5t0.5 -13.5h-76v30h41v16t2 16.5t5.5 12.5
t11.5 5q13 0 15 -11t2 -24v-17zM106 64q-14 0 -16.5 21.5t-2.5 51.5h35v-17q0 -10 -0.5 -19.5t0.5 -17.5q-3 -19 -16 -19zM123 91q0 -2 -0.5 -4t-0.5 -4q0 2 0.5 4t0.5 4z" />
    <glyph glyph-name="six" unicode="6" horiz-adv-x="264" 
d="M199 399q0 44 -13 69q26 -8 37 -33.5t11 -65.5v-317q0 -57 -24 -81.5t-69 -24.5q-30 0 -50.5 8.5t-31.5 28.5q18 -7 47 -7q45 0 69 24.5t24 81.5v317zM105 414q14 0 16.5 -10.5t2.5 -24.5v-11q-2 -6 -2 -12v-11v-270q-5 -12 -16 -12q-14 0 -16.5 9.5t-2.5 23.5v279
q0 11 2.5 25t15.5 14zM107 705q10 0 15.5 -6.5t5.5 -28.5q-5 -5 -5.5 -14t-0.5 -20v-136q-17 -2 -25 -11.5t-10 -18.5v196q0 16 2.5 27.5t17.5 11.5zM163 569v30h40v65q0 53 -23 87q29 -13 43.5 -44t14.5 -73v-65h-75z" />
    <glyph glyph-name="seven" unicode="7" horiz-adv-x="238" 
d="M195 704v46h35v-76l-98 -717h-80l4 30h41zM111 663h-61v30h65z" />
    <glyph glyph-name="eight" unicode="8" horiz-adv-x="274" 
d="M244 421q0 -31 -9.5 -46.5t-20.5 -21.5q11 -5 20.5 -20.5t9.5 -47.5v-231q0 -61 -26.5 -83.5t-72.5 -22.5q-32 0 -54 7.5t-33 29.5q20 -7 52 -7q46 0 72.5 22.5t26.5 83.5v231q0 32 -9 47.5t-21 20.5q12 6 21 21t9 47v232q0 55 -21 79q6 -6 8 -10q23 -9 35.5 -32
t12.5 -67v-232zM122 430q-6 -3 -13 -3q-14 0 -18 11t-4 25v209q0 17 4.5 23.5t18.5 6.5q15 0 19 -7t4 -23v-2q-11 -4 -11 -28v-212zM110 340q12 0 17 -10.5t6 -24.5q-6 -5 -8.5 -14.5t-2.5 -17.5v-207q-3 -1 -12 -1q-15 0 -19 5.5t-4 22.5v210q0 12 6 24.5t17 12.5z" />
    <glyph glyph-name="nine" unicode="9" horiz-adv-x="269" 
d="M68 -17q15 -7 36 -7q48 0 73.5 33t25.5 92v582q0 23 -3.5 39.5t-9.5 28.5q23 -9 35.5 -32t12.5 -66v-582q0 -59 -25.5 -92t-73.5 -33q-23 0 -41 10t-30 27l-4 2zM109 351q-14 0 -16.5 10.5t-2.5 24.5v283q0 13 3 23t15 10q14 0 16.5 -9.5t2.5 -23.5v-10q-2 -5 -2 -10v-10
v-273q-2 -6 -5.5 -10.5t-10.5 -4.5zM107 60q-10 0 -15.5 6.5t-5.5 29.5v40h35v-71q-4 -5 -14 -5zM59 268q11 -4 26 -4q20 0 29.5 11.5t12.5 21.5v-63h-7q-42 0 -58 33h-1z" />
    <glyph glyph-name="colon" unicode=":" horiz-adv-x="163" 
d="M121 462h-76v30h41v60h35v-90zM121 168h-76v30h41v60h35v-90z" />
    <glyph glyph-name="semicolon" unicode=";" horiz-adv-x="170" 
d="M67 140h-53l9 30h9l62 115l-16 -30h51zM122 462h-76v30h41v60h35v-90z" />
    <glyph glyph-name="less" unicode="&#x3c;" horiz-adv-x="261" 
d="M248 433l-99 -100l95 -96v-111l-35 37v104l-95 96l99 100v43l35 38v-111z" />
    <glyph glyph-name="equal" unicode="=" horiz-adv-x="336" 
d="M259 262v57h35v-87h-210v30h175zM259 428v57h35v-87h-210v30h175z" />
    <glyph glyph-name="greater" unicode="&#x3e;" horiz-adv-x="243" 
d="M50 536v8l198 -211l-194 -207v67l-35 -37l194 207zM50 536l-35 38z" />
    <glyph glyph-name="question" unicode="?" horiz-adv-x="287" 
d="M201 663q0 51 -20 82q26 -11 40.5 -40t14.5 -72q0 -69 -7 -136.5t-27 -133.5q-5 -14 -9 -29t-7 -41t-4.5 -69.5t-1.5 -115.5h-77v30h42q0 72 1.5 115.5t4.5 69.5t7 40.5t9 29.5q21 67 27.5 133t6.5 137zM126 653q-3 -10 -3.5 -26t-0.5 -38h-75v30h40q0 37 2 57.5t18 20.5
q12 0 15.5 -13t3.5 -27v-4zM180 -43h-77v30h42v61h35v-91z" />
    <glyph glyph-name="at" unicode="@" horiz-adv-x="508" 
d="M249 695q38 0 61 -21t37 -54q-4 10 -9 18.5t-10 16.5q-10 5 -20.5 7.5t-23.5 2.5q-32 0 -56 -17t-41.5 -45t-29 -63.5t-18.5 -73.5t-9.5 -74.5t-2.5 -65.5q0 -27 3 -60t10 -67t18.5 -65t28.5 -53q-28 15 -46 47.5t-29 72.5t-15.5 81.5t-4.5 73.5q0 29 2.5 65.5t9.5 74.5
t18.5 73.5t29 63.5t41.5 45t56 17zM446 449q0 85 -11.5 156t-49.5 116q30 -18 49 -49t29.5 -70.5t14 -86t3.5 -96.5q0 -57 -9.5 -105t-23 -85t-29 -61.5t-26.5 -34.5q-9 -8 -18.5 -8t-18.5 5.5t-16.5 13t-13.5 14.5q17 -9 32 5q11 10 26.5 34.5t29 61.5t23 85t9.5 105z
M313 251q2 66 4 126q1 25 2 52t1.5 52t1.5 47t1 38l1 1h35q0 -4 -1 -38.5t-2.5 -82t-3.5 -97.5t-3 -84q5 14 8.5 36.5t7.5 58.5q-3 -33 -7 -55.5t-8 -36.5t-8.5 -20.5t-8.5 -8.5q-10 -4 -20 12zM218 229q-5 0 -8.5 13.5t-5.5 33.5t-2.5 43t-0.5 43q0 24 0.5 54t3.5 57
t9.5 45t18.5 18q11 0 18.5 -12t8.5 -38q-2 10 -2 16q-8 -8 -12.5 -27t-6.5 -44t-2.5 -51.5t-0.5 -47.5v-38.5t2 -39.5q-9 -25 -20 -25zM440 36q-35 -44 -80 -60.5t-99 -16.5q-41 0 -71.5 14.5t-53.5 39.5q-27 17 -49 47q24 -32 58 -51.5t81 -19.5q54 0 99 16.5t80 60.5
l-24 22l2 2zM285 197q5 -5 13.5 -15.5t19.5 -18.5q-9 -16 -24.5 -28.5t-47.5 -12.5q-17 0 -29 8.5t-20 23.5q8 -2 14 -2q35 0 50 14t24 31zM227 72q-23 0 -39 9h-1q18 -9 40 -9zM318 163l8 -5l-4 2t-4 3zM86 62q1 -1 1 -2z" />
    <glyph glyph-name="A" unicode="A" horiz-adv-x="304" 
d="M187 750h33l66 -793h-77l-2 30h44zM48 -43l2 30h40l17 215h51l2 -30h-18q-4 -53 -8.5 -107.5t-8.5 -107.5h-77zM150 326l-3 -37h-36l20 365zM187 750l-2 30zM152 289l-2 37v2z" />
    <glyph glyph-name="B" unicode="B" horiz-adv-x="266" 
d="M235 415q0 -33 -10 -43.5t-21 -15.5l-3 -2q11 -5 22.5 -19t11.5 -44v-232q0 -33 -3.5 -53.5t-13 -31t-25 -14t-39.5 -3.5h-108v30h73q24 0 39.5 3.5t25 14t13 31t3.5 53.5v232q0 31 -11.5 44.5t-22.5 18.5q6 3 12 6.5t11 9.5t8 16.5t3 28.5v233q0 23 -1.5 40t-6.5 29
q24 -6 33.5 -27.5t9.5 -71.5v-233zM106 693q15 0 18 -6.5t3 -23.5h-5v-230q-6 -7 -26 -7h-9v267h19zM96 340q17 0 23.5 -5t7.5 -25h-5v-233q-5 -3 -16 -3h-19v266h9zM124 437l3 16zM192 747q-5 11 -4.5 10.5t4.5 -10.5zM122 433l2 4zM126 86q0 -3 -1 -4q1 1 1 4zM127 92
q0 -4 -1 -6q1 2 1 6zM124 80q0 -1 -1 -2z" />
    <glyph glyph-name="C" unicode="C" horiz-adv-x="264" 
d="M109 708q12 0 17.5 -6t6.5 -32q0 2 -0.5 3t-0.5 3q-12 -4 -12 -29v-590q-2 -1 -5.5 -1h-6.5q-12 0 -17.5 7.5t-5.5 26.5v587q0 31 24 31zM107 -21q34 0 53.5 8.5t29.5 26t12.5 44t2.5 62.5v85h35v-115q0 -36 -2.5 -62.5t-12.5 -44t-29.5 -26t-53.5 -8.5q-31 0 -53 8
t-33 29q20 -7 51 -7zM205 682q0 42 -12 66q26 -9 36.5 -32t10.5 -64v-150h-72v30h37v150zM130 70q-3 -10 -10 -13q7 3 10 13z" />
    <glyph glyph-name="D" unicode="D" horiz-adv-x="274" 
d="M46 -43v30h80q24 0 39.5 5.5t24.5 18.5t12 34.5t3 53.5v569q0 26 -2 45t-8 33q27 -8 36 -32.5t9 -75.5v-569q0 -32 -3 -53.5t-12 -34.5t-24.5 -18.5t-39.5 -5.5h-115zM122 75h1q-2 -1 -9 -1h-27v619h27q14 0 16.5 -8.5t2.5 -25.5v4h-11v-588z" />
    <glyph glyph-name="E" unicode="E" horiz-adv-x="248" 
d="M122 663v-237h-35v267h97v57h35v-87h-97zM167 340v56h35v-86h-80v-236h-35v266h80zM184 -13v57h35v-87h-173v30h138z" />
    <glyph glyph-name="F" unicode="F" horiz-adv-x="241" 
d="M167 340v56h35v-86h-80v-353h-76v30h41v353h80zM122 663v-237h-35v267h97v57h35v-87h-97z" />
    <glyph glyph-name="G" unicode="G" horiz-adv-x="264" 
d="M107 708q14 0 19 -7t6 -32q0 2 -0.5 3.5t-0.5 3.5q-8 -4 -10 -12.5t-2 -18.5v-299h-5v-86h5v-203q1 0 1.5 0.5t1.5 0.5q-6 -3 -14 -3q-13 0 -18.5 9t-5.5 23v588q0 13 4 23t19 10zM205 -13v329h35v-359h-46l-5 30h16zM205 678q0 45 -12 69q26 -10 36.5 -33.5t10.5 -65.5
v-176h-73v30h38v176zM159 -13h25q-6 -12 -20.5 -24.5t-37.5 -12.5q-50 0 -69 35q17 -5 34 -5q14 0 25 5t18.5 12.5t12 15t5.5 13.5h1v2zM153 28q0 -1 -0.5 -1t-0.5 -1q0 1 0.5 1t0.5 1z" />
    <glyph glyph-name="H" unicode="H" horiz-adv-x="273" 
d="M203 -13v763h35v-793h-75v30h40zM128 310h-7v-353h-75v30h40v353h42v-30zM121 426h-35v324h35v-324z" />
    <glyph glyph-name="I" unicode="I" horiz-adv-x="163" 
d="M55 -43v30h42v763h35v-793h-77z" />
    <glyph glyph-name="J" unicode="J" horiz-adv-x="273" 
d="M146 -51q-31 0 -53.5 7.5t-35.5 30.5q20 -8 54 -8q45 0 72.5 21t27.5 79v671h35v-701q0 -58 -27.5 -79t-72.5 -21zM110 55q-7 0 -12 1.5t-8.5 7t-5 17t-1.5 31.5v93h35v-123v-14.5t1 -11.5q-3 -1 -9 -1z" />
    <glyph glyph-name="K" unicode="K" horiz-adv-x="274" 
d="M160 353q26 -98 52.5 -198t52.5 -198h-79l-7 30h51l-105 396l97 367h43zM84 274l35 -150v-167h-73v30h38v287zM119 643l-35 -150v257h35v-107z" />
    <glyph glyph-name="L" unicode="L" horiz-adv-x="249" 
d="M122 74h-35v676h35v-676zM46 -43v30h145v57h35v-87h-180z" />
    <glyph glyph-name="M" unicode="M" horiz-adv-x="371" 
d="M262 -43v30h41v763h35v-793h-76zM173 374l-10 -73l-6 -71l-6 73l-60 447h31l50 -377v2zM130 -13l-8 83v-113h-75v30h40v470l10 -125zM227 35l-8 -78h-54l-3 30h22l35 343l8 130v-425z" />
    <glyph glyph-name="N" unicode="N" horiz-adv-x="312" 
d="M278 -43h-77l-5 30h47v763h35v-793zM88 437l35 -202v-278h-77v30h42v450zM91 750h30l45 -271v-200l-11 86z" />
    <glyph glyph-name="O" unicode="O" horiz-adv-x="270" 
d="M240 90q0 -36 -2.5 -62.5t-12.5 -44t-29.5 -26t-53.5 -8.5q-31 0 -53 8t-33 29q20 -7 51 -7q34 0 53.5 8.5t29.5 26t12.5 44t2.5 62.5v562q0 42 -12 66q26 -9 36.5 -32t10.5 -64v-562zM109 708q12 0 17 -6t7 -26q-13 -4 -13 -29v-590q-3 -1 -12 -1q-12 0 -17.5 7.5
t-5.5 26.5v587q0 31 24 31z" />
    <glyph glyph-name="P" unicode="P" horiz-adv-x="266" 
d="M46 -43v30h41v353h37q20 1 34.5 4.5t23.5 14t13.5 29t4.5 48.5v242q0 46 -7 68q26 -7 34 -28.5t8 -69.5v-242q0 -30 -4.5 -48.5t-13.5 -29t-23.5 -14t-34.5 -4.5h-37v-353h-76zM87 426v267h24q12 0 14 -9t2 -22v1h-5v-234q-5 -3 -11 -3h-24z" />
    <glyph glyph-name="Q" unicode="Q" horiz-adv-x="280" 
d="M240 90q0 -35 -3 -63t-13 -45l55 -85h-78l-16 30h59l-55 85q11 17 13.5 44t2.5 64v562q0 42 -12 66q26 -9 36.5 -32t10.5 -64v-562zM109 708q12 0 17 -6t7 -26q-13 -4 -13 -29v-590h2q-4 -1 -14 -1q-12 0 -17.5 7.5t-5.5 26.5v587q0 31 24 31zM107 -21q8 0 15.5 0.5
t14.5 1.5l17 -32h-12q-31 0 -53 8t-33 29q20 -7 51 -7zM14 33q10 -36 42 -47q-32 11 -42 47z" />
    <glyph glyph-name="R" unicode="R" horiz-adv-x="273" 
d="M235 403q0 -26 -3.5 -42t-8.5 -25t-10 -12t-8 -4l41 -363h-71l-3 30h39l-41 363q2 1 7 4t10 11.5t9 24.5t4 43v242q0 24 -2 41.5t-7 29.5q26 -7 35 -30t9 -71v-242zM106 340l16 -166v-217h-76v30h41v353h19zM87 426v267h20q14 0 17.5 -9t3.5 -25v4h-6v-232q-7 -5 -17 -5
h-18z" />
    <glyph glyph-name="S" unicode="S" horiz-adv-x="254" 
d="M110 708q14 0 19.5 -7t6.5 -30q0 2 -0.5 3t-0.5 3q-8 -2 -12 -9.5t-4 -24.5q-1 -79 18.5 -150t42.5 -140q22 -66 40 -131.5t18 -136.5q0 -24 -2.5 -48t-12 -43.5t-28.5 -32t-52 -12.5q-58 0 -81 38q21 -8 46 -8q33 0 52 12.5t28.5 32t12 43.5t2.5 48q0 72 -18.5 139
t-41 134.5t-41 137.5t-18.5 147q0 21 6.5 28t19.5 7zM204 668q0 51 -16 80q28 -11 39.5 -39t11.5 -71v-136h-68v30h33v136zM107 56q-14 0 -19 12t-5 40v97h35v-146q1 0 3 2q-5 -5 -14 -5z" />
    <glyph glyph-name="T" unicode="T" horiz-adv-x="245" 
d="M235 663h-56v-706h-77v30h42v706h56v57h35v-87zM67 663h-21v30h21v-30z" />
    <glyph glyph-name="U" unicode="U" horiz-adv-x="272" 
d="M58 -13q19 -8 50 -8q45 0 72 21.5t27 79.5v670h35v-700q0 -58 -27 -79.5t-72 -21.5q-61 0 -84 38h-1zM109 55q-12 0 -17.5 7.5t-5.5 27.5v660h35v-692l1 1q-4 -4 -13 -4z" />
    <glyph glyph-name="V" unicode="V" horiz-adv-x="280" 
d="M170 -13l64 763h38l-67 -793h-90l-3 30h58zM142 498l-11 -174l-6 -130l-6 130l-26 426h33l15 -254v7z" />
    <glyph glyph-name="W" unicode="W" horiz-adv-x="389" 
d="M292 -13l45 763h37l-47 -793h-75l-3 30h43zM179 368l14 -140l-28 -271h-75l-2 30h42l39 380l5 93zM207 750h33l11 -171l-11 -200l-4 -97l-5 92zM126 595l-19 -220l-4 -93l-4 95l-13 373h34l5 -156v4z" />
    <glyph glyph-name="X" unicode="X" horiz-adv-x="287" 
d="M241 750h41l-81 -397l81 -396h-80l-5 30h50l-81 396zM126 230l20 -119l-26 -154h-80l6 30h39zM90 750h30l21 -125l-15 -88z" />
    <glyph glyph-name="Y" unicode="Y" horiz-adv-x="270" 
d="M230 750h40l-76 -438v-355h-71v30h36v355zM88 750h31l19 -135l-15 -111z" />
    <glyph glyph-name="Z" unicode="Z" horiz-adv-x="256" 
d="M200 707v43h35v-73l-104 -603h-40zM46 -43v30h154v57h35v-87h-189zM115 663h-69v30h74z" />
    <glyph glyph-name="bracketleft" unicode="[" horiz-adv-x="256" 
d="M168 723v57h35v-87h-53v-644h-35v674h53zM74 -68v30h94v57h35v-87h-129z" />
    <glyph glyph-name="backslash" unicode="\" horiz-adv-x="384" 
d="M103 750h27l212 -793h-81l-8 30h54z" />
    <glyph glyph-name="bracketright" unicode="]" horiz-adv-x="230" 
d="M159 -38v818h35v-848h-129v30h94zM83 693h-18v30h18v-30z" />
    <glyph glyph-name="asciicircum" unicode="^" horiz-adv-x="464" 
d="M291 429l-84 189q-24 -54 -50 -109.5t-49 -109.5l-68 39l3 8l-38 22l68 -39l110 244zM232 750h22l140 -312l-68 -39l-18 40l51 29zM232 750l-13 30z" />
    <glyph glyph-name="underscore" unicode="_" horiz-adv-x="423" 
d="M417 -158h-371v30h336v57h35v-87z" />
    <glyph glyph-name="grave" unicode="`" horiz-adv-x="176" 
d="M110 928h13l70 -94h-69l-24 30h58zM110 928l-22 30z" />
    <glyph glyph-name="a" unicode="a" horiz-adv-x="254" 
d="M198 464q0 48 -18 75q53 -23 53 -105v-477h-49l-3 30h17v477zM123 241q-5 -10 -5 -20v-147q-5 -10 -14 -10q-13 0 -17 10t-4 24v153q0 12 5.5 21t13 16.5t13.5 13t8 9.5v-70zM102 379l3 2h-59v30h38q1 51 3.5 71t17.5 20q12 0 15.5 -13.5t4.5 -47.5q0 5 -0.5 9.5
t-0.5 9.5q-5 -14 -5 -69q-3 -2 -6.5 -5.5t-8.5 -6.5h-2zM149 -13h26q-5 -12 -16.5 -23.5t-29.5 -11.5q-51 0 -69 35q15 -5 34 -5q14 0 23.5 6.5t15.5 15.5t9 18t3 13zM123 99q-1 -7 -2 -13.5t-3 -11.5q2 5 3 11.5t2 13.5z" />
    <glyph glyph-name="b" unicode="b" 
d="M202 464q0 20 -4.5 40.5t-14.5 37.5q13 -4 23.5 -15.5t17 -26.5t10 -32.5t3.5 -33.5v-363q0 -26 -3 -48t-10.5 -38t-21.5 -24.5t-35 -8.5q-20 0 -35.5 10.5t-24.5 24.5q12 -5 25 -5q21 0 35 8.5t21.5 24.5t10.5 38t3 48v363zM130 449q-5 -8 -6.5 -17t-1.5 -17v-338
q-4 -4 -13 -4q-14 0 -18 12t-4 24v336q0 12 4.5 27.5t17.5 15.5q14 0 17.5 -10t3.5 -24v-5zM87 750h35v-178q2 0 3 1q-12 -3 -24 -12.5t-14 -24.5v214zM65 35q2 -11 11 -24t23 -21l-3 -33h-50v30h15z" />
    <glyph glyph-name="c" unicode="c" horiz-adv-x="249" 
d="M107 502q11 0 15 -11.5t5 -28.5q-4 -6 -5 -14.5t-1 -16.5v-363q-5 -9 -14 -9q-12 0 -16.5 14t-4.5 25v363q0 13 4 27t17 14zM139 -47q-49 0 -74 37q-27 12 -41 41q23 -48 80 -48q30 0 48.5 12.5t28 33t13 48t4.5 57.5v6h35v-36q-1 -30 -4.5 -57.5t-13 -48t-28 -33
t-48.5 -12.5zM198 460q0 49 -20 80q26 -11 40.5 -39.5t14.5 -70.5v-69h-71v30h36v69zM20 41q1 -3 2 -5.5t2 -4.5q-1 2 -2 4.5t-2 5.5z" />
    <glyph glyph-name="d" unicode="d" horiz-adv-x="264" 
d="M202 -13v763h35v-793h-50l-3 30h18zM118 79l1 2q-5 -8 -15 -8q-13 0 -17 10t-4 24v347q0 14 3.5 24t17.5 10q11 0 15.5 -12t6.5 -23q-5 -5 -6.5 -12.5t-1.5 -16.5v-345zM152 -13h23q-8 -14 -23.5 -24.5t-35.5 -10.5q-40 0 -56 33q9 -3 21 -3q28 0 46 18t21 35z" />
    <glyph glyph-name="e" unicode="e" horiz-adv-x="258" 
d="M204 461q0 45 -21 77q26 -12 41 -40.5t15 -66.5v-206h-117v-160q-5 -5 -12 -5q-12 0 -17.5 13t-5.5 30v152h117v206zM142 -46q-51 0 -76 38q19 -8 41 -8q30 0 49 12t29.5 33t14.5 49.5t4 60.5v1h35v-31q0 -32 -4 -60.5t-14.5 -49.5t-29.5 -33t-49 -12zM109 502
q12 0 15.5 -13t4.5 -25q-5 -7 -6 -16t-1 -17v-92h-35v122q0 14 4 27.5t18 13.5z" />
    <glyph glyph-name="f" unicode="f" horiz-adv-x="206" 
d="M174 488v56h35v-86h-48v-501h-76v30h41v501h48zM126 659q0 23 7 29.5t19 6.5h29v55h35v-85h-29q-12 0 -19 -6.5t-7 -29.5v-55h-35v85zM50 458h-6v30h6v-30z" />
    <glyph glyph-name="g" unicode="g" horiz-adv-x="266" 
d="M108 -181q45 0 70.5 26.5t25.5 83.5v615h35v-645q0 -57 -25.5 -83.5t-70.5 -26.5q-57 0 -80 38q21 -8 45 -8zM108 502q11 0 16 -14.5t6 -26.5q0 2 -0.5 2.5t-0.5 2.5q-5 -5 -7 -14t-2 -18v-362q-5 -6 -13 -6q-13 0 -17.5 9.5t-4.5 23.5v365q0 14 5 26t18 12zM129 -46
q-8 -2 -12 -2q-21 0 -34 9t-21 24q9 -3 20 -3q9 0 17.5 5t14.5 11.5t10 14t5 12.5v-71zM108 -101q-10 0 -15 12h31v-2q-5 -10 -16 -10z" />
    <glyph glyph-name="h" unicode="h" horiz-adv-x="270" 
d="M204 464q0 46 -16 77q28 -9 39.5 -39t11.5 -68v-477h-72v30h37v477zM110 488q12 0 16.5 -11.5t5.5 -24.5q-7 -8 -8.5 -20.5t-1.5 -21.5v-453h-76v30h41v453q0 6 1 14.5t3 16t6.5 12.5t12.5 5zM122 572q-15 -5 -24 -16.5t-11 -20.5v215h35v-178z" />
    <glyph glyph-name="i" unicode="i" horiz-adv-x="151" 
d="M120 -43h-75v30h40v557h35v-587zM120 601h-75v30h40v59h35v-89z" />
    <glyph glyph-name="j" unicode="j" horiz-adv-x="151" 
d="M-5 -182h-2q21 1 39 7.5t31.5 21.5t21 39.5t7.5 61.5v595h35v-625q0 -39 -8.5 -64t-23.5 -40t-34.5 -20.5t-41.5 -5.5h-24v30zM126 601h-75v30h40v59h35v-89z" />
    <glyph glyph-name="k" unicode="k" 
d="M148 258l117 -301h-81l-10 30h56l-117 301l104 256h47zM122 497l-35 -99v352h35v-253zM87 182l35 -110v-115h-75v30h40v195z" />
    <glyph glyph-name="l" unicode="l" horiz-adv-x="148" 
d="M120 -43h-75v30h40v763h35v-793z" />
    <glyph glyph-name="m" unicode="m" horiz-adv-x="379" 
d="M315 463q0 23 -3.5 43.5t-12.5 36.5q29 -9 40 -40t11 -70v-476h-76v30h41v476zM128 459q-5 -9 -5 -21.5v-25.5v-455h-75v30h40v447v23t2 21.5t7 16t15 6.5t13 -11.5t3 -25.5v-5zM239 459q-4 -9 -4 -25v-477h-72v30h37v477q0 14 4 25.5t18 11.5q13 0 15 -12t2 -25v-5z" />
    <glyph glyph-name="n" unicode="n" 
d="M202 462q0 23 -4.5 43.5t-15.5 37.5q28 -11 41.5 -42t13.5 -69v-475h-72v30h37v475zM130 463q-5 -8 -6.5 -17t-1.5 -16v-473h-76v30h41v473q0 11 4 24.5t18 13.5q11 0 16 -10.5t5 -24.5z" />
    <glyph glyph-name="o" unicode="o" 
d="M141 -47q-25 0 -44 10t-31 27q19 -7 40 -7q42 0 69 32.5t27 85.5v359q0 48 -21 80q26 -12 41 -40.5t15 -69.5v-359q0 -53 -27 -85.5t-69 -32.5zM107 502q13 0 16 -14.5t3 -26.5q-4 -6 -5 -14t-1 -16v-365l1 1q-6 -8 -15 -8q-12 0 -16.5 14.5t-4.5 26.5v361q0 13 4 27
t18 14zM66 -9v-1l-3 2q1 -1 3 -1z" />
    <glyph glyph-name="p" unicode="p" horiz-adv-x="260" 
d="M198 462q0 50 -16 79q28 -10 39.5 -39t11.5 -70v-361q0 -26 -2.5 -47.5t-10 -38t-21 -25.5t-35.5 -9q-15 0 -24.5 9.5t-14.5 20.5h4q22 0 35.5 9t21 25.5t10 38t2.5 47.5v361zM127 456q-4 -11 -4 -30v-354v1q-3 -10 -15 -10q-8 0 -12 5.5t-5.5 13t-2 16.5t-0.5 15v343
q0 16 3.5 29t17.5 13q11 0 14.5 -10t3.5 -24v-8zM87 24q2 -11 10 -25t25 -17v-193h-76v30h41v205zM122 -18q1 0 1.5 -0.5t1.5 -0.5q-1 0 -1.5 0.5t-1.5 0.5z" />
    <glyph glyph-name="q" unicode="q" horiz-adv-x="259" 
d="M199 -181v725h35v-755h-76v30h41zM118 77q-5 -14 -16 -14q-13 0 -16 11t-3 23v367q0 14 3.5 24t14.5 10q14 0 17.5 -13t3.5 -29v2q-4 -8 -4 -24v-357zM123 -48q-2 0 -3.5 -0.5t-3.5 -0.5q-21 0 -34 9t-21 24q9 -3 20 -3q19 0 29 16.5t13 29.5v-75z" />
    <glyph glyph-name="r" unicode="r" horiz-adv-x="206" 
d="M194 452h-4q-2 0 -5 0.5t-6 0.5q-8 0 -17.5 -2t-18 -9t-14.5 -20t-6 -34v-431h-75v30h40v431q0 21 6 34t14.5 20t18 9t17.5 2q3 0 6 -0.5t5 -0.5h4v63q7 2 13.5 3t11.5 1h10v-97z" />
    <glyph glyph-name="s" unicode="s" horiz-adv-x="257" 
d="M146 -47q-50 0 -75 38q18 -8 40 -8q28 0 46.5 11.5t29.5 29t15.5 39t4.5 42.5q0 59 -18 103t-39 83t-39 79.5t-18 91.5q0 12 4 27.5t18 15.5q21 0 22 -57q-1 5 -1 9.5v9.5q-5 -7 -6.5 -17t-1.5 -18q0 -48 17 -88.5t37 -77.5q21 -39 40.5 -85.5t19.5 -105.5
q0 -21 -4.5 -42.5t-15.5 -39t-29.5 -29t-46.5 -11.5zM211 445q0 29 -5 53t-16 42q30 -13 43 -46.5t13 -78.5v-52h-74v30h39v52zM125 64q-5 -9 -13 -9q-13 0 -18 19.5t-5 44.5v18h35v-48v-13t1 -12z" />
    <glyph glyph-name="t" unicode="t" horiz-adv-x="244" 
d="M209 458h-45v-501h-75v30h40v501h45v56h35v-86zM164 574h-35v116h35v-116zM54 458h-13v30h13v-30z" />
    <glyph glyph-name="u" unicode="u" horiz-adv-x="260" 
d="M238 -43h-46l-5 30h16v557h35v-587zM109 63q-14 0 -19 10t-5 24v447h35v-477q-4 -4 -11 -4zM157 -13h21q-8 -14 -20.5 -24.5t-29.5 -10.5q-47 0 -66 35q15 -5 31 -5q12 0 21.5 5t16.5 13t12 17.5t7 17.5z" />
    <glyph glyph-name="v" unicode="v" horiz-adv-x="268" 
d="M163 -13l46 557h38l-49 -587h-104l-3 30h72zM111 104q-4 99 -9.5 214.5t-13.5 225.5h33l6 -97q-5 -89 -9.5 -177.5t-6.5 -165.5z" />
    <glyph glyph-name="w" unicode="w" horiz-adv-x="332" 
d="M289 544h37l-40 -587h-68l-4 30h37zM154 251l15 -137l-18 -157h-67l-2 30h34l30 265l4 70zM98 245l-5 -69l-2 68l-15 300h34l5 -105v2zM175 544h33l10 -106l-9 -195l-2 -66l-4 66z" />
    <glyph glyph-name="x" unicode="x" horiz-adv-x="260" 
d="M151 291l61 253h42l-68 -283l75 -304h-75l-7 30h47zM151 -13l-20 91l-28 -121h-73l7 30h31l43 185zM82 544h29l14 -70l-14 -73z" />
    <glyph glyph-name="y" unicode="y" horiz-adv-x="256" 
d="M40 -182q31 1 51 16.5t32 41t18 58t10 65.5l60 545h39l-64 -575q-4 -34 -10 -66.5t-18 -58t-32.5 -41t-53.5 -15.5h-32v30zM131 456l-13 -178l-4 -80l-4 80l-19 266h33l6 -91v5z" />
    <glyph glyph-name="z" unicode="z" horiz-adv-x="259" 
d="M194 501v43h35v-73l-94 -398h-42zM46 -43v30h148v56h35v-86h-183zM104 458h-58v30h65z" />
    <glyph glyph-name="braceleft" unicode="{" horiz-adv-x="244" 
d="M162 724q8 0 14.5 -0.5t8.5 -0.5v57h35v-87h-6q-4 0 -8 0.5t-9 0.5q-12 0 -23 -3t-11 -12v-273q0 -9 -3.5 -18t-9 -17t-12.5 -13t-14 -6q15 -4 27 -19.5t12 -32.5v-259h-4q-12 0 -21.5 3t-9.5 13v273q0 17 -12.5 33.5t-28.5 18.5q15 0 28 18t13 36v273q0 9 11 12t23 3z
M181 -74q-41 0 -71 31q-3 3 -7 9q19 -10 43 -10h39v55q2 -1 4.5 -0.5t4.5 0.5q13 0 18 1q2 0 4 0.5t4 0.5v-87h-39zM51 313q-6 2 -7 2v15q7 -5 7 -10v-7zM75 -12q11 -13 24 -20q-14 8 -24 19v1zM183 43q-8 -2 -18 -2q8 0 12 1q4 0 6 1zM20 342q6 -2 12.5 -4.5t11.5 -6.5v-1
q-5 4 -11.5 7t-12.5 5zM14 344l6 -2q-2 0 -6 2zM57 17q2 -4 2 -5q0 1 -2 5zM37 427q-4 -2 -6 -2q2 0 6 2zM10 345q1 0 1 -0.5t1 -0.5z" />
    <glyph glyph-name="bar" unicode="|" horiz-adv-x="206" 
d="M166 -74h-76v30h41v824h35v-854z" />
    <glyph glyph-name="braceright" unicode="}" horiz-adv-x="244" 
d="M37 -74v30h4q42 0 71 32v-1q12 14 18 32t6 38v263q0 5 5.5 9.5t12.5 7.5t14 5.5t10 2.5v57q8 -7 18.5 -9.5t16.5 -2.5v-75q-3 0 -10 -2.5t-14 -5.5t-12.5 -7.5t-5.5 -9.5v-263q0 -19 -6.5 -37.5t-17.5 -31.5q-30 -32 -71 -32h-39zM136 709q0 36 -19 61q23 -11 38.5 -34.5
t15.5 -56.5v-258q-10 2 -22.5 7.5t-12.5 17.5v263zM59 694q-5 0 -9 -0.5t-7 -0.5h-6v30q-2 0 -3 0.5t-2 0.5q11 -1 19 -4t8 -11v-15zM91 380q-12 -6 -21.5 -19.5t-10.5 -27.5q1 14 10.5 28t21.5 19zM97 790q-5 5 -11.5 8t-12.5 5q12 -4 24 -13zM7 723q3 0 6 0.5t7 0.5
q-5 -1 -12 -1h-1zM21 41q-9 0 -17 2q2 -1 6 -1q3 -1 11 -1zM71 804q-4 2 -7.5 3t-8.5 2q5 -1 8.5 -2t7.5 -3zM117 770q-2 2 -4 6zM65 411q3 -7 8 -14q-5 7 -8 14zM60 424q1 -5 5 -13q-4 8 -5 13zM91 380l6 2h2zM88 384l-7 5zM88 384q6 -2 8 -2q-2 0 -8 2zM176 420q-3 0 -5 1
q2 -1 5 -1zM51 809q-2 1 -7 1q5 0 7 -1zM98 790l8 -7zM73 803q0 1 -2 1q2 0 2 -1zM59 432q0 -4 1 -6q-1 2 -1 6zM60 426v-2v2zM73 397l2 -2zM51 809h4h-4zM97 790h1h-1z" />
    <glyph glyph-name="asciitilde" unicode="~" horiz-adv-x="295" 
d="M229 558q-16 0 -31.5 8.5t-27.5 16.5q-9 7 -17 11.5t-15 4.5q-10 0 -23.5 -14.5t-21.5 -24.5l-28 39q8 10 19 20t19 10t18 -6.5t21.5 -14t24.5 -14t27 -6.5q8 0 17.5 1.5t20 8t23 18.5t26.5 33l-17 22l6 8l46 -60q-14 -21 -26.5 -33t-23 -18.5t-20 -8t-17.5 -1.5z
M156 697q-9 6 -18.5 12t-19.5 9q10 -3 19 -8.5t18 -11.5q0 -1 1 -1zM186 680q-11 3 -23 12q12 -9 23 -12zM212 687l5 4zM114 719q-2 1 -5 1q3 0 5 -1zM118 718q-2 1 -4 1q3 0 4 -1zM62 595l-4 -5zM105 721q1 0 1.5 -0.5t1.5 -0.5q-1 0 -1.5 0.5t-1.5 0.5zM156 697l4 -3z
M189 679h3h-3zM62 595q0 1 2 3q-2 -2 -2 -3zM189 679q-2 0 -3 1q1 -1 3 -1z" />
    <glyph glyph-name="exclamdown" unicode="&#xa1;" horiz-adv-x="174" 
d="M90 599h35l5 -555v-87h-78v30h43v87zM130 659h-76v30h41v61h35v-91zM90 599v30v-30z" />
    <glyph glyph-name="cent" unicode="&#xa2;" horiz-adv-x="260" 
d="M123 495q-1 -5 -1 -16v-338q0 2 0.5 3t0.5 3q0 -2 -0.5 -4.5t-0.5 -4.5v-1v1q-2 -15 -8 -20.5t-12 -2.5t-10.5 14t-4.5 29v351q0 22 5.5 33t12.5 11.5t12.5 -9.5t5.5 -29v-20zM142 40q19 8 30.5 21.5t17 30.5t7.5 37.5t2 41.5h35v-12q0 -23 -1.5 -45.5t-7.5 -42
t-17.5 -35.5t-30.5 -26v-53h-77v30h42v53zM158 436v30h41v43q0 28 -4.5 48.5t-15.5 36.5q28 -18 41.5 -45.5t13.5 -69.5v-43h-76zM177 597q-15 18 -35 29v34h35v-63zM11 150q2 -35 13.5 -62.5t37.5 -43.5q-28 16 -39 43t-12 63zM65 623q-27 -11 -39 -37.5t-14 -58.5
q2 32 13.5 58.5t39.5 37.5zM179 594l-2 2v1q2 -2 2 -3z" />
    <glyph glyph-name="sterling" unicode="&#xa3;" horiz-adv-x="316" 
d="M231 411v57h35v-87h-89v-271q0 -21 -5 -36h-54q7 4 15.5 19t8.5 47v271h89zM251 -13v57h35v-87h-240v30h205zM179 654q-2 -5 -2 -11v-14v-131h-35v161q0 24 6 36t12.5 12.5t12.5 -9.5t6 -31v-13zM214 559v30h40v70q0 52 -18 82q53 -22 53 -112v-70h-75zM66 381h-16v30h16
v-30zM236 741l-1 1q-6 9 -13 16t-17 12q20 -9 31 -29zM205 770q-12 7 -30 9q16 -1 30 -9zM165 780q2 0 3 -0.5t3 -0.5q-2 0 -3 0.5t-3 0.5zM61 97l2 7z" />
    <glyph glyph-name="yen" unicode="&#xa5;" horiz-adv-x="297" 
d="M265 780l-7 -30h42l-81 -335h-42zM239 162v57h35v-87h-67v-175h-77v30h42v175h67zM239 328v57h35v-87h-67v-49h-35v79h67zM90 750h28l30 -133l37 163l-50 -224zM95 132h-28v30h28v-30zM95 298h-28v30h28v-30z" />
    <glyph glyph-name="section" unicode="&#xa7;" horiz-adv-x="302" 
d="M163 598q0 -32 4.5 -54t11.5 -38.5t16.5 -28.5t19.5 -24q11 -13 22 -27t19.5 -34.5t14 -49.5t5.5 -71q0 -20 -0.5 -41t-4.5 -40t-13 -35t-25 -27q2 -17 2 -34.5v-34.5q0 -33 -2.5 -61.5t-12 -49.5t-28 -33.5t-50.5 -12.5q-54 0 -77 37q17 -7 42 -7q32 0 50.5 12.5
t28 33.5t12 49.5t2.5 61.5v34.5t-2 34.5q17 11 26 27t12.5 35t4 39.5t0.5 41.5q0 53 -8.5 86t-21 54.5t-27 37t-27 34t-21 45t-8.5 70.5v30q0 5 0.5 16t3.5 16q8 2 14 2h6.5t6.5 -1q3 -6 4.5 -24t1.5 -37v11t-1 11q-1 -6 -1 -13v-11v-30zM241 658q0 51 -20 82
q55 -24 55 -112v-70h-77v12v8.5t1 9.5h41v70zM122 386q0 -29 2.5 -48t7.5 -32t12.5 -23l16.5 -22l3 -4q0 -5 -0.5 -9t-0.5 -8q-18 30 -32.5 45.5t-24 31t-14.5 37t-5 62.5v30v13.5t2 13.5q13 -20 24 -33t20 -24.5t15 -23t10 -27.5q-5 20 -14 33t-22 30v-42zM85 93h37
q0 -3 -0.5 -6.5t-0.5 -8.5q-1 -7 -1 -15.5v-17.5v-18q1 3 2 7.5t2 10.5q-1 -12 -3.5 -17.5t-6 -7t-8.5 -1.5t-11 -1q-6 7 -8 23t-2 34v18zM55 555q-28 -20 -35.5 -52t-8.5 -67q0 18 1.5 35t6 32.5t13 29t23.5 22.5zM85 93q0 10 1 15q0 8 1 11q0 -5 -0.5 -11.5t-1.5 -14.5z
M37 -40q5 -7 12.5 -11.5t15.5 -8.5v-1q-18 8 -28 21zM165 620q0 -7 -0.5 -12.5t-0.5 -10.5v3v9t1 11zM39 275q8 -14 16 -24.5t16 -21.5q-8 11 -16 21.5t-16 24.5zM124 101l-3 29zM71 229q1 0 1 -0.5t1 -0.5l19 -24zM212 753l9 -12v-1zM11 400q1 -10 1.5 -19t0.5 -17
q0 8 -0.5 17t-1.5 19zM19 327l-5 29zM115 156q4 -11 5 -20q-1 9 -5 20zM98 195q2 -4 4 -7t4 -8q-2 4 -4 7.5t-4 7.5zM26 303q3 -8 6 -14l6 -12q-5 9 -12 26zM194 767q-11 6 -24 9q13 -3 24 -9zM162 344l-3 13zM19 327q2 -7 3.5 -13t3.5 -11q-2 5 -3.5 11t-3.5 13zM12 35
q0 -4 0.5 -8t0.5 -8q0 4 -0.5 8t-0.5 8zM163 329q1 -5 1 -8.5v-8.5v8.5t-1 8.5zM113 162q-2 8 -4 11q2 -3 4 -11zM24 -20l-5 11zM161 778q2 -1 6 -1q-4 0 -6 1zM113 162q2 -4 2 -6q0 2 -2 6zM120 136q1 -2 0.5 -3t0.5 -3q-1 2 -0.5 3t-0.5 3zM162 344q0 -3 0.5 -7t0.5 -8
q0 4 -0.5 7.5t-0.5 7.5zM14 10q0 2 -0.5 4.5t-0.5 4.5q0 -2 0.5 -4.5t0.5 -4.5zM30 -31l-6 11zM209 756q-2 1 -6 5zM98 195l-6 9zM194 767l9 -6zM150 779q2 0 3.5 -0.5t3.5 -0.5q-2 0 -3.5 0.5t-3.5 0.5zM11 44q0 -2 0.5 -4.5t0.5 -4.5q0 2 -0.5 4.5t-0.5 4.5zM19 -9l-4 14z
M30 -31l3 -5zM13 364q1 -3 1 -8q0 5 -1 8zM109 173l-3 7zM158 365q0 -2 0.5 -4t0.5 -4q0 2 -0.5 4t-0.5 4zM158 778h3h-3zM37 -40l-4 4zM14 10q1 -2 1 -5q0 3 -1 5zM170 776q-1 0 -1.5 0.5t-1.5 0.5q1 0 1.5 -0.5t1.5 -0.5z" />
    <glyph glyph-name="dieresis" unicode="&#xa8;" horiz-adv-x="224" 
d="M250 838h-76v30h41v61h35v-91zM125 838h-75v30h40v61h35v-91z" />
    <glyph glyph-name="copyright" unicode="&#xa9;" horiz-adv-x="800" 
d="M803 382q0 81 -30.5 152.5t-84.5 125.5q69 -54 109.5 -134t40.5 -174q0 -82 -31 -154t-84.5 -125.5t-125.5 -84.5t-154 -31q-81 0 -151 29.5t-124 81.5q-6 4 -11.5 8t-10.5 9q53 -46 120 -72t142 -26q82 0 154 31t125.5 84.5t84.5 125.5t31 154zM122 353
q0 -67 24.5 -124.5t68.5 -102.5q-59 45 -93.5 111.5t-34.5 145.5q0 67 25.5 125.5t69 102t102 69t125.5 25.5q73 0 136 -30.5t108 -81.5l-15 17q-41 31 -90 48t-104 17q-67 0 -125.5 -25.5t-102 -69t-69 -102t-25.5 -125.5zM427 239q0 -16 -3 -29.5t-14 -13.5t-14.5 12
t-3.5 21v314q0 11 3.5 23t14.5 12t14 -12t3 -28v-299zM442 100q-45 0 -65 35q11 -5 30 -5q26 0 42 10.5t24.5 28.5t11.5 41.5t4 49.5v2h35v-32q-1 -26 -4 -49.5t-11.5 -41.5t-24.5 -28.5t-42 -10.5zM489 542q0 39 -16 66q24 -10 37.5 -35t13.5 -61v-60h-62v30h27v60z" />
    <glyph glyph-name="ordfeminine" unicode="&#xaa;" horiz-adv-x="284" 
d="M199 460q0 51 -20 82q26 -12 40.5 -41t14.5 -71v-473h-53l-7 16q-9 -8 -20 -12t-22 -4q-50 0 -71 35q-43 16 -49 83q8 -88 85 -88q11 0 22 3t20 13l7 -16h53v473zM123 235q-1 -3 -1 -10v-137q-4 -14 -15 -14q-14 0 -17 10t-3 24v147q0 14 5.5 20t13.5 12h-2q2 2 9.5 5.5
t9.5 5.5v-63zM120 409q-5 -14 -15 -23t-24 -17q6 4 12.5 8.5t11.5 9.5h-59v30h41q0 6 -1 15t-1 19q0 17 3.5 30.5t15.5 13.5t15.5 -12t3.5 -27v-6q-2 -6 -2.5 -13.5t-0.5 -15.5v-12zM63 357q-17 -13 -31 -33.5t-19 -55.5q5 37 19 56.5t31 32.5zM179 542l-1 1q-11 16 -27 27
q8 -5 15.5 -12t12.5 -16zM124 580q-10 2 -17 2q7 0 17 -2zM13 268q-1 -5 -1 -9v-9v9t1 9zM120 410l3 11zM147 572q-8 4 -13 5q5 -1 13 -5zM73 363l8 6zM12 84v-9v9zM12 250q0 -2 -0.5 -4.5t-0.5 -4.5q0 2 0.5 4.5t0.5 4.5zM68 360l5 3zM11 90q0 -2 0.5 -3t0.5 -3q0 2 -0.5 3
t-0.5 3zM123 97q0 -2 -0.5 -3t-0.5 -3q0 2 0.5 3t0.5 3zM68 360l-5 -3zM122 88v3v-3zM134 577q-1 1 -3 1q2 0 3 -1zM127 579q-1 0 -1.5 0.5t-1.5 0.5q1 0 1.5 -0.5t1.5 -0.5z" />
    <glyph glyph-name="guillemotleft" unicode="&#xab;" horiz-adv-x="373" 
d="M347 161q-29 58 -57 115.5t-57 114.5l103 207h50l-118 -237q20 -38 41.5 -82t40.5 -82l32 -66h-86l-15 30h66zM165 131l-15 30h65q-28 58 -56 115.5t-57 114.5l102 207h44l15 30l-116 -237l114 -230l-112 225l-12 -25q28 -56 57 -114.5t56 -115.5h-85z" />
    <glyph glyph-name="registered" unicode="&#xae;" horiz-adv-x="818" 
d="M547 426q0 -53 -5.5 -77.5t-22.5 -36.5l39 -214h-71l-5 30h41l-39 214q17 12 22.5 36.5t5.5 77.5v70q0 53 -14 78q26 -9 37.5 -35t11.5 -73v-70zM452 128l-18 109v-139h-76v30h41v207h19zM399 421v133h15q26 0 26 -34v4h-6v-94q-8 -9 -23 -9h-12zM803 382
q0 81 -30.5 152.5t-84.5 125.5q69 -54 109.5 -134t40.5 -174q0 -82 -31 -154t-84.5 -125.5t-125.5 -84.5t-154 -31q-81 0 -151 29.5t-124 81.5q-6 4 -11.5 8t-10.5 9q53 -46 120 -72t142 -26q82 0 154 31t125.5 84.5t84.5 125.5t31 154zM122 353q0 -67 24.5 -124.5
t68.5 -102.5q-59 45 -93.5 111.5t-34.5 145.5q0 67 25.5 125.5t69 102t102 69t125.5 25.5q73 0 136 -30.5t108 -81.5l-15 17q-41 31 -90 48t-104 17q-67 0 -125.5 -25.5t-102 -69t-69 -102t-25.5 -125.5z" />
    <glyph glyph-name="macron" unicode="&#xaf;" horiz-adv-x="235" 
d="M263 852h-215v30h180v46h35v-76z" />
    <glyph glyph-name="degree" unicode="&#xb0;" horiz-adv-x="161" 
d="M154 709q0 18 -10 36q20 -8 32.5 -26t12.5 -40q0 -29 -21 -49.5t-50 -20.5q-20 0 -36 9.5t-25 25.5q13 -5 26 -5q29 0 50 20.5t21 49.5zM63 710q0 8 5.5 13.5t13.5 5.5t13.5 -5.5t5.5 -13.5t-5.5 -13.5t-13.5 -5.5t-13.5 5.5t-5.5 13.5zM22 673q9 -15 24 -24
q-15 9 -24 24zM139 751q-4 5 -8.5 10t-10.5 8q6 -3 10.5 -8t8.5 -10zM144 745q-1 2 -5 6zM105 776q-4 2 -8 2.5t-8 1.5q4 -1 8 -1.5t8 -2.5zM15 689l-2 11zM120 769q-3 2 -7 4q4 -2 7 -4zM19 679l-4 10zM46 649l7 -4q-2 1 -3.5 1.5t-3.5 2.5zM13 700v4v-4zM113 773
q-1 0 -1.5 0.5t-1.5 0.5q1 0 1.5 -0.5t1.5 -0.5zM21 674q0 1 -2 5zM53 773q-5 -2 -7 -4q2 2 7 4zM105 776q3 0 5 -2q-2 2 -5 2zM22 673l-1 1q1 0 1 -1z" />
    <glyph glyph-name="plusminus" unicode="&#xb1;" horiz-adv-x="332" 
d="M287 310h-58v-68h-77v30h42v68h58v56h35v-86zM227 212h-144v28h144v-28zM118 182v28h144v-28h-144zM229 426h-35v38h35v-38zM117 310h-25v30h25v-30z" />
    <glyph glyph-name="acute" unicode="&#xb4;" horiz-adv-x="176" 
d="M120 834h-69l22 30h12l49 64h59zM158 958l-24 -30z" />
    <glyph glyph-name="paragraph" unicode="&#xb6;" horiz-adv-x="365" 
d="M287 -13v763h35v-793h-56v30h21zM161 -43v30h21v738h49v-30h-14v-738h-56zM126 312q-20 3 -35 10.5t-26 22.5q13 -4 28 -4.5t33 -0.5v-28zM13 440q2 -41 15 -61.5t35 -29.5q0 -2 2 -4q-24 7 -37 27.5t-15 67.5z" />
    <glyph glyph-name="periodcentered" unicode="&#xb7;" horiz-adv-x="142" 
d="M126 452h-76v30h41v61h35v-91z" />
    <glyph glyph-name="cedilla" unicode="&#xb8;" horiz-adv-x="199" 
d="M159 -81q0 17 -8 30q17 -5 30 -21t13 -39q0 -17 -6.5 -29t-17 -19.5t-23 -11t-23.5 -3.5q-26 0 -54 10l3 21q4 0 7.5 -0.5t8.5 -0.5q14 0 29.5 5.5t26.5 18.5q2 2 2 3q5 8 8.5 16.5t3.5 19.5zM91 -72q-1 0 -2 1q10 -1 17.5 -4t7.5 -8q0 -8 -8 -10.5t-13 -2.5zM108 -16
q-2 8 -8.5 13t-14.5 7q8 -1 14.5 -6.5t8.5 -13.5zM144 -40q-8 10 -21 16q13 -6 21 -16zM88 -96q-7 1 -13 1.5t-13 2.5q7 -2 13.5 -2.5t12.5 -1.5zM40 -136q13 -4 28 -6q-7 1 -14 2.5t-14 3.5zM148 -115l-1 -2l-2 -3q-1 0 -1 -1zM42 -87l8 -2q2 0 3 -1zM112 -20l8 -3z
M148 -46l3 -5zM56 -91h4h-4zM89 -71h-9h9zM37 -135q2 0 3 -1q-1 1 -3 1zM68 -142q1 0 2 -0.5t2 -0.5q-1 0 -2 0.5t-2 0.5zM109 -20h3h-3zM53 -90q1 0 1.5 -0.5t1.5 -0.5q-1 0 -1.5 0.5t-1.5 0.5zM146 -43l2 -3zM145 -42q-1 1 -1 2q0 -1 1 -2z" />
    <glyph glyph-name="ordmasculine" unicode="&#xba;" horiz-adv-x="173" 
d="M108 607q-17 0 -32 8t-23 25q9 -3 20 -3q35 0 47 21t12 59q0 16 -7 32q18 -5 30 -20.5t12 -41.5q0 -38 -12 -59t-47 -21zM64 708q0 9 8 9t8 -9t-8 -9t-8 9zM17 673q5 -13 13.5 -21t19.5 -12q-11 4 -19.5 12t-13.5 21zM125 749q-5 10 -12 17q8 -8 12 -17zM103 774l10 -8z
M15 678l-2 11zM88 780l8 -3zM13 690v4v-4zM15 678q1 -1 1 -2t1 -3q-1 2 -1 3t-1 2zM77 782q2 0 10 -2zM23 756q-2 -2 -4 -6q2 4 4 6zM53 640h-3h3z" />
    <glyph glyph-name="guillemotright" unicode="&#xbb;" horiz-adv-x="373" 
d="M242 598h21l115 -237l-114 -230h-86l15 30h36l114 230zM47 131l15 30h36l114 230l-101 207h21l112 -232l13 25l-114 -230h5l-15 -30h-86zM242 598l-14 30zM111 598l-14 30z" />
    <glyph glyph-name="questiondown" unicode="&#xbf;" horiz-adv-x="259" 
d="M118 348q5 17 9.5 34t8 44t6 69t3.5 108h35q0 -71 -2 -117t-5.5 -76t-8 -48.5t-9.5 -34.5q0 -2 -1 -4.5t-1 -4.5q-17 -56 -24 -114t-7 -117q-5 -13 -16 -13t-15 13t-4 27q0 60 7 118.5t24 115.5zM141 -43q-49 0 -74 37q-49 21 -54 97q3 -51 27 -77.5t66 -26.5q47 0 71 32
t24 92v11h35v-41q0 -60 -24 -92t-71 -32zM145 693v61h35v-91h-77v30h42zM126 121q0 -8 -0.5 -15t-1.5 -12zM14 191q-1 -5 -1 -10.5v-10.5v10.5t1 10.5zM18 238q-1 -5 -1.5 -10t-0.5 -10q0 5 0.5 10t1.5 10zM123 92q0 -2 -0.5 -2.5t-0.5 -2.5q0 1 0.5 2t0.5 3zM26 298l4 20z
M12 102q0 -8 1 -11q-1 3 -1 11zM59 429q-2 -8 -2 -12q0 4 2 12zM46 378l4 14zM53 401l2 9z" />
    <glyph glyph-name="Agrave" unicode="&#xc0;" horiz-adv-x="304" 
d="M187 750h33l66 -793h-77l-2 30h44zM48 -43l2 30h40l17 215h51l2 -30h-18q-4 -53 -8.5 -107.5t-8.5 -107.5h-77zM150 326l-3 -37h-36l20 365zM157 928h13l70 -94h-69l-24 30h58zM157 928l-22 30zM187 750l-2 30zM152 289l-2 37v2z" />
    <glyph glyph-name="Aacute" unicode="&#xc1;" horiz-adv-x="304" 
d="M187 750h33l66 -793h-77l-2 30h44zM48 -43l2 30h40l17 215h51l2 -30h-18q-4 -53 -8.5 -107.5t-8.5 -107.5h-77zM131 654l19 -328l-3 -37h-36zM165 834h-69l22 30h12l49 64h59zM187 750l-2 30zM203 958l-24 -30zM152 289l-2 37v2z" />
    <glyph glyph-name="Acircumflex" unicode="&#xc2;" horiz-adv-x="304" 
d="M187 750h33l66 -793h-77l-2 30h44zM48 -43l2 30h40l17 215h51l2 -30h-18q-4 -53 -8.5 -107.5t-8.5 -107.5h-77zM131 654l19 -328l-3 -37h-36zM159 860l-32 -47h-54l16 30h3l40 58l39 -58zM206 813l-20 30h40l-45 87h20l60 -117h-55zM181 930l-15 30zM187 750l-2 30z
M152 289l-2 37v2z" />
    <glyph glyph-name="Atilde" unicode="&#xc3;" horiz-adv-x="304" 
d="M187 750h33l66 -793h-77l-2 30h44zM48 -43l2 30h40l17 215h51l2 -30h-18q-4 -53 -8.5 -107.5t-8.5 -107.5h-77zM216 808q-16 0 -31.5 8.5t-27.5 16.5q-9 7 -17 11.5t-15 4.5q-10 0 -23.5 -14.5t-21.5 -24.5l-30 36q8 10 20 21.5t20 11.5t18 -6.5t21.5 -14t24.5 -14
t27 -6.5q8 0 18 1.5t21 8t24 18.5t27 33l-16 16l2 3l49 -49q-14 -21 -27 -33t-24 -18.5t-21 -8t-18 -1.5zM131 654l19 -328l-3 -37h-36zM143 936q-9 6 -18.5 12t-19.5 9q10 -3 19 -8.5t18 -11.5q0 -1 1 -1zM187 750l-2 30zM173 919q-11 3 -23 12q12 -9 23 -12zM152 289
l-2 37v2zM45 840q0 1 3 4zM199 926l5 4zM105 957q-2 1 -4 1q3 0 4 -1zM101 958q-2 1 -5 1q3 0 5 -1zM92 960q1 0 1.5 -0.5t1.5 -0.5q-1 0 -1.5 0.5t-1.5 0.5zM143 936l4 -3zM176 918h3h-3zM52 951q-4 -2 -6 -4q2 2 6 4zM176 918q-2 0 -3 1q1 -1 3 -1z" />
    <glyph glyph-name="Adieresis" unicode="&#xc4;" horiz-adv-x="304" 
d="M187 750h33l66 -793h-77l-2 30h44zM48 -43l2 30h40l17 215h51l2 -30h-18q-4 -53 -8.5 -107.5t-8.5 -107.5h-77zM150 326l-3 -37h-36l20 365zM264 838h-76v30h41v61h35v-91zM139 838h-75v30h40v61h35v-91zM187 750l-2 30zM152 289l-2 37v2z" />
    <glyph glyph-name="Aring" unicode="&#xc5;" horiz-adv-x="304" 
d="M187 750h33l66 -793h-77l-2 30h44zM48 -43l2 30h40l17 215h51l2 -30h-18q-4 -53 -8.5 -107.5t-8.5 -107.5h-77zM131 654l19 -328l-3 -37h-36zM202 889q0 18 -10 36q20 -8 32.5 -26t12.5 -40q0 -29 -21 -49.5t-50 -20.5q-20 0 -36 9.5t-25 25.5q13 -5 26 -5q29 0 50 20.5
t21 49.5zM111 890q0 8 5.5 13.5t13.5 5.5t13.5 -5.5t5.5 -13.5t-5.5 -13.5t-13.5 -5.5t-13.5 5.5t-5.5 13.5zM70 853q9 -15 24 -24q-15 9 -24 24zM187 750l-2 30zM187 931q-4 5 -8.5 10t-10.5 8q6 -3 10.5 -8t8.5 -10zM192 925q-1 2 -5 6zM153 956q-4 2 -8 2.5t-8 1.5
q4 -1 8 -1.5t8 -2.5zM152 289l-2 37v2zM63 869l-2 11zM168 949q-3 2 -7 4q4 -2 7 -4zM67 859l-4 10zM94 829l7 -4q-2 1 -3.5 1.5t-3.5 2.5zM61 880v4v-4zM161 953q-1 0 -1.5 0.5t-1.5 0.5q1 0 1.5 -0.5t1.5 -0.5zM69 854q0 1 -2 5zM153 956q3 0 5 -2q-2 2 -5 2zM101 953
q-5 -2 -7 -4q2 2 7 4zM70 853l-1 1q1 0 1 -1z" />
    <glyph glyph-name="AE" unicode="&#xc6;" horiz-adv-x="472" 
d="M300 663v-237h-35v267h114v57h35v-87h-114zM379 340v56h35v-86h-114v-236h-35v266h114zM189 222h-23q-8 -45 -16.5 -91.5t-16.5 -90.5l-15 -83h-80l5 30h40q12 66 24.5 132t23.5 133h58v-30zM379 -13v57h35v-87h-190v30h155zM147 339l40 258q0 -57 1 -120.5t1 -121.5
l-3 -16h-39z" />
    <glyph glyph-name="Ccedilla" unicode="&#xc7;" horiz-adv-x="264" 
d="M109 708q12 0 17.5 -6t6.5 -32q0 2 -0.5 3t-0.5 3q-12 -4 -12 -29v-590q-2 -1 -5.5 -1h-6.5q-12 0 -17.5 7.5t-5.5 26.5v587q0 31 24 31zM134 -19q24 3 38.5 13t21.5 27t9 42t2 57v85h35v-115q0 -31 -2 -54.5t-9 -40.5t-20 -28t-34 -15q0 -1 0.5 -1.5t0.5 -1.5
q-16 28 -42 31v1zM205 682q0 42 -12 66q26 -9 36.5 -32t10.5 -64v-150h-72v30h37v150zM184 -81q0 17 -8 30q17 -5 30 -21t13 -39q0 -17 -6.5 -29t-17 -19.5t-23 -11t-23.5 -3.5q-26 0 -54 10l3 21q4 0 7.5 -0.5t8.5 -0.5q14 0 29.5 5.5t26.5 18.5q2 2 2 3q5 8 8.5 16.5
t3.5 19.5zM116 -72q-1 0 -2 1q10 -1 17.5 -4t7.5 -8q0 -8 -8 -10.5t-13 -2.5zM80 -71l1 32q-18 10 -26 26q12 -5 27 -6zM193 748q-9 18 -29 27q20 -9 29 -27zM13 39q2 -6 3.5 -11.5t3.5 -10.5q-2 5 -3.5 10.5t-3.5 11.5zM113 -96q-7 1 -13 1.5t-13 2.5q7 -2 13.5 -2.5
t12.5 -1.5zM65 -136q13 -4 28 -6q-7 1 -14 2.5t-14 3.5zM130 70q-3 -10 -10 -13q7 3 10 13zM140 782q-5 1 -9.5 1.5t-9.5 0.5q5 0 9.5 -0.5t9.5 -1.5zM173 -115q-1 -1 -1 -2l-2 -3l-1 -1zM67 -87l8 -2q2 0 3 -1zM34 -1q3 -3 6.5 -5.5t7.5 -4.5q-4 2 -7.5 4.5t-6.5 5.5z
M152 780l9 -3zM13 39q0 4 -2 12zM145 781q2 0 3.5 -0.5t3.5 -0.5q-2 0 -3.5 0.5t-3.5 0.5zM55 -13l-7 2zM30 3l-6 7zM145 781q-2 1 -5 1q3 0 5 -1zM98 785q-3 0 -6.5 -0.5t-6.5 -0.5q3 0 6.5 0.5t6.5 0.5zM132 82q0 -5 -1 -8q1 3 1 8zM113 -71h-8h8zM81 -91h4h-4zM11 53
q0 2 -0.5 3.5t-0.5 3.5q0 -2 0.5 -3.5t0.5 -3.5zM62 -135q2 0 3 -1q-1 1 -3 1zM78 -90q1 0 1.5 -0.5t1.5 -0.5q-1 0 -1.5 0.5t-1.5 0.5zM93 -142q1 0 2 -0.5t2 -0.5q-1 0 -2 0.5t-2 0.5zM20 17l4 -7zM161 777l3 -2zM121 784q-1 0 -1.5 0.5t-1.5 0.5q1 0 1.5 -0.5t1.5 -0.5z
M131 74v-2v2z" />
    <glyph glyph-name="Egrave" unicode="&#xc8;" horiz-adv-x="248" 
d="M122 663v-237h-35v267h97v57h35v-87h-97zM167 340v56h35v-86h-80v-236h-35v266h80zM184 -13v57h35v-87h-173v30h138zM114 928h13l70 -94h-69l-24 30h58zM114 928l-22 30z" />
    <glyph glyph-name="Eacute" unicode="&#xc9;" horiz-adv-x="248" 
d="M122 663v-237h-35v267h97v57h35v-87h-97zM167 340v56h35v-86h-80v-236h-35v266h80zM184 -13v57h35v-87h-173v30h138zM139 834h-69l22 30h12l49 64h59zM177 958l-24 -30z" />
    <glyph glyph-name="Ecircumflex" unicode="&#xca;" horiz-adv-x="248" 
d="M122 663v-237h-35v267h97v57h35v-87h-97zM167 340v56h35v-86h-80v-236h-35v266h80zM184 -13v57h35v-87h-173v30h138zM126 860l-32 -47h-54l16 30h3l40 58l39 -58zM173 813l-20 30h40l-45 87h20l60 -117h-55zM148 930l-15 30z" />
    <glyph glyph-name="Edieresis" unicode="&#xcb;" horiz-adv-x="248" 
d="M122 663v-237h-35v267h97v57h35v-87h-97zM167 340v56h35v-86h-80v-236h-35v266h80zM184 -13v57h35v-87h-173v30h138zM236 838h-76v30h41v61h35v-91zM111 838h-75v30h40v61h35v-91z" />
    <glyph glyph-name="Igrave" unicode="&#xcc;" horiz-adv-x="168" 
d="M55 -43v30h42v763h35v-793h-77zM82 928h13l70 -94h-69l-24 30h58zM82 928l-22 30z" />
    <glyph glyph-name="Iacute" unicode="&#xcd;" horiz-adv-x="168" 
d="M55 -43v30h42v763h35v-793h-77zM90 834h-69l22 30h12l49 64h59zM128 958l-24 -30z" />
    <glyph glyph-name="Icircumflex" unicode="&#xce;" horiz-adv-x="168" 
d="M55 -43v30h42v763h35v-793h-77zM84 860l-32 -47h-54l16 30h3l40 58l39 -58zM131 813l-20 30h40l-45 87h20l60 -117h-55zM106 930l-15 30z" />
    <glyph glyph-name="Idieresis" unicode="&#xcf;" horiz-adv-x="168" 
d="M55 -43v30h42v763h35v-793h-77zM194 838h-76v30h41v61h35v-91zM69 838h-75v30h40v61h35v-91z" />
    <glyph glyph-name="Eth" unicode="&#xd0;" horiz-adv-x="296" 
d="M200 659q0 53 -18 82q53 -23 53 -112v-551q0 -64 -24.5 -92.5t-74.5 -28.5h-90v30h55q50 0 74.5 28.5t24.5 92.5v551zM124 308h-3v-226q0 1 0.5 1.5t0.5 1.5q-3 -11 -21 -11h-15v264h24v86h-24v269h15q17 0 20 -8.5t3 -21.5h-3v-269h3v-86zM11 308h-16v30h16v-30z
M182 741q-12 18 -29 28q17 -9 28 -27zM138 775q-8 2 -24 4q7 0 13 -1t11 -3zM138 775l11 -4zM124 95q0 -6 -2 -10q2 6 2 10zM106 780q2 0 3.5 -0.5t3.5 -0.5q-2 0 -3.5 0.5t-3.5 0.5z" />
    <glyph glyph-name="Ntilde" unicode="&#xd1;" horiz-adv-x="312" 
d="M278 -43h-77l-5 30h47v763h35v-793zM88 437l35 -202v-278h-77v30h42v450zM91 750h30l45 -271v-200l-11 86zM202 808q-16 0 -31.5 8.5t-27.5 16.5q-9 7 -17 11.5t-15 4.5q-10 0 -23.5 -14.5t-21.5 -24.5l-30 36q8 10 20 21.5t20 11.5t18 -6.5t21.5 -14t24.5 -14t27 -6.5
q8 0 18 1.5t21 8t24 18.5t27 33l-16 16l2 3l49 -49q-14 -21 -27 -33t-24 -18.5t-21 -8t-18 -1.5zM129 936q-9 6 -18.5 12t-19.5 9q10 -3 19 -8.5t18 -11.5q0 -1 1 -1zM159 919q-11 3 -23 12q12 -9 23 -12zM31 840q0 1 3 4zM185 926l5 4zM91 957q-2 1 -4 1q3 0 4 -1zM87 958
q-2 1 -5 1q3 0 5 -1zM78 960q1 0 1.5 -0.5t1.5 -0.5q-1 0 -1.5 0.5t-1.5 0.5zM129 936l4 -3zM162 918h3h-3zM38 951q-4 -2 -6 -4q2 2 6 4zM162 918q-2 0 -3 1q1 -1 3 -1z" />
    <glyph glyph-name="Ograve" unicode="&#xd2;" horiz-adv-x="270" 
d="M132 928h13l70 -94h-69l-24 30h58zM132 928l-22 30zM240 90q0 -36 -2.5 -62.5t-12.5 -44t-29.5 -26t-53.5 -8.5q-31 0 -53 8t-33 29q20 -7 51 -7q34 0 53.5 8.5t29.5 26t12.5 44t2.5 62.5v562q0 42 -12 66q26 -9 36.5 -32t10.5 -64v-562zM109 708q12 0 17 -6t7 -26
q-13 -4 -13 -29v-590q-3 -1 -12 -1q-12 0 -17.5 7.5t-5.5 26.5v587q0 31 24 31z" />
    <glyph glyph-name="Oacute" unicode="&#xd3;" horiz-adv-x="270" 
d="M142 834h-69l22 30h12l49 64h59zM180 958l-24 -30zM240 90q0 -36 -2.5 -62.5t-12.5 -44t-29.5 -26t-53.5 -8.5q-31 0 -53 8t-33 29q20 -7 51 -7q34 0 53.5 8.5t29.5 26t12.5 44t2.5 62.5v562q0 42 -12 66q26 -9 36.5 -32t10.5 -64v-562zM109 708q12 0 17 -6t7 -26
q-13 -4 -13 -29v-590q-3 -1 -12 -1q-12 0 -17.5 7.5t-5.5 26.5v587q0 31 24 31z" />
    <glyph glyph-name="Ocircumflex" unicode="&#xd4;" horiz-adv-x="270" 
d="M134 860l-32 -47h-54l16 30h3l40 58l39 -58zM181 813l-20 30h40l-45 87h20l60 -117h-55zM156 930l-15 30zM240 90q0 -36 -2.5 -62.5t-12.5 -44t-29.5 -26t-53.5 -8.5q-31 0 -53 8t-33 29q20 -7 51 -7q34 0 53.5 8.5t29.5 26t12.5 44t2.5 62.5v562q0 42 -12 66
q26 -9 36.5 -32t10.5 -64v-562zM109 708q12 0 17 -6t7 -26q-13 -4 -13 -29v-590q-3 -1 -12 -1q-12 0 -17.5 7.5t-5.5 26.5v587q0 31 24 31z" />
    <glyph glyph-name="Otilde" unicode="&#xd5;" horiz-adv-x="270" 
d="M190 808q-16 0 -31.5 8.5t-27.5 16.5q-9 7 -17 11.5t-15 4.5q-10 0 -23.5 -14.5t-21.5 -24.5l-30 36q8 10 20 21.5t20 11.5t18 -6.5t21.5 -14t24.5 -14t27 -6.5q8 0 18 1.5t21 8t24 18.5t27 33l-16 16l2 3l49 -49q-14 -21 -27 -33t-24 -18.5t-21 -8t-18 -1.5zM117 936
q-9 6 -18.5 12t-19.5 9q10 -3 19 -8.5t18 -11.5q0 -1 1 -1zM147 919q-11 3 -23 12q12 -9 23 -12zM19 840q0 1 3 4zM173 926l5 4zM75 958q-2 1 -5 1q3 0 5 -1zM79 957q-2 1 -4 1q3 0 4 -1zM66 960q1 0 1.5 -0.5t1.5 -0.5q-1 0 -1.5 0.5t-1.5 0.5zM117 936l4 -3zM150 918h3h-3
zM150 918q-2 0 -3 1q1 -1 3 -1zM26 951q-4 -2 -6 -4q2 2 6 4zM240 90q0 -36 -2.5 -62.5t-12.5 -44t-29.5 -26t-53.5 -8.5q-31 0 -53 8t-33 29q20 -7 51 -7q34 0 53.5 8.5t29.5 26t12.5 44t2.5 62.5v562q0 42 -12 66q26 -9 36.5 -32t10.5 -64v-562zM109 708q12 0 17 -6t7 -26
q-13 -4 -13 -29v-590q-3 -1 -12 -1q-12 0 -17.5 7.5t-5.5 26.5v587q0 31 24 31z" />
    <glyph glyph-name="Odieresis" unicode="&#xd6;" horiz-adv-x="270" 
d="M244 838h-76v30h41v61h35v-91zM119 838h-75v30h40v61h35v-91zM240 90q0 -36 -2.5 -62.5t-12.5 -44t-29.5 -26t-53.5 -8.5q-31 0 -53 8t-33 29q20 -7 51 -7q34 0 53.5 8.5t29.5 26t12.5 44t2.5 62.5v562q0 42 -12 66q26 -9 36.5 -32t10.5 -64v-562zM109 708q12 0 17 -6
t7 -26q-13 -4 -13 -29v-590q-3 -1 -12 -1q-12 0 -17.5 7.5t-5.5 26.5v587q0 31 24 31z" />
    <glyph glyph-name="multiply" unicode="&#xd7;" horiz-adv-x="271" 
d="M203 365l4 5l55 -62l-42 -47l42 -49l-55 -61l-31 34l51 57l-42 49l42 47zM172 181l-11 12l-37 -42l-31 34l38 43zM119 365l5 5l11 -13l-4 -5zM35 337l23 -28q-6 7 -12 13.5t-11 14.5zM119 365l-30 35zM144 368l28 32zM58 309l3 -3l14 -15zM176 186v-1l-4 -4zM144 368
l-9 -11z" />
    <glyph glyph-name="Oslash" unicode="&#xd8;" horiz-adv-x="270" 
d="M205 571l56 179h45l-66 -209v-451q0 -36 -2.5 -62.5t-12.5 -44t-29.5 -26t-53.5 -8.5q-26 0 -47 6.5t-33 20.5l-6 -19h-81l10 30h36l6 19q12 -15 32.5 -21t47.5 -6q34 0 53.5 8.5t29.5 26t12.5 44t2.5 62.5v451zM133 201l-13 -41v-103h2q-4 -1 -14 -1q-12 0 -17.5 7.5
t-5.5 26.5v100l48 152v-141zM120 555l-35 -110v232q0 31 24 31q12 0 17 -6t7 -26q-13 -4 -13 -29v-92zM128 62q0 2 2 4q-2 -2 -2 -4zM133 82q0 -6 -2 -12zM131 70q0 -2 -0.5 -2.5t-0.5 -1.5q0 1 0.5 1.5t0.5 2.5zM124 58q-1 0 -2 -1q1 1 2 1zM128 62l-1 -1zM126 60l1 1z" />
    <glyph glyph-name="Ugrave" unicode="&#xd9;" horiz-adv-x="269" 
d="M127 928h13l70 -94h-69l-24 30h58zM127 928l-22 30zM58 -13q19 -8 50 -8q45 0 72 21.5t27 79.5v670h35v-700q0 -58 -27 -79.5t-72 -21.5q-61 0 -84 38h-1zM109 55q-12 0 -17.5 7.5t-5.5 27.5v660h35v-692l1 1q-4 -4 -13 -4z" />
    <glyph glyph-name="Uacute" unicode="&#xda;" horiz-adv-x="269" 
d="M139 834h-69l22 30h12l49 64h59zM177 958l-24 -30zM58 -13q19 -8 50 -8q45 0 72 21.5t27 79.5v670h35v-700q0 -58 -27 -79.5t-72 -21.5q-61 0 -84 38h-1zM109 55q-12 0 -17.5 7.5t-5.5 27.5v660h35v-692l1 1q-4 -4 -13 -4z" />
    <glyph glyph-name="Ucircumflex" unicode="&#xdb;" horiz-adv-x="269" 
d="M133 860l-32 -47h-54l16 30h3l40 58l39 -58zM180 813l-20 30h40l-45 87h20l60 -117h-55zM155 930l-15 30zM58 -13q19 -8 50 -8q45 0 72 21.5t27 79.5v670h35v-700q0 -58 -27 -79.5t-72 -21.5q-61 0 -84 38h-1zM109 55q-12 0 -17.5 7.5t-5.5 27.5v660h35v-692l1 1
q-4 -4 -13 -4z" />
    <glyph glyph-name="Udieresis" unicode="&#xdc;" horiz-adv-x="269" 
d="M241 838h-76v30h41v61h35v-91zM116 838h-75v30h40v61h35v-91zM58 -13q19 -8 50 -8q45 0 72 21.5t27 79.5v670h35v-700q0 -58 -27 -79.5t-72 -21.5q-61 0 -84 38h-1zM109 55q-12 0 -17.5 7.5t-5.5 27.5v660h35v-692l1 1q-4 -4 -13 -4z" />
    <glyph glyph-name="Yacute" unicode="&#xdd;" horiz-adv-x="270" 
d="M153 834h-69l22 30h12l49 64h59zM191 958l-24 -30zM270 750l-76 -438v-355h-71v30h36v355l71 408h40zM88 750h31l19 -135l-15 -111z" />
    <glyph glyph-name="Thorn" unicode="&#xde;" horiz-adv-x="288" 
d="M198 549q0 52 -19 82q26 -11 40 -39t14 -73v-347q0 -57 -22.5 -88.5t-69.5 -31.5h-10t-9 1v-96h-76v30h41v96q5 -1 9.5 -1h9.5q47 0 69.5 31.5t22.5 88.5v347zM123 543q-1 -5 -1 -20v-331q0 2 0.5 2.5t0.5 2.5q-1 -16 -6.5 -23t-12 -7.5t-12 4t-5.5 10.5v368q0 19 1.5 27
t15.5 8q7 0 11 -4t6 -9.5t2 -11.5v-10v-6zM87 750h35v-82q-4 0 -7.5 0.5t-7.5 0.5h-10t-10 -1v82zM179 631l-1 1q-19 30 -56 36q38 -6 57 -37z" />
    <glyph glyph-name="germandbls" unicode="&#xdf;" horiz-adv-x="733" 
 />
    <glyph glyph-name="agrave" unicode="&#xe0;" horiz-adv-x="261" 
d="M128 751h13l70 -94h-69l-24 30h58zM128 751l-22 30zM198 464q0 48 -18 75q53 -23 53 -105v-477h-49l-3 30h17v477zM123 241q-5 -10 -5 -20v-147q-5 -10 -14 -10q-13 0 -17 10t-4 24v153q0 12 5.5 21t13 16.5t13.5 13t8 9.5v-70zM102 379l3 2h-59v30h38q1 51 3.5 71
t17.5 20q12 0 15.5 -13.5t4.5 -47.5q0 5 -0.5 9.5t-0.5 9.5q-5 -14 -5 -69q-3 -2 -6.5 -5.5t-8.5 -6.5h-2zM149 -13h26q-5 -12 -16.5 -23.5t-29.5 -11.5q-51 0 -69 35q15 -5 34 -5q14 0 23.5 6.5t15.5 15.5t9 18t3 13zM24 18q7 -13 18 -22q-10 7 -18 22zM123 99
q-1 -7 -2 -13.5t-3 -11.5q2 5 3 11.5t2 13.5zM44 -5q4 -2 7 -4t8 -4q-5 2 -8 4t-7 4zM125 399q-2 -4 -6 -8q4 4 6 8zM42 -4q1 0 1 -0.5t1 -0.5q-1 0 -1 0.5t-1 0.5z" />
    <glyph glyph-name="aacute" unicode="&#xe1;" horiz-adv-x="261" 
d="M141 656h-69l22 30h12l49 64h59zM179 780l-24 -30zM198 464q0 48 -18 75q53 -23 53 -105v-477h-49l-3 30h17v477zM123 241q-5 -10 -5 -20v-147q-5 -10 -14 -10q-13 0 -17 10t-4 24v153q0 12 5.5 21t13 16.5t13.5 13t8 9.5v-70zM102 379l3 2h-59v30h38q1 51 3.5 71
t17.5 20q12 0 15.5 -13.5t4.5 -47.5q0 5 -0.5 9.5t-0.5 9.5q-5 -14 -5 -69q-3 -2 -6.5 -5.5t-8.5 -6.5h-2zM149 -13h26q-5 -12 -16.5 -23.5t-29.5 -11.5q-51 0 -69 35q15 -5 34 -5q14 0 23.5 6.5t15.5 15.5t9 18t3 13zM24 18q7 -13 18 -22q-10 7 -18 22zM123 99
q-1 -7 -2 -13.5t-3 -11.5q2 5 3 11.5t2 13.5zM44 -5q4 -2 7 -4t8 -4q-5 2 -8 4t-7 4zM125 399q-2 -4 -6 -8q4 4 6 8zM42 -4q1 0 1 -0.5t1 -0.5q-1 0 -1 0.5t-1 0.5z" />
    <glyph glyph-name="acircumflex" unicode="&#xe2;" horiz-adv-x="261" 
d="M134 678l-32 -47h-54l16 30h3l40 58l39 -58zM181 631l-20 30h40l-45 87h20l60 -117h-55zM156 748l-15 30zM198 464q0 48 -18 75q53 -23 53 -105v-477h-49l-3 30h17v477zM123 241q-5 -10 -5 -20v-147q-5 -10 -14 -10q-13 0 -17 10t-4 24v153q0 12 5.5 21t13 16.5t13.5 13
t8 9.5v-70zM102 379l3 2h-59v30h38q1 51 3.5 71t17.5 20q12 0 15.5 -13.5t4.5 -47.5q0 5 -0.5 9.5t-0.5 9.5q-5 -14 -5 -69q-3 -2 -6.5 -5.5t-8.5 -6.5h-2zM149 -13h26q-5 -12 -16.5 -23.5t-29.5 -11.5q-51 0 -69 35q15 -5 34 -5q14 0 23.5 6.5t15.5 15.5t9 18t3 13zM24 18
q7 -13 18 -22q-10 7 -18 22zM123 99q-1 -7 -2 -13.5t-3 -11.5q2 5 3 11.5t2 13.5zM44 -5q4 -2 7 -4t8 -4q-5 2 -8 4t-7 4zM125 399q-2 -4 -6 -8q4 4 6 8zM42 -4q1 0 1 -0.5t1 -0.5q-1 0 -1 0.5t-1 0.5z" />
    <glyph glyph-name="atilde" unicode="&#xe3;" horiz-adv-x="261" 
d="M199 631q-16 0 -31.5 8.5t-27.5 16.5q-9 7 -17 11.5t-15 4.5q-10 0 -23.5 -14.5t-21.5 -24.5l-30 36q8 10 20 21.5t20 11.5t18 -6.5t21.5 -14t24.5 -14t27 -6.5q8 0 18 1.5t21 8t24 18.5t27 33l-16 16l2 3l49 -49q-14 -21 -27 -33t-24 -18.5t-21 -8t-18 -1.5zM126 759
q-9 6 -18.5 12t-19.5 9q10 -3 19 -8.5t18 -11.5q0 -1 1 -1zM156 742q-11 3 -23 12q12 -9 23 -12zM28 663q0 1 3 4zM182 749l5 4zM84 781q-2 1 -5 1q3 0 5 -1zM88 780q-2 1 -4 1q3 0 4 -1zM75 783q1 0 1.5 -0.5t1.5 -0.5q-1 0 -1.5 0.5t-1.5 0.5zM126 759l4 -3zM159 741h3h-3
zM35 774q-4 -2 -6 -4q2 2 6 4zM159 741q-2 0 -3 1q1 -1 3 -1zM198 464q0 48 -18 75q53 -23 53 -105v-477h-49l-3 30h17v477zM123 241q-5 -10 -5 -20v-147q-5 -10 -14 -10q-13 0 -17 10t-4 24v153q0 12 5.5 21t13 16.5t13.5 13t8 9.5v-70zM102 379l3 2h-59v30h38q1 51 3.5 71
t17.5 20q12 0 15.5 -13.5t4.5 -47.5q0 5 -0.5 9.5t-0.5 9.5q-5 -14 -5 -69q-3 -2 -6.5 -5.5t-8.5 -6.5h-2zM149 -13h26q-5 -12 -16.5 -23.5t-29.5 -11.5q-51 0 -69 35q15 -5 34 -5q14 0 23.5 6.5t15.5 15.5t9 18t3 13zM24 18q7 -13 18 -22q-10 7 -18 22zM123 99
q-1 -7 -2 -13.5t-3 -11.5q2 5 3 11.5t2 13.5zM44 -5q4 -2 7 -4t8 -4q-5 2 -8 4t-7 4zM125 399q-2 -4 -6 -8q4 4 6 8zM42 -4q1 0 1 -0.5t1 -0.5q-1 0 -1 0.5t-1 0.5z" />
    <glyph glyph-name="adieresis" unicode="&#xe4;" horiz-adv-x="261" 
d="M240 659h-76v30h41v61h35v-91zM115 659h-75v30h40v61h35v-91zM198 464q0 48 -18 75q53 -23 53 -105v-477h-49l-3 30h17v477zM123 241q-5 -10 -5 -20v-147q-5 -10 -14 -10q-13 0 -17 10t-4 24v153q0 12 5.5 21t13 16.5t13.5 13t8 9.5v-70zM102 379l3 2h-59v30h38
q1 51 3.5 71t17.5 20q12 0 15.5 -13.5t4.5 -47.5q0 5 -0.5 9.5t-0.5 9.5q-5 -14 -5 -69q-3 -2 -6.5 -5.5t-8.5 -6.5h-2zM149 -13h26q-5 -12 -16.5 -23.5t-29.5 -11.5q-51 0 -69 35q15 -5 34 -5q14 0 23.5 6.5t15.5 15.5t9 18t3 13zM24 18q7 -13 18 -22q-10 7 -18 22zM123 99
q-1 -7 -2 -13.5t-3 -11.5q2 5 3 11.5t2 13.5zM44 -5q4 -2 7 -4t8 -4q-5 2 -8 4t-7 4zM125 399q-2 -4 -6 -8q4 4 6 8zM42 -4q1 0 1 -0.5t1 -0.5q-1 0 -1 0.5t-1 0.5z" />
    <glyph glyph-name="aring" unicode="&#xe5;" horiz-adv-x="261" 
d="M176 709q0 18 -10 36q20 -8 32.5 -26t12.5 -40q0 -29 -21 -49.5t-50 -20.5q-20 0 -36 9.5t-25 25.5q13 -5 26 -5q29 0 50 20.5t21 49.5zM85 710q0 8 5.5 13.5t13.5 5.5t13.5 -5.5t5.5 -13.5t-5.5 -13.5t-13.5 -5.5t-13.5 5.5t-5.5 13.5zM44 673q9 -15 24 -24
q-15 9 -24 24zM161 751q-4 5 -8.5 10t-10.5 8q6 -3 10.5 -8t8.5 -10zM166 745q-1 2 -5 6zM127 776q-4 2 -8 2.5t-8 1.5q4 -1 8 -1.5t8 -2.5zM37 689l-2 11zM142 769q-3 2 -7 4q4 -2 7 -4zM41 679l-4 10zM68 649l7 -4q-2 1 -3.5 1.5t-3.5 2.5zM135 773q-1 0 -1.5 0.5
t-1.5 0.5q1 0 1.5 -0.5t1.5 -0.5zM35 700v4v-4zM43 674q0 1 -2 5zM127 776q3 0 5 -2q-2 2 -5 2zM75 773q-5 -2 -7 -4q2 2 7 4zM44 673l-1 1q1 0 1 -1zM198 464q0 48 -18 75q53 -23 53 -105v-477h-49l-3 30h17v477zM123 241q-5 -10 -5 -20v-147q-5 -10 -14 -10q-13 0 -17 10
t-4 24v153q0 12 5.5 21t13 16.5t13.5 13t8 9.5v-70zM102 379l3 2h-59v30h38q1 51 3.5 71t17.5 20q12 0 15.5 -13.5t4.5 -47.5q0 5 -0.5 9.5t-0.5 9.5q-5 -14 -5 -69q-3 -2 -6.5 -5.5t-8.5 -6.5h-2zM149 -13h26q-5 -12 -16.5 -23.5t-29.5 -11.5q-51 0 -69 35q15 -5 34 -5
q14 0 23.5 6.5t15.5 15.5t9 18t3 13zM24 18q7 -13 18 -22q-10 7 -18 22zM123 99q-1 -7 -2 -13.5t-3 -11.5q2 5 3 11.5t2 13.5zM44 -5q4 -2 7 -4t8 -4q-5 2 -8 4t-7 4zM125 399q-2 -4 -6 -8q4 4 6 8zM42 -4q1 0 1 -0.5t1 -0.5q-1 0 -1 0.5t-1 0.5z" />
    <glyph glyph-name="ae" unicode="&#xe6;" horiz-adv-x="415" 
d="M343 461q0 47 -21 79q26 -12 41 -40.5t15 -68.5v-226h-111v-121q-5 -14 -15 -14q-12 0 -16 13t-4 30v122h111v226zM284 -46q-25 0 -43 9.5t-30 26.5q-7 -13 -24.5 -25.5t-57.5 -12.5q-51 0 -69 35q15 -5 34 -5q41 0 58 12.5t24 25.5q25 -36 73 -36q30 0 48.5 12t28.5 33
t13.5 49.5t3.5 60.5v1h35v-31q0 -32 -3.5 -60.5t-13.5 -49.5t-28.5 -33t-48.5 -12zM123 239q-5 -8 -5 -18v-138q-5 -10 -14 -10q-13 0 -17 10t-4 24v144q0 12 5.5 19.5t13 12.5t13.5 8t8 6v-58zM232 319v132q0 14 2.5 27.5t16.5 13.5q13 0 15 -14.5t2 -26.5v-11
q-1 -5 -1 -9.5v-9.5v-102h-35zM121 391q-4 -5 -19 -12l2 2h-58v14.5t1 15.5h37q1 31 3.5 56t17.5 25q12 0 16 -14.5t4 -32.5v2q-4 -10 -5 -25.5t-1 -32.5zM100 379q-14 -7 -31 -16.5t-31 -29.5q14 20 31.5 30t31.5 16h-1zM243 578q-45 -3 -68 -35q22 32 68 35zM174 544
q-17 21 -42 30q24 -7 42 -30zM124 414q0 -4 -0.5 -7t-0.5 -6q0 6 0.5 14.5t1.5 18.5q0 -5 -0.5 -10t-0.5 -10zM20 297q-5 -12 -6 -25q1 13 6 25zM24 18q7 -13 18 -22q-10 7 -18 22zM272 124q-1 -11 -1.5 -20t-2.5 -17q2 8 2.5 17t1.5 20zM33 326q-3 -5 -5.5 -10t-4.5 -10
q2 5 4.5 10t5.5 10zM44 -5q5 -4 13 -7q-8 3 -13 7zM319 543q-7 10 -14 16q7 -6 14 -16zM270 576q-10 2 -15 2q5 0 15 -2zM305 559q-4 3 -7.5 5.5t-7.5 4.5q4 -2 7.5 -4.5t7.5 -5.5zM14 53q1 -5 1.5 -9.5t2.5 -9.5q-2 7 -4 19zM290 569l-10 4zM13 270q0 -5 -0.5 -10t-0.5 -10
q0 5 0.5 10t0.5 10zM12 75q0 -5 0.5 -9t0.5 -9q0 5 -0.5 9t-0.5 9zM123 112q0 -6 -2 -16q1 5 1.5 8.5t0.5 7.5zM270 576l10 -3zM12 250q0 -2 -0.5 -5t-0.5 -5q0 2 0.5 5t0.5 5zM119 88q0 -2 -0.5 -3t-0.5 -2q0 2 0.5 2.5t0.5 2.5zM121 96q0 -4 -2 -8q2 4 2 8zM33 326l5 7z
M11 86q0 -3 0.5 -5.5t0.5 -5.5q0 3 -0.5 5.5t-0.5 5.5zM24 18l-4 9zM123 395q0 -1 -0.5 -1.5t-0.5 -1.5q0 1 0.5 1.5t0.5 1.5zM13 57q0 -1 0.5 -1.5t0.5 -2.5q0 2 -0.5 2.5t-0.5 1.5zM267 84q0 1 0.5 1t0.5 1q0 -1 -0.5 -1t-0.5 -1zM42 -4q1 0 1 -0.5t1 -0.5q-1 0 -1 0.5
t-1 0.5zM320 542q1 0 1 -1zM121 391q0 1 1 1z" />
    <glyph glyph-name="ccedilla" unicode="&#xe7;" horiz-adv-x="249" 
d="M107 502q11 0 15 -11.5t5 -28.5q-4 -6 -5 -14.5t-1 -16.5v-363q-5 -9 -14 -9q-12 0 -16.5 14t-4.5 25v363q0 13 4 27t17 14zM123 -15q24 4 38.5 17t22.5 33.5t10.5 45.5t3.5 53v6h35v-36q-1 -27 -4 -51.5t-10.5 -44.5t-21 -33.5t-35.5 -18.5l3 -6q-7 13 -18.5 20.5
t-22.5 9.5q0 2 -0.5 2.5t-0.5 2.5zM198 460q0 49 -20 80q26 -11 40.5 -39.5t14.5 -70.5v-69h-71v30h36v69zM174 -81q0 17 -8 30q17 -5 30 -21t13 -39q0 -17 -6.5 -29t-17 -19.5t-23 -11t-23.5 -3.5q-26 0 -54 10l3 21q4 0 7.5 -0.5t8.5 -0.5q14 0 29.5 5.5t26.5 18.5
q2 2 2 3q5 8 8.5 16.5t3.5 19.5zM106 -72q-1 0 -2 1q10 -1 17.5 -4t7.5 -8q0 -8 -8 -10.5t-13 -2.5zM11 92q2 -37 16.5 -63.5t37.5 -38.5q-51 23 -54 102zM72 -21q0 2 -0.5 3t0.5 3l-3 3q-2 0 -4 2l8 -3q-1 -2 -1 -8zM103 -96q-7 1 -13 1.5t-13 2.5q7 -2 13.5 -2.5
t12.5 -1.5zM55 -136q13 -4 28 -6q-7 1 -14 2.5t-14 3.5zM110 578q5 0 15 -2q-4 1 -7 1.5t-8 0.5zM163 -115l-1 -2l-2 -3q-1 0 -1 -1zM175 544q-4 7 -12 13q8 -6 12 -13zM57 -87l8 -2q2 0 3 -1zM138 572q-5 2 -13 4q3 -1 6.5 -1.5t6.5 -2.5zM158 561l5 -4zM153 565
q-2 1 -3.5 2t-3.5 2q2 -1 3.5 -2t3.5 -2zM122 70q0 -1 -0.5 -1.5t-0.5 -1.5v1q0 1 0.5 1t0.5 1zM153 565l5 -4zM71 -91h4h-4zM104 -71h-9h9zM127 98q0 -2 -0.5 -4t-0.5 -4q0 2 0.5 4t0.5 4zM126 87q-1 -3 -1 -8q0 5 1 8zM122 70l2 5zM68 -90q1 0 1.5 -0.5t1.5 -0.5
q-1 0 -1.5 0.5t-1.5 0.5zM175 544q2 -2 2 -3q0 1 -2 3zM138 572l7 -3zM83 -142q1 0 2 -0.5t2 -0.5q-1 0 -2 0.5t-2 0.5zM52 -135q2 0 3 -1q-1 1 -3 1zM126 87v3v-3z" />
    <glyph glyph-name="egrave" unicode="&#xe8;" horiz-adv-x="252" 
d="M204 461q0 45 -21 77q26 -12 41 -40.5t15 -66.5v-206h-117v-160q-5 -5 -12 -5q-12 0 -17.5 13t-5.5 30v152h117v206zM142 -46q-51 0 -76 38q19 -8 41 -8q30 0 49 12t29.5 33t14.5 49.5t4 60.5v1h35v-31q0 -32 -4 -60.5t-14.5 -49.5t-29.5 -33t-49 -12zM87 461
q0 14 4 27.5t18 13.5q12 0 15.5 -13t4.5 -25q-5 -7 -6 -16t-1 -17v-92h-35v122zM129 749h13l70 -94h-69l-24 30h58zM13 69q11 -59 53 -77q-44 19 -53 77zM183 538l-1 1q-10 14 -20 21q13 -10 21 -22zM129 749l-22 30zM132 100q-1 -8 -2 -15t-3 -12q2 5 3 12t2 15zM129 576
q-10 2 -16 2q6 0 16 -2zM136 574l15 -6zM12 84q0 -4 0.5 -7.5t0.5 -7.5q0 4 -0.5 7.5t-0.5 7.5zM122 65l3 4zM156 565l6 -5zM11 94q0 -7 1 -10q-1 3 -1 10zM156 565l-5 3zM136 574q-2 0 -3 1q1 -1 3 -1zM133 109q0 -2 -0.5 -4.5t-0.5 -4.5q0 2 0.5 4.5t0.5 4.5z" />
    <glyph glyph-name="eacute" unicode="&#xe9;" horiz-adv-x="252" 
d="M204 461q0 45 -21 77q26 -12 41 -40.5t15 -66.5v-206h-117v-160q-5 -5 -12 -5q-12 0 -17.5 13t-5.5 30v152h117v206zM142 -46q-51 0 -76 38q19 -8 41 -8q30 0 49 12t29.5 33t14.5 49.5t4 60.5v1h35v-31q0 -32 -4 -60.5t-14.5 -49.5t-29.5 -33t-49 -12zM139 655h-69l22 30
h12l49 64h59zM87 461q0 14 4 27.5t18 13.5q12 0 15.5 -13t4.5 -25q-5 -7 -6 -16t-1 -17v-92h-35v122zM13 69q11 -59 53 -77q-44 19 -53 77zM183 538l-1 1q-10 14 -20 21q13 -10 21 -22zM177 779l-24 -30zM132 100q-1 -8 -2 -15t-3 -12q2 5 3 12t2 15zM129 576q-10 2 -16 2
q6 0 16 -2zM136 574l15 -6zM12 84q0 -4 0.5 -7.5t0.5 -7.5q0 4 -0.5 7.5t-0.5 7.5zM122 65l3 4zM156 565l6 -5zM11 94q0 -7 1 -10q-1 3 -1 10zM156 565l-5 3zM136 574q-2 0 -3 1q1 -1 3 -1zM133 109q0 -2 -0.5 -4.5t-0.5 -4.5q0 2 0.5 4.5t0.5 4.5z" />
    <glyph glyph-name="ecircumflex" unicode="&#xea;" horiz-adv-x="252" 
d="M204 461q0 45 -21 77q26 -12 41 -40.5t15 -66.5v-206h-117v-160q-5 -5 -12 -5q-12 0 -17.5 13t-5.5 30v152h117v206zM142 -46q-51 0 -76 38q19 -8 41 -8q30 0 49 12t29.5 33t14.5 49.5t4 60.5v1h35v-31q0 -32 -4 -60.5t-14.5 -49.5t-29.5 -33t-49 -12zM109 502
q12 0 15.5 -13t4.5 -25q-5 -7 -6 -16t-1 -17v-92h-35v122q0 14 4 27.5t18 13.5zM131 680l-32 -47h-54l16 30h3l40 58l39 -58zM178 633l-20 30h40l-45 87h20l60 -117h-55zM13 69q11 -59 53 -77q-44 19 -53 77zM183 538l-1 1q-10 14 -20 21q13 -10 21 -22zM153 750l-15 30z
M132 100q-1 -8 -2 -15t-3 -12q2 5 3 12t2 15zM129 576q-10 2 -16 2q6 0 16 -2zM136 574l15 -6zM12 84q0 -4 0.5 -7.5t0.5 -7.5q0 4 -0.5 7.5t-0.5 7.5zM122 65l3 4zM156 565l6 -5zM11 94q0 -7 1 -10q-1 3 -1 10zM156 565l-5 3zM133 109q0 -2 -0.5 -4.5t-0.5 -4.5
q0 2 0.5 4.5t0.5 4.5zM136 574q-2 0 -3 1q1 -1 3 -1z" />
    <glyph glyph-name="edieresis" unicode="&#xeb;" horiz-adv-x="252" 
d="M204 461q0 45 -21 77q26 -12 41 -40.5t15 -66.5v-206h-117v-160q-5 -5 -12 -5q-12 0 -17.5 13t-5.5 30v152h117v206zM142 -46q-51 0 -76 38q19 -8 41 -8q30 0 49 12t29.5 33t14.5 49.5t4 60.5v1h35v-31q0 -32 -4 -60.5t-14.5 -49.5t-29.5 -33t-49 -12zM109 502
q12 0 15.5 -13t4.5 -25q-5 -7 -6 -16t-1 -17v-92h-35v122q0 14 4 27.5t18 13.5zM241 658h-76v30h41v61h35v-91zM116 658h-75v30h40v61h35v-91zM13 69q11 -59 53 -77q-44 19 -53 77zM183 538l-1 1q-10 14 -20 21q13 -10 21 -22zM132 100q-1 -8 -2 -15t-3 -12q2 5 3 12t2 15z
M129 576q-10 2 -16 2q6 0 16 -2zM136 574l15 -6zM12 84q0 -4 0.5 -7.5t0.5 -7.5q0 4 -0.5 7.5t-0.5 7.5zM122 65l3 4zM156 565l6 -5zM11 94q0 -7 1 -10q-1 3 -1 10zM156 565l-5 3zM133 109q0 -2 -0.5 -4.5t-0.5 -4.5q0 2 0.5 4.5t0.5 4.5zM136 574q-2 0 -3 1q1 -1 3 -1z" />
    <glyph glyph-name="igrave" unicode="&#xec;" horiz-adv-x="151" 
d="M120 -43h-75v30h40v557h35v-587zM68 749h13l70 -94h-69l-24 30h58zM68 749l-22 30z" />
    <glyph glyph-name="iacute" unicode="&#xed;" horiz-adv-x="151" 
d="M120 -43h-75v30h40v557h35v-587zM84 655h-69l22 30h12l49 64h59zM122 779l-24 -30z" />
    <glyph glyph-name="icircumflex" unicode="&#xee;" horiz-adv-x="151" 
d="M120 -43h-75v30h40v557h35v-587zM73 680l-32 -47h-54l16 30h3l40 58l39 -58zM120 633l-20 30h40l-45 87h20l60 -117h-55zM95 750l-15 30z" />
    <glyph glyph-name="idieresis" unicode="&#xef;" horiz-adv-x="151" 
d="M120 -43h-75v30h40v557h35v-587zM185 659h-76v30h41v61h35v-91zM60 659h-75v30h40v61h35v-91z" />
    <glyph glyph-name="eth" unicode="&#xf0;" horiz-adv-x="273" 
d="M186 636q21 -45 34 -92.5t13 -100.5v-373q0 -57 -24.5 -85t-69.5 -28q-55 0 -77 37q17 -7 42 -7q45 0 69.5 28t24.5 85v373q0 55 -12 100.5t-35 92.5l56 59l-23 26l6 6l52 -62zM122 110q0 -13 -2 -25t-16 -12q-13 0 -15 12.5t-2 24.5v344q0 14 3 24t16 10t14.5 -11
t1.5 -23v-344zM95 605q4 -8 8 -15.5t6 -15.5q-14 0 -28 -2.5t-26 -7.5zM-4 616l50 55l-12 8l2 6q-6 5 -12.5 8.5t-11.5 7.5q10 -6 19 -12.5t18 -14.5zM13 67q7 -56 49 -73q-42 15 -49 73zM37 551q-14 -14 -19.5 -35t-6.5 -44q1 23 6.5 44t19.5 35zM103 733q0 1 -0.5 0.5
t-0.5 0.5q-11 11 -22 19l-22 16q12 -8 23 -16t22 -20zM27 578q-8 10 -15.5 19.5t-15.5 18.5zM184 751l-29 36zM27 578l15 -18zM12 701l-13 8zM12 83q0 -5 0.5 -8.5t0.5 -7.5q0 4 -0.5 7.5t-0.5 8.5zM45 777l13 -8zM45 777q-8 4 -12 7zM12 83q0 2 -0.5 4t-0.5 4q0 -2 0.5 -4
t0.5 -4z" />
    <glyph glyph-name="ntilde" unicode="&#xf1;" horiz-adv-x="258" 
d="M190 628q-16 0 -31.5 8.5t-27.5 16.5q-9 7 -17 11.5t-15 4.5q-10 0 -23.5 -14.5t-21.5 -24.5l-30 36q8 10 20 21.5t20 11.5t18 -6.5t21.5 -14t24.5 -14t27 -6.5q8 0 18 1.5t21 8t24 18.5t27 33l-16 16l2 3l49 -49q-14 -21 -27 -33t-24 -18.5t-21 -8t-18 -1.5zM117 756
q-9 6 -18.5 12t-19.5 9q10 -3 19 -8.5t18 -11.5q0 -1 1 -1zM147 739q-11 3 -23 12q12 -9 23 -12zM19 660q0 1 3 4zM173 746l5 4zM75 778q-2 1 -5 1q3 0 5 -1zM79 777q-2 1 -4 1q3 0 4 -1zM66 780q1 0 1.5 -0.5t1.5 -0.5q-1 0 -1.5 0.5t-1.5 0.5zM117 756l4 -3zM150 738h3h-3
zM150 738q-2 0 -3 1q1 -1 3 -1zM26 771q-4 -2 -6 -4q2 2 6 4zM202 462q0 23 -4.5 43.5t-15.5 37.5q28 -11 41.5 -42t13.5 -69v-475h-72v30h37v475zM130 463q-5 -8 -6.5 -17t-1.5 -16v-473h-76v30h41v473q0 11 4 24.5t18 13.5q11 0 16 -10.5t5 -24.5zM182 543q-18 26 -43 32
q27 -6 43 -32zM139 575q-3 1 -5.5 1.5t-5.5 0.5q3 0 11 -2z" />
    <glyph glyph-name="ograve" unicode="&#xf2;" 
d="M141 -47q-25 0 -44 10t-31 27q19 -7 40 -7q42 0 69 32.5t27 85.5v359q0 48 -21 80q26 -12 41 -40.5t15 -69.5v-359q0 -53 -27 -85.5t-69 -32.5zM107 502q13 0 16 -14.5t3 -26.5q-4 -6 -5 -14t-1 -16v-365q-6 -7 -14 -7q-12 0 -16.5 14.5t-4.5 26.5v361q0 13 4 27t18 14z
M128 749h13l70 -94h-69l-24 30h58zM128 749l-22 30zM150 568l-12 5zM23 35q3 -8 9 -16q-6 8 -9 16zM112 578q5 0 8.5 -0.5t7.5 -1.5q-4 1 -7.5 1.5t-8.5 0.5zM178 544q-5 6 -12 12q3 -3 6.5 -6t5.5 -6zM12 83q0 -5 0.5 -10t1.5 -10q-1 5 -1.5 10t-0.5 10zM44 5
q5 -4 9.5 -7.5t9.5 -5.5q-5 2 -9.5 5.5t-9.5 7.5zM32 19q2 -3 4.5 -5.5t4.5 -5.5q-2 3 -4.5 5.5t-4.5 5.5zM161 561q2 -2 3 -2.5t2 -2.5q-1 2 -2 2.5t-3 2.5zM22 38l-5 12zM126 81q0 -4 -2 -8q2 4 2 8zM66 -9v-1l-3 2q1 -1 3 -1zM11 95q0 -8 1 -12q-1 4 -1 12zM128 93
q0 -2 -2 -10q2 8 2 10zM121 67l3 6zM138 573q-1 0 -2 0.5t-2 0.5q1 0 2 -0.5t2 -0.5zM154 566q-2 0 -4 2zM155 565l6 -4zM178 544q2 -2 2 -3q0 1 -2 3zM132 575q-3 0 -4 1q1 -1 4 -1zM15 58q0 3 -1 5q1 -2 1 -5zM23 35q-1 1 -1 3q0 -2 1 -3z" />
    <glyph glyph-name="oacute" unicode="&#xf3;" 
d="M141 -47q-25 0 -44 10t-31 27q19 -7 40 -7q42 0 69 32.5t27 85.5v359q0 48 -21 80q26 -12 41 -40.5t15 -69.5v-359q0 -53 -27 -85.5t-69 -32.5zM107 502q13 0 16 -14.5t3 -26.5q-4 -6 -5 -14t-1 -16v-365l1 1q-6 -8 -15 -8q-12 0 -16.5 14.5t-4.5 26.5v361q0 13 4 27
t18 14zM139 654h-69l22 30h12l49 64h59zM177 778l-24 -30zM150 568l-12 5zM23 35q3 -8 9 -16q-6 8 -9 16zM112 578q5 0 8.5 -0.5t7.5 -1.5q-4 1 -7.5 1.5t-8.5 0.5zM178 544q-5 6 -12 12q3 -3 6.5 -6t5.5 -6zM12 83q0 -5 0.5 -10t1.5 -10q-1 5 -1.5 10t-0.5 10zM44 5
q5 -4 9.5 -7.5t9.5 -5.5q-5 2 -9.5 5.5t-9.5 7.5zM32 19q2 -3 4.5 -5.5t4.5 -5.5q-2 3 -4.5 5.5t-4.5 5.5zM161 561q2 -2 3 -2.5t2 -2.5q-1 2 -2 2.5t-3 2.5zM22 38l-5 12zM126 81q0 -4 -2 -8q2 4 2 8zM66 -9v-1l-3 2q1 -1 3 -1zM11 95q0 -8 1 -12q-1 4 -1 12zM128 93
q0 -2 -2 -10q2 8 2 10zM121 67l3 6zM138 573q-1 0 -2 0.5t-2 0.5q1 0 2 -0.5t2 -0.5zM154 566q-2 0 -4 2zM155 565l6 -4zM178 544q2 -2 2 -3q0 1 -2 3zM15 58q0 3 -1 5q1 -2 1 -5zM132 575q-3 0 -4 1q1 -1 4 -1zM23 35q-1 1 -1 3q0 -2 1 -3z" />
    <glyph glyph-name="ocircumflex" unicode="&#xf4;" 
d="M141 -47q-25 0 -44 10t-31 27q19 -7 40 -7q42 0 69 32.5t27 85.5v359q0 48 -21 80q26 -12 41 -40.5t15 -69.5v-359q0 -53 -27 -85.5t-69 -32.5zM107 502q13 0 16 -14.5t3 -26.5q-4 -6 -5 -14t-1 -16v-365l1 1q-6 -8 -15 -8q-12 0 -16.5 14.5t-4.5 26.5v361q0 13 4 27
t18 14zM132 681l-32 -47h-54l16 30h3l40 58l39 -58zM179 634l-20 30h40l-45 87h20l60 -117h-55zM154 751l-15 30zM150 568l-12 5zM23 35q3 -8 9 -16q-6 8 -9 16zM112 578q5 0 8.5 -0.5t7.5 -1.5q-4 1 -7.5 1.5t-8.5 0.5zM178 544q-5 6 -12 12q3 -3 6.5 -6t5.5 -6zM12 83
q0 -5 0.5 -10t1.5 -10q-1 5 -1.5 10t-0.5 10zM44 5q5 -4 9.5 -7.5t9.5 -5.5q-5 2 -9.5 5.5t-9.5 7.5zM32 19q2 -3 4.5 -5.5t4.5 -5.5q-2 3 -4.5 5.5t-4.5 5.5zM161 561q2 -2 3 -2.5t2 -2.5q-1 2 -2 2.5t-3 2.5zM22 38l-5 12zM126 81q0 -4 -2 -8q2 4 2 8zM66 -9v-1l-3 2
q1 -1 3 -1zM11 95q0 -8 1 -12q-1 4 -1 12zM128 93q0 -2 -2 -10q2 8 2 10zM121 67l3 6zM138 573q-1 0 -2 0.5t-2 0.5q1 0 2 -0.5t2 -0.5zM154 566q-2 0 -4 2zM155 565l6 -4zM178 544q2 -2 2 -3q0 1 -2 3zM15 58q0 3 -1 5q1 -2 1 -5zM132 575q-3 0 -4 1q1 -1 4 -1zM23 35
q-1 1 -1 3q0 -2 1 -3z" />
    <glyph glyph-name="otilde" unicode="&#xf5;" 
d="M141 -47q-25 0 -44 10t-31 27q19 -7 40 -7q42 0 69 32.5t27 85.5v359q0 48 -21 80q26 -12 41 -40.5t15 -69.5v-359q0 -53 -27 -85.5t-69 -32.5zM107 502q13 0 16 -14.5t3 -26.5q-4 -6 -5 -14t-1 -16v-365q-6 -7 -14 -7q-12 0 -16.5 14.5t-4.5 26.5v361q0 13 4 27t18 14z
M187 628q-16 0 -31.5 8.5t-27.5 16.5q-9 7 -17 11.5t-15 4.5q-10 0 -23.5 -14.5t-21.5 -24.5l-30 36q8 10 20 21.5t20 11.5t18 -6.5t21.5 -14t24.5 -14t27 -6.5q8 0 18 1.5t21 8t24 18.5t27 33l-16 16l2 3l49 -49q-14 -21 -27 -33t-24 -18.5t-21 -8t-18 -1.5zM114 756
q-9 6 -18.5 12t-19.5 9q10 -3 19 -8.5t18 -11.5q0 -1 1 -1zM144 739q-11 3 -23 12q12 -9 23 -12zM150 568l-12 5zM23 35q3 -8 9 -16q-6 8 -9 16zM112 578q5 0 8.5 -0.5t7.5 -1.5q-4 1 -7.5 1.5t-8.5 0.5zM178 544q-5 6 -12 12q3 -3 6.5 -6t5.5 -6zM12 83q0 -5 0.5 -10
t1.5 -10q-1 5 -1.5 10t-0.5 10zM44 5q5 -4 9.5 -7.5t9.5 -5.5q-5 2 -9.5 5.5t-9.5 7.5zM32 19q2 -3 4.5 -5.5t4.5 -5.5q-2 3 -4.5 5.5t-4.5 5.5zM22 38l-5 12zM161 561q2 -2 3 -2.5t2 -2.5q-1 2 -2 2.5t-3 2.5zM126 81q0 -4 -2 -8q2 4 2 8zM66 -9v-1l-3 2q1 -1 3 -1zM11 95
q0 -8 1 -12q-1 4 -1 12zM16 660q0 1 3 4zM128 93q0 -2 -2 -10q2 8 2 10zM170 746l5 4zM138 573q-1 0 -2 0.5t-2 0.5q1 0 2 -0.5t2 -0.5zM121 67l3 6zM72 778q-2 1 -5 1q3 0 5 -1zM154 566q-2 0 -4 2zM76 777q-2 1 -4 1q3 0 4 -1zM155 565l6 -4zM114 756l4 -3zM63 780
q1 0 1.5 -0.5t1.5 -0.5q-1 0 -1.5 0.5t-1.5 0.5zM147 738h3h-3zM15 58q0 3 -1 5q1 -2 1 -5zM178 544q2 -2 2 -3q0 1 -2 3zM132 575q-3 0 -4 1q1 -1 4 -1zM23 35q-1 1 -1 3q0 -2 1 -3zM23 771q-4 -2 -6 -4q2 2 6 4zM147 738q-2 0 -3 1q1 -1 3 -1z" />
    <glyph glyph-name="odieresis" unicode="&#xf6;" 
d="M141 -47q-25 0 -44 10t-31 27q19 -7 40 -7q42 0 69 32.5t27 85.5v359q0 48 -21 80q26 -12 41 -40.5t15 -69.5v-359q0 -53 -27 -85.5t-69 -32.5zM107 502q13 0 16 -14.5t3 -26.5q-4 -6 -5 -14t-1 -16v-365l1 1q-6 -8 -15 -8q-12 0 -16.5 14.5t-4.5 26.5v361q0 13 4 27
t18 14zM241 658h-76v30h41v61h35v-91zM116 658h-75v30h40v61h35v-91zM150 568l-12 5zM23 35q3 -8 9 -16q-6 8 -9 16zM112 578q5 0 8.5 -0.5t7.5 -1.5q-4 1 -7.5 1.5t-8.5 0.5zM178 544q-5 6 -12 12q3 -3 6.5 -6t5.5 -6zM12 83q0 -5 0.5 -10t1.5 -10q-1 5 -1.5 10t-0.5 10z
M44 5q5 -4 9.5 -7.5t9.5 -5.5q-5 2 -9.5 5.5t-9.5 7.5zM32 19q2 -3 4.5 -5.5t4.5 -5.5q-2 3 -4.5 5.5t-4.5 5.5zM161 561q2 -2 3 -2.5t2 -2.5q-1 2 -2 2.5t-3 2.5zM22 38l-5 12zM126 81q0 -4 -2 -8q2 4 2 8zM66 -9v-1l-3 2q1 -1 3 -1zM11 95q0 -8 1 -12q-1 4 -1 12zM128 93
q0 -2 -2 -10q2 8 2 10zM121 67l3 6zM138 573q-1 0 -2 0.5t-2 0.5q1 0 2 -0.5t2 -0.5zM154 566q-2 0 -4 2zM155 565l6 -4zM178 544q2 -2 2 -3q0 1 -2 3zM15 58q0 3 -1 5q1 -2 1 -5zM132 575q-3 0 -4 1q1 -1 4 -1zM23 35q-1 1 -1 3q0 -2 1 -3z" />
    <glyph glyph-name="divide" unicode="&#xf7;" horiz-adv-x="356" 
d="M272 302h35v-87h-109v18h-76v-18h-44v30h194v57zM198 203h35v-91h-76v30h41v61zM233 332h-76v24h41v61h35v-85z" />
    <glyph glyph-name="oslash" unicode="&#xf8;" 
d="M141 -47q-23 0 -41.5 9t-30.5 25q-3 -7 -7 -15t-6 -15h-81l13 30h33l13 30q25 -34 72 -34q42 0 69 32.5t27 85.5v311l56 132h48l-69 -162v-311q0 -53 -27 -85.5t-69 -32.5zM128 124l-8 -17v-41l1 1q-6 -8 -15 -8q-12 0 -16.5 14.5t-4.5 26.5v37l42 99zM107 502
q13 0 16 -14.5t3 -26.5q-4 -6 -5 -14t-1 -16v-23l-35 -82v135q0 13 4 27t18 14zM175 547q-8 9 -18 16t-22 11q12 -4 22 -11t18 -16zM181 551q2 6 5 12t5 11zM126 81q0 -4 -2 -8q2 4 2 8zM128 93q0 -2 -2 -10q2 8 2 10zM121 67l3 6z" />
    <glyph glyph-name="ugrave" unicode="&#xf9;" 
d="M238 -43h-46l-5 30h16v557h35v-587zM109 63q-14 0 -19 10t-5 24v447h35v-477q-4 -4 -11 -4zM157 -13h21q-8 -14 -20.5 -24.5t-29.5 -10.5q-47 0 -66 35q15 -5 31 -5q12 0 21.5 5t16.5 13t12 17.5t7 17.5zM129 750h13l70 -94h-69l-24 30h58zM14 52q5 -21 14 -37.5
t26 -24.5q-17 8 -26 24.5t-14 37.5zM129 750l-22 30zM127 80q-3 -9 -7 -13q2 2 3.5 5t3.5 8zM11 91q0 -5 0.5 -9t0.5 -8q0 4 -0.5 8t-0.5 9zM127 80l3 17zM54 -10l8 -3q-2 0 -4 1zM13 68q0 -11 1 -16q-1 5 -1 16zM12 73q0 -2 0.5 -2.5t0.5 -2.5q0 2 -0.5 2.5t-0.5 2.5z" />
    <glyph glyph-name="uacute" unicode="&#xfa;" 
d="M238 -43h-46l-5 30h16v557h35v-587zM109 63q-14 0 -19 10t-5 24v447h35v-477q-4 -4 -11 -4zM139 656h-69l22 30h12l49 64h59zM157 -13h21q-8 -14 -20.5 -24.5t-29.5 -10.5q-47 0 -66 35q15 -5 31 -5q12 0 21.5 5t16.5 13t12 17.5t7 17.5zM14 52q5 -21 14 -37.5t26 -24.5
q-17 8 -26 24.5t-14 37.5zM177 780l-24 -30zM127 80q-3 -9 -7 -13q2 2 3.5 5t3.5 8zM11 91q0 -5 0.5 -9t0.5 -8q0 4 -0.5 8t-0.5 9zM127 80l3 17zM54 -10l8 -3q-2 0 -4 1zM13 68q0 -11 1 -16q-1 5 -1 16zM12 73q0 -2 0.5 -2.5t0.5 -2.5q0 2 -0.5 2.5t-0.5 2.5z" />
    <glyph glyph-name="ucircumflex" unicode="&#xfb;" 
d="M238 -43h-46l-5 30h16v557h35v-587zM109 63q-14 0 -19 10t-5 24v447h35v-477q-4 -4 -11 -4zM133 679l-32 -47h-54l16 30h3l40 58l39 -58zM157 -13h21q-8 -14 -20.5 -24.5t-29.5 -10.5q-47 0 -66 35q15 -5 31 -5q12 0 21.5 5t16.5 13t12 17.5t7 17.5zM180 632l-20 30h40
l-45 87h20l60 -117h-55zM14 52q5 -21 14 -37.5t26 -24.5q-17 8 -26 24.5t-14 37.5zM155 749l-15 30zM127 80q-3 -9 -7 -13q2 2 3.5 5t3.5 8zM11 91q0 -5 0.5 -9t0.5 -8q0 4 -0.5 8t-0.5 9zM127 80l3 17zM54 -10l8 -3q-2 0 -4 1zM13 68q0 -11 1 -16q-1 5 -1 16zM12 73
q0 -2 0.5 -2.5t0.5 -2.5q0 2 -0.5 2.5t-0.5 2.5z" />
    <glyph glyph-name="udieresis" unicode="&#xfc;" 
d="M238 -43h-46l-5 30h16v557h35v-587zM109 63q-14 0 -19 10t-5 24v447h35v-477q-4 -4 -11 -4zM239 658h-76v30h41v61h35v-91zM114 658h-75v30h40v61h35v-91zM157 -13h21q-8 -14 -20.5 -24.5t-29.5 -10.5q-47 0 -66 35q15 -5 31 -5q12 0 21.5 5t16.5 13t12 17.5t7 17.5z
M14 52q5 -21 14 -37.5t26 -24.5q-17 8 -26 24.5t-14 37.5zM127 80q-3 -9 -7 -13q2 2 3.5 5t3.5 8zM11 91q0 -5 0.5 -9t0.5 -8q0 4 -0.5 8t-0.5 9zM127 80l3 17zM54 -10l8 -3q-2 0 -4 1zM13 68q0 -11 1 -16q-1 5 -1 16zM12 73q0 -2 0.5 -2.5t0.5 -2.5q0 2 -0.5 2.5t-0.5 2.5z
" />
    <glyph glyph-name="yacute" unicode="&#xfd;" horiz-adv-x="256" 
d="M40 -182q31 1 51 16.5t32 41t18 58t10 65.5l60 545h39l-64 -575q-4 -34 -10 -66.5t-18 -58t-32.5 -41t-53.5 -15.5h-32v30zM91 544h33l6 -91l9 121l-21 -296l-4 -80l-4 80zM148 656h-69l22 30h12l49 64h59zM75 -6q0 -9 -2 -19.5t-5 -21t-8 -19.5t-11 -14q12 10 18 33
t8 41zM186 780l-24 -30zM215 574l-4 -30zM49 -80q0 -1 -5 -3q5 2 5 3zM44 -83q-1 -1 -3 -1q2 0 3 1z" />
    <glyph glyph-name="thorn" unicode="&#xfe;" horiz-adv-x="293" 
d="M198 549q0 52 -19 82q26 -11 40 -39t14 -73v-347q0 -57 -22.5 -88.5t-69.5 -31.5h-10t-9 1v-96h-76v30h41v96q5 -1 9.5 -1h9.5q47 0 69.5 31.5t22.5 88.5v347zM123 543q-1 -5 -1 -20v-331q0 2 0.5 2.5t0.5 2.5q-1 -16 -6.5 -23t-12 -7.5t-12 4t-5.5 10.5v368q0 19 1.5 27
t15.5 8q7 0 11 -4t6 -9.5t2 -11.5v-10v-6zM87 740h35v-72q-4 0 -7.5 0.5t-7.5 0.5h-10t-10 -1v72zM179 631l-1 1q-19 30 -56 36q38 -6 57 -37z" />
    <glyph glyph-name="ydieresis" unicode="&#xff;" horiz-adv-x="256" 
d="M40 -182q31 1 51 16.5t32 41t18 58t10 65.5l60 545h39l-64 -575q-4 -34 -10 -66.5t-18 -58t-32.5 -41t-53.5 -15.5h-32v30zM91 544h33l6 -91l9 121l-21 -296l-4 -80l-4 80zM250 658h-76v30h41v61h35v-91zM125 658h-75v30h40v61h35v-91zM75 -6q0 -9 -2 -19.5t-5 -21
t-8 -19.5t-11 -14q12 10 18 33t8 41zM215 574l-4 -30zM49 -80q0 -1 -5 -3q5 2 5 3zM44 -83q-1 -1 -3 -1q2 0 3 1z" />
    <glyph glyph-name="Amacron" unicode="&#x100;" horiz-adv-x="304" 
d="M187 750h33l66 -793h-77l-2 30h44zM48 -43l2 30h40l17 215h51l2 -30h-18q-4 -53 -8.5 -107.5t-8.5 -107.5h-77zM274 852h-215v30h180v46h35v-76zM131 654l19 -328l-3 -37h-36zM187 750l-2 30zM152 289l-2 37v2z" />
    <glyph glyph-name="amacron" unicode="&#x101;" horiz-adv-x="261" 
d="M248 673h-215v30h180v46h35v-76zM198 464q0 48 -18 75q53 -23 53 -105v-477h-49l-3 30h17v477zM123 241q-5 -10 -5 -20v-147q-5 -10 -14 -10q-13 0 -17 10t-4 24v153q0 12 5.5 21t13 16.5t13.5 13t8 9.5v-70zM102 379l3 2h-59v30h38q1 51 3.5 71t17.5 20q12 0 15.5 -13.5
t4.5 -47.5q0 5 -0.5 9.5t-0.5 9.5q-5 -14 -5 -69q-3 -2 -6.5 -5.5t-8.5 -6.5h-2zM149 -13h26q-5 -12 -16.5 -23.5t-29.5 -11.5q-51 0 -69 35q15 -5 34 -5q14 0 23.5 6.5t15.5 15.5t9 18t3 13zM24 18q7 -13 18 -22q-10 7 -18 22zM123 99q-1 -7 -2 -13.5t-3 -11.5q2 5 3 11.5
t2 13.5zM44 -5q4 -2 7 -4t8 -4q-5 2 -8 4t-7 4zM125 399q-2 -4 -6 -8q4 4 6 8zM42 -4q1 0 1 -0.5t1 -0.5q-1 0 -1 0.5t-1 0.5z" />
    <glyph glyph-name="Abreve" unicode="&#x102;" horiz-adv-x="304" 
d="M251 -13h-44l2 -30h77l-66 793h-33zM125 -43q4 53 8.5 107.5t8.5 107.5h18l-2 30h-51l-17 -215h-40l-2 -30h77zM131 654l-20 -365h36l3 37zM132 856q-20 0 -38 6.5t-32 20.5q11 -11 24 -17q14 -20 36 -30t45 -10q17 0 34 5.5t30.5 17t22 28t8.5 39.5v13h-37
q-6 -37 -34 -55t-59 -18zM132 922q10 0 15 6l-1 -1v2h-29q5 -7 15 -7zM185 780l2 -30zM153 959q0 -6 -0.5 -13.5t-2.5 -12.5q2 6 2.5 13t0.5 13zM40 921q2 -7 4.5 -13t5.5 -11q-3 5 -5.5 11t-4.5 13zM50 897l12 -14zM37 941q0 -3 0.5 -6.5t0.5 -6.5q0 3 -0.5 6.5t-0.5 6.5z
M150 328v-2l2 -37zM117 929q-3 2 -4 7q1 -5 4 -7zM226 933q0 -2 -0.5 -2.5t-0.5 -1.5q0 1 0.5 1.5t0.5 2.5zM38 928l2 -7zM149 931q-2 -2 -2 -3q0 1 2 3zM226 933q0 2 0.5 4t0.5 4q0 -2 -0.5 -4t-0.5 -4zM113 936q0 2 -1 3q1 -1 1 -3zM111 943v7v-7zM112 939q0 2 -0.5 2
t-0.5 2q0 -1 0.5 -2t0.5 -2z" />
    <glyph glyph-name="abreve" unicode="&#x103;" horiz-adv-x="261" 
d="M109 677q-20 0 -38 6.5t-32 20.5q11 -11 24 -17q14 -20 36 -30t45 -10q17 0 34 5.5t30.5 17t22 28t8.5 39.5v13h-37q-6 -37 -34 -55t-59 -18zM109 743q9 0 14 5v2h-29q5 -7 15 -7zM130 780q0 -6 -0.5 -13.5t-2.5 -12.5q2 6 2.5 13t0.5 13zM17 742q2 -7 4.5 -13t5.5 -11
q-3 5 -5.5 11t-4.5 13zM27 718l12 -14zM14 762q0 -3 0.5 -6.5t0.5 -6.5q0 3 -0.5 6.5t-0.5 6.5zM94 750q-3 2 -4 7q1 -5 4 -7zM203 754q0 -2 -0.5 -2.5t-0.5 -1.5q0 1 0.5 1.5t0.5 2.5zM15 749l2 -7zM126 752q-2 -2 -2 -3q0 1 2 3zM90 757q0 2 -1 3q1 -1 1 -3zM203 754
q0 2 0.5 4t0.5 4q0 -2 -0.5 -4t-0.5 -4zM88 764v7v-7zM89 760q0 2 -0.5 2t-0.5 2q0 -1 0.5 -2t0.5 -2zM198 464v-477h-17l3 -30h49v477q0 82 -53 105q18 -27 18 -75zM123 311q-2 -4 -8 -9.5t-13.5 -13t-13 -16.5t-5.5 -21v-153q0 -14 4 -24t17 -10q9 0 14 10v147q0 10 5 20
v70zM104 379q5 3 8.5 6.5t6.5 5.5q0 55 5 69q0 -5 0.5 -9.5t0.5 -9.5q-1 34 -4.5 47.5t-15.5 13.5q-15 0 -17.5 -20t-3.5 -71h-38v-30h59l-3 -2h2zM145 35q0 -4 -3 -13t-9 -18t-15.5 -15.5t-23.5 -6.5q-19 0 -34 5q18 -35 69 -35q18 0 29.5 11.5t16.5 23.5h-26zM24 18
q8 -15 18 -22q-11 9 -18 22zM123 99q-1 -7 -2 -13.5t-3 -11.5q2 5 3 11.5t2 13.5zM44 -5q4 -2 7 -4t8 -4q-5 2 -8 4t-7 4zM125 399q-2 -4 -6 -8q4 4 6 8zM42 -4q1 0 1 -0.5t1 -0.5q-1 0 -1 0.5t-1 0.5z" />
    <glyph glyph-name="Aogonek" unicode="&#x104;" horiz-adv-x="304" 
d="M187 750h33l66 -792l3 -29q-6 -2 -21 -12t-26 -21q4 1 7 2t7 3l6 2q-11 -5 -22.5 -9t-22.5 -4q-8 0 -13 4.5t-5 16.5q0 5 7 13t16.5 15.5t18.5 13t13 6.5l-3 29zM158 202l2 -30h-18q-4 -53 -8.5 -107.5t-8.5 -107.5h-77l2 30h40l17 215h51zM150 326l-3 -37h-36l20 365z
M314 -182l-24 -8q-8 -3 -18.5 -5.5t-20.5 -2.5q-11 0 -23 4t-21 12q-9 9 -14 18q9 -4 23 -4q20 0 39 8l24 8l-5 16l17 7l6 2zM213 -13q-15 -3 -28 -12q11 8 22 11v1h6zM172 -151q8 -8 20 -13q-6 2 -10.5 5t-9.5 7v1zM187 750l-2 30zM149 -73l6 15zM152 289l-2 37v2zM157 -56
l6 10zM163 -46l7 8zM171 -37l5 4zM147 -83l2 9zM180 -29l-3 -3zM147 -83v-5v5zM148 -105q0 -3 1 -5q-1 2 -1 5zM183 -27q-1 0 -3 -2q2 2 3 2zM192 -164h1h-1z" />
    <glyph glyph-name="aogonek" unicode="&#x105;" horiz-adv-x="261" 
d="M198 464q0 48 -18 75q53 -23 53 -105v-477h-43q-6 -5 -11 -11l14 6l6 2q-11 -5 -22.5 -9t-22.5 -4q-8 0 -13 4.5t-5 16.5q0 5 5.5 11.5t13.5 13.5h43v477zM123 241q-5 -10 -5 -20v-147q-5 -10 -14 -10q-13 0 -17 10t-4 24v153q0 12 5.5 21t13 16.5t13.5 13t8 9.5v-70z
M125 401v33.5t-1 25.5q-5 -14 -5 -69q-6 -6 -18 -14.5t-19.5 -13.5t-5.5 -3t25 18l4 3h-59v30h38q1 51 3.5 71t17.5 20q8 0 12 -4.5t6 -16t2 -31v-49.5zM251 -131l-24 -8q-8 -3 -18.5 -5.5t-20.5 -2.5q-11 0 -23 4t-21 12q-9 9 -14 18q9 -4 23 -4q20 0 39 8l24 8l-5 16l17 7
l6 2zM88 -18q-4 -8 -4 -18q-16 10 -23 23q6 -2 12.5 -3t14.5 -2zM13 57q5 -28 16 -45t32 -25q-22 7 -33 24.5t-15 45.5zM109 -100q8 -8 20 -13q-6 2 -10.5 5t-9.5 7v1zM123 99q-1 -7 -2 -13.5t-3 -11.5q2 5 3 11.5t2 13.5zM156 564q-7 5 -21 10q14 -5 21 -10zM162 560
l12 -11zM11 86q1 -8 1.5 -15t0.5 -14zM125 399q-2 -4 -6 -8q4 4 6 8zM174 549l6 -9v-1zM121 577l14 -3zM162 560l-4 3zM108 578q2 0 3.5 -0.5t3.5 -0.5q-2 0 -3.5 0.5t-3.5 0.5zM116 577h5h-5zM158 563l-2 1q1 0 2 -1zM85 -54q0 -3 1 -5q-1 2 -1 5zM129 -113h1h-1z" />
    <glyph glyph-name="Cacute" unicode="&#x106;" horiz-adv-x="264" 
d="M138 834h-69l22 30h12l49 64h59zM176 958l-24 -30zM109 708q12 0 17.5 -6t6.5 -32q0 2 -0.5 3t-0.5 3q-12 -4 -12 -29v-590q-2 -1 -5.5 -1h-6.5q-12 0 -17.5 7.5t-5.5 26.5v587q0 31 24 31zM107 -21q34 0 53.5 8.5t29.5 26t12.5 44t2.5 62.5v85h35v-115q0 -36 -2.5 -62.5
t-12.5 -44t-29.5 -26t-53.5 -8.5q-31 0 -53 8t-33 29q20 -7 51 -7zM205 682q0 42 -12 66q26 -9 36.5 -32t10.5 -64v-150h-72v30h37v150zM130 70q-3 -10 -10 -13q7 3 10 13z" />
    <glyph glyph-name="cacute" unicode="&#x107;" horiz-adv-x="249" 
d="M107 502q11 0 15 -11.5t5 -28.5q-4 -6 -5 -14.5t-1 -16.5v-363q-5 -9 -14 -9q-12 0 -16.5 14t-4.5 25v363q0 13 4 27t17 14zM139 -47q-49 0 -74 37q-27 12 -41 41q23 -48 80 -48q30 0 48.5 12.5t28 33t13 48t4.5 57.5v6h35v-36q-1 -30 -4.5 -57.5t-13 -48t-28 -33
t-48.5 -12.5zM198 460q0 49 -20 80q26 -11 40.5 -39.5t14.5 -70.5v-69h-71v30h36v69zM137 655h-69l22 30h12l49 64h59zM175 779l-24 -30zM110 578q5 0 15 -2q-4 1 -7 1.5t-8 0.5zM13 67q1 -4 1.5 -8t2.5 -8q-2 4 -2.5 8t-1.5 8zM175 544q-4 7 -12 13q8 -6 12 -13zM20 41
q1 -3 2 -5.5t2 -4.5q-1 2 -2 4.5t-2 5.5zM138 572q-5 2 -13 4q3 -1 6.5 -1.5t6.5 -2.5zM12 85q0 -4 0.5 -7.5t0.5 -7.5q0 4 -0.5 7.5t-0.5 7.5zM158 561l5 -4zM20 41l-3 10zM122 70q0 -1 -0.5 -1.5t-0.5 -1.5v1q0 1 0.5 1t0.5 1zM153 565q-2 1 -3.5 2t-3.5 2q2 -1 3.5 -2
t3.5 -2zM11 92q0 -2 0.5 -3.5t0.5 -3.5q0 2 -0.5 3.5t-0.5 3.5zM153 565l5 -4zM122 70l2 5zM126 87q-1 -3 -1 -8q0 5 1 8zM127 98q0 -2 -0.5 -4t-0.5 -4q0 2 0.5 4t0.5 4zM175 544q2 -2 2 -3q0 1 -2 3zM138 572l7 -3zM13 67v3v-3zM126 87v3v-3z" />
    <glyph glyph-name="Ccircumflex" unicode="&#x108;" horiz-adv-x="264" 
d="M137 860l-32 -47h-54l16 30h3l40 58l39 -58zM184 813l-20 30h40l-45 87h20l60 -117h-55zM159 930l-15 30zM109 708q12 0 17.5 -6t6.5 -32q0 2 -0.5 3t-0.5 3q-12 -4 -12 -29v-590q-2 -1 -5.5 -1h-6.5q-12 0 -17.5 7.5t-5.5 26.5v587q0 31 24 31zM107 -21q34 0 53.5 8.5
t29.5 26t12.5 44t2.5 62.5v85h35v-115q0 -36 -2.5 -62.5t-12.5 -44t-29.5 -26t-53.5 -8.5q-31 0 -53 8t-33 29q20 -7 51 -7zM205 682q0 42 -12 66q26 -9 36.5 -32t10.5 -64v-150h-72v30h37v150zM130 70q-3 -10 -10 -13q7 3 10 13z" />
    <glyph glyph-name="ccircumflex" unicode="&#x109;" horiz-adv-x="249" 
d="M107 502q11 0 15 -11.5t5 -28.5q-4 -6 -5 -14.5t-1 -16.5v-363q-5 -9 -14 -9q-12 0 -16.5 14t-4.5 25v363q0 13 4 27t17 14zM139 -47q-49 0 -74 37q-27 12 -41 41q23 -48 80 -48q30 0 48.5 12.5t28 33t13 48t4.5 57.5v6h35v-36q-1 -30 -4.5 -57.5t-13 -48t-28 -33
t-48.5 -12.5zM198 460q0 49 -20 80q26 -11 40.5 -39.5t14.5 -70.5v-69h-71v30h36v69zM134 680l-32 -47h-54l16 30h3l40 58l39 -58zM181 633l-20 30h40l-45 87h20l60 -117h-55zM156 750l-15 30zM110 578q5 0 15 -2q-4 1 -7 1.5t-8 0.5zM13 67q1 -4 1.5 -8t2.5 -8q-2 4 -2.5 8
t-1.5 8zM175 544q-4 7 -12 13q8 -6 12 -13zM20 41q1 -3 2 -5.5t2 -4.5q-1 2 -2 4.5t-2 5.5zM138 572q-5 2 -13 4q3 -1 6.5 -1.5t6.5 -2.5zM12 85q0 -4 0.5 -7.5t0.5 -7.5q0 4 -0.5 7.5t-0.5 7.5zM158 561l5 -4zM20 41l-3 10zM122 70q0 -1 -0.5 -1.5t-0.5 -1.5v1q0 1 0.5 1
t0.5 1zM153 565q-2 1 -3.5 2t-3.5 2q2 -1 3.5 -2t3.5 -2zM11 92q0 -2 0.5 -3.5t0.5 -3.5q0 2 -0.5 3.5t-0.5 3.5zM153 565l5 -4zM127 98q0 -2 -0.5 -4t-0.5 -4q0 2 0.5 4t0.5 4zM122 70l2 5zM126 87q-1 -3 -1 -8q0 5 1 8zM175 544q2 -2 2 -3q0 1 -2 3zM138 572l7 -3zM13 67
v3v-3zM126 87v3v-3z" />
    <glyph glyph-name="Cdotaccent" unicode="&#x10a;" horiz-adv-x="264" 
d="M142 912q0 8 -3 16q17 -4 27.5 -16.5t10.5 -29.5q0 -20 -14.5 -33.5t-34.5 -13.5q-34 0 -45 31q3 -1 10 -1q20 0 34.5 13.5t14.5 33.5zM51 890q9 -19 32 -24q-22 3 -32 24zM134 937q-8 12 -19 18q11 -6 19 -18zM105 958l10 -3zM139 928q-1 3 -5 9q4 -6 5 -9zM46 906
q0 -4 2 -8q-2 4 -2 8zM105 958q-1 0 -1.5 0.5t-1.5 0.5q1 0 1.5 -0.5t1.5 -0.5zM51 890l-2 3zM68 953l6 3zM100 959h2h-2zM97 960l2 -1q-1 0 -2 1zM109 708q12 0 17.5 -6t6.5 -32q0 2 -0.5 3t-0.5 3q-12 -4 -12 -29v-590q-2 -1 -5.5 -1h-6.5q-12 0 -17.5 7.5t-5.5 26.5v587
q0 31 24 31zM107 -21q34 0 53.5 8.5t29.5 26t12.5 44t2.5 62.5v85h35v-115q0 -36 -2.5 -62.5t-12.5 -44t-29.5 -26t-53.5 -8.5q-31 0 -53 8t-33 29q20 -7 51 -7zM205 682q0 42 -12 66q26 -9 36.5 -32t10.5 -64v-150h-72v30h37v150zM130 70q-3 -10 -10 -13q7 3 10 13z" />
    <glyph glyph-name="cdotaccent" unicode="&#x10b;" horiz-adv-x="249" 
d="M107 502q11 0 15 -11.5t5 -28.5q-4 -6 -5 -14.5t-1 -16.5v-363q-5 -9 -14 -9q-12 0 -16.5 14t-4.5 25v363q0 13 4 27t17 14zM139 -47q-49 0 -74 37q-27 12 -41 41q23 -48 80 -48q30 0 48.5 12.5t28 33t13 48t4.5 57.5v6h35v-36q-1 -30 -4.5 -57.5t-13 -48t-28 -33
t-48.5 -12.5zM198 460q0 49 -20 80q26 -11 40.5 -39.5t14.5 -70.5v-69h-71v30h36v69zM154 732q0 8 -3 16q17 -4 27.5 -16.5t10.5 -29.5q0 -20 -14.5 -33.5t-34.5 -13.5q-34 0 -45 31q3 -1 10 -1q20 0 34.5 13.5t14.5 33.5zM63 710q9 -19 32 -24q-22 3 -32 24zM146 757
q-8 12 -19 18q11 -6 19 -18zM110 578q5 0 15 -2q-4 1 -7 1.5t-8 0.5zM13 67q1 -4 1.5 -8t2.5 -8q-2 4 -2.5 8t-1.5 8zM175 544q-4 7 -12 13q8 -6 12 -13zM117 778l10 -3zM20 41q1 -3 2 -5.5t2 -4.5q-1 2 -2 4.5t-2 5.5zM151 748q-1 3 -5 9q4 -6 5 -9zM138 572q-5 2 -13 4
q3 -1 6.5 -1.5t6.5 -2.5zM12 85q0 -4 0.5 -7.5t0.5 -7.5q0 4 -0.5 7.5t-0.5 7.5zM158 561l5 -4zM20 41l-3 10zM153 565q-2 1 -3.5 2t-3.5 2q2 -1 3.5 -2t3.5 -2zM122 70q0 -1 -0.5 -1.5t-0.5 -1.5v1q0 1 0.5 1t0.5 1zM11 92q0 -2 0.5 -3.5t0.5 -3.5q0 2 -0.5 3.5t-0.5 3.5z
M58 726q0 -4 2 -8q-2 4 -2 8zM153 565l5 -4zM117 778q-1 0 -1.5 0.5t-1.5 0.5q1 0 1.5 -0.5t1.5 -0.5zM122 70l2 5zM126 87q-1 -3 -1 -8q0 5 1 8zM127 98q0 -2 -0.5 -4t-0.5 -4q0 2 0.5 4t0.5 4zM63 710l-2 3zM175 544q2 -2 2 -3q0 1 -2 3zM80 773l6 3zM138 572l7 -3z
M126 87v3v-3zM109 780l2 -1q-1 0 -2 1zM112 779h2h-2zM13 67v3v-3z" />
    <glyph glyph-name="Ccaron" unicode="&#x10c;" horiz-adv-x="264" 
d="M144 843l44 87h51l-60 -117h-66l-16 30h47zM90 930h15l12 -18l-7 -10zM133 936q4 6 7.5 12t8.5 12zM133 936l-16 -24zM188 930l16 30zM90 930l-20 30zM109 708q12 0 17.5 -6t6.5 -32q0 2 -0.5 3t-0.5 3q-12 -4 -12 -29v-590q-2 -1 -5.5 -1h-6.5q-12 0 -17.5 7.5
t-5.5 26.5v587q0 31 24 31zM107 -21q34 0 53.5 8.5t29.5 26t12.5 44t2.5 62.5v85h35v-115q0 -36 -2.5 -62.5t-12.5 -44t-29.5 -26t-53.5 -8.5q-31 0 -53 8t-33 29q20 -7 51 -7zM205 682q0 42 -12 66q26 -9 36.5 -32t10.5 -64v-150h-72v30h37v150zM130 70q-3 -10 -10 -13
q7 3 10 13z" />
    <glyph glyph-name="ccaron" unicode="&#x10d;" horiz-adv-x="249" 
d="M107 502q11 0 15 -11.5t5 -28.5q-4 -6 -5 -14.5t-1 -16.5v-363q-5 -9 -14 -9q-12 0 -16.5 14t-4.5 25v363q0 13 4 27t17 14zM139 -47q-49 0 -74 37q-27 12 -41 41q23 -48 80 -48q30 0 48.5 12.5t28 33t13 48t4.5 57.5v6h35v-36q-1 -30 -4.5 -57.5t-13 -48t-28 -33
t-48.5 -12.5zM140 664l44 87h51l-60 -117h-66l-16 30h47zM198 460q0 49 -20 80q26 -11 40.5 -39.5t14.5 -70.5v-69h-71v30h36v69zM86 751h15l12 -18l-7 -10zM129 757q4 6 7.5 12t8.5 12zM129 757l-16 -24zM184 751l16 30zM86 751l-20 30zM110 578q5 0 15 -2q-4 1 -7 1.5
t-8 0.5zM13 67q1 -4 1.5 -8t2.5 -8q-2 4 -2.5 8t-1.5 8zM175 544q-4 7 -12 13q8 -6 12 -13zM20 41q1 -3 2 -5.5t2 -4.5q-1 2 -2 4.5t-2 5.5zM138 572q-5 2 -13 4q3 -1 6.5 -1.5t6.5 -2.5zM12 85q0 -4 0.5 -7.5t0.5 -7.5q0 4 -0.5 7.5t-0.5 7.5zM158 561l5 -4zM20 41l-3 10z
M122 70q0 -1 -0.5 -1.5t-0.5 -1.5v1q0 1 0.5 1t0.5 1zM153 565q-2 1 -3.5 2t-3.5 2q2 -1 3.5 -2t3.5 -2zM11 92q0 -2 0.5 -3.5t0.5 -3.5q0 2 -0.5 3.5t-0.5 3.5zM153 565l5 -4zM122 70l2 5zM127 98q0 -2 -0.5 -4t-0.5 -4q0 2 0.5 4t0.5 4zM126 87q-1 -3 -1 -8q0 5 1 8z
M138 572l7 -3zM175 544q2 -2 2 -3q0 1 -2 3zM13 67v3v-3zM126 87v3v-3z" />
    <glyph glyph-name="Dcaron" unicode="&#x10e;" horiz-adv-x="274" 
d="M143 843l44 87h51l-60 -117h-66l-16 30h47zM89 930h15l12 -18l-7 -10zM132 936l-16 -24zM132 936q4 6 7.5 12t8.5 12zM187 930l16 30zM89 930l-20 30zM46 -43v30h80q24 0 39.5 5.5t24.5 18.5t12 34.5t3 53.5v569q0 26 -2 45t-8 33q27 -8 36 -32.5t9 -75.5v-569
q0 -32 -3 -53.5t-12 -34.5t-24.5 -18.5t-39.5 -5.5h-115zM122 75h1q-2 -1 -9 -1h-27v619h27q14 0 16.5 -8.5t2.5 -25.5v4h-11v-588z" />
    <glyph glyph-name="dcaron" unicode="&#x10f;" horiz-adv-x="366" 
d="M272 646l-35 83v-772h-50l-3 30h18v763h26l-12 30zM118 79l1 2q-5 -8 -15 -8q-13 0 -17 10t-4 24v347q0 14 3.5 24t17.5 10q11 0 15.5 -12t6.5 -23q-5 -5 -6.5 -12.5t-1.5 -16.5v-345zM372 616h-65l-13 30h43l-47 104h22zM152 -13h23q-8 -14 -23.5 -24.5t-35.5 -10.5
q-40 0 -56 33q9 -3 21 -3q28 0 46 18t21 35zM125 542h-1q-6 13 -18.5 21.5t-23.5 10.5q11 -2 24.5 -10t18.5 -22zM12 76q2 -32 10 -54.5t27 -32.5q-20 10 -27.5 32.5t-9.5 54.5zM290 750l-13 30zM49 -11q3 -2 11 -4q-8 2 -11 4zM126 536q-1 2 -1 6h1v-6zM119 81l3 4zM11 87
q0 -2 0.5 -3.5t0.5 -3.5q0 2 -0.5 3.5t-0.5 3.5zM126 103q0 -3 -2 -9q2 6 2 9zM122 85q0 1 0.5 2t0.5 2q0 -1 -0.5 -2t-0.5 -2zM124 91l-1 -2q0 1 1 2zM124 91v3v-3z" />
    <glyph glyph-name="Dcroat" unicode="&#x110;" horiz-adv-x="274" 
d="M46 -43v30h80q24 0 39.5 5.5t24.5 18.5t12 34.5t3 53.5v569q0 26 -2 45t-8 33q27 -8 36 -32.5t9 -75.5v-569q0 -32 -3 -53.5t-12 -34.5t-24.5 -18.5t-39.5 -5.5h-115zM122 75q-1 -1 -8 -1h-27v275h34v76h-34v268h27q13 0 16 -8t3 -22h-11v-268h11v-76h-11v-244zM11 319
h-70v30h70v-30zM130 82q-1 -4 -7 -7q6 3 7 7zM132 90q0 -3 -1 -5q1 2 1 5zM131 85q0 -2 -1 -3q1 1 1 3zM133 95q0 -2 -0.5 -2.5t-0.5 -2.5q0 2 0.5 3t0.5 2z" />
    <glyph glyph-name="Emacron" unicode="&#x112;" horiz-adv-x="248" 
d="M122 663v-237h-35v267h97v57h35v-87h-97zM167 340v56h35v-86h-80v-236h-35v266h80zM246 852h-215v30h180v46h35v-76zM184 -13v57h35v-87h-173v30h138z" />
    <glyph glyph-name="emacron" unicode="&#x113;" horiz-adv-x="258" 
d="M204 461q0 45 -21 77q26 -12 41 -40.5t15 -66.5v-206h-117v-160q-5 -5 -12 -5q-12 0 -17.5 13t-5.5 30v152h117v206zM142 -46q-51 0 -76 38q19 -8 41 -8q30 0 49 12t29.5 33t14.5 49.5t4 60.5v1h35v-31q0 -32 -4 -60.5t-14.5 -49.5t-29.5 -33t-49 -12zM251 673h-215v30
h180v46h35v-76zM109 502q12 0 15.5 -13t4.5 -25q-5 -7 -6 -16t-1 -17v-92h-35v122q0 14 4 27.5t18 13.5zM13 69q11 -59 53 -77q-44 19 -53 77zM183 538l-1 1q-10 14 -20 21q13 -10 21 -22zM132 100q-1 -8 -2 -15t-3 -12q2 5 3 12t2 15zM129 576q-10 2 -16 2q6 0 16 -2z
M136 574l15 -6zM12 84q0 -4 0.5 -7.5t0.5 -7.5q0 4 -0.5 7.5t-0.5 7.5zM122 65l3 4zM156 565l6 -5zM11 94q0 -7 1 -10q-1 3 -1 10zM156 565l-5 3zM136 574q-2 0 -3 1q1 -1 3 -1zM133 109q0 -2 -0.5 -4.5t-0.5 -4.5q0 2 0.5 4.5t0.5 4.5z" />
    <glyph glyph-name="Ebreve" unicode="&#x114;" horiz-adv-x="248" 
d="M219 663v87h-35v-57h-97v-267h35v237h97zM87 340v-266h35v236h80v86h-35v-56h-80zM46 -13v-30h173v87h-35v-57h-138zM100 1035q-20 0 -38 6.5t-32 20.5q11 -11 24 -17q14 -20 36 -30t45 -10q17 0 34 5.5t30.5 17t22 28t8.5 39.5v13h-37q-6 -37 -34 -55t-59 -18zM100 1101
q9 0 14 5v2h-29q5 -7 15 -7zM121 1138q0 -6 -0.5 -13.5t-2.5 -12.5q2 6 2.5 13t0.5 13zM8 1100q5 -16 10 -24q-5 8 -10 24zM18 1076l12 -14zM5 1120q0 -5 2 -13q-2 8 -2 13zM85 1108q-3 2 -4 7q1 -5 4 -7zM194 1112q0 -2 -0.5 -2.5t-0.5 -1.5q0 1 0.5 1.5t0.5 2.5zM7 1107
q0 -2 0.5 -3.5t0.5 -3.5q0 2 -0.5 3.5t-0.5 3.5zM117 1110q-2 -2 -2 -3q0 1 2 3zM194 1112q0 2 0.5 4t0.5 4q0 -2 -0.5 -4t-0.5 -4zM81 1115q0 2 -1 3q1 -1 1 -3zM79 1122v7v-7zM80 1118q0 2 -0.5 2t-0.5 2q0 -1 0.5 -2t0.5 -2z" />
    <glyph glyph-name="ebreve" unicode="&#x115;" horiz-adv-x="258" 
d="M204 461v-206h-117v-152q0 -17 5.5 -30t17.5 -13q7 0 12 5v160h117v206q0 38 -15 66.5t-41 40.5q21 -32 21 -77zM142 -46q30 0 49 12t29.5 33t14.5 49.5t4 60.5v31h-35v-1q0 -32 -4 -60.5t-14.5 -49.5t-29.5 -33t-49 -12q-22 0 -41 8q25 -38 76 -38zM107 676
q-20 0 -38 6.5t-32 20.5q11 -11 24 -17q14 -20 36 -30t45 -10q17 0 34 5.5t30.5 17t22 28t8.5 39.5v13h-37q-6 -37 -34 -55t-59 -18zM109 502q-14 0 -18 -13.5t-4 -27.5v-122h35v92q0 8 1 17t6 16q-1 12 -4.5 25t-15.5 13zM107 742q9 0 14 5v2h-29q5 -7 15 -7zM13 69
q9 -58 53 -77q-42 18 -53 77zM183 538q-8 12 -21 22q10 -7 20 -21q0 -1 1 -1zM128 779q0 -6 -0.5 -13.5t-2.5 -12.5q2 6 2.5 13t0.5 13zM15 741q2 -7 4.5 -13t5.5 -11q-3 5 -5.5 11t-4.5 13zM132 100q-1 -8 -2 -15t-3 -12q2 5 3 12t2 15zM129 576q-10 2 -16 2q6 0 16 -2z
M25 717l12 -14zM151 568l-15 6zM12 761q0 -3 0.5 -6.5t0.5 -6.5q0 3 -0.5 6.5t-0.5 6.5zM12 84q0 -4 0.5 -7.5t0.5 -7.5q0 4 -0.5 7.5t-0.5 7.5zM92 749q-3 2 -4 7q1 -5 4 -7zM125 69l-3 -4zM201 753q0 -2 -0.5 -2.5t-0.5 -1.5q0 1 0.5 1.5t0.5 2.5zM162 560l-6 5zM13 748
l2 -7zM11 94q0 -7 1 -10q-1 3 -1 10zM124 751q-2 -2 -2 -3q0 1 2 3zM88 756q0 2 -1 3q1 -1 1 -3zM201 753q0 2 0.5 4t0.5 4q0 -2 -0.5 -4t-0.5 -4zM87 759q0 2 -0.5 2t-0.5 2q0 -1 0.5 -2t0.5 -2zM86 763v7v-7zM151 568l5 -3zM136 574q-2 0 -3 1q1 -1 3 -1zM133 109
q0 -2 -0.5 -4.5t-0.5 -4.5q0 2 0.5 4.5t0.5 4.5z" />
    <glyph glyph-name="Edotaccent" unicode="&#x116;" horiz-adv-x="248" 
d="M122 663v-237h-35v267h97v57h35v-87h-97zM167 340v56h35v-86h-80v-236h-35v266h80zM184 -13v57h35v-87h-173v30h138zM142 911q0 8 -3 16q17 -4 27.5 -16.5t10.5 -29.5q0 -20 -14.5 -33.5t-34.5 -13.5q-34 0 -45 31q3 -1 10 -1q20 0 34.5 13.5t14.5 33.5zM51 889
q9 -19 32 -24q-22 3 -32 24zM134 936q-8 12 -19 18q11 -6 19 -18zM105 957l10 -3zM139 927q-1 3 -5 9q4 -6 5 -9zM46 905q0 -4 2 -8q-2 4 -2 8zM105 957q-1 0 -1.5 0.5t-1.5 0.5q1 0 1.5 -0.5t1.5 -0.5zM51 889l-2 3zM68 952l6 3zM100 958h2h-2zM97 959l2 -1q-1 0 -2 1z" />
    <glyph glyph-name="edotaccent" unicode="&#x117;" horiz-adv-x="258" 
d="M204 461q0 45 -21 77q26 -12 41 -40.5t15 -66.5v-206h-117v-160q-5 -5 -12 -5q-12 0 -17.5 13t-5.5 30v152h117v206zM142 -46q-51 0 -76 38q19 -8 41 -8q30 0 49 12t29.5 33t14.5 49.5t4 60.5v1h35v-31q0 -32 -4 -60.5t-14.5 -49.5t-29.5 -33t-49 -12zM109 502
q12 0 15.5 -13t4.5 -25q-5 -7 -6 -16t-1 -17v-92h-35v122q0 14 4 27.5t18 13.5zM157 732q0 8 -3 16q17 -4 27.5 -16.5t10.5 -29.5q0 -20 -14.5 -33.5t-34.5 -13.5q-34 0 -45 31q3 -1 10 -1q20 0 34.5 13.5t14.5 33.5zM13 69q11 -59 53 -77q-44 19 -53 77zM66 710
q9 -19 32 -24q-22 3 -32 24zM183 538l-1 1q-10 14 -20 21q13 -10 21 -22zM149 757q-8 12 -19 18q11 -6 19 -18zM132 100q-1 -8 -2 -15t-3 -12q2 5 3 12t2 15zM129 576q-10 2 -16 2q6 0 16 -2zM136 574l15 -6zM12 84q0 -4 0.5 -7.5t0.5 -7.5q0 4 -0.5 7.5t-0.5 7.5zM120 778
l10 -3zM154 748q-1 3 -5 9q4 -6 5 -9zM122 65l3 4zM156 565l6 -5zM61 726q0 -4 2 -8q-2 4 -2 8zM11 94q0 -7 1 -10q-1 3 -1 10zM120 778q-1 0 -1.5 0.5t-1.5 0.5q1 0 1.5 -0.5t1.5 -0.5zM66 710l-2 3zM156 565l-5 3zM83 773l6 3zM112 780l2 -1q-1 0 -2 1zM136 574q-2 0 -3 1
q1 -1 3 -1zM133 109q0 -2 -0.5 -4.5t-0.5 -4.5q0 2 0.5 4.5t0.5 4.5zM115 779h2h-2z" />
    <glyph glyph-name="Eogonek" unicode="&#x118;" horiz-adv-x="248" 
d="M184 693v57h35v-87h-97v-237h-35v267h97zM167 340v56h35v-86h-80v-236h-35v266h80zM184 -13v57h35v-87h-25q-6 -2 -21 -12t-26 -21q4 1 7 2t7 3l6 2q-11 -5 -22.5 -9t-22.5 -4q-8 0 -13 4.5t-5 16.5q0 5 7 13t16.5 15.5t18.5 13t13 6.5h25zM219 -154l-24 -8
q-8 -3 -18.5 -5.5t-20.5 -2.5q-11 0 -23 4t-21 12q-9 9 -14 18q9 -4 23 -4q20 0 39 8l24 8l-5 16l17 7l6 2zM73 -13q-8 -10 -14 -21t-7 -25q0 8 3 16h-9v30h27zM77 -123q8 -8 20 -13q-6 2 -10.5 5t-9.5 7v1zM53 -77q0 -3 1 -5q-1 2 -1 5zM97 -136h1h-1z" />
    <glyph glyph-name="eogonek" unicode="&#x119;" horiz-adv-x="258" 
d="M204 461q0 45 -21 77q26 -12 41 -40.5t15 -66.5v-206h-117v-160q-5 -5 -12 -5q-12 0 -17.5 13t-5.5 30v152h117v206zM139 -12q20 6 32.5 20.5t19.5 34t10 44.5t3 52v1h35v-31q0 -27 -3 -52t-10 -45t-19.5 -34t-32.5 -21q-6 -2 -21 -12t-26 -21q4 1 7 2t7 3l6 2
q-11 -5 -22.5 -9t-22.5 -4q-8 0 -13 4.5t-5 16.5q0 5 7 13t16.5 15.5t18.5 13t13 6.5v1zM109 502q12 0 15.5 -13t4.5 -25q-5 -7 -6 -16t-1 -17v-92h-35v122q0 14 4 27.5t18 13.5zM199 -154l-24 -8q-8 -3 -18.5 -5.5t-20.5 -2.5q-11 0 -23 4t-21 12q-9 9 -14 18q9 -4 23 -4
q20 0 39 8l24 8l-5 16l17 7l6 2zM12 85q2 -31 13.5 -54t29.5 -35q-19 12 -30 34.5t-13 54.5zM183 538l-1 1q-10 14 -20 21q13 -10 21 -22zM57 -123q8 -8 20 -13q-6 2 -10.5 5t-9.5 7v1zM132 100q-1 -8 -2 -15t-3 -12q2 5 3 12t2 15zM129 576q-10 2 -16 2q6 0 16 -2zM136 574
l15 -6zM122 65l3 4zM156 565l6 -5zM33 -77q0 -3 1 -5q-1 2 -1 5zM156 565l-5 3zM77 -136h1h-1zM136 574q-2 0 -3 1q1 -1 3 -1zM133 109q0 -2 -0.5 -4.5t-0.5 -4.5q0 2 0.5 4.5t0.5 4.5z" />
    <glyph glyph-name="Ecaron" unicode="&#x11a;" horiz-adv-x="248" 
d="M122 663v-237h-35v267h97v57h35v-87h-97zM167 340v56h35v-86h-80v-236h-35v266h80zM184 -13v57h35v-87h-173v30h138zM133 843l44 87h51l-60 -117h-66l-16 30h47zM79 930h15l12 -18l-7 -10zM122 936q4 6 7.5 12t8.5 12zM122 936l-16 -24zM177 930l16 30zM79 930l-20 30z
" />
    <glyph glyph-name="ecaron" unicode="&#x11b;" horiz-adv-x="258" 
d="M204 461q0 45 -21 77q26 -12 41 -40.5t15 -66.5v-206h-117v-160q-5 -5 -12 -5q-12 0 -17.5 13t-5.5 30v152h117v206zM142 -46q-51 0 -76 38q19 -8 41 -8q30 0 49 12t29.5 33t14.5 49.5t4 60.5v1h35v-31q0 -32 -4 -60.5t-14.5 -49.5t-29.5 -33t-49 -12zM144 663l44 87h51
l-60 -117h-66l-16 30h47zM87 461q0 14 4 27.5t18 13.5q12 0 15.5 -13t4.5 -25q-5 -7 -6 -16t-1 -17v-92h-35v122zM90 750h15l12 -18l-7 -10zM13 69q11 -59 53 -77q-44 19 -53 77zM183 538l-1 1q-10 14 -20 21q13 -10 21 -22zM133 756q4 6 7.5 12t8.5 12zM133 756l-16 -24z
M188 750l16 30zM90 750l-20 30zM132 100q-1 -8 -2 -15t-3 -12q2 5 3 12t2 15zM129 576q-10 2 -16 2q6 0 16 -2zM136 574l15 -6zM12 84q0 -4 0.5 -7.5t0.5 -7.5q0 4 -0.5 7.5t-0.5 7.5zM122 65l3 4zM156 565l6 -5zM11 94q0 -7 1 -10q-1 3 -1 10zM156 565l-5 3zM136 574
q-2 0 -3 1q1 -1 3 -1zM133 109q0 -2 -0.5 -4.5t-0.5 -4.5q0 2 0.5 4.5t0.5 4.5z" />
    <glyph glyph-name="Gcircumflex" unicode="&#x11c;" horiz-adv-x="264" 
d="M134 860l-32 -47h-54l16 30h3l40 58l39 -58zM181 813l-20 30h40l-45 87h20l60 -117h-55zM156 930l-15 30zM107 708q14 0 19 -7t6 -32q0 2 -0.5 3.5t-0.5 3.5q-8 -4 -10 -12.5t-2 -18.5v-299h-5v-86h5v-203q1 0 1.5 0.5t1.5 0.5q-6 -3 -14 -3q-13 0 -18.5 9t-5.5 23v588
q0 13 4 23t19 10zM205 -13v329h35v-359h-46l-5 30h16zM205 678q0 45 -12 69q26 -10 36.5 -33.5t10.5 -65.5v-176h-73v30h38v176zM153 28q0 -1 -0.5 -1t-0.5 -1q0 1 1 -4t6 -35h25q-6 -12 -20.5 -24.5t-37.5 -12.5q-50 0 -69 35q17 -5 34 -5q14 0 25 5t18.5 12.5t12 15
t5.5 13.5h1v2z" />
    <glyph glyph-name="gcircumflex" unicode="&#x11d;" horiz-adv-x="266" 
d="M108 -181q45 0 70.5 26.5t25.5 83.5v615h35v-645q0 -57 -25.5 -83.5t-70.5 -26.5q-57 0 -80 38q21 -8 45 -8zM108 502q11 0 16 -14.5t6 -26.5q0 2 -0.5 2.5t-0.5 2.5q-5 -5 -7 -14t-2 -18v-362q-5 -6 -13 -6q-13 0 -17.5 9.5t-4.5 23.5v365q0 14 5 26t18 12zM137 679
l-32 -47h-54l16 30h3l40 58l39 -58zM184 632l-20 30h40l-45 87h20l60 -117h-55zM129 -46q-8 -2 -12 -2q-21 0 -34 9t-21 24q9 -3 20 -3q9 0 17.5 5t14.5 11.5t10 14t5 12.5v-71zM108 -101q-10 0 -15 12h31v-2q-5 -10 -16 -10zM146 545q-13 24 -39 31q13 -2 23.5 -9.5
t15.5 -21.5zM151 527q-1 5 -2 9t-3 9q2 0 2.5 -0.5t2.5 -0.5q0 6 1 9zM14 -98q6 -50 38 -70q-31 19 -38 70zM14 69q2 -19 5.5 -35.5t11.5 -27.5q-8 11 -11.5 27t-5.5 36zM38 -2q10 -10 24 -13q-14 3 -24 13zM159 749l-15 30zM93 -89q-4 9 -4 22q0 -13 4 -22zM152 553
q0 5 0.5 10.5t0.5 10.5zM129 95q-2 -11 -6 -18q4 7 6 18zM128 -75q0 -7 -3 -13q3 6 3 13zM38 -2l-7 8zM13 88v-9.5t1 -9.5q-1 5 -1 9.5v9.5zM120 72l3 5zM60 -172l-5 3zM107 576q-6 2 -10 2q4 0 10 -2zM13 -89q0 -2 0.5 -4.5t0.5 -4.5q0 2 -0.5 4.5t-0.5 4.5zM13 -77v-9v9z
M52 -168q1 0 1.5 -0.5t1.5 -0.5q-1 0 -1.5 0.5t-1.5 0.5zM130 104q0 -1 -0.5 -1.5t-0.5 -1.5q0 1 0.5 1.5t0.5 1.5zM129 95v6v-6zM129 -70q0 -2 -0.5 -3t-0.5 -2q0 1 0.5 2t0.5 3z" />
    <glyph glyph-name="Gbreve" unicode="&#x11e;" horiz-adv-x="264" 
d="M107 856q-20 0 -38 6.5t-32 20.5q11 -11 24 -17q14 -20 36 -30t45 -10q17 0 34 5.5t30.5 17t22 28t8.5 39.5v13h-37q-6 -37 -34 -55t-59 -18zM107 922q10 0 15 6l-1 -1v2h-29q5 -7 15 -7zM128 959q0 -6 -0.5 -13.5t-2.5 -12.5q2 6 2.5 13t0.5 13zM15 921q2 -7 4.5 -13
t5.5 -11q-3 5 -5.5 11t-4.5 13zM25 897l12 -14zM12 941q0 -3 0.5 -6.5t0.5 -6.5q0 3 -0.5 6.5t-0.5 6.5zM92 929q-3 2 -4 7q1 -5 4 -7zM201 933q0 -2 -0.5 -2.5t-0.5 -1.5q0 1 0.5 1.5t0.5 2.5zM13 928l2 -7zM124 931q-2 -2 -2 -3q0 1 2 3zM88 936q0 2 -1 3q1 -1 1 -3z
M201 933q0 2 0.5 4t0.5 4q0 -2 -0.5 -4t-0.5 -4zM87 939q0 2 -0.5 2t-0.5 2q0 -1 0.5 -2t0.5 -2zM86 943v7v-7zM107 708q-15 0 -19 -10t-4 -23v-588q0 -14 5.5 -23t18.5 -9q8 0 14 3q-1 0 -1.5 -0.5t-1.5 -0.5v203h-5v86h5v299q0 10 2 18.5t10 12.5q0 -2 0.5 -3.5t0.5 -3.5
q-1 25 -6 32t-19 7zM189 -13l5 -30h46v359h-35v-329h-16zM205 678v-176h-38v-30h73v176q0 42 -10.5 65.5t-36.5 33.5q12 -24 12 -69zM153 28v-2h-1q-1 -6 -5.5 -13.5t-12 -15t-18.5 -12.5t-25 -5q-17 0 -34 5q19 -35 69 -35q23 0 37.5 12.5t20.5 24.5h-25q-5 30 -6 35t-1 4
q0 1 0.5 1t0.5 1z" />
    <glyph glyph-name="gbreve" unicode="&#x11f;" horiz-adv-x="266" 
d="M108 -181q-24 0 -45 8q23 -38 80 -38q45 0 70.5 26.5t25.5 83.5v645h-35v-615q0 -57 -25.5 -83.5t-70.5 -26.5zM108 502q-13 0 -18 -12t-5 -26v-365q0 -14 4.5 -23.5t17.5 -9.5q8 0 13 6v362q0 9 2 18t7 14q0 -2 0.5 -2.5t0.5 -2.5q-1 12 -6 26.5t-16 14.5zM113 676
q-20 0 -38 6.5t-32 20.5q11 -11 24 -17q14 -20 36 -30t45 -10q17 0 34 5.5t30.5 17t22 28t8.5 39.5v13h-37q-6 -37 -34 -55t-59 -18zM129 25q-1 -5 -5 -12.5t-10 -14t-14.5 -11.5t-17.5 -5q-11 0 -20 3q8 -15 21 -24t34 -9q4 0 12 2v71zM108 -101q7 0 11 4t6 9
q0 -1 -0.5 -1.5t-0.5 -1.5v2h-31q5 -12 15 -12zM113 742q9 0 14 5v2h-29q5 -7 15 -7zM146 545q-5 14 -15.5 21.5t-23.5 9.5q26 -7 39 -31zM151 527l1 26q-1 -3 -1 -9q-2 0 -2.5 0.5t-2.5 0.5q2 -5 3 -9t2 -9zM14 -98q6 -50 38 -70q-31 19 -38 70zM14 69q2 -20 5.5 -36
t11.5 -27q-8 11 -11.5 27.5t-5.5 35.5zM38 -2q10 -10 24 -13q-14 3 -24 13zM134 779q0 -6 -0.5 -13.5t-2.5 -12.5q2 6 2.5 13t0.5 13zM21 741q2 -7 4.5 -13t5.5 -11q-3 5 -5.5 11t-4.5 13zM93 -89q-4 9 -4 22q0 -13 4 -22zM153 574q0 -5 -0.5 -10.5t-0.5 -10.5zM31 717
l12 -14zM129 95q-2 -11 -6 -18q4 7 6 18zM18 761q0 -3 0.5 -6.5t0.5 -6.5q0 3 -0.5 6.5t-0.5 6.5zM128 -75q0 -7 -3 -13q3 6 3 13zM31 6l7 -8zM13 88v-9.5t1 -9.5q-1 5 -1 9.5v9.5zM98 749q-3 2 -4 7q1 -5 4 -7zM123 77l-3 -5zM207 753q0 -2 -0.5 -2.5t-0.5 -1.5
q0 1 0.5 1.5t0.5 2.5zM55 -169l5 -3zM13 -89q0 -2 0.5 -4.5t0.5 -4.5q0 2 -0.5 4.5t-0.5 4.5zM107 576q-6 2 -10 2q4 0 10 -2zM19 748l2 -7zM13 -86v9v-9zM130 751q-2 -2 -2 -3q0 1 2 3zM94 756q0 2 -1 3q1 -1 1 -3zM207 753q0 2 0.5 4t0.5 4q0 -2 -0.5 -4t-0.5 -4zM52 -168
q1 0 1.5 -0.5t1.5 -0.5q-1 0 -1.5 0.5t-1.5 0.5zM93 759q0 2 -0.5 2t-0.5 2q0 -1 0.5 -2t0.5 -2zM129 101v-6v6zM92 763v7v-7zM130 104q0 -1 -0.5 -1.5t-0.5 -1.5q0 1 0.5 1.5t0.5 1.5zM129 -70q0 -2 -0.5 -3t-0.5 -2q0 1 0.5 2t0.5 3z" />
    <glyph glyph-name="Gdotaccent" unicode="&#x120;" horiz-adv-x="264" 
d="M154 912q0 8 -3 16q17 -4 27.5 -16.5t10.5 -29.5q0 -20 -14.5 -33.5t-34.5 -13.5q-34 0 -45 31q3 -1 10 -1q20 0 34.5 13.5t14.5 33.5zM63 890q9 -19 32 -24q-22 3 -32 24zM146 937q-8 12 -19 18q11 -6 19 -18zM117 958l10 -3zM151 928q-1 3 -5 9q4 -6 5 -9zM58 906
q0 -4 2 -8q-2 4 -2 8zM117 958q-1 0 -1.5 0.5t-1.5 0.5q1 0 1.5 -0.5t1.5 -0.5zM80 953l6 3zM63 890l-2 3zM109 960l2 -1q-1 0 -2 1zM112 959h2h-2zM107 708q14 0 19 -7t6 -32q0 2 -0.5 3.5t-0.5 3.5q-8 -4 -10 -12.5t-2 -18.5v-299h-5v-86h5v-203q1 0 1.5 0.5t1.5 0.5
q-6 -3 -14 -3q-13 0 -18.5 9t-5.5 23v588q0 13 4 23t19 10zM205 -13v329h35v-359h-46l-5 30h16zM205 678q0 45 -12 69q26 -10 36.5 -33.5t10.5 -65.5v-176h-73v30h38v176zM153 28q0 -1 -0.5 -1t-0.5 -1q0 1 1 -4t6 -35h25q-6 -12 -20.5 -24.5t-37.5 -12.5q-50 0 -69 35
q17 -5 34 -5q14 0 25 5t18.5 12.5t12 15t5.5 13.5h1v2z" />
    <glyph glyph-name="gdotaccent" unicode="&#x121;" horiz-adv-x="266" 
d="M108 -181q45 0 70.5 26.5t25.5 83.5v615h35v-645q0 -57 -25.5 -83.5t-70.5 -26.5q-57 0 -80 38q21 -8 45 -8zM108 502q11 0 16 -14.5t6 -26.5q0 2 -0.5 2.5t-0.5 2.5q-5 -5 -7 -14t-2 -18v-362q-5 -6 -13 -6q-13 0 -17.5 9.5t-4.5 23.5v365q0 14 5 26t18 12zM164 732
q0 8 -3 16q17 -4 27.5 -16.5t10.5 -29.5q0 -20 -14.5 -33.5t-34.5 -13.5q-34 0 -45 31q3 -1 10 -1q20 0 34.5 13.5t14.5 33.5zM129 -46q-8 -2 -12 -2q-21 0 -34 9t-21 24q9 -3 20 -3q9 0 17.5 5t14.5 11.5t10 14t5 12.5v-71zM108 -101q-10 0 -15 12h31v-2q0 1 0.5 1.5
t0.5 1.5q-2 -5 -6 -9t-11 -4zM146 545q-13 24 -39 31q13 -2 23.5 -9.5t15.5 -21.5zM151 527q-1 5 -2 9t-3 9q2 0 2.5 -0.5t2.5 -0.5q0 6 1 9zM14 -98q6 -50 38 -70q-31 19 -38 70zM14 69q2 -19 5.5 -35.5t11.5 -27.5q-8 11 -11.5 27t-5.5 36zM73 710q9 -19 32 -24
q-22 3 -32 24zM38 -2q10 -10 24 -13q-14 3 -24 13zM93 -89q-4 9 -4 22q0 -13 4 -22zM156 757q-8 12 -19 18q11 -6 19 -18zM152 553q0 5 0.5 10.5t0.5 10.5zM129 95q-2 -11 -6 -18q4 7 6 18zM127 778l10 -3zM161 748q-1 3 -5 9q4 -6 5 -9zM128 -75q0 -7 -3 -13q3 6 3 13z
M38 -2l-7 8zM13 88v-9.5t1 -9.5q-1 5 -1 9.5v9.5zM120 72l3 5zM60 -172l-5 3zM13 -89q0 -2 0.5 -4.5t0.5 -4.5q0 2 -0.5 4.5t-0.5 4.5zM107 576q-6 2 -10 2q4 0 10 -2zM13 -77v-9v9zM68 726q0 -4 2 -8q-2 4 -2 8zM52 -168q1 0 1.5 -0.5t1.5 -0.5q-1 0 -1.5 0.5t-1.5 0.5z
M127 778q-1 0 -1.5 0.5t-1.5 0.5q1 0 1.5 -0.5t1.5 -0.5zM130 104q0 -1 -0.5 -1.5t-0.5 -1.5q0 1 0.5 1.5t0.5 1.5zM129 95v6v-6zM73 710l-2 3zM90 773l6 3zM119 780l2 -1q-1 0 -2 1zM129 -70q0 -2 -0.5 -3t-0.5 -2q0 1 0.5 2t0.5 3zM122 779h2h-2z" />
    <glyph glyph-name="Gcommaaccent" unicode="&#x122;" horiz-adv-x="264" 
d="M107 708q14 0 19 -7t6 -32q0 2 -0.5 3.5t-0.5 3.5q-8 -4 -10 -12.5t-2 -18.5v-299h-5v-86h5v-203q-3 -2 -11 -2q-13 0 -18.5 9t-5.5 23v588q0 13 4 23t19 10zM205 -13v329h35v-359h-46l-5 30h16zM205 678q0 45 -12 69q26 -10 36.5 -33.5t10.5 -65.5v-176h-73v30h38v176z
M179 -213h-59l-3 30h27l9 84h39zM159 -13h25q-6 -12 -20.5 -24.5t-37.5 -12.5q-50 0 -69 35q17 -5 34 -5q14 0 25 5t18.5 12.5t12 15t5.5 13.5h1v2zM18 23q12 -29 39 -38q-27 9 -39 38zM193 747l-1 1q-4 6 -8 11t-10 10q12 -9 19 -22zM157 -69l-4 -30zM12 46q1 -12 6 -23
q-5 11 -6 23zM131 68q-3 -5 -9 -10q6 5 9 10zM165 775l9 -6zM142 782q-5 1 -9 1.5t-9 0.5q5 0 9 -0.5t9 -1.5zM11 59q0 -3 0.5 -6.5t0.5 -6.5q0 3 -0.5 6.5t-0.5 6.5zM158 778l7 -3zM153 28q0 -1 -0.5 -1t-0.5 -1q0 1 0.5 1t0.5 1zM11 59q0 2 -0.5 3.5t-0.5 3.5
q0 -2 0.5 -3.5t0.5 -3.5zM148 781q-4 0 -6 1q2 -1 6 -1zM153 779q-1 1 -2 1t-3 1q2 -1 3 -1t2 -1zM136 83q0 -1 -1 -2zM135 77v4v-4zM124 784q-2 0 -3 0.5t-3 0.5q2 0 3 -0.5t3 -0.5z" />
    <glyph glyph-name="gcommaaccent" unicode="&#x123;" horiz-adv-x="266" 
d="M108 -181q45 0 70.5 26.5t25.5 83.5v615h35v-645q0 -57 -25.5 -83.5t-70.5 -26.5q-57 0 -80 38q21 -8 45 -8zM108 502q11 0 16 -14.5t6 -26.5q0 2 -0.5 2.5t-0.5 2.5q-5 -5 -7 -14t-2 -18v-362q-5 -6 -13 -6q-13 0 -17.5 9.5t-4.5 23.5v365q0 14 5 26t18 12zM113 646
l43 104h48l-56 -134h-65l13 30h17zM129 -46q-8 -2 -12 -2q-21 0 -34 9t-21 24q9 -3 20 -3q9 0 17.5 5t14.5 11.5t10 14t5 12.5v-71zM108 -101q-10 0 -15 12h31v-2q0 1 0.5 1.5t0.5 1.5q-2 -5 -6 -9t-11 -4zM146 545q-13 24 -39 31q13 -2 23.5 -9.5t15.5 -21.5zM151 527
q-1 5 -2 9t-3 9q2 0 2.5 -0.5t2.5 -0.5q0 6 1 9zM14 -98q6 -50 38 -70q-31 19 -38 70zM14 69q2 -19 5.5 -35.5t11.5 -27.5q-8 11 -11.5 27t-5.5 36zM38 -2q10 -10 24 -13q-14 3 -24 13zM169 780l-13 -30zM93 -89q-4 9 -4 22q0 -13 4 -22zM152 553q0 5 0.5 10.5t0.5 10.5z
M129 95q-2 -11 -6 -18q4 7 6 18zM128 -75q0 -7 -3 -13q3 6 3 13zM38 -2l-7 8zM13 88v-9.5t1 -9.5q-1 5 -1 9.5v9.5zM120 72l3 5zM60 -172l-5 3zM13 -89q0 -2 0.5 -4.5t0.5 -4.5q0 2 -0.5 4.5t-0.5 4.5zM107 576q-6 2 -10 2q4 0 10 -2zM13 -77v-9v9zM52 -168q1 0 1.5 -0.5
t1.5 -0.5q-1 0 -1.5 0.5t-1.5 0.5zM129 95v6v-6zM130 104q0 -1 -0.5 -1.5t-0.5 -1.5q0 1 0.5 1.5t0.5 1.5zM129 -70q0 -2 -0.5 -3t-0.5 -2q0 1 0.5 2t0.5 3z" />
    <glyph glyph-name="Hcircumflex" unicode="&#x124;" horiz-adv-x="273" 
d="M203 -13v763h35v-793h-75v30h40zM128 310h-7v-353h-75v30h40v353h42v-30zM121 426h-35v324h35v-324zM135 860l-32 -47h-54l16 30h3l40 58l39 -58zM182 813l-20 30h40l-45 87h20l60 -117h-55zM157 930l-15 30z" />
    <glyph glyph-name="hcircumflex" unicode="&#x125;" horiz-adv-x="270" 
d="M204 464q0 46 -16 77q28 -9 39.5 -39t11.5 -68v-477h-72v30h37v477zM110 488q12 0 16.5 -11.5t5.5 -24.5q-7 -8 -8.5 -20.5t-1.5 -21.5v-453h-76v30h41v453q0 6 1 14.5t3 16t6.5 12.5t12.5 5zM122 572q-15 -5 -24 -16.5t-11 -20.5v215h35v-178zM137 860l-32 -47h-54
l16 30h3l40 58l39 -58zM184 813l-20 30h40l-45 87h20l60 -117h-55zM159 930l-15 30zM188 541q-2 4 -5 8t-6 7q7 -7 11 -15zM138 574q4 0 10 -2q-6 2 -10 2zM174 559l-8 6zM130 574q-6 -2 -8 -2q4 2 8 2zM148 572l11 -3zM161 568l5 -3zM174 559l3 -3z" />
    <glyph glyph-name="hbar" unicode="&#x127;" horiz-adv-x="270" 
d="M204 464q0 46 -16 77q28 -9 39.5 -39t11.5 -68v-477h-72v30h37v477zM110 488q12 0 16.5 -11.5t5.5 -24.5q-7 -8 -8.5 -20.5t-1.5 -21.5v-453h-76v30h41v453q0 6 1 14.5t3 16t6.5 12.5t12.5 5zM163 597h-41v-25q-15 -5 -24 -16.5t-11 -20.5v92h41v56h35v-86zM122 713h-35
v37h35v-37zM11 597h-43v30h43v-30zM188 541q-2 4 -5 8t-6 7q7 -7 11 -15zM138 574q4 0 10 -2q-6 2 -10 2zM174 559l-8 6zM130 574q-6 -2 -8 -2q4 2 8 2zM148 572l11 -3zM161 568l5 -3zM174 559l3 -3z" />
    <glyph glyph-name="Itilde" unicode="&#x128;" horiz-adv-x="168" 
d="M55 -43v30h42v763h35v-793h-77zM140 808q-16 0 -31.5 8.5t-27.5 16.5q-9 7 -17 11.5t-15 4.5q-10 0 -23.5 -14.5t-21.5 -24.5l-30 36q8 10 20 21.5t20 11.5t18 -6.5t21.5 -14t24.5 -14t27 -6.5q8 0 18 1.5t21 8t24 18.5t27 33l-16 16l2 3l49 -49q-14 -21 -27 -33
t-24 -18.5t-21 -8t-18 -1.5zM67 936q-9 6 -18.5 12t-19.5 9q10 -3 19 -8.5t18 -11.5q0 -1 1 -1zM97 919q-11 3 -23 12q12 -9 23 -12zM-26 846l-5 -6zM123 926l5 4zM29 957q-2 1 -4 1q3 0 4 -1zM25 958q-2 1 -5 1q3 0 5 -1zM67 936l4 -3zM16 960q1 0 1.5 -0.5t1.5 -0.5
q-1 0 -1.5 0.5t-1.5 0.5zM100 918h3h-3zM-30 947l7 4zM100 918q-2 0 -3 1q1 -1 3 -1z" />
    <glyph glyph-name="itilde" unicode="&#x129;" horiz-adv-x="151" 
d="M120 -43h-75v30h40v557h35v-587zM127 628q-16 0 -31.5 8.5t-27.5 16.5q-9 7 -17 11.5t-15 4.5q-10 0 -23.5 -14.5t-21.5 -24.5l-30 36q8 10 20 21.5t20 11.5t18 -6.5t21.5 -14t24.5 -14t27 -6.5q8 0 18 1.5t21 8t24 18.5t27 33l-16 16l2 3l49 -49q-14 -21 -27 -33
t-24 -18.5t-21 -8t-18 -1.5zM54 756q-9 6 -18.5 12t-19.5 9q10 -3 19 -8.5t18 -11.5q0 -1 1 -1zM84 739q-11 3 -23 12q12 -9 23 -12zM-39 666l-5 -6zM110 746l5 4zM16 777q-2 1 -4 1q3 0 4 -1zM12 778q-1 1 -4 1q3 0 4 -1zM54 756l4 -3zM4 780q1 0 1.5 -0.5t1.5 -0.5
q-1 0 -1.5 0.5t-1.5 0.5zM87 738h3h-3zM-43 767l7 4zM87 738q-2 0 -3 1q1 -1 3 -1z" />
    <glyph glyph-name="Imacron" unicode="&#x12a;" horiz-adv-x="168" 
d="M55 -43v30h42v763h35v-793h-77zM202 852h-215v30h180v46h35v-76z" />
    <glyph glyph-name="Ibreve" unicode="&#x12c;" horiz-adv-x="168" 
d="M132 -43v793h-35v-763h-42v-30h77zM54 856q-18 0 -34.5 5.5t-30.5 17.5q5 -4 9.5 -7.5t9.5 -5.5q14 -20 36 -30t45 -10q17 0 34 5.5t30.5 17t22 28t8.5 39.5v13h-37q-6 -37 -34 -55t-59 -18zM54 922q9 0 14 5v2h-29q5 -7 15 -7zM75 959q0 -6 -0.5 -13.5t-2.5 -12.5
q2 6 2.5 13t0.5 13zM-41 941q0 -5 2 -13q-2 8 -2 13zM-30 902l9 -14zM39 929q-3 2 -4 7q1 -5 4 -7zM148 933q0 -2 -0.5 -2.5t-0.5 -1.5q0 1 0.5 1.5t0.5 2.5zM-39 928q0 -2 0.5 -3.5t0.5 -3.5q0 2 -0.5 3.5t-0.5 3.5zM-35 913q2 -6 4 -9q-2 3 -4 9zM71 931q-2 -2 -2 -3
q0 1 2 3zM148 933q0 2 0.5 4t0.5 4q0 -2 -0.5 -4t-0.5 -4zM-11 879q-1 0 -3 2q2 -2 3 -2zM35 936q0 2 -1 3q1 -1 1 -3zM-17 884q-1 1 -1.5 2t-2.5 2q2 -1 2.5 -2t1.5 -2zM-38 921q1 -2 1 -4q0 2 -1 4zM33 943v7v-7zM34 939q0 2 -0.5 2t-0.5 2q0 -1 0.5 -2t0.5 -2zM-30 902
q0 1 -1 1zM-37 917l2 -4z" />
    <glyph glyph-name="ibreve" unicode="&#x12d;" horiz-adv-x="151" 
d="M120 544h-35v-557h-40v-30h75v587zM46 677q-18 0 -34.5 5.5t-30.5 17.5q5 -4 9.5 -7.5t9.5 -5.5q14 -20 36 -30t45 -10q17 0 34 5.5t30.5 17t22 28t8.5 39.5v13h-37q-6 -37 -34 -55t-59 -18zM46 743q9 0 14 5v2h-29q5 -7 15 -7zM67 780q0 -6 -0.5 -13.5t-2.5 -12.5
q2 6 2.5 13t0.5 13zM-49 762q0 -5 2 -13q-2 8 -2 13zM-38 723l9 -14zM31 750q-3 2 -4 7q1 -5 4 -7zM140 754q0 -2 -0.5 -2.5t-0.5 -1.5q0 1 0.5 1.5t0.5 2.5zM-47 749q0 -2 0.5 -3.5t0.5 -3.5q0 2 -0.5 3.5t-0.5 3.5zM-43 734q2 -6 4 -9q-2 3 -4 9zM63 752q-2 -2 -2 -3
q0 1 2 3zM-19 700q-1 0 -3 2q2 -2 3 -2zM140 754q0 2 0.5 4t0.5 4q0 -2 -0.5 -4t-0.5 -4zM27 757q0 2 -1 3q1 -1 1 -3zM25 764v7v-7zM-46 742q1 -2 1 -4q0 2 -1 4zM-25 705q-1 1 -1.5 2t-2.5 2q2 -1 2.5 -2t1.5 -2zM26 760q0 2 -0.5 2t-0.5 2q0 -1 0.5 -2t0.5 -2zM-38 723
q0 1 -1 1zM-45 738l2 -4z" />
    <glyph glyph-name="Iogonek" unicode="&#x12e;" horiz-adv-x="168" 
d="M97 -13v763h35v-793l-19 -1q-6 -2 -21 -12t-26 -21q4 1 7 2t7 3l6 2q-11 -5 -22.5 -9t-22.5 -4q-8 0 -13 4.5t-5 16.5q0 5 7 13t16.5 15.5t18.5 13t13 6.5v1h19zM138 -155l-24 -8q-8 -3 -18.5 -5.5t-20.5 -2.5q-11 0 -23 4t-21 12q-9 9 -14 18q9 -4 23 -4q20 0 39 8l24 8
l-5 16l17 7l6 2zM18 6q-16 -10 -29.5 -25.5t-16.5 -35.5q3 20 16 36t30 25zM-4 -124v-1q5 -4 10 -7t10 -5q-12 5 -20 13zM-28 -78q1 -1 1 -5q0 4 -1 5zM16 -137h1h-1z" />
    <glyph glyph-name="iogonek" unicode="&#x12f;" horiz-adv-x="151" 
d="M109 -43q-6 -2 -21 -12t-26 -21q4 1 7 2t7 3h1q-10 -4 -20 -7.5t-20 -3.5q-8 0 -13 4.5t-5 16.5q0 5 7 13t16.5 15.5t18.5 13t13 6.5h11v557h35v-587h-11zM120 601h-75v30h40v59h35v-89zM94 -108l17 7q4 0 6 2l17 -55l-24 -8q-19 -8 -39 -8q-11 0 -23 4t-21 13
q-4 4 -7.5 8t-6.5 9q9 -4 23 -4q20 0 39 8l24 8zM-8 -124q-10 11 -17 24q4 -7 8 -13t9 -11zM-30 -84q1 -7 5 -16q-4 9 -5 16zM82 -69q-1 0 -5 -2q4 2 5 2zM12 -136l-5 3zM-2 -128l-3 3zM0 -129q2 -2 3 -2q-1 0 -3 2zM-32 -77q1 -1 1 -5q0 4 -1 5zM-12 -13q-2 -4 -4 -5
q2 1 4 5zM12 -136h1h-1zM-2 -128l2 -1q-1 0 -2 1z" />
    <glyph glyph-name="Idotaccent" unicode="&#x130;" horiz-adv-x="168" 
d="M55 -43v30h42v763h35v-793h-77zM102 911q0 8 -3 16q17 -4 27.5 -16.5t10.5 -29.5q0 -20 -14.5 -33.5t-34.5 -13.5q-34 0 -45 31q3 -1 10 -1q20 0 34.5 13.5t14.5 33.5zM11 889q9 -19 32 -24q-22 3 -32 24zM94 936q-8 12 -19 18q11 -6 19 -18zM65 957l10 -3zM99 927
q-1 3 -5 9q4 -6 5 -9zM6 905q2 -6 2 -8q0 2 -2 8zM65 957q-1 0 -1.5 0.5t-1.5 0.5q1 0 1.5 -0.5t1.5 -0.5zM10 892q0 -1 0.5 -1.5t0.5 -1.5q0 1 -0.5 1.5t-0.5 1.5zM28 952l6 3zM60 958h2h-2zM57 959l2 -1q-1 0 -2 1z" />
    <glyph glyph-name="dotlessi" unicode="&#x131;" horiz-adv-x="151" 
d="M120 -43h-75v30h40v557h35v-587z" />
    <glyph glyph-name="Jcircumflex" unicode="&#x134;" horiz-adv-x="273" 
d="M195 860l-32 -47h-54l16 30h3l40 58l39 -58zM242 813l-20 30h40l-45 87h20l60 -117h-55zM217 930l-15 30zM146 -51q-31 0 -53.5 7.5t-35.5 30.5q20 -8 54 -8q45 0 72.5 21t27.5 79v671h35v-701q0 -58 -27.5 -79t-72.5 -21zM110 55q-7 0 -12 1.5t-8.5 7t-5 17t-1.5 31.5
v93h35v-123v-14.5t1 -11.5q-3 -1 -9 -1z" />
    <glyph glyph-name="jcircumflex" unicode="&#x135;" horiz-adv-x="160" 
d="M-5 -182h-2q21 1 39 7.5t31.5 21.5t21 39.5t7.5 61.5v595h35v-625q0 -39 -8.5 -64t-23.5 -40t-34.5 -20.5t-41.5 -5.5h-24v30zM81 680l-32 -47h-54l16 30h3l40 58l39 -58zM128 633l-20 30h40l-45 87h20l60 -117h-55zM-31 -85q17 1 31 9t16 35q-2 -31 -14 -37.5t-33 -6.5z
M103 750l-15 30z" />
    <glyph glyph-name="Kcommaaccent" unicode="&#x136;" horiz-adv-x="274" 
d="M160 353q26 -98 52.5 -198t52.5 -198h-79l-7 30h51l-105 396l97 367h43zM84 274l35 -150v-167h-73v30h38v287zM119 643l-35 -150v257h35v-107z" />
    <glyph glyph-name="kcommaaccent" unicode="&#x137;" 
d="M148 258l117 -301h-81l-10 30h56l-117 301l104 256h47zM122 497l-35 -99v352h35v-253zM87 182l35 -110v-115h-75v30h40v195zM183 -213h-59l-3 30h27l9 84h39zM161 -69l-4 -30zM122 497l27 77z" />
    <glyph glyph-name="Lacute" unicode="&#x139;" horiz-adv-x="249" 
d="M122 74h-35v676h35v-676zM46 -43v30h145v57h35v-87h-180zM98 834h-69l22 30h12l49 64h59zM136 958l-24 -30z" />
    <glyph glyph-name="lacute" unicode="&#x13a;" horiz-adv-x="148" 
d="M120 -43h-75v30h40v763h35v-793zM80 834h-69l22 30h12l49 64h59zM118 958l-24 -30z" />
    <glyph glyph-name="Lcommaaccent" unicode="&#x13b;" horiz-adv-x="249" 
d="M122 74h-35v676h35v-676zM46 -43v30h145v57h35v-87h-180zM162 -526h-59l-3 30h27l9 84h39zM140 -382l-4 -30z" />
    <glyph glyph-name="lcommaaccent" unicode="&#x13c;" horiz-adv-x="148" 
d="M120 -43h-75v30h40v763h35v-793zM111 -213h-59l-3 30h27l9 84h39zM89 -69l-4 -30z" />
    <glyph glyph-name="Lcaron" unicode="&#x13d;" horiz-adv-x="249" 
d="M122 74h-35v676h35v-676zM46 -43v30h145v57h35v-87h-180zM131 796h-65l-13 30h43l-47 104h22zM49 930l-13 30z" />
    <glyph glyph-name="lcaron" unicode="&#x13e;" horiz-adv-x="289" 
d="M120 -43h-75v30h40v763h35v-793zM274 616h-65l-13 30h43l-47 104h22zM192 750l-13 30z" />
    <glyph glyph-name="Ldot" unicode="&#x13f;" horiz-adv-x="249" 
d="M122 74h-35v676h35v-676zM46 -43v30h145v57h35v-87h-180zM251 359h-76v30h41v61h35v-91z" />
    <glyph glyph-name="ldot" unicode="&#x140;" horiz-adv-x="270" 
d="M120 -43h-75v30h40v763h35v-793zM254 452h-76v30h41v61h35v-91z" />
    <glyph glyph-name="Lslash" unicode="&#x141;" horiz-adv-x="249" 
d="M164 437v30l35 26v-86l-77 -56v-277h-35v307zM122 492l-35 -25v283h35v-258zM46 -43v30h145v57h35v-87h-180zM11 271l-47 -34v55l-35 -25l82 59v-55zM122 492l42 31z" />
    <glyph glyph-name="lslash" unicode="&#x142;" horiz-adv-x="148" 
d="M164 437v30q9 7 18 13t17 13v-86l-79 -57v-393h-75v30h40v393zM85 750h35v-259l-35 -25v284zM10 270l-46 -33v55l-35 -25l81 58v-55zM164 523q-22 -18 -44 -32z" />
    <glyph glyph-name="Nacute" unicode="&#x143;" horiz-adv-x="312" 
d="M278 -43h-77l-5 30h47v763h35v-793zM88 437l35 -202v-278h-77v30h42v450zM91 750h30l45 -271v-200l-11 86zM192 834h-69l22 30h12l49 64h59zM230 958l-24 -30z" />
    <glyph glyph-name="nacute" unicode="&#x144;" 
d="M147 656h-69l22 30h12l49 64h59zM185 780l-24 -30zM202 462q0 23 -4.5 43.5t-15.5 37.5q28 -11 41.5 -42t13.5 -69v-475h-72v30h37v475zM130 463q-5 -8 -6.5 -17t-1.5 -16v-473h-76v30h41v473q0 11 4 24.5t18 13.5q11 0 16 -10.5t5 -24.5zM182 543q-18 26 -43 32
q27 -6 43 -32zM139 575q-3 1 -5.5 1.5t-5.5 0.5q3 0 11 -2z" />
    <glyph glyph-name="Ncommaaccent" unicode="&#x145;" horiz-adv-x="312" 
d="M278 -43h-77l-5 30h47v763h35v-793zM88 437l35 -202v-278h-77v30h42v450zM91 750h30l45 -271v-200l-11 86zM205 -213h-59l-3 30h27l9 84h39zM183 -69l-4 -30z" />
    <glyph glyph-name="ncommaaccent" unicode="&#x146;" 
d="M186 -99h-39l-9 -84h-27l3 -30h59zM147 -99l4 30zM202 462v-475h-37v-30h72v475q0 38 -13.5 69t-41.5 42q11 -17 15.5 -37.5t4.5 -43.5zM130 463q0 14 -5 24.5t-16 10.5q-14 0 -18 -13.5t-4 -24.5v-473h-41v-30h76v473q0 7 1.5 16t6.5 17zM182 543q-16 26 -43 32
q25 -6 43 -32zM139 575q-8 2 -11 2q3 0 5.5 -0.5t5.5 -1.5z" />
    <glyph glyph-name="Ncaron" unicode="&#x147;" horiz-adv-x="312" 
d="M278 -43h-77l-5 30h47v763h35v-793zM88 437l35 -202v-278h-77v30h42v450zM91 750h30l45 -271v-200l-11 86zM178 843l44 87h51l-60 -117h-66l-16 30h47zM124 930h15l12 -18l-7 -10zM167 936q4 6 7.5 12t8.5 12zM167 936l-16 -24zM222 930l16 30zM124 930l-20 30z" />
    <glyph glyph-name="ncaron" unicode="&#x148;" 
d="M142 663l44 87h51l-60 -117h-66l-16 30h47zM88 750h15l12 -18l-7 -10zM131 756q4 6 7.5 12t8.5 12zM131 756l-16 -24zM186 750l16 30zM88 750l-20 30zM202 462q0 23 -4.5 43.5t-15.5 37.5q28 -11 41.5 -42t13.5 -69v-475h-72v30h37v475zM130 463q-5 -8 -6.5 -17t-1.5 -16
v-473h-76v30h41v473q0 11 4 24.5t18 13.5q11 0 16 -10.5t5 -24.5zM182 543q-18 26 -43 32q27 -6 43 -32zM139 575q-3 1 -5.5 1.5t-5.5 0.5q3 0 11 -2z" />
    <glyph glyph-name="napostrophe" unicode="&#x149;" 
d="M62 635h-59l-2 30h26l9 84h39zM40 779l-4 -30zM202 462q0 23 -4.5 43.5t-15.5 37.5q28 -11 41.5 -42t13.5 -69v-475h-72v30h37v475zM130 463q-5 -8 -6.5 -17t-1.5 -16v-473h-76v30h41v473q0 11 4 24.5t18 13.5q11 0 16 -10.5t5 -24.5zM182 543q-18 26 -43 32
q27 -6 43 -32zM139 575q-3 1 -5.5 1.5t-5.5 0.5q3 0 11 -2z" />
    <glyph glyph-name="Omacron" unicode="&#x14c;" horiz-adv-x="270" 
d="M257 852h-215v30h180v46h35v-76zM240 90q0 -36 -2.5 -62.5t-12.5 -44t-29.5 -26t-53.5 -8.5q-31 0 -53 8t-33 29q20 -7 51 -7q34 0 53.5 8.5t29.5 26t12.5 44t2.5 62.5v562q0 42 -12 66q26 -9 36.5 -32t10.5 -64v-562zM109 708q12 0 17 -6t7 -26q-13 -4 -13 -29v-590
q-3 -1 -12 -1q-12 0 -17.5 7.5t-5.5 26.5v587q0 31 24 31z" />
    <glyph glyph-name="omacron" unicode="&#x14d;" 
d="M141 -47q-25 0 -44 10t-31 27q19 -7 40 -7q42 0 69 32.5t27 85.5v359q0 48 -21 80q26 -12 41 -40.5t15 -69.5v-359q0 -53 -27 -85.5t-69 -32.5zM107 502q13 0 16 -14.5t3 -26.5q-4 -6 -5 -14t-1 -16v-365q-6 -7 -14 -7q-12 0 -16.5 14.5t-4.5 26.5v361q0 13 4 27t18 14z
M251 674h-215v30h180v46h35v-76zM150 568l-12 5zM23 35q3 -8 9 -16q-6 8 -9 16zM112 578q5 0 8.5 -0.5t7.5 -1.5q-4 1 -7.5 1.5t-8.5 0.5zM178 544q-5 6 -12 12q3 -3 6.5 -6t5.5 -6zM12 83q0 -5 0.5 -10t1.5 -10q-1 5 -1.5 10t-0.5 10zM44 5q5 -4 9.5 -7.5t9.5 -5.5
q-5 2 -9.5 5.5t-9.5 7.5zM32 19q2 -3 4.5 -5.5t4.5 -5.5q-2 3 -4.5 5.5t-4.5 5.5zM161 561q2 -2 3 -2.5t2 -2.5q-1 2 -2 2.5t-3 2.5zM22 38l-5 12zM126 81q0 -4 -2 -8q2 4 2 8zM66 -9v-1l-3 2q1 -1 3 -1zM11 95q0 -8 1 -12q-1 4 -1 12zM128 93q0 -2 -2 -10q2 8 2 10z
M138 573q-1 0 -2 0.5t-2 0.5q1 0 2 -0.5t2 -0.5zM121 67l3 6zM154 566q-2 0 -4 2zM155 565l6 -4zM178 544q2 -2 2 -3q0 1 -2 3zM15 58q0 3 -1 5q1 -2 1 -5zM132 575q-3 0 -4 1q1 -1 4 -1zM23 35q-1 1 -1 3q0 -2 1 -3z" />
    <glyph glyph-name="Obreve" unicode="&#x14e;" horiz-adv-x="270" 
d="M110 856q-20 0 -38 6.5t-32 20.5q11 -11 24 -17q14 -20 36 -30t45 -10q17 0 34 5.5t30.5 17t22 28t8.5 39.5v13h-37q-6 -37 -34 -55t-59 -18zM110 922q9 0 14 5v2h-29q5 -7 15 -7zM131 959q0 -6 -0.5 -13.5t-2.5 -12.5q2 6 2.5 13t0.5 13zM18 921q2 -7 4.5 -13t5.5 -11
q-3 5 -5.5 11t-4.5 13zM28 897l12 -14zM15 941q0 -3 0.5 -6.5t0.5 -6.5q0 3 -0.5 6.5t-0.5 6.5zM95 929q-3 2 -4 7q1 -5 4 -7zM204 933q0 -2 -0.5 -2.5t-0.5 -1.5q0 1 0.5 1.5t0.5 2.5zM16 928l2 -7zM127 931q-2 -2 -2 -3q0 1 2 3zM204 933q0 2 0.5 4t0.5 4q0 -2 -0.5 -4
t-0.5 -4zM91 936q0 2 -1 3q1 -1 1 -3zM90 939q0 2 -0.5 2t-0.5 2q0 -1 0.5 -2t0.5 -2zM89 943v7v-7zM240 652q0 41 -10.5 64t-36.5 32q12 -24 12 -66v-562q0 -36 -2.5 -62.5t-12.5 -44t-29.5 -26t-53.5 -8.5q-31 0 -51 7q11 -21 33 -29t53 -8q34 0 53.5 8.5t29.5 26t12.5 44
t2.5 62.5v562zM109 708q-24 0 -24 -31v-587q0 -19 5.5 -26.5t17.5 -7.5q9 0 12 1v590q0 25 13 29q-2 20 -7 26t-17 6z" />
    <glyph glyph-name="obreve" unicode="&#x14f;" 
d="M141 -47q42 0 69 32.5t27 85.5v359q0 41 -15 69.5t-41 40.5q21 -32 21 -80v-359q0 -53 -27 -85.5t-69 -32.5q-21 0 -40 7q12 -17 31 -27t44 -10zM107 502q-14 0 -18 -14t-4 -27v-361q0 -12 4.5 -26.5t16.5 -14.5q8 0 14 7v365q0 8 1 16t5 14q0 12 -3 26.5t-16 14.5z
M105 677q-20 0 -38 6.5t-32 20.5q11 -11 24 -17q14 -20 36 -30t45 -10q17 0 34 5.5t30.5 17t22 28t8.5 39.5v13h-37q-6 -37 -34 -55t-59 -18zM105 743q10 0 15 6l-1 -1v2h-29q5 -7 15 -7zM126 780q0 -6 -0.5 -13.5t-2.5 -12.5q2 6 2.5 13t0.5 13zM13 742q2 -7 4.5 -13
t5.5 -11q-3 5 -5.5 11t-4.5 13zM138 573l12 -5zM23 35q3 -8 9 -16q-6 8 -9 16zM112 578q5 0 8.5 -0.5t7.5 -1.5q-4 1 -7.5 1.5t-8.5 0.5zM178 544q-5 6 -12 12q3 -3 6.5 -6t5.5 -6zM12 83q0 -5 0.5 -10t1.5 -10q-1 5 -1.5 10t-0.5 10zM23 718l12 -14zM44 5q5 -4 9.5 -7.5
t9.5 -5.5q-5 2 -9.5 5.5t-9.5 7.5zM32 19q2 -3 4.5 -5.5t4.5 -5.5q-2 3 -4.5 5.5t-4.5 5.5zM10 762q0 -5 2 -13q-2 8 -2 13zM17 50l5 -12zM90 750q-3 2 -4 7q1 -5 4 -7zM161 561q2 -2 3 -2.5t2 -2.5q-1 2 -2 2.5t-3 2.5zM126 81q0 -4 -2 -8q2 4 2 8zM199 754q0 -2 -0.5 -2.5
t-0.5 -1.5q0 1 0.5 1.5t0.5 2.5zM66 -9q-2 0 -3 1l3 -2v1zM11 95q0 -8 1 -12q-1 4 -1 12zM128 93q0 -2 -2 -10q2 8 2 10zM12 749q0 -2 0.5 -3.5t0.5 -3.5q0 2 -0.5 3.5t-0.5 3.5zM138 573q-1 0 -2 0.5t-2 0.5q1 0 2 -0.5t2 -0.5zM124 73l-3 -6zM122 752q-2 -2 -2 -3q0 1 2 3
zM154 566l-4 2q2 -2 4 -2zM199 754q0 2 0.5 4t0.5 4q0 -2 -0.5 -4t-0.5 -4zM160 561q-1 2 -5 4zM86 757q0 2 -1 3q1 -1 1 -3zM85 760q0 2 -0.5 2t-0.5 2q0 -1 0.5 -2t0.5 -2zM178 544q2 -2 2 -3q0 1 -2 3zM132 575q-3 0 -4 1q1 -1 4 -1zM84 764v7v-7zM15 58q0 3 -1 5
q1 -2 1 -5zM23 35q-1 1 -1 3q0 -2 1 -3z" />
    <glyph glyph-name="OE" unicode="&#x152;" horiz-adv-x="412" 
d="M116 693q16 0 22 -9t7 -28q0 2 -0.5 3t-0.5 3q-12 -2 -16.5 -11.5t-4.5 -31.5v-545h-7q-19 0 -23.5 9.5t-4.5 34.5v531q0 25 6 34.5t22 9.5zM222 693h113v57h35v-87h-113v-237h-35v267zM311 340v56h35v-86h-89v-236h-35v266h89zM335 -13v57h35v-87h-190q-42 0 -71.5 7.5
t-45.5 33.5q-19 7 -31 24q17 -23 45.5 -29t67.5 -6h190zM12 100q1 -48 17 -74q-8 13 -12 30.5t-5 43.5zM134 79q-4 -4 -11 -5q6 1 11 5zM140 86q-1 -2 -5 -6q4 4 5 6zM140 86l2 6zM145 110q0 -2 -0.5 -4.5t-0.5 -4.5q0 2 0.5 4.5t0.5 4.5zM144 101q-1 -2 -1 -7q0 5 1 7z
M32 22l-3 4zM143 94q0 -1 -0.5 -1t-0.5 -1q0 1 0.5 1t0.5 1z" />
    <glyph glyph-name="oe" unicode="&#x153;" horiz-adv-x="412" 
d="M337 461q0 47 -21 79q26 -12 41 -40.5t15 -68.5v-226h-111v-121q-5 -14 -15 -14q-12 0 -16 13t-4 30v122h111v226zM106 492q13 0 15.5 -14.5t2.5 -26.5v-2q-3 -7 -3.5 -14t-0.5 -14v-341q-5 -11 -16 -11q-12 0 -15.5 14.5t-3.5 26.5v341q0 13 3.5 27t17.5 14zM278 -46
q-46 0 -71 33q-12 -16 -29.5 -25t-38.5 -9q-49 0 -74 37q-27 12 -41 41q23 -48 80 -48q43 0 68 34q24 -33 71 -33q30 0 48.5 12t28.5 33t13.5 49.5t3.5 60.5v1h35v-31q0 -32 -3.5 -60.5t-13.5 -49.5t-28.5 -33t-48.5 -12zM226 319v132q0 14 2.5 27.5t16.5 13.5
q13 0 15 -14.5t2 -26.5v-11q-1 -5 -1 -9.5v-9.5v-102h-35zM231 577q-31 -3 -52 -22q19 19 52 22zM163 556q-12 12 -30 18q18 -6 30 -18zM266 124q-1 -11 -1.5 -20t-2.5 -17q2 8 2.5 17t1.5 20zM313 543q-7 10 -14 16q7 -6 14 -16zM264 576q-10 2 -15 2q5 0 15 -2zM299 559
q-4 3 -7.5 5.5t-7.5 4.5q4 -2 7.5 -4.5t7.5 -5.5zM13 67q1 -4 1.5 -8t2.5 -8q-2 4 -2.5 8t-1.5 8zM284 569l-10 4zM112 578l14 -2zM20 41q1 -3 2 -5.5t2 -4.5q-1 2 -2 4.5t-2 5.5zM264 576l10 -3zM12 85q0 -4 0.5 -7.5t0.5 -7.5q0 4 -0.5 7.5t-0.5 7.5zM20 41l-3 10zM11 92
q0 -2 0.5 -3.5t0.5 -3.5q0 2 -0.5 3.5t-0.5 3.5zM120 80q0 2 1 3q-1 -1 -1 -3zM124 102q0 -2 -0.5 -5t-0.5 -5q0 2 0.5 5t0.5 5zM261 84q0 1 0.5 1t0.5 1q0 -1 -0.5 -1t-0.5 -1zM171 548q-1 2 -2 2.5t-2 1.5q1 -1 2 -1.5t2 -2.5zM122 88q-1 -2 -1 -5q0 3 1 5zM123 92
q0 -1 -0.5 -2t-0.5 -2q0 1 0.5 2t0.5 2zM13 67v3v-3zM314 542q1 0 1 -1z" />
    <glyph glyph-name="Racute" unicode="&#x154;" horiz-adv-x="273" 
d="M235 403q0 -26 -3.5 -42t-8.5 -25t-10 -12t-8 -4l41 -363h-71l-3 30h39l-41 363q2 1 7 4t10 11.5t9 24.5t4 43v242q0 24 -2 41.5t-7 29.5q26 -7 35 -30t9 -71v-242zM106 340l16 -166v-217h-76v30h41v353h19zM87 426v267h20q14 0 17.5 -9t3.5 -25v4h-6v-232q-7 -5 -17 -5
h-18zM139 834h-69l22 30h12l49 64h59zM177 958l-24 -30zM191 746q-3 9 -9 15q6 -6 9 -15zM147 778l13 -3zM124 435q0 -2 -2 -4q2 2 2 4zM128 449q0 -5 -2 -9q1 2 1 4.5t1 4.5zM178 765q-2 2 -4.5 3.5t-5.5 3.5q6 -3 10 -7zM140 779q2 0 3 -0.5t3 -0.5q-2 0 -3 0.5t-3 0.5z
M166 773q-2 0 -2.5 0.5t-2.5 0.5q2 0 2.5 -0.5t2.5 -0.5zM127 780q1 0 2 -0.5t3 -0.5q-2 0 -3 0.5t-2 0.5zM124 435l2 3zM134 779h6h-6zM161 774l-1 1z" />
    <glyph glyph-name="racute" unicode="&#x155;" horiz-adv-x="206" 
d="M194 452h-4q-2 0 -5 0.5t-6 0.5q-8 0 -17.5 -2t-18 -9t-14.5 -20t-6 -34v-431h-75v30h40v431q0 21 6 34t14.5 20t18 9t17.5 2q3 0 6 -0.5t5 -0.5h4v63q7 2 13.5 3t11.5 1h10v-97zM125 656h-69l22 30h12l49 64h59zM63 544h9l-8 -13zM144 579q-12 -1 -29 -6.5t-33 -18.5
q16 14 33 19t29 6zM163 780l-24 -30zM81 553l-8 -9h-1z" />
    <glyph glyph-name="Rcommaaccent" unicode="&#x156;" horiz-adv-x="273" 
d="M179 -213h-59l-3 30h27l9 84h39zM157 -69l-4 -30zM235 403q0 -26 -3.5 -42t-8.5 -25t-10 -12t-8 -4l41 -363h-71l-3 30h39l-41 363q2 1 7 4t10 11.5t9 24.5t4 43v242q0 24 -2 41.5t-7 29.5q26 -7 35 -30t9 -71v-242zM106 340l16 -166v-217h-76v30h41v353h19zM87 426v267
h20q14 0 17.5 -9t3.5 -25v4h-6v-232q-7 -5 -17 -5h-18z" />
    <glyph glyph-name="rcommaaccent" unicode="&#x157;" horiz-adv-x="206" 
d="M194 452h-4q-2 0 -5 0.5t-6 0.5q-8 0 -17.5 -2t-18 -9t-14.5 -20t-6 -34v-431h-75v30h40v431q0 21 6 34t14.5 20t18 9t17.5 2q3 0 6 -0.5t5 -0.5h4v63q7 2 13.5 3t11.5 1h10v-97zM111 -213h-59l-3 30h27l9 84h39zM63 544h9l-8 -13zM144 579q-12 -1 -29 -6.5t-33 -18.5
q16 14 33 19t29 6zM89 -69l-4 -30zM81 553l-8 -9h-1z" />
    <glyph glyph-name="Rcaron" unicode="&#x158;" horiz-adv-x="273" 
d="M143 843l44 87h51l-60 -117h-66l-16 30h47zM89 930h15l12 -18l-7 -10zM132 936l-16 -24zM132 936q4 6 7.5 12t8.5 12zM187 930l16 30zM89 930l-20 30zM235 403q0 -26 -3.5 -42t-8.5 -25t-10 -12t-8 -4l41 -363h-71l-3 30h39l-41 363q2 1 7 4t10 11.5t9 24.5t4 43v242
q0 24 -2 41.5t-7 29.5q26 -7 35 -30t9 -71v-242zM106 340l16 -166v-217h-76v30h41v353h19zM87 426v267h20q14 0 17.5 -9t3.5 -25v4h-6v-232q-7 -5 -17 -5h-18z" />
    <glyph glyph-name="rcaron" unicode="&#x159;" horiz-adv-x="206" 
d="M194 452h-4q-2 0 -5 0.5t-6 0.5q-8 0 -17.5 -2t-18 -9t-14.5 -20t-6 -34v-431h-75v30h40v431q0 21 6 34t14.5 20t18 9t17.5 2q3 0 6 -0.5t5 -0.5h4v63q7 2 13.5 3t11.5 1h10v-97zM112 663l44 87h51l-60 -117h-66l-16 30h47zM58 750h15l12 -18l-7 -10zM63 544h9l-8 -13z
M144 579q-12 -1 -29 -6.5t-33 -18.5q16 14 33 19t29 6zM101 756l-16 -24zM101 756q4 6 7.5 12t8.5 12zM58 750l-20 30zM156 750l16 30zM81 553l-8 -9h-1z" />
    <glyph glyph-name="Sacute" unicode="&#x15a;" horiz-adv-x="254" 
d="M145 834h-69l22 30h12l49 64h59zM183 958l-24 -30zM110 708q14 0 19.5 -7t6.5 -30q0 2 -0.5 3t-0.5 3q-8 -2 -12 -9.5t-4 -24.5q-1 -79 18.5 -150t42.5 -140q22 -66 40 -131.5t18 -136.5q0 -24 -2.5 -48t-12 -43.5t-28.5 -32t-52 -12.5q-58 0 -81 38q21 -8 46 -8
q33 0 52 12.5t28.5 32t12 43.5t2.5 48q0 72 -18.5 139t-41 134.5t-41 137.5t-18.5 147q0 21 6.5 28t19.5 7zM204 668q0 51 -16 80q28 -11 39.5 -39t11.5 -71v-136h-68v30h33v136zM107 56q-14 0 -19 12t-5 40v97h35v-146q1 0 3 2q-5 -5 -14 -5z" />
    <glyph glyph-name="sacute" unicode="&#x15b;" horiz-adv-x="257" 
d="M149 655h-69l22 30h12l49 64h59zM187 779l-24 -30zM146 -47q-50 0 -75 38q18 -8 40 -8q28 0 46.5 11.5t29.5 29t15.5 39t4.5 42.5q0 59 -18 103t-39 83t-39 79.5t-18 91.5q0 12 4 27.5t18 15.5q21 0 22 -57q-1 5 -1 9.5v9.5q-5 -7 -6.5 -17t-1.5 -18q0 -48 17 -88.5
t37 -77.5q21 -39 40.5 -85.5t19.5 -105.5q0 -21 -4.5 -42.5t-15.5 -39t-29.5 -29t-46.5 -11.5zM211 445q0 29 -5 53t-16 42q30 -13 43 -46.5t13 -78.5v-52h-74v30h39v52zM112 55q-13 0 -18 19.5t-5 44.5v18h35v-48v-13t1 -12q-5 -9 -13 -9zM190 540l-1 1q-16 24 -41 32
q27 -9 42 -33zM64 -6l1 -1l-3 2zM136 576q-8 2 -12 2q4 0 12 -2zM128 72q2 6 2 6.5t-2 -6.5zM145 574q2 0 3 -1q-1 1 -3 1q-4 2 -8 2q4 0 8 -2zM128 72q0 -2 -2 -6q2 4 2 6zM68 -8q1 -1 3 -1q-2 0 -3 1z" />
    <glyph glyph-name="Scircumflex" unicode="&#x15c;" horiz-adv-x="254" 
d="M139 860l-32 -47h-54l16 30h3l40 58l39 -58zM186 813l-20 30h40l-45 87h20l60 -117h-55zM161 930l-15 30zM110 708q14 0 19.5 -7t6.5 -30q0 2 -0.5 3t-0.5 3q-8 -2 -12 -9.5t-4 -24.5q-1 -79 18.5 -150t42.5 -140q22 -66 40 -131.5t18 -136.5q0 -24 -2.5 -48t-12 -43.5
t-28.5 -32t-52 -12.5q-58 0 -81 38q21 -8 46 -8q33 0 52 12.5t28.5 32t12 43.5t2.5 48q0 72 -18.5 139t-41 134.5t-41 137.5t-18.5 147q0 21 6.5 28t19.5 7zM204 668q0 51 -16 80q28 -11 39.5 -39t11.5 -71v-136h-68v30h33v136zM107 56q-14 0 -19 12t-5 40v97h35v-146
q1 0 3 2q-5 -5 -14 -5z" />
    <glyph glyph-name="scircumflex" unicode="&#x15d;" horiz-adv-x="257" 
d="M140 680l-32 -47h-54l16 30h3l40 58l39 -58zM187 633l-20 30h40l-45 87h20l60 -117h-55zM162 750l-15 30zM146 -47q-50 0 -75 38q18 -8 40 -8q28 0 46.5 11.5t29.5 29t15.5 39t4.5 42.5q0 59 -18 103t-39 83t-39 79.5t-18 91.5q0 12 4 27.5t18 15.5q21 0 22 -57
q-1 5 -1 9.5v9.5q-5 -7 -6.5 -17t-1.5 -18q0 -48 17 -88.5t37 -77.5q21 -39 40.5 -85.5t19.5 -105.5q0 -21 -4.5 -42.5t-15.5 -39t-29.5 -29t-46.5 -11.5zM211 445q0 29 -5 53t-16 42q30 -13 43 -46.5t13 -78.5v-52h-74v30h39v52zM112 55q-13 0 -18 19.5t-5 44.5v18h35v-48
v-13t1 -12q-5 -9 -13 -9zM190 540l-1 1q-16 24 -41 32q27 -9 42 -33zM64 -6l1 -1l-3 2zM136 576q-8 2 -12 2q4 0 12 -2zM128 72q2 6 2 6.5t-2 -6.5zM145 574q2 0 3 -1q-1 1 -3 1q-4 2 -8 2q4 0 8 -2zM128 72q0 -2 -2 -6q2 4 2 6zM68 -8q1 -1 3 -1q-2 0 -3 1z" />
    <glyph glyph-name="Scedilla" unicode="&#x15e;" horiz-adv-x="254" 
d="M110 708q14 0 19.5 -7t6.5 -30q0 2 -0.5 3t-0.5 3q-8 -2 -12 -9.5t-4 -24.5q-1 -79 18.5 -150t42.5 -140q22 -66 40 -131.5t18 -136.5q0 -20 -2 -40t-8 -37.5t-17.5 -31t-30.5 -20.5q-16 21 -38 24q0 3 -1 4q21 6 33.5 19.5t19 31.5t8 39t1.5 41q0 72 -18.5 139
t-41 134.5t-41 137.5t-18.5 147q0 21 6.5 28t19.5 7zM204 668q0 51 -16 80q28 -11 39.5 -39t11.5 -71v-136h-68v30h33v136zM192 -81q0 17 -8 30q17 -5 30 -21t13 -39q0 -17 -6.5 -29t-17 -19.5t-23 -11t-23.5 -3.5q-26 0 -54 10l3 21q4 0 7.5 -0.5t8.5 -0.5q14 0 29.5 5.5
t26.5 18.5q2 2 2 3q5 8 8.5 16.5t3.5 19.5zM107 56q-14 0 -19 12t-5 40v97h35v-146q1 0 3 2q-5 -5 -14 -5zM124 -72q-1 0 -2 1q10 -1 17.5 -4t7.5 -8q0 -8 -8 -10.5t-13 -2.5zM88 -71l1 31q-16 8 -27 27q11 -5 28 -7zM12 65q6 -55 40 -74q-34 18 -40 74zM181 758
q-8 10 -21 16q13 -6 21 -16zM121 -96q-7 1 -13 1.5t-13 2.5q7 -2 13.5 -2.5t12.5 -1.5zM73 -136q13 -4 28 -6q-7 1 -14 2.5t-14 3.5zM145 780q-5 2 -10.5 3t-10.5 1q5 0 10.5 -1t10.5 -3zM181 -115q-1 -1 -1 -2l-2 -3l-1 -1zM127 71q-2 -3 -3 -5.5t-3 -4.5q2 2 3 4.5t3 5.5z
M52 -9q4 -2 10 -4q-6 2 -10 4zM75 -87l8 -2q2 0 3 -1zM180 -44l3 -6zM10 88q0 -6 0.5 -12t1.5 -11q-1 5 -1.5 11t-0.5 12zM155 777l5 -3zM115 785q2 0 4 -0.5t4 -0.5q-2 0 -4 0.5t-4 0.5zM150 779q-1 0 -2 0.5t-3 0.5q2 0 3 -0.5t2 -0.5zM131 96q0 -3 -0.5 -6t-0.5 -6
q0 3 0.5 6t0.5 6zM129 79q0 -2 -0.5 -2.5t-0.5 -2.5q0 2 0.5 3t0.5 2zM187 749q-2 4 -4 6q2 -2 4 -6zM127 71q0 2 1 3q-1 -1 -1 -3zM89 -91h4h-4zM121 -71h-8h8zM86 -90q1 0 1.5 -0.5t1.5 -0.5q-1 0 -1.5 0.5t-1.5 0.5zM101 -142q1 0 2 -0.5t2 -0.5q-1 0 -2 0.5t-2 0.5z
M150 779q4 -2 5 -2q-1 0 -5 2zM70 -135q2 0 3 -1q-1 1 -3 1zM130 84q0 -2 -0.5 -2.5t-0.5 -1.5q0 1 0.5 1.5t0.5 2.5z" />
    <glyph glyph-name="scedilla" unicode="&#x15f;" horiz-adv-x="257" 
d="M115 505q21 0 22 -57q-1 5 -1 9.5v9.5q-5 -7 -6.5 -17t-1.5 -18q0 -48 17 -88.5t37 -77.5q21 -39 40.5 -85.5t19.5 -105.5q0 -18 -4 -37.5t-13 -36t-23.5 -28.5t-34.5 -17q-16 22 -38 25q0 3 -1 4q23 3 38 15t24 29t13 37t4 39q0 59 -18 103t-39 83t-39 79.5t-18 91.5
q0 12 4 27.5t18 15.5zM211 445q0 29 -5 53t-16 42q30 -13 43 -46.5t13 -78.5v-52h-74v30h39v52zM179 -80q0 17 -8 30q17 -5 30 -21t13 -39q0 -17 -6.5 -29t-17 -19.5t-23 -11t-23.5 -3.5q-26 0 -54 10l3 21q4 0 7.5 -0.5t8.5 -0.5q14 0 29.5 5.5t26.5 18.5q2 2 2 3
q5 8 8.5 16.5t3.5 19.5zM112 55q-13 0 -18 19.5t-5 44.5v18h35v-48v-13t1 -12q-5 -9 -13 -9zM111 -71q-1 0 -2 1q10 -1 17.5 -4t7.5 -8q0 -8 -8 -10.5t-13 -2.5zM14 100q3 -79 51 -107q-49 28 -51 107zM86 247q14 -25 26 -51t17 -57q-5 31 -17 56.5t-26 51.5zM78 -12
q-1 -1 -1 -4l-5 6l-7 3q8 -4 13 -5zM190 540l-1 1q-16 24 -41 32q27 -9 42 -33zM64 287l14 -25l6 -11l-10 18zM107 -95q-9 1 -17.5 3t-17.5 4q9 -2 17.5 -4t17.5 -3zM28 372q4 -13 8 -24.5t9 -22.5q-5 11 -9 22.5t-8 24.5zM132 110l-3 29zM60 295l-15 30zM60 -135
q13 -4 28 -6q-7 1 -14 2.5t-14 3.5zM17 445q0 -17 3 -32q-3 15 -3 32zM168 -114q-1 -1 -1 -2l-2 -3l-1 -1zM24 387l4 -15zM20 413q1 -6 1.5 -12t2.5 -12q-2 6 -2.5 12t-1.5 12zM136 576q-8 2 -12 2q4 0 12 -2zM130 81q0 -3 -2 -9q2 6 2 9zM68 -87q-2 0 -3 0.5t-3 0.5z
M145 574q-4 2 -8 2q4 0 8 -2zM84 251q2 -2 2 -4zM169 -46l-2 2zM64 287l-4 8zM108 -70h-8h8zM88 -141q1 0 2 -0.5t2 -0.5q-1 0 -2 0.5t-2 0.5zM145 574q2 0 3 -1q-1 1 -3 1zM57 -134q2 0 3 -1q-1 1 -3 1zM128 72q0 -2 -2 -6q2 4 2 6zM131 85q0 -1 -0.5 -1.5t-0.5 -2.5
q0 2 0.5 2.5t0.5 1.5zM131 85v2v-2zM71 -88q-1 0 -1.5 0.5t-1.5 0.5z" />
    <glyph glyph-name="Scaron" unicode="&#x160;" horiz-adv-x="254" 
d="M144 843l44 87h51l-60 -117h-66l-16 30h47zM90 930h15l12 -18l-7 -10zM133 936l-16 -24zM133 936q4 6 7.5 12t8.5 12zM188 930l16 30zM90 930l-20 30zM110 708q14 0 19.5 -7t6.5 -30q0 2 -0.5 3t-0.5 3q-8 -2 -12 -9.5t-4 -24.5q-1 -79 18.5 -150t42.5 -140
q22 -66 40 -131.5t18 -136.5q0 -24 -2.5 -48t-12 -43.5t-28.5 -32t-52 -12.5q-58 0 -81 38q21 -8 46 -8q33 0 52 12.5t28.5 32t12 43.5t2.5 48q0 72 -18.5 139t-41 134.5t-41 137.5t-18.5 147q0 21 6.5 28t19.5 7zM204 668q0 51 -16 80q28 -11 39.5 -39t11.5 -71v-136h-68
v30h33v136zM107 56q-14 0 -19 12t-5 40v97h35v-146q1 0 3 2q-5 -5 -14 -5z" />
    <glyph glyph-name="scaron" unicode="&#x161;" horiz-adv-x="254" 
d="M144 663l44 87h51l-60 -117h-66l-16 30h47zM90 750h15l12 -18l-7 -10zM133 756q4 6 7.5 12t8.5 12zM133 756l-16 -24zM188 750l16 30zM90 750l-20 30zM146 -47q-50 0 -75 38q18 -8 40 -8q28 0 46.5 11.5t29.5 29t15.5 39t4.5 42.5q0 59 -18 103t-39 83t-39 79.5t-18 91.5
q0 12 4 27.5t18 15.5q21 0 22 -57q-1 5 -1 9.5v9.5q-5 -7 -6.5 -17t-1.5 -18q0 -48 17 -88.5t37 -77.5q21 -39 40.5 -85.5t19.5 -105.5q0 -21 -4.5 -42.5t-15.5 -39t-29.5 -29t-46.5 -11.5zM211 445q0 29 -5 53t-16 42q30 -13 43 -46.5t13 -78.5v-52h-74v30h39v52zM112 55
q-13 0 -18 19.5t-5 44.5v18h35v-48v-13t1 -12q-5 -9 -13 -9zM190 540l-1 1q-16 24 -41 32q27 -9 42 -33zM64 -6l1 -1l-3 2zM136 576q-8 2 -12 2q4 0 12 -2zM128 72q2 6 2 6.5t-2 -6.5zM145 574q2 0 3 -1q-1 1 -3 1q-4 2 -8 2q4 0 8 -2zM128 72q0 -2 -2 -6q2 4 2 6zM68 -8
q1 -1 3 -1q-2 0 -3 1z" />
    <glyph glyph-name="Tcommaaccent" unicode="&#x162;" horiz-adv-x="245" 
d="M235 663h-56v-706h-77v30h42v706h56v57h35v-87zM169 -213h-59l-3 30h27l9 84h39zM67 663h-21v30h21v-30zM147 -69l-4 -30z" />
    <glyph glyph-name="tcommaaccent" unicode="&#x163;" horiz-adv-x="244" 
d="M209 458h-45v-501h-75v30h40v501h45v56h35v-86zM153 -213h-59l-3 30h27l9 84h39zM164 574h-35v116h35v-116zM54 458h-13v30h13v-30zM131 -69l-4 -30z" />
    <glyph glyph-name="Tcaron" unicode="&#x164;" horiz-adv-x="245" 
d="M235 663h-56v-706h-77v30h42v706h56v57h35v-87zM138 843l44 87h51l-60 -117h-66l-16 30h47zM67 663h-21v30h21v-30zM84 930h15l12 -18l-7 -10zM127 936q4 6 7.5 12t8.5 12zM127 936l-16 -24zM182 930l16 30zM84 930l-20 30z" />
    <glyph glyph-name="tcaron" unicode="&#x165;" horiz-adv-x="385" 
d="M209 458h-45v-501h-75v30h40v501h45v56h35v-86zM396 616h-65l-13 30h43l-47 104h22zM164 574h-35v116h35v-116zM54 458h-13v30h13v-30zM314 750l-13 30z" />
    <glyph glyph-name="tbar" unicode="&#x167;" horiz-adv-x="244" 
d="M192 258h-28v-301h-75v30h40v301h28v85h-28v115h45v56h35v-86h-45v-115h28v-85zM164 574h-35v116h35v-116zM54 258h-34v30h34v-30zM54 458h-13v30h13v-30z" />
    <glyph glyph-name="Utilde" unicode="&#x168;" horiz-adv-x="272" 
d="M192 808q-16 0 -31.5 8.5t-27.5 16.5q-9 7 -17 11.5t-15 4.5q-10 0 -23.5 -14.5t-21.5 -24.5l-30 36q8 10 20 21.5t20 11.5t18 -6.5t21.5 -14t24.5 -14t27 -6.5q8 0 18 1.5t21 8t24 18.5t27 33l-16 16l2 3l49 -49q-14 -21 -27 -33t-24 -18.5t-21 -8t-18 -1.5zM119 936
q-9 6 -18.5 12t-19.5 9q10 -3 19 -8.5t18 -11.5q0 -1 1 -1zM149 919q-11 3 -23 12q12 -9 23 -12zM21 840q0 1 3 4zM175 926l5 4zM77 958q-2 1 -5 1q3 0 5 -1zM81 957q-2 1 -4 1q3 0 4 -1zM68 960q1 0 1.5 -0.5t1.5 -0.5q-1 0 -1.5 0.5t-1.5 0.5zM119 936l4 -3zM152 918h3h-3
zM152 918q-2 0 -3 1q1 -1 3 -1zM28 951q-4 -2 -6 -4q2 2 6 4zM58 -13q19 -8 50 -8q45 0 72 21.5t27 79.5v670h35v-700q0 -58 -27 -79.5t-72 -21.5q-61 0 -84 38h-1zM109 55q-12 0 -17.5 7.5t-5.5 27.5v660h35v-692l1 1q-4 -4 -13 -4z" />
    <glyph glyph-name="utilde" unicode="&#x169;" horiz-adv-x="267" 
d="M238 -43h-46l-5 30h16v557h35v-587zM109 63q-14 0 -19 10t-5 24v447h35v-477q-4 -4 -11 -4zM187 629q-16 0 -31.5 8.5t-27.5 16.5q-9 7 -17 11.5t-15 4.5q-10 0 -23.5 -14.5t-21.5 -24.5l-30 36q8 10 20 21.5t20 11.5t18 -6.5t21.5 -14t24.5 -14t27 -6.5q8 0 18 1.5t21 8
t24 18.5t27 33l-16 16l2 3l49 -49q-14 -21 -27 -33t-24 -18.5t-21 -8t-18 -1.5zM157 -13h21q-8 -14 -20.5 -24.5t-29.5 -10.5q-47 0 -66 35q15 -5 31 -5q12 0 21.5 5t16.5 13t12 17.5t7 17.5zM14 52q5 -21 14 -37.5t26 -24.5q-17 8 -26 24.5t-14 37.5zM114 757
q-9 6 -18.5 12t-19.5 9q10 -3 19 -8.5t18 -11.5q0 -1 1 -1zM144 740q-11 3 -23 12q12 -9 23 -12zM127 80q-3 -9 -7 -13q2 2 3.5 5t3.5 8zM11 91q0 -5 0.5 -9t0.5 -8q0 4 -0.5 8t-0.5 9zM127 80l3 17zM54 -10l8 -3q-2 0 -4 1zM13 68q0 -11 1 -16q-1 5 -1 16zM16 661q0 1 3 4z
M170 747l5 4zM72 779q-2 1 -5 1q3 0 5 -1zM76 778q-2 1 -4 1q3 0 4 -1zM114 757l4 -3zM63 781q1 0 1.5 -0.5t1.5 -0.5q-1 0 -1.5 0.5t-1.5 0.5zM147 739h3h-3zM12 73q0 -2 0.5 -2.5t0.5 -2.5q0 2 -0.5 2.5t-0.5 2.5zM23 772q-4 -2 -6 -4q2 2 6 4zM147 739q-2 0 -3 1
q1 -1 3 -1z" />
    <glyph glyph-name="Umacron" unicode="&#x16a;" horiz-adv-x="272" 
d="M250 852h-215v30h180v46h35v-76zM58 -13q19 -8 50 -8q45 0 72 21.5t27 79.5v670h35v-700q0 -58 -27 -79.5t-72 -21.5q-61 0 -84 38h-1zM109 55q-12 0 -17.5 7.5t-5.5 27.5v660h35v-692l1 1q-4 -4 -13 -4z" />
    <glyph glyph-name="umacron" unicode="&#x16b;" horiz-adv-x="267" 
d="M238 -43h-46l-5 30h16v557h35v-587zM109 63q-14 0 -19 10t-5 24v447h35v-477q-4 -4 -11 -4zM249 674h-215v30h180v46h35v-76zM157 -13h21q-8 -14 -20.5 -24.5t-29.5 -10.5q-47 0 -66 35q15 -5 31 -5q12 0 21.5 5t16.5 13t12 17.5t7 17.5zM14 52q5 -21 14 -37.5t26 -24.5
q-17 8 -26 24.5t-14 37.5zM127 80q-3 -9 -7 -13q2 2 3.5 5t3.5 8zM11 91q0 -5 0.5 -9t0.5 -8q0 4 -0.5 8t-0.5 9zM127 80l3 17zM54 -10l8 -3q-2 0 -4 1zM13 68q0 -11 1 -16q-1 5 -1 16zM12 73q0 -2 0.5 -2.5t0.5 -2.5q0 2 -0.5 2.5t-0.5 2.5z" />
    <glyph glyph-name="Ubreve" unicode="&#x16c;" horiz-adv-x="272" 
d="M108 856q-20 0 -38 6.5t-32 20.5q11 -11 24 -17q14 -20 36 -30t45 -10q17 0 34 5.5t30.5 17t22 28t8.5 39.5v13h-37q-6 -37 -34 -55t-59 -18zM108 922q9 0 14 5v2h-29q5 -7 15 -7zM129 959q0 -6 -0.5 -13.5t-2.5 -12.5q2 6 2.5 13t0.5 13zM16 921q2 -7 4.5 -13t5.5 -11
q-3 5 -5.5 11t-4.5 13zM26 897l12 -14zM13 941q0 -3 0.5 -6.5t0.5 -6.5q0 3 -0.5 6.5t-0.5 6.5zM93 929q-3 2 -4 7q1 -5 4 -7zM202 933q0 -2 -0.5 -2.5t-0.5 -1.5q0 1 0.5 1.5t0.5 2.5zM14 928l2 -7zM125 931q-2 -2 -2 -3q0 1 2 3zM89 936q0 2 -1 3q1 -1 1 -3zM202 933
q0 2 0.5 4t0.5 4q0 -2 -0.5 -4t-0.5 -4zM88 939q0 2 -0.5 2t-0.5 2q0 -1 0.5 -2t0.5 -2zM87 943v7v-7zM59 -13q23 -38 84 -38q45 0 72 21.5t27 79.5v700h-35v-670q0 -58 -27 -79.5t-72 -21.5q-31 0 -50 8h1zM109 55q9 0 13 4l-1 -1v692h-35v-660q0 -20 5.5 -27.5t17.5 -7.5z
" />
    <glyph glyph-name="ubreve" unicode="&#x16d;" horiz-adv-x="267" 
d="M238 544h-35v-557h-16l5 -30h46v587zM109 63q7 0 11 4v477h-35v-447q0 -14 5 -24t19 -10zM110 677q-20 0 -38 6.5t-32 20.5q11 -11 24 -17q14 -20 36 -30t45 -10q17 0 34 5.5t30.5 17t22 28t8.5 39.5v13h-37q-6 -37 -34 -55t-59 -18zM150 35q-2 -8 -7 -17.5t-12 -17.5
t-16.5 -13t-21.5 -5q-16 0 -31 5q19 -35 66 -35q17 0 29.5 10.5t20.5 24.5h-21zM110 743q9 0 14 5v2h-29q5 -7 15 -7zM14 52q5 -21 14 -37.5t26 -24.5q-17 8 -26 24.5t-14 37.5zM131 780q0 -6 -0.5 -13.5t-2.5 -12.5q2 6 2.5 13t0.5 13zM18 742q2 -7 4.5 -13t5.5 -11
q-3 5 -5.5 11t-4.5 13zM28 718l12 -14zM127 80q-2 -5 -3.5 -8t-3.5 -5q4 4 7 13zM11 91q0 -5 0.5 -9t0.5 -8q0 4 -0.5 8t-0.5 9zM15 762q0 -3 0.5 -6.5t0.5 -6.5q0 3 -0.5 6.5t-0.5 6.5zM130 97l-3 -17zM54 -10l4 -2t4 -1zM95 750q-3 2 -4 7q1 -5 4 -7zM204 754
q0 -2 -0.5 -2.5t-0.5 -1.5q0 1 0.5 1.5t0.5 2.5zM13 68q0 -11 1 -16q-1 5 -1 16zM16 749l2 -7zM127 752q-2 -2 -2 -3q0 1 2 3zM204 754q0 2 0.5 4t0.5 4q0 -2 -0.5 -4t-0.5 -4zM91 757q0 2 -1 3q1 -1 1 -3zM90 760q0 2 -0.5 2t-0.5 2q0 -1 0.5 -2t0.5 -2zM12 73
q0 -2 0.5 -2.5t0.5 -2.5q0 2 -0.5 2.5t-0.5 2.5zM89 764v7v-7z" />
    <glyph glyph-name="Uring" unicode="&#x16e;" horiz-adv-x="272" 
d="M179 889q0 18 -10 36q20 -8 32.5 -26t12.5 -40q0 -29 -21 -49.5t-50 -20.5q-20 0 -36 9.5t-25 25.5q13 -5 26 -5q29 0 50 20.5t21 49.5zM88 890q0 8 5.5 13.5t13.5 5.5t13.5 -5.5t5.5 -13.5t-5.5 -13.5t-13.5 -5.5t-13.5 5.5t-5.5 13.5zM47 853q9 -15 24 -24
q-15 9 -24 24zM164 931q-4 5 -8.5 10t-10.5 8q6 -3 10.5 -8t8.5 -10zM169 925q-1 2 -5 6zM130 956q-4 2 -8 2.5t-8 1.5q4 -1 8 -1.5t8 -2.5zM40 869l-2 11zM145 949q-3 2 -7 4q4 -2 7 -4zM44 859l-4 10zM71 829l7 -4q-2 1 -3.5 1.5t-3.5 2.5zM138 953q-1 0 -1.5 0.5
t-1.5 0.5q1 0 1.5 -0.5t1.5 -0.5zM38 880v4v-4zM78 953q-5 -2 -7 -4q2 2 7 4zM46 854q0 1 -2 5zM130 956q3 0 5 -2q-2 2 -5 2zM47 853l-1 1q1 0 1 -1zM58 -13q19 -8 50 -8q45 0 72 21.5t27 79.5v670h35v-700q0 -58 -27 -79.5t-72 -21.5q-61 0 -84 38h-1zM109 55
q-12 0 -17.5 7.5t-5.5 27.5v660h35v-692l1 1q-4 -4 -13 -4z" />
    <glyph glyph-name="uring" unicode="&#x16f;" horiz-adv-x="267" 
d="M238 -43h-46l-5 30h16v557h35v-587zM109 63q-14 0 -19 10t-5 24v447h35v-477q-4 -4 -11 -4zM180 709q0 18 -10 36q20 -8 32.5 -26t12.5 -40q0 -29 -21 -49.5t-50 -20.5q-20 0 -36 9.5t-25 25.5q13 -5 26 -5q29 0 50 20.5t21 49.5zM157 -13h21q-8 -14 -20.5 -24.5
t-29.5 -10.5q-47 0 -66 35q15 -5 31 -5q12 0 21.5 5t16.5 13t12 17.5t7 17.5zM89 710q0 8 5.5 13.5t13.5 5.5t13.5 -5.5t5.5 -13.5t-5.5 -13.5t-13.5 -5.5t-13.5 5.5t-5.5 13.5zM14 52q5 -21 14 -37.5t26 -24.5q-17 8 -26 24.5t-14 37.5zM48 673q9 -15 24 -24q-15 9 -24 24z
M165 751q-4 5 -8.5 10t-10.5 8q6 -3 10.5 -8t8.5 -10zM127 80q-3 -9 -7 -13q2 2 3.5 5t3.5 8zM11 91q0 -5 0.5 -9t0.5 -8q0 4 -0.5 8t-0.5 9zM170 745q-1 2 -5 6zM131 776q-4 2 -8 2.5t-8 1.5q4 -1 8 -1.5t8 -2.5zM127 80l3 17zM54 -10l8 -3q-2 0 -4 1zM41 689l-2 11z
M146 769q-3 2 -7 4q4 -2 7 -4zM45 679l-4 10zM72 649l7 -4q-2 1 -3.5 1.5t-3.5 2.5zM13 68q0 -11 1 -16q-1 5 -1 16zM139 773q-1 0 -1.5 0.5t-1.5 0.5q1 0 1.5 -0.5t1.5 -0.5zM39 700v4v-4zM79 773q-5 -2 -7 -4q2 2 7 4zM131 776q3 0 5 -2q-2 2 -5 2zM12 73q0 -2 0.5 -2.5
t0.5 -2.5q0 2 -0.5 2.5t-0.5 2.5zM47 674q0 1 -2 5zM48 673l-1 1q1 0 1 -1z" />
    <glyph glyph-name="Uogonek" unicode="&#x172;" horiz-adv-x="272" 
d="M138 -18q32 5 50.5 27.5t18.5 70.5v670h35v-700q0 -46 -19.5 -69t-49.5 -29q-8 -5 -18.5 -12.5t-17.5 -15.5l14 5l6 2q-11 -5 -22.5 -9t-22.5 -4q-8 0 -13 4.5t-5 16.5q0 4 4.5 10t11 12t14.5 11.5t14 9.5zM109 55q-12 0 -17.5 7.5t-5.5 27.5v660h35v-692l1 1
q-4 -4 -13 -4zM209 -154l-24 -8q-8 -3 -18.5 -5.5t-20.5 -2.5q-11 0 -23 4t-21 12q-9 9 -14 18q9 -4 23 -4q20 0 39 8l24 8l-5 16l17 7l6 2zM67 -123q8 -8 20 -13q-6 2 -10.5 5t-9.5 7v1zM87 -136h1h-1z" />
    <glyph glyph-name="uogonek" unicode="&#x173;" horiz-adv-x="267" 
d="M203 -13v557h35v-587l-34 1v1q-11 -5 -22.5 -9t-22.5 -4q-8 0 -13 4.5t-5 16.5q0 9 15 21l1 -1h46zM109 63q-14 0 -19 10t-5 24v447h35v-477q-4 -4 -11 -4zM256 -126l-24 -8q-8 -3 -18.5 -5.5t-20.5 -2.5q-11 0 -23 4t-21 12q-9 9 -14 18q9 -4 23 -4q20 0 39 8l24 8
l-5 16l17 7l6 2zM89 -39q-14 8 -26 26q13 -5 28 -5q-2 -10 -2 -17v-4zM12 77q2 -32 13.5 -56.5t37.5 -33.5q-26 8 -37.5 32.5t-13.5 57.5zM198 -43l2 1h-9l-7 -6zM216 -80l-12 38zM114 -95q8 -8 20 -13q-6 2 -10.5 5t-9.5 7v1zM127 80q-3 -9 -7 -13q2 2 3.5 5t3.5 8zM127 80
l3 17zM98 -75q2 -4 8 -12q-6 8 -8 12zM112 -94l-6 7zM11 91q0 -10 1 -14q-1 4 -1 14zM89 -45v5v-5zM134 -108h1h-1zM90 -49q1 -13 8 -26q-7 13 -8 26z" />
    <glyph glyph-name="Wcircumflex" unicode="&#x174;" horiz-adv-x="389" 
d="M200 860l-32 -47h-54l16 30h3l40 58l39 -58zM247 813l-20 30h40l-45 87h20l60 -117h-55zM222 930l-15 30zM292 -13l45 763h37l-47 -793h-75l-3 30h43zM179 368l14 -140l-28 -271h-75l-2 30h42l39 380l5 93zM207 750h33l11 -171l-11 -200l-4 -97l-5 92zM126 595l-19 -220
l-4 -93l-4 95l-13 373h34l5 -156v4z" />
    <glyph glyph-name="wcircumflex" unicode="&#x175;" horiz-adv-x="332" 
d="M289 544h37l-40 -587h-68l-4 30h37l40 587zM154 251l15 -137l-18 -157h-67l-2 30h34l30 265l4 70zM76 544h34l5 -105l12 135l-29 -329l-5 -69l-2 68zM175 544h33l10 -106l-9 -195l-2 -66l-4 66zM178 680l-32 -47h-54l16 30h3l40 58l39 -58zM225 633l-20 30h40l-45 87h20
l60 -117h-55zM175 544l-2 30zM200 750l-15 30zM76 544l-1 30zM224 574l-6 -138v2zM169 114v1l14 -128z" />
    <glyph glyph-name="Ycircumflex" unicode="&#x176;" horiz-adv-x="270" 
d="M150 860l-32 -47h-54l16 30h3l40 58l39 -58zM197 813l-20 30h40l-45 87h20l60 -117h-55zM172 930l-15 30zM270 750l-76 -438v-355h-71v30h36v355l71 408h40zM88 750h31l19 -135l-15 -111z" />
    <glyph glyph-name="ycircumflex" unicode="&#x177;" horiz-adv-x="256" 
d="M40 -182q31 1 51 16.5t32 41t18 58t10 65.5l60 545h39l-64 -575q-4 -34 -10 -66.5t-18 -58t-32.5 -41t-53.5 -15.5h-32v30zM91 544h33l6 -91l9 121l-21 -296l-4 -80l-4 80zM142 680l-32 -47h-54l16 30h3l40 58l39 -58zM189 633l-20 30h40l-45 87h20l60 -117h-55zM75 -6
q0 -9 -2 -19.5t-5 -21t-8 -19.5t-11 -14q12 10 18 33t8 41zM164 750l-15 30zM215 574l-4 -30zM49 -80q0 -1 -5 -3q5 2 5 3zM44 -83q-1 -1 -3 -1q2 0 3 1z" />
    <glyph glyph-name="Ydieresis" unicode="&#x178;" horiz-adv-x="270" 
d="M255 838h-76v30h41v61h35v-91zM130 838h-75v30h40v61h35v-91zM270 750l-76 -438v-355h-71v30h36v355l71 408h40zM88 750h31l19 -135l-15 -111z" />
    <glyph glyph-name="Zacute" unicode="&#x179;" horiz-adv-x="256" 
d="M200 707v43h35v-73l-104 -603h-40zM46 -43v30h154v57h35v-87h-189zM146 834h-69l22 30h12l49 64h59zM115 663h-69v30h74zM184 958l-24 -30z" />
    <glyph glyph-name="zacute" unicode="&#x17a;" horiz-adv-x="259" 
d="M194 501v43h35v-73l-94 -398h-42zM46 -43v30h148v56h35v-86h-183zM149 656h-69l22 30h12l49 64h59zM104 458h-58v30h65zM187 780l-24 -30z" />
    <glyph glyph-name="Zdotaccent" unicode="&#x17b;" horiz-adv-x="256" 
d="M200 707v43h35v-73l-104 -603h-40zM46 -43v30h154v57h35v-87h-189zM168 909q0 8 -3 16q17 -4 27.5 -16.5t10.5 -29.5q0 -20 -14.5 -33.5t-34.5 -13.5q-34 0 -45 31q3 -1 10 -1q20 0 34.5 13.5t14.5 33.5zM115 663h-69v30h74zM77 887q9 -19 32 -24q-22 3 -32 24zM160 934
q-8 12 -19 18q11 -6 19 -18zM131 955l10 -3zM165 925q-1 3 -5 9q4 -6 5 -9zM72 903q0 -4 2 -8q-2 4 -2 8zM131 955q-1 0 -1.5 0.5t-1.5 0.5q1 0 1.5 -0.5t1.5 -0.5zM77 887l-2 3zM94 950l6 3zM126 956h2h-2zM123 957l2 -1q-1 0 -2 1z" />
    <glyph glyph-name="zdotaccent" unicode="&#x17c;" horiz-adv-x="259" 
d="M194 501v43h35v-73l-94 -398h-42zM46 -43v30h148v56h35v-86h-183zM162 732q0 8 -3 16q17 -4 27.5 -16.5t10.5 -29.5q0 -20 -14.5 -33.5t-34.5 -13.5q-34 0 -45 31q3 -1 10 -1q20 0 34.5 13.5t14.5 33.5zM104 458h-58v30h65zM71 710q9 -19 32 -24q-22 3 -32 24zM154 757
q-8 12 -19 18q11 -6 19 -18zM125 778l10 -3zM159 748q-1 3 -5 9q4 -6 5 -9zM66 726q0 -4 2 -8q-2 4 -2 8zM125 778q-1 0 -1.5 0.5t-1.5 0.5q1 0 1.5 -0.5t1.5 -0.5zM71 710l-2 3zM88 773l6 3zM120 779h2h-2zM117 780l2 -1q-1 0 -2 1z" />
    <glyph glyph-name="Zcaron" unicode="&#x17d;" horiz-adv-x="256" 
d="M200 707v43h35v-73l-104 -603h-40zM46 -43v30h154v57h35v-87h-189zM145 843l44 87h51l-60 -117h-66l-16 30h47zM115 663h-69v30h74zM91 930h15l12 -18l-7 -10zM134 936q4 6 7.5 12t8.5 12zM134 936l-16 -24zM189 930l16 30zM91 930l-20 30z" />
    <glyph glyph-name="zcaron" unicode="&#x17e;" horiz-adv-x="259" 
d="M194 501v43h35v-73l-94 -398h-42zM46 -43v30h148v56h35v-86h-183zM143 663l44 87h51l-60 -117h-66l-16 30h47zM104 458h-58v30h65zM89 750h15l12 -18l-7 -10zM132 756q4 6 7.5 12t8.5 12zM132 756l-16 -24zM187 750l16 30zM89 750l-20 30z" />
    <glyph glyph-name="AEacute" unicode="&#x1fc;" horiz-adv-x="472" 
d="M300 663v-237h-35v267h114v57h35v-87h-114zM379 340v56h35v-86h-114v-236h-35v266h114zM189 222h-23q-8 -45 -16.5 -91.5t-16.5 -90.5l-15 -83h-80l5 30h40q12 66 24.5 132t23.5 133h58v-30zM379 -13v57h35v-87h-190v30h155zM272 834h-69l22 30h12l49 64h59zM147 339
l40 258q0 -57 1 -120.5t1 -121.5l-3 -16h-39zM310 958l-24 -30z" />
    <glyph glyph-name="aeacute" unicode="&#x1fd;" horiz-adv-x="415" 
d="M343 461q0 47 -21 79q26 -12 41 -40.5t15 -68.5v-226h-111v-121q-5 -14 -15 -14q-12 0 -16 13t-4 30v122h111v226zM284 -46q-25 0 -43 9.5t-30 26.5q-7 -13 -24.5 -25.5t-57.5 -12.5q-51 0 -69 35q15 -5 34 -5q41 0 58 12.5t24 25.5q25 -36 73 -36q30 0 48.5 12t28.5 33
t13.5 49.5t3.5 60.5v1h35v-31q0 -32 -3.5 -60.5t-13.5 -49.5t-28.5 -33t-48.5 -12zM123 239q-5 -8 -5 -18v-138q-5 -10 -14 -10q-13 0 -17 10t-4 24v144q0 12 5.5 19.5t13 12.5t13.5 8t8 6v-58zM232 319v132q0 14 2.5 27.5t16.5 13.5q13 0 15 -14.5t2 -26.5v-11
q-1 -5 -1 -9.5v-9.5v-102h-35zM212 656h-69l22 30h12l49 64h59zM121 391q-4 -5 -19 -12l2 2h-58v14.5t1 15.5h37q1 31 3.5 56t17.5 25q12 0 16 -14.5t4 -32.5v2q-4 -10 -5 -25.5t-1 -32.5zM101 379h-1q-14 -7 -31 -16.5t-31 -29.5q14 20 31.5 30t31.5 16zM243 578
q-45 -3 -68 -35q22 32 68 35zM174 544q-17 21 -42 30q24 -7 42 -30zM124 414q0 -4 -0.5 -7t-0.5 -6q0 6 0.5 14.5t1.5 18.5q0 -5 -0.5 -10t-0.5 -10zM250 780l-24 -30zM20 297q-5 -12 -6 -25q1 13 6 25zM24 18q7 -13 18 -22q-10 7 -18 22zM272 124q-1 -11 -1.5 -20t-2.5 -17
q2 8 2.5 17t1.5 20zM33 326q-3 -5 -5.5 -10t-4.5 -10q2 5 4.5 10t5.5 10zM44 -5q5 -4 13 -7q-8 3 -13 7zM319 543q-7 10 -14 16q7 -6 14 -16zM270 576q-10 2 -15 2q5 0 15 -2zM305 559q-4 3 -7.5 5.5t-7.5 4.5q4 -2 7.5 -4.5t7.5 -5.5zM14 53q1 -5 1.5 -9.5t2.5 -9.5
q-2 7 -4 19zM290 569l-10 4zM13 270q0 -5 -0.5 -10t-0.5 -10q0 5 0.5 10t0.5 10zM12 75q0 -5 0.5 -9t0.5 -9q0 5 -0.5 9t-0.5 9zM123 112q0 -6 -2 -16q1 5 1.5 8.5t0.5 7.5zM270 576l10 -3zM12 250q0 -2 -0.5 -5t-0.5 -5q0 2 0.5 5t0.5 5zM119 88q0 -2 -0.5 -2.5t-0.5 -2.5
q0 1 0.5 2t0.5 3zM121 96q0 -4 -2 -8q2 4 2 8zM33 326l5 7zM11 86q0 -3 0.5 -5.5t0.5 -5.5q0 3 -0.5 5.5t-0.5 5.5zM267 84q0 1 0.5 1t0.5 1q0 -1 -0.5 -1t-0.5 -1zM123 395q0 -1 -0.5 -1.5t-0.5 -1.5q0 1 0.5 1.5t0.5 1.5zM24 18l-4 9zM13 57q0 -1 0.5 -1.5t0.5 -2.5
q0 2 -0.5 2.5t-0.5 1.5zM42 -4q1 0 1 -0.5t1 -0.5q-1 0 -1 0.5t-1 0.5zM121 391q0 1 1 1zM320 542q1 0 1 -1z" />
    <glyph glyph-name="Oslashacute" unicode="&#x1fe;" horiz-adv-x="270" 
d="M205 481l71 269h43l-79 -299v-361q0 -36 -2.5 -62.5t-12.5 -44t-29.5 -26t-53.5 -8.5t-53 8h-61l8 30h18q19 -8 53 -8t53.5 8.5t29.5 26t12.5 44t2.5 62.5v361zM85 677q0 31 24 31q12 0 17 -6t7 -26q-13 -4 -13 -29v-183l-35 -132v345zM142 834h-69l22 30h12l49 64h59z
M133 91q0 -24 -5.5 -29.5t-19.5 -5.5q-10 0 -15 4l40 149v-118z" />
    <glyph glyph-name="oslashacute" unicode="&#x1ff;" 
d="M141 -47q-23 0 -41.5 9t-30.5 25q-3 -7 -7 -15t-6 -15h-81l13 30h33l13 30q25 -34 72 -34q42 0 69 32.5t27 85.5v311l56 132h48l-69 -162v-311q0 -53 -27 -85.5t-69 -32.5zM139 652h-69l22 30h12l49 64h59zM128 124l-8 -17v-41q-6 -7 -14 -7q-12 0 -16.5 14.5t-4.5 26.5
v37l42 99zM85 326v135q0 13 4 27t18 14q13 0 16 -14.5t3 -26.5q-4 -6 -5 -14t-1 -16v-23l6 14zM175 547q-8 9 -18 16t-22 11q12 -4 22 -11t18 -16zM181 551q2 6 5 12t5 11zM177 776l-24 -30zM126 81q0 -4 -2 -8q2 4 2 8zM128 93q0 -2 -2 -10q2 8 2 10zM121 67l3 6z" />
    <glyph glyph-name="Scommaaccent" unicode="&#x218;" horiz-adv-x="254" 
d="M110 708q14 0 19.5 -7t6.5 -30q0 2 -0.5 3t-0.5 3q-8 -2 -12 -9.5t-4 -24.5q-1 -79 18.5 -150t42.5 -140q22 -66 40 -131.5t18 -136.5q0 -24 -2.5 -48t-12 -43.5t-28.5 -32t-52 -12.5q-58 0 -81 38q21 -8 46 -8q33 0 52 12.5t28.5 32t12 43.5t2.5 48q0 72 -18.5 139
t-41 134.5t-41 137.5t-18.5 147q0 21 6.5 28t19.5 7zM204 668q0 51 -16 80q28 -11 39.5 -39t11.5 -71v-136h-68v30h33v136zM169 -213h-59l-3 30h27l9 84h39zM107 56q-14 0 -19 12t-5 40v97h35v-146q1 0 3 2q-5 -5 -14 -5zM13 61q5 -39 23 -57q-19 19 -23 57zM181 758
q-8 10 -21 16q13 -6 21 -16zM147 -69l-4 -30zM145 780q-5 2 -10.5 3t-10.5 1q5 0 10.5 -1t10.5 -3zM49 -7q6 -5 13 -6q-7 1 -13 6zM12 64q0 4 -0.5 7.5t-0.5 7.5q0 -4 0.5 -7.5t0.5 -7.5zM127 71q-2 -3 -3 -5.5t-3 -4.5q2 2 3 4.5t3 5.5zM47 -6l-11 9zM155 777l5 -3z
M115 785q2 0 4 -0.5t4 -0.5q-2 0 -4 0.5t-4 0.5zM131 96q0 -3 -0.5 -6t-0.5 -6q0 3 0.5 6t0.5 6zM129 79q0 -2 -0.5 -2.5t-0.5 -2.5q0 2 0.5 3t0.5 2zM150 779q-1 0 -2 0.5t-3 0.5q2 0 3 -0.5t2 -0.5zM10 88q0 -2 0.5 -4.5t0.5 -4.5q0 2 -0.5 4.5t-0.5 4.5zM187 749
q-2 4 -4 6q2 -2 4 -6zM12 64q0 -1 0.5 -1.5t0.5 -1.5q0 1 -0.5 1.5t-0.5 1.5zM127 71q0 2 1 3q-1 -1 -1 -3zM150 779q4 -2 5 -2q-1 0 -5 2zM47 -6q1 0 2 -1zM130 84q0 -2 -0.5 -2.5t-0.5 -1.5q0 1 0.5 1.5t0.5 2.5z" />
    <glyph glyph-name="scommaaccent" unicode="&#x219;" horiz-adv-x="257" 
d="M146 -47q-50 0 -75 38q18 -8 40 -8q28 0 46.5 11.5t29.5 29t15.5 39t4.5 42.5q0 59 -18 103t-39 83t-39 79.5t-18 91.5q0 12 4 27.5t18 15.5q21 0 22 -57q-1 5 -1 9.5v9.5q-5 -7 -6.5 -17t-1.5 -18q0 -48 17 -88.5t37 -77.5q21 -39 40.5 -85.5t19.5 -105.5
q0 -21 -4.5 -42.5t-15.5 -39t-29.5 -29t-46.5 -11.5zM211 445q0 29 -5 53t-16 42q30 -13 43 -46.5t13 -78.5v-52h-74v30h39v52zM174 -213h-59l-3 30h27l9 84h39zM112 55q-13 0 -18 19.5t-5 44.5v18h35v-48v-13t1 -12q-5 -9 -13 -9zM86 247q14 -25 26 -51t17 -57
q-5 31 -17 56.5t-26 51.5zM190 540l-1 1q-16 24 -41 32q27 -9 42 -33zM64 287l14 -25l6 -11l-10 18zM34 23q12 -20 31 -30q-19 10 -31 30zM152 -69l-4 -30zM28 372q4 -13 8 -24.5t9 -22.5q-5 11 -9 22.5t-8 24.5zM132 110l-3 29zM60 295l-15 30zM17 445q0 -17 3 -32
q-3 15 -3 32zM24 43q2 -5 4.5 -10t5.5 -10q-3 5 -5.5 10t-4.5 10zM24 387l4 -15zM20 413q1 -6 1.5 -12t2.5 -12q-2 6 -2.5 12t-1.5 12zM136 576q-8 2 -12 2q4 0 12 -2zM130 81q0 -3 -2 -9q2 6 2 9zM14 90v13v-13zM145 574q-4 2 -8 2q4 0 8 -2zM14 90q2 -14 4 -25.5t6 -21.5
q-4 10 -6 21.5t-4 25.5zM84 251q2 -2 2 -4zM64 287l-4 8zM145 574q2 0 3 -1q-1 1 -3 1zM131 85q0 -1 -0.5 -1.5t-0.5 -2.5q0 2 0.5 2.5t0.5 1.5zM128 72q0 -2 -2 -6q2 4 2 6zM131 85v2v-2zM68 -8q1 -1 3 -1q-2 0 -3 1z" />
    <glyph glyph-name="circumflex" unicode="&#x2c6;" horiz-adv-x="220" 
d="M122 860l-32 -47h-54l16 30h3l40 58l39 -58zM169 813l-20 30h40l-45 87h20l60 -117h-55zM144 930l-15 30z" />
    <glyph glyph-name="caron" unicode="&#x2c7;" horiz-adv-x="220" 
d="M129 843l44 87h51l-60 -117h-66l-16 30h47zM75 930h15l12 -18l-7 -10zM118 936l-16 -24zM118 936q4 6 7.5 12t8.5 12zM75 930l-20 30zM173 930l16 30z" />
    <glyph glyph-name="breve" unicode="&#x2d8;" horiz-adv-x="213" 
d="M108 856q-20 0 -38 6.5t-32 20.5q11 -11 24 -17q14 -20 36 -30t45 -10q17 0 34 5.5t30.5 17t22 28t8.5 39.5v13h-37q-6 -37 -34 -55t-59 -18zM108 922q10 0 15 6l-1 -1v2h-29q5 -7 15 -7zM129 959q0 -6 -0.5 -13.5t-2.5 -12.5q2 6 2.5 13t0.5 13zM16 921q2 -7 4.5 -13
t5.5 -11q-3 5 -5.5 11t-4.5 13zM26 897l12 -14zM13 941q0 -3 0.5 -6.5t0.5 -6.5q0 3 -0.5 6.5t-0.5 6.5zM93 929q-3 2 -4 7q1 -5 4 -7zM202 933q0 -2 -0.5 -2.5t-0.5 -1.5q0 1 0.5 1.5t0.5 2.5zM14 928l2 -7zM125 931q-2 -2 -2 -3q0 1 2 3zM89 936q0 2 -1 3q1 -1 1 -3z
M202 933q0 2 0.5 4t0.5 4q0 -2 -0.5 -4t-0.5 -4zM87 943v7v-7zM88 939q0 2 -0.5 2t-0.5 2q0 -1 0.5 -2t0.5 -2z" />
    <glyph glyph-name="dotaccent" unicode="&#x2d9;" horiz-adv-x="115" 
d="M109 732q0 8 -3 16q17 -4 27.5 -16.5t10.5 -29.5q0 -20 -14.5 -33.5t-34.5 -13.5q-34 0 -45 31q3 -1 10 -1q20 0 34.5 13.5t14.5 33.5zM18 710q9 -19 32 -24q-22 3 -32 24zM101 757q-8 12 -19 18q11 -6 19 -18zM72 778l10 -3zM106 748q-1 3 -5 9q4 -6 5 -9zM13 726
q0 -4 2 -8q-2 4 -2 8zM72 778q-1 0 -1.5 0.5t-1.5 0.5q1 0 1.5 -0.5t1.5 -0.5zM18 710l-2 3zM35 773l6 3zM67 779h2h-2zM64 780l2 -1q-1 0 -2 1z" />
    <glyph glyph-name="ring" unicode="&#x2da;" horiz-adv-x="164" 
d="M154 889q0 18 -10 36q20 -8 32.5 -26t12.5 -40q0 -29 -21 -49.5t-50 -20.5q-20 0 -36 9.5t-25 25.5q13 -5 26 -5q29 0 50 20.5t21 49.5zM63 890q0 8 5.5 13.5t13.5 5.5t13.5 -5.5t5.5 -13.5t-5.5 -13.5t-13.5 -5.5t-13.5 5.5t-5.5 13.5zM22 853q9 -15 24 -24
q-15 9 -24 24zM139 931q-4 5 -8.5 10t-10.5 8q6 -3 10.5 -8t8.5 -10zM144 925q-1 2 -5 6zM105 956q-4 2 -8 2.5t-8 1.5q4 -1 8 -1.5t8 -2.5zM15 869l-2 11zM120 949q-3 2 -7 4q4 -2 7 -4zM19 859l-4 10zM46 829l7 -4q-2 1 -3.5 1.5t-3.5 2.5zM13 880v4v-4zM113 953
q-1 0 -1.5 0.5t-1.5 0.5q1 0 1.5 -0.5t1.5 -0.5zM21 854q0 1 -2 5zM53 953q-5 -2 -7 -4q2 2 7 4zM105 956q3 0 5 -2q-2 2 -5 2zM22 853l-1 1q1 0 1 -1z" />
    <glyph glyph-name="ogonek" unicode="&#x2db;" horiz-adv-x="198" 
d="M190 -154l-24 -8q-8 -3 -18.5 -5.5t-20.5 -2.5q-11 0 -23 4t-21 12q-9 9 -14 18q9 -4 23 -4q20 0 39 8l24 8l-5 16l17 7l6 2zM75 -61q0 5 6 12t14 13.5t16.5 12.5t14.5 9h8h28l3 -29q-6 -2 -21 -12t-26 -21q4 1 7 2t7 3l6 2q-11 -5 -22.5 -9t-22.5 -4q-8 0 -13 4.5
t-5 16.5zM48 -123q8 -8 20 -13q-6 2 -10.5 5t-9.5 7v1zM126 -14q2 0 3 1q-1 -1 -3 -1zM24 -77q0 -3 1 -5q-1 2 -1 5zM130 -13h-1h1zM68 -136h1h-1z" />
    <glyph glyph-name="tilde" unicode="&#x2dc;" horiz-adv-x="286" 
d="M229 808q-16 0 -31.5 8.5t-27.5 16.5q-9 7 -17 11.5t-15 4.5q-10 0 -23.5 -14.5t-21.5 -24.5l-30 36q8 10 20 21.5t20 11.5t18 -6.5t21.5 -14t24.5 -14t27 -6.5q8 0 18 1.5t21 8t24 18.5t27 33l-16 16l2 3l49 -49q-14 -21 -27 -33t-24 -18.5t-21 -8t-18 -1.5zM156 936
q-9 6 -18.5 12t-19.5 9q10 -3 19 -8.5t18 -11.5q0 -1 1 -1zM186 919q-11 3 -23 12q12 -9 23 -12zM58 840q0 1 3 4zM212 926l5 4zM118 957q-2 1 -4 1q3 0 4 -1zM114 958q-2 1 -5 1q3 0 5 -1zM156 936l4 -3zM105 960q1 0 1.5 -0.5t1.5 -0.5q-1 0 -1.5 0.5t-1.5 0.5zM189 918h3
h-3zM65 951q-4 -2 -6 -4q2 2 6 4zM189 918q-2 0 -3 1q1 -1 3 -1z" />
    <glyph glyph-name="hungarumlaut" unicode="&#x2dd;" horiz-adv-x="267" 
d="M213 577h-62l7 30h20l47 143h45zM124 750h25l-33 -143h4l-10 -30h-61l7 30h19z" />
    <glyph glyph-name="pi" unicode="&#x3c0;" horiz-adv-x="443" 
d="M472 467h-77v-350h-75v30h40v350h77v46h35v-76zM285 467h-77v-350h-75v30h40v350h112v-30zM48 467v30h50v-30h-50z" />
    <glyph glyph-name="Wgrave" unicode="&#x1e80;" horiz-adv-x="389" 
d="M199 928h13l70 -94h-69l-24 30h58zM199 928l-22 30zM292 -13l45 763h37l-47 -793h-75l-3 30h43zM179 368l14 -140l-28 -271h-75l-2 30h42l39 380l5 93zM207 750h33l11 -171l-11 -200l-4 -97l-5 92zM126 595l-19 -220l-4 -93l-4 95l-13 373h34l5 -156v4z" />
    <glyph glyph-name="wgrave" unicode="&#x1e81;" horiz-adv-x="332" 
d="M289 544h37l-40 -587h-68l-4 30h37l40 587zM154 251l15 -137l-18 -157h-67l-2 30h34l30 265l4 70zM76 544h34l5 -105l12 135l-29 -329l-5 -69l-2 68zM175 544h33l10 -106l-9 -195l-2 -66l-4 66zM174 750h13l70 -94h-69l-24 30h58zM76 544l-1 30zM174 750l-22 30zM175 544
l-2 30zM224 574l-6 -138v2zM169 114v1l14 -128z" />
    <glyph glyph-name="Wacute" unicode="&#x1e82;" horiz-adv-x="389" 
d="M210 834h-69l22 30h12l49 64h59zM248 958l-24 -30zM292 -13l45 763h37l-47 -793h-75l-3 30h43zM179 368l14 -140l-28 -271h-75l-2 30h42l39 380l5 93zM207 750h33l11 -171l-11 -200l-4 -97l-5 92zM126 595l-19 -220l-4 -93l-4 95l-13 373h34l5 -156v4z" />
    <glyph glyph-name="wacute" unicode="&#x1e83;" horiz-adv-x="332" 
d="M251 -13l38 557h37l-40 -587h-68l-4 30h37zM154 251l15 -137l-18 -157h-67l-2 30h34l30 265l4 70zM76 544h34l5 -105l12 135l-29 -329l-5 -69l-2 68zM175 544h33l10 -106l-9 -195l-2 -66l-4 66zM181 655h-69l22 30h12l49 64h59zM76 544l-1 30zM219 779l-24 -30zM175 544
l-2 30zM224 574l-6 -138v2zM169 114v1l14 -128z" />
    <glyph glyph-name="Wdieresis" unicode="&#x1e84;" horiz-adv-x="389" 
d="M310 838h-76v30h41v61h35v-91zM185 838h-75v30h40v61h35v-91zM292 -13l45 763h37l-47 -793h-75l-3 30h43zM179 368l14 -140l-28 -271h-75l-2 30h42l39 380l5 93zM207 750h33l11 -171l-11 -200l-4 -97l-5 92zM126 595l-19 -220l-4 -93l-4 95l-13 373h34l5 -156v4z" />
    <glyph glyph-name="wdieresis" unicode="&#x1e85;" horiz-adv-x="332" 
d="M251 -13l38 557h37l-40 -587h-68l-4 30h37zM154 251l15 -137l-18 -157h-67l-2 30h34l30 265l4 70zM76 544h34l5 -105l12 135l-29 -329l-5 -69l-2 68zM175 544h33l10 -106l-9 -195l-2 -66l-4 66zM284 659h-76v30h41v61h35v-91zM159 659h-75v30h40v61h35v-91zM76 544l-1 30
zM175 544l-2 30zM224 574l-6 -138v2zM169 114v1l14 -128z" />
    <glyph glyph-name="Ygrave" unicode="&#x1ef2;" horiz-adv-x="270" 
d="M148 928h13l70 -94h-69l-24 30h58zM148 928l-22 30zM270 750l-76 -438v-355h-71v30h36v355l71 408h40zM88 750h31l19 -135l-15 -111z" />
    <glyph glyph-name="ygrave" unicode="&#x1ef3;" horiz-adv-x="256" 
d="M40 -182q31 1 51 16.5t32 41t18 58t10 65.5l60 545h39l-64 -575q-4 -34 -10 -66.5t-18 -58t-32.5 -41t-53.5 -15.5h-32v30zM91 544h33l6 -91l9 121l-21 -296l-4 -80l-4 80zM138 750h13l70 -94h-69l-24 30h58zM75 -6q0 -9 -2 -19.5t-5 -21t-8 -19.5t-11 -14q12 10 18 33
t8 41zM138 750l-22 30zM215 574l-4 -30zM49 -80q0 -1 -5 -3q5 2 5 3zM44 -83q-1 -1 -3 -1q2 0 3 1z" />
    <glyph glyph-name="endash" unicode="&#x2013;" horiz-adv-x="283" 
d="M259 310h-195v30h160v56h35v-86z" />
    <glyph glyph-name="emdash" unicode="&#x2014;" horiz-adv-x="576" 
d="M539 310h-462v30h427v56h35v-86z" />
    <glyph glyph-name="quoteleft" unicode="&#x2018;" horiz-adv-x="164" 
d="M82 646l43 104h48l-56 -134h-65l13 30h17zM138 780l-13 -30z" />
    <glyph glyph-name="quoteright" unicode="&#x2019;" horiz-adv-x="161" 
d="M172 616h-65l-13 30h43l-47 104h22zM90 750l-13 30z" />
    <glyph glyph-name="quotesinglbase" unicode="&#x201a;" horiz-adv-x="133" 
d="M90 -89l6 104h37l-8 -134h-52l-2 30h19z" />
    <glyph glyph-name="quotedblleft" unicode="&#x201c;" horiz-adv-x="253" 
d="M178 646l43 104h48l-56 -134h-65l13 30h17zM113 646h16l-12 -30h-65l13 30h17l43 104h34l14 30zM138 780l-13 -30zM234 780l-13 -30z" />
    <glyph glyph-name="quotedblright" unicode="&#x201d;" horiz-adv-x="246" 
d="M268 616h-65l-13 30h43l-47 104h22zM172 616h-65l-13 30h43l-47 104h22zM90 750l-13 30zM186 750l-13 30z" />
    <glyph glyph-name="quotedblbase" unicode="&#x201e;" horiz-adv-x="241" 
d="M214 45l-2 -30h37l-10 -134h-67v30h32zM103 -89v104h34v-104h1v-30h-67l-3 30h35z" />
    <glyph glyph-name="dagger" unicode="&#x2020;" horiz-adv-x="236" 
d="M197 340v56h35v-86h-55v-353h-77v30h42v353h55zM177 426h-35v324h35v-324zM65 310h-23v30h23v-30z" />
    <glyph glyph-name="daggerdbl" unicode="&#x2021;" horiz-adv-x="224" 
d="M195 253v57h35v-87h-56v-266h-76v30h41v266h56zM174 513h-35v237h35v-237zM174 396v-56h-35v86h56v57h35v-87h-56zM63 223h-23v30h23v-30zM63 396h-23v30h23v-30z" />
    <glyph glyph-name="bullet" unicode="&#x2022;" horiz-adv-x="189" 
d="M131 374q0 7 -2 13.5t-4 12.5q18 -5 29.5 -20.5t11.5 -35.5q0 -25 -17 -42t-42 -17q-18 0 -32 9t-21 23q-4 1 -7.5 2.5t-6.5 3.5q14 -8 32 -8q25 0 42 17t17 42zM125 400q-15 26 -41 32q28 -6 41 -32zM25 337q3 -5 7 -8l8 -6q-10 7 -15 14zM25 337l-5 7zM20 344l-4 9z
M67 433q-2 0 -3.5 -0.5t-3.5 -0.5q2 0 3.5 0.5t3.5 0.5zM84 432q-2 0 -3.5 0.5t-3.5 0.5q2 0 3.5 -0.5t3.5 -0.5zM14 386q-1 -3 -1 -7q0 4 1 7zM14 362q0 -2 0.5 -3t0.5 -3q0 2 -0.5 3t-0.5 3zM13 370q0 -6 1 -8q-1 2 -1 8zM14 388l2 7zM57 431q-2 0 -6 -2q4 2 6 2zM15 356
q1 -1 1 -3q0 2 -1 3z" />
    <glyph glyph-name="onedotenleader" unicode="&#x2024;" horiz-adv-x="142" 
d="M123 -43h-77v30h42v61h35v-91z" />
    <glyph glyph-name="ellipsis" unicode="&#x2026;" horiz-adv-x="386" 
d="M355 -43h-77v30h42v61h35v-91zM111 -43h-77v30h42v61h35v-91zM233 -43h-77v30h42v61h35v-91z" />
    <glyph glyph-name="perthousand" unicode="&#x2030;" horiz-adv-x="389" 
d="M95 -13l202 763h43l-210 -793h-81l8 30h38z" />
    <glyph glyph-name="guilsinglleft" unicode="&#x2039;" horiz-adv-x="263" 
d="M163 81l-15 30h67l-114 230l102 207h50l-117 -237l114 -230h-87z" />
    <glyph glyph-name="guilsinglright" unicode="&#x203a;" horiz-adv-x="288" 
d="M46 81l15 30h36l114 230l-102 207h21l116 -237l-114 -230h-86zM109 548l-14 30z" />
    <glyph glyph-name="exclamdbl" unicode="&#x203c;" horiz-adv-x="269" 
d="M177 108l-1 30h33l5 555v57h35v-87l-5 -555h-67zM58 108l-1 30h33l5 555v57h35v-87l-5 -555h-67zM130 -43h-76v30h41v61h35v-91zM249 -43h-76v30h41v61h35v-91z" />
    <glyph glyph-name="fraction" unicode="&#x2044;" horiz-adv-x="389" 
d="M95 -13l202 763h43l-210 -793h-81l8 30h38z" />
    <glyph glyph-name="Euro" unicode="&#x20ac;" horiz-adv-x="288" 
d="M224 259v57h35v-87h-112v-149q0 2 1 4q-2 -11 -8 -16.5t-12 -3.5t-11 12.5t-5 31.5v151h112zM130 -13q34 0 53 13t28.5 35t11.5 51t2 62h35v-16q0 -35 -1.5 -66.5t-10 -55.5t-28 -38.5t-55.5 -14.5q-51 0 -74 37q15 -7 39 -7zM224 425v56h35v-86h-112v-49h-35v79h112z
M184 559v30h41v70q0 54 -19 83q27 -11 40.5 -40t13.5 -73v-70h-76zM149 647q-2 -5 -2 -18v-118h-35v148q0 18 6 28.5t12.5 10.5t12.5 -10t6 -32v-9zM36 229h-19v30h19v-30zM36 395h-19v30h19v-30zM148 158q0 -11 0.5 -24t0.5 -24q-1 10 -1 21v22v5zM39 66q8 -38 30 -59
q-22 21 -30 59zM69 7q10 -8 19 -12q-9 4 -19 12zM36 92q1 -6 1 -12.5t2 -11.5q-2 5 -2 11.5t-1 12.5zM175 770l-10 4t-11 3q6 -1 11 -3zM191 760l8 -8zM201 749l5 -7zM146 779q2 -1 6 -1q-4 0 -6 1zM191 760q-2 1 -6 5zM134 780q2 0 3.5 -0.5t3.5 -0.5q-2 0 -3.5 0.5
t-3.5 0.5zM36 92v7v-7zM177 769l8 -4zM149 92q0 -2 -0.5 -4t-0.5 -4q0 2 0.5 4t0.5 4zM142 779h4h-4zM199 752q0 -1 2 -3q-2 2 -2 3zM154 777q-1 0 -1 0.5t-1 0.5q1 0 1 -0.5t1 -0.5z" />
    <glyph glyph-name="trademark" unicode="&#x2122;" horiz-adv-x="347" 
d="M114 750h24v-48h-21v-156h-37v30h2v156h32v18zM285 546v30h2v174h35v-204h-37zM200 576h10v-30h-37v30h2v119l6 -30zM267 576l-6 -30h-26l-8 35l14 64l3 -9l4 -13l2 8v-55h17zM184 750h26l15 -53l25 83l-34 -115l-3 -12l-3 9l-1 4zM250 697v-4l-5 -30zM227 582v-1l-1 -5z
" />
    <glyph glyph-name="minus" unicode="&#x2212;" horiz-adv-x="318" 
d="M269 310h-195v30h160v56h35v-86z" />
    <glyph glyph-name="infinity" unicode="&#x221e;" horiz-adv-x="844" 
d="M803 359q0 45 -15.5 81.5t-41.5 62.5q1 -3 4 -4q38 -26 63 -69.5t25 -100.5q0 -48 -17 -86t-45 -64.5t-63.5 -41t-71.5 -14.5q-47 0 -81.5 17t-62.5 46q23 -16 49.5 -24.5t59.5 -8.5q36 0 71.5 14.5t63.5 41t45 64.5t17 86zM415 277q7 -11 14 -21t15 -20
q-32 -49 -76.5 -81t-111.5 -32q-39 0 -77 16.5t-67 47.5q-29 20 -51.5 50t-32.5 70q9 -36 28.5 -64.5t45.5 -48.5t57 -30.5t62 -10.5q36 0 64.5 9.5t52 26t42 39t35.5 49.5zM221 477q38 0 72 -28t61 -67q-8 11 -17 22t-18 21q-31 22 -63 22q-21 0 -43 -8t-39 -23t-28 -37
t-11 -50q0 -44 25 -74q-26 14 -43 40.5t-17 63.5q0 28 11 50t28 37t39 23t43 8zM606 477q30 0 59.5 -15t46.5 -44q-2 4 -8 12q-29 17 -63 17q-23 0 -44.5 -10.5t-40.5 -27.5t-35 -38t-28 -42q9 -17 21 -34t28 -33q-26 18 -48 44.5t-36 52.5q12 21 28 42.5t35 38t40.5 27
t44.5 10.5zM412 430q-12 18 -24.5 35t-26.5 32q16 -11 30 -26t27 -31zM364 350q-11 -19 -25 -37.5t-31 -33.5t-36 -25.5t-38 -13.5q19 3 38 13.5t36 26t31 34t25 36.5zM361 497l-4 3q-17 17 -36 30.5t-41 21.5q45 -16 81 -55zM566 559q-28 -6 -51 -19t-42 -31q19 18 42 31
t51 19zM207 239q-25 3 -47 16q23 -13 47 -16zM740 508q-19 19 -43 31q24 -12 43 -31zM594 240q-22 3 -44 17q22 -14 44 -17zM649 558q-9 2 -18 3l-18 2l18 -2t18 -3zM257 559q-8 2 -15 2.5t-15 1.5q8 -1 15 -1.5t15 -2.5zM418 440l23 34zM444 236v1q5 -7 10 -13t11 -11
q-11 10 -21 23zM480 199q4 -4 8 -7t9 -6q-5 3 -9 6t-8 7zM566 559l18 3zM365 365l-11 17zM26 322l-3 23zM462 498l-11 -12zM717 409l-5 9zM369 359q-2 2 -4 6zM697 539q-6 4 -9 5q3 -1 9 -5zM727 375l-2 13zM722 395l-3 10zM674 550l-11 4zM649 558l14 -4zM681 547
q-1 0 -5 2q4 -2 5 -2zM727 375q0 -2 0.5 -5t0.5 -6q0 3 -0.5 6t-0.5 5zM23 345v8v-8zM688 544l-7 3zM209 239h7h-7zM602 239q-5 0 -8 1q3 -1 8 -1zM480 199l-9 7zM550 257l-4 2t-4 3h1zM441 474l10 12zM723 391q0 3 -1 4q1 -1 1 -4zM260 558q3 0 9 -2q-6 2 -9 2zM28 310v-3
v3zM260 558q-1 0 -1.5 0.5t-1.5 0.5q1 0 1.5 -0.5t1.5 -0.5zM674 550q1 -1 2 -1q-1 0 -2 1zM584 562h8h-8zM26 322q0 -2 0.5 -4.5t0.5 -4.5q0 2 -0.5 4.5t-0.5 4.5zM723 391q1 -1 1 -2zM719 405q-2 2 -2 4q0 -2 2 -4zM724 389l1 -1zM599 563q-2 0 -3.5 -0.5t-3.5 -0.5
q2 0 3.5 0.5t3.5 0.5z" />
    <glyph glyph-name="notequal" unicode="&#x2260;" horiz-adv-x="336" 
d="M259 262v57h35v-87h-104l-24 -72h-81l10 30h36l24 72h104zM239 515l10 29h45l-20 -59h20v-87h-49l-16 -49h-45l26 79h49v87h-20zM103 349l16 49h-35v30h46z" />
    <glyph glyph-name="lessequal" unicode="&#x2264;" horiz-adv-x="220" 
d="M248 639l-99 -100l95 -96v-111l-35 37v104l-95 96l99 100v43l35 38v-111zM247 201h-195v30h160v56h35v-86z" />
    <glyph glyph-name="greaterequal" unicode="&#x2265;" horiz-adv-x="225" 
d="M47 742v8l198 -211l-194 -207v67l-35 -37l194 207zM244 201h-195v30h160v56h35v-86zM47 742l-35 38z" />
    <glyph glyph-name="commaaccent" unicode="&#xf6c3;" horiz-adv-x="108" 
d="M119 -213h-59l-3 30h27l9 84h39zM97 -69l-4 -30z" />
    <glyph glyph-name="Acute" unicode="&#xf6c9;" horiz-adv-x="176" 
d="M120 834h-69l22 30h12l49 64h59zM158 958l-24 -30z" />
    <glyph glyph-name="Caron" unicode="&#xf6ca;" horiz-adv-x="220" 
d="M129 843l44 87h51l-60 -117h-66l-16 30h47zM75 930h15l12 -18l-7 -10zM118 936l-16 -24zM118 936q4 6 7.5 12t8.5 12zM75 930l-20 30zM173 930l16 30z" />
    <glyph glyph-name="Dieresis" unicode="&#xf6cb;" horiz-adv-x="224" 
d="M250 838h-76v30h41v61h35v-91zM125 838h-75v30h40v61h35v-91z" />
    <glyph glyph-name="Grave" unicode="&#xf6ce;" horiz-adv-x="176" 
d="M110 928h13l70 -94h-69l-24 30h58zM110 928l-22 30z" />
    <glyph glyph-name="Macron" unicode="&#xf6d0;" horiz-adv-x="235" 
d="M253 852h-195v30h160v46h35v-76z" />
    <glyph glyph-name="cyrbreve" unicode="&#xf6d4;" horiz-adv-x="0" 
 />
    <glyph glyph-name="dieresisacute" unicode="&#xf6d7;" horiz-adv-x="0" 
 />
    <glyph glyph-name="dieresisgrave" unicode="&#xf6d8;" horiz-adv-x="0" 
 />
    <glyph glyph-name="Brevesmall" unicode="&#xf6f4;" horiz-adv-x="213" 
d="M108 856q-20 0 -38 6.5t-32 20.5q11 -11 24 -17q14 -20 36 -30t45 -10q17 0 34 5.5t30.5 17t22 28t8.5 39.5v13h-37q-6 -37 -34 -55t-59 -18zM108 922q10 0 15 6l-1 -1v2h-29q5 -7 15 -7zM129 959q0 -6 -0.5 -13.5t-2.5 -12.5q2 6 2.5 13t0.5 13zM16 921q2 -7 4.5 -13
t5.5 -11q-3 5 -5.5 11t-4.5 13zM26 897l12 -14zM13 941q0 -3 0.5 -6.5t0.5 -6.5q0 3 -0.5 6.5t-0.5 6.5zM93 929q-3 2 -4 7q1 -5 4 -7zM202 933q0 -2 -0.5 -2.5t-0.5 -1.5q0 1 0.5 1.5t0.5 2.5zM14 928l2 -7zM125 931q-2 -2 -2 -3q0 1 2 3zM89 936q0 2 -1 3q1 -1 1 -3z
M202 933q0 2 0.5 4t0.5 4q0 -2 -0.5 -4t-0.5 -4zM87 943v7v-7zM88 939q0 2 -0.5 2t-0.5 2q0 -1 0.5 -2t0.5 -2z" />
    <glyph glyph-name="Caronsmall" unicode="&#xf6f5;" horiz-adv-x="220" 
d="M129 843l44 87h51l-60 -117h-66l-16 30h47zM75 930h15l12 -18l-7 -10zM118 936l-16 -24zM118 936q4 6 7.5 12t8.5 12zM75 930l-20 30zM173 930l16 30z" />
    <glyph glyph-name="Acutesmall" unicode="&#xf7b4;" horiz-adv-x="176" 
d="M120 834h-69l22 30h12l49 64h59zM158 958l-24 -30z" />
    <glyph glyph-name="ff" unicode="&#xfb00;" horiz-adv-x="387" 
d="M330 488v56h35v-86h-48v-501h-76v30h41v501h48zM206 458h-45v-501h-76v30h41v501h80v-30zM317 574h-35v85q0 23 7 29.5t19 6.5h29v55h35v-85h-29q-12 0 -19 -6.5t-7 -29.5v-55zM181 695v55h35v-23q0 2 1 3q-6 -16 -8.5 -35t-2.5 -40v10h-19q-12 0 -19 -6.5t-7 -29.5v-55
h-35v85q0 23 7 29.5t19 6.5h29zM50 458h-6v30h6v-30zM232 755q-10 -10 -15 -25q5 15 15 25zM268 776q-4 -1 -7 -2t-7 -3q4 2 7 3t7 2zM254 771q-3 -2 -6.5 -3.5t-6.5 -3.5q5 4 13 7zM293 780q-3 0 -5.5 -0.5t-4.5 -0.5q2 0 5 0.5t5 0.5zM273 777l10 2zM235 758l6 6zM268 776
q2 1 5 1q-3 0 -5 -1z" />
    <glyph glyph-name="fi" unicode="&#xfb01;" horiz-adv-x="358" 
d="M264 -13v557h35v-587h-75v30h40zM189 458h-28v-501h-76v30h41v501h63v-30zM126 659q0 23 7 29.5t19 6.5h29v55h35v-85h-29q-12 0 -19 -6.5t-7 -29.5v-55h-35v85zM50 458h-6v30h6v-30z" />
    <glyph glyph-name="fl" unicode="&#xfb02;" horiz-adv-x="355" 
d="M304 -43h-75v30h40v763h35v-793zM174 488v56h20v-86h-33v-501h-76v30h41v501h48zM194 665h-7q-12 0 -19 -6.5t-7 -29.5v-55h-35v85q0 23 7 29.5t19 6.5h42v-30zM50 458h-6v30h6v-30z" />
    <glyph glyph-name="ffi" unicode="&#xfb03;" horiz-adv-x="482" 
d="M409 -13v557h35v-587h-75v30h40zM195 458h-34v-501h-76v30h41v501h69v-30zM334 458h-28v-501h-76v30h41v501h63v-30zM326 695v55h35v-85h-29q-12 0 -19 -6.5t-7 -29.5v-55h-35v85q0 23 7 29.5t19 6.5h29zM161 574h-35v85q0 23 7 29.5t19 6.5h29v55h35v-1q1 2 5 6
q-16 -17 -20.5 -43t-5.5 -57v10h-8q-12 0 -19 -6.5t-7 -29.5v-55zM50 458h-6v30h6v-30zM248 773q-7 -1 -13 -6q6 5 13 6zM224 758l6 6zM282 780q-3 0 -5.5 -0.5t-4.5 -0.5q2 0 4.5 0.5t5.5 0.5zM268 778q-5 0 -11 -2q6 2 11 2zM257 776q-4 0 -8 -2q4 2 8 2zM230 764l5 3z
M272 779q-2 0 -2.5 -0.5t-1.5 -0.5q1 0 1.5 0.5t2.5 0.5z" />
    <glyph glyph-name="ffl" unicode="&#xfb04;" horiz-adv-x="546" 
d="M482 -43h-75v30h40v763h35v-793zM329 488v56h35v-86h-48v-501h-76v30h41v501h48zM205 458h-44v-501h-76v30h41v501h79v-30zM316 574h-35v85q0 23 7 29.5t19 6.5h29v55h35v-85h-29q-12 0 -19 -6.5t-7 -29.5v-55zM181 695v55h35v-20q5 15 15 25q-16 -17 -20.5 -43t-5.5 -57
v10h-18q-12 0 -19 -6.5t-7 -29.5v-55h-35v85q0 23 7 29.5t19 6.5h29zM50 458h-6v30h6v-30zM257 773q-12 -4 -23 -15q9 10 23 15zM269 777l14 2zM292 780q-2 0 -4.5 -0.5t-4.5 -0.5q2 0 4.5 0.5t4.5 0.5zM267 776q-2 0 -3 -0.5t-3 -0.5q2 0 3 0.5t3 0.5zM257 773l4 2z" />
    <glyph glyph-name="undercommaaccent" horiz-adv-x="0" 
 />
    <glyph glyph-name="Breve" horiz-adv-x="213" 
d="M108 856q-20 0 -38 6.5t-32 20.5q11 -11 24 -17q14 -20 36 -30t45 -10q17 0 34 5.5t30.5 17t22 28t8.5 39.5v13h-37q-6 -37 -34 -55t-59 -18zM108 922q10 0 15 6l-1 -1v2h-29q5 -7 15 -7zM129 959q0 -6 -0.5 -13.5t-2.5 -12.5q2 6 2.5 13t0.5 13zM16 921q2 -7 4.5 -13
t5.5 -11q-3 5 -5.5 11t-4.5 13zM26 897l12 -14zM13 941q0 -3 0.5 -6.5t0.5 -6.5q0 3 -0.5 6.5t-0.5 6.5zM93 929q-3 2 -4 7q1 -5 4 -7zM202 933q0 -2 -0.5 -2.5t-0.5 -1.5q0 1 0.5 1.5t0.5 2.5zM14 928l2 -7zM125 931q-2 -2 -2 -3q0 1 2 3zM89 936q0 2 -1 3q1 -1 1 -3z
M202 933q0 2 0.5 4t0.5 4q0 -2 -0.5 -4t-0.5 -4zM87 943v7v-7zM88 939q0 2 -0.5 2t-0.5 2q0 -1 0.5 -2t0.5 -2z" />
    <glyph glyph-name="Ring" horiz-adv-x="164" 
d="M154 889q0 18 -10 36q20 -8 32.5 -26t12.5 -40q0 -29 -21 -49.5t-50 -20.5q-20 0 -36 9.5t-25 25.5q13 -5 26 -5q29 0 50 20.5t21 49.5zM63 890q0 8 5.5 13.5t13.5 5.5t13.5 -5.5t5.5 -13.5t-5.5 -13.5t-13.5 -5.5t-13.5 5.5t-5.5 13.5zM22 853q9 -15 24 -24
q-15 9 -24 24zM139 931q-4 5 -8.5 10t-10.5 8q6 -3 10.5 -8t8.5 -10zM144 925q-1 2 -5 6zM105 956q-4 2 -8 2.5t-8 1.5q4 -1 8 -1.5t8 -2.5zM15 869l-2 11zM120 949q-3 2 -7 4q4 -2 7 -4zM19 859l-4 10zM46 829l7 -4q-2 1 -3.5 1.5t-3.5 2.5zM13 880v4v-4zM113 953
q-1 0 -1.5 0.5t-1.5 0.5q1 0 1.5 -0.5t1.5 -0.5zM21 854q0 1 -2 5zM53 953q-5 -2 -7 -4q2 2 7 4zM105 956q3 0 5 -2q-2 2 -5 2zM22 853l-1 1q1 0 1 -1z" />
    <glyph glyph-name="Tilde" horiz-adv-x="286" 
d="M229 808q-16 0 -31.5 8.5t-27.5 16.5q-9 7 -17 11.5t-15 4.5q-10 0 -23.5 -14.5t-21.5 -24.5l-30 36q8 10 20 21.5t20 11.5t18 -6.5t21.5 -14t24.5 -14t27 -6.5q8 0 18 1.5t21 8t24 18.5t27 33l-16 16l2 3l49 -49q-14 -21 -27 -33t-24 -18.5t-21 -8t-18 -1.5zM156 936
q-9 6 -18.5 12t-19.5 9q10 -3 19 -8.5t18 -11.5q0 -1 1 -1zM186 919q-11 3 -23 12q12 -9 23 -12zM58 840q0 1 3 4zM212 926l5 4zM118 957q-2 1 -4 1q3 0 4 -1zM114 958q-2 1 -5 1q3 0 5 -1zM156 936l4 -3zM105 960q1 0 1.5 -0.5t1.5 -0.5q-1 0 -1.5 0.5t-1.5 0.5zM189 918h3
h-3zM65 951q-4 -2 -6 -4q2 2 6 4zM189 918q-2 0 -3 1q1 -1 3 -1z" />
    <glyph glyph-name="Cedilla" horiz-adv-x="151" 
d="M139 -81q0 17 -8 30q17 -5 30 -21t13 -39q0 -17 -6.5 -29t-17 -19.5t-23 -11t-23.5 -3.5q-26 0 -54 10l3 21q4 0 7.5 -0.5t8.5 -0.5q14 0 29.5 5.5t26.5 18.5q2 2 2 3q5 8 8.5 16.5t3.5 19.5zM71 -72q-1 0 -2 1q10 -1 17.5 -4t7.5 -8q0 -8 -8 -10.5t-13 -2.5zM88 -16
q-2 8 -8.5 13t-14.5 7q8 -1 14.5 -6.5t8.5 -13.5zM124 -40q-8 10 -21 16q13 -6 21 -16zM68 -96q-7 1 -13 1.5t-13 2.5q7 -2 13.5 -2.5t12.5 -1.5zM20 -136q13 -4 28 -6q-7 1 -14 2.5t-14 3.5zM128 -115l-1 -2l-2 -3q-1 0 -1 -1zM22 -87l8 -2q2 0 3 -1zM92 -20l8 -3zM128 -46
l3 -5zM36 -91h4h-4zM69 -71h-9h9zM17 -135q2 0 3 -1q-1 1 -3 1zM48 -142q1 0 2 -0.5t2 -0.5q-1 0 -2 0.5t-2 0.5zM89 -20h3h-3zM33 -90q1 0 1.5 -0.5t1.5 -0.5q-1 0 -1.5 0.5t-1.5 0.5zM126 -43l2 -3zM125 -42q-1 1 -1 2q0 -1 1 -2z" />
    <glyph glyph-name="Circumflex" horiz-adv-x="220" 
d="M122 860l-32 -47h-54l16 30h3l40 58l39 -58zM169 813l-20 30h40l-45 87h20l60 -117h-55zM144 930l-15 30z" />
    <glyph glyph-name="commaaccent.cap" horiz-adv-x="108" 
d="M119 -213h-59l-3 30h27l9 84h39zM97 -69l-4 -30z" />
    </font>
</defs>
</svg>
