<?xml version="1.0" standalone="no"?>
<!DOCTYPE svg PUBLIC "-//W3C//DTD SVG 1.1//EN" "http://www.w3.org/Graphics/SVG/1.1/DTD/svg11.dtd" >
<svg xmlns="http://www.w3.org/2000/svg" xmlns:xlink="http://www.w3.org/1999/xlink" version="1.1">
<metadata></metadata>
<defs>
<font id="thanderregular" horiz-adv-x="240" >
<font-face units-per-em="1000" ascent="800" descent="-200" />
<missing-glyph horiz-adv-x="177" />
<glyph unicode="Th" horiz-adv-x="529" d="M571 121q-8 -8 -28 -31.5t-34 -37.5t-33 -31t-36.5 -24.5t-33.5 -4.5q-26 5 -33 22.5t0.5 39.5t24.5 46q13 18 32.5 39.5t28.5 33t6 15.5q-5 6 -33.5 -20.5t-53.5 -53.5v-1l-1 -1q-41 -69 -49 -80q-29 -40 -63 -40q-38 0 -8 58q12 23 32 50q15 20 33.5 48.5t43 66 t38.5 58.5l5 8h-4q-30 0 -55 7q2 -10 -4 -22q-10 -16 -37 -63t-42 -70.5t-41.5 -57t-53.5 -56.5q-24 -20 -58.5 -34t-70.5 -7.5t-47 45.5q-10 37 14 70t63 56q12 8 26.5 6t20.5 -15q3 -6 3 -12.5t-1 -10t-6.5 -8.5t-7.5 -6.5t-10 -7t-9 -5.5q-35 -22 -38 -45q-1 -5 3.5 -7.5 t12.5 -2.5q26 0 53 29.5t56.5 80t34.5 57.5q38 54 78 93q5 5 11 8q-64 20 -87 23q-17 1 -46.5 1t-54.5 -12.5t-20 -34.5q6 -18 27.5 -18t32.5 13q3 3 11.5 15.5t14 18.5t15.5 6t20 -14q28 -39 -21 -75.5t-90 -31.5q-59 7 -78 62.5t19 99.5q36 44 101.5 53.5t117.5 -9.5 q10 -3 63.5 -23.5t79.5 -21.5q34 -3 57 5q18 25 29.5 37t25.5 17t26 -8q9 -7 10.5 -16t-3 -19.5t-12 -22t-20 -26.5t-24.5 -30t-27 -34.5t-26 -38.5q-6 -10 -10 -15q50 43 75 43q23 0 34.5 -19.5t-8.5 -54.5q-9 -14 -33 -44.5t-34 -47t-6 -20.5q10 -9 92 85q12 14 23 3 q10 -13 -3 -28z" />
<glyph unicode="Fh" horiz-adv-x="573" d="M615 121q-8 -8 -28 -31.5t-34 -37.5t-33 -31t-36.5 -24.5t-33.5 -4.5q-26 5 -33 22.5t0.5 39.5t24.5 46q13 18 32.5 39.5t28.5 33t6 15.5q-5 6 -33.5 -20.5t-53.5 -53.5v-1l-1 -1q-41 -69 -49 -80q-29 -40 -63 -40q-38 0 -8 58q12 23 32 50q15 20 33.5 48.5t43 66 t38.5 58.5l7 10q-28 -3 -50 -2q-27 0 -54 6q1 -9 -6 -21q-18 -29 -54 -91h1q11 17 29 14q13 -1 20.5 -11t5.5 -22q-2 -17 -16.5 -29.5t-40.5 -12.5q-12 0 -32 6q-47 -75 -98 -112q-18 -13 -43.5 -22t-51.5 -10.5t-46.5 12.5t-24.5 45q-4 37 22 69.5t63 51.5q14 7 28 -1.5 t16 -24.5q0 -8 -3.5 -14t-7.5 -9t-12.5 -8t-11.5 -7q-33 -22 -38 -45q-1 -5 4 -7.5t13 -2.5q38 0 87 77q-19 8 -17 31q2 18 18.5 34.5t48.5 16.5h2l5 7q43 59 78 94q3 3 11 7q-58 20 -88 24q-17 1 -46 1t-54 -12.5t-20 -34.5q5 -18 27 -18t32 13q30 32 45 33q9 0 16 -7 q36 -34 -9 -70.5t-102 -36.5q-47 0 -69.5 28.5t-18.5 66t29 67.5q36 44 102 53.5t117 -9.5q11 -3 64.5 -23.5t79.5 -21.5q19 -1 56 2.5t51 12.5q24 32 39 40.5t36 -4.5q9 -7 10.5 -16t-3 -19.5t-12 -22t-20 -26.5t-24.5 -30t-27 -34.5t-26 -38.5q-6 -10 -10 -15q50 43 75 43 q23 0 34.5 -19.5t-8.5 -54.5q-9 -14 -33 -44.5t-34 -47t-6 -20.5q10 -9 92 85q12 14 23 3q10 -13 -3 -28z" />
<glyph unicode="Fi" horiz-adv-x="468" d="M566 367q31 -7 12 -45q-16 -34 -45 -47q-6 -3 -12 -3q-29 -8 -93 0q-18 2 -77 15q1 -9 -6 -21q-18 -29 -54 -91h1q11 17 29 14q13 -1 20.5 -11t5.5 -22q-2 -17 -16.5 -29.5t-40.5 -12.5q-12 0 -32 6q-47 -75 -98 -112q-18 -13 -43.5 -22t-51.5 -10.5t-46.5 12.5t-24.5 45 q-4 37 22 69.5t63 51.5q14 7 28 -1.5t16 -24.5q0 -8 -3.5 -14t-7.5 -9t-12.5 -8t-11.5 -7q-33 -22 -38 -45q-1 -5 4 -7.5t13 -2.5q38 0 87 77q-19 8 -17 31q2 18 18.5 34.5t48.5 16.5h2l5 7q43 59 78 94q3 3 11 7q-58 20 -88 24q-17 1 -46 1t-54 -12.5t-20 -34.5 q5 -18 27 -18t32 13q30 32 45 33q9 0 16 -7q36 -34 -9 -70.5t-102 -36.5q-47 0 -69.5 28.5t-18.5 66t29 67.5q36 44 102 53.5t117 -9.5q11 0 108.5 -37t131.5 -38q10 21 27.5 33.5t37.5 8.5zM490 146q12 14 23 3q10 -13 -3 -28q-9 -9 -28.5 -31.5t-34 -37.5t-33 -31.5 t-36 -24t-33.5 -4.5q-29 5 -32 34t21 63q16 22 48.5 74t41.5 61q31 29 51 22q17 -4 23.5 -19.5t-12.5 -41.5q-100 -112 -88 -124q10 -10 92 85z" />
<glyph unicode="Fl" horiz-adv-x="473" d="M596 406q9 -7 11.5 -17t-1.5 -23t-10.5 -25.5t-19.5 -30.5t-24.5 -32.5t-28.5 -37t-29 -38.5q-9 -12 -26 -34.5t-28 -36.5t-22 -30.5t-14.5 -26t0.5 -13.5q9 -9 91 85q13 14 24 3q10 -13 -3 -28q-9 -9 -28.5 -31.5t-34 -37.5t-33 -31.5t-36 -24t-33.5 -4.5 q-29 5 -31.5 33.5t20.5 63.5q16 25 56.5 88t61.5 96l9 14q-36 -6 -62 -6q-27 0 -54 6q1 -9 -6 -21q-18 -29 -54 -91h1q11 17 29 14q13 -1 20.5 -11t5.5 -22q-2 -17 -16.5 -29.5t-40.5 -12.5q-12 0 -32 6q-47 -75 -98 -112q-18 -13 -43.5 -22t-51.5 -10.5t-46.5 12.5 t-24.5 45q-4 37 22 69.5t63 51.5q14 7 28 -1.5t16 -24.5q0 -8 -3.5 -14t-7.5 -9t-12.5 -8t-11.5 -7q-33 -22 -38 -45q-1 -5 4 -7.5t13 -2.5q38 0 87 77q-19 8 -17 31q2 18 18.5 34.5t48.5 16.5h2l5 7q43 59 78 94q3 3 11 7q-58 20 -88 24q-17 1 -46 1t-54 -12.5t-20 -34.5 q5 -18 27 -18t32 13q30 32 45 33q9 0 16 -7q36 -34 -9 -70.5t-102 -36.5q-47 0 -69.5 28.5t-18.5 66t29 67.5q36 44 102 53.5t117 -9.5q14 -4 66 -23t78 -22q79 -10 103 -4q19 29 32 43t28.5 20t27.5 -8z" />
<glyph unicode=" "  horiz-adv-x="177" />
<glyph unicode="&#x09;" horiz-adv-x="177" />
<glyph unicode="&#xa0;" horiz-adv-x="177" />
<glyph unicode="!" horiz-adv-x="141" d="M94 94q20 0 28 -13.5t-1 -32.5t-29.5 -32.5t-39.5 -13.5q-20 0 -28 13.5t1 32.5t29 32.5t40 13.5zM310 406q9 -6 10.5 -14.5t-4.5 -21t-11.5 -21t-18 -24.5t-16.5 -22q-27 -38 -62.5 -89t-38.5 -55q-29 -40 -41 -45q-7 -3 -14 -1q-5 2 -7.5 4.5t-2.5 6.5t0.5 8t4 10.5 t6 11t7.5 13t8 14.5q35 64 88 154q2 4 8.5 16t11 18.5t11.5 17t13 15.5t14 9t16.5 2.5t17.5 -7.5z" />
<glyph unicode="&#x22;" horiz-adv-x="140" d="M149 457q7 14 39 8q28 -5 27 -18q-1 -6 -5 -10q-30 -33 -84 -106q-11 -13 -27.5 -1.5t-7.5 26.5q35 57 58 101zM232 457q7 15 41 8q25 -6 25 -18q0 -5 -5 -10q-30 -33 -84 -106q-11 -13 -27.5 -1.5t-7.5 26.5q35 57 58 101z" />
<glyph unicode="#" horiz-adv-x="436" d="M411 261q15 -1 18.5 -15.5t-3.5 -28t-17 -13.5l-78 3q-11 -18 -19 -35q30 2 56 -1q15 -1 18.5 -15.5t-3.5 -28t-17 -13.5l-84 3q0 -1 -1 -2q-4 -7 -11.5 -24.5t-15 -31.5t-15.5 -22q-11 -13 -34.5 2.5t-11.5 35.5q12 17 26 43q-31 0 -46 -1q-1 -1 -1 -2q-4 -7 -12 -24.5 t-15.5 -31.5t-15.5 -22q-7 -6 -21 -3.5t-23 15.5t-1 26q17 29 24 40q-38 -2 -53 2q-9 2 -13 17t2.5 28.5t22.5 12.5q5 0 74 -3q3 6 9 17.5t9 16.5q-40 -4 -61 1q-9 2 -13 17t2.5 28.5t22.5 12.5q6 0 80 -3q2 5 6 13q25 48 35 62q11 12 24 9t22 -16t4 -22q-10 -15 -28 -47 q30 0 46 1q1 2 3.5 6.5t3.5 6.5q25 48 35 62q11 12 23.5 9t21.5 -16t4 -22q-18 -30 -27 -46q25 2 48 -1zM250 172q2 5 9 17t11 19q-32 0 -48 -1q-4 -6 -11 -18.5t-9 -16.5q24 -2 48 0z" />
<glyph unicode="$" horiz-adv-x="354" d="M383 381q31 -27 25 -75q-4 -26 -21.5 -48.5t-41.5 -32.5q-25 -10 -42 8q-15 16 1 26q5 4 12 5q16 3 28.5 27t3.5 40l-93 -134q31 -55 28 -91q-6 -55 -47 -90.5t-97 -34.5q-18 2 -28 4l-5 -8q-2 -3 -7.5 -12t-10.5 -15.5t-11 -10.5q-16 -10 -23 -0.5t-3 29.5q3 8 17 35 q-37 23 -48 63t7 78t56 54q40 14 56 -12q3 -4 4 -8t2 -7t0 -6.5t-1 -5.5t-3 -5.5t-3.5 -5t-4.5 -5t-5 -4.5t-5.5 -4.5t-5.5 -4.5q-18 -15 -21.5 -36t8.5 -35q24 37 87 127q-31 47 -25 101.5t55 89.5q54 39 121 24q16 25 22 29q8 12 21 10.5t17.5 -11.5t-2.5 -23zM149 41 q45 1 59.5 29t4.5 66v-1q-31 -43 -64 -94zM233 245q5 8 32 45t41 58q-28 -3 -51.5 -25.5t-25.5 -48.5q-1 -13 4 -29z" />
<glyph unicode="%" horiz-adv-x="474" d="M400 377q20 18 44 -1q23 -19 12 -38q-3 -4 -8 -8q-94 -67 -249 -196q-12 -11 -54 -46.5t-64 -55.5q-20 -19 -44 1q-23 17 -12 36q3 5 8 9q18 19 60 48.5t51 36.5q51 39 149 121q60 50 107 93zM125 202q-35 1 -47 26.5t-5 56t25 52.5q20 25 49.5 42.5t58.5 18.5 q31 0 44.5 -22t10 -49.5t-16.5 -48.5q-20 -31 -53.5 -54t-65.5 -22zM155 319q-20 -27 -32 -52.5t1 -24.5q21 1 61 56q37 52 24 59l-2 1q-19 3 -52 -39zM357 206q31 0 44 -22t9.5 -49.5t-16.5 -48.5q-19 -30 -52.5 -53.5t-66.5 -22.5q-35 1 -47 26.5t-4.5 56.5t25.5 53 q48 60 108 60zM275 50q21 1 60 56q38 52 25 59q-1 1 -2 1q-16 2 -51 -41q-55 -75 -32 -75z" />
<glyph unicode="&#x26;" horiz-adv-x="357" d="M314 388q41 -8 59.5 -37.5t3.5 -67.5q-26 -59 -125 -96l-46 -17q1 -45 17 -82q20 17 23 43q2 17 31 28.5t40 -3.5q18 -28 -0.5 -62t-48.5 -57q-3 -3 -9 -7q19 -17 39 -26q20 -8 5 -30q-17 -23 -47 -25q-38 0 -71 52q-31 -7 -55 -7q-58 -2 -101 28t-34 77q7 39 41.5 64 t93.5 48q2 66 22 104q49 93 162 73zM309 304q7 10 1.5 22t-22.5 12q-19 0 -37.5 -20t-28.5 -46l-9 -31q77 28 96 63zM158 56q-15 44 -22 85q-54 -28 -54 -57q0 -20 24 -26t47 -3q2 1 5 1z" />
<glyph unicode="'" horiz-adv-x="58" d="M149 457q7 14 39 8q28 -5 27 -18q-1 -6 -5 -10q-30 -33 -84 -106q-11 -13 -27.5 -1.5t-7.5 26.5q35 57 58 101z" />
<glyph unicode="(" horiz-adv-x="373" d="M335 365q-62 -44 -108.5 -109.5t-61.5 -136.5q-4 -18 -5.5 -35.5t1 -37t13 -33.5t28.5 -19q20 -5 22 -25.5t-19 -26.5q-29 -10 -66 13q-69 48 -53 166q10 65 48 133q47 80 120.5 141t154.5 70q32 2 41 -4q16 -11 10.5 -30.5t-24.5 -21.5q-55 -12 -100 -43h-1l-1 -2z" />
<glyph unicode=")" horiz-adv-x="413" d="M158 41q62 44 108.5 109t61.5 136q22 111 -37 126q-20 5 -22.5 25.5t18.5 26.5q29 9 66 -13q69 -48 53 -166q-8 -61 -48 -133q-47 -80 -120 -141t-154 -70q-31 -4 -42 4q-16 11 -10.5 30.5t24.5 21.5q56 12 101 43z" />
<glyph unicode="*" horiz-adv-x="285" d="M265 267q2 -10 -4 -20.5t-15 -11.5h-38l10 -31q3 -9 -3 -18t-16 -12q-1 0 -3.5 -0.5t-3.5 -0.5q-24 0 -28 14l-7 39l-33 -21q-8 -5 -15 -3q-13 2 -18 11q-5 8 -3 18t11 15l31 20l-20 16q-18 15 -4 34q6 8 17 9t19 -5l25 -21l14 29q5 9 16 12t20 -2q20 -13 8 -33l-11 -20 q5 0 11.5 0.5t10.5 0.5l3 1q10 2 17.5 -4t8.5 -16z" />
<glyph unicode="+" horiz-adv-x="459" d="M386 240q18 -2 21 -21.5t-6 -37.5t-21 -18q-76 4 -127 4q-10 -19 -29 -59t-25 -52q-18 -37 -54 -28q-25 6 -29 24q-1 6 1 12q5 13 15 29.5t22.5 36t18.5 29.5q1 2 2.5 4.5t2.5 3.5q-7 0 -32.5 -2t-34.5 -1.5t-31 2.5q-11 2 -14 22t5.5 39t26.5 18q14 0 52.5 -1.5 t56.5 -2.5h13q16 28 60 115q13 26 48 26q27 -1 30 -19q0 -7 -3 -14q-7 -15 -39 -69q-20 -34 -23 -39h11q53 2 82 -1z" />
<glyph unicode="," horiz-adv-x="157" d="M124 38q-10 -41 -40.5 -63.5t-60.5 -22.5q-10 0 -12.5 8.5t2.5 17t12 8.5q25 0 32 16q-20 0 -29 13.5t-1 32.5t25.5 31t37.5 12t30 -15.5t4 -37.5z" />
<glyph unicode="-" horiz-adv-x="459" d="M380 163q-108 5 -197 4q-6 0 -33 -2t-37 -1.5t-33 2.5q-11 2 -14 22t5.5 39t26.5 18q14 0 52.5 -1.5t56.5 -2.5q15 -1 48.5 -0.5t48.5 0.5q53 2 82 -1q18 -2 21 -21.5t-6 -37.5t-21 -18z" />
<glyph unicode="." horiz-adv-x="163" d="M130 48q-7 -19 -25.5 -32.5t-38.5 -13.5t-30 13.5t-3 32.5q6 19 24.5 32.5t38.5 13.5t30 -13.5t4 -32.5z" />
<glyph unicode="/" horiz-adv-x="444" d="M523 347q-106 -81 -287 -244q-77 -70 -135 -127q-23 -23 -53 -5q-25 15 -17 37q2 8 10 14q21 23 72.5 62t56.5 43q93 79 171 151q59 52 122 115q22 22 52 4q25 -15 18 -36q-2 -8 -10 -14z" />
<glyph unicode="0" horiz-adv-x="360" d="M283 339q-76 -1 -166 -147q-71 -111 -43 -141q17 -16 37.5 -14t44 22t45.5 45.5t42 55.5t33.5 52.5t19.5 35.5t10 27.5t6 30t-5.5 25t-23.5 8.5zM290 402q54 0 78 -39t18 -90.5t-31 -96.5q-43 -81 -124.5 -144t-155.5 -53q-41 6 -62.5 37.5t-19.5 71t15 80.5 q34 88 117 161t165 73z" />
<glyph unicode="1" horiz-adv-x="222" d="M259 297q-42 -64 -63 -95q-66 -100 -127 -183q-12 -16 -17.5 -22.5t-18 -13.5t-25.5 -4q-9 2 -12.5 8t-1.5 15.5t5.5 19t10.5 21.5t12 20.5t12 19l9 13.5q32 53 80 124q-44 -30 -68 -41q-21 -6 -32 8t11 29q15 8 31 18.5t27 18.5t30 23.5t26 21.5t29 25.5t26 22.5 t18 16.5t23.5 22t23 14.5t22.5 3t13.5 -9t3 -14.5t-4.5 -16.5t-9.5 -18.5t-12 -17.5t-12.5 -16.5t-9 -12.5z" />
<glyph unicode="2" horiz-adv-x="331" d="M375 362q28 -42 -2.5 -91t-83.5 -86q-52 -35 -172 -93q-16 -8 -25 -11q37 -22 54 -24q14 0 71 35q33 21 47 4t-9 -46q-56 -69 -119 -72q-30 -1 -68 22t-53 27q-11 2 -30 -14.5t-22 -18.5q-21 -16 -33 -2.5t-6 33.5q14 43 77 88q42 30 126.5 74.5t119.5 67.5q57 35 61 57 q1 9 -9 15t-26 6q-34 0 -72.5 -19t-51.5 -43l12 -3q20 -3 12 -27q-12 -25 -33 -28q-57 -1 -54 41q2 40 46 84q12 12 23 19q36 24 76.5 36.5t81 6t62.5 -37.5z" />
<glyph unicode="3" horiz-adv-x="316" d="M275 211q44 -44 -10.5 -117.5t-138.5 -102t-152 16.5q-23 25 -19 57.5t30 63t59 39.5q31 9 37 -11.5t-19 -40.5q-2 -2 -12 -9.5t-15.5 -12.5t-10 -13t-2.5 -16q6 -19 69 -5q38 11 71.5 36.5t46.5 58.5q5 12 -10 11l-16 -3q-16 -6 -24.5 -8.5t-22.5 -4.5t-22 3.5t-9 17.5 q-2 24 22 39t60 20q81 39 93 90q2 13 -2 17.5t-17 4.5q-15 0 -38 -10t-38 -22.5t-13 -17.5q2 -4 17 6q12 7 21 0.5t8 -17.5t-10 -20q-35 -25 -61.5 -14.5t-26.5 40t22 59.5q25 29 68 45.5t84.5 9.5t55.5 -43q30 -72 -75 -147z" />
<glyph unicode="4" horiz-adv-x="321" d="M337 380q13 15 30.5 15.5t24.5 -11.5t-1 -31q-40 -66 -90 -142q15 -11 9 -30.5t-32 -24.5q-3 0 -8.5 -1t-8.5 -2q-5 -8 -17 -25t-17 -25q-63 -88 -79 -108q-11 -15 -29.5 -16.5t-26 10t0.5 30.5q4 15 14 32.5t26.5 40.5t20.5 30q1 2 3.5 6t3.5 6q-2 0 -6.5 -1t-6.5 -2 l-114 -21q-25 -5 -35 9.5t-3.5 34.5t23.5 30q57 34 110.5 94.5t83.5 113.5q10 18 28 18.5t25 -13.5t-2 -34q-64 -113 -114 -161q38 6 61 8q7 10 21.5 31t21.5 32q49 67 83 107z" />
<glyph unicode="5" horiz-adv-x="336" d="M333 293q-63 -13 -109 28q-3 -5 -38 -53q57 4 94.5 -20t29.5 -78q-10 -72 -79 -127.5t-145 -63.5q-53 -5 -91.5 18.5t-28.5 74.5q13 59 79 93q28 14 46 -6q16 -18 -2 -34q-5 -5 -14 -9q-11 1 -25 -18t-16 -29q3 -18 40 -16q52 0 108 50q70 67 33 85q-9 4 -70 5 q-60 1 -62 22q0 13 15 33q20 23 51.5 68.5t43.5 60.5q14 17 25 21t17.5 0.5t18 -14t19.5 -15.5q11 -6 19 -9t16.5 -0.5t12.5 4t14.5 9t15.5 10.5q24 15 43.5 -2t6.5 -42q-17 -33 -68 -46z" />
<glyph unicode="6" horiz-adv-x="346" d="M313 406q50 0 79 -37.5t-1 -82.5q-20 -29 -52 -19q-26 8 -25 30q0 12 10 24q5 7 -3 13t-22 6q-63 0 -131 -78q85 29 132 -7q26 -20 28.5 -54t-11 -66.5t-36.5 -59.5q-38 -44 -92.5 -72t-106.5 -25q-37 2 -59 20t-27 45.5t0 58t19 62.5q41 91 125.5 166t172.5 76zM220 213 q-70 0 -125 -65q-11 -25 -16.5 -39.5t-6.5 -28.5t8 -20.5t28 -6.5q40 0 82.5 37t54.5 76q7 22 1 35t-26 12z" />
<glyph unicode="7" horiz-adv-x="283" d="M385 330q-16 -12 -19 -14q-14 -11 -40 -32.5t-47.5 -39t-39.5 -34.5q-34 -29 -147 -133q-5 -5 -30 -32t-44 -43t-37 -22q-20 -7 -31.5 8t-0.5 33q27 42 52 71q93 113 221 207q-4 2 -13 8t-14 9t-13 6t-15 4q-23 -35 -63 -43q-35 -6 -37 19q0 8 4 19q14 35 48 57t69 20 q18 -1 45.5 -19.5t43.5 -19.5q11 0 86 25l6 4q32 15 38.5 -8.5t-17.5 -45.5q-2 -1 -4 -3z" />
<glyph unicode="8" horiz-adv-x="324" d="M182 374q22 15 57.5 22t69 4.5t56 -24t18.5 -58.5q-10 -85 -147 -140q37 -42 31 -79q-6 -44 -42 -74t-79.5 -40t-84.5 -6q-50 6 -78.5 38.5t-14.5 80.5q21 72 149 123q1 1 3.5 2t3.5 1q-7 17 -8 33q-2 34 16.5 65t49.5 52zM183 109q7 23 -4 44l-1 1q-2 -1 -15 -5.5 t-17 -6.5t-15.5 -7t-17 -8t-15 -8t-15 -10t-12.5 -11.5t-12 -13t-8 -14.5q-4 -15 7 -23.5t34 -8.5q29 0 55 19t36 52zM308 321q1 9 -6 13.5t-19 4.5q-29 0 -60.5 -23.5t-33.5 -44.5q-3 -12 1 -26q116 40 118 76z" />
<glyph unicode="9" horiz-adv-x="350" d="M57 -22q-50 0 -79 37t1 82q19 29 51 20q25 -8 26 -30q0 -12 -10 -25q-4 -5 -1.5 -9t9.5 -7t16 -3q65 0 131 79q-31 -12 -70 -11.5t-62 18.5q-26 20 -28.5 54t11.5 66t37 59q37 44 91.5 72t106.5 25q49 -2 71 -32.5t19 -70.5t-22 -83q-41 -91 -125.5 -165.5t-172.5 -75.5z M150 171q68 -1 124 65q11 24 16.5 39t6.5 29t-8 20.5t-28 6.5q-40 0 -82.5 -37t-54.5 -77q-7 -21 -1 -34t27 -12z" />
<glyph unicode=":" horiz-adv-x="259" d="M199 245q20 0 30 -13.5t4 -32.5q-7 -19 -25.5 -32.5t-38.5 -13.5t-30 13.5t-3 32.5q6 19 24.5 32.5t38.5 13.5zM126 137q20 0 30 -13.5t4 -32.5q-7 -19 -25.5 -32.5t-38.5 -13.5t-30 13.5t-3 32.5q6 19 24.5 32.5t38.5 13.5z" />
<glyph unicode=";" horiz-adv-x="273" d="M214 245q20 0 30 -13.5t3 -32.5q-6 -19 -24.5 -32.5t-38.5 -13.5t-30 13.5t-4 32.5q7 19 25.5 32.5t38.5 13.5zM140 134q20 0 30 -15.5t4 -37.5q-10 -41 -40.5 -63.5t-60.5 -22.5q-10 0 -12 8.5t2.5 17t11.5 8.5q25 0 32 16q-20 0 -29 13.5t-1 32.5t25.5 31t37.5 12z" />
<glyph unicode="&#x3c;" horiz-adv-x="354" d="M347 224q-57 -75 -144 -120q4 -4 13 -12.5t14 -13.5l12 -12q12 -12 15.5 -17t10 -15.5t4.5 -19t-10 -15.5q-7 -7 -15.5 -8t-17.5 3.5t-15.5 8.5t-16 12t-12.5 10q-16 11 -48 28.5t-46 26.5q-26 18 -18.5 46.5t38.5 34.5q58 12 113 43q34 19 68 49q21 19 32 19 q19 0 27 -17t-4 -31z" />
<glyph unicode="=" horiz-adv-x="507" d="M434 297q18 -2 21 -21.5t-6 -38t-21 -17.5q-109 5 -197 3q-9 0 -31 -1.5t-40.5 -1.5t-31.5 3q-11 2 -14 22t5.5 38.5t26.5 17.5q93 -3 109 -3q49 -1 97 0q72 0 82 -1zM386 184q18 -2 21 -21.5t-6 -38t-21 -17.5q-91 4 -197 3q-9 0 -31 -1.5t-40.5 -1.5t-31.5 3 q-11 2 -14 22t5.5 38.5t26.5 17.5q93 -3 109 -3q49 -1 97 0q72 0 82 -1z" />
<glyph unicode="&#x3e;" horiz-adv-x="424" d="M333 183q26 -18 18.5 -46.5t-38.5 -34.5q-60 -12 -112 -43q-35 -18 -69 -49q-21 -19 -32 -19q-18 0 -26.5 17t3.5 32q57 73 144 119q-5 5 -14 13.5t-13 12.5l-12 12q-12 12 -15.5 17t-10 15.5t-4.5 19t11 15.5q7 7 15 8t17 -3.5t15.5 -8.5t15.5 -12t13 -10 q16 -11 48 -28.5t46 -26.5z" />
<glyph unicode="?" horiz-adv-x="224" d="M120 94q20 0 29.5 -13.5t1.5 -32.5t-28 -32.5t-40 -13.5t-28.5 13.5t-0.5 32.5t27 32.5t39 13.5zM313 410q35 0 54 -24.5t10 -58.5q-7 -30 -26.5 -51.5t-63.5 -52t-59 -42.5q-9 -8 -21.5 -20.5t-20 -20.5t-18.5 -16.5t-18 -8t-18 4.5q-38 26 108 141q3 2 4 3q44 34 64 72 q15 26 -4 26q-18 0 -36 -23t-33.5 -47t-25.5 -26q-18 -3 -29.5 10.5t-0.5 38.5q20 44 56.5 69.5t77.5 25.5z" />
<glyph unicode="@" horiz-adv-x="494" d="M324 338q70 0 114 -41.5t44 -107.5q0 -56 -35 -107.5t-79.5 -74.5t-74.5 -10q-34 16 -43 51q-28 -48 -67 -48t-55 29t-9.5 66t26.5 67q31 45 68.5 69t67.5 12q18 -7 29 -26q1 1 2.5 3t2.5 3q23 29 47 23q10 -3 18.5 -10.5t11.5 -20.5t-9 -30q-28 -39 -56 -92t-18 -63 t39 14.5t55 71t26 87.5q0 42 -32 66.5t-84 24.5q-98 0 -167 -69.5t-69 -151.5q0 -59 32.5 -93t78.5 -34q14 0 25 2t19.5 6t13 6.5t10.5 7.5l5 5q4 3 12 -2.5t11.5 -13.5t-1.5 -16q-9 -11 -36 -20t-63 -9q-63 0 -118.5 43.5t-55.5 122.5q0 107 96.5 183.5t217.5 76.5zM188 51 q4 -4 10.5 0.5t16 17t16.5 23.5t19 29q42 66 30 76q-5 4 -22.5 -14t-37.5 -49q-12 -18 -20.5 -38t-11 -31.5t-0.5 -13.5z" />
<glyph unicode="A" horiz-adv-x="368" d="M370 222q10 -11 4 -30.5t-15 -32.5t-22.5 -31t-18.5 -27q-17 -30 -35 -78q9 -10 4.5 -27t-18.5 -23.5t-34 5.5q-20 14 -18 51q-29 -20 -48 -30q-34 -18 -68 -21.5t-60.5 15.5t-30.5 62q-11 124 143 255q153 127 236 70q33 -22 37 -51.5t-11.5 -55t-44.5 -51.5zM96 35 q38 -2 79.5 33t77.5 86q-3 0 -13 2q-33 11 -28 47t40 42q21 3 45 10t46.5 23.5t18.5 37.5q-3 17 -21 18.5t-34.5 -4.5t-29.5 -13q-77 -48 -150 -156q-43 -61 -49 -100q-4 -26 18 -26z" />
<glyph unicode="B" horiz-adv-x="507" d="M404 400q22 -1 41.5 -5.5t39 -13.5t30 -26t9.5 -41q-1 -32 -29 -63q-6 -6 -32 -24q30 -29 29 -75q-7 -55 -44 -97t-92 -63q-32 -13 -63.5 -16.5t-64 7t-51.5 37.5q-104 -88 -164 -24q-28 26 -18 58t31 55t48 40q15 10 32 4.5t18 -25.5q1 -8 -3 -14.5t-7 -9.5t-13 -8.5 t-12 -6.5q-32 -20 -37 -44q2 -13 23 -8.5t33 12.5q23 18 49 54q4 8 8 11q17 25 51 84q2 4 12 19.5t15 22t14.5 20.5t17.5 21t18.5 16t21.5 14t23 6q27 2 32.5 -25.5t-22.5 -34.5l-8 -12q15 5 38 7q53 35 60 53q3 7 2 14q-4 21 -54 21q-59 3 -130 -32q-28 -13 -56 -36.5 t-31 -41.5q18 -15 22 -35.5t-18 -36.5q-36 -21 -60.5 20.5t-12.5 80.5q14 51 71.5 85.5t118.5 46.5t114 9zM407 164q2 18 -19 23q-71 -28 -81 0q-36 -61 -65 -99q-1 -2 -9.5 -12t-13.5 -15q14 -28 46 -26q45 4 88 44t54 85z" />
<glyph unicode="C" horiz-adv-x="391" d="M326 138q16 10 32 -2t12 -31q-7 -31 -49.5 -61.5t-84.5 -48.5q-34 -15 -69.5 -19t-72 7.5t-57.5 41.5q-37 53 -8 140q9 24 23 50q-39 38 -31 72.5t44 59.5t77 26q33 2 62 -12q85 46 161 38q62 -7 79 -51.5t-20 -91.5q-43 -55 -131 -77t-166 -1q-5 -9 -13 -27 q-29 -67 -14 -94q12 -21 36.5 -24.5t52 6.5t50 22t35.5 23q7 6 24 26.5t28 27.5zM383 326q2 4 -3 7.5t-13.5 4.5t-14 1.5t-9.5 0.5q-39 -2 -89 -32q3 -10 2 -18q0 -18 -17 -21.5t-25 10.5q-27 -21 -52 -51q69 -2 137.5 26.5t83.5 71.5zM70 268q2 -5 10 -13q34 44 77 76 q-4 1 -11 1q-30 0 -61.5 -19t-14.5 -45z" />
<glyph unicode="D" horiz-adv-x="488" d="M111 203q-34 71 39 132q66 55 163 63q111 10 160 -54q32 -42 28 -109q-7 -88 -77 -161.5t-158 -93.5q-51 -11 -89 1q-17 5 -48 37q-24 -14 -46 -22.5t-44.5 -12t-34.5 9.5t-10 42q4 43 42.5 60.5t79.5 3.5l41 61q-32 13 -46 43zM363 129q19 24 34.5 54.5t24 64.5t-8 59.5 t-60.5 31.5q-63 7 -121 -29q-21 -13 -40 -34t-14 -36q-2 -14 19 -19q41 61 65 79q26 18 52 20q17 1 28 -12t7.5 -28.5t-23.5 -19.5q-16 -6 -32 -37q16 -8 15.5 -27.5t-17.5 -26.5q-27 -11 -38 -13q-43 -69 -79 -104q20 -18 42 -17q70 4 146 94zM39 27q8 -10 37 21 q-30 -2 -37 -21z" />
<glyph unicode="E" horiz-adv-x="360" d="M319 398q48 -9 66.5 -45t1 -74.5t-62.5 -52.5q-39 -13 -57 18q-14 25 2 42q10 12 30 10q32 1 34 26q2 18 -40 18q-51 -2 -81 -52q-9 -14 -6 -30q24 2 39 -8q19 -13 13.5 -34.5t-26.5 -27.5q-19 -4 -38 2q-39 -13 -72 -44t-43 -68q-6 -19 9 -34.5t48 -15.5q26 0 65 22 t65 47.5t20 34.5q-7 11 -42 -12q-3 -2 -17.5 -13t-23.5 -16.5t-22 -11.5t-23 -3t-17 14q-20 31 32 62q53 32 107 28q41 -3 49 -32q13 -46 -14 -87.5t-77.5 -65t-106.5 -23.5q-69 0 -109.5 32t-23.5 99q17 64 87 107q31 20 60 32q-12 29 -6 53q11 55 67 84t113 19z" />
<glyph unicode="F" horiz-adv-x="353" d="M459 372q7 14 22 20.5t27 0t11 -26.5q-3 -40 -37 -61.5t-77 -23.5q-27 0 -54 6q1 -9 -6 -21q-18 -29 -54 -91h1q11 17 29 14q13 -1 20.5 -11t5.5 -22q-2 -17 -16.5 -29.5t-40.5 -12.5q-12 0 -32 6q-47 -75 -98 -112q-18 -13 -43.5 -22t-51.5 -10.5t-46.5 12.5t-24.5 45 q-4 37 22 69.5t63 51.5q14 7 28 -1.5t16 -24.5q0 -8 -3.5 -14t-7.5 -9t-12.5 -8t-11.5 -7q-33 -22 -38 -45q-1 -5 4 -7.5t13 -2.5q38 0 87 77q-19 8 -17 31q2 18 18.5 34.5t48.5 16.5h2l5 7q43 59 78 94q3 3 11 7q-58 20 -88 24q-17 1 -46 1t-54 -12.5t-20 -34.5 q5 -18 27 -18t32 13q30 32 45 33q9 0 16 -7q36 -34 -9 -70.5t-102 -36.5q-47 0 -69.5 28.5t-18.5 66t29 67.5q36 44 102 53.5t117 -9.5q11 -3 64.5 -23.5t79.5 -21.5q43 -2 54 17z" />
<glyph unicode="G" horiz-adv-x="397" d="M424 386q32 -19 33 -51.5t-18.5 -62t-46.5 -48.5q-32 -23 -76 -37q30 3 49.5 -7.5t18.5 -30.5t-22.5 -61.5t-37.5 -65.5q-46 -69 -115 -112t-144 -31q-32 5 -50 29.5t-11 50.5t37 35q15 5 27 -5.5t9 -26.5q-1 -10 6.5 -16.5t19.5 -6.5q35 0 72 26t65 67q-22 -8 -40 -12 q-66 -11 -117 16.5t-50 92.5q0 41 22 88q-35 35 -27 70t46 60t80 26q28 0 53 -9q134 68 217 22zM307 175q3 9 4 10q-96 -29 -183 -5q-8 -21 -11 -40q-4 -30 10 -46t44 -16q41 -1 80 27.5t56 69.5zM391 325q4 30 -89 5l-34 -11q-6 -2 -10 -4q11 -29 -14 -40q-18 -9 -26 5 q-2 4 -2 10q-33 -26 -59 -59q35 -1 84 9q27 6 55 15.5t59.5 29t35.5 40.5zM79 260q1 0 1 -1q23 33 60 63l14 10q-43 -2 -71 -23.5t-4 -48.5z" />
<glyph unicode="H" horiz-adv-x="468" d="M612 340q-14 -5 -28 -15.5t-24.5 -21t-24.5 -30.5t-20.5 -29.5t-20.5 -32.5t-16 -27l-92 -148q-2 -2 -8.5 -14t-12 -19t-11.5 -11q-21 -13 -35.5 3t-7.5 37q21 61 46 110q-42 -11 -85 -15q-23 -35 -43.5 -60t-49.5 -51.5t-61 -36.5t-64 -1q-49 13 -58.5 50.5t16 74.5 t66.5 51q65 23 129 27q38 67 46 81q-30 0 -48 15.5t-17 47.5q1 29 25 58q20 24 44 9q21 -12 13 -32q-4 -7 -10 -13q0 -3 -11.5 -12t-11.5 -13q-2 -10 6 -13.5t19 -3.5t23 5q56 75 106 87q16 3 28 0q25 -4 35.5 -17t-9.5 -34q-6 -5 -21.5 -9.5t-16.5 -5.5q-14 -13 -28.5 -32 t-22.5 -32t-23 -41t-20 -36q12 2 36 8q32 10 47 16q39 62 79 106q67 73 122 80q18 2 30.5 -11t9 -29t-24.5 -20zM60 52q11 -59 100 58l6 9q-47 -6 -79 -21.5t-27 -45.5z" />
<glyph unicode="I" horiz-adv-x="269" d="M340 300q-19 -26 -75 -129q-4 -8 -21 -40.5t-25 -47t-27 -41t-34.5 -38.5t-38.5 -21.5t-48 -7.5q-34 2 -56 25t-22 57q1 42 31.5 71.5t73.5 40.5q60 18 82 6q28 56 44 85q-12 0 -24 3q-24 5 -40 23t-15 42q0 35 28 65q21 18 40 -2t3 -40q-1 -2 -11.5 -11.5t-10.5 -14.5 q1 -20 35 -20q14 1 29 8q31 44 59 65.5t66 20.5q20 -1 29 -19t-7 -34q-7 -6 -31 -10q-4 -6 -17.5 -18.5t-16.5 -17.5zM75 35q24 -2 42.5 22.5t35.5 61.5h-3q-37 -1 -68.5 -16.5t-30.5 -47.5q0 -16 24 -20z" />
<glyph unicode="J" horiz-adv-x="369" d="M473 340q-1 0 -1 -1q-3 -6 -26 -30.5t-26 -29.5q-17 -27 -45 -78t-35 -64q-61 -112 -88 -149q-88 -124 -179 -108q-50 9 -69 46t-7 79.5t45 71.5q23 19 56.5 31.5t55.5 0.5q21 -11 18 -23.5t-15.5 -22.5t-26.5 -14q-27 -8 -45 -31t-18 -51q0 -9 6 -18.5t16 -9.5 q8 -1 16.5 1t15.5 6t15.5 11t14.5 13t14 16t12.5 16.5t11.5 18t10 16t9 15.5t7 12q16 26 42.5 75.5t32.5 61.5q17 33 33 59h-1q-32 -1 -57 16t-26 48q-2 39 28 69q21 18 40 -2t3 -40q-1 0 -4 -3q-1 -3 -9.5 -11t-8.5 -12q1 -20 35 -20q19 1 35 11q39 52 82 74q31 16 53 6 q23 -11 14 -36t-34 -20zM309 350l1 1z" />
<glyph unicode="K" horiz-adv-x="432" d="M466 333q26 13 39.5 -6.5t-2.5 -41.5q-28 -40 -80 -76t-104 -54q13 -32 13.5 -69.5t-11.5 -54.5v-1q12 -2 26 20t25 24q24 4 22 -20q-3 -31 -34 -63q-18 -18 -34 -20q-26 -4 -45 12.5t-27 43.5q-13 41 -13 82q-37 -64 -77 -101t-93 -33q-34 2 -56 25t-22 57 q1 42 31.5 71.5t73.5 40.5q60 18 82 6q28 56 44 85q-12 0 -24 3q-24 5 -40 23t-15 42q0 35 28 65q22 19 39 -2t0 -43q-1 -2 -6.5 -6.5t-8.5 -8.5t-3 -8q1 -20 35 -20q14 1 29 8q62 89 135 86q20 -1 29 -19t-7 -34q-7 -6 -31 -10q-4 -6 -17.5 -18.5t-16.5 -17.5 q-22 -30 -52 -86q19 11 78 58q62 47 90 61zM75 35q24 -2 42.5 22.5t35.5 61.5h-3q-37 -1 -68.5 -16.5t-30.5 -47.5q0 -16 24 -20z" />
<glyph unicode="L" horiz-adv-x="390" d="M371 395q32 11 60.5 -4t26.5 -51q-5 -43 -45.5 -79.5t-89.5 -60.5q-25 -13 -55 -22q-40 -60 -62 -89q-6 -8 -18 -22q28 -14 51 -14q13 0 50 20q33 19 48 13q15 -5 18.5 -21.5t-8.5 -28.5q-81 -76 -159 -51q-17 6 -51 34q-53 -41 -104 -37q-22 3 -32 15.5t-8 28.5t11 32 t21 26q34 26 78 21q12 -2 18 -4q3 6 14.5 27t17.5 30q4 6 5 9q-14 2 -22 4q-51 11 -87.5 53t-13.5 88q19 37 62 53q14 9 55.5 8.5t24.5 -31.5q-5 -10 -21 -15t-31.5 -6.5t-28.5 -10.5t-14 -27q3 -41 120 -45h2q89 131 167 157zM318 255q48 20 77 61q15 22 5 24 q-5 1 -11 -1.5t-12.5 -8.5t-12.5 -12t-13 -15t-11 -15t-10 -14.5t-7 -10.5q0 -1 -5 -8zM38 28q24 1 45 21h-4q-12 2 -26 -4.5t-15 -16.5z" />
<glyph unicode="M" horiz-adv-x="614" d="M638 273q22 -48 -37 -137q-4 -6 -17.5 -27.5t-20.5 -32t-19 -26.5t-23 -27q2 -13 -5 -24.5t-19 -13.5q-68 -3 -34 76q16 38 87 142q25 38 22 41q-13 10 -58 -31t-69 -75q-3 -3 -7 -10.5t-7 -10.5q-35 -50 -80 -99l-5.5 -5.5l-6 -6t-6 -5.5t-7 -5t-6.5 -3.5t-7.5 -2.5 t-8 0.5t-8.5 2.5q-22 12 -12 47q9 33 51 96.5t76 111.5t30 51q-16 11 -62 -24.5t-73 -78.5q-29 -46 -50 -75.5t-55 -67t-67 -57.5q-25 -16 -55.5 -19.5t-56 12t-28.5 50.5q-4 42 25 75.5t72 49.5q35 12 82 15q13 0 21 -6l8 13q7 11 13 20.5t18 29.5t19 35.5t12.5 31.5t3 26 t-12.5 11q-39 -1 -77.5 -29.5t-51.5 -66.5q-15 -71 -60 -42q-39 27 9 95q31 43 82.5 74t99.5 28q73 -3 75 -86q54 47 106 46q74 -1 61 -87q27 18 51.5 27.5t50 5t37.5 -31.5zM68 35q42 1 93 84q-41 -2 -73 -18t-37 -49q0 -6 4 -12t13 -5z" />
<glyph unicode="N" horiz-adv-x="456" d="M473 354q71 -26 5 -151q-57 -115 -95 -166q13 -12 4.5 -31.5t-30.5 -20.5q-32 1 -41.5 30t0.5 55q15 56 62 125q5 7 12.5 18t14 19t14 18.5t11.5 17.5t8 14.5t3.5 10.5t-3.5 6q-24 9 -65.5 -25t-66.5 -78q-85 -145 -172 -200q-25 -16 -55.5 -19.5t-56 12t-28.5 50.5 q-4 42 25 75.5t72 49.5q35 12 82 15q13 0 21 -6q1 2 4 6.5t4 6.5q7 11 13 20.5t18 29.5t19 35.5t12.5 31.5t3 26t-12.5 11q-39 -1 -77.5 -29.5t-51.5 -66.5q-15 -71 -60 -42q-39 27 9 95q31 43 82.5 74t99.5 28q73 -3 75 -86q75 65 141 41zM68 35q42 1 93 84q-41 -2 -73 -18 t-37 -49q0 -6 4 -12t13 -5z" />
<glyph unicode="O" horiz-adv-x="404" d="M384 322q32 -20 33 -75t-22 -93q-40 -73 -117.5 -126.5t-154.5 -52.5q-56 0 -86 43.5t-22 100.5q13 103 102 195t191 97q33 1 59 -12t32 -41q7 -23 -15 -36zM348 247q8 27 -11 21q-25 -8 -54 -41q-5 -6 -7 -10q-3 -4 -7 -13t-7 -14t-9.5 -10t-15.5 -7q-18 -4 -31.5 9 t-10.5 32q6 31 45.5 65.5t72.5 45.5q17 5 30 6q1 9 -4.5 14t-13 5t-14.5 -1q-77 -10 -152 -116q-7 -10 -17 -26.5t-23.5 -44t-21 -51t-5 -44.5t19.5 -29q35 -16 80 11.5t74.5 63t51.5 71.5q24 39 30 63z" />
<glyph unicode="P" horiz-adv-x="455" d="M482 377q48 -45 40.5 -94.5t-46.5 -92.5t-92 -72t-96 -33q-33 -2 -55 9l-13 -17q-14 -18 -30.5 -35.5t-39.5 -35.5t-45.5 -27t-47 -6.5t-44.5 21.5q-19 18 -19 46t14 53t37 44t46 20q16 1 25.5 -12t4.5 -28q-3 -8 -10.5 -13.5t-18 -11.5t-14.5 -9q-25 -21 -27 -37 q2 -12 14 -12t24 7q18 8 36 28.5t26 35t25 45.5h-4q-44 2 -64.5 22.5t-17 49t21.5 59.5t46 55q40 35 97 58t121.5 21.5t105.5 -38.5zM438 298q8 44 -50 52q-65 9 -141 -28q-78 -38 -83 -92q0 -4 2 -4.5t4.5 0t3.5 -0.5q25 1 34 -21q21 32 34.5 50.5t39.5 39.5t52 24 q18 2 31.5 -10.5t11.5 -28t-23 -20.5q-13 -7 -31 -35q-23 -31 -56 -81q14 -1 41.5 12.5t40.5 23.5q78 56 89 119z" />
<glyph unicode="Q" horiz-adv-x="402" d="M389 322q32 -27 28.5 -85.5t-33.5 -101.5q-42 -65 -106 -108q17 -32 31 -43q15 -13 8.5 -29.5t-22.5 -22t-31 2.5q-6 4 -15 16t-18.5 26t-12.5 18q-45 -20 -89 -20q-58 0 -89 42t-24 101q11 95 90.5 181.5t173.5 106.5q41 9 80.5 -2.5t42.5 -50.5q1 -21 -14 -31zM125 35 q32 -4 67 14q-12 41 -9 85q20 143 119 185q23 10 44 13q2 9 -3.5 13.5t-15 4.5t-16.5 -1t-13 -3q-81 -21 -152 -136q-9 -15 -20.5 -37.5t-23.5 -55.5t-7.5 -56.5t30.5 -25.5zM335 211q23 42 18 57q-6 12 -27 -3t-28 -25q-20 -28 -33 -75q-9 -26 -10 -44v-24q42 45 80 114z " />
<glyph unicode="R" horiz-adv-x="479" d="M504 350q30 -56 4.5 -105.5t-75.5 -85t-104 -47.5q9 -9 7 -31t-6.5 -35t3.5 -16q20 0 64 32q9 6 21.5 8.5t21 -4t3.5 -22.5q-7 -19 -54 -48q-22 -15 -43.5 -22t-43.5 0.5t-36 32.5q-9 16 -6 59t-6 49q-1 0 -5 2q-9 -14 -29 -40q-14 -18 -30.5 -35.5t-39.5 -35.5 t-45.5 -27t-47 -6.5t-44.5 21.5q-19 18 -19 46t14 53t37 44t46 20q16 1 25.5 -12t4.5 -28q-3 -8 -10.5 -13.5t-18 -11.5t-14.5 -9q-25 -21 -27 -37q2 -12 14 -12t24 7q18 8 36 28.5t26 35t25 45.5h-4q-34 2 -57 27t-19 59q5 60 80 115q44 31 105.5 50.5t127.5 10t95 -61.5z M438 296q4 29 -15.5 43t-53.5 15q-55 2 -110.5 -23.5t-83.5 -70.5q-10 -17 -10.5 -23t6.5 -12q4 -4 18 -7t19 -13q20 31 34.5 50t40.5 39.5t51 23.5q18 2 31.5 -10.5t11.5 -28t-23 -20.5q-13 -7 -31 -35q-26 -36 -38 -55l6 -2q10 1 46 19q84 49 101 110z" />
<glyph unicode="S" horiz-adv-x="307" d="M205 338q25 38 70 51.5t81.5 -9t37.5 -76.5q1 -40 -39 -75t-90 -37q1 -3 2 -9q17 -75 0 -114q-19 -49 -65.5 -74.5t-99.5 -18.5t-81.5 50.5t-16 92.5t63.5 71q31 13 56.5 -9t-3.5 -49q-5 -5 -15 -11.5t-15.5 -10t-12 -11.5t-5.5 -16t4 -22q14 -33 59 -25q27 5 43 26 t18 49q4 4 1 23.5t-3.5 24t-6 23.5t-6.5 24q-39 19 -61.5 57t-12.5 78q7 30 32 30q19 -1 21 -15q2 -8 -5 -17q-8 -15 0 -34.5t23 -32.5q8 37 26 66zM298 268q26 17 34.5 39.5t-13.5 32.5q-29 5 -45.5 -23t-17.5 -58v-6q24 3 42 15z" />
<glyph unicode="T" horiz-adv-x="299" d="M459 372q7 14 22 20.5t27 0t11 -26.5q-3 -40 -37 -61.5t-77 -23.5q-30 0 -55 7q2 -10 -4 -22q-10 -16 -37 -63t-42 -70.5t-41.5 -57t-53.5 -56.5q-24 -20 -58.5 -34t-70.5 -7.5t-47 45.5q-10 37 14 70t63 56q12 8 26.5 6t20.5 -15q3 -6 3 -12.5t-1 -10t-6.5 -8.5 t-7.5 -6.5t-10 -7t-9 -5.5q-35 -22 -38 -45q-1 -5 3.5 -7.5t12.5 -2.5q26 0 53 29.5t56.5 80t34.5 57.5q38 54 78 93q5 5 11 8q-64 20 -87 23q-17 1 -46.5 1t-54.5 -12.5t-20 -34.5q6 -18 27.5 -18t32.5 13q3 3 11.5 15.5t14 18.5t15.5 6t20 -14q28 -39 -21 -75.5t-90 -31.5 q-59 7 -78 62.5t19 99.5q36 44 101.5 53.5t117.5 -9.5q10 -3 63.5 -23.5t79.5 -21.5q43 -2 54 17z" />
<glyph unicode="U" horiz-adv-x="414" d="M439 335q16 5 29 -6.5t10 -27.5q-3 -18 -12.5 -37.5t-28.5 -50t-21 -34.5l-77 -134q32 -23 16 -46q-13 -19 -37 -12q-15 4 -25 20q-16 24 -11 63q-76 -89 -141 -94q-55 -6 -73 31.5t3 84.5q17 45 75 124t75 124q-5 1 -14 0l-9 -2q-42 -8 -80 -34.5t-55 -62.5 q28 -12 22 -44t-40 -28q-29 2 -41.5 19t-10.5 40t12.5 45.5t24.5 36.5q38 38 89 64.5t99 25.5q120 -3 36 -152q-17 -31 -96 -144q-37 -54 -37 -67q2 0 5 -1q4 -1 3 -1q13 0 25.5 3.5t25.5 12.5t23 16.5t23 22t19 22t19 23.5t16 20q13 16 48.5 60.5t55.5 67.5l20 24l10 11 q13 13 25 17z" />
<glyph unicode="V" horiz-adv-x="404" d="M421 339q47 -22 17 -102q-22 -54 -63 -112t-100.5 -103.5t-114.5 -46.5q-36 0 -55 19.5t-18.5 48.5t11.5 62q15 37 60.5 101t60.5 99q15 37 -15 34q-37 -3 -91 -47q-34 -27 -43 -49q17 -6 19 -25.5t-11.5 -35.5t-35.5 -13q-28 2 -38 19.5t-4.5 40.5t18 45.5t27.5 37.5 q37 39 87.5 64.5t96.5 23.5q37 -3 52 -26.5t8.5 -58t-18.5 -66t-29 -59.5q-3 -5 -18 -25q-83 -113 -65 -127q3 -3 10 -3q20 0 45.5 19t37 32.5t33.5 40.5q57 74 78 127q0 7 2 12q-19 24 0.5 57t55.5 16z" />
<glyph unicode="W" horiz-adv-x="590" d="M592 344q32 1 40.5 -28.5t-2.5 -58.5q-22 -87 -98.5 -174.5t-158.5 -105.5q-68 -13 -87 47q-64 -48 -121 -49q-36 0 -55.5 19.5t-19.5 48.5t10 62q14 37 58.5 101t58.5 99q15 36 -14 34q-37 -3 -91 -47q-34 -27 -43 -49q18 -6 20.5 -25.5t-11 -35.5t-35.5 -13 q-29 2 -39.5 19.5t-5 40.5t17.5 45.5t27 37.5q37 39 87 64.5t95 23.5q38 -3 53 -26.5t9.5 -58t-17.5 -66t-28 -59.5q-3 -5 -18 -26q-79 -111 -62 -126q4 -3 11 -3q30 1 64.5 26.5t57.5 55.5q0 1 1 1q0 1 3 10q8 29 29.5 78t51 93.5t49.5 39.5q50 -13 19 -102 q-37 -93 -118 -174q0 -29 29 -28q33 1 88 64q91 98 105 167q-18 18 -5 48t45 30z" />
<glyph unicode="X" horiz-adv-x="420" d="M481 371q39 -13 29 -43q-7 -22 -27 -26q-13 -1 -21 8q-21 -4 -61 -50q-20 -24 -56 -71t-45 -58q-6 -14 -10 -25t-8 -26.5t-2.5 -24.5t9.5 -10q15 14 29 46.5t22 43.5q12 15 32 14.5t30 -16.5q4 -5 5.5 -10t0.5 -10.5t-1 -9t-4 -10t-5 -8.5t-6.5 -9t-6.5 -8q-4 -5 -14 -20 t-16.5 -22.5t-16.5 -18t-21 -16t-24 -6.5q-28 -3 -48.5 13t-28.5 43q-136 -116 -204 -42q-30 40 -10 86t62 66q37 18 56 2q10 -8 11.5 -16t-5.5 -15.5t-12 -11.5t-15 -10q-44 -24 -46 -46q-1 -11 5 -16t16 -3q18 0 36.5 8.5t40 29.5t28.5 29t28 33l15 19q22 82 24 88 q10 29 0.5 61.5t-42.5 36.5q-29 2 -55.5 -13.5t-36.5 -43.5q-5 -13 -0.5 -24.5t18.5 -11.5q8 0 15.5 12.5t7.5 19.5q-4 25 14.5 37.5t39 4.5t20.5 -33q2 -44 -31 -78t-76 -28q-45 7 -61.5 35t-7.5 61t32 63.5t51 42.5q59 29 115.5 5t72.5 -90l3 -16q24 27 51 51 q60 51 105 37z" />
<glyph unicode="Y" horiz-adv-x="418" d="M417 313q18 27 41 23t18 -42q-28 -103 -130 -245q-33 -47 -58.5 -77t-69 -59.5t-88.5 -33.5q-45 -3 -76 13q-21 11 -35 48q-17 44 16 48q6 1 12 0q17 -2 27 -24.5t34 -24.5q23 -1 52 14q52 28 97 87h-1q-28 -18 -61.5 -19t-58.5 19t-26 58q-1 66 55 139q10 13 19 28.5 t21 36t17 29.5q4 5 -7 7q-32 7 -79 -18q-51 -27 -74 -77q18 -5 23 -24.5t-6.5 -36t-33.5 -13.5q-29 2 -42 24t-10 48t16 47q31 50 87.5 82.5t113.5 28.5q43 -4 62.5 -26.5t15.5 -55t-17 -64t-32 -57.5q-2 -3 -10 -13q-71 -95 -38 -102q3 -1 8 -1q13 1 27 7t28.5 19.5t23 22 t24 27t17.5 21.5q47 56 89 121q5 12 9 15zM61 235q1 3 0 4q0 -3 -1 -4h1z" />
<glyph unicode="Z" horiz-adv-x="431" d="M382 360q85 38 115 11q13 -13 5 -33q-21 -48 -99 -106q-51 -39 -161 -105q19 -19 31 -51q1 -2 2.5 -6t2.5 -6t3.5 -4t6.5 -2q4 -4 15.5 -0.5t18 6.5t17.5 9t14 7q24 10 47 -4t3 -37q0 -1 -2 -3l-2 -2q1 1 1 2q-76 -80 -145 -59q-43 13 -66 69q-1 2 -3 6.5t-3 6t-3 3.5 t-6 2q-50 -1 -121 -72q-2 -2 -7.5 -10t-11.5 -11q-14 -7 -27.5 2.5t-12.5 25.5q-5 46 72 108q48 40 203 134q14 9 44 25.5t40 22.5q-19 5 -53.5 27.5t-56.5 26.5q-57 0 -57 -29q0 -11 15 -21.5t23 0.5q0 24 23 32t33 -24q1 -19 -12.5 -35.5t-32.5 -21.5q-39 -9 -70.5 19 t-20.5 67q10 39 36.5 64t64.5 24q26 0 69 -35t68 -23z" />
<glyph unicode="[" horiz-adv-x="377" d="M461 466q13 -1 20.5 -11.5t2.5 -23.5q-8 -20 -34 -22q-4 0 -20.5 1.5t-29 1t-14.5 -5.5q-27 -51 -69 -125q-90 -160 -169 -281q6 -1 24.5 -2.5t27.5 -4.5q14 -4 17 -16.5t-6 -24t-24 -12.5q-52 -3 -100 3q-15 2 -21.5 9t-3 21t6 19.5t11.5 21.5l3 6q35 62 38 67t91 152 q17 27 47 76t43 70q7 11 18.5 32.5t18.5 32.5q19 27 36 27q15 0 43.5 -5.5t42.5 -5.5z" />
<glyph unicode="\" horiz-adv-x="324" d="M189 380q1 -117 26 -278q1 -5 11 -50t8 -66q-2 -16 -20.5 -22t-36.5 1.5t-18 23.5q-3 15 -4 33t-1 39.5t-1 32.5q-7 77 -20 174q-1 5 -11 49.5t-8 65.5q1 13 13 20.5t25.5 6.5t25 -9t11.5 -21z" />
<glyph unicode="]" horiz-adv-x="417" d="M31 -50q-13 1 -20 11.5t-3 23.5q8 22 35 22q4 0 20 -1.5t28.5 -1t15.5 5.5q46 84 70 125q110 190 171 281q-6 1 -24 2.5t-27 4.5q-21 7 -15.5 29t27.5 24q51 3 102 -3q16 -2 22 -10t1 -22.5t-8.5 -22t-12.5 -22.5q-17 -32 -39 -67q-34 -60 -93 -152q-40 -68 -89 -146 q-7 -11 -20 -32.5t-19 -32.5q-7 -11 -9.5 -14t-10 -8t-15.5 -5q-15 0 -44 5.5t-43 5.5z" />
<glyph unicode="^" horiz-adv-x="311" d="M289 228q5 -5 -0.5 -21t-17.5 -24t-32 4q-23 18 -25 54q-7 -3 -16.5 -10.5t-20.5 -17.5t-15 -13q-12 -10 -24.5 -15.5t-25.5 -2t-21 18.5q-2 10 -3.5 15t5.5 12t11 9.5t13.5 7.5t12.5 7q55 32 101 78q18 17 32.5 7.5t17.5 -31.5q0 -1 -2 -18.5t0 -34.5t10 -25z" />
<glyph unicode="_" horiz-adv-x="573" d="M482 -19q-119 6 -254 4q-155 -5 -175 -1q-11 2 -14 14.5t5.5 24t26.5 10.5l181 -4h155q53 2 82 -1q18 -2 21 -14t-6.5 -22.5t-21.5 -10.5z" />
<glyph unicode="`" horiz-adv-x="208" d="M109 373q4 -5 11.5 -16t14 -19t13.5 -15q17 -14 6.5 -31t-31.5 -7q-55 25 -69 51q-13 25 11.5 41.5t43.5 -4.5z" />
<glyph unicode="a" horiz-adv-x="257" d="M279 146q13 14 23 3q10 -13 -3 -28q-8 -8 -28 -31.5t-34 -37.5t-33 -31t-36.5 -24.5t-32.5 -4.5q-29 6 -26 44q-32 -36 -65 -36q-39 0 -50 29t2 66t38 67q39 45 80.5 69t69.5 12q18 -7 25 -26q4 6 5 7q31 29 51 22q17 -4 23 -19.5t-12 -41.5q-100 -112 -88 -124 q9 -9 91 85zM58 51q9 -9 74 70q54 66 43 76q-10 10 -71 -63q-15 -19 -27 -38t-16.5 -31t-2.5 -14z" />
<glyph unicode="b" horiz-adv-x="245" d="M267 146q12 14 23 3q10 -13 -3 -28q-14 -16 -48 -54q-31 -35 -46 -44.5t-41 -5.5q-8 1 -14 6q-54 -37 -93 -20q-15 6 -22 20q-24 -31 -57 -31q-40 0 -6 63q12 21 30 45q3 4 115 172q11 16 30 46q23 35 33 49t27.5 33t24.5 14t24 -8q8 -7 10 -15t-1.5 -18t-10 -20.5 t-17 -24t-21.5 -26t-24.5 -30.5t-24.5 -34q14 8 31 8q60 -1 60 -56.5t-57 -120.5l-4 -4q11 5 30 23q20 21 52 58zM54 49q12 -8 71 63q15 18 27 38t17 31.5t3 13.5q-10 10 -75 -70q-53 -66 -43 -76z" />
<glyph unicode="c" horiz-adv-x="226" d="M248 146q13 14 23 4q10 -13 -3 -29q-36 -39 -58 -60.5t-58 -42t-71 -20.5q-54 0 -73.5 42t8.5 96q29 57 78 86t92 29q34 0 48.5 -20t5.5 -50t-38 -57q-25 -23 -51 -10q-20 10 -10 27q2 4 6 7q11 10 18.5 20t9 15.5t-0.5 8.5q-3 3 -15 -2.5t-30 -19.5t-35 -34 q-26 -33 -23 -56.5t31 -25.5q58 -3 146 92z" />
<glyph unicode="d" horiz-adv-x="256" d="M279 146q12 14 23 3q10 -13 -3 -28q-8 -8 -28 -31.5t-34 -37.5t-33 -31t-36.5 -24.5t-33.5 -4.5q-31 6 -31 37q-31 -29 -59 -29q-39 0 -50 29t2 66t38 67q39 45 80.5 69t69.5 12q15 -5 24 -23q15 24 34 53q64 101 77 116q34 40 61 17q9 -7 11.5 -17t-2 -23t-11 -25.5 t-19.5 -30.5t-24 -32.5t-28.5 -37t-29.5 -38.5q-9 -12 -26 -34.5t-28 -36.5t-22 -30.5t-14.5 -26t0.5 -13.5q10 -9 92 85zM58 51q9 -9 74 70q54 66 43 76q-10 10 -71 -63q-15 -19 -27 -38t-16.5 -31t-2.5 -14z" />
<glyph unicode="e" horiz-adv-x="226" d="M248 146q13 14 23 4q10 -13 -3 -29q-36 -40 -58 -61t-57.5 -41.5t-70.5 -20.5q-54 0 -74 42.5t9 95.5q30 58 78.5 86.5t91.5 28.5q52 0 56.5 -43t-40.5 -84q-54 -51 -127 -51q6 -17 26 -19q60 -4 146 92zM175 192q-3 3 -15 -2.5t-30 -19.5t-35 -34q-6 -6 -9 -12 q34 11 51 22q13 9 22.5 19.5t13.5 17.5t2 9z" />
<glyph unicode="f" horiz-adv-x="160" d="M223 328q21 -17 13 -47t-28.5 -61.5t-52.5 -65.5t-59 -58.5t-47 -39.5h2q2 -1 3 -1q53 8 129 91q13 14 23 4q10 -13 -3 -29q-43 -48 -76.5 -77t-71.5 -40q-16 -65 -62 -123.5t-95 -58.5q-20 0 -28.5 10t-7 27.5t10 38.5t22.5 45q84 141 167 265q55 81 94 113t67 7z M194 283q0 1 -31 -41t-61.5 -84.5t-30.5 -43.5q1 -1 12.5 9t32 32t38.5 47t28 45t11.5 27.5t0.5 8.5zM-65 -112q7 -13 33 33q28 49 36 88q-16 -22 -33 -51t-27 -48.5t-9 -21.5z" />
<glyph unicode="g" horiz-adv-x="251" d="M273 146q12 14 23 3q10 -13 -3 -28q-10 -10 -31 -34.5t-31 -34.5q-40 -44 -114 -89q-2 -4 -13 -20q-5 -7 -14.5 -21.5t-15.5 -23t-15.5 -22t-16.5 -21.5t-16 -18t-16.5 -14.5t-15.5 -8t-15.5 -2t-13.5 7.5q-23 20 12 70.5t89 100.5q8 12 12 19q-18 -10 -35 -10 q-39 0 -50 29t2 66t38 67q39 45 80.5 69t69.5 12q16 -6 23 -21q29 27 50 9q17 -10 13 -29.5t-36 -62.5q-16 -20 -67 -100q18 15 53 48q19 19 54 59zM57 51q9 -9 74 70q54 66 43 76q-10 10 -71 -63q-15 -19 -27 -38t-16.5 -31t-2.5 -14z" />
<glyph unicode="h" horiz-adv-x="228" d="M270 121q-8 -8 -28 -31.5t-34 -37.5t-33 -31t-36.5 -24.5t-33.5 -4.5q-26 5 -33 22.5t0.5 39.5t24.5 46q13 18 32.5 39.5t28.5 33t6 15.5q-5 6 -33.5 -20.5t-53.5 -53.5l-1 -1v-1q-41 -69 -49 -80q-29 -40 -63 -40q-38 0 -8 58q11 23 32 50q15 20 33.5 48.5t43 66 t38.5 58.5q12 17 32 48q49 75 68 88q20 13 39 -3q9 -7 10.5 -16t-3 -19.5t-12 -22t-20 -26.5t-24.5 -30t-27 -34.5t-26 -38.5q-6 -10 -10 -15q50 43 75 43q23 0 34.5 -19.5t-8.5 -54.5q-9 -14 -33 -44.5t-34 -47t-6 -20.5q10 -9 92 85q12 14 23 3q10 -13 -3 -28z" />
<glyph unicode="i" horiz-adv-x="118" d="M140 146q12 14 23 3q10 -13 -3 -28q-9 -9 -28.5 -31.5t-34 -37.5t-33 -31.5t-36 -24t-33.5 -4.5q-29 5 -32 34t21 63q16 22 48.5 74t41.5 61q31 29 51 22q17 -4 23.5 -19.5t-12.5 -41.5q-100 -112 -88 -124q10 -10 92 85zM216 367q31 -7 12 -45q-16 -34 -44 -47 q-13 -5 -22 -2q-26 0 -19 33q8 35 38 54q18 11 35 7z" />
<glyph unicode="j" horiz-adv-x="115" d="M138 146q12 14 23 3q10 -13 -3 -28q-10 -10 -31 -34.5t-31 -34.5q-40 -44 -114 -89q-2 -4 -13 -20q-5 -7 -14.5 -21.5t-15.5 -23t-15.5 -22t-16.5 -21.5t-16 -18t-16.5 -14.5t-15.5 -8t-15.5 -2t-13.5 7.5q-23 20 12 70.5t89 100.5q22 34 71.5 121t56.5 96q15 21 32.5 27 t29.5 -4q17 -10 13 -29.5t-36 -62.5q-22 -30 -67 -100q28 23 53 48q19 19 54 59zM198 358q32 -7 14 -46q-16 -35 -46 -49q-14 -6 -24 -3q-26 0 -19 33q8 37 39 57q18 12 36 8z" />
<glyph unicode="k" horiz-adv-x="250" d="M272 146q12 14 23 3q10 -13 -3 -28q-5 -6 -27.5 -31t-35 -37t-32.5 -29.5t-37 -25t-33 -6.5q-43 4 -51.5 45t17.5 75q9 12 24 24.5t29.5 21.5t27.5 16.5t20.5 13t5.5 7.5q-5 6 -56.5 -29.5t-66.5 -51.5l-1 -1v-1q-41 -69 -49 -80q-29 -40 -63 -40q-38 0 -8 58 q11 23 32 50q15 20 33.5 48.5t43 66t38.5 58.5q12 17 32 48q49 75 68 88q20 13 39 -3q9 -7 10.5 -16t-3 -19.5t-12 -22t-20 -26.5t-24.5 -30t-27 -34.5t-26 -38.5q-2 -3 -9 -14.5t-11 -18.5q86 68 121 68q22 0 34 -20t-8 -54q-13 -19 -47 -36t-60.5 -30t-26.5 -26 q0 -14 12 -24t23 -10q24 0 104 92z" />
<glyph unicode="l" horiz-adv-x="118" d="M241 406q9 -7 11.5 -17t-1.5 -23t-10.5 -25.5t-19.5 -30.5t-24.5 -32.5t-28.5 -37t-29 -38.5q-9 -12 -26 -34.5t-28 -36.5t-22 -30.5t-14.5 -26t0.5 -13.5q9 -9 91 85q13 14 24 3q10 -13 -3 -28q-9 -9 -28.5 -31.5t-34 -37.5t-33 -31.5t-36 -24t-33.5 -4.5 q-29 5 -31.5 33.5t20.5 63.5q16 25 56.5 88t61.5 96q66 101 77 115q34 41 61 18z" />
<glyph unicode="m" horiz-adv-x="339" d="M361 146q13 14 23 3q10 -13 -3 -28q-8 -8 -28 -31.5t-34 -37.5t-33 -31t-36.5 -24.5t-32.5 -4.5q-26 5 -33.5 22.5t0 39.5t24.5 46q13 17 32.5 39t28.5 33.5t6 15.5q-6 8 -62 -48q-37 -55 -74 -108q-17 -24 -27 -32t-28 -8q-35 0 -17 47q10 27 36 61q13 17 32.5 39 t28 33.5t5.5 15.5q-4 6 -32 -19.5t-53 -52.5q-37 -55 -58 -84q-17 -24 -27 -32t-27 -8q-34 0 -18 46q10 28 36 62q50 69 67 102q2 3 4.5 8.5t3.5 8t3.5 6.5t3.5 6t3 5t3.5 4t4 3t4.5 2.5t5 1t6 0.5q13 0 25 -9t14 -24q42 33 74 33q11 0 22.5 -7.5t15.5 -20.5q39 28 67 28 q22 0 34.5 -19.5t-7.5 -54.5q-8 -11 -21 -28t-22 -29t-17.5 -24t-12 -20t-0.5 -11q9 -9 91 85z" />
<glyph unicode="n" horiz-adv-x="234" d="M255 146q13 14 24 3q10 -13 -3 -28q-9 -9 -28.5 -31.5t-34 -37.5t-33 -31.5t-36 -24t-33.5 -4.5q-26 5 -33.5 22.5t0 39.5t25.5 46q12 18 31.5 39.5t28.5 33t6 15.5q-4 6 -32 -19.5t-53 -52.5q-37 -55 -58 -84q-17 -24 -27 -32t-27 -8q-34 0 -18 46q10 28 36 62 q50 69 67 102q2 3 4.5 8.5t3.5 8t3.5 6.5t3.5 6t3 5t3.5 4t4 3t4.5 2.5t5 1t6 0.5q13 0 25 -9t14 -24q42 33 74 33q22 0 34 -19.5t-8 -54.5q-10 -14 -33.5 -44.5t-33.5 -47t-6 -20.5q9 -9 91 85z" />
<glyph unicode="o" d="M261 146q13 14 24 3q10 -13 -3 -28q-7 -7 -14.5 -15.5t-17.5 -20t-16 -18.5q-24 -26 -32.5 -34t-22.5 -13t-32 -2q-8 1 -14 6q-37 -26 -68 -26q-51 0 -65.5 43t16.5 95q30 51 74.5 83t81.5 32q42 0 59 -31t-9 -90q-19 -36 -44 -66q13 6 31 25q19 20 52 57zM70 54 q15 0 64 63q52 68 38 74q-1 1 -3 1q-20 0 -66.5 -63t-36.5 -74q2 -1 4 -1z" />
<glyph unicode="p" d="M262 146q12 14 23 4q10 -13 -3 -29q-8 -9 -25.5 -28.5t-22.5 -25.5q-23 -25 -32 -33.5t-22.5 -13.5t-32.5 -2q-8 2 -14 6q-53 -37 -92 -20q-14 4 -21 17q-4 -7 -20.5 -33t-25.5 -41q-7 -11 -14.5 -26l-12.5 -25t-11.5 -20.5t-12 -16.5t-12.5 -10t-15.5 -3.5t-18.5 5.5 q-24 12 38 113q11 17 17 27q16 26 45.5 77t53 91t29.5 49q34 46 62 23q6 -4 8 -6q24 22 51 22q40 0 54 -26.5t0 -67.5t-51 -83q-1 -2 -4 -5q12 6 30 24q31 32 52 57zM50 50q9 -9 71 63q15 19 26.5 38t16.5 31t3 14q-10 9 -74 -70q-55 -67 -43 -76z" />
<glyph unicode="q" horiz-adv-x="252" d="M274 146q12 14 23 3q10 -13 -3 -28q-8 -8 -29.5 -32t-33.5 -37q-41 -45 -111 -87q-3 -6 -11 -18q-7 -11 -14.5 -26l-12.5 -25t-11.5 -20.5t-12 -16.5t-12.5 -10t-15.5 -3.5t-18.5 5.5q-24 12 38 113q11 17 17 27q4 7 12 19q-18 -10 -35 -10q-39 0 -50 29t2 66t38 67 q39 45 80.5 69t69.5 12q16 -6 23 -21q29 27 50 9q17 -10 13 -29.5t-36 -62.5q-27 -36 -68 -101q38 34 53 49q27 27 55 59zM58 51q9 -9 74 70q54 66 43 76q-10 10 -71 -63q-15 -19 -27 -38t-16.5 -31t-2.5 -14z" />
<glyph unicode="r" horiz-adv-x="187" d="M209 146q12 14 23 3q10 -13 -3 -28q-8 -8 -28 -31.5t-34 -37.5t-33 -31t-36.5 -24.5t-33.5 -4.5q-29 5 -32 34t21 63q12 16 58 88q-13 0 -19 2q-47 -56 -75 -85q-13 -14 -23 -3q-11 12 4 28q25 28 66 87q-8 29 14 68t46 39q27 0 29.5 -25.5t-18.5 -53.5l-10 -14 q9 2 26 10q11 9 22 14q13 5 22 2q9 -2 16.5 -9.5t7.5 -21.5t-14 -30q-34 -39 -64 -78t-24 -46q10 -9 92 85z" />
<glyph unicode="s" horiz-adv-x="153" d="M175 146q12 14 23 3q12 -12 -3 -28q-5 -5 -20.5 -22.5t-21.5 -24t-20.5 -21.5t-22 -21.5t-21 -16.5t-23 -14.5t-21.5 -8t-24 -3.5h-5q-23 0 -44.5 12t-29.5 30q-10 21 12 37q20 13 29 -1q8 -15 20 -16t22 14t30 66l-37 -37q-13 -14 -23 -4q-11 12 3 29q16 17 45 54t41 51 q16 31 38.5 43.5t35.5 -0.5q17 -16 7.5 -42t-34.5 -42q-13 -52 -25 -104q0 -2 -0.5 -4t-0.5 -3q12 10 70 74z" />
<glyph unicode="t" horiz-adv-x="132" d="M208 374q9 -3 16.5 -10.5t7.5 -21t-14 -29.5q-24 -28 -50 -66q4 0 9.5 -0.5t6.5 -0.5q13 -1 3 -23q-10 -19 -23 -20q-3 0 -12.5 0.5t-14.5 0.5q-96 -137 -87 -145q14 -15 102 87q14 15 25 3.5t-3 -27.5q-8 -9 -28.5 -32t-34.5 -37.5t-33.5 -31t-37 -24t-32.5 -4.5 q-31 5 -39 33.5t16 62.5q10 15 75 117h-15q-13 0 -4 21.5t23 22.5h24q59 92 69 101q30 28 51 23z" />
<glyph unicode="u" horiz-adv-x="237" d="M259 146q12 14 23 3q10 -13 -3 -28q-9 -9 -28.5 -31.5t-34 -37.5t-33 -31.5t-36 -24t-33.5 -4.5q-17 3 -23 19.5t0 37.5q-66 -62 -101 -57q-28 7 -25.5 42.5t28.5 71.5q15 20 41 64t36 54q30 28 51 22q9 -2 16.5 -9.5t7.5 -21.5t-14 -30q-34 -39 -64 -78t-24 -46 q7 -6 50.5 37t63.5 71l1 1q25 43 36 54q30 28 51 22q9 -2 16.5 -9.5t7.5 -21.5t-14 -30q-34 -39 -64 -78t-24 -46q10 -9 92 85z" />
<glyph unicode="v" horiz-adv-x="238" d="M260 146q13 14 23 3q10 -13 -3 -28q-38 -44 -48 -54q-54 -61 -86 -50q-13 4 -20 16q-48 -41 -85 -41q-63 0 -43 85q16 74 69 143q1 1 2 3q24 30 51 23q10 -3 17.5 -10.5t7.5 -21t-14 -29.5q-16 -19 -35 -51t-29.5 -57t-3.5 -25q22 0 94 117q2 3 6.5 11t8 13t9.5 14 t10.5 14t12 12.5t12.5 9t13.5 4.5t14.5 -1q10 -3 17.5 -10.5t7.5 -21t-14 -29.5q-6 -7 -37 -48t-54 -66q-2 -5 0 -6q10 -11 44 23q13 13 52 58z" />
<glyph unicode="w" horiz-adv-x="363" d="M385 146q12 14 23 3q10 -13 -3 -28q-14 -16 -48 -54q-53 -60 -87 -50q-14 5 -20 16q-48 -41 -85 -41q-39 0 -46 36q-45 -36 -78 -36q-63 0 -43 85q16 74 69 143q1 1 2 3q24 30 51 23q10 -3 17.5 -10.5t7.5 -21t-14 -29.5q-16 -19 -35 -51t-29.5 -57t-3.5 -25q22 0 91 108 q18 37 40 63q24 30 51 23q9 -3 16.5 -10.5t7.5 -21t-14 -29.5q-16 -19 -35 -51t-29 -57t-4 -25q4 0 9 2.5t10.5 8.5l11 12t12 15t11.5 16t12 17.5t10.5 16.5t9.5 16t8 13q2 2 6.5 10.5t8 13.5t9.5 14t10.5 14t12 12.5t13 9t14 4.5t14.5 -1q9 -3 16.5 -10.5t7.5 -21 t-14 -29.5q-3 -3 -35 -45.5t-56 -68.5q-2 -5 1 -6q10 -10 44 23q20 21 52 58z" />
<glyph unicode="x" horiz-adv-x="244" d="M265 146q13 14 24 3q10 -13 -3 -28q-8 -9 -28.5 -31.5t-34.5 -37.5t-33 -31.5t-36.5 -24t-32.5 -4.5q-23 5 -28 47q-37 -25 -64 -38t-39 10t9 44q7 7 18 12q42 19 77 45q4 55 -4 55q-4 0 -15 -11t-29.5 -32t-27.5 -30q-14 -15 -24 -2q-9 12 4 27q11 13 40 51.5t48.5 57.5 t37.5 19q41 0 45 -66q28 30 41 46q16 20 41 6q24 -15 15 -39q-3 -10 -13 -19q-6 -5 -37.5 -34t-49.5 -44q-2 -36 8 -36q17 0 91 85z" />
<glyph unicode="y" d="M262 146q12 14 23 3q10 -13 -3 -28q-10 -10 -31 -34.5t-31 -34.5q-40 -44 -114 -89q-2 -4 -13 -20q-5 -7 -14.5 -21.5t-15.5 -23t-15.5 -22t-16.5 -21.5t-16 -18t-16.5 -14.5t-15.5 -8t-15.5 -2t-13.5 7.5q-23 20 12 70.5t89 100.5q12 19 32 52q-61 -56 -95 -51 q-28 7 -25.5 42.5t28.5 71.5q17 22 42.5 65.5t34.5 52.5q31 29 51 22q17 -4 23 -19.5t-13 -41.5q-34 -39 -64 -78t-24 -46q7 -6 50.5 37t63.5 71q1 1 1 2q18 30 23 37q33 45 62 23q17 -10 13 -29.5t-36 -62.5q-16 -20 -67 -100q18 15 53 48q19 19 54 59z" />
<glyph unicode="z" horiz-adv-x="215" d="M218 247q5 4 14.5 -4.5t13.5 -24t-6 -36.5q-11 -23 -40 -51.5t-65 -51.5q19 -11 19 -44t-28 -80q-32 -47 -71 -76.5t-76 -29.5q-35 0 -51 30t-6 53q11 24 46.5 54.5t65.5 30.5q17 0 9 -29q-6 -22 -20 -33q-17 -12 -36.5 -32t-17.5 -25q2 -4 12 1.5t28 21t37 36.5 q21 23 33.5 44.5t14 34t-4.5 17.5q-1 0 -1 -1q-1 -1 -6.5 -5t-12.5 -7.5t-15 -4.5q-4 0 -7.5 4.5t-5.5 12t-2 16t5.5 17t15.5 13.5q22 11 45.5 31.5t36.5 36.5t10 19q-4 -2 -9.5 -4t-23 -5.5t-28.5 2.5q-54 -64 -74 -84q-13 -14 -23 -3q-11 12 4 28q25 28 66 87q-8 29 14 68 t46 39q27 0 29.5 -25.5t-18.5 -53.5q-1 -1 -2.5 -3.5t-2.5 -3.5q36 -16 88 20z" />
<glyph unicode="{" horiz-adv-x="356" d="M428 464q18 -8 16 -29t-21 -25q-6 -2 -20 -3.5t-22 -4.5q-17 -6 -31.5 -17.5t-26 -29t-18.5 -30t-18 -36t-15 -31.5v-2q-30 -54 -57 -74q0 -20 -15 -50q-5 -9 -20 -34.5t-23.5 -45.5t-8.5 -38q0 -10 10.5 -13.5t25.5 -5t20 -3.5q16 -8 14 -27t-19 -24q-47 -13 -84 17 t-31 78q3 21 11 43.5t21.5 50t19.5 41.5q-18 13 -14.5 35.5t24.5 29.5q4 1 13 2t13 3q9 5 24 25q5 8 40.5 69.5t64.5 87.5q36 32 81 40q30 7 46 1zM272 257v1v-1z" />
<glyph unicode="|" horiz-adv-x="363" d="M210 460q-10 -131 -6 -328q0 -78 5 -175q3 -13 0.5 -23.5t-15.5 -17.5q-14 -7 -28 0t-13 18q-2 18 2 78t4 73q2 129 1 193q-2 106 -5 159q-3 13 -1 22t15 16q10 5 19.5 2t15.5 -8.5t6 -8.5z" />
<glyph unicode="}" horiz-adv-x="396" d="M47 -59q-19 8 -17 28.5t22 25.5q5 1 19.5 2.5t22.5 4.5q17 6 31 17.5t26 29.5t19 30t18 37t15 32q26 53 56 74q1 19 15 51q5 10 20 35t24 45t9 37q0 10 -10.5 14t-25.5 5.5t-20 3.5q-16 8 -14 26.5t19 23.5q48 13 84.5 -16.5t30.5 -77.5q-3 -22 -11.5 -44t-21.5 -49.5 t-19 -41.5q18 -14 14.5 -36t-24.5 -30q-2 0 -11.5 -1t-14.5 -4q-12 -6 -24 -24q-5 -8 -41 -70t-64 -87q-37 -34 -82 -41q-33 -6 -45 0z" />
<glyph unicode="~" horiz-adv-x="445" d="M330 150q26 7 38 -12t-3 -38q-8 -10 -17 -17t-16 -12t-17.5 -7.5t-16.5 -4.5t-18 -0.5t-16.5 2t-18.5 5t-18 5.5t-19.5 7t-19.5 7q-25 9 -43 5q-3 -1 -13.5 -6.5t-15.5 -6.5q-22 -10 -36.5 9t-0.5 38q61 76 179 19q23 -12 38 -8q6 1 18 7.5t16 7.5z" />
<glyph unicode="&#xa2;" horiz-adv-x="360" d="M377 372q18 -18 19 -47t-8 -53.5t-23 -46.5q-19 -31 -28 -36q-19 -19 -40.5 -1t-5.5 40q2 3 10 13.5t15 19t16.5 22.5t13 23.5t6.5 21t-4 15.5l-2 2l-145 -210q-50 -74 -74 -111q21 5 44 25q33 25 58 58q1 1 10.5 17t19 23t20.5 3q24 -8 24.5 -28t-11.5 -37.5t-30 -35.5 q-32 -32 -79.5 -53t-86.5 -17q-1 -1 -1 -2q-2 -3 -7.5 -12t-11 -15.5t-10.5 -10.5q-16 -10 -23 -0.5t-3 29.5q1 7 13 27q-20 16 -28 44q-22 64 8 131t86 118q41 37 100 72t107 32q19 32 27 38q8 12 20.5 10.5t17.5 -11.5t-2 -23l-20 -28zM78 36q39 61 134 195l75 106 q-63 -28 -121 -103.5t-82 -147.5q-1 -2 -5 -16t-4 -18t3 -16z" />
<glyph unicode="&#xa3;" horiz-adv-x="396" d="M406 404q36 -10 42 -48.5t-10 -68.5q-16 -41 -57 -78q-14 -13 -32 -8.5t-22.5 18.5t8.5 30q72 66 64 106q-6 26 -40 2q-19 -12 -28 -27q-22 -35 -67 -130h7q2 0 11 -0.5t12.5 -1t9.5 -3.5t9 -8q8 -15 -2.5 -24.5t-25.5 -7.5l-42 3q-31 -58 -58 -90q5 -20 15 -20 q32 1 79 50q41 38 60 5q3 -10 4.5 -15.5t-5 -15.5t-10.5 -14.5t-12.5 -12.5t-11.5 -11q-22 -22 -56 -37.5t-63 -15.5q-49 0 -60 36l-5 -3q-14 -8 -30 -13t-35 -3.5t-29 14.5q-27 36 15 79t82 47q19 0 32 -7q3 6 7 15.5t5 12.5q-35 -2 -44 14q-8 15 3 29t27 10l34 -5 q59 139 136 185q42 24 83 12zM116 62v11q-10 7 -31 -7.5t-17 -22.5q5 -8 20.5 -1t27.5 20z" />
<glyph unicode="&#xa5;" horiz-adv-x="320" d="M376 398q18 -6 20.5 -24.5t-11.5 -29.5q-71 -48 -167 -161q26 -2 31 -13q8 -15 -2 -24.5t-26 -7.5l-38 3q-74 -94 -110 -141q-22 -27 -45 -16.5t-4 44.5q30 55 71 114q-26 -2 -35 14q-8 15 3 29t27 10l29 -4q-16 53 -24 123q-6 42 -1 54q9 21 32 20.5t31 -21.5 q19 -56 29 -112q1 1 29 32q60 62 119 98q26 17 42 13z" />
<glyph unicode="&#xa8;" horiz-adv-x="279" d="M129 327q-5 -15 -19.5 -26t-30.5 -11t-24 11t-3 26q4 15 19 25.5t31 10.5t24 -10.5t3 -25.5zM227 327q-5 -15 -19.5 -26t-30.5 -11t-24 11t-3 26t19.5 25.5t30.5 10.5t24 -10.5t3 -25.5z" />
<glyph unicode="&#xb4;" horiz-adv-x="210" d="M152 330q-45 -40 -68 -47q-11 -5 -21.5 1t-11.5 17q-1 9 14 24q6 6 19 26t23 27q23 17 43.5 -4.5t1.5 -43.5z" />
<glyph unicode="&#xb8;" horiz-adv-x="199" d="M127 7l-9 -17q28 -18 30 -42.5t-12 -40.5t-28 -16q-34 0 -57 39q-2 3 5.5 10.5t16.5 12t11 1.5q6 -10 18.5 -17.5t18.5 -7.5q4 0 -1 7t-17 20t-14 15q-4 4 0.5 13.5t10.5 17.5l6 7z" />
<glyph unicode="&#xc0;" horiz-adv-x="368" d="M370 222q10 -11 4 -30.5t-15 -32.5t-22.5 -31t-18.5 -27q-17 -30 -35 -78q9 -10 4.5 -27t-18.5 -23.5t-34 5.5q-20 14 -18 51q-29 -20 -48 -30q-34 -18 -68 -21.5t-60.5 15.5t-30.5 62q-11 124 143 255q153 127 236 70q33 -22 37 -51.5t-11.5 -55t-44.5 -51.5zM96 35 q38 -2 79.5 33t77.5 86q-3 0 -13 2q-33 11 -28 47t40 42q21 3 45 10t46.5 23.5t18.5 37.5q-3 17 -21 18.5t-34.5 -4.5t-29.5 -13q-77 -48 -150 -156q-43 -61 -49 -100q-4 -26 18 -26zM369 526q4 -5 11.5 -16t14 -19t13.5 -15q17 -14 6.5 -31t-31.5 -7q-55 25 -69 51 q-13 25 11.5 41.5t43.5 -4.5z" />
<glyph unicode="&#xc1;" horiz-adv-x="368" d="M370 222q10 -11 4 -30.5t-15 -32.5t-22.5 -31t-18.5 -27q-17 -30 -35 -78q9 -10 4.5 -27t-18.5 -23.5t-34 5.5q-20 14 -18 51q-29 -20 -48 -30q-34 -18 -68 -21.5t-60.5 15.5t-30.5 62q-11 124 143 255q153 127 236 70q33 -22 37 -51.5t-11.5 -55t-44.5 -51.5zM96 35 q38 -2 79.5 33t77.5 86q-3 0 -13 2q-33 11 -28 47t40 42q21 3 45 10t46.5 23.5t18.5 37.5q-3 17 -21 18.5t-34.5 -4.5t-29.5 -13q-77 -48 -150 -156q-43 -61 -49 -100q-4 -26 18 -26zM452 483q-45 -40 -68 -47q-11 -5 -21.5 1t-11.5 17q-1 9 14 24q6 6 19 26t23 27 q23 17 43.5 -4.5t1.5 -43.5z" />
<glyph unicode="&#xc2;" horiz-adv-x="368" d="M370 222q10 -11 4 -30.5t-15 -32.5t-22.5 -31t-18.5 -27q-17 -30 -35 -78q9 -10 4.5 -27t-18.5 -23.5t-34 5.5q-20 14 -18 51q-29 -20 -48 -30q-34 -18 -68 -21.5t-60.5 15.5t-30.5 62q-11 124 143 255q153 127 236 70q33 -22 37 -51.5t-11.5 -55t-44.5 -51.5zM96 35 q38 -2 79.5 33t77.5 86q-3 0 -13 2q-33 11 -28 47t40 42q21 3 45 10t46.5 23.5t18.5 37.5q-3 17 -21 18.5t-34.5 -4.5t-29.5 -13q-77 -48 -150 -156q-43 -61 -49 -100q-4 -26 18 -26zM443 456q3 -3 -3.5 -11.5t-15.5 -12.5t-19 3q-11 7 1 33q-8 -7 -42 -31q-25 -19 -36 5 q-10 17 13 30q32 18 53 41q9 11 27 5t18 -22l-1 -6q0 -7 -0.5 -12.5t1 -12t4.5 -9.5z" />
<glyph unicode="&#xc3;" horiz-adv-x="368" d="M370 222q10 -11 4 -30.5t-15 -32.5t-22.5 -31t-18.5 -27q-17 -30 -35 -78q9 -10 4.5 -27t-18.5 -23.5t-34 5.5q-20 14 -18 51q-29 -20 -48 -30q-34 -18 -68 -21.5t-60.5 15.5t-30.5 62q-11 124 143 255q153 127 236 70q33 -22 37 -51.5t-11.5 -55t-44.5 -51.5zM96 35 q38 -2 79.5 33t77.5 86q-3 0 -13 2q-33 11 -28 47t40 42q21 3 45 10t46.5 23.5t18.5 37.5q-3 17 -21 18.5t-34.5 -4.5t-29.5 -13q-77 -48 -150 -156q-43 -61 -49 -100q-4 -26 18 -26zM312 454q8 21 26.5 33.5t40.5 6.5q4 -2 19.5 -12.5t24.5 -9.5q3 0 13.5 3.5t13.5 2.5 q17 3 12 -14q-3 -12 -11 -22q-35 -33 -79 -1q-12 8 -23.5 4.5t-22.5 -3.5t-14 12z" />
<glyph unicode="&#xc4;" horiz-adv-x="368" d="M370 222q10 -11 4 -30.5t-15 -32.5t-22.5 -31t-18.5 -27q-17 -30 -35 -78q9 -10 4.5 -27t-18.5 -23.5t-34 5.5q-20 14 -18 51q-29 -20 -48 -30q-34 -18 -68 -21.5t-60.5 15.5t-30.5 62q-11 124 143 255q153 127 236 70q33 -22 37 -51.5t-11.5 -55t-44.5 -51.5zM96 35 q38 -2 79.5 33t77.5 86q-3 0 -13 2q-33 11 -28 47t40 42q21 3 45 10t46.5 23.5t18.5 37.5q-3 17 -21 18.5t-34.5 -4.5t-29.5 -13q-77 -48 -150 -156q-43 -61 -49 -100q-4 -26 18 -26zM381 468q-5 -15 -19.5 -26t-30.5 -11t-24 11t-3 26q4 15 19 25.5t31 10.5t24 -10.5 t3 -25.5zM479 468q-5 -15 -19.5 -26t-30.5 -11t-24 11t-3 26t19.5 25.5t30.5 10.5t24 -10.5t3 -25.5z" />
<glyph unicode="&#xc5;" horiz-adv-x="368" d="M370 222q10 -11 4 -30.5t-15 -32.5t-22.5 -31t-18.5 -27q-17 -30 -35 -78q9 -10 4.5 -27t-18.5 -23.5t-34 5.5q-20 14 -18 51q-29 -20 -48 -30q-34 -18 -68 -21.5t-60.5 15.5t-30.5 62q-11 124 143 255q153 127 236 70q33 -22 37 -51.5t-11.5 -55t-44.5 -51.5zM96 35 q38 -2 79.5 33t77.5 86q-3 0 -13 2q-33 11 -28 47t40 42q21 3 45 10t46.5 23.5t18.5 37.5q-3 17 -21 18.5t-34.5 -4.5t-29.5 -13q-77 -48 -150 -156q-43 -61 -49 -100q-4 -26 18 -26zM383 413q-23 0 -30.5 19.5t7.5 42.5q21 33 62 33q24 1 32.5 -18.5t-5.5 -39.5 q-22 -37 -66 -37zM397 470q-10 -13 -15.5 -25.5t0.5 -12.5q7 1 19 15t19.5 27.5t2.5 14.5q-9 1 -26 -19z" />
<glyph unicode="&#xc6;" horiz-adv-x="728" d="M370 222q10 -11 4 -30.5t-15 -32.5t-22.5 -31t-18.5 -27q-17 -30 -35 -78q9 -10 4.5 -27t-18.5 -23.5t-34 5.5q-20 14 -18 51q-29 -20 -48 -30q-34 -18 -68 -21.5t-60.5 15.5t-30.5 62q-11 124 143 255q153 127 236 70q33 -22 37 -51.5t-11.5 -55t-44.5 -51.5zM96 35 q38 -2 79.5 33t77.5 86q-3 0 -13 2q-33 11 -28 47t40 42q21 3 45 10t46.5 23.5t18.5 37.5q-3 17 -21 18.5t-34.5 -4.5t-29.5 -13q-77 -48 -150 -156q-43 -61 -49 -100q-4 -26 18 -26zM687 398q48 -9 66.5 -45t1 -74.5t-62.5 -52.5q-39 -13 -57 18q-14 25 2 42q10 12 30 10 q32 1 34 26q2 18 -40 18q-51 -2 -81 -52q-9 -14 -6 -30q24 2 39 -8q19 -13 13.5 -34.5t-26.5 -27.5q-19 -4 -38 2q-39 -13 -72 -44t-43 -68q-6 -19 9 -34.5t48 -15.5q26 0 65 22t65 47.5t20 34.5q-7 11 -42 -12q-3 -2 -17.5 -13t-23.5 -16.5t-22 -11.5t-23 -3t-17 14 q-20 31 32 62q53 32 107 28q41 -3 49 -32q13 -46 -14 -87.5t-77.5 -65t-106.5 -23.5q-69 0 -109.5 32t-23.5 99q17 64 87 107q31 20 60 32q-12 29 -6 53q11 55 67 84t113 19z" />
<glyph unicode="&#xc7;" horiz-adv-x="391" d="M326 138q16 10 32 -2t12 -31q-7 -31 -49.5 -61.5t-84.5 -48.5q-47 -19 -92 -19q20 -21 18.5 -41t-14.5 -34.5t-26 -14.5q-34 0 -57 39q-2 3 5.5 10.5t16.5 12t11 1.5q6 -10 18.5 -17.5t18.5 -7.5q4 0 -1 7t-17 20t-14 15q-4 4 1 14q-43 12 -67 45q-37 53 -8 140 q9 24 23 50q-39 38 -31 72.5t44 59.5t77 26q33 2 62 -12q85 46 161 38q62 -7 79 -51.5t-20 -91.5q-43 -55 -131 -77t-166 -1q-5 -9 -13 -27q-29 -67 -14 -94q12 -21 36.5 -24.5t52 6.5t50 22t35.5 23q7 6 24 26.5t28 27.5zM383 326q2 4 -3 7.5t-13.5 4.5t-14 1.5t-9.5 0.5 q-39 -2 -89 -32q3 -10 2 -18q0 -18 -17 -21.5t-25 10.5q-27 -21 -52 -51q69 -2 137.5 26.5t83.5 71.5zM70 268q2 -5 10 -13q34 44 77 76q-4 1 -11 1q-30 0 -61.5 -19t-14.5 -45z" />
<glyph unicode="&#xc8;" horiz-adv-x="360" d="M319 398q48 -9 66.5 -45t1 -74.5t-62.5 -52.5q-39 -13 -57 18q-14 25 2 42q10 12 30 10q32 1 34 26q2 18 -40 18q-51 -2 -81 -52q-9 -14 -6 -30q24 2 39 -8q19 -13 13.5 -34.5t-26.5 -27.5q-19 -4 -38 2q-39 -13 -72 -44t-43 -68q-6 -19 9 -34.5t48 -15.5q26 0 65 22 t65 47.5t20 34.5q-7 11 -42 -12q-3 -2 -17.5 -13t-23.5 -16.5t-22 -11.5t-23 -3t-17 14q-20 31 32 62q53 32 107 28q41 -3 49 -32q13 -46 -14 -87.5t-77.5 -65t-106.5 -23.5q-69 0 -109.5 32t-23.5 99q17 64 87 107q31 20 60 32q-12 29 -6 53q11 55 67 84t113 19zM315 526 q4 -5 11.5 -16t14 -19t13.5 -15q17 -14 6.5 -31t-31.5 -7q-55 25 -69 51q-13 25 11.5 41.5t43.5 -4.5z" />
<glyph unicode="&#xc9;" horiz-adv-x="360" d="M319 398q48 -9 66.5 -45t1 -74.5t-62.5 -52.5q-39 -13 -57 18q-14 25 2 42q10 12 30 10q32 1 34 26q2 18 -40 18q-51 -2 -81 -52q-9 -14 -6 -30q24 2 39 -8q19 -13 13.5 -34.5t-26.5 -27.5q-19 -4 -38 2q-39 -13 -72 -44t-43 -68q-6 -19 9 -34.5t48 -15.5q26 0 65 22 t65 47.5t20 34.5q-7 11 -42 -12q-3 -2 -17.5 -13t-23.5 -16.5t-22 -11.5t-23 -3t-17 14q-20 31 32 62q53 32 107 28q41 -3 49 -32q13 -46 -14 -87.5t-77.5 -65t-106.5 -23.5q-69 0 -109.5 32t-23.5 99q17 64 87 107q31 20 60 32q-12 29 -6 53q11 55 67 84t113 19zM408 483 q-45 -40 -68 -47q-11 -5 -21.5 1t-11.5 17q-1 9 14 24q6 6 19 26t23 27q23 17 43.5 -4.5t1.5 -43.5z" />
<glyph unicode="&#xca;" horiz-adv-x="360" d="M319 398q48 -9 66.5 -45t1 -74.5t-62.5 -52.5q-39 -13 -57 18q-14 25 2 42q10 12 30 10q32 1 34 26q2 18 -40 18q-51 -2 -81 -52q-9 -14 -6 -30q24 2 39 -8q19 -13 13.5 -34.5t-26.5 -27.5q-19 -4 -38 2q-39 -13 -72 -44t-43 -68q-6 -19 9 -34.5t48 -15.5q26 0 65 22 t65 47.5t20 34.5q-7 11 -42 -12q-3 -2 -17.5 -13t-23.5 -16.5t-22 -11.5t-23 -3t-17 14q-20 31 32 62q53 32 107 28q41 -3 49 -32q13 -46 -14 -87.5t-77.5 -65t-106.5 -23.5q-69 0 -109.5 32t-23.5 99q17 64 87 107q31 20 60 32q-12 29 -6 53q11 55 67 84t113 19zM399 462 q3 -3 -3.5 -11.5t-15.5 -12.5t-19 3q-11 7 1 33q-8 -7 -42 -31q-25 -19 -36 5q-10 17 13 30q32 18 53 41q9 11 27 5t18 -22l-1 -6q0 -7 -0.5 -12.5t1 -12t4.5 -9.5z" />
<glyph unicode="&#xcb;" horiz-adv-x="360" d="M319 398q48 -9 66.5 -45t1 -74.5t-62.5 -52.5q-39 -13 -57 18q-14 25 2 42q10 12 30 10q32 1 34 26q2 18 -40 18q-51 -2 -81 -52q-9 -14 -6 -30q24 2 39 -8q19 -13 13.5 -34.5t-26.5 -27.5q-19 -4 -38 2q-39 -13 -72 -44t-43 -68q-6 -19 9 -34.5t48 -15.5q26 0 65 22 t65 47.5t20 34.5q-7 11 -42 -12q-3 -2 -17.5 -13t-23.5 -16.5t-22 -11.5t-23 -3t-17 14q-20 31 32 62q53 32 107 28q41 -3 49 -32q13 -46 -14 -87.5t-77.5 -65t-106.5 -23.5q-69 0 -109.5 32t-23.5 99q17 64 87 107q31 20 60 32q-12 29 -6 53q11 55 67 84t113 19zM349 480 q-5 -15 -19.5 -26t-30.5 -11t-24 11t-3 26q4 15 19 25.5t31 10.5t24 -10.5t3 -25.5zM447 480q-5 -15 -19.5 -26t-30.5 -11t-24 11t-3 26t19.5 25.5t30.5 10.5t23.5 -10.5t3.5 -25.5z" />
<glyph unicode="&#xcc;" horiz-adv-x="269" d="M340 300q-19 -26 -75 -129q-4 -8 -21 -40.5t-25 -47t-27 -41t-34.5 -38.5t-38.5 -21.5t-48 -7.5q-34 2 -56 25t-22 57q1 42 31.5 71.5t73.5 40.5q60 18 82 6q28 56 44 85q-12 0 -24 3q-24 5 -40 23t-15 42q0 35 28 65q21 18 40 -2t3 -40q-1 -2 -11.5 -11.5t-10.5 -14.5 q1 -20 35 -20q14 1 29 8q31 44 59 65.5t66 20.5q20 -1 29 -19t-7 -34q-7 -6 -31 -10q-4 -6 -17.5 -18.5t-16.5 -17.5zM75 35q24 -2 42.5 22.5t35.5 61.5h-3q-37 -1 -68.5 -16.5t-30.5 -47.5q0 -16 24 -20zM340 526q-19 21 -43.5 4.5t-11.5 -41.5q14 -26 69 -51 q21 -10 31.5 7t-6.5 31q-7 7 -13.5 15t-14 19t-11.5 16z" />
<glyph unicode="&#xcd;" horiz-adv-x="269" d="M340 300q-19 -26 -75 -129q-4 -8 -21 -40.5t-25 -47t-27 -41t-34.5 -38.5t-38.5 -21.5t-48 -7.5q-34 2 -56 25t-22 57q1 42 31.5 71.5t73.5 40.5q60 18 82 6q28 56 44 85q-12 0 -24 3q-24 5 -40 23t-15 42q0 35 28 65q21 18 40 -2t3 -40q-1 -2 -11.5 -11.5t-10.5 -14.5 q1 -20 35 -20q14 1 29 8q31 44 59 65.5t66 20.5q20 -1 29 -19t-7 -34q-7 -6 -31 -10q-4 -6 -17.5 -18.5t-16.5 -17.5zM75 35q24 -2 42.5 22.5t35.5 61.5h-3q-37 -1 -68.5 -16.5t-30.5 -47.5q0 -16 24 -20zM463 483q19 22 -1.5 43.5t-43.5 4.5q-10 -7 -23 -27t-19 -26 q-15 -15 -14 -24q1 -11 11.5 -17t21.5 -1q23 7 68 47z" />
<glyph unicode="&#xce;" horiz-adv-x="269" d="M340 300q-19 -26 -75 -129q-4 -8 -21 -40.5t-25 -47t-27 -41t-34.5 -38.5t-38.5 -21.5t-48 -7.5q-34 2 -56 25t-22 57q1 42 31.5 71.5t73.5 40.5q60 18 82 6q28 56 44 85q-12 0 -24 3q-24 5 -40 23t-15 42q0 35 28 65q21 18 40 -2t3 -40q-1 -2 -11.5 -11.5t-10.5 -14.5 q1 -20 35 -20q14 1 29 8q31 44 59 65.5t66 20.5q20 -1 29 -19t-7 -34q-7 -6 -31 -10q-4 -6 -17.5 -18.5t-16.5 -17.5zM75 35q24 -2 42.5 22.5t35.5 61.5h-3q-37 -1 -68.5 -16.5t-30.5 -47.5q0 -16 24 -20zM453 462q3 -3 -3.5 -11.5t-15.5 -12.5t-19 3q-11 7 1 33 q-8 -7 -42 -31q-25 -19 -36 5q-10 17 13 30q32 18 53 41q9 11 27 5t18 -22l-1 -6q0 -7 -0.5 -12.5t1 -12t4.5 -9.5z" />
<glyph unicode="&#xcf;" horiz-adv-x="269" d="M340 300q-19 -26 -75 -129q-4 -8 -21 -40.5t-25 -47t-27 -41t-34.5 -38.5t-38.5 -21.5t-48 -7.5q-34 2 -56 25t-22 57q1 42 31.5 71.5t73.5 40.5q60 18 82 6q28 56 44 85q-12 0 -24 3q-24 5 -40 23t-15 42q0 35 28 65q21 18 40 -2t3 -40q-1 -2 -11.5 -11.5t-10.5 -14.5 q1 -20 35 -20q14 1 29 8q31 44 59 65.5t66 20.5q20 -1 29 -19t-7 -34q-7 -6 -31 -10q-4 -6 -17.5 -18.5t-16.5 -17.5zM75 35q24 -2 42.5 22.5t35.5 61.5h-3q-37 -1 -68.5 -16.5t-30.5 -47.5q0 -16 24 -20zM364 480q-5 -15 -19.5 -26t-30.5 -11t-24 11t-3 26q4 15 19 25.5 t31 10.5t23.5 -10.5t3.5 -25.5zM462 480q4 15 -3.5 25.5t-23.5 10.5t-30.5 -10.5t-19.5 -25.5t3 -26t24 -11t30.5 11t19.5 26z" />
<glyph unicode="&#xd0;" horiz-adv-x="488" d="M111 203q-34 71 39 132q66 55 163 63q111 10 160 -54q32 -42 28 -109q-7 -88 -77 -161.5t-158 -93.5q-51 -11 -89 1q-17 5 -48 37q-24 -14 -46 -22.5t-44.5 -12t-34.5 9.5t-10 42q4 43 42.5 60.5t79.5 3.5l4 7q-42 2 -56 8q-6 4 -6.5 15.5t6.5 22.5t18 9q51 -11 67 -13 l8 12q-32 13 -46 43zM39 27q8 -10 37 21q-30 -2 -37 -21zM363 129q19 24 34.5 54.5t24 64.5t-8 59.5t-60.5 31.5q-63 7 -121 -29q-21 -13 -40 -34t-14 -36q-2 -14 19 -19q41 61 65 79q26 18 52 20q17 1 28 -12t7.5 -28.5t-23.5 -19.5q-16 -6 -32 -37q16 -8 15.5 -27.5 t-17.5 -26.5q-27 -11 -38 -13l-7 -10.5t-8 -11.5q3 -1 10 -2.5t10 -2.5q16 -4 8 -26t-20 -20q-7 1 -19.5 4t-18.5 4q-18 -23 -34 -39q20 -18 42 -17q70 4 146 94z" />
<glyph unicode="&#xd1;" horiz-adv-x="456" d="M473 354q71 -26 5 -151q-57 -115 -95 -166q13 -12 4.5 -31.5t-30.5 -20.5q-32 1 -41.5 30t0.5 55q15 56 62 125q5 7 12.5 18t14 19t14 18.5t11.5 17.5t8 14.5t3.5 10.5t-3.5 6q-24 9 -65.5 -25t-66.5 -78q-85 -145 -172 -200q-25 -16 -55.5 -19.5t-56 12t-28.5 50.5 q-4 42 25 75.5t72 49.5q35 12 82 15q13 0 21 -6q1 2 4 6.5t4 6.5q7 11 13 20.5t18 29.5t19 35.5t12.5 31.5t3 26t-12.5 11q-39 -1 -77.5 -29.5t-51.5 -66.5q-15 -71 -60 -42q-39 27 9 95q31 43 82.5 74t99.5 28q73 -3 75 -86q75 65 141 41zM68 35q42 1 93 84q-41 -2 -73 -18 t-37 -49q0 -6 4 -12t13 -5zM346 424q8 21 26.5 33.5t40.5 6.5q4 -2 19.5 -12.5t24.5 -9.5q3 0 13.5 3.5t13.5 2.5q17 3 12 -14q-3 -12 -11 -22q-35 -33 -79 -1q-12 8 -23.5 4.5t-22.5 -3.5t-14 12z" />
<glyph unicode="&#xd2;" horiz-adv-x="404" d="M384 322q32 -20 33 -75t-22 -93q-40 -73 -117.5 -126.5t-154.5 -52.5q-56 0 -86 43.5t-22 100.5q13 103 102 195t191 97q33 1 59 -12t32 -41q7 -23 -15 -36zM348 247q8 27 -11 21q-25 -8 -54 -41q-5 -6 -7 -10q-3 -4 -7 -13t-7 -14t-9.5 -10t-15.5 -7q-18 -4 -31.5 9 t-10.5 32q6 31 45.5 65.5t72.5 45.5q17 5 30 6q1 9 -4.5 14t-13 5t-14.5 -1q-77 -10 -152 -116q-7 -10 -17 -26.5t-23.5 -44t-21 -51t-5 -44.5t19.5 -29q35 -16 80 11.5t74.5 63t51.5 71.5q24 39 30 63zM324 526q4 -5 11.5 -16t14 -19t13.5 -15q17 -14 6.5 -31t-31.5 -7 q-55 25 -69 51q-13 25 11.5 41.5t43.5 -4.5z" />
<glyph unicode="&#xd3;" horiz-adv-x="404" d="M384 322q32 -20 33 -75t-22 -93q-40 -73 -117.5 -126.5t-154.5 -52.5q-56 0 -86 43.5t-22 100.5q13 103 102 195t191 97q33 1 59 -12t32 -41q7 -23 -15 -36zM348 247q8 27 -11 21q-25 -8 -54 -41q-5 -6 -7 -10q-3 -4 -7 -13t-7 -14t-9.5 -10t-15.5 -7q-18 -4 -31.5 9 t-10.5 32q6 31 45.5 65.5t72.5 45.5q17 5 30 6q1 9 -4.5 14t-13 5t-14.5 -1q-77 -10 -152 -116q-7 -10 -17 -26.5t-23.5 -44t-21 -51t-5 -44.5t19.5 -29q35 -16 80 11.5t74.5 63t51.5 71.5q24 39 30 63zM420 483q-45 -40 -68 -47q-11 -5 -21.5 1t-11.5 17q-1 9 14 24 q6 6 19 26t23 27q23 17 43.5 -4.5t1.5 -43.5z" />
<glyph unicode="&#xd4;" horiz-adv-x="404" d="M384 322q32 -20 33 -75t-22 -93q-40 -73 -117.5 -126.5t-154.5 -52.5q-56 0 -86 43.5t-22 100.5q13 103 102 195t191 97q33 1 59 -12t32 -41q7 -23 -15 -36zM348 247q8 27 -11 21q-25 -8 -54 -41q-5 -6 -7 -10q-3 -4 -7 -13t-7 -14t-9.5 -10t-15.5 -7q-18 -4 -31.5 9 t-10.5 32q6 31 45.5 65.5t72.5 45.5q17 5 30 6q1 9 -4.5 14t-13 5t-14.5 -1q-77 -10 -152 -116q-7 -10 -17 -26.5t-23.5 -44t-21 -51t-5 -44.5t19.5 -29q35 -16 80 11.5t74.5 63t51.5 71.5q24 39 30 63zM408 462q3 -3 -3.5 -11.5t-15.5 -12.5t-19 3q-11 7 1 33 q-8 -7 -42 -31q-25 -19 -36 5q-10 17 13 30q32 18 53 41q9 11 27 5t18 -22v-6q-1 -7 -1.5 -12.5t1 -12t4.5 -9.5z" />
<glyph unicode="&#xd5;" horiz-adv-x="404" d="M384 322q32 -20 33 -75t-22 -93q-40 -73 -117.5 -126.5t-154.5 -52.5q-56 0 -86 43.5t-22 100.5q13 103 102 195t191 97q33 1 59 -12t32 -41q7 -23 -15 -36zM348 247q8 27 -11 21q-25 -8 -54 -41q-5 -6 -7 -10q-3 -4 -7 -13t-7 -14t-9.5 -10t-15.5 -7q-18 -4 -31.5 9 t-10.5 32q6 31 45.5 65.5t72.5 45.5q17 5 30 6q1 9 -4.5 14t-13 5t-14.5 -1q-77 -10 -152 -116q-7 -10 -17 -26.5t-23.5 -44t-21 -51t-5 -44.5t19.5 -29q35 -16 80 11.5t74.5 63t51.5 71.5q24 39 30 63zM311 474q8 21 26.5 33.5t40.5 6.5q4 -2 19.5 -12.5t24.5 -9.5 q3 0 13.5 3.5t13.5 2.5q17 3 13 -14q-4 -12 -12 -22q-35 -33 -79 -1q-12 8 -23.5 4.5t-22.5 -3.5t-14 12z" />
<glyph unicode="&#xd6;" horiz-adv-x="404" d="M384 322q32 -20 33 -75t-22 -93q-40 -73 -117.5 -126.5t-154.5 -52.5q-56 0 -86 43.5t-22 100.5q13 103 102 195t191 97q33 1 59 -12t32 -41q7 -23 -15 -36zM348 247q8 27 -11 21q-25 -8 -54 -41q-5 -6 -7 -10q-3 -4 -7 -13t-7 -14t-9.5 -10t-15.5 -7q-18 -4 -31.5 9 t-10.5 32q6 31 45.5 65.5t72.5 45.5q17 5 30 6q1 9 -4.5 14t-13 5t-14.5 -1q-77 -10 -152 -116q-7 -10 -17 -26.5t-23.5 -44t-21 -51t-5 -44.5t19.5 -29q35 -16 80 11.5t74.5 63t51.5 71.5q24 39 30 63zM367 480q-5 -15 -19.5 -26t-30.5 -11t-24 11t-3 26q4 15 19 25.5 t31 10.5t24 -10.5t3 -25.5zM465 480q-5 -15 -19.5 -26t-30.5 -11t-24 11t-3 26t19.5 25.5t30.5 10.5t23.5 -10.5t3.5 -25.5z" />
<glyph unicode="&#xd9;" horiz-adv-x="414" d="M439 335q16 5 29 -6.5t10 -27.5q-3 -18 -12.5 -37.5t-28.5 -50t-21 -34.5l-77 -134q32 -23 16 -46q-13 -19 -37 -12q-15 4 -25 20q-16 24 -11 63q-76 -89 -141 -94q-55 -6 -73 31.5t3 84.5q17 45 75 124t75 124q-5 1 -14 0l-9 -2q-42 -8 -80 -34.5t-55 -62.5 q28 -12 22 -44t-40 -28q-29 2 -41.5 19t-10.5 40t12.5 45.5t24.5 36.5q38 38 89 64.5t99 25.5q120 -3 36 -152q-17 -31 -96 -144q-37 -54 -37 -67q2 0 5 -1q4 -1 3 -1q13 0 25.5 3.5t25.5 12.5t23 16.5t23 22t19 22t19 23.5t16 20q13 16 48.5 60.5t55.5 67.5l20 24l10 11 q13 13 25 17zM352 476q4 -5 11.5 -16t14 -19t13.5 -15q17 -14 6.5 -31t-31.5 -7q-55 25 -69 51q-13 25 11.5 41.5t43.5 -4.5z" />
<glyph unicode="&#xda;" horiz-adv-x="414" d="M439 335q16 5 29 -6.5t10 -27.5q-3 -18 -12.5 -37.5t-28.5 -50t-21 -34.5l-77 -134q32 -23 16 -46q-13 -19 -37 -12q-15 4 -25 20q-16 24 -11 63q-76 -89 -141 -94q-55 -6 -73 31.5t3 84.5q17 45 75 124t75 124q-5 1 -14 0l-9 -2q-42 -8 -80 -34.5t-55 -62.5 q28 -12 22 -44t-40 -28q-29 2 -41.5 19t-10.5 40t12.5 45.5t24.5 36.5q38 38 89 64.5t99 25.5q120 -3 36 -152q-17 -31 -96 -144q-37 -54 -37 -67q2 0 5 -1q4 -1 3 -1q13 0 25.5 3.5t25.5 12.5t23 16.5t23 22t19 22t19 23.5t16 20q13 16 48.5 60.5t55.5 67.5l20 24l10 11 q13 13 25 17zM445 413q-45 -40 -68 -47q-11 -5 -21.5 1t-11.5 17q-1 9 14 24q6 6 19 26t23 27q23 17 43.5 -4.5t1.5 -43.5z" />
<glyph unicode="&#xdb;" horiz-adv-x="414" d="M439 335q16 5 29 -6.5t10 -27.5q-3 -18 -12.5 -37.5t-28.5 -50t-21 -34.5l-77 -134q32 -23 16 -46q-13 -19 -37 -12q-15 4 -25 20q-16 24 -11 63q-76 -89 -141 -94q-55 -6 -73 31.5t3 84.5q17 45 75 124t75 124q-5 1 -14 0l-9 -2q-42 -8 -80 -34.5t-55 -62.5 q28 -12 22 -44t-40 -28q-29 2 -41.5 19t-10.5 40t12.5 45.5t24.5 36.5q38 38 89 64.5t99 25.5q120 -3 36 -152q-17 -31 -96 -144q-37 -54 -37 -67q2 0 5 -1q4 -1 3 -1q13 0 25.5 3.5t25.5 12.5t23 16.5t23 22t19 22t19 23.5t16 20q13 16 48.5 60.5t55.5 67.5l20 24l10 11 q13 13 25 17zM436 392q3 -3 -3.5 -11.5t-15.5 -12.5t-19 3q-11 7 1 33q-8 -7 -42 -31q-25 -19 -36 5q-10 17 13 30q32 18 53 41q9 11 27 5t18 -22v-6q-1 -7 -1.5 -12.5t1 -12t4.5 -9.5z" />
<glyph unicode="&#xdc;" horiz-adv-x="414" d="M439 335q16 5 29 -6.5t10 -27.5q-3 -18 -12.5 -37.5t-28.5 -50t-21 -34.5l-77 -134q32 -23 16 -46q-13 -19 -37 -12q-15 4 -25 20q-16 24 -11 63q-76 -89 -141 -94q-55 -6 -73 31.5t3 84.5q17 45 75 124t75 124q-5 1 -14 0l-9 -2q-42 -8 -80 -34.5t-55 -62.5 q28 -12 22 -44t-40 -28q-29 2 -41.5 19t-10.5 40t12.5 45.5t24.5 36.5q38 38 89 64.5t99 25.5q120 -3 36 -152q-17 -31 -96 -144q-37 -54 -37 -67q2 0 5 -1q4 -1 3 -1q13 0 25.5 3.5t25.5 12.5t23 16.5t23 22t19 22t19 23.5t16 20q13 16 48.5 60.5t55.5 67.5l20 24l10 11 q13 13 25 17zM383 405q-5 -15 -19.5 -26t-30.5 -11t-24 11t-3 26q4 15 19 25.5t31 10.5t24 -10.5t3 -25.5zM481 405q-5 -15 -19.5 -26t-30.5 -11t-24 11t-3 26t19.5 25.5t30.5 10.5t24 -10.5t3 -25.5z" />
<glyph unicode="&#xdd;" horiz-adv-x="418" d="M417 313q18 27 41 23t18 -42q-28 -103 -130 -245q-33 -47 -58.5 -77t-69 -59.5t-88.5 -33.5q-45 -3 -76 13q-21 11 -35 48q-17 44 16 48q6 1 12 0q17 -2 27 -24.5t34 -24.5q23 -1 52 14q52 28 97 87h-1q-28 -18 -61.5 -19t-58.5 19t-26 58q-1 66 55 139q10 13 19 28.5 t21 36t17 29.5q4 5 -7 7q-32 7 -79 -18q-51 -27 -74 -77q18 -5 23 -24.5t-6.5 -36t-33.5 -13.5q-29 2 -42 24t-10 48t16 47q31 50 87.5 82.5t113.5 28.5q43 -4 62.5 -26.5t15.5 -55t-17 -64t-32 -57.5q-2 -3 -10 -13q-71 -95 -38 -102q3 -1 8 -1q13 1 27 7t28.5 19.5t23 22 t24 27t17.5 21.5q47 56 89 121q5 12 9 15zM61 235q1 3 0 4q0 -3 -1 -4h1zM439 412q-45 -40 -68 -47q-11 -5 -21.5 1t-11.5 17q-1 9 14 24q6 6 19 26t23 27q23 17 43.5 -4.5t1.5 -43.5z" />
<glyph unicode="&#xe0;" horiz-adv-x="258" d="M280 146q13 14 23 3q10 -13 -3 -28q-8 -8 -28 -31.5t-34 -37.5t-33 -31t-36.5 -24.5t-32.5 -4.5q-29 6 -26 44q-32 -36 -65 -36q-39 0 -50 29t2 66t38 67q39 45 80.5 69t69.5 12q18 -7 25 -26q4 6 5 7q31 29 51 22q17 -4 23 -19.5t-12 -41.5q-100 -112 -88 -124 q9 -9 91 85zM59 51q9 -9 74 70q54 66 43 76q-10 10 -71 -63q-15 -19 -27 -38t-16.5 -31t-2.5 -14zM208 360q4 -5 11.5 -16t14 -19t13.5 -15q17 -14 6.5 -31t-31.5 -7q-55 25 -69 51q-13 25 11.5 41.5t43.5 -4.5z" />
<glyph unicode="&#xe1;" horiz-adv-x="258" d="M280 146q13 14 23 3q10 -13 -3 -28q-8 -8 -28 -31.5t-34 -37.5t-33 -31t-36.5 -24.5t-32.5 -4.5q-29 6 -26 44q-32 -36 -65 -36q-39 0 -50 29t2 66t38 67q39 45 80.5 69t69.5 12q18 -7 25 -26q4 6 5 7q31 29 51 22q17 -4 23 -19.5t-12 -41.5q-100 -112 -88 -124 q9 -9 91 85zM59 51q9 -9 74 70q54 66 43 76q-10 10 -71 -63q-15 -19 -27 -38t-16.5 -31t-2.5 -14zM285 319q-45 -40 -68 -47q-11 -5 -21.5 1t-11.5 17q-1 9 14 24q6 6 19 26t23 27q23 17 43.5 -4.5t1.5 -43.5z" />
<glyph unicode="&#xe2;" horiz-adv-x="258" d="M280 146q13 14 23 3q10 -13 -3 -28q-8 -8 -28 -31.5t-34 -37.5t-33 -31t-36.5 -24.5t-32.5 -4.5q-29 6 -26 44q-32 -36 -65 -36q-39 0 -50 29t2 66t38 67q39 45 80.5 69t69.5 12q18 -7 25 -26q4 6 5 7q31 29 51 22q17 -4 23 -19.5t-12 -41.5q-100 -112 -88 -124 q9 -9 91 85zM59 51q9 -9 74 70q54 66 43 76q-10 10 -71 -63q-15 -19 -27 -38t-16.5 -31t-2.5 -14zM299 303q3 -3 -3.5 -11.5t-15.5 -12.5t-19 3q-11 7 1 33q-8 -7 -42 -31q-25 -19 -36 5q-10 17 13 30q32 18 53 41q9 11 27 5t18 -22l-1 -7q0 -6 -0.5 -11.5t1 -12t4.5 -9.5z " />
<glyph unicode="&#xe3;" horiz-adv-x="258" d="M280 146q13 14 23 3q10 -13 -3 -28q-8 -8 -28 -31.5t-34 -37.5t-33 -31t-36.5 -24.5t-32.5 -4.5q-29 6 -26 44q-32 -36 -65 -36q-39 0 -50 29t2 66t38 67q39 45 80.5 69t69.5 12q18 -7 25 -26q4 6 5 7q31 29 51 22q17 -4 23 -19.5t-12 -41.5q-100 -112 -88 -124 q9 -9 91 85zM59 51q9 -9 74 70q54 66 43 76q-10 10 -71 -63q-15 -19 -27 -38t-16.5 -31t-2.5 -14zM158 300q8 21 26.5 33.5t40.5 6.5q4 -2 19.5 -12.5t24.5 -9.5q3 0 13.5 3.5t13.5 2.5q17 3 12 -14q-3 -12 -11 -22q-35 -33 -79 -1q-12 8 -23.5 4.5t-22.5 -3.5t-14 12z" />
<glyph unicode="&#xe4;" horiz-adv-x="258" d="M280 146q13 14 23 3q10 -13 -3 -28q-8 -8 -28 -31.5t-34 -37.5t-33 -31t-36.5 -24.5t-32.5 -4.5q-29 6 -26 44q-32 -36 -65 -36q-39 0 -50 29t2 66t38 67q39 45 80.5 69t69.5 12q18 -7 25 -26q4 6 5 7q31 29 51 22q17 -4 23 -19.5t-12 -41.5q-100 -112 -88 -124 q9 -9 91 85zM59 51q9 -9 74 70q54 66 43 76q-10 10 -71 -63q-15 -19 -27 -38t-16.5 -31t-2.5 -14zM230 315q-5 -15 -19.5 -26t-30.5 -11t-24 11t-3 26q4 15 19 25.5t31 10.5t24 -10.5t3 -25.5zM328 315q-5 -15 -19.5 -26t-30.5 -11t-24 11t-3 26t19.5 25.5t30.5 10.5 t23.5 -10.5t3.5 -25.5z" />
<glyph unicode="&#xe5;" horiz-adv-x="258" d="M280 146q13 14 23 3q10 -13 -3 -28q-8 -8 -28 -31.5t-34 -37.5t-33 -31t-36.5 -24.5t-32.5 -4.5q-29 6 -26 44q-32 -36 -65 -36q-39 0 -50 29t2 66t38 67q39 45 80.5 69t69.5 12q18 -7 25 -26q4 6 5 7q31 29 51 22q17 -4 23 -19.5t-12 -41.5q-100 -112 -88 -124 q9 -9 91 85zM59 51q9 -9 74 70q54 66 43 76q-10 10 -71 -63q-15 -19 -27 -38t-16.5 -31t-2.5 -14zM221 276q-23 0 -30.5 20t7.5 42q21 33 62 33q24 1 32.5 -18.5t-5.5 -39.5q-22 -37 -66 -37zM235 333q-10 -13 -15.5 -25.5t0.5 -12.5q7 1 19 15t19.5 27.5t2.5 14.5 q-9 1 -26 -19z" />
<glyph unicode="&#xe6;" horiz-adv-x="484" d="M506 146q13 14 23 4q10 -13 -3 -29q-36 -40 -58 -61t-57.5 -41.5t-70.5 -20.5q-37 0 -59 21t-23 55q-77 -89 -122 -82q-29 6 -26 44q-32 -36 -65 -36q-39 0 -50 29t2 66t38 67q39 45 80.5 69t69.5 12q18 -7 25 -26l5 7q31 29 51 22q17 -4 23 -19.5t-12 -41.5 q-100 -112 -88 -124q9 -9 91 85l2 2q31 52 77 77.5t86 25.5q52 0 56.5 -43t-40.5 -84q-54 -51 -127 -51q6 -17 26 -19q60 -4 146 92zM59 51q9 -9 74 70q54 66 43 76q-10 10 -71 -63q-15 -19 -27 -38t-16.5 -31t-2.5 -14zM433 192q-3 3 -15 -2.5t-30 -19.5t-35 -34 q-6 -6 -9 -12q34 11 51 22q13 9 22.5 19.5t13.5 17.5t2 9z" />
<glyph unicode="&#xe7;" horiz-adv-x="226" d="M248 146q13 14 23 4q10 -13 -3 -29q-35 -39 -57 -60t-57 -41.5t-69 -21.5q27 -18 29 -42.5t-12 -40t-28 -15.5q-34 0 -57 39q-2 3 5.5 10.5t16.5 12t11 1.5q6 -10 18.5 -17.5t18.5 -7.5q4 0 -1 7t-17 20t-14 15q-6 6 4 20q-42 9 -54.5 48t11.5 88q29 57 78 86t92 29 q34 0 48.5 -20t5.5 -50t-38 -57q-25 -23 -51 -10q-20 10 -10 27q2 4 6 7q11 10 18.5 20t9 15.5t-0.5 8.5q-3 3 -15 -2.5t-30 -19.5t-35 -34q-26 -33 -23 -56.5t31 -25.5q58 -3 146 92z" />
<glyph unicode="&#xe8;" horiz-adv-x="226" d="M248 146q13 14 23 4q10 -13 -3 -29q-36 -40 -58 -61t-57.5 -41.5t-70.5 -20.5q-54 0 -74 42.5t9 95.5q30 58 78.5 86.5t91.5 28.5q52 0 56.5 -43t-40.5 -84q-54 -51 -127 -51q6 -17 26 -19q60 -4 146 92zM175 192q-3 3 -15 -2.5t-30 -19.5t-35 -34q-6 -6 -9 -12 q34 11 51 22q13 9 22.5 19.5t13.5 17.5t2 9zM180 360q4 -5 11.5 -16t14 -19t13.5 -15q17 -14 6.5 -31t-31.5 -7q-55 25 -69 51q-13 25 11.5 41.5t43.5 -4.5z" />
<glyph unicode="&#xe9;" horiz-adv-x="226" d="M248 146q13 14 23 4q10 -13 -3 -29q-36 -40 -58 -61t-57.5 -41.5t-70.5 -20.5q-54 0 -74 42.5t9 95.5q30 58 78.5 86.5t91.5 28.5q52 0 56.5 -43t-40.5 -84q-54 -51 -127 -51q6 -17 26 -19q60 -4 146 92zM175 192q-3 3 -15 -2.5t-30 -19.5t-35 -34q-6 -6 -9 -12 q34 11 51 22q13 9 22.5 19.5t13.5 17.5t2 9zM271 319q-45 -40 -68 -47q-11 -5 -21.5 1t-11.5 17q-1 9 14 24q6 6 19 26t23 27q23 17 43.5 -4.5t1.5 -43.5z" />
<glyph unicode="&#xea;" horiz-adv-x="226" d="M248 146q13 14 23 4q10 -13 -3 -29q-36 -40 -58 -61t-57.5 -41.5t-70.5 -20.5q-54 0 -74 42.5t9 95.5q30 58 78.5 86.5t91.5 28.5q52 0 56.5 -43t-40.5 -84q-54 -51 -127 -51q6 -17 26 -19q60 -4 146 92zM175 192q-3 3 -15 -2.5t-30 -19.5t-35 -34q-6 -6 -9 -12 q34 11 51 22q13 9 22.5 19.5t13.5 17.5t2 9zM263 296q3 -3 -3.5 -11.5t-15.5 -12.5t-19 3q-11 7 1 33q-8 -7 -42 -31q-25 -19 -36 5q-10 17 13 30q32 18 53 41q9 11 27 5t18 -22l-1 -6q0 -7 -0.5 -12.5t1 -12t4.5 -9.5z" />
<glyph unicode="&#xeb;" horiz-adv-x="226" d="M248 146q13 14 23 4q10 -13 -3 -29q-36 -40 -58 -61t-57.5 -41.5t-70.5 -20.5q-54 0 -74 42.5t9 95.5q30 58 78.5 86.5t91.5 28.5q52 0 56.5 -43t-40.5 -84q-54 -51 -127 -51q6 -17 26 -19q60 -4 146 92zM175 192q-3 3 -15 -2.5t-30 -19.5t-35 -34q-6 -6 -9 -12 q34 11 51 22q13 9 22.5 19.5t13.5 17.5t2 9zM199 314q-5 -15 -19.5 -26t-30.5 -11t-24 11t-3 26q4 15 19 25.5t31 10.5t24 -10.5t3 -25.5zM297 314q-5 -15 -19.5 -26t-30.5 -11t-24 11t-3 26t19.5 25.5t30.5 10.5t24 -10.5t3 -25.5z" />
<glyph unicode="&#xec;" horiz-adv-x="118" d="M140 146q12 14 23 3q10 -13 -3 -28q-9 -9 -28.5 -31.5t-34 -37.5t-33 -31.5t-36 -24t-33.5 -4.5q-29 5 -32 34t21 63q16 22 48.5 74t41.5 61q31 29 51 22q17 -4 23.5 -19.5t-12.5 -41.5q-100 -112 -88 -124q10 -10 92 85zM135 363q4 -5 11.5 -16t14 -19t13.5 -15 q17 -14 6.5 -31t-31.5 -7q-55 25 -69 51q-13 25 11.5 41.5t43.5 -4.5z" />
<glyph unicode="&#xed;" horiz-adv-x="118" d="M140 146q12 14 23 3q10 -13 -3 -28q-9 -9 -28.5 -31.5t-34 -37.5t-33 -31.5t-36 -24t-33.5 -4.5q-29 5 -32 34t21 63q16 22 48.5 74t41.5 61q31 29 51 22q17 -4 23.5 -19.5t-12.5 -41.5q-100 -112 -88 -124q10 -10 92 85zM223 318q-45 -40 -68 -47q-11 -5 -21.5 1 t-11.5 17q-1 9 14 24q6 6 19 26t23 27q23 17 43.5 -4.5t1.5 -43.5z" />
<glyph unicode="&#xee;" horiz-adv-x="118" d="M140 146q12 14 23 3q10 -13 -3 -28q-9 -9 -28.5 -31.5t-34 -37.5t-33 -31.5t-36 -24t-33.5 -4.5q-29 5 -32 34t21 63q16 22 48.5 74t41.5 61q31 29 51 22q17 -4 23.5 -19.5t-12.5 -41.5q-100 -112 -88 -124q10 -10 92 85zM211 301q3 -3 -3.5 -11.5t-15.5 -12.5t-19 3 q-11 7 1 33q-8 -7 -42 -31q-25 -19 -36 5q-10 17 13 30q32 18 53 41q9 11 27 5t18 -22l-1 -7q0 -6 -0.5 -11.5t1 -12t4.5 -9.5z" />
<glyph unicode="&#xef;" horiz-adv-x="118" d="M140 146q12 14 23 3q10 -13 -3 -28q-9 -9 -28.5 -31.5t-34 -37.5t-33 -31.5t-36 -24t-33.5 -4.5q-29 5 -32 34t21 63q16 22 48.5 74t41.5 61q31 29 51 22q17 -4 23.5 -19.5t-12.5 -41.5q-100 -112 -88 -124q10 -10 92 85zM143 313q-5 -15 -19.5 -26t-30.5 -11t-24 11 t-3 26q4 15 19 25.5t31 10.5t24 -10.5t3 -25.5zM241 313q-5 -15 -19.5 -26t-30.5 -11t-24 11t-3 26t19.5 25.5t30.5 10.5t24 -10.5t3 -25.5z" />
<glyph unicode="&#xf1;" horiz-adv-x="234" d="M255 146q13 14 24 3q10 -13 -3 -28q-9 -9 -28.5 -31.5t-34 -37.5t-33 -31.5t-36 -24t-33.5 -4.5q-26 5 -33.5 22.5t0 39.5t25.5 46q12 18 31.5 39.5t28.5 33t6 15.5q-4 6 -32 -19.5t-53 -52.5q-37 -55 -58 -84q-17 -24 -27 -32t-27 -8q-34 0 -18 46q10 28 36 62 q50 69 67 102q2 3 4.5 8.5t3.5 8t3.5 6.5t3.5 6t3 5t3.5 4t4 3t4.5 2.5t5 1t6 0.5q13 0 25 -9t14 -24q42 33 74 33q22 0 34 -19.5t-8 -54.5q-10 -14 -33.5 -44.5t-33.5 -47t-6 -20.5q9 -9 91 85zM122 299q8 21 26.5 33.5t40.5 6.5q4 -2 19.5 -12.5t24.5 -9.5q3 0 13.5 3.5 t13.5 2.5q17 3 12 -13q-3 -13 -11 -23q-35 -33 -79 -1q-12 8 -23.5 4.5t-22.5 -3.5t-14 12z" />
<glyph unicode="&#xf2;" d="M261 146q13 14 24 3q10 -13 -3 -28q-7 -7 -14.5 -15.5t-17.5 -20t-16 -18.5q-24 -26 -32.5 -34t-22.5 -13t-32 -2q-8 1 -14 6q-37 -26 -68 -26q-51 0 -65.5 43t16.5 95q30 51 74.5 83t81.5 32q42 0 59 -31t-9 -90q-19 -36 -44 -66q13 6 31 25q19 20 52 57zM70 54 q15 0 64 63q52 68 38 74q-1 1 -3 1q-20 0 -66.5 -63t-36.5 -74q2 -1 4 -1zM208 353q4 -5 11.5 -16t14 -19t13.5 -15q17 -14 6.5 -31t-31.5 -7q-55 25 -69 51q-13 25 11.5 41.5t43.5 -4.5z" />
<glyph unicode="&#xf3;" d="M261 146q13 14 24 3q10 -13 -3 -28q-7 -7 -14.5 -15.5t-17.5 -20t-16 -18.5q-24 -26 -32.5 -34t-22.5 -13t-32 -2q-8 1 -14 6q-37 -26 -68 -26q-51 0 -65.5 43t16.5 95q30 51 74.5 83t81.5 32q42 0 59 -31t-9 -90q-19 -36 -44 -66q13 6 31 25q19 20 52 57zM70 54 q15 0 64 63q52 68 38 74q-1 1 -3 1q-20 0 -66.5 -63t-36.5 -74q2 -1 4 -1zM261 321q-45 -40 -68 -47q-11 -5 -21.5 1t-11.5 17q-1 9 14 24q6 6 19 26t23 27q23 17 43.5 -4.5t1.5 -43.5z" />
<glyph unicode="&#xf4;" d="M261 146q13 14 24 3q10 -13 -3 -28q-7 -7 -14.5 -15.5t-17.5 -20t-16 -18.5q-24 -26 -32.5 -34t-22.5 -13t-32 -2q-8 1 -14 6q-37 -26 -68 -26q-51 0 -65.5 43t16.5 95q30 51 74.5 83t81.5 32q42 0 59 -31t-9 -90q-19 -36 -44 -66q13 6 31 25q19 20 52 57zM70 54 q15 0 64 63q52 68 38 74q-1 1 -3 1q-20 0 -66.5 -63t-36.5 -74q2 -1 4 -1zM271 297q3 -3 -3.5 -11.5t-15.5 -12.5t-19 3q-11 7 1 33q-8 -7 -42 -31q-25 -19 -36 5q-10 17 13 30q32 18 53 41q9 11 27 5t18 -22l-1 -7q0 -6 -0.5 -11.5t1 -12t4.5 -9.5z" />
<glyph unicode="&#xf5;" d="M261 146q13 14 24 3q10 -13 -3 -28q-7 -7 -14.5 -15.5t-17.5 -20t-16 -18.5q-24 -26 -32.5 -34t-22.5 -13t-32 -2q-8 1 -14 6q-37 -26 -68 -26q-51 0 -65.5 43t16.5 95q30 51 74.5 83t81.5 32q42 0 59 -31t-9 -90q-19 -36 -44 -66q13 6 31 25q19 20 52 57zM70 54 q15 0 64 63q52 68 38 74q-1 1 -3 1q-20 0 -66.5 -63t-36.5 -74q2 -1 4 -1zM138 299q8 21 26.5 33.5t40.5 6.5q4 -2 19.5 -12.5t24.5 -9.5q3 0 13.5 3.5t13.5 2.5q17 3 12 -13q-3 -13 -11 -23q-35 -33 -79 -1q-12 8 -23.5 4.5t-22.5 -3.5t-14 12z" />
<glyph unicode="&#xf6;" d="M261 146q13 14 24 3q10 -13 -3 -28q-7 -7 -14.5 -15.5t-17.5 -20t-16 -18.5q-24 -26 -32.5 -34t-22.5 -13t-32 -2q-8 1 -14 6q-37 -26 -68 -26q-51 0 -65.5 43t16.5 95q30 51 74.5 83t81.5 32q42 0 59 -31t-9 -90q-19 -36 -44 -66q13 6 31 25q19 20 52 57zM70 54 q15 0 64 63q52 68 38 74q-1 1 -3 1q-20 0 -66.5 -63t-36.5 -74q2 -1 4 -1zM206 315q-5 -15 -19.5 -26t-30.5 -11t-24 11t-3 26q4 15 19 25.5t31 10.5t23.5 -10.5t3.5 -25.5zM304 315q-5 -15 -19.5 -26t-30.5 -11t-24 11t-3 26t19.5 25.5t30.5 10.5t23.5 -10.5t3.5 -25.5z " />
<glyph unicode="&#xf9;" horiz-adv-x="237" d="M259 146q12 14 23 3q10 -13 -3 -28q-9 -9 -28.5 -31.5t-34 -37.5t-33 -31.5t-36 -24t-33.5 -4.5q-17 3 -23 19.5t0 37.5q-66 -62 -101 -57q-28 7 -25.5 42.5t28.5 71.5q15 20 41 64t36 54q30 28 51 22q9 -2 16.5 -9.5t7.5 -21.5t-14 -30q-34 -39 -64 -78t-24 -46 q7 -6 50.5 37t63.5 71l1 1q25 43 36 54q30 28 51 22q9 -2 16.5 -9.5t7.5 -21.5t-14 -30q-34 -39 -64 -78t-24 -46q10 -9 92 85zM157 358q4 -5 11.5 -16t14 -19t13.5 -15q17 -14 6.5 -31t-31.5 -7q-55 25 -69 51q-13 25 11.5 41.5t43.5 -4.5z" />
<glyph unicode="&#xfa;" horiz-adv-x="237" d="M259 146q12 14 23 3q10 -13 -3 -28q-9 -9 -28.5 -31.5t-34 -37.5t-33 -31.5t-36 -24t-33.5 -4.5q-17 3 -23 19.5t0 37.5q-66 -62 -101 -57q-28 7 -25.5 42.5t28.5 71.5q15 20 41 64t36 54q30 28 51 22q9 -2 16.5 -9.5t7.5 -21.5t-14 -30q-34 -39 -64 -78t-24 -46 q7 -6 50.5 37t63.5 71l1 1q25 43 36 54q30 28 51 22q9 -2 16.5 -9.5t7.5 -21.5t-14 -30q-34 -39 -64 -78t-24 -46q10 -9 92 85zM262 317q-45 -40 -68 -47q-11 -5 -21.5 1t-11.5 17q-1 9 14 24q6 6 19 26t23 27q23 17 43.5 -4.5t1.5 -43.5z" />
<glyph unicode="&#xfb;" horiz-adv-x="237" d="M259 146q12 14 23 3q10 -13 -3 -28q-9 -9 -28.5 -31.5t-34 -37.5t-33 -31.5t-36 -24t-33.5 -4.5q-17 3 -23 19.5t0 37.5q-66 -62 -101 -57q-28 7 -25.5 42.5t28.5 71.5q15 20 41 64t36 54q30 28 51 22q9 -2 16.5 -9.5t7.5 -21.5t-14 -30q-34 -39 -64 -78t-24 -46 q7 -6 50.5 37t63.5 71l1 1q25 43 36 54q30 28 51 22q9 -2 16.5 -9.5t7.5 -21.5t-14 -30q-34 -39 -64 -78t-24 -46q10 -9 92 85zM251 296q3 -3 -3.5 -11.5t-15.5 -12.5t-19 3q-11 7 1 33q-8 -7 -42 -31q-25 -19 -36 5q-10 17 13 30q32 18 53 41q9 11 27 5t18 -22l-1 -6 q0 -7 -0.5 -12.5t1 -12t4.5 -9.5z" />
<glyph unicode="&#xfc;" horiz-adv-x="237" d="M259 146q12 14 23 3q10 -13 -3 -28q-9 -9 -28.5 -31.5t-34 -37.5t-33 -31.5t-36 -24t-33.5 -4.5q-17 3 -23 19.5t0 37.5q-66 -62 -101 -57q-28 7 -25.5 42.5t28.5 71.5q15 20 41 64t36 54q30 28 51 22q9 -2 16.5 -9.5t7.5 -21.5t-14 -30q-34 -39 -64 -78t-24 -46 q7 -6 50.5 37t63.5 71l1 1q25 43 36 54q30 28 51 22q9 -2 16.5 -9.5t7.5 -21.5t-14 -30q-34 -39 -64 -78t-24 -46q10 -9 92 85zM202 307q-5 -15 -19.5 -26t-30.5 -11t-24 11t-3 26q4 15 19 25.5t31 10.5t23.5 -10.5t3.5 -25.5zM300 307q-5 -15 -19.5 -26t-30.5 -11t-24 11 t-3 26t19.5 25.5t30.5 10.5t23.5 -10.5t3.5 -25.5z" />
<glyph unicode="&#xfd;" d="M262 146q12 14 23 3q10 -13 -3 -28q-10 -10 -31 -34.5t-31 -34.5q-40 -44 -114 -89q-2 -4 -13 -20q-5 -7 -14.5 -21.5t-15.5 -23t-15.5 -22t-16.5 -21.5t-16 -18t-16.5 -14.5t-15.5 -8t-15.5 -2t-13.5 7.5q-23 20 12 70.5t89 100.5q12 19 32 52q-61 -56 -95 -51 q-28 7 -25.5 42.5t28.5 71.5q17 22 42.5 65.5t34.5 52.5q31 29 51 22q17 -4 23 -19.5t-13 -41.5q-34 -39 -64 -78t-24 -46q7 -6 50.5 37t63.5 71q1 1 1 2q18 30 23 37q33 45 62 23q17 -10 13 -29.5t-36 -62.5q-16 -20 -67 -100q18 15 53 48q19 19 54 59zM265 312 q-45 -40 -68 -47q-11 -5 -21.5 1t-11.5 17q-1 9 14 24q6 6 19 26t23 27q23 17 43.5 -4.5t1.5 -43.5z" />
<glyph unicode="&#xff;" d="M262 146q12 14 23 3q10 -13 -3 -28q-10 -10 -31 -34.5t-31 -34.5q-40 -44 -114 -89q-2 -4 -13 -20q-5 -7 -14.5 -21.5t-15.5 -23t-15.5 -22t-16.5 -21.5t-16 -18t-16.5 -14.5t-15.5 -8t-15.5 -2t-13.5 7.5q-23 20 12 70.5t89 100.5q12 19 32 52q-61 -56 -95 -51 q-28 7 -25.5 42.5t28.5 71.5q17 22 42.5 65.5t34.5 52.5q31 29 51 22q17 -4 23 -19.5t-13 -41.5q-34 -39 -64 -78t-24 -46q7 -6 50.5 37t63.5 71q1 1 1 2q18 30 23 37q33 45 62 23q17 -10 13 -29.5t-36 -62.5q-16 -20 -67 -100q18 15 53 48q19 19 54 59zM210 313 q-5 -15 -19.5 -26t-30.5 -11t-24 11t-3 26q4 15 19 25.5t31 10.5t23.5 -10.5t3.5 -25.5zM308 313q-5 -15 -19.5 -26t-30.5 -11t-24 11t-3 26t19.5 25.5t30.5 10.5t23.5 -10.5t3.5 -25.5z" />
<glyph unicode="&#x160;" horiz-adv-x="307" d="M205 338q25 38 70 51.5t81.5 -9t37.5 -76.5q1 -40 -39 -75t-90 -37q1 -3 2 -9q17 -75 0 -114q-19 -49 -65.5 -74.5t-99.5 -18.5t-81.5 50.5t-16 92.5t63.5 71q31 13 56.5 -9t-3.5 -49q-5 -5 -15 -11.5t-15.5 -10t-12 -11.5t-5.5 -16t4 -22q14 -33 59 -25q27 5 43 26 t18 49q4 4 1 23.5t-3.5 24t-6 23.5t-6.5 24q-39 19 -61.5 57t-12.5 78q7 30 32 30q19 -1 21 -15q2 -8 -5 -17q-8 -15 0 -34.5t23 -32.5q8 37 26 66zM298 268q26 17 34.5 39.5t-13.5 32.5q-29 5 -45.5 -23t-17.5 -58v-6q24 3 42 15zM314 499q-3 3 3.5 11.5t15.5 12.5t19 -2 q11 -9 -1 -33q6 5 42 30q25 19 36 -4q10 -18 -13 -31q-29 -17 -53 -41q-9 -11 -26.5 -5t-18.5 22q0 1 0.5 7t1 11.5t-1 12t-4.5 9.5z" />
<glyph unicode="&#x161;" horiz-adv-x="153" d="M175 146q12 14 23 3q12 -12 -3 -28q-5 -5 -20.5 -22.5t-21.5 -24t-20.5 -21.5t-22 -21.5t-21 -16.5t-23 -14.5t-21.5 -8t-24 -3.5h-5q-23 0 -44.5 12t-29.5 30q-10 21 12 37q20 13 29 -1q8 -15 20 -16t22 14t30 66l-37 -37q-13 -14 -23 -4q-11 12 3 29q16 17 45 54t41 51 q16 31 38.5 43.5t35.5 -0.5q17 -16 7.5 -42t-34.5 -42q-13 -52 -25 -104q0 -2 -0.5 -4t-0.5 -3q12 10 70 74zM128 366q-3 3 3.5 11.5t15.5 12.5t19 -2q11 -9 -1 -33q6 5 42 30q25 19 36 -4q10 -18 -13 -31q-28 -17 -53 -41q-9 -11 -26.5 -5t-18.5 22q0 1 0.5 7t1 11.5t-1 12 t-4.5 9.5z" />
<glyph unicode="&#x178;" horiz-adv-x="418" d="M417 313q18 27 41 23t18 -42q-28 -103 -130 -245q-33 -47 -58.5 -77t-69 -59.5t-88.5 -33.5q-45 -3 -76 13q-21 11 -35 48q-17 44 16 48q6 1 12 0q17 -2 27 -24.5t34 -24.5q23 -1 52 14q52 28 97 87h-1q-28 -18 -61.5 -19t-58.5 19t-26 58q-1 66 55 139q10 13 19 28.5 t21 36t17 29.5q4 5 -7 7q-32 7 -79 -18q-51 -27 -74 -77q18 -5 23 -24.5t-6.5 -36t-33.5 -13.5q-29 2 -42 24t-10 48t16 47q31 50 87.5 82.5t113.5 28.5q43 -4 62.5 -26.5t15.5 -55t-17 -64t-32 -57.5q-2 -3 -10 -13q-71 -95 -38 -102q3 -1 8 -1q13 1 27 7t28.5 19.5t23 22 t24 27t17.5 21.5q47 56 89 121q5 12 9 15zM61 235q1 3 0 4q0 -3 -1 -4h1zM378 420q-5 -15 -19.5 -26t-30.5 -11t-24 11t-3 26q4 15 19 25.5t31 10.5t23.5 -10.5t3.5 -25.5zM476 420q-5 -15 -19.5 -26t-30.5 -11t-24 11t-3 26t19.5 25.5t30.5 10.5t23.5 -10.5t3.5 -25.5z" />
<glyph unicode="&#x17d;" horiz-adv-x="431" d="M382 360q85 38 115 11q13 -13 5 -33q-21 -48 -99 -106q-51 -39 -161 -105q19 -19 31 -51q1 -2 2.5 -6t2.5 -6t3.5 -4t6.5 -2q4 -4 15.5 -0.5t18 6.5t17.5 9t14 7q24 10 47 -4t3 -37q0 -1 -2 -3l-2 -2q1 1 1 2q-76 -80 -145 -59q-43 13 -66 69q-1 2 -3 6.5t-3 6t-3 3.5 t-6 2q-50 -1 -121 -72q-2 -2 -7.5 -10t-11.5 -11q-14 -7 -27.5 2.5t-12.5 25.5q-5 46 72 108q48 40 203 134q14 9 44 25.5t40 22.5q-19 5 -53.5 27.5t-56.5 26.5q-57 0 -57 -29q0 -11 15 -21.5t23 0.5q0 24 23 32t33 -24q1 -19 -12.5 -35.5t-32.5 -21.5q-39 -9 -70.5 19 t-20.5 67q10 39 36.5 64t64.5 24q26 0 69 -35t68 -23zM336 499q-3 3 3.5 11.5t15.5 12.5t19 -2q11 -9 -1 -33q6 5 42 30q25 19 36 -4q10 -18 -13 -31q-28 -17 -53 -41q-9 -11 -26.5 -5t-18.5 22q0 1 0.5 7t1 11.5t-1 12t-4.5 9.5z" />
<glyph unicode="&#x17e;" horiz-adv-x="215" d="M218 247q5 4 14.5 -4.5t13.5 -24t-6 -36.5q-11 -23 -40 -51.5t-65 -51.5q19 -11 19 -44t-28 -80q-32 -47 -71 -76.5t-76 -29.5q-35 0 -51 30t-6 53q11 24 46.5 54.5t65.5 30.5q17 0 9 -29q-6 -22 -20 -33q-17 -12 -36.5 -32t-17.5 -25q2 -4 12 1.5t28 21t37 36.5 q21 23 33.5 44.5t14 34t-4.5 17.5q-1 0 -1 -1q-1 -1 -6.5 -5t-12.5 -7.5t-15 -4.5q-4 0 -7.5 4.5t-5.5 12t-2 16t5.5 17t15.5 13.5q22 11 45.5 31.5t36.5 36.5t10 19q-4 -2 -9.5 -4t-23 -5.5t-28.5 2.5q-54 -64 -74 -84q-13 -14 -23 -3q-11 12 4 28q25 28 66 87q-8 29 14 68 t46 39q27 0 29.5 -25.5t-18.5 -53.5q-1 -1 -2.5 -3.5t-2.5 -3.5q36 -16 88 20zM179 346q-3 3 3.5 11.5t15.5 12.5t19 -2q11 -9 -1 -33q6 5 42 30q25 19 36 -4q10 -18 -13 -31q-29 -16 -53 -41q-9 -11 -26.5 -5t-18.5 22q0 1 0.5 7t1 11.5t-1 12t-4.5 9.5z" />
<glyph unicode="&#x2c6;" horiz-adv-x="219" d="M168 309q3 -3 -3.5 -11.5t-15.5 -12.5t-19 3q-11 7 1 33q-8 -7 -42 -31q-25 -19 -36 5q-10 17 13 30q32 18 53 41q9 11 27 5t18 -22v-7q-1 -6 -1.5 -11.5t1 -12t4.5 -9.5z" />
<glyph unicode="&#x2c7;" horiz-adv-x="219" d="M51 346q-3 3 3.5 11.5t15.5 12.5t19 -2q11 -9 -1 -33q6 5 42 30q25 19 36 -4q10 -18 -13 -31q-28 -16 -53 -41q-9 -11 -26.5 -5t-18.5 22q0 1 0.5 7t1 11.5t-1 12t-4.5 9.5z" />
<glyph unicode="&#x2d8;" horiz-adv-x="212" d="M61 358q9 15 33 5q13 -5 9 -11q-25 -32 -20 -40q1 -2 3 -2q16 2 36 36q4 3 14 1t18.5 -7.5t6.5 -9.5q-26 -41 -75 -41q-24 0 -32.5 21.5t7.5 47.5z" />
<glyph unicode="&#x2da;" horiz-adv-x="208" d="M83 280q-23 0 -30.5 20t7.5 42q21 33 62 33q24 1 32.5 -18.5t-5.5 -39.5q-22 -37 -66 -37zM97 337q-10 -13 -15.5 -25.5t0.5 -12.5q7 1 19 15t19.5 27.5t2.5 14.5q-9 1 -26 -19z" />
<glyph unicode="&#x2dc;" horiz-adv-x="252" d="M50 321q8 21 26.5 33.5t40.5 6.5q4 -2 19.5 -12.5t24.5 -9.5q3 0 13.5 3.5t13.5 2.5q17 3 12 -13q-3 -13 -11 -23q-35 -33 -79 -1q-12 8 -23.5 4.5t-22.5 -3.5t-14 12z" />
<glyph unicode="&#x2dd;" horiz-adv-x="140" d="M149 457q7 14 39 8q28 -5 27 -18q-1 -6 -5 -10q-30 -33 -84 -106q-11 -13 -27.5 -1.5t-7.5 26.5q35 57 58 101zM232 457q7 15 41 8q25 -6 25 -18q0 -5 -5 -10q-30 -33 -84 -106q-11 -13 -27.5 -1.5t-7.5 26.5q35 57 58 101z" />
<glyph unicode="&#x2018;" horiz-adv-x="58" d="M149 457q7 14 39 8q28 -5 27 -18q-1 -6 -5 -10q-30 -33 -84 -106q-11 -13 -27.5 -1.5t-7.5 26.5q35 57 58 101z" />
<glyph unicode="&#x2019;" horiz-adv-x="58" d="M149 457q7 14 39 8q28 -5 27 -18q-1 -6 -5 -10q-30 -33 -84 -106q-11 -13 -27.5 -1.5t-7.5 26.5q35 57 58 101z" />
<glyph unicode="&#x201c;" horiz-adv-x="140" d="M149 457q7 14 39 8q28 -5 27 -18q-1 -6 -5 -10q-30 -33 -84 -106q-11 -13 -27.5 -1.5t-7.5 26.5q35 57 58 101zM232 457q7 15 41 8q25 -6 25 -18q0 -5 -5 -10q-30 -33 -84 -106q-11 -13 -27.5 -1.5t-7.5 26.5q35 57 58 101z" />
<glyph unicode="&#x201d;" horiz-adv-x="140" d="M149 457q7 14 39 8q28 -5 27 -18q-1 -6 -5 -10q-30 -33 -84 -106q-11 -13 -27.5 -1.5t-7.5 26.5q35 57 58 101zM232 457q7 15 41 8q25 -6 25 -18q0 -5 -5 -10q-30 -33 -84 -106q-11 -13 -27.5 -1.5t-7.5 26.5q35 57 58 101z" />
<glyph unicode="&#x2030;" horiz-adv-x="622" d="M400 377q20 18 44 -1q23 -19 12 -38q-3 -4 -8 -8q-94 -67 -249 -196q-12 -11 -54 -46.5t-64 -55.5q-20 -19 -44 1q-23 17 -12 36q3 5 8 9q18 19 60 48.5t51 36.5q51 39 149 121q60 50 107 93zM125 202q-35 1 -47 26.5t-5 56t25 52.5q20 25 49.5 42.5t58.5 18.5 q31 0 44.5 -22t10 -49.5t-16.5 -48.5q-20 -31 -53.5 -54t-65.5 -22zM155 319q-20 -27 -32 -52.5t1 -24.5q21 1 61 56q37 52 24 59l-2 1q-19 3 -52 -39zM357 206q31 0 44 -22t9.5 -49.5t-16.5 -48.5q-19 -30 -52.5 -53.5t-66.5 -22.5q-35 1 -47 26.5t-4.5 56.5t25.5 53 q48 60 108 60zM275 50q21 1 60 56q38 52 25 59q-1 1 -2 1q-16 2 -51 -41q-55 -75 -32 -75zM553 206q31 0 44 -22t9.5 -49.5t-16.5 -48.5q-19 -30 -52.5 -53.5t-66.5 -22.5q-35 1 -47 26.5t-4.5 56.5t25.5 53q48 60 108 60zM471 50q21 1 60 56q38 52 25 59q-1 1 -2 1 q-16 2 -51 -41q-55 -75 -32 -75z" />
<glyph unicode="&#x20ac;" horiz-adv-x="405" d="M432 343q19 -60 -34 -133q-16 -26 -30 -31q-20 -8 -34.5 9.5t-1.5 35.5q2 3 9 12q67 91 39 105q-7 4 -19 3q-68 -3 -144 -104h6h12t13.5 -0.5t10.5 -3.5t9 -9q8 -15 -2.5 -24.5t-26.5 -8.5q-17 2 -51 4l-15 -24h12h12t13.5 -0.5t10.5 -3.5t9 -9q8 -15 -2.5 -24.5 t-26.5 -8.5q-18 2 -52 4l-14 -28q-6 -12 -10.5 -23.5t-7.5 -26t3 -24.5t22 -11q22 -1 49.5 16.5t40 30.5t37.5 40q2 2 13.5 16.5t19.5 19.5q16 10 33 -1t12 -30q-5 -26 -33.5 -54t-59.5 -47q-42 -27 -88 -29t-77.5 26.5t-30.5 83.5q0 19 5 42h-5q-32 -1 -40 25q-7 20 11 27 q6 3 16 1l36 -5q6 12 10 18q-29 2 -36 26q-5 21 13 27q7 1 15 0q28 -4 42 -5q47 53 108 90q20 12 45.5 23.5t59 21t59.5 0.5t35 -39z" />
<glyph unicode="&#x25fc;" horiz-adv-x="245" d="M0 245h245v-245h-245v245z" />
<glyph horiz-adv-x="198" d="M220 146q12 14 23 3q10 -13 -3 -28q-8 -8 -28 -31.5t-34 -37.5t-33 -31t-36.5 -24.5t-33.5 -4.5q-29 5 -32 34t21 63q12 16 58 88q-13 0 -19 2q-64 -75 -103 -150q-7 -10 -19 -7t-17 13.5t1 22.5q10 14 54.5 73t55.5 75q-8 29 14 68t46 39q27 0 29.5 -25.5t-18.5 -53.5 l-10 -14q9 2 26 10q11 9 22 14q13 5 22 2q9 -2 16.5 -9.5t7.5 -21.5t-14 -30q-34 -39 -64 -78t-24 -46q10 -9 92 85z" />
</font>
</defs>
</svg>
