<?xml version="1.0" standalone="no"?>
<!DOCTYPE svg PUBLIC "-//W3C//DTD SVG 1.1//EN" "http://www.w3.org/Graphics/SVG/1.1/DTD/svg11.dtd" >
<svg xmlns="http://www.w3.org/2000/svg" xmlns:xlink="http://www.w3.org/1999/xlink" version="1.1">
<metadata>
Created by FontForge 20150318 at Sun Apr 26 08:19:17 2015
 By uniteet7
Copyright 2015 Adobe Systems Incorporated. All rights reserved.
</metadata>
<defs>
<font id="UmbrellaItalic" horiz-adv-x="435" >
  <font-face 
    font-family="UmbrellaItalic"
    font-weight="400"
    font-style="italic"
    font-stretch="normal"
    units-per-em="1000"
    panose-1="2 0 0 0 0 0 0 0 0 0"
    ascent="750"
    descent="-250"
    x-height="496"
    cap-height="687"
    bbox="-367.765 -452.683 971.474 945.349"
    underline-thickness="50"
    underline-position="-50"
    unicode-range="U+0020-FB02"
  />
<missing-glyph horiz-adv-x="201" 
 />
    <glyph glyph-name="T_h_2" unicode="T&#xe055;" horiz-adv-x="781" 
d="M171 53q-25 -68 -98 -107q-69 -36 -115 -14q-38 19 -34 74q1 14 21 27q19 13 24 -2q4 -20 17 -28t29 -0.5t27 27.5q34 64 85.5 261t66.5 237q-61 -3 -119 -3q-14 0 13 48q31 49 48 52q180 -18 299 -14q3 10 9.5 30.5t11.5 37t10.5 34.5t10 29t7.5 13q46 126 123 172
q57 34 91 5q41 -35 8 -126q-20 -56 -66 -121q-29 -40 -73 -67q-22 -58 -60.5 -163.5t-69.5 -192t-33 -91.5q84 138 135 196q47 54 86 54q30 0 39.5 -28t-0.5 -57q-14 -50 -65.5 -141.5t-79.5 -151t-2 -66.5q40 -11 114.5 58t143.5 159l20 -23q-84 -113 -166 -183.5
t-142 -74.5q-51 -4 -54 34.5t18 80.5q2 7 3 10q8 23 45 96t56.5 122.5t1.5 49.5q-6 0 -11 -2.5t-18 -16.5t-32 -42q-28 -41 -70.5 -104.5t-78.5 -114.5q-11 -16 -58 -23t-44 14q2 11 30 98t73.5 224.5t69.5 212.5l-1 2q-75 -11 -84 -11q-42 -101 -100 -289.5t-62 -200.5z
M617 776l-38 -118q36 29 53 61q58 101 43 121q-9 11 -32 -17q-15 -19 -26 -47z" />
    <glyph glyph-name="t_h_2" unicode="t&#xe055;" horiz-adv-x="714" 
d="M329 171q84 138 135 196q46 54 86 54q30 0 39.5 -28t-0.5 -57q-14 -50 -65.5 -141.5t-79.5 -151t-2 -66.5q40 -11 114.5 58t143.5 159l20 -23q-84 -113 -166 -183.5t-142 -74.5q-51 -4 -54 34.5t18 80.5q2 7 3 10q8 23 45 96t56.5 122.5t1.5 49.5q-6 0 -11 -2.5
t-18 -16.5t-32 -42q-28 -41 -70.5 -104.5t-78.5 -114.5q-6 -9 -31 -17t-48 -7.5t-23 12.5q-137 -162 -191 -162q-30 0 -49 13.5t-26.5 40.5t-8.5 58.5t8 77t18.5 86t27 96t31 95.5t33 96t29.5 88q-89 -2 -92 4q-3 11 20 25q32 17 89 24q6 19 11 30.5t8 26.5q4 15 43 35.5
t75.5 31.5t34.5 2q-4 -21 -31 -116l61 1q61 1 89 0q3 10 9.5 30.5t12 38t11.5 35.5t10.5 29.5t7.5 13.5q45 126 123 172q56 34 91 5q40 -35 8 -125q-19 -56 -66 -122q-29 -40 -74 -67q-22 -58 -58 -153.5t-65 -171t-31 -81.5zM334 508q-89 -5 -151 -1q-21 -74 -74 -236
t-77.5 -251t-11.5 -92q22 -2 68.5 48.5t110.5 134.5q118 343 135 397zM533 735l-37 -118q36 29 53 61q57 101 42 121q-9 12 -33 -18q-15 -20 -25 -46z" />
    <glyph glyph-name="o_s" unicode="os" horiz-adv-x="859" 
d="M220 217q-46 -96 -108 -156.5t-124 -54.5q-69 6 -70 87q0 85 66 185.5t150 134.5q2 44 17.5 79t41.5 47q80 37 94 -43q14 -84 -43 -225l-6 -14q19 -12 34 -17t39 -3t47.5 17.5t56 52t67.5 93.5q46 76 78 151q16 5 44.5 -11.5t48.5 -35.5l20 -19q-37 -33 -40 -105
t9.5 -163t9.5 -125q6 2 40.5 8.5t49 12t43 24.5t53.5 50q12 0 17.5 -6.5t-3.5 -23.5q-14 -20 -32.5 -36t-33 -25.5t-38.5 -18t-34 -11t-35 -8t-26 -5.5q-4 -67 -33.5 -114.5t-71 -69t-86 -29.5t-80.5 -2t-52 21q-11 10 -14 26.5t8 39t35 46t72 48t114 44.5q1 24 -27 136
t-28 146q-28 -42 -55 -72.5t-48 -47.5t-44 -24.5t-37 -9.5t-34 4t-27.5 9.5t-24.5 12.5zM141 329q-21 -22 -41.5 -56t-35 -66.5t-25 -64.5t-10.5 -50.5t8 -22.5q34 -9 74.5 41t76.5 131q-32 32 -47 88zM541 24q-66 -19 -107 -43.5t-45.5 -42t3.5 -29.5q9 -7 28.5 -10.5
t43 1.5t44 17t30.5 40t3 67zM220 425q7 -4 6.5 -17t-9 -28.5t-17.5 -15.5q-16 -2 -30 -11q10 -39 35 -67q49 130 39 185q-7 38 -46 7q-25 -19 -33 -56q28 6 55 3z" />
    <glyph glyph-name="o_x" unicode="ox" horiz-adv-x="826" 
d="M640 20q42 5 156 155q5 6 8 9.5t7 9t8 10.5l20 -23q-45 -71 -107 -138.5t-123 -87.5q-47 -17 -80 11.5t-49 83.5q-130 -138 -189 -179q1 -3 -2 -3q-10 1 -19 18q-16 26 11 45q22 16 88 80.5t97 99.5q-6 52 -6 153q-2 2 0 3q-34 -47 -71.5 -69t-69 -20t-54.5 12.5
t-38 26.5q-46 -96 -108 -156.5t-124 -54.5q-69 6 -70 87q0 85 66 185.5t150 134.5q2 44 17.5 79t41.5 47q80 37 94 -43q14 -84 -43 -225l-6 -14q12 -12 27 -21.5t40.5 -13.5t50 5.5t54.5 44.5t55 95q0 1 -0.5 4.5t-1.5 4.5q-8 11 36 37q61 34 102 41q12 2 11 -2
q-11 -67 -13 -177q24 36 54.5 81.5t57.5 87t33 49.5q9 9 22.5 7.5t24 -10.5t7.5 -17q-4 -6 -31 -47t-76 -112t-92 -128q4 -81 11 -124.5t23 -41.5zM148 329q-21 -22 -41.5 -56t-35 -66.5t-25 -64.5t-10.5 -50.5t8 -22.5q34 -9 74.5 41t76.5 131q-32 32 -47 88zM227 425
q7 -4 6.5 -17t-9 -28.5t-17.5 -15.5q-16 -2 -30 -11q10 -39 35 -67q49 130 39 185q-7 38 -46 7q-25 -19 -33 -56q28 6 55 3z" />
    <glyph glyph-name="o_z" unicode="o&#x7a;" horiz-adv-x="866" 
d="M464 96q-26 -13 -41 5q-15 17 5 33q14 10 37 13q76 35 128.5 96t32.5 97q-15 25 -37.5 30t-46 -7.5t-44 -30.5t-38.5 -41q-23 -30 -45 -51.5t-38.5 -34.5t-35 -18t-28.5 -7.5t-27 2.5t-22.5 7.5t-22 12t-19.5 11.5q-47 -96 -109 -156.5t-124 -54.5q-69 6 -70 87
q0 85 65 185q67 101 152 135q2 45 18 79.5t41 46.5q80 37 94 -42q15 -83 -42 -223q-3 -9 -7 -17q4 -2 15.5 -10t16 -10.5t16 -8t17.5 -6t17.5 -1t19.5 4t20 11t23 18t25 28t28 38.5q31 48 67 89t86.5 71.5t92.5 18.5q61 -26 73.5 -75.5t-15 -102t-80 -102t-115.5 -77.5
q26 -9 48.5 -31.5t26.5 -55.5q15 6 49 15t58 18t59.5 37t66.5 73q1 2 7 -2t8.5 -11.5t-5.5 -21.5q-27 -41 -64.5 -68.5t-64 -37t-64.5 -18.5t-47 -12q-3 -115 -25 -182q-41 -125 -107 -170.5t-115 -14.5q-36 23 -40.5 72.5t16 101.5t62.5 100t92 69q-3 11 -5 30t-3.5 29.5
t-10 21.5t-25.5 15zM143 325q-21 -22 -41.5 -56t-35.5 -66.5t-25.5 -64.5t-10.5 -50.5t8 -22.5q34 -9 74.5 41t76.5 131q-30 30 -46 88zM469 -215q19 28 31.5 82t11.5 105q-33 -14 -58.5 -42t-39 -59t-20.5 -61.5t-6 -53t8 -30.5q6 -6 15 -4t24.5 18.5t33.5 44.5zM223 421
q7 -4 6.5 -17t-9.5 -28.5t-18 -15.5q-15 -2 -31 -11q12 -40 36 -67q50 132 39 186q-7 37 -45 6q-26 -19 -33 -56q27 6 55 3z" />
    <glyph glyph-name="t_t" unicode="tt" horiz-adv-x="558" 
d="M578 501q-22 0 -61.5 -0.5t-56.5 -0.5q-22 -75 -73 -231.5t-74.5 -240.5t-9.5 -87q39 -4 188 188q13 17 37 48q12 16 18 23l29 -15q-61 -96 -162 -208t-152 -112q-56 0 -75 40t-8 119q-36 -45 -61 -74t-61 -68t-63 -59t-43 -20q-30 0 -48.5 15t-24 44t-4.5 64.5t12 83.5
t23 93.5t31 102t35 101.5t35.5 99.5t30.5 89.5q-89 -2 -92 4q-3 11 20 25q33 17 89 24l8 21l4 12q7 24 88 56q64 25 65 13q-9 -39 -24 -92q36 0 140 -2q4 12 10 26.5t9 29.5q4 15 43 35.5t75.5 31.5t34.5 2q-4 -21 -33 -123q65 0 102 -2q14 0 20 -4t3.5 -10.5t-6.5 -13.5
t-10 -15.5t-8 -12.5zM181 500q-24 -85 -81 -244t-88.5 -255.5t-17.5 -99.5q21 -2 79 59.5t120 141.5q11 45 28.5 104t29 93.5t37.5 109.5t31 90q-31 0 -80.5 0.5t-57.5 0.5z" />
    <glyph glyph-name="l_l" unicode="ll" horiz-adv-x="544" 
d="M295 -57q19 -3 59.5 37.5t77 86.5t83.5 109q9 12 13 18l22 -23q-5 -6 -67 -93t-112 -139t-88 -56q-49 -5 -72 27t-25 94q-39 -53 -67 -88t-65 -68.5t-64 -36.5q-48 -5 -72.5 26t-24 91.5t11.5 131.5t36.5 159.5t48 160t47.5 149t35 112.5q4 15 42 28.5t68 16t34 -4.5
q-5 -29 -70.5 -238t-115 -389t-29.5 -183q40 -6 187 190q8 89 43 216t80 264t55 172q4 15 42 28.5t68 16t34 -4.5q-5 -29 -71 -238t-115.5 -389t-28.5 -183z" />
    <glyph glyph-name=".notdef" horiz-adv-x="201" 
 />
    <glyph glyph-name=".null" horiz-adv-x="0" 
 />
    <glyph glyph-name="nonmarkingreturn" horiz-adv-x="333" 
 />
    <glyph glyph-name="space" unicode=" " horiz-adv-x="201" 
 />
    <glyph glyph-name="exclam" unicode="!" horiz-adv-x="345" 
d="M215 718q23 22 53 3t24 -48q-7 -34 -19.5 -76t-28.5 -87t-31.5 -86t-33.5 -85.5t-29.5 -71.5t-25.5 -59.5t-15 -34.5q-13 -33 -56 -27q-28 4 -32 18q-1 4 2 7q23 39 93 283t99 264zM39 6q-49 -18 -73 -12.5t-21 28.5t32 50q80 75 108 47q20 -18 2 -61q-16 -39 -48 -52z
" />
    <glyph glyph-name="quotedbl" unicode="&#x22;" horiz-adv-x="425" 
d="M98 367q-6 -3 -17 -9t-17.5 -9t-14 -6t-11.5 -1t-6 8q-8 30 25 119t62 115q59 56 80 35q21 -23 -20 -127.5t-81 -124.5zM254 367q-6 -3 -17 -9t-17.5 -9t-14 -6t-11.5 -1t-6 8q-8 30 25 119t62 115q59 56 80 35q21 -23 -20 -127.5t-81 -124.5z" />
    <glyph glyph-name="numbersign" unicode="#" horiz-adv-x="330" 
d="M-129 216q14 -2 56 -4l141 244q-79 -2 -84 -1q-6 4 -3.5 18t13.5 29t21 14q30 -4 86 -5q35 60 71 119q9 15 36 12q16 -2 14 -10q0 -1 -1 -3q-13 -17 -70 -119l145 -3q46 82 73 123q9 15 36 12q16 -2 14 -10q0 -1 -1 -3q-6 -8 -71 -122h85q14 0 -7 -22.5t-34 -21.5
q-3 0 -27 -0.5t-43 -0.5l-145 -255h111q14 0 -7 -22.5t-34 -21.5q-4 0 -96 -2q-20 -35 -44.5 -76.5t-36 -61.5t-13.5 -23q-9 -11 -32 3t-12 29q23 33 80 128l-142 -4q-77 -138 -90 -156q-7 -5 -20 -2.5t-22 13.5t-2 21q19 23 77 123q-44 -2 -54 0q-6 4 -3.5 18t14 29
t21.5 14zM121 457l-139 -247q82 -2 138 -2l149 253z" />
    <glyph glyph-name="dollar" unicode="$" horiz-adv-x="488" 
d="M45 -183q-6 -18 -30 -18q-17 1 -16 11q1 7 31 99q-53 -1 -91 26t-56 88t5 159q7 21 25.5 21t32 -15t9.5 -32q-13 -63 19 -112.5t81 -60.5l78 234q-4 3 -24.5 21.5t-26.5 25t-21.5 24.5t-19.5 32t-10 36t-3.5 48t10.5 56q23 91 98.5 155.5t156.5 79.5q23 68 25 71
q4 7 13.5 6.5t18 -8t7.5 -16.5q-2 -13 -13 -49q35 -3 57.5 -20.5t30.5 -49.5t-8.5 -85.5t-58.5 -120.5q-25 -35 -40 -28q-16 7 1 40q4 9 10 17q80 127 43 167q-19 18 -57 8q-46 -142 -128 -375q4 -4 18 -16.5t19.5 -18t16 -17.5t13.5 -21.5t7 -24t2.5 -31t-7.5 -36.5
q-19 -64 -71 -110.5t-115 -61.5q-30 -87 -32 -98zM160 417q-26 -74 -1 -121l100 297q-54 -45 -99 -176zM179 87q12 51 -11 89l-67 -191q57 19 78 102z" />
    <glyph glyph-name="percent" unicode="%" horiz-adv-x="644" 
d="M18 19q13 17 117 164.5t205.5 287t128.5 169.5q12 14 38 11q17 -2 10 -12q-9 -14 -80.5 -117t-149.5 -215t-150.5 -215.5t-73.5 -104.5q-9 -11 -32.5 3t-12.5 29zM206 626q-48 -2 -89 -94q-39 -87 -37 -159q2 -48 27 -47q44 3 86 74.5t49 133.5t-17 77q-10 -2 -15 6
q-3 6 6 7q3 1 7 1q57 -9 46 -95q-11 -84 -71 -167q-59 -78 -118 -85q-51 -6 -66 62q-16 76 21 170q42 105 119 132q31 11 65 6q10 -1 1 -13q-6 -7 -14 -9zM458 347q-48 -2 -89 -94q-39 -87 -37 -159q2 -48 27 -47q44 3 86 74.5t49 133.5t-17 77q-10 -2 -15 6q-3 6 6 7
q3 1 7 1q57 -9 46 -95q-11 -84 -71 -167q-59 -78 -118 -85q-52 -6 -66 62q-17 76 21 170q42 105 119 132q31 11 65 6q10 -1 1 -13q-7 -6 -14 -9z" />
    <glyph glyph-name="ampersand" unicode="&#x26;" horiz-adv-x="582" 
d="M362 449q11 53 -17 83t-70 33.5t-82.5 -10.5t-53.5 -41q-46 -95 101 -112q53 -6 141 1q34 6 33 -25q-1 -28 -20 -46q-7 -6 -12 -6q-145 16 -263 -104q-78 -79 -102 -168q-19 -71 15 -84q21 -8 54.5 8t69.5 50.5t69.5 95t51.5 132.5q18 1 43 2t85.5 2t63.5 -2
q17 -2 -8 -28q-16 -17 -22 -17q-73 0 -131 -3q-26 -70 -62.5 -126t-72.5 -89.5t-73.5 -55.5t-67 -29t-52.5 -3q-68 12 -45 111q23 102 114 216q41 51 84 87q-34 12 -58 32t-39.5 50t-6.5 74.5t44 97.5q28 40 68.5 64.5t80.5 28.5t79 -7t64.5 -41.5t36 -75t-6.5 -107.5
q-3 -2 -7 -4t-15 -5.5t-12.5 2t1.5 19.5z" />
    <glyph glyph-name="quotesingle" unicode="'" horiz-adv-x="256" 
d="M98 367q-6 -3 -17 -9t-17.5 -9t-14 -6t-11.5 -1t-6 8q-8 30 25 119t62 115q59 56 80 35q21 -23 -20 -127.5t-81 -124.5z" />
    <glyph glyph-name="parenleft" unicode="(" horiz-adv-x="359" 
d="M457 740q-113 20 -236 -125q-111 -129 -171 -313q-63 -193 -23 -301q31 -83 121 -86q20 -8 27.5 -13.5t4.5 -8.5t-11 -5t-13.5 -2.5t-7.5 -0.5q-151 -6 -199 129q-44 127 14 319q59 191 182 322q148 157 312 140q25 -3 50 -10q16 -19 -2.5 -35.5t-47.5 -9.5z" />
    <glyph glyph-name="parenright" unicode=")" horiz-adv-x="401" 
d="M-14 740q-33 -7 -41.5 9.5t19.5 35.5q190 46 263 -85q62 -112 20 -303q-41 -188 -154 -333q-130 -166 -285 -178q-18 -2 -36 -1q-26 0 -27 8t43 21q1 1 2 1q130 4 235 163q94 142 123 328q28 183 -28 275q-45 73 -134 59z" />
    <glyph glyph-name="asterisk" unicode="*" horiz-adv-x="404" 
d="M167 410l-14 -43q-4 -15 -33 -14q-17 1 -16 8q10 35 22 69q-22 -12 -55 -30.5t-41 -22.5q-10 -5 -11 10q-1 21 13 31q17 13 92 60q-27 47 -46 81q-4 7 8.5 18.5t28 17.5t18.5 1q1 -2 5.5 -10t11.5 -21l14 -26q4 11 9 24.5t8 22.5t5 13q3 6 10 5t13.5 -7t5.5 -13
q-2 -14 -15 -60l86 50q9 5 19.5 -3.5t13 -19.5t-3.5 -16q-4 -2 -21 -11.5t-44 -25t-50 -28.5q35 -67 42 -86q3 -5 -7.5 -10t-22.5 -5.5t-18 4.5q-16 18 -27 37z" />
    <glyph glyph-name="plus" unicode="+" horiz-adv-x="467" 
d="M220 120q-5 -18 -39 -18q-26 0 -25 11q2 5 7.5 22.5t14.5 47.5t17 55h-118q-11 0 -11 15.5t7 31t15 15.5q6 0 126 -2q24 79 41 124q4 7 13.5 6.5t18.5 -8.5t7 -17q-9 -54 -24 -107q74 -1 125 -4q14 -1 -5 -24q-15 -20 -27 -21q-43 -5 -108 -7q-18 -66 -35 -120z" />
    <glyph glyph-name="comma" unicode="," horiz-adv-x="302" 
d="M72 -81q-13 -5 -12 9q1 8 8 30q11 33 5 35q-24 6 -21 29t33 50q22 20 40.5 32.5t31.5 17t23 3.5t15.5 -7t7.5 -15q4 -22 -49 -97.5t-82 -86.5z" />
    <glyph glyph-name="hyphen" unicode="-" horiz-adv-x="481" 
d="M95 238q-10 2 -10 16t7.5 30t15.5 16q189 0 306 -8q13 -1 -4 -23q-15 -21 -29 -22q-75 -9 -286 -9z" />
    <glyph glyph-name="period" unicode="." horiz-adv-x="289" 
d="M152 6q-49 -18 -73.5 -12.5t-21.5 28.5t33 50q80 75 109 47q19 -18 2 -61q-17 -39 -49 -52z" />
    <glyph glyph-name="slash" unicode="/" horiz-adv-x="287" 
d="M-72 19q13 17 119.5 164t210 287t131.5 170q14 14 39 11q17 -2 10 -12q-18 -28 -232.5 -327t-233.5 -325q-9 -11 -32 3t-12 29z" />
    <glyph glyph-name="zero" unicode="0" horiz-adv-x="498" 
d="M347 514q-64 -3 -119 -118q-52 -111 -57 -225q-5 -102 37 -105h5q69 4 131 122q55 107 63 212q6 85 -31 91q-15 -2 -22 9q3 9 18 11q78 -11 76 -116.5t-73 -228.5q-70 -122 -156 -160q-22 -9 -43 -12q-72 -8 -99 80q-29 94 7 224q40 146 132 212q68 48 149 37
q14 -2 1 -19q-9 -11 -19 -14z" />
    <glyph glyph-name="one" unicode="1" horiz-adv-x="269" 
d="M103 572q23 23 99 24q74 2 80 -21q1 -2 0 -5q-16 -74 -62.5 -205.5t-78.5 -213t-53 -130.5q-14 -33 -56 -27q-28 4 -32 18q-1 4 2 7q23 39 83 254t82 272q2 4 -8 5q-28 0 -57 -11q-2 -1 -3 -2q-13 -9 -12 4q0 18 16 31z" />
    <glyph glyph-name="two" unicode="2" horiz-adv-x="472" 
d="M78 354q-4 -41 -26 -53q-17 -10 -21 11q-2 8 -1 19q9 61 29 111t46.5 82.5t58 54.5t63.5 29.5t61.5 5.5t55 -15.5t41.5 -35.5q32 -40 24 -92t-37 -101t-74.5 -101t-87 -92.5t-75 -75t-39.5 -48.5q-2 -4 58.5 -4t121.5 -1t61 -9q0 -5 1 -12.5t1 -11t-1 -8t-6 -6t-13 -1.5
q-30 0 -109.5 -1t-130 -1t-55.5 2q-10 3 1.5 47t18.5 53q12 20 41.5 47.5t61.5 51.5t63 57t50 65.5t19 74.5t-27 86q-22 37 -57 41t-69.5 -39t-47.5 -130z" />
    <glyph glyph-name="three" unicode="3" horiz-adv-x="484" 
d="M88 374q-4 -18 -13 -20.5t-16 4.5l-7 7q45 127 159 196q95 57 174 41q71 -14 80 -83v-5q3 -53 -15 -97.5t-52 -74.5t-70.5 -50t-77.5 -32q75 -28 77 -91.5t-83 -129.5q-37 -27 -78.5 -38.5t-79.5 -4t-61.5 50t-19.5 116.5q-3 8 10.5 17t28.5 14l15 6q-5 -48 3 -82
t25.5 -49.5t39.5 -19.5t44 3t39 22q37 36 40 70.5t-19 58t-45.5 38.5t-43.5 21q-14 4 -10 18q8 21 48 13q4 0 16.5 2t38 11t48 24.5t42 47t24.5 72.5q5 33 -41 44q-60 15 -128 -20q-65 -34 -92 -100z" />
    <glyph glyph-name="four" unicode="4" horiz-adv-x="433" 
d="M357 586l116 5l-354 -341q45 0 62 2q8 40 21 56q19 26 53.5 32.5t59.5 -2.5t21 -23q-19 -48 -40 -104.5t-30.5 -81t-20.5 -51.5t-19 -39.5t-17 -22.5q-35 -37 -103 -50q-37 -7 -35 3q0 1 1 3q7 34 39 111.5t45 116.5q-56 0 -84 1.5t-46.5 5t-18 10.5t2.5 19
q19 32 87 100.5t152 146.5t108 103z" />
    <glyph glyph-name="five" unicode="5" horiz-adv-x="459" 
d="M-21 100q7 -16 30 -20.5t61.5 9.5t77.5 47q124 103 111 195q-7 53 -53 75q-43 20 -76 -6q-4 -3 12 50.5t37.5 109.5t30.5 58q6 2 56.5 2t129 -1t108.5 -1q11 0 13.5 -3t-0.5 -9t-8 -13l-3 -3t-2.5 -3t-2.5 -4l-2 -4q-4 -8 -66 -9t-122 -1t-61 -4q-2 -8 -21.5 -60.5
t-20.5 -58.5q115 14 152 -58t-2.5 -171t-124.5 -162q-50 -37 -98.5 -52t-85.5 -8.5t-64.5 21t-47.5 36.5q-18 14 6 39q21 22 33 14q2 -2 3 -5z" />
    <glyph glyph-name="six" unicode="6" horiz-adv-x="364" 
d="M173 320q-21 15 -8.5 27t32.5 8q100 -41 88 -138q-10 -78 -79 -145q-70 -68 -136 -62q-40 4 -66 41q-113 164 308 564l9 9q11 11 25.5 14.5t21.5 -5.5t-2 -33q-10 -10 -48.5 -47.5t-68 -67t-65 -77.5t-53.5 -89.5t-18.5 -92t25.5 -94.5q18 -31 51 3q36 37 43 93
q10 74 -54 91q-3 0 -5 1z" />
    <glyph glyph-name="seven" unicode="7" horiz-adv-x="378" 
d="M128 561q15 15 94.5 26.5t151.5 10t68 -18.5q-13 -56 -68 -149t-114.5 -172.5t-112.5 -150.5t-59 -86q-14 -33 -56 -27q-28 4 -32 18q-1 4 2 7q11 19 86.5 133t145.5 229t93 173q5 12 -145 -15q-53 -10 -57 -13q-14 -9 -13 4q1 18 16 31z" />
    <glyph glyph-name="eight" unicode="8" horiz-adv-x="504" 
d="M373 581q-67 -3 -103 -70q-29 -54 -14 -98q11 -34 45 -32q73 4 114 67q33 50 18 88q-9 24 -35 27q-11 -2 -18 6q2 7 16 9q75 -9 78 -66q4 -55 -55 -114q-61 -58 -139 -71q-6 -4 -9 -4q-71 -3 -114 -82q-37 -67 -27 -126q10 -51 52 -49q78 5 128 82q39 61 29 112
q-7 35 -39 40q-15 -2 -21 9q-5 8 8 10l10 1q79 -12 84 -79t-58 -142q-73 -87 -171 -104l-10 -1q-75 -9 -101 61q-25 69 11 157q39 96 123 131l16 6q-21 22 -26 57.5t8.5 72.5t39.5 69t73 49t103 10q13 -2 2 -15q-8 -9 -18 -11z" />
    <glyph glyph-name="nine" unicode="9" horiz-adv-x="405" 
d="M171 216q21 -15 8 -27t-33 -8q-100 41 -80 148q16 88 97 170q82 82 158 84q45 1 75 -29q36 -37 38.5 -90t-22.5 -108t-67.5 -115.5t-91 -112.5t-98 -99t-83 -75.5t-52.5 -41.5q-19 -17 -38.5 -13t-5.5 37q9 10 37 37.5t53.5 53t59.5 64t61 73.5t51 77.5t35.5 80.5t9.5 78
t-22 73q-17 30 -62 -17q-49 -53 -70 -126q-26 -93 36 -112z" />
    <glyph glyph-name="colon" unicode=":" horiz-adv-x="302" 
d="M188 339q-49 -18 -73 -12.5t-21 28.5t32 50q81 75 110 47q19 -18 1 -61q-16 -39 -49 -52zM75 6q-49 -18 -72.5 -12.5t-21 28.5t31.5 50q81 75 110 47q19 -18 1 -61q-16 -39 -49 -52z" />
    <glyph glyph-name="semicolon" unicode=";" horiz-adv-x="306" 
d="M3 -81q-12 -5 -11 8q0 7 7 30q11 34 4 36q-23 6 -20 29t32 50q22 20 40.5 32.5t31.5 17t22.5 3.5t15 -7t7.5 -15q5 -23 -47.5 -98t-81.5 -86zM188 339q-49 -18 -73 -12.5t-21 28.5t32 50q80 75 109 47q19 -18 2 -61q-17 -39 -49 -52z" />
    <glyph glyph-name="less" unicode="&#x3c;" horiz-adv-x="222" 
d="M361 586q-19 -20 -171.5 -139t-163.5 -129q9 -16 87.5 -132.5t85.5 -135.5q1 -4 -6 -8.5t-18 -7.5t-22 -5t-19 -2t-9 3q-126 252 -138 281q-3 10 4 13q21 20 95.5 87t144.5 129t73 64q7 8 39 -1q20 -6 19 -14q0 -1 -1 -3z" />
    <glyph glyph-name="equal" unicode="=" horiz-adv-x="500" 
d="M76 175q-11 0 -11 15.5t7 31t15 15.5q190 0 307 -8q12 -1 -4 -23q-15 -21 -29 -22q-75 -9 -285 -9zM128 312q-11 0 -11 15.5t7 31t15 15.5q190 0 307 -8q14 -1 -5 -24q-15 -20 -27 -21q-75 -9 -286 -9z" />
    <glyph glyph-name="greater" unicode="&#x3e;" horiz-adv-x="328" 
d="M70 586q-2 10 32.5 17.5t36.5 0.5q1 -3 66.5 -128t77.5 -152q5 -4 -4 -13q-27 -26 -165.5 -151.5t-142.5 -129.5q-8 -9 -43 3q-21 7 -20 14q0 2 1 3q19 19 167.5 136t166.5 132q-8 13 -87 130.5t-86 137.5z" />
    <glyph glyph-name="question" unicode="?" horiz-adv-x="440" 
d="M112 426q-3 -41 -25 -53q-18 -10 -22 13q-2 7 -1 17q11 84 44 147t75 93t87 40t84 -3.5t63 -44.5q33 -40 27.5 -88t-30 -92t-64 -90t-77 -81t-68 -66t-35.5 -45q-13 -34 -57 -27q-28 5 -31 18q-1 4 1 7q12 20 41 47.5t60 51.5t61.5 57.5t49 65.5t18 74.5t-27.5 86.5
q-22 37 -58 41t-70 -39t-45 -130zM101 6q-49 -18 -73 -12.5t-21.5 28.5t31.5 50q79 75 108 47q20 -18 3 -61q-16 -39 -48 -52z" />
    <glyph glyph-name="at" unicode="@" horiz-adv-x="660" 
d="M498 234q-123 -174 -190 -174q-22 0 -36 4.5t-20 17t-9 23t1 34t7.5 39t12.5 47.5q1 4 1.5 6.5t1.5 6t2 6.5q-68 -129 -126 -125q-37 3 -27 70q13 85 80 172q94 123 215 128l38 -1q5 -1 -0.5 -13t-15 -23.5t-15.5 -10.5q-90 19 -173 -97q-53 -74 -67 -142q-7 -35 6 -33
q10 1 30 27q19 24 32 44.5t25 41.5t19 32q18 66 20 73q2 6 12.5 8.5t24 0.5t26.5 -5t21.5 -7.5t7.5 -8.5q-3 -13 -10.5 -37t-15 -47.5t-15.5 -50.5t-13.5 -50t-8.5 -42.5t-1.5 -31t8.5 -12.5q13 -2 54 41.5t82 103.5q19 29 40 77t36.5 104.5t1.5 99.5t-64 50q-94 9 -193 -63
t-164 -181q-100 -168 -87 -294q10 -93 78 -114q87 -28 215 80l22 20q9 11 19 12.5t15 -5t1 -18.5q-140 -132 -255 -128q-87 3 -120 83q-42 106 33 273q21 48 52 98q79 128 173.5 208t194.5 76q59 -2 86.5 -37t26 -84.5t-17 -105t-37.5 -99.5t-40 -67z" />
    <glyph glyph-name="A" unicode="A" horiz-adv-x="701" 
d="M512 525q-12 -18 -154 -235q43 0 125 -2zM324 237q-125 -182 -194 -256q-52 -56 -100.5 -81.5t-83 -9t-39.5 81.5q-2 30 11 40q10 8 17 -15q1 -6 2 -13q20 -96 205 167l55 81q-14 0 -24 0.5t-15 3.5t-8 5t-2.5 8t1 8.5t3 10.5t3.5 11q3 9 16 10.5t34.5 -0.5t27.5 -2
q43 66 135.5 211.5t131.5 204.5q12 4 50 -21.5t43 -48.5l-44 -346h48q24 0 24 -17q0 -18 -23 -27q-10 -4 -20 -4h-38l-36 -256q-5 -19 -21 -32.5t-35 -14.5q-7 -1 -10 1.5t-2.5 7.5t2 10t4.5 13.5t4 14.5l31 256q-53 0 -153 -2z" />
    <glyph glyph-name="B" unicode="B" horiz-adv-x="652" 
d="M349 529q-23 -73 -63.5 -166.5t-73.5 -192.5q-30 -96 -22 -137t46 -45q41 -4 109 58q81 73 101 150q28 105 -92 140l-16 4q-10 2 -12.5 4t-1 3.5t8.5 6.5t12.5 9t14.5 12.5t19 19.5t19 25q32 49 40 102.5t-14 90.5t-72 35q-61 -2 -127 -41.5t-113 -112t-43 -154.5
q4 -24 -7.5 -34.5t-25.5 -7.5t-17 13q-5 80 45.5 169t136.5 152t173 68q91 5 141 -32t53 -91.5t-29.5 -114.5t-92.5 -99q59 -27 70.5 -99t-21.5 -143q-47 -114 -158 -163q-96 -43 -179 -14q-78 27 -86 103q-5 47 21 106q60 139 123 332q6 26 40.5 40.5t61 11.5t31.5 -8z" />
    <glyph glyph-name="C" unicode="C" horiz-adv-x="459" 
d="M508 572q7 -19 -31 -36q-39 -17 -55 -5q-4 3 -4 9q-62 110 -153 4q-78 -91 -137 -276q-54 -170 -39 -248q16 -77 101 9q31 31 70 83q7 7 13 9.5t10 1t7 -5t4 -8.5t2 -9t2 -7v-3q-133 -171 -227 -149q-65 16 -87 120q-25 125 28 278q58 166 183 267q55 44 111 58.5
t96.5 2.5t69 -36.5t35.5 -55.5q0 -1 1 -3z" />
    <glyph glyph-name="D" unicode="D" horiz-adv-x="603" 
d="M354 547q-24 -72 -64 -165.5t-74 -193.5q-19 -54 -23.5 -88.5t4 -49t25 -19t40.5 2.5q92 19 149 164.5t46 284.5t-86 141q-45 2 -97 -15.5t-98 -50t-75.5 -85.5t-27.5 -115q4 -24 -7.5 -34.5t-25.5 -7.5t-17 13q-5 79 46.5 159.5t137 133t173.5 57.5q77 5 123 -29.5
t57 -90.5t3 -125t-30.5 -132.5t-52.5 -113.5q-86 -144 -206 -208q-98 -52 -160 -21q-65 32 -42 137q8 35 25 75q63 138 122 332q6 26 41 40.5t62 12t32 -8.5z" />
    <glyph glyph-name="E" unicode="E" horiz-adv-x="548" 
d="M378 516q15 79 -46 84q-52 4 -112 -40q-34 -24 -46 -49q-50 -105 36 -114q22 -3 57 3t33 -23q-1 -27 -23 -48q-5 -4 -9 -6q-109 -42 -175.5 -158.5t-32.5 -194.5q8 -15 32.5 -19.5t58 4t69.5 27t71.5 55.5t58.5 85l25 -14q17 -13 7 -23q-41 -68 -92 -115.5t-99 -68
t-92.5 -25t-77 6t-48.5 31.5q-48 63 10 185.5t176 221.5q-34 12 -58.5 32t-40 50t-7.5 74.5t43 97.5q55 81 158 113q100 31 164 -8q77 -45 47 -164q-6 -3 -16.5 -6l-31.5 -9t-32.5 -2.5t-6.5 17.5z" />
    <glyph glyph-name="F" unicode="F" horiz-adv-x="347" 
d="M162 59q-23 -68 -95 -107q-68 -36 -115 -14q-39 18 -35 74q0 13 20 28q19 13 23 -3q7 -30 28.5 -31.5t37.5 26.5q60 104 126 398q-4 0 -16 2.5t-17 2.5q-11 0 8 27q14 20 22 20h14q22 73 42 128h-34q-8 0 1 23t24.5 46.5t23.5 23.5q50 0 159.5 -7t154.5 -7q34 0 12 -42
q-13 -26 -23 -29q-68 1 -185 -4q-19 -47 -48 -135q23 -1 68 -1q26 0 5 -29q-12 -15 -19 -17q-11 1 -34 1.5t-34 0.5q-24 -75 -63 -208.5t-51 -166.5z" />
    <glyph glyph-name="G" unicode="G" horiz-adv-x="526" 
d="M406 562q24 21 6 36q-24 20 -75 -4q-97 -45 -173 -209q-40 -88 -69 -201q-33 -130 18 -150q43 -17 111 46q40 37 74 91q3 11 17 60t27 87q4 13 47 35q52 27 51 3v-2q-1 -12 -40 -127t-85 -246t-53 -154q-24 -62 -55.5 -91.5t-61.5 -28t-59.5 18.5t-51 42t-33.5 50
q-5 12 15 29q18 16 20 3q7 -31 37.5 -51.5t63 -14.5t42.5 43q46 152 70 220q-64 -58 -126 -80t-103.5 -2.5t-58 78t11.5 160.5q81 317 246 441q95 72 182 55q58 -11 72 -55q18 -54 -50 -110q-2 -2 -5 -4q-17 -14 -25 -3q-10 14 13 35z" />
    <glyph glyph-name="H" unicode="H" horiz-adv-x="608" 
d="M166 72q-25 -69 -98 -107q-69 -37 -115 -14q-37 18 -33 73q0 15 20 28q19 13 24 -3q5 -25 21 -31t35.5 8t32.5 43q21 46 58 176q-7 0 -39.5 -1t-54.5 -2q-38 1 -17 30q18 22 38 28q19 0 47.5 0.5t39.5 0.5q16 61 39.5 156t37 148t21.5 65q129 46 137 12
q-47 -101 -127 -379q72 4 179 5q3 9 26 76.5t44 129.5q7 14 43 26q46 15 46 -14q0 -5 -2 -12q-15 -47 -28.5 -87.5t-25 -72.5t-15.5 -45l27 1q9 1 9 -9q0 -21 -22 -39l-14 -8l-19 -1q-18 -48 -98 -285q-16 -22 -62 -22q-29 2 -27 13q77 231 98 293q-63 -2 -108 -3.5
t-66 -1.5q-46 -159 -52 -175z" />
    <glyph glyph-name="I" unicode="I" horiz-adv-x="346" 
d="M179 122q-25 -68 -98 -107q-69 -36 -115 -13q-37 18 -33 73q2 15 21 28q18 12 23 -3q5 -25 21.5 -31.5t36 7.5t32.5 44q37 81 93 309.5t67 245.5q128 43 137 12q-46 -94 -112.5 -321t-72.5 -244z" />
    <glyph glyph-name="J" unicode="J" horiz-adv-x="464" 
d="M203 -157q-64 -143 -149 -141q-64 2 -110 79q-51 87 -38 190q2 16 6 31q1 4 17 13t29.5 12.5t17.5 -1.5q-27 -69 5 -142q23 -53 57 -59q35 -6 58 45q45 98 155 443t123 364q1 0 11.5 3.5t20.5 6.5t24.5 7t27 5.5t24 2t19 -2.5t9.5 -10q-41 -88 -164.5 -445.5
t-142.5 -400.5z" />
    <glyph glyph-name="K" unicode="K" horiz-adv-x="533" 
d="M172 95q-25 -68 -97 -107q-68 -37 -114 -16q-40 19 -35 75q0 15 20 28q19 13 24 -3q5 -25 21 -31t35.5 8t32.5 43q28 62 61.5 193t59 238.5t36.5 123.5q128 40 136 11q-48 -100 -110 -324q16 17 60.5 65t94 98t125.5 124q3 0 7.5 -1t16.5 -3t20.5 -6t16 -9.5t5.5 -14.5
t-13 -20l-223 -222l28 -329l-25 -28q-37 -34 -41 3l-23 293l-89 -88q-13 -51 -30 -101z" />
    <glyph glyph-name="L" unicode="L" horiz-adv-x="400" 
d="M151 -66q-42 -104 -128 -119q-63 -12 -111 27q-42 34 -26 74q25 61 175 76q25 70 68 235t77.5 297t44.5 147q8 3 26 8.5t43 12t45 5t23 -12.5q-22 -47 -56.5 -150t-60 -190t-59.5 -206.5t-40 -139.5q79 0 190 -9q18 0 27 -13t4 -32q-5 -18 -22 -31t-35 -13
q-19 1 -47.5 6.5t-69.5 14t-68 13.5zM-48 -88q10 -34 39.5 -26.5t49.5 51.5q2 6 4 10q-3 0 -12.5 0.5t-13.5 0.5t-13 -0.5t-14 -1.5t-12 -3.5t-11.5 -6.5t-9 -10t-7.5 -14z" />
    <glyph glyph-name="M" unicode="M" horiz-adv-x="687" 
d="M159 55q-25 -69 -98 -107q-69 -37 -115 -14q-38 18 -34 73q1 14 21 28q19 14 24 -2q5 -25 21 -31.5t35.5 7.5t32.5 44q36 80 102 343t78 281q1 0 11 3.5t20.5 6.5t25 7t27 6t24 2.5t19 -3t9.5 -10.5l-3 -8q-32 -282 -38 -359t-3 -137q188 313 269 423q32 42 75 45
q24 2 23 -12q0 -2 -1 -4l-202 -672q-10 -16 -50 -16q-37 0 -36 20q1 4 3 8q19 76 46.5 161t51 152t27.5 80q-8 -12 -48 -77.5t-67 -109t-60.5 -93.5t-50.5 -70q-8 -10 -23.5 7.5t-20.5 35.5q0 12 -2 78.5t1 123.5t13 152q-18 -59 -41.5 -141t-39.5 -138.5t-26 -82.5z" />
    <glyph glyph-name="N" unicode="N" horiz-adv-x="623" 
d="M159 53q-25 -68 -99 -107q-69 -37 -114 -15q-39 19 -34 75q1 14 21 28q18 12 23 -4q3 -15 10.5 -23.5t17.5 -9t21 4.5t22 17.5t19 30.5q36 80 104.5 343.5t80.5 281.5q1 0 11.5 3.5t20.5 6.5t25 6.5t27.5 5.5t24 2.5t19 -3t9.5 -10.5q-5 -167 -10.5 -310t-8 -200
t-1.5 -91q23 83 92 266t93 261q32 42 79 49q27 4 27 -9q0 -1 -1 -3l-246 -672q-25 -27 -59 -40q-34 -12 -36 15q-9 199 -3 538q-29 -88 -76 -246t-59 -191z" />
    <glyph glyph-name="O" unicode="O" horiz-adv-x="517" 
d="M92 -55q-85 -11 -111 91q-27 110 23 276q56 185 169 294q93 90 200 94q9 -4 -2 -45.5t-28 -72.5q93 -14 99 -129q5 -115 -73 -261t-183 -211q-47 -30 -94 -36zM145 39q86 5 157 136q62 116 73 242q10 113 -36 130l-8 2q-12 -1 -19 9q-81 -13 -149 -145q-63 -121 -72 -246
q-9 -113 40 -127q6 -1 14 -1z" />
    <glyph glyph-name="P" unicode="P" horiz-adv-x="491" 
d="M191 50q-24 -67 -95 -106q-69 -37 -116 -15q-39 18 -35 73q2 16 21 29q18 12 23 -3q5 -25 21.5 -31.5t36 7.5t32.5 44q36 81 87.5 309.5t61.5 244.5q130 43 137 13q-37 -85 -106 -322q12 4 34 7q71 13 119 99q47 83 35 160q-12 80 -85 89q-7 1 -14 1q-59 1 -125.5 -39
t-112.5 -114t-42 -156q5 -24 -6.5 -34.5t-25.5 -7t-17 12.5q-4 60 25.5 130.5t79 128t116 95t129.5 35.5q131 -4 164 -100q28 -82 -26 -185q-51 -98 -141 -143q-58 -28 -119 -24q-49 -178 -56 -198z" />
    <glyph glyph-name="Q" unicode="Q" horiz-adv-x="556" 
d="M110 -28q15 -4 13.5 -14.5t-16.5 -13.5q-128 5 -143 135q-14 125 73 306q79 164 183 253q80 69 144 60q67 -9 94.5 -80t15.5 -163.5t-54 -192.5t-104 -164q0 -14 -3 -54.5t-2.5 -63t5 -53.5t21 -49.5t43.5 -26.5q7 -4 0 -23t-20 -40.5t-18 -22.5q-19 0 -34 6.5
t-24.5 21.5t-16.5 28.5t-10 40t-4.5 42.5t-0.5 49t2 47t3 49q-46 -28 -79.5 -40t-51 -7t-28.5 18.5t-10 34.5t3 43q17 105 89 142q54 27 97 0q34 -21 35 -65q76 122 101 245q26 134 -41 150q-9 2 -19 2q-58 0 -146 -130q-92 -136 -136 -281q-46 -156 13 -184q11 -5 26 -5z
M258 103q2 68 -39 82q-34 11 -63 -22q-26 -28 -25 -73q1 -16 5.5 -28t14.5 -18.5t24 -4t35.5 18.5t47.5 45z" />
    <glyph glyph-name="R" unicode="R" horiz-adv-x="543" 
d="M196 50q-25 -67 -98 -106q-69 -37 -115 -15q-39 17 -35 73q3 16 23 29q17 12 22 -3q5 -25 21.5 -31.5t36 8t32.5 43.5q29 62 63 193t60 238t37 123q8 3 25.5 9t43 12t45.5 5t23 -13q-46 -95 -112 -322l25 5q71 13 121 99q48 84 37 161q-11 79 -83 88q-7 1 -14 1
q-95 2 -192 -92t-93 -217q4 -24 -7.5 -34.5t-25.5 -7t-17 13.5q-5 80 47 172.5t138 155.5t170 60q57 -2 96 -22t55.5 -51.5t20 -71t-11 -81.5t-38 -81t-59 -71.5t-75.5 -51.5l21 -277l-24 -27q-37 -35 -41 2l-21 282q-29 -4 -43 -2q-45 -161 -58 -196z" />
    <glyph glyph-name="S" unicode="S" horiz-adv-x="498" 
d="M414 452q79 127 43 166q-26 29 -88 -3q-10 -5 -20 -12q-58 -38 -112 -186q-14 -40 -13.5 -71.5t12.5 -50.5t28.5 -37t34 -31t30.5 -33.5t17 -44t-7 -62.5q-13 -46 -45 -84.5t-72 -60t-84 -31t-82 3.5t-66 43t-35 87.5t10 136.5q7 21 24.5 21t31.5 -15t10 -32
q-16 -78 36 -135q44 -47 98 -39q62 9 87 94q2 5 3 11q8 33 1.5 60t-22.5 44.5t-36.5 37t-41 37.5t-34.5 45.5t-17 62t10 86.5q29 111 136 184q90 61 171 55q76 -5 88 -71q13 -75 -68 -205q-25 -35 -40 -28q-16 7 2 40q4 9 10 17z" />
    <glyph glyph-name="T" unicode="T" horiz-adv-x="346" 
d="M171 53q-25 -68 -98 -107q-69 -36 -115 -14q-38 19 -34 74q1 14 21 27q19 13 24 -2q4 -20 17 -28t29 -0.5t27 27.5q34 65 98 301.5t79 275.5q-62 -3 -119 -3q-15 0 11 44q29 46 46 49q59 0 177 -4.5t179 -5.5q39 0 16 -36q-18 -26 -34 -32q-55 1 -141 -4
q-42 -101 -110.5 -325.5t-72.5 -236.5z" />
    <glyph glyph-name="U" unicode="U" horiz-adv-x="542" 
d="M261 685q-11 -39 -67.5 -206.5t-81.5 -251.5q-76 -267 55 -135q48 48 148 181q32 42 40 52q15 64 71 227q14 33 60 48q37 12 42 -3q1 -3 0 -6q-24 -76 -92 -278.5t-95 -296.5q-11 -38 -54 -61q-37 -20 -46 -2q-4 8 0 21q50 174 70 223q-163 -189 -241 -243
q-179 -122 -77 290q15 61 107 395q3 11 69 39q92 40 93 14q1 -3 -1 -7z" />
    <glyph glyph-name="V" unicode="V" horiz-adv-x="550" 
d="M330 573q-95 -473 -66 -475q12 0 40 40t67 109.5t71.5 129.5t71 134.5t46.5 89.5q17 40 65 43q31 2 34 -10q0 -2 -1 -5q-165 -298 -378 -635q-19 -30 -70 -61q-76 -46 -95 -4q-7 17 -4 46q4 47 17.5 138.5t26.5 170.5t27.5 167t16.5 101q6 46 -20.5 52.5t-58.5 -32.5
q-15 -15 -26 -2t-4 27q36 68 100.5 93.5t109.5 -7t30 -110.5z" />
    <glyph glyph-name="W" unicode="W" horiz-adv-x="785" 
d="M331 578q-47 -238 -72 -478q41 83 89 184.5t79.5 167.5t57.5 109q17 40 78 47q38 5 42 -6v-3q-9 -26 -43.5 -120t-58 -161.5t-40 -142.5t-7.5 -107q16 -8 80.5 95t131 246.5t84.5 232.5q1 17 23 24t44 3t23 -14q-6 -16 -27 -64.5t-61.5 -139t-87 -177t-94.5 -163
t-94.5 -113.5t-77.5 -14q-19 21 -24 58t-1 72t18.5 88t25.5 84.5t31.5 85t25.5 67.5q-17 -27 -84.5 -175.5t-143.5 -286.5q-25 -44 -60 -57.5t-58 13t-14 85.5q7 52 84 538q7 46 -20 52.5t-59 -32.5q-15 -15 -25.5 -1.5t-3.5 26.5q40 75 113 97q66 20 104 -18
q35 -34 22 -102z" />
    <glyph glyph-name="X" unicode="X" horiz-adv-x="572" 
d="M248 -28l-29 247q-188 -199 -275 -288q-24 -17 -69 -12q-29 4 -27 16q1 5 7 11q98 100 179 184t117 120.5t67 67.5l-2 324q-2 11 49 37q78 39 102 22q8 -6 6 -20q-10 -72 -15 -229q25 24 91.5 87.5t108.5 104.5q36 28 65 15q20 -10 9 -25q-3 -4 -8 -7
q-203 -195 -269 -263q-6 -126 20 -395q3 -29 15 -36.5t29 3.5t38 37q15 17 26 3t4 -27q-19 -34 -47.5 -60.5t-59.5 -37.5t-59 -5.5t-48 38t-25 88.5z" />
    <glyph glyph-name="Y" unicode="Y" horiz-adv-x="545" 
d="M261 685q-11 -42 -43 -133t-56 -173q-94 -320 117 -64q8 11 113 147q5 7 9 12q10 35 20.5 66t26.5 72t25 65q3 6 27 13.5t40 7.5q10 0 15 -3.5t4 -10.5q-46 -144 -92 -273q-22 -76 -61 -221t-63.5 -231.5t-38.5 -116.5q-63 -143 -149 -141q-63 2 -110 79q-52 87 -39 191
q2 15 5 30q1 4 17.5 13t30.5 13t17 -2q-27 -67 7 -148q27 -62 64.5 -74.5t61.5 39.5q40 87 91 272.5t80 257.5q-174 -202 -257 -258q-129 -85 -115 95q6 72 34 187q21 86 35.5 148.5t22.5 93.5q4 11 74 41q91 39 89 12z" />
    <glyph glyph-name="Z" unicode="Z" horiz-adv-x="533" 
d="M-1 16q1 8 22 19q28 15 28 -8q0 -4 -1 -8q-14 -56 6 -146q22 -100 63 -106q54 -8 117 167q16 46 33 104q18 55 18 90t-12 50t-38 19.5t-51.5 1.5t-61 -6t-59.5 -1q-46 4 72 123q30 30 99 96q142 135 164 171q9 14 6 21q-36 33 -129 -26.5t-163 -157.5q-6 -2 -14.5 -5
t-26.5 -8t-28.5 -3t-6.5 13q68 94 160 164t170.5 100t131.5 25q148 -11 81 -85q-56 -62 -180 -191t-159 -168q59 13 92 -4.5t39.5 -58.5t0 -88t-24.5 -104q-77 -246 -181 -284q-69 -24 -122.5 45.5t-53.5 175.5q0 38 9 73z" />
    <glyph glyph-name="bracketleft" unicode="[" horiz-adv-x="290" 
d="M-69 -101q14 47 106.5 341.5t120.5 379.5q-4 6 0.5 18.5t10.5 12.5q11 11 35 -1q15 0 47 -1t53.5 -1.5t29.5 -0.5q8 -1 -5 -16q-7 -8 -13 -9q-29 -4 -103 -4q-15 -67 -111 -371t-99 -314q90 -2 118 -4q9 -1 -6 -17q-6 -7 -11 -8q-43 -4 -112 -4q-15 -15 -46 -11
q-15 3 -15 10z" />
    <glyph glyph-name="backslash" unicode="\" horiz-adv-x="369" 
d="M251 19q1 -10 -14.5 -21t-30.5 -13.5t-18 2.5q-3 17 -35.5 318.5t-34.5 333.5q0 8 11 11t23.5 0.5t14.5 -10.5q10 -30 28.5 -169t36 -288.5t19.5 -163.5z" />
    <glyph glyph-name="bracketright" unicode="]" horiz-adv-x="225" 
d="M32 -101q-4 -11 -29 -11t-29 12q-71 0 -111 4q-6 2 -7.5 13t5.5 12q30 2 121 4q10 31 56 192t88.5 302t61.5 191q-74 0 -101 4q-6 2 -7.5 13t5.5 12q8 0 29.5 0.5t53.5 1.5t48 1q31 12 36 1q9 0 1 -19q-4 -8 -9 -12q-26 -92 -115.5 -396.5t-96.5 -324.5z" />
    <glyph glyph-name="underscore" unicode="_" horiz-adv-x="652" 
d="M38 -107q-11 0 -11 15.5t7.5 31t15.5 15.5q28 0 283.5 -5.5t284.5 -7.5q14 -1 -5 -24q-15 -19 -27 -21q-29 -3 -114 -4.5t-164.5 -1t-169.5 1t-100 0.5z" />
    <glyph glyph-name="grave" unicode="`" horiz-adv-x="329" 
d="M120 654q-7 10 6 24.5t24 11.5q19 -5 44 -48.5t21 -64.5q-7 -44 -29 -48q-13 -1 -21 17.5t-18.5 52t-26.5 55.5z" />
    <glyph glyph-name="a" unicode="a" horiz-adv-x="466" 
d="M239 -37q38 -5 223 247l20 -23q-198 -286 -295 -286q-83 0 -91.5 62.5t27.5 167.5q5 19 7 29q-18 -34 -34 -59.5t-39.5 -56t-49.5 -46t-52 -13.5q-47 4 -41 84q8 99 83 216q96 149 229 200q75 29 154 19q12 -2 -9 -35t-35 -31q-119 25 -229 -120q-71 -94 -100 -198
q-18 -65 2 -66q14 0 43 39q27 34 45 62.5t34 58t27 46.5q20 70 28 102q2 9 17 12t34 1t37.5 -6.5t30.5 -11t11 -11.5q-5 -18 -15.5 -52.5t-20 -67t-21 -71.5t-19 -71t-12 -59.5t-2 -44t12.5 -17.5z" />
    <glyph glyph-name="b" unicode="b" horiz-adv-x="459" 
d="M47 142q3 5 15.5 27t22 37t26 42t30 46.5t31 44t33 41.5t32 32t32 23t28.5 8q29 0 38.5 -28t-1.5 -57q-21 -83 -72 -181.5t-113 -170.5q95 16 159.5 58t141.5 131l17 -23q-79 -96 -156.5 -144t-196.5 -60q-79 -76 -141 -66q-43 7 -40 32q2 25 44 45q27 13 58 15
q5 0 15.5 0.5t15.5 1.5q77 99 139.5 215.5t23.5 116.5q-7 0 -12.5 -2.5t-18 -16.5t-30.5 -42q-136 -199 -163 -236q-10 -16 -57 -23q-48 -8 -45 13q4 20 78.5 277t118.5 402q6 18 61 35q61 18 67 -1q2 -4 0 -9q-20 -66 -63.5 -206.5t-79 -253t-38.5 -123.5zM-1 -46
q-19 -7 -17 -14q2 -10 23 -1q16 7 33 24q-27 -3 -39 -9z" />
    <glyph glyph-name="c" unicode="c" horiz-adv-x="397" 
d="M391 161q-85 -112 -186 -173.5t-169 -63.5q-99 -1 -116 93t46 221q64 130 162 192q64 40 128 37q19 -1 44.5 -17.5t26.5 -42.5q1 -15 -23 -32q-13 -9 -14 -3q0 32 -17 43t-32 -1q-68 -45 -139 -179q-71 -133 -70 -208q1 -40 28 -43q53 -7 143.5 47t184.5 162q4 5 6 -6
q4 -17 -3 -26z" />
    <glyph glyph-name="d" unicode="d" horiz-adv-x="436" 
d="M185 -43q32 1 105.5 79t136.5 167l24 -21q-201 -286 -293 -289q-26 -1 -42.5 4.5t-24 19t-10.5 27.5t1 40.5t8.5 46.5t13 56.5t13.5 60.5q-19 -34 -35 -58.5t-39.5 -54t-49 -44t-51.5 -12.5q-28 3 -37 28t-1 57q17 65 42.5 125.5t61.5 115.5t85 91t104 43
q17 56 42.5 127.5t40.5 119.5q5 17 70 41q75 28 84 10q2 -5 -3 -14q-25 -82 -100.5 -288t-120.5 -342.5t-25 -135.5zM137 237q17 66 53 180q-58 -13 -128 -150q-57 -112 -67 -184q-5 -38 12 -30q12 6 34 34q19 24 34.5 47t23 35t20.5 36t18 32z" />
    <glyph glyph-name="e" unicode="e" horiz-adv-x="390" 
d="M397 172q-83 -118 -207 -209.5t-190 -80.5q-92 15 -96 123q-5 107 72 238q76 130 180 185q37 20 73 26q92 7 89 -49q-4 -56 -89 -140q-80 -79 -147 -100q-51 -101 -59.5 -153t26.5 -66q45 -17 148 65.5t191 195.5q7 8 11 -7q3 -14 -2 -28zM233 384q-13 -4 -52.5 -57.5
t-67.5 -102.5q79 40 114 112q20 40 10 47q-2 2 -4 1z" />
    <glyph glyph-name="f" unicode="f" horiz-adv-x="254" 
d="M78 644q3 10 40.5 21.5t67.5 12.5t33 -13q-23 -85 -123 -407q143 -4 183 11q1 0 2 -3.5t2 -9.5t1 -12.5t-1.5 -11.5t-5.5 -7q-15 -7 -194 -7q-1 -5 -8 -23q90 -71 28 -231q-46 -117 -139 -213q-79 -82 -121 -74q-46 9 -11 133q52 181 115 405h-1q-10 1 -13 1t-9.5 2.5
t-4 6.5t4.5 12q8 11 35 17q57 201 119 390zM-40 -142q-30 -72 -12 -66q19 6 60 77q73 128 70 224q-1 36 -15 62q-69 -216 -103 -297z" />
    <glyph glyph-name="g" unicode="g" horiz-adv-x="441" 
d="M171 257q-78 -132 -133 -196q-47 -53 -85 -53q-30 0 -39 25.5t-1 58.5q15 58 38.5 115.5t58 113.5t75 97t92 62.5t105.5 12.5q40 -7 40 -30q0 -13 -23 -20t-30 4q-34 49 -121 -50q-74 -84 -121 -188q-39 -87 -9 -87q7 0 12.5 2.5t17.5 16.5t32 42q39 56 72 100t62 85
q11 15 58 24q47 7 44 -13q-10 -58 -99 -360q67 38 115.5 74.5t88.5 90.5q2 2 9.5 1.5t12 -4.5t-2.5 -18q-20 -35 -62.5 -71.5t-74.5 -56t-98 -57.5q-31 -107 -65 -203q-45 -123 -121 -167q-56 -32 -90 -3q-41 35 -9 122q21 60 74 130q27 38 76 75q64 193 101 325zM-8 -189
q-62 -92 -49 -117q8 -16 32 7q20 20 32 52q26 69 44 123q-40 -35 -59 -65z" />
    <glyph glyph-name="h" unicode="h" 
d="M49 171q84 138 135 196q46 54 86 54q30 0 39.5 -28t-0.5 -57q-14 -50 -65.5 -141.5t-79.5 -151t-2 -66.5q40 -11 114.5 58t143.5 159l20 -23q-84 -113 -166 -183.5t-142 -74.5q-51 -4 -54 34.5t18 80.5q2 7 3 10q8 23 45 96t56.5 122.5t1.5 49.5q-6 0 -11 -2.5t-18 -16.5
t-32 -42q-34 -49 -74 -110t-74 -109q-11 -16 -58 -23t-44 14q2 12 109.5 342.5t106.5 350.5q-1 14 37 24.5t70 10.5t36 -7q-3 -17 -100.5 -287.5t-100.5 -279.5z" />
    <glyph glyph-name="i" unicode="i" horiz-adv-x="228" 
d="M-1 -43q18 -4 84.5 72t133.5 171l24 -22q-20 -32 -48 -71.5t-67.5 -90t-78.5 -86t-64 -38.5q-88 -12 -87 77q1 68 70 257q54 148 68 199q6 23 56 39q40 11 41 -1q-5 -31 -49 -161.5t-73.5 -235.5t-9.5 -109zM145 537q-49 -18 -73.5 -12.5t-21.5 28.5t32 50q80 75 109 47
q20 -18 2 -61q-16 -39 -48 -52z" />
    <glyph glyph-name="j" unicode="j" horiz-adv-x="269" 
d="M84 479q3 10 29.5 18t50.5 7t22 -15q-6 -29 -146 -458q50 24 78.5 39.5t66 46t63.5 67.5q1 2 7 -3t8 -13t-6 -21q-21 -28 -46 -50.5t-61 -43.5t-56.5 -31.5t-67.5 -32.5q-33 -108 -79 -240q-46 -125 -127 -172q-60 -34 -97 -4q-44 35 -14 127q18 55 62 120q51 76 121 127
q9 28 25 75.5t26.5 78.5t16.5 50q28 81 48 133.5t40.5 103t35.5 91.5zM196 582q-50 -18 -73.5 -12.5t-20.5 28.5t31 49q83 77 111 48q19 -19 0 -62q-16 -38 -48 -51zM-210 -198q-57 -101 -39 -128q11 -15 35 9q16 18 27 45q25 62 62 172q-54 -42 -85 -98z" />
    <glyph glyph-name="k" unicode="k" horiz-adv-x="415" 
d="M101 329q29 50 106 128t116 78q29 0 38.5 -27.5t-0.5 -56.5q-7 -24 -22 -48.5t-44.5 -55t-84.5 -57t-128 -43.5q68 -290 101 -296q18 -4 60 42t97 119.5t63 82.5l20 -22q-6 -7 -46 -59.5t-77.5 -99t-81 -87t-66.5 -41.5q-35 0 -61.5 97t-38.5 206q-5 -12 -22 -57.5
t-30 -76.5q-5 -15 -52 -23q-50 -7 -49 13q2 12 103 332t100 340q-2 21 71 32q65 10 72 -2v-2q-3 -18 -72 -212.5t-72 -203.5zM293 450q-16 32 -73.5 -20t-96.5 -110q-22 -33 -28 -43q76 21 143 83t55 90z" />
    <glyph glyph-name="l" unicode="l" horiz-adv-x="272" 
d="M24 -57q15 -2 39 17t56 57t56.5 70t60.5 80q7 9 11.5 15t8.5 12l22 -23q-12 -15 -51.5 -70t-71 -96.5t-73 -80t-70.5 -41.5q-48 -5 -72.5 26t-24 91.5t11.5 131.5t36 159.5t47.5 160t47.5 149.5t35 112q4 15 41.5 28.5t68 16t34.5 -4.5q-5 -29 -70 -238t-114 -389
t-29 -183z" />
    <glyph glyph-name="m" unicode="m" horiz-adv-x="635" 
d="M143 406q-3 -20 -37.5 -92.5t-42.5 -92.5q137 236 219 236q19 0 29 -8.5t10.5 -25.5t-2.5 -34t-13.5 -43t-18 -43t-20 -43t-16.5 -34q4 6 24 41.5t34 59t38.5 59.5t44.5 58t43.5 39t43.5 17q85 0 -39 -332q-13 -33 -36 -94q-40 -102 -38 -109q9 -28 110 66q95 90 151 169
l20 -25q-62 -88 -164 -183t-147 -92q-24 2 -36.5 13.5t-13 30.5t3.5 37.5t13 44.5q2 5 42.5 109t58 166t-0.5 62q-6 0 -11.5 -3t-18.5 -17.5t-31 -42.5q-104 -153 -135 -238q-11 -26 -48 -32q-30 -5 -31 11v2q3 17 42 106.5t66.5 163.5t8.5 72q-12 -1 -39 -22.5t-52 -58.5
q-60 -88 -105 -185q-25 -57 -48 -85q-9 -15 -55 -24q-47 -7 -45 13q2 11 50.5 173t47.5 182q-1 14 37 24.5t70.5 10.5t36.5 -7z" />
    <glyph glyph-name="n" unicode="n" 
d="M86 252q85 141 133 197q48 53 86 53q29 0 38 -26t1 -59q-7 -25 -21 -60.5t-29 -70t-31.5 -71t-29 -67.5t-20 -56.5t-6 -41.5t14.5 -18q27 -5 82.5 39.5t123.5 128.5l11 -27q-63 -87 -133.5 -143t-128.5 -44q-23 5 -34.5 19t-10.5 35.5t5.5 40.5t14.5 45q7 21 36 85
q66 147 59 170q-1 7 -8 7q-6 0 -11.5 -2.5t-18.5 -17t-32 -42.5q-22 -34 -86 -162t-77 -151q-22 -41 -32 -57t-57 -24q-47 -7 -45 13q2 10 58.5 199.5t54.5 209.5q-2 21 70 32q64 10 72 -2v-2q-4 -24 -49 -130z" />
    <glyph glyph-name="o" unicode="o" horiz-adv-x="401" 
d="M444 258q-78 -47 -130.5 -55.5t-88.5 14.5q-46 -96 -108 -156.5t-124 -54.5q-69 6 -70 87q0 85 66 185.5t150 134.5q2 44 17.5 79t41.5 47q80 37 94 -43q14 -84 -43 -225l-6 -14q28 -18 55.5 -20.5t64 14.5t78.5 57q8 7 12 -7q4 -19 -9 -43zM146 329q-21 -22 -41.5 -56
t-35 -66.5t-25 -64.5t-10.5 -50.5t8 -22.5q34 -9 74.5 41t76.5 131q-32 32 -47 88zM225 425q7 -4 6.5 -17t-9 -28.5t-17.5 -15.5q-16 -2 -30 -11q10 -39 35 -67q49 130 39 185q-7 38 -46 7q-25 -19 -33 -56q28 6 55 3z" />
    <glyph glyph-name="p" unicode="p" horiz-adv-x="432" 
d="M183 532q-34 -125 -83 -267q19 37 34 62t41 61.5t55 55t57 16.5q29 -3 38.5 -30t-0.5 -55q-39 -155 -114 -256q20 4 68 4.5t78 14t57 55.5q9 14 28 7q16 -7 2 -20q-27 -47 -62.5 -70t-67.5 -24t-68.5 -1.5t-65.5 -2.5q-53 -54 -107 -72q-42 -9 -41 13q2 25 48 55
q25 16 52 25q62 90 94 204q22 83 -1 79q-12 -2 -37 -34q-41 -53 -76 -114.5t-51 -85.5q-93 -261 -129 -392q-6 -21 -63 -41q-59 -21 -67 -4q-2 4 0 10q14 47 112 351.5t115 373.5q7 33 82 67q59 28 71 19q2 -1 1 -4zM81 46q6 5 18 17q-38 -15 -46 -29q-2 -3 1 -3q7 0 27 15z
" />
    <glyph glyph-name="q" unicode="q" horiz-adv-x="457" 
d="M177 276q-85 -142 -134 -196q-46 -54 -87 -54q-29 0 -38 28t0 57q22 105 77 196t122 131t116 1l21 30q10 15 57 23q47 7 45 -13q-9 -53 -107 -353q27 6 54 6t48.5 -1.5t46.5 15t49 55.5q1 0 4.5 -5t6 -12.5t-0.5 -14.5q-19 -38 -50 -56.5t-58 -20.5t-62 -4.5t-54 -10.5
q-5 -12 -11 -34q70 -52 21 -169q-36 -87 -108 -150q-67 -60 -98 -36q-35 26 1 152q19 67 53 172q-22 1 -32.5 6t-4.5 16q13 23 58 43q12 37 29 88t25.5 77.5t10.5 33.5zM23 141q21 0 63 61q23 34 43.5 67.5t43 71.5t34.5 58q-58 40 -126 -49q-53 -69 -70 -149
q-13 -59 12 -60zM167 -112q-44 -112 -21 -109q16 2 44 52q46 85 30 139q-5 15 -15 25q-6 -18 -12.5 -37t-14 -39.5t-11.5 -30.5z" />
    <glyph glyph-name="r" unicode="r" horiz-adv-x="477" 
d="M68 160q82 138 134 198q48 52 86 52q29 0 39 -28t0 -57q-13 -49 3.5 -70.5t54.5 6.5q8 6 15.5 2.5t8.5 -11t-5 -14.5q-66 -62 -131 -59.5t-37 102.5q11 35 -4 32q-21 -4 -72 -78q-35 -49 -80 -126.5t-80 -125.5q-9 -15 -55 -23q-48 -7 -45 14q1 4 65 240.5t62 256.5
q-1 14 37.5 25t71 11t36.5 -7q-4 -21 -31 -104.5t-51 -157.5t-22 -78z" />
    <glyph glyph-name="s" unicode="s" horiz-adv-x="502" 
d="M-47 152q58 74 136.5 195.5t112.5 203.5q16 5 44.5 -11.5t48.5 -35.5l20 -19q-37 -33 -39.5 -105t10.5 -162.5t10 -125.5q7 2 40.5 8.5t48.5 12t43.5 24.5t53.5 50q12 0 17.5 -6.5t-3.5 -23.5q-14 -20 -32.5 -36t-33 -25t-39 -18t-33.5 -11.5t-36 -8.5l-26 -5
q-3 -66 -32.5 -114t-71 -69.5t-86 -29.5t-80 -2t-51.5 21q-11 10 -14 26.5t8 39t35 46t71.5 48t112.5 44.5q1 24 -29 144.5t-25 149.5q-4 -6 -17.5 -27.5t-19 -30t-18.5 -28.5t-20.5 -30.5t-20.5 -29t-23 -31.5t-23.5 -29t-26.5 -30q-16 -13 -22 -1t10 32zM185 24
q-66 -19 -107 -43.5t-45.5 -42t3.5 -29.5q9 -7 28.5 -10.5t43 1.5t44 17t30.5 40t3 67z" />
    <glyph glyph-name="t" unicode="t" horiz-adv-x="279" 
d="M302 508q-22 0 -62 -0.5t-57 -0.5q-21 -74 -74 -236t-77.5 -251t-11.5 -92q9 -1 23 7.5t32.5 27t35.5 38t40.5 49.5t40 51t40.5 53t35 46l29 -15q-64 -100 -165.5 -216.5t-151.5 -116.5q-30 0 -49 13.5t-26.5 40.5t-8.5 58.5t8 77t18.5 86t27 96t31 95.5t33 96t29.5 88
q-89 -2 -92 4q-3 11 20 25q32 17 89 24q6 19 11 30.5t8 26.5q4 15 43 35.5t75.5 31.5t34.5 2q-4 -21 -31 -116q65 0 102 -2q14 0 20 -4t4 -10.5t-6.5 -13.5t-10 -15t-7.5 -13z" />
    <glyph glyph-name="u" unicode="u" 
d="M225 -35q13 -3 44.5 32.5t83.5 105.5t74 96l20 -22q-51 -78 -131 -172.5t-121 -104.5q-47 -12 -69.5 7.5t-20.5 71.5t10.5 96.5t28.5 119.5l5 19q-57 -94 -104 -148q-47 -53 -86 -53q-29 0 -38.5 28.5t0.5 56.5q9 41 57 206.5t55 180.5q8 17 53 17q47 1 49 -20
q1 -5 -2 -10q-44 -79 -97.5 -212t-10.5 -133q10 0 22.5 11t40.5 51q50 74 98 155q10 32 13 47q3 24 18 46q10 15 73 28q69 15 66 -7q-13 -76 -55 -190q-6 -22 -16.5 -52.5t-19.5 -57t-18.5 -55.5t-16 -52t-10.5 -42.5t-3 -30.5t8 -13z" />
    <glyph glyph-name="v" unicode="v" horiz-adv-x="525" 
d="M2 370q8 16 80 33q77 17 79 -2q1 -5 -5 -13q-52 -65 -80 -203t12 -162q14 -7 42 7.5t69 58t77 108.5q-54 24 -64 108.5t22.5 167t87.5 102.5q61 23 80 -36q31 -94 -65 -314q0 -2 -1 -3q38 -12 115.5 7t114.5 52q13 12 22 -3q12 -20 -7 -39q-3 -2 -5 -4q-41 -30 -95 -45.5
t-94.5 -14t-71.5 7.5q-37 -81 -129.5 -168t-138.5 -86q-53 1 -78 56.5t-24 129t20 147.5q16 66 37 108zM297 241q37 82 53 188q17 112 -23 108q-2 -1 -4 -1q-33 -8 -52.5 -74.5t-12.5 -136t39 -84.5z" />
    <glyph glyph-name="w" unicode="w" horiz-adv-x="640" 
d="M176 366q-88 -69 -131 -168q-35 -81 -9 -109q9 -10 26 -9q45 20 87 117q19 67 23 81q6 19 38 26q30 6 31 -11q0 -5 -3 -12q-18 -35 -27 -87.5t-3 -92t24 -57t60.5 23t100.5 142.5q-53 24 -63 108.5t22.5 167t87.5 103.5q62 23 81 -37q29 -94 -67 -316q38 -13 113 3
t112 49q12 12 23 -4q14 -19 -3 -37q-3 -3 -7 -6q-40 -30 -94.5 -43t-95.5 -12t-71 9q-39 -85 -115 -166.5t-120 -79.5q-88 1 -63 174q-25 -44 -56.5 -73t-56.5 -38q-44 -16 -72 21q-44 58 5 187q38 100 130 224q22 16 65 -13q39 -27 37 -50q-1 -9 -9 -15zM415 255
q37 85 53 189q16 111 -24 105h-3q-33 -8 -52.5 -74.5t-12.5 -135.5t39 -84z" />
    <glyph glyph-name="x" unicode="x" horiz-adv-x="437" 
d="M251 20q42 5 156 155q15 19 23 29l20 -23q-45 -71 -107 -138.5t-123 -87.5q-47 -17 -80 11.5t-49 83.5q-131 -140 -188 -179q1 -3 -2 -3q-10 1 -19 18q-16 26 11 45q21 16 87 80.5t97 99.5q-11 92 -6 153q0 3 -9.5 -10.5t-40.5 -58.5q-40 -60 -42 -60q0 4 -6 8.5t-10 8.5
t-1 7q20 27 69 115.5t50 101.5q1 23 79 58q64 28 70 18q-11 -67 -13 -177q24 36 54.5 81.5t57.5 87t33 49.5q9 9 22.5 7.5t24 -10.5t7.5 -17q-4 -6 -31 -47t-76 -112t-92 -128q4 -81 11 -124.5t23 -41.5z" />
    <glyph glyph-name="y" unicode="y" horiz-adv-x="446" 
d="M180 268q-87 -143 -135 -196q-45 -54 -85 -54q-30 0 -39.5 28t0.5 57q13 48 59.5 210.5t52.5 177.5q8 16 54 16q47 0 48 -21q1 -4 -2 -10q-45 -83 -97.5 -213t-9.5 -130q7 0 12 2.5t18 16.5t32 42q33 49 83 130t85 130q11 16 57 23q48 7 45 -14q-2 -6 -24 -74t-55 -169
t-52 -160q4 1 38 11.5t51.5 19t51 36.5t63.5 69q5 5 21 3q18 -2 7 -19q-27 -42 -64.5 -72.5t-66 -43t-65.5 -26.5t-49 -20q-13 -41 -35.5 -121t-36.5 -117q-46 -124 -127 -170q-60 -34 -99 -4q-44 35 -16 124q19 57 67 125q50 75 127 140q14 41 34 105.5t35.5 114.5t16.5 53
zM-14 -168q-56 -100 -39 -127q10 -16 34 7q17 18 28 47q37 99 66 183q-59 -54 -89 -110z" />
    <glyph glyph-name="z" unicode="z" horiz-adv-x="497" 
d="M98 96q-26 -13 -41 5q-15 16 3 32q12 11 38 14q76 35 128 96t30 97q-13 22 -32 27.5t-40.5 -4.5t-44.5 -28.5t-46 -45t-44 -55t-39 -58.5q-20 -36 -33 -34t2 35q4 10 10 20q104 172 190 245.5t134 53.5q61 -26 74.5 -75.5t-13 -102t-79 -102t-114.5 -77.5
q26 -9 48.5 -31.5t26.5 -55.5q15 6 49 15t58 18t59 37t66 73q1 2 7 -2t8 -11.5t-5 -21.5q-27 -41 -64 -68.5t-63.5 -37t-64 -18.5t-46.5 -12q-3 -122 -22 -182q-39 -125 -104.5 -170.5t-115.5 -14.5q-35 23 -40.5 72.5t14.5 101.5t61 100t90 69q-3 11 -5 38t-10 40t-30 18z
M108 -215q19 28 30.5 82t9.5 105q-32 -14 -57.5 -42t-38.5 -59t-19.5 -61.5t-5.5 -53t8 -30.5q20 -23 73 59z" />
    <glyph glyph-name="braceleft" unicode="{" horiz-adv-x="192" 
d="M-45 269q6 18 18 27t27.5 14.5t31.5 15.5t33.5 39t30.5 77q14 51 29 82t40.5 55t64 32.5t95.5 5.5q8 -1 -5 -16q-7 -8 -13 -9q-71 -10 -96.5 -37.5t-51.5 -100.5q-3 -8 -4 -12q-21 -58 -44 -93t-42 -46.5t-35 -15t-27 -6t-15 -11.5q-4 -10 9 -19.5t30.5 -22.5t24 -46.5
t-11.5 -91.5q-9 -30 -13 -43.5t-9.5 -36.5t-5.5 -33t1 -25t8.5 -22t18 -15t28 -11.5t40.5 -4.5q9 -1 -4 -16q-7 -8 -13 -9q-34 -4 -58.5 -4.5t-42 4t-28.5 11t-15.5 21t-4.5 29.5t6 40t14 49.5t21 60.5q20 57 22.5 90.5t-8.5 43t-23.5 13t-20.5 11t-2 26.5z" />
    <glyph glyph-name="bar" unicode="|" horiz-adv-x="177" 
d="M20 -183q-2 -11 -18.5 -16t-31 -2.5t-13.5 10.5q16 78 96 469.5t88 419.5q3 7 12.5 6.5t19 -8t9.5 -16.5q-1 -47 -81 -453t-81 -410z" />
    <glyph glyph-name="braceright" unicode="}" horiz-adv-x="250" 
d="M230 269q-6 -19 -18 -26.5t-27 -11t-31.5 -13t-34 -43t-31.5 -90.5q-9 -36 -15.5 -60.5t-15.5 -49.5t-18 -40t-22 -29.5t-28 -21t-35.5 -11t-45 -4t-55.5 4.5q-6 2 -7.5 13t5.5 12q39 2 66.5 12t44 22t30.5 40t21 49.5t20 67.5q16 56 44 91.5t52 47t43.5 21.5t21.5 20
q2 11 -13 13.5t-32.5 9t-25 41t10.5 108.5q1 4 3 11q17 75 10 97q-11 32 -76 42q-6 2 -7.5 13t5.5 12q77 4 111 -14t33.5 -58.5t-20.5 -102.5q-20 -60 -15 -89.5t20 -36t26.5 -16.5t5.5 -31z" />
    <glyph glyph-name="asciitilde" unicode="~" horiz-adv-x="586" 
d="M10 176q-8 -10 -6 0q4 18 18 42q23 38 54 54t63.5 14t68 -12t72 -21t71.5 -16.5t70.5 4.5t64.5 40q13 13 27 6q9 -5 4 -15q-31 -52 -82 -66.5t-107 -4t-112.5 22t-112.5 3t-93 -50.5z" />
    <glyph glyph-name="yen" unicode="&#xa5;" horiz-adv-x="545" 
d="M126 -58q-11 0 -11 15.5t7.5 31t15.5 15.5q36 0 129 -3q4 13 11.5 39t11.5 39h-40h-42h-29q-11 0 -11 15.5t7 31t15 15.5q3 0 117 -2q44 162 73 233q-174 -202 -257 -258q-129 -85 -115 95q6 72 34 187q21 86 35.5 148.5t22.5 93.5q4 11 74 41q91 39 89 12l-2 -6
q-11 -42 -43 -133t-56 -173q-94 -320 117 -64q8 11 113 147q5 7 9 12q10 35 20.5 66t26.5 72t25 65q3 6 27 13.5t40 7.5q10 0 15 -3.5t4 -10.5q-46 -144 -92 -273q-49 -173 -75 -274q23 -1 59.5 -2t45.5 -2q14 -1 -5 -24q-15 -19 -27 -21q-29 -3 -89 -7q-4 -18 -22 -81
q52 -1 90 -4q14 -1 -5 -24q-15 -20 -27 -21q-31 -3 -74 -6q-27 -87 -34 -103q-63 -143 -149 -141q-63 2 -110 79q-52 87 -39 191q2 15 5 30q1 4 17.5 13t30.5 13t17 -2q-27 -67 7 -148q27 -62 64.5 -74.5t61.5 39.5q22 47 39 101q-47 -1 -122 -1z" />
    <glyph glyph-name="section" unicode="&#xa7;" horiz-adv-x="533" 
d="M311 -86q-13 -43 -45 -79t-72.5 -56t-85.5 -28.5t-83.5 3t-67.5 40t-37.5 81.5t7.5 127q7 20 25.5 20t32.5 -14t11 -30q-15 -71 33.5 -122.5t111.5 -39t84 97.5q9 36 -1.5 64t-33 45.5t-48 39.5t-46 45t-27.5 62.5t7 91.5q7 41 43 63.5t83 26.5q-61 41 -78 63
q-30 39 -14 92q13 43 45 79t72.5 56t85.5 28.5t84 -3t68.5 -40t38 -81.5t-7.5 -127q-7 -20 -25.5 -20t-33.5 14t-11 30q15 71 -33.5 122.5t-112 39t-84.5 -97.5q-8 -31 -1 -56t24 -41.5t38.5 -34.5t42 -34.5t35.5 -42.5t19 -58t-8 -81q-8 -41 -44.5 -64t-82.5 -26
q19 -13 25 -17t22 -16.5t21.5 -19t15 -19.5t11.5 -24.5t2 -26.5t-5 -32zM139 242q-26 -71 19 -125q55 -2 79 12t45 50q27 72 -21 125q-55 1 -78 -12.5t-44 -49.5z" />
    <glyph glyph-name="dieresis" unicode="&#xa8;" horiz-adv-x="481" 
d="M154 547q-49 -18 -73 -12.5t-21 28.5t32 50q80 75 109 47q19 -18 2 -61q-17 -39 -49 -52zM330 547q-49 -18 -73 -12.5t-21 28.5t32 50q80 75 109 47q19 -18 2 -61q-17 -39 -49 -52z" />
    <glyph glyph-name="plusminus" unicode="&#xb1;" horiz-adv-x="496" 
d="M233 120q-6 -18 -41 -18q-25 1 -23 11q5 18 37 125h-118q-11 0 -11 15.5t7.5 31t15.5 15.5q5 0 125 -2q10 33 25 78t15 46q4 7 13.5 6.5t18.5 -8.5t8 -17q-9 -54 -24 -107q74 -1 125 -4q13 -1 -3 -23q-15 -21 -29 -22q-41 -5 -107 -7q-7 -25 -19 -66t-15 -54zM20 17
q-10 0 -10 15.5t7 31t15 15.5q189 0 306 -8q13 -1 -3 -23q-15 -21 -29 -22q-75 -9 -286 -9z" />
    <glyph glyph-name="acute" unicode="&#xb4;" horiz-adv-x="317" 
d="M230 654q-29 -22 -59.5 -55.5t-49.5 -52t-31 -17.5q-21 4 -1 48q8 21 59 64.5t73 48.5q13 3 17 -11.5t-8 -24.5z" />
    <glyph glyph-name="paragraph" unicode="&#xb6;" horiz-adv-x="536" 
d="M375 701q-7 0 71.5 -1t159.5 -2l82 -2q14 -1 -5 -24q-15 -19 -27 -21q-31 -4 -80 -6q-24 -95 -137 -457t-116 -374q-5 -18 -40 -19q-26 0 -25 11q201 633 268 836q-117 -2 -139 -3q-25 -100 -137 -457t-115 -368q-5 -18 -40 -19q-26 0 -25 11q1 2 12.5 40t29.5 96.5
t40 128.5t49 152.5t51 152.5q-120 -12 -146 57q-22 58 30 134q58 86 161 119q38 13 78 15z" />
    <glyph glyph-name="periodcentered" unicode="&#xb7;" horiz-adv-x="294" 
d="M112 192q-45 -23 -55 26q-9 48 19 106q11 22 25 36q69 69 84 23q13 -39 -16 -113q-25 -62 -57 -78z" />
    <glyph glyph-name="cedilla" unicode="&#xb8;" horiz-adv-x="262" 
d="M100 0h20q33 -1 37 0q-8 -9 -13.5 -15t-14 -16t-12 -15.5t-8.5 -13.5t-3.5 -10t3.5 -5q48 -13 30 -46q-16 -33 -67 -49q-42 -14 -78 -3q-7 3 -5 10t8 14t9 6q39 -11 72 5q36 17 -2 47q-5 4 -12 8q-5 3 1.5 16t18.5 33t16 34z" />
    <glyph glyph-name="Agrave" unicode="&#xc0;" horiz-adv-x="631" 
d="M552 874q-7 10 6.5 24.5t24.5 11.5q19 -5 44.5 -48t21.5 -65q-7 -44 -29 -48q-11 -1 -18.5 11t-12 29.5t-14.5 42t-23 42.5zM511 525q-19 -27 -43 -64t-57 -88.5t-53 -82.5q43 0 125 -2zM324 237q-120 -178 -192 -256q-52 -56 -100.5 -81.5t-83 -9t-39.5 81.5
q-2 30 11 40q10 8 17 -15q1 -6 2 -13q20 -94 196 155l63 93q-17 0 -27.5 1.5t-15.5 3.5t-6.5 8.5t-1 9t3.5 12t4 12.5q3 9 16 10.5t34.5 -0.5t27.5 -2q43 66 134.5 211.5t130.5 204.5q11 4 49.5 -21.5t43.5 -48.5l-42 -346h48q25 0 24 -18q-1 -19 -24 -27q-9 -3 -18 -3h-38
l-35 -256q-5 -19 -21 -32.5t-35 -14.5q-7 -1 -10 1.5t-2.5 7.5t2 10t4.5 13.5t4 14.5l30 256q-54 0 -154 -2z" />
    <glyph glyph-name="Aacute" unicode="&#xc1;" horiz-adv-x="631" 
d="M563 844q-29 -22 -60 -55.5t-50 -52t-31 -17.5q-21 4 -1 48q9 21 60 64.5t73 48.5q13 3 17 -11.5t-8 -24.5zM511 525l-28 -237q-82 2 -125 2q21 32 54 83t57 88t42 64zM324 237q100 2 153 2l-30 -256q-1 -6 -4 -14.5t-4.5 -13.5t-2 -10t2.5 -7.5t10 -1.5q19 1 35 14.5
t21 32.5l35 256h38q30 0 41 23q8 18 -11 24q-5 1 -11 1h-48l43 346q-5 23 -43 48.5t-50 21.5q-37 -55 -128 -199.5t-138 -216.5q-6 0 -27.5 2t-34.5 0.5t-16 -10.5l-3.5 -10.5t-3 -10.5t-1 -8.5t2.5 -8t8 -5.5t15 -3.5t24 -0.5q-183 -276 -236 -275q-17 1 -23 27
q-4 31 -15 30t-15 -29v-13q5 -65 39.5 -81.5t83 9t100.5 81.5q76 82 193 256z" />
    <glyph glyph-name="Acircumflex" unicode="&#xc2;" horiz-adv-x="631" 
d="M434 766q29 22 60 55.5t50 52t31 17.5h1h2q13 1 21 -17.5t19 -52t27 -55.5q7 -10 -6.5 -24.5t-24.5 -11.5q-13 4 -32.5 30.5t-28.5 52.5q-25 -27 -59.5 -53t-50.5 -30q-13 -3 -17 11.5t8 24.5zM511 525l-28 -237q-82 2 -125 2q21 32 54 83t57 88t42 64zM324 237
q100 2 153 2l-30 -256q-1 -6 -4 -14.5t-4.5 -13.5t-2 -10t2.5 -7.5t10 -1.5q19 1 35 14.5t21 32.5l35 256h38q30 0 41 23q8 18 -11 24q-5 1 -11 1h-48l43 346q-5 23 -43 48.5t-50 21.5q-37 -55 -128 -199.5t-138 -216.5q-6 0 -27.5 2t-34.5 0.5t-16 -10.5l-3.5 -10.5
t-3 -10.5t-1 -8.5t2.5 -8t8 -5.5t15 -3.5t24 -0.5q-183 -276 -236 -275q-17 1 -23 27q-4 31 -15 30t-15 -29v-13q5 -65 39.5 -81.5t83 9t100.5 81.5q76 82 193 256z" />
    <glyph glyph-name="Atilde" unicode="&#xc3;" horiz-adv-x="631" 
d="M366 732q-7 -8 -4 1q4 12 13 28q23 36 55.5 44t67 -2t69 -21t71.5 -8t65 31q12 11 21 4q4 -4 1 -10q-23 -36 -59 -46.5t-75.5 -3.5t-79 15.5t-79 3t-66.5 -35.5zM513 525q-3 -4 -156 -235q44 0 126 -2zM323 237q-118 -175 -194 -256q-52 -56 -101 -81.5t-83.5 -9
t-38.5 81.5q-2 30 11 40q10 8 17 -15q1 -6 2 -13q19 -92 189 144q32 45 72 104q-17 0 -27.5 1.5t-15.5 3.5t-6 8.5t-1 9t3.5 12.5t4.5 12q3 9 16 10.5t34.5 -0.5t27.5 -2q37 56 132 205t137 211q11 5 49 -21t43 -49l-45 -346h48q24 0 24 -17q0 -18 -23 -27q-10 -4 -20 -4
h-38l-37 -256q-5 -19 -21 -32.5t-35 -14.5q-7 -1 -10 1.5t-2.5 7.5t2 10t4.5 13.5t4 14.5l32 256q-52 0 -154 -2z" />
    <glyph glyph-name="Adieresis" unicode="&#xc4;" horiz-adv-x="631" 
d="M324 237q-125 -182 -194 -256q-52 -56 -100.5 -81.5t-83 -9t-39.5 81.5q-2 30 11 40q10 8 17 -15q1 -6 2 -13q20 -96 205 167l55 81q-14 0 -24 0.5t-15 3.5t-8 5t-2.5 8t1 8.5t3 10.5t3.5 11q3 9 16 10.5t34.5 -0.5t27.5 -2q43 66 135.5 211.5t131.5 204.5q12 4 50 -21.5
t43 -48.5l-44 -346h48q24 0 24 -17q0 -18 -23 -27q-10 -4 -20 -4h-38l-36 -256q-5 -19 -21 -32.5t-35 -14.5q-7 -1 -10 1.5t-2.5 7.5t2 10t4.5 13.5t4 14.5l31 256q-53 0 -153 -2zM483 288l29 237q-12 -18 -154 -235q43 0 125 -2zM500 765q-49 -18 -73 -12.5t-21 28.5t32 50
q80 75 109 47q19 -18 2 -61q-17 -39 -49 -52zM676 765q-49 -18 -73 -12.5t-21 28.5t32 50q80 75 109 47q19 -18 2 -61q-17 -39 -49 -52z" />
    <glyph glyph-name="Aring" unicode="&#xc5;" horiz-adv-x="631" 
d="M529 710q-25 -3 -29 31q-6 47 25 100q31 49 71 52q3 -1 -0.5 -11t-7.5 -18q34 -5 22 -56t-49 -82q-16 -14 -32 -16zM542 733q20 1 37 32t18 58t-11 33q-4 0 -4 2q-28 -4 -46 -57q-17 -50 -2 -65q3 -3 8 -3zM512 525q-12 -18 -154 -235q43 0 125 -2zM324 237
q-125 -182 -194 -256q-52 -56 -100.5 -81.5t-83 -9t-39.5 81.5q-2 30 11 40q10 8 17 -15q1 -6 2 -13q20 -96 205 167l55 81q-14 0 -24 0.5t-15 3.5t-8 5t-2.5 8t1 8.5t3 10.5t3.5 11q3 9 16 10.5t34.5 -0.5t27.5 -2q43 66 135.5 211.5t131.5 204.5q12 4 50 -21.5t43 -48.5
l-44 -346h48q24 0 24 -17q0 -18 -23 -27q-10 -4 -20 -4h-38l-36 -256q-5 -19 -21 -32.5t-35 -14.5q-7 -1 -10 1.5t-2.5 7.5t2 10t4.5 13.5t4 14.5l31 256q-53 0 -153 -2z" />
    <glyph glyph-name="Ccedilla" unicode="&#xc7;" horiz-adv-x="409" 
d="M509 572q6 -19 -32 -36q-40 -18 -54 -5q-4 3 -4 9q-62 110 -153 4q-78 -91 -138 -276q-55 -170 -40 -248q15 -77 101 9q31 31 70 83q8 7 14 9.5t9.5 1t6.5 -5t4.5 -8.5t2 -9t0.5 -7l1 -3q-117 -149 -206 -151q-11 -14 -15 -22.5t1 -12.5q48 -13 31 -46q-17 -32 -68 -49
q-43 -14 -79 -3q-7 3 -5 10t8.5 14t10.5 6q38 -11 71 5q36 17 -1 47l-12 8q-2 1 -2.5 3t0.5 5.5t2.5 6.5l4 8t4.5 8.5t6 9.5t6 10q-48 22 -66.5 101t-5 176t69.5 204t144 178q55 44 111 58.5t96.5 2.5t69 -36.5t35.5 -55.5q-1 -1 0 -2z" />
    <glyph glyph-name="Egrave" unicode="&#xc8;" horiz-adv-x="448" 
d="M379 516q16 79 -45 84q-52 4 -113 -40q-34 -24 -46 -49q-14 -29 -16.5 -51t2 -34t18.5 -19t24.5 -9.5t28.5 -1.5t22 1.5t13 2.5h1q35 6 33 -23q-2 -27 -24 -48q-5 -4 -9 -6q-72 -27 -129.5 -92.5t-79.5 -138t-1 -122.5q8 -15 32.5 -19.5t58 4t69.5 27t71.5 55.5t59.5 85
l25 -14q17 -13 7 -23q-51 -84 -117.5 -136.5t-123.5 -65t-103 -4.5t-66 35q-48 63 10.5 185.5t177.5 221.5q-34 12 -58.5 32t-40 50t-6.5 74.5t44 97.5q56 82 159 114q101 30 165 -9q74 -46 44 -164q-6 -3 -16.5 -6l-31.5 -9t-32.5 -2.5t-6.5 17.5zM334 854q-7 10 6.5 24.5
t24.5 11.5q18 -5 43.5 -48.5t21.5 -64.5q-7 -44 -30 -48q-11 -1 -18 11t-11.5 29.5t-14 42t-22.5 42.5z" />
    <glyph glyph-name="Eacute" unicode="&#xc9;" horiz-adv-x="448" 
d="M380 516q-10 -27 42 -14l45 14q31 121 -48 166q-67 38 -167 5q-99 -33 -153 -112q-35 -53 -44 -97.5t6.5 -74.5t39.5 -50t58 -32q-119 -99 -178 -221.5t-11 -185.5q20 -27 66 -35t103 4.5t123.5 65t117.5 136.5q8 8 0 17t-20 14l-11 6q-24 -48 -60 -85t-71.5 -55.5
t-69.5 -27t-58 -4t-32 19.5q-34 78 33 194.5t177 158.5q18 7 29 38q13 36 -14 40q-6 1 -15 -1h-1q-78 -16 -102 20q-20 29 10 91q20 40 81 70q72 35 107 9q28 -19 17 -74zM446 854q-29 -22 -60 -55.5t-50 -52t-32 -17.5q-20 4 0 48q9 21 60 64.5t73 48.5q13 3 17 -11.5
t-8 -24.5z" />
    <glyph glyph-name="Ecircumflex" unicode="&#xca;" horiz-adv-x="448" 
d="M381 516q-10 -26 40 -15l47 15q31 121 -48 166q-66 38 -166 5t-154 -112q-36 -53 -45 -97.5t6.5 -74.5t39.5 -50t58 -32q-119 -99 -178.5 -221.5t-12.5 -185.5q16 -21 48.5 -31.5t77.5 -6t93 25t99.5 68t93.5 115.5q8 8 0 17t-20 14l-12 6q-24 -48 -60 -85t-71.5 -55.5
t-69.5 -27t-58 -4t-32 19.5q-21 50 1.5 122.5t80 138t130.5 92.5q17 7 28 38q14 38 -15 40q-6 0 -14 -1h-1q-78 -16 -102 20q-19 29 11 91q19 40 81 70q72 35 107 9q28 -19 17 -74zM260 766q30 22 61 55.5t50 52t31 17.5h1h2q13 1 21 -17.5t18.5 -52t26.5 -55.5
q7 -10 -6.5 -24.5t-24.5 -11.5q-13 4 -32.5 30.5t-28.5 52.5q-25 -27 -59.5 -53t-50.5 -30q-13 -3 -17 11.5t8 24.5z" />
    <glyph glyph-name="Edieresis" unicode="&#xcb;" horiz-adv-x="448" 
d="M380 516q16 79 -45 84q-52 4 -113 -39q-35 -25 -47 -50q-50 -105 36 -114q22 -3 57 3t33 -23q-2 -27 -24 -48q-5 -4 -9 -6q-110 -42 -177 -158.5t-33 -194.5q8 -15 32 -19.5t58 4t69.5 27t71.5 55.5t60 85l25 -14q17 -13 6 -23q-51 -84 -117.5 -136.5t-123.5 -65
t-103 -4.5t-66 35q-48 63 11 185.5t178 221.5q-34 12 -58 32t-39.5 50t-6.5 74.5t44 97.5q56 82 159 114q101 30 165 -9q74 -46 44 -164q-6 -3 -16.5 -6l-31.5 -9t-32.5 -2.5t-6.5 17.5zM299 747q-49 -18 -73 -12.5t-21 28.5t32 50q81 75 109 47q19 -18 2 -61
q-17 -39 -49 -52zM475 747q-49 -18 -73 -12.5t-21 28.5t32 50q81 75 109 47q19 -18 2 -61q-17 -39 -49 -52z" />
    <glyph glyph-name="Igrave" unicode="&#xcc;" horiz-adv-x="246" 
d="M181 122q-24 -67 -96 -106q-68 -37 -114 -15q-40 18 -36 74q1 15 21 28q18 12 23 -3q9 -39 39.5 -32.5t50.5 52.5q36 80 89.5 309t65.5 246q128 43 136 12q-44 -94 -108 -320.5t-71 -244.5zM290 851q-7 10 6.5 24.5t24.5 11.5q19 -5 44 -48.5t21 -64.5q-7 -45 -29 -48
q-13 -1 -21 17.5t-19 52t-27 55.5z" />
    <glyph glyph-name="Iacute" unicode="&#xcd;" horiz-adv-x="246" 
d="M178 122q8 21 75.5 246t112.5 319q-8 31 -136 -12q-12 -17 -69 -245.5t-95 -309.5q-14 -30 -33 -44t-35.5 -7.5t-21.5 31.5q-6 19 -29 -2q-15 -12 -16 -23q-5 -69 53 -80q55 -10 120 36q54 37 74 91zM371 849q-29 -22 -60.5 -55.5t-51 -52t-31.5 -17.5q-22 4 0 48
q9 21 60.5 64.5t73.5 48.5q13 3 17 -11.5t-8 -24.5z" />
    <glyph glyph-name="Icircumflex" unicode="&#xce;" horiz-adv-x="246" 
d="M180 122q5 13 71.5 242t111.5 323q-9 31 -137 -12q-11 -17 -66.5 -245.5t-91.5 -309.5q-14 -30 -33 -44t-35.5 -7.5t-21.5 31.5q-6 19 -29 -2q-15 -12 -16 -23q-4 -69 54 -80q56 -10 120 36q53 38 73 91zM207 756q29 22 60 55.5t50 52t32 17.5h1h2q13 1 20.5 -17.5
t18.5 -52t27 -55.5q7 -10 -6.5 -24.5t-24.5 -11.5q-14 4 -33 30t-28 53q-25 -26 -60 -52.5t-50 -30.5q-13 -3 -17 11.5t8 24.5z" />
    <glyph glyph-name="Idieresis" unicode="&#xcf;" horiz-adv-x="246" 
d="M181 122q-24 -67 -96 -106q-68 -37 -114 -15q-40 18 -36 74q1 15 21 28q18 12 23 -3q9 -39 39.5 -32.5t50.5 52.5q36 80 89.5 309t65.5 246q128 43 136 12q-44 -94 -108 -320.5t-71 -244.5zM291 762q-49 -18 -73.5 -12.5t-21.5 28.5t32 50q80 75 109 47q20 -18 2 -61
q-16 -39 -48 -52zM467 762q-49 -18 -73.5 -12.5t-21.5 28.5t32 50q80 75 109 47q20 -18 2 -61q-16 -39 -48 -52z" />
    <glyph glyph-name="Eth" unicode="&#xd0;" horiz-adv-x="616" 
d="M123 232h-73q-11 0 -11 15.5t7.5 31t15.5 15.5q4 0 14.5 -0.5t31.5 -1t38 -0.5q30 81 73 211q6 26 40.5 40.5t61.5 12t32 -8.5q-22 -68 -54.5 -146t-45.5 -111q21 -1 47 -1.5t43.5 -1.5t24.5 -1q13 -1 -3 -23q-15 -21 -29 -22q-39 -5 -104 -7q-13 -36 -16 -46
q-18 -54 -22.5 -88.5t4 -49t25 -19t39.5 2.5q92 19 148.5 164.5t45.5 284.5t-86 141q-45 2 -96.5 -15.5t-98 -50t-76 -85.5t-26.5 -115q4 -24 -7.5 -34.5t-25.5 -7.5t-17 13q-5 79 46.5 159.5t136.5 133t173 57.5q77 5 123 -29.5t57.5 -90.5t3.5 -125t-30.5 -132.5
t-52.5 -113.5q-86 -144 -205 -208q-98 -52 -160 -21q-65 32 -43 137q8 35 25 75q6 11 26 61z" />
    <glyph glyph-name="Ntilde" unicode="&#xd1;" horiz-adv-x="623" 
d="M160 53q-25 -68 -98 -107q-69 -37 -115 -15q-39 19 -35 75q2 14 21 27t24 -3q3 -15 10.5 -23.5t17.5 -9t21 4.5t22 17.5t19 30.5q36 80 103.5 343.5t79.5 281.5q1 0 11.5 3.5t20.5 6.5t25 6.5t27.5 5.5t24 2.5t19 -3t8.5 -10.5q-4 -171 -9 -310.5t-7 -198.5t-2 -92
q23 84 91.5 266.5t92.5 260.5q32 42 79 49q27 4 27 -9q0 -1 -1 -3l-244 -672q-25 -27 -59 -40q-34 -12 -36 15q-9 197 -5 538q-29 -90 -75.5 -247.5t-57.5 -189.5zM287 728q-7 -8 -4 1q4 12 13 28q23 36 55.5 44t66.5 -2t69 -21t71.5 -8t64.5 31q12 11 21 4q5 -4 1 -10
q-23 -36 -59 -46.5t-75 -3.5t-78.5 15.5t-79 3t-66.5 -35.5z" />
    <glyph glyph-name="Ograve" unicode="&#xd2;" horiz-adv-x="417" 
d="M95 -55q-85 -11 -111 91q-29 110 20 276q55 185 166 294q92 90 199 94q10 -4 -1 -45.5t-28 -72.5q94 -14 100 -129t-70 -261q-77 -146 -181 -212q-48 -29 -94 -35zM147 39q86 5 155 136q62 116 72 242q8 113 -38 130l-8 2q-13 -2 -18 9q-81 -13 -148 -145
q-61 -121 -70 -246q-7 -113 41 -127q6 -1 14 -1zM350 858q-7 10 6.5 24.5t24.5 11.5q19 -5 44 -48.5t21 -64.5q-5 -44 -29 -48q-13 -1 -21 17.5t-19 52t-27 55.5z" />
    <glyph glyph-name="Oacute" unicode="&#xd3;" horiz-adv-x="417" 
d="M95 -55q111 14 214 150q93 123 122 263q31 144 -34 199q-23 20 -57 25q17 31 28 72.5t1 45.5q-150 -6 -264 -172q-95 -138 -123 -312q-25 -160 25 -233q31 -45 88 -38zM147 39q-52 -3 -55 90q-5 106 49 238q59 144 139 182q15 7 30 9q5 -11 18 -9q49 -7 47 -112
q-3 -117 -61 -239q-63 -134 -145 -155zM428 854q-29 -22 -60 -55.5t-50 -52t-31 -17.5q-21 4 -1 48q9 21 60 64.5t73 48.5q13 3 17 -11.5t-8 -24.5z" />
    <glyph glyph-name="Ocircumflex" unicode="&#xd4;" horiz-adv-x="417" 
d="M92 -55q111 14 215 150q95 124 125 264q32 144 -33 199q-22 19 -56 24q17 31 28 72.5t2 45.5q-150 -6 -266 -172q-96 -138 -126 -312q-27 -159 22 -232q32 -46 89 -39zM145 39q-52 -3 -55 90q-3 106 51 238q60 143 140 181q16 8 31 10q7 -10 19 -9q49 -7 45 -112
q-4 -117 -63 -239q-64 -134 -147 -156q-10 -2 -21 -3zM245 766q30 22 61 55.5t50 52t31 17.5h3q13 1 21 -17.5t18.5 -52t26.5 -55.5q7 -10 -6.5 -24.5t-24.5 -11.5q-13 4 -32.5 30.5t-28.5 52.5q-25 -27 -59.5 -53t-50.5 -30q-13 -3 -17 11.5t8 24.5z" />
    <glyph glyph-name="Otilde" unicode="&#xd5;" horiz-adv-x="417" 
d="M95 -55q-85 -11 -111 91q-29 110 20 276q55 185 166 294q92 90 199 94q10 -4 -1 -45.5t-28 -72.5q94 -14 100 -129t-70 -261q-77 -146 -181 -212q-48 -29 -94 -35zM147 39q86 5 155 136q62 116 72 242q8 113 -38 130l-8 2q-13 -2 -18 9q-81 -13 -148 -145
q-61 -121 -70 -246q-7 -113 41 -127q6 -1 14 -1zM169 729q-6 -7 -5 -1q3 12 14 30q23 36 55 44t66.5 -2t69.5 -21t71.5 -8t64.5 31q12 11 21 4q4 -4 1 -10q-22 -36 -58 -46.5t-75.5 -3.5t-79 15.5t-79 3t-66.5 -35.5z" />
    <glyph glyph-name="Odieresis" unicode="&#xd6;" horiz-adv-x="417" 
d="M92 -55q-85 -11 -111 91q-27 110 23 276q56 185 169 294q93 90 200 94q9 -4 -2 -45.5t-28 -72.5q93 -14 99 -129q5 -115 -73 -261t-183 -211q-47 -30 -94 -36zM145 39q86 5 157 136q62 116 73 242q10 113 -36 130l-8 2q-12 -1 -19 9q-81 -13 -149 -145q-63 -121 -72 -246
q-9 -113 40 -127q6 -1 14 -1zM285 747q-49 -18 -73 -12.5t-21 28.5t32 50q81 75 110 47q19 -18 1 -61q-17 -39 -49 -52zM461 747q-49 -18 -73 -12.5t-21 28.5t32 50q81 75 110 47q19 -18 1 -61q-17 -39 -49 -52z" />
    <glyph glyph-name="multiply" unicode="&#xd7;" horiz-adv-x="441" 
d="M178 436q-5 18 29 45q28 24 32 11q6 -15 35 -129l118 95q15 12 26 -16q11 -30 -1 -43q-4 -3 -23 -18t-48.5 -38t-54.5 -43q27 -103 31 -130q4 -13 -20.5 -21.5t-29.5 4.5q-19 40 -39 104q-91 -70 -128 -98q-9 -6 -10 9q-2 28 13 49l4 4q28 28 102 92q-9 28 -21.5 72.5
t-14.5 50.5z" />
    <glyph glyph-name="Ugrave" unicode="&#xd9;" horiz-adv-x="542" 
d="M263 685q-11 -41 -69 -208t-83 -250q-71 -246 35 -153q50 43 177 210q24 31 32 41q8 34 18 68.5t16.5 52t20.5 56t18 50.5q14 33 60 48q37 12 42 -3q1 -3 0 -6q-21 -66 -92 -272t-99 -303q-11 -38 -54 -61q-37 -20 -46 -2q-4 8 0 21q48 166 71 223q-162 -187 -239 -241
q-137 -94 -113 112q8 71 35 176q17 68 38 143.5t42.5 151.5t28.5 100q3 11 71 40q92 39 92 13q0 -3 -2 -7zM382 854q-7 10 6.5 24.5t24.5 11.5q19 -5 44 -48.5t21 -64.5q-7 -44 -30 -48q-13 -1 -20.5 17.5t-18.5 52t-27 55.5z" />
    <glyph glyph-name="Uacute" unicode="&#xda;" horiz-adv-x="542" 
d="M261 685q9 24 -37 13q-57 -15 -110 -48q-12 -8 -14 -11q-92 -334 -107 -395q-103 -417 82 -286q77 55 236 239q-20 -49 -70 -223q-9 -29 16 -28q31 1 62 34q17 17 22 36q27 94 95 296.5t92 278.5q2 12 -13 14q-30 3 -64 -23q-18 -14 -25 -30q-56 -163 -71 -227
q-8 -10 -40 -52q-139 -185 -189 -216q-76 -47 -14 170q25 84 81.5 251.5t67.5 206.5zM490 854q-29 -22 -60 -55.5t-50 -52t-31 -17.5q-21 4 -1 48q9 21 60 64.5t73 48.5q13 3 17 -11.5t-8 -24.5z" />
    <glyph glyph-name="Ucircumflex" unicode="&#xdb;" horiz-adv-x="542" 
d="M261 685q9 24 -37 13q-57 -15 -110 -48q-12 -8 -14 -11q-92 -334 -107 -395q-103 -417 82 -286q77 55 236 239q-20 -49 -70 -223q-9 -29 16 -28q31 1 62 34q17 17 22 36q27 94 95 296.5t92 278.5q2 12 -13 14q-30 3 -64 -23q-18 -14 -25 -30q-56 -163 -71 -227
q-8 -10 -40 -52q-139 -185 -189 -216q-76 -47 -14 170q25 84 81.5 251.5t67.5 206.5zM303 766q29 22 60 55.5t50 52t31 17.5h3q13 1 21 -17.5t19 -52t27 -55.5q7 -10 -6.5 -24.5t-24.5 -11.5q-13 4 -32.5 30.5t-28.5 52.5q-25 -27 -59.5 -53t-50.5 -30q-13 -3 -17 11.5
t8 24.5z" />
    <glyph glyph-name="Udieresis" unicode="&#xdc;" horiz-adv-x="542" 
d="M263 685q-11 -41 -69 -208t-83 -250q-71 -246 35 -153q50 43 177 210q24 31 32 41q8 34 18 68.5t16.5 52t20.5 56t18 50.5q14 33 60 48q37 12 42 -3q1 -3 0 -6q-21 -66 -92 -272t-99 -303q-11 -38 -54 -61q-37 -20 -46 -2q-4 8 0 21q48 166 71 223q-162 -187 -239 -241
q-137 -94 -113 112q8 71 35 176q17 68 38 143.5t42.5 151.5t28.5 100q3 11 71 40q92 39 92 13q0 -3 -2 -7zM522 747q-49 -18 -73 -12.5t-21 28.5t32 50q81 75 109 47q19 -18 2 -61q-17 -39 -49 -52zM346 747q-49 -18 -73 -12.5t-21 28.5t32 50q81 75 109 47q19 -18 2 -61
q-17 -39 -49 -52z" />
    <glyph glyph-name="Yacute" unicode="&#xdd;" horiz-adv-x="545" 
d="M264 685q10 23 -31 13q-56 -13 -114 -48q-14 -8 -16 -12q-9 -36 -24 -97.5t-36 -144.5q-127 -491 172 -203q62 60 166 179q-30 -72 -83 -257.5t-93 -272.5q-28 -61 -73 -34q-41 25 -61 94t2 123q-3 6 -17 2t-30.5 -13t-17.5 -13q-24 -103 22 -200q38 -81 99 -97
q81 -22 148 93q12 21 23 45q14 30 39.5 116.5t66 231.5t62.5 221q38 104 94 273q1 7 -4 10.5t-15 3.5q-17 0 -40.5 -7.5t-25.5 -13.5q-7 -18 -20.5 -51.5t-20 -51t-16 -45t-17.5 -55.5q-9 -10 -38 -48q-142 -186 -193 -217q-74 -46 -9 170q25 83 57.5 174t43.5 132zM497 854
q-29 -22 -60 -55.5t-50.5 -52t-31.5 -17.5q-21 4 -1 48q9 21 60.5 64.5t73.5 48.5q13 3 17 -11.5t-8 -24.5z" />
    <glyph glyph-name="agrave" unicode="&#xe0;" horiz-adv-x="466" 
d="M237 -37q39 -5 224 247l20 -23q-106 -149 -170 -212q-76 -74 -126 -74q-23 0 -40 3.5t-27 13t-17 19t-7.5 28t0 32.5t6 40.5t9.5 44.5t13 51q2 6 2.5 9t2 8.5t2.5 9.5q-19 -35 -34.5 -60t-39.5 -55.5t-50 -46t-52 -13.5q-47 4 -41 84q9 99 84 215q97 151 231 201
q76 29 154 19q12 -2 -9.5 -35t-34.5 -31q-119 25 -230 -120q-72 -94 -101 -198q-18 -65 2 -66q13 0 43 39q27 34 45 62t35 59t26 46q22 70 29 102q3 9 17.5 12t33.5 1t37.5 -6.5t30.5 -11t11 -11.5q-5 -18 -15.5 -52t-20.5 -67t-21.5 -71.5t-19 -71t-12.5 -60t-2.5 -44
t12.5 -17.5zM284 654q-7 10 6.5 24.5t24.5 11.5q19 -5 43.5 -48.5t20.5 -64.5q-7 -44 -29 -48q-13 -1 -21 17.5t-18.5 52t-26.5 55.5z" />
    <glyph glyph-name="aacute" unicode="&#xe1;" horiz-adv-x="466" 
d="M237 -37q-10 1 -12.5 17.5t2.5 44t12.5 60t19 71t21.5 71.5t20.5 67t15.5 52q1 5 -11 11.5t-30.5 11t-37.5 6.5t-33.5 -1t-17.5 -12q-7 -32 -29 -102q-9 -15 -26 -46t-35 -59t-45 -62q-46 -61 -52 -28q-8 38 36 133q65 140 157 204q72 51 145 36q14 -2 36 33q20 32 8 33
q-170 21 -313 -128q-98 -103 -140 -234q-34 -107 -1 -144q10 -12 26 -13q26 -2 52 13.5t50 46t39.5 55.5t34.5 60q-2 -9 -7 -27q-7 -28 -10.5 -41.5t-9 -36.5t-6.5 -34.5t-3 -29.5t0.5 -27t5.5 -21.5t11 -18.5t18 -12t24.5 -8.5t32.5 -2.5q95 0 288 274l8 12l-20 23
q-185 -252 -224 -247zM395 654q-30 -22 -61 -55.5t-50 -52t-31 -17.5q-21 4 -1 48q9 21 60.5 64.5t73.5 48.5q13 3 17 -11.5t-8 -24.5z" />
    <glyph glyph-name="acircumflex" unicode="&#xe2;" horiz-adv-x="466" 
d="M237 -37q-10 1 -12.5 17.5t2.5 44t12.5 60t19 71t21.5 71.5t20.5 67t15.5 52q1 5 -11 11.5t-30.5 11t-37.5 6.5t-33.5 -1t-17.5 -12q-7 -32 -29 -102q-9 -15 -26 -46t-35 -59t-45 -62q-46 -61 -52 -28q-8 38 36 133q65 140 157 204q72 51 145 36q14 -2 36 33q20 32 8 33
q-170 21 -313 -128q-98 -103 -140 -234q-34 -107 -1 -144q10 -12 26 -13q26 -2 52 13.5t50 46t39.5 55.5t34.5 60q-2 -9 -7 -27q-7 -28 -10.5 -41.5t-9 -36.5t-6.5 -34.5t-3 -29.5t0.5 -27t5.5 -21.5t11 -18.5t18 -12t24.5 -8.5t32.5 -2.5q95 0 288 274l8 12l-20 23
q-185 -252 -224 -247zM207 566q29 22 60 55.5t50.5 52t31.5 17.5h3q11 1 18 -11t11.5 -29.5t14 -42t22.5 -42.5q7 -10 -6.5 -24.5t-24.5 -11.5q-13 4 -32.5 30.5t-28.5 52.5q-25 -27 -59.5 -53t-50.5 -30q-13 -3 -17 11.5t8 24.5z" />
    <glyph glyph-name="atilde" unicode="&#xe3;" horiz-adv-x="466" 
d="M240 -37q38 -5 223 247l20 -23q-198 -286 -296 -286q-23 0 -40 3.5t-27 13t-17 19t-7.5 28t0 32.5t6 40.5t9.5 44.5t13 51q2 6 2.5 9t2 8.5t2.5 9.5q-19 -35 -34.5 -60t-39.5 -55.5t-50 -46t-52 -13.5q-47 4 -40 84q8 98 83 215q97 150 231 201q75 29 154 19
q12 -2 -9 -35t-35 -31q-119 25 -230 -120q-72 -94 -101 -198q-18 -65 2 -66q13 0 43 39q27 34 45 62.5t35 58.5t27 46q24 85 28 102q9 14 39 13.5t62 -10.5t30 -19q-5 -18 -15.5 -52.5t-21 -67t-22 -71.5t-19 -71t-12 -59.5t-2 -44t12.5 -17.5zM138 529q-6 -7 -5 -1
q3 12 14 30q23 36 55.5 44t66.5 -2t69 -21t71.5 -8t64.5 31q12 11 21 4q5 -4 1 -10q-23 -36 -59 -46.5t-75 -3.5t-78.5 15.5t-79 3t-66.5 -35.5z" />
    <glyph glyph-name="adieresis" unicode="&#xe4;" horiz-adv-x="466" 
d="M239 -37q38 -5 223 247l20 -23q-198 -286 -295 -286q-83 0 -91.5 62.5t27.5 167.5q5 19 7 29q-18 -34 -34 -59.5t-39.5 -56t-49.5 -46t-52 -13.5q-47 4 -41 84q8 99 83 216q96 149 229 200q75 29 154 19q12 -2 -9 -35t-35 -31q-119 25 -229 -120q-71 -94 -100 -198
q-18 -65 2 -66q14 0 43 39q27 34 45 62.5t34 58t27 46.5q20 70 28 102q2 9 17 12t34 1t37.5 -6.5t30.5 -11t11 -11.5q-5 -18 -15.5 -52.5t-20 -67t-21 -71.5t-19 -71t-12 -59.5t-2 -44t12.5 -17.5zM246 547q-49 -18 -73.5 -12.5t-21.5 28.5t32 50q80 75 109 47q20 -18 2 -61
q-16 -39 -48 -52zM422 547q-49 -18 -73.5 -12.5t-21.5 28.5t32 50q80 75 109 47q20 -18 2 -61q-16 -39 -48 -52z" />
    <glyph glyph-name="aring" unicode="&#xe5;" horiz-adv-x="466" 
d="M240 -37q38 -5 223 247l20 -23q-198 -286 -296 -286q-23 0 -40 3.5t-27 13t-17 19t-7.5 28t0 32.5t6 40.5t9.5 44.5t13 51q2 6 2.5 9t2 8.5t2.5 9.5q-19 -35 -34.5 -60t-39.5 -55.5t-50 -46t-52 -13.5q-47 4 -40 84q8 98 83 215q97 150 231 201q75 29 154 19
q12 -2 -9 -35t-35 -31q-119 25 -230 -120q-72 -94 -101 -198q-18 -65 2 -66q13 0 43 39q27 34 45 62.5t35 58.5t27 46q24 85 28 102q9 14 39 13.5t62 -10.5t30 -19q-5 -18 -15.5 -52.5t-21 -67t-22 -71.5t-19 -71t-12 -59.5t-2 -44t12.5 -17.5zM298 510q-24 -3 -29 31
q-5 48 26 100q30 50 71 52q2 -1 -1 -11.5t-7 -17.5q34 -5 22 -56t-49 -82q-17 -14 -33 -16zM311 533q20 1 37 32t18 58t-11 33q-2 0 -4 2q-28 -4 -46 -57q-16 -50 -2 -65q3 -3 8 -3z" />
    <glyph glyph-name="ccedilla" unicode="&#xe7;" horiz-adv-x="397" 
d="M391 161q-77 -101 -168 -161t-161 -73q-10 -12 -12.5 -20t2.5 -10q47 -13 30 -46t-67 -49q-42 -14 -78 -3q-7 3 -5.5 10t8 14t10.5 6q39 -11 71 5q36 17 -2 47q-5 4 -12 8q-5 5 12 36q-89 7 -101 102q-12 97 54 224q68 128 166 185q60 34 118 31q19 -1 44.5 -17.5
t26.5 -42.5q1 -15 -23 -32q-13 -9 -14 -3q0 32 -17 43t-32 -1q-68 -45 -139 -179q-71 -133 -70 -208q1 -40 28 -43q53 -7 143.5 47t184.5 162q4 5 6 -6q4 -17 -3 -26z" />
    <glyph glyph-name="egrave" unicode="&#xe8;" horiz-adv-x="390" 
d="M398 172q-83 -118 -207 -209.5t-190 -80.5q-92 15 -97 123q-4 107 71 238q76 130 179 185q37 20 74 26q93 7 89 -50t-89 -140q-79 -78 -145 -99q-51 -101 -59.5 -153t26.5 -66q45 -17 147.5 65.5t190.5 195.5q7 8 11 -7q4 -14 -1 -28zM233 384q-13 -4 -52 -57t-68 -103
q79 40 114 112q20 40 10 47q-2 2 -4 1zM246 654q-7 10 6.5 24.5t24.5 11.5q19 -5 43.5 -48.5t20.5 -64.5q-7 -44 -29 -48q-13 -1 -21 17.5t-18.5 52t-26.5 55.5z" />
    <glyph glyph-name="eacute" unicode="&#xe9;" horiz-adv-x="390" 
d="M398 172q8 21 -1 35q-4 3 -8 0q-87 -113 -189.5 -195.5t-147.5 -65.5q-35 14 -27 65.5t58 153.5q69 22 149 103q83 84 84 139q1 54 -89 47q-110 -19 -208 -146q-88 -116 -108 -240q-22 -128 50 -171q18 -11 42 -15q67 -11 190 80.5t205 209.5zM232 384q6 2 7 -7
q3 -27 -32 -75q-37 -49 -93 -78q27 49 66 102.5t52 57.5zM355 654q-29 -22 -60 -55.5t-50 -52t-31 -17.5q-21 4 -1 48q8 21 59 64.5t73 48.5q14 3 18 -11.5t-8 -24.5z" />
    <glyph glyph-name="ecircumflex" unicode="&#xea;" horiz-adv-x="390" 
d="M398 172q8 21 -1 35q-4 3 -8 0q-87 -113 -189.5 -195.5t-147.5 -65.5q-35 14 -27 65.5t58 153.5q69 22 149 103q83 84 84 139q1 54 -89 47q-110 -19 -208 -146q-88 -116 -108 -240q-22 -128 50 -171q18 -11 42 -15q67 -11 190 80.5t205 209.5zM169 566q29 22 60 55.5
t50 52t31 17.5h3q13 1 21 -17.5t19 -52t27 -55.5q7 -10 -6.5 -24.5t-24.5 -11.5q-14 4 -33.5 30.5t-28.5 52.5q-25 -26 -59.5 -52.5t-49.5 -30.5q-13 -3 -17 11.5t8 24.5zM232 384q6 2 7 -7q3 -27 -32 -75q-37 -49 -93 -78q27 49 66 102.5t52 57.5z" />
    <glyph glyph-name="edieresis" unicode="&#xeb;" horiz-adv-x="390" 
d="M398 172q-83 -118 -207 -209.5t-190 -80.5q-92 15 -97 123q-4 107 71 238q76 130 179 185q37 20 74 26q93 7 89 -50t-89 -140q-79 -78 -145 -99q-51 -101 -59.5 -153t26.5 -66q45 -17 147.5 65.5t190.5 195.5q7 8 11 -7q4 -14 -1 -28zM233 384q-13 -4 -52 -57t-68 -103
q79 40 114 112q20 40 10 47q-2 2 -4 1zM209 547q-49 -18 -73 -12.5t-21 28.5t32 50q81 75 110 47q19 -18 1 -61q-17 -39 -49 -52zM385 547q-49 -18 -73 -12.5t-21 28.5t32 50q81 75 110 47q19 -18 1 -61q-17 -39 -49 -52z" />
    <glyph glyph-name="igrave" unicode="&#xec;" horiz-adv-x="228" 
d="M-22 483q12 5 31.5 8t40.5 2.5t39.5 -3t30 -9.5t10.5 -18q-5 -31 -48 -161t-72.5 -235.5t-9.5 -109.5q19 -4 85 72t132 171l25 -22q-21 -33 -48 -71.5t-66.5 -90t-78 -86.5t-63.5 -38q-80 -11 -83 82q-2 98 95 362q5 12 13 35l11 29q-70 -60 -93 -27q-16 23 4 65
q16 34 45 45zM162 654q-7 10 5.5 24.5t24.5 11.5q19 -5 44.5 -48.5t21.5 -64.5q-5 -44 -29 -48q-13 -1 -21 17.5t-19 52t-27 55.5z" />
    <glyph glyph-name="iacute" unicode="&#xed;" horiz-adv-x="228" 
d="M-21 483q-37 -15 -51 -60q-14 -43 8 -57q26 -17 86 34q-80 -216 -100 -292q-57 -218 46 -217q7 0 15 1q25 3 64 38.5t78.5 86t67.5 90t48 71.5l-24 22q-67 -95 -133.5 -171t-84.5 -72q-20 4 9.5 109t73.5 235.5t49 161.5q1 11 -10 18t-30 9.5t-40 3t-40.5 -2.5t-31.5 -8z
M275 654q-29 -22 -60 -55.5t-50 -52t-31 -17.5q-21 4 -1 48q8 21 59 64.5t73 48.5q14 3 18 -11.5t-8 -24.5z" />
    <glyph glyph-name="icircumflex" unicode="&#xee;" horiz-adv-x="228" 
d="M-21 483q-37 -15 -51 -60q-14 -43 8 -57q26 -17 86 34q-80 -216 -100 -292q-57 -218 46 -217q7 0 15 1q25 3 64 38.5t78.5 86t67.5 90t48 71.5l-24 22q-67 -95 -133.5 -171t-84.5 -72q-20 4 9.5 109t73.5 235.5t49 161.5q1 11 -10 18t-30 9.5t-40 3t-40.5 -2.5t-31.5 -8z
M-5 568q29 22 59.5 55.5t49.5 52t31 17.5h1h2q13 1 21 -17.5t19 -52t27 -55.5q7 -10 -6.5 -24.5t-24.5 -11.5q-13 4 -32.5 30.5t-28.5 52.5q-25 -27 -59.5 -53t-50.5 -30q-8 -2 -13 4.5t-4 16t9 15.5z" />
    <glyph glyph-name="idieresis" unicode="&#xef;" horiz-adv-x="228" 
d="M-20 483q12 5 31.5 8t40.5 2.5t40 -3t30 -9.5t10 -18q-5 -31 -50 -161t-75 -235.5t-10 -109.5q18 -4 84.5 72t134.5 171l25 -22q-184 -276 -260 -286q-80 -11 -81 81q-2 98 98 361q4 12 13 35q8 21 12 31q-71 -60 -94 -27q-16 23 6 65q16 34 45 45zM36 545
q-49 -18 -73 -12.5t-21 28.5t33 50q80 75 108 47q19 -18 2 -61q-18 -39 -49 -52zM212 545q-49 -18 -73.5 -12.5t-21.5 28.5t33 50q80 75 109 47q19 -18 2 -61q-17 -39 -49 -52z" />
    <glyph glyph-name="ntilde" unicode="&#xf1;" 
d="M86 252q85 141 133 197q47 53 85 53q29 0 39 -28t0 -57q-7 -25 -20.5 -60.5t-28.5 -70t-31.5 -71t-29 -67.5t-20 -56.5t-5.5 -41.5t15 -18q27 -5 82.5 39.5t122.5 128.5l12 -27q-65 -88 -134.5 -143.5t-127.5 -43.5q-23 5 -34.5 19t-10.5 35.5t5.5 40.5t14.5 45
q2 7 58 137q54 125 28 125q-6 0 -11.5 -2.5t-18.5 -17t-32 -42.5q-22 -34 -85.5 -161.5t-76.5 -151.5q-22 -41 -32 -57t-57 -24q-47 -7 -45 13q2 11 57.5 200t54.5 209q-2 14 35.5 24.5t70 10.5t36.5 -7q-4 -24 -49 -130zM81 529q-6 -7 -5 -1q2 10 13 30q23 36 55.5 44
t67 -2t69 -21t71 -8t64.5 31q12 11 21 4q5 -4 1 -10q-22 -36 -58 -46.5t-75.5 -3.5t-79 15.5t-78.5 3t-66 -35.5z" />
    <glyph glyph-name="ograve" unicode="&#xf2;" horiz-adv-x="401" 
d="M444 258q-78 -47 -130.5 -55.5t-88.5 14.5q-46 -96 -108 -156.5t-124 -54.5q-69 6 -70 87q0 85 66 185.5t150 134.5q2 44 17.5 79t41.5 47q80 37 94 -43q14 -84 -43 -225l-6 -14q28 -18 55.5 -20.5t64 14.5t78.5 57q8 7 12 -7q4 -19 -9 -43zM146 329q-21 -22 -41.5 -56
t-35 -66.5t-25 -64.5t-10.5 -50.5t8 -22.5q34 -9 74.5 41t76.5 131q-32 32 -47 88zM225 425q7 -4 6.5 -17t-9 -28.5t-17.5 -15.5q-16 -2 -30 -11q10 -39 35 -67q49 130 39 185q-7 38 -46 7q-25 -19 -33 -56q28 6 55 3zM252 654q-7 10 6.5 24.5t24.5 11.5q19 -5 43.5 -48.5
t20.5 -64.5q-7 -44 -29 -48q-13 -1 -21 17.5t-18.5 52t-26.5 55.5z" />
    <glyph glyph-name="oacute" unicode="&#xf3;" horiz-adv-x="401" 
d="M444 258q17 30 6 48q-4 7 -9 2q-42 -40 -78.5 -57t-64 -14.5t-55.5 20.5q59 140 50 229q-9 82 -77 60q-9 -3 -18 -7q-26 -12 -41.5 -47t-17.5 -79q-89 -36 -157 -145q-63 -102 -58 -184q4 -73 69 -78q62 -6 124 54.5t108 156.5q36 -23 88.5 -14.5t130.5 55.5zM146 329
q15 -56 47 -88q-36 -81 -76.5 -131t-74.5 -41q-8 4 -8 22.5t10.5 50.5t25 64.5t35 66.5t41.5 56zM225 425q-27 3 -55 -3q8 37 33 56q46 37 47 -22q1 -61 -40 -170q-25 28 -35 67q14 9 30 11q9 0 17.5 15.5t9 28.5t-6.5 17zM267 666q-29 -22 -60 -55.5t-50 -52t-31 -17.5
q-21 4 -1 48q9 21 60 64.5t73 48.5q14 3 18 -11.5t-9 -24.5z" />
    <glyph glyph-name="ocircumflex" unicode="&#xf4;" horiz-adv-x="401" 
d="M444 258q18 30 7 48q-5 5 -10 2q-42 -40 -78 -57t-63.5 -14.5t-55.5 20.5q59 141 48 231q-10 82 -82 57l-14 -6q-25 -12 -40.5 -47t-17.5 -79q-89 -36 -156 -145q-63 -102 -57 -184q5 -73 70 -78q62 -6 123.5 54.5t107.5 156.5q36 -23 88 -14.5t130 55.5zM146 329
q15 -56 47 -88q-35 -81 -75.5 -131t-74.5 -41q-8 4 -8 22.5t10 50.5t24.5 64.5t35 66.5t41.5 56zM225 425q-28 3 -55 -3q7 36 32 56q47 38 47 -23q1 -61 -39 -169q-24 27 -36 67q16 10 31 11q9 0 17.5 15.5t9 28.5t-6.5 17zM145 575q29 22 60 55.5t50 52t31 17.5h1h2
q13 1 21 -17.5t19 -52t27 -55.5q7 -10 -6.5 -24.5t-24.5 -11.5q-13 4 -32.5 30.5t-28.5 52.5q-25 -27 -59.5 -53t-50.5 -30q-13 -3 -17 11.5t8 24.5z" />
    <glyph glyph-name="otilde" unicode="&#xf5;" horiz-adv-x="401" 
d="M444 258q-78 -47 -130.5 -55.5t-88.5 14.5q-47 -96 -109 -156.5t-123 -54.5q-69 6 -70 87q0 85 66 185.5t150 134.5q2 45 18 79.5t42 46.5q80 37 93 -42q15 -83 -42 -223q-3 -9 -7 -17q28 -18 55.5 -20.5t64 14.5t78.5 57q8 7 12 -7q4 -19 -9 -43zM146 329
q-21 -22 -41.5 -56t-35.5 -66.5t-25.5 -64.5t-10.5 -50.5t8 -22.5q34 -9 74.5 41t76.5 131q-30 30 -46 88zM226 425q7 -4 6.5 -17t-9.5 -28.5t-18 -15.5q-14 -1 -30 -11q10 -39 35 -67q50 132 39 186q-7 37 -45 6q-25 -19 -33 -56q27 6 55 3zM67 538q-7 -8 -4 1q4 12 13 28
q23 36 55.5 44t67 -2t69 -21t71.5 -8t65 31q12 11 21 4q5 -4 1 -10q-23 -36 -59 -46.5t-75.5 -3.5t-79 15.5t-79 3t-66.5 -35.5z" />
    <glyph glyph-name="odieresis" unicode="&#xf6;" horiz-adv-x="401" 
d="M444 258q-78 -47 -130.5 -55.5t-88.5 14.5q-46 -96 -108 -156.5t-124 -54.5q-69 6 -70 87q0 85 66 185.5t150 134.5q2 44 17.5 79t41.5 47q80 37 94 -43q14 -84 -43 -225l-6 -14q28 -18 55.5 -20.5t64 14.5t78.5 57q8 7 12 -7q4 -19 -9 -43zM146 329q-21 -22 -41.5 -56
t-35 -66.5t-25 -64.5t-10.5 -50.5t8 -22.5q34 -9 74.5 41t76.5 131q-32 32 -47 88zM225 425q7 -4 6.5 -17t-9 -28.5t-17.5 -15.5q-16 -2 -30 -11q10 -39 35 -67q49 130 39 185q-7 38 -46 7q-25 -19 -33 -56q28 6 55 3zM196 547q-49 -18 -73 -12.5t-21 28.5t32 50
q81 75 110 47q19 -18 1 -61q-17 -39 -49 -52zM372 547q-49 -18 -73 -12.5t-21 28.5t32 50q81 75 110 47q19 -18 1 -61q-17 -39 -49 -52z" />
    <glyph glyph-name="divide" unicode="&#xf7;" horiz-adv-x="302" 
d="M202 390q-49 -18 -73 -12.5t-21 28.5t32 50q81 75 110 47q19 -18 1 -61q-16 -39 -49 -52zM88 57q-49 -18 -72.5 -12.5t-21 28.5t31.5 50q81 75 110 47q19 -18 1 -61q-16 -39 -49 -52zM0 241q-10 2 -10 16t7.5 30t14.5 16q177 0 294 -8q13 -1 -4 -23q-15 -21 -29 -22
q-75 -9 -273 -9z" />
    <glyph glyph-name="ugrave" unicode="&#xf9;" 
d="M227 -35q13 -3 44 33t82.5 105t74.5 96l20 -22q-51 -78 -130.5 -172.5t-119.5 -104.5q-47 -12 -70 7.5t-21 71.5t10 96t27 120l6 19q-61 -98 -104 -148q-45 -53 -86 -53q-29 0 -38.5 28.5t1.5 56.5q8 39 54.5 205t53.5 182q8 17 53 17q48 1 50 -20q1 -5 -2 -10
q-43 -77 -96 -211t-10 -134q10 0 22.5 11t40.5 51q41 61 97 155q2 9 7 25t6 22q4 26 17 46q11 15 75 29q67 13 64 -8q-14 -81 -54 -190q-6 -22 -16 -52.5t-19 -57t-18 -55.5t-15.5 -52t-10.5 -42.5t-3 -30.5t8 -13zM267 654q-7 9 6 24t24 12q19 -5 44.5 -48t21.5 -65
q-7 -44 -29 -48q-13 -1 -21 17.5t-19 52t-27 55.5z" />
    <glyph glyph-name="uacute" unicode="&#xfa;" 
d="M225 -35q-7 2 -8 13t3 30.5t10.5 42.5t16 52t18.5 55.5t19.5 57t16.5 52.5q42 114 55 190q5 21 -57 9q-65 -13 -82 -30q-15 -22 -18 -46q-3 -15 -13 -47q-48 -81 -98 -155q-28 -40 -40.5 -51t-22.5 -11q-43 0 10.5 133t97.5 212q11 23 -28 29q-41 6 -65 -9q-5 -3 -7 -7
q-7 -15 -55 -180.5t-57 -206.5q-10 -28 -0.5 -56.5t38.5 -28.5q39 0 86 53q47 54 104 148l-5 -19q-20 -75 -28.5 -119.5t-10.5 -96.5t20.5 -71.5t69.5 -7.5q41 10 121 104.5t131 172.5l-20 22q-22 -26 -74 -96t-83.5 -105.5t-44.5 -32.5zM350 650q-30 -22 -61 -55.5t-50 -52
t-31 -17.5q-21 4 -1 48q9 21 60 64.5t73 48.5q14 3 18 -11.5t-8 -24.5z" />
    <glyph glyph-name="ucircumflex" unicode="&#xfb;" 
d="M222 -35q-7 2 -8 13t3.5 30.5t11 42.5t16.5 52t19 55.5t19.5 57t17.5 52.5q41 107 57 190q5 21 -58 9q-65 -13 -82 -30q-15 -22 -18 -46q-4 -15 -14 -47q-50 -83 -99 -155q-28 -40 -40.5 -51t-22.5 -11q-43 0 10.5 132t99.5 213q12 23 -27 29q-42 6 -66 -9q-5 -3 -7 -7
q-7 -16 -56 -181.5t-59 -205.5q-10 -28 -1 -56.5t38 -28.5q41 0 86 53q45 50 107 148l-6 -19q-20 -76 -29 -120t-12 -96t20 -71.5t70 -7.5q40 10 121 104.5t133 172.5l-20 22q-21 -25 -74.5 -95.5t-85 -106t-44.5 -32.5zM130 562q29 22 60.5 55.5t51 52t31.5 17.5h1h2
q11 1 18 -11t11 -29.5t13.5 -42t22.5 -42.5q7 -10 -6.5 -24.5t-24.5 -11.5q-13 4 -32.5 30.5t-27.5 52.5q-26 -27 -60.5 -53t-50.5 -30q-13 -3 -17 11.5t8 24.5z" />
    <glyph glyph-name="udieresis" unicode="&#xfc;" 
d="M227 -35q13 -3 44 33t82.5 105t74.5 96l20 -22q-51 -78 -130.5 -172.5t-119.5 -104.5q-47 -12 -70 7.5t-21 71.5t10 96t27 120l6 19q-61 -98 -104 -148q-45 -53 -86 -53q-29 0 -38.5 28.5t1.5 56.5q8 39 54.5 205t53.5 182q8 17 53 17q48 1 50 -20q1 -5 -2 -10
q-43 -77 -96 -211t-10 -134q10 0 22.5 11t40.5 51q41 61 97 155q2 9 7 25t6 22q4 26 17 46q11 15 75 29q67 13 64 -8q-14 -81 -54 -190q-6 -22 -16 -52.5t-19 -57t-18 -55.5t-15.5 -52t-10.5 -42.5t-3 -30.5t8 -13zM176 560q-49 -18 -73.5 -12.5t-21.5 28.5t32 50
q80 75 109 47q20 -18 2 -61q-16 -39 -48 -52zM352 560q-49 -18 -73.5 -12.5t-21.5 28.5t32 50q80 75 109 47q20 -18 2 -61q-16 -39 -48 -52z" />
    <glyph glyph-name="yacute" unicode="&#xfd;" horiz-adv-x="446" 
d="M180 268q-34 -128 -84 -273q-77 -65 -127 -140q-94 -134 -72 -213q14 -49 64 -49q62 0 121 72q38 47 63 115q13 36 35 114.5t36 123.5q12 6 48.5 20t65 26.5t66 43t64.5 72.5q7 13 1 16.5t-17 2.5t-12 -3q-24 -34 -48 -57.5t-47.5 -36.5t-39 -19.5t-38.5 -13t-31 -9.5
q126 391 129 403q3 22 -48 13q-43 -7 -54 -22q-35 -49 -84 -130.5t-82 -129.5q-20 -28 -32.5 -42t-17.5 -16.5t-12 -2.5q-43 0 9 131.5t96 211.5q12 24 -28 30q-41 6 -65 -8q-5 -3 -7 -7q-6 -15 -51 -174.5t-59 -213.5q-8 -33 1 -59t39 -26q39 0 85 54q49 56 133 196z
M-11 -168q28 55 88 110q-46 -131 -65 -183q-18 -47 -44 -58q-20 -8 -21 17q-1 37 42 114zM319 646q-29 -22 -60 -55.5t-50 -52t-31 -17.5q-20 4 -1 48q9 21 60 64.5t73 48.5q13 3 17 -11.5t-8 -24.5z" />
    <glyph glyph-name="ydieresis" unicode="&#xff;" horiz-adv-x="446" 
d="M180 268q-83 -138 -135 -196q-46 -54 -86 -54q-30 0 -38.5 26t-0.5 59q13 50 60 211.5t54 176.5q8 16 53 16q47 0 49 -21q0 -4 -3 -10q-46 -84 -98.5 -213.5t-9.5 -129.5q7 0 12 2.5t18 16.5t33 42q32 47 82 128.5t87 131.5q10 15 56 23q47 6 45 -14q-1 -4 -132 -403
q3 1 38.5 11.5t52.5 19t50.5 36.5t63.5 69q1 2 12 3t17 -2.5t-1 -16.5q-36 -54 -80 -85t-103 -53t-63 -24q-12 -39 -35.5 -119.5t-37.5 -118.5q-46 -124 -127 -170q-60 -34 -99 -4q-44 35 -16 124q19 57 67 125q52 76 128 140q15 41 35 105t35.5 115t16.5 53zM-16 -168
q-56 -100 -39 -127q10 -16 34 7q17 18 28 47q54 146 67 183q-61 -56 -90 -110zM179 546q-49 -18 -73.5 -12.5t-21.5 28.5t33 50q81 75 109 47q19 -18 2 -61q-17 -39 -49 -52zM355 546q-49 -18 -73.5 -12.5t-21.5 28.5t33 50q81 75 109 47q19 -18 2 -61q-17 -39 -49 -52z" />
    <glyph glyph-name="dotlessi" unicode="&#x131;" horiz-adv-x="228" 
d="M-50 483q12 5 31.5 8t40.5 2.5t40 -3t30 -9.5t10 -18q-5 -31 -50 -161.5t-75.5 -235.5t-10.5 -109q19 -4 85 71t135 172l24 -22q-33 -50 -70.5 -103t-96.5 -115.5t-92 -67.5q-80 -11 -82 82q-2 97 98 357q4 12 13 35t13 34q-71 -60 -94 -27q-16 23 6 65q16 34 45 45z" />
    <glyph glyph-name="Lslash" unicode="&#x141;" horiz-adv-x="400" 
d="M87 -66q-43 -106 -131 -120q-64 -10 -109 29q-42 36 -23 76q28 59 175 73q33 105 63 215q-51 -25 -128 -62q-11 -5 -19.5 6.5t-8.5 25t6 19.5q5 2 28 13t64.5 30t75.5 35q8 31 27.5 106t28.5 109t22.5 81.5t21 70.5t12.5 30q8 3 26 8.5t43 12t45 5t23 -12.5
q-45 -93 -122 -353q62 30 125 57q9 4 9 -9q1 -23 -16 -38l-3 -2q-40 -25 -134 -71q-47 -155 -79 -270q79 0 190 -9q18 0 27 -13t3 -32q-5 -18 -22 -31t-35 -13q-18 1 -47 6.5t-70 14t-68 13.5zM-111 -88q6 -22 22.5 -27t35 9t31.5 43q2 4 4 10q-17 0 -34.5 1t-34.5 -7.5
t-24 -28.5z" />
    <glyph glyph-name="lslash" unicode="&#x142;" horiz-adv-x="272" 
d="M-35 -57q14 -2 38.5 17.5t56.5 58t58 72t61 80.5q11 16 17 23l22 -23q-13 -15 -51.5 -70t-70.5 -97t-73 -80t-70 -41q-46 -5 -70 22t-26 81.5t7 118t30 145.5q-70 -39 -80 -45q-16 -9 -27.5 15.5t0.5 31.5q14 7 126 70q23 82 66 217.5t53 173.5q4 15 42 28.5t68 16
t34 -4.5q-4 -20 -101 -340q71 40 120 66q11 5 11 -11q0 -25 -15 -37q-37 -26 -136 -86q-54 -182 -80.5 -291t-9.5 -111z" />
    <glyph glyph-name="Scaron" unicode="&#x160;" horiz-adv-x="488" 
d="M412 452q78 127 42 166q-26 29 -87 -3l-20 -12q-60 -39 -111 -186q-12 -35 -12.5 -63.5t8 -47t21.5 -35.5t29 -28.5t30 -27t24 -31.5t12 -41t-7 -56q-13 -46 -44.5 -84.5t-71.5 -60t-84 -31t-82 3.5t-66 43t-35.5 87.5t8.5 136.5q7 21 24.5 21t31.5 -15t10 -32
q-16 -79 38 -135q44 -48 98 -39q63 11 87 97l2 8q9 38 -1.5 68.5t-32 49t-46.5 42t-44.5 48t-26.5 67t8 98.5q28 111 134 184q89 61 170 55q77 -5 89 -71q14 -75 -66 -205q-24 -35 -40 -28t1 40q4 9 10 17zM300 854q-7 10 6.5 24.5t24.5 11.5q13 -4 32.5 -30.5t28.5 -52.5
q25 27 59.5 53t50.5 30q13 3 17 -11.5t-8 -24.5q-29 -22 -59.5 -55.5t-49.5 -52t-31 -17.5h-3q-11 -1 -18.5 11t-12 29.5t-14.5 42t-23 42.5z" />
    <glyph glyph-name="scaron" unicode="&#x161;" horiz-adv-x="502" 
d="M253 654q-7 10 6.5 24.5t24.5 11.5q13 -4 32 -30.5t27 -52.5q26 27 61 53t51 30q13 3 17 -11.5t-8 -24.5q-30 -22 -61 -55.5t-50 -52t-31 -17.5h-2h-1q-13 -1 -21 17.5t-18.5 52t-26.5 55.5zM-48 152q59 73 138 195t113 204q17 5 45 -11.5t48 -35.5l20 -19
q-37 -33 -40 -105t9.5 -163t9.5 -125q7 2 40 8.5t48 12t43.5 24.5t54.5 50q12 0 17.5 -6.5t-3.5 -23.5q-14 -20 -33 -36t-33.5 -25.5t-38.5 -18t-34 -11t-35 -8t-26 -5.5q-4 -66 -33.5 -114t-71.5 -69.5t-86 -29.5t-80 -2t-51 21q-12 10 -14.5 26.5t8.5 39t35 46t72 48
t113 44.5q1 24 -28.5 144.5t-24.5 149.5q-3 -5 -10 -15q-93 -147 -160 -221q-16 -13 -22 -1t10 32zM183 24q-66 -19 -107 -43.5t-45.5 -42t3.5 -29.5q9 -7 28.5 -10.5t43 1.5t44 17t30.5 40t3 67z" />
    <glyph glyph-name="Ydieresis" unicode="&#x178;" horiz-adv-x="545" 
d="M263 685q-11 -41 -43.5 -132t-57.5 -174q-91 -306 98 -86q38 45 107 136l35 45q8 28 17.5 55.5t16 45t20 51t20.5 51.5q2 6 25.5 13.5t40.5 7.5q10 0 15 -3.5t4 -10.5q-53 -162 -93 -273q-24 -81 -63 -222.5t-64.5 -229t-38.5 -117.5q-65 -143 -150 -141q-64 2 -110 79
q-51 87 -38 191q2 15 5 30q2 5 18 13.5t30 12.5t17 -2q-27 -67 7 -148q26 -62 64 -74q38 -13 62 39q40 87 92 272.5t81 257.5q-174 -201 -258 -257q-131 -88 -114 98q6 71 35 183q21 83 35.5 144.5t23.5 97.5q4 11 74 41q91 39 89 12zM347 747q-49 -18 -73 -12.5t-21 28.5
t32 50q81 75 109 47q19 -18 2 -61q-17 -39 -49 -52zM523 747q-49 -18 -73 -12.5t-21 28.5t32 50q81 75 109 47q19 -18 2 -61q-17 -39 -49 -52z" />
    <glyph glyph-name="Zcaron" unicode="&#x17d;" horiz-adv-x="543" 
d="M-60 16q2 9 24 20q29 15 27 -12q0 -2 -1 -5q-14 -56 7 -146q22 -100 63 -106q64 -8 138 233q5 18 11 38q17 55 17 90t-12.5 50t-38 19.5t-51 1.5t-61 -6t-59.5 -1q-47 4 71 123q30 30 99 96q140 134 162 170q9 15 6 22q-36 33 -128.5 -26.5t-162.5 -157.5q-5 -2 -14 -5
t-26.5 -8t-27.5 -3t-7 13q67 94 158.5 164t170 100t131.5 25q147 -11 82 -85q-56 -63 -179.5 -192t-158.5 -167q59 13 92 -4.5t40 -58.5t0.5 -88t-24.5 -104q-75 -246 -179 -284q-68 -24 -122.5 45.5t-54.5 175.5q-1 38 8 73zM272 854q-7 10 6.5 24.5t24.5 11.5
q13 -4 32 -30.5t28 -52.5q25 26 60 52.5t51 30.5q13 3 17 -11.5t-8 -24.5q-29 -22 -60 -55.5t-50.5 -52t-31.5 -17.5h-3q-11 -1 -18 11t-11.5 29.5t-14 42t-22.5 42.5z" />
    <glyph glyph-name="zcaron" unicode="&#x17e;" horiz-adv-x="497" 
d="M66 96q-26 -13 -41 5q-14 17 6 33q13 10 36 13q76 35 128.5 96t31.5 97q-36 61 -109.5 1t-137.5 -165q-23 -38 -36 -34q-13 5 7 44q3 5 7 11q105 171 192 245t134 54q61 -26 74 -75.5t-14 -102t-79.5 -102t-115.5 -77.5q26 -9 49 -31.5t26 -55.5q15 6 49 15t58 18
t59.5 37t66.5 73q1 2 7 -2t8 -11.5t-5 -21.5q-27 -41 -64.5 -68.5t-64 -37t-64 -18.5t-46.5 -12q-3 -115 -24 -182q-40 -125 -106 -170.5t-114 -14.5q-36 23 -41 72.5t15 101.5t61.5 100t90.5 69q-2 10 -4 37.5t-10 40.5t-30 18zM73 -215q19 29 31 83t11 104
q-33 -14 -58 -42t-38.5 -59t-20 -61.5t-5.5 -53t7 -30.5q6 -6 15 -4t24.5 18.5t33.5 44.5zM219 654q-7 10 6.5 24.5t24.5 11.5q13 -4 32 -30.5t28 -52.5q25 26 60 52.5t51 30.5q13 3 17 -11.5t-8 -24.5q-29 -22 -60 -55.5t-50.5 -52t-31.5 -17.5h-3q-11 -1 -18 11
t-11.5 29.5t-14 42t-22.5 42.5z" />
    <glyph glyph-name="circumflex" unicode="&#x2c6;" horiz-adv-x="385" 
d="M89 566q30 22 61 55.5t50 52t31 17.5h1h2q13 1 21 -17.5t18.5 -52t26.5 -55.5q7 -10 -6.5 -24.5t-24.5 -11.5q-14 4 -33 30t-28 53q-25 -26 -60 -52.5t-50 -30.5q-13 -3 -17 11.5t8 24.5z" />
    <glyph glyph-name="caron" unicode="&#x2c7;" horiz-adv-x="413" 
d="M106 654q-7 10 6.5 24.5t24.5 11.5q14 -4 32.5 -30t27.5 -53q24 26 59.5 52.5t51.5 30.5q13 3 17 -11.5t-8 -24.5q-29 -22 -60 -55.5t-50.5 -52t-31.5 -17.5h-2h-1q-11 -1 -18 11t-11.5 29.5t-14 42t-22.5 42.5z" />
    <glyph glyph-name="breve" unicode="&#x2d8;" horiz-adv-x="492" 
d="M331 660q0 7 14 12t18 -6q19 -77 -51 -117q-56 -33 -120 -20q-57 12 -62 53q-3 37 38 84q12 14 25 3q5 -5 3 -9q-38 -59 -1 -87q30 -23 76 -6q53 21 59 79q1 7 1 14z" />
    <glyph glyph-name="dotaccent" unicode="&#x2d9;" horiz-adv-x="291" 
d="M124 513q-49 -18 -73.5 -12.5t-21.5 28.5t32 50q80 75 109 47q20 -18 2 -61q-16 -39 -48 -52z" />
    <glyph glyph-name="ring" unicode="&#x2da;" horiz-adv-x="267" 
d="M97 510q-25 -3 -29 31q-6 47 25 100q30 50 71 52q3 -1 -0.5 -11t-7.5 -18q34 -5 22 -56t-49 -82q-16 -14 -32 -16zM110 533q20 1 37 32t18 58t-11 33q-4 0 -4 2q-28 -4 -46 -57q-17 -50 -2 -65q3 -3 8 -3z" />
    <glyph glyph-name="ogonek" unicode="&#x2db;" horiz-adv-x="314" 
d="M192 0q-108 -90 -63 -113q24 -12 73 0q3 1 5 -5q7 -16 -7 -23l-4 -2q-49 -14 -81 -7.5t-45.5 23.5t7 51.5t76.5 75.5q4 -1 28 0h11z" />
    <glyph glyph-name="tilde" unicode="&#x2dc;" horiz-adv-x="511" 
d="M69 529q-6 -7 -5 -1q2 10 13 30q23 36 55.5 44t67 -2t69.5 -21t71.5 -8t64.5 31q12 11 21 4q4 -4 1 -10q-22 -36 -58 -46.5t-75.5 -3.5t-79 15.5t-79 3t-66.5 -35.5z" />
    <glyph glyph-name="hungarumlaut" unicode="&#x2dd;" horiz-adv-x="427" 
d="M208 654q-29 -22 -60 -55.5t-50.5 -52t-31.5 -17.5q-20 4 0 48q8 21 59.5 64.5t73.5 48.5q13 3 17 -11.5t-8 -24.5zM348 654q-29 -22 -60 -55.5t-50.5 -52t-31.5 -17.5q-20 4 0 48q8 21 59.5 64.5t73.5 48.5q13 3 17 -11.5t-8 -24.5z" />
    <glyph glyph-name="endash" unicode="&#x2013;" horiz-adv-x="565" 
d="M88 238q-11 0 -11 15.5t7.5 31t15.5 15.5q29 0 203 -3.5t203 -5.5q12 -1 -4 -23q-15 -21 -29 -22q-66 -8 -385 -8z" />
    <glyph glyph-name="emdash" unicode="&#x2014;" horiz-adv-x="679" 
d="M35 239q-11 0 -11 15.5t7.5 31t15.5 15.5q28 0 283.5 -5.5t284.5 -7.5q13 -1 -4 -23q-15 -20 -29 -22q-29 -3 -113.5 -4.5t-164.5 -1t-169.5 1t-99.5 0.5z" />
    <glyph glyph-name="quoteleft" unicode="&#x2018;" horiz-adv-x="299" 
d="M185 640q12 5 12 -7q0 -3 -12 -45q-5 -20 0 -22q24 -6 21 -29t-32 -50q-22 -20 -40.5 -32.5t-31.5 -17t-22.5 -3.5t-15 7t-8.5 15q-5 23 48 98t81 86z" />
    <glyph glyph-name="quoteright" unicode="&#x2019;" horiz-adv-x="266" 
d="M88 430q-12 -5 -12 7q0 3 12 45q6 20 0 22q-24 6 -21 29t33 50q22 20 40.5 33t31.5 17t23 3t15.5 -7t7.5 -15q4 -23 -49 -98t-81 -86z" />
    <glyph glyph-name="quotedblleft" unicode="&#x201c;" horiz-adv-x="451" 
d="M351 640q12 5 11 -8q0 -7 -7 -30q-10 -33 -4 -36q24 -6 21 -29t-32 -50q-22 -20 -40.5 -32.5t-31.5 -17t-22.5 -3.5t-15 7t-8.5 15q-5 23 47.5 98t81.5 86zM181 640q12 5 11 -8q0 -7 -7 -30q-10 -33 -4 -36q24 -6 21 -29t-32 -50q-22 -20 -40.5 -32.5t-31.5 -17
t-22.5 -3.5t-15 7t-8.5 15q-5 23 47.5 98t81.5 86z" />
    <glyph glyph-name="quotedblright" unicode="&#x201d;" horiz-adv-x="449" 
d="M90 430q-12 -5 -12 7q0 3 12 45q6 20 0 22q-24 6 -21 29t33 50q22 20 40.5 32.5t31.5 17t22.5 3.5t15 -7t7.5 -15q5 -23 -47.5 -98t-81.5 -86zM260 430q-12 -5 -12 7q0 3 12 45q6 20 0 22q-24 6 -21 29t33 50q22 20 40.5 32.5t31.5 17t22.5 3.5t15 -7t7.5 -15
q5 -23 -47.5 -98t-81.5 -86z" />
    <glyph glyph-name="quotedblbase" unicode="&#x201e;" horiz-adv-x="449" 
d="M79 -81q-12 -5 -12 7q0 3 12 45q6 20 0 22q-24 6 -21 29t33 50q22 20 40.5 32.5t31.5 17t22.5 3.5t15 -7t7.5 -15q5 -23 -48 -98t-81 -86zM260 -81q-12 -5 -12 7q0 3 12 45q6 20 0 22q-24 6 -21 29t33 50q22 20 40.5 32.5t31.5 17t22.5 3.5t15 -7t7.5 -15q5 -23 -48 -98
t-81 -86z" />
    <glyph glyph-name="bullet" unicode="&#x2022;" horiz-adv-x="352" 
d="M88 312q14 48 56 81t79 33q34 0 43 -32t-7 -82q-14 -48 -60 -83t-84 -35q-62 0 -27 118z" />
    <glyph glyph-name="ellipsis" unicode="&#x2026;" horiz-adv-x="689" 
d="M148 6q-49 -18 -73 -12.5t-21 28.5t32 50q80 75 109 47q19 -18 2 -61q-17 -39 -49 -52zM338 6q-49 -18 -73 -12.5t-21 28.5t32 50q80 75 109 47q19 -18 2 -61q-17 -39 -49 -52zM547 6q-49 -18 -73 -12.5t-21 28.5t32 50q80 75 109 47q19 -18 2 -61q-17 -39 -49 -52z" />
    <glyph glyph-name="fraction" unicode="&#x2044;" horiz-adv-x="201" 
d="M-219 1q10 14 231 353t258 379q14 14 39 11q17 -2 10 -12q-9 -14 -246 -382t-247 -381q-10 -11 -33 3t-12 29z" />
    <glyph glyph-name="minus" unicode="&#x2212;" horiz-adv-x="591" 
d="M41 239q-10 2 -10 16t7.5 30t15.5 16q35 0 238 -3t231 -5q13 -1 -4 -23q-15 -21 -29 -22q-75 -9 -449 -9z" />
    <glyph glyph-name="A_swsh" unicode="&#xe000;" horiz-adv-x="681" 
d="M324 237q-125 -182 -194 -256q-62 -66 -114.5 -85.5t-84.5 5t-41 85.5q-137 -89 -204 -50q-45 26 -35 92q12 75 84 132q32 25 71 40q14 5 21.5 -3.5t5.5 -21.5t-12 -18q-107 -54 -129 -121q-16 -49 20 -73q46 -29 124 13q25 14 49 33q-16 87 32 128q31 27 61 15
q31 -12 16 -52q-13 -37 -67 -83q14 -90 71 -45q44 34 160 203q9 13 28 41l1 1l1 1v1l1 1l1 1v1l1 1l1 1v1l1 1l1 1v1l1 1l1 1l1 2q-14 0 -24 0.5t-15 3.5t-8 5t-2.5 8t1 8.5t3 10.5t3.5 11q3 9 16 10.5t34.5 -0.5t27.5 -2q43 66 135.5 211.5t131.5 204.5q12 4 50 -21.5
t43 -48.5l-44 -346h48q24 0 24 -17q0 -18 -23 -27q-10 -4 -20 -4h-38l-36 -256q-5 -19 -21 -32.5t-35 -14.5q-7 -1 -10 1.5t-2.5 7.5t2 10t4.5 13.5t4 14.5l31 256q-53 0 -153 -2zM483 288l29 237q-12 -18 -154 -235q43 0 125 -2zM-80 32q64 69 50 94q-9 14 -30 -1
q-39 -30 -20 -93z" />
    <glyph glyph-name="B_swsh" unicode="&#xe001;" horiz-adv-x="622" 
d="M349 529q-23 -73 -63.5 -166.5t-73.5 -192.5q-30 -96 -22 -137t46 -45q41 -4 109 58q81 73 101 150q28 105 -92 140l-16 4q-10 2 -12.5 4t-1 3.5t8.5 6.5t12.5 9t14.5 12.5t19 19.5t19 25q32 49 40 102.5t-14 90.5t-72 35q-94 -3 -192 -91.5t-117 -212.5l11 -2
q71 -21 72 -63q2 -32 -33 -54q-38 -23 -64 0q-29 25 -17 101q-88 21 -153 -32q-48 -39 -44 -85q4 -49 71 -63q28 -6 63 -4q14 1 12 -20q-3 -24 -24 -30l-3 -1q-95 -16 -137 44q-35 49 -10 111q29 72 116 97q50 14 114 8l3 -1q9 77 61.5 156.5t132.5 134t160 59.5
q91 5 141 -32t53 -91.5t-29.5 -114.5t-92.5 -99q59 -27 70.5 -99t-21.5 -143q-47 -114 -158 -163q-96 -43 -179 -14q-78 27 -86 103q-5 47 21 106q60 139 123 332q6 26 40.5 40.5t61 11.5t31.5 -8zM47 322q-15 -61 11 -78q17 -12 33 3q20 19 -6 48q-13 14 -38 27z" />
    <glyph glyph-name="C_swsh" unicode="&#xe002;" horiz-adv-x="409" 
d="M177 393q-73 -152 -92 -291q-17 -121 29 -122q47 -1 146 132q7 7 13 9.5t10 1t7 -5t4 -8.5t2 -9t2 -7v-3q-134 -172 -227 -149q-66 16 -87 120q-25 126 28 279q5 14 10 27q-103 -29 -114 -27q11 -132 -68 -195q-58 -46 -124 -30q-61 15 -79 74q-9 33 -1 75q5 20 31 24
q22 3 23 -11q-8 -103 49 -125q44 -17 91 21q57 46 56 123q0 20 -5 40q-97 -13 -113 31q-11 29 19 59q32 33 66 16q30 -14 46 -66q3 1 23.5 5.5t53.5 12t66 16.5q57 118 153 196q123 98 222 85q63 -8 80 -57q20 -57 -41 -118q-84 -86 -279 -123zM199 438q106 23 166 54.5
t73 59.5q13 27 -15 35q-43 12 -113 -37q-58 -41 -111 -112zM-122 370q-16 28 -33 41q-28 21 -46 1q-15 -16 0 -33q19 -23 79 -9z" />
    <glyph glyph-name="D_swsh" unicode="&#xe003;" horiz-adv-x="616" 
d="M354 547q-24 -72 -64 -165.5t-74 -193.5q-19 -54 -23.5 -88.5t3.5 -49t24.5 -19t40.5 2.5q92 19 149.5 164.5t47 284.5t-85.5 141q-86 4 -187 -82t-138 -198l7 -2q71 -21 72 -63q2 -32 -33 -54q-38 -23 -64 0q-29 25 -17 101q-88 21 -153 -32q-48 -39 -44 -85
q4 -49 71 -63q28 -6 63 -4q14 1 12 -20q-3 -24 -24 -30l-3 -1q-95 -16 -137 44q-35 49 -10 111q29 72 116 97q50 14 114 8l3 -1q12 76 65 150t133 124t163 55q77 5 123 -29.5t57 -90.5t3 -125t-31 -132.5t-53 -113.5q-87 -145 -208 -208q-97 -52 -159 -22q-65 32 -42 137
q7 35 25 76q58 125 124 332q6 26 41 40.5t61.5 11.5t31.5 -8zM47 322q-18 -71 18 -82q21 -6 31 13q15 27 -30 58z" />
    <glyph glyph-name="E_swsh" unicode="&#xe004;" horiz-adv-x="498" 
d="M166 416q4 -5 10.5 -9t13 -6.5t14 -3.5t15 -1h14.5t13 1t10.5 1.5t7.5 1.5h3q35 6 33 -23q-1 -27 -23 -48q-5 -4 -9 -6q-72 -27 -129 -92.5t-79 -138t-1 -122.5q8 -15 32.5 -19.5t58 4t69.5 27t71.5 55.5t59.5 85l25 -14q17 -13 7 -23q-51 -84 -117 -136.5t-123.5 -65
t-103.5 -4.5t-66 35q-48 63 10 185.5t177 221.5q-49 16 -79 51q-134 -70 -158 -76q12 -131 -66 -194q-56 -46 -122 -32q-62 14 -81 73q-10 34 -2 77q5 20 31 24q22 3 23 -11q-7 -103 50 -125q44 -18 92 22q56 47 54 124q0 19 -5 38q-97 -13 -113 31q-12 30 18 60
q33 32 67 14q30 -14 45 -65q21 6 146 73q-28 71 38 170q35 50 117 86.5t142 38.5q105 3 152 -24q87 -49 -156 -174q-78 -40 -186 -86zM225 591q-49 -35 -69 -134q211 91 241 151q15 29 -21 34q-52 8 -124 -33q-14 -9 -27 -18zM-108 326q-28 52 -60 50q-21 -1 -25 -21
q-5 -22 23 -31q23 -7 62 2z" />
    <glyph glyph-name="F_swsh" unicode="&#xe005;" horiz-adv-x="367" 
d="M159 59q-12 -36 -41 -65.5t-63 -42.5t-66.5 -13.5t-56 23.5t-28.5 67q-138 -89 -205 -50q-44 26 -33 92q12 75 84 132q32 25 71 40q13 5 20.5 -3.5t5.5 -21.5t-12 -18q-107 -54 -130 -121q-16 -49 21 -73q45 -29 124 13q24 13 49 33q-16 87 32 128q32 27 62 14
q31 -13 15 -53q-14 -37 -67 -82q-1 -19 11.5 -37t33 -18t37.5 29q63 106 130 398q-5 0 -17 2.5t-16 2.5q-11 0 8 27q14 19 23 20h14q22 73 42 128h-34q-8 0 1.5 23t25.5 46.5t24 23.5q50 0 159.5 -7t153.5 -7q34 0 12 -42q-13 -26 -23 -29q-68 1 -185 -4q-24 -59 -49 -135
q22 -1 67 -1q26 0 5 -29q-12 -15 -19 -17l-68 2q-22 -67 -63 -203t-55 -172zM-66 74q63 68 50 94q-7 14 -28 1q-5 -3 -9 -8q-30 -34 -13 -87z" />
    <glyph glyph-name="G_swsh" unicode="&#xe006;" horiz-adv-x="476" 
d="M165 382q-46 -100 -70 -198q-32 -130 20 -150q42 -17 109 45q40 37 74 92q3 11 17 60t27 87q4 13 46 35q53 26 52 1q-1 -12 -40 -127.5t-83 -244.5t-52 -155q-24 -62 -55.5 -91.5t-61.5 -28t-59.5 18.5t-51 42t-34.5 50q-5 12 16 30q18 14 20 2q5 -23 25.5 -41t44 -24
t45 4t28.5 38q39 137 69 220q-51 -47 -102 -70.5t-90.5 -20.5t-67.5 30t-32.5 82t14.5 135q11 41 34 118q-46 -18 -85 -25q11 -132 -68 -195q-56 -46 -122 -30q-62 14 -80 74q-10 33 -2 75q5 20 31 24q22 3 23 -11q-7 -103 49 -125q44 -18 92 22q57 46 56 123q0 19 -5 39
q-97 -13 -113 31q-11 30 19 59q32 33 67 16q29 -15 44 -66q54 11 110 32q91 229 236 307q90 49 161 21q51 -19 54 -65q3 -50 -58 -97q-53 -47 -251 -148zM405 562q24 22 5 37q-25 19 -76 -6q-81 -40 -148 -162q158 75 219 131zM-108 326q-18 34 -37 44.5t-33 3.5
q-19 -9 -14 -29q7 -28 60 -23q11 1 24 4z" />
    <glyph glyph-name="H_swsh" unicode="&#xe007;" horiz-adv-x="588" 
d="M164 72q-19 -44 -50.5 -76.5t-65.5 -44.5t-65 -8.5t-53 31t-25 73.5q-138 -89 -205 -50q-45 26 -34 92q13 75 84 132q32 25 72 40q13 5 20.5 -3.5t5.5 -21.5t-12 -18q-107 -54 -130 -121q-16 -50 21 -73q46 -29 125 14q24 13 48 32q-16 87 32 128q32 27 62 14
q31 -13 15 -53q-14 -37 -67 -82q-3 -29 16.5 -47t47.5 -9t46 48q24 52 59 176q-7 0 -39.5 -1t-54.5 -2q-38 1 -17 30q18 22 38 28q19 0 47.5 0.5t39.5 0.5q15 55 39.5 154.5t39 151t22.5 63.5q10 4 26.5 9t42.5 11.5t45.5 5t21.5 -13.5q-47 -101 -129 -379q72 4 179 5
q21 59 71 206q8 15 45 26q45 14 44 -14q0 -5 -2 -12q-20 -62 -43.5 -128.5t-26.5 -76.5l28 1q8 1 8 -8q1 -21 -21 -39q-7 -6 -15 -9l-20 -1q-15 -40 -99 -285q-17 -22 -62 -22q-29 2 -27 13q83 245 100 293l-175 -5q-45 -154 -53 -175zM-65 93q63 68 50 94q-7 14 -27 1
q-2 -2 -4 -3q-38 -30 -19 -92z" />
    <glyph glyph-name="I_swsh" unicode="&#xe008;" horiz-adv-x="296" 
d="M180 122q-21 -57 -63.5 -91t-84 -37t-75.5 25.5t-39 85.5q-137 -89 -204 -50q-45 26 -34 92q12 75 84 132q32 25 71 40q14 5 21.5 -3.5t5.5 -21.5t-13 -18q-107 -54 -129 -121q-16 -49 20 -73q46 -29 124 13q24 13 49 33q-15 85 31 126q31 28 62 17t19 -49t-69 -87
q4 -15 9 -27q10 -23 27 -34t38 -1t38 47q36 81 91.5 309.5t66.5 245.5q128 43 137 12q-45 -94 -111.5 -323t-71.5 -242zM-52 151q64 69 51 94q-8 15 -29 0q-5 -4 -10 -10q-27 -32 -12 -84z" />
    <glyph glyph-name="J_swsh" unicode="&#xe009;" horiz-adv-x="444" 
d="M201 -157q-73 -160 -160 -128q-65 23 -112 134q-33 80 -39 164h-1q-138 -89 -205 -50q-45 26 -34 92q13 75 85 132q32 25 71 40q14 5 21 -3.5t5 -21.5t-12 -18q-107 -54 -130 -121q-17 -50 20 -73q47 -29 126 14q24 13 48 32q-15 87 33 128q32 27 62 14q31 -13 15 -53
q-15 -37 -68 -82q8 -76 52 -151q48 -81 88 -58q16 9 28 36q46 98 157.5 443t124.5 364q1 0 11.5 3.5t20.5 6.5t25 7t27.5 5.5t24 2t19 -2.5t9.5 -10q-42 -90 -168.5 -448.5t-143.5 -397.5zM-81 59q64 68 51 94q-7 15 -28 1q-17 -12 -24.5 -34t1.5 -61z" />
    <glyph glyph-name="K_swsh" unicode="&#xe010;" horiz-adv-x="503" 
d="M171 95q-21 -54 -63.5 -86.5t-84 -36t-76 26t-41.5 88.5l-2 -2q-138 -89 -205 -50q-45 26 -34 92q13 75 85 132q32 25 71 40q14 5 21 -3.5t5 -21.5t-12 -18q-107 -54 -130 -121q-17 -50 20 -73q47 -29 126 14q24 13 48 32q-15 87 33 128q32 27 62 14q31 -13 15 -53
q-15 -37 -68 -82l-7 -5q4 -21 17 -41.5t30 -32.5t38 1t39 55q32 77 89.5 306.5t70.5 248.5q128 40 136 11q-46 -95 -112 -324q10 11 59.5 63.5t97.5 100.5t125 123q3 0 7.5 -1t16.5 -3t20.5 -6t15.5 -9.5t5.5 -14.5t-13.5 -20l-224 -222l27 -329l-25 -27q-37 -34 -42 0v2
l-21 293l-89 -88q-16 -56 -31 -101zM-66 131q64 70 50 94q-5 8 -17 5q-20 -5 -32.5 -32.5t-0.5 -66.5z" />
    <glyph glyph-name="L_swsh" unicode="&#xe011;" horiz-adv-x="350" 
d="M143 -89q-42 -104 -128 -119q-64 -12 -111 27q-43 34 -26 74q25 61 175 76q29 81 98.5 345.5t81.5 304.5q-12 -3 -33 -8.5t-26 -6.5q11 -132 -69 -196q-57 -45 -123 -29q-61 15 -78 74q-9 33 -1 75q5 20 31 24q22 3 23 -11q-8 -102 48 -125q43 -18 91 21q56 45 56 120
q0 21 -5 43q-97 -13 -112 31q-11 29 18 59q32 33 66 16q30 -14 46 -66q29 3 142 40q83 27 83 10q0 -3 -1 -6q-22 -47 -58.5 -155.5t-62 -193.5t-64 -218.5t-40.5 -141.5q79 0 190 -9q18 0 27 -13t4 -32q-6 -18 -23 -31t-35 -13q-18 1 -46.5 6.5t-69.5 14t-68 13.5zM-56 -111
q6 -22 22.5 -27t35 9t31.5 43q2 6 4 10q-3 0 -12.5 0.5t-13.5 0.5t-13 -0.5t-14 -1.5t-12 -3.5t-11.5 -6.5t-9 -10t-7.5 -14zM144 634q-32 59 -66 50q-20 -6 -20 -25v-4q3 -16 22 -22.5t64 1.5z" />
    <glyph glyph-name="M_swsh" unicode="&#xe012;" horiz-adv-x="657" 
d="M159 55q-24 -66 -65.5 -99.5t-82 -31t-74 33.5t-42.5 83l-2 -1q-138 -89 -205 -50q-44 26 -33 92q12 75 84 132q32 25 71 40q14 5 21.5 -3.5t5.5 -21.5t-13 -18q-107 -54 -130 -121q-16 -49 21 -73q45 -29 124 13q24 13 49 33q-15 87 33 128q32 27 62 14q31 -13 15 -53
q-15 -37 -68 -82l-1 -2q4 -20 17.5 -39.5t30.5 -30t36.5 2.5t32.5 52q20 58 61.5 210t76.5 274t48 140q1 0 7.5 2.5t14 4.5t18 5.5t20 5.5t20.5 4t20 2.5t17 0t13 -4t6 -8.5l-4 -8q-34 -280 -40.5 -358t-4.5 -138q189 311 273 423q32 42 75 45q24 2 23 -12q0 -2 -1 -4
l-208 -672q-10 -15 -48.5 -15.5t-36.5 19.5q1 4 3 8q19 76 47 161.5t52.5 151.5t28.5 80q-10 -16 -49 -78.5t-67.5 -107.5t-62 -94.5t-50.5 -69.5q-9 -10 -24 7t-20 36q0 15 -1 79.5t2 122t14 152.5q-18 -59 -42.5 -141t-41 -138.5t-26.5 -82.5zM-77 86q62 67 50 93
q-6 16 -27 2q-17 -11 -24 -33q-9 -25 1 -62z" />
    <glyph glyph-name="N_swsh" unicode="&#xe013;" horiz-adv-x="603" 
d="M160 53q-37 -90 -97.5 -120t-106 -0.5t-47.5 93.5l-1 -1q-138 -89 -205 -50q-44 26 -33 92q12 75 84 132q32 25 71 40q13 5 20.5 -3.5t5.5 -21.5t-12 -18q-107 -54 -130 -121q-16 -49 21 -73q45 -29 124 13q24 13 49 33q-16 87 32 128q32 27 62 14q31 -13 15 -53
q-14 -37 -67 -82l-1 -1q6 -22 15.5 -40t23 -28.5t30.5 5t34 59.5q22 60 63 210.5t74.5 273.5t45.5 141q1 0 11.5 3.5t20.5 6.5t25 6.5t27.5 5.5t24 2.5t19 -3t8.5 -10.5q-4 -171 -9 -310.5t-7 -198.5t-2 -92q23 84 91.5 266.5t92.5 260.5q32 42 79 49q27 4 27 -9q0 -1 -1 -3
l-244 -672q-25 -27 -59 -40q-34 -12 -36 15q-9 197 -5 538q-29 -90 -75.5 -247.5t-57.5 -189.5zM-62 71q26 28 39.5 50.5t12.5 33t-6 15.5q-10 5 -24.5 -5.5t-23 -33.5t1.5 -60z" />
    <glyph glyph-name="O_swsh" unicode="&#xe014;" horiz-adv-x="469" 
d="M322 559q-33 -1 -67 -27q145 42 173 -23q19 -39 13.5 -94.5t-23.5 -115.5t-54 -120.5t-77 -110t-92.5 -83.5t-101.5 -40q-71 -9 -101 62t-15.5 182t63.5 222q-14 -8 -90 -27q11 -132 -68 -195q-58 -46 -124 -30q-61 15 -79 74q-9 33 -1 75q5 20 31 24q22 3 23 -11
q-7 -103 49 -125q44 -18 92 22q57 46 56 123q0 19 -5 39q-97 -13 -113 31q-11 30 19 59q32 33 67 16q29 -17 44 -66q48 0 116 26q58 105 141 177.5t174 76.5q9 -3 0.5 -37t-24.5 -68t-26 -36zM145 39q66 4 123 84.5t84.5 179.5t22.5 173t-167 9q-55 -70 -89 -178.5
t-28.5 -189.5t54.5 -78zM-80 414q-18 33 -37 44t-33 4q-19 -9 -14 -29q7 -28 60 -23q11 1 24 4z" />
    <glyph glyph-name="P_swsh" unicode="&#xe015;" horiz-adv-x="481" 
d="M189 50q-25 -65 -65 -98t-78 -32t-71.5 30t-47.5 80q-137 -89 -204 -50q-45 26 -34 92q12 75 84 132q32 25 71 40q13 5 20.5 -3.5t5.5 -21.5t-12 -18q-107 -54 -129 -121q-16 -49 20 -73q46 -29 124 13q24 13 49 33q-16 87 32 128q32 27 62 14q31 -13 15 -53
q-14 -37 -67 -82q3 -30 22 -49.5t45.5 -12t45.5 49.5q37 82 90.5 310t63.5 244q130 43 137 13q-38 -84 -109 -322q12 4 34 7q71 13 120 99q48 83 37 160q-12 80 -85 89l-14 1q-59 1 -125.5 -39t-113.5 -114t-43 -156q4 -24 -7.5 -34.5t-25.5 -7t-17 12.5q-5 81 46.5 173.5
t137.5 155.5t170 60q131 -4 163 -100q27 -82 -27 -185q-52 -98 -142 -143q-59 -29 -120 -24q-52 -181 -58 -198zM-43 76q63 68 50 93q-6 13 -24 3t-26 -32.5t0 -63.5z" />
    <glyph glyph-name="Q_swsh" unicode="&#xe016;" horiz-adv-x="526" 
d="M111 -28q15 -4 13.5 -14.5t-16.5 -13.5q-128 5 -143 135q-15 125 72 306q78 163 182 253q80 69 144 60q54 -7 83 -54.5t29.5 -117.5t-16.5 -148t-55.5 -153.5t-87.5 -126.5q-14 -57 2 -109.5t60 -118t46 -70.5q118 113 199 97q50 -10 61 -66q12 -67 -43 -137
q-28 -37 -71 -64q-19 -12 -30 5.5t3 29.5q100 78 103 144q1 44 -40 56q-56 16 -126 -41q-23 -18 -44 -42q40 -74 1 -123q-26 -32 -61 -29q-32 3 -31 37q1 38 49 97l4 5q-10 14 -37.5 46.5t-41.5 52.5t-32 51t-25 63t-5 67q-45 -28 -79 -40t-51.5 -7t-28 18.5t-10 34.5
t2.5 43q18 106 90 142q53 27 97 0q33 -21 35 -65q75 122 99 245q27 135 -42 150q-8 2 -18 2q-57 0 -145 -130q-92 -136 -135 -281q-46 -157 14 -184q11 -5 25 -5zM259 103q2 68 -39 82q-34 11 -63 -22q-26 -28 -25 -73q1 -28 13 -43t42 -3.5t72 59.5zM405 -249
q-47 -76 -27 -96q5 -5 13 -3q21 4 30 31t-16 68z" />
    <glyph glyph-name="R_swsh" unicode="&#xe017;" horiz-adv-x="533" 
d="M198 50q-24 -65 -63.5 -99t-77.5 -33t-70 29.5t-43 78.5l-5 -4q-137 -89 -204 -50q-46 26 -35 93q13 76 84 132q32 24 70 39q14 5 21.5 -3.5t5.5 -21.5t-12 -18q-107 -54 -129 -121q-16 -50 21 -73q47 -29 125 14q24 13 48 32q-16 87 31 128q32 27 62 14q31 -13 16 -53
q-15 -37 -67 -82l-4 -3q5 -19 18 -34t29 -21t34.5 7t32.5 47q31 78 86.5 306.5t67.5 247.5q11 4 27 9t42 12t45.5 5.5t22.5 -13.5q-45 -95 -109 -322l25 5q71 13 120 99q47 84 36 161q-12 79 -84 88q-7 1 -14 1q-44 1 -94.5 -23t-93.5 -64.5t-70 -99.5t-24 -122
q4 -24 -7.5 -34t-25.5 -7t-18 13q-4 60 26.5 130t80 127.5t116.5 95t130 35.5q78 -3 122.5 -39.5t48.5 -90.5t-14.5 -112t-64 -110t-101.5 -78l24 -277l-24 -27q-37 -35 -41 2l-24 282q-28 -4 -43 -2q-40 -149 -56 -196zM-31 68q25 28 38 50t12.5 32t-5.5 16q-9 6 -24 -4.5
t-23 -33.5t2 -60z" />
    <glyph glyph-name="T_swsh" unicode="&#xe018;" horiz-adv-x="346" 
d="M170 53q-23 -55 -57 -87t-67.5 -37t-63 6t-48 40.5t-17.5 68.5l-5 -4q-138 -89 -205 -50q-44 26 -33 92q12 75 84 132q32 25 71 40q14 5 21.5 -3.5t5.5 -21.5t-13 -18q-107 -54 -130 -121q-16 -49 21 -73q45 -29 124 13q24 13 49 33q-15 87 33 128q32 27 62 14
q31 -13 15 -53q-15 -37 -68 -82l-6 -5q6 -26 20.5 -48.5t35.5 -27t42 40.5q31 65 97 300.5t81 276.5q-60 -3 -118 -3q-15 0 11 44q29 46 46 49q59 0 177 -4.5t179 -5.5q39 0 16 -36q-18 -26 -34 -32q-55 1 -141 -4q-42 -101 -112 -327t-73 -235zM-58 86q59 63 53 90
q-5 17 -26 7q-30 -15 -32 -57q-1 -19 5 -40z" />
    <glyph glyph-name="S_swsh" unicode="&#xe019;" horiz-adv-x="488" 
d="M38 439q-82 -133 -170 -147q-61 -9 -91 40q-35 55 0 132q17 37 49 71q11 10 22.5 8.5t18 -11.5t0.5 -19q-78 -100 -54 -157q16 -38 66 -31q63 9 114 81q15 21 27 46q-66 46 -47 99q13 33 48 45q37 14 51 -15q15 -32 -15 -101q1 0 23 -10.5t34 -13.5q29 113 139 188
q92 63 174 59q76 -4 86 -69q6 -35 -10 -83q-14 -39 -84.5 -85.5t-183.5 -47.5q-13 -36 -14 -65t7.5 -47.5t22 -35.5t29.5 -28.5t30 -27t24.5 -31t12 -40.5t-7.5 -56q-13 -46 -45 -84.5t-72 -60t-84 -31t-82 3.5t-66 43t-35 87.5t10 136.5q7 21 24.5 21t31.5 -15t10 -32
q-16 -78 36 -135q44 -47 98 -39q62 9 87 94q2 5 3 11q7 27 3.5 50t-14 39t-25.5 32.5t-31.5 29.5t-32.5 31t-28.5 36.5t-18.5 46t-3 60.5q-26 5 -67 27zM349 603q-54 -37 -97 -145q113 -7 176 62q40 45 32 83q-8 36 -54 26q-25 -5 -57 -26zM40 487q21 78 -6 89
q-15 6 -28 -12q-12 -12 -4.5 -36t38.5 -41z" />
    <glyph glyph-name="U_swsh" unicode="&#xe020;" horiz-adv-x="542" 
d="M265 685q-12 -42 -70.5 -209t-83.5 -249q-77 -259 45 -143q49 46 171 205q20 27 28 36q8 34 18.5 68t17 52.5t20 55.5t18.5 51q14 33 61 48q37 12 41 -3q1 -3 0 -6q-23 -72 -94 -276t-99 -299q-11 -37 -54 -60q-37 -20 -47 -4q-4 8 0 22q51 172 73 223
q-158 -181 -234 -236q-133 -96 -123 75q5 77 39 208q32 126 98 346q-9 -3 -60 -15q11 -132 -69 -196q-58 -45 -123 -29q-61 15 -78 74q-9 33 -1 75q5 20 31 24q22 3 23 -11q-8 -103 49 -125q44 -18 92 22q56 47 55 124q-1 19 -5 38q-97 -13 -112 31q-11 30 19 59
q33 33 67 16q29 -15 44 -66q24 -2 131 51q97 47 110 38q5 -4 2 -15zM1 605q-16 30 -34 42t-30 8.5t-18 -14.5t0 -22t25 -16.5t57 2.5z" />
    <glyph glyph-name="V_swsh" unicode="&#xe021;" horiz-adv-x="530" 
d="M331 573q-6 -28 -10.5 -50t-13.5 -65.5t-15 -78.5t-14 -79.5t-12.5 -77.5t-7.5 -62.5t-1.5 -45.5t7.5 -16q11 0 39.5 39.5t68 110.5t71 128.5t72 135.5t46.5 89q17 40 65 43q31 2 34 -10q0 -2 -1 -5q-178 -318 -380 -635q-19 -30 -70 -61q-76 -46 -95 -4q-7 17 -4 46
q11 116 90 577q12 48 -28 43q-38 -5 -106 -51q66 -101 11 -182q-39 -58 -112 -72q-78 -15 -123 34q-19 22 -27 55q-2 11 9.5 22t23.5 13.5t18 -4.5q34 -84 100 -83q52 1 86 49q41 57 13 118q-9 20 -25 37q-97 -49 -131 -17q-22 20 -4 54q20 38 61 38q37 0 75 -36l1 -1
q200 133 260 116q46 -13 29 -112zM22 557q-64 39 -92 11q-16 -15 -3 -28q22 -23 84 11q5 3 11 6z" />
    <glyph glyph-name="W_swsh" unicode="&#xe022;" horiz-adv-x="735" 
d="M332 578q-51 -259 -74 -478q42 83 118.5 244.5t109.5 216.5q17 41 79 47q38 5 42 -6v-3q-9 -26 -44.5 -120.5t-59 -161.5t-40.5 -142t-8 -107q16 -8 81 95t132 246.5t86 232.5q2 17 24 24t43.5 3t22.5 -14q-6 -15 -27.5 -64.5t-62 -139t-88 -176.5t-96 -163.5t-95 -113.5
t-77.5 -14q-18 21 -23 57.5t-1 72t18.5 88t26.5 85t31.5 85t25.5 67.5q-16 -25 -84 -174t-146 -288q-25 -44 -60 -57.5t-58 13t-14 85.5q25 168 88 538q6 41 -4 45q-18 7 -129 -60q62 -100 7 -180q-39 -58 -113 -71q-78 -15 -121 35q-19 22 -27 54q-2 11 9.5 22t23.5 13.5
t18 -4.5q34 -84 100 -83q51 1 87 49q41 57 13 118q-9 20 -25 37q-98 -49 -132 -17q-21 20 -3 55q21 38 63 37q36 0 73 -36l2 -2q226 165 277 116q26 -26 11 -106zM23 557q-40 22 -62.5 21.5t-33.5 -13.5q-12 -16 4 -28q27 -19 92 20z" />
    <glyph glyph-name="X_swsh" unicode="&#xe023;" horiz-adv-x="532" 
d="M248 -36l-28 255q-135 -145 -272 -288q-24 -17 -68 -12q-29 4 -28 16q1 5 7 11q95 99 176.5 184t116.5 121t66 67l-5 278q-10 -11 -23.5 -20.5t-35.5 -23t-28 -17.5q67 -102 13 -183q-38 -58 -111 -71q-78 -15 -123 35q-20 22 -28 54q-2 11 9.5 22t23.5 13.5t18 -4.5
q35 -83 100 -83q52 1 86 49q41 57 11 118q-9 20 -25 37q-97 -49 -131 -17q-23 20 -5 55q20 38 62 37q37 0 74 -36q13 6 115 75q134 91 151 64q4 -6 2 -19q-7 -69 -12 -229q25 25 91.5 89t106.5 103q36 28 65 15q20 -10 9 -25q-3 -4 -8 -7q-198 -192 -266 -263
q-2 -79 5 -214.5t16 -188.5q13 -80 82 4q15 17 25.5 3t4.5 -27q-23 -43 -60 -71t-74 -33t-67.5 27t-37.5 100zM82 548q-37 21 -66 21q-30 -1 -35 -21q-4 -18 18 -24q30 -8 83 24z" />
    <glyph glyph-name="Y_swsh" unicode="&#xe024;" horiz-adv-x="545" 
d="M264 685q-11 -41 -43.5 -132t-57.5 -174q-80 -263 49 -137q47 46 168 203q16 20 23 29q8 28 17.5 55.5t16 45t20 51t20.5 51.5q2 6 25.5 13.5t40.5 7.5q10 0 15 -3.5t4 -10.5q-56 -169 -94 -273q-22 -76 -62.5 -221t-66 -231.5t-39.5 -116.5q-65 -144 -151 -141
q-63 2 -108 79q-52 88 -38 192q2 15 5 29q1 4 17.5 13t30.5 13t17 -2q-27 -67 7 -148q26 -63 64 -75q37 -11 61 40q40 87 93 272.5t83 257.5q-175 -200 -259 -257q-130 -87 -115 93q6 72 36 188q13 52 22 89.5t15 66t9 42.5q-33 -12 -59 -19q11 -132 -68 -195
q-58 -46 -124 -30q-61 15 -79 74q-9 33 -1 75q6 21 33 25q22 2 21 -12q-7 -103 49 -125q44 -18 92 22q57 47 55 124q0 19 -5 38q-97 -13 -112 31q-11 30 19 59q33 33 67 16q29 -15 44 -66q39 8 156 63q81 38 88 25q2 -5 -1 -14zM0 605q-32 61 -67 49q-19 -7 -18 -26
q2 -25 40 -28q19 -1 45 5z" />
    <glyph glyph-name="Z_swsh" unicode="&#xe025;" horiz-adv-x="543" 
d="M-1 16q1 8 22 19q28 15 28 -8q0 -4 -1 -8q-14 -55 7 -146q22 -100 63 -106q54 -8 116 163q17 47 34 108q17 55 17 90t-12 50t-37.5 19.5t-51 1.5t-61 -6t-59.5 -1q-47 4 72 124q30 30 99 96q140 134 162 170q9 14 6 21q-28 25 -84 -2.5t-110 -76t-120 -105t-102 -74.5
q66 -102 10 -183q-40 -58 -114 -72q-78 -14 -121 36q-19 22 -27 54q-2 11 9.5 22t24 13.5t18.5 -4.5q34 -84 100 -83q52 1 86 49q41 57 13 118q-9 20 -25 37q-98 -49 -132 -17q-22 20 -3 55q20 38 63 37q36 -1 73 -36q24 10 72.5 51t104 90.5t116.5 96.5t126 75t116 21
q35 -5 57 -11t34.5 -15.5t10 -24t-20.5 -34.5q-56 -63 -181 -193.5t-157 -165.5q59 13 92 -4.5t40 -58.5t0 -88t-25 -104q-75 -246 -180 -284q-68 -24 -122 45q-54 71 -54 177q0 37 8 72zM-57 358q-48 28 -79 19q-24 -7 -22 -25q1 -20 29 -20q29 0 72 26z" />
    <glyph glyph-name="a_1" unicode="&#xe026;" horiz-adv-x="466" 
d="M236 -37q38 -5 220 241v2q-38 66 -5 110q23 31 58 28q32 -2 35 -34q4 -42 -50 -111q43 -66 114 -55q55 9 84 56q36 58 -9 114q-14 18 -35 33q-6 7 -1.5 18.5t18 20.5t23.5 4q71 -36 65 -116q-5 -70 -61 -120q-65 -59 -142 -31q-40 15 -75 53l-1 1q-193 -276 -291 -276
q-84 0 -91 63t30 168q1 6 2 9.5t2.5 9t2.5 9.5q-19 -35 -35 -60t-39.5 -55.5t-50 -46t-52.5 -13.5q-47 4 -40 84q8 99 84 215q98 151 233 201q75 29 153 19q12 -2 -9.5 -35t-34.5 -31q-120 25 -231 -120q-73 -94 -102 -198q-19 -65 1 -66q14 0 44 39q27 34 45 62.5t35 58.5
t27 46q22 70 29 102q9 14 39 13.5t62 -10.5t30 -19q-5 -18 -15.5 -52.5t-21 -67t-22 -71.5t-19.5 -71t-12.5 -59.5t-2.5 -44t12 -17.5zM473 222q24 27 33.5 49t6.5 34t-12 16q-11 4 -22 -5t-15 -32t9 -62z" />
    <glyph glyph-name="b_1" unicode="&#xe027;" horiz-adv-x="459" 
d="M47 142q3 5 15.5 27t22 37t26 42t30 46.5t31 44t33 41.5t32 32t32 23t28.5 8q29 0 38.5 -28t-1.5 -57q-20 -82 -71 -180.5t-112 -170.5q95 19 163.5 64.5t143.5 131.5l-2 3q-41 72 0 116q26 29 59 21q34 -7 28 -49q-5 -39 -49 -95q44 -66 114 -55q56 9 84 56
q36 58 -9 114q-14 18 -35 33q-6 7 -1.5 18.5t18 20.5t23.5 4q71 -36 65 -116q-5 -70 -60 -120q-66 -59 -143 -31q-39 15 -75 53l-1 2q-78 -93 -160.5 -145t-199.5 -65q-81 -76 -141 -66q-43 7 -40 32q2 25 44 45q27 13 58 15q5 0 15.5 0.5t15.5 1.5q77 99 139.5 215.5
t23.5 116.5q-7 0 -12.5 -2.5t-18 -16.5t-30.5 -42q-136 -199 -163 -236q-10 -16 -57 -23q-48 -8 -45 13q4 20 78.5 277t118.5 402q6 18 61 35q61 18 67 -1q2 -4 0 -9q-20 -66 -63.5 -206.5t-79 -253t-38.5 -123.5zM473 222q24 27 33.5 49t6.5 34t-12 16q-11 4 -22 -5
t-15 -32t9 -62zM-7 -48q-18 -8 -10 -14q12 -8 40 13q7 5 14 12q-31 -3 -44 -11z" />
    <glyph glyph-name="c_1" unicode="&#xe028;" horiz-adv-x="397" 
d="M410 176q-89 -110 -200 -180t-176 -72q-99 -1 -116 93t47 221q65 129 164 191q64 41 128 38q19 -1 44.5 -17.5t26.5 -42.5q1 -15 -24 -32q-13 -9 -14 -3q0 32 -16.5 43t-31.5 -1q-69 -45 -141 -179q-71 -132 -71 -207q1 -41 28 -44q49 -6 145 53.5t191 164.5l-3 4
q-41 72 0 116q26 29 59 21q34 -7 28 -49q-5 -39 -49 -95q44 -66 114 -55q56 9 84 56q36 58 -9 114q-14 18 -35 33q-6 7 -1.5 18.5t18 20.5t23.5 4q71 -36 65 -116q-5 -70 -60 -120q-66 -59 -143 -31q-39 15 -75 53zM408 222q24 27 33.5 49t6.5 34t-12 16q-11 4 -22 -5
t-15 -32t9 -62z" />
    <glyph glyph-name="d_1" unicode="&#xe029;" horiz-adv-x="436" 
d="M188 -43q32 1 104 78t134 166v2q-42 72 -1 116q26 29 59 21q34 -7 29 -49q-5 -39 -49 -95q45 -67 115 -55q56 9 84 56q35 58 -12 116q-14 16 -34 31q-6 7 -1.5 18.5t17.5 20.5t23 4q72 -36 67 -116q-5 -69 -59 -119q-66 -60 -143 -32q-40 14 -76 52q-195 -276 -283 -279
q-26 -1 -43 4.5t-24.5 19t-10.5 27.5t0.5 40.5t8 46.5t12.5 56.5t13 60.5q-18 -34 -34 -58.5t-39 -54t-48.5 -44t-51.5 -12.5q-29 3 -38 28t-1 57q16 65 41.5 125.5t61 115.5t84 91t103.5 43q17 58 41.5 129.5t38.5 117.5q5 17 72 42q75 27 82 8q2 -5 -3 -13
q-24 -83 -97.5 -288.5t-117.5 -342t-24 -135.5zM138 237q20 81 51 180q-58 -13 -127 -150q-56 -112 -65 -184q-5 -38 12 -30q12 6 34 34q18 24 33.5 46.5t23 35.5t20.5 36t18 32zM442 219q24 27 33.5 49t6.5 34t-12 16q-11 4 -22 -5t-15 -32t9 -62z" />
    <glyph glyph-name="e_1" unicode="&#xe030;" horiz-adv-x="390" 
d="M401 169q-118 -135 -227.5 -216.5t-173.5 -70.5q-92 15 -96 123q-5 107 72 238q76 130 180 185q37 20 73 26q92 7 89 -49q-4 -56 -89 -140q-80 -79 -147 -100q-51 -101 -59.5 -153t26.5 -66q44 -16 144.5 63.5t188.5 189.5q-41 72 0 116q27 29 60 21q34 -7 28 -49
q-6 -39 -50 -95q44 -66 114 -55q56 8 85 55q36 58 -9 115q-14 18 -35 33q-6 7 -1.5 18.5t18 20.5t23.5 4q71 -36 65 -116q-6 -71 -61 -120q-67 -60 -145 -30q-38 15 -73 52zM233 384q-13 -4 -52.5 -57.5t-67.5 -102.5q79 40 114 112q20 40 10 47q-2 2 -4 1zM399 215
q24 27 34 49.5t7 34t-12 15.5q-11 4 -22 -5t-15 -32t8 -62z" />
    <glyph glyph-name="f_1" unicode="&#xe031;" horiz-adv-x="254" 
d="M78 644q3 10 40.5 21.5t67.5 12.5t33 -13q-23 -85 -123 -407q40 -12 90 -17t103.5 5.5t78.5 40.5q-42 72 -1 116q26 29 59 21q34 -7 29 -49q-5 -39 -49 -95q45 -67 115 -55q56 9 84 56q35 58 -12 116q-14 16 -34 31q-6 7 -1.5 18.5t17.5 20.5t23 4q71 -35 65 -114
q-4 -69 -60 -119q-67 -60 -145 -32q-40 14 -77 53q-30 -34 -99.5 -45.5t-121 -7t-77.5 11.5q-1 -5 -8 -23q90 -71 28 -231q-46 -117 -139 -213q-79 -82 -121 -74q-46 9 -11 133q52 181 115 405h-1q-10 1 -13 1t-9.5 2.5t-4 6.5t4.5 12q8 11 35 17q57 201 119 390zM-40 -142
q-30 -72 -12 -66q19 6 60 77q73 128 70 224q-1 36 -15 62q-69 -216 -103 -297zM384 303q53 58 37 90q-5 12 -18 10q-10 -1 -18 -12t-10 -33t9 -55z" />
    <glyph glyph-name="g_1" unicode="&#xe032;" horiz-adv-x="441" 
d="M171 257q-78 -132 -133 -196q-47 -53 -85 -53q-30 0 -39 25.5t-1 58.5q15 58 38.5 115.5t58 113.5t75 97t92 62.5t105.5 12.5q40 -7 40 -30q0 -13 -23 -20t-30 4q-34 49 -121 -50q-74 -84 -121 -188q-39 -87 -9 -87q7 0 12.5 2.5t17.5 16.5t32 42q39 56 72 100t62 85
q11 15 58 24q47 7 44 -13q-10 -57 -95 -349q147 89 212 176q-41 72 0 116q26 29 59 21q34 -7 28 -49q-5 -39 -49 -95q44 -66 114 -55q56 9 84 56q36 58 -9 114q-14 18 -35 33q-6 7 -1.5 18.5t18 20.5t23.5 4q71 -36 65 -116q-5 -70 -60 -120q-66 -59 -143 -31q-39 15 -75 53
q-22 -33 -68 -70t-75.5 -56t-100.5 -63q-43 -143 -68 -212q-45 -123 -121 -167q-56 -32 -90 -3q-41 35 -9 122q21 60 74 130q27 38 76 76q66 198 101 324zM-8 -189q-62 -92 -49 -117q8 -16 32 7q20 20 32 52q27 70 44 124q-42 -39 -59 -66zM450 222q24 27 33.5 49t6.5 34
t-12 16q-11 4 -22 -5t-15 -32t9 -62z" />
    <glyph glyph-name="h_1" unicode="&#xe033;" 
d="M49 171q84 138 135 196q46 54 86 54q30 0 39.5 -28t-0.5 -57q-14 -50 -65.5 -141.5t-79.5 -151t-2 -66.5q38 -10 116.5 62.5t150.5 163.5l-1 3q-41 72 0 116q26 29 59 21q34 -7 28 -49q-5 -39 -49 -95q44 -66 114 -55q56 9 84 56q36 58 -9 114q-14 18 -35 33
q-6 7 -1.5 18.5t18 20.5t23.5 4q71 -36 65 -116q-5 -70 -60 -120q-66 -59 -143 -31q-39 15 -75 53h-1q-84 -109 -170 -184t-144 -79q-51 -4 -54 34.5t18 80.5q2 7 3 10q8 23 45 96t56.5 122.5t1.5 49.5q-6 0 -11 -2.5t-18 -16.5t-32 -42q-34 -49 -74 -110t-74 -109
q-11 -16 -58 -23t-44 14q2 12 109.5 342.5t106.5 350.5q-1 14 37 24.5t70 10.5t36 -7q-3 -17 -100.5 -287.5t-100.5 -279.5zM445 222q24 27 33.5 49t6.5 34t-12 16q-11 4 -22 -5t-15 -32t9 -62z" />
    <glyph glyph-name="i_1" unicode="&#xe034;" horiz-adv-x="228" 
d="M-4 -43q18 -4 92 76.5t138 170.5l-2 4q-41 72 -2 116q25 29 57 21q33 -7 28 -50q-4 -39 -45 -94q44 -66 115 -55q55 9 84 56q35 58 -10 114q-14 18 -35 33q-5 7 -0.5 18.5t18 20.5t23.5 4q71 -36 65 -116q-5 -69 -60 -119q-66 -60 -143 -32q-40 14 -75 52
q-60 -90 -139.5 -184t-124.5 -101q-88 -12 -87 76q1 68 72 257q56 149 70 200q6 23 57 39q40 11 40 -1q-5 -31 -50 -161t-75.5 -235.5t-10.5 -109.5zM147 537q-49 -18 -73 -12.5t-21 28.5t32 50q81 75 110 47q19 -18 1 -61q-17 -39 -49 -52zM241 224q24 26 33.5 49t7 34.5
t-11.5 15.5q-11 4 -22 -5t-15 -32t8 -62z" />
    <glyph glyph-name="j_1" unicode="&#xe035;" horiz-adv-x="269" 
d="M84 479q3 10 29.5 18t50.5 7t22 -15q-6 -36 -142 -447q56 29 84.5 45.5t69 49t67.5 68.5q-41 77 -4 121q24 29 55 21q33 -8 29 -50q-4 -40 -45 -96q44 -67 115 -55q55 9 83 56q36 58 -11 116q-14 16 -34 31q-5 7 -0.5 18.5t17.5 20.5t23 4q71 -35 64 -117
q-6 -70 -61 -120q-66 -60 -140 -31q-39 15 -74 54q-10 -13 -21 -25.5t-25 -24.5l-24.5 -21t-29 -21t-28 -18.5t-31.5 -18.5t-29.5 -16.5t-32.5 -17.5t-31 -16q-44 -139 -83 -250q-46 -125 -127 -172q-60 -34 -97 -4q-44 35 -14 127q18 55 62 120q53 77 121 129
q66 196 68 202q28 81 48 133.5t40.5 103t35.5 91.5zM196 582q-50 -18 -73.5 -12.5t-20.5 28.5t31 49q83 77 111 48q19 -19 0 -62q-16 -38 -48 -51zM-210 -198q-57 -101 -39 -128q11 -15 35 9q16 18 27 45q20 49 63 174q-54 -45 -86 -100zM278 224q24 26 33.5 49t6.5 34.5
t-12 15.5q-11 4 -21.5 -5t-14.5 -32t8 -62z" />
    <glyph glyph-name="k_1" unicode="&#xe036;" horiz-adv-x="415" 
d="M101 329q30 50 105.5 128t114.5 78q29 0 39 -27.5t0 -56.5q-5 -19 -14.5 -37.5t-30.5 -43.5t-49.5 -46t-76 -42t-106.5 -35q68 -289 102 -296q18 -3 58 39.5t104 127.5t65 86q-39 72 -9 117q21 31 54 27q31 -4 34 -39q3 -42 -45 -108q45 -67 115 -55q56 9 84 56
q35 58 -12 116q-14 16 -34 31q-6 7 -1.5 18.5t18 20.5t23.5 4q70 -35 64 -117q-6 -70 -61 -120q-65 -60 -140 -31q-39 15 -74 54q-3 -4 -38.5 -51t-61 -78.5t-62 -74t-65 -65t-46.5 -23.5q-35 0 -63 98t-39 205q-5 -12 -22 -57.5t-30 -76.5q-5 -15 -52 -23q-49 -7 -48 13
q2 12 101 332t97 340q-2 21 70 32q66 10 74 -2v-2q-3 -18 -71.5 -213t-70.5 -203zM292 450q-16 32 -73 -19.5t-97 -110.5q-4 -6 -13 -21t-14 -22q76 21 142.5 83t54.5 90zM425 224q24 27 33 49.5t6 34t-12 15.5q-11 4 -21.5 -5t-14.5 -32t9 -62z" />
    <glyph glyph-name="l_1" unicode="&#xe037;" horiz-adv-x="272" 
d="M24 -57q19 -3 61 39.5t81 92t86 112.5q9 12 13 18q-41 77 -4 121q23 29 55 21q33 -8 29 -50q-4 -40 -45 -96q44 -67 115 -55q55 9 83 56q36 58 -11 116q-14 16 -34 31q-5 7 -0.5 18.5t17.5 20.5t23 4q70 -35 64 -116q-6 -70 -61 -121q-65 -60 -140 -32q-39 15 -74 54
q-7 -10 -42 -58.5t-58 -79t-56.5 -70t-62.5 -61.5t-51 -25q-48 -5 -72.5 26t-24 91.5t11.5 131.5t36 159.5t47.5 160t47.5 149.5t35 112q4 15 41.5 28.5t68 16t34.5 -4.5q-5 -29 -70 -238t-114 -389t-29 -183zM278 224q24 26 33.5 49t6.5 34.5t-12 15.5q-11 4 -21.5 -5
t-14.5 -32t8 -62z" />
    <glyph glyph-name="m_1" unicode="&#xe038;" horiz-adv-x="635" 
d="M144 406q-3 -20 -38 -92t-43 -93q137 236 220 236q15 0 24.5 -5.5t12.5 -16t3 -22.5t-5 -29.5t-10 -32.5t-14 -34.5t-15.5 -33t-15.5 -31.5l-13 -26q3 6 19.5 34.5t28.5 48.5t32 51t37.5 53t37.5 43.5t39.5 32.5t36.5 11q86 0 -44 -338q-13 -32 -36 -91q-40 -99 -38 -106
q8 -27 114 71q99 90 159 171q-39 74 -4 118q22 29 54 23t31 -45q-1 -42 -45 -102q44 -67 115 -55q55 9 83 56q36 58 -11 116q-14 16 -34 31q-5 7 -0.5 18.5t17.5 20.5t23 4q70 -35 64 -115q-6 -71 -61 -121q-64 -60 -139 -33q-40 15 -76 56q-67 -90 -172.5 -186t-148.5 -93
q-24 2 -36.5 13t-12.5 30.5t4 38t13 44.5q1 4 43.5 108.5t60.5 166.5t0 62q-6 0 -11.5 -3t-18.5 -17.5t-32 -42.5q-2 -3 -13.5 -20t-15 -22t-14.5 -21.5l-16 -24t-15 -23.5t-15 -25.5t-13.5 -24.5t-13.5 -26t-11 -24.5t-11 -26.5q-12 -26 -49 -32q-29 -5 -29 11v2
q3 18 42.5 107t67.5 163t10 72q-12 -1 -39 -22.5t-53 -58.5q-60 -86 -106 -185q-20 -46 -48 -85q-11 -16 -58 -24q-45 -6 -43 13q2 13 52 174.5t49 180.5q-1 14 37 24.5t70.5 10.5t36.5 -7zM650 224q24 26 33.5 49t6.5 34.5t-12 15.5q-11 4 -21.5 -5t-14.5 -32t8 -62z" />
    <glyph glyph-name="n_1" unicode="&#xe039;" 
d="M86 252q85 141 133 197q47 53 85 53q29 0 39 -28t0 -57q-7 -25 -20.5 -60.5t-28.5 -70t-31.5 -71t-29 -67.5t-20 -56.5t-5.5 -41.5t15 -18q25 -5 81 42.5t123 129.5q-39 72 -9 117q21 31 54 27q31 -4 34 -39q3 -42 -45 -108q45 -67 115 -55q56 9 84 56q35 58 -12 116
q-14 16 -34 31q-6 7 -1.5 18.5t18 20.5t23.5 4q70 -36 64 -116q-5 -71 -60 -121q-66 -60 -141 -31q-39 15 -75 56q-66 -88 -137.5 -147t-126.5 -47q-23 5 -34.5 19t-10.5 35.5t5.5 40.5t14.5 45q2 7 58 137q54 125 28 125q-6 0 -11.5 -2.5t-18.5 -17t-32 -42.5
q-22 -34 -85.5 -161.5t-76.5 -151.5q-22 -41 -32 -57t-57 -24q-47 -7 -45 13q2 11 57.5 200t54.5 209q-2 14 35.5 24.5t70 10.5t36.5 -7q-4 -24 -49 -130zM440 224q24 27 33 49.5t6 34t-12 15.5q-11 4 -21.5 -5t-14.5 -32t9 -62z" />
    <glyph glyph-name="o_1" unicode="&#xe040;" horiz-adv-x="401" 
d="M455 269q44 -66 115 -55q55 9 84 56q35 58 -10 114q-14 18 -35 33q-6 7 -1.5 18.5t18 20.5t23.5 4q70 -35 64 -117q-6 -70 -61 -120q-66 -61 -142 -31q-41 16 -77 58q-44 -36 -85 -47.5t-67 -6.5t-56 21q-46 -96 -108 -156.5t-124 -54.5q-69 6 -70 87q0 85 66 185.5
t150 134.5q2 44 17.5 79t41.5 47q80 37 94 -43q14 -84 -43 -225l-6 -14q79 -67 177 18q-40 76 -3 120q24 28 55 20q33 -9 28 -51q-5 -40 -45 -95zM146 329q-21 -22 -41.5 -56t-35 -66.5t-25 -64.5t-10.5 -50.5t8 -22.5q34 -9 74.5 41t76.5 131q-32 32 -47 88zM225 425
q7 -4 6.5 -17t-9 -28.5t-17.5 -15.5q-16 -2 -30 -11q10 -39 35 -67q49 130 39 185q-7 38 -46 7q-25 -19 -33 -56q28 6 55 3zM434 292q24 27 33.5 49t6.5 34t-12 16q-11 4 -22 -5t-15 -32t9 -62z" />
    <glyph glyph-name="p_1" unicode="&#xe041;" horiz-adv-x="432" 
d="M181 532q-35 -132 -81 -267q16 30 26 48.5t31 50.5t39 50.5t42.5 33t47.5 12.5q29 -3 38 -28t1 -57q-39 -154 -113 -256q16 3 63 4.5t80 18.5t74 65q-41 76 -4 120q24 28 55 20q33 -9 28 -53q-5 -39 -44 -93q45 -67 115 -55q56 9 84 56q35 58 -12 116q-14 16 -34 31
q-6 7 -1.5 18.5t18 20.5t23.5 4q70 -35 64 -115q-5 -71 -60 -121q-64 -60 -139 -33q-42 15 -79 58q-34 -43 -71.5 -65.5t-63.5 -26t-66.5 -4t-59.5 -3.5q-52 -54 -108 -72q-42 -9 -40 13q2 25 47 55q24 16 52 25q61 90 92 204q23 83 0 79q-12 -2 -37 -34q-40 -52 -74.5 -113
t-51.5 -87q-95 -274 -127 -392q-5 -21 -62 -41q-57 -21 -67 -4q-2 4 0 10q16 57 111 357.5t111 367.5q7 33 83 68q59 27 69 18q2 -1 1 -4zM443 224q24 27 33 49.5t6 34t-12 15.5q-11 4 -21.5 -5t-14.5 -32t9 -62zM82 46q4 2 18 17q-37 -15 -45 -29q-2 -3 0 -3q7 0 27 15z
" />
    <glyph glyph-name="q_1" unicode="&#xe042;" horiz-adv-x="457" 
d="M177 276q-85 -142 -134 -196q-46 -54 -87 -54q-29 0 -38 28t0 57q22 105 77 196t122 131t116 1l21 30q10 15 57 23q47 7 45 -13q-9 -53 -107 -353q24 7 65 7t70 12t59 55q-43 77 -6 123q25 30 58 24q34 -6 34 -45q0 -40 -44 -101q44 -67 115 -55q55 9 83 56
q36 58 -11 116q-14 16 -34 31q-5 7 -0.5 18.5t17.5 20.5t23 4q70 -35 64 -116q-6 -70 -61 -121q-65 -60 -140 -32q-39 15 -74 54q-30 -46 -72 -64t-92.5 -23t-69.5 -13q-5 -12 -11 -34q70 -52 21 -169q-36 -87 -108 -150q-67 -60 -98 -36q-35 26 1 152q19 67 53 172
q-22 1 -32.5 6t-4.5 16q13 23 58 43q12 37 29 88t25.5 77.5t10.5 33.5zM23 141q21 0 63 61q23 34 43.5 67.5t43 71.5t34.5 58q-58 40 -126 -49q-53 -69 -70 -149q-13 -59 12 -60zM167 -112q-44 -112 -21 -109q16 2 44 52q46 85 30 139q-5 15 -15 25q-6 -18 -12.5 -37
t-14 -39.5t-11.5 -30.5zM463 224q24 26 33.5 49t6.5 34.5t-12 15.5q-11 4 -21.5 -5t-14.5 -32t8 -62z" />
    <glyph glyph-name="r_1" unicode="&#xe043;" horiz-adv-x="477" 
d="M68 160q82 138 134 198q48 52 86 52q29 0 39 -28t0 -57q-10 -35 -3 -61t28 -19q40 13 90 77q-41 72 0 116q27 29 60 21q34 -7 28 -49q-6 -39 -50 -95q44 -66 115 -55q55 9 84 56q35 58 -10 114q-14 18 -35 33q-5 7 -0.5 18.5t18 20.5t23.5 4q71 -36 65 -116
q-6 -71 -61 -120q-67 -60 -145 -30q-38 15 -73 52q-59 -63 -106 -87q-42 -22 -73 -25t-48 19t2 82q11 35 -4 32q-21 -4 -72 -78q-35 -50 -80.5 -127.5t-79.5 -124.5q-10 -15 -57 -23q-47 -6 -44 14q1 6 66 241.5t63 255.5q-1 14 37.5 25t71 11t36.5 -7q-4 -20 -31.5 -104.5
t-51.5 -158t-22 -77.5zM459 338q53 58 39 90q-6 13 -20 10q-17 -4 -24.5 -27.5t5.5 -72.5z" />
    <glyph glyph-name="s_1" unicode="&#xe044;" horiz-adv-x="502" 
d="M-47 152q58 74 136.5 195.5t112.5 203.5q16 5 44.5 -11.5t48.5 -35.5l20 -19q-37 -33 -39.5 -105t10.5 -162.5t10 -125.5q128 31 202 115q-39 74 -4 118q22 29 54 23t31 -45q-1 -42 -45 -102q44 -67 115 -55q55 9 83 56q36 58 -11 116q-14 16 -34 31q-5 7 -0.5 18.5
t17.5 20.5t23 4q70 -35 64 -115q-5 -71 -60 -122q-65 -60 -141 -32q-40 15 -76 56q-39 -51 -103.5 -83t-114.5 -43q-3 -66 -32.5 -114t-71 -69.5t-86 -29.5t-80 -2t-51.5 21q-11 10 -14 26.5t8 39t35 46t71.5 48t112.5 44.5q1 24 -29 144.5t-25 149.5q-4 -6 -17.5 -27.5
t-19 -30t-18.5 -28.5t-20.5 -30.5t-20.5 -29t-23 -31.5t-23.5 -29t-26.5 -30q-16 -13 -22 -1t10 32zM185 24q-66 -19 -107 -43.5t-45.5 -42t3.5 -29.5q9 -7 28.5 -10.5t43 1.5t44 17t30.5 40t3 67zM513 224q24 27 33 49.5t6 34t-12 15.5q-11 4 -21.5 -5t-14.5 -32t9 -62z
" />
    <glyph glyph-name="t_1" unicode="&#xe045;" horiz-adv-x="279" 
d="M302 508q-22 0 -62 -0.5t-57 -0.5q-21 -74 -74 -236t-77.5 -251t-11.5 -92q12 -1 33 16t50.5 52t53 65t58.5 77.5t50 66.5q-41 77 -4 121q23 29 55 21q33 -8 29 -50q-4 -40 -45 -96q44 -67 115 -55q55 9 83 56q36 58 -11 116q-14 16 -34 31q-5 7 -0.5 18.5t17.5 20.5
t23 4q70 -35 64 -116q-6 -71 -62 -121q-65 -60 -139 -32q-38 15 -72 52q-70 -106 -163.5 -214.5t-141.5 -108.5q-30 0 -49 13.5t-26.5 40.5t-8.5 58.5t8 77t18.5 86t27 96t31 95.5t33 96t29.5 88q-89 -2 -92 4q-3 11 20 25q32 17 89 24q6 19 11 30.5t8 26.5q4 15 43 35.5
t75.5 31.5t34.5 2q-4 -21 -31 -116q65 0 102 -2q14 0 20 -4t4 -10.5t-6.5 -13.5t-10 -15t-7.5 -13zM280 224q19 26 28.5 48t8 34.5t-10.5 16.5q-11 4 -21 -5t-13.5 -32t8.5 -62z" />
    <glyph glyph-name="u_1" unicode="&#xe046;" 
d="M226 -35q12 -3 43 31t92 112.5t74 95.5q-39 72 -9 117q21 31 54 27q31 -4 34 -39q3 -42 -45 -108q44 -67 115 -55q55 9 83 56q36 58 -11 116q-14 16 -34 31q-5 7 -0.5 18.5t17.5 20.5t23 4q70 -35 64 -115q-5 -71 -60 -122q-66 -60 -141 -32q-38 15 -73 53
q-56 -82 -136.5 -174.5t-118.5 -101.5q-88 -22 -91 76.5t38 218.5l6 19q-59 -94 -105 -148q-45 -53 -86 -53q-29 0 -38.5 28.5t1.5 56.5q9 40 56 205.5t54 181.5q8 17 54 17q47 1 48 -20q1 -5 -2 -10q-64 -119 -103 -230q-40 -115 -3 -115q10 0 22.5 11t39.5 51
q42 61 98 155q3 10 13 47q4 26 18 46q10 15 73 28q69 15 66 -7q-13 -76 -55 -190q-6 -22 -16.5 -52.5t-19 -57t-18 -55.5t-16 -52t-10.5 -42.5t-3 -30.5t8 -13zM448 224q24 27 33 49.5t6 34t-12 15.5q-11 4 -21.5 -5t-14.5 -32t9 -62z" />
    <glyph glyph-name="v_1" unicode="&#xe047;" horiz-adv-x="525" 
d="M2 370q8 16 80 33q77 17 79 -2q1 -5 -5 -13q-52 -65 -80 -203t12 -162q14 -7 42 7.5t69 58t77 108.5q-54 24 -64 108.5t22.5 167t87.5 102.5q61 23 80 -36q31 -94 -65 -314q0 -2 -1 -3q53 -22 118 -2t109 59q-38 75 0 117q25 27 55 19q34 -10 27 -54q-5 -39 -44 -92
q44 -66 115 -55q55 9 84 56q35 58 -10 114q-14 18 -35 33q-6 7 -1.5 18.5t18 20.5t23.5 4q70 -35 64 -115q-6 -70 -60 -121q-65 -61 -140 -33q-41 15 -78 57q-44 -40 -100 -58.5t-95.5 -15.5t-70.5 9q-37 -81 -129.5 -168t-138.5 -86q-53 1 -78 56.5t-24 129t20 147.5
q16 66 37 108zM297 241q37 82 53 188q17 112 -23 108q-2 -1 -4 -1q-33 -8 -52.5 -74.5t-12.5 -136t39 -84.5zM580 292q24 27 33.5 49t6.5 34t-12 16q-11 4 -22 -5t-15 -32t9 -62z" />
    <glyph glyph-name="w_1" unicode="&#xe048;" horiz-adv-x="640" 
d="M175 366q-88 -69 -130 -168q-34 -81 -8 -109q9 -10 26 -9q46 22 86 117q19 67 23 81q6 19 38 26q30 6 31 -11q0 -5 -3 -12q-17 -35 -26 -87.5t-3.5 -92t23.5 -57t60.5 23t100.5 142.5q-53 24 -63.5 108.5t22 167t87.5 103.5q62 23 81 -37q30 -94 -66 -316q27 -10 62 -11
t80 13.5t80 46.5q-36 71 -4 114q23 30 55 24t31 -44q-1 -42 -45 -103q44 -66 115 -55q55 9 84 56q35 58 -10 114q-14 18 -35 33q-6 7 -1.5 18.5t18 20.5t23.5 4q70 -35 64 -115q-6 -71 -61 -122q-64 -60 -139 -32q-40 15 -76 56q-43 -37 -98.5 -53t-94.5 -15t-70 9
q-39 -85 -115 -166.5t-120 -79.5q-88 1 -63 174q-25 -44 -56.5 -73t-56.5 -38q-44 -16 -72 21q-45 58 4 187q38 100 129 224q22 16 66 -13q39 -27 37 -50q-1 -9 -10 -15zM415 255q37 83 52 188q16 111 -23 107q-2 -1 -4 -1q-33 -8 -52.5 -74.5t-12 -135.5t39.5 -84zM692 299
q24 27 33.5 49t6.5 34t-12 16q-11 4 -21.5 -5t-14.5 -32t8 -62z" />
    <glyph glyph-name="x_1" unicode="&#xe049;" horiz-adv-x="437" 
d="M251 20q21 3 50.5 29.5t51.5 53.5t69 89q7 9 10 13q-41 77 -4 121q23 29 55 21q33 -8 29 -50q-4 -40 -45 -96q44 -67 115 -55q55 9 83 56q36 58 -11 116q-14 16 -34 31q-5 7 -0.5 18.5t17.5 20.5t23 4q70 -35 64 -116q-6 -70 -61 -121q-65 -60 -140 -32q-39 15 -74 54
q-45 -70 -107.5 -136.5t-121.5 -85.5q-47 -17 -80 11.5t-49 83.5q-131 -140 -188 -179q1 -3 -2 -3q-10 1 -19 18q-16 26 11 45q21 16 87 80.5t97 99.5q-11 92 -6 153q0 3 -9.5 -10.5t-40.5 -58.5q-40 -60 -42 -60q0 4 -6 8.5t-10 8.5t-1 7q20 27 69 115.5t50 101.5
q1 23 79 58q64 28 70 18q-11 -67 -13 -177q24 36 54.5 81.5t57.5 87t33 49.5q9 9 22.5 7.5t24 -10.5t7.5 -17q-4 -6 -31 -47t-76 -112t-92 -128q4 -81 11 -124.5t23 -41.5zM445 224q24 26 33.5 49t6.5 34.5t-12 15.5q-11 4 -21.5 -5t-14.5 -32t8 -62z" />
    <glyph glyph-name="y_1" unicode="&#xe050;" horiz-adv-x="446" 
d="M180 268q-87 -143 -135 -196q-45 -54 -85 -54q-30 0 -39.5 28t0.5 57q13 48 59.5 210.5t52.5 177.5q8 16 54 16q47 0 48 -21q1 -4 -2 -10q-45 -83 -97.5 -213t-9.5 -130q7 0 12 2.5t18 16.5t32 42q33 49 83 130t85 130q11 16 57 23q48 7 45 -14q-2 -6 -24 -74t-55 -169
t-52 -160q96 35 216 148q-38 73 -4 117q23 29 54 23q33 -7 31 -47q-2 -41 -45 -100q44 -67 115 -55q55 9 83 56q36 58 -11 116q-14 16 -34 31q-5 7 -0.5 18.5t17.5 20.5t23 4q70 -35 64 -116q-6 -70 -60 -121q-66 -60 -141 -31q-40 15 -76 56q-30 -29 -59 -52.5t-59 -41.5
t-46 -27t-47 -24t-34 -17q-13 -41 -35.5 -121t-36.5 -117q-46 -124 -127 -170q-60 -34 -99 -4q-44 35 -16 124q19 57 67 125q50 75 127 140q14 41 34 105.5t35.5 114.5t16.5 53zM-14 -168q-56 -100 -39 -127q10 -16 34 7q17 18 28 47q37 99 66 183q-59 -54 -89 -110z
M457 224q24 26 33.5 49t6.5 34.5t-12 15.5q-11 4 -21.5 -5t-14.5 -32t8 -62z" />
    <glyph glyph-name="z_1" unicode="&#xe051;" horiz-adv-x="497" 
d="M96 96q-26 -13 -41 5q-15 16 3 32q12 11 38 14q76 35 128.5 95.5t32.5 97.5q-36 61 -109.5 1t-138.5 -165q-23 -38 -35 -34q-13 5 7 44q3 5 6 11q106 172 193 245.5t135 53.5q61 -26 73.5 -75.5t-14.5 -102t-79.5 -102t-115.5 -77.5q26 -9 48.5 -31.5t25.5 -55.5
q13 5 39 13t47 16t47.5 22.5t54 40.5t52.5 62q-41 76 -4 120q24 29 55 21q33 -8 29 -51q-5 -40 -45 -95q44 -67 115 -55q55 9 83 56q36 58 -11 116q-14 16 -34 31q-5 7 -0.5 18.5t17.5 20.5t23 4q71 -35 64 -117q-6 -70 -61 -120q-66 -60 -141 -32q-40 16 -74 55
q-19 -26 -43.5 -48.5t-44.5 -36.5t-49 -27t-43.5 -18.5t-41.5 -14t-30 -9.5q-3 -115 -24 -182q-41 -125 -107 -170.5t-115 -14.5q-35 23 -40 72.5t15.5 101.5t62 100t91.5 69q-3 11 -5 30t-3.5 29.5t-10 21.5t-25.5 15zM101 -215q20 29 32 82.5t11 104.5q-33 -14 -58.5 -42
t-38.5 -59t-20 -61.5t-6 -53t8 -30.5q6 -6 15 -4t24 18.5t33 44.5zM506 224q24 26 33.5 49t6.5 34.5t-12 15.5q-11 4 -21.5 -5t-14.5 -32t8 -62z" />
    <glyph glyph-name="b_2" unicode="&#xe052;" horiz-adv-x="459" 
d="M50 142q1 2 20.5 36t30.5 52.5t34 55.5t41 59.5t39.5 48t41.5 37.5t37 12q29 0 38 -26t1 -59q-19 -83 -68 -181.5t-109 -170.5q95 16 158.5 58t137.5 131l17 -23q-75 -96 -152 -144t-196 -60q-78 -76 -140 -66q-43 7 -41 32q3 25 44 45q27 13 57 15l32 2q74 100 134 216
t21 116q-7 0 -12 -2.5t-17.5 -16.5t-30.5 -42q-122 -186 -157 -236q-10 -16 -57 -23q-48 -8 -45 13q10 61 101 391q-50 -10 -75 0q-1 2 -1 14t5.5 22.5t14.5 4.5q21 -13 67 -5q11 39 50 162q44 127 121 173q56 33 90 3q41 -37 7 -130q-19 -53 -61 -115q-28 -40 -80 -74
q-68 -212 -98 -325zM220 574q57 103 40 121q-10 11 -33 -19q-14 -19 -24 -44q-22 -59 -43 -125q39 31 60 67zM-10 -62q4 -2 10.5 -2t19.5 7.5t25 19.5q-22 -2 -36 -7t-18 -10t-1 -8z" />
    <glyph glyph-name="d_2" unicode="&#xe053;" horiz-adv-x="436" 
d="M185 -43q32 1 105.5 79t136.5 167l24 -21q-201 -286 -293 -289q-26 -1 -42.5 4.5t-24 19t-10.5 27.5t1 40.5t8.5 46.5t13 56.5t13.5 60.5q-19 -34 -35 -58.5t-39.5 -54t-49 -44t-51.5 -12.5q-28 3 -37 28t-1 57q17 65 42.5 125.5t61.5 115.5t85 91t104 43l14 38
q-48 -9 -74 0q-1 2 -1.5 14t5 23t15.5 5q18 -11 67 -6q33 103 56 163q46 126 124 172q57 34 90 4q40 -35 7 -127q-20 -54 -66 -119q-29 -40 -73 -67q-24 -80 -82.5 -241.5t-86 -251.5t-7.5 -89zM137 237q17 66 53 180q-58 -13 -128 -150q-57 -112 -67 -184q-5 -38 12 -30
q12 6 34 34q19 24 34.5 47t23 35t20.5 36t18 32zM411 697l-8 -19l-30 -99q35 28 54 61q57 101 42 121q-9 12 -33 -18q-15 -19 -25 -46z" />
    <glyph glyph-name="l_2" unicode="&#xe054;" horiz-adv-x="272" 
d="M26 -57q7 -1 16.5 3t22 14.5t24 21.5t27.5 30t27.5 32.5t30 38t28 37.5t29 39t26.5 35l22 -23q-12 -15 -51 -70t-70 -96.5t-72.5 -80t-70.5 -41.5q-46 -5 -70.5 21.5t-25.5 85.5t5.5 117t31 150.5t41 149t45.5 147.5v2q-48 -9 -73 0q-1 2 -1.5 14t5 23t14.5 5
q18 -11 66 -6q46 142 55 163q44 126 122 172q56 34 90 5q41 -35 10 -125q-20 -56 -66 -122q-24 -34 -66 -63q-11 -37 -37 -123q-138 -461 -141 -535q0 -20 6 -21zM240 776l-29 -112q29 28 45 55q57 101 41 121q-9 11 -31 -17q-16 -19 -26 -47z" />
    <glyph glyph-name="h_2" unicode="&#xe055;" 
d="M50 171q82 138 134 196q45 54 86 54q30 0 39.5 -28t-0.5 -57q-14 -50 -65 -141.5t-79 -151t-2 -66.5q40 -11 114.5 58t143.5 159l20 -23q-84 -113 -166 -183.5t-142 -74.5q-52 -4 -54 37t20 84q1 3 1 4q8 23 44.5 96t56 122.5t1.5 49.5q-6 0 -11 -2.5t-18 -16.5t-32 -42
q-27 -41 -69 -104.5t-78 -114.5q-11 -16 -58 -23t-44 14q2 11 29.5 98t72.5 224.5t68 212.5l-1 4q-47 -9 -73 0q-5 2 0 26t18 16q19 -11 67 -6q4 10 16 51t23 74.5t16 37.5q45 126 123 172q56 34 90 5q41 -35 9 -126q-20 -56 -66 -121q-29 -40 -73 -67q-110 -295 -161 -447z
M260 776l-37 -118q36 29 53 61q57 101 42 121q-9 12 -33 -18q-15 -19 -25 -46z" />
    <glyph glyph-name="k_2" unicode="&#xe056;" horiz-adv-x="415" 
d="M101 329q29 50 106 128t116 78q29 0 38.5 -27.5t-0.5 -56.5q-7 -24 -22 -48.5t-44.5 -55t-84.5 -57t-128 -43.5q68 -290 101 -296q18 -4 60 42t97 119.5t63 82.5l20 -22q-6 -7 -46 -59.5t-77.5 -99t-81 -87t-66.5 -41.5q-35 0 -61.5 97t-38.5 206q-5 -12 -22 -57.5
t-30 -76.5q-5 -15 -52 -23q-50 -7 -49 13q2 9 28.5 93t65 208.5t62.5 209.5q-48 -9 -73 0q-5 1 0 25q4 26 18 17q18 -11 67 -6q6 24 30 91.5t25 71.5q46 126 123 172q57 34 91 5q41 -35 8 -126q-20 -56 -66 -121q-29 -40 -73 -67q-13 -41 -56.5 -155t-47.5 -134zM293 450
q-16 32 -73.5 -20t-96.5 -110q-22 -33 -28 -43q76 21 143 83t55 90zM255 776l-38 -118q36 29 53 61q58 101 43 121q-9 11 -32 -17q-15 -20 -26 -47z" />
    <glyph glyph-name="g_2" unicode="&#xe057;" horiz-adv-x="441" 
d="M171 257q-81 -133 -135 -196q-47 -53 -86 -53q-30 0 -39 28t1 56q19 73 53 144.5t80.5 135t109 98t129.5 23.5q39 -7 39 -30q0 -13 -23 -20t-30 4q-33 49 -121 -50q-75 -84 -123 -188q-40 -87 -10 -87q7 0 12.5 2.5t18.5 16.5t32 42q40 57 73.5 100.5t62.5 84.5
q10 15 58 24q47 7 44 -13q-2 -11 -17.5 -67.5t-42.5 -149t-52 -173.5q93 7 164.5 -24.5t79.5 -87.5q2 -23 -41 -45.5t-55 -0.5q-21 40 -66.5 63.5t-101.5 27.5q-35 -108 -49 -147q-45 -120 -130 -163q-64 -31 -108 -1q-48 34 -25 114q18 64 80 140q49 60 122 92
q60 176 96 300zM-50 -181q-60 -88 -37 -118q14 -20 46 -1q29 18 43 53q23 60 55 150q-69 -27 -107 -84z" />
    <glyph glyph-name="j_2" unicode="&#xe058;" horiz-adv-x="269" 
d="M84 479q3 10 29.5 18t50.5 7t22 -15q-10 -48 -159 -501l1 1q93 7 164.5 -24.5t79.5 -87.5q2 -14 -19 -31.5t-43 -22.5t-33 8q-21 39 -67 63t-102 28q-23 -80 -73 -222q-43 -117 -119 -145q-58 -22 -98 19q-48 49 -24 140q19 73 83 151q47 59 123 92q10 31 22.5 71
t23.5 77t14 46q28 81 48 133.5t40.5 103t35.5 91.5zM-225 -181q-63 -94 -45 -152q10 -31 35 -27q23 3 36 38q56 154 80 225q-70 -28 -106 -84zM196 582q-50 -18 -73.5 -12.5t-20.5 28.5t31 49q83 77 111 48q19 -19 0 -62q-16 -38 -48 -51z" />
    <glyph glyph-name="y_2" unicode="&#xe059;" horiz-adv-x="446" 
d="M180 268q-88 -144 -136 -196q-46 -54 -86 -54q-30 0 -39 28t1 57q13 48 60.5 210.5t54.5 177.5q7 16 52 16q48 0 49 -21q1 -4 -2 -10q-63 -114 -103 -225q-43 -118 -6 -118q7 0 12 2.5t18 16.5t33 42q32 47 82 128.5t87 131.5q11 16 57 23q48 7 45 -14q-2 -11 -156 -475
q3 0 3 1q93 7 164.5 -24.5t79.5 -87.5q2 -14 -19.5 -31.5t-43 -22.5t-32.5 8q-22 40 -67.5 63.5t-101.5 27.5q-29 -93 -49 -147q-45 -120 -129 -163q-64 -31 -108 -1q-48 34 -26 114q18 64 80 140q50 60 123 92q21 61 56.5 169.5t46.5 141.5zM-48 -181q-60 -88 -37 -118
q14 -20 47 0q28 17 41 52q23 60 55 150q-70 -28 -106 -84z" />
    <glyph glyph-name="z_2" unicode="&#xe060;" horiz-adv-x="497" 
d="M96 96q-26 -13 -41 5q-15 16 3 32q12 11 38 14q76 35 128.5 95.5t32.5 97.5q-36 61 -109.5 1t-138.5 -165q-23 -38 -35 -34q-13 5 7 44q3 5 6 11q106 172 193 245.5t135 53.5q61 -26 73.5 -75.5t-14.5 -102t-79.5 -102t-115.5 -77.5q63 -11 77 -112q81 8 156.5 -26.5
t118 -100.5t29.5 -141q-6 -15 -30 -23.5t-45 -3t-19 24.5q1 24 -3 53t-18 64t-36.5 62.5t-62 45.5t-90.5 17q-2 -90 -23 -157q-41 -125 -107 -170.5t-115 -14.5q-35 23 -40 72.5t15.5 101.5t62 100t91.5 69q-3 11 -5 30t-3.5 29.5t-10 21.5t-25.5 15zM101 -215
q20 29 32 82.5t11 104.5q-33 -14 -58.5 -42t-38.5 -59t-20 -61.5t-6 -53t8 -30.5q6 -6 15 -4t24 18.5t33 44.5z" />
    <glyph glyph-name="s_calt" unicode="&#xe068;" horiz-adv-x="376" 
d="M343 326q-6 -27 -66 -52q-56 -23 -68 -10q-2 2 -2 5q1 31 -5 54t-16.5 34t-23 16t-23 3.5t-17.5 -7.5q-31 -28 -31.5 -63.5t17 -65t38 -72t23.5 -76.5q6 2 40.5 8.5t49 12t43 24.5t53.5 50q12 0 17.5 -6.5t-3.5 -23.5q-14 -20 -32.5 -36t-33 -25.5t-38.5 -18t-34 -11
t-35 -8t-26 -5.5q-4 -67 -33.5 -114.5t-71 -69t-86 -29.5t-80 -2t-51.5 21q-11 10 -14 26.5t8 39t35 46t72 48t113 44.5q-1 35 -15 78.5t-25.5 77.5t-15.5 72t18 76t73 75q33 24 72 33.5t73 2.5t60.5 -25.5t38 -52t2.5 -74.5zM61 29q-65 -19 -110 -46.5t-58.5 -50
t-1.5 -32.5q9 -7 28.5 -10t44 3t46.5 19.5t36.5 44t14.5 72.5z" />
    <glyph glyph-name="x_calt" unicode="&#xe069;" horiz-adv-x="353" 
d="M167 20q42 5 156 155q15 19 23 29l20 -23q-45 -71 -107 -138.5t-123 -87.5q-47 -17 -80 11.5t-49 83.5q-127 -137 -188 -179q1 -3 -2 -3q-10 1 -19 18q-16 26 11 45q22 16 88 80.5t97 99.5q-7 61 -6.5 118t10.5 147q1 23 79 58q65 28 69 18q-11 -67 -13 -177
q24 36 54.5 81.5t57.5 87t33 49.5q9 9 22.5 7.5t24 -10.5t7.5 -17q-4 -6 -31 -47t-76 -112t-92 -128q4 -81 11 -124.5t23 -41.5z" />
    <glyph glyph-name="z_calt" unicode="&#xe070;" horiz-adv-x="393" 
d="M-6 96q-26 -13 -41 5q-15 16 3 32q12 11 38 14q88 41 165 102t57 95q-18 31 -54.5 34.5t-71 -10t-68.5 -20.5t-48 3q-11 8 -14 21t4.5 23t24.5 9q27 -20 65.5 -7t69.5 36.5t73.5 45.5t75.5 21q96 -4 76 -83q-20 -75 -121 -171q-78 -73 -152 -107q26 -9 48.5 -31.5
t26.5 -55.5q15 6 49 15t58 18t59 37t66 73q1 2 7 -2t8.5 -11.5t-5.5 -21.5q-27 -41 -64 -68.5t-63.5 -37t-64 -18.5t-46.5 -12q-3 -115 -24 -182q-16 -52 -39 -92t-46.5 -62t-48 -33t-46 -10t-39.5 12q-36 23 -41.5 72.5t14.5 101.5t61.5 100t90.5 69q-3 11 -4.5 30t-3 29.5
t-10.5 21.5t-25 15zM1 -215q19 29 30.5 82.5t10.5 104.5q-32 -14 -57.5 -42t-38.5 -59t-19.5 -61.5t-5.5 -53t8 -30.5q6 -6 15 -4t24 18.5t33 44.5z" />
    <glyph glyph-name="fi" unicode="&#xfb01;" horiz-adv-x="482" 
d="M189 -43q18 -4 85.5 72t135.5 171l24 -22q-32 -49 -70.5 -102.5t-97.5 -116t-93 -67.5t-54.5 4t-26.5 33.5t-5 51t13 71t23.5 79t31.5 87.5h-43h-51.5h-38.5q-1 -5 -8 -23q90 -71 26 -231q-46 -117 -140 -214q-80 -81 -122 -73q-45 10 -10 133q30 102 118 405h-1
q-10 1 -14 1t-9 2t-4.5 6.5t5.5 12.5q8 11 35 17q37 126 121 390q3 10 40.5 21.5t67.5 12.5t33 -13q-7 -33 -125 -407q97 -2 135 1q46 124 58 166q6 23 57 39q40 11 40 -1q-5 -31 -50 -161t-75.5 -235.5t-10.5 -109.5zM-103 -142q-30 -72 -13 -66q20 6 61 77q74 128 72 224
q-1 36 -15 62q-63 -196 -105 -297zM340 537q-49 -18 -73.5 -12.5t-21.5 28.5t33 50q80 75 109 47q19 -18 2 -61q-17 -39 -49 -52z" />
    <glyph glyph-name="fl" unicode="&#xfb02;" horiz-adv-x="526" 
d="M19 644q3 10 40.5 21.5t67.5 12.5t33 -13q-7 -33 -125 -407q60 -2 113 0q26 101 78.5 266.5t59.5 188.5q4 15 42 28.5t68 16t34 -4.5q-5 -29 -70 -238t-114 -389t-28 -183q14 -2 39 17.5t57 58t58 72t61 80.5q12 16 17 23l22 -23q-12 -15 -51.5 -70t-71 -96.5t-73 -80
t-70.5 -41.5q-43 -5 -67 19.5t-28.5 73.5t2.5 108t25 134h-116q-1 -5 -8 -23q90 -71 26 -231q-46 -117 -140 -214q-80 -81 -122 -73q-45 10 -10 133q30 102 118 405h-1q-10 1 -14 1t-9 2t-4.5 6.5t5.5 12.5q8 11 35 17q37 126 121 390zM-103 -142q-30 -72 -13 -66
q20 6 61 77q74 128 72 224q-1 36 -15 62q-63 -196 -105 -297z" />
    <glyph glyph-name="cent" horiz-adv-x="307" 
d="M84 -81q-12 -5 -12 7q0 3 12 45q6 20 0 22q-24 6 -21 29t33 50q21 20 39.5 33t31.5 17t23 3t15.5 -7t7.5 -15q5 -23 -47.5 -98t-81.5 -86z" />
    <glyph glyph-name="quotesinglbase" horiz-adv-x="298" 
d="M81 -81q-13 -5 -12 9q1 8 7 29q11 34 4 36q-24 6 -21 29t32 50q22 20 40.5 32.5t31.5 17t22.5 3.5t15 -7t7.5 -15q5 -22 -46.5 -97.5t-80.5 -86.5z" />
    </font>
</defs>
</svg>
