<?xml version="1.0" standalone="no"?>
<!DOCTYPE svg PUBLIC "-//W3C//DTD SVG 1.1//EN" "http://www.w3.org/Graphics/SVG/1.1/DTD/svg11.dtd" >
<svg xmlns="http://www.w3.org/2000/svg" xmlns:xlink="http://www.w3.org/1999/xlink" version="1.1">
<metadata></metadata>
<defs>
<font id="dear_prudenceregular" horiz-adv-x="716" >
<font-face units-per-em="2048" ascent="1638" descent="-410" />
<missing-glyph horiz-adv-x="655" />
<glyph horiz-adv-x="0" />
<glyph horiz-adv-x="682" />
<glyph unicode=" "  horiz-adv-x="655" />
<glyph unicode="&#x09;" horiz-adv-x="655" />
<glyph unicode="&#xa0;" horiz-adv-x="655" />
<glyph unicode="!" horiz-adv-x="174" d="M10 55q3 -27 27 -43.5t55 -13.5q32 1 53 22.5t19 49.5q-3 28 -27.5 45t-56.5 14q-31 -3 -51.5 -24.5t-18.5 -49.5zM16 1509q0 -4 4 -32v-52q-2 -20 -2 -67v-82v-92q0 -64 2 -99q0 -15 5 -102q0 -36 4 -106q1 -17 2 -53t2 -54q4 -70 4 -102q4 -70 4 -99q0 -16 1 -46t1 -44 v-80q0 -27 -4 -67q0 -23 -4 -51t-4 -33q-3 -36 36 -59q38 -23 66 -4q25 16 19 63q0 7 -7 35q-4 28 -4 51l-6 67q-4 52 -8 82l-6 90l-6 99q-6 50 -9 102l-6 107q0 17 -1 52t-1 52q-2 35 -2 102q0 66 2 97q0 30 4 88l7 78q8 47 10 65q8 38 10 49l10 33q2 20 -9 35.5t-28.5 21 t-36 4.5t-33 -14t-16.5 -35z" />
<glyph unicode="&#x22;" horiz-adv-x="321" d="M14 1317q1 -3 4 -11.5t4.5 -10t6.5 -5t13 -4t21 -0.5l3 -26l-3 -27l-4 -27q0 -8 -4 -28l-12 -50l-8 -20l-6 -18q-3 -3 -4.5 -10.5t0.5 -10.5q3 -7 14.5 -10t26 -0.5t28.5 8.5t23.5 18.5t9.5 28.5q0 4 1 13t1 14q0 4 1 13t1 13q0 5 1 15t1 14l4 31q0 20 2 30v31v31 q2 8 -2 29q0 10 -4 30q-8 29 -55.5 35.5t-59.5 -27.5q-15 -46 -4 -69zM186 1317q1 -3 3.5 -10t4 -8.5t4.5 -5t7.5 -4.5t12 -2t18.5 -1l2 -26l-2 -27l-5 -27q0 -8 -4 -28l-12 -50l-8 -20l-6 -18q-3 -3 -4.5 -10.5t0.5 -10.5q3 -7 14.5 -10t26 -0.5t28.5 8.5t23.5 18.5 t9.5 28.5q0 4 1 13t1 14q0 4 1 13t1 13q0 5 1 15t1 14l4 31q0 20 2 30v31v31q2 8 -2 29q0 10 -4 30q-8 29 -55.5 35.5t-59.5 -27.5q-15 -46 -4 -69z" />
<glyph unicode="#" horiz-adv-x="1017" d="M15.5 889q13.5 31 56.5 31q2 0 9 -2.5t13 -2.5q20 -4 37 -4q14 -2 47 -2q16 -2 55 -2h91q1 3 2 9.5t2 9.5q4 18 13 65.5t15 71.5q22 125 23 129l18 113q2 20 8 52.5t7 43.5l8 72q1 8 2 25t2 24q6 42 48 61q42 18 65 -7q21 -24 6 -77q-1 -7 -7 -23.5t-8 -23.5 q-8 -37 -18 -70q-3 -16 -11 -47t-12 -47q-15 -64 -24 -112q-6 -23 -29 -127q-15 -67 -33 -138v-4q25 0 37 2q49 0 74 2q13 1 37 2t37 2l71 7q28 4 39 4q28 131 29 137q12 54 23 129l18 113q4 23 14 96l8 72q5 48 5 49q3 19 18.5 34.5t35 20.5t37.5 1.5t27 -24.5t2 -55 q-14 -42 -16 -47q-8 -37 -18 -70q-3 -16 -11 -47t-12 -47q-3 -18 -12 -55.5t-13 -56.5q-20 -95 -28 -127q-13 -62 -27 -115q4 2 15 2q9 1 27.5 4t27.5 4l47 6q7 1 19 4l16 4q5 1 12.5 4t9.5 3q37 10 52 -31q14 -39 -4 -70q-12 -20 -35 -20q-5 0 -25 4q-5 0 -18.5 1t-20.5 1 q-29 0 -47 2h-57q-12 -2 -37 -2q-3 -14 -10.5 -42t-10.5 -42q-29 -140 -30 -148l-19 -100q7 0 20 1t19 1l64 8l55 7q12 3 47 8l35 6l22 8q32 5 46 -24t4 -61.5t-37 -37.5q-3 0 -11 2t-14 2q-5 1 -19 2t-20 2h-104q-41 0 -64 -2q-37 0 -55 -2l-19 -119q-4 -22 -11 -68.5 t-11 -70.5q-1 -9 -4.5 -32t-3.5 -33l-6 -64q-3 -15 -3 -31v-26q0 -29 3 -53q0 -10 6 -97q1 -14 2 -39.5t2 -37.5q1 -9 2 -27t2 -25q-3 -49 -22.5 -69.5t-42 -12.5t-40.5 33t-18 55q0 8 8 48q4 40 4 73q1 16 2 48.5t2 50.5q0 39 2 59v31q5 25 5 30q2 11 5 32.5t5 31.5 q1 14 6 37.5t6 30.5l25 139l18 102h-10q-54 -4 -76 -4q-12 -1 -37 -2t-37 -2q-25 0 -71 -4q-26 0 -66 -4q-2 -17 -7 -49.5t-7 -49.5q-21 -121 -23 -139q-8 -46 -8 -65l-6 -64q-1 -5 -2 -15.5t-2 -15.5q0 -4 1 -13t1 -13v-53l6 -97q2 -17 4 -45t2 -32q0 -28 4 -52 q-1 -38 -14.5 -58.5t-32 -20t-36.5 10.5t-30 31t-10 43q0 6 3 22.5t4 25.5q6 30 6 73q1 14 1 47t1 52q1 9 2 29t2 30v31q4 20 4 30q2 11 5 32.5t5 31.5q1 11 10 68q4 21 13.5 67.5t13.5 71.5q8 51 14 80q-19 0 -47 -4l-47 -7l-35 -6q-5 -1 -12.5 -3.5t-9.5 -2.5 q-26 -4 -41 27t-5.5 63.5t42.5 32.5q12 -4 22 -6q9 0 37 -4q29 0 47 -2h64q4 21 11 64t11 65q6 31 17.5 82t15.5 69q2 14 10 47h-8l-63 -6q-40 -4 -56 -4l-47 -6q-23 -3 -35 -8q-5 -1 -12.5 -3.5t-9.5 -2.5q-36 0 -55 30.5t-5.5 61.5zM317 498q32 0 50 2h71q25 2 74 2l74 6 q5 0 13.5 1t12.5 1q11 53 21 119q6 31 17.5 82t15.5 69q2 11 7 33.5t7 34.5q-3 0 -9 -1t-9 -1q-22 0 -72 -4q-26 0 -76 -4q-12 0 -36.5 -1t-37.5 -1q-9 -1 -28.5 -2.5t-28.5 -2.5q-6 -34 -14 -65q-4 -21 -16.5 -72t-16.5 -76z" />
<glyph unicode="$" horiz-adv-x="995" d="M14 594q11 61 54 111q53 66 153 139q6 5 17.5 11t13.5 7q-1 11 -2 32t-2 30q0 30 -4 84l-6 69l-7 51q-1 8 -3.5 19.5t-2.5 15.5q0 41 30.5 56.5t61.5 -1.5t31 -53q-3 -13 -6 -35q0 -13 -4 -53q0 -42 -2 -69q0 -53 -2 -82v-15q7 3 22.5 11.5t22.5 11.5q75 32 90 37 q0 14 -2 39t-2 37q0 15 -1 41.5t-1 37.5v62q-4 32 -4 39q2 25 22.5 38.5t43.5 13t41 -17t16 -44.5q-8 -33 -9 -39q-7 -25 -10 -58q-4 -46 -4 -76q-2 -14 -2 -45q51 14 82 19q65 7 86 4q27 -5 41 -20t13 -33.5t-10 -35.5t-27 -26.5t-37 -5.5q-24 6 -58 6q-55 -4 -88 -12 q0 -31 2 -45q4 -78 8 -115l13 -121q2 -17 5 -50t5 -50q92 3 184 -6q75 -12 121 -35q40 -24 57 -45q5 -5 19 -33q1 -1 6 -16l4 -10v-4l2 -3v-38l-6 -23l-6 -18q-10 -23 -43 -56q-36 -31 -101 -59q-75 -34 -196 -62q-7 0 -19 -4q0 -28 4 -82q0 -41 7 -92q2 -29 10 -75 q7 -39 14 -58q6 -21 13 -35q3 -33 -7.5 -53.5t-27.5 -25t-35 -0.5t-33 18.5t-18 34.5q-1 5 -1 19.5t-1 23.5q-1 10 -2 31t-2 32q0 12 -1.5 39.5t-1.5 42.5v166l-75 -12q-62 -10 -107 -15q1 -8 2 -24.5t2 -24.5q4 -54 4 -69l7 -56q0 -2 1 -6t1 -6q4 -4 4 -6v-8l-2 -19 q-1 -26 -21 -42t-45 -13q-24 1 -40.5 21t-14.5 45q0 4 2 8q0 2 -1 4.5t-1 3.5q0 2 4 6q2 4 2 10q4 32 4 56q1 10 2 33.5t2 35.5v41l-69 -6l-76 -10q-19 -1 -27 30t-0.5 62t25.5 31q6 0 30 -1t43 -1h76v274q-46 0 -71 2q-80 8 -123 31q-14 8 -31 22q-21 25 -21 37 q-11 30 -4 72zM90 549q4 -10 6 -10q7 -7 13 -11q24 -14 90 -22q20 -2 63 -2v6q0 18 -1 55t-1 56t-1 54t-1 52q-2 14 -2 37q-82 -56 -127 -109q-31 -40 -39 -73q-4 -22 0 -33zM334 623q0 -19 1 -56t1 -55v-8q124 4 182 8q-2 33 -10 94q-2 22 -7 62.5t-7 58.5q-1 14 -6.5 54.5 t-6.5 62.5q-1 4 -2 13.5t-2 14.5l-61 -22q-40 -18 -82 -41v-186zM338 401q1 -18 2 -54t2 -54q0 -18 1 -52.5t1 -50.5q2 -10 2 -30q64 4 98 8q29 2 91 10v64q1 29 -3 120l-6 76q-32 -1 -94.5 -4t-93.5 -4v-29zM600 440l6 -75l6 -121v-54h2q115 23 185 50q115 50 110 110l-2 2 v4q-2 2 -2 9q-1 2 -4.5 8t-5.5 8q-13 17 -33 25q-33 17 -96 28q-80 9 -166 6z" />
<glyph unicode="%" horiz-adv-x="1138" d="M14 915v5q-7 55 0 92q9 56 29 100q22 45 49 80q31 39 60 57q31 25 67 31q10 4 35 4h16q2 0 5 -1t4 -1q4 0 4 -16q14 0 20 -2q25 -10 31 -13q20 -16 26 -22l19 -25q24 -49 24 -112q0 -48 -20 -113l-8 -25l-6 -12l-2 -10l-5 -6q-18 -36 -30 -52q-45 -59 -94 -83 q-80 -39 -138 -3q-53 32 -77 105zM90 932l4 -14q13 -48 43 -66q23 -17 68 4q34 16 67 62q1 1 10 16.5t13 23.5l2 7l2 2l4 12l8 27q14 65 13 86q-3 45 -19 67q-14 18 -26 15q-13 -4 -17 -7l-10 -6l-8 -8q-6 -6 -15.5 -19.5t-11.5 -15.5q-3 -5 -7.5 -15t-6.5 -13q-1 -4 -19 3 t-39 19q-6 -8 -24 -39q-22 -42 -29 -76q-5 -29 -2 -65zM289 -150q9 22 16 46l21 69q19 69 26 92q5 20 15.5 60t13.5 51q15 58 33 123q3 14 35 133l36 141q23 91 39 144q6 25 19.5 73t19.5 72q4 14 18.5 63.5t22.5 75.5q7 26 21.5 73.5t17.5 57.5q21 64 39 123l39 107l35 90 q25 57 32 69q5 8 10.5 20t9.5 19.5t7 10.5q17 21 38.5 26t37.5 -3.5t27 -24t9 -37.5t-18 -41l-26 -27q-2 -3 -15.5 -22.5t-21.5 -34.5q-36 -69 -41 -80l-41 -102q-20 -44 -45 -117q-32 -94 -43 -129q-10 -36 -41 -137q-7 -23 -20.5 -72t-20.5 -72l-37 -143 q-30 -117 -35 -141l-30 -134q-12 -50 -27 -125q-2 -10 -10.5 -50t-12.5 -60q-8 -48 -18 -92q-9 -69 -10 -74q-4 -40 -4 -47q-16 -35 -35.5 -52t-36 -15t-30 14t-19 34t-0.5 45zM737 84q-5 54 13 113q9 34 24 61v4l12 25q9 20 48 75q40 44 61 56q40 27 82 22q38 -5 65 -28 q10 -11 -30.5 -45.5t-57.5 -36.5l2 2v2l-12 -4q-1 0 -3 -1t-3 -1h4q2 0 5 1t5 1h2q45 3 90 -13q28 -9 51 -36t29 -58q4 -12 4 -61l-4 -25v-10l-4 -6l-4 -15q-18 -57 -67 -100q-46 -40 -111 -53q-74 -14 -127 22q-6 4 -15.5 12t-11.5 9l-22 29l-12 22q-3 6 -13 37zM813 94 l2 -8l2 -4v-2l10 -21l23 -22q31 -18 74 -12q45 9 75 36q33 28 45 70l3 8l2 4v2l2 25q0 23 -4 35q-9 27 -33 33q-21 8 -56 0q-34 -11 -51 -21q-4 -3 -35 -27q-8 -8 -16 -20q-3 -3 -27 14q0 -4 -4 -12q-15 -46 -12 -78z" />
<glyph unicode="&#x26;" horiz-adv-x="696" d="M10 127q0 62 41 154q37 72 78 133q16 23 29 45q-45 139 -58 188q-47 168 -61 334q-7 106 2 176q15 112 55 182q12 21 27 39l18 21q2 4 5 7t7 5.5t5 3.5q26 22 41 33q6 2 22.5 11.5t24.5 10.5l20 7l10 4l7 4l2 -2l4 2l47 10q18 4 51 4q39 0 53 -6q27 -4 51.5 -23t38.5 -45 q27 -45 27 -102q5 -78 -20 -186q-35 -140 -117 -330q-57 -133 -144 -301q-6 -9 -16 -28t-12 -23q5 -11 13 -34.5t13 -35.5q16 -39 46 -108.5t34 -79.5q42 42 74 82q14 20 32.5 49t24.5 37q33 53 75 57.5t51.5 -32t-23.5 -91.5q-12 -19 -74 -92q-78 -78 -113 -107 q57 -112 84 -157q42 -74 90 -146q24 -37 68 -86q59 -65 37 -104q-16 -29 -60 -20q-41 8 -73 48q-21 26 -64 101q-18 29 -86 158q-28 50 -73 153q-20 -12 -48 -22q-36 -15 -67 -17l-8 -4h-62q-34 5 -43 10q-13 2 -41 21q-41 36 -45 92zM100 133q2 -15 11 -29q32 -8 34 -8 q14 -4 52 4q19 0 41 15q12 3 45 22q-26 60 -88 217v4q-46 -68 -64 -112q-31 -64 -31 -113zM115 1151q-6 -89 2 -166q11 -155 61 -315q6 -24 35 -113q82 153 137 279q85 197 117 321q20 107 18 162q-4 51 -18 70q-18 29 -45 34q-61 15 -152 -22q-70 -31 -110 -98 q-34 -57 -45 -152z" />
<glyph unicode="'" horiz-adv-x="186" d="M18 1262q-6 -51 9 -68q2 -3 5.5 -10.5t5.5 -9t7 -4.5t13.5 -2t21.5 3l6 -26l2 -27v-26v-29l-4 -51l-8 -41q-2 -3 -2 -10.5t2 -10.5q4 -6 16 -7t25.5 4t26.5 13t20.5 22t5.5 30q-2 8 -2 26q-2 8 -2 27q-1 5 -2 15t-2 14v30q-4 20 -2 31q-6 28 -6 29l-4 30q0 5 -3 15.5 t-4 13.5q-3 15 -10 29q-8 17 -34.5 24t-51.5 -2t-29 -32z" />
<glyph unicode="(" horiz-adv-x="487" d="M10 425q-1 26 0 50v82l4 78q1 29 11 160q11 101 22 155q11 68 35 146q25 85 49 131q10 24 29 59q6 10 18 28t15 23q18 29 34 45q17 24 35 39q21 27 66 58l24 18q14 10 19 12q58 29 86 12.5t19 -59t-50 -63.5l-20 -6q-10 -3 -23 -11q-37 -21 -53 -34q-10 -8 -31 -29 q-16 -14 -33 -37q-13 -15 -30 -43q-19 -27 -29 -49q-28 -54 -49 -119q-22 -64 -37 -135q-12 -56 -23 -150q-6 -48 -10 -153l-4 -80v-78q-1 -29 3.5 -83t4.5 -66q2 -21 6 -44.5t10.5 -52t8.5 -41.5q15 -59 18 -65q13 -32 23 -55q9 -17 57 -101q36 -60 53 -86q35 -59 41 -71 q22 -33 27 -48q37 -73 2 -104q-26 -23 -65 -3q-34 19 -50 62q-1 3 -5 19t-9 26q-10 33 -29 70q-6 15 -22 44t-23 44q-37 72 -55 113q-13 33 -25 67q-3 11 -8 33.5t-8 34.5q-22 132 -23 151q-1 17 -3 48.5t-3 57.5z" />
<glyph unicode=")" horiz-adv-x="565" d="M10 -281.5q-3 19.5 6.5 41.5t28.5 35q5 4 20.5 12.5t24.5 14.5q4 3 27.5 18t36.5 27l73 67q11 10 78 93q12 15 23.5 32.5t26.5 44t22 37.5l31 66q3 8 8.5 21.5t9.5 25t6 22.5q4 12 11.5 37t11.5 37q3 13 7 39t7 39q4 24 6 50.5t3.5 59t2.5 50.5q0 13 -1 40t-1 42 q-4 52 -8 80l-10 77q-1 3 -8 32t-9 44q-5 24 -41 146q-7 26 -25 71.5t-22 57.5q-9 23 -28.5 63t-22.5 47q-15 30 -47 88q-15 29 -41 68q-6 9 -17 22.5t-14 18.5q-14 22 -17 45.5t5 39t23 22t40.5 -4.5t55.5 -41q3 -8 20 -47q4 -10 15.5 -34.5t17.5 -39.5l45 -98 q7 -22 24 -65t21 -54q1 -5 19 -56.5t26 -80.5q4 -16 12.5 -46.5t14.5 -55.5t10 -49q15 -69 17 -80q2 -29 10 -82q6 -44 6 -84q4 -58 4 -86q-1 -17 -2.5 -53.5t-4 -64t-7.5 -52.5q-8 -59 -15 -84q-3 -14 -10 -40.5t-10 -39.5q-4 -19 -27 -76l-30 -74q-8 -14 -22.5 -41.5 t-26.5 -48.5t-25 -37q-10 -13 -36.5 -50t-41.5 -54l-76 -82q-9 -9 -31.5 -28.5t-31.5 -28.5l-41 -37q-31 -22 -56 -24t-36.5 12t-14.5 33.5z" />
<glyph unicode="*" horiz-adv-x="655" d="M13.5 1160.5q-8.5 21.5 2 41.5t43.5 25q8 -4 15 -4q6 -2 20 -2h62q10 2 34 2q6 2 17 2l-10 6l-37 24q-6 5 -33 21q-25 15 -27 16l-12 6t-12 5q-3 1 -9 2t-8 2q-19 19 -17 53t25 50t68 -5q1 -1 3.5 -6t4.5 -8l17 -19q4 -3 11.5 -10.5t12.5 -11.5l29 -27l33 -29q6 -6 10 -8 q-4 24 -4 37q-3 12 -8 47q-1 7 -2 21t-2 20t-2 19t-2 18t-2.5 16t-2.5 17l-6 22q-1 2 -2.5 5.5t-2.5 6t-1 3.5q0 33 30.5 45.5t61.5 -0.5t31 -43q0 -2 -1 -4.5t-2.5 -6.5t-2.5 -6q-1 -3 -2 -10.5t-2 -11.5q-1 -5 -2 -15.5t-2 -15.5q0 -6 -1 -18.5t-1 -18.5q-4 -29 -2 -43 q1 -6 2 -21t2 -22v-6l8 14q8 14 16 33l13 29q1 6 4 14.5t4 11.5q4 12 4 19q1 3 1 8t1 6q7 29 49 33q44 3 64 -24q19 -25 -5 -66q-1 -1 -5.5 -3.5t-6.5 -4.5l-14 -17q-2 -3 -8 -9.5t-9 -10.5q-1 -2 -16 -27q-14 -18 -20 -31q-22 -28 -25 -32l-12 -19q20 4 28 4q8 1 21 4t18 4 l37 7q2 1 31 8q5 1 26 8q10 2 21 8q3 1 7.5 3.5t6.5 2.5q55 10 73 -32q15 -34 -7 -64q-18 -23 -49 -24q-2 0 -7 2t-8 2q-6 2 -22 2q-4 0 -13 1t-14 1q-10 -2 -33 -2q-6 0 -18 -1t-18 -1q-13 0 -41 -4h-11q2 0 2 -3q5 -3 19.5 -12.5t21.5 -15.5l39 -27q17 -14 37 -24 q5 -4 16.5 -11.5t16.5 -11.5q4 -2 14.5 -7.5t14.5 -8.5l22 -11q3 -2 9 -3.5t7 -2.5q31 -16 10 -56q-18 -36 -50 -46q-19 -5 -33 4q-2 2 -5.5 8t-4.5 8l-17 19q-6 8 -22 24l-31 25q-21 21 -33 31q-18 15 -37 28q-15 15 -33 27l5 -10q1 -7 5 -20.5t5 -18.5q8 -17 12 -35 q2 -6 12 -31q7 -14 11 -20q1 -3 4.5 -8t3.5 -7q14 -27 -25 -48q-41 -21 -73 -7q-17 7 -21 25l1 6q1 6 1 10q1 3 1 7t-0.5 9.5t-0.5 8.5q0 5 -1 15.5t-1 16.5l-6 37q-6 42 -6 43q-4 12 -4 23q-1 -3 -4.5 -8.5t-4.5 -8.5q-12 -20 -16 -30l-12 -29l-10 -24l-7 -21 q-1 -3 -1 -7.5t-1 -6.5q-12 -22 -44.5 -22t-57.5 25t-6 54q1 2 6 5t6 5l17 17q12 12 18 20l18 27l21 30l12 17q-2 0 -7.5 -1t-8.5 -1q-11 -4 -37 -8q-14 -6 -31 -9q-6 -1 -14.5 -4t-11.5 -4q-5 -1 -12 -4t-9 -4l-12 -8q-18 0 -36 17.5t-26.5 39z" />
<glyph unicode="+" horiz-adv-x="784" d="M9.5 604q-0.5 18 17 31.5t51.5 15.5q2 0 7 -2.5t9 -3.5l25 -6q11 0 35 -4q13 0 41 -4q7 -1 22 -2t23 -2t24.5 -2t24.5 -2q16 0 24 -2q0 2 -1 5.5t-1 4.5l-6 55q0 9 -2 26t-2 25q-4 28 -4 43l-6 37l-6 29q-1 4 -3.5 10t-2.5 8q0 40 30.5 54.5t61 -2t30.5 -50.5 q0 -2 -2.5 -8t-3.5 -10q0 -9 -4 -29q0 -5 -1 -17.5t-1 -19.5q-1 -7 -2 -22t-2 -23v-49q2 -16 2 -51q2 -6 2 -19h4q9 0 26.5 1.5t26.5 1.5q20 0 52 4l47 6q7 1 21.5 4t21.5 4q6 2 18.5 5t18.5 5q7 2 17 7t13 6q14 7 23 10q6 4 12 10q45 22 71 -16q22 -33 7 -69 q-11 -26 -39 -32h-20q-17 0 -29 -2q-5 -1 -17 -2t-18 -2q-7 -1 -21.5 -2t-21.5 -2q-32 -4 -49 -4q-16 -2 -51 -2q-16 -2 -53 -2q-36 0 -54 -2q1 -3 2 -10.5t2 -10.5q3 -30 9 -57q2 -20 10 -55l4 -11q49 0 49 -8q0 -2 -2.5 -8t-3.5 -10t-2 -14t-2 -15q-4 -24 -4 -37l-2 -26 l-2 -9q-2 -17 -15 -28t-30 -10q-32 3 -39 34l-2 15l-2 -2v14q-1 6 -4.5 21t-4.5 24l-12 55q-2 10 -5 29.5t-5 28.5q-5 43 -8 59q-1 5 -2 16t-2 17h-84q-8 0 -23 -1t-22 -1t-21 -1t-20 -1q-17 0 -33 -4q-15 0 -27 -4q-4 -1 -9 -4t-7 -3q-15 0 -31.5 12t-25.5 29t-9.5 35z" />
<glyph unicode="," horiz-adv-x="221" d="M10 -193q0 -14 24 -22t51.5 -0.5t35.5 31.5q1 3 4 10.5t4 13.5q7 15 10 25q3 5 7 14t6 12l14 29q11 27 12 29q0 1 4.5 10.5t3.5 15.5l13 29q0 1 6 29q1 2 6 33q1 18 -19.5 36t-44.5 22t-43 -13q-28 -50 -24 -66q0 -4 0.5 -11t0.5 -9t1.5 -6.5t5.5 -6.5t10.5 -5.5 t16.5 -6.5l-6 -27l-11 -24l-10 -23q-3 -3 -7.5 -12t-8.5 -14l-27 -41l-14 -19l-13 -16q-3 0 -6.5 -7t-1.5 -10z" />
<glyph unicode="-" d="M68 385q-16 33 6 59q16 17 43 17q104 -4 243 -4q38 0 73 4.5t79.5 13t73.5 12.5q58 0 72.5 -29.5t-9 -59t-57.5 -29.5q-43 1 -113 0t-114 0q-46 -3 -117 -6.5t-117 -6.5q-45 -8 -63 29z" />
<glyph unicode="." horiz-adv-x="174" d="M20.5 30q3.5 -18 24.5 -30q18 -12 45 -10.5t47 18.5q9 24 -1.5 43t-31.5 27q-45 19 -67 -6q-20 -24 -16.5 -42z" />
<glyph unicode="/" horiz-adv-x="423" d="M10 -279q-2 -27 7 -52.5t25 -38t33 -13t33 24.5t23 71q0 11 -4 51q0 20 -4 78l-6 97q0 35 -2 53v26q2 10 2 31l6 64q2 18 10 65l10.5 66.5t10.5 74.5l24 146l25 151q4 26 16.5 77.5t16.5 70.5l17 76.5t15 68.5q6 27 18 76t15 62q23 104 29 127q9 48 24 112q4 16 12 47 t11 47q10 46 18 72l5.5 16.5t5.5 17.5t4 11q9 47 -6 71.5t-38.5 23t-47 -21.5t-29.5 -50q-1 -5 -1 -21t-1 -26q-1 -11 -5 -36.5t-6 -37.5l-12 -96l-18 -113q-24 -121 -25 -127q-3 -19 -12.5 -66t-13.5 -73q-18 -86 -33 -146q-1 -5 -13 -61.5t-18 -89.5l-27 -150l-24 -147 q-13 -60 -27 -140l-12 -67l-8 -64q-1 -5 -2 -15t-2 -15q0 -5 -1 -15.5t-1 -15.5q0 -39 -2 -59q-2 -37 -2 -99q0 -3 -7 -73q-1 -7 -3.5 -23.5t-2.5 -22.5z" />
<glyph unicode="0" horiz-adv-x="688" d="M10 707q0 131 19 231q23 119 80 199q38 55 98 84q-11 5 -14.5 19.5t-0.5 32t10 33.5t19 25t25 4q16 -5 82 -35q40 -18 57 -28q35 -18 66 -39q46 -16 69 -39q15 -15 12 -29q32 -32 52 -57q64 -90 82 -201q19 -104 6 -235q0 -10 -17 -123q-2 -24 -10 -62q-8 -40 -14 -63 q-36 -132 -103 -246q-43 -67 -86 -110q-70 -66 -139 -68q-43 0 -82 27q-33 20 -53 53q-36 47 -66 125q-41 112 -65 254q-24 147 -27 248zM92 707q0 -106 19 -236q25 -143 61 -242q25 -66 53 -104q38 -54 78 -51q42 -3 88 47q41 38 74 96q60 103 92 227q11 50 12 58 q2 8 5.5 28.5t5.5 30.5q1 9 6 51.5t6 65.5q10 121 -10 213q-17 91 -72 162q-24 27 -51 51q-6 -1 -10.5 -0.5t-9.5 1.5l-5 1q-22 22 -43 29q-45 18 -98 10q-71 -11 -111 -62q-48 -66 -69 -163q-24 -95 -21 -213z" />
<glyph unicode="1" horiz-adv-x="378" d="M19.5 1093q-15.5 28 3.5 64q2 2 6.5 8.5t9.5 13.5t10 13q15 17 41 55q20 28 45 74q3 6 22.5 37.5t30.5 50.5l2 2v2q9 15 27 20.5t33 -3.5q22 -11 22 -41l-10 -117q-4 -45 -8 -131q-6 -129 -6 -135q0 -24 -1 -71t-1 -69q1 -24 2 -71t2 -70q0 -26 3.5 -73t4.5 -62 q8 -85 14 -129q1 -7 7 -51t10 -66q2 -11 9.5 -48t12.5 -56q9 -47 21 -86q3 -13 9.5 -35t8.5 -31q4 -8 7 -16l6 -16t4 -11q8 -62 -19 -85t-60 -3.5t-40 59.5q-1 6 -2 22.5t-2 24.5q-2 9 -11 70q-7 31 -14 90q-10 82 -14 107l-12 123q-10 107 -11 131q-6 135 -6 139 q-1 23 -2 70t-2 71q0 25 1 73t1 71q0 24 1 69.5t1 67.5q2 18 2 55l-4 -8l-31 -59q-4 -8 -9.5 -22t-8.5 -19q-18 -33 -54 -30t-51.5 31z" />
<glyph unicode="2" horiz-adv-x="962" d="M10 922q0 12 2 18q9 20 41 68q22 36 66 94q46 65 94 115q68 76 139 120q68 35 117 29q2 -1 8 -1.5t12 -2.5l13 -4q18 -6 26 -10q27 -14 54 -45q34 -46 41 -117q7 -47 0 -115q-10 -96 -45 -225q-19 -70 -74 -217q-36 -100 -86 -215q-40 -97 -90 -203q-35 -76 -64 -127 q16 -2 51 -2q15 1 46 2t47 2q38 3 170 18q58 7 141 23q57 11 104 25q37 10 60 24q4 1 6 0t5 -5t7 -7q4 -5 15 -15t16 -16q20 -17 20 -37q1 -10 -5.5 -20.5t-14.5 -12.5q-26 -11 -82 -18q-46 -8 -115 -18l-67.5 -7.5t-79.5 -7.5q-101 -8 -176 -10q-31 -2 -97 -2 q-67 0 -108 10l-21 4q-13 4 -20 17.5t-2 27.5q0 1 1 3.5t1 3.5l2 4q46 86 90 174q77 165 92 200q43 94 86 209q50 134 70 213q33 118 41 211q11 126 -29 176q-18 18 -24 21q0 1 -19 6l-10 4h-6q-28 4 -62 -20q-56 -36 -114 -109q-41 -48 -82 -111q-31 -48 -51 -92 q-11 -23 -23 -59q-4 -4 -8 -6q-2 -1 -7.5 0.5t-7.5 1.5q-26 -4 -43 -2q-31 4 -41 14q-4 3 -10 21z" />
<glyph unicode="3" horiz-adv-x="880" d="M16 1180q2 4 2 10q0 2 -1 5t-1 5q-15 12 2 25q39 22 72 49q93 71 119 88q1 0 14 9t15.5 10.5t15 9.5t17 10.5t17 9.5t19.5 10t19 8.5t21.5 8.5t21.5 7t24 7q78 20 137 -18l5 -4h2l6 -5l6 -6q2 -2 5.5 -4.5t6.5 -5.5l14 -20q2 -3 11 -21q14 -41 4 -84q-15 -54 -68 -123 q-36 -46 -90 -100q-39 -41 -201 -191q-5 -6 -16 -17t-16 -17l49 12q30 7 88 27t109 32.5t100 14.5q91 3 164 -45q3 -1 18 -11l14 -10l17 -12l16 -15q17 -17 29 -32q18 -27 22 -35q79 -139 23 -313q-26 -80 -70 -138l-22 -28l-25 -27q-33 -33 -51 -49q-114 -102 -215 -154 q-127 -68 -242 -63q-52 6 -53 6q-42 8 -59 16l-15 6l-14 11q-3 2 -8.5 5.5t-10 7t-8.5 7.5q-17 21 -20 31q-10 20 -10 37q-7 56 38 112q37 37 70 54q48 27 111 36q63 2 80 -40q13 -34 -14 -61q-20 -20 -54 -19q-5 -1 -18.5 -3t-28 -5.5t-27.5 -8.5q-25 -11 -41 -24 q-16 -19 -16 -31q-1 -2 1 -6.5t8.5 -10t15.5 -10.5q19 -7 34 -10q9 -3 49 -8q89 -7 193 47q107 52 201 137q32 28 47 43l22 25l21 24q37 49 59 113q22 59 19.5 129t-33.5 125q-8 16 -19 27q-12 16 -20 22l-10 10l-15 13l-14 10l-14 8q-58 36 -123 33q-40 -1 -84.5 -12 t-104.5 -31.5t-90 -28.5q-86 -25 -157 -22h-2q-14 2 -24 13t-9 26q0 8 4 16q11 17 25 35t22 27t27 28.5t24 24.5q26 26 95 91.5t102 100.5q45 48 82 94q42 60 49 95q10 35 -21 52.5t-71 4.5q-58 -15 -146 -82q-41 -31 -106 -92q-13 -11 -38 -34t-36 -32q-6 -4 -22 -8 q-9 0 -13 2q-10 0 -14 2q-5 1 -8 3.5t-5 7.5t-3 6q-5 15 -5 22q-2 6 -2 23z" />
<glyph unicode="4" horiz-adv-x="808" d="M10 469v18h2l8 33q6 18 17.5 55.5t17.5 55.5l31 102l25 94q13 51 18 84q8 50 8 68q3 30 0 51q0 6 -4 10q0 2 -1 6t-1 5q-7 54 34 78q34 21 62 -1q20 -17 23 -51q2 -6 -2 -51q-2 -12 -10 -61l-19 -74q-15 -53 -26 -86l-31 -96q-2 -8 -35 -103l-25 -71l13 4q5 1 106 36 l107 43q13 6 40.5 17.5t41.5 17.5v29q2 33 2 94q2 31 2 88q0 15 1 42.5t1 39.5q0 14 1 38.5t1 35.5q0 13 1 33t1 28q2 18 2 47q0 5 -1.5 15.5t-0.5 13.5q5 39 38.5 48.5t62 -11.5t20.5 -53l-11 -29l-10 -45q-7 -29 -10 -57q-4 -26 -8 -70q-4 -27 -8 -80l-7 -88q0 -26 -4 -88 q26 7 37 14q18 7 47 17t39 14q34 13 74 23q2 2 6 2q3 22 10 22q6 0 19.5 -2.5t19.5 -3.5h6l9 -2q23 -1 37 -18t12 -41q-1 -19 -14.5 -32t-32.5 -15q-2 0 -6 -1.5t-5 -1.5h-6l-39 -6q-30 -3 -63 -12q-82 -24 -84 -25q-35 -10 -68 -22v-8q-2 -33 -2 -97q-1 -16 -2 -47t-2 -47 q-1 -15 -2 -44t-2 -44q0 -30 -4 -84l-6 -73q0 -4 -6 -64q-4 -36 -4 -47q-1 -7 -1 -18.5t-1 -14.5q-5 -46 -43 -55q-36 -9 -61 21q-21 24 -15 63q1 3 5.5 12t6.5 14q1 2 5.5 18t8.5 25q2 8 7.5 27.5t7.5 30.5q1 8 10 71q8 49 10 78q1 15 4 44t4 44q4 62 4 93q1 13 2.5 38 t2.5 37q-36 -12 -54 -20q-15 -5 -50.5 -18.5t-55.5 -20.5q-56 -21 -111 -39l-82 -25q-13 -4 -26.5 3.5t-18.5 21.5z" />
<glyph unicode="5" horiz-adv-x="860" d="M12 152q-6 22 1.5 47.5t21.5 38.5q4 5 7.5 9t8 7.5t6.5 5.5q10 8 23 12q29 14 31 15q19 5 31.5 -24.5t11.5 -58t-9 -34.5l-26 -6q0 -3 6 -12q24 -31 78 -54q13 -4 35 -8q34 0 79 10q51 9 148 43q77 32 149 74q92 61 127 109l13 12l10 20l2 7l2 10q6 18 6 20q8 34 -2 76 q-19 63 -106 111q-68 36 -162 53q-71 15 -168 22q-93 7 -154 7h-30q-17 -1 -29 10t-14 28v3l-3 110q-4 86 -4 119l-6 88q-1 13 -3.5 32.5t-2.5 26.5q0 11 19 19q0 4 2 4q1 0 3 -1t3 -1q38 10 71 0h2q6 0 20 1t21 1q28 4 45 4l101 12q13 3 51 8l53 11q18 2 49 10q20 3 50 10 l43 12q28 9 36 11q21 7 31 12q12 6 21 12q3 1 7 4.5t5 3.5q32 5 56 -1.5t33 -21t9 -31.5t-14.5 -33.5t-38.5 -26.5h-20q-4 0 -14 -1t-17 -1l-35 -6q-6 0 -41 -5l-47 -6q-15 -4 -49 -8q-38 -5 -51 -8q-9 -1 -27 -4t-27 -4t-26.5 -4t-26.5 -4q-8 -2 -25.5 -5.5t-25.5 -5.5 q-9 -1 -25 -4t-22 -4q-33 -8 -45 -10q-11 -4 -37 -8q-1 -12 -2 -38t-2 -40q-1 -18 -2 -58.5t-2 -60.5l-2 -67q84 -4 147 -11q100 -11 174 -26q107 -25 182 -64q114 -62 142 -155q14 -52 4 -111l-6 -27l-4 -12v-2l-2 -4v-2l-3 -2l-2 -6l-10 -21l-16 -22q-21 -28 -48.5 -53 t-47.5 -39t-54 -37q-45 -29 -157 -84q-85 -37 -158 -54q-55 -13 -105 -16h-4q-30 3 -57 12q-73 24 -121 72q-32 37 -39 68z" />
<glyph unicode="6" horiz-adv-x="876" d="M14 485q-9 112 4 222q7 85 33 190q16 66 47 158l49 116q29 60 41 76q31 46 75.5 55.5t55.5 -23.5t-32 -103q-1 -1 -16 -21.5t-25 -36.5q-32 -54 -53 -102q-36 -83 -52 -142q-29 -100 -39 -178q-13 -110 -8 -204q7 -118 49 -211q18 -44 58 -95q27 -31 69 -59q24 49 76 137 q73 112 115 160q34 43 80 80q59 48 121 53q34 3 75 -14l31 -19l27 -26l20 -23l19 -29q21 -35 26 -67q18 -70 -20 -141q-27 -58 -86 -107q-106 -86 -238 -117q-79 -17 -137 -10q-28 3 -49 12q-22 -48 -23 -51q-15 -51 -28 -76q-21 -33 -43.5 -46.5t-38.5 -8t-28 20.5 t-11.5 39t10.5 47q3 7 16.5 29.5t22.5 39.5q5 9 15.5 27t13.5 24q-59 39 -91 76q-41 47 -71 111q-50 112 -60 237zM360 84q8 -3 27 -8q48 -5 113 8q126 31 205 104q46 36 68.5 83.5t12.5 90.5q-6 26 -18 46l-12 18l-19 23l-16 12q-11 7 -19 10q-21 8 -34 6q-33 -3 -76 -37 q-35 -31 -66 -69q-39 -51 -100 -154q-44 -82 -66 -133z" />
<glyph unicode="7" horiz-adv-x="655" d="M10.5 1290q-5.5 21 12.5 41.5t59 26.5q6 -1 22.5 -2t24.5 -2q40 -4 74 -4q29 2 96 2q25 1 113 10q24 1 70.5 9t56.5 9l8 2l6 2h4q10 -1 18 -3.5t12 -4.5t5 -2q6 -2 12 -2l19 -8q20 -7 20 -31l2 -86v-76q0 -23 -4 -77q-5 -132 -8 -156q-1 -17 -3 -49t-4 -58t-5 -49 q-2 -26 -7.5 -76t-7.5 -75q-5 -36 -14 -142l-12 -133q-6 -63 -9 -116q-4 -70 -4 -97q0 -55 2 -75q0 -11 1 -28t1 -22q0 -44 -32 -61.5t-62.5 2.5t-27.5 64q8 46 8 49q2 13 5.5 40t4.5 38q1 18 6 53t6 45q6 51 15 119l18 131l18 143q1 18 17 150q6 51 14 153q6 76 6 152 q2 27 2 75q0 49 -2 74l-2 55q-2 0 -5.5 1.5t-4.5 1.5q-20 -4 -64.5 -14t-66.5 -13q-23 -2 -63 -8t-56 -8q-84 -9 -98 -11q-13 -2 -39 -4t-37 -4q-9 -1 -25.5 -3.5t-21.5 -2.5q-27 0 -47.5 17t-26 38z" />
<glyph unicode="8" horiz-adv-x="567" d="M10 1049q-3 33 4 61q1 7 9 23l2 4v4l2 2l6 8l10 14q28 30 88 52q63 16 137 20q69 4 86 2q48 -4 63 -37t-7.5 -62t-65.5 -22q-53 7 -76 8q-71 0 -110 -8q-30 -7 -45 -18q0 -2 -2 -4h-2l-5 -15q-5 -10 -2 -26q0 -54 72 -148q49 -63 131 -141l37 76q46 93 74 176 q30 91 35 151q5 59 -9 111q-2 7 -26 63q-28 43 1 76q26 30 63 18q28 -9 46 -40q19 -54 25 -97q11 -73 0 -143q-12 -81 -47 -170q-21 -54 -84 -182q-28 -50 -53 -100q14 -12 39 -37q64 -68 81 -105q30 -61 33 -139q3 -63 -10 -135q-13 -68 -39 -131q-16 -37 -35 -64l-6 -8 l-4 -4v-2h-2l-2 -4l-12 -13q-3 -2 -11.5 -9.5t-15.5 -12.5q-22 -17 -33 -23q-24 -12 -39 -14q-9 -4 -47 -4q-33 10 -43 16q-33 17 -59 60q-17 33 -29 67q-17 66 -10 142q2 22 10 67q4 22 17 64q30 92 94 227l24 47l-2 2q-100 93 -157 162q-43 52 -68.5 97t-30.5 98zM205 164 q19 -67 51 -84q30 -21 80 16q3 2 22 21l15 14l4 6q11 16 26 49q26 68 33 117q11 55 8 119q-3 61 -24 104q-13 29 -70 86q-17 17 -20 21q-8 -15 -15 -25q-60 -119 -92 -215q-42 -129 -18 -229z" />
<glyph unicode="9" horiz-adv-x="608" d="M12 1122q-6 38 6 68q7 24 29 53q50 61 148 115q45 26 135 61q54 21 108 35q50 16 76 19q19 3 31 -25q10 5 26 2q13 -3 21 -14t6 -25l-2 -41q-12 -114 -21 -225l-18 -219q-8 -68 -20 -209l-13 -193q-2 -26 -5 -83.5t-5 -86.5v-254q1 -12 2 -37t2 -34q-3 -61 -34.5 -77 t-61 9.5t-27.5 67.5q0 9 3.5 33.5t4.5 39.5q1 13 4.5 51t4.5 62q2 24 5 74t5 71q3 29 8.5 89.5t7.5 80.5q10 105 21 193q5 53 22 209q3 35 10.5 108t10.5 111q4 52 8 76q-74 -95 -176 -152q-128 -70 -228 -49q-35 7 -61 33q-15 15 -22 33l-5 12l-2 4v2l-2 4zM94 1133l4 -11 l4 -6q9 -9 25 -12q68 -18 170 37q95 55 154 131q32 45 47 78q-9 0 -37 -4q-52 -8 -99 -23q-48 -12 -126 -47q-89 -47 -121 -86q-24 -27 -21 -53v-4z" />
<glyph unicode=":" horiz-adv-x="327" d="M88 190q0 -19 6 -40q11 -22 27 -33q18 -15 43 -15h10q4 2 10 2q10 2 23 9q23 12 29 32q8 18 4 41q0 12 -9 35q-11 22 -18 29q-3 4 -18 14l-15 4q-2 0 -4 2h-10q-15 0 -25 -2q-8 0 -28 -12q-12 -12 -19 -29q-8 -24 -6 -37zM88 657q0 -20 6 -41q10 -21 27 -32 q18 -15 43 -15h10q4 2 10 2q10 3 23 9q23 12 29 32q8 18 4 41q0 12 -9 35q-11 22 -18 29q-3 4 -18 14l-15 4q-2 0 -4 2h-10q-15 0 -25 -2q-8 0 -28 -12q-12 -12 -19 -29q-8 -24 -6 -37z" />
<glyph unicode=";" horiz-adv-x="286" d="M41 92q0 -14 24 -22t51.5 -1t35.5 31q1 3 4 11t4 14q8 15 10 25q3 5 6.5 14t5.5 12l15 29q10 24 12 28q0 1 4.5 11t3.5 16l12 29q2 5 7 28q1 2 6 33q1 18 -19.5 36t-44.5 22t-43 -13q-27 -49 -24 -65v-10.5t0.5 -9t2 -6.5t5 -6.5t10 -6t16.5 -6.5l-6 -27l-10 -25l-10 -22 q-3 -3 -8 -12.5t-9 -14.5l-26 -41l-15 -18l-12 -16q-3 0 -6.5 -7t-1.5 -10zM127 678q6 -26 31 -41q18 -13 55 -16q33 0 57 18q11 32 -2 55t-37 35q-21 12 -47 12q-25 0 -37 -12q-26 -26 -20 -51z" />
<glyph unicode="&#x3c;" horiz-adv-x="1103" d="M10 506q3 13 15 22q13 10 44.5 37t55 44.5t47.5 31.5q3 2 32 21.5t44 27.5l78 43q29 18 82.5 43t68.5 33q28 13 79.5 35t64.5 28l229 99l80 37q13 5 29 13.5t20 10.5q23 8 47.5 6t38.5 -15.5t19.5 -30t-10 -36.5t-50.5 -36l-137 -43l-109 -37l-127 -47q-84 -31 -141 -58 q-13 -6 -66.5 -29t-81.5 -40l-75 -39q-3 -2 -74 -47q-13 -6 -26 -15t-29 -21.5t-23 -17.5q89 -16 96 -18q89 -15 179 -51l41 -21l38 -20q17 -9 72 -47l131 -80l119 -64l182 -94l56 -25q30 -22 40 -44t1 -36.5t-25.5 -25t-39 -9t-40.5 10.5q-6 3 -21.5 15t-25.5 18l-74 49 l-219 133l-129 86q-10 6 -31 22t-34 23l-35 21l-37 18q-75 34 -162 49q-29 6 -176 31h-2q-14 3 -22 14.5t-7 24.5z" />
<glyph unicode="=" horiz-adv-x="878" d="M16 408q-15 -37 6 -68q20 -28 60 -21q2 0 8 3t10 4q3 1 8.5 2.5t11.5 3t11 2.5l37 6l47 6l111 12q36 4 59 4l61 7q12 0 33 1t31 1q10 1 30 2t29 2h58q37 0 53 2q18 -2 49 -2q27 0 39 -2q6 0 17 -1t14 -1l10.5 -3.5t9.5 -2.5q28 0 37 33t-4.5 64t-40.5 25q-6 -3 -18 -6 l-12 -3q-12 -4 -19 -5l-39 -6l-47 -6l-53 -6q-9 -1 -28.5 -2t-29.5 -2l-61 -7q-22 0 -62 -4q-21 0 -61 -4q-42 0 -62 -2q-39 0 -57 -2h-98q-7 0 -21 1t-20 1q-5 0 -15 1t-14 1q-16 4 -20 4q-42 8 -58 -32zM34.5 657q-9.5 -33 4.5 -64t43 -26q2 0 18 8l31 7l37 6q35 5 47 8 q26 0 53 6q18 0 58 4l59 6q21 0 61 4q12 0 33 1t31 1q9 1 29 2.5t30 2.5q40 0 58 2h53q33 0 49 -2q27 0 39 -2q6 0 17 -1.5t14 -1.5l10.5 -3.5t9.5 -2.5q34 0 45.5 34t-4.5 65t-49 24q-2 0 -8 -2.5t-10 -3.5l-31 -6q-26 -4 -39 -8l-47 -6l-53 -7q-18 0 -58 -4l-61 -6 q-22 0 -62 -4q-10 0 -30.5 -1t-30.5 -1q-10 -1 -31 -2t-31 -2h-57q-18 -2 -51 -2h-47q-14 2 -41 2q-13 0 -29 4q-12 0 -20 4q-30 0 -39.5 -33z" />
<glyph unicode="&#x3e;" horiz-adv-x="1097" d="M10.5 958q-4.5 25 12 41.5t39.5 25t47 -4.5q21 -17 47 -35q8 -5 32 -21t41 -26q13 -8 47 -27.5t54 -31.5q31 -17 119 -72q26 -16 131 -84q8 -5 30.5 -21.5t36.5 -23.5l35 -21q15 -5 37 -16q58 -27 162 -49q79 -14 176 -27l2 -2q13 -1 21.5 -12.5t6.5 -26.5 q-3 -11 -12 -20q-15 -12 -45 -38t-54 -44.5t-48 -32.5q-47 -34 -76 -51l-78 -43q-29 -18 -85.5 -46.5t-63.5 -31.5q-24 -12 -72 -32.5t-70 -32.5l-127 -54q-27 -13 -102 -47l-80 -37q-14 -6 -30.5 -15.5t-18.5 -10.5q-19 -7 -38.5 -5t-32 14t-17 27.5t5.5 37t35 40.5 q7 1 25.5 6.5t29.5 8.5l82 28q15 4 51 17.5t58 19.5q83 34 127 49q113 47 139 60q9 4 64.5 29t84.5 42l74 39q5 3 32 21.5t42 26.5q12 7 25 16.5t28 21t23 17.5l-97 16q-99 16 -178 51l-41 19l-39 20q-15 8 -38.5 23.5t-34.5 21.5q-26 17 -77 47.5t-55 32.5q-25 13 -66 35.5 t-52 28.5l-105 51q-16 7 -42.5 20.5t-37.5 18.5l-55 24q-30 20 -34.5 45z" />
<glyph unicode="?" horiz-adv-x="612" d="M10 1030q0 61 41 127q35 54 94 107q62 52 129 86q92 43 175 36q50 -6 94 -47q27 -27 47 -90q21 -82 4 -184q-2 -23 -19 -86q-7 -28 -28 -84q-39 -93 -74 -154q-35 -63 -88 -137q-16 -23 -48 -62t-42 -53q-41 -50 -41 -92q-2 -19 2 -49t8 -47q7 -37 15 -86q4 -54 2 -68 q-7 -69 -43 -88t-63.5 15t-14.5 92q6 25 8 43q0 12 -4 78q-1 9 -2 27t-2 28q0 56 2 64q8 69 65 137q11 13 44.5 49.5t50.5 58.5q51 68 86 127q16 26 71 144l27 75q12 51 16 80q14 84 -4 154q-20 74 -80 80q-51 5 -129 -33q-57 -32 -106 -78t-72 -90q-24 -43 -20 -74 q4 -17 22 -26q4 -4 14 -4q1 -1 4 -1.5t7 -1.5t6 -2q66 -18 83.5 -56.5t-18.5 -60t-98 0.5q-28 7 -63 35q-23 15 -40.5 45.5t-17.5 64.5zM152 -137q6 -26 28 -41q27 -17 58 -17q32 0 57 19q9 34 -4 55q-13 22 -35 35q-24 12 -47 12q-25 0 -39 -14q-24 -24 -18 -49z" />
<glyph unicode="@" horiz-adv-x="974" d="M10 479q3 192 82 342q19 40 53 82q20 24 31 35l37 31q80 67 168 92q90 31 196 15t183 -77q71 -58 117 -161q15 -35 26 -93v-2l2 -6v-6l2 -12l2 -25v-47q-4 -113 -32 -188q-23 -59 -52 -88q-1 -2 -18 -19q-15 -11 -27 -16l-14 -8l-10 -4l-11 -2l-6 -3h-10q-57 -10 -108 19 q-46 32 -66 84q-24 63 -31 153q-36 -53 -84 -98q-70 -62 -121 -84l-43 -12q-42 0 -65 20q-7 7 -11 14.5t-6.5 15t-3 12t-1.5 12.5t-1 10q0 22 7 39q7 28 22 61q11 24 25 49q9 18 19.5 32.5t25.5 31t20 22.5q25 29 62 62q47 38 61 45q17 10 37 16q33 9 61 -2q19 -11 27 -22 h16q15 -3 25 -15.5t10 -27.5q-4 -107 -2 -156q0 -84 23 -149q13 -32 35 -48q19 -13 57 -10q3 0 16 3.5t13 6.5q10 3 22 19q20 20 37 63q26 70 29 164v41l-2 23v14l-3 2q-12 60 -24 82q-29 78 -94 131q-62 50 -147.5 62.5t-162.5 -13.5q-71 -21 -143 -80l-31 -26l-28 -31 q-5 -7 -13.5 -20.5t-15.5 -24.5t-12 -23q-70 -137 -70 -307q3 -178 80 -266l10 -12l10 -11l27 -24q8 -4 24 -14.5t27 -14.5q29 -15 113 -33q100 -8 213 21q92 27 151 65q11 6 29 18t23 15q7 6 18 16.5t16 14.5q54 49 101 38q34 -8 33 -44q-2 -41 -56 -90l-47 -31l-63 -35 q-70 -37 -181 -65q-129 -29 -249 -13q-92 16 -140 43q-15 6 -39 23.5t-30 21.5l-27 25l-6 6l-6 4l-4 4l-13 17q-94 114 -94 321zM289 481q40 16 92 62q49 43 86 98q28 38 43 80q-3 1 -8.5 2t-7.5 2v-14l-11 -9q-15 -6 -45 -26q-48 -42 -55 -49q-40 -39 -53 -62 q-5 -8 -25 -43q-11 -24 -16 -41z" />
<glyph unicode="A" horiz-adv-x="874" d="M10 104q0 30 31 37q17 60 25 97q0 2 13 67t21 101l19 100q-11 0 -15 -2l-28 -6q-18 -9 -21 -9t-13 7t-20.5 20.5t-11.5 26.5q-1 15 7.5 32t18 27t13.5 10q1 0 8 -2t11 -2q4 -1 14.5 -2t15.5 -2l41 2q18 90 49 230q6 23 18 74.5t23 92t23 78.5q5 16 18.5 59.5t22.5 67.5 l49 127q12 31 27.5 64.5t37 78t31.5 64.5q6 14 19.5 19.5t27.5 -0.5q13 -5 21 -21v-2l16 -45q8 -21 23.5 -65t23.5 -66q9 -25 21.5 -71.5t17.5 -61.5q3 -14 15.5 -59.5t17.5 -71.5l27 -131q11 -51 26 -144.5t17 -105.5q0 -7 4 -27l20 8q25 10 29 11q3 2 9 5.5t9 4.5 t16.5 -4.5t28.5 -17.5t19 -25q4 -14 -4 -32t-17.5 -29t-13.5 -11q-1 0 -8 1t-12 1t-16 -1t-17 -1q-4 -1 -15 -2t-16 -2q12 -74 16 -111l33 -204q4 -22 11 -57t12.5 -62t9.5 -49q5 -30 17.5 -77.5t13.5 -51.5l24 -82q5 -23 -15 -49t-51 -25.5t-53 43.5q-4 9 -6.5 22t-4 33 t-3.5 33q-1 8 -9.5 56.5t-12.5 78.5q-7 64 -25 174q-3 34 -12.5 104t-12.5 101q-8 74 -14 111q-5 -1 -15.5 -2t-15.5 -2q-8 -1 -28 -4.5t-31 -4.5q-10 -2 -30.5 -5t-30.5 -5q-28 -3 -64 -10q-46 -5 -63 -8q-10 -1 -31 -4t-31 -4q-8 -2 -28.5 -5.5t-30.5 -5.5l-35 -4 q-3 -25 -11 -69.5t-10 -61.5l-26 -170l-21 -131q-4 -32 -4 -37q-2 -25 -18.5 -45.5t-38.5 -19.5q-25 0 -49 43l-2 8q-15 29 -17 41q-4 24 -4 26zM225 604h15l118 12q34 3 62 9q22 2 61 10l62 12q9 2 27.5 5t27.5 5q15 2 37 11q0 13 -4 37q-33 221 -39 249l-25 127 q-3 19 -8 40.5t-12 48t-10 40.5q-33 120 -37 129l-33 93q-44 -91 -57 -125q-24 -61 -45 -123q-10 -25 -39 -125q-16 -51 -60 -242q-19 -86 -41 -213z" />
<glyph unicode="B" horiz-adv-x="1251" d="M9.5 75.5q-1.5 32.5 20.5 58.5t48 18q63 -22 104 -31q78 -13 117 -17q0 1 1 2.5t1 2.5q5 21 12 63l17 82q1 8 6.5 42t7.5 54l18 111q2 17 4.5 37t6.5 44.5t6 39.5l18 125q6 45 9 86q-7 -1 -25.5 -4.5t-28.5 -4.5q-35 -12 -37 -12q-15 -4 -45 -8q-15 -2 -27.5 8t-13.5 25 t7 26.5t22 14.5h2q21 5 70 14q44 15 84 33l6 80q1 22 4 63.5t4 61.5l6 120l6 113q5 96 6 100q1 7 2.5 22.5t2.5 22.5l-31 -20q-16 -11 -31 -24t-28 -25.5t-17 -16.5q-13 -12 -30.5 -12.5t-32.5 11t-25.5 26t-10 32.5t14.5 31q45 39 102 72q47 28 95 47q0 15 2 19 q0 10 24 11.5t49 -5.5q2 2 5 2q73 18 143 18q53 0 104 -10q83 -18 138 -49l16 -8l2 -2l29 -21l18 -14q31 -27 51 -76q12 -35 12 -70q0 -55 -30 -110q-36 -67 -102 -137q-110 -113 -271 -211q-11 -7 -31.5 -19.5t-21.5 -13.5q96 10 180 10q100 0 182 -14q113 -22 183 -70 q47 -40 69 -78q29 -55 31 -98q1 -12 1 -25q0 -67 -30 -159l-16 -41v-4l-4 -4l-2 -4l-4 -11l-10 -18q-17 -34 -19 -37l-29 -37q-94 -122 -262 -199q-124 -57 -274 -84q-146 -20 -226 -20h-14q-80 0 -186 12q-100 16 -121 23q-32 8 -33.5 40.5zM410 100q69 0 165 13 q142 21 254 69q151 65 234 168l20 29q9 12 21 35l10 18l4 8l4 6v3l15 36q27 74 27 133q0 10 -1 19q-6 73 -69 121q-57 40 -152 57q-78 14 -174 14q-81 0 -176 -10q-37 -2 -111 -14l-4 -43l-8 -66q-2 -22 -7 -64t-7 -63t-7.5 -60t-7.5 -58q-8 -81 -10 -111q-2 -15 -5 -49 t-5 -51l-6 -82q-1 -10 -2 -29.5t-2 -28.5zM492 924q54 28 114 65q153 99 254 203q61 68 86 119q19 39 19 73q0 21 -7 39q-12 28 -30 41l-8 9l-15 10l-14 8l-4 2l-6 4q-39 21 -113 37q-37 6 -74 6q-67 0 -131 -20q0 -2 -4 -2l-6 -29q-1 -7 -4 -23t-5.5 -30t-4.5 -27 q-5 -26 -13 -96l-12 -109q-8 -71 -10 -119q-2 -21 -5 -63.5t-5 -63.5q0 -6 -1 -17.5t-1 -16.5z" />
<glyph unicode="C" horiz-adv-x="917" d="M10 432q0 -58 13 -125q28 -145 112 -223q42 -42 109 -66q59 -18 107 -18h14q21 0 57 4l27 6l14 2l12 4q44 11 100 31q104 41 168 100q74 64 93 152q5 31 6 60q0 41 -11 81q-2 12 -8.5 28.5t-7.5 20.5q-6 22 -16 35q-16 27 -37 38t-38 4.5t-30 -21t-13 -37t13 -45.5 q14 -21 15 -23q2 -4 8 -14.5t8 -17.5q12 -29 12 -64q0 -13 -2 -27q-6 -52 -55 -104q-55 -52 -137 -86q-48 -21 -88 -31l-13 -4l-10 -2l-24 -4l-48 -6h-9q-34 0 -83 12q-49 17 -82 47q-69 63 -92 183q-10 58 -10 108q-1 10 0.5 31t1.5 28q0 2 2 24t4 34q9 82 43 227 q20 83 68 217q47 121 88 195q51 100 104 164q59 68 121 106q57 35 119 35h6q29 0 84 -18q30 -15 53 -33q45 -27 82 -27h10q38 4 38 39v6q-4 42 -66 86q-19 13 -78 33q-70 15 -114 15q-11 0 -21 -1q-84 -7 -162 -55q-74 -51 -137 -133q-58 -75 -111 -180q-39 -75 -88 -205 q-40 -118 -68 -225q-33 -144 -45 -238l-6 -61q0 -10 -1 -30t-1 -32z" />
<glyph unicode="D" horiz-adv-x="1171" d="M18 117q-9 15 -9 29q0 18 14 34l4 6l4 4q5 7 16 21.5t20 25.5t15 17q21 18 45 -1.5t36 -50t3 -38.5q-3 -2 -7 -5.5t-9.5 -8.5t-10.5 -9q10 -10 33 -20q48 -28 129 -31q17 0 27 2q-2 12 -2 37q-6 49 -9 109l-6 120q-1 19 -4 63t-4 68l-6 138l-6 139l-6 141l-6 137l-7 130 q-1 23 -4 62.5t-4 57.5q-4 74 -4 107q-2 4 -2 12q-1 0 -3 1t-3 1q-32 4 -47 4q-16 1 -42 1t-34 1q-31 4 -51.5 19.5t-23.5 34.5t3.5 36.5t30.5 27.5t57 5q39 -10 72 -14l33 -6q0 6 -1 16.5t-1 15.5q-1 9 -4.5 23.5t-3.5 19.5q0 35 28 58t58 10t36 -65q0 -10 -4 -46t-4 -67 l129 -49q23 -10 81 -33.5t91 -38.5q139 -68 187 -98q19 -10 94 -66q8 -5 47 -39l23 -18l24 -25q18 -25 35 -45q6 -9 17.5 -28.5t17.5 -28.5q1 -2 10.5 -24.5t15.5 -34.5l19 -62q16 -67 16 -139q0 -57 -10 -117q-25 -132 -88 -240q-65 -115 -164 -188q-95 -68 -203 -117 q-94 -41 -202 -71l-54 -13l6 -26q10 -27 13 -41q3 -17 3 -31q0 -36 -20 -52q-15 -12 -32 -12q-14 0 -30 8q-34 18 -40 58q-1 5 -1 21t-1 26q-1 5 -2 17t-2 18q-5 0 -16.5 -1t-16.5 -1q-103 0 -172 31q-69 28 -111 88zM350 1296q0 -77 2 -118q0 -86 2 -131q0 -44 4 -138 q4 -90 4 -139q6 -69 9 -139q4 -47 8 -137l12 -129q2 -19 5 -59.5t5 -61.5q9 -56 15 -105l6 -39q14 2 51 11q81 16 191 61q101 41 190 104q84 62 145 164q60 104 80 215q8 53 8 103q0 65 -14 125q-2 9 -8 26.5t-8 26.5l-23 49q-5 7 -14 22.5t-14 22.5q-17 20 -35 45 q-8 6 -22.5 19t-16.5 14q-40 34 -41 35q-13 8 -43 28t-47 29q-88 52 -180 88q-59 27 -168 64l-101 34q-2 -29 -2 -90z" />
<glyph unicode="E" horiz-adv-x="1200" d="M13 808q13 34 48 34q3 0 10 -1t11 -1q10 -2 33 -2h14q-1 15 -2 42t-2 42q-2 59 -2 172q0 104 4 153q3 59 12 111q-5 0 -12 -1t-8 -1q-7 0 -8 30.5t4 61t12 29.5q3 0 12 -3t15 -4q4 -2 14 -2q1 1 2.5 7.5t3.5 9.5q22 53 62 76q5 2 10 2q22 1 38 -43q11 -31 11 -50 q0 -14 -6 -20q12 0 18 -2q25 -2 72 -2q12 0 37 -1t39 -1h80q14 1 41 2t42 2q26 0 84 4l158 12q35 3 72 9q44 4 63 8q37 4 54 8l41 6q24 8 26 8q7 1 14 1q32 0 48 -24q11 -16 12 -33q0 -13 -7 -28q-15 -33 -57 -39q-2 0 -11.5 2t-16.5 2q-10 2 -41 2q-24 3 -53 3 q-30 -3 -66 -3q-11 0 -35 -1t-37 -1q-25 -2 -78 -2q-13 -1 -40 -2t-41 -2q-15 -1 -43.5 -2t-42.5 -2t-42 -2t-42 -2q-55 0 -84 -2q-14 0 -40 -1t-38 -1q-35 -3 -56 -3q-11 0 -18 1h-59q0 -6 -2 -8q-11 -45 -21 -117q-9 -67 -12 -147q0 -26 -1 -82.5t-1 -85.5q2 -29 2 -84 q8 1 24.5 2t24.5 2q9 1 29 2t30 2l125 12q22 4 64 8q11 1 32 4.5t29 4.5q11 1 31.5 4t28.5 4q9 1 27.5 4t27.5 4q12 3 47 8q2 1 39 8q4 1 11 3.5t12.5 4t9.5 3.5q4 1 10 3.5t8 2.5q28 9 50 9q35 0 57 -23q16 -17 16 -36q0 -13 -8 -27q-24 -44 -103 -44q-4 0 -20 4h-33 q-19 3 -41 0h-49q-8 -1 -26 -2t-27 -2q-10 -1 -30 -2t-30 -2l-124 -13q-12 -1 -33.5 -4t-30.5 -4q-41 -4 -63 -8l-58 -8q-9 -1 -27.5 -4t-27.5 -4q0 -13 2 -17q4 -130 8 -194q2 -34 5 -101t5 -100q1 -18 4 -89.5t3 -111.5q0 -39 -3 -80l13 3l94 18q62 12 92 14q32 3 90 10.5 t82 10.5q38 4 152 14l127 12q16 2 49.5 6t48.5 5l66 8q8 1 15 1q38 1 58 -25q13 -17 13 -35q0 -14 -8 -29q-19 -33 -72 -33q-8 -1 -30.5 0.5t-35.5 1.5h-98q-33 0 -127 -4q-130 -6 -152 -8q-80 -6 -168 -15q-42 -3 -90 -12q-26 -4 -90 -16l-65 -10h-2q-15 -3 -27.5 5.5 t-15.5 22.5v15q10 44 10 120q0 97 -6 199q-2 33 -5.5 99.5t-5.5 99.5l-12 194v4q-1 0 -4.5 -1t-5.5 -1q-7 -1 -17 -4t-14 -4q-16 -8 -18 -8q-7 -1 -13 -1q-28 0 -43 24q-10 18 -10 37q0 13 5 27z" />
<glyph unicode="F" horiz-adv-x="929" d="M12 1459q-3 14 -3 26q0 26 14 45q12 17 32 14q1 0 8 -2t13 -2l33 -6q15 0 43 -4q22 0 32 -2q5 26 16 41.5t24.5 18.5t26.5 -1.5t22.5 -17t11.5 -27.5q2 -4 2 -16q12 2 39 2q10 0 31.5 1t33.5 1q46 4 68 4l200 18q10 1 30 2t30 2l51 7q32 4 45 4l35 6q2 1 10 3.5t12 2.5 q31 5 42 -27q5 -15 5 -30q0 -18 -7 -36q-13 -33 -40 -28q-2 0 -22 4q-16 4 -33 4q-6 1 -21 2t-22 2q-24 0 -51 3h-59q-11 -1 -32.5 -2.5t-31.5 -2.5q-12 0 -34 -1t-34 -1q-46 -4 -67 -4l-70 -6q-27 0 -67 -4q-10 -2 -29 -2q2 -4 2 -8q10 -70 12 -148q1 -45 1 -96v-78 q-1 -57 -1 -100v-49q42 5 118.5 10t140 13t118.5 24q9 2 16 2q34 0 46 -33q5 -13 5 -26q0 -22 -15 -42q-18 -23 -48 -24q-87 5 -127.5 5t-128 -4t-127.5 -5q-3 -67 -4 -136v-47q0 -47 1 -96q2 -74 4 -128.5t7 -134t7.5 -116.5t8.5 -118q7 -95 7 -102q0 -43 -30 -62 q-16 -10 -32 -10l-30 9q-31 18 -31 66q26 198 27 440v39q0 217 -10 388q-7 -1 -20 -2t-19 -2q-23 -3 -37 -9l-27 -6q-4 -1 -10 -3.5t-8 -2.5q-5 -1 -10 -1q-30 0 -42 36q-6 17 -6 32q0 20 11 37q14 22 41 17q2 0 18 -4q3 0 13 -1t16 -1q10 -2 34 -2q7 0 22.5 -1t23.5 -1h4 q0 94 -17.5 254.5t-19.5 191.5q-4 18 -8 27q-7 -1 -21.5 -2t-21.5 -2q-19 0 -43 -4t-33 -4q-5 -1 -12.5 -4t-10.5 -3q-31 -5 -41 36z" />
<glyph unicode="G" horiz-adv-x="1067" d="M10 403q3 61 13 138q6 69 18 133q23 129 65 260q41 123 97 233q65 124 135 199q77 86 180 125q60 25 130 25q30 0 61 -5q57 -8 137 -43q62 -27 82 -41q53 -37 53 -81q0 -37 -35 -44q-6 -2 -14 -2q-32 0 -74 27q-44 33 -61 43q-71 34 -107 41q-29 7 -59 7q-41 0 -82 -13 q-80 -25 -150 -98q-70 -70 -125 -177q-56 -104 -96 -221q-38 -113 -63 -247q-12 -64 -21 -132q-10 -107 -10 -129v-32q0 -137 31 -219q19 -60 59.5 -95.5t95.5 -36.5q5 0 17.5 -1t21.5 -0.5t17 3.5q6 1 25.5 5t27.5 6q18 7 29 10l24 12l47 29q90 58 160 145q6 8 53 78 q6 9 16.5 29t12.5 24h-176q-39 1 -56 36q-7 15 -7 28q0 20 16 36q24 21 71 21q267 0 396 -14q40 -4 70.5 -28t18.5 -48.5t-79 -28.5q-52 0 -92 1t-58 1v-40q1 -7 2 -21.5t2 -21.5q1 -16 6.5 -45.5t6.5 -32.5q8 -46 26 -127l21 -82q4 -14 4 -27q0 -26 -17 -43 q-19 -19 -42 -19q-10 0 -20 3q-36 12 -44 59q-2 10 -5.5 39.5t-6.5 48.5l-17 133q0 11 -4 31q-18 -29 -32 -43q-79 -95 -183 -160q-1 -1 -22 -13.5t-35 -18.5l-31 -15q-5 -2 -15.5 -5t-15.5 -5q-59 -15 -112 -15q-14 0 -27 1q-5 -1 -11.5 0t-14 3t-11.5 3t-17 4t-20 6 l-34 16q-4 3 -9.5 7t-12 9.5t-9.5 8.5q-57 51 -80 125q-35 98 -35 247v31z" />
<glyph unicode="H" horiz-adv-x="874" d="M12 -109q1 3 8.5 17t10.5 24q9 31 18 70q2 11 10 42.5t11 49.5q2 10 9.5 50t10.5 63l19 127l18 139q3 25 8 75.5t8 72.5q2 18 5.5 52.5t5.5 51.5h-7q-28 0 -38 -2q-7 0 -17 -1t-14 -1q-20 -4 -21 -4q-5 -1 -9 -1q-27 0 -35 36q-3 12 -3 23q0 26 15 48q14 19 34 15 q3 0 10.5 -3t10.5 -4q22 -5 33 -8l39 -6h10q1 18 4 52t4 51q2 24 5 73t5 74q4 94 8 139q1 20 2.5 62.5t2.5 64.5q0 14 0.5 37.5t0.5 41.5t-1 34v94q-5 71 -5 72q-1 14 -8 47q0 38 30 64q20 17 39 17q11 0 21 -5q30 -14 33 -74q0 -7 -4 -47l-6 -74l-6 -96q-2 -20 -6 -62.5 t-5 -52.5q-1 -19 -4 -62t-4 -67l-12 -139l-12 -148q-1 -17 -4 -52t-4 -54q3 0 9 -1t9 -1l119 -12q20 -2 61 -2q34 0 64 -3h59q20 0 41 3v28q2 45 2 133q2 45 2 131v238q-1 18 -2 51.5t-2 50.5q-4 62 -4 84l-6 66q-1 6 -3.5 20.5t-2.5 20.5q0 42 31 58q15 7 29 7q16 0 32 -9 q30 -17 31 -54l-7 -43q-1 -9 -2 -31t-2 -33q-1 -14 -2 -42.5t-2 -43.5q0 -15 -1 -48t-1 -52l-6 -115q0 -39 -4 -125q0 -45 -4 -131q0 -23 -1 -68t-1 -67v-20l43 6l39 6l30 6q4 1 10.5 3.5t8.5 2.5q6 1 12 1q35 0 46 -37q4 -13 4 -25q0 -24 -15 -43q-16 -21 -41 -17 q-2 0 -5 1t-7.5 2t-8.5 2t-14.5 2t-15.5 2q-25 0 -39 2h-51v-29q0 -23 -1 -66.5t-1 -64.5q-2 -43 -2 -125q0 -21 -1 -60t-1 -57v-102q0 -59 2 -86q0 -48 2 -66q1 -8 2 -24t2 -21q-5 -44 -20.5 -67.5t-33 -24t-34.5 10.5t-27 35.5t-8 51.5q0 7 8 43l6 66q1 8 4 37.5t4 48.5 q3 47 9 102l6 115l6 125q0 41 4 131v27q-5 1 -17 1t-18 1q-10 0 -30.5 1t-30.5 1q-23 2 -66 2q-20 2 -63 2q-40 4 -62 4q-10 0 -29.5 1t-29.5 1h-21q-2 -18 -5 -56.5t-5 -56.5q-2 -25 -7 -74t-7 -73t-7.5 -71t-7.5 -68q-8 -85 -14 -129l-12 -117l-12 -96q-5 -35 -13 -76 q-1 -10 -8 -53q-7 -37 -41 -53q-13 -6 -25 -6q-19 0 -35 14q-19 17 -19 51q0 14 3 30z" />
<glyph unicode="I" horiz-adv-x="212" d="M10 911q2 -43 2 -129l6 -129q3 -66 9 -127q1 -21 4 -61t4 -59q1 -10 6 -50.5t6 -60.5l12 -98q11 -77 11 -82q3 -18 8 -64q1 -9 1 -23.5t1 -19.5q8 -46 42 -71q17 -13 33 -13q15 0 28 12q20 18 20 65q0 16 -2 34l-15 39l-16 61q-19 72 -20 78q-3 13 -5.5 28.5t-6 34.5 t-5.5 31q-17 99 -18 109l-13 116q-6 42 -10 125l-6 127q0 86 -2 127q0 43 4 125t4 117q2 39 10 109q10 83 11 94l10 80q6 36 12 61q1 13 8 39q2 11 2 21q-1 35 -23 51q-15 11 -31 10q-15 0 -31 -8q-34 -18 -37 -62q-1 -4 0.5 -18t1.5 -21q0 -38 -2 -63q0 -11 -1.5 -38 t-1.5 -42q-1 -16 -2 -48.5t-2 -49.5q0 -33 -4 -111v-119q-2 -41 -2 -127z" />
<glyph unicode="J" horiz-adv-x="649" d="M10 -176q2 121 88 258q50 80 144 182q15 17 75 82q-12 82 -16 123q-3 22 -15.5 120.5t-19.5 149.5q-31 220 -35 248l-16 105l-27 184q-3 18 -22 139q-3 15 -7.5 35t-7.5 33t-4 22q-2 16 -2 30q0 49 22 75q16 19 33 19q14 0 28 -11q34 -26 40 -98q3 -28 6 -90 q10 -102 13 -144q17 -151 20 -184l8 -103l31 -249l31 -273q5 -46 8 -63q4 4 16.5 16t25.5 24.5t24 24.5t30.5 38.5t28.5 33.5q39 29 71.5 34.5t47 -8.5t8.5 -44t-35 -64q-21 -23 -72 -68l-88 -71q-14 -12 -43 -41q1 -16 4.5 -49t4.5 -50q4 -49 13 -147t13 -147l2 -39 q0 -6 1 -17.5t1 -17.5l6 -74q2 -19 2 -42q0 -17 -1 -37q-3 -46 -19 -85q-11 -25 -27 -41l-16 -16l-16 -12q-37 -25 -86 -31h-15q-84 0 -145 61q-35 35 -51 68q-60 99 -60 201v10zM90 -178v-10q0 -80 47 -160v-2l2 -2q12 -24 35 -47q40 -43 93 -43h7q30 4 50 18q2 1 7 4.5 t7 5.5l2 2q2 2 2 0v2l4 4q9 9 12 21q14 32 14 97q0 15 -1 32l-6 72v39l-5 36l-24 293l-6 39l-23 -22q-75 -75 -137 -166q-75 -111 -80 -213z" />
<glyph unicode="K" horiz-adv-x="907" d="M10 1546q-2 22 12 39.5t35 18.5q19 1 34 -9.5t20 -27.5l2 -4q5 -21 12 -43q1 -5 3.5 -15.5t2.5 -13.5q4 -12 4 -16q0 -14 -24 -17v-33q0 -16 -1 -50.5t-1 -53.5q0 -18 -1.5 -57t-1.5 -60q0 -20 2.5 -62.5t2.5 -64.5l6 -135q4 -43 8 -137v-6l51 53q8 9 30.5 35t37 43.5 t26.5 36.5q18 20 45 55q18 30 39 57q30 44 68 111q25 38 57 100q29 50 45 86q18 32 33 66l18 45q24 41 62 41q37 0 51 -30q5 -12 6 -27q0 -20 -12 -44q-3 -4 -7 -10t-10.5 -14t-11.5 -14q-4 -8 -10.5 -18t-15.5 -23.5l-15 -22.5l-116 -180q-11 -16 -36.5 -53.5t-39.5 -57.5 l-43 -57l-45 -57q-18 -24 -55.5 -65.5t-45.5 -51.5l-34 -37q58 -16 122 -49q59 -30 136 -82q50 -36 114 -92l52 -47l47 -47q26 -26 82 -91q8 -11 21.5 -28t23 -30t16.5 -24q7 -9 17 -23t17.5 -24t12.5 -18q22 -33 29 -47q8 -22 8 -42q-1 -16 -5 -32q-11 -34 -45 -34h-3 q-37 2 -66 57q-3 5 -7.5 20.5t-8.5 24.5q-9 20 -33 63q-10 20 -51 80q-24 35 -72 90q-24 28 -41 45l-47 47q-57 54 -106 90q-58 43 -123 78q-67 36 -135 51l-21 5q0 -7 1 -20.5t1 -20.5q2 -22 5 -68t5 -68q1 -18 5 -62t4 -67l6 -118l6 -107q1 -6 2 -18.5t2 -18.5 q14 -7 14 -12q0 -7 -2.5 -22.5t-3.5 -22.5q0 -4 -1 -13t-1 -14v-12q-3 -22 -19 -35t-38 -12q-21 1 -35 16.5t-14 36.5q0 8 -1 19t-1 14l-7 45q0 7 13 10v260q0 39 -4 129q-3 67 -9 136q-4 94 -8 137q-4 94 -8 139q-4 94 -8 135q-1 24 -4 67t-4 62q0 41 -4 119q-1 16 -2.5 51 t-2.5 53q-2 12 -2 35q-4 4 -4 8q0 11 2 19v2q0 4 -1 12t-1 12q0 7 -1 18t-1 15z" />
<glyph unicode="L" horiz-adv-x="567" d="M10 1561q0 42 37 67q18 12 33 12q14 0 26 -11q16 -16 16 -51q0 -9 -1 -19l-10 -111l-7 -105q0 -34 -4 -124q2 -45 2 -142l7 -153q0 -80 6 -162q2 -53 10 -168q8 -109 10 -166q9 -82 15 -162l12 -155l4 -56q11 1 31 4t28 4l99 27l79 23q13 5 31.5 10t22.5 6q20 3 37 3 q26 0 42 -8q26 -14 22 -38t-26 -47.5t-53 -30.5q-7 -1 -25.5 -2t-27.5 -2q-10 -1 -36.5 -6t-43.5 -6q-50 -4 -104 -15q-24 -4 -68 -8l-43 -4q-15 -3 -28.5 7.5t-14.5 27.5v2l-6 102q-1 25 -4 77t-4 79l-13 164q-2 57 -10 166q-2 27 -5 83.5t-5 84.5q-3 31 -6 87.5t-4 74.5 q-4 103 -8 155q-3 77 -9 144q0 23 -1 65.5t-1 61.5q0 32 -1 100t-1 115z" />
<glyph unicode="M" horiz-adv-x="1474" d="M12 1163q1 5 11.5 24t15.5 30q7 12 21.5 39t19.5 36q25 40 55 105q15 34 39 53l19 12q20 10 24 11q12 7 36.5 5t41.5 -14q24 -15 39 -51q9 -23 12 -43q0 -10 2 -14q37 67 84 100q33 20 64 20q12 0 24 -3q36 -7 74 -41q21 -22 39 -51t33 -69t23.5 -65.5t23 -75.5t18.5 -63 q29 -98 78 -322q27 -122 70 -352q0 -6 2 -10q0 57 2 86q3 197 18 387q20 255 49 381q14 55 31 92q16 32 37 47q12 8 18 10l6 3h5v2h10q12 0 22 -5l19 -10q8 -7 15.5 -15t12 -13.5t10 -15t7.5 -13.5l7.5 -15t6.5 -14q22 -53 31 -86q28 -92 80 -325q39 -201 57 -287 q19 -107 49 -242q24 -110 45 -182q15 -49 41 -113q5 -11 5 -21q0 -23 -27 -42q-14 -12 -37 -5.5t-31 31.5q-15 39 -35 127q-27 114 -39 189q-21 108 -45 243q-7 45 -30.5 142t-32.5 147q-11 58 -40 178.5t-36 151.5t-20.5 43t-26 3.5t-16.5 -30.5q-14 -70 -18.5 -202.5 t-6.5 -157.5q-8 -127 -16 -385q-1 -26 -1.5 -76.5t-1.5 -85.5t-3.5 -81.5t-9 -78t-17 -61.5t-28 -46t-40.5 -18h-9q-30 -1 -52 17q-25 20 -39 62.5t-21.5 81.5t-15.5 97t-14 87q-22 102 -40 198t-42.5 227.5t-46.5 247.5q-7 28 -20 75q-33 124 -48.5 157.5t-52.5 40.5 q-16 3 -33 -9q-29 -18 -55 -75q-32 -65 -49 -166q-9 -55 -9 -113q0 -1 -1 -3.5t-1 -4.5v-10q6 -85 9 -168q4 -58 4 -86q0 -55 -2 -84q-1 -19 -1.5 -78.5t-2.5 -89.5q-2 -29 -7.5 -81.5t-7.5 -76.5q-4 -56 -16 -143q-2 -25 -7.5 -68t-7.5 -59q-1 -20 -4 -51.5t-4 -40.5 q-3 -24 -22 -39t-43 -12q-35 3 -49 34l-4 13l-5 10q-4 6 -8 18q-1 3 -4 9.5t-4 9.5q-4 7 -10 19l-8 16l-17 30q-5 10 -10 25q-5 17 25.5 29t70.5 16q2 9 5 27.5t5 27.5q17 91 21 141q3 22 10 73.5t10 78.5q2 28 7 162q0 13 1 40t1 42q0 26 -4 84q-1 27 -4.5 83.5t-4.5 84.5 q-4 54 -4 82q-1 14 -2 40.5t-2 40.5q0 107 -4 154q-4 49 -8 66q-3 12 -6 18q-2 0 -4 -2q-16 -16 -31 -37q-31 -47 -45 -84q-18 -39 -27 -71q-2 -8 -4 -24t-4 -22q-8 -26 -40.5 -36t-58.5 9q-20 15 -20 43q0 9 2 19z" />
<glyph unicode="N" horiz-adv-x="946" d="M10 1198q3 43 35 125q26 64 82 92q7 4 21.5 8t15.5 4q9 0 18 3h25l2 -3h2l6 -2l10 -2q27 -16 33 -22q18 -21 23 -37q7 -16 11.5 -32.5t5.5 -23t3 -29.5t2 -28q10 33 31 72q14 28 33 47q2 1 5.5 4.5l5.5 5.5t6 5t6.5 5t6.5 4.5t8 4l8 3t9 2.5t10 1l4 2h11l6 -2q6 0 14 -2 q14 -3 23 -8l14 -11q23 -18 41 -47q6 -10 11.5 -20.5t10 -22t8 -20t7.5 -21.5l6 -19.5t5.5 -21.5t5 -19.5t5 -21.5t4.5 -20q15 -67 31 -182q1 -11 39 -336q20 -216 33 -297q22 -144 69 -207q12 21 23 68q4 23 5 62t5 54q6 24 23.5 42.5t37.5 24.5t37.5 -12.5t22.5 -62.5v-9 q0 -35 -25 -124q-16 -60 -39 -98q-13 -22 -22 -31q-22 -22 -51 -27q-30 -5 -60 15q-16 10 -32 30q-33 44 -56 125q-5 13 -10.5 36t-7.5 30q-9 62 -10 72q-15 120 -29 301q-16 206 -31 333q-18 127 -28 177q-23 109 -54 163q-10 18 -20 27q-1 0 -3 1t-3 1v2q-7 0 -11 2h-2 q-7 0 -20 -13t-21 -30q-34 -64 -59 -174q-24 -105 -39 -213q-1 -15 -2 -43t-2 -43q-11 -144 -27 -336q-22 -325 -24 -362q0 -13 -1 -40t-1 -40h-2q0 -15 -11 -26t-26 -11t-26 11t-11 26h-2q0 136 10 303q8 184 31 395q1 14 2 42.5t2 43.5q5 121 5 216q0 41 -1 77 q0 49 -8 127q-3 88 -31 88h-3q-18 -3 -30 -25l-2 -6q-10 -31 -10 -100q0 -19 -16 -35q-15 -15 -41 -18q-26 -4 -43 8q-23 15 -23 45z" />
<glyph unicode="O" horiz-adv-x="800" d="M12 684q-2 32 -2 65q0 87 15 185q19 93 26 113q4 19 17 53q13 36 20 49q6 20 24.5 53t20.5 37q17 27 41 59l-18 7q-48 16 -59.5 49.5t19.5 55.5q18 13 46 13q19 0 41 -6l55 -28l115 81q40 20 64 20q5 0 10 -2q25 -6 20.5 -37t-39.5 -67l-66 -55q173 -85 254 -174 q45 -50 75 -95t59 -126t38 -180q3 -30 2 -62q0 -100 -26 -214q-35 -150 -90 -253q-51 -95 -99 -141q-64 -64 -139 -80q-22 -4 -43 -4l-43 4q-38 10 -76 37q-58 40 -104 117q-14 24 -36.5 69.5t-29.5 57.5q-4 11 -15.5 41t-18 51t-11.5 41q-37 124 -47 266zM92 688 q7 -136 41 -248q4 -19 11 -40t16 -47t14 -40q38 -83 59 -118q39 -63 82 -95q39 -27 80 -26q14 0 27 2q91 20 180 184q103 194 103 372q0 73 -17 144q-26 102 -60.5 174.5t-88.5 127.5t-113 93.5t-154 85.5l-10 -10q-4 -6 -14 -17.5t-18.5 -22t-14.5 -21.5q-3 -5 -14 -21.5 t-17.5 -29t-11.5 -25.5q-16 -31 -20 -43q-3 -7 -8.5 -22.5t-8.5 -22.5q-7 -20 -26 -102q-18 -107 -18 -194q0 -19 1 -38z" />
<glyph unicode="P" horiz-adv-x="829" d="M12.5 1617.5q8.5 32.5 22.5 33.5h47q20 2 76 2h32q-4 16 -4 18q4 22 22 34.5t39 12.5t39.5 -11t22.5 -30q1 -4 -0.5 -15t-1.5 -17q29 -3 64 -9q67 -13 129 -39q13 -5 35 -16t30 -14q51 -31 64 -41q51 -38 106 -115q5 -11 19.5 -33.5t19.5 -36.5l8 -18l4 -10l2 -4v-6l3 -3 l10 -34q8 -25 10 -37l6 -41q3 -13 3 -26.5t-1.5 -30.5t-1.5 -27q-11 -93 -53 -152q-32 -53 -100 -110q-62 -49 -113 -74q-66 -34 -109 -51q-10 -3 -34 -12.5t-37 -12.5q6 -41 14 -112q3 -19 8 -63t8 -66q2 -22 7.5 -62.5t7.5 -56.5q4 -25 14 -107q4 -21 14 -88q4 -26 13 -67 l10 -45q2 -11 -28.5 -18.5t-62 -6.5t-32.5 12q0 5 1 20.5t1 26.5q0 41 -2 68q-4 54 -4 90q-4 35 -8 105q-2 21 -5 61t-5 59l-13 129q-2 16 -5 48.5t-5 48.5l-23 -6q-7 -2 -17.5 -6t-17.5 -6.5t-12 -2.5q-30 -2 -47.5 14t-18 37.5t11.5 42.5t34 27q6 2 19.5 1.5t25.5 0.5 q20 4 35 4q-4 28 -8 72q-2 24 -7.5 71t-7.5 68q-2 25 -7 70.5t-7 66.5t-7 64t-7 65q-2 21 -7.5 60.5t-7.5 58.5q-1 20 -4 55t-4 50q-9 72 -10 81q-15 0 -43 -4q-32 -2 -66 -10q-10 -2 -25 -6.5t-20 -5.5q-29 -5 -38 25t-0.5 62.5zM305 1556q0 -48 2 -77q0 -16 1 -51.5 t1 -55.5q0 -35 8 -117q2 -23 5.5 -67.5t5.5 -61.5l12 -135l12 -137q4 -23 8 -63q40 10 52 14q50 16 100 39q40 18 102 59q63 55 86 90q31 43 45 119q-1 8 0.5 34t-2.5 32l-4 32q0 6 -3.5 18t-4.5 17l-10 35l-14 29q-5 14 -33 61q-51 66 -92 94q-9 8 -30 20.5t-24 14.5 q-55 24 -57 25q-54 19 -115 26q-10 2 -29.5 4t-21.5 2z" />
<glyph unicode="Q" horiz-adv-x="1015" d="M14 625q-4 65 -4 124q0 93 10 171q20 153 76 266q22 44 33 57l16 27l5 6l6 6l10 14q37 43 94 82q104 66 211 66q97 0 172 -60q15 -12 27 -24q13 -13 22 -25q10 -13 29 -45q10 -23 -16 -49q27 -23 67 -67l66 -70q15 -18 34 -37l17 -18q5 -5 20 -25q83 -102 95 -240 q2 -25 2 -51q0 -113 -43 -227q-20 -58 -66 -135q-51 -78 -90 -121q-85 -101 -209 -180q17 -43 84 -142q10 -26 -5 -45.5t-42 -15.5t-47 37l-56 129v2q-75 -35 -129 -37q-16 -2 -31 -2q-76 0 -139 41q-6 5 -22 17.5t-26 22.5t-17 21l-27 35l-18 35l-10 18l-23 58l-24 78 q-39 146 -52 303zM90 631q14 -163 47 -291q3 -9 7.5 -23.5t8 -26.5t7.5 -22l12 -35l14 -30l19 -35l20 -25q7 -11 26 -27t21 -18q47 -29 104 -29q10 0 21 1q39 2 113 34q-7 18 -30 64t-36 76q-7 37 -3.5 60.5t15 31.5t25.5 5t29 -18.5t25 -39.5l40 -140q99 65 175 156 q21 23 81 115q32 52 58 118q34 95 34 188q0 27 -3 54q-16 118 -82 191l-15 18l-18 18q-25 25 -37 35l-66 66q-80 73 -112 92q-26 20 -45 25q-19 12 -33 16q-20 8 -18.5 42t20.5 56q-21 7 -45 10h-9q-75 0 -151 -45q-38 -20 -76 -61l-8 -10q-1 0 -3 -2h-1l-4 -6l-18 -25 q-7 -9 -16.5 -26.5t-12.5 -22.5q-50 -95 -70 -236q-13 -83 -13 -179q0 -48 3 -99z" />
<glyph unicode="R" horiz-adv-x="1202" d="M16 1542.5q16 30.5 58 34.5h7q21 0 85 -4q27 -1 83.5 -2t86.5 -2q15 0 31.5 -1t36.5 -2.5t32 -2.5l53 -7q41 -5 54 -8q20 -2 55 -10q12 -1 32.5 -7t24.5 -7q9 -3 29 -8.5t29 -8.5t57 -24l59 -25q7 -4 18 -9.5t20 -11t18 -12.5q35 -24 57 -49q29 -33 37 -73q1 -10 1 -21 q0 -34 -15 -65q-10 -25 -43 -62q-42 -47 -109 -90q-85 -59 -233 -137q-27 -14 -76 -39.5t-88 -46.5t-72 -41l-12 -6q33 -8 67 -25q101 -40 224 -131q101 -78 176 -156q56 -54 143 -149l111 -135q19 -23 48.5 -61.5t33.5 -43.5q9 -12 20.5 -27t19.5 -25.5t13 -18.5 q13 -19 -5 -46.5t-45.5 -35.5t-52.5 16q-6 7 -20 33t-23 41q-25 43 -71 108q-51 73 -101 135q-83 100 -131 150q-74 77 -166 151q-98 81 -202 125q-9 5 -33 15v-29q2 -23 5 -68t5 -67q1 -23 4 -67.5t4 -65.5l13 -125q2 -18 5 -56.5t5 -58.5l12 -102l12 -84q2 -14 7 -34.5 t6 -29.5q7 -18 12 -39q2 -44 -43 -58q-15 -5 -29 -5q-21 0 -36 12q-12 11 -13 25v47q0 9 -2 33t-2 37q0 22 -4 88q0 28 -4 102l-6 117q-4 86 -8 127l-7 131q-4 47 -8 137q-1 8 -2 25t-2 26q-4 1 -14 2t-15 2h-2q-15 2 -24 14t-6 27q0 14 12 23q16 14 43 33q-4 76 -8 114 q-4 86 -8 125q-1 22 -4.5 61t-4.5 54q-4 33 -8 102q-3 27 -8 86q-3 18 -8 66l-6 31q-18 0 -33 -3q-8 -2 -29 -6.5t-36 -7t-29 -2.5q-39 0 -56.5 29t-1.5 59.5zM315 1194q4 -74 4 -117q5 -97 5 -125q4 -50 4 -75q45 25 217 114q150 82 227 133q58 42 94 80q38 41 38 74 q0 6 -1 12q-7 35 -53.5 66t-108.5 53q-42 18 -53 21q-9 3 -53 14q-2 0 -22 5.5t-31 6.5l-52 8l-51 6q-8 1 -24.5 2.5t-24.5 2.5q-33 2 -96 2h-12q-1 -3 -5 -33q0 -8 -1 -29.5t-1 -36.5v-184z" />
<glyph unicode="S" horiz-adv-x="1355" d="M18 1210q16 69 74 131q88 96 201 152q103 52 207 61q26 3 52 3q58 0 118 -15q15 -4 37.5 -12.5t25.5 -9.5q22 -10 45 -25q41 -38 44 -71t-29 -40q-8 -2 -17 -2q-29 0 -71 17q-2 1 -27 16q-4 2 -11.5 7t-15 8.5t-14.5 5.5q-53 19 -106 19q-12 0 -23 -1q-86 -3 -174 -45 q-106 -50 -180 -127q-42 -42 -56 -92q-5 -20 -5 -41q0 -33 13 -68q38 -91 175 -204q24 -19 245 -185q18 -14 76.5 -56t98.5 -73t77 -63q82 -74 117 -117l18 -27q4 3 25.5 17.5t30.5 21.5q83 55 143 80q66 32 102 43q38 7 65 7q11 0 21 -1q32 -4 40 -20.5t1 -35.5 t-33.5 -38.5t-62.5 -30.5q-3 -1 -35 -8.5t-55 -15.5q-51 -19 -133 -66q-20 -11 -57 -37q6 -12 14 -36q9 -20 18 -86q0 -8 -1 -23t-1.5 -23.5t-2 -21t-5.5 -21.5q-4 -26 -29 -79l-10 -21l-12 -18q-20 -24 -29 -33q-47 -49 -131 -94q-62 -25 -76 -29q-31 -7 -56 -7 q-21 0 -38 5q-35 11 -51 39q-14 27 -10 57q0 34 20 80q2 7 7.5 18l7.5 15l4 8l6 8l8 15q4 9 37 59q60 84 168 184q35 27 53 43l-18 25q-33 42 -107 108q-72 63 -250 189q-37 28 -121 89t-127 95q-73 60 -122 113.5t-78 120.5q-24 51 -24 100q0 30 9 59zM625 -123l2 -12 q0 -2 4 -4q23 -5 49 4q28 6 61 22q60 26 113 76q5 5 20 25l11 14l6 12l14 33q3 6 6 17t4 14q4 12 9 67q-10 55 -15 66l-6 18l-39 -30q-98 -84 -159 -166q-46 -59 -64 -105q-16 -36 -16 -51z" />
<glyph unicode="T" horiz-adv-x="1292" d="M15 1534q-3 14 -3 25q0 26 16 45q18 20 48 14l28 -10q25 -8 46 -13q50 -11 59 -12q12 -2 35.5 -5t34.5 -5q2 0 32 -3t47 -3q58 -4 91 -4q23 -2 46.5 -1.5t47.5 1.5q63 0 96 2q32 0 98 4q15 1 46.5 2t47.5 2l175 12q54 4 75 4q46 4 64 4l49 6q7 0 18 2.5t13 2.5 q38 4 52 -27q7 -14 7 -29q0 -16 -9 -34q-16 -32 -52 -33l-31 6l-47 6q-36 4 -62 4q-25 2 -73 2h-84q-14 0 -44 -1t-46 -1q-14 0 -40 -1t-40 -1v-10q2 -18 2 -70v-86q0 -16 -1 -50.5t-1 -53.5q-1 -18 -2 -56.5t-2 -58.5q-4 -82 -4 -125l-7 -133q0 -43 -4 -133q0 -24 -1 -69 t-1 -66q0 -90 -2 -133q0 -22 1 -63.5t1 -61.5q0 -41 4 -115q0 -7 6 -100q2 -26 11 -84q6 -39 12 -62q2 -5 5 -13t5 -12.5t4 -7.5q2 -11 2 -20q0 -26 -18 -42q-25 -22 -57.5 -14t-42.5 40q-3 9 -7 49t-4 71q0 13 -1 42.5t-1 45.5v105q0 76 2 117q0 20 1 62.5t1 64.5 q1 21 2.5 65t2.5 66q1 23 2 68.5t2 68.5q0 23 1 67.5t1 65.5q1 22 2 66.5t2 66.5v125q0 20 -1 58.5t-1 56.5q0 38 -4 100q-3 43 -9 82q-3 33 -10 59q-1 6 -8 19v4q-33 -2 -96 -2q-42 -3 -71 -3q-15 0 -26 1h-90q-17 -1 -47.5 0.5t-38.5 1.5q-14 0 -39 1t-36 1q-8 0 -62 6 q-10 0 -26 1t-21 1q-8 0 -19 -1t-14 -1q-29 0 -38 37z" />
<glyph unicode="U" horiz-adv-x="1249" d="M10 1352q1 19 14 32t31 15.5t36 -1t30.5 -16.5t11.5 -32q-3 -34 -6 -111q-5 -131 -9 -176q-2 -34 -1 -225v-19q0 -29 1 -61q3 -42 10 -101t9 -86q27 -158 72 -292q33 -96 72 -148q48 -54 89 -54q5 0 11 1q52 3 115 80q46 60 86 145q70 143 125 334q31 98 79 319 q12 99 37 254l6 41q0 3 1 8.5t1 8.5h3v6q3 15 15.5 24.5t27.5 6.5q13 -3 21.5 -14t8.5 -23l-2 -8h2l-2 -23q-5 -73 -35 -238q-7 -49 -14 -133q-16 -170 -16 -305q0 -166 18 -266q25 -141 78 -174q8 -6 25 -10q21 0 26 2q3 0 8.5 1t8.5 1q2 2 14 8q17 7 29 14q20 15 24 17 q20 15 23 18q10 7 34 31q26 25 53 25q9 0 18 -3q35 -11 39 -45q0 -3 1 -7q0 -31 -31 -64q-1 -1 -17.5 -13t-27.5 -18q-15 -11 -28 -19q-3 -2 -15.5 -8.5t-19.5 -11.5q-23 -11 -43 -19q-18 -4 -25 -8q-8 0 -28 -4q-9 -2 -25 -2t-39 2q-42 15 -63 31q-54 43 -78 113 q-22 66 -31 127q-14 99 -14 219v43q-44 -141 -105 -271q-46 -93 -96 -159q-22 -31 -68 -70q-60 -37 -98 -39q-10 -3 -51 2q-1 0 -19 7t-26 12q-33 22 -37 26l-33 31h-2v2q-39 52 -86 170q-51 145 -80 305q-3 33 -11 91.5t-12.5 103.5t-4.5 82q-7 150 -7 231q-2 68 -2 174 q-1 22 -3.5 60.5t-2.5 52.5z" />
<glyph unicode="V" horiz-adv-x="931" d="M12 1477q-1 7 -1 13q-1 29 23 44q28 19 61 7.5t38 -46.5q0 -3 3 -33t5 -51q4 -33 23 -127q21 -106 35 -168l47 -201q48 -187 59 -225q29 -113 68 -241q42 -143 80 -254q6 -20 22 -60q3 40 21 154q9 50 26.5 139.5t24.5 124.5q11 50 32 140.5t25 109.5q9 39 55 229 q9 39 26.5 106.5t23.5 94.5l43 170l30 133l19 86q8 35 42 43q9 2 17 2q24 0 44 -17q18 -16 18 -39q0 -10 -4 -22q-2 -11 -13 -40t-16 -44q-6 -20 -21 -66t-20 -63l-49 -166q-42 -141 -58 -200q-14 -49 -59 -226q-45 -179 -59 -247q-38 -158 -54 -261q-27 -150 -30 -266v-45 q0 -14 -10 -24.5t-25 -10.5q-19 0 -29 17q-29 48 -53 114q-5 14 -18.5 51t-20.5 58q-49 147 -82 256q-55 184 -74 244l-63 225q-34 120 -55 199q-28 107 -43 168q-6 24 -17.5 68t-15.5 63q-4 17 -12 46t-9 38z" />
<glyph unicode="W" horiz-adv-x="1157" d="M10 1204q-1 7 -1 14q0 50 33 63q9 3 17 3q23 0 45 -24q23 -27 27 -70q1 -3 -1 -41q-1 -23 -1 -43v-25q0 -57 14 -180q12 -105 33 -237q14 -86 53 -281q8 -40 25.5 -115t21.5 -94q8 31 41 148q62 222 113 358q9 27 20.5 57t26.5 67t23 56q39 85 63 164l37 115q4 14 21 18 t30 -4q18 -11 21 -29v-2q4 -38 20.5 -76.5t49.5 -94.5t42 -72q33 -64 105 -177.5t88 -140.5q28 -48 45 -80q-2 75 -10 185q0 21 -3 112t-3 135v7q0 34 6 186q0 32 5 78.5t5 48.5q13 69 49 94q15 11 29 11q18 0 32 -20q16 -21 17 -57q0 -22 -6 -49q-1 -11 -10 -49.5 t-11 -66.5q-14 -121 -16 -185q-2 -36 -2 -243q2 -48 5 -147.5t5 -143.5v-34.5v-47.5v-48v-36q0 -3 6 -78q0 -22 -9 -42.5t-26 -20.5q-16 -3 -31.5 16.5t-17.5 38.5v6q0 17 -3 48t-3 46q-8 63 -37 142q-38 85 -82 155q-19 31 -60 97t-73.5 120.5t-58.5 106.5q-4 8 -11.5 22 t-11.5 22t-10.5 20t-10.5 19t-9.5 16t-9.5 14.5t-8 10.5t-7 7t-6 2q-6 0 -16.5 -22.5t-26.5 -63.5t-25 -62q-46 -114 -67 -176q-48 -131 -111 -354q-29 -105 -74 -297v-2q-5 -15 -18.5 -23.5t-28.5 -5.5q-20 7 -26 25q-15 40 -17 47q-40 144 -80 320q-34 149 -59 282 q-29 143 -43 242q-20 120 -25 186q-8 68 -8 129z" />
<glyph unicode="X" horiz-adv-x="1026" d="M10 1342v5q0 31 24 51q13 10 29 11q15 0 33 -10q27 -20 47 -47q21 -24 43 -60l52 -78q8 -14 55 -92q4 -7 26.5 -45.5t34.5 -60.5q15 -25 66 -115q18 -27 33 -57l4 6l49 129l45 123q4 14 16.5 55t18.5 62l24 102q4 18 8 49t5 35q6 35 6 65q0 11 -1 26.5t-1 19.5 q3 42 36 57q14 6 27 6q18 0 36 -12q24 -17 23 -48q0 -7 -1 -16q-5 -25 -11 -43q-3 -31 -14 -69q-7 -33 -25 -93q-2 -9 -32 -106q-3 -8 -41 -115q-8 -24 -25.5 -69.5t-21.5 -55.5q-9 -24 -28 -69t-26 -62l-24 -55q38 -58 63 -104l74 -123l72 -117l69 -111l70 -98 q28 -38 65 -84q24 -30 60 -66q10 -12 28 -30q14 -15 13.5 -37t-15.5 -37q-13 -13 -32.5 -15t-34.5 9l-10 6q-4 4 -19 14q-30 18 -39 27q-11 9 6 33q-15 18 -30 39q-8 13 -29.5 43.5t-32.5 48.5q-12 17 -33.5 52t-33.5 52q-24 44 -68 113q-43 77 -70 121q-46 82 -71 123 q-21 35 -37 59l-27 -59l-8 -17l-8 -18l-14 -33q-56 -115 -60 -125l-98 -235q-29 -75 -41 -103q-5 -11 -19 -40.5t-20 -43.5q-5 -11 -13 -28.5t-10 -22.5q-7 -20 -27 -28.5t-40 -0.5q-29 12 -33 45v11q-2 8 -2 18q-4 34 -6 45q0 15 47 19l39 67q14 23 47 96l51 111 q49 105 56 123l61 125l16 33l6 14l9 16l28 66l19 41q-35 53 -64 104q-44 71 -67 111q-13 21 -36 55t-30 45q-19 31 -61 88q-27 38 -54 68q-31 35 -43 45q-4 3 -7 5.5t-5 3t-3 1t-2 0.5q-1 1 -1 2q-33 18 -35 54z" />
<glyph unicode="Y" horiz-adv-x="700" d="M10 1526v13q0 44 24 59q12 7 25 7q17 0 35 -12q32 -22 39 -63q1 -3 -4 -23q-1 -5 -2 -16.5t-2 -17.5q0 -7 -1 -23t-1 -25q1 -7 2 -24t2 -25q2 -9 4 -27.5t4 -27.5q14 -47 17 -64q14 -47 22 -63q9 -18 29 -64q5 -10 17.5 -29.5t17.5 -29.5q22 -37 38 -55l39 -51 q5 -7 12.5 -14.5t16.5 -15.5t14 -13l37 -37q14 -12 37 -27l10 -6l13 45q18 62 39 139q2 9 13.5 58.5t16.5 74.5q14 56 27 121q12 57 18 109q6 49 9 90v65q-2 6 -4 13t-3 12l-2 10q-5 22 4.5 38.5t27.5 22.5t37 5t34 -12.5t18 -30.5q0 -35 -2 -58q-1 -12 -10 -77 q-3 -12 -9 -44t-10 -51q-3 -17 -11.5 -53.5t-12.5 -56.5q-15 -58 -33 -123q-6 -24 -18.5 -70t-16.5 -63q-4 -14 -41 -137l-43 -144l-43 -141q-38 -126 -41 -139q-2 -7 -18 -56.5t-23 -74.5l-39 -121q-6 -22 -32 -109l-27 -90q-3 -15 -9.5 -39t-8.5 -33q-3 -10 -7 -26t-6 -21 q-26 -54 -51 -79.5t-41 -21t-26 23.5t-9 52t13 66q5 12 22 43q3 8 12.5 30.5t16.5 37.5q16 43 35 88l39 104q17 52 43 119l43 131q2 7 19.5 58t25.5 79l37 119l-5 -2q-2 2 -6.5 10.5t-7.5 12.5q-2 3 -10.5 12t-13.5 16q-28 28 -33 35q-26 30 -37 45q-5 7 -19.5 23t-21.5 26 t-22 31t-19 27q-8 10 -20.5 31t-18.5 30q-6 13 -19.5 35.5t-17.5 30.5l-31 69q-6 9 -26 68q-20 57 -23 65q-3 13 -14 66l-12 57l-6 45l-7 35q-1 5 -4.5 12.5t-3.5 10.5z" />
<glyph unicode="Z" horiz-adv-x="1230" d="M10 945q0 35 43 73q4 4 13 10q6 2 18 10q25 14 49 25q69 29 125 43q86 21 166 29q88 9 192 12q7 0 89 4t126 8l52 6h6q15 3 27 -7t14 -25q3 -8 -2 -17q-50 -134 -74 -174q-27 -58 -117 -221q-24 -45 -73.5 -128t-55.5 -93q-124 -199 -137 -217l-70 -105q-9 -13 -33 -48 t-38 -54l-11 -13l39 3q73 6 217 14q127 7 191 14q19 2 77 8.5t85 8.5l125 14l82 10q11 2 20 2q37 0 55 -24q13 -17 12 -34q0 -13 -8 -29q-19 -34 -69 -36h-84q-19 -1 -61 -2t-64 -2q-19 -1 -74.5 -4t-89.5 -4q-30 -2 -94.5 -4t-97.5 -4q-149 -4 -220 -8l-131 -6 q-15 0 -26 10.5t-13 25.5q0 12 9 25l6 6q5 7 28 33t35 43q38 47 72 96l70 105q26 39 72.5 112t64.5 101q20 37 63 109.5t64 109.5q93 177 112 219q28 54 45 104q-71 -8 -208 -16q-106 -9 -189 -21t-147 -34q-48 -13 -105 -43q-7 -5 -16 -13t-12 -10q-3 -3 -13 -8l-10 -10 q-32 -27 -63 -27q-10 1 -18 3q-40 10 -40 45z" />
<glyph unicode="[" horiz-adv-x="333" d="M10 -334l2 43q0 8 1 30.5t1 35.5q0 39 4 137q0 103 2 156q0 84 3 170v725q-3 85 -3 170q-2 55 -2 157q-4 98 -4 140q-1 17 -2 48t-2 46v45l49 4q8 2 23 2q23 3 90 8q15 2 36 5t23 3q46 -1 66 -19.5t14.5 -41t-26.5 -42t-49 -20.5q-5 0 -25 2.5t-35 2.5q-42 0 -67 2 q0 -7 -1.5 -22.5t-1.5 -22.5q0 -42 -4 -140q0 -24 -1 -76.5t-1 -80.5q0 -27 -1 -84t-1 -86q0 -120 -2 -181v-366q2 -59 2 -178q0 -29 1 -86t1 -84t1 -79.5t1 -76.5q4 -98 4 -137v-21h11q70 -4 88 -4q11 -1 22 -1t21.5 0.5t13.5 0.5q26 -3 43.5 -24t19.5 -44.5t-17 -41 t-58 -13.5q-14 2 -55 13q-3 0 -36 5t-53 9l-51 6z" />
<glyph unicode="\" horiz-adv-x="583" d="M12 1524q-8 33 17.5 60t58 20t43.5 -56q1 -6 2 -22.5t2 -24.5q2 -9 3.5 -20.5t3.5 -27t3 -26.5q4 -17 17 -94q15 -88 20 -112q3 -19 11.5 -62t11.5 -67l24 -140l25 -147q16 -100 27 -148l36 -149q4 -19 35 -146q34 -135 35 -137q7 -37 16 -63l19 -60q2 -5 5 -15t5 -15 q2 -4 5 -12.5t5 -12.5q19 -37 23 -49q6 -16 22 -45t21 -41q30 -63 33 -70l24 -45q16 -55 4 -79t-34 -26.5t-47.5 16t-36.5 48.5q-2 5 -6 20.5t-7 24.5q-17 56 -22 70q-4 13 -10 27.5t-14 33t-13 31.5q-10 31 -21 55q-2 5 -5 15.5t-5 15.5q-1 3 -4 13t-4 16q-3 10 -8 30.5 t-8 30.5q-12 48 -15 68l-30 137q-5 24 -16.5 72.5t-16.5 72.5q-3 15 -15.5 68.5t-19.5 81.5q-7 30 -16 82t-13 70q-5 25 -14 74t-14 73q-4 25 -13.5 70.5t-13.5 66.5q-4 24 -14.5 66.5t-14.5 60.5q-2 6 -26 113q-10 42 -25 92q-5 21 -20 72q-2 6 -6 16t-6 17t-3 12z" />
<glyph unicode="]" horiz-adv-x="333" d="M13 -293.5q10 32.5 57 41.5h57q13 1 43.5 2t46.5 2q4 0 8 2v19q1 21 2 67.5t2 69.5q0 24 1 76.5t1 79.5t1 84t1 86v178q0 92 3 184q-3 91 -3 184v179q0 30 -1 86t-1 83q0 28 -1 81t-1 77q-1 24 -2 70.5t-2 68.5q0 29 -2 43h-65q-10 -1 -23.5 -1.5t-22.5 -1t-14 -1.5 q-49 -4 -55 38q-6 37 20 67q18 19 39 18q7 0 26.5 -3.5t33.5 -4.5q6 -1 38 -4t52 -4q6 -2 22 -2l50 -4l-2 -45q-1 -15 -2.5 -48.5t-2.5 -46.5q0 -41 -4 -139q0 -24 -1 -77t-1 -81q0 -27 -1 -83t-1 -86q0 -120 -2 -179v-368q2 -59 2 -178q0 -29 1 -86t1 -84t1 -79.5t1 -76.5 q4 -98 4 -137q2 -25 2 -66l3 -41l-46 -6q-10 -1 -27 -4t-22 -4q-2 0 -88 -14q-14 -2 -32.5 -7t-22.5 -6q-34 -4 -57.5 22.5t-13.5 59z" />
<glyph unicode="^" horiz-adv-x="735" d="M10.5 1072.5q-3.5 18.5 7.5 37.5l6 6q7 5 11 10q2 2 10 12.5t14 18.5q11 11 35 39l41 41q38 38 47 45q2 2 21 19.5t30 25.5q9 9 54 49l37 35q10 11 26 11t27 -11l14 -14q17 -17 53 -49l54 -50l51 -45q31 -31 47 -45q28 -32 39 -43q12 -14 35 -37q17 -21 24 -32 q15 -15 19 -21q31 -37 -6 -64q-33 -23 -72 -13q-22 6 -31 22l-4 20q-4 15 -12 29q-5 7 -23 39q-26 31 -33 41q-7 9 -40 47l-48 47l-51 51l-43 41l-14 -14l-51 -49l-47 -47l-41 -45q-2 -2 -31 -43q-4 -5 -8 -11.5t-7.5 -13.5t-5.5 -10q-3 -5 -14 -31q-5 -20 -6 -22 q-9 -17 -27 -23t-36 -0.5t-33 17t-18.5 30z" />
<glyph unicode="_" horiz-adv-x="1026" d="M15 -174q13 33 44 33q10 -3 23 -6q4 0 17 -1.5t20 -1.5q7 -1 23 -2t24 -2h55q41 0 64 -2q23 2 69 2h72q25 2 74 2l215 19q17 3 63 8l56 6q12 3 47 8q20 3 34 9q5 1 13 3.5t10 2.5q46 7 67 -21t5 -61t-60 -41q-3 0 -11.5 2.5t-12.5 3.5q-4 0 -18 1t-21 1h-105 q-40 0 -63 -2q-45 0 -70 -2q-12 -1 -35 -2t-36 -2t-38 -2t-38 -2q-12 -1 -36.5 -2t-37.5 -2q-13 0 -37 -1t-35 -1l-69 -7q-24 0 -64 -4l-55 -6l-47 -6l-35 -6q-5 -1 -13 -3.5t-10 -2.5q-33 -5 -47 26t-1 64z" />
<glyph unicode="a" horiz-adv-x="804" d="M10 152q0 14 2 22v21l2 2v4l13 47q24 81 82 160q41 59 96 118q53 56 112 86q58 28 103 37q42 9 66 9q7 0 12 -1q24 -2 24 -94v-49q-3 -30 -7.5 -62t-10 -67.5t-8.5 -54.5q-8 -58 -8 -101q0 -30 4 -53q7 -32 21 -56t32 -24q30 0 76 42t65 83q24 51 63 59q33 6 43 -25 q3 -9 3 -19q0 -37 -35 -93q-52 -81 -146 -129q-28 -12 -56 -12l-40 6q-17 6 -47 27q-4 5 -11 14t-12 15t-6 10l-10 16l-2 4l-2 2v2l-2 6l-6 11q-7 26 -10 47q-5 24 -5 56q0 13 1 28l-13 -23q-32 -55 -59 -86q-29 -37 -76 -74q-40 -34 -92 -55q-34 -7 -53 -7q-6 0 -11 1 q-6 0 -36 10q-26 20 -29 25q-27 41 -27 115zM87 146q-1 -42 11 -62q5 -8 15 -8q8 -3 28 4q26 9 72 41q43 34 66 63q24 27 51 74q40 71 71 176l35 107q-33 -3 -76 -21q-40 -14 -90 -57q-42 -42 -92 -105q-56 -74 -76 -135q-14 -35 -15 -77z" />
<glyph unicode="b" horiz-adv-x="765" d="M10 1446q-2 29 9.5 53t31 33t40 7t39 -24.5t26.5 -60.5q0 -2 -4 -41v-61q0 -20 4 -78q1 -13 4 -43.5t4 -48.5l12 -109q2 -17 7 -55.5t7 -59.5l19 -122q9 -49 20 -127q4 -20 11.5 -62.5t11.5 -62.5l18 -103q24 47 37 64q24 41 78 82q52 36 113 51q23 4 44 4q48 0 89 -20 q15 -5 31 -17l14 -12q6 -3 8 -6l16 -17l11 -14q6 -7 20 -31q25 -52 25 -117v-14q-5 -59 -29 -125q-20 -53 -53 -104q-28 -46 -68 -86q-33 -39 -74 -66q-43 -31 -73 -43q-34 -14 -66 -20q-1 0 -3 -1t-3 -1q4 -4 4 -6t-1 -7t-1 -8l-4 -30q-3 -28 -26 -46t-52 -14 q-28 3 -45 25.5t-14 50.5l-2 14q-2 6 -2 15q0 1 1 3t1 3q0 15 -4 55q-2 14 -11 82q-10 73 -14 96q-1 10 -6.5 48.5t-7.5 60.5l-19 116q-3 17 -10 59t-10 64l-21 125q-7 36 -20 127q-4 20 -11.5 61t-11.5 62l-18 117q-11 50 -21 106q-2 11 -7.5 45.5t-8.5 51.5q-5 26 -14 82 q-2 12 -6 32.5t-5 28.5q-1 6 -4 15t-4.5 14.5t-1.5 9.5zM313 293q0 -23 6 -53q3 -20 11 -53t10 -42q2 -8 8 -30.5t8 -34.5q6 -2 25 -2q25 0 49 8q39 13 62 29q21 11 67 51q42 42 62 74q31 45 51 92q21 59 24 104v14q0 48 -18 89q-8 16 -12 22l-9 8l-10 13l-4 4q-1 -1 -4 2 l-10 8q-8 8 -23 12q-27 13 -57 13q-19 0 -39 -5q-46 -9 -86 -41q-39 -31 -62 -67q-24 -42 -32 -74q-9 -29 -13 -67q-4 -66 -4 -74z" />
<glyph unicode="c" horiz-adv-x="622" d="M10 172q0 49 19 123q18 59 39 111q16 40 47 100q12 25 57 90q4 4 11 11.5t13.5 14.5t14.5 13q12 12 20 16l11 6l2 2l4 3h2l6 2q47 18 88 18q56 0 70 -6q71 -32 83 -79q10 -35 -22 -49q-11 -4 -24 -4q-19 0 -43 9q-1 0 -3.5 1t-3.5 1l-2 2l-6 4q-4 4 -12 8q-17 10 -41 13 q-19 3 -53 -4l-13 -7q-5 -1 -12 -8q-3 -1 -24 -22q-34 -38 -54 -74q-35 -63 -47 -90q-23 -55 -37 -103q-16 -53 -16 -102q0 -25 6 -43q9 -19 12 -20q3 -7 13 -13q23 -20 64 -20h11q40 3 89 28q10 4 38 23q8 5 35 27q31 24 60 57q33 37 43 55q20 27 28 45q11 22 17 31 q19 30 53 34t50 -22q8 -12 8 -31q0 -21 -9 -49q-2 -4 -6.5 -8t-11 -9.5t-11.5 -10.5q-5 -6 -19.5 -21.5t-21.5 -23.5t-55 -56q-53 -48 -71 -59q-27 -19 -44 -29q-12 -7 -49 -26q-72 -29 -116 -31h-13q-72 0 -118 41q-13 10 -25.5 28.5t-15.5 30.5q-11 22 -15 72z" />
<glyph unicode="d" horiz-adv-x="856" d="M10 129v12q0 68 31 140q29 63 61 114q70 124 158 178q64 33 106 34q2 0 5 -1q8 2 26 2q16 -4 25 -4q34 -8 45 -14q4 -2 12.5 -5t12.5 -5q-7 158 -7 286q8 214 35 328q3 22 12 43l9 20l10 25q6 12 12 21l6 8l13 12q24 24 36 31q23 16 52 22q5 1 15 2t15 2q25 -5 31 -8 q50 -19 78 -78q33 -67 37 -182v-13q0 -65 -17 -167q-34 -173 -116 -334q-45 -88 -88 -152l-33 -45q1 -16 4 -45t4 -43q13 -102 31 -217q11 -88 28 -166q1 -3 27 -104q7 -21 7 -40q1 -24 -11 -44q-16 -27 -40 -27q-8 1 -17 3q-36 12 -58 79q-3 11 -16 115q-19 151 -21 170 q-9 78 -20 215q-122 -144 -213 -223q-45 -34 -78 -51.5t-78 -22.5h-26q-12 0 -27 6q-16 4 -27 12q-10 7 -20 21q-27 36 -31 90zM96 133q0 -31 10 -41q7 -10 29 -10q51 3 111 55q94 76 217 223q24 28 39 48q-2 6 -2 22q-2 0 -8 6l-15 15l-14 12q-15 10 -19 14l-20 10 q-30 14 -58 14.5t-55 -14.5q-69 -42 -131 -141q-34 -53 -59 -104q-25 -55 -25 -100v-9zM565 866q0 -94 13 -293q0 -19 4 -55q40 65 65 113q83 159 111 315q14 76 14 141v23q0 90 -29 152q-18 35 -38 41q-16 9 -46 -11q-8 -6 -24 -22l-4 -2l-6 -11q-9 -9 -9 -14l-6 -14 l-6 -17q-8 -24 -10 -36q-25 -99 -29 -310z" />
<glyph unicode="e" horiz-adv-x="763" d="M9.5 180q1.5 29 27.5 49q5 2 20 13q-4 40 -2 61q3 83 37 184q19 47 41 86q6 13 27 43l12 17l4 4l2 4l10 10q4 4 10.5 11.5t12.5 13.5t12 10q26 21 39 29q41 24 80 24q16 0 31 -4q55 -15 82 -80q9 -23 12 -49q2 -8 2 -47q-8 -84 -63 -162q-8 -11 -17 -20t-19.5 -18.5 t-15.5 -14.5q-34 -30 -53 -45l-84 -72l-65 -57q4 -4 8 -16q2 -6 10.5 -15t9.5 -10q4 -5 13 -12t10 -8l37 -19l26 -8q21 -5 43 -5q40 0 82 17q51 17 111 62q17 13 32 25t29.5 27.5t23.5 24.5t25 28.5t21.5 26.5t24.5 32t24 32q27 25 43 25q7 0 12 -5q7 -8 7 -21 q0 -17 -11 -42q-30 -79 -98 -153l-84 -74q-65 -47 -131 -68q-52 -19 -103 -19q-35 0 -69 9q-23 6 -47 16l-37 21q-25 19 -39 35q-28 33 -31 39l-10 22q-33 -16 -54.5 -1t-20 44zM129 289q12 9 27 18q24 16 90 66l47 35q40 35 47 45q43 55 49 112q0 3 0.5 10t0.5 13t-1 10 q0 5 -6 29q-13 29 -31 35q-21 6 -51 -11q-14 -8 -31 -22q-5 -4 -14.5 -14.5t-11.5 -12.5l-15 -14l-12 -19q-11 -13 -20 -32q-25 -42 -35 -74q-30 -89 -33 -162v-12z" />
<glyph unicode="f" horiz-adv-x="813" d="M151.5 744q7.5 19 43.5 26l122 14q1 18 2.5 53.5t2.5 53.5q9 114 14 160q5 60 20 155q12 76 33 150q21 81 57 135q28 41 52 55q12 9 41 21l14 4h4l6 2h12q14 2 27 2q54 0 98 -33q31 -22 66 -72q30 -43 31 -47q6 -20 6 -36q0 -24 -13 -41q-18 -21 -42 -21q-7 0 -16 1 q-34 9 -48 48l-14 43q-22 39 -31 45q-25 21 -59 19h-9l-12 -2q-6 -2 -10 -6q-14 -5 -33 -31q-28 -41 -51 -111q-19 -58 -35 -137q-16 -97 -20 -152q-9 -78 -15 -155q-1 -17 -2 -48.5t-2 -47.5l123 12q40 5 59 -12t4.5 -37.5t-55.5 -26.5l-135 -10v-289q1 -23 2 -68t2 -67 q4 -79 8 -119q5 -49 15 -96q4 -27 18 -70q2 -12 10 -24.5t9 -14.5q8 -19 7.5 -41.5t-12.5 -37t-27.5 -21t-38 6.5t-42.5 44q-12 42 -12 60q-13 80 -13 83l-6 105q-1 20 -1 60.5t-1 62.5q2 43 2 137q2 47 2 147q4 90 4 136l-100 -17q-30 0 -49.5 15.5t-12 34.5z" />
<glyph unicode="g" horiz-adv-x="1081" d="M10 -911q0 21 4 57q5 32 35 102q40 78 113 162q57 62 127 129l231 225q74 70 105 101q35 165 41 198q12 61 32 183q-22 -33 -26 -37q-66 -85 -140 -137q-91 -67 -176 -67q-8 0 -16 1q-54 6 -98 43q-15 10 -35 39q-13 15 -25 39q-33 62 -33 133q0 21 3 43q10 74 63 148 q44 59 98 100q90 70 191 111q85 34 141 40q29 4 47 -14q17 -20 17 -43q0 -25 -15 -43q-10 -15 -39 -20q-48 -4 -112 -25q-91 -30 -168 -86q-43 -30 -82 -78q-41 -55 -51 -106q-2 -15 -2 -30q0 -45 20 -91l19 -29q12 -16 20 -22q23 -19 51 -25q6 -1 12 -1q56 0 121 50 q66 45 127 119q43 53 86 131q43 84 43 137h2v9q3 15 15.5 24t27.5 6q13 -1 22 -12t9 -23v-8h2l-4 -35q-2 -4 -2 -12l-2 -14q-32 -218 -70 -412l-18 -84q105 113 129 146q19 25 46 61t34 45q49 60 94 60q4 0 8 -1q33 -4 38 -38q1 -5 1 -10q0 -40 -43 -87l-96 -104 q-13 -16 -31.5 -36t-34 -35t-41.5 -40.5t-41 -40.5q-16 -14 -46 -44.5t-48 -47.5q-1 -1 -4.5 -3.5t-5.5 -4.5q-20 -83 -39 -154q-66 -233 -149 -405l-25 -47l-29 -47q-18 -35 -26 -47l-35 -43q-15 -23 -74 -82q-4 -3 -10.5 -10t-11.5 -11q-4 -2 -7 -4l-7.5 -5t-8.5 -5 q-32 -20 -55 -27q-27 -9 -54 -9q-7 0 -14 1q-38 6 -65 33q-25 28 -37 55q-12 26 -17 57l-4 25q-2 8 -2 29zM88 -909q1 -3 1 -10t1 -11l2 -22q7 -47 31 -68q21 -21 57 -10q20 7 37 18q9 3 21 15l16 14q5 5 16.5 16t18 17.5t15.5 17t15 19.5l31 41q3 5 25 43l26 43l23 45 q80 162 147 393q2 7 5.5 21.5t5.5 21.5q-40 -37 -120.5 -110.5t-115.5 -106.5q-4 -4 -29.5 -29t-32.5 -32l-29.5 -29.5t-32 -33.5t-27.5 -31.5t-28.5 -35.5t-23 -34.5t-22.5 -38.5q-23 -51 -29 -82q-4 -24 -4 -41z" />
<glyph unicode="h" horiz-adv-x="690" d="M12 -57l11 45q0 1 10 67l12 90q8 70 14 109q4 32 4 49l5 74q1 22 2 66.5t2 66.5q1 24 2 71t2 70l2 35l-2 35l-2 74l-6 143l-7 139q-1 24 -4 68t-4 63q-5 102 -8 123l-12 94q0 13 -8.5 57t-8.5 64q0 49 20 71t44 5.5t35 -66.5q10 -49 10 -122q4 -70 4 -95q4 -78 4 -122 q1 -22 2 -67.5t2 -68.5q0 -43 4 -141q4 -94 4 -143l5 -74v-37v-37q0 -51 -3 -104q2 2 4 5.5t3 4.5q32 46 67 61q7 4 29 9q18 0 26 -2q31 -7 50 -23q30 -25 53 -78q14 -39 24 -82q16 -74 17 -78q2 -4 11 -27t15 -34q5 -8 19 -27q15 -19 18 -22q10 -12 39 -31q4 -1 18 -5 t21 -3h33q3 1 10.5 2t9.5 2q10 3 20 3q26 0 40 -24q16 -28 -4 -52q-17 -19 -49 -19q-5 0 -29 4q-8 -1 -45 8q-18 2 -60 23q-38 25 -53 47q-8 9 -22 31q-16 24 -21 34q-20 50 -29 78q-2 11 -7 37t-7 41q-13 52 -22 74q-13 37 -35 53q-7 6 -25 10h-12q-1 -1 -3.5 -1t-4.5 -1 q-18 -8 -39 -41q-16 -27 -29 -59q-12 -26 -18 -55q-10 -28 -13 -46q0 -75 -4 -110l-6 -111q0 -36 -4 -94v-121q0 -59 -41 -76q-12 -6 -24 -6q-21 0 -38 19q-20 21 -20 57q0 11 2 23z" />
<glyph unicode="i" horiz-adv-x="161" d="M10 913q0 20 22 41t48 21q30 -2 49 -15t18 -32q0 -23 -20 -42.5t-47 -19.5q-29 0 -49.5 13.5t-20.5 33.5zM14 655q-1 7 -1 13q0 51 36 72q15 9 30 9q16 0 31 -12q25 -20 25 -65q0 -2 -2 -8t-2 -9q0 -4 -1 -13.5t-1 -14.5q0 -23 -2 -37q3 -23 0 -45v-215q0 -10 1 -29.5 t1 -28.5v-55q0 -11 1 -28t1 -25q0 -17 4 -49q0 -7 1 -21t1 -20q4 -28 4 -39q5 -23 6 -25t2 -5t2 -4.5t1 -2.5q0 -66 -43 -81q-10 -3 -19 -3q-23 0 -42 20q-17 19 -17 48q0 3 2 10.5t2 11.5q2 6 4 18t2 13q1 6 2 18t2 17q2 14 2 45q4 28 4 47q2 18 2 55q0 9 1 27.5t1 27.5 q0 38 -2 56q3 30 0 57q0 21 -4 53q0 9 -1 27.5t-1 26.5q0 19 -4 47q-2 8 -4 22.5t-2 16.5q-4 24 -8 34q-1 4 -3.5 13t-2.5 12l-4 8t-3.5 6t-1.5 4z" />
<glyph unicode="j" horiz-adv-x="661" d="M14 -479q5 55 19 125q6 27 19 65.5t16 50.5l8 29l14 27l25 55q9 21 30 54.5t27 43.5q10 17 30.5 45t28.5 41l31 39l31 37q40 46 41 47q-2 11 -7.5 31.5t-7.5 28.5q-25 91 -40 159q-2 13 -7.5 36t-7.5 34q-1 13 -4 33.5t-4 27.5q-10 62 -10 82q-1 23 11 39t30.5 20t37 1 t31.5 -19t13 -39q0 -3 -1.5 -31t-0.5 -46q0 -7 1 -25t1 -29q2 -11 5.5 -34t4.5 -31q9 -65 31 -156v-2q66 70 86 90l43 45q24 26 52 26q8 0 16 -3q37 -9 43 -42v-10q0 -29 -29 -61q-3 -3 -66 -53q-3 -3 -30 -24.5t-48 -41.5l-43 -43q2 -12 7.5 -36.5t7.5 -38.5 q17 -97 20 -226q1 -27 1 -53q0 -97 -9 -190q-10 -146 -45 -256q-19 -68 -58 -127l-22 -29q-4 -4 -8.5 -9t-10 -10t-8.5 -8q-8 -8 -14 -12l-12 -10l-31 -21q-46 -24 -78 -26q-8 -1 -16 -1q-41 0 -72 31q-20 20 -33.5 47t-17.5 42t-12 47q-13 73 -13 162q0 48 4 102zM90 -487 q-4 -58 -4 -107q0 -77 10 -135q11 -71 39 -96q17 -14 33 -11q13 0 47 17q27 14 45 35q12 9 21 18l16 23q32 53 49 108q33 110 39 240q5 67 5 149q0 41 -1 86q-7 130 -24 213q-1 2 -2.5 8.5t-2.5 8.5l-28 -31l-31 -37q-2 -3 -24.5 -32t-32.5 -46q-59 -82 -101 -186 q-3 -10 -12 -34.5t-14 -42t-8 -32.5q-14 -65 -19 -116zM209 805q1 -20 22 -31.5t50 -9.5q28 3 47 24t16 41q-1 20 -22.5 32t-49.5 9t-47 -23.5t-16 -41.5z" />
<glyph unicode="k" horiz-adv-x="522" d="M10 1552q0 33 27.5 44t57.5 -1t36 -36q2 -10 2 -25q-1 -16 -3 -39q-6 -43 -5 -47q-2 -25 -2 -84v-100l8 -367q10 -305 14 -399q0 -8 1 -23.5t1 -23.5l37 24q55 33 58 35q2 1 53 33l45 28l66 37q26 8 45 8q29 0 41 -16q6 -7 5 -16q0 -23 -42 -54l-68 -38l-51 -25 q-3 -1 -23.5 -11t-31.5 -16q-18 -10 -58 -30q-10 -6 -28 -18t-23 -15q18 -11 29 -19q10 -5 61 -41l55 -38l52 -39q22 -14 45 -33q26 -22 39 -31q12 -12 28 -24q3 -2 8.5 -4.5t9.5 -4.5t5 -4q10 -20 10 -37q0 -22 -16 -40q-15 -17 -39 -17q-20 0 -47 12q-2 1 -11 19 q-2 3 -8.5 12.5t-11.5 15.5l-29 35q-12 10 -39 37q-28 24 -43 39l-53 41q-9 6 -27.5 20.5t-27.5 20.5l-10 4q2 -14 2 -43q0 -18 1 -52t1 -50q4 -62 4 -86v-68q1 -6 3 -17.5t2 -15.5t-1 -12q-21 -54 -53.5 -65.5t-54.5 13.5q-17 20 -16 48q0 8 1 16q6 25 8 41q4 17 8 64 q6 38 6 84q5 78 5 100q2 33 2 238q0 108 -13 397l-6 131l-6 123q-4 75 -8 115l-6 100q-3 53 -8 84z" />
<glyph unicode="l" horiz-adv-x="557" d="M11 160q-2 8 -2 18q0 19 9 45q60 123 84 152l33 49q0 4 -1 11t-1 11q-15 129 -27 271l-6 141q-3 63 -3 106q0 21 1 37v21q0 47 6 129l11 74q11 59 25.5 99t26 58.5t38.5 55.5q63 80 133 98q16 3 31 3q34 0 65 -15q16 -11 17 -11l6 -6h2q4 -3 4 -4l4 -4q13 -9 31 -31 q39 -59 47 -151q2 -23 2 -50q0 -94 -25 -227q-25 -122 -69 -241q-17 -56 -43 -109l-54 -94q-50 -88 -90 -162l-41 -67l25 -154l41 -215q25 -116 41 -178l55 -115q9 -22 9 -42q0 -23 -11 -45q-17 -33 -45 -33q-6 0 -13 2q-37 9 -57 79l-37 131l-32 185q-25 143 -35 219l-6 49 l-31 -49q-29 -52 -71 -63q-37 -9 -47 22zM172 1001q-1 -16 -1 -37q0 -42 3 -104q2 -49 10 -137q3 -59 21 -197q12 19 35.5 58.5t35.5 58.5l54 86q28 54 43 98q36 88 71 230q26 133 26 219q0 19 -1 35q-3 69 -33 112q-5 10 -16 21l-2 2l-8 4q-5 5 -15 10q-18 7 -41 4 q-46 -12 -92 -71q-46 -60 -61 -106.5t-23 -145.5q-6 -73 -6 -119v-21z" />
<glyph unicode="m" horiz-adv-x="1116" d="M18 168q2 19 7.5 53t7.5 51q3 27 12 87.5t12 89.5q12 80 15 131q2 20 0.5 49.5t-0.5 36.5q1 16 12.5 33t28 26.5t33.5 10.5t31 -18.5t18 -58.5v-2q0 -17 -13 -86q-12 -77 -24 -139l-35 -174q-1 -10 -7 -45t-7 -55q-6 -33 -9 -70l68 150q18 40 52 123t54 128 q41 116 93 175q11 12 25.5 13t25.5 -9l4 -2q38 -40 53 -107q10 -52 11 -116q0 -41 -5 -87q0 3 4 11q27 66 68 112q51 61 123 76l2 2q13 3 26 -3.5t19 -18.5l2 -7q19 -36 33 -120q2 -13 5 -34t5.5 -36.5t5.5 -28.5q4 -23 33 -69l4 -2q16 -20 41 -33q19 -7 38 -7q27 0 54 15 q19 9 49 45q29 24 56 25.5t41 -14t14 -42t-19 -51.5q-36 -40 -96 -63q-44 -20 -88.5 -20.5t-89.5 20.5q-44 19 -76 63q-42 53 -51 113q-6 28 -12.5 86t-12.5 84q-57 -31 -100 -125q-18 -40 -46.5 -124.5t-43.5 -121.5q-12 -27 -27 -57q-8 -12 -22.5 -16.5t-28.5 1.5 q-18 12 -18 33q1 36 5 73t10 82t9 68q14 102 14 176q0 55 -8 95q-3 14 -10 32q-23 -39 -49 -110q-21 -65 -106 -258q-23 -52 -103 -240l-33 -80l-2 -4q-6 -15 -21 -21.5t-30 -0.5q-21 9 -24 33q-13 118 -13 154q0 8 6 120z" />
<glyph unicode="n" horiz-adv-x="659" d="M10 621q0 24 11.5 45.5t29 30.5t35 7.5t31 -23t16.5 -60.5q-2 -10 -6 -46l-6 -73q0 -26 -4 -96l-6 -113v-17q17 46 49 111q49 92 92 133q1 1 15 12t24 15q16 6 28 8q11 4 25 2q30 -2 55 -27q19 -16 29 -36q11 -21 19.5 -42.5t17 -49t12.5 -37.5q16 -64 33 -109 q17 -47 37 -80q15 -26 37 -43q4 -4 9 -5.5t10.5 -3t6.5 -1.5q30 -9 38 -43q2 -9 2 -18q0 -24 -17 -42q-14 -16 -37 -16q-14 0 -31 6q-26 10 -57 41q-33 37 -49 78q-22 46 -37 98q-10 36 -29 115q-15 74 -35 115q-3 7 -18 22q2 1 -2 1h-2q-6 -1 -8 -1l-2 -1q-3 -2 -4 -3 q-3 0 -6 -2l-7.5 -5l-7.5 -5q-33 -31 -76 -111q-20 -36 -59 -133q-24 -71 -45 -141q-2 -10 -9.5 -39.5t-9.5 -44.5v-12l-2 -2v-3q-2 -15 -14 -24t-27 -6q-14 2 -22.5 12t-7.5 23v4h-2q0 8 2 14v23q0 25 -1 72t-1 69v129q-2 41 -2 113q-1 14 -2.5 47t-2.5 49q-1 13 -2 37.5 t-2 35.5q-1 7 -3.5 23.5t-2.5 22.5z" />
<glyph unicode="o" horiz-adv-x="577" d="M10 276v19q0 65 17 133q19 73 53 131q42 65 94 96q48 31 107 31h14q46 -5 90 -24q30 -13 51 -27q11 -8 -8 -43q25 -19 68 -74q44 -76 55 -117q15 -57 15 -112q0 -17 -1 -33l-6 -39q-1 -6 -5 -19.5t-5 -19.5q-20 -51 -39 -72q-47 -75 -141 -98q-36 -8 -71 -8q-50 0 -99 16 q-92 27 -142 103q-9 13 -18 35q-9 17 -16 43q-11 48 -13 79zM86 281q4 -46 10 -66q2 -12 8 -29q3 -5 9 -16t8 -14q9 -15 41 -43q44 -25 59 -29q37 -11 73 -11q28 0 56 7q68 16 96 67q11 16 29 56l6 30q4 16 4 29v16q0 50 -16 97q-13 38 -49 88q-24 33 -60 55q-12 10 -30 17 q-15 8 -27 10q-8 0 -20 4h-17q-10 0 -10 37q-11 0 -37 -11q-37 -19 -67 -63q-36 -58 -50 -104q-16 -66 -16 -127z" />
<glyph unicode="p" horiz-adv-x="624" d="M10 633q-2 15 8 28.5t25 14.5h6q10 26 31 29q22 0 94 -7q91 -13 145 -36q7 -3 21.5 -10.5t21.5 -10.5q5 -4 19 -14.5l22 -16.5l-2 2q4 -4 7 -4l-2 2q57 -51 71 -69q69 -84 109 -197q3 -10 8 -30t8 -29q5 -18 10 -64q2 -11 2 -28t-2 -41q-3 -24 -6 -33q-8 -27 -16 -41 q-21 -35 -58.5 -57t-76.5 -25q-15 -2 -30 -2q-58 0 -118 24q-106 41 -174 170l6 -110l6 -129q1 -38 2.5 -119t2.5 -121q2 -76 2 -213q2 -66 2 -178q4 -106 4 -137q4 -78 4 -90v-9q0 -45 -28 -66q-16 -11 -32 -11t-31 10q-32 21 -32 76q1 7 2.5 23.5t3 33.5t2.5 33l6 139 l6 178q4 126 4 211q3 114 3 238q-3 61 -3 127l-6 131q-2 41 -10 133q-1 15 -3 43t-4 51t-5 43l-12 86q-10 65 -11 72h-2zM94 582l4 -23q1 -5 2 -16.5t2 -16.5q31 -154 76 -260q31 -67 64 -108q9 -12 18 -21q3 -4 12.5 -11.5t12.5 -10.5l2 -2h2l6 -4l12 -7q4 -2 13.5 -6.5 t13.5 -5.5q40 -18 83 -18q14 0 28 2q57 8 75 45q2 3 4 8.5t4 7.5q4 12 4 27q0 42 -2 51q-5 37 -10 51q-2 10 -7 27.5t-7 23.5q-36 96 -100 166q-13 17 -56 49l-4 5q-7 4 -19.5 12t-13.5 8l-30 12q-53 17 -117 21q-18 0 -72 -6z" />
<glyph unicode="q" horiz-adv-x="663" d="M10 221q2 25 10 64q3 13 17 61q41 116 106 199q5 5 18 19.5t21 21.5l39 32q6 4 19 14.5t20 14.5q7 3 20.5 10.5t20.5 10.5q64 29 145 37q55 8 97 8q23 -3 30 -33h7q15 -1 23 -13t5 -26v-2h2l-30 -178q-46 -261 -48 -271q-18 -114 -32 -256q-11 -154 -11 -237 q5 -91 7 -109q0 -19 4 -51l6 -47q7 -61 16 -90q8 -41 21 -80q12 -33 22 -68q5 -9 27 -53q8 -20 24 -43.5t19 -29.5q16 -30 16 -53q0 -13 -5 -23q-13 -28 -49 -28h-5q-40 2 -64 42q-2 6 -9.5 22t-14.5 33.5t-12 34.5q-13 28 -25 64q-2 8 -10 34t-11 41q-1 2 -18 86 q-7 34 -14 99q-4 32 -4 51q-1 9 -2 27.5t-2 27.5q-2 28 -2 56t2 57q0 97 14 244q16 126 26 192q0 -2 -2 -2q-11 -18 -24 -31l-14 -14l-13 -10q-29 -25 -65 -41q-71 -30 -131 -30q-8 0 -17 1q-28 0 -76 19q-39 19 -63 53q-24 35 -29 72q-2 27 -2 71zM106 123q25 -36 80 -39 q10 -1 19 -1q43 0 92 21q88 34 149 185q47 111 74 264l6 39q-4 0 -28.5 1.5t-42.5 0.5q-61 0 -117 -21l-29 -12q-20 -12 -30 -20h-3l-4 -2q-11 -11 -26 -23q-5 -4 -10.5 -9t-11.5 -12t-9 -10q-61 -70 -98 -168q-27 -76 -27 -128q0 -40 16 -66z" />
<glyph unicode="r" horiz-adv-x="552" d="M14 864q8 32 36 46q9 4 20 5q23 0 55 -20q4 -4 8 -21q8 -16 8 -24l6 -43l7 -47l6 -55q1 -10 2 -31.5t2 -32.5q1 -6 2 -18.5t2 -18.5q2 4 8 10q13 19 37 39q43 41 121 90q92 48 160 60q13 3 24.5 -4.5t17 -20t6.5 -26.5t-7.5 -25t-24.5 -14q-101 -12 -217 -97 q-30 -26 -37 -34q-13 -13 -33 -37q-9 -11 -22 -37q-3 -4 -15 -35q-2 -3 -4 -8t-2 -6v-103q0 -12 1 -34.5t1 -32.5q0 -28 4 -64q1 -14 11 -57q1 -5 4 -15.5t4 -15.5q41 0 41 -8q0 -3 -2.5 -11t-3.5 -12l-7 -34v-4l-4 -19q-3 -23 -20.5 -37.5t-40.5 -11.5q-37 6 -47 39l-17 51 q-2 10 -5 31t-5 31q0 6 -1.5 29t-0.5 36q-2 23 -2 70q2 23 2 71q0 8 0.5 21.5t0.5 25.5t-1 23l-4 68q-1 13 -4 35.5t-4 33.5q-2 10 -5 31.5t-5 32.5l-13 59l-12 51q-2 8 -7.5 21.5t-6.5 17.5q-3 6 -15 25q-12 27 -2 61z" />
<glyph unicode="s" horiz-adv-x="901" d="M12 563q2 17 9 32.5t11.5 22.5t18.5 23t15 18q3 2 16 14t20 17l15 12l8 5l6 6l4 2q31 20 74 37q70 30 137 39q15 1 30 1q43 0 89 -10q46 -8 80 -32q20 -17 19 -39.5t-17.5 -37.5t-38 -22.5t-41.5 4.5q-2 1 -12.5 9.5t-22.5 13.5q-32 10 -66 10h-12q-53 0 -112 -20 q-45 -20 -60 -29l-30 -21q-5 -3 -13.5 -10t-13.5 -10q-31 -31 -31 -45q-6 -19 21 -47q10 -11 22.5 -21.5t29 -23t27.5 -20.5t33 -23t31 -21l14 -10q96 -56 154 -100q30 -24 80 -70l321 178q21 13 42.5 6.5t21 -25.5t-30.5 -44l-303 -172q9 -11 18 -35q26 -43 26 -86 q0 -19 -5 -39l-2 -8v-2l-4 -6v-2l-2 -2l-6 -13q-12 -15 -25 -28q-23 -20 -47 -35q-53 -29 -102 -43q-46 -10 -80 -10q-22 0 -39 4q-42 8 -64 43q-2 3 -4 9t-4 9l-2 8l-4 13v18q5 20 6 22q4 11 10 21.5t10 16.5t12.5 16t11 12.5l13.5 13.5l11 11q38 35 145 110l6 4l-55 45 q-51 38 -148 97h-2l-16 10q-10 7 -49 32.5t-63.5 44.5t-47.5 42q-22 22 -32 47q-13 22 -13 46q0 8 2 17zM289 -49v-8q2 0 2 -4l3.5 -3.5t6 -4.5t8.5 -3q10 -3 24 -3q22 0 54 7q42 12 84 35q23 13 37 27l10 10q2 2 6 10v4q3 10 3 21q0 24 -15 53q-2 3 -18 25l-17 -11 q-89 -55 -139 -98q-39 -35 -47 -57h-2z" />
<glyph unicode="t" horiz-adv-x="718" d="M109 654q-20 22 5 46q13 13 38 21l65 16q-1 16 -4 46t-4 44q-4 56 -8 88l-6 74q-1 12 -4.5 31.5t-4.5 23.5q-1 7 -3.5 20t-2.5 17v9q0 33 27 50q17 10 34 10q15 0 29 -7q32 -16 33 -60l-6 -34q0 -7 -1 -26.5t-1 -31.5q0 -44 -2 -71q2 -27 2 -89q0 -13 1 -37.5t1 -39.5 l80 24q29 7 50 7q31 0 44 -16q17 -20 -11 -43q-15 -13 -42 -21l-117 -31q0 -8 1 -24.5t1 -24.5q4 -74 8 -113q1 -20 4 -58.5t4 -56.5q6 -56 15 -116q5 -42 16 -109l6 -25l4 -6v-2l-2 -2l2 2v-2l2 -2q20 -33 31 -39q5 -8 13 -12q8 -8 14 -8q8 -4 12 -4q6 -3 12 0q24 3 56 28 q24 21 49 50l37 43q24 28 28 32q16 16 34.5 18.5t31.5 -7t21.5 -24t6 -33.5t-15.5 -34l-28 -32q-5 -7 -22 -18t-24 -17q-33 -30 -63 -51q-63 -38 -104 -41q-23 0 -35 4q-13 0 -33 12q-5 2 -10 5t-10 7t-9 6q-11 8 -22 23q-8 9 -33 49q-3 3 -16 35l-7 29q-12 80 -16 116 l-12 117q-8 78 -10 117q-10 99 -11 115q-1 7 -2 21.5t-2 21.5l-55 -21q-38 -12 -59 11z" />
<glyph unicode="u" horiz-adv-x="817" d="M10 285q0 55 4 145q6 68 15 123l16 94q12 52 16 64q13 28 32.5 41t37 8t32.5 -17.5t18 -35t-7 -45.5q-17 -35 -22 -48q-13 -32 -25 -82q-12 -51 -21 -110q-10 -72 -10 -137q-1 -16 -1 -31q0 -66 11 -119q8 -41 25 -73t39 -39q34 -15 64 -15q39 0 71 25q47 42 84 143 q26 84 45 178q21 109 35 156q6 15 20 23t29 4q27 -10 27 -37v-35q-2 -30 -6 -58t-13 -69t-10 -49q-14 -78 -14 -132v-18q3 -30 14 -45l10 -12q2 -2 3.5 -2.5t2.5 -1.5q0 -2 5 -2q1 0 3 -1t3 -1q3 -1 6 -1q22 0 59 38q30 26 56 63q8 11 18 28.5t12 20.5q21 32 52 32 q4 -1 8 -1q36 -4 48 -35q4 -11 4 -23q0 -21 -13 -46q-2 -2 -43 -48q-7 -6 -20 -19t-27 -25.5t-29 -24.5q-34 -25 -58 -35q-32 -17 -64 -17l-26 3q-8 0 -24 8q-14 5 -25 14q-4 3 -20 19l-11 14q-12 14 -20 39q-25 -58 -74 -101q-49 -42 -104 -45q-32 0 -55 5l-27 6l-21 8 q-51 17 -84 76q-15 30 -32 90q-16 76 -19 168z" />
<glyph unicode="v" horiz-adv-x="638" d="M10 606v13q0 39 16 60q19 24 48.5 11.5t54.5 -57.5q2 -4 1.5 -17.5t0.5 -23.5v-60q0 -44 2 -71q0 -55 2 -86q4 -65 8 -94q6 -49 21 -99q11 -46 39 -86q3 -2 7.5 -7.5t6.5 -6.5l8 -6l4 -2l15 10q31 35 59 84q27 50 51 96l43 96l37 91l31 81q3 8 11 32.5t11 35.5 q7 27 19 55q1 4 2 18t6 19q39 36 68 36q10 0 20 -5q27 -15 27 -58q0 -10 -2 -22q0 -3 -8 -13.5t-11 -17.5q-4 -7 -13 -24.5t-13 -24.5q-21 -42 -33 -65q-8 -20 -37 -80q-7 -17 -22.5 -50t-18.5 -40q-33 -63 -49 -97q-22 -46 -55 -100q-40 -66 -74 -100q-7 -7 -31 -23 q-16 -8 -45 -8l-10 2l-6 4l-4 2l-9 6l-16 11q-4 3 -8.5 6.5t-9.5 9.5t-7 8q-40 48 -57 111q-12 40 -24 108q-14 81 -15 99q-9 74 -10 88q-1 10 -3 24.5t-3.5 25t-3.5 19.5q-7 40 -11 54q-1 3 -5.5 12.5t-4.5 15.5z" />
<glyph unicode="w" horiz-adv-x="741" d="M10 680q2 40 35 54q15 6 29 7q18 0 34 -10q26 -15 26 -46q0 -5 -1 -11q0 -7 -3.5 -27.5t-4.5 -32.5q-1 -8 -4 -40.5t-4 -53.5l-6 -123q-3 -61 -3 -105q0 -22 1 -40q0 -25 2 -39q0 -5 1 -17t1 -18q5 -22 10 -39q2 -16 10 -39q8 -24 14 -34q2 -4 7 -9q2 2 20 29 q12 22 23 47.5t27 68t20 54.5q7 18 20 56.5t24.5 68t26.5 57.5q8 14 23 19t29 -2q18 -9 18 -31v-4l2 -4q5 -69 49 -174q46 -105 90 -154q13 -13 26.5 -19t16.5 -3q4 0 6 4q3 0 5 2l2 4h2l10 18l6 8l4 9q10 25 12 32q6 17 9 37q6 25 10 76q3 42 3 88q0 27 -1 55 q-1 25 -4 66.5t-4 56.5q-2 17 -6 49t-5 47q-8 58 -8 66v8q0 41 28 57q14 8 29 8q17 0 33 -10q32 -19 31 -59q0 -5 -1 -26.5t-1 -36.5q-1 -12 -1 -27t0.5 -36t0.5 -34v-127q0 -80 -8 -153q-16 -113 -49 -178q-2 -4 -25 -39l-2 -4h-2v-2l-8 -9l-12 -10q-12 -9 -33 -16 q-12 -3 -24 -3q-24 0 -48 13q-23 12 -45 37q-53 58 -104 176q-22 53 -31 86l-25 -68l-20 -56t-26.5 -70.5t-26.5 -55.5q-15 -26 -31 -45q-15 -15 -29 -22q-27 -15 -53 -2q-7 3 -13.5 7.5t-10.5 7.5t-8.5 9t-6 8.5t-5.5 9t-5 7.5q-7 12 -21 45q-3 8 -14 45q-1 6 -5 20.5 t-5 22.5l-6 45q-1 7 -2 21t-2 20q-5 69 -5 151q0 23 -1 64t-1 59q0 20 -1 52t-1 44q0 15 -2 36t-2 26z" />
<glyph unicode="x" horiz-adv-x="628" d="M12 725q-9 31 15.5 55.5t57.5 23t42 -33.5q1 -2 1.5 -5t1 -8t1.5 -9q5 -25 8 -31q9 -15 19 -35q11 -19 28 -43q15 -23 37 -49q6 -8 21 -25t22 -26t23 -28t24 -28q13 -17 47 -55l13 55q3 15 8 60l6 51q1 6 1 14t-0.5 17t-0.5 14q0 25 -2 35q0 6 -2 13.5t-2 8.5q0 50 34 66 q14 7 28 6q19 0 37 -13q25 -19 26 -53q0 -8 -2 -16q-6 -12 -8 -20q-4 -20 -9 -35q-4 -31 -8 -47q-1 -5 -3.5 -16t-5 -21t-5.5 -19q-10 -49 -14 -63l-19 -66q-5 -21 -16 -55l26 -43l35 -59q3 -5 16 -24t19 -28q9 -16 31 -47l26 -39q17 -22 23 -26q9 -12 16 -19q12 -19 12 -37 q0 -16 -10 -31q-20 -31 -52.5 -29.5t-53.5 32.5q-1 2 -2.5 10t-3.5 14q-2 4 -7 15t-8 18q-14 32 -20 43q-3 9 -12.5 26t-12.5 25q-12 28 -28 56q-15 31 -27 47l-21 -58q-13 -36 -26 -67l-25 -64l-24 -59q-20 -45 -23 -51q-10 -28 -18 -43q-11 -26 -13 -35l-5 -15l-3 -10 q-11 -34 -43 -34q-6 0 -12 1q-36 6 -53 38q-15 28 2 57l16 16l23 29q18 27 24 39q3 5 8.5 14t10 17t8.5 16q22 35 29 53q6 10 15 31t13 29q14 29 27 65q14 41 26 68q2 7 7.5 24t7.5 27q-5 8 -31 45l-45 55l-49 51q-40 45 -47 52l-43 47q-7 7 -37 43q-31 41 -33 45 q-14 19 -22 33q-2 4 -8 9.5t-7 8.5z" />
<glyph unicode="y" horiz-adv-x="923" d="M10 508q0 86 4 115q3 27 27 34q20 7 43 0q27 -8 39 -20q14 -21 12 -35q-9 -39 -14 -96q-2 -48 -2 -88t2 -72q2 -29 10 -96q10 -53 27 -98q1 -3 4.5 -10.5t5.5 -10.5q4 -6 12 -14v-2l6 -4q9 -9 13 -9q8 -6 18 -8q10 -4 20 -4q27 0 58 29q66 61 143 231q45 92 60 117 q8 14 23.5 18.5t29.5 -4.5q20 -9 20 -32v-3l4 -190q0 -19 5 -141v2q31 23 82 57t59 39l94 61q24 13 45.5 11t34 -16.5t17 -32.5t-5 -38t-32.5 -32q-10 -4 -24 -11t-35.5 -18t-36.5 -18q-72 -40 -141 -86q-34 -23 -55 -39v-72q-1 -57 -2 -171.5t-2 -172.5q0 -101 -5 -172 q-8 -113 -30 -178q-17 -49 -45 -84l-9 -10l-4 -6h-2l-4 -5q-10 -10 -16 -14q-18 -16 -45 -29q-36 -16 -69 -16q-21 0 -40 6q-53 17 -84 64q-30 40 -43 84l-22 77l-13 84q-2 15 -2 84q5 150 91 297q64 112 170 211q34 34 100 88l-6 197l-2 31q-26 -55 -41.5 -84.5t-44 -72.5 t-60.5 -75q-31 -31 -71 -45q-24 -9 -48 -9q-22 0 -43 7q-20 6 -40 19q-2 1 -5.5 3t-5.5 3.5t-4 3.5l-6 4q-3 2 -5.5 4.5t-4.5 3.5q-18 18 -27 33q-11 14 -18 31q-21 46 -37 118q-10 48 -17 107q-5 57 -10 170zM224 -589q0 -12 1 -23l11 -72q2 -10 9.5 -36.5t10.5 -41.5 q7 -32 31 -59q29 -40 65 -40q17 0 35 9q17 8 27 16q12 12 14 15l4 2l2 2l4 6q23 26 35 63q20 62 27 160q3 24 4 52.5t1 63.5t1 54q0 56 1 170t1 170v17q-24 -20 -39 -35q-102 -91 -160 -187q-75 -119 -84 -258q0 -8 -0.5 -22t-0.5 -26z" />
<glyph unicode="z" horiz-adv-x="847" d="M16 -37q-14 25 4 43l7 6l-2 2l10 6q12 12 27 24.5t22.5 18t29.5 19.5t25 16q12 7 37.5 21.5t39 22.5t33 21t36.5 27q83 62 135 109q69 59 121 117l32 39q-5 0 -16 -1t-16 -1q-12 -1 -35.5 -4.5t-36.5 -4.5q-26 -5 -125 -10h-10q-12 0 -33 -1t-31 -1l-55 6q-70 4 -78 4 q-13 0 -30.5 -2t-22.5 -2q-36 2 -52 34q-9 17 -8 33q0 15 7 29q14 27 48 27h7q5 0 55 -8q60 -10 88 -16q28 -3 50 -9q8 0 26 -1t27 -1l10 -2h6q72 0 113 4l74 7q6 0 19 1t19 1q7 0 21.5 -1t21.5 -1l37 -3q15 -2 26 -14t11 -29q-5 -16 -8 -20l-41 -55l-45 -49 q-73 -77 -127 -121q-45 -39 -139 -113q-38 -29 -74 -51q24 0 67.5 -1t63.5 -1h33q6 0 17.5 1t17.5 1q40 4 63 4q11 2 49.5 7.5t57.5 8.5l84 17l57 14q30 1 48.5 -10.5t22 -29t-1 -35.5t-20 -32t-35.5 -16h-55q-7 -1 -37.5 -4t-50.5 -4q-87 -5 -115 -8h-137q-16 1 -68.5 4.5 t-80.5 3.5q-88 0 -140 -29l-16 -10l-12 -8q-12 -8 -27.5 -5t-24.5 15z" />
<glyph unicode="{" horiz-adv-x="583" d="M10 600l21 25l22 30q82 104 111 146q43 65 43 149q1 36 -19 162q-18 88 0 172q13 74 66 141q25 36 84 95q40 37 70 61q7 7 22 21t21 18q38 29 84 10q39 -16 38 -48q0 -33 -51 -62q-4 -2 -49 -29q-20 -12 -70 -49q-41 -31 -77 -72q-44 -54 -56 -104q-16 -66 -4 -140 q2 -12 6.5 -40.5t6.5 -44.5t4 -41.5t2 -49.5q-3 -106 -60 -190q-16 -22 -112 -150l-4 -4q50 -50 79 -86q77 -92 74 -188q2 -13 -8 -53q-11 -40 -14 -46q-4 -10 -14 -35.5t-15 -39.5q0 -3 -3 -15t-3 -18l-2 -8v-27q1 -6 1 -19t1 -18t4 -15t4 -15q2 -20 20 -60q5 -17 29 -55 q4 -10 31 -47q13 -21 33 -41q6 -5 15.5 -16t14.5 -15q5 -3 15.5 -11t15.5 -11q7 -6 15 -11t16.5 -8.5t11.5 -5.5q29 -18 36 -54t-15.5 -53.5t-81.5 3.5q-31 18 -54 43q-3 3 -9.5 10t-12 12.5t-10.5 9.5q-27 33 -35 43q-16 19 -33 49q-28 42 -35 58q-2 4 -13 27t-15 38 q-22 67 -23 78l-8 45v74l2 12l12 45q6 17 18.5 45.5t14.5 34.5l12 37l4 16l2 7v12q3 68 -57 141q-24 31 -96 103z" />
<glyph unicode="|" horiz-adv-x="212" d="M12 750q0 -99 2 -150q4 -102 4 -151q3 -77 9 -146q2 -23 5 -69.5t5 -69.5q0 -11 12 -129q8 -87 10 -115l13 -94q2 -13 3.5 -27t2.5 -27.5t2 -19.5q0 -39 2 -51q6 -40 39 -62.5t60.5 0t19.5 93.5q-1 4 -6 19.5t-7 25.5q-10 34 -18 69q-12 58 -18 93q0 3 -7.5 44.5 t-11.5 65.5q-13 85 -16 123q-2 21 -7.5 67t-7.5 72q-8 93 -10 142l-6 149v148q0 98 2 143l6 139q1 21 4 63t4 62q11 103 11 111l12 92q1 10 3.5 25.5t4 26.5t2.5 20l10 45q2 30 -27.5 49.5t-60.5 11t-34 -46.5q0 -5 1 -20.5t1 -28.5v-70q-1 -17 -2.5 -51t-2.5 -45 q0 -16 -1 -53.5t-1 -57.5q-1 -21 -2 -64t-2 -65q0 -22 -1 -69t-1 -72q-3 -70 0 -145z" />
<glyph unicode="}" horiz-adv-x="567" d="M13.5 1541q-7.5 21 0.5 38t22 29t36 12t43 -16q6 -4 21 -18t22 -21q15 -12 69 -62q56 -52 86 -92q50 -67 66 -141q17 -76 0 -174q-21 -129 -21 -162q3 -87 45 -150q19 -27 59.5 -79t49.5 -64l25 -31l20 -26l-25 -23q-67 -67 -96 -104q-58 -74 -55 -140v-12l2 -6 q1 -2 2 -6.5t2 -7.5q0 -1 4 -15.5t8 -21.5q0 -1 13.5 -33t19.5 -49q8 -27 10 -45l2 -12l2 -3v-71q-3 -11 -8 -45q-2 -15 -22 -78q-4 -11 -31 -66q-3 -9 -33 -57q-26 -39 -35 -51q-4 -4 -15.5 -19t-18.5 -22l-33 -33q-8 -9 -18 -17t-20.5 -15.5t-14.5 -10.5q-24 -14 -47 -14 t-37 13.5t-19.5 31t5 38.5t36.5 36q2 2 18 9t25 15q9 5 31 23q5 4 31 30q14 15 32 39q5 8 16.5 23.5t16.5 23.5q4 9 14.5 28t14.5 28q2 6 10 27.5t10 33.5q4 22 8 31q0 18 3 39v24l-3 9q0 4 -1 10t-2.5 13t-2.5 11l-28 76q-1 2 -17 45q-7 48 -6 53q-3 93 74 185q25 33 80 88 l-4 6q-13 17 -36 46t-42 54.5t-35 48.5q-56 83 -59 189q0 48 18 176q10 82 -4 139q-17 59 -57 105q-36 42 -78 73q-50 36 -70 50q-8 5 -25.5 14.5t-23.5 13.5q-22 15 -29.5 36z" />
<glyph unicode="~" horiz-adv-x="40" />
<glyph unicode="&#xa1;" horiz-adv-x="182" d="M10 1077q3 -28 27 -44t57 -13q31 3 52 25t18 49q-3 26 -27.5 43t-56.5 14q-31 -3 -51.5 -24.5t-18.5 -49.5zM23 899l8 -33l6 -53l6 -68q4 -50 8 -79l6 -93q6 -47 9 -96q4 -36 8 -104q1 -18 4 -53t4 -52q0 -34 4 -104q2 -35 2 -103v-98q0 -16 -2 -44.5t-2 -41.5l-6 -78 q-2 -31 -10 -65q-2 -19 -11 -51q-2 -14 -8 -31q-4 -40 25.5 -60.5t61.5 -7t36 55.5q0 4 -4 32v52q0 9 1 31t1 36q0 51 -2 82q0 10 0.5 28t0.5 33t-1 29q-1 17 -2 50t-2 50q0 33 -4 103l-13 213q-4 70 -4 102l-6 99q0 61 -2 90v80q0 47 2 67q0 23 4 51t4 33q0 28 -28.5 47.5 t-58.5 8.5t-35 -58z" />
<glyph unicode="&#xa2;" horiz-adv-x="1091" d="M12 262q5 93 41 227q30 113 72 213q39 98 94 191q59 99 119 162q56 59 123 98q1 2 2 6t2 6q1 3 2 9.5t2 9.5q0 4 1 11t1 11q1 4 2 12.5t2 12.5q0 4 1 12t1 12q2 8 2 27l2 29l2 26v25q0 5 -1 14t-1 13q0 14 -2 22l-2 21q-1 3 -2 8.5t-2 7.5l-6 14q0 1 -2 4t-2 4 q-13 25 23 47q37 25 69 11q31 -14 29 -62l-4 -8q-2 -2 -7 -12q-1 -2 -2 -7.5t-2 -8.5t-2 -10.5t-2 -10.5q-1 -4 -2 -12t-2 -11q0 -4 -1 -13t-1 -13q-2 -8 -2 -27l-4 -53v-27q2 -8 2 -24q0 -4 1 -12t1 -11q2 -4 2 -10q39 9 80 12q39 3 123 -12q61 -17 76 -25q41 -23 46.5 -63 t-23.5 -55.5t-79 8.5q-31 20 -53 29q-56 18 -90 18q-57 0 -117 -25q-62 -27 -123 -88q-52 -52 -112 -143q-58 -96 -92 -180q-46 -107 -70 -201q-36 -131 -41 -215q-7 -116 37 -199q18 -37 59 -73q32 -26 82 -43q78 -21 187 2l47 12l41 16q22 8 77 39q53 35 125 103 q24 24 97 102q15 17 40 45t35 39q38 41 54 55q40 38 78 28t38 -46.5t-39 -73.5q-6 -5 -24 -19t-31 -24q-28 -22 -80 -74l-104 -100q-66 -60 -146 -106q-53 -30 -90 -45q-3 0 -6 -3v-47q-2 -8 -2 -22q-1 -4 -2 -12t-2 -11l-2 -22l-4 -23q0 -14 -2 -20v-39l2 -14q0 -2 1 -6.5 t1 -6.5l6 -10q0 -1 2 -3t2 -3q16 -16 -16 -45q-38 -33 -73 -29q-43 4 -34 76q0 1 2.5 3.5t3.5 4.5q4 4 7 12l6 15l6 16q0 5 4 21l6 18q0 8 4 20l2 21q2 8 2 20q4 11 0 19v18q0 3 -2 7t-2 6q-4 8 -4 10h-6q-127 -25 -225 4q-67 21 -109 57q-52 46 -78 99q-53 106 -43 237z " />
<glyph unicode="&#xa3;" horiz-adv-x="1296" d="M16 -115q-17 46 15 101q25 38 65 57q29 16 74 27l37 6q4 0 10 1t10 1l17 2h22q19 38 29 63q50 120 86 258l2 2l2 9q20 58 23 129v37q-12 -3 -25 -3q-46 -4 -66 -4l-61 -6l-51 -6q-10 -3 -43 -8q-3 -1 -33 -8q-5 -2 -12.5 -6t-10.5 -5q-43 -7 -63 35q-18 38 1 66 q13 20 40 20q2 0 11 -1t14 -1h34q7 0 24 -1t26 -1q37 0 57 2h151l-2 21q-5 35 -22 124t-21 138q-6 72 2 135l7 35l8 29q3 13 11 32.5t11 28.5q27 57 72.5 101.5t99.5 68.5q84 37 195 37q33 0 149 -17q84 -21 95 -26q68 -28 80.5 -68.5t-27 -54t-103.5 9.5q-47 24 -73 31 q-62 19 -123 24q-91 7 -156 -22q-88 -33 -131 -123q-17 -40 -18 -45l-11 -29q-1 -5 -2 -13.5t-2 -12.5q-7 -44 -4 -115q3 -45 18.5 -134t20.5 -124q0 -5 1 -14.5t1 -14.5q8 0 23.5 1t23.5 1q12 0 37 1t37 1t35 1t35 1q9 1 32.5 2.5t34.5 2.5t32.5 2t31.5 2q9 1 27.5 2 t27.5 2q32 4 45 4l37 6q5 1 12.5 3.5t9.5 2.5q69 9 90 -31q17 -33 -12 -63q-26 -29 -75 -29q-2 0 -10 2.5t-13 3.5q-20 4 -37 4q-7 1 -23 2.5t-22 2.5q-9 0 -27.5 1t-27.5 1q-10 0 -31 1t-33 1h-137q-12 0 -37 -1t-37 -1q-29 0 -45 -2q0 -7 1 -21.5t1 -21.5q-7 -86 -28 -148 l-2 -10v2q-41 -146 -91 -266q-2 -5 -7 -15.5t-7 -15.5h27q68 0 250 -14q142 -15 215 -19q33 -2 94 -2h43q7 0 20.5 1t20.5 1l72 6l59 13q4 2 10 2q10 16 25 16q3 0 13.5 -1t19.5 -1h14q24 -2 40 -19.5t15 -41.5q-1 -23 -16 -38.5t-37 -17.5q-4 -2 -16 -2h-9l-39 -6 q-8 -1 -30.5 -4t-36.5 -4q-27 -2 -80 -2q-29 0 -45 -2q-7 1 -22.5 2t-22.5 2q-3 0 -40.5 2t-57.5 4l-218 25q-137 18 -239 20q-32 3 -68 0l-12 -22q-1 -4 -21 -33l-10 -15l-6 -8l-2 -4v-2l-4 -4h-2l-25 -27q-4 -5 -30 -26q-42 -30 -86 -35q-26 -3 -55.5 13t-39.5 44zM86 -88 q7 -10 20 -10q27 4 46 20q17 13 22 19l25 24l18 25l4 10l-4 -2l-31 -4q-38 -9 -53 -19q-27 -12 -39 -30t-8 -33z" />
<glyph unicode="&#xa6;" horiz-adv-x="266" d="M10 1475q0 27 30.5 40t61.5 4t31 -36q0 -1 -2 -8t-2 -11q-1 -5 -2 -15t-2 -15v-39q0 -7 -1 -23t-1 -24q2 -16 2 -54q0 -37 2 -57q0 -41 2 -61q1 -10 2 -31t2 -31q0 -21 4 -61q1 -10 2 -31t2 -31l6 -57l7 -53l6 -45l6 -41l6 -29l2.5 -7.5t2.5 -8t1 -5.5q7 -34 -23.5 -51 t-64 -5t-33.5 48q0 5 4 21q1 4 2.5 15t2.5 15q0 27 2 41v101q0 9 -1 28t-1 29t-1.5 31t-1.5 31q-1 10 -2 30.5t-2 30.5t-2 30.5t-2 30.5q-4 40 -4 62l-6 57l-6 51l-6 48q-1 8 -4 20.5t-4 17.5l-7 29q-1 4 -4.5 10.5t-3.5 8.5zM86 420q-7 35 34 53q40 17 69 -1q23 -14 18 -46 q0 -2 -4 -18q0 -4 -1 -14.5t-1 -16.5t-1 -19t-1 -20v-100q2 -18 2 -58q2 -18 2 -59q4 -40 4 -64q4 -40 4 -61l6 -59q1 -10 2 -29.5t2 -28.5l6 -53l6 -47l7 -39q1 -7 4 -19l4 -12l6 -20q8 -45 -32 -62q-37 -15 -68 8q-23 17 -23 48q0 2 2.5 8.5t3.5 11.5q0 3 1 14t1 17 q2 10 2 39q0 31 2 47q-2 16 -2 53v57q-1 10 -2 31t-2 31q0 10 -1 30.5t-1 30.5l-6 62q0 21 -4 61l-6 57l-6 52l-7 47l-6 39q-1 7 -4.5 16.5t-3.5 11.5l-2.5 7.5t-2.5 8t-1 5.5z" />
<glyph unicode="&#xa7;" horiz-adv-x="927" d="M16 745q12 52 52 125q41 63 51 80q7 11 15 26t9 17v2q-22 30 -28 43q-58 103 -35 203q19 95 108 166q63 50 160 76q74 19 154 16q61 0 131 -18q18 -5 94 -33q50 -22 59 -29q21 -13 28.5 -33.5t1.5 -38.5t-19 -31.5t-34 -13.5t-44 15q-4 3 -18 14.5t-25 18.5 q-43 24 -74 34q-65 21 -104 23q-62 6 -129 -6q-76 -17 -131 -58q-70 -50 -84 -118q-19 -75 26 -152q1 -2 23 -35l4 -4v-2l8 -10q3 -2 8.5 -7.5t7.5 -6.5q16 -16 68 -37q62 -20 180 -39q133 -22 189 -43q42 -16 88 -47q2 -2 5.5 -5t6.5 -6l8 -6l17 -14l32 -31q73 -73 90 -164 q13 -86 -34 -167q-40 -67 -80 -107q-37 -43 -66 -72q-22 -22 -30 -32q77 -63 112 -134q27 -45 26 -105.5t-30 -107.5q-46 -76 -147 -129q-70 -35 -166 -49q-82 -12 -156 -6q-68 6 -127 25q-41 10 -96 35q-54 26 -60 30q-34 21 -29 57t34.5 49.5t64.5 -5.5q18 -18 43 -33 q38 -25 74 -37q54 -21 106 -29q69 -10 133 -2q78 7 144 39q79 34 117 94q42 72 2 142q-6 16 -48 69q-5 4 -14.5 14t-15.5 15t-18 16t-17 15q-62 46 -158 80q-159 56 -176 63q-106 47 -160 98q-71 65 -106 138q-41 80 -21 165zM106 725q-15 -53 9 -111q21 -51 86 -116 q44 -44 133 -84q30 -13 89.5 -34.5t80.5 -29.5q44 -15 102 -45q0 8 4 12l49 35q50 40 70 60q37 34 72 84q34 52 28 108q-7 65 -61 119q-7 11 -29 29l-16 16l-8 6q-4 4 -6 4q-30 24 -70 39q-65 25 -172 43q-142 23 -193 41q-6 3 -18 8.5t-18 8.5q-8 -10 -31 -33 q-38 -47 -53 -70q-38 -57 -48 -90z" />
<glyph unicode="&#xa9;" horiz-adv-x="829" d="M10 797q-3 96 21 168q26 82 96 143q48 40 121 59q-28 7 -18 40q9 31 39 42q13 4 26 2q49 -12 100 -26l70 -21q54 -17 78 -28q44 -7 86 -29q18 -8 14 -19q33 -20 62 -43q75 -60 100 -143q22 -68 8 -170q0 -3 -18 -88q-8 -19 -15 -43q-6 -22 -18 -47q-43 -97 -125 -176 q-46 -46 -102 -80q-80 -49 -170 -49q-58 0 -99 18q-43 18 -67 39q-43 35 -78 90q-53 83 -80 182q-28 95 -31 179zM106 799q0 -81 25 -170q26 -96 74 -174q37 -55 65 -76q47 -40 95 -37q41 -2 106 33q40 23 90 69q71 70 113 164q2 4 14 41l12 43q16 78 17 84q10 90 -12 154 q-23 66 -91 117q-9 6 -59 36q-8 -1 -14 -0.5t-11 1.5l-6 1q-34 17 -53 21q-56 14 -121 6q-84 -7 -133 -45q-59 -47 -86 -117q-25 -70 -25 -151zM188 666q0 33 11 79q1 4 24 70q16 38 31 64q13 26 37 57q9 12 24 27l6 5q6 4 11 5l6 6h4l6 2q24 12 58 12q25 3 47 -4q5 0 9 -1 l5 -1l24 -1q-3 -1 -18 -1h2l33 -14q34 -22 35 -47.5t-27.5 -38t-69.5 -2.5q-4 0 -8 2h4v16l-18 -6q-16 4 -21 4q-11 4 -28 -2h-4l-2 -4q-1 -1 -6 -5t-9 -7q-13 -15 -30 -43q-10 -16 -29 -54q-13 -39 -21 -59q-8 -40 -8 -59q0 -15 2 -17l4 -10l4 -6q12 -10 37 -10q31 4 47 16 q16 6 21 14q9 2 22 15q22 18 33 34q21 21 25 31q16 20 18 23q2 6 10 22q10 17 41 17.5t50 -19.5t0 -55q-3 -5 -19 -21q-3 -6 -12 -15.5t-12 -12.5l-37 -35q-3 -3 -19 -17t-26 -22q-19 -9 -27 -16q-23 -14 -31 -17q-32 -17 -78 -20q-55 -4 -92 28q-10 7 -18 20.5t-10 22.5 q-11 18 -11 50z" />
<glyph unicode="&#xab;" horiz-adv-x="874" d="M14 434q-4 42 0 58q4 33 29 94q19 39 45 80q4 7 47 69q12 19 45 62q21 23 43 53l37 43q15 21 29 35q4 5 9 13.5t7 10.5q41 34 79 5q30 -23 26 -58q-4 -23 -23 -37q-2 -2 -10 -6.5t-12 -7.5q-11 -6 -33 -25q-24 -20 -41 -37l-45 -45q-40 -45 -47 -55q-36 -45 -47 -63 q-18 -23 -41 -70q-21 -48 -25 -72v-30q2 -9 6.5 -21t5.5 -14q4 -9 41 -70q22 -37 45 -65q15 -21 45 -60q27 -34 41 -51l37 -43l31 -31q4 -4 22 -16q37 -38 11 -78q-20 -33 -56 -33q-31 2 -49 33q-1 0 -14 27l-23 37l-69 104l-41 66q-6 9 -21.5 32t-23.5 37q-5 10 -20 37 t-23 43q-16 42 -17 49zM485 537v12q-2 36 23 92q9 17 47 72l47 59q19 19 47 51q6 8 19 23t18 22q25 35 27 39q2 2 5.5 8.5t4.5 8.5q0 2 4 10q1 3 2 10.5t2 9.5q15 35 64 40q46 5 63 -22q18 -27 -16 -71l-19 -22q-8 -8 -14 -17l-16 -18q-25 -25 -39 -37q-5 -6 -12.5 -13.5 t-16.5 -16t-14 -13.5q-16 -14 -49 -47q-38 -37 -48 -51q-31 -40 -39 -58q-18 -36 -18 -59v-10q4 -31 14 -54q7 -19 33 -63q11 -19 41 -57q31 -41 43 -52q8 -9 21 -25t18 -22q15 -12 35 -37q4 -4 15 -13.5t14 -14.5q18 -18 20 -21q28 -34 10 -66t-52 -33t-58 30q-4 12 -9 22 q-8 20 -18 35l-29 41q-4 7 -9.5 15.5t-13 19t-11.5 16.5q-3 5 -17.5 25t-21.5 32q-30 43 -43 66q-28 53 -37 74q-17 53 -17 80z" />
<glyph unicode="&#xac;" horiz-adv-x="40" />
<glyph unicode="&#xad;" d="M68 385q-16 33 6 59q16 17 43 17q104 -4 243 -4q38 0 73 4.5t79.5 13t73.5 12.5q58 0 72.5 -29.5t-9 -59t-57.5 -29.5q-43 1 -113 0t-114 0q-46 -3 -117 -6.5t-117 -6.5q-45 -8 -63 29z" />
<glyph unicode="&#xae;" horiz-adv-x="831" d="M10 750q-3 91 23 168q27 86 96 143q48 40 121 59q-28 7 -18 40q9 31 39 42q13 4 26 2q16 -3 100 -26q31 -6 68 -21q18 -4 80 -27q49 -11 86 -30q18 -8 14 -19q33 -20 62 -43q75 -60 100 -143q21 -74 8 -170q-4 -31 -20 -88l-13 -43q-17 -44 -18 -47q-45 -99 -125 -176 q-46 -46 -102 -80q-92 -49 -170 -49q-50 0 -99 18q-43 18 -67 39q-50 41 -78 90q-51 79 -82 182q-25 96 -31 179zM109 752q0 -84 24 -170q28 -99 74 -174q25 -42 65 -76q47 -40 95 -37q46 0 106 33q40 23 90 69q71 71 113 164q2 8 7.5 23.5t6.5 17.5l12 45q14 67 15 82 q13 87 -10 154q-25 66 -91 116q-31 24 -61 37q-7 -1 -12.5 -0.5t-10.5 1.5l-6 1q-13 13 -53 21q-56 14 -121 6q-90 -8 -133 -43q-60 -51 -86 -119q-24 -67 -24 -151zM225 903q0 41 35 41l27 -2q5 -1 18.5 -1t22.5 -1h39l16 -4l12 -2q5 0 13 -4h2l16 -4q4 0 12 -4q14 0 17 -1 l-13 -1l15 -7l12 -14q3 9 -6 12q3 0 16 -10q15 -10 17 -16q11 -11 16 -31q4 -20 -6 -37q-2 -5 -7.5 -12t-6.5 -8q-18 -18 -33 -27q-30 -21 -62 -37q-12 -6 -14 -8q3 -4 14 -12.5t15 -12.5q1 -1 47 -41l37 -38q18 -17 30 -35l21 -27q0 -4 6 -10q8 -8 8 -12q5 -5 5 -15t-5 -16 q-5 -10 -17.5 -18.5t-23.5 -8.5q-15 0 -26 17l-2 6q-4 4 -9 14l-18 25q-4 7 -25 32q-10 18 -30 37q-25 25 -39 35l-19 14l4 -63l2 -29l4 -26l5 -21v-6l2 -8l2 -10q0 -17 -2 -21q-7 -8 -22 -13t-23 -5q-11 0 -19 6t-10 11t-2 7v15l-1 -8q-1 3 -1 16v31l-2 26v29l-4 65l-2 31 q-6 3 -13 10q-7 21 -6 25q4 13 12 18l3 2l-3 19v31l-2 28l-2 27l-4 20l-6 -2q-17 -3 -27 9.5t-10 29.5zM344 782h4q14 9 21 11q8 6 25.5 16t25.5 16q14 9 20 17l2 2q-16 8 -22 10q-1 1 -4 2t-4 2h-4l-17 4h2l-9 2h1l-14 2h-2l-9 2h-16v-86z" />
<glyph unicode="&#xb0;" horiz-adv-x="548" d="M10 1249q-3 51 13 107q21 58 63 94q25 23 61 35q-3 20 15 40.5t41 16.5q6 -1 15.5 -3t23.5 -5.5t24 -5.5l45 -15q36 -12 45 -16q39 -8 56 -20q11 -4 16 -15q26 -17 33 -26q48 -33 69 -95q12 -45 5 -110q-1 -9 -3 -18.5t-5.5 -21t-4.5 -17.5l-8 -25q-1 -5 -12 -33 q-25 -54 -80 -112q-28 -31 -68 -52q-57 -32 -110 -32q-41 0 -68 12q-32 16 -45 29q-24 17 -51 57q-37 63 -51 117q-19 59 -19 114zM98 1249q0 -36 15 -102q17 -61 43 -103q24 -32 37 -43q23 -20 51 -20q30 0 57 18q30 18 53 41q50 50 66 97q2 4 8 22q1 7 4.5 17t3.5 12 q9 40 10 49q6 50 -8 88q-11 36 -49 66q-1 1 -33 20h-14l-12 8q-9 2 -25 4q-27 10 -67 7q-53 -7 -78 -25q-34 -29 -47 -68q-15 -41 -15 -88z" />
<glyph unicode="&#xb1;" horiz-adv-x="878" d="M15 211q14 31 55 31q2 0 9 -2t11 -2q4 -1 8.5 -1.5t11.5 -1.5t11 -2q25 0 39 -2h47q33 0 51 2h57q10 1 31 2.5t31 2.5q10 0 30.5 1t30.5 1l62 6q21 0 61 4l57 6q36 4 54 4q12 3 47 8l39 6l30 7q4 1 10.5 3.5t8.5 2.5q39 7 54.5 -23.5t0.5 -64t-47 -33.5q-4 0 -20 4 q-4 1 -15 2t-16 2q-25 0 -39 2h-102q-18 -2 -58 -2q-18 -2 -59 -2q-40 -4 -64 -4q-40 -4 -61 -4l-59 -6q-10 -1 -29.5 -2t-28.5 -2l-53 -7q-9 -1 -24 -4t-21 -4l-39 -6l-31 -6q-16 -8 -18 -8q-39 0 -58 30.5t-5 61.5zM68 670.5q0 17.5 15 31.5t42 19q8 -4 16 -6l27 -6 q9 0 33 -4q30 -5 41 -5l45 -6q8 0 24.5 -1t24.5 -1q8 -2 24 -2v10l-6 56q-6 48 -6 49q-4 32 -4 45l-6 37l-6 26q-1 4 -3.5 10.5t-2.5 8.5q0 40 42 52q39 12 66 -10q19 -15 15 -40q0 -2 -2.5 -7.5t-2.5 -8.5q-4 -16 -4 -29q-4 -24 -4 -37q0 -7 -1 -22t-1 -23v-49q0 -35 2 -53 v-17h6q36 0 52 2q35 0 51 2l47 6q8 1 43 11q8 1 21.5 4.5t15.5 3.5q6 2 16 6.5t14 5.5q20 10 23 12t7.5 6t6.5 5q37 13 62 -13.5t19 -61t-44 -42.5h-18q-4 0 -14 -1t-15 -1l-37 -6q-7 0 -21.5 -1t-21.5 -1l-47 -7q-35 0 -53 -2h-53q-16 -2 -54 -2q1 -3 2 -10.5t2 -11.5 q1 -9 4.5 -27.5t4.5 -27.5q3 -33 12 -56q0 -2 1 -5.5t1 -4.5q51 -4 51 -8q0 -2 -2.5 -8.5t-3.5 -10.5l-6 -28q-1 -6 -2 -19t-2 -20l-2 -25v-8q-1 -19 -14.5 -30t-32.5 -9q-13 0 -24.5 10.5t-14.5 24.5l-2 12l-2 15q-1 6 -4.5 21t-4.5 24l-12 53q-3 15 -8 57q-3 15 -8 60 l-6 32q-12 2 -35 2q-33 0 -49 -2h-45q-7 0 -21 -1t-20 -1q-6 -1 -17 -2t-16 -2q-20 -4 -27 -4q-2 -1 -8 -3.5t-8 -2.5q-15 0 -28.5 11t-20 27.5t-6.5 34z" />
<glyph unicode="&#xb6;" horiz-adv-x="40" />
<glyph unicode="&#xb7;" horiz-adv-x="174" d="M10 647q0 -20 6 -41q11 -22 27 -33q17 -14 43 -14h10q4 2 10 2q14 3 23 8q23 11 29 33q8 18 4 41q0 15 -8 35q-10 20 -19 29q-3 4 -18 14l-15 4q-2 0 -4 2h-10q-15 0 -25 -2q-8 0 -28 -12q-12 -12 -19 -29q-8 -24 -6 -37z" />
<glyph unicode="&#xbb;" horiz-adv-x="886" d="M15 63q-15 27 16 72q5 5 20 23q9 4 15 14l18 18q6 7 19.5 19t17.5 16q23 23 47 41q2 2 21 19.5t30 25.5q33 33 49 51q27 31 41 56q21 41 19 57v10q0 31 -11 56q-6 23 -30 63q-12 22 -41 60q-18 32 -39 53l-39 49l-33 37q-4 4 -9.5 11t-9.5 11.5t-7 8.5q-3 3 -11 10 t-10 10q-33 39 -7 76q22 31 59 26q31 -4 50 -36q2 -2 5 -10.5t6 -12.5q11 -27 16 -35l12 -20t15 -23q0 -1 13 -20.5t19 -30.5l37 -59q28 -39 39 -68q17 -28 37 -76q12 -50 12 -80v-12q-3 -51 -28 -90q-5 -12 -47 -72l-52 -57q-18 -15 -47 -49q-29 -29 -39 -43 q-9 -10 -28 -39q-1 -1 -10 -14l-5 -11q-1 -2 -1.5 -6.5t-1.5 -8t-3 -5.5q-14 -32 -61 -37.5t-63 22.5zM442 100q-2 33 45 56q2 2 10.5 6.5t12.5 7.5q5 3 18.5 12l16.5 11q18 15 39 36q24 18 49 43q29 29 49 54q30 30 49 61q23 29 45 68q24 54 25 71q2 6 2.5 17.5t1.5 13.5 q-2 9 -6.5 21t-5.5 14q-5 13 -18.5 37t-18.5 35q-7 12 -22 33.5t-21 31.5q-6 8 -14.5 21t-15.5 23t-13 18q-5 6 -13 17.5t-15 20.5t-13 15q-25 33 -35 45t-29 31q-3 3 -10.5 9t-9.5 9q-33 33 -8 70q21 32 58 31q28 -1 46 -27q1 -1 14 -27q2 -5 21 -39q8 -11 29 -49 q5 -7 16.5 -26.5t19.5 -30.5q5 -9 18.5 -32.5t20.5 -35.5q6 -11 20 -34.5t21 -37.5q31 -60 39 -79q9 -19 14 -52q3 -32 0 -57q-8 -44 -34 -92q-14 -33 -45 -78q-23 -35 -52 -68q-27 -39 -49 -61q-42 -48 -45 -51q-24 -28 -37 -41q-4 -5 -10 -13t-10 -12.5t-8 -7.5 q-4 -4 -10.5 -13.5t-8.5 -11.5q-37 -31 -84 -10q-37 17 -39 47z" />
<glyph unicode="&#xbf;" horiz-adv-x="657" d="M12 1051q-3 -30 19 -52q15 -15 43 -22q30 -3 49 2q20 6 33 25q16 33 4 55q-11 19 -41 26q-26 10 -58 0q-33 -6 -49 -34zM82 -135q0 11 1.5 41.5t0.5 48.5q10 92 29 168q12 65 41 158q8 28 29 75t26 60q20 66 10 98q-3 13 -8 28.5t-6 18.5q-11 16 -23 43q-39 76 -41 80 q-18 45 -22 61q-24 77 14 98q30 16 66 -15q29 -24 41 -64q1 -3 2.5 -17.5t3.5 -23.5q4 -18 26 -76q19 -50 19 -51q15 -34 18 -61q13 -69 -22 -152q-7 -18 -28 -61.5t-30 -69.5q-26 -72 -43 -146q-20 -75 -26 -159q-4 -53 -2 -80q-3 -32 4 -80q14 -91 49 -145q42 -64 102 -52 q58 11 113 66q54 57 80 108q30 61 41 105q10 60 -2 78q-12 17 -31 20h-14q-2 -2 -17 -2q-40 0 -66 12.5t-30.5 30.5t2.5 36.5t32 31t60 12.5q23 0 70 -18q25 -5 51.5 -30t36.5 -58q19 -60 -2 -134q-17 -62 -57 -127q-44 -71 -99 -120q-76 -72 -155 -86q-58 -10 -105 16 q-34 16 -71 72q-48 83 -60 174q-3 15 -8 88z" />
<glyph unicode="&#xd7;" horiz-adv-x="915" d="M12 778q-6 27 2.5 51t26.5 41t51 15.5t74 -25.5l10 -24l23 -33q2 -3 12.5 -17t17.5 -22q5 -8 18 -24t19 -25l45 -53q26 -29 47 -56q21 -21 25 -26l8 12q5 6 51 63l47 60q30 34 43 51q25 34 33 43l25 37q8 20 12 24q49 59 114 43q48 -12 66 -55q22 -54 -34 -101 q-7 -6 -15 -12l-24 -14q-22 -13 -35 -24q-7 -7 -22.5 -20t-20.5 -17q-3 -3 -20.5 -19t-28.5 -24q-8 -7 -16.5 -15.5t-19 -19.5t-16.5 -17l-53 -59l-18 -18l6 -6l57 -54q44 -40 58 -49l55 -43q3 -2 55 -37q44 -24 49 -28q9 -5 26 -11.5t19 -7.5l35 -12q4 -1 13 -2t12 -2 q63 -21 60 -79q-2 -47 -42 -79q-50 -38 -100 -4q-2 0 -21 20q-14 14 -32 29q-9 7 -43 33q-22 16 -50 41q-7 6 -26 21.5t-29 23.5q-2 2 -23.5 21.5t-33.5 29.5l-58 55q-47 47 -57 56l-7 -11q-8 -11 -13 -16l-50 -68q-4 -6 -21 -31t-24 -38q-5 -7 -8 -17q23 -25 35 -40.5 t8 -18.5q-2 -2 -5.5 -4t-9 -5t-9.5 -5q-7 -3 -37 -25q-8 -5 -23 -17.5t-22 -17.5l-27 -24l-12 -8q-20 -17 -45.5 -15t-42.5 21q-14 17 -15 39t11 39l12 16l-2 2l12 14q2 2 17 24t22 34q6 9 21.5 32t23.5 37q10 17 51 70q27 37 54 72q23 32 28 41q-13 16 -35 34l-53 54 l-49 47q-28 24 -43 39q-14 12 -41 30q-14 11 -33 23q-4 3 -12 6.5t-10 5.5q-17 18 -23 45z" />
<glyph unicode="&#xf7;" horiz-adv-x="1126" d="M16 479.5q14 -36.5 50 -30.5q3 0 12.5 2.5t13.5 3.5t18 4t23 4q34 4 51 8q36 4 64 4q34 6 69 6q75 6 78 6q67 5 82 5q4 0 34.5 2t47.5 4q29 2 82 2q81 6 84 6q13 0 38 1t38 1q25 2 71 2h117q9 0 23 -1t20 -1q6 -1 15 -4.5t12 -3.5q46 9 56 57q9 44 -16 72q-19 20 -46 14 q-7 0 -27 -4q-12 -6 -41 -10q-6 -2 -24 -6t-29 -7q-14 0 -64 -4q-11 -2 -35 -5t-34 -5q-26 -4 -78 -8q-12 0 -25.5 -1t-29.5 -2.5t-25 -2.5q-15 -1 -42 -4t-42 -4q-55 0 -82 -2h-82q-14 0 -40 -1.5t-38 -1.5q-35 3 -69 3h-64q-9 1 -26 2t-25 2q-10 0 -23 2t-18 2 q-18 4 -27 8q-33 0 -47 -39t0 -75.5zM485 891q6 -22 29 -39q24 -15 57 -18q35 0 58 20q10 33 -4 53q-11 21 -35 35q-21 12 -47 12q-24 0 -39 -12q-25 -25 -19 -51zM508 150q6 -26 31 -41q19 -14 55 -17q32 0 57 19q11 32 -2 55t-37 35q-21 12 -45 12t-39 -12 q-26 -26 -20 -51z" />
<glyph unicode="&#x2000;" horiz-adv-x="870" />
<glyph unicode="&#x2001;" horiz-adv-x="1740" />
<glyph unicode="&#x2002;" horiz-adv-x="870" />
<glyph unicode="&#x2003;" horiz-adv-x="1740" />
<glyph unicode="&#x2004;" horiz-adv-x="580" />
<glyph unicode="&#x2005;" horiz-adv-x="435" />
<glyph unicode="&#x2006;" horiz-adv-x="290" />
<glyph unicode="&#x2007;" horiz-adv-x="290" />
<glyph unicode="&#x2008;" horiz-adv-x="217" />
<glyph unicode="&#x2009;" horiz-adv-x="348" />
<glyph unicode="&#x200a;" horiz-adv-x="96" />
<glyph unicode="&#x2010;" d="M68 385q-16 33 6 59q16 17 43 17q104 -4 243 -4q38 0 73 4.5t79.5 13t73.5 12.5q58 0 72.5 -29.5t-9 -59t-57.5 -29.5q-43 1 -113 0t-114 0q-46 -3 -117 -6.5t-117 -6.5q-45 -8 -63 29z" />
<glyph unicode="&#x2011;" d="M68 385q-16 33 6 59q16 17 43 17q104 -4 243 -4q38 0 73 4.5t79.5 13t73.5 12.5q58 0 72.5 -29.5t-9 -59t-57.5 -29.5q-43 1 -113 0t-114 0q-46 -3 -117 -6.5t-117 -6.5q-45 -8 -63 29z" />
<glyph unicode="&#x2012;" d="M68 385q-16 33 6 59q16 17 43 17q104 -4 243 -4q38 0 73 4.5t79.5 13t73.5 12.5q58 0 72.5 -29.5t-9 -59t-57.5 -29.5q-43 1 -113 0t-114 0q-46 -3 -117 -6.5t-117 -6.5q-45 -8 -63 29z" />
<glyph unicode="&#x2013;" horiz-adv-x="995" d="M13 571q8 31 32 31q3 0 11 -2t14 -2q16 -4 34 -4q14 -2 48 -2q16 -2 55 -2h133q47 0 72 2q48 0 73 2q12 1 37 2t37 2l74 6q25 4 67 8l64 6q10 1 29 4.5t26 4.5l47 6q8 1 20 4t15 4q4 1 13 3.5t12 2.5q38 6 52.5 -24t0.5 -63.5t-43 -33.5q-5 0 -25 4q-5 0 -17.5 1t-19.5 1 q-22 0 -49 3q-27 0 -57 -3h-63q-12 -1 -35 -2t-35 -2q-22 0 -72 -4q-22 0 -76 -4q-25 -2 -73 -2q-50 -4 -72 -4q-50 -4 -70 -4l-63 -6q-36 -4 -55 -4l-48 -6q-20 -3 -34 -9q-5 -1 -13 -3.5t-10 -2.5q-22 0 -33 30.5t-3 61.5z" />
<glyph unicode="&#x2014;" horiz-adv-x="1187" d="M17.5 530.5q16.5 32.5 62.5 32.5q2 0 26 -4q7 0 22 -1t22 -1q8 0 26 -1t27 -1h141q27 2 82 2q14 1 42.5 2t43.5 2q14 0 43 1t43 1t43 1t43 1l86 6q14 1 41 2t41 2l74 7l63 6q7 1 19.5 2.5t22 2.5t16.5 1q11 3 40 8q5 1 15.5 3.5t13.5 2.5q37 6 54 -24.5t4 -63.5t-46 -33 q-6 0 -15.5 3t-12.5 4q-6 0 -22 1t-23 1q-16 2 -58 2t-65 2q-11 0 -36.5 -1t-39.5 -1h-80q-14 -1 -42.5 -2t-43.5 -2q-14 0 -43 -1t-43 -1q-73 -5 -86 -5l-168 -12l-137 -12l-55 -6q-30 -4 -41 -8q-5 -1 -14 -4t-11 -3q-47 -5 -69 25.5t-5.5 63z" />
<glyph unicode="&#x2018;" horiz-adv-x="167" d="M12 1501q2 -8 2 -26q0 -11 4 -27v-29l-2 -30q4 -23 2 -33q1 -2 2 -12t3 -15l2 -33q0 -4 1 -8.5t2.5 -10t2.5 -9.5t4 -14t4 -17q7 -17 33 -25t52 0t32 31q0 5 0.5 17t1 20.5t-1.5 18t-6 14.5q-1 3 -4 9t-4 7t-4 4.5t-5.5 4l-7.5 1.5t-11.5 0t-15.5 -2l-6 27v51q0 25 2 31 l4 49l6 23l5 20q3 2 3 9t-3 9q-9 9 -32 8t-45.5 -19.5t-19.5 -43.5z" />
<glyph unicode="&#x2019;" horiz-adv-x="180" d="M10 1524q0 -58 10 -70q2 -3 4.5 -7t4 -6t3.5 -4.5t4 -3t5.5 -1.5t8 -1t10.5 0.5t14 2.5l8 -27l2 -27l2 -24v-31l-2 -49l-4 -23l-2 -20q-3 -1 -3 -9t3 -10q10 -9 32.5 -6.5t43.5 23t16 45.5q-1 4 -2 13t-2 14q0 10 -4 26q0 5 -1 15t-1 14l-2 31q-4 24 -4 32q-1 2 -1.5 8 t-1.5 10.5t-4 8.5l-4 31q0 8 -8 28q-1 2 -10 31q-8 16 -34.5 22t-51.5 -3.5t-29 -32.5z" />
<glyph unicode="&#x201a;" horiz-adv-x="221" d="M10 -193q0 -14 24 -22t51.5 -0.5t35.5 31.5q1 3 4 10.5t4 13.5q7 15 10 25q3 5 7 14t6 12l14 29q11 27 12 29q0 1 4.5 10.5t3.5 15.5l13 29q0 1 6 29q1 2 6 33q1 18 -19.5 36t-44.5 22t-43 -13q-28 -50 -24 -66q0 -4 0.5 -11t0.5 -9t1.5 -6.5t5.5 -6.5t10.5 -5.5 t16.5 -6.5l-6 -27l-11 -24l-10 -23q-3 -3 -7.5 -12t-8.5 -14l-27 -41l-14 -19l-13 -16q-3 0 -6.5 -7t-1.5 -10z" />
<glyph unicode="&#x201c;" horiz-adv-x="348" d="M12 1155q3 -18 26.5 -31t50.5 -10.5t38 23.5q17 49 10 69q-1 4 -3 10t-3 8.5t-3.5 6t-6.5 5t-11 3t-18 2.5v27l4 26l6 25q3 13 9 29l16 47l10 20l8 19q3 2 5.5 8.5t1.5 9.5q-4 13 -29 15.5t-50 -10.5t-28 -38q0 -4 -2 -12.5t-2 -13.5q-4 -16 -4 -27l-6 -29l-6 -30 q-5 -27 -7 -31q0 -2 -1.5 -12.5t-0.5 -16.5l-4 -30q-3 -13 0 -29v-33zM199 1155q3 -18 26.5 -31t50 -10.5t37.5 23.5q17 51 11 69q-1 4 -3 10t-3 8.5t-3.5 6t-6.5 5t-11 3t-18 2.5v27l4 26l6 25q4 18 8 29l16 47l11 20l8 19q3 2 5.5 8.5t0.5 9.5q-4 13 -29 15.5t-50 -10.5 t-28 -38q0 -4 -2 -12.5t-2 -13.5q-4 -16 -4 -27l-6 -29l-6 -30q0 -1 -2 -13t-4 -18q0 -2 -1.5 -12.5t-0.5 -16.5l-4 -30q-3 -13 0 -29v-33z" />
<glyph unicode="&#x201d;" horiz-adv-x="360" d="M10 1524q0 -58 10 -70q2 -3 4.5 -7t4 -6t3.5 -4.5t4 -3t5.5 -1.5t8 -1t10.5 0.5t14 2.5l8 -27l2 -27l2 -24v-31l-2 -49l-4 -23l-2 -20q-3 -1 -3 -9t3 -10q10 -9 32.5 -6.5t43.5 23t16 45.5q-1 4 -2 13t-2 14q0 10 -4 26q0 5 -1 15t-1 14l-2 31q-4 24 -4 32q-1 2 -1.5 8 t-1.5 10.5t-4 8.5l-4 31q0 8 -8 28q-1 2 -10 31q-8 16 -34.5 22t-51.5 -3.5t-29 -32.5zM190 1524q0 -57 11 -70q2 -2 6.5 -10t6 -8.5t7 -3t13 -1.5t20.5 3l8 -27l2 -27l2 -24v-31l-2 -49l-4 -23l-2 -20q-3 -1 -3 -9t3 -10q10 -9 32.5 -6.5t43.5 23t16 45.5q-1 4 -2 13t-2 14 q0 10 -4 26q0 5 -1 15t-1 14l-2 31q-4 24 -4 32q0 1 -1 11.5t-5 15.5l-4 31q0 5 -9 28q-1 2 -10 31q-8 16 -34.5 22t-51.5 -3.5t-29 -32.5z" />
<glyph unicode="&#x201e;" horiz-adv-x="221" d="M10 -193q0 -14 24 -22t51.5 -0.5t35.5 31.5q1 3 4 10.5t4 13.5q7 15 10 25q3 5 7 14t6 12l14 29q11 27 12 29q0 1 4.5 10.5t3.5 15.5l13 29q0 1 6 29q1 2 6 33q1 18 -19.5 36t-44.5 22t-43 -13q-28 -50 -24 -66q0 -4 0.5 -11t0.5 -9t1.5 -6.5t5.5 -6.5t10.5 -5.5 t16.5 -6.5l-6 -27l-11 -24l-10 -23q-3 -3 -7.5 -12t-8.5 -14l-27 -41l-14 -19l-13 -16q-3 0 -6.5 -7t-1.5 -10z" />
<glyph unicode="&#x2022;" horiz-adv-x="505" d="M10 549q0 -61 25 -125q33 -72 84 -107q58 -43 133 -43h18q4 0 9 1t8 1q2 0 32 5q28 4 68 22q69 37 92 107q22 53 15 129q-5 52 -29 112q-24 49 -55 88q-9 11 -18 18t-25 16.5t-21 12.5l-41 11l-16 4q-4 0 -14 1t-15 1q-38 4 -76 -4q-48 -7 -90 -43q-40 -32 -63 -92 q-21 -52 -21 -115z" />
<glyph unicode="&#x2026;" horiz-adv-x="718" d="M20.5 30q3.5 -18 24.5 -30q18 -12 45 -10.5t47 18.5q9 24 -1.5 43t-31.5 27q-45 19 -67 -6q-20 -24 -16.5 -42zM286.5 30q3.5 -18 24.5 -30q18 -12 45 -10.5t47 18.5q9 24 -1 43t-31 27q-17 8 -37.5 7t-30.5 -13q-20 -24 -16.5 -42zM577.5 30q3.5 -18 24.5 -30 q18 -12 45 -10.5t47 18.5q9 24 -1 43t-31 27q-17 8 -37.5 7t-30.5 -13q-20 -24 -16.5 -42z" />
<glyph unicode="&#x202f;" horiz-adv-x="348" />
<glyph unicode="&#x2039;" horiz-adv-x="471" d="M9 556.5q2 13.5 11 21.5l5 4l22 16q20 18 55 45q9 8 27 25.5t27 25.5q33 33 47 49l86 91l33 32q9 9 24 29q2 3 4.5 7.5t4 7t3.5 3.5q34 34 71 6q32 -23 32 -58q0 -26 -23 -40q-2 -2 -9 -5.5t-11 -6.5q-17 -7 -31 -18q-7 -4 -20 -14.5t-19 -14.5q-7 -5 -21 -17t-22 -18 q-7 -7 -22.5 -20.5t-22.5 -20.5q-52 -46 -53 -47q-6 -5 -25 -23.5t-30 -27.5q-44 -34 -54 -43l6 -8q5 -6 19.5 -25.5t23.5 -28.5q24 -21 50 -47q15 -15 47 -39q10 -8 43 -35l39 -26l30 -17q22 -9 23 -10q41 -25 36.5 -62t-37.5 -48.5t-69 10.5q-3 2 -9 9.5t-9 10.5 q-6 8 -27 29q-9 9 -37 33q-6 7 -20 21t-21 22l-13.5 13.5t-18 17.5t-15.5 16l-47 53q-13 12 -47 60l-31 38q-7 11 -5 24.5z" />
<glyph unicode="&#x203a;" horiz-adv-x="466" d="M12 223.5q-5 33.5 27 65.5q2 2 10 5.5t12 6.5q4 2 14 10t15 11l37 30l41 35q14 15 45 43q32 35 49 51q9 8 26 26.5t27 27.5q31 27 54 45l-7 8q-9 7 -24 25t-25 26q-2 2 -51 45q-16 14 -47 37q-22 14 -45 33l-41 24l-31 15q-18 7 -22 10q-44 18 -41 59q3 36 36 51 q32 14 72 -8l6 -7q6 -7 11 -11q11 -15 28 -29q5 -5 18 -15t19 -16q5 -5 20 -18.5t23 -22.5q40 -35 49 -45l52 -51q8 -7 16.5 -16.5t18.5 -21.5t16 -19l29 -37q9 -11 7.5 -24t-12.5 -21l-2 -6l-22 -17q-52 -46 -53 -47q-5 -5 -23.5 -24.5t-28.5 -28.5l-45 -51 q-4 -5 -19.5 -23t-23.5 -26q-5 -6 -12.5 -15.5t-14 -17t-12.5 -12.5q-6 -6 -15.5 -18t-14.5 -17l-23 -29q-2 -3 -4.5 -8l-4 -8t-3.5 -4q-32 -32 -69 -20.5t-42 45z" />
<glyph unicode="&#x205f;" horiz-adv-x="435" />
<glyph unicode="&#x20ac;" horiz-adv-x="1224" d="M16 504.5q15 30.5 58 30.5q2 0 10 -2.5t14 -2.5q16 -4 35 -4q14 -2 47 -2q16 -2 56 -2h94q0 33 -4 99q-3 18 -7 81q-3 0 -9 -1t-9 -1q-11 -1 -32 -2t-31 -2l-56 -6l-47 -6l-35 -6q-5 -1 -12.5 -3.5t-9.5 -2.5q-39 -5 -55 36q-14 40 6 68q16 21 45 17q3 0 6.5 -1t8.5 -2 t9 -2t16.5 -2t18.5 -2q31 0 47 -2q38 0 56 -2h83q5 50 7 60q21 127 69 207q3 7 7.5 15t11.5 17.5t10 14.5q29 41 31 43l30 37l9 8l10 12l18 16q62 60 156 111q75 41 160 61q84 20 147 17q51 -2 115 -23q55 -20 71 -33q26 -17 37 -39.5t5 -40t-20.5 -30t-39.5 -10.5t-51 20 q-12 10 -43 31q-59 21 -84 22q-48 9 -119 -4q-74 -14 -139 -47q-77 -38 -142 -94l-16 -14l-4 -4h-2v-3l-8 -8l-31 -37q-7 -7 -16.5 -20t-12.5 -16q-20 -31 -24 -39q-45 -72 -62 -181q-2 -9 -4 -27t-2 -20h47q13 0 37.5 1t36.5 1l215 19q12 1 33.5 4t30.5 4l55 6q9 1 25 4 t22 4l35 6q15 6 24 9q43 7 63 -24t4.5 -65t-56.5 -34q-3 0 -11 2t-14 2q-5 1 -18 2t-19 2h-106q-8 0 -30 -1t-34 -1q-11 0 -33.5 -1t-35.5 -1q-12 -1 -36 -2t-36 -2q-50 -4 -76 -4q-13 -1 -37 -2t-37 -2q-8 0 -24.5 -1t-24.5 -1q0 -24 4 -82l6 -103q25 0 37 2q49 0 74 2 q13 1 37.5 2t36.5 2l74 7q25 4 67 8l64 6q10 1 29 4t26 4l47 6q8 1 20 4t15 4q5 1 13 4t11 3q37 6 56 -24.5t6.5 -63.5t-51.5 -33q-5 0 -25 4q-4 0 -17 1t-20 1q-31 0 -49 2q-37 0 -57 -2h-64q-12 -1 -34.5 -2t-34.5 -2q-22 0 -72 -4q-22 0 -76 -4q-12 0 -37 -1t-37 -1 q-10 -2 -32 -2q0 -6 1 -17.5t1 -17.5q14 -119 47 -189q36 -76 106 -149q63 -66 131 -101q65 -35 138 -38q68 -3 120 12q29 7 90 31q46 22 58 30q48 21 77.5 4.5t23.5 -55.5t-50 -59q-10 -6 -70 -25q-77 -21 -108 -27q-82 -11 -150 -4q-89 10 -168 56q-79 44 -151 123 q-47 54 -64 77q-7 8 -28 45l-25 50q-37 87 -51 213q0 6 -1 18t-1 18q-12 -2 -35 -2l-63 -6q-36 -4 -56 -4l-47 -6q-26 -4 -35 -8q-5 -1 -12.5 -3.5t-9.5 -2.5q-39 0 -58 31t-4 61.5z" />
<glyph unicode="&#x2122;" horiz-adv-x="1239" d="M10 1413q-5 29 16 45q14 10 33 4l29 -8l23 -6q6 0 30 -4q5 0 15.5 -1t15.5 -1q7 0 20 -1t19 -1h78q16 2 41 2q14 2 41 2q6 1 20 2t19 2q26 0 34 2q25 0 33 2q21 0 27 2q14 0 20 2q2 -1 3 -0.5t5.5 1.5t8.5 1q21 0 29.5 -20.5t-1 -41t-30.5 -20.5q-9 0 -17 4q-10 0 -18 2 q-4 0 -12.5 1t-12.5 1h-102l-21 -2v-55q0 -7 -1 -22t-1 -23q0 -31 -2 -49q0 -35 -2 -53v-58q-2 -16 -2 -57q-2 -16 -2 -55l2 -35q1 -8 1 -24.5t1 -24.5q0 -6 1 -20t1 -21q1 -6 2 -17.5t2 -15.5l6 -27l5 -10q7 -23 3.5 -38.5t-15 -20.5t-24 -3.5t-24 11t-16.5 24.5 q-1 3 -2 11.5t-2 11.5q0 19 -2 31l-2 61q2 14 2 51q0 9 1 28t1 28q0 39 2 59v57q0 9 1 28t1 28v98q-2 18 -2 43q-1 6 -2 17.5t-2 17.5l-4 22h-29q-14 -2 -43 -2h-39q-8 0 -20 1t-15 1h-33q-7 0 -16.5 1t-11.5 1q-6 2 -19 2h-12q-28 0 -33 29zM571 1307l13 26q11 23 18 31 q14 28 27 43q14 17 24 25q2 2 11 8q6 4 12 4q7 5 22 4t25 -8q14 -9 20 -27q6 -10 8 5q1 4 1 7l14 13q23 14 47 8q18 -2 39 -23q9 -9 17.5 -22t15.5 -30.5t11 -28.5t10.5 -33t8.5 -27q14 -52 33 -139l6 -29l4 76q7 102 21 164q13 39 14 41q13 19 19 24q4 4 10 6q3 0 2 2h23 l6 -2l4 -2q9 -5 16 -12t9.5 -11t7.5 -13.5t6 -10.5l12 -37q16 -54 35 -139l22 -121l23 -104q9 -45 18 -76q8 -28 17 -45q6 -16 6.5 -42.5t-6.5 -33.5q-32 -24 -64 47q-8 16 -16 56q-12 47 -19 84q-6 47 -18 102q-9 59 -21 123q-13 68 -30 133l-11 33l-4 8l-8 -25 q-12 -49 -20 -155q-4 -50 -8 -162q-3 -83 -3 -215v-12q0 -11 -9 -19t-17 -8q-10 0 -17.5 7.5t-9.5 15.5v4l-24 190l-31 148q-6 26 -18 72t-15 59q-3 7 -6.5 16.5t-5.5 13.5l-8 27q-17 27 -29 39l-6 6q-4 0 -6 -2q-7 -4 -19 -25q-12 -29 -20 -67q-2 -18 -2 -45v-29 q2 -18 2 -51q0 -5 1 -16t1 -19v-39q-1 -11 -1 -35t-1 -37l-6 -65q-1 -13 -4.5 -34t-4.5 -28l-6 -53q0 -19 -4 -39q0 -18 -11.5 -27.5t-29.5 -6.5q-23 0 -32 22l-5 6l-1 -6q-1 2 -1 12q-1 2 -2 5t-2 4l-1 -6q-1 2 -1 12q-6 9 -6 14l-6 12l-2 2q-11 18 2.5 30.5t34.5 16.5 l2 13q7 34 10 59q5 47 8 66q2 20 2 65q0 7 1 19t1 16q0 5 -1 16.5t-1 16.5q-1 13 -2 37.5t-2 36.5q0 5 -1 16t-1 18v33q-2 25 -2 68v4q-2 -4 -6.5 -13.5t-5.5 -11.5l-10 -24q-2 -4 -4.5 -10t-4.5 -10t-2 -5q-14 -32 -37 -36.5t-38 15t-7 46.5z" />
<glyph unicode="&#x25fc;" horiz-adv-x="798" d="M0 0v799h799v-799h-799z" />
</font>
</defs>
</svg>
