<?xml version="1.0" standalone="no"?>
<!DOCTYPE svg PUBLIC "-//W3C//DTD SVG 1.1//EN" "http://www.w3.org/Graphics/SVG/1.1/DTD/svg11.dtd" >
<svg xmlns="http://www.w3.org/2000/svg">
<metadata>
Created by FontPrep 20130207 at Tue Apr 21 08:21:45 2015
 By Tyler Finck
Copyright (c) 2012 by Tyler Bradford Finck. All rights reserved.
</metadata>
<defs>
<font id="1acf0833c601a159b6b3f977f532df45" horiz-adv-x='1024' >
  <font-face 
    font-family="Upstater"
    font-weight="400"
    font-stretch="normal"
    units-per-em="1000"
    panose-1="2 0 5 8 0 0 0 2 0 4"
    ascent="793"
    descent="-207"
    x-height="587"
    cap-height="793"
    bbox="-107 -483 790 1151"
    underline-thickness="50"
    underline-position="-50"
    unicode-range="U+000D-FB04"
  />
<missing-glyph horiz-adv-x="150" 
 />
    <glyph glyph-name=".notdef" horiz-adv-x="150" 
 />
    <glyph glyph-name=".null" horiz-adv-x="0" 
 />
    <glyph glyph-name="nonmarkingreturn" unicode="&#xd;" horiz-adv-x="158" 
 />
    <glyph glyph-name="NULL" horiz-adv-x="0" 
 />
    <glyph glyph-name="NULL" horiz-adv-x="0" 
 />
    <glyph glyph-name="space" unicode=" " horiz-adv-x="130" 
 />
    <glyph glyph-name="exclam" unicode="!" horiz-adv-x="186" 
d="M10 151l-6 555v87h78v-87l-5 -555h-67zM82 0h-76v91h76v-91z" />
    <glyph glyph-name="quotedbl" unicode="&#x22;" horiz-adv-x="274" 
d="M124 793h77l-10 -134h-67v134zM12 793h78v-134h-67z" />
    <glyph glyph-name="numbersign" unicode="#" horiz-adv-x="434" 
d="M78 227h-60v87h66l10 165h-68v87h72l14 226h78l-15 -226h45l14 226h77l-14 -226h65v-87h-70l-10 -165h72v-87h-78l-14 -227h-77l15 227h-45l-15 -227h-77zM159 314h45l10 165h-44z" />
    <glyph glyph-name="dollar" unicode="$" horiz-adv-x="286" 
d="M77 623q0 -32 -0.5 -57.5t3.5 -48.5t13 -44.5t29 -46.5q25 -32 39 -57t20.5 -52t7.5 -60.5t1 -81.5q0 -20 -1.5 -38.5t-7 -34t-17 -27.5t-30.5 -20v-55h-75v53q-32 11 -45.5 39.5t-13.5 67.5v79h77q0 -8 -1 -21.5t-1 -27.5q0 -21 3.5 -38t16.5 -17q12 0 15.5 15t3.5 32
q0 30 -0.5 53.5t-4.5 44.5t-14 42t-29 45q-23 29 -36 53.5t-20 50t-8.5 55t-1.5 68.5q0 25 0.5 47.5t6 41.5t17.5 33t35 23v61h75v-61q31 -11 43.5 -39.5t12.5 -66.5v-79h-77q0 7 0.5 20.5t0.5 28.5q0 20 -3.5 37.5t-16.5 17.5t-15 -11t-2 -24z" />
    <glyph glyph-name="percent" unicode="%" horiz-adv-x="548" 
d="M406 452q41 0 63 -21.5t22 -75.5v-258q0 -51 -23 -74t-62 -23q-38 0 -61 22.5t-23 73.5v259q0 50 22.5 73.5t61.5 23.5zM406 90q6 0 9 5.5t3 12.5v237q0 7 -3 12t-9 5t-8.5 -6t-2.5 -11v-238q0 -5 2.5 -11t8.5 -6zM89 340q-40 0 -62.5 23t-22.5 75v257q0 49 22.5 73.5
t60.5 24.5q39 0 62.5 -23t23.5 -75v-257q0 -50 -22.5 -74t-61.5 -24zM76 448q0 -6 2 -12t8 -6q8 0 11 5t3 13v237q0 7 -2 12.5t-10 5.5q-7 0 -9.5 -6t-2.5 -12v-237zM410 792l-243 -792h-81l240 792h84z" />
    <glyph glyph-name="ampersand" unicode="&#x26;" horiz-adv-x="341" 
d="M107 -10q-33 0 -54 11.5t-33.5 31t-17 46t-4.5 55.5q0 79 16 146.5t43 138.5q-5 17 -12.5 40.5t-14 53.5t-11.5 67.5t-5 84.5q0 21 1 45t9.5 44.5t26.5 34.5t52 14q46 0 66 -34t20 -88q0 -40 -3 -73.5t-9.5 -64.5t-16.5 -62t-23 -67q3 -14 10.5 -44.5t16.5 -64t17 -63.5
t13 -43v73h64v-54q0 -41 -6.5 -74.5t-19.5 -53.5q5 -17 8 -27t6 -18.5t7 -18.5t10 -26h-71l-10 28q-5 -13 -25.5 -25.5t-49.5 -12.5zM72 154q0 -14 1 -28.5t5 -26.5t10.5 -20t17.5 -8q20 0 30 9t18 23q-7 20 -14.5 46.5t-15.5 54.5t-15.5 54.5t-14.5 46.5q-5 -23 -13.5 -60
t-8.5 -91zM86 605q0 -8 2 -19.5t4.5 -24.5t5 -24.5t4.5 -18.5q5 18 10 45t5 46v73q0 3 -0.5 8.5t-2 11t-4.5 10t-8 4.5q-11 0 -13.5 -12t-2.5 -21v-78z" />
    <glyph glyph-name="quotesingle" unicode="'" horiz-adv-x="164" 
d="M18 793h67l-8 -134h-52z" />
    <glyph glyph-name="parenleft" unicode="(" 
d="M94 -31q-20 45 -33.5 97t-21.5 106.5t-12 109.5t-4 105q0 60 4 115.5t13 109.5t24.5 106t38.5 105h88q-27 -52 -44.5 -103.5t-27.5 -105t-14 -109.5t-4 -118q0 -46 4.5 -103t14.5 -114.5t26 -110t40 -90.5h-92z" />
    <glyph glyph-name="parenright" unicode=")" horiz-adv-x="211" 
d="M-1 -31q24 38 40 90.5t26 110t14.5 114.5t4.5 103q0 62 -4 118t-14 109.5t-27.5 105t-44.5 103.5h88q46 -105 63 -211t17 -225q0 -50 -4 -105t-12 -109.5t-22 -106.5t-33 -97h-92z" />
    <glyph glyph-name="asterisk" unicode="*" horiz-adv-x="394" 
d="M270 522l-57 42v-69h-77v69l-56 -42l-52 74l77 48l-77 48l53 72l55 -39v68h77v-68l57 40l50 -73l-75 -48l75 -48z" />
    <glyph glyph-name="plus" unicode="+" horiz-adv-x="323" 
d="M239 353h-58v-68h-77v68h-60v86h60v68h77v-68h58v-86z" />
    <glyph glyph-name="comma" unicode="," horiz-adv-x="144" 
d="M26 -63h-52l39 154h81z" />
    <glyph glyph-name="hyphen" unicode="-" horiz-adv-x="267" 
d="M201 353h-195v86h195v-86z" />
    <glyph glyph-name="period" unicode="." horiz-adv-x="142" 
d="M63 0h-77v91h77v-91z" />
    <glyph glyph-name="slash" unicode="/" horiz-adv-x="389" 
d="M292 793l-210 -793h-81l211 793h80z" />
    <glyph glyph-name="zero" unicode="0" horiz-adv-x="282" 
d="M91 -10q-45 0 -69 22.5t-24 79.5v609q0 57 24 79.5t69 22.5q46 0 70.5 -22t24.5 -80v-609q0 -57 -25 -79.5t-70 -22.5zM91 716q-13 0 -15 -8t-2 -19v-584q0 -11 2.5 -19.5t14.5 -8.5q14 0 16.5 7.5t2.5 20.5v584q0 13 -2.5 20t-16.5 7z" />
    <glyph glyph-name="one" unicode="1" horiz-adv-x="166" 
d="M16 0v612h-51l64 181h63v-793h-76z" />
    <glyph glyph-name="two" unicode="2" horiz-adv-x="251" 
d="M-2 0q-6 61 0 111t18.5 96.5t28.5 93t30.5 102t24.5 122.5t10 154q0 17 -3 27t-14 10q-14 0 -17.5 -12.5t-3.5 -35.5v-56h-74v41q0 32 3 59.5t13 47.5t29.5 31.5t52.5 11.5q45 0 67.5 -23t22.5 -79q0 -76 -6.5 -136t-17 -110.5t-23.5 -94t-25.5 -86.5t-23 -88t-16.5 -99
h102v-87h-178z" />
    <glyph glyph-name="three" unicode="3" horiz-adv-x="271" 
d="M192 474q0 -19 -4.5 -32t-11 -22t-13.5 -14.5t-13 -8.5q6 -3 13 -9t13.5 -15t11 -22.5t4.5 -32.5v-221q0 -62 -25 -84.5t-73 -22.5t-72 28.5t-24 88.5v73h74v-53q0 -27 4 -38.5t20 -11.5q8 0 13.5 6t5.5 22v203q0 26 -13.5 35.5t-39.5 9.5v86q9 0 18 0.5t17 4t13 10.5
t5 20v207q0 18 -3 26.5t-17 8.5t-17 -8.5t-4 -37.5v-58h-76v37q0 36 3 65t13 48.5t29.5 30t52.5 10.5q49 0 72.5 -22t23.5 -85v-222z" />
    <glyph glyph-name="four" unicode="4" horiz-adv-x="299" 
d="M138 0v196h-140v85l136 512h78v-511h37v-86h-37v-196h-74zM138 282v282l-70 -282h70z" />
    <glyph glyph-name="five" unicode="5" horiz-adv-x="264" 
d="M93 -10q-95 0 -95 119v71h76v-38.5t1.5 -33t5.5 -23t12 -8.5q10 0 13.5 10.5t3.5 22.5v282q0 13 -2 24t-15 11q-8 0 -11.5 -5t-5.5 -12.5t-2 -16.5v-16h-76v416h181v-87h-105v-227q1 3 3.5 9t7.5 12t13 10t20 4q36 0 52 -27t16 -75v-313q0 -57 -24 -83t-69 -26z" />
    <glyph glyph-name="six" unicode="6" horiz-adv-x="264" 
d="M115 612v70q0 23 -5.5 29.5t-15.5 6.5q-15 0 -17.5 -11.5t-2.5 -27.5v-200q2 10 11 22.5t31 12.5q38 0 54 -27t16 -75v-317q0 -57 -24 -81.5t-69 -24.5q-48 0 -71.5 22.5t-23.5 83.5v582q0 59 25.5 92t73.5 33q45 0 69 -35t24 -90v-65h-75zM92 427q-13 0 -15.5 -14
t-2.5 -25v-279q0 -14 2.5 -23.5t16.5 -9.5q12 0 15 10t3 23v283q0 14 -2.5 24.5t-16.5 10.5z" />
    <glyph glyph-name="seven" unicode="7" horiz-adv-x="238" 
d="M182 793v-76l-98 -717h-80l98 706h-100v87h180z" />
    <glyph glyph-name="eight" unicode="8" horiz-adv-x="274" 
d="M196 464q0 -32 -9 -47t-21 -21q12 -5 21 -20.5t9 -47.5v-231q0 -61 -26.5 -83.5t-72.5 -22.5q-25 0 -43.5 4.5t-31 16t-18.5 32t-6 53.5v231q0 32 9.5 47t20.5 20q-11 5 -20.5 21t-9.5 48v232q0 61 26 83.5t73 22.5q24 0 42.5 -4.5t31 -16.5t19 -32.5t6.5 -52.5v-232z
M74 476q0 -14 4 -25t18 -11t19 10t5 26v209q0 16 -4 23t-19 7q-14 0 -18.5 -6.5t-4.5 -23.5v-209zM120 316q0 14 -5 25.5t-18 11.5q-11 0 -17 -12.5t-6 -24.5v-210q0 -17 4 -22.5t19 -5.5q14 0 18.5 5.5t4.5 22.5v210z" />
    <glyph glyph-name="nine" unicode="9" horiz-adv-x="269" 
d="M73 179v-70q0 -23 5.5 -29.5t15.5 -6.5q15 0 17.5 11.5t2.5 27.5v200q-2 -10 -11 -22.5t-31 -12.5q-38 0 -54 27t-16 75v317q0 57 24 81.5t69 24.5q48 0 71.5 -22.5t23.5 -83.5v-582q0 -59 -25.5 -92t-73.5 -33q-45 0 -69 35t-24 90v65h75zM96 364q13 0 15.5 14t2.5 25
v279q0 14 -2.5 23.5t-16.5 9.5q-12 0 -15 -10t-3 -23v-283q0 -14 2.5 -24.5t16.5 -10.5z" />
    <glyph glyph-name="colon" unicode=":" horiz-adv-x="163" 
d="M73 211h-76v90h76v-90zM73 505h-76v90h76v-90z" />
    <glyph glyph-name="semicolon" unicode=";" horiz-adv-x="170" 
d="M19 183h-53l35 115h80zM74 505h-76v90h76v-90z" />
    <glyph glyph-name="less" unicode="&#x3c;" horiz-adv-x="261" 
d="M200 476l-99 -100l95 -96v-111l-194 207l198 211v-111z" />
    <glyph glyph-name="equal" unicode="=" horiz-adv-x="336" 
d="M246 528v-87h-210v87h210zM36 362h210v-87h-210v87z" />
    <glyph glyph-name="greater" unicode="&#x3e;" horiz-adv-x="243" 
d="M2 587l198 -211l-194 -207v111l95 96l-99 100v111z" />
    <glyph glyph-name="question" unicode="?" horiz-adv-x="287" 
d="M94 797q45 0 69.5 -31.5t24.5 -89.5q0 -71 -6.5 -137t-27.5 -133q-5 -15 -9 -29.5t-7 -40.5t-4.5 -69.5t-1.5 -115.5h-77q0 76 2 123.5t6 77t9 48t10 36.5q17 57 24 115.5t7 118.5q0 14 -3.5 27t-15.5 13q-16 0 -18 -20.5t-2 -57.5h-75v41q0 60 24 92t71 32zM132 0h-77
v91h77v-91z" />
    <glyph glyph-name="at" unicode="@" horiz-adv-x="508" 
d="M392 79q-35 -44 -80 -60.5t-99 -16.5q-62 0 -102.5 34t-64 87t-32.5 119t-9 129q0 72 9.5 146.5t35.5 135t70.5 99t115.5 38.5q64 0 103 -26t60 -71t27.5 -104.5t6.5 -126.5q0 -57 -9.5 -105t-23 -85t-29 -61.5t-26.5 -34.5t-22 -8t-21 10t-18 17.5t-12 14.5
q-9 -17 -24 -31t-50 -14q-20 0 -33 11.5t-21 30t-12 42t-6 46.5t-2 43.5v33.5q0 240 98 240q17 0 26 -12.5t16 -21.5l12 32h35q0 -2 -0.5 -18.5t-1 -41t-1.5 -55.5t-2 -63q-3 -75 -6 -168q13 -21 24 -10q5 4 10 16t9.5 35t8 58.5t5.5 87.5q1 39 -1.5 84t-15.5 83.5t-37.5 64
t-66.5 25.5q-32 0 -56 -17t-41.5 -45t-29 -63.5t-18.5 -73.5t-9.5 -74.5t-2.5 -65.5q0 -37 6 -86t21.5 -93t41.5 -74.5t66 -30.5q37 0 67 11t54 37zM205 242q14 0 22 31.5t12.5 73.5t6 83.5t1.5 62.5q0 29 -7.5 42.5t-19.5 13.5t-18.5 -18t-9.5 -45t-3.5 -57t-0.5 -54
q0 -20 0.5 -43t2.5 -43t5.5 -33.5t8.5 -13.5z" />
    <glyph glyph-name="A" unicode="A" horiz-adv-x="304" 
d="M0 0l66 793h106l66 -793h-77l-16 215h-51l-17 -215h-77zM139 302l-21 365l-20 -365h41z" />
    <glyph glyph-name="B" unicode="B" horiz-adv-x="266" 
d="M187 458q0 -18 -3 -28.5t-8 -16.5t-11 -9.5t-12 -6.5q11 -5 22.5 -18.5t11.5 -44.5v-232q0 -33 -3.5 -53.5t-13 -31t-25 -14t-39.5 -3.5h-108v793h107q24 0 40 -3.5t25 -14t13 -31t4 -53.5v-233zM114 318q0 24 -6.5 29.5t-24.5 5.5h-9v-266h19q17 0 19 7t2 27v197z
M114 672q0 20 -2 27t-19 7h-19v-267h9q18 0 24.5 5.5t6.5 29.5v198z" />
    <glyph glyph-name="C" unicode="C" horiz-adv-x="264" 
d="M120 248h72v-115q0 -36 -2.5 -62.5t-12.5 -44t-29.5 -26t-53.5 -8.5q-46 0 -71.5 19t-25.5 75v612q0 57 24 78.5t74 21.5q55 0 76 -23t21 -80v-150h-72v126q0 34 -5 42t-19 8q-24 0 -24 -31v-587q0 -19 5.5 -26.5t17.5 -7.5q14 0 19.5 8t5.5 34v137z" />
    <glyph glyph-name="D" unicode="D" horiz-adv-x="274" 
d="M-2 0v793h115q24 0 39.5 -5.5t24.5 -18.5t12 -34.5t3 -53.5v-569q0 -32 -3 -53.5t-12 -34.5t-24.5 -18.5t-39.5 -5.5h-115zM74 87h27q14 0 16.5 9.5t2.5 24.5v551q0 17 -2.5 25.5t-16.5 8.5h-27v-619z" />
    <glyph glyph-name="E" unicode="E" horiz-adv-x="248" 
d="M74 706v-267h80v-86h-80v-266h97v-87h-173v793h173v-87h-97z" />
    <glyph glyph-name="F" unicode="F" horiz-adv-x="241" 
d="M74 706v-267h80v-86h-80v-353h-76v793h173v-87h-97z" />
    <glyph glyph-name="G" unicode="G" horiz-adv-x="264" 
d="M119 672q0 32 -5 40.5t-20 8.5t-19 -10t-4 -23v-588q0 -14 5.5 -23t18.5 -9q14 0 21 9.5t7 22.5v173h-22v86h91v-359h-46l-6 41q-1 -5 -5 -13.5t-12 -16t-19 -13t-26 -5.5q-38 0 -59.5 21.5t-21.5 72.5v613q0 56 26.5 77t71.5 21q56 0 76.5 -24.5t20.5 -82.5v-176h-73
v157z" />
    <glyph glyph-name="H" unicode="H" horiz-adv-x="273" 
d="M190 793v-793h-75v353h-42v-353h-75v793h75v-354h42v354h75z" />
    <glyph glyph-name="I" unicode="I" horiz-adv-x="163" 
d="M7 0v793h77v-793h-77z" />
    <glyph glyph-name="J" unicode="J" horiz-adv-x="273" 
d="M98 -8q-24 0 -43 4.5t-32.5 16.5t-20.5 34t-7 57v144h75v-123q0 -20 1.5 -31.5t5 -17t8.5 -7t12 -1.5q14 0 19 10.5t5 23.5v691h77v-701q0 -58 -27.5 -79t-72.5 -21z" />
    <glyph glyph-name="K" unicode="K" horiz-adv-x="274" 
d="M112 396l105 -396h-79l-67 287v-287h-73v793h73v-287l67 287h79z" />
    <glyph glyph-name="L" unicode="L" horiz-adv-x="249" 
d="M-2 0v793h76v-706h104v-87h-180z" />
    <glyph glyph-name="M" unicode="M" horiz-adv-x="371" 
d="M214 0v473l-8 -130l-35 -343h-54l-33 345l-10 125v-470h-75v793h75l64 -477l6 -73l6 71l64 479h76v-793h-76z" />
    <glyph glyph-name="N" unicode="N" horiz-adv-x="312" 
d="M230 0h-77l-78 450v-450h-77v793h75l69 -415l11 -86v501h77v-793z" />
    <glyph glyph-name="O" unicode="O" horiz-adv-x="270" 
d="M192 133q0 -36 -2.5 -62.5t-12.5 -44t-29.5 -26t-53.5 -8.5q-46 0 -71.5 19t-25.5 75v612q0 57 24 78.5t74 21.5q55 0 76 -23t21 -80v-562zM120 677q0 28 -5 36t-19 8q-24 0 -24 -31v-587q0 -19 5.5 -26.5t17.5 -7.5q14 0 19.5 5.5t5.5 29.5v573z" />
    <glyph glyph-name="P" unicode="P" horiz-adv-x="266" 
d="M-2 0v793h109q25 0 41 -4.5t24.5 -15.5t11.5 -31t3 -51v-242q0 -30 -4.5 -48.5t-13.5 -29t-23.5 -14t-34.5 -4.5h-37v-353h-76zM98 439q13 0 14.5 9t1.5 22v202q0 14 -1.5 24t-14.5 10h-24v-267h24z" />
    <glyph glyph-name="Q" unicode="Q" horiz-adv-x="280" 
d="M192 133q0 -37 -2.5 -64t-13.5 -44l55 -85h-78l-29 54q-7 -1 -14.5 -1.5t-15.5 -0.5q-46 0 -71.5 19t-25.5 75v612q0 57 24 78.5t74 21.5q55 0 76 -23t21 -80v-562zM120 677q0 28 -5 36t-19 8q-24 0 -24 -31v-587q0 -19 5.5 -26.5t17.5 -7.5q14 0 19.5 5.5t5.5 29.5v573z
" />
    <glyph glyph-name="R" unicode="R" horiz-adv-x="273" 
d="M187 446q0 -27 -4 -43t-9 -24.5t-10 -11.5t-7 -4l41 -363h-71l-34 353h-19v-353h-76v793h106q25 0 41.5 -4.5t25.5 -16t12.5 -32t3.5 -52.5v-242zM92 439q15 0 19 8t4 27v198q0 16 -3.5 25t-17.5 9h-20v-267h18z" />
    <glyph glyph-name="S" unicode="S" horiz-adv-x="254" 
d="M123 672q0 30 -5 39.5t-21 9.5q-13 0 -19.5 -7t-6.5 -28q0 -77 18.5 -147t41 -137.5t41 -134.5t18.5 -139q0 -24 -2.5 -48t-12 -43.5t-28.5 -32t-52 -12.5q-50 0 -74 27.5t-24 90.5v138h73v-127q0 -28 5 -40t19 -12q17 0 20.5 16.5t3.5 35.5q0 47 -9 90t-22 85.5t-29 85
t-29 88.5t-22 96.5t-9 108.5q0 65 23 94t76 29t73.5 -30t20.5 -87v-136h-68v127z" />
    <glyph glyph-name="T" unicode="T" horiz-adv-x="245" 
d="M187 706h-56v-706h-77v706h-56v87h189v-87z" />
    <glyph glyph-name="U" unicode="U" horiz-adv-x="272" 
d="M95 -8q-45 0 -71 22t-26 79v700h75v-690q0 -20 5.5 -27.5t17.5 -7.5q14 0 18.5 9.5t4.5 25.5v690h75v-700q0 -58 -27 -79.5t-72 -21.5z" />
    <glyph glyph-name="V" unicode="V" horiz-adv-x="280" 
d="M224 793l-67 -793h-90l-65 793h76l28 -456l6 -130l6 130l28 456h78z" />
    <glyph glyph-name="W" unicode="W" horiz-adv-x="389" 
d="M326 793l-47 -793h-75l-38 381l-5 92l-5 -93l-39 -380h-75l-48 793h78l14 -403l4 -95l4 93l34 405h64l26 -406l5 -92l4 97l22 401h77z" />
    <glyph glyph-name="X" unicode="X" horiz-adv-x="287" 
d="M73 396l-81 397h80l41 -243l41 243h80l-81 -397l81 -396h-80l-41 243l-41 -243h-80z" />
    <glyph glyph-name="Y" unicode="Y" horiz-adv-x="270" 
d="M222 793l-76 -438v-355h-71v355l-79 438h75l39 -276l37 276h75z" />
    <glyph glyph-name="Z" unicode="Z" horiz-adv-x="256" 
d="M-2 0v73l109 633h-109v87h189v-73l-109 -633h109v-87h-189z" />
    <glyph glyph-name="bracketleft" unicode="[" horiz-adv-x="256" 
d="M26 -25v848h129v-87h-53v-674h53v-87h-129z" />
    <glyph glyph-name="backslash" unicode="\" horiz-adv-x="384" 
d="M82 793l212 -793h-81l-211 793h80z" />
    <glyph glyph-name="bracketright" unicode="]" horiz-adv-x="230" 
d="M17 62h53v674h-53v87h129v-848h-129v87z" />
    <glyph glyph-name="asciicircum" unicode="^" horiz-adv-x="464" 
d="M170 686l-110 -244l-68 39l140 312h74l140 -312l-68 -39z" />
    <glyph glyph-name="underscore" unicode="_" horiz-adv-x="423" 
d="M369 -115h-371v87h371v-87z" />
    <glyph glyph-name="grave" unicode="`" horiz-adv-x="176" 
d="M3 971h72l70 -94h-69z" />
    <glyph glyph-name="a" unicode="a" horiz-adv-x="254" 
d="M91 591q94 0 94 -114v-477h-49l-4 48q0 -4 -3 -13t-9 -18t-15.5 -15.5t-23.5 -6.5q-48 0 -65.5 29t-17.5 86v135q0 43 18 72t39 48t39 30t18 19v49.5t-2 31t-6 16t-12 4.5q-15 0 -17.5 -20t-3.5 -71h-73q0 26 1 55.5t9 54t27.5 41t55.5 16.5zM110 326q0 -4 -6.5 -9.5
t-14 -13t-13.5 -17.5t-6 -22v-153q0 -14 4 -24t17 -10q7 0 10.5 5t5.5 12t2.5 15t0.5 14v203z" />
    <glyph glyph-name="b" unicode="b" 
d="M74 549q2 18 18.5 28t28.5 10q17 0 30 -10t21.5 -26t12.5 -35.5t4 -38.5v-363q0 -26 -3 -48t-10.5 -38t-21.5 -24.5t-35 -8.5q-28 0 -46 18t-21 35l-4 -48h-50v793h76v-244zM117 467q0 14 -3.5 24t-17.5 10q-13 0 -17.5 -15.5t-4.5 -27.5v-336q0 -12 4 -24t18 -12
q13 0 17 10t4 24v347z" />
    <glyph glyph-name="c" unicode="c" horiz-adv-x="249" 
d="M91 -4q-45 0 -69 31t-24 87v359q0 118 95 118q44 0 68 -32t24 -86v-69h-71v64q0 19 -3.5 33t-16.5 14t-17 -14t-4 -27v-363q0 -11 4.5 -25t16.5 -14q14 0 17 15.5t3 35.5v60h71v-36q-1 -30 -4.5 -57.5t-13 -48t-28 -33t-48.5 -12.5z" />
    <glyph glyph-name="d" unicode="d" horiz-adv-x="264" 
d="M113 793h76v-793h-50l-4 48q-3 -17 -21 -35t-46 -18q-21 0 -35 8.5t-21.5 24.5t-10.5 38t-3 48v363q0 19 4 38.5t12.5 35.5t21.5 26t30 10q12 0 28.5 -10t18.5 -28v244zM70 120q0 -14 4 -24t17 -10q14 0 18 12t4 24v336q0 12 -4.5 27.5t-17.5 15.5q-14 0 -17.5 -10
t-3.5 -24v-347z" />
    <glyph glyph-name="e" unicode="e" horiz-adv-x="258" 
d="M94 -3q-45 0 -70.5 30t-25.5 86v360q0 60 25 89t73 29q42 0 68.5 -32t26.5 -85v-206h-117v-152q0 -17 5.5 -30t17.5 -13q14 0 18.5 18.5t4.5 42.5v49h71v-31q0 -32 -4 -60.5t-14.5 -49.5t-29.5 -33t-49 -12zM116 352v122q0 12 -3.5 26.5t-16.5 14.5q-14 0 -18 -13.5
t-4 -27.5v-122h42z" />
    <glyph glyph-name="f" unicode="f" horiz-adv-x="206" 
d="M113 587h48v-86h-48v-501h-76v501h-41v86h41v64q0 29 2.5 54.5t12 45t28 31t50.5 11.5h38v-85h-29q-12 0 -19 -6.5t-7 -29.5v-85z" />
    <glyph glyph-name="g" unicode="g" horiz-adv-x="266" 
d="M191 587v-645q0 -57 -25.5 -83.5t-70.5 -26.5q-46 0 -70.5 25t-24.5 85v12h76q0 -12 3 -27t16 -15t17 12t4 25v89q-1 -5 -5 -12.5t-10 -14t-14.5 -11.5t-17.5 -5q-22 0 -35.5 9.5t-21 26t-10 38.5t-2.5 47v358q0 22 4 43t13 37.5t24 26.5t38 10q22 0 38.5 -11.5
t20.5 -39.5l2 47h51zM117 468q0 6 -1 14t-3.5 15.5t-6.5 12.5t-11 5q-13 0 -18 -12t-5 -26v-365q0 -14 4.5 -23.5t17.5 -9.5q7 0 11.5 5t7 11.5t3.5 14t1 13.5v345z" />
    <glyph glyph-name="h" unicode="h" horiz-adv-x="270" 
d="M121 587q19 0 32.5 -9t21.5 -24t12 -35t4 -42v-477h-72v459q0 14 -4 28t-18 14q-8 0 -12.5 -5t-6.5 -12.5t-3 -16t-1 -14.5v-453h-76v793h76v-248q0 5 3.5 12.5t10 14t15 11t18.5 4.5z" />
    <glyph glyph-name="i" unicode="i" horiz-adv-x="151" 
d="M72 0h-75v587h75v-587zM72 644h-75v89h75v-89z" />
    <glyph glyph-name="j" unicode="j" horiz-adv-x="151" 
d="M-53 -169v90q26 0 41 9t15 48v608h76v-615q0 -39 -8.5 -66t-23.5 -43.5t-34.5 -23.5t-41.5 -7h-24zM78 644h-75v89h75v-89z" />
    <glyph glyph-name="k" unicode="k" 
d="M100 301l117 -301h-81l-62 195v-195h-75v793h75v-382l62 176h80z" />
    <glyph glyph-name="l" unicode="l" horiz-adv-x="148" 
d="M72 0h-75v793h75v-793z" />
    <glyph glyph-name="m" unicode="m" horiz-adv-x="379" 
d="M230 589q21 0 34.5 -9t22 -24.5t12 -36t3.5 -43.5v-476h-76v477q0 13 -2 25t-15 12q-14 0 -18 -11.5t-4 -25.5v-477h-72v477q0 14 -3 25.5t-13 11.5t-15 -6.5t-7 -16t-2 -21.5v-23v-447h-75v587h48l3 -45q6 20 21.5 33.5t38.5 13.5q22 0 36.5 -12t19.5 -29q8 17 22.5 29
t40.5 12z" />
    <glyph glyph-name="n" unicode="n" 
d="M111 590q20 0 34.5 -9.5t24.5 -25.5t14.5 -37t4.5 -43v-475h-72v476q0 14 -5 24.5t-16 10.5q-14 0 -18 -13.5t-4 -24.5v-473h-76v587h50l3 -45q7 17 22 32.5t38 15.5z" />
    <glyph glyph-name="o" unicode="o" 
d="M93 -4q-45 0 -70 31t-25 87v359q0 118 97 118q44 0 69 -32t25 -86v-359q0 -53 -27 -85.5t-69 -32.5zM94 515q-14 0 -18 -14t-4 -27v-361q0 -12 4.5 -26.5t16.5 -14.5q14 0 18 14t4 27l-2 361q0 12 -3 26.5t-16 14.5z" />
    <glyph glyph-name="p" unicode="p" horiz-adv-x="260" 
d="M105 590q44 0 62 -32.5t18 -82.5v-361q0 -26 -2.5 -47.5t-10 -38t-21 -25.5t-35.5 -9q-11 0 -19 6.5t-13 14.5t-7.5 16.5t-2.5 13.5v-213h-76v755h48l4 -43q3 17 19 31.5t36 14.5zM114 477q0 14 -3.5 24t-14.5 10q-14 0 -17.5 -13t-3.5 -29v-343q0 -6 0.5 -15t2 -16.5
t5.5 -13t12 -5.5q13 0 16 11t3 23v367z" />
    <glyph glyph-name="q" unicode="q" horiz-adv-x="259" 
d="M79 590q20 0 36 -14.5t19 -31.5l4 43h48v-755h-76v213q0 -5 -2.5 -13.5t-7.5 -16.5t-13 -14.5t-19 -6.5q-22 0 -35.5 9t-21 25.5t-10 38t-2.5 47.5v361q0 50 18 82.5t62 32.5zM70 110q0 -12 3 -23t16 -11q7 0 11.5 5.5t6 13t2 16.5t0.5 15v343q0 16 -3.5 29t-17.5 13
q-11 0 -14.5 -10t-3.5 -24v-367z" />
    <glyph glyph-name="r" unicode="r" horiz-adv-x="206" 
d="M146 495h-4q-2 0 -5 0.5t-6 0.5q-8 0 -17.5 -2t-18 -9t-14.5 -20t-6 -34v-431h-75v587h47l4 -43q8 15 19.5 24t23.5 14.5t23 7.5t19 2h10v-97z" />
    <glyph glyph-name="s" unicode="s" horiz-adv-x="257" 
d="M98 -4q-48 0 -72.5 33.5t-24.5 92.5v58h75v-48q0 -25 5 -44.5t18 -19.5q6 0 10 5t6 11.5t3 14t1 13.5q0 35 -8.5 63.5t-21.5 54.5t-27.5 51.5t-27.5 53.5t-21.5 61t-8.5 74q0 19 5 40.5t17 39.5t31.5 29.5t48.5 11.5q25 0 43 -10t28.5 -28t15.5 -42.5t5 -52.5v-52h-74v45
q0 35 -4.5 51t-17.5 16q-14 0 -18 -15.5t-4 -27.5q0 -51 18 -91.5t39 -79.5t39 -83t18 -103q0 -21 -4.5 -42.5t-15.5 -39t-29.5 -29t-46.5 -11.5z" />
    <glyph glyph-name="t" unicode="t" horiz-adv-x="244" 
d="M161 501h-45v-501h-75v501h-48v86h48v146h75v-146h45v-86z" />
    <glyph glyph-name="u" unicode="u" horiz-adv-x="260" 
d="M190 0h-46l-7 48q-2 -8 -7 -17.5t-12 -17.5t-16.5 -13t-21.5 -5q-25 0 -41 9.5t-25 25.5t-12.5 38t-3.5 46v473h74v-477q0 -14 5 -24t19 -10q10 0 15.5 11t5.5 30v470h73v-587z" />
    <glyph glyph-name="v" unicode="v" horiz-adv-x="268" 
d="M199 587l-49 -587h-104l-48 587h75q4 -57 8 -118t7 -122t5.5 -119.5t4.5 -110.5q1 52 4 110.5t6.5 119.5l7 122t7.5 118h76z" />
    <glyph glyph-name="w" unicode="w" horiz-adv-x="332" 
d="M278 587l-40 -587h-68l-29 264l-4 71l-4 -70l-30 -265h-67l-41 587h67l16 -330l2 -68l5 69l29 329h46l30 -331l4 -66l2 66l15 331h67z" />
    <glyph glyph-name="x" unicode="x" horiz-adv-x="260" 
d="M57 304l-69 283h75l35 -173l33 173h75l-68 -283l75 -304h-75l-40 185l-43 -185h-73z" />
    <glyph glyph-name="y" unicode="y" horiz-adv-x="256" 
d="M-8 -169v97h32q10 0 17.5 9t12 22.5t6.5 27.5t2 25l-63 575h77l21 -296l4 -80l4 80l21 296h76l-64 -575q-4 -34 -10 -66.5t-18 -58t-32.5 -41t-53.5 -15.5h-32z" />
    <glyph glyph-name="z" unicode="z" horiz-adv-x="259" 
d="M-2 0v55v19l100 427h-100v86h183v-73l-101 -428h101v-86h-183z" />
    <glyph glyph-name="braceleft" unicode="{" horiz-adv-x="244" 
d="M133 -31q-42 0 -71 32v-1q-12 14 -18 32t-6 38v263q0 5 -5.5 9.5t-12.5 7.5t-14 5.5t-10 2.5v75q4 0 11 1.5t14 4.5t12 8t5 12v263q0 24 8.5 42.5t22 31.5t30.5 20t34 7h39v-87q-2 0 -8.5 0.5t-14.5 0.5q-12 0 -23 -3t-11 -12v-273q0 -9 -4 -19t-10 -18.5t-14 -13
t-16 -3.5q17 0 30.5 -17t13.5 -35v-273q0 -10 9.5 -13t21.5 -3q8 0 15 1t11 1v-87h-39z" />
    <glyph glyph-name="bar" unicode="|" horiz-adv-x="206" 
d="M118 -31h-76v854h76v-854z" />
    <glyph glyph-name="braceright" unicode="}" horiz-adv-x="244" 
d="M-11 -31v87q4 0 11 -1t15 -1q12 0 21.5 3t9.5 13v273q0 18 13.5 35t30.5 17q-8 -1 -16 3.5t-14 13t-10 18.5t-4 19v273q0 9 -11 12t-23 3q-8 0 -14.5 -0.5t-8.5 -0.5v87h39q17 0 34 -7t30.5 -20t22 -31.5t8.5 -42.5v-263q0 -7 5 -12t12 -8t14 -4.5t11 -1.5v-75
q-3 0 -10 -2.5t-14 -5.5t-12.5 -7.5t-5.5 -9.5v-263q0 -20 -6 -38t-18 -32v1q-29 -32 -71 -32h-39z" />
    <glyph glyph-name="asciitilde" unicode="~" horiz-adv-x="295" 
d="M181 601q-14 0 -27 6.5t-24.5 14t-21.5 14t-18 6.5q-10 0 -23.5 -14.5t-21.5 -24.5l-46 66q15 22 27.5 35t24 19.5t21 8.5t18.5 2q12 0 24.5 -6.5t24 -14.5t22.5 -14.5t20 -6.5q3 0 9 3.5t12.5 8t12 9.5t7.5 9l46 -60q-14 -21 -26.5 -33t-23 -18.5t-20 -8t-17.5 -1.5z
" />
    <glyph glyph-name="exclamdown" unicode="&#xa1;" horiz-adv-x="174" 
d="M77 642l5 -555v-87h-78v87l6 555h67zM82 702h-76v91h76v-91z" />
    <glyph glyph-name="cent" unicode="&#xa2;" horiz-adv-x="260" 
d="M110 479v49q0 19 -5.5 29t-12.5 9.5t-12.5 -11.5t-5.5 -33v-351q0 -20 5.5 -31t12.5 -12t12.5 8t5.5 30v48h76q0 -25 -0.5 -50t-5.5 -46.5t-16.5 -38.5t-34.5 -26v-53h-77v56q-31 16 -42.5 45.5t-11.5 69.5v351q0 37 11 69.5t43 44.5v67h77v-64q33 -18 45 -45t12 -72v-43
h-76z" />
    <glyph glyph-name="sterling" unicode="&#xa3;" horiz-adv-x="316" 
d="M166 602v78q0 21 -6 31t-12.5 9.5t-12.5 -12.5t-6 -36v-161h89v-87h-89v-271q0 -32 -8.5 -47t-15.5 -19h133v-87h-240v87q32 0 43.5 12.5t11.5 53.5v271h-51v87h51v161q0 121 94 121q49 0 71.5 -30.5t22.5 -90.5v-70h-75z" />
    <glyph glyph-name="yen" unicode="&#xa5;" horiz-adv-x="297" 
d="M164 428h62v-87h-67v-79h67v-87h-67v-175h-77v175h-63v87h63v79h-63v87h59l-88 365h80l52 -224l50 224h80z" />
    <glyph glyph-name="section" unicode="&#xa7;" horiz-adv-x="302" 
d="M115 641q0 -44 8.5 -70.5t21 -45t27 -34t27 -37t21 -54.5t8.5 -86q0 -21 -0.5 -41.5t-4 -39.5t-12.5 -35t-26 -27q2 -17 2 -34.5v-34.5q0 -33 -2.5 -61.5t-12 -49.5t-28 -33.5t-50.5 -12.5q-96 0 -96 121v70h76q0 -7 -1 -20t-1 -28q0 -18 2 -34t8 -23q6 1 11.5 1t9 2.5
t6 9.5t2.5 22v36q0 42 -8.5 67.5t-21 44t-27 34t-27 38t-21 56t-8.5 87.5q0 20 0.5 40.5t4.5 39t13 33.5t26 26q-3 11 -3.5 22t-0.5 22q0 37 2 70t11 57.5t28 38.5t54 14q47 0 71 -31.5t24 -89.5v-70h-77q0 5 0.5 16.5t0.5 25.5q0 19 -1.5 37t-4.5 24q-3 1 -6.5 1h-6.5
q-5 0 -15 -2l2 1q-4 -5 -4.5 -16t-0.5 -17v-30zM74 429q0 -41 5 -62.5t14.5 -37t24 -31t32.5 -45.5q1 6 1 12.5v12.5v36q0 38 -5 59.5t-14.5 37.5t-23.5 32t-32 43q-2 -7 -2 -13.5v-13.5v-30zM82 493l-13 6l7 -13q4 5 6 7zM147 247l12 -8l-9 14z" />
    <glyph glyph-name="dieresis" unicode="&#xa8;" horiz-adv-x="224" 
d="M77 881h-75v91h75v-91zM202 881h-76v91h76v-91z" />
    <glyph glyph-name="copyright" unicode="&#xa9;" horiz-adv-x="800" 
d="M0 395q0 82 31 154t84.5 125.5t125.5 84.5t154 31t154 -31t125.5 -84.5t84.5 -125.5t31 -154t-31 -154t-84.5 -125.5t-125.5 -84.5t-154 -31t-154 31t-125.5 84.5t-84.5 125.5t-31 154zM74 396q0 -67 25.5 -125.5t69 -102t102 -69t125.5 -25.5t125.5 25.5t102.5 69
t69.5 102t25.5 125.5t-25.5 125.5t-69.5 102t-102.5 69t-125.5 25.5t-125.5 -25.5t-102 -69t-69 -102t-25.5 -125.5zM394 143q-39 0 -59.5 27t-20.5 75v310q0 53 20 77.5t62 24.5q38 0 59 -27.5t21 -74.5v-60h-62v56q0 16 -3 28t-14 12t-14.5 -12t-3.5 -23v-314
q0 -9 3.5 -21t14.5 -12t14 13.5t3 29.5v53h62v-32q-1 -26 -4 -49.5t-11.5 -41.5t-24.5 -28.5t-42 -10.5z" />
    <glyph glyph-name="ordfeminine" unicode="&#xaa;" horiz-adv-x="284" 
d="M90 595q47 0 71.5 -32.5t24.5 -89.5v-473h-53l-7 16q-9 -10 -20 -13t-22 -3q-45 0 -65.5 28t-20.5 84v136q0 38 8.5 61.5t20.5 38.5t27 24.5t27 18t20.5 19.5t8.5 30v29q0 15 -3.5 27t-15.5 12t-15.5 -13.5t-3.5 -30.5q0 -10 1 -19t1 -15h-76q0 32 2.5 61.5t11.5 52.5
t27.5 37t50.5 14zM110 312q-1 -2 -9 -6t-10 -6h2q-8 -6 -13.5 -12t-5.5 -20v-147q0 -14 3 -24t17 -10q13 0 14.5 12t1.5 24v189z" />
    <glyph glyph-name="guillemotleft" unicode="&#xab;" horiz-adv-x="373" 
d="M117 174l-115 230l116 237h88l-117 -237q29 -57 57 -114.5t56 -115.5h-85zM248 174l-114 230l116 237h88l-118 -237q29 -57 57 -114.5t57 -115.5h-86z" />
    <glyph glyph-name="registered" unicode="&#xae;" horiz-adv-x="818" 
d="M499 469q0 -53 -5.5 -77.5t-22.5 -36.5l39 -214h-71l-34 207h-19v-207h-76v513h96q51 0 72 -25.5t21 -89.5v-70zM398 434q29 0 29 35v64q0 34 -26 34h-15v-133h12zM0 395q0 82 31 154t84.5 125.5t125.5 84.5t154 31t154 -31t125.5 -84.5t84.5 -125.5t31 -154t-31 -154
t-84.5 -125.5t-125.5 -84.5t-154 -31t-154 31t-125.5 84.5t-84.5 125.5t-31 154zM74 396q0 -67 25.5 -125.5t69 -102t102 -69t125.5 -25.5t125.5 25.5t102.5 69t69.5 102t25.5 125.5t-25.5 125.5t-69.5 102t-102.5 69t-125.5 25.5t-125.5 -25.5t-102 -69t-69 -102
t-25.5 -125.5z" />
    <glyph glyph-name="macron" unicode="&#xaf;" horiz-adv-x="235" 
d="M215 895h-215v76h215v-76z" />
    <glyph glyph-name="degree" unicode="&#xb0;" horiz-adv-x="161" 
d="M0 722q0 29 20.5 50t49.5 21t50 -21t21 -50t-21 -49.5t-50 -20.5t-49.5 20.5t-20.5 49.5zM50 723q0 -8 5.5 -13.5t13.5 -5.5t13.5 5.5t5.5 13.5t-5.5 13.5t-13.5 5.5t-13.5 -5.5t-5.5 -13.5z" />
    <glyph glyph-name="plusminus" unicode="&#xb1;" horiz-adv-x="332" 
d="M239 353h-58v-68h-77v68h-60v86h60v68h77v-68h58v-86zM214 225h-144v28h144v-28z" />
    <glyph glyph-name="acute" unicode="&#xb4;" horiz-adv-x="176" 
d="M72 877h-69l70 94h72z" />
    <glyph glyph-name="paragraph" unicode="&#xb6;" horiz-adv-x="365" 
d="M113 0v353q-27 0 -48 2.5t-35.5 13.5t-22 33.5t-7.5 61.5v217q0 62 19.5 87t70.5 25h184v-793h-56v738h-49v-738h-56z" />
    <glyph glyph-name="periodcentered" unicode="&#xb7;" horiz-adv-x="142" 
d="M78 495h-76v91h76v-91z" />
    <glyph glyph-name="cedilla" unicode="&#xb8;" horiz-adv-x="199" 
d="M44 -8q0 13 7.5 19t17.5 6t17.5 -6.5t9.5 -17.5q18 -3 34 -19.5t16 -41.5q0 -17 -6.5 -29t-17 -19.5t-23 -11t-23.5 -3.5q-26 0 -54 10l7 47q13 -3 25.5 -6t25.5 -3q5 0 13 2.5t8 10.5t-15.5 10t-29.5 2h-14z" />
    <glyph glyph-name="ordmasculine" unicode="&#xba;" horiz-adv-x="173" 
d="M60 650q-23 0 -41.5 15t-18.5 47v18q0 32 17.5 48.5t41.5 16.5t42 -16.5t18 -48.5q0 -38 -12 -59t-47 -21zM51 721q0 -9 8 -9t8 9t-8 9t-8 -9z" />
    <glyph glyph-name="guillemotright" unicode="&#xbb;" horiz-adv-x="373" 
d="M130 174l114 230l-117 237h88l115 -237l-114 -230h-86zM-1 174l114 230l-118 237h89l115 -237l-114 -230h-86z" />
    <glyph glyph-name="questiondown" unicode="&#xbf;" horiz-adv-x="259" 
d="M93 0q-45 0 -69.5 31.5t-24.5 89.5q0 71 7 137t27 133q4 15 8 29.5t7 40.5t5 69.5t2 115.5h77q0 -77 -2.5 -124t-6 -76.5t-8.5 -48t-10 -36.5q-17 -57 -24 -115.5t-7 -118.5q0 -14 4 -27t15 -13q16 0 18 20.5t2 57.5h75v-41q0 -60 -24 -92t-71 -32zM55 797h77v-91h-77v91
z" />
    <glyph glyph-name="Agrave" unicode="&#xc0;" horiz-adv-x="304" 
d="M0 0l66 793h106l66 -793h-77l-16 215h-51l-17 -215h-77zM139 302l-21 365l-20 -365h41zM50 971h72l70 -94h-69z" />
    <glyph glyph-name="Aacute" unicode="&#xc1;" horiz-adv-x="304" 
d="M0 0l66 793h106l66 -793h-77l-16 215h-51l-17 -215h-77zM139 302l-21 365l-20 -365h41zM117 877h-69l70 94h72z" />
    <glyph glyph-name="Acircumflex" unicode="&#xc2;" horiz-adv-x="304" 
d="M0 0l66 793h106l66 -793h-77l-16 215h-51l-17 -215h-77zM139 302l-21 365l-20 -365h41zM158 856l-39 58l-40 -58h-54l62 117h66l60 -117h-55z" />
    <glyph glyph-name="Atilde" unicode="&#xc3;" horiz-adv-x="304" 
d="M0 0l66 793h106l66 -793h-77l-16 215h-51l-17 -215h-77zM118 667l-20 -365h41zM168 851q-14 0 -27 6.5t-24.5 14t-21.5 14t-18 6.5q-10 0 -23.5 -14.5t-21.5 -24.5l-46 56q15 22 27.5 35t24 19.5t21 8t18.5 1.5q12 0 24.5 -6.5t24 -14.5t22.5 -14.5t20 -6.5q3 0 9 3.5
t12.5 8t12 9.5t7.5 9l49 -49q-14 -21 -27 -33t-24 -18.5t-21 -8t-18 -1.5z" />
    <glyph glyph-name="Adieresis" unicode="&#xc4;" horiz-adv-x="304" 
d="M0 0l66 793h106l66 -793h-77l-16 215h-51l-17 -215h-77zM139 302l-21 365l-20 -365h41zM91 881h-75v91h75v-91zM216 881h-76v91h76v-91z" />
    <glyph glyph-name="Aring" unicode="&#xc5;" horiz-adv-x="304" 
d="M0 0l66 793h106l66 -793h-77l-16 215h-51l-17 -215h-77zM118 667l-20 -365h41zM48 902q0 29 20.5 50t49.5 21t50 -21t21 -50t-21 -49.5t-50 -20.5t-49.5 20.5t-20.5 49.5zM98 903q0 -8 5.5 -13.5t13.5 -5.5t13.5 5.5t5.5 13.5t-5.5 13.5t-13.5 5.5t-13.5 -5.5t-5.5 -13.5
z" />
    <glyph glyph-name="AE" unicode="&#xc6;" horiz-adv-x="472" 
d="M252 706v-267h114v-86h-114v-266h114v-87h-190v265h-58q-11 -67 -23.5 -133t-24.5 -132h-80l144 793h232v-87h-114zM176 352q0 61 -1 129t-1 129l-40 -258h42z" />
    <glyph glyph-name="Ccedilla" unicode="&#xc7;" horiz-adv-x="264" 
d="M120 248h72v-115q0 -36 -2.5 -62.5t-12.5 -44t-29.5 -26t-53.5 -8.5q-46 0 -71.5 19t-25.5 75v612q0 57 24 78.5t74 21.5q55 0 76 -23t21 -80v-150h-72v126q0 34 -5 42t-19 8q-24 0 -24 -31v-587q0 -19 5.5 -26.5t17.5 -7.5q14 0 19.5 8t5.5 34v137zM69 -8q0 13 7.5 19
t17.5 6t17.5 -6.5t9.5 -17.5q18 -3 34 -19.5t16 -41.5q0 -17 -6.5 -29t-17 -19.5t-23 -11t-23.5 -3.5q-26 0 -54 10l7 47q13 -3 25.5 -6t25.5 -3q5 0 13 2.5t8 10.5t-15.5 10t-29.5 2h-14z" />
    <glyph glyph-name="Egrave" unicode="&#xc8;" horiz-adv-x="248" 
d="M74 706v-267h80v-86h-80v-266h97v-87h-173v793h173v-87h-97zM7 971h72l70 -94h-69z" />
    <glyph glyph-name="Eacute" unicode="&#xc9;" horiz-adv-x="248" 
d="M74 706v-267h80v-86h-80v-266h97v-87h-173v793h173v-87h-97zM91 877h-69l70 94h72z" />
    <glyph glyph-name="Ecircumflex" unicode="&#xca;" horiz-adv-x="248" 
d="M74 706v-267h80v-86h-80v-266h97v-87h-173v793h173v-87h-97zM125 856l-39 58l-40 -58h-54l62 117h66l60 -117h-55z" />
    <glyph glyph-name="Edieresis" unicode="&#xcb;" horiz-adv-x="248" 
d="M74 706v-267h80v-86h-80v-266h97v-87h-173v793h173v-87h-97zM63 881h-75v91h75v-91zM188 881h-76v91h76v-91z" />
    <glyph glyph-name="Igrave" unicode="&#xcc;" horiz-adv-x="168" 
d="M7 0v793h77v-793h-77zM-25 971h72l70 -94h-69z" />
    <glyph glyph-name="Iacute" unicode="&#xcd;" horiz-adv-x="168" 
d="M7 0v793h77v-793h-77zM42 877h-69l70 94h72z" />
    <glyph glyph-name="Icircumflex" unicode="&#xce;" horiz-adv-x="168" 
d="M7 0v793h77v-793h-77zM83 856l-39 58l-40 -58h-54l62 117h66l60 -117h-55z" />
    <glyph glyph-name="Idieresis" unicode="&#xcf;" horiz-adv-x="168" 
d="M7 0v793h77v-793h-77zM21 881h-75v91h75v-91zM146 881h-76v91h76v-91z" />
    <glyph glyph-name="Eth" unicode="&#xd0;" horiz-adv-x="296" 
d="M111 672q0 14 -2 24t-21 10h-15v-269h24v-86h-24v-264h15q18 0 20.5 8.5t2.5 25.5v551zM88 793q50 0 74.5 -29t24.5 -92v-551q0 -64 -24.5 -92.5t-74.5 -28.5h-90v351h-51v86h51v356h90z" />
    <glyph glyph-name="Ntilde" unicode="&#xd1;" horiz-adv-x="312" 
d="M230 0h-77l-78 450v-450h-77v793h75l69 -415l11 -86v501h77v-793zM154 851q-14 0 -27 6.5t-24.5 14t-21.5 14t-18 6.5q-10 0 -23.5 -14.5t-21.5 -24.5l-46 56q15 22 27.5 35t24 19.5t21 8t18.5 1.5q12 0 24.5 -6.5t24 -14.5t22.5 -14.5t20 -6.5q3 0 9 3.5t12.5 8t12 9.5
t7.5 9l49 -49q-14 -21 -27 -33t-24 -18.5t-21 -8t-18 -1.5z" />
    <glyph glyph-name="Ograve" unicode="&#xd2;" horiz-adv-x="270" 
d="M192 133q0 -36 -2.5 -62.5t-12.5 -44t-29.5 -26t-53.5 -8.5q-46 0 -71.5 19t-25.5 75v612q0 57 24 78.5t74 21.5q55 0 76 -23t21 -80v-562zM120 677q0 28 -5 36t-19 8q-24 0 -24 -31v-587q0 -19 5.5 -26.5t17.5 -7.5q14 0 19.5 5.5t5.5 29.5v573zM25 971h72l70 -94h-69z
" />
    <glyph glyph-name="Oacute" unicode="&#xd3;" horiz-adv-x="270" 
d="M192 133q0 -36 -2.5 -62.5t-12.5 -44t-29.5 -26t-53.5 -8.5q-46 0 -71.5 19t-25.5 75v612q0 57 24 78.5t74 21.5q55 0 76 -23t21 -80v-562zM120 677q0 28 -5 36t-19 8q-24 0 -24 -31v-587q0 -19 5.5 -26.5t17.5 -7.5q14 0 19.5 5.5t5.5 29.5v573zM94 877h-69l70 94h72z
" />
    <glyph glyph-name="Ocircumflex" unicode="&#xd4;" horiz-adv-x="270" 
d="M192 133q0 -36 -2.5 -62.5t-12.5 -44t-29.5 -26t-53.5 -8.5q-46 0 -71.5 19t-25.5 75v612q0 57 24 78.5t74 21.5q55 0 76 -23t21 -80v-562zM120 677q0 28 -5 36t-19 8q-24 0 -24 -31v-587q0 -19 5.5 -26.5t17.5 -7.5q14 0 19.5 5.5t5.5 29.5v573zM133 856l-39 58l-40 -58
h-54l62 117h66l60 -117h-55z" />
    <glyph glyph-name="Otilde" unicode="&#xd5;" horiz-adv-x="270" 
d="M192 133q0 -36 -2.5 -62.5t-12.5 -44t-29.5 -26t-53.5 -8.5q-46 0 -71.5 19t-25.5 75v612q0 57 24 78.5t74 21.5q55 0 76 -23t21 -80v-562zM120 677q0 28 -5 36t-19 8q-24 0 -24 -31v-587q0 -19 5.5 -26.5t17.5 -7.5q14 0 19.5 5.5t5.5 29.5v573zM142 851q-14 0 -27 6.5
t-24.5 14t-21.5 14t-18 6.5q-10 0 -23.5 -14.5t-21.5 -24.5l-46 56q15 22 27.5 35t24 19.5t21 8t18.5 1.5q12 0 24.5 -6.5t24 -14.5t22.5 -14.5t20 -6.5q3 0 9 3.5t12.5 8t12 9.5t7.5 9l49 -49q-14 -21 -27 -33t-24 -18.5t-21 -8t-18 -1.5z" />
    <glyph glyph-name="Odieresis" unicode="&#xd6;" horiz-adv-x="270" 
d="M192 133q0 -36 -2.5 -62.5t-12.5 -44t-29.5 -26t-53.5 -8.5q-46 0 -71.5 19t-25.5 75v612q0 57 24 78.5t74 21.5q55 0 76 -23t21 -80v-562zM120 677q0 28 -5 36t-19 8q-24 0 -24 -31v-587q0 -19 5.5 -26.5t17.5 -7.5q14 0 19.5 5.5t5.5 29.5v573zM71 881h-75v91h75v-91z
M196 881h-76v91h76v-91z" />
    <glyph glyph-name="multiply" unicode="&#xd7;" horiz-adv-x="271" 
d="M76 413l42 -48l41 48l55 -62l-42 -47q11 -12 21 -24.5t21 -24.5l-55 -61l-41 47l-42 -47l-55 61l41 49q-10 11 -20.5 22t-19.5 24z" />
    <glyph glyph-name="Oslash" unicode="&#xd8;" horiz-adv-x="270" 
d="M258 793l-250 -793h-81l251 793h80zM192 695q0 57 -21 80t-76 23q-50 0 -74 -21.5t-24 -78.5v-612q0 -56 25.5 -75t71.5 -19q34 0 53.5 8.5t29.5 26t12.5 44t2.5 62.5v562zM120 677q0 28 -5 36t-19 8q-24 0 -24 -31v-587q0 -19 5.5 -26.5t17.5 -7.5q14 0 19.5 5.5
t5.5 29.5v573z" />
    <glyph glyph-name="Ugrave" unicode="&#xd9;" horiz-adv-x="269" 
d="M95 -8q-45 0 -71 22t-26 79v700h75v-690q0 -20 5.5 -27.5t17.5 -7.5q14 0 18.5 9.5t4.5 25.5v690h75v-700q0 -58 -27 -79.5t-72 -21.5zM20 971h72l70 -94h-69z" />
    <glyph glyph-name="Uacute" unicode="&#xda;" horiz-adv-x="269" 
d="M95 -8q-45 0 -71 22t-26 79v700h75v-690q0 -20 5.5 -27.5t17.5 -7.5q14 0 18.5 9.5t4.5 25.5v690h75v-700q0 -58 -27 -79.5t-72 -21.5zM91 877h-69l70 94h72z" />
    <glyph glyph-name="Ucircumflex" unicode="&#xdb;" horiz-adv-x="269" 
d="M95 -8q-45 0 -71 22t-26 79v700h75v-690q0 -20 5.5 -27.5t17.5 -7.5q14 0 18.5 9.5t4.5 25.5v690h75v-700q0 -58 -27 -79.5t-72 -21.5zM132 856l-39 58l-40 -58h-54l62 117h66l60 -117h-55z" />
    <glyph glyph-name="Udieresis" unicode="&#xdc;" horiz-adv-x="269" 
d="M95 -8q-45 0 -71 22t-26 79v700h75v-690q0 -20 5.5 -27.5t17.5 -7.5q14 0 18.5 9.5t4.5 25.5v690h75v-700q0 -58 -27 -79.5t-72 -21.5zM68 881h-75v91h75v-91zM193 881h-76v91h76v-91z" />
    <glyph glyph-name="Yacute" unicode="&#xdd;" horiz-adv-x="270" 
d="M222 793l-76 -438v-355h-71v355l-79 438h75l39 -276l37 276h75zM105 877h-69l70 94h72z" />
    <glyph glyph-name="Thorn" unicode="&#xde;" horiz-adv-x="288" 
d="M110 562v10t-2 11.5t-6 9.5t-11 4q-14 0 -15.5 -8t-1.5 -27v-368q0 -6 5.5 -10.5t12.5 -3.5t12.5 9t5.5 26v347zM74 681q5 1 10 1h10q43 0 67 -30t24 -90v-347q0 -57 -22.5 -88.5t-69.5 -31.5h-9.5t-9.5 1v-96h-76v793h76v-112z" />
    <glyph glyph-name="germandbls" unicode="&#xdf;" horiz-adv-x="733" 
 />
    <glyph glyph-name="agrave" unicode="&#xe0;" horiz-adv-x="261" 
d="M91 591q94 0 94 -114v-477h-49l-4 48q0 -4 -3 -13t-9 -18t-15.5 -15.5t-23.5 -6.5q-48 0 -65.5 29t-17.5 86v135q0 43 18 72t39 48t39 30t18 19v49.5t-2 31t-6 16t-12 4.5q-15 0 -17.5 -20t-3.5 -71h-73q0 26 1 55.5t9 54t27.5 41t55.5 16.5zM110 326q0 -4 -6.5 -9.5
t-14 -13t-13.5 -17.5t-6 -22v-153q0 -14 4 -24t17 -10q7 0 10.5 5t5.5 12t2.5 15t0.5 14v203zM21 794h72l70 -94h-69z" />
    <glyph glyph-name="aacute" unicode="&#xe1;" horiz-adv-x="261" 
d="M91 591q94 0 94 -114v-477h-49l-4 48q0 -4 -3 -13t-9 -18t-15.5 -15.5t-23.5 -6.5q-48 0 -65.5 29t-17.5 86v135q0 43 18 72t39 48t39 30t18 19v49.5t-2 31t-6 16t-12 4.5q-15 0 -17.5 -20t-3.5 -71h-73q0 26 1 55.5t9 54t27.5 41t55.5 16.5zM110 326q0 -4 -6.5 -9.5
t-14 -13t-13.5 -17.5t-6 -22v-153q0 -14 4 -24t17 -10q7 0 10.5 5t5.5 12t2.5 15t0.5 14v203zM93 699h-69l70 94h72z" />
    <glyph glyph-name="acircumflex" unicode="&#xe2;" horiz-adv-x="261" 
d="M91 591q94 0 94 -114v-477h-49l-4 48q0 -4 -3 -13t-9 -18t-15.5 -15.5t-23.5 -6.5q-48 0 -65.5 29t-17.5 86v135q0 43 18 72t39 48t39 30t18 19v49.5t-2 31t-6 16t-12 4.5q-15 0 -17.5 -20t-3.5 -71h-73q0 26 1 55.5t9 54t27.5 41t55.5 16.5zM110 326q0 -4 -6.5 -9.5
t-14 -13t-13.5 -17.5t-6 -22v-153q0 -14 4 -24t17 -10q7 0 10.5 5t5.5 12t2.5 15t0.5 14v203zM133 674l-39 58l-40 -58h-54l62 117h66l60 -117h-55z" />
    <glyph glyph-name="atilde" unicode="&#xe3;" horiz-adv-x="261" 
d="M91 591q94 0 94 -114v-477h-49l-4 48q0 -4 -3 -13t-9 -18t-15.5 -15.5t-23.5 -6.5q-48 0 -65.5 29t-17.5 86v135q0 43 18 72t39 48t39 30t18 19v49.5t-2 31t-6 16t-12 4.5q-15 0 -17.5 -20t-3.5 -71h-73q0 26 1 55.5t9 54t27.5 41t55.5 16.5zM110 326q0 -4 -6.5 -9.5
t-14 -13t-13.5 -17.5t-6 -22v-153q0 -14 4 -24t17 -10q7 0 10.5 5t5.5 12t2.5 15t0.5 14v203zM151 674q-14 0 -27 6.5t-24.5 14t-21.5 14t-18 6.5q-10 0 -23.5 -14.5t-21.5 -24.5l-46 56q15 22 27.5 35t24 19.5t21 8t18.5 1.5q12 0 24.5 -6.5t24 -14.5t22.5 -14.5t20 -6.5
q3 0 9 3.5t12.5 8t12 9.5t7.5 9l49 -49q-14 -21 -27 -33t-24 -18.5t-21 -8t-18 -1.5z" />
    <glyph glyph-name="adieresis" unicode="&#xe4;" horiz-adv-x="261" 
d="M91 591q94 0 94 -114v-477h-49l-4 48q0 -4 -3 -13t-9 -18t-15.5 -15.5t-23.5 -6.5q-48 0 -65.5 29t-17.5 86v135q0 43 18 72t39 48t39 30t18 19v49.5t-2 31t-6 16t-12 4.5q-15 0 -17.5 -20t-3.5 -71h-73q0 26 1 55.5t9 54t27.5 41t55.5 16.5zM110 326q0 -4 -6.5 -9.5
t-14 -13t-13.5 -17.5t-6 -22v-153q0 -14 4 -24t17 -10q7 0 10.5 5t5.5 12t2.5 15t0.5 14v203zM67 702h-75v91h75v-91zM192 702h-76v91h76v-91z" />
    <glyph glyph-name="aring" unicode="&#xe5;" horiz-adv-x="261" 
d="M91 591q94 0 94 -114v-477h-49l-4 48q0 -4 -3 -13t-9 -18t-15.5 -15.5t-23.5 -6.5q-48 0 -65.5 29t-17.5 86v135q0 43 18 72t39 48t39 30t18 19v49.5t-2 31t-6 16t-12 4.5q-15 0 -17.5 -20t-3.5 -71h-73q0 26 1 55.5t9 54t27.5 41t55.5 16.5zM110 326q0 -4 -6.5 -9.5
t-14 -13t-13.5 -17.5t-6 -22v-153q0 -14 4 -24t17 -10q7 0 10.5 5t5.5 12t2.5 15t0.5 14v203zM22 722q0 29 20.5 50t49.5 21t50 -21t21 -50t-21 -49.5t-50 -20.5t-49.5 20.5t-20.5 49.5zM72 723q0 -8 5.5 -13.5t13.5 -5.5t13.5 5.5t5.5 13.5t-5.5 13.5t-13.5 5.5t-13.5 -5.5
t-5.5 -13.5z" />
    <glyph glyph-name="ae" unicode="&#xe6;" horiz-adv-x="415" 
d="M236 -3q-48 0 -73 36q-7 -13 -24 -25.5t-58 -12.5q-48 0 -65.5 29t-17.5 86v135q0 56 17.5 85.5t38.5 43.5t38.5 20t17.5 15t1.5 25.5t0.5 32t-5 27t-15 11.5q-15 0 -17.5 -25t-3.5 -56h-73q0 26 3.5 55.5t13 54t28 41t48.5 16.5q46 0 71 -35q23 35 76 35q42 0 67 -32
t25 -85v-226h-111v-122q0 -17 4 -30t16 -13q7 0 11 6.5t6 16t2.5 22t0.5 24.5v31h71v-31q0 -32 -3.5 -60.5t-13.5 -49.5t-28.5 -33t-48.5 -12zM110 311q-1 -3 -7 -6.5t-13.5 -8.5t-13.5 -12.5t-6 -19.5v-144q0 -14 4 -24t17 -10q7 0 10.5 5t5.5 12.5t2.5 15.5t0.5 14v178z
M255 332v132q0 12 -2 26.5t-15 14.5q-14 0 -16.5 -13.5t-2.5 -27.5v-132h36z" />
    <glyph glyph-name="ccedilla" unicode="&#xe7;" horiz-adv-x="249" 
d="M91 -4q-45 0 -69 31t-24 87v359q0 118 95 118q44 0 68 -32t24 -86v-69h-71v64q0 19 -3.5 33t-16.5 14t-17 -14t-4 -27v-363q0 -11 4.5 -25t16.5 -14q14 0 17 15.5t3 35.5v60h71v-36q-1 -30 -4.5 -57.5t-13 -48t-28 -33t-48.5 -12.5zM59 -8q0 13 7.5 19t17.5 6t17.5 -6.5
t9.5 -17.5q18 -3 34 -19.5t16 -41.5q0 -17 -6.5 -29t-17 -19.5t-23 -11t-23.5 -3.5q-26 0 -54 10l7 47q13 -3 25.5 -6t25.5 -3q5 0 13 2.5t8 10.5t-15.5 10t-29.5 2h-14z" />
    <glyph glyph-name="egrave" unicode="&#xe8;" horiz-adv-x="252" 
d="M94 -3q-45 0 -70.5 30t-25.5 86v360q0 60 25 89t73 29q42 0 68.5 -32t26.5 -85v-206h-117v-152q0 -17 5.5 -30t17.5 -13q14 0 18.5 18.5t4.5 42.5v49h71v-31q0 -32 -4 -60.5t-14.5 -49.5t-29.5 -33t-49 -12zM116 352v122q0 12 -3.5 26.5t-16.5 14.5q-14 0 -18 -13.5
t-4 -27.5v-122h42zM22 792h72l70 -94h-69z" />
    <glyph glyph-name="eacute" unicode="&#xe9;" horiz-adv-x="252" 
d="M94 -3q-45 0 -70.5 30t-25.5 86v360q0 60 25 89t73 29q42 0 68.5 -32t26.5 -85v-206h-117v-152q0 -17 5.5 -30t17.5 -13q14 0 18.5 18.5t4.5 42.5v49h71v-31q0 -32 -4 -60.5t-14.5 -49.5t-29.5 -33t-49 -12zM116 352v122q0 12 -3.5 26.5t-16.5 14.5q-14 0 -18 -13.5
t-4 -27.5v-122h42zM91 698h-69l70 94h72z" />
    <glyph glyph-name="ecircumflex" unicode="&#xea;" horiz-adv-x="252" 
d="M94 -3q-45 0 -70.5 30t-25.5 86v360q0 60 25 89t73 29q42 0 68.5 -32t26.5 -85v-206h-117v-152q0 -17 5.5 -30t17.5 -13q14 0 18.5 18.5t4.5 42.5v49h71v-31q0 -32 -4 -60.5t-14.5 -49.5t-29.5 -33t-49 -12zM116 352v122q0 12 -3.5 26.5t-16.5 14.5q-14 0 -18 -13.5
t-4 -27.5v-122h42zM130 676l-39 58l-40 -58h-54l62 117h66l60 -117h-55z" />
    <glyph glyph-name="edieresis" unicode="&#xeb;" horiz-adv-x="252" 
d="M94 -3q-45 0 -70.5 30t-25.5 86v360q0 60 25 89t73 29q42 0 68.5 -32t26.5 -85v-206h-117v-152q0 -17 5.5 -30t17.5 -13q14 0 18.5 18.5t4.5 42.5v49h71v-31q0 -32 -4 -60.5t-14.5 -49.5t-29.5 -33t-49 -12zM116 352v122q0 12 -3.5 26.5t-16.5 14.5q-14 0 -18 -13.5
t-4 -27.5v-122h42zM68 701h-75v91h75v-91zM193 701h-76v91h76v-91z" />
    <glyph glyph-name="igrave" unicode="&#xec;" horiz-adv-x="151" 
d="M72 0h-75v587h75v-587zM-39 792h72l70 -94h-69z" />
    <glyph glyph-name="iacute" unicode="&#xed;" horiz-adv-x="151" 
d="M72 0h-75v587h75v-587zM36 698h-69l70 94h72z" />
    <glyph glyph-name="icircumflex" unicode="&#xee;" horiz-adv-x="151" 
d="M72 0h-75v587h75v-587zM72 676l-39 58l-40 -58h-54l62 117h66l60 -117h-55z" />
    <glyph glyph-name="idieresis" unicode="&#xef;" horiz-adv-x="151" 
d="M72 0h-75v587h75v-587zM12 702h-75v91h75v-91zM137 702h-76v91h76v-91z" />
    <glyph glyph-name="eth" unicode="&#xf0;" horiz-adv-x="273" 
d="M109 467q0 12 -1.5 23t-14.5 11t-16 -10t-3 -24v-344q0 -12 2 -24.5t15 -12.5q14 0 16 12t2 25v344zM138 679q23 -47 35 -92.5t12 -100.5v-373q0 -57 -24.5 -85t-69.5 -28q-46 0 -69.5 26.5t-23.5 86.5v364q0 27 7 53t27 40l-49 59l53 58q-11 11 -24 19l-26 16l34 75
q20 -12 36.5 -22t33.5 -29l52 54l52 -62zM42 577q12 5 26 7.5t28 2.5q-2 8 -6 15.5t-8 15.5z" />
    <glyph glyph-name="ntilde" unicode="&#xf1;" horiz-adv-x="258" 
d="M111 590q20 0 34.5 -9.5t24.5 -25.5t14.5 -37t4.5 -43v-475h-72v476q0 14 -5 24.5t-16 10.5q-14 0 -18 -13.5t-4 -24.5v-473h-76v587h50l3 -45q7 17 22 32.5t38 15.5zM142 671q-14 0 -27 6.5t-24.5 14t-21.5 14t-18 6.5q-10 0 -23.5 -14.5t-21.5 -24.5l-46 56
q15 22 27.5 35t24 19.5t21 8t18.5 1.5q12 0 24.5 -6.5t24 -14.5t22.5 -14.5t20 -6.5q3 0 9 3.5t12.5 8t12 9.5t7.5 9l49 -49q-14 -21 -27 -33t-24 -18.5t-21 -8t-18 -1.5z" />
    <glyph glyph-name="ograve" unicode="&#xf2;" 
d="M93 -4q-45 0 -70 31t-25 87v359q0 118 97 118q44 0 69 -32t25 -86v-359q0 -53 -27 -85.5t-69 -32.5zM94 515q-14 0 -18 -14t-4 -27v-361q0 -12 4.5 -26.5t16.5 -14.5q14 0 18 14t4 27l-2 361q0 12 -3 26.5t-16 14.5zM21 792h72l70 -94h-69z" />
    <glyph glyph-name="oacute" unicode="&#xf3;" 
d="M93 -4q-45 0 -70 31t-25 87v359q0 118 97 118q44 0 69 -32t25 -86v-359q0 -53 -27 -85.5t-69 -32.5zM94 515q-14 0 -18 -14t-4 -27v-361q0 -12 4.5 -26.5t16.5 -14.5q14 0 18 14t4 27l-2 361q0 12 -3 26.5t-16 14.5zM91 697h-69l70 94h72z" />
    <glyph glyph-name="ocircumflex" unicode="&#xf4;" 
d="M93 -4q-45 0 -70 31t-25 87v359q0 118 97 118q44 0 69 -32t25 -86v-359q0 -53 -27 -85.5t-69 -32.5zM94 515q-14 0 -18 -14t-4 -27v-361q0 -12 4.5 -26.5t16.5 -14.5q14 0 18 14t4 27l-2 361q0 12 -3 26.5t-16 14.5zM131 677l-39 58l-40 -58h-54l62 117h66l60 -117h-55z
" />
    <glyph glyph-name="otilde" unicode="&#xf5;" 
d="M93 -4q-45 0 -70 31t-25 87v359q0 118 97 118q44 0 69 -32t25 -86v-359q0 -53 -27 -85.5t-69 -32.5zM94 515q-14 0 -18 -14t-4 -27v-361q0 -12 4.5 -26.5t16.5 -14.5q14 0 18 14t4 27l-2 361q0 12 -3 26.5t-16 14.5zM139 671q-14 0 -27 6.5t-24.5 14t-21.5 14t-18 6.5
q-10 0 -23.5 -14.5t-21.5 -24.5l-46 56q15 22 27.5 35t24 19.5t21 8t18.5 1.5q12 0 24.5 -6.5t24 -14.5t22.5 -14.5t20 -6.5q3 0 9 3.5t12.5 8t12 9.5t7.5 9l49 -49q-14 -21 -27 -33t-24 -18.5t-21 -8t-18 -1.5z" />
    <glyph glyph-name="odieresis" unicode="&#xf6;" 
d="M93 -4q-45 0 -70 31t-25 87v359q0 118 97 118q44 0 69 -32t25 -86v-359q0 -53 -27 -85.5t-69 -32.5zM94 515q-14 0 -18 -14t-4 -27v-361q0 -12 4.5 -26.5t16.5 -14.5q14 0 18 14t4 27l-2 361q0 12 -3 26.5t-16 14.5zM68 701h-75v91h75v-91zM193 701h-76v91h76v-91z" />
    <glyph glyph-name="divide" unicode="&#xf7;" horiz-adv-x="356" 
d="M259 258h-229v87h229v-87zM185 369h-76v91h76v-91zM185 155h-76v91h76v-91z" />
    <glyph glyph-name="oslash" unicode="&#xf8;" 
d="M258 587l-250 -587h-81l251 587h80zM93 -4q-45 0 -70 31t-25 87v359q0 118 97 118q44 0 69 -32t25 -86v-359q0 -53 -27 -85.5t-69 -32.5zM94 515q-14 0 -18 -14t-4 -27v-361q0 -12 4.5 -26.5t16.5 -14.5q14 0 18 14t4 27l-2 361q0 12 -3 26.5t-16 14.5z" />
    <glyph glyph-name="ugrave" unicode="&#xf9;" 
d="M190 0h-46l-7 48q-2 -8 -7 -17.5t-12 -17.5t-16.5 -13t-21.5 -5q-25 0 -41 9.5t-25 25.5t-12.5 38t-3.5 46v473h74v-477q0 -14 5 -24t19 -10q10 0 15.5 11t5.5 30v470h73v-587zM22 793h72l70 -94h-69z" />
    <glyph glyph-name="uacute" unicode="&#xfa;" 
d="M190 0h-46l-7 48q-2 -8 -7 -17.5t-12 -17.5t-16.5 -13t-21.5 -5q-25 0 -41 9.5t-25 25.5t-12.5 38t-3.5 46v473h74v-477q0 -14 5 -24t19 -10q10 0 15.5 11t5.5 30v470h73v-587zM91 699h-69l70 94h72z" />
    <glyph glyph-name="ucircumflex" unicode="&#xfb;" 
d="M190 0h-46l-7 48q-2 -8 -7 -17.5t-12 -17.5t-16.5 -13t-21.5 -5q-25 0 -41 9.5t-25 25.5t-12.5 38t-3.5 46v473h74v-477q0 -14 5 -24t19 -10q10 0 15.5 11t5.5 30v470h73v-587zM132 675l-39 58l-40 -58h-54l62 117h66l60 -117h-55z" />
    <glyph glyph-name="udieresis" unicode="&#xfc;" 
d="M190 0h-46l-7 48q-2 -8 -7 -17.5t-12 -17.5t-16.5 -13t-21.5 -5q-25 0 -41 9.5t-25 25.5t-12.5 38t-3.5 46v473h74v-477q0 -14 5 -24t19 -10q10 0 15.5 11t5.5 30v470h73v-587zM66 701h-75v91h75v-91zM191 701h-76v91h76v-91z" />
    <glyph glyph-name="yacute" unicode="&#xfd;" horiz-adv-x="256" 
d="M-8 -169v97h32q10 0 17.5 9t12 22.5t6.5 27.5t2 25l-63 575h77l21 -296l4 -80l4 80l21 296h76l-64 -575q-4 -34 -10 -66.5t-18 -58t-32.5 -41t-53.5 -15.5h-32zM100 699h-69l70 94h72z" />
    <glyph glyph-name="thorn" unicode="&#xfe;" horiz-adv-x="293" 
d="M110 562v10t-2 11.5t-6 9.5t-11 4q-14 0 -15.5 -8t-1.5 -27v-368q0 -6 5.5 -10.5t12.5 -3.5t12.5 9t5.5 26v347zM74 681q5 1 10 1h10q43 0 67 -30t24 -90v-347q0 -57 -22.5 -88.5t-69.5 -31.5h-9.5t-9.5 1v-96h-76v783h76v-102z" />
    <glyph glyph-name="ydieresis" unicode="&#xff;" horiz-adv-x="256" 
d="M-8 -169v97h32q10 0 17.5 9t12 22.5t6.5 27.5t2 25l-63 575h77l21 -296l4 -80l4 80l21 296h76l-64 -575q-4 -34 -10 -66.5t-18 -58t-32.5 -41t-53.5 -15.5h-32zM77 701h-75v91h75v-91zM202 701h-76v91h76v-91z" />
    <glyph glyph-name="Amacron" unicode="&#x100;" horiz-adv-x="304" 
d="M0 0l66 793h106l66 -793h-77l-16 215h-51l-17 -215h-77zM139 302l-21 365l-20 -365h41zM226 895h-215v76h215v-76z" />
    <glyph glyph-name="amacron" unicode="&#x101;" horiz-adv-x="261" 
d="M91 591q94 0 94 -114v-477h-49l-4 48q0 -4 -3 -13t-9 -18t-15.5 -15.5t-23.5 -6.5q-48 0 -65.5 29t-17.5 86v135q0 43 18 72t39 48t39 30t18 19v49.5t-2 31t-6 16t-12 4.5q-15 0 -17.5 -20t-3.5 -71h-73q0 26 1 55.5t9 54t27.5 41t55.5 16.5zM110 326q0 -4 -6.5 -9.5
t-14 -13t-13.5 -17.5t-6 -22v-153q0 -14 4 -24t17 -10q7 0 10.5 5t5.5 12t2.5 15t0.5 14v203zM200 716h-215v76h215v-76z" />
    <glyph glyph-name="Abreve" unicode="&#x102;" horiz-adv-x="304" 
d="M0 0l66 793h106l66 -793h-77l-16 215h-51l-17 -215h-77zM118 667l-20 -365h41zM214 972v-13q0 -23 -8.5 -39.5t-22 -28t-30.5 -17t-34 -5.5t-34 5.5t-30.5 17t-22 28t-8.5 39.5v13h74q0 -5 0.5 -11t2.5 -12t6 -10t12 -4q16 0 19 13t2 24h74z" />
    <glyph glyph-name="abreve" unicode="&#x103;" horiz-adv-x="261" 
d="M91 591q94 0 94 -114v-477h-49l-4 48q0 -4 -3 -13t-9 -18t-15.5 -15.5t-23.5 -6.5q-48 0 -65.5 29t-17.5 86v135q0 43 18 72t39 48t39 30t18 19v49.5t-2 31t-6 16t-12 4.5q-15 0 -17.5 -20t-3.5 -71h-73q0 26 1 55.5t9 54t27.5 41t55.5 16.5zM110 326q0 -4 -6.5 -9.5
t-14 -13t-13.5 -17.5t-6 -22v-153q0 -14 4 -24t17 -10q7 0 10.5 5t5.5 12t2.5 15t0.5 14v203zM191 793v-13q0 -23 -8.5 -39.5t-22 -28t-30.5 -17t-34 -5.5t-34 5.5t-30.5 17t-22 28t-8.5 39.5v13h74q0 -5 0.5 -11t2.5 -12t6 -10t12 -4q16 0 19 13t2 24h74z" />
    <glyph glyph-name="Aogonek" unicode="&#x104;" horiz-adv-x="304" 
d="M0 0l66 793h106l66 -793h-77l-16 215h-51l-17 -215h-77zM118 667l-20 -365h41zM266 -139l-24 -8q-19 -8 -39 -8q-11 0 -23 4t-21 13v-1q-11 11 -18 27t-7 34q0 16 7.5 30t19 25t24.5 17.5t25 6.5h28l3 -29q-4 -1 -13 -6.5t-18.5 -13t-16.5 -15.5t-7 -13q0 -12 5 -16.5
t13 -4.5q11 0 22.5 4t22.5 9z" />
    <glyph glyph-name="aogonek" unicode="&#x105;" horiz-adv-x="261" 
d="M91 591q94 0 94 -114v-477h-49l-4 48q0 -4 -3 -13t-9 -18t-15.5 -15.5t-23.5 -6.5q-48 0 -65.5 29t-17.5 86v135q0 43 18 72t39 48t39 30t18 19v49.5t-2 31t-6 16t-12 4.5q-15 0 -17.5 -20t-3.5 -71h-73q0 26 1 55.5t9 54t27.5 41t55.5 16.5zM110 326q0 -4 -6.5 -9.5
t-14 -13t-13.5 -17.5t-6 -22v-153q0 -14 4 -24t17 -10q7 0 10.5 5t5.5 12t2.5 15t0.5 14v203zM203 -88l-24 -8q-19 -8 -39 -8q-11 0 -23 4t-21 13v-1q-11 11 -18 27t-7 34q0 16 7.5 30t19 25t24.5 17.5t25 6.5h28l3 -29q-4 -1 -13 -6.5t-18.5 -13t-16.5 -15.5t-7 -13
q0 -12 5 -16.5t13 -4.5q11 0 22.5 4t22.5 9z" />
    <glyph glyph-name="Cacute" unicode="&#x106;" horiz-adv-x="264" 
d="M120 248h72v-115q0 -36 -2.5 -62.5t-12.5 -44t-29.5 -26t-53.5 -8.5q-46 0 -71.5 19t-25.5 75v612q0 57 24 78.5t74 21.5q55 0 76 -23t21 -80v-150h-72v126q0 34 -5 42t-19 8q-24 0 -24 -31v-587q0 -19 5.5 -26.5t17.5 -7.5q14 0 19.5 8t5.5 34v137zM90 877h-69l70 94h72
z" />
    <glyph glyph-name="cacute" unicode="&#x107;" horiz-adv-x="249" 
d="M91 -4q-45 0 -69 31t-24 87v359q0 118 95 118q44 0 68 -32t24 -86v-69h-71v64q0 19 -3.5 33t-16.5 14t-17 -14t-4 -27v-363q0 -11 4.5 -25t16.5 -14q14 0 17 15.5t3 35.5v60h71v-36q-1 -30 -4.5 -57.5t-13 -48t-28 -33t-48.5 -12.5zM89 698h-69l70 94h72z" />
    <glyph glyph-name="Ccircumflex" unicode="&#x108;" horiz-adv-x="264" 
d="M120 248h72v-115q0 -36 -2.5 -62.5t-12.5 -44t-29.5 -26t-53.5 -8.5q-46 0 -71.5 19t-25.5 75v612q0 57 24 78.5t74 21.5q55 0 76 -23t21 -80v-150h-72v126q0 34 -5 42t-19 8q-24 0 -24 -31v-587q0 -19 5.5 -26.5t17.5 -7.5q14 0 19.5 8t5.5 34v137zM136 856l-39 58
l-40 -58h-54l62 117h66l60 -117h-55z" />
    <glyph glyph-name="ccircumflex" unicode="&#x109;" horiz-adv-x="249" 
d="M91 -4q-45 0 -69 31t-24 87v359q0 118 95 118q44 0 68 -32t24 -86v-69h-71v64q0 19 -3.5 33t-16.5 14t-17 -14t-4 -27v-363q0 -11 4.5 -25t16.5 -14q14 0 17 15.5t3 35.5v60h71v-36q-1 -30 -4.5 -57.5t-13 -48t-28 -33t-48.5 -12.5zM133 676l-39 58l-40 -58h-54l62 117
h66l60 -117h-55z" />
    <glyph glyph-name="Cdotaccent" unicode="&#x10a;" horiz-adv-x="264" 
d="M120 248h72v-115q0 -36 -2.5 -62.5t-12.5 -44t-29.5 -26t-53.5 -8.5q-46 0 -71.5 19t-25.5 75v612q0 57 24 78.5t74 21.5q55 0 76 -23t21 -80v-150h-72v126q0 34 -5 42t-19 8q-24 0 -24 -31v-587q0 -19 5.5 -26.5t17.5 -7.5q14 0 19.5 8t5.5 34v137zM33 925q0 20 13.5 34
t33.5 14t34.5 -14t14.5 -34t-14.5 -33.5t-34.5 -13.5t-33.5 13.5t-13.5 33.5z" />
    <glyph glyph-name="cdotaccent" unicode="&#x10b;" horiz-adv-x="249" 
d="M91 -4q-45 0 -69 31t-24 87v359q0 118 95 118q44 0 68 -32t24 -86v-69h-71v64q0 19 -3.5 33t-16.5 14t-17 -14t-4 -27v-363q0 -11 4.5 -25t16.5 -14q14 0 17 15.5t3 35.5v60h71v-36q-1 -30 -4.5 -57.5t-13 -48t-28 -33t-48.5 -12.5zM45 745q0 20 13.5 34t33.5 14
t34.5 -14t14.5 -34t-14.5 -33.5t-34.5 -13.5t-33.5 13.5t-13.5 33.5z" />
    <glyph glyph-name="Ccaron" unicode="&#x10c;" horiz-adv-x="264" 
d="M120 248h72v-115q0 -36 -2.5 -62.5t-12.5 -44t-29.5 -26t-53.5 -8.5q-46 0 -71.5 19t-25.5 75v612q0 57 24 78.5t74 21.5q55 0 76 -23t21 -80v-150h-72v126q0 34 -5 42t-19 8q-24 0 -24 -31v-587q0 -19 5.5 -26.5t17.5 -7.5q14 0 19.5 8t5.5 34v137zM191 973l-60 -117
h-66l-62 117h54l40 -58l39 58h55z" />
    <glyph glyph-name="ccaron" unicode="&#x10d;" horiz-adv-x="249" 
d="M91 -4q-45 0 -69 31t-24 87v359q0 118 95 118q44 0 68 -32t24 -86v-69h-71v64q0 19 -3.5 33t-16.5 14t-17 -14t-4 -27v-363q0 -11 4.5 -25t16.5 -14q14 0 17 15.5t3 35.5v60h71v-36q-1 -30 -4.5 -57.5t-13 -48t-28 -33t-48.5 -12.5zM187 794l-60 -117h-66l-62 117h54
l40 -58l39 58h55z" />
    <glyph glyph-name="Dcaron" unicode="&#x10e;" horiz-adv-x="274" 
d="M-2 0v793h115q24 0 39.5 -5.5t24.5 -18.5t12 -34.5t3 -53.5v-569q0 -32 -3 -53.5t-12 -34.5t-24.5 -18.5t-39.5 -5.5h-115zM74 87h27q14 0 16.5 9.5t2.5 24.5v551q0 17 -2.5 25.5t-16.5 8.5h-27v-619zM190 973l-60 -117h-66l-62 117h54l40 -58l39 58h55z" />
    <glyph glyph-name="dcaron" unicode="&#x10f;" horiz-adv-x="366" 
d="M113 793h76v-793h-50l-4 48q-3 -17 -21 -35t-46 -18q-21 0 -35 8.5t-21.5 24.5t-10.5 38t-3 48v363q0 19 4 38.5t12.5 35.5t21.5 26t30 10q12 0 28.5 -10t18.5 -28v244zM70 120q0 -14 4 -24t17 -10q14 0 18 12t4 24v336q0 12 -4.5 27.5t-17.5 15.5q-14 0 -17.5 -10
t-3.5 -24v-347zM324 659h-65l-56 134h61z" />
    <glyph glyph-name="Dcroat" unicode="&#x110;" horiz-adv-x="274" 
d="M-2 0v793h115q24 0 39.5 -5.5t24.5 -18.5t12 -34.5t3 -53.5v-569q0 -32 -3 -53.5t-12 -34.5t-24.5 -18.5t-39.5 -5.5h-115zM74 87h27q14 0 16.5 9.5t2.5 24.5v551q0 17 -2.5 25.5t-16.5 8.5h-27v-619zM108 362h-215v76h215v-76z" />
    <glyph glyph-name="Emacron" unicode="&#x112;" horiz-adv-x="248" 
d="M74 706v-267h80v-86h-80v-266h97v-87h-173v793h173v-87h-97zM198 895h-215v76h215v-76z" />
    <glyph glyph-name="emacron" unicode="&#x113;" horiz-adv-x="258" 
d="M94 -3q-45 0 -70.5 30t-25.5 86v360q0 60 25 89t73 29q42 0 68.5 -32t26.5 -85v-206h-117v-152q0 -17 5.5 -30t17.5 -13q14 0 18.5 18.5t4.5 42.5v49h71v-31q0 -32 -4 -60.5t-14.5 -49.5t-29.5 -33t-49 -12zM116 352v122q0 12 -3.5 26.5t-16.5 14.5q-14 0 -18 -13.5
t-4 -27.5v-122h42zM203 716h-215v76h215v-76z" />
    <glyph glyph-name="Ebreve" unicode="&#x114;" horiz-adv-x="248" 
d="M74 706v-267h80v-86h-80v-266h97v-87h-173v793h173v-87h-97zM182 1151v-13q0 -23 -8.5 -39.5t-22 -28t-30.5 -17t-34 -5.5t-34 5.5t-30.5 17t-22 28t-8.5 39.5v13h74q0 -5 0.5 -11t2.5 -12t6 -10t12 -4q16 0 19 13t2 24h74z" />
    <glyph glyph-name="ebreve" unicode="&#x115;" horiz-adv-x="258" 
d="M94 -3q-45 0 -70.5 30t-25.5 86v360q0 60 25 89t73 29q42 0 68.5 -32t26.5 -85v-206h-117v-152q0 -17 5.5 -30t17.5 -13q14 0 18.5 18.5t4.5 42.5v49h71v-31q0 -32 -4 -60.5t-14.5 -49.5t-29.5 -33t-49 -12zM116 352v122q0 12 -3.5 26.5t-16.5 14.5q-14 0 -18 -13.5
t-4 -27.5v-122h42zM189 792v-13q0 -23 -8.5 -39.5t-22 -28t-30.5 -17t-34 -5.5t-34 5.5t-30.5 17t-22 28t-8.5 39.5v13h74q0 -5 0.5 -11t2.5 -12t6 -10t12 -4q16 0 19 13t2 24h74z" />
    <glyph glyph-name="Edotaccent" unicode="&#x116;" horiz-adv-x="248" 
d="M74 706v-267h80v-86h-80v-266h97v-87h-173v793h173v-87h-97zM33 924q0 20 13.5 34t33.5 14t34.5 -14t14.5 -34t-14.5 -33.5t-34.5 -13.5t-33.5 13.5t-13.5 33.5z" />
    <glyph glyph-name="edotaccent" unicode="&#x117;" horiz-adv-x="258" 
d="M94 -3q-45 0 -70.5 30t-25.5 86v360q0 60 25 89t73 29q42 0 68.5 -32t26.5 -85v-206h-117v-152q0 -17 5.5 -30t17.5 -13q14 0 18.5 18.5t4.5 42.5v49h71v-31q0 -32 -4 -60.5t-14.5 -49.5t-29.5 -33t-49 -12zM116 352v122q0 12 -3.5 26.5t-16.5 14.5q-14 0 -18 -13.5
t-4 -27.5v-122h42zM48 745q0 20 13.5 34t33.5 14t34.5 -14t14.5 -34t-14.5 -33.5t-34.5 -13.5t-33.5 13.5t-13.5 33.5z" />
    <glyph glyph-name="Eogonek" unicode="&#x118;" horiz-adv-x="248" 
d="M74 706v-267h80v-86h-80v-266h97v-87h-173v793h173v-87h-97zM171 -111l-24 -8q-19 -8 -39 -8q-11 0 -23 4t-21 13v-1q-11 11 -18 27t-7 34q0 16 7.5 30t19 25t24.5 17.5t25 6.5h28l3 -29q-4 -1 -13 -6.5t-18.5 -13t-16.5 -15.5t-7 -13q0 -12 5 -16.5t13 -4.5q11 0 22.5 4
t22.5 9z" />
    <glyph glyph-name="eogonek" unicode="&#x119;" horiz-adv-x="258" 
d="M94 -3q-45 0 -70.5 30t-25.5 86v360q0 60 25 89t73 29q42 0 68.5 -32t26.5 -85v-206h-117v-152q0 -17 5.5 -30t17.5 -13q14 0 18.5 18.5t4.5 42.5v49h71v-31q0 -32 -4 -60.5t-14.5 -49.5t-29.5 -33t-49 -12zM116 352v122q0 12 -3.5 26.5t-16.5 14.5q-14 0 -18 -13.5
t-4 -27.5v-122h42zM151 -111l-24 -8q-19 -8 -39 -8q-11 0 -23 4t-21 13v-1q-11 11 -18 27t-7 34q0 16 7.5 30t19 25t24.5 17.5t25 6.5h28l3 -29q-4 -1 -13 -6.5t-18.5 -13t-16.5 -15.5t-7 -13q0 -12 5 -16.5t13 -4.5q11 0 22.5 4t22.5 9z" />
    <glyph glyph-name="Ecaron" unicode="&#x11a;" horiz-adv-x="248" 
d="M74 706v-267h80v-86h-80v-266h97v-87h-173v793h173v-87h-97zM180 973l-60 -117h-66l-62 117h54l40 -58l39 58h55z" />
    <glyph glyph-name="ecaron" unicode="&#x11b;" horiz-adv-x="258" 
d="M94 -3q-45 0 -70.5 30t-25.5 86v360q0 60 25 89t73 29q42 0 68.5 -32t26.5 -85v-206h-117v-152q0 -17 5.5 -30t17.5 -13q14 0 18.5 18.5t4.5 42.5v49h71v-31q0 -32 -4 -60.5t-14.5 -49.5t-29.5 -33t-49 -12zM116 352v122q0 12 -3.5 26.5t-16.5 14.5q-14 0 -18 -13.5
t-4 -27.5v-122h42zM191 793l-60 -117h-66l-62 117h54l40 -58l39 58h55z" />
    <glyph glyph-name="Gcircumflex" unicode="&#x11c;" horiz-adv-x="264" 
d="M119 672q0 32 -5 40.5t-20 8.5t-19 -10t-4 -23v-588q0 -14 5.5 -23t18.5 -9q14 0 21 9.5t7 22.5v173h-22v86h91v-359h-46l-6 41q-1 -5 -5 -13.5t-12 -16t-19 -13t-26 -5.5q-38 0 -59.5 21.5t-21.5 72.5v613q0 56 26.5 77t71.5 21q56 0 76.5 -24.5t20.5 -82.5v-176h-73
v157zM133 856l-39 58l-40 -58h-54l62 117h66l60 -117h-55z" />
    <glyph glyph-name="gcircumflex" unicode="&#x11d;" horiz-adv-x="266" 
d="M191 587v-645q0 -57 -25.5 -83.5t-70.5 -26.5q-46 0 -70.5 25t-24.5 85v12h76q0 -12 3 -27t16 -15t17 12t4 25v89q-1 -5 -5 -12.5t-10 -14t-14.5 -11.5t-17.5 -5q-22 0 -35.5 9.5t-21 26t-10 38.5t-2.5 47v358q0 22 4 43t13 37.5t24 26.5t38 10q22 0 38.5 -11.5
t20.5 -39.5l2 47h51zM117 468q0 6 -1 14t-3.5 15.5t-6.5 12.5t-11 5q-13 0 -18 -12t-5 -26v-365q0 -14 4.5 -23.5t17.5 -9.5q7 0 11.5 5t7 11.5t3.5 14t1 13.5v345zM136 675l-39 58l-40 -58h-54l62 117h66l60 -117h-55z" />
    <glyph glyph-name="Gbreve" unicode="&#x11e;" horiz-adv-x="264" 
d="M119 672q0 32 -5 40.5t-20 8.5t-19 -10t-4 -23v-588q0 -14 5.5 -23t18.5 -9q14 0 21 9.5t7 22.5v173h-22v86h91v-359h-46l-6 41q-1 -5 -5 -13.5t-12 -16t-19 -13t-26 -5.5q-38 0 -59.5 21.5t-21.5 72.5v613q0 56 26.5 77t71.5 21q56 0 76.5 -24.5t20.5 -82.5v-176h-73
v157zM189 972v-13q0 -23 -8.5 -39.5t-22 -28t-30.5 -17t-34 -5.5t-34 5.5t-30.5 17t-22 28t-8.5 39.5v13h74q0 -5 0.5 -11t2.5 -12t6 -10t12 -4q16 0 19 13t2 24h74z" />
    <glyph glyph-name="gbreve" unicode="&#x11f;" horiz-adv-x="266" 
d="M191 587v-645q0 -57 -25.5 -83.5t-70.5 -26.5q-46 0 -70.5 25t-24.5 85v12h76q0 -12 3 -27t16 -15t17 12t4 25v89q-1 -5 -5 -12.5t-10 -14t-14.5 -11.5t-17.5 -5q-22 0 -35.5 9.5t-21 26t-10 38.5t-2.5 47v358q0 22 4 43t13 37.5t24 26.5t38 10q22 0 38.5 -11.5
t20.5 -39.5l2 47h51zM117 468q0 6 -1 14t-3.5 15.5t-6.5 12.5t-11 5q-13 0 -18 -12t-5 -26v-365q0 -14 4.5 -23.5t17.5 -9.5q7 0 11.5 5t7 11.5t3.5 14t1 13.5v345zM195 792v-13q0 -23 -8.5 -39.5t-22 -28t-30.5 -17t-34 -5.5t-34 5.5t-30.5 17t-22 28t-8.5 39.5v13h74
q0 -5 0.5 -11t2.5 -12t6 -10t12 -4q16 0 19 13t2 24h74z" />
    <glyph glyph-name="Gdotaccent" unicode="&#x120;" horiz-adv-x="264" 
d="M119 672q0 32 -5 40.5t-20 8.5t-19 -10t-4 -23v-588q0 -14 5.5 -23t18.5 -9q14 0 21 9.5t7 22.5v173h-22v86h91v-359h-46l-6 41q-1 -5 -5 -13.5t-12 -16t-19 -13t-26 -5.5q-38 0 -59.5 21.5t-21.5 72.5v613q0 56 26.5 77t71.5 21q56 0 76.5 -24.5t20.5 -82.5v-176h-73
v157zM45 925q0 20 13.5 34t33.5 14t34.5 -14t14.5 -34t-14.5 -33.5t-34.5 -13.5t-33.5 13.5t-13.5 33.5z" />
    <glyph glyph-name="gdotaccent" unicode="&#x121;" horiz-adv-x="266" 
d="M191 587v-645q0 -57 -25.5 -83.5t-70.5 -26.5q-46 0 -70.5 25t-24.5 85v12h76q0 -12 3 -27t16 -15t17 12t4 25v89q-1 -5 -5 -12.5t-10 -14t-14.5 -11.5t-17.5 -5q-22 0 -35.5 9.5t-21 26t-10 38.5t-2.5 47v358q0 22 4 43t13 37.5t24 26.5t38 10q22 0 38.5 -11.5
t20.5 -39.5l2 47h51zM117 468q0 6 -1 14t-3.5 15.5t-6.5 12.5t-11 5q-13 0 -18 -12t-5 -26v-365q0 -14 4.5 -23.5t17.5 -9.5q7 0 11.5 5t7 11.5t3.5 14t1 13.5v345zM55 745q0 20 13.5 34t33.5 14t34.5 -14t14.5 -34t-14.5 -33.5t-34.5 -13.5t-33.5 13.5t-13.5 33.5z" />
    <glyph glyph-name="Gcommaaccent" unicode="&#x122;" horiz-adv-x="264" 
d="M119 672q0 32 -5 40.5t-20 8.5t-19 -10t-4 -23v-588q0 -14 5.5 -23t18.5 -9q14 0 21 9.5t7 22.5v173h-22v86h91v-359h-46l-6 41q-1 -5 -5 -13.5t-12 -16t-19 -13t-26 -5.5q-38 0 -59.5 21.5t-21.5 72.5v613q0 56 26.5 77t71.5 21q56 0 76.5 -24.5t20.5 -82.5v-176h-73
v157zM131 -170h-59l-9 114h81z" />
    <glyph glyph-name="gcommaaccent" unicode="&#x123;" horiz-adv-x="266" 
d="M191 587v-645q0 -57 -25.5 -83.5t-70.5 -26.5q-46 0 -70.5 25t-24.5 85v12h76q0 -12 3 -27t16 -15t17 12t4 25v89q-1 -5 -5 -12.5t-10 -14t-14.5 -11.5t-17.5 -5q-22 0 -35.5 9.5t-21 26t-10 38.5t-2.5 47v358q0 22 4 43t13 37.5t24 26.5t38 10q22 0 38.5 -11.5
t20.5 -39.5l2 47h51zM117 468q0 6 -1 14t-3.5 15.5t-6.5 12.5t-11 5q-13 0 -18 -12t-5 -26v-365q0 -14 4.5 -23.5t17.5 -9.5q7 0 11.5 5t7 11.5t3.5 14t1 13.5v345zM95 793h61l-56 -134h-65z" />
    <glyph glyph-name="Hcircumflex" unicode="&#x124;" horiz-adv-x="273" 
d="M190 793v-793h-75v353h-42v-353h-75v793h75v-354h42v354h75zM134 856l-39 58l-40 -58h-54l62 117h66l60 -117h-55z" />
    <glyph glyph-name="hcircumflex" unicode="&#x125;" horiz-adv-x="270" 
d="M121 587q19 0 32.5 -9t21.5 -24t12 -35t4 -42v-477h-72v459q0 14 -4 28t-18 14q-8 0 -12.5 -5t-6.5 -12.5t-3 -16t-1 -14.5v-453h-76v793h76v-248q0 5 3.5 12.5t10 14t15 11t18.5 4.5zM136 856l-39 58l-40 -58h-54l62 117h66l60 -117h-55z" />
    <glyph glyph-name="hbar" unicode="&#x127;" horiz-adv-x="270" 
d="M121 587q19 0 32.5 -9t21.5 -24t12 -35t4 -42v-477h-72v459q0 14 -4 28t-18 14q-8 0 -12.5 -5t-6.5 -12.5t-3 -16t-1 -14.5v-453h-76v793h76v-248q0 5 3.5 12.5t10 14t15 11t18.5 4.5zM115 640h-195v86h195v-86z" />
    <glyph glyph-name="Itilde" unicode="&#x128;" horiz-adv-x="168" 
d="M7 0v793h77v-793h-77zM92 851q-14 0 -27 6.5t-24.5 14t-21.5 14t-18 6.5q-10 0 -23.5 -14.5t-21.5 -24.5l-46 56q15 22 27.5 35t24 19.5t21 8t18.5 1.5q12 0 24.5 -6.5t24 -14.5t22.5 -14.5t20 -6.5q3 0 9 3.5t12.5 8t12 9.5t7.5 9l49 -49q-14 -21 -27 -33t-24 -18.5
t-21 -8t-18 -1.5z" />
    <glyph glyph-name="itilde" unicode="&#x129;" horiz-adv-x="151" 
d="M72 0h-75v587h75v-587zM79 671q-14 0 -27 6.5t-24.5 14t-21.5 14t-18 6.5q-10 0 -23.5 -14.5t-21.5 -24.5l-46 56q15 22 27.5 35t24 19.5t21 8t18.5 1.5q12 0 24.5 -6.5t24 -14.5t22.5 -14.5t20 -6.5q3 0 9 3.5t12.5 8t12 9.5t7.5 9l49 -49q-14 -21 -27 -33t-24 -18.5
t-21 -8t-18 -1.5z" />
    <glyph glyph-name="Imacron" unicode="&#x12a;" horiz-adv-x="168" 
d="M7 0v793h77v-793h-77zM154 895h-215v76h215v-76z" />
    <glyph glyph-name="Ibreve" unicode="&#x12c;" horiz-adv-x="168" 
d="M7 0v793h77v-793h-77zM136 972v-13q0 -23 -8.5 -39.5t-22 -28t-30.5 -17t-34 -5.5t-34 5.5t-30.5 17t-22 28t-8.5 39.5v13h74q0 -5 0.5 -11t2.5 -12t6 -10t12 -4q16 0 19 13t2 24h74z" />
    <glyph glyph-name="ibreve" unicode="&#x12d;" horiz-adv-x="151" 
d="M72 0h-75v587h75v-587zM128 793v-13q0 -23 -8.5 -39.5t-22 -28t-30.5 -17t-34 -5.5t-34 5.5t-30.5 17t-22 28t-8.5 39.5v13h74q0 -5 0.5 -11t2.5 -12t6 -10t12 -4q16 0 19 13t2 24h74z" />
    <glyph glyph-name="Iogonek" unicode="&#x12e;" horiz-adv-x="168" 
d="M7 0v793h77v-793h-77zM90 -112l-24 -8q-19 -8 -39 -8q-11 0 -23 4t-21 13v-1q-11 11 -18 27t-7 34q0 16 7.5 30t19 25t24.5 17.5t25 6.5h28l3 -29q-4 -1 -13 -6.5t-18.5 -13t-16.5 -15.5t-7 -13q0 -12 5 -16.5t13 -4.5q11 0 22.5 4t22.5 9z" />
    <glyph glyph-name="iogonek" unicode="&#x12f;" horiz-adv-x="151" 
d="M86 -111l-24 -8q-19 -8 -39 -8q-11 0 -23 4t-21 13v-1q-11 11 -18 27t-7 34q0 16 7.5 30t19 25t24.5 17.5t25 6.5h28l3 -29q-4 -1 -13 -6.5t-18.5 -13t-16.5 -15.5t-7 -13q0 -12 5 -16.5t13 -4.5q11 0 22.5 4t22.5 9zM72 0h-75v587h75v-587zM72 644h-75v89h75v-89z" />
    <glyph glyph-name="Idotaccent" unicode="&#x130;" horiz-adv-x="168" 
d="M7 0v793h77v-793h-77zM-7 924q0 20 13.5 34t33.5 14t34.5 -14t14.5 -34t-14.5 -33.5t-34.5 -13.5t-33.5 13.5t-13.5 33.5z" />
    <glyph glyph-name="dotlessi" unicode="&#x131;" horiz-adv-x="151" 
d="M72 0h-75v587h75v-587z" />
    <glyph glyph-name="ij" unicode="&#x133;" horiz-adv-x="284" 
d="M72 0h-75v587h75v-587zM72 644h-75v89h75v-89zM68 -169v90q26 0 41 9t15 48v608h76v-615q0 -39 -8.5 -66t-23.5 -43.5t-34.5 -23.5t-41.5 -7h-24zM199 644h-75v89h75v-89z" />
    <glyph glyph-name="Jcircumflex" unicode="&#x134;" horiz-adv-x="273" 
d="M98 -8q-24 0 -43 4.5t-32.5 16.5t-20.5 34t-7 57v144h75v-123q0 -20 1.5 -31.5t5 -17t8.5 -7t12 -1.5q14 0 19 10.5t5 23.5v691h77v-701q0 -58 -27.5 -79t-72.5 -21zM194 856l-39 58l-40 -58h-54l62 117h66l60 -117h-55z" />
    <glyph glyph-name="jcircumflex" unicode="&#x135;" horiz-adv-x="160" 
d="M-53 -169v97q13 0 23.5 0.5t17.5 5t11 14.5t4 30v608h76v-625q0 -39 -8.5 -64t-23.5 -40t-34.5 -20.5t-41.5 -5.5h-24zM80 676l-39 58l-40 -58h-54l62 117h66l60 -117h-55z" />
    <glyph glyph-name="Kcommaaccent" unicode="&#x136;" horiz-adv-x="274" 
d="M112 396l105 -396h-79l-67 287v-287h-73v793h73v-287l67 287h79zM126 -483h-59l-9 114h81z" />
    <glyph glyph-name="kcommaaccent" unicode="&#x137;" 
d="M100 301l117 -301h-81l-62 195v-195h-75v793h75v-382l62 176h80zM135 -170h-59l-9 114h81z" />
    <glyph glyph-name="Lacute" unicode="&#x139;" horiz-adv-x="249" 
d="M-2 0v793h76v-706h104v-87h-180zM50 877h-69l70 94h72z" />
    <glyph glyph-name="lacute" unicode="&#x13a;" horiz-adv-x="148" 
d="M72 0h-75v793h75v-793zM32 877h-69l70 94h72z" />
    <glyph glyph-name="Lcommaaccent" unicode="&#x13b;" horiz-adv-x="249" 
d="M-2 0v793h76v-706h104v-87h-180zM114 -483h-59l-9 114h81z" />
    <glyph glyph-name="lcommaaccent" unicode="&#x13c;" horiz-adv-x="148" 
d="M72 0h-75v793h75v-793zM63 -170h-59l-9 114h81z" />
    <glyph glyph-name="Lcaron" unicode="&#x13d;" horiz-adv-x="249" 
d="M-2 0v793h76v-706h104v-87h-180zM83 839h-65l-56 134h61z" />
    <glyph glyph-name="lcaron" unicode="&#x13e;" horiz-adv-x="289" 
d="M72 0h-75v793h75v-793zM226 659h-65l-56 134h61z" />
    <glyph glyph-name="Ldot" unicode="&#x13f;" horiz-adv-x="249" 
d="M-2 0v793h76v-706h104v-87h-180zM203 402h-76v91h76v-91z" />
    <glyph glyph-name="ldot" unicode="&#x140;" horiz-adv-x="270" 
d="M72 0h-75v793h75v-793zM206 495h-76v91h76v-91z" />
    <glyph glyph-name="Lslash" unicode="&#x141;" horiz-adv-x="249" 
d="M151 450l-235 -170v86l235 170v-86zM-2 0v793h76v-706h104v-87h-180z" />
    <glyph glyph-name="lslash" unicode="&#x142;" horiz-adv-x="148" 
d="M151 450l-235 -170v86l235 170v-86zM72 0h-75v793h75v-793z" />
    <glyph glyph-name="Nacute" unicode="&#x143;" horiz-adv-x="312" 
d="M230 0h-77l-78 450v-450h-77v793h75l69 -415l11 -86v501h77v-793zM144 877h-69l70 94h72z" />
    <glyph glyph-name="nacute" unicode="&#x144;" 
d="M111 590q20 0 34.5 -9.5t24.5 -25.5t14.5 -37t4.5 -43v-475h-72v476q0 14 -5 24.5t-16 10.5q-14 0 -18 -13.5t-4 -24.5v-473h-76v587h50l3 -45q7 17 22 32.5t38 15.5zM99 699h-69l70 94h72z" />
    <glyph glyph-name="Ncommaaccent" unicode="&#x145;" horiz-adv-x="312" 
d="M230 0h-77l-78 450v-450h-77v793h75l69 -415l11 -86v501h77v-793zM157 -170h-59l-9 114h81z" />
    <glyph glyph-name="ncommaaccent" unicode="&#x146;" 
d="M111 590q20 0 34.5 -9.5t24.5 -25.5t14.5 -37t4.5 -43v-475h-72v476q0 14 -5 24.5t-16 10.5q-14 0 -18 -13.5t-4 -24.5v-473h-76v587h50l3 -45q7 17 22 32.5t38 15.5zM125 -170h-59l-9 114h81z" />
    <glyph glyph-name="Ncaron" unicode="&#x147;" horiz-adv-x="312" 
d="M230 0h-77l-78 450v-450h-77v793h75l69 -415l11 -86v501h77v-793zM225 973l-60 -117h-66l-62 117h54l40 -58l39 58h55z" />
    <glyph glyph-name="ncaron" unicode="&#x148;" 
d="M111 590q20 0 34.5 -9.5t24.5 -25.5t14.5 -37t4.5 -43v-475h-72v476q0 14 -5 24.5t-16 10.5q-14 0 -18 -13.5t-4 -24.5v-473h-76v587h50l3 -45q7 17 22 32.5t38 15.5zM189 793l-60 -117h-66l-62 117h54l40 -58l39 58h55z" />
    <glyph glyph-name="napostrophe" unicode="&#x149;" 
d="M111 590q20 0 34.5 -9.5t24.5 -25.5t14.5 -37t4.5 -43v-475h-72v476q0 14 -5 24.5t-16 10.5q-14 0 -18 -13.5t-4 -24.5v-473h-76v587h50l3 -45q7 17 22 32.5t38 15.5zM14 678h-59l-9 114h81z" />
    <glyph glyph-name="Omacron" unicode="&#x14c;" horiz-adv-x="270" 
d="M192 133q0 -36 -2.5 -62.5t-12.5 -44t-29.5 -26t-53.5 -8.5q-46 0 -71.5 19t-25.5 75v612q0 57 24 78.5t74 21.5q55 0 76 -23t21 -80v-562zM120 677q0 28 -5 36t-19 8q-24 0 -24 -31v-587q0 -19 5.5 -26.5t17.5 -7.5q14 0 19.5 5.5t5.5 29.5v573zM209 895h-215v76h215
v-76z" />
    <glyph glyph-name="omacron" unicode="&#x14d;" 
d="M93 -4q-45 0 -70 31t-25 87v359q0 118 97 118q44 0 69 -32t25 -86v-359q0 -53 -27 -85.5t-69 -32.5zM94 515q-14 0 -18 -14t-4 -27v-361q0 -12 4.5 -26.5t16.5 -14.5q14 0 18 14t4 27l-2 361q0 12 -3 26.5t-16 14.5zM203 717h-215v76h215v-76z" />
    <glyph glyph-name="Obreve" unicode="&#x14e;" horiz-adv-x="270" 
d="M192 133q0 -36 -2.5 -62.5t-12.5 -44t-29.5 -26t-53.5 -8.5q-46 0 -71.5 19t-25.5 75v612q0 57 24 78.5t74 21.5q55 0 76 -23t21 -80v-562zM120 677q0 28 -5 36t-19 8q-24 0 -24 -31v-587q0 -19 5.5 -26.5t17.5 -7.5q14 0 19.5 5.5t5.5 29.5v573zM192 972v-13
q0 -23 -8.5 -39.5t-22 -28t-30.5 -17t-34 -5.5t-34 5.5t-30.5 17t-22 28t-8.5 39.5v13h74q0 -5 0.5 -11t2.5 -12t6 -10t12 -4q16 0 19 13t2 24h74z" />
    <glyph glyph-name="obreve" unicode="&#x14f;" 
d="M93 -4q-45 0 -70 31t-25 87v359q0 118 97 118q44 0 69 -32t25 -86v-359q0 -53 -27 -85.5t-69 -32.5zM94 515q-14 0 -18 -14t-4 -27v-361q0 -12 4.5 -26.5t16.5 -14.5q14 0 18 14t4 27l-2 361q0 12 -3 26.5t-16 14.5zM187 793v-13q0 -23 -8.5 -39.5t-22 -28t-30.5 -17
t-34 -5.5t-34 5.5t-30.5 17t-22 28t-8.5 39.5v13h74q0 -5 0.5 -11t2.5 -12t6 -10t12 -4q16 0 19 13t2 24h74z" />
    <glyph glyph-name="OE" unicode="&#x152;" horiz-adv-x="412" 
d="M209 439h89v-86h-89v-266h113v-87h-190q-31 0 -55.5 4t-42 16.5t-26.5 36.5t-9 64v551q0 40 9 64t26.5 36.5t42 16.5t55.5 4h190v-87h-113v-267zM132 662q0 23 -6 33.5t-23 10.5q-16 0 -22 -9.5t-6 -34.5v-531q0 -25 4.5 -34.5t23.5 -9.5q17 0 23 11.5t6 32.5v531z" />
    <glyph glyph-name="oe" unicode="&#x153;" horiz-adv-x="412" 
d="M91 -4q-45 0 -69 31t-24 87v359q0 118 95 118q44 0 68 -32t24 -86v-359q0 -53 -26 -85.5t-68 -32.5zM93 505q-14 0 -17.5 -14t-3.5 -27v-341q0 -12 3.5 -26.5t15.5 -14.5q14 0 17 14t3 27v341q0 12 -2.5 26.5t-15.5 14.5zM230 -3q-45 0 -69 30t-24 86v360q0 118 95 118
q42 0 67 -32t25 -85v-226h-111v-122q0 -17 4 -30t16 -13q7 0 11 6.5t6 16t2.5 22t0.5 24.5v31h71v-31q0 -32 -3.5 -60.5t-13.5 -49.5t-28.5 -33t-48.5 -12zM249 332v132q0 12 -2 26.5t-15 14.5q-14 0 -16.5 -13.5t-2.5 -27.5v-132h36z" />
    <glyph glyph-name="Racute" unicode="&#x154;" horiz-adv-x="273" 
d="M187 446q0 -27 -4 -43t-9 -24.5t-10 -11.5t-7 -4l41 -363h-71l-34 353h-19v-353h-76v793h106q25 0 41.5 -4.5t25.5 -16t12.5 -32t3.5 -52.5v-242zM92 439q15 0 19 8t4 27v198q0 16 -3.5 25t-17.5 9h-20v-267h18zM91 877h-69l70 94h72z" />
    <glyph glyph-name="racute" unicode="&#x155;" horiz-adv-x="206" 
d="M146 495h-4q-2 0 -5 0.5t-6 0.5q-8 0 -17.5 -2t-18 -9t-14.5 -20t-6 -34v-431h-75v587h47l4 -43q8 15 19.5 24t23.5 14.5t23 7.5t19 2h10v-97zM77 699h-69l70 94h72z" />
    <glyph glyph-name="Rcommaaccent" unicode="&#x156;" horiz-adv-x="273" 
d="M187 446q0 -27 -4 -43t-9 -24.5t-10 -11.5t-7 -4l41 -363h-71l-34 353h-19v-353h-76v793h106q25 0 41.5 -4.5t25.5 -16t12.5 -32t3.5 -52.5v-242zM92 439q15 0 19 8t4 27v198q0 16 -3.5 25t-17.5 9h-20v-267h18zM131 -170h-59l-9 114h81z" />
    <glyph glyph-name="rcommaaccent" unicode="&#x157;" horiz-adv-x="206" 
d="M146 495h-4q-2 0 -5 0.5t-6 0.5q-8 0 -17.5 -2t-18 -9t-14.5 -20t-6 -34v-431h-75v587h47l4 -43q8 15 19.5 24t23.5 14.5t23 7.5t19 2h10v-97zM63 -170h-59l-9 114h81z" />
    <glyph glyph-name="Rcaron" unicode="&#x158;" horiz-adv-x="273" 
d="M187 446q0 -27 -4 -43t-9 -24.5t-10 -11.5t-7 -4l41 -363h-71l-34 353h-19v-353h-76v793h106q25 0 41.5 -4.5t25.5 -16t12.5 -32t3.5 -52.5v-242zM92 439q15 0 19 8t4 27v198q0 16 -3.5 25t-17.5 9h-20v-267h18zM190 973l-60 -117h-66l-62 117h54l40 -58l39 58h55z" />
    <glyph glyph-name="rcaron" unicode="&#x159;" horiz-adv-x="206" 
d="M146 495h-4q-2 0 -5 0.5t-6 0.5q-8 0 -17.5 -2t-18 -9t-14.5 -20t-6 -34v-431h-75v587h47l4 -43q8 15 19.5 24t23.5 14.5t23 7.5t19 2h10v-97zM159 793l-60 -117h-66l-62 117h54l40 -58l39 58h55z" />
    <glyph glyph-name="Sacute" unicode="&#x15a;" horiz-adv-x="254" 
d="M123 672q0 30 -5 39.5t-21 9.5q-13 0 -19.5 -7t-6.5 -28q0 -77 18.5 -147t41 -137.5t41 -134.5t18.5 -139q0 -24 -2.5 -48t-12 -43.5t-28.5 -32t-52 -12.5q-50 0 -74 27.5t-24 90.5v138h73v-127q0 -28 5 -40t19 -12q17 0 20.5 16.5t3.5 35.5q0 47 -9 90t-22 85.5t-29 85
t-29 88.5t-22 96.5t-9 108.5q0 65 23 94t76 29t73.5 -30t20.5 -87v-136h-68v127zM97 877h-69l70 94h72z" />
    <glyph glyph-name="sacute" unicode="&#x15b;" horiz-adv-x="257" 
d="M98 -4q-48 0 -72.5 33.5t-24.5 92.5v58h75v-48q0 -25 5 -44.5t18 -19.5q6 0 10 5t6 11.5t3 14t1 13.5q0 35 -8.5 63.5t-21.5 54.5t-27.5 51.5t-27.5 53.5t-21.5 61t-8.5 74q0 19 5 40.5t17 39.5t31.5 29.5t48.5 11.5q25 0 43 -10t28.5 -28t15.5 -42.5t5 -52.5v-52h-74v45
q0 35 -4.5 51t-17.5 16q-14 0 -18 -15.5t-4 -27.5q0 -51 18 -91.5t39 -79.5t39 -83t18 -103q0 -21 -4.5 -42.5t-15.5 -39t-29.5 -29t-46.5 -11.5zM101 698h-69l70 94h72z" />
    <glyph glyph-name="Scircumflex" unicode="&#x15c;" horiz-adv-x="254" 
d="M123 672q0 30 -5 39.5t-21 9.5q-13 0 -19.5 -7t-6.5 -28q0 -77 18.5 -147t41 -137.5t41 -134.5t18.5 -139q0 -24 -2.5 -48t-12 -43.5t-28.5 -32t-52 -12.5q-50 0 -74 27.5t-24 90.5v138h73v-127q0 -28 5 -40t19 -12q17 0 20.5 16.5t3.5 35.5q0 47 -9 90t-22 85.5t-29 85
t-29 88.5t-22 96.5t-9 108.5q0 65 23 94t76 29t73.5 -30t20.5 -87v-136h-68v127zM138 856l-39 58l-40 -58h-54l62 117h66l60 -117h-55z" />
    <glyph glyph-name="scircumflex" unicode="&#x15d;" horiz-adv-x="257" 
d="M98 -4q-48 0 -72.5 33.5t-24.5 92.5v58h75v-48q0 -25 5 -44.5t18 -19.5q6 0 10 5t6 11.5t3 14t1 13.5q0 35 -8.5 63.5t-21.5 54.5t-27.5 51.5t-27.5 53.5t-21.5 61t-8.5 74q0 19 5 40.5t17 39.5t31.5 29.5t48.5 11.5q25 0 43 -10t28.5 -28t15.5 -42.5t5 -52.5v-52h-74v45
q0 35 -4.5 51t-17.5 16q-14 0 -18 -15.5t-4 -27.5q0 -51 18 -91.5t39 -79.5t39 -83t18 -103q0 -21 -4.5 -42.5t-15.5 -39t-29.5 -29t-46.5 -11.5zM139 676l-39 58l-40 -58h-54l62 117h66l60 -117h-55z" />
    <glyph glyph-name="Scedilla" unicode="&#x15e;" horiz-adv-x="254" 
d="M123 672q0 30 -5 39.5t-21 9.5q-13 0 -19.5 -7t-6.5 -28q0 -77 18.5 -147t41 -137.5t41 -134.5t18.5 -139q0 -24 -2.5 -48t-12 -43.5t-28.5 -32t-52 -12.5q-50 0 -74 27.5t-24 90.5v138h73v-127q0 -28 5 -40t19 -12q17 0 20.5 16.5t3.5 35.5q0 47 -9 90t-22 85.5t-29 85
t-29 88.5t-22 96.5t-9 108.5q0 65 23 94t76 29t73.5 -30t20.5 -87v-136h-68v127zM77 -8q0 13 7.5 19t17.5 6t17.5 -6.5t9.5 -17.5q18 -3 34 -19.5t16 -41.5q0 -17 -6.5 -29t-17 -19.5t-23 -11t-23.5 -3.5q-26 0 -54 10l7 47q13 -3 25.5 -6t25.5 -3q5 0 13 2.5t8 10.5
t-15.5 10t-29.5 2h-14z" />
    <glyph glyph-name="scedilla" unicode="&#x15f;" horiz-adv-x="257" 
d="M98 -4q-48 0 -72.5 33.5t-24.5 92.5v58h75v-48q0 -25 5 -44.5t18 -19.5q6 0 10 5t6 11.5t3 14t1 13.5q0 35 -8.5 63.5t-21.5 54.5t-27.5 51.5t-27.5 53.5t-21.5 61t-8.5 74q0 19 5 40.5t17 39.5t31.5 29.5t48.5 11.5q25 0 43 -10t28.5 -28t15.5 -42.5t5 -52.5v-52h-74v45
q0 35 -4.5 51t-17.5 16q-14 0 -18 -15.5t-4 -27.5q0 -51 18 -91.5t39 -79.5t39 -83t18 -103q0 -21 -4.5 -42.5t-15.5 -39t-29.5 -29t-46.5 -11.5zM64 -7q0 13 7.5 19t17.5 6t17.5 -6.5t9.5 -17.5q18 -3 34 -19.5t16 -41.5q0 -17 -6.5 -29t-17 -19.5t-23 -11t-23.5 -3.5
q-26 0 -54 10l7 47q13 -3 25.5 -6t25.5 -3q5 0 13 2.5t8 10.5t-15.5 10t-29.5 2h-14z" />
    <glyph glyph-name="Scaron" unicode="&#x160;" horiz-adv-x="254" 
d="M123 672q0 30 -5 39.5t-21 9.5q-13 0 -19.5 -7t-6.5 -28q0 -77 18.5 -147t41 -137.5t41 -134.5t18.5 -139q0 -24 -2.5 -48t-12 -43.5t-28.5 -32t-52 -12.5q-50 0 -74 27.5t-24 90.5v138h73v-127q0 -28 5 -40t19 -12q17 0 20.5 16.5t3.5 35.5q0 47 -9 90t-22 85.5t-29 85
t-29 88.5t-22 96.5t-9 108.5q0 65 23 94t76 29t73.5 -30t20.5 -87v-136h-68v127zM191 973l-60 -117h-66l-62 117h54l40 -58l39 58h55z" />
    <glyph glyph-name="scaron" unicode="&#x161;" horiz-adv-x="254" 
d="M96 -4q-48 0 -72.5 33.5t-24.5 92.5v58h75v-48q0 -25 5 -44.5t18 -19.5q6 0 10 5t6 11.5t3 14t1 13.5q0 35 -8.5 63.5t-21.5 54.5t-27.5 51.5t-27.5 53.5t-21.5 61t-8.5 74q0 19 5 40.5t17 39.5t31.5 29.5t48.5 11.5q25 0 43 -10t28.5 -28t15.5 -42.5t5 -52.5v-52h-74v45
q0 35 -4.5 51t-17.5 16q-14 0 -18 -15.5t-4 -27.5q0 -51 18 -91.5t39 -79.5t39 -83t18 -103q0 -21 -4.5 -42.5t-15.5 -39t-29.5 -29t-46.5 -11.5zM191 793l-60 -117h-66l-62 117h54l40 -58l39 58h55z" />
    <glyph glyph-name="Tcommaaccent" unicode="&#x162;" horiz-adv-x="245" 
d="M187 706h-56v-706h-77v706h-56v87h189v-87zM121 -170h-59l-9 114h81z" />
    <glyph glyph-name="tcommaaccent" unicode="&#x163;" horiz-adv-x="244" 
d="M161 501h-45v-501h-75v501h-48v86h48v146h75v-146h45v-86zM105 -170h-59l-9 114h81z" />
    <glyph glyph-name="Tcaron" unicode="&#x164;" horiz-adv-x="245" 
d="M187 706h-56v-706h-77v706h-56v87h189v-87zM185 973l-60 -117h-66l-62 117h54l40 -58l39 58h55z" />
    <glyph glyph-name="tcaron" unicode="&#x165;" horiz-adv-x="385" 
d="M161 501h-45v-501h-75v501h-48v86h48v146h75v-146h45v-86zM348 659h-65l-56 134h61z" />
    <glyph glyph-name="tbar" unicode="&#x167;" horiz-adv-x="244" 
d="M161 501h-45v-501h-75v501h-48v86h48v146h75v-146h45v-86zM144 301h-172v85h172v-85z" />
    <glyph glyph-name="Utilde" unicode="&#x168;" horiz-adv-x="272" 
d="M95 -8q-45 0 -71 22t-26 79v700h75v-690q0 -20 5.5 -27.5t17.5 -7.5q14 0 18.5 9.5t4.5 25.5v690h75v-700q0 -58 -27 -79.5t-72 -21.5zM144 851q-14 0 -27 6.5t-24.5 14t-21.5 14t-18 6.5q-10 0 -23.5 -14.5t-21.5 -24.5l-46 56q15 22 27.5 35t24 19.5t21 8t18.5 1.5
q12 0 24.5 -6.5t24 -14.5t22.5 -14.5t20 -6.5q3 0 9 3.5t12.5 8t12 9.5t7.5 9l49 -49q-14 -21 -27 -33t-24 -18.5t-21 -8t-18 -1.5z" />
    <glyph glyph-name="utilde" unicode="&#x169;" horiz-adv-x="267" 
d="M190 0h-46l-7 48q-2 -8 -7 -17.5t-12 -17.5t-16.5 -13t-21.5 -5q-25 0 -41 9.5t-25 25.5t-12.5 38t-3.5 46v473h74v-477q0 -14 5 -24t19 -10q10 0 15.5 11t5.5 30v470h73v-587zM139 672q-14 0 -27 6.5t-24.5 14t-21.5 14t-18 6.5q-10 0 -23.5 -14.5t-21.5 -24.5l-46 56
q15 22 27.5 35t24 19.5t21 8t18.5 1.5q12 0 24.5 -6.5t24 -14.5t22.5 -14.5t20 -6.5q3 0 9 3.5t12.5 8t12 9.5t7.5 9l49 -49q-14 -21 -27 -33t-24 -18.5t-21 -8t-18 -1.5z" />
    <glyph glyph-name="Umacron" unicode="&#x16a;" horiz-adv-x="272" 
d="M95 -8q-45 0 -71 22t-26 79v700h75v-690q0 -20 5.5 -27.5t17.5 -7.5q14 0 18.5 9.5t4.5 25.5v690h75v-700q0 -58 -27 -79.5t-72 -21.5zM202 895h-215v76h215v-76z" />
    <glyph glyph-name="umacron" unicode="&#x16b;" horiz-adv-x="267" 
d="M190 0h-46l-7 48q-2 -8 -7 -17.5t-12 -17.5t-16.5 -13t-21.5 -5q-25 0 -41 9.5t-25 25.5t-12.5 38t-3.5 46v473h74v-477q0 -14 5 -24t19 -10q10 0 15.5 11t5.5 30v470h73v-587zM201 717h-215v76h215v-76z" />
    <glyph glyph-name="Ubreve" unicode="&#x16c;" horiz-adv-x="272" 
d="M95 -8q-45 0 -71 22t-26 79v700h75v-690q0 -20 5.5 -27.5t17.5 -7.5q14 0 18.5 9.5t4.5 25.5v690h75v-700q0 -58 -27 -79.5t-72 -21.5zM190 972v-13q0 -23 -8.5 -39.5t-22 -28t-30.5 -17t-34 -5.5t-34 5.5t-30.5 17t-22 28t-8.5 39.5v13h74q0 -5 0.5 -11t2.5 -12t6 -10
t12 -4q16 0 19 13t2 24h74z" />
    <glyph glyph-name="ubreve" unicode="&#x16d;" horiz-adv-x="267" 
d="M190 0h-46l-7 48q-2 -8 -7 -17.5t-12 -17.5t-16.5 -13t-21.5 -5q-25 0 -41 9.5t-25 25.5t-12.5 38t-3.5 46v473h74v-477q0 -14 5 -24t19 -10q10 0 15.5 11t5.5 30v470h73v-587zM192 793v-13q0 -23 -8.5 -39.5t-22 -28t-30.5 -17t-34 -5.5t-34 5.5t-30.5 17t-22 28
t-8.5 39.5v13h74q0 -5 0.5 -11t2.5 -12t6 -10t12 -4q16 0 19 13t2 24h74z" />
    <glyph glyph-name="Uring" unicode="&#x16e;" horiz-adv-x="272" 
d="M95 -8q-45 0 -71 22t-26 79v700h75v-690q0 -20 5.5 -27.5t17.5 -7.5q14 0 18.5 9.5t4.5 25.5v690h75v-700q0 -58 -27 -79.5t-72 -21.5zM25 902q0 29 20.5 50t49.5 21t50 -21t21 -50t-21 -49.5t-50 -20.5t-49.5 20.5t-20.5 49.5zM75 903q0 -8 5.5 -13.5t13.5 -5.5
t13.5 5.5t5.5 13.5t-5.5 13.5t-13.5 5.5t-13.5 -5.5t-5.5 -13.5z" />
    <glyph glyph-name="uring" unicode="&#x16f;" horiz-adv-x="267" 
d="M190 0h-46l-7 48q-2 -8 -7 -17.5t-12 -17.5t-16.5 -13t-21.5 -5q-25 0 -41 9.5t-25 25.5t-12.5 38t-3.5 46v473h74v-477q0 -14 5 -24t19 -10q10 0 15.5 11t5.5 30v470h73v-587zM26 722q0 29 20.5 50t49.5 21t50 -21t21 -50t-21 -49.5t-50 -20.5t-49.5 20.5t-20.5 49.5z
M76 723q0 -8 5.5 -13.5t13.5 -5.5t13.5 5.5t5.5 13.5t-5.5 13.5t-13.5 5.5t-13.5 -5.5t-5.5 -13.5z" />
    <glyph glyph-name="Uogonek" unicode="&#x172;" horiz-adv-x="272" 
d="M95 -8q-45 0 -71 22t-26 79v700h75v-690q0 -20 5.5 -27.5t17.5 -7.5q14 0 18.5 9.5t4.5 25.5v690h75v-700q0 -58 -27 -79.5t-72 -21.5zM161 -111l-24 -8q-19 -8 -39 -8q-11 0 -23 4t-21 13v-1q-11 11 -18 27t-7 34q0 16 7.5 30t19 25t24.5 17.5t25 6.5h28l3 -29
q-4 -1 -13 -6.5t-18.5 -13t-16.5 -15.5t-7 -13q0 -12 5 -16.5t13 -4.5q11 0 22.5 4t22.5 9z" />
    <glyph glyph-name="uogonek" unicode="&#x173;" horiz-adv-x="267" 
d="M190 0h-46l-7 48q-2 -8 -7 -17.5t-12 -17.5t-16.5 -13t-21.5 -5q-25 0 -41 9.5t-25 25.5t-12.5 38t-3.5 46v473h74v-477q0 -14 5 -24t19 -10q10 0 15.5 11t5.5 30v470h73v-587zM208 -83l-24 -8q-19 -8 -39 -8q-11 0 -23 4t-21 13v-1q-11 11 -18 27t-7 34q0 16 7.5 30
t19 25t24.5 17.5t25 6.5h28l3 -29q-4 -1 -13 -6.5t-18.5 -13t-16.5 -15.5t-7 -13q0 -12 5 -16.5t13 -4.5q11 0 22.5 4t22.5 9z" />
    <glyph glyph-name="Wcircumflex" unicode="&#x174;" horiz-adv-x="389" 
d="M326 793l-47 -793h-75l-38 381l-5 92l-5 -93l-39 -380h-75l-48 793h78l14 -403l4 -95l4 93l34 405h64l26 -406l5 -92l4 97l22 401h77zM199 856l-39 58l-40 -58h-54l62 117h66l60 -117h-55z" />
    <glyph glyph-name="wcircumflex" unicode="&#x175;" horiz-adv-x="332" 
d="M278 587l-40 -587h-68l-29 264l-4 71l-4 -70l-30 -265h-67l-41 587h67l16 -330l2 -68l5 69l29 329h46l30 -331l4 -66l2 66l15 331h67zM177 676l-39 58l-40 -58h-54l62 117h66l60 -117h-55z" />
    <glyph glyph-name="Ycircumflex" unicode="&#x176;" horiz-adv-x="270" 
d="M222 793l-76 -438v-355h-71v355l-79 438h75l39 -276l37 276h75zM149 856l-39 58l-40 -58h-54l62 117h66l60 -117h-55z" />
    <glyph glyph-name="ycircumflex" unicode="&#x177;" horiz-adv-x="256" 
d="M-8 -169v97h32q10 0 17.5 9t12 22.5t6.5 27.5t2 25l-63 575h77l21 -296l4 -80l4 80l21 296h76l-64 -575q-4 -34 -10 -66.5t-18 -58t-32.5 -41t-53.5 -15.5h-32zM141 676l-39 58l-40 -58h-54l62 117h66l60 -117h-55z" />
    <glyph glyph-name="Ydieresis" unicode="&#x178;" horiz-adv-x="270" 
d="M222 793l-76 -438v-355h-71v355l-79 438h75l39 -276l37 276h75zM82 881h-75v91h75v-91zM207 881h-76v91h76v-91z" />
    <glyph glyph-name="Zacute" unicode="&#x179;" horiz-adv-x="256" 
d="M-2 0v73l109 633h-109v87h189v-73l-109 -633h109v-87h-189zM98 877h-69l70 94h72z" />
    <glyph glyph-name="zacute" unicode="&#x17a;" horiz-adv-x="259" 
d="M-2 0v55v19l100 427h-100v86h183v-73l-101 -428h101v-86h-183zM101 699h-69l70 94h72z" />
    <glyph glyph-name="Zdotaccent" unicode="&#x17b;" horiz-adv-x="256" 
d="M-2 0v73l109 633h-109v87h189v-73l-109 -633h109v-87h-189zM59 922q0 20 13.5 34t33.5 14t34.5 -14t14.5 -34t-14.5 -33.5t-34.5 -13.5t-33.5 13.5t-13.5 33.5z" />
    <glyph glyph-name="zdotaccent" unicode="&#x17c;" horiz-adv-x="259" 
d="M-2 0v55v19l100 427h-100v86h183v-73l-101 -428h101v-86h-183zM53 745q0 20 13.5 34t33.5 14t34.5 -14t14.5 -34t-14.5 -33.5t-34.5 -13.5t-33.5 13.5t-13.5 33.5z" />
    <glyph glyph-name="Zcaron" unicode="&#x17d;" horiz-adv-x="256" 
d="M-2 0v73l109 633h-109v87h189v-73l-109 -633h109v-87h-189zM192 973l-60 -117h-66l-62 117h54l40 -58l39 58h55z" />
    <glyph glyph-name="zcaron" unicode="&#x17e;" horiz-adv-x="259" 
d="M-2 0v55v19l100 427h-100v86h183v-73l-101 -428h101v-86h-183zM190 793l-60 -117h-66l-62 117h54l40 -58l39 58h55z" />
    <glyph glyph-name="AEacute" unicode="&#x1fc;" horiz-adv-x="472" 
d="M252 706v-267h114v-86h-114v-266h114v-87h-190v265h-58q-11 -67 -23.5 -133t-24.5 -132h-80l144 793h232v-87h-114zM176 352q0 61 -1 129t-1 129l-40 -258h42zM224 877h-69l70 94h72z" />
    <glyph glyph-name="aeacute" unicode="&#x1fd;" horiz-adv-x="415" 
d="M236 -3q-48 0 -73 36q-7 -13 -24 -25.5t-58 -12.5q-48 0 -65.5 29t-17.5 86v135q0 56 17.5 85.5t38.5 43.5t38.5 20t17.5 15t1.5 25.5t0.5 32t-5 27t-15 11.5q-15 0 -17.5 -25t-3.5 -56h-73q0 26 3.5 55.5t13 54t28 41t48.5 16.5q46 0 71 -35q23 35 76 35q42 0 67 -32
t25 -85v-226h-111v-122q0 -17 4 -30t16 -13q7 0 11 6.5t6 16t2.5 22t0.5 24.5v31h71v-31q0 -32 -3.5 -60.5t-13.5 -49.5t-28.5 -33t-48.5 -12zM110 311q-1 -3 -7 -6.5t-13.5 -8.5t-13.5 -12.5t-6 -19.5v-144q0 -14 4 -24t17 -10q7 0 10.5 5t5.5 12.5t2.5 15.5t0.5 14v178z
M255 332v132q0 12 -2 26.5t-15 14.5q-14 0 -16.5 -13.5t-2.5 -27.5v-132h36zM164 699h-69l70 94h72z" />
    <glyph glyph-name="Oslashacute" unicode="&#x1fe;" horiz-adv-x="270" 
d="M192 695q0 57 -21 80t-76 23q-50 0 -74 -21.5t-24 -78.5v-612q0 -56 25.5 -75t71.5 -19q34 0 53.5 8.5t29.5 26t12.5 44t2.5 62.5v562zM120 677q0 28 -5 36t-19 8q-24 0 -24 -31v-587q0 -19 5.5 -26.5t17.5 -7.5q14 0 19.5 5.5t5.5 29.5v573zM271 793l-210 -793h-81
l211 793h80zM94 877h-69l70 94h72z" />
    <glyph glyph-name="oslashacute" unicode="&#x1ff;" 
d="M258 587l-250 -587h-81l251 587h80zM93 -4q-45 0 -70 31t-25 87v359q0 118 97 118q44 0 69 -32t25 -86v-359q0 -53 -27 -85.5t-69 -32.5zM94 515q-14 0 -18 -14t-4 -27v-361q0 -12 4.5 -26.5t16.5 -14.5q14 0 18 14t4 27l-2 361q0 12 -3 26.5t-16 14.5zM91 695h-69l70 94
h72z" />
    <glyph glyph-name="Scommaaccent" unicode="&#x218;" horiz-adv-x="254" 
d="M123 672q0 30 -5 39.5t-21 9.5q-13 0 -19.5 -7t-6.5 -28q0 -77 18.5 -147t41 -137.5t41 -134.5t18.5 -139q0 -24 -2.5 -48t-12 -43.5t-28.5 -32t-52 -12.5q-50 0 -74 27.5t-24 90.5v138h73v-127q0 -28 5 -40t19 -12q17 0 20.5 16.5t3.5 35.5q0 47 -9 90t-22 85.5t-29 85
t-29 88.5t-22 96.5t-9 108.5q0 65 23 94t76 29t73.5 -30t20.5 -87v-136h-68v127zM121 -170h-59l-9 114h81z" />
    <glyph glyph-name="scommaaccent" unicode="&#x219;" horiz-adv-x="257" 
d="M98 -4q-48 0 -72.5 33.5t-24.5 92.5v58h75v-48q0 -25 5 -44.5t18 -19.5q6 0 10 5t6 11.5t3 14t1 13.5q0 35 -8.5 63.5t-21.5 54.5t-27.5 51.5t-27.5 53.5t-21.5 61t-8.5 74q0 19 5 40.5t17 39.5t31.5 29.5t48.5 11.5q25 0 43 -10t28.5 -28t15.5 -42.5t5 -52.5v-52h-74v45
q0 35 -4.5 51t-17.5 16q-14 0 -18 -15.5t-4 -27.5q0 -51 18 -91.5t39 -79.5t39 -83t18 -103q0 -21 -4.5 -42.5t-15.5 -39t-29.5 -29t-46.5 -11.5zM126 -170h-59l-9 114h81z" />
    <glyph glyph-name="circumflex" unicode="&#x2c6;" horiz-adv-x="220" 
d="M121 856l-39 58l-40 -58h-54l62 117h66l60 -117h-55z" />
    <glyph glyph-name="caron" unicode="&#x2c7;" horiz-adv-x="220" 
d="M176 973l-60 -117h-66l-62 117h54l40 -58l39 58h55z" />
    <glyph glyph-name="breve" unicode="&#x2d8;" horiz-adv-x="213" 
d="M190 972v-13q0 -23 -8.5 -39.5t-22 -28t-30.5 -17t-34 -5.5t-34 5.5t-30.5 17t-22 28t-8.5 39.5v13h74q0 -5 0.5 -11t2.5 -12t6 -10t12 -4q16 0 19 13t2 24h74z" />
    <glyph glyph-name="dotaccent" unicode="&#x2d9;" horiz-adv-x="115" 
d="M0 745q0 20 13.5 34t33.5 14t34.5 -14t14.5 -34t-14.5 -33.5t-34.5 -13.5t-33.5 13.5t-13.5 33.5z" />
    <glyph glyph-name="ring" unicode="&#x2da;" horiz-adv-x="164" 
d="M0 902q0 29 20.5 50t49.5 21t50 -21t21 -50t-21 -49.5t-50 -20.5t-49.5 20.5t-20.5 49.5zM50 903q0 -8 5.5 -13.5t13.5 -5.5t13.5 5.5t5.5 13.5t-5.5 13.5t-13.5 5.5t-13.5 -5.5t-5.5 -13.5z" />
    <glyph glyph-name="ogonek" unicode="&#x2db;" horiz-adv-x="198" 
d="M142 -111l-24 -8q-19 -8 -39 -8q-11 0 -23 4t-21 13v-1q-11 11 -18 27t-7 34q0 16 7.5 30t19 25t24.5 17.5t25 6.5h28l3 -29q-4 -1 -13 -6.5t-18.5 -13t-16.5 -15.5t-7 -13q0 -12 5 -16.5t13 -4.5q11 0 22.5 4t22.5 9z" />
    <glyph glyph-name="tilde" unicode="&#x2dc;" horiz-adv-x="286" 
d="M181 851q-14 0 -27 6.5t-24.5 14t-21.5 14t-18 6.5q-10 0 -23.5 -14.5t-21.5 -24.5l-46 56q15 22 27.5 35t24 19.5t21 8t18.5 1.5q12 0 24.5 -6.5t24 -14.5t22.5 -14.5t20 -6.5q3 0 9 3.5t12.5 8t12 9.5t7.5 9l49 -49q-14 -21 -27 -33t-24 -18.5t-21 -8t-18 -1.5z" />
    <glyph glyph-name="hungarumlaut" unicode="&#x2dd;" horiz-adv-x="267" 
d="M62 620h-61l41 173h79zM165 620h-62l40 173h79z" />
    <glyph glyph-name="pi" unicode="&#x3c0;" horiz-adv-x="443" 
d="M424 510h-77v-350h-75v350h-112v-350h-75v350h-85v76h424v-76z" />
    <glyph glyph-name="Wgrave" unicode="&#x1e80;" horiz-adv-x="389" 
d="M326 793l-47 -793h-75l-38 381l-5 92l-5 -93l-39 -380h-75l-48 793h78l14 -403l4 -95l4 93l34 405h64l26 -406l5 -92l4 97l22 401h77zM92 971h72l70 -94h-69z" />
    <glyph glyph-name="wgrave" unicode="&#x1e81;" horiz-adv-x="332" 
d="M278 587l-40 -587h-68l-29 264l-4 71l-4 -70l-30 -265h-67l-41 587h67l16 -330l2 -68l5 69l29 329h46l30 -331l4 -66l2 66l15 331h67zM67 793h72l70 -94h-69z" />
    <glyph glyph-name="Wacute" unicode="&#x1e82;" horiz-adv-x="389" 
d="M326 793l-47 -793h-75l-38 381l-5 92l-5 -93l-39 -380h-75l-48 793h78l14 -403l4 -95l4 93l34 405h64l26 -406l5 -92l4 97l22 401h77zM162 877h-69l70 94h72z" />
    <glyph glyph-name="wacute" unicode="&#x1e83;" horiz-adv-x="332" 
d="M278 587l-40 -587h-68l-29 264l-4 71l-4 -70l-30 -265h-67l-41 587h67l16 -330l2 -68l5 69l29 329h46l30 -331l4 -66l2 66l15 331h67zM133 698h-69l70 94h72z" />
    <glyph glyph-name="Wdieresis" unicode="&#x1e84;" horiz-adv-x="389" 
d="M326 793l-47 -793h-75l-38 381l-5 92l-5 -93l-39 -380h-75l-48 793h78l14 -403l4 -95l4 93l34 405h64l26 -406l5 -92l4 97l22 401h77zM137 881h-75v91h75v-91zM262 881h-76v91h76v-91z" />
    <glyph glyph-name="wdieresis" unicode="&#x1e85;" horiz-adv-x="332" 
d="M278 587l-40 -587h-68l-29 264l-4 71l-4 -70l-30 -265h-67l-41 587h67l16 -330l2 -68l5 69l29 329h46l30 -331l4 -66l2 66l15 331h67zM111 702h-75v91h75v-91zM236 702h-76v91h76v-91z" />
    <glyph glyph-name="Ygrave" unicode="&#x1ef2;" horiz-adv-x="270" 
d="M222 793l-76 -438v-355h-71v355l-79 438h75l39 -276l37 276h75zM41 971h72l70 -94h-69z" />
    <glyph glyph-name="ygrave" unicode="&#x1ef3;" horiz-adv-x="256" 
d="M-8 -169v97h32q10 0 17.5 9t12 22.5t6.5 27.5t2 25l-63 575h77l21 -296l4 -80l4 80l21 296h76l-64 -575q-4 -34 -10 -66.5t-18 -58t-32.5 -41t-53.5 -15.5h-32zM31 793h72l70 -94h-69z" />
    <glyph glyph-name="endash" unicode="&#x2013;" horiz-adv-x="283" 
d="M211 353h-195v86h195v-86z" />
    <glyph glyph-name="emdash" unicode="&#x2014;" horiz-adv-x="576" 
d="M491 353h-462v86h462v-86z" />
    <glyph glyph-name="quoteleft" unicode="&#x2018;" horiz-adv-x="164" 
d="M64 793h61l-56 -134h-65z" />
    <glyph glyph-name="quoteright" unicode="&#x2019;" horiz-adv-x="161" 
d="M124 659h-65l-56 134h61z" />
    <glyph glyph-name="quotesinglbase" unicode="&#x201a;" horiz-adv-x="133" 
d="M18 58h67l-8 -134h-52z" />
    <glyph glyph-name="quotedblleft" unicode="&#x201c;" horiz-adv-x="253" 
d="M64 793h61l-56 -134h-65zM160 793h61l-56 -134h-65z" />
    <glyph glyph-name="quotedblright" unicode="&#x201d;" horiz-adv-x="246" 
d="M124 659h-65l-56 134h61zM220 659h-65l-56 134h61z" />
    <glyph glyph-name="quotedblbase" unicode="&#x201e;" horiz-adv-x="241" 
d="M124 58h77l-10 -134h-67v134zM12 58h78v-134h-67z" />
    <glyph glyph-name="dagger" unicode="&#x2020;" horiz-adv-x="236" 
d="M184 439v-86h-55v-353h-77v353h-58v86h58v354h77v-354h55z" />
    <glyph glyph-name="daggerdbl" unicode="&#x2021;" horiz-adv-x="224" 
d="M126 439v-86h56v-87h-56v-266h-76v266h-58v87h58v86h-58v87h58v267h76v-267h56v-87h-56z" />
    <glyph glyph-name="bullet" unicode="&#x2022;" horiz-adv-x="189" 
d="M0 387q0 25 17 42t42 17t42 -17t17 -42t-17 -42t-42 -17t-42 17t-17 42z" />
    <glyph glyph-name="onedotenleader" unicode="&#x2024;" horiz-adv-x="142" 
d="M75 0h-77v91h77v-91z" />
    <glyph glyph-name="ellipsis" unicode="&#x2026;" horiz-adv-x="386" 
d="M63 0h-77v91h77v-91zM185 0h-77v91h77v-91zM307 0h-77v91h77v-91z" />
    <glyph glyph-name="perthousand" unicode="&#x2030;" horiz-adv-x="389" 
d="M292 793l-210 -793h-81l211 793h80z" />
    <glyph glyph-name="guilsinglleft" unicode="&#x2039;" horiz-adv-x="263" 
d="M115 124l-114 230l115 237h89l-117 -237q29 -57 57 -114.5t57 -115.5h-87z" />
    <glyph glyph-name="guilsinglright" unicode="&#x203a;" horiz-adv-x="288" 
d="M-2 124l114 230l-118 237h88l116 -237l-114 -230h-86z" />
    <glyph glyph-name="exclamdbl" unicode="&#x203c;" horiz-adv-x="269" 
d="M10 151l-6 555v87h78v-87l-5 -555h-67zM82 0h-76v91h76v-91zM129 151l-6 555v87h78v-87l-5 -555h-67zM201 0h-76v91h76v-91z" />
    <glyph glyph-name="fraction" unicode="&#x2044;" horiz-adv-x="389" 
d="M292 793l-210 -793h-81l211 793h80z" />
    <glyph glyph-name="Euro" unicode="&#x20ac;" horiz-adv-x="288" 
d="M136 602v67q0 22 -6 32t-12.5 10t-12.5 -10.5t-6 -28.5v-148h112v-86h-112v-79h112v-87h-112v-151q0 -23 6 -33.5t12.5 -10.5t12.5 8t6 23v20t-0.5 26t-0.5 23.5v13.5h77q0 -37 -0.5 -71.5t-9 -61t-28 -42.5t-57.5 -16q-48 0 -71 32t-23 89v151h-54v87h54v79h-54v86h54
v148q0 57 23 89t71 32q95 0 95 -121v-70h-76z" />
    <glyph glyph-name="trademark" unicode="&#x2122;" horiz-adv-x="347" 
d="M101 745h-32v-156h-37v156h-31v48h100v-48zM237 589v121l-5 -34l-19 -87h-26l-19 89l-6 30v-119h-37v204h37l34 -114l4 -13l3 12l34 115h37v-204h-37z" />
    <glyph glyph-name="minus" unicode="&#x2212;" horiz-adv-x="318" 
d="M221 353h-195v86h195v-86z" />
    <glyph glyph-name="infinity" unicode="&#x221e;" horiz-adv-x="844" 
d="M208 576q33 0 60.5 -11t51 -29t43 -42t36.5 -51q16 27 35.5 51t42.5 42.5t51.5 29t64.5 10.5t71.5 -14t63 -40.5t45 -64.5t17.5 -85q0 -48 -17 -86t-45 -64.5t-63.5 -41t-71.5 -14.5q-68 0 -112.5 35.5t-78.5 88.5q-17 -27 -35.5 -49.5t-42 -39t-52 -26t-64.5 -9.5
t-71.5 14.5t-63.5 41t-45.5 64.5t-17.5 86t17.5 85.5t45.5 64t63.5 40.5t71.5 14zM208 252q22 0 44 10.5t41.5 28t35.5 39t27 42.5q-14 24 -31 45t-35.5 37.5t-39 26t-42.5 9.5q-21 0 -43 -8t-39 -23t-28 -37t-11 -50q0 -29 10.5 -51t28 -37.5t39 -23.5t43.5 -8zM594 252
q22 0 43.5 8t38.5 23.5t28 38t11 50.5t-11 50t-28.5 37t-39 23t-43.5 8q-23 0 -44.5 -10.5t-40.5 -27t-35 -38t-28 -42.5q11 -20 27.5 -41.5t36.5 -39t41.5 -28.5t43.5 -11z" />
    <glyph glyph-name="notequal" unicode="&#x2260;" horiz-adv-x="336" 
d="M246 587l-128 -384h-81l129 384h80zM246 528v-87h-210v87h210zM36 362h210v-87h-210v87z" />
    <glyph glyph-name="lessequal" unicode="&#x2264;" horiz-adv-x="220" 
d="M200 682l-99 -100l95 -96v-111l-194 207l198 211v-111zM199 244h-195v86h195v-86z" />
    <glyph glyph-name="greaterequal" unicode="&#x2265;" horiz-adv-x="225" 
d="M-1 793l198 -211l-194 -207v111l95 96l-99 100v111zM196 244h-195v86h195v-86z" />
    <glyph glyph-name="commaaccent" unicode="&#xf6c3;" horiz-adv-x="108" 
d="M71 -170h-59l-9 114h81z" />
    <glyph glyph-name="Acute" unicode="&#xf6c9;" horiz-adv-x="176" 
d="M72 877h-69l70 94h72z" />
    <glyph glyph-name="Caron" unicode="&#xf6ca;" horiz-adv-x="220" 
d="M176 973l-60 -117h-66l-62 117h54l40 -58l39 58h55z" />
    <glyph glyph-name="Dieresis" unicode="&#xf6cb;" horiz-adv-x="224" 
d="M77 881h-75v91h75v-91zM202 881h-76v91h76v-91z" />
    <glyph glyph-name="Grave" unicode="&#xf6ce;" horiz-adv-x="176" 
d="M3 971h72l70 -94h-69z" />
    <glyph glyph-name="Macron" unicode="&#xf6d0;" horiz-adv-x="235" 
d="M205 895h-195v76h195v-76z" />
    <glyph glyph-name="cyrbreve" unicode="&#xf6d4;" horiz-adv-x="0" 
 />
    <glyph glyph-name="dieresisacute" unicode="&#xf6d7;" horiz-adv-x="0" 
 />
    <glyph glyph-name="dieresisgrave" unicode="&#xf6d8;" horiz-adv-x="0" 
 />
    <glyph glyph-name="Brevesmall" unicode="&#xf6f4;" horiz-adv-x="213" 
d="M190 972v-13q0 -23 -8.5 -39.5t-22 -28t-30.5 -17t-34 -5.5t-34 5.5t-30.5 17t-22 28t-8.5 39.5v13h74q0 -5 0.5 -11t2.5 -12t6 -10t12 -4q16 0 19 13t2 24h74z" />
    <glyph glyph-name="Caronsmall" unicode="&#xf6f5;" horiz-adv-x="220" 
d="M176 973l-60 -117h-66l-62 117h54l40 -58l39 58h55z" />
    <glyph glyph-name="Acutesmall" unicode="&#xf7b4;" horiz-adv-x="176" 
d="M72 877h-69l70 94h72z" />
    <glyph glyph-name="ff" unicode="&#xfb00;" horiz-adv-x="387" 
d="M113 587h48v-86h-48v-501h-76v501h-41v86h41v64q0 29 2.5 54.5t12 45t28 31t50.5 11.5h38v-85h-29q-12 0 -19 -6.5t-7 -29.5v-85zM269 587h48v-86h-48v-501h-76v501h-41v86h41v64q0 29 2.5 54.5t12 45t28 31t50.5 11.5h38v-85h-29q-12 0 -19 -6.5t-7 -29.5v-85z" />
    <glyph glyph-name="fi" unicode="&#xfb01;" horiz-adv-x="358" 
d="M251 0h-75v587h75v-587zM113 587h68v-86h-68v-501h-76v501h-41v86h41v64q0 29 2.5 54.5t12 45t28 31t50.5 11.5h38v-85h-29q-12 0 -19 -6.5t-7 -29.5v-85z" />
    <glyph glyph-name="fl" unicode="&#xfb02;" horiz-adv-x="355" 
d="M113 587h48v-86h-48v-501h-76v501h-41v86h41v64q0 29 2.5 54.5t12 45t28 31t50.5 11.5h68v-85h-59q-12 0 -19 -6.5t-7 -29.5v-85zM256 0h-75v793h75v-793z" />
    <glyph glyph-name="ffi" unicode="&#xfb03;" horiz-adv-x="482" 
d="M396 0h-75v587h75v-587zM258 587h68v-86h-68v-501h-76v501h-41v86h41v64q0 29 2.5 54.5t12 45t28 31t50.5 11.5h38v-85h-29q-12 0 -19 -6.5t-7 -29.5v-85zM113 587h48v-86h-48v-501h-76v501h-41v86h41v64q0 29 2.5 54.5t12 45t28 31t50.5 11.5h38v-85h-29q-12 0 -19 -6.5
t-7 -29.5v-85z" />
    <glyph glyph-name="ffl" unicode="&#xfb04;" horiz-adv-x="546" 
d="M113 587h48v-86h-48v-501h-76v501h-41v86h41v64q0 29 2.5 54.5t12 45t28 31t50.5 11.5h38v-85h-29q-12 0 -19 -6.5t-7 -29.5v-85zM268 587h48v-86h-48v-501h-76v501h-41v86h41v64q0 29 2.5 54.5t12 45t28 31t50.5 11.5h38v-85h-29q-12 0 -19 -6.5t-7 -29.5v-85zM434 0
h-75v793h75v-793z" />
    <glyph glyph-name="undercommaaccent" horiz-adv-x="0" 
 />
    <glyph glyph-name="Breve" horiz-adv-x="213" 
d="M190 972v-13q0 -23 -8.5 -39.5t-22 -28t-30.5 -17t-34 -5.5t-34 5.5t-30.5 17t-22 28t-8.5 39.5v13h74q0 -5 0.5 -11t2.5 -12t6 -10t12 -4q16 0 19 13t2 24h74z" />
    <glyph glyph-name="Ring" horiz-adv-x="164" 
d="M0 902q0 29 20.5 50t49.5 21t50 -21t21 -50t-21 -49.5t-50 -20.5t-49.5 20.5t-20.5 49.5zM50 903q0 -8 5.5 -13.5t13.5 -5.5t13.5 5.5t5.5 13.5t-5.5 13.5t-13.5 5.5t-13.5 -5.5t-5.5 -13.5z" />
    <glyph glyph-name="Tilde" horiz-adv-x="286" 
d="M181 851q-14 0 -27 6.5t-24.5 14t-21.5 14t-18 6.5q-10 0 -23.5 -14.5t-21.5 -24.5l-46 56q15 22 27.5 35t24 19.5t21 8t18.5 1.5q12 0 24.5 -6.5t24 -14.5t22.5 -14.5t20 -6.5q3 0 9 3.5t12.5 8t12 9.5t7.5 9l49 -49q-14 -21 -27 -33t-24 -18.5t-21 -8t-18 -1.5z" />
    <glyph glyph-name="Cedilla" horiz-adv-x="151" 
d="M24 -8q0 13 7.5 19t17.5 6t17.5 -6.5t9.5 -17.5q18 -3 34 -19.5t16 -41.5q0 -17 -6.5 -29t-17 -19.5t-23 -11t-23.5 -3.5q-26 0 -54 10l7 47q13 -3 25.5 -6t25.5 -3q5 0 13 2.5t8 10.5t-15.5 10t-29.5 2h-14z" />
    <glyph glyph-name="Circumflex" horiz-adv-x="220" 
d="M121 856l-39 58l-40 -58h-54l62 117h66l60 -117h-55z" />
    <glyph glyph-name="commaaccent.cap" horiz-adv-x="108" 
d="M71 -170h-59l-9 114h81z" />
    </font>
</defs>
</svg>
