<?xml version="1.0" standalone="no"?>
<!DOCTYPE svg PUBLIC "-//W3C//DTD SVG 1.1//EN" "http://www.w3.org/Graphics/SVG/1.1/DTD/svg11.dtd" >
<svg xmlns="http://www.w3.org/2000/svg" xmlns:xlink="http://www.w3.org/1999/xlink" version="1.1">
<metadata></metadata>
<defs>
<font id="deadhead_scriptregular" horiz-adv-x="602" >
<font-face units-per-em="2048" ascent="1536" descent="-512" />
<missing-glyph horiz-adv-x="307" />
<glyph horiz-adv-x="0" />
<glyph horiz-adv-x="0" />
<glyph horiz-adv-x="682" />
<glyph unicode="&#xd;" horiz-adv-x="307" />
<glyph unicode=" "  horiz-adv-x="307" />
<glyph unicode="&#x09;" horiz-adv-x="307" />
<glyph unicode="&#xa0;" horiz-adv-x="307" />
<glyph unicode="!" horiz-adv-x="395" d="M2 86q-4 -37 20 -61.5t56.5 -24t64.5 24.5q45 41 28.5 94t-73.5 53q-35 0 -63 -25.5t-33 -60.5zM31 338q53 366 133 842q96 -6 170 -66q-97 -477 -148 -844q-40 0 -86.5 20.5t-68.5 47.5z" />
<glyph unicode="&#x22;" horiz-adv-x="452" d="M2 1165q5 35 33 60.5t63 25.5q36 0 57 -23t21 -57q-1 -43 -27.5 -87t-62.5 -70q-11 -8 -20 -8q-14 0 -5 22q14 25 23 51q-35 -2 -60.5 23t-21.5 63zM215 1165q5 35 33 60.5t63 25.5q36 0 58 -23.5t20 -56.5q0 -43 -26.5 -87t-63.5 -70q-11 -8 -20 -8q-14 0 -5 22 q10 18 25 51q-36 -2 -61.5 22.5t-22.5 63.5z" />
<glyph unicode="#" horiz-adv-x="1314" d="M2 307q-6 33 7.5 71.5t35.5 63.5q32 1 121.5 3.5t140.5 3.5q5 34 20 133t23 153q-45 -1 -136 -2t-136 -2q-4 33 9.5 72t35.5 63q39 1 122.5 2t125.5 2q9 63 25.5 170.5t21.5 139.5q69 0 139 -66q-7 -40 -20.5 -121t-20.5 -121q48 0 146.5 1t146.5 1q8 49 24 152.5 t25 153.5q41 0 72 -17t67 -49q-7 -40 -21.5 -120t-21.5 -120h295q7 -41 -5 -74.5t-38 -72.5q-184 4 -274 4q-8 -46 -23.5 -139t-23.5 -139h286q7 -41 -5 -75t-38 -75l-264 6q-21 -132 -45 -309q-34 0 -69.5 20t-55.5 46q1 13 33 245q-50 0 -151 1t-152 1 q-7 -52 -21.5 -156.5t-21.5 -156.5q-33 0 -69 20t-58 46q6 43 18 127.5t17 117.5q-99 0 -287 -4zM446 449q98 2 302 2q12 94 40 282q-98 2 -296 2q-7 -45 -23 -140.5t-23 -145.5z" />
<glyph unicode="$" horiz-adv-x="440" d="M-139.5 272.5q-11.5 45.5 6.5 95t67 87.5q29 23 63 22.5t52 -28.5q11 -15 11 -36t-11 -40q-8 -15 -33.5 -35t-31.5 -39q-7 -39 13.5 -66.5t68.5 -27.5q50 4 94 39t49 100q4 38 -13 81.5t-38 72.5t-53 69q-4 4 -6.5 7t-4.5 6q-71 87 -89 119q-48 84 -21 182 q16 57 50.5 106t82.5 72h14q3 23 10 65.5t9 55.5q41 0 72 -17t67 -49q-2 -15 -7.5 -42.5t-7.5 -41.5q97 -36 144 -102q3 -54 -21.5 -118t-64.5 -97q-28 -23 -63 -22t-54 30q-9 14 -9 35.5t11 40.5q7 14 25.5 27t30.5 28t12 39q0 27 -30 33.5t-50 -6.5q-41 -22 -53 -55.5 t5.5 -75.5t31.5 -65t42 -60q3 -5 5 -7q8 -11 40 -52.5t46 -61.5t31.5 -55.5t23.5 -67.5q11 -64 -7.5 -118t-58 -89t-86 -56.5t-96.5 -29.5q-13 -91 -16 -125q-34 0 -70.5 20t-56.5 46q1 9 4 30.5t4 34.5q-51 18 -86.5 57t-47 84.5z" />
<glyph unicode="%" horiz-adv-x="880" d="M2 979q11 91 68 143q42 38 95.5 51.5t104 -5t78.5 -68.5q34 -60 25 -134t-56 -126q-59 -66 -167 -66q-75 1 -116.5 66.5t-31.5 138.5zM95.5 975.5q-8.5 -59.5 9 -105t55.5 -47.5q65 0 99 78t22 154q-8 45 -34.5 63t-58.5 6.5t-55 -47.5q-29 -42 -37.5 -101.5zM150 66 q168 523 391 1114q39 0 67 -16t60 -50q-249 -653 -404 -1114q-32 0 -64.5 18.5t-49.5 47.5zM442 203q11 89 70 145q42 38 95.5 51t104.5 -6t79 -69q34 -60 25 -133.5t-56 -124.5q-59 -66 -168 -66q-75 0 -116.5 64.5t-33.5 138.5zM537 199.5q-8 -59.5 9.5 -105t55.5 -47.5 q65 0 99 79t22 155q-8 45 -34.5 62.5t-59 5.5t-56.5 -48q-28 -42 -36 -101.5z" />
<glyph unicode="&#x26;" horiz-adv-x="962" d="M0 270q0 113 75.5 207.5t186.5 120.5q-46 56 -51.5 139.5t29.5 165.5q65 163 221 277q74 0 144.5 -29t111.5 -84q3 -46 -18 -100.5t-56 -81.5q-23 -21 -52 -20t-46 26q-18 29 2 63q7 12 27 28.5t26 29.5q9 20 1 36.5t-32 16.5q-30 2 -69 -25q-52 -37 -93.5 -97 t-61 -119.5t-15.5 -115t37 -83.5q24 6 61 6q51 0 62 -35q9 -30 -20 -52q-22 -16 -56 -16q-40 0 -88 23q-83 -58 -132 -139.5t-49 -161.5q0 -77 52 -139t129 -62q79 0 139.5 60t71.5 145q7 53 -33 77q-37 22 -72 -5q-45 -34 -45 -121q-34 0 -70.5 31.5t-29.5 64.5 q25 52 75 96t99 71t107.5 66t93.5 78q68 76 89.5 161t-12.5 181q45 22 96 2t66 -61q-7 -140 -95 -256.5t-228 -194.5q55 -22 84 -73t20 -117q-12 -115 -118 -196t-238 -81q-131 0 -228.5 81t-97.5 212z" />
<glyph unicode="'" horiz-adv-x="237" d="M2 1165q5 35 33 60.5t63 25.5q36 0 57 -23t21 -57q-1 -43 -27.5 -87t-62.5 -70q-11 -8 -20 -8q-14 0 -5 22q14 25 23 51q-35 -2 -60.5 23t-21.5 63z" />
<glyph unicode="(" horiz-adv-x="509" d="M15 573.5q29 202.5 129.5 404.5t258.5 347q42 -92 46 -145q-149 -166 -232.5 -389.5t-80.5 -439.5t93 -363q-33 -82 -96 -148q-88 141 -117.5 336t-0.5 397.5z" />
<glyph unicode=")" horiz-adv-x="509" d="M0 -12q149 165 232 388.5t80 440t-93 363.5q31 77 96 145q88 -141 117.5 -335.5t0.5 -397t-129.5 -405t-258.5 -347.5q-43 95 -45 148z" />
<glyph unicode="*" horiz-adv-x="309" d="M2 1112q-5 34 29 68h28l-26 55q48 25 84 20q12 -24 24 -51l76 64q27 -34 21 -74l-19 -14h29q0 -43 -27 -70h-35l27 -57q-36 -29 -82 -19q-4 8 -12.5 24.5t-12.5 24.5l-73 -61q-29 26 -21 74q3 3 9.5 8t9.5 8h-29z" />
<glyph unicode="+" horiz-adv-x="526" d="M2 526q-4 34 10 69t39 60h127q4 24 16 82.5t17 89.5q81 -15 121 -67q-9 -52 -21 -105h154q0 -80 -45 -131h-135q-5 -28 -16.5 -86.5t-16.5 -87.5q-34 3 -66.5 23.5t-52.5 48.5q3 15 10.5 49t10.5 53q-51 2 -152 2z" />
<glyph unicode="," horiz-adv-x="237" d="M2 86q5 35 33 60.5t63 25.5t56.5 -23t21.5 -55q-1 -44 -27.5 -89t-62.5 -71q-11 -8 -20 -8q-15 0 -5 23q14 25 23 51q-35 -2 -60.5 23t-21.5 63z" />
<glyph unicode="-" horiz-adv-x="481" d="M2 526q-4 34 10 69t39 60h369q0 -80 -45 -131q-69 0 -186 1t-187 1z" />
<glyph unicode="." horiz-adv-x="237" d="M2 86q5 35 33 60.5t63 25.5q57 0 73.5 -53t-28.5 -94q-32 -24 -64.5 -24.5t-56.5 24t-20 61.5z" />
<glyph unicode="/" horiz-adv-x="522" d="M0 66q138 517 332 1114q40 0 69 -16.5t60 -49.5q-223 -680 -344 -1114q-33 0 -66.5 19t-50.5 47z" />
<glyph unicode="0" horiz-adv-x="782" d="M-52.5 341.5q-19.5 143.5 9 290.5t94.5 275q139 273 348 273q120 0 194 -73.5t105 -197.5q47 -184 -4.5 -409.5t-171.5 -366.5q-119 -133 -260 -133q-143 0 -223 104q-72 94 -91.5 237.5zM97 441.5q-1 -79.5 11.5 -163t51 -145t96.5 -61.5q102 0 170 129 q72 132 105.5 349t-1.5 386q-15 60 -46.5 104.5t-82.5 44.5q-95 0 -163 -110q-31 -52 -50 -119t-16.5 -130.5t31.5 -94.5q-32 -60 -92 -68q-13 -42 -14 -121.5z" />
<glyph unicode="1" horiz-adv-x="395" d="M0 66q15 270 96 747q-73 55 -90 117q65 111 158 250q96 -6 170 -66q-117 -499 -178 -1114q-43 2 -87 19.5t-69 46.5z" />
<glyph unicode="2" horiz-adv-x="706" d="M-102 131q45 59 121 130.5t144.5 132.5t136 130.5t114.5 151.5t61 170q8 48 -8 107t-58.5 105t-99.5 46q-62 0 -108 -68q-43 -64 -21 -151q-125 75 -129 141q22 63 88 108.5t160 45.5q113 0 205.5 -69t124.5 -177q21 -63 13 -126.5t-32.5 -116t-68.5 -111.5 q-43 -56 -108.5 -116.5t-124 -106t-130 -109.5t-121.5 -125q62 4 209 24.5t213 20.5q27 -18 40.5 -63.5t10.5 -104.5q-56 22 -155 22t-225.5 -11t-176.5 -11q-59 39 -75 131z" />
<glyph unicode="3" horiz-adv-x="632" d="M-121 86q-14 68 74 160q-2 -70 41.5 -115t118.5 -45q66 0 123.5 38t92.5 96t50.5 127t3.5 130q-12 68 -63 102t-117 13q-24 24 -35.5 38t-24 46.5t-12.5 73.5q50 40 129.5 124.5t145.5 167.5q-16 -3 -78.5 -15.5t-102.5 -16.5t-80 0q-28 19 -41.5 64.5t-9.5 105.5 q56 -24 125 -24t153.5 12t127.5 12q86 -95 67 -162q-120 -116 -291 -291q125 -8 208.5 -111t64.5 -254q-6 -52 -23 -100t-51 -97t-81 -84.5t-119 -58t-160 -22.5q-68 0 -131 22.5t-105 63.5z" />
<glyph unicode="4" horiz-adv-x="651" d="M-80 535q182 323 369 645q77 -7 123 -45l8 45q96 -6 170 -66q-57 -242 -111 -571q5 -1 15 -2t14 -2q52 -61 45 -148q-32 0 -94 4q-39 -307 -47 -395q-42 2 -85.5 19.5t-70.5 46.5q8 134 33 329q-180 -3 -330 -37q-22 36 -32.5 84t-6.5 93zM94 541q111 6 215 6 q25 162 94 538q-113 -185 -309 -544z" />
<glyph unicode="5" horiz-adv-x="651" d="M-121 86q-14 68 74 160q-2 -70 41.5 -115t118.5 -45q129 0 209 130q66 108 67 241q0 124 -59 173q-27 23 -64 23q-75 0 -141 -88q-77 23 -115 68q29 204 74 418q-27 41 -33 88q24 -6 49 -6q2 8 5.5 23.5t5.5 23.5q59 -9 108 -39q19 3 95 17.5t125 18.5t98 -1 q27 -18 40.5 -63.5t10.5 -104.5q-22 8 -44 13.5t-50.5 7t-44.5 3t-53 -1.5t-46 -3.5t-53 -5.5t-47 -5q-38 -161 -60 -297q152 27 256 -62q58 -52 86.5 -127.5t16.5 -167.5q-6 -52 -23 -100t-51 -97t-81 -84.5t-119 -58t-160 -22.5q-68 0 -131 22.5t-105 63.5z" />
<glyph unicode="6" horiz-adv-x="710" d="M-59 436q4 71 16 146.5t35 162t60.5 162t86.5 138t120 99t155 36.5q144 0 233 -86q12 -76 -76 -160q3 66 -36.5 112t-106.5 46q-50 0 -92 -38.5t-69 -99t-43 -115.5t-25 -108q83 18 163 -6q106 -33 171 -127t59 -215q-3 -53 -16.5 -103t-44.5 -102t-75.5 -90.5t-115 -63 t-158.5 -24.5q-95 28 -153 98.5t-76 154t-12 183.5zM97 263.5q6 -62.5 29 -112t60 -65.5q132 0 197.5 142t35.5 283.5t-130 141.5q-51 0 -92 -37.5t-63.5 -94.5t-32.5 -126t-4 -131.5z" />
<glyph unicode="7" horiz-adv-x="636" d="M0 66q108 341 393 976q-29 -3 -112 -15.5t-135 -17t-93 0.5q-28 19 -41.5 64.5t-9.5 105.5q59 -24 149.5 -24t199 12t149.5 12q63 -44 75 -131q-241 -503 -436 -1049q-41 2 -80.5 19t-58.5 47z" />
<glyph unicode="8" horiz-adv-x="647" d="M-100 268q-3 227 215 367q-75 72 -95 164.5t23 187.5q42 87 122.5 140t176.5 53t165.5 -62t76.5 -155q9 -101 -53 -191.5t-162 -144.5q72 -54 115 -123.5t53 -138t-10 -135.5t-66 -117.5t-123 -81.5t-174 -31q-126 0 -194 77t-70 191zM55 180q24 -92 127 -92q64 0 116 38 t77 93t20 121t-47 117q-27 35 -115 94q-97 -64 -151.5 -165.5t-26.5 -205.5zM170 852.5q11 -74.5 82 -137.5q34 18 67 43.5t66.5 60.5t52.5 72.5t23.5 79.5t-19.5 82q-31 55 -106.5 41.5t-122.5 -82.5q-54 -85 -43 -159.5z" />
<glyph unicode="9" horiz-adv-x="677" d="M-80 86q-14 68 74 160q-2 -66 44.5 -113t115.5 -47q178 42 239 406q-71 -54 -143 -54q-81 0 -143 47.5t-92.5 117.5t-32.5 149q-3 87 23 173t77 144q96 111 233 111q90 0 154 -41t95 -108.5t43 -140t7 -149.5q-4 -71 -15 -143t-32.5 -155t-57.5 -155.5t-84 -134.5 t-117.5 -102.5t-153.5 -50.5q-145 0 -234 86zM132 667.5q28 -141.5 134 -141.5q68 16 113.5 85t66.5 151q16 60 17 117.5t-13 105.5t-48.5 77.5t-86.5 29.5q-99 0 -155 -141.5t-28 -283z" />
<glyph unicode=":" horiz-adv-x="329" d="M2 86q5 35 33 60.5t63 25.5q57 0 73.5 -53t-28.5 -94q-32 -24 -64.5 -24.5t-56.5 24t-20 61.5zM94 590q3 35 31 60.5t65 25.5t58.5 -25.5t18.5 -60.5t-31 -62q-33 -25 -66 -25.5t-56.5 24.5t-19.5 63z" />
<glyph unicode=";" horiz-adv-x="329" d="M2 86q5 35 33 60.5t63 25.5t56.5 -23t21.5 -55q-1 -44 -27.5 -89t-62.5 -71q-11 -8 -20 -8q-15 0 -5 23q14 25 23 51q-35 -2 -60.5 23t-21.5 63zM94 590q3 35 31 60.5t65 25.5t58.5 -25.5t18.5 -60.5t-31 -62q-33 -25 -66 -25.5t-56.5 24.5t-19.5 63z" />
<glyph unicode="&#x3c;" horiz-adv-x="462" d="M5.5 590.5q7.5 34.5 25.5 62.5l364 148q16 -76 -16 -139l-195 -72l168 -74q8 -67 -37 -139l-309 147q-8 32 -0.5 66.5z" />
<glyph unicode="=" horiz-adv-x="577" d="M2 395q-4 34 10 69t39 60h414q0 -79 -45 -133q-70 0 -209 2t-209 2zM55 657q-4 33 10 68.5t37 60.5h414q0 -83 -45 -131q-68 0 -207 1t-209 1z" />
<glyph unicode="&#x3e;" horiz-adv-x="464" d="M8 377q-19 73 17 139l194 74l-168 72q-8 67 37 139l309 -148q8 -32 1 -67t-25 -62z" />
<glyph unicode="?" horiz-adv-x="608" d="M0 1026q22 63 88 108.5t160 45.5t171 -45t111 -129q38 -97 -12 -201q-19 -39 -52 -75.5t-73.5 -74t-62.5 -67.5q-57 -73 -76 -201q-3 -19 -8 -58t-8 -59q-39 0 -86 20.5t-68 47.5l18 135q4 28 10.5 51t19 45t21 36t29.5 36.5t31 32t39.5 36.5t40.5 38q64 59 85 138 t-18 161q-31 57 -102 57q-46 0 -74 -32.5t-36 -74t-5 -88.5q-84 37 -143 117zM53 86q-4 -37 20 -61.5t57 -24t65 24.5q46 41 29.5 94t-74.5 53q-35 0 -64 -25.5t-33 -60.5z" />
<glyph unicode="@" horiz-adv-x="1161" d="M7 565.5q14 112.5 63.5 224t124 197.5t179.5 139.5t222 53.5q165 0 287.5 -81t176.5 -216.5t32 -296.5q-8 -57 -31.5 -115.5t-62.5 -115t-102.5 -92.5t-139.5 -36q-74 0 -109.5 46.5t-42.5 119.5q-93 -166 -194 -166q-50 0 -85.5 23t-51 59t-22.5 79t1 83q36 312 264 481 q78 0 148 -55q1 9 4 27.5t4 27.5q43 0 87 -20t75 -47q-51 -282 -64 -447q-8 -63 -0.5 -101t33.5 -38q38 0 71 84q41 95 59 194t2.5 206.5t-73.5 187.5q-100 135 -270 135q-78 0 -152.5 -46t-130.5 -119.5t-96 -169.5t-55.5 -193t-3.5 -193t55 -166q29 -47 78 -82t105 -48.5 t110 -8t100 40.5t68 96q29 -39 35.5 -83t-1.5 -73t-22 -45q-97 -36 -200 -34.5t-204.5 46.5t-166.5 124q-67 80 -92.5 190.5t-11.5 223zM426 469q-20 -170 35 -170q49 0 145 193q5 57 12.5 116.5t21 144t17.5 115.5q-57 -25 -100.5 -71.5t-69.5 -104.5t-40 -112t-21 -111z " />
<glyph unicode="A" horiz-adv-x="1054" d="M2 78q6 58 43 123q21 37 53 70t61.5 55t77.5 48t76.5 39t84.5 37l77 33q102 244 244 551q-34 -11 -97.5 -37t-113.5 -40.5t-96 -14.5q-31 29 -48.5 73.5t-17.5 90.5q38 -8 74 -8l52 4q63 10 104 27t98.5 34t109.5 17q80 0 136 -60q103 0 165 -65q-49 -219 -94 -500 q-4 -30 -18 -127.5t-21 -151.5q-1 -6 -4.5 -36t-7 -58t-7 -66.5t-4 -69.5t1 -59.5t8 -44.5t17.5 -16q70 85 143.5 299.5t90.5 378.5l59 -33q-16 -104 -62 -259.5t-114 -299t-125 -172.5q-35 0 -63 9.5t-47 24t-32.5 40t-21.5 48t-11.5 58.5t-4.5 61v13q0 22 2 53q3 41 5 63 t7 62q17 143 43 312q-34 -19 -96.5 -52.5t-79.5 -42.5q-85 -197 -130 -276q-139 -241 -323 -279q-37 -8 -77 -8q-65 11 -94 53q-24 34 -24 79q0 9 1 20zM80 57q7 -57 65 -57q125 49 236 283q41 85 53 112q-11 -5 -48.5 -20.5t-53.5 -23t-49 -23.5t-52 -29.5t-43.5 -32 t-42.5 -40t-32 -46.5q-34 -56 -34 -106q0 -9 1 -17zM686 582q120 59 152 77q29 185 65 383q-158 -324 -217 -460z" />
<glyph unicode="B" horiz-adv-x="804" d="M6 1069q64 48 148.5 79.5t171.5 31.5q184 0 286 -105q60 -61 76 -143q5 -27 6 -55q0 -53 -22 -103q-32 -76 -101 -127q136 -110 168 -258q69 15 134 79t65 136l39 -8q0 -49 -23.5 -94.5t-59.5 -76.5t-75.5 -51.5t-75.5 -27.5q3 -26 3 -52q0 -103 -51 -197 q-64 -118 -179 -187.5t-246 -69.5q-94 0 -164.5 44t-82.5 118q-2 15 -2 29q0 69 47 128q57 71 145 113q-86 19 -123 62q19 151 39 289q21 142 70 397q-93 -64 -144 -168q-31 42 -45 102q-9 35 -8 69q0 24 4 46zM126 36q4 -45 45.5 -77.5t115.5 -32.5q93 0 164.5 62.5 t105 148.5t33.5 172q-16 -2 -47 -6t-47 -6q-194 -28 -277 -84q-49 -33 -73 -83q-21 -43 -21 -83q1 -5 1 -11zM260 293q37 14 82.5 24t77 14.5t88.5 11.5t82 11q-5 75 -37.5 137t-93.5 99q-83 -27 -162 -27q-6 -45 -18.5 -135t-18.5 -135zM279 1061q68 -32 96 -86 q-6 -28 -19.5 -90.5t-23.5 -110.5t-17 -92q44 12 89 12q17 0 34 -2q52 45 84 105q28 54 28 112v13q-4 66 -54 110q-53 46 -123 46q-44 0 -94 -17z" />
<glyph unicode="C" horiz-adv-x="700" d="M2 408q5 98 33 198q38 135 102.5 254.5t153 206.5t182.5 113q65 0 127 -41q12 28 23 41q70 0 147 -41q-100 -156 -100 -287q-51 5 -91 36.5t-49 82.5q1 3 43 102q-182 -77 -292 -296q-99 -195 -104 -414v-24q0 -181 71 -274q49 -65 125 -65q79 2 156.5 54t135.5 134 t94 192.5t36 223.5l49 -37q0 -83 -23 -172.5t-68.5 -172.5t-106.5 -149.5t-144 -106.5t-174 -40q-84 0 -149.5 39t-104.5 105q-39 68 -58 154q-15 68 -15 144q0 19 1 40z" />
<glyph unicode="D" horiz-adv-x="827" d="M6 1069q64 48 148.5 79.5t171.5 31.5q123 0 232.5 -55.5t166.5 -145.5q84 -132 85 -322q0 -78 -15 -165q47 10 97.5 42.5t61.5 69.5l37 -8q-12 -53 -76 -95.5t-129 -58.5q-21 -100 -61 -187t-100.5 -159.5t-148.5 -117.5t-193 -52q-93 0 -164.5 44t-81.5 118q-2 15 -2 29 q0 92 88 174q39 36 102 67q-88 17 -129 64q39 270 103 600q-94 -67 -144 -168q-31 44 -45 102q-8 34 -8 67q0 23 4 46zM138 122q4 -45 45.5 -77.5t115.5 -32.5q66 10 122.5 48.5t95 96.5t64.5 117t44 125q-16 -3 -57 -9t-60 -9q-188 -23 -275 -82q-48 -33 -73 -83 q-22 -43 -22 -83v-11zM268 377q81 30 232 49q12 2 137 18q32 127 32 237q0 114 -34 212q-38 114 -140 161q-55 25 -114 25q-50 0 -102 -18q65 -27 96 -84q-61 -285 -107 -600z" />
<glyph unicode="E" horiz-adv-x="675" d="M2 182v16q0 74 25 152q28 86 91 157.5t146 90.5q-46 56 -52 140q-1 11 0 22q0 72 30 143q64 159 221 277q66 0 125 -41q3 5 10.5 19.5t11.5 21.5q73 0 150 -41q-101 -157 -101 -287q-51 5 -90.5 36.5t-48.5 82.5q1 3 43 102q-65 -25 -120 -87t-83 -130q-28 -67 -28 -131 q0 -67 37 -100q24 6 61 6q51 0 62 -35q9 -30 -20 -52q-22 -16 -56 -16q-36 0 -88 23q-72 -51 -118.5 -125t-57.5 -146q-5 -33 -5 -64q-1 -38 7 -73q14 -64 60.5 -103.5t115.5 -39.5q79 2 156.5 54t135.5 134t94 192.5t36 223.5l47 -37q0 -83 -23 -172.5t-68.5 -172.5 t-106 -149.5t-143.5 -106.5t-173 -40q-113 0 -196 73t-87 183z" />
<glyph unicode="F" horiz-adv-x="698" d="M0 559q14 85 72 131q9 0 54 -1t54 -1q8 48 20 115t25.5 141.5t18.5 102.5q-108 0 -158 -19q23 111 82 152q79 0 209 -13t231 -13.5t193 26.5q0 -49 -18 -96t-46 -74q-26 -5 -63 -5q-16 0 -34 1q-60 3 -96.5 7.5t-99 13.5t-104.5 13q47 -31 70 -61q-34 -158 -60 -305 q59 -8 130 -8h16q80 1 125 20q0 -45 -19.5 -93.5t-46.5 -72.5q-32 -7 -72 -7q-66 0 -155 19q-6 -47 -18.5 -135.5t-18.5 -134t-14.5 -118t-14.5 -144.5q-42 2 -87 19.5t-71 46.5q8 67 9 77q2 29 2 55q1 92 -21 164q-28 92 -94 197zM41 563q67 -95 94 -184q2 20 14 90t15 92 q-44 4 -80 4q-23 0 -43 -2z" />
<glyph unicode="G" horiz-adv-x="776" d="M2 372q-1 19 -1 38q0 93 30 196q38 135 102.5 254.5t153 206.5t182.5 113q66 0 125 -41q3 5 10.5 19.5t11.5 21.5q73 0 150 -41q-100 -156 -100 -287q-51 5 -91 36.5t-49 82.5q1 3 43 102q-185 -79 -296 -288q-97 -183 -100 -384v-14q0 -172 74 -257q49 -56 122 -56 q70 0 133 53q9 57 26 184q14 94 14 157q0 28 -3 50q42 0 100.5 -18t81.5 -43q-5 -36 -15.5 -106.5t-15.5 -106.5l-24 -170q62 30 120.5 132t85.5 216q18 74 18 128q0 30 -5 54l51 -37q4 -24 4 -50q0 -68 -24 -153q-34 -118 -105.5 -224.5t-157.5 -149.5q-21 -151 -32 -219 q-13 -87 -51 -158.5t-106.5 -118.5t-154.5 -47q-108 17 -153 95q-30 50 -30 109q0 33 9 68q12 51 48 96t91 79t102 56.5t109 45.5l7 51q-76 -47 -168 -47q-93 0 -165 48.5t-110.5 131t-46.5 192.5zM211 -301q-6 -25 -6 -48q0 -40 18 -76q28 -56 88 -56q116 51 148 284 q2 18 7 55t7 56q-51 -21 -80.5 -35.5t-73.5 -42t-71 -62t-37 -75.5z" />
<glyph unicode="H" horiz-adv-x="1081" d="M12 201q10 36 33.5 69t48 56t66.5 49.5t67.5 39.5t75 37t66.5 33q16 93 47.5 281t48.5 281q-42 -9 -161 -57t-187 -48q-31 29 -48.5 73.5t-17.5 90.5q37 -8 73 -8l53 4q63 10 104 27t98.5 34t109.5 17q35 0 88 -19t82 -47q-51 -219 -102 -532q180 101 289 202 q36 218 69 396q182 0 238 -74q0 -53 -36 -115t-79 -98q-70 -369 -127 -821q0 -2 -1.5 -15.5t-2 -20t-1.5 -20.5t-0.5 -22t1.5 -20t4 -19.5t7 -14.5t10.5 -10.5t15.5 -3.5q69 87 143 301.5t89 376.5l59 -33q-27 -177 -121.5 -432.5t-177.5 -298.5q-106 0 -154 74 q-37 58 -37 144q0 23 3 48q27 251 77 560q-122 -94 -282 -177q-13 -83 -21 -151q-11 -77 -35.5 -145.5t-65.5 -130.5t-105.5 -99t-145.5 -37q-102 17 -144 96q-25 47 -25 102q0 37 11 77zM88 180q-10 -31 -9 -60q1 -34 13 -64q24 -56 82 -56q64 27 100.5 100t57.5 183 q7 34 20 112q-8 -4 -50.5 -24t-57 -27.5t-48 -29t-49 -37.5t-33.5 -42t-26 -55z" />
<glyph unicode="I" horiz-adv-x="438" d="M2 131q42 -14 116 -18q25 -1 46 -1q44 0 76 5q-59 21 -86 51q25 297 127 848q-52 -6 -107 -6q-26 19 -40 64q-11 37 -12 84q0 11 1 22q58 -23 114 -23t127.5 11.5t120.5 11.5q62 -44 76 -133q-55 0 -176 -17q23 -15 66 -53q-86 -405 -134 -846h48q61 -40 75 -131 q-64 0 -192.5 -18.5t-194.5 -18.5q-27 17 -41 63q-11 37 -11 84q0 10 1 21z" />
<glyph unicode="J" horiz-adv-x="669" d="M4 -74q6 62 43 117q18 25 45 49.5t49 40t63.5 37t58.5 29.5t66.5 28.5t57.5 24.5q29 188 57 358q42 254 72 424q-132 -26 -186 -26q-51 48 -51 172q50 -22 104.5 -22t134 11t137.5 11q61 -45 76 -133q-31 5 -66.5 5t-74.5 -5q50 -22 98 -74q-37 -158 -82 -402 q-20 -111 -39 -235q108 56 167 118.5t59 149.5l30 -31q0 -93 -69 -162t-195 -135q-21 -129 -39 -258q-13 -87 -51 -158.5t-106 -118t-154 -46.5q-68 0 -118.5 33.5t-72.5 83.5q-16 39 -16 85q0 14 2 29zM116 -194q36 -37 95 -37q112 49 145 282q11 61 21 137 q-144 -67 -187 -97q-58 -40 -86 -89q-26 -53 -26 -103q0 -54 38 -93z" />
<glyph unicode="K" horiz-adv-x="1032" d="M12 201q10 36 33.5 69t48 56t66.5 49.5t67.5 39.5t75 37t66.5 33q16 93 47.5 281t48.5 281q-42 -9 -161 -57t-187 -48q-31 29 -48.5 73.5t-17.5 90.5q37 -8 73 -8l53 4q63 10 104 27t98.5 34t109.5 17q35 0 88 -19t82 -47q-51 -219 -102 -532q190 112 301 283.5 t111 385.5q86 0 153 -71q-41 -182 -188 -363t-330 -293q77 -14 119 -59q33 -53 89 -158.5t98 -183t108.5 -160t136.5 -123.5q-29 -32 -89 -51.5t-99 -19.5q-51 50 -100 129t-87.5 161.5t-75 164t-78.5 153.5t-83 112q-11 -73 -21 -151q-11 -77 -35.5 -145.5t-65.5 -130.5 t-105.5 -99t-145.5 -37q-102 17 -144 96q-25 47 -25 102q0 37 11 77zM88 180q-10 -31 -9 -60q1 -34 13 -64q24 -56 82 -56q64 27 100.5 100t57.5 183q7 34 20 112q-8 -4 -50.5 -24t-57 -27.5t-48 -29t-49 -37.5t-33.5 -42t-26 -55z" />
<glyph unicode="L" horiz-adv-x="753" d="M0 -74q0 94 68 148q20 0 30 -2q63 476 99 702q51 297 235 406q37 0 79 -12t67 -29q10 22 22 41q73 0 150 -41q-101 -157 -101 -287q-51 5 -90.5 36.5t-48.5 82.5q1 3 43 102q-145 -64 -191 -342q-30 -173 -96 -686q53 -7 119.5 -27t120 -40.5t126 -39t136.5 -22.5 q13 -1 27 0q54 0 123 10q0 -37 -18 -83.5t-48 -73.5q-16 -2 -34 -2q-48 -1 -114 15q-90 22 -167.5 53t-165.5 59.5t-140 31.5q-68 -35 -129 -35q-4 1 -6 1q-64 2 -96 34z" />
<glyph unicode="M" horiz-adv-x="1490" d="M0 1106q38 -8 74 -8l52 4q63 10 104 27t98.5 34t109.5 17q14 0 28 -2t24 -3.5t24 -7.5t20 -8t20.5 -11t17.5 -10.5t19 -12t17 -11.5q-50 -216 -92 -457q70 158 160.5 284.5t220.5 238.5q78 0 168 -74q-45 -192 -88 -444q151 339 379 518q46 0 97 -22t71 -44 q-89 -390 -148 -838q-1 -6 -4.5 -36.5t-6.5 -57.5t-7 -66t-4.5 -70t1 -59.5t8.5 -44.5t19 -16q69 86 143 300.5t91 377.5l59 -33q-17 -106 -63 -260t-113.5 -298t-124.5 -173q-51 0 -87.5 17t-55 55.5t-28.5 70.5q-10 30 -10 87q1 3 1 6q0 61 2 90.5t9 94.5v3.5t0.5 3.5 t0.5 4q32 270 107 686q-196 -169 -309 -421q-51 -118 -77.5 -265.5t-45.5 -345.5q-44 3 -87.5 20t-68.5 46q17 332 137 1001q-186 -176 -296 -439.5t-136 -553.5q-42 0 -85.5 17.5t-70.5 48.5q18 322 140 981q-44 -10 -162.5 -57.5t-185.5 -47.5q-31 29 -48.5 73.5 t-17.5 90.5z" />
<glyph unicode="N" horiz-adv-x="1087" d="M0 1106q38 -8 74 -8l52 4q63 10 104 27t98.5 34t109.5 17q14 0 28 -2t24 -3.5t24 -7.5t20 -8t20.5 -11t17.5 -10.5t19 -12t17 -11.5q-50 -216 -92 -457q144 324 416 523q98 -6 168 -66q-92 -401 -146 -838q-25 -168 -24 -256q0 -94 28 -94q69 86 143 300.5t91 377.5 l59 -33q-17 -106 -63 -260t-113.5 -298t-124.5 -173q-35 0 -63 10t-47.5 23.5t-33 40t-21.5 48t-11 59t-4 60.5v13q0 21 2 53q3 43 5 63t7 62q33 296 113 719q-402 -306 -467 -991q-42 0 -85.5 17.5t-70.5 48.5q18 322 140 981q-44 -10 -162.5 -57.5t-185.5 -47.5 q-31 29 -48.5 73.5t-17.5 90.5z" />
<glyph unicode="O" horiz-adv-x="802" d="M0 442q0 57 2 88q12 45 45.5 68.5t83.5 38.5q-17 59 -17 121q0 30 4 62q12 96 58 179t120.5 132t166.5 49q108 0 172 -56q75 -63 113 -174q36 -105 35 -222v-13q-2 -124 -36.5 -253.5t-93 -232.5t-145.5 -169t-184 -66q-69 0 -124 27t-90.5 70.5t-60 103t-35.5 120.5 t-14 127zM158 439v-12q0 -74 12 -152q12 -84 50.5 -145.5t96.5 -61.5q41 0 80 34.5t69.5 93.5t54.5 125.5t42 141.5q-60 -39 -138 -42h-12q-73 -1 -137 33q-70 36 -104 107q-13 -42 -14 -122zM240 786q-1 -13 -2 -25q0 -69 26 -132q35 -81 108 -121q37 -20 75 -19 q38 0 77 19q8 6 22.5 0.5t22.5 -21.5q34 158 34 291q0 83 -13 156q-12 67 -45.5 106t-81.5 45q-45 0 -98.5 -43.5t-83.5 -101.5q-35 -72 -41 -154z" />
<glyph unicode="P" horiz-adv-x="698" d="M6 1069q64 48 148.5 79.5t171.5 31.5q170 0 280 -93q60 -52 88 -117q24 -56 24 -112v-18q-4 -64 -34.5 -127.5t-80 -114.5t-118 -86.5t-143.5 -46.5q-24 8 -55 35q-41 -274 -68 -572q-43 2 -87.5 18.5t-70.5 45.5q23 437 138 1030q-94 -67 -144 -168q-31 44 -45 102 q-8 34 -8 67q0 23 4 46zM279 1061q65 -27 96 -84q-36 -162 -84 -442q46 0 92.5 27t82.5 70.5t61 98.5t33 109q2 18 2 36q0 36 -10 72q-16 52 -56 86q-54 45 -123 45q-44 0 -94 -18z" />
<glyph unicode="Q" horiz-adv-x="806" d="M-61 -6q4 26 27 50t57 24q64 0 141 -23q-79 56 -117 163t-43 234v88q23 76 131 107q-17 59 -17 121q0 31 4 62q13 96 58 179q46 83 120 132t165 49q107 0 174 -56q75 -63 112 -174q35 -105 35 -222v-13q-2 -124 -36 -253.5t-92.5 -232.5t-145.5 -169t-184 -66q-6 0 -17 1 t-16 1q39 -17 100 -45.5t102 -47.5t96 -40t97.5 -30.5t89.5 -10.5h4q45 0 84 14q0 -107 -86 -147q-80 0 -163.5 31.5t-158.5 76t-152.5 89.5t-174 76.5t-194.5 31.5zM162 469q-1 -20 -1 -40q0 -42 5 -87q7 -69 23.5 -130.5t51 -102.5t81.5 -41q41 0 80 34.5t69.5 93.5 t54 125.5t41.5 141.5q-60 -39 -138 -42h-12q-71 0 -137 33q-70 37 -104 107q-10 -33 -14 -92zM244 786q-1 -12 -1 -25q0 -69 25 -132q35 -81 108 -121q37 -19 75 -19t77 19q8 6 22.5 0.5t22.5 -21.5q34 156 34 290q0 83 -13 157q-12 67 -45.5 106t-81.5 45 q-45 0 -98.5 -43.5t-83.5 -101.5q-36 -71 -41 -154z" />
<glyph unicode="R" horiz-adv-x="772" d="M6 1069q64 48 148.5 79.5t171.5 31.5q170 0 280 -93q66 -59 94 -133q18 -49 19 -96q1 -24 -5 -50q-14 -72 -55 -139.5t-109 -118t-149 -73.5q32 -13 58 -39q30 -41 80.5 -119.5t94 -143.5t95.5 -135t108 -122t109 -76q-29 -33 -88.5 -53t-99.5 -20q-53 43 -106 114 t-96.5 148t-86.5 154t-92.5 149t-97.5 115q-30 -203 -60 -521q-43 2 -87.5 18.5t-70.5 45.5q23 437 138 1030q-94 -67 -144 -168q-31 44 -45 102q-8 34 -8 67q0 23 4 46zM279 1061q65 -27 96 -84q-36 -162 -84 -442q46 0 92.5 27t82.5 70.5t61 98.5t33 109q2 18 2 36 q0 36 -10 72q-16 52 -56 86q-54 45 -123 45q-44 0 -94 -18z" />
<glyph unicode="S" horiz-adv-x="688" d="M16 174q18 55 54 99.5t87 77.5t97 54t108 44q-12 16 -45 61t-45.5 63t-38 58.5t-34.5 64t-21 62.5q-12 38 -13 68q1 30 7 74q6 40 21 81q59 153 227 199q57 0 104 -17q1 3 4 8.5t4 8.5q68 0 142 -52q-61 -130 -61 -233q0 -15 1 -29q-50 0 -93 28.5t-56 78.5q12 49 27 102 q-70 0 -113 -56.5t-43 -125.5q0 -46 11 -88.5t36 -85t44 -70t57 -75t53 -68.5q29 9 115 32t141.5 40.5t83.5 33.5l36 -47q-28 -17 -84 -35.5t-135 -41t-121 -37.5q58 -103 62 -207v-18q0 -94 -39 -170q-43 -82 -130 -140t-202 -74q-148 0 -220 100q-45 61 -45 135 q0 46 17 97zM98 174q-19 -47 -19 -89q1 -45 23 -83q44 -74 144 -74q88 26 140 79t64 118q5 31 5 62q0 35 -7 71q-13 68 -49 131q-49 -18 -72.5 -27.5t-67 -31t-68.5 -40.5t-51.5 -50t-41.5 -66z" />
<glyph unicode="T" horiz-adv-x="708" d="M0 1028q0 45 22.5 89t55.5 63q87 0 239 -15.5t266.5 -15.5t207.5 31q0 -62 -11 -101t-41 -69q-31 -6 -80 -6q-91 0 -241 20q39 -20 67 -45q-97 -462 -153 -1051q-43 2 -87.5 18.5t-70.5 45.5q21 380 145 1044q-102 12 -176 12q-95 0 -143 -20z" />
<glyph unicode="U" horiz-adv-x="1024" d="M0 1106q36 -7 71 -7l55 4q63 10 104 27t98.5 33.5t109.5 16.5q39 0 89.5 -20.5t80.5 -45.5q-78 -338 -133 -725q-7 -44 -7 -91v-8q0 -44 6 -93q6 -54 28.5 -88.5t60.5 -34.5q43 0 91 50t83 120q1 5 2 14.5t2 13.5q6 61 22.5 177t16.5 120q40 258 109 611q98 -6 168 -66 q-67 -303 -107 -559q-20 -122 -39 -279q-26 -168 -26 -255q0 -93 30 -93q69 85 143 299t91 379l59 -35q-17 -106 -63 -259.5t-113.5 -297t-124.5 -172.5q-58 0 -97 24t-56 68q-18 42 -24 90q-4 32 -4 70q0 19 1 39q-38 -58 -89.5 -95.5t-105.5 -37.5q-63 0 -109.5 26 t-70.5 70t-38 100q-12 48 -12 99v19q2 60 9 120q41 292 103 613q-44 -10 -162.5 -57.5t-185.5 -47.5q-30 29 -48 74t-18 90z" />
<glyph unicode="V" horiz-adv-x="1042" d="M0 1106q36 -7 71 -7l55 4q63 10 104 27t98.5 33.5t109.5 16.5q41 0 92.5 -24t79.5 -50q-115 -627 -141 -1032q284 806 541 1177q41 0 97 -22t79 -49q-202 -220 -395 -575t-302 -677q-58 0 -113 24t-73 48q0 68 3.5 139t12.5 158.5t14.5 142t20.5 162.5t20 143.5t24 161 t22 142.5q-46 -10 -166 -58.5t-188 -48.5q-30 29 -48 74t-18 90z" />
<glyph unicode="W" horiz-adv-x="1536" d="M0 1106q36 -7 71 -7l55 4q63 10 104 27t98.5 33.5t109.5 16.5q35 0 88.5 -22t83.5 -52q-67 -365 -110 -911q210 549 383 911q118 0 190 -72q-115 -633 -141 -1034q293 838 543 1251q44 0 113 -22.5t91 -48.5q-193 -175 -380.5 -530.5t-350.5 -807.5q-56 0 -109 29t-73 55 q1 132 17 301.5t32 287t45 312.5q-175 -326 -342 -827q-57 0 -112 24.5t-76 49.5q2 394 90 975q-26 0 -167 -53.5t-187 -53.5q-30 29 -48 74t-18 90z" />
<glyph unicode="X" horiz-adv-x="845" d="M8 98q296 441 391 574q-78 205 -180 508q106 -6 203 -66q57 -215 82 -295q180 242 274 361q39 0 90 -20t80 -46q-216 -207 -395 -448q154 -482 324 -824q-74 0 -162 72q-98 191 -264 621q-180 -240 -424 -607q-25 37 -25 100q0 32 6 70z" />
<glyph unicode="Y" horiz-adv-x="1005" d="M0 1106q36 -7 71 -7l55 4q63 10 104 27t98.5 33.5t109.5 16.5q39 0 89.5 -20.5t80.5 -45.5q-78 -338 -133 -725q-6 -44 -7 -91v-8q0 -44 6 -93q5 -54 28 -88.5t61 -34.5q43 0 91 50t83 120q1 5 2 14.5t2 13.5q6 61 22.5 177t16.5 120q40 258 109 611q98 -6 168 -66 q-67 -303 -107 -559q-18 -115 -37.5 -259t-31.5 -220q101 61 169 207t68 323l51 -37q0 -193 -84.5 -352t-214.5 -225q-5 -39 -16 -112.5t-16 -106.5q-13 -87 -51 -159t-106.5 -119.5t-154.5 -47.5q-108 17 -154 95q-30 53 -30 114q0 31 8 65q39 161 350 275q3 24 10 66t9 59 q-38 -53 -87 -87t-100 -34q-63 0 -109.5 26t-70.5 70t-38 100q-12 48 -12 99v19q3 60 9 120q41 292 103 613q-44 -10 -162.5 -57.5t-185.5 -47.5q-30 29 -48 74t-18 90zM428 -299q-6 -25 -6 -48q0 -40 18 -76q28 -56 88 -56q113 49 146 282q3 19 8 56t8 55 q-40 -17 -63 -27.5t-61.5 -32t-62 -41t-45.5 -49.5t-30 -63z" />
<glyph unicode="Z" horiz-adv-x="700" d="M6 -14q9 48 33 94q46 83 132.5 135t205.5 92q-53 75 -130.5 120.5t-166.5 45.5q-12 19 -12 40.5t12 45.5q42 9 106 39.5t138 80t141 108t117.5 130.5t64.5 140q-51 0 -109.5 -18t-103 -39.5t-102 -39.5t-107.5 -18q-28 25 -46.5 70t-18.5 94q39 -7 78 -7q32 0 65 5 q71 10 116.5 27t108.5 33t119 16q33 0 68.5 -36t48.5 -75q0 -82 -42.5 -160t-103 -134t-142 -106.5t-143.5 -79.5t-124 -52q180 -60 297 -193q107 27 193.5 92t127.5 170l37 -47q-26 -84 -118 -158t-199 -112q13 -22 16 -29q43 -78 59 -160q7 -36 7 -74q-1 -46 -11 -92 q-20 -84 -83 -147q-42 -41 -110.5 -66.5t-131.5 -25.5q-55 0 -98 9.5t-71.5 28t-43 32t-31.5 34.5q-32 39 -42 89q-5 26 -5 52q0 23 4 46zM100 29q-21 -50 -20 -94q0 -50 26 -93q28 -45 74.5 -59t114.5 -14q70 31 112 86.5t53 121.5q5 32 5 66q1 35 -5 71q-12 70 -46 136 q-53 -17 -94 -34.5t-88 -44t-81 -62.5t-51 -80z" />
<glyph unicode="[" horiz-adv-x="522" d="M0 -94q69 535 207 1419h207q23 -25 37 -63t8 -72h-125q-79 -468 -189 -1215h125q24 -22 37.5 -61t9.5 -74h-190q-38 0 -73 19.5t-54 46.5z" />
<glyph unicode="\" horiz-adv-x="563" d="M0 1180q68 0 170 -66q183 -645 332 -1114q-77 0 -158 66q-178 542 -344 1114z" />
<glyph unicode="]" horiz-adv-x="575" d="M2 -158q-4 32 11 71t38 64h123q63 448 178 1211h-125q-4 34 10 73.5t37 63.5h101q81 0 139 -65q-114 -636 -221 -1420q-102 2 -291 2z" />
<glyph unicode="^" horiz-adv-x="311" d="M2 1151q2 27 8 35l131 65l107 -65q3 -47 -31 -86l-92 57l-115 -57q-10 24 -8 51z" />
<glyph unicode="_" horiz-adv-x="753" d="M0 -74q9 35 27 74h665q-8 -35 -28 -74h-664z" />
<glyph unicode="`" horiz-adv-x="292" d="M0 1251q136 0 188 -30l43 -105q-76 0 -133 31z" />
<glyph unicode="a" d="M4 246q40 313 266 479q76 0 146 -55q1 9 4 27.5t4 27.5q43 0 87 -20t75 -48q-53 -314 -64 -446q-2 -26 -2 -48q0 -91 35 -91q40 0 79.5 76t63 178t23.5 184l45 -49q0 -50 -9 -108t-29.5 -121.5t-49 -114.5t-73 -84t-97.5 -33q-74 0 -109.5 46.5t-42.5 119.5 q-93 -166 -194 -166q-50 0 -85 23t-51 60.5t-22 78.5q-3 21 -2 44q0 20 2 40zM178 244q-4 -42 -4 -74q0 -98 39 -98q51 0 145 192q4 45 10.5 98t12 88t16.5 100t15 91q-58 -25 -102 -71.5t-70 -104.5t-40.5 -111.5t-21.5 -109.5z" />
<glyph unicode="b" horiz-adv-x="542" d="M2 231q3 40 8.5 87.5t10 79.5t12.5 89t12 82q40 258 109 611q96 -6 170 -66q-44 -186 -86 -422q26 22 41 33q62 0 122 -23t80 -45q33 -68 33 -174v-18q15 -3 29 -3q38 0 74 20q49 26 77 89l33 -16q-25 -69 -87 -109q-60 -38 -125 -38h-7q-20 -144 -99 -254.5t-188 -153.5 q-30 0 -46 0.5t-42 4t-42.5 11t-33.5 21.5t-28 35q-27 51 -27 136v23zM168 211q-1 -12 0 -22q0 -41 11 -71q15 -38 40 -44q77 28 136 135.5t59 224.5q-49 29 -69.5 64.5t-20.5 91.5q-32 -11 -67 -45t-56 -78q-26 -184 -33 -256z" />
<glyph unicode="c" horiz-adv-x="530" d="M2 306q5 78 33 145q70 169 213 274q66 0 125 -41q7 18 22 41q70 0 150 -41q-40 -60 -70.5 -138.5t-30.5 -146.5q-51 3 -90.5 34.5t-48.5 84.5q7 19 24 56.5t19 43.5q-119 -74 -170 -225q-10 -32 -17 -74.5t-8 -92.5v-6q-1 -48 15 -88q16 -42 51 -58q87 0 176.5 72.5 t145 177t55.5 196.5h37q0 -87 -39 -182t-98.5 -168.5t-134.5 -121.5t-142 -48q-81 0 -134 45t-71 114q-14 54 -13 112q0 18 1 35z" />
<glyph unicode="d" d="M4 246q40 313 266 479q76 0 146 -55q27 169 92 510q45 -3 91 -21t77 -45q-60 -255 -107 -559q-42 -265 -47 -344q-2 -26 -2 -48q0 -91 35 -91q40 0 79.5 76t63 178t23.5 184l45 -49q0 -50 -9 -108t-29.5 -121.5t-49 -114.5t-73 -84t-97.5 -33q-74 0 -109.5 46.5 t-42.5 119.5q-93 -166 -194 -166q-50 0 -85 23t-51 60.5t-22 78.5q-3 21 -2 44q0 20 2 40zM178 244q-4 -42 -4 -74q0 -98 39 -98q51 0 145 192q4 46 10.5 96t16.5 113.5t14 95.5q1 8 6 33t7 39q-58 -25 -102 -71.5t-70 -104.5t-40.5 -111.5t-21.5 -109.5z" />
<glyph unicode="e" horiz-adv-x="499" d="M2 306q5 78 33 145q70 170 213 274q87 0 159.5 -40t98.5 -103q-22 -118 -111.5 -201.5t-206.5 -83.5q-16 8 -26 25q-8 -54 -8 -97q0 -120 65 -151q87 0 176.5 72.5t145 177t55.5 196.5h37q0 -87 -39 -182t-98.5 -168.5t-134.5 -121.5t-142 -48q-81 0 -134 45t-71 114 q-14 54 -13 112q0 18 1 35zM166 340q45 0 84.5 31t64 76.5t38.5 94.5t14 89q-79 -41 -131 -120t-70 -171z" />
<glyph unicode="f" horiz-adv-x="450" d="M6 -160q14 119 32.5 242.5t47.5 303t39 241.5q-6 -1 -19.5 -4.5t-19.5 -4.5q0 28 11 61t22 46h24q43 258 82 453q98 -6 168 -66q-29 -125 -78 -387h361q6 -10 8 -25t-4 -26q-73 0 -197 -5t-178 -12q55 -116 73 -289q8 -86 8 -171t-8 -167q-18 -165 -61.5 -309 t-101.5 -213q-125 0 -176 87q-38 64 -38 167q0 37 5 78zM166 -261.5q0 -26.5 3 -45t11.5 -38t22.5 -30.5q86 161 113 439q8 89 8 170q0 174 -39 313q-76 -455 -109 -705q0 -2 -3 -24.5l-5 -37.5t-2 -41.5z" />
<glyph unicode="g" horiz-adv-x="622" d="M-12 -281q12 51 48 96t91 79t102 56.5t109 45.5l10 76q2 15 12 88q-92 -160 -192 -160q-50 0 -85 23.5t-50 59.5t-22 79q-3 21 -3 40q0 23 4 44q37 313 264 479q84 0 158 -66q2 10 5 32.5t5 33.5q42 0 86.5 -20.5t73.5 -47.5q-31 -185 -61 -413l-25 -170q69 33 115 83.5 t74 136.5t28 204l51 -37q0 -101 -21.5 -179.5t-62.5 -132.5t-87 -90t-109 -67q-14 -105 -33 -221q-10 -65 -34.5 -122t-62.5 -103t-93.5 -72.5t-120.5 -26.5q-108 17 -154 95q-29 50 -29 109q0 33 9 68zM63 -301q-6 -24 -6 -47q0 -41 19 -77q28 -56 88 -56q114 51 147 284 q2 18 7.5 55t7.5 56q-41 -17 -63.5 -27.5t-61.5 -32t-62.5 -41.5t-45.5 -50t-30 -64zM184 244q-4 -42 -4 -74q0 -98 39 -98q53 0 160 219q7 51 53 356q-61 -22 -108.5 -69t-75 -106t-42.5 -114.5t-22 -113.5z" />
<glyph unicode="h" d="M0 66q8 155 39.5 379.5t56 362t68.5 372.5q96 -6 170 -66q-66 -285 -121 -639q80 146 225 250q83 -12 148 -68q-53 -314 -64 -446q-2 -26 -2 -48q0 -91 35 -91q40 0 79.5 76t63 178t23.5 184l45 -49q0 -50 -9 -108t-29.5 -121.5t-49 -114.5t-73 -84t-97.5 -33 q-47 0 -80 21t-48 57q-16 34 -21 72q-4 27 -4 57q0 12 1 24q4 58 11.5 118t21 146t17.5 117q-56 -43 -98.5 -100.5t-67 -112t-42.5 -130t-26 -130.5t-16 -139q-43 2 -87 19.5t-69 46.5z" />
<glyph unicode="i" horiz-adv-x="247" d="M2 231q5 69 43 338q14 92 27 156q41 0 84.5 -20t74.5 -48q-3 -16 -8 -50t-8 -52q-38 -246 -47 -344q-2 -28 -3 -51q0 -32 5 -52q7 -36 33 -36q39 0 78.5 76t63.5 178t24 184l43 -49q0 -50 -8.5 -108t-29 -121.5t-49 -114.5t-72.5 -84t-97 -33q-48 0 -81.5 21t-48.5 57 q-16 34 -21 72q-4 27 -4 57q0 12 1 24zM94 879q0 40 29.5 69t69.5 29q41 0 69.5 -29t28.5 -69q0 -41 -28.5 -70t-69.5 -29q-40 0 -69.5 29t-29.5 70z" />
<glyph unicode="j" horiz-adv-x="253" d="M-381 -281q12 51 48 96t91 79t102 56.5t109 45.5l11 76q43 323 96 653q42 0 86.5 -20.5t73.5 -47.5q-56 -368 -62 -413l-24 -170q69 33 115 83.5t74 136.5t28 204l51 -37q0 -101 -21.5 -179.5t-63 -132.5t-87.5 -89.5t-109 -67.5q-14 -105 -33 -221q-10 -65 -34.5 -122 t-62.5 -103t-93.5 -72.5t-120.5 -26.5q-108 17 -153 95q-30 50 -30 109q0 33 9 68zM-305 -301q-6 -25 -6 -48q0 -40 18 -76q28 -56 88 -56q116 51 148 284q2 19 7 56t7 55q-51 -21 -80.5 -35.5t-73.5 -42t-71 -62t-37 -75.5zM100 879q0 40 28.5 69t68.5 29q41 0 69.5 -29 t28.5 -69q0 -41 -28.5 -70t-69.5 -29q-40 0 -68.5 29t-28.5 70z" />
<glyph unicode="k" horiz-adv-x="585" d="M0 66q8 155 39.5 379.5t56 362t68.5 372.5q96 -6 170 -66q-66 -285 -121 -639q80 146 225 250q52 0 96 -45.5t54 -93.5q-93 -116 -223 -199q30 -2 69 -16q0 -83 18.5 -192.5t43.5 -174.5q95 92 162 239t67 267l45 -49q-4 -142 -81.5 -285t-190.5 -250q-40 0 -84.5 18.5 t-71.5 47.5q-22 69 -46 192.5t-24 196.5q45 29 102.5 89t80.5 126q-78 -24 -142 -102t-94 -156q-40 -105 -63 -338q-43 2 -87 19.5t-69 46.5z" />
<glyph unicode="l" horiz-adv-x="247" d="M2 231q5 69 43 338q40 258 109 611q96 -6 170 -66q-66 -281 -109 -559q-38 -246 -47 -344q-2 -28 -3 -51q0 -32 5 -52q7 -36 33 -36q39 0 78.5 76t63.5 178t24 184l43 -49q0 -50 -8.5 -108t-29 -121.5t-49 -114.5t-72.5 -84t-97 -33q-48 0 -81.5 21t-48.5 57 q-16 34 -21 72q-4 27 -4 57q0 12 1 24z" />
<glyph unicode="m" horiz-adv-x="946" d="M0 66q13 258 82 659q38 0 84 -19.5t78 -46.5q-5 -25 -31 -184q83 150 225 250q73 0 150 -66q-5 -25 -31 -184q83 150 225 250q77 0 148 -68q-53 -314 -64 -446q-2 -28 -3 -51q0 -32 5 -52q7 -36 33 -36q39 0 78.5 76t63.5 178t24 184l43 -49q0 -50 -8.5 -108t-29 -121.5 t-49 -114.5t-72.5 -84t-97 -33q-48 0 -81.5 21t-48.5 57q-16 34 -21 72q-4 27 -4 57q0 12 1 24q3 45 9.5 100.5t11.5 88t16.5 103.5t14.5 91q-162 -125 -217 -381q-22 -97 -35 -233q-43 2 -87 19.5t-69 46.5q11 219 64 546q-167 -131 -218 -379q-20 -89 -34 -233 q-43 2 -87 19.5t-69 46.5z" />
<glyph unicode="n" d="M0 66q13 258 82 659q38 0 84 -19.5t78 -46.5q-5 -25 -31 -184q83 150 225 250q77 0 148 -68q-53 -314 -64 -446q-2 -28 -3 -51q0 -32 5 -52q7 -36 33 -36q39 0 78.5 76t63.5 178t24 184l43 -49q0 -50 -8.5 -108t-29 -121.5t-49 -114.5t-72.5 -84t-97 -33q-48 0 -81.5 21 t-48.5 57q-16 34 -21 72q-4 27 -4 57q0 12 1 24q3 45 9.5 100.5t11.5 88t16.5 103.5t14.5 91q-164 -126 -218 -381q-20 -89 -34 -233q-43 2 -87 19.5t-69 46.5z" />
<glyph unicode="o" horiz-adv-x="552" d="M10 125q-11 42 -11 89q0 72 26 154q42 136 118 236q55 69 125 121q25 0 51 -13.5t39 -29.5q72 0 113 -25q33 -68 33 -174v-18q15 -3 29 -3q38 0 74 20q49 26 77 89l33 -16q-25 -69 -87 -109q-59 -38 -125 -38h-7q-12 -85 -47 -166t-98 -149t-140 -93q-71 0 -129.5 34.5 t-73.5 90.5zM148 141q11 -69 65 -69q58 21 103 84.5t66 136.5t21 141q-75 44 -75 156q-78 -64 -136 -211q-47 -118 -47 -200q0 -20 3 -38z" />
<glyph unicode="p" horiz-adv-x="595" d="M-61 -426q8 176 65 586l84 565q80 0 150 -59q22 28 65 59q60 0 120.5 -23t82.5 -45q38 -84 38 -185q0 -20 -1 -40q130 81 209 215l28 -22q-36 -72 -102.5 -142.5t-145.5 -122.5q-24 -125 -97 -226t-185 -134q-56 0 -94 18q-45 -321 -62 -510q-105 8 -155 66zM184 229 q40 35 140 83t108 53q8 39 8 72q0 17 -2 32q-5 54 -29 87.5t-63 33.5q-24 -10 -44.5 -27.5t-34.5 -34t-26 -46t-19 -46.5t-14 -54t-9.5 -51t-8 -54t-6.5 -48zM200 91.5q16 -19.5 48 -19.5q60 21 101.5 83t64.5 136q-15 -8 -45 -22t-49 -24t-43 -25.5t-42.5 -34t-31.5 -40.5 q-19 -34 -3 -53.5z" />
<glyph unicode="q" horiz-adv-x="616" d="M4 246q40 313 266 479q84 0 158 -66q2 28 10 66q43 0 87 -20.5t73 -51.5q-34 -200 -61 -405q78 109 206 213l37 -37q-135 -100 -199 -207t-85 -278q-4 -30 -17 -133t-22.5 -185t-12.5 -113q-44 3 -87.5 20t-69.5 46q14 225 67 586q-98 -160 -192 -160q-50 0 -85 23 t-51 60.5t-22 78.5q-2 21 -2 44q0 20 2 40zM178 244q-4 -42 -4 -74q0 -98 39 -98q53 0 160 219q7 51 53 356q-61 -22 -108.5 -69t-75 -106t-42.5 -114.5t-22 -113.5z" />
<glyph unicode="r" horiz-adv-x="579" d="M0 66q15 268 82 659q84 -3 162 -66q-5 -25 -31 -184q80 146 225 250q82 0 162 -41q-39 -59 -78 -163.5t-39 -174.5q-50 5 -89.5 36t-49.5 83q16 53 49 137q-53 -43 -93 -100t-63 -110t-40.5 -128t-24.5 -128t-16 -136q-43 2 -87 19.5t-69 46.5z" />
<glyph unicode="s" horiz-adv-x="475" d="M-38 84q4 44 36 84q33 42 79.5 64t117.5 42q-17 27 -33 43q-5 6 -31 37.5t-34 43t-25 37.5t-24 49t-9 48q-1 11 -1 23q0 45 19 85q24 52 76 85q119 0 180 -55q9 29 25 55q67 0 139 -51q-58 -131 -58 -231q0 -15 1 -29h-7q-47 0 -87 26q-42 28 -56 78q3 15 11.5 45.5 t11.5 44.5q-15 7 -28 7q-19 -1 -34 -15q-21 -20 -21 -50q0 -6 1 -13q5 -65 72 -154q2 -2 53 -68q59 19 102 41t85 65t57 99l38 -10q-14 -78 -87.5 -143t-161.5 -101q26 -43 34 -86q4 -20 4 -40q1 -39 -15 -73q-22 -51 -65.5 -80.5t-91.5 -45t-92 -15.5q-59 0 -103 22 q-42 23 -62 58q-16 29 -17 64q0 7 1 14zM67 69q-1 -27 16.5 -48t53.5 -21q47 2 81 50q26 36 27 84q0 15 -3 32q-2 22 -17 51q-110 -35 -145 -96q-12 -25 -13 -52z" />
<glyph unicode="t" horiz-adv-x="436" d="M0 799q0 16 12 33t25 26q113 0 170 2q24 129 45 246q38 0 87.5 -19t80.5 -45q-6 -29 -18.5 -86.5t-18.5 -85.5q126 9 238 21q0 -21 -15.5 -51t-40.5 -41h-194q-28 -142 -43 -244q-4 -30 -16 -106.5t-18.5 -131t-10.5 -106.5q-3 -32 -3 -57q0 -82 35 -82q40 0 79.5 76 t63 178t23.5 184l45 -49q0 -50 -9 -108t-29.5 -121.5t-49 -114.5t-73 -84t-97.5 -33q-47 0 -80 21t-48.5 56t-20.5 73q-3 24 -3 49q0 15 1 32q5 102 43 338q6 45 20.5 130t16.5 100h-197z" />
<glyph unicode="u" horiz-adv-x="561" d="M2 231q5 69 43 338q14 92 27 156q40 0 83.5 -19.5t75.5 -48.5q-3 -16 -8 -50t-8 -52q-38 -246 -47 -344q-2 -24 -2 -44q0 -95 39 -95q40 0 110 125v36q5 75 43 336q14 92 27 156q41 0 85 -20t75 -48q-2 -13 -8 -48t-9 -54q-38 -246 -47 -344q-2 -28 -2 -51q0 -32 4 -52 q7 -36 33 -36q39 0 78.5 76t63.5 178t24 184l43 -49q0 -50 -8.5 -108t-29 -121.5t-49 -114.5t-72.5 -84t-97 -33q-120 0 -145 125q-83 -125 -168 -125q-47 0 -80 21t-49 57q-15 35 -21 73q-4 28 -5 58q0 11 1 22z" />
<glyph unicode="v" horiz-adv-x="550" d="M16 432q17 112 68 293q39 0 83 -20t75 -48q-22 -52 -45 -149.5t-35 -192.5q-10 -78 -10 -131q0 -112 43 -112q84 44 145 150t80 212q-103 65 -103 220q0 33 5 71q54 0 104.5 -11t69.5 -32q27 -52 27 -137q0 -37 -5 -80q15 -3 30 -3q38 0 74 20q50 28 83 89q20 -12 30 -16 q-31 -66 -95 -108q-60 -39 -125 -39h-9q-32 -128 -119.5 -242.5t-200.5 -165.5q-124 0 -168 145q-16 52 -16 127q0 70 14 160z" />
<glyph unicode="w" horiz-adv-x="880" d="M16 432q17 112 68 293q39 0 83 -20t75 -48q-22 -52 -45 -149.5t-35 -192.5q-10 -78 -10 -131q0 -112 43 -112q78 44 141 143q-4 30 -4 65q0 67 14 152q20 128 70 293q38 0 81 -20t74 -48q-22 -51 -44.5 -148.5t-34.5 -193.5q-10 -79 -10 -133q0 -110 42 -110 q84 44 145.5 150t80.5 212q-103 67 -103 223q0 32 4 68q54 0 104.5 -11t69.5 -32q28 -53 29 -139q0 -36 -6 -78q14 -3 29 -2q39 0 75 20q50 28 82 88q18 -11 31 -16q-31 -66 -95 -108q-60 -39 -125 -39h-9q-30 -127 -118 -242t-202 -166q-116 0 -162 127q-77 -87 -168 -127 q-124 0 -168 145q-16 52 -16 127q0 70 14 160z" />
<glyph unicode="x" horiz-adv-x="548" d="M-82 -86q239 321 256 344q-13 34 -38.5 104.5t-41.5 113.5t-40.5 102t-47.5 106q34 18 90.5 29.5t100.5 11.5q27 -102 92 -313q120 164 215 313q16 -13 29.5 -44.5t13.5 -62.5l-228 -294q49 -144 95 -252q53 12 98.5 63.5t75 124t47.5 134.5t29 124q8 -4 24.5 -12 t24.5 -12q-28 -173 -101 -308q-88 -159 -204 -186q-54 0 -100.5 22.5t-65.5 65.5q-3 9 -37 90l-260 -338q-11 11 -19 35.5t-8 38.5z" />
<glyph unicode="y" horiz-adv-x="561" d="M-74 -281q12 51 48 96t91 79t102 56.5t109 45.5l11 76v6q-68 -78 -133 -78q-47 0 -80 21t-48.5 56.5t-21.5 74.5q-3 24 -3 50q0 15 1 29q5 102 43 338q4 26 12.5 78.5t12.5 77.5q40 0 83.5 -19.5t75.5 -48.5q-4 -38 -16 -102q-5 -36 -16 -108t-19 -128.5t-12 -107.5 q-2 -24 -2 -43q0 -96 41 -96q38 0 94 100q43 290 84 553q42 0 86.5 -20.5t73.5 -47.5q-56 -368 -62 -413l-24 -170q69 33 115 83.5t74 136.5t28 204l51 -37q0 -101 -21.5 -179.5t-63 -132.5t-87.5 -89.5t-109 -67.5q-19 -142 -32 -221q-13 -87 -51 -158.5t-106.5 -118.5 t-154.5 -47q-108 17 -154 95q-29 50 -29 109q0 33 9 68zM2 -301q-6 -25 -6 -48q0 -40 18 -76q28 -56 88 -56q116 51 148 284q2 18 7 55t7 56q-51 -21 -80.5 -35.5t-73.5 -42t-71 -62t-37 -75.5z" />
<glyph unicode="z" horiz-adv-x="571" d="M-53 -281q25 118 196 209q45 25 95 43q-42 124 -115 174q-25 18 -24 43t24 41q21 5 70 41t105 90t104.5 131t62.5 150q-38 -17 -87.5 -51.5t-86.5 -62t-86 -49t-94 -21.5q-39 13 -76 51.5t-37 89.5q52 0 114.5 20t111.5 43.5t109.5 43.5t108.5 20q33 0 69.5 -36t49.5 -73 q-10 -64 -50 -130.5t-97 -122t-111 -98t-108 -75.5q93 -55 165 -172q82 32 139.5 86t87.5 120.5t43 133t13 140.5l51 -37q0 -100 -27 -192.5t-97 -179.5t-177 -132q40 -82 40 -179q-1 -6 -1 -12q-2 -104 -59 -184q-43 -62 -109 -98.5t-143 -36.5q-107 17 -153 95 q-29 50 -30 109q0 33 9 68zM23 -301q-6 -25 -6 -48q0 -40 18 -76q28 -56 88 -56q51 23 84.5 67.5t47 98.5t13.5 109.5t-12 107.5q-40 -18 -70 -33q-139 -73 -163 -170z" />
<glyph unicode="{" horiz-adv-x="524" d="M0 -94q24 193 78 561q22 90 -47 90q8 34 28 64q22 0 35.5 20t20.5 72q70 463 94 612h205q23 -25 37 -63t10 -72h-125q-17 -97 -52.5 -318.5t-39.5 -244.5q-11 -19 -43 -37q19 -16 32 -35q-13 -82 -44 -289t-44 -289h101q23 -25 37 -64t8 -73h-164q-38 0 -73 19.5 t-54 46.5z" />
<glyph unicode="|" horiz-adv-x="411" d="M0 -94q72 546 209 1419q69 0 141 -65q-52 -287 -119.5 -717.5t-103.5 -702.5q-33 0 -69 20t-58 46z" />
<glyph unicode="}" horiz-adv-x="522" d="M2 -25h125q54 330 90 564q15 21 45 39q-26 19 -33 32q24 173 86 578h-98q-23 24 -37 63.5t-10 73.5h166q38 0 73.5 -19.5t51.5 -45.5q-23 -185 -78 -560q0 -1 -1.5 -10.5t-2 -16t-0.5 -17t3 -18t8.5 -15t16 -11.5t25.5 -4q-9 -35 -31 -63q-21 0 -33.5 -19.5t-21.5 -72.5 q-12 -83 -92 -613h-207q-23 25 -37 63t-8 72z" />
<glyph unicode="~" horiz-adv-x="450" d="M2 524q-6 70 45 129q37 13 66 9t64 -12.5t65 -17t69 -4.5t78 25q0 -79 -43 -131q-42 -11 -73 -4.5t-64.5 16t-62 18.5t-66.5 3t-78 -31z" />
<glyph unicode="&#xa1;" horiz-adv-x="333" d="M0 -51q94 462 147 844q40 0 87.5 -20.5t68.5 -47.5q-53 -366 -133 -842q-96 6 -170 66zM162 944q-17 53 28 94q32 24 65 24.5t57 -24t20 -61.5q-5 -35 -33 -60.5t-63 -25.5q-57 0 -74 53z" />
<glyph unicode="&#xa2;" horiz-adv-x="512" d="M1.5 515q4.5 86 35.5 163q64 156 192 260q8 47 21 129t18 113q70 0 140 -66q-2 -13 -13.5 -79.5t-17.5 -102.5q88 -31 133 -92q2 -47 -19 -101.5t-55 -81.5q-24 -21 -53.5 -20t-46.5 27q-18 29 2 63q7 12 22 24t25 24.5t10 33.5q0 25 -27 29t-42 -9q-99 -75 -146 -211 q-10 -31 -17 -73.5t-8 -93t15.5 -93t50.5 -59.5q96 0 197 88q15 0 27 -12t12 -27q-99 -99 -195 -119q-3 -23 -14.5 -104.5t-16.5 -126.5q-35 0 -71 19.5t-58 45.5q21 147 25 183q-66 31 -98 107t-27.5 162z" />
<glyph unicode="&#xa3;" horiz-adv-x="743" d="M0 0q0 91 68 145q20 0 32 -2q14 127 50 381h-56q-4 33 10.5 68t38.5 61h25q3 21 10 61t10 60q51 296 236 406q37 0 78.5 -12t66.5 -29q13 26 23 41q71 0 151 -41q-41 -59 -71.5 -138t-30.5 -149q-51 5 -90.5 36.5t-48.5 82.5q1 3 43 102q-146 -64 -191 -342 q-2 -14 -6 -39t-6 -39h102q0 -77 -43 -129h-79q-31 -205 -54 -391q40 -5 83.5 -6t99.5 2.5t109.5 19t90.5 41.5q0 -41 -20.5 -102t-50.5 -90q-178 -26 -344 0q-32 -20 -75 -29.5t-88.5 -3t-72.5 34.5z" />
<glyph unicode="&#xa4;" horiz-adv-x="954" d="M2 301q31 27 95.5 80t74.5 61l6 4q-32 76 -19.5 154.5t60.5 144.5q-37 41 -115 123q30 85 86 123q55 -63 132 -147l4 -6q68 41 151 41q93 0 166 -56l25 21q37 29 100.5 80t83.5 67q41 -39 41 -123q-131 -100 -176 -137l-4 -2q32 -64 23 -145t-60 -148q111 -134 112 -135 q-5 -29 -25 -62.5t-48 -52.5q-83 101 -137 160q-88 -51 -177 -46t-155 60l-13 -10q-19 -14 -198 -164q-21 19 -29.5 52t-3.5 63zM282.5 569.5q-2.5 -38.5 12.5 -71.5q11 -23 31 -39q53 -38 111.5 -30.5t105.5 50.5q49 44 63 104t-22 117q-37 52 -107 52q-53 0 -100.5 -32 t-73.5 -81q-18 -31 -20.5 -69.5z" />
<glyph unicode="&#xa5;" horiz-adv-x="677" d="M0 1145q62 35 178 35q52 -156 127 -351q133 196 246 351q40 -21 74 -56t53 -73q-140 -184 -289 -402q80 0 121 -2q0 -80 -45 -131h-115q-6 -33 -14 -96h131q0 -82 -45 -133q-18 0 -53 1t-52 1q-11 -92 -32 -291q-42 0 -86.5 17t-69.5 46q6 115 18 228q-47 2 -141 2 q-4 33 10 68.5t37 60.5h111q2 17 7 49.5t7 48.5h-131q-4 34 10.5 70t38.5 59q16 0 49.5 1t51.5 1q-103 249 -197 496z" />
<glyph unicode="&#xa6;" horiz-adv-x="350" d="M0 -88q28 222 88 614q67 0 131 -57q-42 -263 -92 -623q-33 0 -69 19.5t-58 46.5zM117 715q62 427 94 614q41 0 72 -16.5t67 -48.5q-27 -151 -102 -615q-34 0 -70 18.5t-61 47.5z" />
<glyph unicode="&#xa7;" horiz-adv-x="626" d="M3 132q5 35 32 65q20 9 49.5 8t48.5 -12q-24 -15 -33 -44t5.5 -53t50.5 -24q47 3 82 51t22 115q-13 70 -80 153q-6 7 -31 37.5t-34 43t-25.5 37.5t-24 47.5t-10.5 47.5q-5 57 20 109t77 86q31 0 84 -11q-36 42 -52.5 62.5t-36 60t-22.5 76.5q-6 57 18 108.5t76 84.5 q50 0 100 -14t80 -42q9 31 25 56q67 0 141 -52q-69 -147 -59 -262q-50 0 -93.5 28.5t-56.5 78.5q3 15 11.5 45.5t11.5 44.5q-37 17 -62 -8t-20 -64q5 -64 72 -153q6 -8 34 -44t39.5 -53t26.5 -48t20 -58q13 -79 -27.5 -140.5t-119.5 -93.5q68 -83 80 -149q11 -62 -11.5 -113 t-65.5 -80.5t-91 -45t-92 -15.5q-54 0 -93 20t-55 49.5t-11 64.5zM229 610q2 -58 54 -131q30 25 41.5 63t3.5 76q-6 37 -21 66q-36 12 -59.5 -12.5t-18.5 -61.5z" />
<glyph unicode="&#xa8;" horiz-adv-x="509" d="M2 1165q5 35 33 60.5t63 25.5q57 0 73.5 -53t-28.5 -94q-44 -41 -95.5 -19t-45.5 80zM274 1165q4 35 33 60.5t64 25.5q57 0 73.5 -53t-28.5 -94q-44 -41 -96 -19t-46 80z" />
<glyph unicode="&#xa9;" horiz-adv-x="647" d="M2 573q3 67 35 127q42 80 120 130.5t167 50.5q93 0 159.5 -52t89.5 -126.5t-1 -162t-97 -153.5q-57 -52 -126 -72.5t-130 -10t-113 47t-79 92.5q-28 62 -25 129zM89.5 541q5.5 -70 55.5 -111q65 -48 138.5 -39.5t132.5 60.5q61 55 77 130t-28 144q-51 68 -141 68 q-64 0 -120.5 -35.5t-86.5 -93.5q-33 -53 -27.5 -123zM185 545.5q-2 48.5 16 85.5q24 65 82 110q86 0 116 -41q2 -20 -6.5 -42.5t-23.5 -34.5q-11 -8 -23 -8t-18 10q-9 12 0 28q3 4 9.5 9t10.5 10.5t4 13.5q0 11 -11 13.5t-19 -3.5q-44 -35 -60 -90q-11 -21 -10.5 -71.5 t27.5 -63.5q41 0 81 37q7 0 12 -5t5 -11q-52 -52 -101 -52q-42 0 -65 29q-24 28 -26 76.5z" />
<glyph unicode="&#xaa;" horiz-adv-x="272" d="M0 979q42 94 137 272q21 0 35 -14q26 0 39 -16q-12 -62 -18 -95q-19 -125 -23 -163q-24 0 -37 16q1 14 4 44t4 46h-57q-32 -63 -51 -106q-25 0 -33 16zM96 1094q8 0 24.5 1t24.5 1q2 24 10 70.5t9 54.5q-2 -3 -68 -127z" />
<glyph unicode="&#xab;" horiz-adv-x="550" d="M0 559q76 159 158 322q40 -7 66 -27t52 -57q-41 -84 -124 -250q12 -45 49 -170q-34 -33 -63.5 -48t-69.5 -14q-11 41 -33.5 122t-34.5 122zM213 541q26 53 78.5 160.5t79.5 160.5q39 -5 65 -25.5t53 -58.5q-82 -167 -124 -250q8 -29 24.5 -85.5t24.5 -84.5 q-34 -32 -63 -47t-70 -12q-5 17 -68 242z" />
<glyph unicode="&#xac;" horiz-adv-x="559" d="M2 526q-4 33 10.5 68t38.5 61h447l-82 -254q-64 3 -123 37l29 88h-320z" />
<glyph unicode="&#xad;" horiz-adv-x="481" d="M2 526q-4 34 10 69t39 60h369q0 -80 -45 -131q-69 0 -186 1t-187 1z" />
<glyph unicode="&#xae;" horiz-adv-x="352" d="M12 1032q-28 63 6 129q21 40 60 65t84 25q61 0 97.5 -42t31 -101t-54.5 -102q-60 -52 -127.5 -42t-96.5 68zM44 1081.5q3 -34.5 28 -55.5q33 -25 69 -20.5t66 30.5q30 27 38 66t-14 72q-22 34 -69 34q-33 0 -61.5 -17.5t-43.5 -47.5q-16 -27 -13 -61.5zM100 1165 q19 15 39 15q22 0 35 -13q21 -19 11.5 -43t-35.5 -30q1 0 3 -1.5t4.5 -3t4.5 -2.5q6 -8 15 -24.5t13 -22.5q-9 -6 -20 -6q-2 3 -25 43q-2 2 -6 6.5t-6 6.5q-1 -9 -3 -28t-3 -28q-10 0 -18 8q4 47 16 117q-12 -6 -19 -20q-8 17 -6 26zM133 1165q10 -7 12 -10q-3 -16 -5 -27.5 t-5 -27.5q19 0 29.5 24t-2.5 37q-13 9 -29 4z" />
<glyph unicode="&#xb0;" horiz-adv-x="296" d="M2 1137q6 47 44 80.5t85 33.5q49 0 78.5 -33.5t25 -80.5t-44.5 -82q-41 -36 -86.5 -35t-74.5 33q-30 35 -27 84zM49 1130q-3 -31 19 -51q21 -16 46.5 -13t45.5 21q21 19 26.5 46t-8.5 51q-17 20 -47 20q-31 0 -55 -21.5t-27 -52.5z" />
<glyph unicode="&#xb1;" horiz-adv-x="606" d="M2 0q-4 33 10.5 68t38.5 61h369q0 -80 -43 -129h-375zM82 434q-4 33 10 68.5t37 60.5h129q5 26 16.5 84.5t16.5 89.5q82 -15 121 -69q-9 -52 -21 -105h154q0 -83 -45 -131h-133q-27 -128 -35 -174q-34 3 -66.5 23.5t-52.5 48.5q13 72 20 104h-151z" />
<glyph unicode="&#xb2;" horiz-adv-x="245" d="M0 993q15 20 50.5 51t60.5 61t30 64q3 20 -8.5 42t-32.5 22q-13 0 -26 -16q-10 -16 -4 -37q-30 15 -33 34q16 37 61 37q28 0 50.5 -16.5t31.5 -42.5q10 -42 -22 -88q-16 -21 -58.5 -55t-60.5 -56q15 1 51 6t53 5q13 -10 13 -41q-14 5 -38.5 5t-56 -2.5t-43.5 -2.5 q-15 9 -18 30z" />
<glyph unicode="&#xb3;" horiz-adv-x="235" d="M2 983q-3 18 18 39q0 -18 10.5 -28.5t28.5 -10.5q32 0 52.5 31.5t15.5 64.5q-3 16 -15.5 24.5t-29.5 4.5q-19 19 -19 39q38 29 68 72q-50 -10 -63 -9q-16 12 -13 41q14 -5 31 -5t38 2.5t32 2.5q19 -23 16 -39q-9 -8 -72 -71q30 -2 50 -27.5t16 -62.5q-4 -35 -29.5 -61.5 t-77.5 -26.5q-37 0 -57 20z" />
<glyph unicode="&#xb4;" horiz-adv-x="290" d="M0 1147l70 104q38 2 87.5 -7t71.5 -23l-141 -105q-57 0 -88 31z" />
<glyph unicode="&#xb5;" horiz-adv-x="868" d="M0 -434q40 437 125 1001q13 88 27 158q40 0 83.5 -19.5t75.5 -48.5q-4 -32 -16 -104q-5 -32 -16 -106t-19 -130t-12 -108q-10 -139 39 -139q42 0 108 125q0 24 2 36q2 40 7.5 87t10 80t13 87.5t12.5 81.5q5 31 14 87.5t11 70.5q43 0 87 -20t75 -48q-15 -90 -17 -104 q-41 -258 -47 -344q-10 -139 33 -139q40 0 80 76.5t64 179t24 184.5l43 -51q0 -50 -9 -108t-29.5 -121.5t-49 -114.5t-73 -84t-97.5 -33q-117 0 -146 125q-79 -125 -159 -125q-16 0 -27 14q-46 -354 -61 -512q-103 8 -156 66z" />
<glyph unicode="&#xb6;" horiz-adv-x="976" d="M4 891q12 120 106 204.5t214 84.5h591q0 -80 -43 -129h-114q-54 -242 -102 -580t-76 -633q-44 3 -88 20t-70 46q11 203 59 541t97 606h-99q-54 -244 -102.5 -585t-75.5 -628q-44 3 -88 20t-70 46q7 122 31.5 340t46.5 360q-102 16 -166 94.5t-51 192.5z" />
<glyph unicode="&#xb7;" horiz-adv-x="237" d="M2 590q5 35 33 60.5t63 25.5q57 0 73.5 -53.5t-28.5 -94.5q-44 -41 -95.5 -18.5t-45.5 80.5z" />
<glyph unicode="&#xb8;" horiz-adv-x="178" d="M4 -145q-7 7 2 24q31 -21 49 8q16 22 8 56q-10 35 -11.5 44.5t5.5 41.5q13 21 19 37q24 0 41 -17l-13 -26q-13 -26 -10 -54q1 -10 7 -34.5t5 -38.5q-5 -37 -37.5 -50.5t-64.5 9.5z" />
<glyph unicode="&#xb9;" horiz-adv-x="143" d="M0 979q3 68 25 182q-20 16 -23 29q22 37 39 61q21 0 41 -16q-31 -141 -43 -272q-26 0 -39 16z" />
<glyph unicode="&#xba;" horiz-adv-x="253" d="M0.5 1081q1.5 55 26.5 103q31 67 86 67t73 -65q11 -46 -1.5 -102t-41.5 -89q-28 -32 -65 -32q-32 0 -53 24q-26 39 -24.5 94zM41 1100q-8 -26 1 -72.5t36 -46.5q26 0 41 31q18 32 26 85.5t-2 94.5q-2 14 -10 25.5t-20 11.5q-23 0 -41 -29q-11 -20 -15 -45t6 -37 q-5 -14 -22 -18z" />
<glyph unicode="&#xbb;" horiz-adv-x="550" d="M0 399q20 42 62.5 125t62.5 125q-8 29 -24.5 85t-24.5 85q34 33 63.5 48t69.5 14q12 -41 33.5 -122t33.5 -122q-102 -212 -157 -322q-40 7 -66.5 27.5t-52.5 56.5zM213 383q22 41 125 248q-12 45 -49 170q32 32 62.5 47t70.5 14q14 -47 37 -133.5t30 -110.5 q-102 -212 -157 -321q-40 7 -66.5 28t-52.5 58z" />
<glyph unicode="&#xbc;" horiz-adv-x="811" d="M0 524q8 174 57 441q-44 28 -53 69q56 95 92 146q59 -3 101 -37q-74 -314 -105 -658q-64 4 -92 39zM92 63q142 533 332 1117q41 0 70.5 -16.5t60.5 -49.5q-237 -722 -346 -1116q-34 0 -67 18.5t-50 46.5zM356 313q138 243 217 379q47 -3 72 -26l6 26q54 -3 99 -39 q-44 -196 -64 -336q3 0 8 -1t8 -1q30 -38 27 -88q-18 2 -55 2q-21 -153 -27 -231q-64 4 -92 39q2 64 18 194q-97 -3 -194 -22q-29 49 -23 104zM459 317q22 0 64.5 1t62.5 1q8 56 55 318q-38 -62 -182 -320z" />
<glyph unicode="&#xbd;" horiz-adv-x="888" d="M0 524q8 174 57 441q-44 28 -53 69q56 95 92 146q59 -3 101 -37q-74 -314 -105 -658q-64 4 -92 39zM92 63q142 533 332 1117q41 0 70.5 -16.5t60.5 -49.5q-237 -722 -346 -1116q-34 0 -67 18.5t-50 46.5zM387 74q31 42 91 97.5t107.5 97.5t90 103t53.5 124 q7 46 -21.5 98.5t-76.5 52.5q-38 0 -66 -39q-23 -38 -10 -90q-76 42 -76 84q11 36 51 63t95 27q66 0 120 -40.5t74 -104.5q14 -63 0.5 -108t-53.5 -101q-37 -50 -139 -132t-146 -136q35 2 121.5 15t126.5 13q17 -12 25.5 -39t5.5 -61q-33 13 -91 13t-132.5 -6.5t-104.5 -6.5 q-35 23 -45 76z" />
<glyph unicode="&#xbe;" horiz-adv-x="1021" d="M2 537q-7 42 45 94q-2 -40 24 -67t70 -27q52 0 92.5 38t57.5 91t8 102q-6 39 -36.5 59t-67.5 7q-16 16 -22.5 23.5t-13.5 26.5t-7 44q30 24 76.5 73.5t84.5 98.5q-13 -2 -47 -9t-58.5 -10t-47.5 0q-34 21 -31 99q34 -14 74.5 -14t90 7t75.5 7q52 -55 39 -95 q-17 -17 -78.5 -77.5t-93.5 -92.5q74 -5 122.5 -65.5t38.5 -149.5q-5 -39 -20.5 -74.5t-44 -68.5t-78 -52.5t-113.5 -19.5q-84 0 -139 52zM287 63q147 550 331 1117q71 0 130 -66q-9 -27 -44 -135.5t-46.5 -144.5t-42.5 -133.5t-46 -145t-41.5 -134t-44.5 -146t-39.5 -134 t-40.5 -143.5q-33 0 -66 18.5t-50 46.5zM565 313q24 41 99.5 173.5t119.5 205.5q44 -4 72 -26l4 26q56 -3 101 -39q-39 -162 -64 -336q2 0 7.5 -1t8.5 -1q31 -39 25 -88q-18 2 -55 2q-10 -75 -27 -231q-60 4 -92 39q8 115 20 194q-100 -3 -194 -22q-28 42 -25 104zM670 317 q21 0 63 1t64 1q8 56 55 318q-66 -104 -182 -320z" />
<glyph unicode="&#xbf;" horiz-adv-x="608" d="M16 57q-38 96 13 201q19 39 52 75.5t73.5 74t62.5 67.5q57 73 76 201q3 19 8 58t8 59q39 0 86 -20.5t68 -47.5q-3 -23 -9.5 -68t-9.5 -67q-4 -28 -10.5 -50.5t-19 -45.5t-20.5 -36.5t-30 -36.5t-30.5 -31.5t-39 -37t-40.5 -37.5q-64 -59 -85.5 -138t17.5 -161 q31 -57 103 -57q46 0 74 32.5t35.5 74t4.5 88.5q85 -38 144 -117q-22 -63 -88 -108.5t-160 -45.5t-171.5 45t-111.5 129zM322.5 944q-16.5 53 29.5 94q32 24 65 24.5t57 -24t20 -61.5q-4 -35 -33 -60.5t-64 -25.5q-58 0 -74.5 53z" />
<glyph unicode="&#xc0;" horiz-adv-x="1054" d="M2.5 78.5q6.5 57.5 42.5 122.5q21 37 53 70t61.5 55t77.5 48t76.5 39t84.5 37l77 33q102 244 244 551q-34 -11 -97.5 -37t-113.5 -40.5t-96 -14.5q-31 29 -48.5 73.5t-17.5 90.5q63 -14 126 -4t104 27t98.5 34t109.5 17q80 0 136 -60q103 0 165 -65q-49 -219 -94 -500 q-4 -30 -18 -127.5t-21 -151.5q-1 -6 -4.5 -36t-7 -58t-7 -66.5t-4 -69.5t1 -59.5t8 -44.5t17.5 -16q70 85 143.5 299.5t90.5 378.5l59 -33q-16 -104 -62 -259.5t-114 -299t-125 -172.5q-35 0 -63 9.5t-47 24t-32.5 40t-21.5 48t-11.5 58.5t-4.5 61t2 66t5 63t7 62 q17 143 43 312l-176 -95q-85 -197 -130 -276q-139 -241 -323 -279q-37 -8 -77 -8q-65 11 -94 53t-22.5 99.5zM80 57q7 -57 65 -57q125 49 236 283l53 112q-11 -5 -48.5 -20.5t-53.5 -23t-49 -23.5t-52 -29.5t-43.5 -32t-42.5 -40t-32 -46.5q-40 -66 -33 -123zM686 582 q120 59 152 77q29 185 65 383q-158 -324 -217 -460zM688 1425q137 0 189 -30l43 -105q-77 0 -134 31z" />
<glyph unicode="&#xc1;" horiz-adv-x="1054" d="M2.5 78.5q6.5 57.5 42.5 122.5q21 37 53 70t61.5 55t77.5 48t76.5 39t84.5 37l77 33q102 244 244 551q-34 -11 -97.5 -37t-113.5 -40.5t-96 -14.5q-31 29 -48.5 73.5t-17.5 90.5q63 -14 126 -4t104 27t98.5 34t109.5 17q80 0 136 -60q103 0 165 -65q-49 -219 -94 -500 q-4 -30 -18 -127.5t-21 -151.5q-1 -6 -4.5 -36t-7 -58t-7 -66.5t-4 -69.5t1 -59.5t8 -44.5t17.5 -16q70 85 143.5 299.5t90.5 378.5l59 -33q-16 -104 -62 -259.5t-114 -299t-125 -172.5q-35 0 -63 9.5t-47 24t-32.5 40t-21.5 48t-11.5 58.5t-4.5 61t2 66t5 63t7 62 q17 143 43 312l-176 -95q-85 -197 -130 -276q-139 -241 -323 -279q-37 -8 -77 -8q-65 11 -94 53t-22.5 99.5zM80 57q7 -57 65 -57q125 49 236 283l53 112q-11 -5 -48.5 -20.5t-53.5 -23t-49 -23.5t-52 -29.5t-43.5 -32t-42.5 -40t-32 -46.5q-40 -66 -33 -123zM686 582 q120 59 152 77q29 185 65 383q-158 -324 -217 -460zM920 1321l69 104q38 2 88 -7t72 -23l-141 -105q-57 0 -88 31z" />
<glyph unicode="&#xc2;" horiz-adv-x="1054" d="M2.5 78.5q6.5 57.5 42.5 122.5q21 37 53 70t61.5 55t77.5 48t76.5 39t84.5 37l77 33q102 244 244 551q-34 -11 -97.5 -37t-113.5 -40.5t-96 -14.5q-31 29 -48.5 73.5t-17.5 90.5q63 -14 126 -4t104 27t98.5 34t109.5 17q80 0 136 -60q103 0 165 -65q-49 -219 -94 -500 q-4 -30 -18 -127.5t-21 -151.5q-1 -6 -4.5 -36t-7 -58t-7 -66.5t-4 -69.5t1 -59.5t8 -44.5t17.5 -16q70 85 143.5 299.5t90.5 378.5l59 -33q-16 -104 -62 -259.5t-114 -299t-125 -172.5q-35 0 -63 9.5t-47 24t-32.5 40t-21.5 48t-11.5 58.5t-4.5 61t2 66t5 63t7 62 q17 143 43 312l-176 -95q-85 -197 -130 -276q-139 -241 -323 -279q-37 -8 -77 -8q-65 11 -94 53t-22.5 99.5zM80 57q7 -57 65 -57q125 49 236 283l53 112q-11 -5 -48.5 -20.5t-53.5 -23t-49 -23.5t-52 -29.5t-43.5 -32t-42.5 -40t-32 -46.5q-40 -66 -33 -123zM686 582 q120 59 152 77q29 185 65 383q-158 -324 -217 -460zM801 1341q2 27 8 35l131 66l107 -66q3 -47 -31 -86l-92 58l-115 -58q-10 24 -8 51z" />
<glyph unicode="&#xc3;" horiz-adv-x="1054" d="M2.5 78.5q6.5 57.5 42.5 122.5q21 37 53 70t61.5 55t77.5 48t76.5 39t84.5 37l77 33q102 244 244 551q-34 -11 -97.5 -37t-113.5 -40.5t-96 -14.5q-31 29 -48.5 73.5t-17.5 90.5q63 -14 126 -4t104 27t98.5 34t109.5 17q80 0 136 -60q103 0 165 -65q-49 -219 -94 -500 q-4 -30 -18 -127.5t-21 -151.5q-1 -6 -4.5 -36t-7 -58t-7 -66.5t-4 -69.5t1 -59.5t8 -44.5t17.5 -16q70 85 143.5 299.5t90.5 378.5l59 -33q-16 -104 -62 -259.5t-114 -299t-125 -172.5q-35 0 -63 9.5t-47 24t-32.5 40t-21.5 48t-11.5 58.5t-4.5 61t2 66t5 63t7 62 q17 143 43 312l-176 -95q-85 -197 -130 -276q-139 -241 -323 -279q-37 -8 -77 -8q-65 11 -94 53t-22.5 99.5zM80 57q7 -57 65 -57q125 49 236 283l53 112q-11 -5 -48.5 -20.5t-53.5 -23t-49 -23.5t-52 -29.5t-43.5 -32t-42.5 -40t-32 -46.5q-40 -66 -33 -123zM686 582 q120 59 152 77q29 185 65 383q-158 -324 -217 -460zM729 1288q-6 70 45 129q37 13 66 9t64 -12.5t65 -17t69 -4.5t78 25q0 -79 -43 -131q-42 -11 -73 -4.5t-64.5 16t-62 18.5t-66.5 3t-78 -31z" />
<glyph unicode="&#xc4;" horiz-adv-x="1054" d="M2.5 78.5q6.5 57.5 42.5 122.5q21 37 53 70t61.5 55t77.5 48t76.5 39t84.5 37l77 33q102 244 244 551q-34 -11 -97.5 -37t-113.5 -40.5t-96 -14.5q-31 29 -48.5 73.5t-17.5 90.5q63 -14 126 -4t104 27t98.5 34t109.5 17q80 0 136 -60q103 0 165 -65q-49 -219 -94 -500 q-4 -30 -18 -127.5t-21 -151.5q-1 -6 -4.5 -36t-7 -58t-7 -66.5t-4 -69.5t1 -59.5t8 -44.5t17.5 -16q70 85 143.5 299.5t90.5 378.5l59 -33q-16 -104 -62 -259.5t-114 -299t-125 -172.5q-35 0 -63 9.5t-47 24t-32.5 40t-21.5 48t-11.5 58.5t-4.5 61t2 66t5 63t7 62 q17 143 43 312l-176 -95q-85 -197 -130 -276q-139 -241 -323 -279q-37 -8 -77 -8q-65 11 -94 53t-22.5 99.5zM80 57q7 -57 65 -57q125 49 236 283l53 112q-11 -5 -48.5 -20.5t-53.5 -23t-49 -23.5t-52 -29.5t-43.5 -32t-42.5 -40t-32 -46.5q-40 -66 -33 -123zM686 582 q120 59 152 77q29 185 65 383q-158 -324 -217 -460zM686 1376q5 35 33 60.5t63 25.5q57 0 73.5 -53t-28.5 -94q-44 -41 -95.5 -19t-45.5 80zM958 1376q4 35 33 60.5t64 25.5q57 0 73.5 -53t-28.5 -94q-44 -41 -96 -19t-46 80z" />
<glyph unicode="&#xc5;" horiz-adv-x="1054" d="M2.5 78.5q6.5 57.5 42.5 122.5q21 37 53 70t61.5 55t77.5 48t76.5 39t84.5 37l77 33q102 244 244 551q-34 -11 -97.5 -37t-113.5 -40.5t-96 -14.5q-31 29 -48.5 73.5t-17.5 90.5q63 -14 126 -4t104 27t98.5 34t109.5 17q80 0 136 -60q103 0 165 -65q-49 -219 -94 -500 q-4 -30 -18 -127.5t-21 -151.5q-1 -6 -4.5 -36t-7 -58t-7 -66.5t-4 -69.5t1 -59.5t8 -44.5t17.5 -16q70 85 143.5 299.5t90.5 378.5l59 -33q-16 -104 -62 -259.5t-114 -299t-125 -172.5q-35 0 -63 9.5t-47 24t-32.5 40t-21.5 48t-11.5 58.5t-4.5 61t2 66t5 63t7 62 q17 143 43 312l-176 -95q-85 -197 -130 -276q-139 -241 -323 -279q-37 -8 -77 -8q-65 11 -94 53t-22.5 99.5zM80 57q7 -57 65 -57q125 49 236 283l53 112q-11 -5 -48.5 -20.5t-53.5 -23t-49 -23.5t-52 -29.5t-43.5 -32t-42.5 -40t-32 -46.5q-40 -66 -33 -123zM686 582 q120 59 152 77q29 185 65 383q-158 -324 -217 -460zM786 1407q6 47 44 81t85 34q49 0 78.5 -34t25.5 -81t-44 -82q-41 -36 -87 -35t-75 33q-30 35 -27 84zM834 1401q-4 -32 18 -51q21 -16 46.5 -13t45.5 21q21 20 27 46t-8 50q-18 21 -48 21q-31 0 -54.5 -21.5t-26.5 -52.5z " />
<glyph unicode="&#xc6;" horiz-adv-x="1558" d="M0.5 78.5q6.5 57.5 42.5 122.5q48 84 150 149q31 19 69.5 39t66.5 32.5t76 33t70 30.5q110 259 244 553q-35 -11 -98 -37.5t-113.5 -41.5t-97.5 -15q-29 29 -46.5 74.5t-17.5 91.5q63 -14 126 -4.5t104 26.5t98.5 33.5t109.5 16.5q85 0 136 -58q98 0 167 -65 q-60 -272 -94 -504q-8 -38 -10 -66q68 89 164 111q-48 54 -54 139t29 168q68 161 221 275q68 0 127 -41q6 15 23 41q72 0 149 -41q-40 -60 -70 -138.5t-30 -148.5q-51 5 -90.5 36.5t-48.5 82.5q4 16 11.5 33t17 37.5t14.5 31.5q-65 -24 -120.5 -86t-84 -130.5t-28.5 -134 t38 -97.5q21 6 60 6q53 0 63 -36q10 -30 -21 -53q-21 -16 -55 -16q-36 0 -88 25q-55 -38 -96 -88.5t-62 -102t-29 -104.5t2.5 -98.5t33 -81.5t62 -57t89.5 -21q79 2 156.5 54t136 135t95 193.5t36.5 223.5l47 -37q0 -105 -37 -217t-102 -207.5t-164.5 -157t-212.5 -61.5 q-83 0 -155.5 30t-124 83.5t-77 132.5t-15.5 172q16 136 32 242q-71 -40 -176 -94q-5 -10 -14 -32q-22 -52 -34.5 -79.5t-37.5 -79.5t-43 -82.5t-47.5 -75t-55 -71.5t-60.5 -58t-70 -48t-78.5 -28.5t-89.5 -11.5q-66 11 -95.5 53t-23 99.5zM78.5 95.5q-6.5 -41.5 10 -68.5 t54.5 -27q125 48 238 283q28 60 53 112q-11 -5 -51.5 -22t-58 -24.5t-47 -23t-52.5 -30.5q-72 -45 -114 -115q-26 -43 -32.5 -84.5zM686 582q109 56 152 80q30 196 67 382q-114 -225 -219 -462z" />
<glyph unicode="&#xc7;" horiz-adv-x="702" d="M2.5 414.5q5.5 96.5 32.5 193.5q58 210 178 373.5t262 200.5q66 0 125 -41q13 26 23 41q71 0 151 -41q-41 -59 -71.5 -138t-30.5 -149q-51 5 -91 36.5t-49 82.5q1 3 43 102q-183 -78 -294 -297q-98 -195 -104 -414q-5 -198 70 -298q50 -66 126 -66q106 3 204.5 89 t159 226t60.5 291l49 -37q0 -81 -22 -168.5t-65.5 -169.5t-102 -148t-138 -108t-166.5 -47q-2 -12 -2 -32q1 -9 7 -34t5 -40q-5 -36 -37 -50t-63 9q-11 7 2 24q27 -21 49 9q13 22 6 55q-12 50 -12 59q-79 5 -140.5 45.5t-98 107.5t-54 152t-12 181.5z" />
<glyph unicode="&#xc8;" horiz-adv-x="675" d="M2 182q-3 81 25 167.5t91 158t146 90.5q-46 56 -51.5 139.5t29.5 165.5q64 159 221 277q66 0 125 -41q3 5 10.5 19.5t11.5 21.5q73 0 150 -41q-101 -157 -101 -287q-51 5 -90.5 36.5t-48.5 82.5q1 3 43 102q-65 -25 -120 -87t-83.5 -130t-28 -133.5t37.5 -97.5q24 6 61 6 q51 0 62 -35q9 -30 -20 -52q-22 -16 -56 -16q-36 0 -88 23q-72 -51 -118.5 -125t-57.5 -146.5t2.5 -136.5t60 -103.5t115.5 -39.5q79 2 156.5 54t135.5 134t94 192.5t36 223.5l47 -37q0 -83 -23 -172.5t-68.5 -172.5t-106 -149.5t-143.5 -106.5t-173 -40q-113 0 -196 73 t-87 183zM348 1425q137 0 189 -30l43 -105q-77 0 -134 31z" />
<glyph unicode="&#xc9;" horiz-adv-x="675" d="M2 182q-3 81 25 167.5t91 158t146 90.5q-46 56 -51.5 139.5t29.5 165.5q64 159 221 277q66 0 125 -41q3 5 10.5 19.5t11.5 21.5q73 0 150 -41q-101 -157 -101 -287q-51 5 -90.5 36.5t-48.5 82.5q1 3 43 102q-65 -25 -120 -87t-83.5 -130t-28 -133.5t37.5 -97.5q24 6 61 6 q51 0 62 -35q9 -30 -20 -52q-22 -16 -56 -16q-36 0 -88 23q-72 -51 -118.5 -125t-57.5 -146.5t2.5 -136.5t60 -103.5t115.5 -39.5q79 2 156.5 54t135.5 134t94 192.5t36 223.5l47 -37q0 -83 -23 -172.5t-68.5 -172.5t-106 -149.5t-143.5 -106.5t-173 -40q-113 0 -196 73 t-87 183zM348 1321l70 104q38 2 88 -7t72 -23l-142 -105q-57 0 -88 31z" />
<glyph unicode="&#xca;" horiz-adv-x="675" d="M2 182q-3 81 25 167.5t91 158t146 90.5q-46 56 -51.5 139.5t29.5 165.5q64 159 221 277q66 0 125 -41q3 5 10.5 19.5t11.5 21.5q73 0 150 -41q-101 -157 -101 -287q-51 5 -90.5 36.5t-48.5 82.5q1 3 43 102q-65 -25 -120 -87t-83.5 -130t-28 -133.5t37.5 -97.5q24 6 61 6 q51 0 62 -35q9 -30 -20 -52q-22 -16 -56 -16q-36 0 -88 23q-72 -51 -118.5 -125t-57.5 -146.5t2.5 -136.5t60 -103.5t115.5 -39.5q79 2 156.5 54t135.5 134t94 192.5t36 223.5l47 -37q0 -83 -23 -172.5t-68.5 -172.5t-106 -149.5t-143.5 -106.5t-173 -40q-113 0 -196 73 t-87 183zM344 1341q2 27 8 35l131 66l107 -66q3 -47 -31 -86l-92 58l-115 -58q-10 24 -8 51z" />
<glyph unicode="&#xcb;" horiz-adv-x="675" d="M2 182q-3 81 25 167.5t91 158t146 90.5q-46 56 -51.5 139.5t29.5 165.5q64 159 221 277q66 0 125 -41q3 5 10.5 19.5t11.5 21.5q73 0 150 -41q-101 -157 -101 -287q-51 5 -90.5 36.5t-48.5 82.5q1 3 43 102q-65 -25 -120 -87t-83.5 -130t-28 -133.5t37.5 -97.5q24 6 61 6 q51 0 62 -35q9 -30 -20 -52q-22 -16 -56 -16q-36 0 -88 23q-72 -51 -118.5 -125t-57.5 -146.5t2.5 -136.5t60 -103.5t115.5 -39.5q79 2 156.5 54t135.5 134t94 192.5t36 223.5l47 -37q0 -83 -23 -172.5t-68.5 -172.5t-106 -149.5t-143.5 -106.5t-173 -40q-113 0 -196 73 t-87 183zM229 1378q4 35 33 60.5t64 25.5q57 0 73.5 -53t-28.5 -94q-44 -41 -96 -19t-46 80zM502 1378q5 35 33 60.5t63 25.5q57 0 73.5 -53t-28.5 -94q-44 -41 -95.5 -19t-45.5 80z" />
<glyph unicode="&#xcc;" horiz-adv-x="438" d="M2 131q41 -14 115.5 -18t122.5 4q-59 21 -86 51q25 297 127 848q-52 -6 -107 -6q-27 19 -40.5 64t-10.5 106q58 -23 114 -23t127.5 11.5t120.5 11.5q62 -44 76 -133q-55 0 -176 -17q23 -15 66 -53q-86 -405 -134 -846h48q61 -40 75 -131q-64 0 -192.5 -18.5t-194.5 -18.5 q-27 18 -40.5 63.5t-10.5 104.5zM219 1425q137 0 189 -30l43 -105q-77 0 -134 31z" />
<glyph unicode="&#xcd;" horiz-adv-x="438" d="M2 131q41 -14 115.5 -18t122.5 4q-59 21 -86 51q25 297 127 848q-52 -6 -107 -6q-27 19 -40.5 64t-10.5 106q58 -23 114 -23t127.5 11.5t120.5 11.5q62 -44 76 -133q-55 0 -176 -17q23 -15 66 -53q-86 -405 -134 -846h48q61 -40 75 -131q-64 0 -192.5 -18.5t-194.5 -18.5 q-27 18 -40.5 63.5t-10.5 104.5zM279 1321l69 104q38 2 88 -7t72 -23l-141 -105q-57 0 -88 31z" />
<glyph unicode="&#xce;" horiz-adv-x="438" d="M2 131q-3 -59 10.5 -104.5t40.5 -63.5q66 0 194.5 18.5t192.5 18.5q-14 91 -75 131h-48q48 441 134 846q-43 38 -66 53q121 17 176 17q-14 89 -76 133q-49 0 -120.5 -11.5t-127.5 -11.5t-114 23q-3 -61 10.5 -106t40.5 -64q54 0 107 6q-102 -551 -127 -848q27 -30 86 -51 q-48 -8 -122.5 -4t-115.5 18zM266 1341q2 27 8 35l132 66l106 -66q3 -47 -31 -86l-92 58l-115 -58q-10 24 -8 51z" />
<glyph unicode="&#xcf;" horiz-adv-x="464" d="M2 131q41 -14 115.5 -18t122.5 4q-59 21 -86 51q25 297 127 848q-52 -6 -107 -6q-27 19 -40.5 64t-10.5 106q58 -23 114 -23t127.5 11.5t120.5 11.5q62 -44 76 -133q-55 0 -176 -17q23 -15 66 -53q-86 -405 -134 -846h48q61 -40 75 -131q-64 0 -192.5 -18.5t-194.5 -18.5 q-27 18 -40.5 63.5t-10.5 104.5zM162 1378q5 35 33 60.5t63 25.5q57 0 73.5 -53t-28.5 -94q-44 -41 -95.5 -19t-45.5 80zM414 1378q5 35 33 60.5t63 25.5q57 0 73.5 -53t-28.5 -94q-44 -41 -95.5 -19t-45.5 80z" />
<glyph unicode="&#xd0;" horiz-adv-x="829" d="M2 526q16 96 47 129h84q20 123 66 369q-94 -68 -144 -170q-31 45 -45 103.5t-4 113.5q64 48 148.5 79.5t171.5 31.5q124 0 234 -55t167 -146q119 -186 70 -489q48 12 98 44.5t61 69.5l37 -10q-12 -52 -76.5 -95t-128.5 -59q-21 -100 -61.5 -187.5t-101 -160t-148 -117 t-192.5 -51.5q-95 0 -166.5 43.5t-81.5 118.5q-11 69 31 137q51 82 159 133q-83 16 -131 64q3 17 8.5 52t8.5 52h-111zM140.5 148.5q-2.5 -36.5 11.5 -67t53 -50t96 -19.5q66 10 122 48.5t95 96t65 117t44 125.5q-55 -9 -117 -16q-131 -19 -199 -45q-106 -40 -149 -117 q-19 -36 -21.5 -72.5zM268 377q74 27 234 51q95 11 137 18q64 257 -2 449q-39 116 -141 162t-217 6q63 -26 98 -84q-37 -163 -64 -324h107q0 -80 -43 -129h-86q-4 -24 -11.5 -74.5t-11.5 -74.5z" />
<glyph unicode="&#xd1;" horiz-adv-x="1087" d="M0 1106q63 -14 126 -4t104 27t98.5 34t109.5 17q14 0 28 -2t24 -3.5t24 -7.5t20 -8t20.5 -11t17.5 -10.5t19 -12t17 -11.5q-50 -216 -92 -457q144 324 416 523q98 -6 168 -66q-92 -401 -146 -838q-51 -350 4 -350q69 86 143 300.5t91 377.5l59 -33q-17 -106 -63 -260 t-113.5 -298t-124.5 -173q-35 0 -63 10t-47.5 23.5t-33 40t-21.5 48t-11 59t-4 60.5t2 66t5 63t7 62q33 296 113 719q-402 -306 -467 -991q-42 0 -85.5 17.5t-70.5 48.5q18 322 140 981q-44 -10 -162.5 -57.5t-185.5 -47.5q-31 29 -48.5 73.5t-17.5 90.5zM434 1290 q-6 70 45 129q37 13 66 9t64 -12.5t65 -17t69 -4.5t78 25q0 -79 -43 -131q-42 -11 -73 -4.5t-64.5 16t-62 18.5t-66.5 3t-78 -31z" />
<glyph unicode="&#xd2;" horiz-adv-x="802" d="M0 442q0 57 2 88q12 45 45.5 68.5t83.5 38.5q-25 88 -12.5 183.5t57.5 178.5q46 83 120.5 132t166.5 49q108 0 172 -56q75 -63 112.5 -174t35.5 -235t-36.5 -253.5t-93 -232.5t-145.5 -169t-184 -66q-69 0 -124 27t-90.5 70.5t-60 103t-35.5 120.5t-14 127zM158 439 q-1 -80 11.5 -164t51 -145.5t96.5 -61.5q41 0 80 34.5t69.5 93.5t54.5 125.5t42 141.5q-60 -39 -138 -42t-148.5 33.5t-104.5 106.5q-13 -42 -14 -122zM239.5 786.5q-5.5 -82.5 24.5 -157.5q35 -81 108 -120.5t152 -0.5q8 6 22.5 0.5t22.5 -21.5q56 257 21 447 q-12 67 -45.5 106t-81.5 45q-45 0 -98.5 -43.5t-83.5 -101.5q-36 -71 -41.5 -153.5zM358 1425q137 0 189 -30l43 -105q-76 0 -133 31z" />
<glyph unicode="&#xd3;" horiz-adv-x="802" d="M0 442q0 57 2 88q12 45 45.5 68.5t83.5 38.5q-25 88 -12.5 183.5t57.5 178.5q46 83 120.5 132t166.5 49q108 0 172 -56q75 -63 112.5 -174t35.5 -235t-36.5 -253.5t-93 -232.5t-145.5 -169t-184 -66q-69 0 -124 27t-90.5 70.5t-60 103t-35.5 120.5t-14 127zM158 439 q-1 -80 11.5 -164t51 -145.5t96.5 -61.5q41 0 80 34.5t69.5 93.5t54.5 125.5t42 141.5q-60 -39 -138 -42t-148.5 33.5t-104.5 106.5q-13 -42 -14 -122zM239.5 786.5q-5.5 -82.5 24.5 -157.5q35 -81 108 -120.5t152 -0.5q8 6 22.5 0.5t22.5 -21.5q56 257 21 447 q-12 67 -45.5 106t-81.5 45q-45 0 -98.5 -43.5t-83.5 -101.5q-36 -71 -41.5 -153.5zM358 1321l70 104q38 2 88 -7t72 -23l-142 -105q-57 0 -88 31z" />
<glyph unicode="&#xd4;" horiz-adv-x="802" d="M0 442q0 57 2 88q12 45 45.5 68.5t83.5 38.5q-25 88 -12.5 183.5t57.5 178.5q46 83 120.5 132t166.5 49q108 0 172 -56q75 -63 112.5 -174t35.5 -235t-36.5 -253.5t-93 -232.5t-145.5 -169t-184 -66q-69 0 -124 27t-90.5 70.5t-60 103t-35.5 120.5t-14 127zM158 439 q-1 -80 11.5 -164t51 -145.5t96.5 -61.5q41 0 80 34.5t69.5 93.5t54.5 125.5t42 141.5q-60 -39 -138 -42t-148.5 33.5t-104.5 106.5q-13 -42 -14 -122zM239.5 786.5q-5.5 -82.5 24.5 -157.5q35 -81 108 -120.5t152 -0.5q8 6 22.5 0.5t22.5 -21.5q56 257 21 447 q-12 67 -45.5 106t-81.5 45q-45 0 -98.5 -43.5t-83.5 -101.5q-36 -71 -41.5 -153.5zM354 1341q2 27 8 35l132 66l106 -66q3 -47 -31 -86l-92 58l-115 -58q-10 24 -8 51z" />
<glyph unicode="&#xd5;" horiz-adv-x="802" d="M0 442q0 57 2 88q12 45 45.5 68.5t83.5 38.5q-25 88 -12.5 183.5t57.5 178.5q46 83 120.5 132t166.5 49q108 0 172 -56q75 -63 112.5 -174t35.5 -235t-36.5 -253.5t-93 -232.5t-145.5 -169t-184 -66q-69 0 -124 27t-90.5 70.5t-60 103t-35.5 120.5t-14 127zM158 439 q-1 -80 11.5 -164t51 -145.5t96.5 -61.5q41 0 80 34.5t69.5 93.5t54.5 125.5t42 141.5q-60 -39 -138 -42t-148.5 33.5t-104.5 106.5q-13 -42 -14 -122zM239.5 786.5q-5.5 -82.5 24.5 -157.5q35 -81 108 -120.5t152 -0.5q8 6 22.5 0.5t22.5 -21.5q56 257 21 447 q-12 67 -45.5 106t-81.5 45q-45 0 -98.5 -43.5t-83.5 -101.5q-36 -71 -41.5 -153.5zM283 1290q-6 70 45 129q37 13 66 9t64 -12.5t65 -17t69 -4.5t78 25q0 -79 -43 -131q-42 -11 -73 -4.5t-64.5 16t-62 18.5t-66.5 3t-78 -31z" />
<glyph unicode="&#xd6;" horiz-adv-x="802" d="M0 442q0 57 2 88q12 45 45.5 68.5t83.5 38.5q-25 88 -12.5 183.5t57.5 178.5q46 83 120.5 132t166.5 49q108 0 172 -56q75 -63 112.5 -174t35.5 -235t-36.5 -253.5t-93 -232.5t-145.5 -169t-184 -66q-69 0 -124 27t-90.5 70.5t-60 103t-35.5 120.5t-14 127zM158 439 q-1 -80 11.5 -164t51 -145.5t96.5 -61.5q41 0 80 34.5t69.5 93.5t54.5 125.5t42 141.5q-60 -39 -138 -42t-148.5 33.5t-104.5 106.5q-13 -42 -14 -122zM239.5 786.5q-5.5 -82.5 24.5 -157.5q35 -81 108 -120.5t152 -0.5q8 6 22.5 0.5t22.5 -21.5q56 257 21 447 q-12 67 -45.5 106t-81.5 45q-45 0 -98.5 -43.5t-83.5 -101.5q-36 -71 -41.5 -153.5zM240 1376q5 35 33 60.5t63 25.5q57 0 73.5 -53t-28.5 -94q-44 -41 -95.5 -19t-45.5 80zM512 1376q5 35 33 60.5t63 25.5q57 0 73.5 -53t-28.5 -94q-44 -41 -95.5 -19t-45.5 80z" />
<glyph unicode="&#xd7;" horiz-adv-x="450" d="M2 506q20 16 57 47.5t50 42.5l-70 145q72 45 139 37q4 -7 19.5 -38.5t23.5 -49.5l129 109q46 -59 37 -125l-113 -94l72 -148q-29 -21 -67.5 -30t-71.5 -3q-3 7 -19 38.5t-24 49.5l-127 -106q-23 20 -31.5 55t-3.5 70z" />
<glyph unicode="&#xd8;" horiz-adv-x="806" d="M2 535q22 79 131 106q-27 88 -14.5 185t59.5 178q46 84 120 133t165 49q107 0 174 -56q108 -89 137 -268q24 -140 -2 -294.5t-92 -286.5q-63 -129 -154.5 -206t-199.5 -77q-201 0 -283 215q-51 138 -41 322zM166 307q225 419 395 717q-40 62 -96 68q-34 0 -74.5 -26 t-73.5 -67q-63 -76 -77 -195.5t43 -201.5q-45 -45 -111 -37q-28 -94 -6 -258zM211 152q42 -82 106 -82q96 0 175 176q62 137 90.5 291.5t19.5 304.5v8q-236 -402 -391 -698z" />
<glyph unicode="&#xd9;" horiz-adv-x="1024" d="M0 1106q63 -13 126 -3t104 27t98.5 33.5t109.5 16.5q39 0 89.5 -20.5t80.5 -45.5q-78 -338 -133 -725q-6 -44 -6.5 -91t5 -101t28.5 -88.5t61 -34.5q43 0 91 50t83 120l4 28q6 61 22.5 177t16.5 120q40 258 109 611q98 -6 168 -66q-67 -303 -107 -559q-20 -122 -39 -279 q-53 -348 4 -348q69 85 143 299t91 379l59 -35q-17 -106 -63 -259.5t-113.5 -297t-124.5 -172.5q-58 0 -97 24t-56.5 67.5t-23.5 91t-3 108.5q-38 -58 -89.5 -95.5t-105.5 -37.5q-63 0 -109.5 26t-70.5 70t-38 100.5t-11.5 117t8.5 120.5q41 292 103 613 q-44 -10 -162.5 -57.5t-185.5 -47.5q-30 29 -48 74t-18 90zM489 1425q137 0 189 -30l43 -105q-76 0 -133 31z" />
<glyph unicode="&#xda;" horiz-adv-x="1024" d="M0 1106q63 -13 126 -3t104 27t98.5 33.5t109.5 16.5q39 0 89.5 -20.5t80.5 -45.5q-78 -338 -133 -725q-6 -44 -6.5 -91t5 -101t28.5 -88.5t61 -34.5q43 0 91 50t83 120l4 28q6 61 22.5 177t16.5 120q40 258 109 611q98 -6 168 -66q-67 -303 -107 -559q-20 -122 -39 -279 q-53 -348 4 -348q69 85 143 299t91 379l59 -35q-17 -106 -63 -259.5t-113.5 -297t-124.5 -172.5q-58 0 -97 24t-56.5 67.5t-23.5 91t-3 108.5q-38 -58 -89.5 -95.5t-105.5 -37.5q-63 0 -109.5 26t-70.5 70t-38 100.5t-11.5 117t8.5 120.5q41 292 103 613 q-44 -10 -162.5 -57.5t-185.5 -47.5q-30 29 -48 74t-18 90zM604 1321l70 104q38 2 88 -7t72 -23l-142 -105q-57 0 -88 31z" />
<glyph unicode="&#xdb;" horiz-adv-x="1024" d="M0 1106q63 -13 126 -3t104 27t98.5 33.5t109.5 16.5q39 0 89.5 -20.5t80.5 -45.5q-78 -338 -133 -725q-6 -44 -6.5 -91t5 -101t28.5 -88.5t61 -34.5q43 0 91 50t83 120l4 28q6 61 22.5 177t16.5 120q40 258 109 611q98 -6 168 -66q-67 -303 -107 -559q-20 -122 -39 -279 q-53 -348 4 -348q69 85 143 299t91 379l59 -35q-17 -106 -63 -259.5t-113.5 -297t-124.5 -172.5q-58 0 -97 24t-56.5 67.5t-23.5 91t-3 108.5q-38 -58 -89.5 -95.5t-105.5 -37.5q-63 0 -109.5 26t-70.5 70t-38 100.5t-11.5 117t8.5 120.5q41 292 103 613 q-44 -10 -162.5 -57.5t-185.5 -47.5q-30 29 -48 74t-18 90zM486 1341q2 27 8 35l131 66l106 -66q3 -47 -31 -86l-92 58l-114 -58q-10 24 -8 51z" />
<glyph unicode="&#xdc;" horiz-adv-x="1024" d="M0 1106q63 -13 126 -3t104 27t98.5 33.5t109.5 16.5q39 0 89.5 -20.5t80.5 -45.5q-78 -338 -133 -725q-6 -44 -6.5 -91t5 -101t28.5 -88.5t61 -34.5q43 0 91 50t83 120l4 28q6 61 22.5 177t16.5 120q40 258 109 611q98 -6 168 -66q-67 -303 -107 -559q-20 -122 -39 -279 q-53 -348 4 -348q69 85 143 299t91 379l59 -35q-17 -106 -63 -259.5t-113.5 -297t-124.5 -172.5q-58 0 -97 24t-56.5 67.5t-23.5 91t-3 108.5q-38 -58 -89.5 -95.5t-105.5 -37.5q-63 0 -109.5 26t-70.5 70t-38 100.5t-11.5 117t8.5 120.5q41 292 103 613 q-44 -10 -162.5 -57.5t-185.5 -47.5q-30 29 -48 74t-18 90zM371 1378q5 35 33 60.5t63 25.5q57 0 73.5 -53t-28.5 -94q-44 -41 -95.5 -19t-45.5 80zM643 1378q5 35 33 60.5t63 25.5q57 0 73.5 -53t-28.5 -94q-44 -41 -95.5 -19t-45.5 80z" />
<glyph unicode="&#xdd;" horiz-adv-x="1005" d="M0 1106q63 -13 126 -3t104 27t98.5 33.5t109.5 16.5q39 0 89.5 -20.5t80.5 -45.5q-78 -338 -133 -725q-6 -44 -6.5 -91t5 -101t28.5 -88.5t61 -34.5q43 0 91 50t83 120l4 28q6 61 22.5 177t16.5 120q40 258 109 611q98 -6 168 -66q-67 -303 -107 -559 q-18 -115 -37.5 -259t-31.5 -220q101 61 169 207t68 323l51 -37q0 -193 -84.5 -352t-214.5 -225l-32 -219q-13 -87 -51 -159t-106.5 -119.5t-154.5 -47.5q-108 17 -153.5 95.5t-22.5 178.5q39 161 350 275l19 125q-38 -53 -87 -87t-100 -34q-63 0 -109.5 26t-70.5 70 t-38 100.5t-11.5 117t8.5 120.5q41 292 103 613q-44 -10 -162.5 -57.5t-185.5 -47.5q-30 29 -48 74t-18 90zM428 -299q-16 -68 12 -124t88 -56q113 49 146 282l16 111q-40 -17 -63 -27.5t-61.5 -32t-62 -41t-45.5 -49.5t-30 -63zM608 1321l70 104q38 2 88 -7t72 -23 l-142 -105q-57 0 -88 31z" />
<glyph unicode="&#xde;" horiz-adv-x="520" d="M0 66q44 442 164 1114q47 -1 93 -18.5t77 -45.5q-27 -117 -35 -162q52 -3 104 -21.5t82 -45.5q36 -82 33.5 -177.5t-34.5 -187.5t-85 -162q-74 -100 -174 -133q-15 0 -43 4q-12 -90 -26 -231q-42 2 -85.5 19.5t-70.5 46.5zM190 309q17 -10 35 -10q61 22 115 100 q42 64 63.5 143t12.5 150q-9 76 -51 93.5t-93 -44.5q-3 -4 -10 -13t-10 -13q-36 -212 -62 -406z" />
<glyph unicode="&#xdf;" horiz-adv-x="741" d="M0 66q36 347 113 815q10 68 24.5 113t44.5 83q36 48 98.5 76.5t125.5 28.5q141 0 225.5 -87.5t54.5 -222.5q-22 -107 -115 -223q64 -44 100 -120t25 -164q-6 -53 -23 -101.5t-51 -97.5t-81.5 -85t-119.5 -58.5t-161 -22.5q1 7 4 21t4 19t4 14t7 13.5t10.5 10t15.5 10.5 q78 11 136.5 77t81 151.5t7.5 162.5q-9 55 -47 82q-36 -32 -71 -51q-38 0 -73.5 20t-55.5 52q88 45 179 136t109 185q8 42 1 84.5t-38 76.5t-83 34q-76 0 -123 -76q-8 -13 -14.5 -28t-10.5 -26t-8.5 -30.5t-6 -27.5t-5 -31t-4.5 -29q-76 -388 -123 -850q-42 2 -85.5 19.5 t-70.5 46.5z" />
<glyph unicode="&#xe0;" d="M4 246q40 313 266 479q76 0 146 -55l8 55q43 0 87 -20t75 -48q-53 -314 -64 -446q-10 -139 33 -139q40 0 79.5 76t63 178t23.5 184l45 -49q0 -50 -9 -108t-29.5 -121.5t-49 -114.5t-73 -84t-97.5 -33q-74 0 -109.5 46.5t-42.5 119.5q-93 -166 -194 -166q-50 0 -85 23 t-51 60.5t-21.5 78.5t-0.5 84zM178 244q-17 -172 35 -172q51 0 145 192q4 45 10.5 98t12 88t16.5 100t15 91q-58 -25 -102 -71.5t-70 -104.5t-40.5 -111.5t-21.5 -109.5zM264 954q137 0 189 -30l43 -105q-77 0 -134 31z" />
<glyph unicode="&#xe1;" d="M4 246q40 313 266 479q76 0 146 -55l8 55q43 0 87 -20t75 -48q-53 -314 -64 -446q-10 -139 33 -139q40 0 79.5 76t63 178t23.5 184l45 -49q0 -50 -9 -108t-29.5 -121.5t-49 -114.5t-73 -84t-97.5 -33q-74 0 -109.5 46.5t-42.5 119.5q-93 -166 -194 -166q-50 0 -85 23 t-51 60.5t-21.5 78.5t-0.5 84zM178 244q-17 -172 35 -172q51 0 145 192q4 45 10.5 98t12 88t16.5 100t15 91q-58 -25 -102 -71.5t-70 -104.5t-40.5 -111.5t-21.5 -109.5zM264 850l70 104q38 2 88 -7t72 -23l-142 -105q-57 0 -88 31z" />
<glyph unicode="&#xe2;" d="M4 246q-5 -43 0.5 -84t21.5 -78.5t51 -60.5t85 -23q101 0 194 166q7 -73 42.5 -119.5t109.5 -46.5q53 0 97.5 33t73 84t49 114.5t29.5 121.5t9 108l-45 49q0 -82 -23.5 -184t-63 -178t-79.5 -76q-43 0 -33 139q11 132 64 446q-31 28 -75 48t-87 20l-8 -55q-70 55 -146 55 q-226 -166 -266 -479zM178 244q7 56 21.5 109.5t40.5 111.5t70 104.5t102 71.5q-4 -26 -15 -91t-16.5 -100t-12 -88t-10.5 -98q-94 -192 -145 -192q-52 0 -35 172zM260 870q2 27 8 35l131 66l107 -66q3 -47 -31 -86l-92 58l-115 -58q-10 24 -8 51z" />
<glyph unicode="&#xe3;" d="M4 246q-5 -43 0.5 -84t21.5 -78.5t51 -60.5t85 -23q101 0 194 166q7 -73 42.5 -119.5t109.5 -46.5q53 0 97.5 33t73 84t49 114.5t29.5 121.5t9 108l-45 49q0 -82 -23.5 -184t-63 -178t-79.5 -76q-43 0 -33 139q11 132 64 446q-31 28 -75 48t-87 20l-8 -55q-70 55 -146 55 q-226 -166 -266 -479zM178 244q7 56 21.5 109.5t40.5 111.5t70 104.5t102 71.5q-4 -26 -15 -91t-16.5 -100t-12 -88t-10.5 -98q-94 -192 -145 -192q-52 0 -35 172zM188 819q-6 70 45 129q37 13 66 9t64 -12.5t65 -17t69 -4.5t78 25q0 -79 -43 -131q-42 -11 -73 -4.5 t-64.5 16t-62 18.5t-66.5 3t-78 -31z" />
<glyph unicode="&#xe4;" d="M4 246q40 313 266 479q76 0 146 -55l8 55q43 0 87 -20t75 -48q-53 -314 -64 -446q-10 -139 33 -139q40 0 79.5 76t63 178t23.5 184l45 -49q0 -50 -9 -108t-29.5 -121.5t-49 -114.5t-73 -84t-97.5 -33q-74 0 -109.5 46.5t-42.5 119.5q-93 -166 -194 -166q-50 0 -85 23 t-51 60.5t-21.5 78.5t-0.5 84zM145 907q4 35 33 60.5t64 25.5q57 0 73.5 -53t-28.5 -94q-44 -41 -96 -19t-46 80zM178 244q-17 -172 35 -172q51 0 145 192q4 45 10.5 98t12 88t16.5 100t15 91q-58 -25 -102 -71.5t-70 -104.5t-40.5 -111.5t-21.5 -109.5zM418 907 q5 35 33 60.5t63 25.5q57 0 73.5 -53t-28.5 -94q-44 -41 -95.5 -19t-45.5 80z" />
<glyph unicode="&#xe5;" d="M4 246q40 313 266 479q76 0 146 -55l8 55q43 0 87 -20t75 -48q-53 -314 -64 -446q-10 -139 33 -139q40 0 79.5 76t63 178t23.5 184l45 -49q0 -50 -9 -108t-29.5 -121.5t-49 -114.5t-73 -84t-97.5 -33q-74 0 -109.5 46.5t-42.5 119.5q-93 -166 -194 -166q-50 0 -85 23 t-51 60.5t-21.5 78.5t-0.5 84zM178 244q-17 -172 35 -172q51 0 145 192q4 45 10.5 98t12 88t16.5 100t15 91q-58 -25 -102 -71.5t-70 -104.5t-40.5 -111.5t-21.5 -109.5zM246 936q6 47 44 81t85 34q49 0 78.5 -34t25 -81t-44.5 -82q-41 -36 -87 -35t-75 33q-29 34 -26 84z M293 930q-4 -32 18 -51q21 -16 46.5 -13t45.5 21q21 20 27 46t-8 50q-18 21 -47 21q-31 0 -55 -21.5t-27 -52.5z" />
<glyph unicode="&#xe6;" horiz-adv-x="864" d="M4 246q40 315 266 481q80 0 146 -55q2 9 5 27.5t5 27.5q64 0 131 -45q17 17 53 45q86 0 159 -41t101 -104q-25 -130 -131 -215q-86 -70 -188 -70q-17 9 -27 25q-6 -48 -8 -96t15 -92t51 -60q87 0 176.5 73t144.5 177.5t55 195.5h39q0 -116 -64.5 -239t-162 -202 t-188.5 -79q-87 0 -139.5 50.5t-71.5 133.5q-27 -64 -87.5 -124t-119.5 -60q-50 0 -85.5 23t-52 60.5t-22 78.5t-0.5 84zM180 244q-21 -172 33 -172q36 0 85 71t64 117q0 46 5 80q10 82 45 303q-57 -25 -101 -72t-70 -104.5t-40.5 -112t-20.5 -110.5zM528 340q88 0 148 106 q55 93 55 187q-79 -41 -132 -120.5t-71 -172.5z" />
<glyph unicode="&#xe7;" horiz-adv-x="534" d="M4 318.5q7 71.5 33 134.5q72 171 213 274q65 0 127 -41q13 30 22 41q70 0 150 -41q-103 -160 -103 -287q-51 5 -90.5 36.5t-48.5 82.5q3 9 43 103q-118 -73 -170 -228q-10 -31 -17 -73.5t-8 -93t15.5 -93t50.5 -59.5q87 0 176.5 73t145 177.5t55.5 195.5h39 q0 -87 -39 -182t-99 -168.5t-135 -121.5t-143 -48h-6q-2 -10 -2 -31q1 -10 7 -34.5t5 -38.5q-5 -37 -36.5 -50.5t-63.5 9.5q-11 7 2 24q27 -21 49 8q17 24 6 56q-1 4 -6 23t-4.5 19.5t0.5 18.5q-65 14 -107 63.5t-55 114.5t-6 136.5z" />
<glyph unicode="&#xe8;" horiz-adv-x="499" d="M2 305.5q5 77.5 33 145.5q70 170 213 274q87 0 159.5 -40t98.5 -103q-22 -118 -111.5 -201.5t-206.5 -83.5q-16 8 -26 25q-32 -206 57 -248q87 0 176.5 72.5t145 177t55.5 196.5h37q0 -87 -39 -182t-98.5 -168.5t-134.5 -121.5t-142 -48q-81 0 -134 45t-70.5 114 t-12.5 146.5zM166 340q45 0 84.5 31t64 76.5t38.5 94.5t14 89q-79 -41 -131 -120t-70 -171zM182 954q137 0 189 -30l43 -105q-76 0 -133 31z" />
<glyph unicode="&#xe9;" horiz-adv-x="499" d="M2 305.5q5 77.5 33 145.5q70 170 213 274q87 0 159.5 -40t98.5 -103q-22 -118 -111.5 -201.5t-206.5 -83.5q-16 8 -26 25q-32 -206 57 -248q87 0 176.5 72.5t145 177t55.5 196.5h37q0 -87 -39 -182t-98.5 -168.5t-134.5 -121.5t-142 -48q-81 0 -134 45t-70.5 114 t-12.5 146.5zM166 340q45 0 84.5 31t64 76.5t38.5 94.5t14 89q-79 -41 -131 -120t-70 -171zM182 850l70 104q38 2 88 -7t72 -23l-142 -105q-57 0 -88 31z" />
<glyph unicode="&#xea;" horiz-adv-x="499" d="M2 305.5q5 77.5 33 145.5q70 170 213 274q87 0 159.5 -40t98.5 -103q-22 -118 -111.5 -201.5t-206.5 -83.5q-16 8 -26 25q-32 -206 57 -248q87 0 176.5 72.5t145 177t55.5 196.5h37q0 -87 -39 -182t-98.5 -168.5t-134.5 -121.5t-142 -48q-81 0 -134 45t-70.5 114 t-12.5 146.5zM166 340q45 0 84.5 31t64 76.5t38.5 94.5t14 89q-79 -41 -131 -120t-70 -171zM178 872q2 27 8 35l131 66l107 -66q3 -47 -31 -86l-92 58l-115 -58q-10 24 -8 51z" />
<glyph unicode="&#xeb;" horiz-adv-x="499" d="M2 305.5q5 77.5 33 145.5q70 170 213 274q87 0 159.5 -40t98.5 -103q-22 -118 -111.5 -201.5t-206.5 -83.5q-16 8 -26 25q-32 -206 57 -248q87 0 176.5 72.5t145 177t55.5 196.5h37q0 -87 -39 -182t-98.5 -168.5t-134.5 -121.5t-142 -48q-81 0 -134 45t-70.5 114 t-12.5 146.5zM63 907q4 35 33 60.5t64 25.5q57 0 73.5 -53t-28.5 -94q-44 -41 -96 -19t-46 80zM166 340q45 0 84.5 31t64 76.5t38.5 94.5t14 89q-79 -41 -131 -120t-70 -171zM336 907q5 35 33 60.5t63 25.5q57 0 73.5 -53t-28.5 -94q-44 -41 -95.5 -19t-45.5 80z" />
<glyph unicode="&#xec;" horiz-adv-x="247" d="M2 231q5 69 43 338q14 92 27 156q41 0 84.5 -20t74.5 -48l-16 -102q-38 -246 -47 -344q-5 -68 2 -103.5t33 -35.5q39 0 78.5 76t63.5 178t24 184l43 -49q0 -50 -8.5 -108t-29 -121.5t-49 -114.5t-72.5 -84t-97 -33q-48 0 -81.5 21t-49 56.5t-20.5 73t-3 80.5zM88 954 q136 0 188 -30l43 -105q-76 0 -133 31z" />
<glyph unicode="&#xed;" horiz-adv-x="247" d="M2 231q5 69 43 338q14 92 27 156q41 0 84.5 -20t74.5 -48l-16 -102q-38 -246 -47 -344q-5 -68 2 -103.5t33 -35.5q39 0 78.5 76t63.5 178t24 184l43 -49q0 -50 -8.5 -108t-29 -121.5t-49 -114.5t-72.5 -84t-97 -33q-48 0 -81.5 21t-49 56.5t-20.5 73t-3 80.5zM88 850 l70 104q38 2 87.5 -7t71.5 -23l-141 -105q-57 0 -88 31z" />
<glyph unicode="&#xee;" horiz-adv-x="247" d="M2 231q-2 -43 3 -80.5t20.5 -73t49 -56.5t81.5 -21q53 0 97 33t72.5 84t49 114.5t29 121.5t8.5 108l-43 49q0 -82 -24 -184t-63.5 -178t-78.5 -76q-26 0 -33 35.5t-2 103.5q9 98 47 344l16 102q-31 28 -74.5 48t-84.5 20q-13 -64 -27 -156q-38 -269 -43 -338zM84 870 q2 27 8 35l131 66l107 -66q3 -47 -31 -86l-92 58l-115 -58q-10 24 -8 51z" />
<glyph unicode="&#xef;" horiz-adv-x="247" d="M-20 907q5 35 33 60.5t63 25.5q57 0 73.5 -53t-28.5 -94q-44 -41 -95.5 -19t-45.5 80zM2 231q5 69 43 338q14 92 27 156q41 0 84.5 -20t74.5 -48l-16 -102q-38 -246 -47 -344q-5 -68 2 -103.5t33 -35.5q39 0 78.5 76t63.5 178t24 184l43 -49q0 -50 -8.5 -108t-29 -121.5 t-49 -114.5t-72.5 -84t-97 -33q-48 0 -81.5 21t-49 56.5t-20.5 73t-3 80.5zM231 907q4 35 33 60.5t64 25.5q57 0 73.5 -53t-28.5 -94q-44 -41 -96 -19t-46 80z" />
<glyph unicode="&#xf0;" horiz-adv-x="604" d="M4 246q40 315 266 481q80 0 146 -55q25 148 30 176l-102 -10q-7 34 3.5 70.5t31.5 62.5l92 8q9 54 37 201q47 -1 93 -18.5t77 -45.5q-4 -18 -13.5 -58.5t-13.5 -62.5l97 9q6 -81 -31 -132l-92 -8q-39 -200 -56 -309q-3 -25 -15.5 -104t-19 -133t-10.5 -107 q-14 -139 33 -139q40 0 79.5 76.5t63 179t23.5 184.5l45 -51q0 -50 -9 -108t-29.5 -121.5t-49 -114.5t-73 -84t-97.5 -33q-74 0 -110.5 47t-41.5 121q-94 -168 -194 -168q-50 0 -85.5 23t-52 60.5t-22 78.5t-0.5 84zM180 244q-21 -172 33 -172q50 0 147 194q7 92 41 303 q1 11 11 74q-57 -25 -101 -72t-70 -104.5t-40.5 -112t-20.5 -110.5z" />
<glyph unicode="&#xf1;" d="M0 66q25 -29 69 -46.5t87 -19.5q14 144 34 233q54 255 218 381q-3 -20 -14.5 -91t-16.5 -103.5t-11.5 -88t-9.5 -100.5q-2 -43 3 -80.5t20.5 -73t49 -56.5t81.5 -21q53 0 97 33t72.5 84t49 114.5t29 121.5t8.5 108l-43 49q0 -82 -24 -184t-63.5 -178t-78.5 -76 q-26 0 -33 35.5t-2 103.5q11 132 64 446q-71 68 -148 68q-142 -100 -225 -250q26 159 31 184q-32 27 -78 46.5t-84 19.5q-69 -401 -82 -659zM193 819q-6 70 45 129q37 13 66 9t64 -12.5t65 -17t69 -4.5t78 25q0 -79 -43 -131q-42 -11 -73 -4.5t-64.5 16t-62 18.5t-66.5 3 t-78 -31z" />
<glyph unicode="&#xf2;" horiz-adv-x="552" d="M10 125q-27 108 15 243.5t118 235.5q55 69 125 121q25 0 51 -13.5t39 -29.5q72 0 113 -25q36 -74 33 -192q54 -10 103 16.5t77 89.5l33 -16q-25 -70 -87 -109.5t-132 -37.5q-12 -85 -47 -166t-98 -149t-140 -93q-71 0 -129.5 34.5t-73.5 90.5zM148 141q11 -69 65 -69 q58 21 103 84.5t66 136.5t21 141q-75 44 -75 156q-78 -64 -136 -211q-58 -146 -44 -238zM229 954q137 0 189 -30l43 -105q-76 0 -133 31z" />
<glyph unicode="&#xf3;" horiz-adv-x="552" d="M10 125q-27 108 15 243.5t118 235.5q55 69 125 121q25 0 51 -13.5t39 -29.5q72 0 113 -25q36 -74 33 -192q54 -10 103 16.5t77 89.5l33 -16q-25 -70 -87 -109.5t-132 -37.5q-12 -85 -47 -166t-98 -149t-140 -93q-71 0 -129.5 34.5t-73.5 90.5zM148 141q11 -69 65 -69 q58 21 103 84.5t66 136.5t21 141q-75 44 -75 156q-78 -64 -136 -211q-58 -146 -44 -238zM229 850l70 104q38 2 88 -7t72 -23l-142 -105q-57 0 -88 31z" />
<glyph unicode="&#xf4;" horiz-adv-x="552" d="M10 125q15 -56 73.5 -90.5t129.5 -34.5q77 25 140 93t98 149t47 166q70 -2 132 37.5t87 109.5l-33 16q-28 -63 -77 -89.5t-103 -16.5q3 118 -33 192q-41 25 -113 25q-13 16 -39 29.5t-51 13.5q-70 -52 -125 -121q-76 -100 -118 -235.5t-15 -243.5zM146 180q1 112 69 251 q52 109 113 159q0 -112 75 -156q0 -68 -21 -141t-66 -136.5t-103 -84.5q-69 0 -67 108zM225 870q2 27 8 35l132 66l106 -66q3 -47 -31 -86l-92 58l-115 -58q-10 24 -8 51z" />
<glyph unicode="&#xf5;" horiz-adv-x="552" d="M10 125q15 -56 73.5 -90.5t129.5 -34.5q77 25 140 93t98 149t47 166q70 -2 132 37.5t87 109.5l-33 16q-28 -63 -77 -89.5t-103 -16.5q3 118 -33 192q-41 25 -113 25q-13 16 -39 29.5t-51 13.5q-70 -52 -125 -121q-76 -100 -118 -235.5t-15 -243.5zM146 180q1 112 69 251 q52 109 113 159q0 -112 75 -156q0 -68 -21 -141t-66 -136.5t-103 -84.5q-69 0 -67 108zM154 819q-6 70 45 129q37 13 66 9t64 -12.5t65 -17t69 -4.5t78 25q0 -79 -43 -131q-42 -11 -73 -4.5t-64.5 16t-62 18.5t-66.5 3t-78 -31z" />
<glyph unicode="&#xf6;" horiz-adv-x="552" d="M10 125q-27 108 15 243.5t118 235.5q55 69 125 121q25 0 51 -13.5t39 -29.5q72 0 113 -25q36 -74 33 -192q54 -10 103 16.5t77 89.5l33 -16q-25 -70 -87 -109.5t-132 -37.5q-12 -85 -47 -166t-98 -149t-140 -93q-71 0 -129.5 34.5t-73.5 90.5zM111 907q5 35 33 60.5 t63 25.5q57 0 73.5 -53t-28.5 -94q-44 -41 -95.5 -19t-45.5 80zM148 141q11 -69 65 -69q58 21 103 84.5t66 136.5t21 141q-75 44 -75 156q-78 -64 -136 -211q-58 -146 -44 -238zM383 907q5 35 33 60.5t63 25.5q57 0 73.5 -53t-28.5 -94q-44 -41 -95.5 -19t-45.5 80z" />
<glyph unicode="&#xf7;" horiz-adv-x="565" d="M2 526q-4 33 10.5 68t38.5 61h514q0 -80 -43 -129h-520zM156 354q3 35 31 60.5t63 25.5q38 0 60 -25.5t19 -60.5t-32 -61q-46 -41 -97 -19t-44 80zM240 829q5 35 33 60.5t63 25.5q38 0 60 -25.5t18 -60.5t-33 -61q-44 -41 -95.5 -19t-45.5 80z" />
<glyph unicode="&#xf8;" horiz-adv-x="528" d="M10 127q-31 119 27 279q40 113 106 198q61 77 127 123q53 0 112 -19.5t91 -48.5q49 -104 29 -251q-26 -158 -115 -275q-74 -100 -174 -133q-70 0 -129 35t-74 92zM147 219q25 34 71.5 99.5t86 120t74.5 100.5q-21 29 -53 23.5t-66 -48.5q-41 -53 -72 -129 q-36 -96 -41 -166zM170 90q15 -18 43 -18q63 21 117 100q72 112 78 240q-146 -194 -238 -322z" />
<glyph unicode="&#xf9;" horiz-adv-x="561" d="M2 231q5 69 43 338q14 92 27 156q40 0 83.5 -19.5t75.5 -48.5l-16 -102q-38 -246 -47 -344q-10 -139 37 -139q40 0 110 125v36q5 75 43 336q14 92 27 156q41 0 85 -20t75 -48l-17 -102q-38 -246 -47 -344q-5 -68 2 -103.5t33 -35.5q39 0 78.5 76t63.5 178t24 184l43 -49 q0 -50 -8.5 -108t-29 -121.5t-49 -114.5t-72.5 -84t-97 -33q-120 0 -145 125q-83 -125 -168 -125q-47 0 -80 21t-49 56.5t-21.5 73.5t-3.5 80zM246 954q136 0 188 -30l43 -105q-76 0 -133 31z" />
<glyph unicode="&#xfa;" horiz-adv-x="561" d="M2 231q5 69 43 338q14 92 27 156q40 0 83.5 -19.5t75.5 -48.5l-16 -102q-38 -246 -47 -344q-10 -139 37 -139q40 0 110 125v36q5 75 43 336q14 92 27 156q41 0 85 -20t75 -48l-17 -102q-38 -246 -47 -344q-5 -68 2 -103.5t33 -35.5q39 0 78.5 76t63.5 178t24 184l43 -49 q0 -50 -8.5 -108t-29 -121.5t-49 -114.5t-72.5 -84t-97 -33q-120 0 -145 125q-83 -125 -168 -125q-47 0 -80 21t-49 56.5t-21.5 73.5t-3.5 80zM246 848l69 104q38 2 88 -7t72 -23l-141 -105q-57 0 -88 31z" />
<glyph unicode="&#xfb;" horiz-adv-x="561" d="M2 231q-2 -42 3.5 -80t21.5 -73.5t49 -56.5t80 -21q85 0 168 125q25 -125 145 -125q53 0 97 33t72.5 84t49 114.5t29 121.5t8.5 108l-43 49q0 -82 -24 -184t-63.5 -178t-78.5 -76q-26 0 -33 35.5t-2 103.5q9 98 47 344l17 102q-31 28 -75 48t-85 20q-13 -64 -27 -156 q-38 -261 -43 -336v-36q-70 -125 -110 -125q-47 0 -37 139q9 98 47 344l16 102q-32 29 -75.5 48.5t-83.5 19.5q-13 -64 -27 -156q-38 -269 -43 -338zM242 870q2 27 8 35l131 66l106 -66q3 -48 -30 -86l-92 58l-115 -58q-10 24 -8 51z" />
<glyph unicode="&#xfc;" horiz-adv-x="561" d="M2 231q5 69 43 338q14 92 27 156q40 0 83.5 -19.5t75.5 -48.5l-16 -102q-38 -246 -47 -344q-10 -139 37 -139q40 0 110 125v36q5 75 43 336q14 92 27 156q41 0 85 -20t75 -48l-17 -102q-38 -246 -47 -344q-5 -68 2 -103.5t33 -35.5q39 0 78.5 76t63.5 178t24 184l43 -49 q0 -50 -8.5 -108t-29 -121.5t-49 -114.5t-72.5 -84t-97 -33q-120 0 -145 125q-83 -125 -168 -125q-47 0 -80 21t-49 56.5t-21.5 73.5t-3.5 80zM127 907q5 35 33 60.5t63 25.5q57 0 73.5 -53t-28.5 -94q-44 -41 -95.5 -19t-45.5 80zM399 907q4 35 33 60.5t64 25.5 q57 0 73.5 -53t-28.5 -94q-44 -41 -96 -19t-46 80z" />
<glyph unicode="&#xfd;" horiz-adv-x="561" d="M-74 -281q12 51 48 96t91 79t102 56.5t109 45.5l11 76v6q-68 -78 -133 -78q-47 0 -80 21t-48.5 56.5t-21 74t-2.5 79.5q5 102 43 338l25 156q40 0 83.5 -19.5t75.5 -48.5q-4 -38 -16 -102q-5 -36 -16 -108t-19 -128.5t-12 -107.5q-10 -139 39 -139q38 0 94 100 q43 290 84 553q42 0 86.5 -20.5t73.5 -47.5q-56 -368 -62 -413l-24 -170q69 33 115 83.5t74 136.5t28 204l51 -37q0 -101 -21.5 -179.5t-63 -132.5t-87.5 -89.5t-109 -67.5q-19 -142 -32 -221q-13 -87 -51 -158.5t-106.5 -118.5t-154.5 -47q-108 17 -153.5 95t-20.5 177z M2 -301q-16 -68 12 -124t88 -56q116 51 148 284l14 111q-51 -21 -80.5 -35.5t-73.5 -42t-71 -62t-37 -75.5zM195 850l69 104q38 2 88 -7t72 -23l-141 -105q-57 0 -88 31z" />
<glyph unicode="&#xfe;" horiz-adv-x="411" d="M0 66q40 423 164 1114q47 -1 93 -18.5t77 -45.5q-25 -109 -51 -235q44 -2 90.5 -17.5t70.5 -38.5q41 -99 20 -214.5t-87 -202.5q-58 -81 -137 -107q-26 0 -50 6q-23 -199 -34 -307q-42 2 -85.5 19.5t-70.5 46.5zM201 379q13 -19 39 -19q52 17 90 78q34 52 51 115t10 119 q-8 61 -41.5 74.5t-73.5 -35.5q-9 -10 -32 -52q-28 -163 -43 -280z" />
<glyph unicode="&#xff;" horiz-adv-x="561" d="M-74 -281q12 51 48 96t91 79t102 56.5t109 45.5l11 76v6q-68 -78 -133 -78q-47 0 -80 21t-48.5 56.5t-21 74t-2.5 79.5q5 102 43 338l25 156q40 0 83.5 -19.5t75.5 -48.5q-4 -38 -16 -102q-5 -36 -16 -108t-19 -128.5t-12 -107.5q-10 -139 39 -139q38 0 94 100 q43 290 84 553q42 0 86.5 -20.5t73.5 -47.5q-56 -368 -62 -413l-24 -170q69 33 115 83.5t74 136.5t28 204l51 -37q0 -101 -21.5 -179.5t-63 -132.5t-87.5 -89.5t-109 -67.5q-19 -142 -32 -221q-13 -87 -51 -158.5t-106.5 -118.5t-154.5 -47q-108 17 -153.5 95t-20.5 177z M2 -301q-16 -68 12 -124t88 -56q116 51 148 284l14 111q-51 -21 -80.5 -35.5t-73.5 -42t-71 -62t-37 -75.5zM76 909q5 35 33 60.5t63 25.5q57 0 73.5 -53t-28.5 -94q-44 -41 -95.5 -19t-45.5 80zM348 909q5 35 33 60.5t63 25.5q57 0 73.5 -53t-28.5 -94q-44 -41 -95.5 -19 t-45.5 80z" />
<glyph unicode="&#x152;" horiz-adv-x="1181" d="M0 442q0 57 2 86q12 46 46 70.5t85 38.5q-27 93 -14.5 186t57.5 176q47 84 121.5 132.5t165.5 48.5q109 0 174 -54q82 -70 121 -196q67 146 209 250q65 0 127 -41q10 27 22 41q70 0 150 -41q-41 -62 -72 -140t-31 -147q-51 5 -90.5 36.5t-48.5 82.5q1 3 43 102 q-65 -24 -120 -86t-83.5 -130.5t-28.5 -134t37 -97.5q24 6 62 6q53 0 63 -36q9 -31 -22 -53q-22 -16 -55 -16q-37 0 -89 25q-72 -51 -118.5 -125t-58 -147t1.5 -137t59.5 -104t115.5 -40q106 3 204.5 89t159 226t60.5 291l50 -37q0 -83 -23 -172.5t-68.5 -173t-107 -150.5 t-144.5 -107t-174 -40q-83 0 -152.5 41.5t-103.5 110.5q-97 -84 -206 -84q-69 0 -125 27t-91.5 71t-60 104t-35.5 120.5t-14 127.5zM158.5 438.5q-0.5 -80.5 12 -164.5t51 -146t95.5 -62q105 0 189 208q70 178 92 375q16 157 -6 285q-13 68 -46 107.5t-81 45.5 q-45 0 -99 -43.5t-85 -103.5q-39 -77 -47.5 -161.5t24.5 -166.5q24 -57 73.5 -90t119.5 -33q14 0 23 -17t9 -44q-91 -21 -180.5 14t-130.5 119q-13 -42 -13.5 -122.5z" />
<glyph unicode="&#x153;" horiz-adv-x="917" d="M10 127q-27 107 15 243t118 234q53 70 125 123q25 0 52 -13.5t40 -29.5q69 0 113 -25q23 -47 29 -108q70 110 162 176q88 0 161 -41t99 -104q-25 -122 -125 -202.5t-224 -80.5q-11 -77 1.5 -139.5t58.5 -85.5q88 0 178 73t145.5 177.5t55.5 195.5h37q0 -87 -39 -182 t-98.5 -168.5t-134.5 -121.5t-142 -48q-90 0 -143.5 52t-69.5 136q-81 -144 -211 -188q-70 0 -129 35t-74 92zM148 142q10 -70 65 -70q86 32 143 151q37 79 47 166q-70 83 -73 203q-79 -63 -137 -211q-59 -146 -45 -239zM586 358q63 0 115.5 42.5t75.5 107t7 125.5 q-74 -40 -125.5 -114t-72.5 -161z" />
<glyph unicode="&#x178;" horiz-adv-x="1005" d="M0 1106q63 -13 126 -3t104 27t98.5 33.5t109.5 16.5q39 0 89.5 -20.5t80.5 -45.5q-78 -338 -133 -725q-6 -44 -6.5 -91t5 -101t28.5 -88.5t61 -34.5q43 0 91 50t83 120l4 28q6 61 22.5 177t16.5 120q40 258 109 611q98 -6 168 -66q-67 -303 -107 -559 q-18 -115 -37.5 -259t-31.5 -220q101 61 169 207t68 323l51 -37q0 -193 -84.5 -352t-214.5 -225l-32 -219q-13 -87 -51 -159t-106.5 -119.5t-154.5 -47.5q-108 17 -153.5 95.5t-22.5 178.5q39 161 350 275l19 125q-38 -53 -87 -87t-100 -34q-63 0 -109.5 26t-70.5 70 t-38 100.5t-11.5 117t8.5 120.5q41 292 103 613q-44 -10 -162.5 -57.5t-185.5 -47.5q-30 29 -48 74t-18 90zM375 1376q5 35 33 60.5t63 25.5q57 0 73.5 -53t-28.5 -94q-44 -41 -95.5 -19t-45.5 80zM428 -299q-16 -68 12 -124t88 -56q113 49 146 282l16 111 q-40 -17 -63 -27.5t-61.5 -32t-62 -41t-45.5 -49.5t-30 -63zM647 1376q5 35 33 60.5t63 25.5q57 0 73.5 -53t-28.5 -94q-44 -41 -95.5 -19t-45.5 80z" />
<glyph unicode="&#x2c6;" horiz-adv-x="311" d="M2 1151q2 27 8 35l131 65l107 -65q3 -47 -31 -86l-92 57l-115 -57q-10 24 -8 51z" />
<glyph unicode="&#x2dc;" horiz-adv-x="450" d="M2 1122q-6 70 45 129q37 13 66 9t64 -12.5t65 -17t69 -4.5t78 25q0 -79 -43 -131q-42 -11 -73 -4.5t-64.5 16t-62 18.5t-66.5 3t-78 -31z" />
<glyph unicode="&#x2000;" horiz-adv-x="761" />
<glyph unicode="&#x2001;" horiz-adv-x="1522" />
<glyph unicode="&#x2002;" horiz-adv-x="761" />
<glyph unicode="&#x2003;" horiz-adv-x="1522" />
<glyph unicode="&#x2004;" horiz-adv-x="507" />
<glyph unicode="&#x2005;" horiz-adv-x="380" />
<glyph unicode="&#x2006;" horiz-adv-x="253" />
<glyph unicode="&#x2007;" horiz-adv-x="253" />
<glyph unicode="&#x2008;" horiz-adv-x="190" />
<glyph unicode="&#x2009;" horiz-adv-x="304" />
<glyph unicode="&#x200a;" horiz-adv-x="84" />
<glyph unicode="&#x2010;" horiz-adv-x="481" d="M2 526q-4 34 10 69t39 60h369q0 -80 -45 -131q-69 0 -186 1t-187 1z" />
<glyph unicode="&#x2011;" horiz-adv-x="481" d="M2 526q-4 34 10 69t39 60h369q0 -80 -45 -131q-69 0 -186 1t-187 1z" />
<glyph unicode="&#x2012;" horiz-adv-x="481" d="M2 526q-4 34 10 69t39 60h369q0 -80 -45 -131q-69 0 -186 1t-187 1z" />
<glyph unicode="&#x2013;" horiz-adv-x="573" d="M2 526q-4 34 10 69t39 60h461q0 -80 -45 -131q-69 0 -232 1t-233 1z" />
<glyph unicode="&#x2014;" horiz-adv-x="675" d="M2 526q-4 34 10 69t39 60h563q0 -80 -45 -131q-70 0 -284 1t-283 1z" />
<glyph unicode="&#x2018;" horiz-adv-x="237" d="M0 1159q1 43 27.5 88t62.5 70q11 8 21 8q13 0 4 -22q-14 -24 -23 -52q35 2 60.5 -23t21.5 -63q-5 -35 -33 -60.5t-63 -25.5q-36 0 -57 23t-21 57z" />
<glyph unicode="&#x2019;" horiz-adv-x="237" d="M2 1165q5 35 33 60.5t63 25.5q36 0 57 -23t21 -57q-1 -43 -27.5 -87t-62.5 -70q-11 -8 -20 -8q-14 0 -5 22q14 25 23 51q-35 -2 -60.5 23t-21.5 63z" />
<glyph unicode="&#x201a;" horiz-adv-x="237" d="M2 86q5 35 33 60.5t63 25.5t56.5 -23t21.5 -55q-1 -44 -27.5 -89t-62.5 -71q-11 -8 -20 -8q-15 0 -5 23q14 25 23 51q-35 -2 -60.5 23t-21.5 63z" />
<glyph unicode="&#x201c;" horiz-adv-x="452" d="M2 1159q0 43 26.5 87.5t63.5 70.5q11 8 21 8q13 0 4 -22q-9 -15 -25 -52q36 2 61.5 -22.5t22.5 -63.5q-5 -35 -33 -60.5t-63 -25.5q-36 0 -58 23.5t-20 56.5zM215 1159q1 43 27.5 88t62.5 70q11 8 21 8q13 0 4 -22q-14 -24 -23 -52q35 2 60.5 -23t21.5 -63 q-5 -35 -33 -60.5t-63 -25.5q-36 0 -57 23t-21 57z" />
<glyph unicode="&#x201d;" horiz-adv-x="452" d="M2 1165q5 35 33 60.5t63 25.5q36 0 57 -23t21 -57q-1 -43 -27.5 -87t-62.5 -70q-11 -8 -20 -8q-14 0 -5 22q14 25 23 51q-35 -2 -60.5 23t-21.5 63zM215 1165q5 35 33 60.5t63 25.5q36 0 58 -23.5t20 -56.5q0 -43 -26.5 -87t-63.5 -70q-11 -8 -20 -8q-14 0 -5 22 q10 18 25 51q-36 -2 -61.5 22.5t-22.5 63.5z" />
<glyph unicode="&#x201e;" horiz-adv-x="452" d="M2 86q5 35 33 60.5t63 25.5q36 0 57 -23t21 -57q-1 -43 -27.5 -88t-62.5 -70q-11 -8 -20 -8q-15 0 -5 23q14 25 23 51q-35 -2 -60.5 23t-21.5 63zM215 86q5 35 33 60.5t63 25.5q36 0 58 -23.5t20 -56.5q0 -43 -26.5 -87.5t-63.5 -70.5q-11 -8 -20 -8q-15 0 -5 23 q10 18 25 51q-36 -2 -61.5 22.5t-22.5 63.5z" />
<glyph unicode="&#x2022;" horiz-adv-x="325" d="M2 590q6 54 48.5 91.5t96.5 37.5q56 0 88.5 -38t27.5 -90.5t-48 -92.5q-49 -38 -98.5 -38.5t-85 37t-29.5 93.5z" />
<glyph unicode="&#x2026;" horiz-adv-x="712" d="M2 86q5 35 33 60.5t63 25.5q57 0 73.5 -53t-28.5 -94q-32 -24 -64.5 -24.5t-56.5 24t-20 61.5zM240 86q5 35 33 60.5t63 25.5q57 0 73.5 -53t-28.5 -94q-32 -24 -64.5 -24.5t-56.5 24t-20 61.5zM477 86q5 35 33 60.5t63 25.5q57 0 73.5 -53t-28.5 -94 q-32 -24 -64.5 -24.5t-56.5 24t-20 61.5z" />
<glyph unicode="&#x202f;" horiz-adv-x="304" />
<glyph unicode="&#x2039;" horiz-adv-x="337" d="M0 551q36 78 158 321q40 -6 66 -26t52 -58q-103 -207 -124 -249q36 -125 49 -170q-33 -32 -62.5 -46.5t-70.5 -13.5q-11 40 -33.5 121t-34.5 121z" />
<glyph unicode="&#x203a;" horiz-adv-x="337" d="M0 393q14 27 39.5 78l46.5 93t39 79q-37 125 -49 170q33 31 62.5 45.5t70.5 13.5q11 -40 33 -120.5t34 -120.5q-58 -125 -157 -322q-39 6 -65.5 26.5t-53.5 57.5z" />
<glyph unicode="&#x205f;" horiz-adv-x="380" />
<glyph unicode="&#x20ac;" horiz-adv-x="876" d="M2 393q-4 33 10.5 69t38.5 60h6q9 53 35 135h-37q-4 33 10 68.5t37 60.5h39q10 18 21 43q69 136 161 230t193 121q66 0 125 -41q13 26 23 41q71 0 151 -41q-41 -61 -71.5 -139t-30.5 -148q-51 5 -91 36.5t-49 82.5q1 3 43 102q-166 -68 -276 -264q-2 -4 -6 -11.5 t-6 -11.5h190q0 -80 -45 -131h-201q-24 -65 -36 -131q151 0 229 -2q0 -80 -45 -131q-133 0 -201 2q-3 -60 2 -106q20 -215 207 -215q39 0 86 26.5t70 63.5q36 -14 45 -45q-42 -52 -110.5 -85.5t-135.5 -33.5q-139 0 -224 67.5t-108 198.5q-11 73 -8 129h-41z" />
<glyph unicode="&#x2122;" horiz-adv-x="536" d="M0 1217q0 25 18 36q21 0 59 -3.5t66.5 -3.5t51.5 7q0 -26 -15 -41q-15 -3 -78 2q10 -4 17 -10q-22 -111 -35 -239q-26 0 -39 16q8 97 33 238q-58 6 -78 -2zM168 981q4 72 35 240l6 32q21 0 41 -16q-12 -55 -21 -111q30 72 93 127q22 0 40 -18q-10 -43 -20 -109 q36 84 92 127q25 0 41 -16q-22 -96 -29 -160q-6 -35 -14 -112q-26 0 -39 16q2 35 10 100q10 66 21 119q-76 -63 -94 -156q-10 -70 -11 -79q-22 0 -38 16q3 48 12 102q12 86 20 125q-45 -43 -72.5 -107.5t-33.5 -135.5q-23 0 -39 16z" />
<glyph unicode="&#x25fc;" horiz-adv-x="727" d="M0 0v727h727v-727h-727z" />
<glyph unicode="&#xfb01;" horiz-adv-x="698" d="M6 -162q14 119 32 242t48 306.5t39 240.5q-18 -6 -39 -9q0 28 11 61t22 46h24q45 270 82 455q97 -3 170 -66q-28 -120 -78 -389h373q-9 -62 -28 -172q-4 -31 -16 -105.5t-19 -130t-11 -108.5q-14 -139 33 -139q40 0 79.5 76.5t63 179t23.5 184.5l45 -51q0 -50 -9 -108 t-29.5 -121.5t-49 -114.5t-73 -84t-97.5 -33q-48 0 -81 21t-48.5 56.5t-20 73.5t-1.5 82q6 105 43 336q2 19 7 53.5t7 49.5q-87 -2 -203 -13q55 -116 72.5 -289.5t0.5 -338.5t-60.5 -310.5t-102.5 -214.5q-125 0 -176 88t-33 246zM166.5 -264q-0.5 -27 3 -45.5t12.5 -38.5 t23 -31q86 161 112 441.5t-32 484.5q-10 -65 -35 -219.5t-42.5 -268t-31.5 -219.5q0 -1 -3.5 -24.5t-4.5 -38t-1.5 -41.5zM543 879q0 -41 28.5 -70t69.5 -29q40 0 69 29t29 70q0 40 -29 69t-69 29q-41 0 -69.5 -29t-28.5 -69z" />
<glyph unicode="&#xfb02;" horiz-adv-x="698" d="M6 -162q14 119 32 242t48 306.5t39 240.5q-18 -6 -39 -9q0 28 11 61t22 46h24q45 270 82 455q97 -3 170 -66q-28 -120 -78 -389h205q20 122 82 455q47 -1 93 -19.5t77 -46.5q-53 -225 -108 -561q-3 -25 -15.5 -104t-19 -133t-10.5 -107q-14 -139 32 -139q40 0 79.5 76.5 t63 179t23.5 184.5l45 -51q0 -50 -9 -108t-29.5 -121.5t-49 -114.5t-73 -84t-97.5 -33q-48 0 -81 21t-48.5 56.5t-20 73.5t-1.5 82q6 105 43 336q5 40 16 103q-94 -2 -209 -13q55 -116 72.5 -289.5t0.5 -338.5t-60.5 -310.5t-102.5 -214.5q-125 0 -176 88t-33 246z M166.5 -264q-0.5 -27 3 -45.5t12.5 -38.5t23 -31q86 161 112 441.5t-32 484.5q-10 -65 -35 -219.5t-42.5 -268t-31.5 -219.5q0 -1 -3.5 -24.5t-4.5 -38t-1.5 -41.5z" />
</font>
</defs>
</svg>
