<?xml version="1.0" standalone="no"?>
<!DOCTYPE svg PUBLIC "-//W3C//DTD SVG 1.1//EN" "http://www.w3.org/Graphics/SVG/1.1/DTD/svg11.dtd" >
<svg>
<metadata>
Created by FontForge 20120731 at Thu Oct 23 01:33:03 2014
 By Orthosie Webhosting
Copyright (c) 2014 by Seniors Studio. All rights reserved.
</metadata>
<defs>
<font id="ShepiaScript" horiz-adv-x="548" >
  <font-face 
    font-family="Shepia Script"
    font-weight="400"
    font-stretch="normal"
    units-per-em="1000"
    panose-1="2 0 5 5 0 0 0 2 0 4"
    ascent="800"
    descent="-200"
    x-height="508"
    cap-height="762"
    bbox="-3134 -303 3863 1363"
    underline-thickness="50"
    underline-position="-50"
    stemh="51"
    stemv="51"
    unicode-range="U+0020-FB02"
  />
<missing-glyph horiz-adv-x="190" 
 />
    <glyph glyph-name="e_r" unicode="er" horiz-adv-x="694" 
d="M799 338c9 -10 10 -27 0 -36c-9 -10 -25 -30 -45 -55c-141 -165 -221 -249 -267 -249c-25 0 -38 11 -42 20c-31 22 48 153 103 233c59 87 77 129 34 161c-5 3 -9 5 -13 9c-18 -23 -43 -56 -71 -90c-32 -40 -56 -65 -93 -103c-155 -154 -279 -230 -372 -230
c-29 0 -45 11 -52 22c-11 13 -17 32 -17 52c0 134 206 439 354 439c41 0 60 -18 65 -32c15 -24 13 -62 -12 -100c-43 -75 -158 -157 -304 -161c-32 -57 -50 -109 -50 -146c0 -8 0 -16 4 -19c0 -1 1 -3 12 -3c79 0 195 74 338 217c32 30 59 63 89 97c31 38 57 71 75 96
c-26 34 -37 71 -26 104c10 33 39 52 78 52c32 0 44 -17 52 -28c9 -26 0 -66 -40 -124c3 -4 6 -7 14 -10c91 -67 21 -164 -22 -232c-33 -45 -82 -125 -96 -170c45 22 167 170 218 228c22 25 40 45 50 57c11 10 25 11 36 1zM318 460c-65 0 -154 -89 -220 -188
c113 13 196 73 230 132c12 25 15 43 12 51c-4 5 -17 5 -22 5zM566 507c23 35 25 50 25 57h-4c-24 0 -27 -10 -27 -14c-5 -11 -5 -28 6 -43z" />
    <glyph glyph-name="r_r" unicode="rr" horiz-adv-x="614" 
d="M715 340c9 -13 10 -28 1 -39c-8 -10 -27 -30 -47 -54c-141 -164 -219 -247 -264 -247c-26 0 -37 12 -40 20c-33 23 46 152 100 231c60 89 76 128 33 161c-2 3 -6 6 -11 7c-20 -26 -51 -63 -81 -101c-31 -36 -61 -74 -92 -110c-120 -138 -191 -208 -231 -208
c-26 0 -37 12 -41 20c-33 23 47 152 100 231c59 89 78 128 34 161c-4 3 -7 6 -11 7c-28 -35 -74 -92 -118 -144c-6 -6 -9 -11 -13 -15c-9 -12 -26 -12 -36 -5c-11 9 -13 27 -5 36c2 4 6 8 15 18c49 59 95 114 121 149c-26 33 -35 73 -25 105c9 33 38 51 78 51
c32 0 45 -16 50 -29c10 -24 0 -65 -38 -123c4 -4 7 -6 13 -9c91 -66 22 -164 -21 -231c-32 -43 -82 -123 -97 -170c40 21 139 134 196 203c25 28 49 58 72 86c40 46 74 88 96 117c-27 33 -37 73 -27 105c10 33 39 51 79 51c31 0 44 -16 50 -29c11 -24 0 -65 -39 -123
c4 -4 8 -6 12 -9c92 -66 25 -164 -19 -231c-33 -43 -83 -123 -97 -170c45 24 169 169 218 230c22 23 38 44 48 57c11 8 26 9 37 1zM160 504c23 37 26 52 26 59h-4c-25 0 -28 -12 -28 -15c-3 -10 -3 -28 6 -44zM483 504c22 37 26 52 26 59h-4c-24 0 -28 -12 -28 -15
c-4 -10 -4 -28 6 -44z" />
    <glyph glyph-name="e_s" unicode="es" horiz-adv-x="767" 
d="M881 340c11 -10 12 -28 4 -37c-78 -88 -148 -122 -216 -137c-31 -92 -101 -166 -213 -166c-31 0 -59 11 -78 32c-17 17 -22 40 -18 63c8 57 92 103 196 112h17c19 4 39 4 57 7c4 12 5 25 7 39c2 32 3 62 6 94c0 12 0 26 1 39c-6 0 -13 -2 -21 -5
c-106 -30 -129 -63 -202 -137c-90 -90 -255 -244 -386 -244c-28 0 -44 11 -52 21c-10 14 -17 33 -17 53c0 136 204 437 353 437c40 0 59 -21 65 -31c13 -25 13 -63 -11 -100c-46 -77 -158 -157 -304 -162c-33 -54 -50 -110 -50 -144c0 -8 1 -16 5 -20c0 0 1 -2 11 -2
c115 0 292 164 368 247c67 74 111 104 206 132c14 5 26 8 41 15c10 71 33 130 110 127c23 0 52 -17 58 -45c7 -25 -1 -63 -77 -102c-16 -8 -31 -13 -44 -20c-1 -20 -3 -39 -4 -63c-1 -31 -1 -62 -4 -94c-1 -10 -3 -17 -6 -25c51 14 104 45 163 113c9 10 25 11 35 3zM759 521
c-29 0 -45 -16 -53 -53c3 1 7 3 12 5c44 20 50 37 49 41c0 4 -4 7 -8 7zM319 460c-65 0 -154 -88 -217 -187c110 13 191 74 225 132c14 25 17 42 13 50c-3 5 -17 5 -21 5zM456 52c75 0 125 44 156 108c-12 -2 -25 -3 -36 -4h-15c-93 -7 -148 -49 -150 -67
c-1 -11 2 -19 6 -24c9 -9 23 -13 39 -13z" />
    <glyph glyph-name="a_x" unicode="ax" horiz-adv-x="1001" 
d="M1116 338c8 -8 11 -23 4 -35c-152 -197 -244 -302 -318 -302c-16 0 -30 8 -43 19c-31 34 -37 106 -34 189c-109 -93 -218 -180 -289 -208c-3 -1 -5 -1 -7 -1c-12 0 -22 7 -26 17c-3 12 3 29 14 32c74 28 198 131 308 230c0 4 3 13 3 19c2 17 2 30 2 40
c1 80 -8 106 -19 116c-1 1 -3 3 -8 2c-23 -2 -136 -151 -165 -187c-55 -70 -187 -269 -270 -269v0c-13 1 -48 7 -48 60c1 15 6 34 12 60c-64 -66 -134 -117 -189 -120c-25 0 -47 12 -58 29c-35 58 22 174 51 222c52 96 174 259 287 259c33 0 60 -15 76 -38
c17 23 34 38 46 38c17 0 29 -15 29 -29c0 -30 -65 -146 -151 -257c-33 -77 -55 -147 -49 -172c46 9 186 198 232 254c42 54 135 201 196 201c19 0 33 -5 45 -18c25 -24 36 -68 33 -151v-11c151 132 211 184 247 183c16 0 34 -8 44 -21c13 -17 19 -38 13 -67
c-3 -14 -15 -23 -28 -23c-14 5 -24 16 -22 29c3 22 0 28 -2 28c0 3 -5 3 -8 3c-24 -5 -127 -98 -210 -173c-13 -10 -25 -20 -38 -32c-1 -70 -4 -173 20 -199c2 -1 5 -1 6 -1c57 0 174 145 276 280c12 12 26 13 38 4zM41 52c63 2 162 102 244 206c25 60 54 118 80 164
c-1 6 -3 12 -6 16c-7 13 -17 19 -36 19c-65 0 -170 -98 -244 -233c-54 -95 -59 -154 -51 -167c2 -2 3 -5 13 -5z" />
    <glyph glyph-name="u_s" unicode="us" horiz-adv-x="838" 
d="M949 340c10 -9 11 -27 2 -37c-77 -89 -147 -122 -213 -137c-32 -90 -103 -165 -213 -165c-31 0 -61 10 -78 31c-16 18 -21 40 -18 64c8 56 92 103 195 111h17c19 4 38 4 55 6c4 12 8 27 9 41c4 30 4 61 6 92c1 13 1 27 1 40c-6 -1 -13 -3 -20 -6
c-72 -20 -115 -42 -162 -97c-57 -64 -191 -280 -257 -281c-22 0 -41 8 -51 26c-12 24 -7 65 9 112c-71 -75 -145 -138 -188 -140h-2c-33 0 -48 15 -58 28c-34 63 46 201 152 375c25 41 43 75 53 94c6 11 20 18 34 11c11 -6 17 -19 11 -34c-9 -20 -28 -54 -56 -97
c-50 -84 -173 -283 -148 -322c2 -3 8 -3 12 -3c40 0 169 136 261 241c32 58 62 107 69 118l5 6c53 81 65 94 87 94c14 0 25 -9 29 -21c12 -20 3 -39 -55 -110c-3 -3 -3 -4 -5 -6c-10 -13 -43 -56 -87 -106c-60 -109 -90 -197 -79 -216h3c50 15 176 214 225 270
c49 58 112 89 184 108c13 5 26 8 40 14c10 72 34 130 108 128c24 0 52 -16 59 -46c6 -24 -1 -63 -76 -99c-15 -9 -30 -15 -44 -22c-2 -19 -3 -38 -3 -62c-2 -30 -3 -62 -7 -94c-1 -9 -2 -17 -3 -26c49 15 104 46 161 113c10 10 25 13 36 4zM825 520c-28 0 -43 -16 -52 -55
c6 4 9 5 13 8c42 19 50 36 50 41c0 2 -7 6 -11 6zM525 52c75 0 125 45 154 108c-13 -1 -25 -3 -34 -4l-18 -1c-92 -7 -145 -46 -148 -67c-1 -9 0 -17 7 -22c9 -9 22 -14 39 -14z" />
    <glyph glyph-name="s_s" unicode="ss" horiz-adv-x="778" 
d="M890 339c11 -10 13 -27 4 -36c-77 -89 -149 -124 -214 -137c-33 -91 -102 -166 -214 -166c-32 0 -59 11 -77 31c-16 17 -24 40 -18 65c7 54 92 101 196 110h16c18 2 39 2 57 6c3 12 5 27 5 41c5 30 6 61 8 94c0 11 0 25 2 39c-8 -1 -14 -3 -21 -6
c-67 -19 -105 -38 -155 -88c-58 -65 -117 -106 -203 -126c-31 -91 -102 -166 -213 -166c-31 0 -59 11 -77 31c-17 17 -23 40 -20 65c9 54 93 101 198 110h16c19 2 38 2 57 6c2 12 6 27 7 41c1 30 2 61 4 94c2 11 2 25 4 39c-7 -1 -14 -3 -23 -6c-60 -18 -104 -30 -186 -121
c-9 -10 -24 -12 -35 -4c-12 11 -13 27 -3 39c91 101 146 117 211 136c13 5 27 8 41 14c9 72 33 130 108 128c24 0 53 -16 59 -45c7 -25 -3 -63 -76 -101c-16 -9 -31 -15 -45 -21c0 -19 -1 -38 -2 -64c-3 -29 -4 -61 -6 -92c-1 -10 -3 -17 -5 -26c65 20 103 53 147 99
c58 61 100 85 182 108c14 5 26 8 40 14c11 72 35 130 111 128c21 0 50 -16 58 -45c5 -25 -2 -63 -77 -101c-16 -9 -30 -15 -44 -21c-3 -19 -4 -38 -4 -64c-1 -29 -2 -61 -6 -92c-1 -10 -1 -17 -3 -26c49 14 103 46 161 112c9 12 24 13 35 4zM769 519c-29 0 -45 -16 -54 -53
c5 2 8 3 13 5c43 22 51 38 49 43c0 3 -5 5 -8 5zM364 519c-29 0 -43 -16 -51 -53c3 2 7 3 11 5c44 22 51 38 50 43c0 3 -5 5 -10 5zM63 50c76 0 124 47 155 109c-12 -1 -24 -2 -34 -3l-17 -1c-93 -8 -146 -48 -149 -67c-2 -10 1 -18 6 -24c8 -8 23 -14 39 -14zM466 50
c74 0 126 47 156 109c-14 -1 -25 -2 -36 -3l-18 -1c-90 -8 -146 -48 -148 -67c0 -10 1 -18 8 -24c8 -8 22 -14 38 -14z" />
    <glyph glyph-name=".notdef" horiz-adv-x="190" 
 />
    <glyph glyph-name="b" unicode="b" horiz-adv-x="430" 
d="M530 341c10 -8 13 -25 6 -36c-76 -101 -115 -131 -169 -131c-10 0 -34 2 -54 28c-58 -93 -146 -201 -240 -202h-1c-36 0 -53 18 -63 33c-42 73 44 253 122 391c1 3 195 338 278 338c36 0 50 -18 53 -32c39 -103 -357 -474 -360 -477c-1 -2 -2 -2 -2 -2
c-35 -76 -54 -141 -49 -179c2 -19 7 -21 21 -21c80 1 165 114 225 221c1 76 42 212 97 214c9 -1 20 -5 26 -15c21 -35 -55 -178 -71 -208c0 -1 -1 -3 -1 -3c0 -7 1 -14 2 -19c6 -16 12 -16 17 -16c31 0 57 18 126 110c10 11 24 13 37 6zM409 711
c-39 -10 -149 -161 -238 -318c110 113 247 275 243 318h-5z" />
    <glyph glyph-name="c" unicode="c" horiz-adv-x="347" 
d="M473 338c11 -9 11 -25 2 -35c-137 -149 -303 -303 -437 -303c-30 0 -46 12 -54 22c-11 14 -15 32 -15 53c0 133 204 435 350 435c39 0 58 -14 67 -28c14 -18 19 -44 11 -73c-2 -14 -17 -22 -30 -19c-13 4 -22 18 -18 30c4 14 2 25 -3 31s-17 9 -27 9
c-113 0 -300 -281 -300 -385c0 -9 4 -16 5 -20c1 -1 4 -3 14 -3c131 0 320 200 399 286c10 9 26 9 36 0z" />
    <glyph glyph-name="d" unicode="d" horiz-adv-x="447" 
d="M524 336c10 10 25 13 37 3c11 -10 12 -25 3 -37c-24 -27 -47 -58 -74 -94c-81 -108 -157 -209 -225 -209c-12 0 -27 7 -34 19c-11 27 2 81 27 151c-85 -97 -168 -168 -220 -168c-27 -2 -47 9 -61 29c-33 58 27 178 54 226c73 127 193 256 288 256c36 0 65 -16 86 -43
c51 98 101 177 116 201c55 88 69 92 87 92c14 0 26 -13 26 -28c0 -41 -113 -228 -245 -402c-60 -123 -110 -237 -113 -278c43 14 117 112 173 184c28 36 53 69 75 98zM36 50c62 3 191 147 307 303c9 18 19 37 27 54c0 9 -1 20 -7 30c-6 12 -19 25 -44 25
c-63 0 -167 -98 -242 -232c-58 -100 -63 -158 -53 -174c0 -2 1 -3 12 -6z" />
    <glyph glyph-name="n" unicode="n" horiz-adv-x="466" 
d="M575 337c11 -9 11 -24 3 -35c-18 -18 -42 -48 -67 -77c-87 -99 -191 -224 -241 -225c-36 -1 -51 15 -53 45c-1 44 48 118 99 198c52 80 107 165 107 206c0 7 -4 11 -18 11c-73 0 -249 -228 -359 -367c-26 -35 -50 -66 -67 -83v0c-9 -10 -18 -13 -29 -7
c-14 5 -19 20 -12 33c20 43 56 114 95 187c52 103 110 211 141 274c7 12 23 17 36 10s17 -23 10 -34c-31 -58 -77 -147 -125 -239c108 133 234 277 310 277c48 0 69 -25 69 -62c0 -56 -60 -147 -117 -232c-47 -74 -91 -143 -91 -170c0 -3 1 2 3 2c26 2 125 117 203 209
c22 27 48 56 67 78c11 11 25 12 36 1z" />
    <glyph glyph-name="zero" unicode="0" horiz-adv-x="613" 
d="M659 703c13 -31 11 -72 0 -119c-9 -44 -28 -94 -55 -146c-103 -199 -313 -430 -492 -440c-50 -3 -85 13 -109 40c-25 31 -33 74 -29 125c3 47 19 102 40 158c73 185 231 394 365 440c14 4 29 -3 32 -16c5 -14 -2 -28 -16 -33c-120 -41 -263 -237 -331 -410
c-21 -52 -35 -101 -39 -143c-2 -39 2 -69 18 -87c13 -16 34 -24 66 -22c159 9 352 224 448 412c25 48 43 94 53 134c8 36 9 67 1 87c-7 17 -22 26 -48 26c-17 0 -33 -2 -48 -5c-4 -16 -10 -32 -18 -47c-18 -33 -45 -63 -71 -85c-24 -18 -47 -32 -68 -36
c-26 -6 -45 -1 -56 11c-14 12 -16 30 -10 50c3 14 12 31 25 48c30 37 83 79 150 100v9c-2 9 -6 17 -13 25c-8 11 -7 28 4 37s27 7 37 -4c11 -15 20 -31 22 -47c1 -3 0 -5 1 -8c14 2 29 4 45 4c49 0 80 -22 96 -58zM339 584c-1 0 -2 0 -1 -1zM450 681c1 1 1 2 2 3
c-42 -19 -74 -46 -94 -72c-8 -10 -14 -19 -16 -28c1 1 3 2 5 2c12 3 28 13 46 26c22 18 43 43 57 69z" />
    <glyph glyph-name="one" unicode="1" horiz-adv-x="404" 
d="M449 757c10 -8 11 -22 6 -32v-1l-357 -711c-6 -12 -22 -17 -34 -10c-13 6 -19 22 -12 34l286 571c-12 -10 -26 -20 -39 -28c-56 -36 -119 -63 -193 -85c-13 -3 -28 5 -32 18c-4 14 4 27 18 31c69 21 127 45 179 78c51 34 97 76 141 131c9 11 26 13 37 4z" />
    <glyph glyph-name="two" unicode="2" horiz-adv-x="616" 
d="M590 697c21 -29 34 -64 37 -103c2 -38 -6 -79 -24 -120c-39 -90 -132 -180 -289 -231c-43 -15 -88 -31 -139 -64c-37 -26 -78 -61 -123 -111c114 19 197 6 267 -6c68 -11 122 -20 175 15c14 7 29 4 37 -8c8 -13 4 -28 -8 -36c-71 -45 -133 -35 -213 -21
c-78 12 -175 29 -317 -10c-9 -3 -17 -2 -24 4c-12 8 -14 25 -5 36v0c69 88 128 143 183 179c56 38 104 56 151 71c142 46 224 124 259 202c14 34 20 67 18 97c-2 29 -11 54 -26 74c-21 28 -55 45 -99 45c-21 0 -40 -1 -59 -6c-52 -12 -95 -41 -124 -78
c-30 -35 -47 -79 -47 -121c0 -13 1 -24 4 -36s9 -20 16 -24c5 -3 11 -6 19 -4c8 1 17 4 25 8c14 8 26 22 30 38c3 13 17 22 31 19c14 -4 23 -17 19 -31c-7 -32 -29 -56 -54 -70c-15 -9 -31 -15 -48 -16s-35 3 -50 12c-17 10 -32 29 -38 56c-4 15 -6 32 -6 48
c0 55 22 110 59 154c37 45 89 80 151 95c23 5 48 8 72 8c61 0 109 -25 140 -65z" />
    <glyph glyph-name="three" unicode="3" horiz-adv-x="634" 
d="M526 389c39 -35 57 -79 54 -132c-9 -126 -158 -258 -364 -258h-6c-88 1 -167 34 -208 88c-28 37 -36 81 -23 128c11 39 47 68 87 69h3c39 0 73 -27 88 -73c5 -13 -2 -28 -15 -33c-14 -5 -29 2 -34 16c-8 26 -23 41 -40 38c-18 0 -34 -13 -39 -31c-8 -31 -3 -59 14 -83
c31 -40 97 -66 167 -67h5c176 0 306 109 313 209c3 41 -14 74 -48 98c-31 -15 -69 -25 -108 -29c-65 -5 -112 9 -129 40c-10 17 -9 36 1 52c19 28 65 40 124 31c44 -6 82 -18 113 -34c0 1 1 1 1 1c101 79 119 160 102 211c-16 49 -66 78 -135 79c-101 2 -153 -35 -168 -71
c-8 -19 -4 -34 2 -41c10 -9 27 -2 34 1c13 5 28 0 34 -14c5 -13 0 -28 -13 -34c-36 -15 -68 -12 -91 10c-24 23 -29 61 -14 98c11 26 57 105 217 103c91 -1 160 -45 183 -115c28 -81 -13 -180 -107 -257zM368 381c16 1 32 4 48 8c-17 5 -35 9 -55 12c-42 6 -65 -2 -72 -7
c6 -6 28 -17 79 -13z" />
    <glyph glyph-name="four" unicode="4" horiz-adv-x="587" 
d="M621 746c3 -7 2 -14 -1 -20l-237 -458c8 -1 17 -1 26 -1c4 0 10 1 15 4c8 4 14 9 19 14c3 5 6 9 6 14c0 2 -1 4 -2 7c-6 13 -1 28 12 34c13 7 28 2 34 -11c5 -10 7 -20 7 -30c1 -17 -7 -33 -17 -47c-10 -12 -23 -21 -36 -28c-13 -5 -26 -9 -38 -9c-19 0 -36 2 -51 5
l-108 -207c-5 -13 -21 -17 -34 -12c-12 7 -17 23 -11 36l101 195c-7 2 -12 4 -19 7h-4c-48 16 -94 19 -138 14c-48 -4 -94 -14 -142 -29v0c-14 -3 -28 5 -31 19c-3 8 0 16 5 23h-1c82 103 166 200 265 285c98 85 210 157 347 210v0c14 6 28 -1 33 -15zM330 279l210 406
c-101 -47 -188 -106 -266 -173c-76 -66 -144 -139 -209 -219c24 5 49 10 75 12c51 5 104 1 159 -16l4 -1c9 -4 18 -6 27 -9z" />
    <glyph glyph-name="five" unicode="5" horiz-adv-x="675" 
d="M717 744c5 -13 -2 -28 -16 -33c-75 -26 -126 -38 -176 -37c-45 0 -89 12 -148 31l-132 -237c129 38 217 31 268 -3c43 -27 63 -70 63 -119c0 -46 -17 -97 -48 -147c-71 -110 -216 -210 -399 -199c-83 5 -129 39 -147 82c-11 26 -12 54 -5 81c6 25 21 50 41 69
c38 38 97 57 162 29c13 -5 19 -20 14 -33c-6 -13 -20 -19 -34 -13c-43 17 -82 6 -106 -19c-14 -13 -22 -29 -27 -46c-4 -17 -3 -32 3 -47c10 -26 42 -48 102 -52c162 -10 290 80 353 177c25 40 39 82 39 118c0 31 -12 58 -38 76c-48 31 -140 31 -287 -23v1
c-7 -3 -14 -2 -22 1c-11 7 -16 23 -9 35l175 313v0c5 10 18 16 30 12c65 -23 109 -35 153 -36c43 -1 89 11 158 35c13 5 28 -3 33 -16z" />
    <glyph glyph-name="six" unicode="6" horiz-adv-x="587" 
d="M582 716c9 -14 13 -30 13 -47c1 -15 -3 -31 -9 -46c-15 -37 -48 -69 -94 -74c-14 -3 -27 7 -29 22c-2 14 8 26 23 28c24 4 44 22 52 43c3 9 6 18 6 26c-1 8 -3 16 -6 22c-7 12 -23 21 -49 21c-174 0 -337 -186 -416 -365c-20 -47 -35 -94 -42 -136c-8 -41 -7 -76 1 -103
c11 -34 35 -55 78 -55c118 0 220 107 268 213c13 28 22 58 27 83v1v0c4 24 3 46 -3 63c-6 20 -23 33 -50 33c-66 0 -117 -29 -156 -66c-40 -40 -69 -88 -89 -120c-6 -13 -23 -17 -35 -9c-13 7 -17 23 -9 36c21 35 52 86 98 130c47 45 110 81 191 81c54 0 85 -27 98 -69
c10 -25 11 -55 6 -87c-6 -31 -16 -64 -31 -98c-55 -120 -173 -243 -316 -243c-68 0 -108 35 -125 91c-12 35 -12 79 -4 128c8 46 24 97 47 149c84 192 264 395 462 395c48 0 77 -20 93 -47z" />
    <glyph glyph-name="seven" unicode="7" horiz-adv-x="576" 
d="M654 745c3 -9 1 -18 -5 -25v0c-56 -66 -128 -135 -201 -206c-168 -163 -344 -334 -374 -494c-2 -14 -15 -24 -30 -21c-14 2 -24 16 -21 30c32 176 215 355 388 521c51 50 101 99 146 146c-48 -4 -93 0 -138 5c-38 3 -75 6 -112 4c-13 -23 -28 -46 -45 -66
c-34 -40 -76 -72 -120 -72c-20 0 -35 6 -46 17c-10 10 -14 23 -13 38c0 10 4 22 11 35c17 27 53 58 107 78c25 10 49 15 73 19c10 20 17 39 17 50c2 15 14 26 28 25c15 -2 26 -14 25 -29c-1 -10 -6 -26 -12 -42c31 0 62 -3 93 -6c63 -6 128 -12 197 9c13 5 28 -2 32 -16z
M222 673c5 6 10 12 15 19c-6 -2 -11 -3 -17 -6c-42 -15 -69 -38 -82 -57c-2 -4 -3 -7 -3 -9h7c26 0 55 23 80 53z" />
    <glyph glyph-name="eight" unicode="8" horiz-adv-x="497" 
d="M523 622c8 -29 8 -60 -1 -88c-11 -39 -36 -72 -77 -92c-11 -6 -24 -10 -39 -13c-14 -3 -29 -4 -44 -4c-14 0 -26 12 -26 26c0 15 12 26 27 26c12 0 22 1 32 3s20 6 28 10c25 12 42 34 50 59c5 18 5 40 0 61c-5 20 -16 40 -31 57c-26 26 -65 44 -118 44
c-33 0 -58 -8 -74 -22c-16 -13 -26 -30 -31 -50c-4 -22 -3 -46 4 -70c12 -39 38 -77 77 -103c63 -43 107 -107 127 -172c13 -43 15 -89 5 -131c-9 -44 -32 -82 -69 -110c-41 -33 -100 -53 -178 -53c-104 -2 -169 48 -198 115c-12 28 -18 59 -18 90c1 30 8 62 20 91
c34 80 111 145 228 147c15 0 27 -11 27 -25c0 -15 -11 -27 -26 -27c-93 -2 -154 -53 -181 -115c-10 -24 -15 -48 -15 -72s3 -47 13 -68c22 -49 70 -85 149 -85c66 1 113 16 146 42c28 22 45 50 53 82c7 33 4 68 -6 105c-17 54 -53 106 -107 143c-49 33 -81 81 -96 132
c-10 32 -12 64 -5 95s23 59 48 79c26 21 61 34 107 34c68 0 120 -25 155 -60c22 -24 37 -51 44 -81z" />
    <glyph glyph-name="nine" unicode="9" horiz-adv-x="582" 
d="M576 672c11 -37 12 -81 4 -128s-25 -99 -48 -149c-83 -194 -264 -395 -463 -395c-47 0 -76 19 -93 46c-8 15 -12 30 -12 47c0 14 3 31 9 46c15 37 48 70 94 76c14 1 27 -10 29 -23c2 -14 -8 -28 -23 -30c-25 -2 -44 -21 -53 -42c-3 -9 -5 -18 -5 -26s2 -16 6 -22
c7 -11 23 -20 48 -20c176 0 338 186 417 363c20 48 35 95 43 138c6 40 6 76 -3 103c-10 34 -34 54 -77 54c-118 0 -220 -108 -268 -213c-13 -29 -23 -57 -27 -84c-4 -24 -3 -46 4 -63c6 -20 22 -32 49 -32c66 0 117 29 155 66c41 39 70 86 89 120c8 11 24 15 36 9
c13 -7 16 -24 9 -36c-21 -35 -52 -87 -98 -130c-47 -46 -109 -81 -191 -81c-53 0 -85 26 -100 68c-7 25 -8 55 -4 87c5 32 17 65 31 98c55 120 173 243 315 243c69 0 109 -36 127 -90z" />
    <glyph glyph-name="colon" unicode=":" horiz-adv-x="264" 
d="M180 242c-20 0 -27 23 -15 51c14 29 40 52 62 52c21 0 28 -23 16 -52c-14 -28 -41 -51 -63 -51zM105 46c-21 0 -28 24 -15 51c13 29 40 53 62 53c21 0 27 -24 15 -53c-14 -27 -40 -51 -62 -51z" />
    <glyph glyph-name="semicolon" unicode=";" horiz-adv-x="266" 
d="M180 242c-20 0 -27 23 -15 51c14 29 40 52 62 52c21 0 28 -23 16 -52c-14 -28 -41 -51 -63 -51zM175 106v-2c-1 0 -1 -1 -1 -1c-14 -20 -26 -38 -35 -52c-11 -15 -21 -30 -29 -42c-7 -10 -20 -12 -27 -7c-10 7 -13 19 -7 28c7 9 14 20 23 35c-15 5 -17 26 -2 50
c16 26 46 44 68 42c23 -3 26 -26 10 -51z" />
    <glyph glyph-name="period" unicode="." horiz-adv-x="173" 
d="M16 0c-20 0 -27 23 -15 51c14 29 40 52 62 52c21 0 28 -23 16 -52c-14 -28 -41 -51 -63 -51z" />
    <glyph glyph-name="hyphen" unicode="-" horiz-adv-x="581" 
d="M497 394c14 0 25 -11 25 -25c0 -13 -11 -24 -24 -24h-105h-55h-151c-12 0 -24 10 -24 24s12 24 24 25h163h62h85z" />
    <glyph glyph-name="comma" unicode="," horiz-adv-x="186" 
d="M78 40v-1c-1 0 -1 -1 -1 -1c-14 -20 -26 -38 -35 -52c-11 -16 -21 -31 -29 -42c-7 -10 -20 -13 -27 -7c-10 7 -13 18 -7 28c7 9 14 20 23 34c-15 5 -17 27 -2 50c16 26 46 45 68 42c23 -2 26 -25 10 -51z" />
    <glyph glyph-name="quotesingle" unicode="'" horiz-adv-x="144" 
d="M257 712v-1c-1 0 -1 -1 -1 -1c-14 -20 -26 -38 -35 -52c-11 -16 -21 -31 -29 -42c-7 -10 -20 -13 -27 -7c-10 7 -13 18 -7 28c7 9 14 20 23 34c-15 5 -17 27 -2 50c16 26 46 45 68 42c23 -2 26 -25 10 -51z" />
    <glyph glyph-name="at" unicode="@" horiz-adv-x="745" 
d="M755 542c12 -27 13 -60 6 -93c-6 -34 -19 -67 -35 -101c-58 -117 -171 -233 -218 -232c-21 1 -33 13 -38 33c-3 11 -2 24 1 41c-44 -43 -89 -73 -125 -74c-27 -1 -45 13 -53 35c-6 16 -6 37 0 62c7 20 15 44 27 69c51 100 151 217 229 217c16 0 29 -3 39 -10
c9 -4 14 -10 19 -15c13 16 24 25 31 25c14 0 23 -6 27 -19c3 -10 -1 -26 -12 -46c-6 -15 -17 -34 -30 -55c-18 -29 -41 -62 -67 -95c-5 -12 -9 -22 -14 -33c-8 -21 -14 -41 -19 -59v-2c-2 -8 -4 -15 -4 -21c38 16 115 108 161 202c15 29 27 59 32 87c5 24 5 46 -3 62
c-11 25 -39 40 -93 40c-69 0 -140 -29 -201 -73c-69 -49 -127 -119 -159 -189c-21 -42 -31 -85 -31 -123c0 -26 5 -48 15 -67c10 -18 26 -33 46 -43c19 -9 43 -14 72 -14c26 0 50 2 72 7c22 3 43 9 64 17c13 5 27 -2 32 -15c5 -14 -2 -29 -16 -33c-21 -8 -46 -14 -70 -19
c-27 -5 -53 -8 -82 -8c-37 0 -69 7 -93 19c-32 14 -55 37 -70 65c-14 26 -21 57 -21 91c0 45 13 95 35 146c37 76 100 153 176 207c70 51 149 83 231 83c77 0 120 -27 139 -69zM344 167c44 1 111 70 167 142c19 40 41 83 63 116c-1 4 -2 8 -3 11c-1 4 -5 8 -8 9
c-3 3 -8 4 -14 4c-57 0 -140 -102 -183 -189c-11 -23 -19 -42 -23 -60c-4 -15 -4 -26 -3 -32c0 -1 2 -1 4 -1z" />
    <glyph glyph-name="m" unicode="m" horiz-adv-x="693" 
d="M791 338c11 -9 13 -25 3 -35c-33 -41 -71 -83 -102 -123c-79 -97 -145 -181 -196 -179c-35 1 -48 19 -48 52c1 54 63 160 117 257c15 24 28 49 41 72c22 40 30 64 30 79c-19 0 -42 -11 -65 -26c-38 -22 -76 -57 -98 -78c-32 -31 -63 -64 -93 -99
c-21 -42 -41 -86 -63 -125c-41 -76 -80 -132 -102 -132c-7 0 -14 2 -19 5c-18 10 -20 28 -13 54c4 12 14 32 28 54c26 47 74 110 128 172c16 38 34 77 48 109c10 26 15 43 15 53c0 4 -1 9 -2 10c-2 2 -4 2 -6 2c-96 0 -232 -182 -335 -321c-40 -53 -74 -100 -102 -130h-1
c-7 -7 -18 -10 -29 -4c-14 4 -17 20 -11 33c11 22 34 63 65 115c61 111 147 264 187 341c6 13 21 19 33 13s18 -22 11 -34c-21 -43 -54 -104 -89 -168c88 109 184 206 271 206c8 0 18 -3 24 -6c10 -4 19 -12 26 -22c4 -8 8 -19 8 -35c0 -13 -3 -28 -10 -51
c25 25 62 57 102 82c31 18 63 32 92 32c10 0 18 -2 26 -8c16 -8 25 -23 25 -42c0 -23 -11 -55 -35 -102c-13 -22 -28 -49 -43 -76c-51 -89 -109 -190 -110 -231c27 2 85 75 154 161c32 38 68 85 104 123c8 11 24 13 34 2z" />
    <glyph glyph-name="space" unicode=" " horiz-adv-x="300" 
 />
    <glyph glyph-name="e" unicode="e" horiz-adv-x="352" 
d="M477 339c12 -10 12 -26 1 -36c-188 -202 -335 -303 -442 -303c-29 0 -45 12 -53 22c-10 14 -16 32 -16 52c0 134 204 437 352 437c40 0 59 -20 65 -32c14 -25 12 -62 -12 -100c-44 -75 -158 -157 -303 -161c-32 -55 -50 -109 -50 -144c0 -8 1 -16 5 -19c0 -1 1 -4 12 -4
c90 0 230 99 405 286c9 10 26 11 36 2zM319 459c-64 0 -153 -89 -218 -187c111 14 193 74 227 132c13 25 16 42 12 50c-4 5 -17 5 -21 5z" />
    <glyph glyph-name="o" unicode="o" horiz-adv-x="429" 
d="M531 340c11 -8 14 -24 6 -35l-22 -28c-58 -79 -127 -171 -189 -171c-17 0 -35 7 -49 16c-58 -69 -131 -122 -207 -122c-52 0 -76 23 -87 41c-32 54 4 142 39 205c27 48 172 292 335 262h1c2 1 3 1 4 2c17 6 36 2 46 -15c35 -59 -7 -178 -55 -263c-13 -23 -28 -47 -44 -68
c5 -4 10 -6 17 -6c38 0 108 93 149 150l20 27c10 12 25 13 36 5zM245 181c-15 75 26 204 70 278c-97 -12 -199 -150 -249 -239c-47 -84 -51 -134 -41 -153c7 -11 22 -16 45 -16c64 0 127 52 179 117c-2 2 -2 8 -4 13zM368 450c-28 -39 -72 -145 -76 -222c7 10 12 19 17 29
c46 81 63 156 59 193z" />
    <glyph glyph-name="i" unicode="i" horiz-adv-x="199" 
d="M321 340c11 -9 14 -24 6 -35c-4 -5 -255 -305 -338 -305c-24 0 -35 13 -40 20c-15 30 3 72 44 141c64 106 131 223 195 337c6 12 22 16 34 9c13 -6 17 -23 10 -34c-64 -115 -131 -230 -196 -338c-26 -47 -36 -70 -40 -83c48 21 198 170 291 283c8 11 25 14 34 5zM250 542
c-21 0 -28 24 -15 51c13 29 40 53 62 53c21 0 27 -24 15 -53c-14 -27 -40 -51 -62 -51z" />
    <glyph glyph-name="p" unicode="p" horiz-adv-x="455" 
d="M566 338c9 -9 10 -24 1 -35l-3 -4c-110 -123 -134 -146 -235 -165c-43 -61 -109 -131 -180 -133c-69 -1 -84 42 -85 57c-6 19 0 38 11 54c27 37 88 50 153 59l15 1c21 3 40 5 56 8c11 16 22 37 33 59c56 102 70 190 56 216c-1 3 -6 7 -15 6c-41 -2 -159 -114 -373 -413
c-37 -74 -77 -151 -124 -223c-40 -63 -68 -95 -92 -95v0c-9 0 -18 5 -23 12c-10 15 -3 44 53 125c44 68 93 139 142 208c18 37 36 74 53 109c49 103 102 216 164 315c8 13 23 15 35 9c11 -8 16 -23 8 -35c-36 -60 -75 -131 -106 -192c109 131 205 227 261 230
c25 1 45 -8 59 -30c35 -56 -6 -178 -54 -267c-2 -5 -5 -12 -10 -19c53 17 82 49 163 141c11 12 27 13 37 2zM149 53c29 1 70 27 108 71c-3 -1 -5 -1 -7 -1l-16 -2c-25 -3 -101 -14 -120 -39c-1 -2 -4 -7 -3 -15c3 -13 25 -14 38 -14z" />
    <glyph glyph-name="t" unicode="t" horiz-adv-x="228" 
d="M109 305c-1 -1 -3 -3 -4 -5c-57 -108 -102 -208 -106 -246c42 12 142 91 306 283c8 10 25 11 36 3c11 -10 12 -26 3 -38c-118 -137 -274 -302 -359 -302h-2c-17 0 -37 11 -37 47c3 81 127 304 178 396h-16c-14 0 -26 11 -26 25c0 15 12 26 26 26h48
c137 237 167 237 178 237c10 0 19 -6 24 -14c11 -20 5 -42 -118 -223h86c14 0 26 -11 26 -26c0 -14 -12 -25 -26 -25h-123c-21 -32 -46 -68 -73 -108z" />
    <glyph glyph-name="h" unicode="h" horiz-adv-x="476" 
d="M597 338c9 -8 11 -24 1 -34c-17 -19 -40 -44 -61 -72c-88 -101 -196 -229 -247 -231c-37 -1 -52 17 -54 46c-1 42 54 125 108 206c50 82 105 166 107 203c0 4 -2 4 -9 4c-93 5 -325 -274 -436 -408c-11 -15 -24 -29 -35 -38c-7 -11 -19 -15 -31 -10c-11 6 -18 21 -10 35
c26 57 84 171 148 292c43 74 88 154 130 224c70 116 136 202 175 208c20 0 28 -7 32 -25v0c3 -29 -84 -147 -165 -256c-49 -66 -97 -129 -119 -163c-21 -36 -39 -74 -59 -109c125 142 285 305 375 301c41 0 57 -20 55 -55c-2 -53 -60 -143 -117 -231
c-48 -71 -92 -140 -95 -171c26 1 128 119 209 211c20 26 43 51 60 72c10 9 27 12 38 1z" />
    <glyph glyph-name="u" unicode="u" horiz-adv-x="440" 
d="M541 340c11 -10 14 -25 4 -36l-8 -12c-159 -220 -223 -290 -263 -291c-22 0 -40 9 -50 27c-12 24 -8 65 8 112c-71 -76 -145 -139 -188 -141h-2c-33 0 -48 15 -57 29c-35 62 45 201 151 375c25 41 44 75 53 94c7 12 21 18 35 12c11 -7 17 -20 11 -34
c-9 -21 -30 -55 -57 -97c-50 -85 -172 -284 -148 -323c3 -3 9 -3 12 -3c40 0 170 135 262 241c32 58 62 106 70 117l4 7c53 81 65 94 87 94c14 0 25 -9 29 -20c12 -22 3 -40 -55 -110c-3 -3 -4 -5 -5 -7v0c-10 -12 -43 -55 -87 -106c-60 -110 -90 -198 -78 -216h3v0
c35 11 178 205 223 270l11 12c6 11 23 14 35 6z" />
    <glyph glyph-name="r" unicode="r" horiz-adv-x="292" 
d="M394 339c10 -11 11 -28 1 -37c-8 -10 -27 -30 -46 -55c-140 -164 -219 -247 -265 -247c-24 0 -36 12 -39 21c-33 22 46 152 100 231c59 88 77 128 34 160c-3 2 -7 5 -12 8c-28 -36 -73 -92 -118 -145c-6 -7 -7 -10 -12 -15c-10 -11 -27 -12 -36 -4c-11 8 -13 25 -6 36
c3 3 7 8 15 17c50 58 96 114 122 150c-26 33 -36 71 -25 104c9 33 38 51 77 51c32 0 45 -16 51 -28c10 -25 0 -65 -39 -123c4 -4 7 -7 13 -10c91 -65 23 -163 -21 -230c-33 -44 -81 -124 -96 -169c46 23 168 168 218 227c21 24 38 44 48 57c10 9 26 11 36 1zM163 505
c22 36 25 51 25 58h-4c-24 0 -28 -11 -28 -14c-3 -11 -3 -28 7 -44z" />
    <glyph glyph-name="j" unicode="j" horiz-adv-x="204" 
d="M337 339c11 -11 11 -27 1 -37l-29 -35c-75 -78 -184 -203 -307 -271c-19 -11 -40 -22 -56 -32c-58 -106 -142 -234 -257 -234c-65 0 -81 40 -83 53c-8 47 29 100 89 123l45 20c63 26 110 46 168 78c6 10 10 19 17 32c7 10 13 21 18 31c24 47 51 94 76 138c1 3 9 14 12 24
c131 243 153 279 179 282c11 2 24 -3 30 -12c21 -43 -145 -273 -174 -310c-22 -45 -49 -94 -74 -139c108 66 209 177 279 253l30 34c8 10 26 11 36 2zM-311 -220c65 0 125 70 173 142c-32 -14 -65 -27 -102 -42l-45 -20c-45 -17 -61 -51 -58 -67c2 -11 24 -13 32 -13z
M252 543c-21 0 -27 23 -14 54c13 28 42 52 62 52c22 0 28 -24 14 -52c-11 -31 -39 -54 -62 -54z" />
    <glyph glyph-name="k" unicode="k" horiz-adv-x="453" 
d="M550 339c9 -11 11 -24 2 -36c-4 -2 -17 -23 -31 -40c-109 -158 -199 -262 -262 -262c-26 0 -51 13 -65 40c-47 66 -19 206 7 263c2 6 7 13 15 13c15 4 30 9 43 14c76 23 145 45 175 100c10 17 10 25 10 28c0 0 -3 4 -14 4c-149 0 -335 -244 -448 -450
c-6 -9 -14 -14 -25 -14c-3 0 -7 2 -10 3c-14 6 -18 19 -14 33c3 6 61 141 140 291l1 2c2 4 3 7 7 12c101 202 231 422 304 422v0c9 0 19 -4 23 -10c13 -21 14 -21 -130 -220c-59 -82 -129 -173 -151 -213c88 107 195 195 303 195c29 0 51 -11 61 -34c8 -22 4 -48 -11 -75
c-42 -73 -123 -98 -203 -120c-14 -7 -24 -10 -33 -12c-21 -60 -35 -165 -7 -206c5 -10 12 -14 22 -14c35 0 109 80 222 240c18 24 26 37 32 42c9 11 27 14 37 4z" />
    <glyph glyph-name="l" unicode="l" horiz-adv-x="251" 
d="M333 335c7 11 23 14 34 5c12 -8 15 -24 5 -35c-27 -38 -281 -306 -361 -306h-1c-18 2 -36 14 -35 45c2 31 36 122 86 228c5 13 9 21 9 23c101 210 256 467 329 467c38 0 50 -20 55 -33c36 -99 -302 -429 -346 -472c-43 -88 -75 -165 -80 -201c66 34 260 219 305 279z
M296 590c-39 -54 -78 -119 -112 -183c105 111 232 264 222 303c-1 0 -3 2 -7 2c0 -2 -28 -7 -103 -122z" />
    <glyph glyph-name="g" unicode="g" horiz-adv-x="437" 
d="M569 339c10 -10 11 -27 2 -36l-28 -30c-72 -82 -184 -207 -307 -276c-21 -12 -40 -23 -58 -33c-25 -43 -48 -82 -68 -111c-37 -51 -95 -121 -178 -121c-42 0 -76 22 -84 59c-5 33 14 84 91 119c87 36 131 55 202 91c11 22 23 43 34 65c-47 -39 -92 -67 -133 -67
c-27 -1 -47 10 -58 31c-36 56 23 174 50 222c56 97 179 259 291 259c34 0 60 -12 76 -37c24 32 35 39 49 39c15 0 27 -12 28 -30c0 -31 -74 -159 -168 -278l-2 -2c-26 -50 -54 -103 -82 -152c110 64 211 181 279 255l28 31c10 10 26 11 36 2zM66 -118c8 11 18 25 25 39
c-39 -19 -76 -36 -132 -59c-49 -21 -62 -47 -60 -61c3 -11 16 -18 33 -18c58 0 102 54 134 99zM40 51c61 2 152 91 229 190c45 80 76 138 99 178c-1 8 -2 15 -7 22c-6 13 -19 21 -36 21c-64 0 -170 -101 -245 -236c-56 -97 -62 -156 -54 -171c1 -2 3 -4 14 -4z" />
    <glyph glyph-name="q" unicode="q" horiz-adv-x="429" 
d="M540 338c9 -8 9 -26 0 -36c-33 -34 -80 -87 -122 -135c-56 -65 -111 -126 -144 -155l-1 -7c-21 -96 -61 -275 -171 -275c-18 0 -35 9 -45 25c-10 17 -13 53 10 104c39 78 73 147 104 209c-48 -41 -96 -68 -136 -68c-28 -2 -46 9 -58 29c-36 58 23 173 51 222
c54 96 178 260 290 260c31 0 59 -15 75 -41c30 41 40 41 47 41c15 0 29 -14 29 -31c0 -31 -76 -161 -170 -279c-56 -104 -121 -231 -187 -366c-12 -27 -14 -48 -13 -53h2c70 0 107 165 122 234l4 15c0 4 3 10 9 14c27 25 86 92 145 156c40 48 89 101 122 137c11 9 26 9 37 0
zM33 51c57 2 147 87 223 180c46 85 79 147 104 188c0 6 -3 14 -7 20c-6 14 -18 21 -35 21c-66 0 -171 -102 -245 -233c-55 -100 -62 -157 -54 -173c2 -1 4 -5 14 -3z" />
    <glyph glyph-name="f" unicode="f" horiz-adv-x="261" 
d="M343 335c8 11 24 14 35 4c11 -8 13 -25 4 -36c-87 -110 -162 -159 -225 -153c-6 -127 -38 -300 -103 -375c-26 -32 -56 -45 -87 -45c-25 0 -44 11 -55 30c-45 80 56 317 149 496c-3 35 1 83 35 89c4 2 7 2 11 0c44 81 77 137 81 145c166 275 210 273 224 273
c41 -1 53 -23 57 -36c29 -93 -250 -369 -323 -432c2 -8 5 -19 6 -30c5 -18 5 -40 6 -64c24 -4 81 6 185 134zM413 712c-32 -15 -116 -136 -202 -286c98 103 223 249 211 286h-9zM16 -193c56 69 87 243 90 361c-9 5 -15 15 -22 22c-82 -164 -143 -329 -131 -393
c3 -17 7 -17 14 -17c17 0 32 9 49 27z" />
    <glyph glyph-name="v" unicode="v" horiz-adv-x="460" 
d="M563 339c11 -9 13 -26 3 -37c-7 -10 -15 -21 -26 -30c-78 -94 -141 -160 -191 -163c-23 -3 -43 3 -58 14c-60 -69 -136 -123 -214 -123c-33 0 -58 15 -70 41c-51 109 143 428 171 461c10 10 25 11 36 3s12 -26 3 -36c-43 -52 -198 -334 -163 -407c1 -4 5 -11 23 -11
c65 0 131 54 185 117c0 3 -1 6 -1 8c-24 101 63 310 120 332c18 8 37 0 47 -17c33 -58 -8 -172 -58 -257c-14 -23 -30 -48 -47 -71c6 -3 12 -6 22 -4c35 1 111 91 155 145c9 11 19 22 27 33c10 9 27 11 36 2zM389 450c-29 -36 -76 -141 -81 -220c5 10 12 20 18 29
c48 83 67 154 63 191z" />
    <glyph glyph-name="w" unicode="w" horiz-adv-x="652" 
d="M759 339c11 -11 12 -26 2 -37c-7 -10 -16 -19 -25 -31c-80 -95 -140 -163 -194 -163c-20 0 -35 5 -48 16c-58 -68 -132 -123 -209 -124h-1c-49 0 -68 30 -76 47c-6 18 -7 39 -4 65c-58 -64 -120 -110 -174 -110c-28 0 -40 11 -49 21c-13 20 -15 48 -1 90
c26 100 128 268 178 349c10 15 18 28 22 36c7 12 22 16 35 10c12 -7 16 -24 9 -35c-5 -10 -12 -21 -22 -39c-48 -78 -149 -241 -175 -336c-11 -33 -5 -43 -5 -44v0h8c56 0 140 89 209 183c49 112 123 226 135 238c8 7 20 9 30 5c1 -1 20 -9 13 -36
c-5 -30 -60 -136 -133 -235c-25 -60 -39 -117 -26 -144c1 -5 5 -14 27 -14c63 1 128 54 179 119c0 4 -1 8 -2 13c-19 101 60 304 116 325c18 6 34 1 44 -16c36 -59 -4 -174 -52 -255c-13 -25 -30 -50 -46 -73c4 -4 12 -5 18 -5c33 0 112 96 154 146c10 11 18 20 28 30
c8 11 24 13 35 4zM585 447c-28 -39 -71 -139 -75 -214c4 10 10 19 15 26c45 82 64 149 60 188z" />
    <glyph glyph-name="x" unicode="x" horiz-adv-x="507" 
d="M626 339c10 -8 12 -23 4 -34c-153 -200 -245 -304 -319 -304c-16 0 -31 8 -44 20c-30 33 -36 106 -34 189c-109 -94 -218 -182 -290 -209c-3 -2 -6 -2 -8 -2c-11 0 -21 8 -25 18c-4 12 3 28 15 32c74 27 198 132 310 231c0 5 2 12 2 19c1 18 1 31 1 40
c2 81 -8 108 -18 117c-2 2 -4 4 -8 2c-22 -2 -89 -89 -116 -126c-22 -26 -48 -62 -62 -74c-10 -10 -27 -10 -36 0c-10 10 -10 26 0 36c9 11 39 43 56 69c68 89 114 146 157 146c18 0 33 -5 45 -18c25 -24 35 -68 33 -152v-11c151 133 212 185 248 183v0c16 0 34 -7 44 -20
c13 -16 18 -38 13 -67c-2 -14 -15 -23 -28 -22c-14 3 -24 15 -22 29c4 21 0 26 -2 27c-1 2 -5 2 -7 2c-25 -4 -129 -97 -213 -172c-12 -11 -24 -21 -37 -32c-2 -71 -5 -174 20 -201c2 -2 5 -2 6 -2c57 0 175 146 278 282c10 12 26 14 37 4z" />
    <glyph glyph-name="y" unicode="y" horiz-adv-x="466" 
d="M590 340c10 -11 11 -27 2 -37c-10 -10 -23 -27 -35 -37c-76 -85 -180 -199 -300 -267c-21 -13 -39 -22 -58 -32c-24 -45 -49 -88 -75 -121c-58 -75 -116 -116 -177 -116c-66 0 -78 47 -82 59c-8 46 28 98 89 123l50 21c59 24 102 44 158 72c22 42 44 88 65 134
c-70 -74 -145 -137 -187 -140c-34 0 -50 16 -58 31c-35 61 43 201 150 372c23 40 44 76 54 94c5 12 20 18 33 11c12 -4 18 -21 12 -33c-9 -21 -30 -55 -56 -96c-51 -85 -173 -282 -149 -322c1 -3 11 -3 14 -3c38 1 176 142 268 250c19 37 39 75 60 105c60 94 72 102 92 102
c14 0 24 -7 31 -18c8 -19 6 -36 -62 -116l-3 -4c-4 -6 -32 -43 -73 -93c-25 -48 -50 -98 -73 -147c-13 -28 -26 -56 -39 -83c109 63 206 171 279 249c11 14 25 28 34 39c10 10 25 11 36 3zM81 -126c12 17 25 35 37 52c-32 -13 -59 -26 -95 -40l-48 -21
c-42 -16 -62 -51 -59 -66c2 -11 23 -18 31 -18c44 0 90 34 134 93z" />
    <glyph glyph-name="z" unicode="z" horiz-adv-x="370" 
d="M484 339c10 -10 11 -26 2 -35l-27 -29c-79 -84 -125 -132 -166 -165c-16 -15 -34 -28 -50 -37c-72 -144 -277 -343 -417 -343c-61 0 -74 45 -76 61c-5 79 93 143 166 179c89 48 152 77 204 99c35 14 62 27 84 41c8 19 12 37 12 53c0 10 -1 17 -4 21
c-44 -31 -92 -51 -133 -51c-65 0 -68 42 -68 51c0 36 50 78 131 78c29 0 54 -5 73 -14c53 43 103 99 127 149c19 34 19 49 15 53c-2 3 -6 10 -31 10c-97 -3 -229 -111 -296 -199c-8 -12 -25 -13 -36 -6c-11 8 -14 24 -4 37c77 100 221 216 336 219v0c14 0 53 0 73 -32
c18 -26 13 -60 -12 -107c-25 -49 -74 -110 -133 -157c9 -16 14 -33 14 -52c0 -3 -1 -7 -1 -11c37 32 80 77 157 158l26 28c9 9 23 10 34 1zM79 184c25 0 52 10 81 26c-5 1 -11 1 -18 1c-46 0 -73 -17 -78 -24c3 -2 7 -3 15 -3zM-174 -219c101 0 253 137 336 252
c-7 -3 -14 -6 -21 -10c-51 -23 -114 -50 -204 -97c-90 -49 -139 -96 -136 -130c0 -5 14 -15 25 -15z" />
    <glyph glyph-name="eacute" unicode="&#xe9;" horiz-adv-x="366" 
d="M483 338c10 -9 11 -26 2 -37c-121 -128 -300 -301 -442 -301c-29 0 -45 12 -53 22c-11 14 -16 31 -16 53c0 133 204 437 352 437c40 0 58 -21 65 -33c15 -26 11 -61 -12 -100c-44 -76 -157 -156 -303 -160c-31 -57 -51 -110 -51 -144c0 -9 2 -16 4 -20c1 -2 4 -4 14 -4
c90 0 228 97 404 286c10 10 26 11 36 1zM326 461c-65 0 -153 -91 -217 -189c109 13 192 75 226 133c14 23 16 42 12 49c-4 6 -16 7 -21 7zM294 527c-10 0 -20 7 -24 17c-5 14 3 28 16 33l102 34c13 5 28 -3 33 -16c4 -13 -3 -27 -17 -32l-102 -35c-2 -1 -5 -1 -8 -1z" />
    <glyph glyph-name="aacute" unicode="&#xe1;" horiz-adv-x="443" 
d="M560 339c11 -9 12 -26 3 -37c-18 -20 -44 -54 -67 -85c-100 -129 -174 -220 -235 -217c-11 0 -46 5 -45 59c0 14 5 35 11 60c-66 -68 -135 -119 -191 -120h-3c-25 0 -45 10 -56 29c-35 57 24 175 52 223c73 129 191 260 289 260c33 0 59 -14 76 -37c18 23 35 37 47 37
c16 0 29 -13 29 -31c0 -28 -65 -144 -152 -256c-32 -76 -56 -149 -51 -173c42 7 136 130 187 197c25 32 50 65 70 88c10 10 25 11 36 3zM34 50c64 1 163 102 244 206c25 60 54 120 83 167c-1 6 -3 11 -6 16c-7 14 -19 21 -37 21c-64 0 -170 -101 -245 -234
c-55 -98 -61 -157 -52 -172c1 -1 3 -4 13 -4zM371 549c-10 0 -20 7 -24 17c-4 13 3 28 16 33l101 34c14 5 28 -2 33 -15c4 -13 -2 -28 -16 -33l-101 -34c-3 -1 -6 -2 -9 -2z" />
    <glyph glyph-name="oacute" unicode="&#xf3;" horiz-adv-x="433" 
d="M537 340c11 -8 13 -24 5 -35l-16 -23c-73 -100 -134 -176 -193 -176c-19 0 -36 5 -50 15c-58 -68 -132 -122 -208 -122c-52 0 -76 22 -87 41c-32 55 3 142 39 205c39 70 178 292 336 263l6 3c17 6 34 0 44 -15c37 -58 -6 -179 -54 -265c-13 -23 -28 -47 -44 -69
c5 -5 11 -6 18 -6c38 0 112 102 152 156l16 23c8 11 24 14 36 5zM251 180c-14 74 26 205 70 279c-91 -11 -189 -130 -250 -238c-47 -84 -51 -135 -39 -155c6 -11 20 -16 43 -16c64 0 128 52 180 116c-3 5 -4 9 -4 14zM375 450c-28 -38 -72 -144 -76 -222c5 10 11 19 16 28
c46 82 64 157 60 194zM272 531c-11 0 -21 7 -24 18c-4 13 3 27 16 31l101 34c13 5 28 -3 32 -16s-2 -27 -17 -32l-100 -33c-2 -1 -5 -2 -8 -2z" />
    <glyph glyph-name="uacute" unicode="&#xfa;" horiz-adv-x="434" 
d="M538 340c12 -8 14 -23 6 -35l-10 -13c-158 -217 -225 -291 -264 -292c-23 0 -40 9 -49 27c-13 24 -8 64 7 110c-71 -74 -144 -137 -186 -138h-2c-33 0 -48 16 -56 29c-35 61 44 198 150 372c23 38 49 79 57 97c6 12 21 17 34 12c13 -6 18 -22 12 -35
c-10 -20 -35 -60 -60 -101c-52 -84 -172 -280 -149 -320c2 -3 10 -3 13 -3c39 1 167 134 257 239c29 53 58 98 69 115l4 5c52 82 70 102 92 102c14 0 24 -7 30 -17c11 -23 -4 -50 -60 -118l-7 -7v0c-9 -13 -41 -55 -84 -105c-63 -115 -88 -197 -77 -212c0 -1 2 -1 4 -1v0
c22 8 99 99 224 271l10 13c8 11 24 14 35 5zM321 528c-11 0 -20 7 -24 18c-4 13 3 27 16 31l101 34c13 5 28 -3 32 -16c5 -13 -3 -28 -16 -32l-101 -33c-3 -1 -6 -2 -8 -2z" />
    <glyph glyph-name="yacute" unicode="&#xfd;" horiz-adv-x="474" 
d="M334 527l-75 77c-10 10 -10 26 1 36c10 10 26 10 35 0l76 -78c10 -10 10 -26 0 -36c-5 -5 -12 -7 -18 -7c-7 0 -13 2 -19 8zM590 338c11 -9 12 -26 2 -36l-29 -32c-78 -85 -183 -203 -305 -272c-22 -12 -41 -22 -59 -32c-24 -46 -49 -88 -77 -122
c-56 -73 -113 -114 -172 -114c-66 0 -82 46 -85 58c-9 45 29 97 88 123l52 22c60 25 102 43 157 71c22 43 43 88 65 135c-71 -74 -145 -137 -187 -139c-35 0 -51 16 -59 30c-35 62 44 201 151 376c24 38 45 72 53 90c6 13 21 18 34 12s18 -21 12 -34c-9 -21 -30 -53 -55 -95
c-52 -85 -173 -283 -151 -324c2 -3 10 -3 14 -3c40 1 177 144 268 251c20 38 40 74 62 107c59 93 72 101 92 101c13 0 24 -7 30 -18c9 -20 6 -38 -61 -117l-3 -3c-3 -5 -33 -44 -75 -94c-25 -48 -48 -98 -72 -148c-13 -28 -26 -56 -39 -83c111 66 211 176 284 257l30 32
c9 10 25 11 35 1zM82 -125c12 15 23 32 35 51c-29 -13 -58 -26 -92 -40l-52 -22c-42 -18 -61 -50 -58 -66c2 -11 26 -17 35 -17c43 0 85 35 132 94z" />
    <glyph glyph-name="udieresis" unicode="&#xfc;" horiz-adv-x="426" 
d="M536 340c11 -8 14 -24 5 -35l-13 -19c-157 -216 -220 -286 -260 -286h-1c-21 0 -38 9 -48 26c-13 24 -7 64 8 110c-72 -73 -145 -136 -187 -137h-2c-32 0 -48 15 -56 28c-35 61 44 199 150 372c24 39 48 79 57 97c6 12 21 18 33 12c13 -6 18 -21 13 -34
c-10 -20 -35 -60 -60 -102c-51 -84 -171 -280 -148 -320c1 -3 9 -3 12 -3c39 1 167 134 258 239c29 53 57 98 69 116l3 5c52 81 71 102 93 102c14 0 25 -7 30 -18c10 -21 2 -45 -65 -122l-3 -3c-4 -7 -37 -51 -84 -106c-62 -114 -88 -196 -77 -212h4v0
c35 11 174 202 221 266l13 19c7 10 24 14 35 5zM292 545c-10 0 -18 3 -24 11c-7 7 -10 16 -10 26s3 20 10 26c6 7 14 12 24 12c9 0 16 -5 24 -12c5 -6 9 -16 9 -26s-4 -19 -9 -26c-8 -8 -15 -11 -24 -11zM353 514l-1 2c-6 7 -9 16 -9 25c0 11 3 19 10 27c6 7 14 12 24 12
c9 0 18 -5 23 -12c6 -7 10 -16 10 -27c0 -10 -4 -19 -10 -27c-5 -6 -14 -10 -23 -10c-10 0 -18 4 -24 10z" />
    <glyph glyph-name="odieresis" unicode="&#xf6;" horiz-adv-x="431" 
d="M531 341c11 -9 13 -25 5 -36l-16 -23c-74 -100 -134 -177 -193 -177c-20 0 -37 6 -51 17c-58 -69 -131 -123 -208 -123c-52 0 -76 23 -87 42c-32 54 3 141 39 205c40 69 178 292 335 262c3 2 5 3 7 4c17 6 35 0 44 -16c36 -58 -6 -179 -53 -264c-13 -23 -28 -47 -45 -71
c6 -3 11 -4 19 -4c37 0 112 101 152 155l16 23c8 12 24 14 36 6zM245 180c-15 75 26 205 70 279c-91 -11 -189 -130 -251 -238c-47 -84 -51 -135 -40 -155c7 -10 21 -16 44 -16c64 0 128 53 180 116c-1 5 -3 10 -3 14zM369 451c-28 -38 -73 -144 -77 -222c6 9 11 19 17 28
c45 82 64 156 60 194zM444 519v1c-5 7 -10 16 -10 25c0 11 5 19 10 27c7 7 15 12 25 12c9 0 17 -5 24 -12c6 -7 9 -16 9 -27c0 -10 -3 -20 -9 -26c-7 -7 -15 -12 -24 -12c-10 0 -18 5 -25 12zM384 549c-10 0 -19 3 -26 11c-5 6 -9 16 -9 26c0 11 4 20 9 26c7 7 16 12 26 12
c9 0 17 -5 23 -12c6 -6 10 -15 10 -26c0 -10 -4 -20 -10 -26c-6 -8 -14 -11 -23 -11z" />
    <glyph glyph-name="edieresis" unicode="&#xeb;" horiz-adv-x="366" 
d="M482 338c11 -10 11 -26 1 -36c-120 -129 -299 -302 -441 -302c-28 0 -44 12 -52 23c-11 13 -16 30 -16 52c0 133 204 436 351 436c41 0 58 -21 66 -33c14 -26 10 -61 -13 -100c-44 -76 -157 -156 -302 -160c-31 -56 -51 -109 -51 -143c0 -10 1 -17 4 -20c1 -2 4 -4 13 -4
c90 0 229 98 404 286c9 10 25 11 36 1zM325 460c-65 0 -153 -91 -217 -189c110 14 192 76 226 133c14 24 16 42 12 49c-3 6 -16 7 -21 7zM406 519v1c-6 8 -10 17 -10 26c0 12 4 20 10 28c7 6 15 11 25 11c8 0 17 -5 24 -11c6 -7 10 -16 10 -28c0 -10 -4 -20 -10 -27
c-7 -6 -16 -11 -24 -11c-10 0 -18 5 -25 11zM345 550c-10 0 -18 3 -24 11c-6 7 -10 16 -10 26s4 20 10 27c6 6 14 12 24 12c9 0 17 -6 24 -12c6 -7 10 -17 10 -27s-4 -19 -10 -26c-7 -8 -15 -11 -24 -11z" />
    <glyph glyph-name="adieresis" unicode="&#xe4;" horiz-adv-x="447" 
d="M567 340c10 -10 11 -26 2 -37c-19 -22 -46 -57 -70 -89c-97 -127 -170 -216 -232 -213c-11 0 -45 5 -44 59c0 14 4 34 12 59c-66 -68 -135 -118 -191 -119h-2c-25 0 -44 10 -56 29c-34 57 25 175 52 223c54 95 175 257 287 257c32 0 59 -13 76 -37c18 23 34 37 46 37
c17 0 29 -12 29 -30c1 -28 -65 -144 -151 -256c-33 -75 -56 -146 -51 -171c41 7 131 123 185 193c25 33 52 69 71 91c10 11 26 12 37 4zM43 51c63 1 161 102 243 207c24 58 54 118 82 165c-1 5 -3 11 -6 15c-7 14 -20 20 -37 20c-64 0 -168 -99 -243 -231
c-55 -98 -61 -156 -52 -172c1 -1 3 -4 13 -4zM382 538l-1 1c-5 7 -9 16 -9 25c0 11 4 20 10 27s14 12 24 12c9 0 17 -5 24 -12c6 -7 10 -16 10 -27c0 -9 -4 -19 -10 -26c-7 -7 -15 -11 -24 -11c-10 0 -18 4 -24 11zM321 567c-10 0 -18 5 -24 12c-7 6 -11 16 -11 27
c0 10 4 18 11 27c6 6 14 10 24 10c8 0 17 -4 24 -10c6 -9 10 -17 10 -27c0 -11 -4 -21 -10 -27c-7 -7 -16 -12 -24 -12z" />
    <glyph glyph-name="iacute" unicode="&#xed;" horiz-adv-x="198" 
d="M289 336c9 10 25 13 36 4s13 -25 4 -36c-3 -3 -255 -304 -339 -304c-24 0 -35 13 -39 20c-14 25 -3 63 44 141l26 47c56 94 114 193 169 291c8 12 23 16 35 9s17 -22 10 -34c-55 -98 -114 -197 -169 -292l-28 -46c-28 -48 -37 -71 -40 -83c49 21 204 174 291 283z
M212 542c-11 0 -21 7 -25 18c-4 13 3 27 17 32l100 34c14 4 28 -3 33 -17c4 -12 -3 -27 -16 -32l-101 -34c-3 0 -6 -1 -8 -1z" />
    <glyph glyph-name="idieresis" unicode="&#xef;" horiz-adv-x="209" 
d="M294 336c9 11 26 13 37 4c10 -9 12 -25 3 -36c-3 -3 -255 -304 -339 -304c-24 0 -35 13 -40 21c-14 25 -3 62 44 141c74 124 135 229 195 336c7 12 23 16 35 9s17 -22 10 -34c-60 -108 -122 -212 -196 -337c-28 -47 -38 -71 -41 -82c49 19 202 171 292 282zM278 514v1
c-6 7 -10 15 -10 26c0 10 4 19 10 26s15 12 24 12c10 0 18 -5 25 -12c5 -6 9 -16 9 -26c0 -12 -4 -21 -9 -27c-7 -7 -15 -12 -25 -12c-9 0 -18 5 -24 12zM217 544c-9 0 -18 3 -25 11c-6 7 -9 16 -9 26s3 20 9 27c7 7 16 11 25 11s18 -4 24 -11s9 -17 9 -27s-3 -19 -9 -26
c-6 -8 -15 -11 -24 -11z" />
    <glyph glyph-name="tilde" unicode="&#x2dc;" horiz-adv-x="448" 
d="M603 714c6 -10 2 -25 -8 -31c-120 -67 -170 -31 -218 4c-36 26 -70 51 -153 -3c-10 -7 -25 -4 -31 7c-7 10 -4 25 6 31c110 71 156 37 204 2c37 -26 75 -55 170 -2c11 6 24 3 30 -8z" />
    <glyph glyph-name="ntilde" unicode="&#xf1;" horiz-adv-x="463" 
d="M579 338c11 -10 12 -25 3 -35c-18 -20 -43 -49 -67 -76c-85 -101 -191 -225 -241 -227c-38 -1 -54 15 -55 45c-1 43 48 120 100 199c53 80 108 166 108 206c0 7 -5 10 -19 10c-72 0 -250 -226 -358 -366c-28 -35 -53 -66 -69 -86l-1 2c-7 -10 -19 -12 -30 -7
c-12 5 -17 20 -12 33c21 43 58 115 96 189c53 100 110 211 143 273c8 13 22 16 35 10c12 -6 18 -21 11 -34c-30 -56 -78 -147 -124 -235c107 131 235 272 309 272c50 0 70 -23 70 -61c0 -56 -59 -147 -116 -234c-48 -72 -93 -142 -92 -169c0 -2 1 4 2 4
c28 0 126 116 204 208c23 27 49 55 68 77c10 11 25 12 35 2zM294 583c-11 -7 -27 -4 -35 7c-7 12 -4 28 7 35c33 22 59 23 66 23c30 0 43 -24 51 -41c4 -7 9 -16 12 -18c3 -1 12 -1 33 14c12 8 27 5 36 -6c7 -12 5 -28 -6 -36c-23 -16 -42 -24 -60 -24c-11 0 -21 3 -30 9
c-15 9 -23 25 -30 37c-3 5 -7 13 -9 15c-2 -1 -17 -4 -35 -15z" />
    <glyph glyph-name="agrave" unicode="&#xe0;" horiz-adv-x="447" 
d="M560 336c11 -10 12 -26 3 -36c-18 -22 -40 -52 -64 -83c-99 -129 -174 -220 -235 -217c-11 0 -46 5 -45 59c0 15 4 35 12 60c-67 -68 -136 -119 -193 -120h-2c-25 0 -45 10 -56 29c-35 58 24 175 52 223c54 97 177 260 289 260c33 0 60 -12 77 -37c18 24 35 37 47 37
c17 0 29 -12 29 -30c0 -28 -66 -145 -153 -257c-33 -77 -57 -148 -52 -172c44 6 134 125 188 196c25 32 48 62 67 85c10 10 26 12 36 3zM37 50c63 2 163 104 245 209c25 58 54 117 83 164c-2 6 -3 12 -7 17c-7 14 -19 21 -37 21c-64 0 -170 -101 -245 -235
c-55 -98 -62 -156 -52 -172c0 -1 3 -4 13 -4zM389 557l-75 76c-9 10 -9 27 0 36c10 10 26 10 36 0l76 -76c10 -10 10 -26 -1 -37c-4 -4 -11 -7 -18 -7c-6 0 -13 3 -18 8z" />
    <glyph glyph-name="egrave" unicode="&#xe8;" horiz-adv-x="366" 
d="M482 338c10 -10 11 -25 1 -35c-120 -129 -298 -302 -441 -302c-28 0 -43 12 -52 22c-10 14 -16 31 -16 53c0 133 204 436 352 436c40 0 58 -20 65 -32c14 -26 11 -61 -12 -100c-45 -76 -158 -156 -303 -161c-31 -56 -51 -109 -51 -143c0 -9 1 -17 5 -21c0 0 3 -4 12 -4
c91 0 228 98 404 286c9 10 26 11 36 1zM326 461c-65 0 -154 -91 -217 -188c109 13 192 75 225 133c14 23 17 42 13 49c-4 5 -16 6 -21 6zM352 544l-75 77c-10 10 -10 26 0 36s26 10 37 0l75 -77c10 -11 9 -26 -1 -36c-5 -6 -12 -8 -18 -8s-13 3 -18 8z" />
    <glyph glyph-name="igrave" unicode="&#xec;" horiz-adv-x="205" 
d="M324 336c11 -8 13 -25 4 -35c-2 -3 -252 -301 -335 -301c-25 0 -35 13 -40 21c-14 25 -3 62 44 140l27 47c56 94 113 193 168 291c8 12 23 16 35 9c13 -7 17 -22 10 -35c-56 -98 -114 -196 -169 -291l-27 -47c-28 -46 -38 -70 -41 -82c49 21 198 169 288 280
c9 11 25 12 36 3zM263 528l-75 76c-10 10 -10 26 0 36s26 9 36 0l75 -76c10 -10 10 -26 0 -36c-5 -6 -11 -8 -18 -8s-13 2 -18 8z" />
    <glyph glyph-name="ograve" unicode="&#xf2;" horiz-adv-x="409" 
d="M511 340c11 -8 14 -23 5 -35l-17 -23c-73 -100 -134 -177 -192 -177c-13 0 -24 3 -34 7c-58 -65 -128 -113 -202 -113c-51 0 -76 23 -87 42c-32 54 4 142 40 205c28 49 173 292 336 262c2 2 4 3 6 3c18 7 35 1 45 -15c36 -58 -6 -179 -53 -264c-15 -26 -31 -51 -49 -76
c38 4 110 103 149 156l18 23c8 11 23 14 35 5zM228 174c-14 72 35 208 86 284c-97 -16 -197 -150 -246 -237c-47 -84 -52 -135 -40 -155c7 -11 21 -17 43 -17c58 0 116 43 165 99c-3 7 -6 16 -8 26zM277 199c13 19 25 39 36 58c47 84 65 159 60 197
c-34 -40 -100 -176 -96 -255zM409 523l-74 77c-11 10 -10 26 0 35c10 10 26 10 36 0l75 -77c9 -9 9 -26 0 -35c-5 -6 -12 -8 -19 -8c-6 0 -12 3 -18 8z" />
    <glyph glyph-name="ugrave" unicode="&#xf9;" horiz-adv-x="433" 
d="M534 340c12 -8 14 -23 6 -35l-8 -12c-158 -217 -225 -293 -266 -293h-1c-22 0 -39 9 -48 26c-13 24 -8 64 7 110c-71 -73 -143 -136 -186 -137h-2c-32 0 -48 15 -56 28c-35 62 43 200 150 373c24 39 47 79 56 96c6 13 21 18 33 12s18 -21 12 -34c-9 -19 -32 -59 -58 -101
c-51 -83 -173 -280 -149 -320c2 -4 10 -4 13 -4c39 1 167 134 257 239c29 54 59 99 70 117c59 91 76 107 97 107c13 0 24 -7 30 -18c9 -20 1 -44 -65 -123l-3 -3c-4 -6 -38 -49 -85 -106c-63 -114 -88 -196 -77 -212h4v0c35 11 179 209 225 273l9 12c8 11 24 13 35 5z
M324 521l-75 76c-10 10 -9 26 1 37c10 9 26 9 36 -1l75 -77c9 -10 9 -26 -1 -36c-5 -5 -11 -8 -18 -8c-6 0 -13 3 -18 9z" />
    <glyph glyph-name="atilde" unicode="&#xe3;" horiz-adv-x="447" 
d="M565 339c11 -10 12 -26 3 -36c-20 -22 -46 -56 -70 -88c-98 -128 -171 -218 -233 -215c-10 1 -45 6 -44 59c0 14 4 34 12 60c-67 -69 -136 -118 -192 -120h-3c-24 0 -44 10 -56 29c-34 57 25 175 52 224c74 129 191 260 290 260c32 0 59 -14 76 -38c18 24 35 38 47 38
c16 0 29 -14 29 -30c0 -30 -66 -147 -153 -258c-32 -77 -56 -148 -51 -173c42 7 132 124 185 195c26 33 52 67 73 91c8 10 25 11 35 2zM40 50c63 2 162 103 244 207c25 60 54 121 83 167c-1 6 -4 11 -6 16c-8 14 -20 20 -37 20c-65 0 -170 -100 -245 -233
c-56 -98 -63 -157 -53 -173c2 -1 3 -4 14 -4zM333 584c-12 -9 -27 -5 -36 6c-8 12 -4 28 8 36c32 21 58 22 65 22c30 0 43 -24 52 -40c4 -7 8 -16 12 -18c2 -2 12 -2 32 13c12 8 28 6 36 -6c8 -11 6 -27 -6 -35c-23 -17 -42 -24 -60 -24c-11 0 -21 2 -30 9
c-15 9 -23 24 -29 37c-3 4 -7 12 -9 14c-3 -1 -17 -4 -35 -14z" />
    <glyph glyph-name="slash" unicode="/" horiz-adv-x="303" 
d="M509 739c3 -28 -91 -157 -171 -265c-49 -65 -95 -127 -115 -160c-67 -122 -183 -350 -212 -410c-6 -12 -21 -18 -33 -11c-12 6 -18 21 -12 33c27 57 140 277 203 394c1 2 1 3 1 4c2 4 5 9 9 14c39 71 80 144 119 207c69 114 141 213 179 217c14 3 24 -2 28 -13
c2 -3 3 -6 4 -10z" />
    <glyph glyph-name="A" unicode="A" horiz-adv-x="657" 
d="M778 340c11 -9 13 -26 4 -37c-6 -7 -14 -17 -24 -30c-166 -209 -234 -273 -281 -273c-24 0 -36 13 -41 20c-20 34 0 91 57 204c-23 9 -46 20 -70 31c-38 17 -75 33 -111 45c-123 -182 -206 -300 -279 -300c-23 0 -43 10 -54 28c-33 55 19 169 34 200
c74 142 176 157 277 132c137 201 278 402 412 402c30 0 45 -14 53 -27c35 -58 -32 -191 -146 -403c-53 -97 -129 -239 -128 -279c23 8 76 49 236 252c10 13 18 24 24 31c9 11 26 13 37 4zM33 52c47 0 141 137 226 262c-13 3 -27 4 -40 4c-61 0 -115 -29 -160 -114
c-33 -67 -46 -132 -35 -148c0 -2 2 -4 9 -4zM444 302c25 -11 50 -22 73 -31c14 26 29 54 46 85c63 118 169 316 147 352c-1 2 -7 2 -8 2c-104 0 -244 -195 -359 -365c35 -13 69 -28 101 -43z" />
    <glyph glyph-name="B" unicode="B" horiz-adv-x="774" 
d="M901 341c11 -10 11 -26 1 -37l-19 -20c-122 -128 -173 -183 -227 -210c-36 -17 -70 -21 -121 -23c-54 -32 -120 -52 -197 -52c-25 0 -47 6 -59 15c-9 7 -14 16 -16 27c0 12 4 21 15 30c12 9 36 17 77 21c66 6 116 9 154 10h10c57 36 99 87 124 141c14 30 22 60 24 90
c4 27 2 54 -6 75c0 1 -1 1 -1 1c-25 -6 -51 -11 -81 -11c-42 0 -69 14 -82 32c-7 9 -10 20 -10 30s3 20 10 29c12 18 39 32 76 32c48 0 84 -17 109 -47c30 16 51 40 64 65c9 19 13 36 13 54c1 18 -2 36 -10 52c-18 38 -61 66 -131 66c-10 0 -20 -1 -29 -3
c-19 -32 -37 -65 -53 -97c-59 -109 -115 -214 -185 -327c-44 -73 -91 -144 -138 -195c-51 -56 -102 -91 -151 -90c-43 1 -70 20 -82 54c-11 28 -6 69 8 115c14 43 39 91 69 141c112 185 322 399 497 445c10 18 19 36 30 55c7 13 23 18 35 11c13 -8 17 -24 10 -36
c-4 -7 -7 -14 -11 -21c94 0 152 -41 179 -96c11 -24 16 -49 14 -75c-1 -26 -7 -52 -18 -76c-17 -34 -46 -65 -85 -87c1 -1 1 -2 2 -4c10 -29 13 -63 10 -98c-4 -34 -15 -71 -31 -106c-17 -38 -41 -74 -73 -107c6 2 11 4 17 7c45 21 95 74 212 199l19 20c10 11 27 11 37 1z
M490 635c9 17 19 35 29 54c-150 -64 -321 -247 -418 -406c-28 -48 -51 -93 -64 -131c-12 -36 -14 -64 -8 -82c4 -12 15 -19 35 -20c32 -1 70 27 110 73c44 49 91 116 134 188c70 113 124 217 182 324zM579 451c17 0 32 1 46 4c-14 9 -31 14 -52 14c-18 0 -28 -3 -33 -9
c5 -5 17 -9 39 -9z" />
    <glyph glyph-name="P" unicode="P" horiz-adv-x="644" 
d="M746 693c20 -29 32 -65 32 -101c0 -18 -3 -35 -8 -52c-24 -86 -85 -148 -160 -187c-54 -29 -116 -47 -179 -56c4 -9 9 -17 13 -26c7 -12 0 -29 -13 -34c-12 -6 -28 0 -34 12c-7 16 -15 29 -24 41c-9 -1 -17 -2 -26 -2c-89 -152 -190 -291 -284 -289c-45 3 -73 22 -84 57
c-11 30 -7 70 7 116c13 42 37 91 67 142c109 183 312 396 485 440c8 16 16 33 27 54c6 13 22 18 34 11c13 -6 18 -21 12 -34l-11 -22v0c20 0 37 -3 55 -7c39 -11 69 -34 91 -63zM336 371c20 37 40 73 58 108c26 46 71 133 110 210c-147 -61 -313 -243 -407 -401
c-28 -49 -49 -94 -61 -133c-11 -35 -15 -63 -8 -83c3 -13 16 -19 36 -21c65 -1 147 109 224 237c-9 2 -18 4 -25 7c-20 9 -31 24 -32 36c-3 25 12 37 35 42c13 2 27 2 38 2s22 -2 32 -4zM721 555c3 12 5 25 5 37c0 25 -8 50 -23 70c-15 21 -36 36 -63 45c-11 3 -25 4 -40 4
c-9 0 -18 0 -27 -2c-44 -86 -103 -199 -132 -255c-1 0 -1 -1 -2 -1v0v-1c-17 -32 -37 -67 -56 -102c3 -2 6 -3 9 -6c68 7 136 25 194 54c63 35 113 85 135 157z" />
    <glyph glyph-name="O" unicode="O" horiz-adv-x="584" 
d="M696 712c13 -31 13 -73 1 -121c-10 -44 -30 -95 -57 -146c-104 -203 -317 -436 -498 -447c-50 -1 -86 13 -110 41c-25 31 -33 75 -29 126c4 48 19 104 42 161c74 186 232 399 367 445c14 4 30 -3 34 -17c4 -13 -3 -27 -17 -32c-121 -42 -266 -241 -335 -416
c-21 -52 -35 -102 -38 -145c-4 -38 1 -69 17 -88c13 -16 34 -24 67 -22c160 9 356 228 453 416c25 49 44 96 53 137c9 36 10 68 2 88c-7 17 -23 27 -49 27c-15 0 -30 -2 -45 -5c-4 -31 -13 -63 -29 -94c-20 -39 -47 -74 -80 -101c-33 -28 -72 -46 -114 -46
c-28 1 -45 12 -54 31c-7 16 -5 34 2 55c7 17 16 35 31 53c40 54 111 113 193 141c-2 14 -6 27 -14 36c-9 11 -7 28 4 37s28 8 37 -4c13 -15 21 -35 24 -55c15 2 30 3 45 3c50 0 82 -22 97 -58zM478 643c9 18 15 35 20 53c-62 -27 -115 -73 -146 -115
c-11 -14 -20 -28 -24 -40c-3 -8 -4 -13 -3 -16c0 0 2 1 6 1c28 0 57 13 81 33c26 22 49 52 66 84z" />
    <glyph glyph-name="ydieresis" unicode="&#xff;" horiz-adv-x="481" 
d="M593 339c11 -10 11 -26 2 -36l-34 -38c-77 -85 -182 -201 -303 -270c-20 -11 -39 -22 -57 -31c-24 -46 -50 -87 -77 -122c-56 -72 -111 -112 -171 -112c-64 0 -81 44 -83 57c-10 44 28 96 87 122l51 22c59 24 101 42 155 70c22 42 43 87 66 134
c-71 -74 -144 -136 -186 -137c-35 -1 -51 15 -59 29c-35 61 44 199 150 372c24 38 48 79 57 96c6 13 21 19 34 13s18 -21 12 -34c-10 -20 -34 -61 -59 -102c-52 -83 -172 -280 -150 -320c2 -3 10 -3 14 -3c39 1 175 142 265 248c20 38 40 74 61 106c59 93 77 108 97 108
c13 0 24 -7 29 -19c9 -20 2 -44 -65 -122l-3 -3c-3 -6 -33 -44 -74 -93c-25 -48 -48 -98 -71 -147c-13 -28 -26 -56 -39 -82c110 65 209 174 281 254l34 38c10 10 26 11 36 2zM84 -126c12 14 24 31 36 50c-30 -14 -58 -26 -92 -40l-52 -22c-41 -18 -60 -49 -57 -65
c2 -11 26 -17 34 -17c44 0 85 35 131 94zM284 544c-10 0 -18 4 -24 12c-7 7 -10 16 -10 26s3 20 10 26c6 7 14 12 24 12s18 -5 23 -12c7 -6 10 -16 10 -26s-3 -19 -10 -26c-5 -8 -13 -12 -23 -12zM345 515l-1 1c-5 7 -8 15 -8 25c0 11 3 20 9 27s15 12 24 12
c10 0 18 -5 24 -12c6 -6 10 -16 10 -27c0 -10 -4 -19 -10 -26s-14 -12 -24 -12c-9 0 -18 5 -24 12z" />
    <glyph glyph-name="otilde" unicode="&#xf5;" horiz-adv-x="431" 
d="M537 340c12 -9 14 -25 5 -36l-20 -27c-59 -81 -125 -171 -188 -171c-20 0 -37 6 -50 16c-59 -68 -133 -122 -209 -122c-52 0 -77 22 -87 41c-32 55 3 142 39 205c39 70 178 293 336 262c2 2 4 3 6 4c17 6 35 1 44 -15c37 -60 -7 -181 -55 -267c-12 -22 -27 -45 -43 -68
c6 -4 13 -5 19 -5c37 0 106 94 147 150l21 28c8 11 24 14 35 5zM251 181c-14 74 27 205 71 278c-91 -10 -190 -129 -251 -237c-47 -85 -51 -135 -39 -155c6 -11 20 -17 43 -17c63 0 129 53 180 117c-1 4 -3 9 -4 14zM299 230c5 8 10 16 15 25c47 84 66 158 62 197
c-28 -38 -72 -145 -77 -222zM301 573c-11 -9 -27 -5 -35 6c-9 11 -5 27 6 35c30 21 56 23 66 23c30 0 44 -25 51 -40c4 -7 8 -16 12 -18c2 -2 12 -2 32 14c12 9 28 6 36 -5c8 -12 6 -27 -5 -36c-22 -16 -42 -25 -60 -25c-11 0 -21 3 -30 9c-15 9 -23 25 -30 37
c-2 6 -6 12 -8 14c0 -1 -16 -1 -35 -14z" />
    <glyph glyph-name="Q" unicode="Q" horiz-adv-x="576" 
d="M648 -20c10 11 26 11 37 0c10 -10 9 -26 -1 -36c-40 -39 -78 -58 -117 -58c-3 0 -5 0 -7 1c-70 3 -122 65 -173 125c-20 23 -40 47 -61 66c-63 -46 -128 -76 -188 -79c-51 -2 -88 13 -110 40c-25 31 -34 74 -30 125c4 47 19 103 42 159c72 184 230 395 365 440
c12 4 27 -3 32 -16s-2 -27 -16 -32c-119 -42 -265 -238 -333 -412c-21 -52 -34 -101 -38 -143c-3 -39 2 -69 18 -87c6 -9 16 -15 28 -18c39 63 107 108 166 108c24 0 46 -8 66 -21c102 82 196 207 255 320c25 49 42 95 52 135c8 36 10 68 1 88c-7 17 -22 27 -48 27
c-15 0 -31 -3 -46 -6c-4 -30 -15 -61 -30 -91c-20 -38 -49 -74 -81 -102c-35 -28 -74 -46 -116 -46c-27 1 -43 13 -52 30c-7 16 -5 35 2 55c7 16 17 35 32 52c39 54 113 113 195 141c-1 15 -6 28 -13 37c-10 11 -8 27 3 37c11 8 28 6 36 -4c13 -17 21 -35 24 -57
c15 3 31 4 46 4c50 0 80 -21 97 -57c12 -31 11 -73 0 -119c-9 -44 -29 -95 -57 -146c-59 -116 -155 -242 -259 -330c19 -19 39 -42 58 -65c43 -51 88 -104 136 -106c27 -2 54 12 85 41zM465 639c9 16 15 33 20 48c-61 -27 -115 -72 -148 -113c-11 -15 -20 -28 -23 -40
c-3 -9 -4 -14 -3 -15c0 -1 1 0 4 0c28 0 57 14 82 35c28 22 51 52 68 85zM159 54c40 8 81 27 122 54c-6 2 -13 4 -19 4c-29 0 -71 -22 -103 -58z" />
    <glyph glyph-name="Aacute" unicode="&#xc1;" horiz-adv-x="659" 
d="M747 336c8 11 25 13 36 4c11 -10 13 -26 4 -37c-6 -7 -14 -17 -24 -30c-166 -210 -234 -274 -281 -274c-24 0 -36 13 -41 21c-20 33 0 90 57 204c-23 9 -46 19 -70 31c-38 16 -75 33 -111 45c-124 -182 -206 -301 -280 -301c-23 0 -43 10 -54 28c-33 55 18 169 34 200
c75 143 177 158 278 134c137 201 277 402 413 402c30 0 46 -14 53 -27c35 -59 -33 -192 -147 -404c-51 -97 -129 -240 -128 -280c24 8 75 50 236 253c10 13 19 24 25 31zM37 51c48 0 142 138 227 263c-14 3 -27 4 -41 4c-60 0 -115 -29 -159 -114c-35 -68 -46 -133 -37 -149
c1 -2 2 -4 10 -4zM450 302c24 -12 49 -22 72 -32c14 26 29 55 46 86c64 118 170 316 148 353c-1 2 -7 2 -8 2c-105 0 -244 -196 -361 -367c35 -12 70 -27 103 -42zM829 862c4 -13 -3 -28 -17 -33l-103 -34c-3 -1 -5 -1 -8 -1c-11 0 -21 7 -25 18c-4 13 3 28 17 33l103 34
c14 4 28 -3 33 -17z" />
    <glyph glyph-name="T" unicode="T" horiz-adv-x="414" 
d="M878 771c8 -7 13 -17 13 -28c0 -10 -4 -19 -12 -25c-21 -21 -71 -21 -215 -14c-169 -58 -235 -187 -325 -364c-9 -18 -18 -35 -28 -54l-4 -9c-71 -137 -144 -278 -253 -278c-41 0 -72 17 -88 49c-26 50 -7 131 46 205c33 43 67 79 103 106c12 8 28 5 37 -6
c9 -12 6 -28 -6 -37c-31 -23 -62 -55 -91 -94c-48 -66 -56 -124 -43 -151c3 -5 11 -20 42 -20c77 0 143 127 206 250l5 9l27 54c76 148 138 269 258 344c-135 4 -288 3 -395 -28c-74 -21 -124 -64 -131 -116c-4 -30 7 -58 28 -71c28 -17 68 -10 111 19c12 8 27 5 36 -7
c8 -12 5 -28 -7 -37c-60 -40 -121 -48 -167 -19c-39 24 -60 71 -52 122c9 73 73 133 169 160c141 41 353 32 509 25h5c41 13 88 22 142 28c41 4 65 0 80 -13z" />
    <glyph glyph-name="G" unicode="G" horiz-adv-x="562" 
d="M683 339c11 -10 12 -26 2 -37l-41 -45c-124 -137 -164 -183 -277 -233c-10 -4 -26 -11 -46 -19c-4 -2 -8 -4 -12 -5c-56 -118 -139 -270 -283 -270c-48 0 -82 25 -88 58c-19 94 156 179 333 252c3 8 7 15 10 22l10 21c1 3 3 5 4 8c-76 -61 -147 -94 -207 -94
c-36 0 -64 11 -83 33c-18 19 -27 46 -27 80c0 134 151 384 323 533c-20 20 -33 45 -36 72c-1 14 9 27 23 28c15 2 27 -9 29 -23c2 -15 11 -31 25 -45c71 54 144 88 210 88c48 0 85 -19 104 -52c15 -28 13 -61 -4 -89c-27 -43 -85 -66 -160 -61c-52 4 -107 21 -150 49
c-161 -138 -312 -379 -312 -500c0 -21 5 -36 13 -46c9 -9 24 -15 45 -15c33 0 103 15 211 114c22 21 45 44 67 68c23 43 47 86 69 126c100 171 117 167 137 162c6 -1 25 -8 23 -38c-2 -41 -94 -175 -186 -279c-24 -45 -47 -91 -67 -132c1 1 3 1 4 2c102 45 138 85 259 220
l41 45c10 11 26 12 37 2zM552 711c-51 0 -109 -26 -166 -67c31 -16 70 -28 110 -31c53 -3 95 10 112 37c8 12 8 25 2 36c-9 16 -30 25 -58 25zM26 -218c94 0 160 95 209 186c-171 -75 -254 -132 -246 -170c1 -4 14 -16 37 -16z" />
    <glyph glyph-name="I" unicode="I" horiz-adv-x="437" 
d="M637 762c23 -4 31 -17 28 -35v0c-5 -23 -52 -56 -62 -64l-2 -1v0c-18 -14 -44 -27 -74 -39c-32 -53 -65 -122 -100 -196c-40 -87 -82 -177 -131 -252c68 17 144 47 233 160c9 12 26 13 38 4c10 -9 12 -25 4 -36c-126 -156 -228 -180 -318 -188
c-56 -71 -120 -117 -198 -117c-26 0 -47 8 -61 20c-10 10 -17 22 -19 36c-3 13 -1 25 4 38c9 20 28 41 56 55c44 21 87 19 135 19c18 -1 36 -2 56 -1c58 78 107 185 155 284c24 52 47 101 71 145c-56 -18 -118 -36 -173 -51c-65 -17 -120 -33 -139 -43
c-37 -20 -57 -50 -59 -78c-2 -12 0 -24 4 -34s11 -18 21 -25c24 -17 64 -21 118 -2c13 4 28 -3 33 -17c4 -13 -3 -28 -16 -32c-71 -25 -127 -17 -163 7c-19 13 -32 30 -41 49c-8 18 -11 39 -9 60c5 42 34 88 87 117c24 13 82 30 151 48c74 21 161 45 227 71
c43 65 89 106 144 98zM55 50c47 0 89 24 127 63h-12c-43 1 -80 2 -112 -14c-16 -7 -27 -17 -31 -26c-1 -4 -2 -7 -1 -11c0 -2 1 -4 3 -5c5 -4 14 -7 26 -7z" />
    <glyph glyph-name="J" unicode="J" horiz-adv-x="526" 
d="M573 588c-44 -74 -90 -175 -138 -282c-37 -80 -74 -161 -114 -239c102 47 135 79 254 211c13 14 39 44 54 59c10 11 26 12 37 2c10 -9 10 -26 2 -36l-54 -61c-126 -137 -159 -173 -273 -223c-10 -4 -27 -12 -47 -20c-4 -1 -7 -2 -10 -3c-86 -153 -179 -267 -286 -267
c-20 0 -40 4 -54 11c-18 9 -30 23 -34 43c-20 99 205 198 337 254c48 89 95 192 141 290c42 93 81 180 121 253c-93 -12 -199 -27 -265 -65c-43 -24 -66 -58 -70 -88c-2 -13 0 -26 4 -38c4 -9 10 -19 19 -24c17 -13 45 -18 80 -6c14 4 29 -5 33 -18c4 -14 -3 -28 -17 -32
c-54 -16 -98 -9 -128 14c-17 13 -28 29 -36 47c-7 19 -9 41 -6 63c5 45 36 95 96 127c78 44 196 61 299 74c8 1 16 2 25 3c48 76 97 125 147 125c19 0 36 -3 49 -12c16 -7 26 -21 31 -36c11 -29 2 -53 -21 -73c-18 -15 -44 -25 -76 -34c-28 -8 -62 -13 -100 -19zM690 710
c-24 0 -51 -24 -79 -63c17 3 34 6 47 10c27 7 46 15 58 23c5 6 7 11 5 17c-1 3 -4 7 -8 8c-6 3 -13 5 -23 5zM-2 -219c71 0 140 74 206 181c-114 -50 -253 -119 -243 -169c1 -3 3 -4 6 -6c8 -4 19 -6 31 -6z" />
    <glyph glyph-name="F" unicode="F" horiz-adv-x="603" 
d="M902 770c8 -8 12 -18 11 -29c0 -8 -4 -17 -11 -23c-22 -21 -71 -21 -215 -15c-128 -44 -197 -128 -263 -245c22 3 44 6 68 10c7 1 13 2 19 3c34 34 70 53 101 55c18 1 73 4 77 -34c4 -42 -71 -59 -115 -66c-13 -1 -25 -3 -37 -4c-21 -25 -41 -58 -54 -101
c-4 -13 -19 -21 -32 -17c-14 5 -22 19 -17 33c8 28 19 52 33 74c-27 -3 -51 -7 -75 -11c-10 -20 -21 -40 -31 -62l-32 -61c-70 -136 -143 -278 -253 -278c-40 0 -71 17 -87 48c-26 51 -8 131 46 206c33 43 67 79 103 105c11 8 27 6 36 -5c8 -12 6 -28 -5 -37
c-31 -23 -63 -55 -92 -94c-47 -66 -55 -124 -41 -151c2 -5 10 -20 40 -20c78 0 144 127 207 250l31 61c4 8 8 17 13 25c-15 -3 -31 -7 -48 -12c-14 -4 -28 5 -32 18c-4 14 4 29 18 32c33 10 63 16 93 22c59 111 118 200 215 260c-135 4 -289 4 -395 -27
c-74 -21 -124 -65 -130 -117c-4 -30 6 -57 28 -70c28 -17 67 -10 109 18c11 9 28 5 36 -6c8 -12 6 -28 -7 -36c-59 -42 -120 -49 -165 -20c-39 24 -60 71 -53 121c10 74 73 133 167 161c142 41 355 31 510 25c2 0 4 -1 6 -1c41 14 87 23 141 29c55 5 73 -6 82 -14z" />
    <glyph glyph-name="U" unicode="U" horiz-adv-x="574" 
d="M770 695c-25 -45 -107 -157 -204 -279c-78 -147 -149 -303 -157 -360c28 18 81 65 232 257l17 22c9 11 25 13 36 5c12 -9 14 -25 5 -37l-17 -22c-165 -211 -237 -280 -284 -282h-2c-18 0 -37 12 -38 41c-3 33 28 115 72 215c-124 -139 -246 -256 -303 -256h-2
c-40 0 -58 17 -66 31c-31 55 26 153 120 308c73 123 174 290 142 347c-9 17 -32 25 -70 25c-77 0 -197 -35 -223 -101c-7 -17 -8 -36 -2 -52c17 -42 71 -53 139 -30c14 5 28 -2 33 -15c5 -14 -2 -29 -16 -33c-109 -39 -181 2 -204 59c-11 27 -10 60 1 90
c38 93 182 134 272 134c58 0 96 -17 115 -51c47 -84 -45 -238 -143 -400c-58 -95 -136 -225 -119 -255c2 -3 9 -6 22 -5c56 0 244 205 395 390c87 166 187 318 231 322c9 0 21 -6 26 -14c10 -16 2 -35 -8 -54z" />
    <glyph glyph-name="V" unicode="V" horiz-adv-x="528" 
d="M908 719c14 -38 -9 -85 -38 -112c-11 -9 -27 -8 -37 3c-9 10 -8 27 2 37c17 14 29 41 24 54c-3 9 -23 10 -31 10c-93 0 -232 -191 -354 -359c-137 -189 -254 -351 -357 -352h-2c-38 0 -55 17 -63 31c-30 53 24 145 122 303c76 124 180 293 148 351c-10 16 -34 25 -71 25
c-77 0 -197 -35 -224 -100c-7 -19 -8 -38 -1 -54c18 -41 71 -53 140 -29c13 5 28 -3 33 -16c4 -13 -2 -28 -16 -33c-116 -40 -183 7 -205 59c-11 28 -11 60 1 91c37 93 182 134 272 134c57 0 96 -17 116 -51c47 -86 -48 -240 -149 -404c-54 -88 -137 -222 -121 -250
c1 -3 7 -5 19 -5c77 1 204 176 316 330c142 196 277 381 396 381c54 0 73 -28 80 -44z" />
    <glyph glyph-name="H" unicode="H" horiz-adv-x="691" 
d="M780 336c10 11 26 13 37 4c11 -10 13 -25 3 -37c-8 -10 -14 -18 -20 -27c-68 -86 -219 -276 -284 -276c-23 0 -36 11 -43 31c-6 21 -1 53 12 93c13 36 33 79 57 127c5 10 11 20 16 30c-91 -50 -188 -48 -272 -45c-77 -133 -154 -236 -240 -236c-54 0 -71 34 -75 48
c-12 37 7 89 41 113c12 8 28 5 37 -7c8 -12 5 -28 -7 -36c-16 -11 -27 -38 -22 -54c1 -3 4 -12 26 -12c83 0 183 184 272 348c35 64 69 127 103 183l-45 -6c-113 -15 -231 -31 -283 -61c-63 -35 -80 -89 -65 -125c14 -33 51 -44 98 -29c14 4 28 -4 33 -18
c4 -13 -4 -28 -18 -32c-89 -27 -142 14 -160 58c-25 58 -3 142 86 192c61 34 178 50 302 66c25 3 57 8 91 13c52 73 105 121 162 121c50 0 75 -29 78 -58c7 -65 -82 -92 -211 -112c-42 -63 -85 -142 -126 -217c-16 -30 -32 -60 -48 -88c103 -3 222 4 316 126c1 1 3 3 4 5
c106 174 230 342 258 343c23 1 33 -11 33 -32c1 -50 -175 -257 -236 -327c-10 -11 -17 -19 -18 -21c0 -1 -1 -1 -1 -2c-30 -52 -58 -104 -83 -152c-23 -46 -42 -87 -54 -120c-8 -25 -12 -43 -12 -54c48 16 177 178 236 256c11 13 20 24 22 27zM622 711
c-28 0 -57 -22 -87 -57c63 12 115 27 113 45c0 7 -11 12 -26 12z" />
    <glyph glyph-name="E" unicode="E" horiz-adv-x="492" 
d="M613 340c11 -9 13 -26 4 -37c-166 -209 -304 -302 -423 -302c-120 0 -193 59 -193 157c0 122 113 271 256 334c-2 11 -3 23 -3 36c0 29 7 63 23 94c-33 25 -55 57 -59 93c-1 14 10 27 24 28s27 -9 28 -24c2 -18 14 -36 34 -53c41 55 106 97 188 97c53 0 94 -21 114 -56
c14 -28 13 -60 -4 -87c-26 -42 -84 -63 -158 -59c-42 4 -86 15 -123 33c-10 -22 -17 -46 -17 -66c0 -5 1 -12 3 -19c27 8 57 12 86 12c56 0 81 -30 81 -58c0 -18 -10 -34 -28 -46c-16 -9 -37 -14 -61 -14c-43 0 -77 13 -99 37c-3 2 -4 3 -6 5c-131 -54 -227 -193 -227 -287
c0 -87 77 -105 141 -105c101 0 229 88 382 282c9 11 25 14 37 5zM393 469c-18 0 -36 -1 -54 -6c12 -5 27 -9 46 -9c21 0 32 6 35 9c-2 3 -11 6 -27 6zM492 710c-62 0 -111 -31 -144 -71c29 -14 64 -24 100 -26c53 -3 94 10 110 35c8 11 8 23 2 34c-10 18 -35 28 -68 28z" />
    <glyph glyph-name="L" unicode="L" horiz-adv-x="541" 
d="M602 591c-37 -55 -75 -123 -113 -191c-74 -132 -147 -267 -233 -344c29 -18 59 -36 89 -55c104 -66 212 -133 277 -142c49 -7 83 3 93 27c7 17 1 36 -9 44c-12 9 -13 25 -5 37c9 11 26 14 37 5c31 -23 41 -69 26 -106c-9 -20 -36 -62 -112 -62c-12 0 -24 1 -37 3
c-76 11 -184 78 -298 149c-35 22 -72 45 -105 65c-36 -23 -73 -33 -113 -31c-63 6 -108 29 -120 65c-8 21 -4 44 12 61c26 25 69 31 117 15c30 -11 64 -27 100 -47c84 68 163 211 235 341c31 56 62 109 90 156c-15 -2 -31 -4 -47 -6c-116 -15 -234 -31 -288 -62
c-64 -35 -81 -91 -65 -128c14 -32 52 -43 100 -29c13 5 29 -3 33 -17s-4 -29 -17 -33c-91 -28 -145 15 -164 59c-25 58 -3 144 88 194c62 36 180 51 306 68c26 3 58 8 92 13c53 75 106 123 165 123c50 0 76 -30 79 -59c7 -66 -83 -93 -213 -113zM736 711
c-28 0 -57 -23 -88 -58c64 13 116 28 114 45c0 9 -15 13 -26 13zM103 42c18 -1 36 2 53 10c-23 12 -46 23 -65 29c-13 5 -25 6 -35 6c-12 0 -22 -3 -26 -8c-3 -3 -3 -4 -2 -6c3 -8 23 -26 75 -31z" />
    <glyph glyph-name="Y" unicode="Y" horiz-adv-x="618" 
d="M717 337c10 10 26 11 36 1c11 -9 12 -26 2 -36l-30 -33c-126 -140 -173 -191 -284 -242c-10 -4 -26 -10 -45 -18c-5 -2 -10 -4 -16 -6c-13 -30 -24 -53 -34 -70c-72 -130 -149 -203 -242 -203c-48 0 -84 30 -91 62c-18 93 154 178 329 250c15 35 33 75 52 119
c18 39 34 77 50 112c-128 -146 -258 -272 -318 -272l-1 -1c-40 0 -58 18 -66 32c-30 54 25 152 119 307c74 122 175 289 143 346c-10 16 -33 25 -71 25c-76 0 -197 -35 -222 -100c-7 -18 -8 -37 -1 -53c16 -41 70 -52 138 -29c13 5 28 -3 33 -16c5 -14 -3 -28 -16 -33
c-109 -38 -181 2 -203 59c-12 27 -11 60 0 91c37 91 181 133 271 133c58 0 97 -18 116 -52c47 -83 -46 -236 -144 -397c-57 -95 -135 -225 -118 -255c2 -4 10 -6 21 -6c55 1 250 215 404 404c97 203 164 303 221 306c9 1 21 -5 27 -12c10 -17 1 -36 -9 -54
c-24 -44 -102 -153 -197 -271c-50 -105 -99 -215 -130 -285c-10 -24 -20 -48 -30 -69l9 3c102 46 143 93 267 230zM301 -42c2 4 5 9 7 14c-169 -75 -251 -132 -244 -169c1 -5 17 -22 40 -22c73 0 134 63 197 177z" />
    <glyph glyph-name="M" unicode="M" horiz-adv-x="959" 
d="M1056 335c8 11 24 14 36 5c12 -8 14 -24 6 -36c-224 -309 -282 -305 -305 -305h-1c-22 0 -39 10 -49 28c-43 73 55 291 125 427c-18 -15 -37 -32 -58 -49c-70 -60 -141 -121 -203 -177c-14 -42 -30 -80 -48 -113c-23 -43 -72 -115 -129 -115c-30 0 -41 14 -47 25
c-11 26 5 58 59 117c31 33 72 72 119 115c36 121 46 267 -9 360c-22 -46 -49 -101 -79 -160c-6 -11 -12 -25 -20 -41c-45 -94 -120 -251 -213 -344c-55 -57 -111 -79 -157 -79c-30 0 -56 10 -75 26c-42 36 -62 119 21 233c32 43 66 78 102 105c11 8 28 6 36 -6
c9 -12 6 -28 -5 -37c-32 -23 -62 -54 -91 -93c-58 -80 -56 -139 -29 -162c30 -26 96 -17 161 49c87 87 160 240 203 330c8 17 15 31 20 43c35 67 66 131 90 181c-3 3 -5 5 -8 7c-66 53 -162 53 -227 29c-56 -20 -93 -58 -99 -101c-4 -28 6 -55 28 -72c33 -25 87 -24 148 3
c14 6 29 0 35 -13s0 -28 -13 -34c-80 -35 -153 -34 -202 3c-37 28 -55 73 -48 121c10 62 59 115 133 142c73 26 189 32 276 -36c2 5 5 10 7 15l12 24c6 13 21 19 34 13c14 -6 19 -22 13 -35l-12 -24c-4 -10 -9 -20 -15 -32c71 -90 77 -227 52 -354c47 41 97 84 147 126
c53 46 112 96 163 142c108 180 143 179 157 179c26 0 35 -16 37 -23c11 -31 -23 -74 -154 -190c-97 -165 -211 -408 -195 -492c2 -9 4 -9 7 -9c6 0 61 4 264 284zM513 140l1 1c-12 -12 -24 -24 -33 -34c-25 -27 -37 -43 -43 -53c19 6 47 33 75 86z" />
    <glyph glyph-name="N" unicode="N" horiz-adv-x="817" 
d="M1088 733c12 -14 22 -39 11 -78c-4 -14 -19 -21 -33 -18c-14 4 -21 19 -17 33s3 24 -2 32c-6 7 -15 10 -20 9c-11 0 -31 -11 -58 -41c-103 -117 -214 -297 -290 -437c-5 -54 -15 -102 -27 -138c-28 -79 -63 -95 -88 -95c-10 0 -22 8 -26 17c-11 23 29 117 91 232
c10 123 -7 275 -78 371c-21 -46 -48 -104 -78 -164c-7 -13 -15 -29 -23 -48c-45 -92 -119 -247 -209 -337c-56 -56 -112 -78 -157 -78c-31 0 -57 10 -76 26c-42 36 -62 118 21 232c32 43 66 78 102 104c11 9 27 6 36 -5c8 -12 6 -28 -6 -37c-31 -23 -61 -54 -90 -93
c-58 -79 -56 -138 -29 -162c30 -25 96 -17 162 50c84 84 156 234 199 323c9 19 17 36 24 49c34 68 64 133 85 182c-1 2 -3 3 -5 5c-66 52 -162 52 -227 29c-55 -21 -92 -58 -98 -100c-5 -29 6 -56 27 -72c34 -26 88 -25 149 2c13 6 28 0 34 -13s0 -28 -13 -34
c-79 -35 -153 -34 -201 3c-37 28 -55 74 -48 122c10 61 59 114 132 141c72 25 186 32 273 -33c6 14 12 26 16 35c6 13 21 19 34 12c13 -6 19 -22 12 -35c-5 -11 -13 -28 -23 -50c75 -83 104 -209 108 -329c79 133 173 275 248 360c35 38 67 58 96 58c16 0 44 -7 62 -30z" />
    <glyph glyph-name="K" unicode="K" horiz-adv-x="696" 
d="M1039 711c13 -29 6 -62 -18 -91c-10 -12 -26 -13 -37 -4c-11 10 -12 26 -3 37c6 8 17 23 11 36c-5 11 -22 21 -48 21c-51 0 -130 -77 -213 -158c-97 -94 -204 -199 -320 -244c24 -40 35 -93 44 -140c15 -76 26 -116 61 -116c14 3 69 40 258 273l19 24c10 11 26 12 37 3
s12 -25 3 -36l-19 -24c-201 -246 -259 -293 -299 -293c-79 0 -96 83 -111 159c-12 60 -23 106 -45 135c-13 -4 -26 -5 -39 -6c-87 -158 -173 -289 -270 -289c-55 0 -71 34 -76 49c-12 38 7 88 43 112c11 8 28 5 36 -7c8 -11 5 -28 -7 -35c-16 -12 -27 -39 -22 -55
c1 -3 4 -12 26 -12c65 0 141 113 212 240c-25 8 -39 26 -39 42c0 42 51 42 75 42c4 0 7 -1 10 -1c5 8 9 17 14 25c35 66 70 130 104 185l-45 -6c-114 -15 -232 -31 -285 -61c-63 -35 -80 -90 -64 -126c14 -32 52 -44 99 -29c13 4 28 -4 32 -17c4 -14 -3 -28 -17 -33
c-90 -27 -143 14 -162 59c-25 57 -3 142 87 192c62 35 179 50 303 67c25 3 57 7 91 12c53 74 106 122 163 122c49 0 75 -29 78 -58c7 -66 -82 -92 -211 -112c-43 -63 -86 -144 -127 -219c-3 -5 -6 -10 -8 -15c5 -2 10 -5 15 -8c112 36 221 142 319 239
c100 96 178 172 250 172c44 0 80 -19 95 -51zM628 712c-27 0 -57 -23 -88 -58c64 13 116 28 114 45c-1 9 -14 13 -26 13z" />
    <glyph glyph-name="S" unicode="S" horiz-adv-x="622" 
d="M764 670c1 -99 -148 -120 -311 -128c9 -40 31 -79 52 -119c5 -7 10 -16 16 -27c29 -56 44 -111 44 -160c0 -45 -11 -85 -32 -119c-19 -34 -49 -64 -88 -84c-41 -22 -93 -35 -153 -35c-97 0 -155 38 -183 87c-11 21 -17 45 -18 67c-1 23 3 45 12 67c19 49 62 88 119 92
c8 1 15 1 22 0c23 -2 46 -12 62 -28c18 -15 29 -38 31 -66v-23c-2 -14 -14 -24 -28 -23c-14 2 -24 15 -23 28v14c-1 15 -6 25 -15 33c-8 8 -19 12 -32 14h-13c-35 -3 -63 -28 -75 -61c-6 -13 -9 -29 -8 -45c1 -15 5 -30 12 -44c19 -34 62 -61 137 -61c51 0 95 11 129 30
c30 16 53 38 68 64c16 27 24 58 24 93c0 41 -12 87 -37 135c-5 8 -10 18 -16 28c-25 46 -50 92 -60 140c-14 0 -28 -1 -42 -1c-106 -4 -207 -8 -256 -27c-46 -18 -72 -49 -80 -81c-2 -12 -2 -23 0 -34c2 -10 7 -19 14 -25c15 -15 41 -22 78 -14c14 3 28 -6 31 -20
s-6 -27 -20 -30c-56 -12 -98 1 -125 26c-14 15 -24 32 -29 51c-4 19 -3 39 1 59c11 46 48 91 111 116c57 23 163 27 272 31c14 0 28 1 42 1c0 14 2 27 6 41c12 40 37 74 77 98c36 20 83 32 141 32c40 0 73 -9 97 -21c30 -18 46 -43 46 -71zM449 593c139 7 264 21 263 77
c0 9 -6 18 -20 26c-16 8 -40 14 -71 14c-48 0 -87 -8 -114 -25c-29 -16 -46 -39 -54 -67c-2 -8 -4 -16 -4 -25z" />
    <glyph glyph-name="W" unicode="W" horiz-adv-x="849" 
d="M1179 725c16 -29 7 -67 -24 -112c-8 -12 -24 -15 -36 -7s-15 24 -7 36c22 31 26 51 22 59c-4 7 -15 10 -22 10c-45 0 -180 -179 -278 -310c-184 -244 -311 -403 -404 -403c-36 0 -61 22 -67 60c-6 39 8 101 35 172c-115 -124 -229 -228 -285 -228h-2c-36 0 -53 16 -60 30
c-29 51 25 142 124 299c78 125 186 296 154 354c-9 17 -33 25 -71 25c-77 0 -197 -35 -223 -100c-8 -19 -9 -37 -1 -52c17 -43 71 -54 138 -31c14 5 29 -2 33 -15c5 -14 -2 -29 -16 -33c-109 -39 -181 2 -203 59c-13 27 -12 60 1 92c38 96 187 132 271 132
c58 0 97 -17 116 -51c47 -86 -56 -249 -155 -408c-55 -87 -139 -219 -123 -246c0 -1 3 -3 16 -3c53 0 220 174 361 338c79 146 179 284 235 303c10 3 22 0 29 -7c4 -6 11 -16 3 -33c-11 -26 -108 -155 -224 -292c-63 -119 -111 -241 -102 -297c3 -16 9 -16 16 -16
c74 0 234 212 362 382c154 205 253 331 320 331c22 0 53 -10 67 -38z" />
    <glyph glyph-name="X" unicode="X" horiz-adv-x="786" 
d="M1049 717c16 -27 17 -60 2 -89c-7 -13 -23 -18 -36 -11c-12 7 -17 23 -10 35c5 10 8 25 0 38c-10 15 -34 23 -69 21c-126 -6 -284 -156 -373 -300c-75 -119 -102 -249 -64 -317c15 -29 44 -44 83 -44c56 0 177 144 257 240c21 26 21 26 40 47c10 11 26 12 37 2
c11 -9 12 -26 2 -36c-18 -21 -18 -21 -39 -47c-127 -151 -224 -258 -297 -258c-75 0 -111 39 -129 72c-22 39 -27 93 -18 154c-98 -121 -229 -219 -344 -225h-11c-77 0 -103 41 -111 59c-14 33 -5 74 22 100c10 10 27 9 37 -2c9 -10 9 -27 -1 -36c-12 -11 -16 -29 -10 -42
c8 -19 33 -29 71 -27c143 7 320 189 403 352c26 53 106 212 66 277c-13 20 -38 30 -76 30c-77 0 -198 -35 -224 -100c-8 -19 -8 -38 -2 -53c17 -42 72 -54 140 -30c14 5 29 -2 34 -16c5 -13 -3 -28 -16 -33c-111 -38 -183 2 -206 59c-11 28 -11 61 1 91
c38 93 182 134 273 134c57 0 98 -18 120 -55c24 -37 23 -90 8 -147c94 107 214 197 324 203c72 4 104 -27 116 -46z" />
    <glyph glyph-name="question" unicode="?" horiz-adv-x="484" 
d="M127 1c-20 0 -27 23 -15 51c14 29 40 52 62 52c21 0 28 -23 16 -52c-14 -28 -41 -51 -63 -51zM569 723c20 -21 28 -50 28 -79v-1v-5c-5 -130 -128 -216 -240 -296c-19 -14 -40 -29 -58 -44c-21 -15 -33 -26 -56 -52c-20 -22 -35 -45 -31 -64c1 -1 1 -2 2 -3
c3 -2 7 -3 14 -4c5 -1 11 0 16 2c6 1 11 4 16 9c13 9 31 7 39 -6c9 -12 7 -29 -5 -38c-11 -8 -22 -15 -35 -18c-12 -4 -25 -5 -38 -3c-17 2 -30 7 -40 15c-13 9 -20 21 -22 36c-9 38 12 77 42 111c26 30 41 42 64 59c19 15 40 29 61 45c101 73 212 151 216 252v5
c0 17 -4 32 -14 42c-10 12 -26 19 -50 20h-6c-29 0 -56 -15 -79 -34c-29 -26 -49 -60 -52 -80c-1 -16 -15 -26 -30 -25c-16 2 -26 15 -24 31c3 32 30 80 70 115c32 27 71 48 115 48h8c41 -2 71 -16 89 -38z" />
    <glyph glyph-name="questiondown" unicode="&#xbf;" horiz-adv-x="484" 
d="M570 761c20 0 27 -23 15 -51c-14 -29 -40 -52 -62 -52c-21 0 -28 23 -16 52c14 28 41 51 63 51zM128 39c-20 21 -28 50 -28 79v1v5c5 130 128 216 240 296c19 14 40 29 58 44c21 15 33 26 56 52c20 22 35 45 31 64c-1 1 -1 2 -2 3c-3 2 -7 3 -14 4c-5 1 -11 0 -16 -2
c-6 -1 -11 -4 -16 -9c-13 -9 -31 -7 -39 6c-9 12 -7 29 5 38c11 8 22 15 35 18c12 4 25 5 38 3c17 -2 30 -7 40 -15c13 -9 20 -21 22 -36c9 -38 -12 -77 -42 -111c-26 -30 -41 -42 -64 -59c-19 -15 -40 -29 -61 -45c-101 -73 -212 -151 -216 -252v-5c0 -17 4 -32 14 -42
c10 -12 26 -19 50 -20h6c29 0 56 15 79 34c29 26 49 60 52 80c1 16 15 26 30 25c16 -2 26 -15 24 -31c-3 -32 -30 -80 -70 -115c-32 -27 -71 -48 -115 -48h-8c-41 2 -71 16 -89 38z" />
    <glyph glyph-name="Atilde" unicode="&#xc3;" horiz-adv-x="656" 
d="M739 335c9 12 25 13 36 4s13 -26 4 -37c-6 -6 -14 -17 -23 -29c-166 -210 -233 -273 -281 -273c-24 0 -36 13 -40 21c-19 33 -1 90 57 203c-23 9 -47 20 -70 31c-38 16 -75 33 -111 45c-124 -182 -208 -300 -281 -300c-24 0 -43 10 -55 28c-33 54 21 169 37 199
c75 143 176 158 277 134c136 200 277 401 411 401c30 0 46 -14 53 -27c35 -58 -32 -192 -146 -404c-52 -96 -128 -238 -128 -278c24 8 76 49 235 251c11 14 19 24 25 31zM30 52c47 0 143 137 228 262c-14 2 -27 4 -40 4c-61 0 -116 -29 -160 -114c-34 -67 -48 -132 -38 -149
c1 -1 2 -3 10 -3zM443 302c25 -12 49 -22 73 -32c13 27 28 55 45 85c63 118 170 316 147 353c-1 2 -7 2 -8 2c-104 0 -243 -195 -359 -365c35 -13 69 -29 102 -43zM835 824c9 -11 6 -27 -5 -36c-23 -17 -44 -26 -62 -26c-11 0 -21 3 -30 9c-15 10 -23 26 -29 38
c-3 5 -7 13 -10 15c-3 -1 -18 -4 -35 -16c-12 -7 -28 -4 -36 8s-4 28 7 36c33 21 59 23 67 23c30 0 44 -25 52 -42c4 -7 9 -16 13 -19c1 0 11 0 32 15c12 9 27 7 36 -5z" />
    <glyph glyph-name="Eacute" unicode="&#xc9;" horiz-adv-x="473" 
d="M603 361c11 -9 13 -25 4 -36c-166 -210 -323 -325 -441 -325c-121 0 -194 59 -194 157c0 122 113 272 257 335c-3 11 -5 23 -5 35c0 30 9 63 24 95c-32 25 -54 57 -58 93c-1 15 9 28 23 29s27 -9 29 -23c2 -19 14 -38 34 -55c41 55 106 97 188 97c53 0 95 -20 115 -56
c14 -27 13 -59 -4 -86c-27 -42 -85 -63 -159 -59c-42 2 -85 14 -123 32c-11 -22 -17 -46 -17 -67c0 -5 1 -12 2 -18c28 8 58 13 88 13c55 0 80 -30 80 -58c0 -19 -10 -36 -28 -47c-16 -9 -37 -15 -63 -15c-41 0 -75 13 -98 37c-2 2 -5 5 -6 7c-131 -56 -227 -194 -227 -289
c0 -32 10 -56 30 -74c24 -21 62 -31 112 -31c100 0 246 111 400 305c9 11 25 13 37 4zM366 470c-20 0 -38 -3 -57 -6c12 -6 28 -10 46 -10c28 0 39 9 40 11c-1 -1 -9 5 -29 5zM464 711c-62 0 -111 -32 -143 -72c28 -14 63 -23 98 -25c54 -4 96 9 112 35c7 11 8 22 2 33
c-10 18 -36 29 -69 29zM412 792c-10 0 -20 7 -24 18c-5 13 3 28 16 33l103 34c14 4 29 -3 33 -17c4 -13 -3 -28 -17 -32l-102 -35c-3 -1 -6 -1 -9 -1z" />
    <glyph glyph-name="Iacute" unicode="&#xcd;" horiz-adv-x="437" 
d="M638 762c22 -3 30 -15 27 -34c-3 -22 -47 -54 -60 -62c-1 -1 -1 -2 -2 -3c-19 -14 -45 -28 -77 -41c-31 -52 -64 -121 -99 -194c-40 -86 -82 -176 -131 -252c68 17 134 48 225 160c8 11 25 13 36 4c12 -8 13 -25 4 -35c-124 -158 -218 -182 -308 -189
c-56 -71 -119 -117 -196 -117c-27 0 -48 9 -62 21c-10 10 -16 22 -19 34c-2 13 -1 27 5 39c9 21 27 41 56 54c43 21 86 20 135 19c17 0 36 -1 56 0c57 78 107 184 154 283c24 52 47 102 71 146c-56 -19 -118 -36 -173 -50c-65 -19 -120 -34 -140 -44
c-36 -21 -55 -50 -59 -79c-1 -12 1 -24 5 -34c4 -9 11 -18 21 -25c24 -16 64 -20 118 -2c13 6 28 -2 33 -15c4 -14 -3 -28 -17 -34c-71 -24 -127 -16 -163 9c-18 11 -31 28 -39 47s-11 39 -9 60c5 43 32 88 86 118c23 13 81 29 150 48c75 20 162 45 228 71
c44 65 90 105 144 97zM57 51c47 0 88 24 126 63h-12c-42 1 -81 2 -112 -13c-16 -8 -26 -18 -30 -28c-2 -3 -2 -7 -2 -9c1 -3 2 -5 4 -6c4 -5 13 -7 26 -7zM525 787c-10 0 -20 6 -24 17c-4 13 3 28 17 33l102 35c14 5 28 -3 33 -16s-2 -28 -15 -33l-104 -35
c-3 -1 -6 -1 -9 -1z" />
    <glyph glyph-name="Oacute" unicode="&#xd3;" horiz-adv-x="546" 
d="M660 704c13 -31 12 -73 1 -120c-10 -43 -29 -93 -56 -145c-103 -200 -313 -430 -491 -439c-50 -3 -86 11 -110 39c-24 30 -33 73 -29 126c4 46 19 100 41 157c73 184 231 394 364 440c14 5 29 -3 33 -16c5 -13 -2 -28 -16 -33c-119 -41 -264 -237 -331 -409
c-22 -53 -35 -102 -39 -144c-3 -39 2 -69 18 -88c11 -15 33 -22 66 -22c158 9 351 225 448 412c25 49 42 95 52 135c9 36 10 67 1 88c-7 15 -22 25 -48 25c-15 0 -30 -2 -44 -5c-4 -30 -14 -62 -28 -92c-20 -38 -48 -74 -79 -100c-34 -28 -73 -46 -114 -44
c-28 0 -44 10 -53 30c-6 15 -5 33 2 53c6 17 17 36 31 54c38 52 110 111 191 139c-2 14 -7 26 -14 35c-9 12 -8 28 4 36c11 10 26 8 36 -3c12 -15 20 -34 23 -55c15 3 30 4 45 4c50 0 80 -21 96 -58zM444 637c9 17 16 34 20 50c-61 -26 -113 -71 -145 -112
c-10 -15 -18 -29 -22 -41c-3 -6 -4 -12 -3 -14c0 -1 1 0 6 0c28 0 55 12 79 33c27 22 49 51 65 84zM435 833c-11 0 -21 7 -24 18c-5 14 3 29 16 33l104 34c14 5 29 -3 33 -17c4 -13 -3 -28 -16 -32l-105 -34c-2 -1 -5 -2 -8 -2z" />
    <glyph glyph-name="Uacute" unicode="&#xda;" horiz-adv-x="585" 
d="M773 697c-21 -39 -101 -151 -201 -274c-78 -148 -152 -309 -160 -366c28 17 82 65 233 257l17 22c9 11 25 13 36 4s13 -25 4 -36l-17 -22c-165 -211 -237 -280 -285 -283h-1c-19 0 -37 13 -39 42c-1 32 29 117 74 217c-123 -140 -246 -258 -304 -259c-39 1 -59 17 -67 31
c-30 55 25 152 119 308c74 122 175 290 142 347c-9 17 -32 25 -69 25c-75 0 -198 -36 -223 -101c-8 -19 -8 -38 -2 -52c13 -32 57 -58 139 -30c14 4 29 -3 33 -17c5 -13 -2 -27 -16 -32c-109 -37 -181 3 -203 59c-12 26 -12 59 1 91c36 92 181 134 271 134
c57 0 96 -18 115 -52c47 -83 -46 -236 -143 -399c-58 -95 -136 -225 -119 -255c2 -3 9 -6 21 -5c54 1 247 212 400 400c86 162 182 308 225 311c10 0 21 -5 26 -13c11 -17 2 -34 -7 -52zM510 781c-10 0 -21 7 -24 18c-5 13 3 27 16 32l102 36c14 4 29 -3 34 -17
c4 -13 -3 -28 -17 -33l-102 -35c-3 -1 -6 -1 -9 -1z" />
    <glyph glyph-name="Yacute" unicode="&#xdd;" horiz-adv-x="639" 
d="M572 431c-52 -107 -101 -219 -133 -291c-10 -24 -20 -48 -30 -70c2 2 5 2 7 4c102 45 136 83 257 217l41 45c10 11 26 12 37 2c10 -10 11 -26 1 -37l-41 -44c-123 -136 -162 -181 -274 -231c-10 -4 -27 -11 -47 -19c-4 -2 -8 -3 -11 -5c-15 -30 -26 -54 -35 -70
c-72 -129 -149 -202 -243 -202c-46 0 -84 30 -91 62c-18 93 154 178 330 250c15 34 33 75 52 119c18 41 35 80 52 117c-129 -148 -260 -277 -320 -278h-2c-39 0 -56 17 -66 31c-29 54 26 152 119 307c78 130 174 289 142 346c-9 17 -33 26 -70 26c-76 0 -195 -36 -221 -101
c-9 -18 -9 -38 -2 -53c13 -31 57 -57 139 -29c13 4 28 -3 33 -16c4 -14 -3 -29 -16 -33c-116 -39 -183 7 -204 58c-12 29 -11 63 1 93c37 91 181 132 270 132c57 0 96 -17 115 -51c47 -83 -45 -236 -142 -398c-57 -96 -136 -225 -118 -255c2 -4 9 -6 21 -6
c57 2 247 211 400 398c99 207 166 308 224 312c9 1 21 -5 26 -12c10 -16 2 -35 -7 -51c-20 -38 -98 -147 -194 -267zM299 -42c2 4 5 8 8 13c-171 -74 -253 -131 -245 -168c1 -6 18 -22 39 -22c74 0 135 63 198 177zM494 780c-11 0 -21 7 -25 18c-4 13 3 28 16 33l104 35
c13 4 29 -3 33 -16s-3 -28 -17 -33l-103 -35c-2 -1 -5 -2 -8 -2z" />
    <glyph glyph-name="Adieresis" unicode="&#xc4;" horiz-adv-x="660" 
d="M740 336c9 11 25 13 37 4c11 -8 12 -25 4 -36l-17 -22c-167 -213 -241 -283 -290 -283c-23 0 -35 13 -40 21c-19 33 0 90 58 204c-23 9 -47 19 -71 31c-38 16 -75 33 -110 45c-124 -183 -208 -301 -281 -301c-24 0 -43 11 -55 29c-33 56 20 169 36 199
c74 143 177 158 277 133c137 201 277 403 413 403c30 0 46 -15 53 -27c35 -59 -33 -193 -147 -406c-51 -96 -128 -238 -128 -278c22 8 73 44 244 262zM30 51c48 0 143 138 227 263c-14 2 -27 3 -40 3c-61 0 -115 -28 -159 -113c-35 -67 -49 -132 -38 -149c1 -1 2 -4 10 -4z
M442 302c26 -12 50 -23 74 -32c13 26 28 54 45 84c63 119 171 317 148 355c-1 2 -7 2 -8 2c-105 0 -244 -196 -360 -367c35 -12 69 -28 101 -42zM701 814c-10 0 -19 4 -26 11c-6 7 -10 17 -10 27c0 11 4 20 10 28c7 6 16 11 26 11c8 0 17 -5 24 -11c6 -8 10 -17 10 -28
c0 -10 -4 -20 -10 -27c-7 -7 -16 -11 -24 -11zM812 837c7 -7 11 -17 11 -26c0 -11 -4 -21 -11 -28c-6 -7 -15 -11 -24 -11c-10 0 -19 4 -26 11v1c-5 7 -10 17 -10 27c0 9 5 19 10 26c7 8 16 12 26 12c9 0 18 -4 24 -12z" />
    <glyph glyph-name="Aring" unicode="&#xc5;" horiz-adv-x="638" 
d="M740 335c8 12 25 13 36 4c11 -8 13 -25 4 -36l-17 -22c-166 -212 -239 -282 -288 -282c-23 0 -35 14 -40 21c-19 33 0 90 58 204c-23 9 -47 19 -71 30c-38 17 -75 34 -110 46c-123 -182 -207 -301 -279 -301c-25 0 -44 11 -55 29c-34 55 19 168 35 199
c74 143 176 157 277 132c136 201 276 403 411 403c30 0 46 -15 53 -28c35 -58 -32 -192 -147 -405c-51 -95 -128 -236 -128 -277c23 8 73 43 243 260zM33 51c47 0 141 137 225 262c-13 3 -27 4 -40 4c-60 0 -114 -28 -158 -114c-35 -66 -48 -131 -38 -149c1 -1 3 -3 11 -3z
M443 302c26 -12 50 -23 73 -32c14 26 29 53 45 84c64 118 171 316 149 353c-2 2 -8 2 -9 2c-105 0 -243 -194 -359 -365c35 -12 69 -28 101 -42zM760 885c31 0 55 -26 55 -56c0 -31 -24 -57 -55 -57c-29 0 -54 26 -54 57c0 30 25 56 54 56zM760 803c13 0 25 11 25 26
c0 14 -12 25 -25 25c-12 0 -24 -11 -24 -25c0 -15 12 -26 24 -26z" />
    <glyph glyph-name="Acircumflex" unicode="&#xc2;" horiz-adv-x="657" 
d="M746 335c8 12 25 14 36 4c11 -8 13 -24 4 -36l-18 -22c-165 -213 -237 -282 -285 -282c-24 0 -36 14 -40 22c-20 32 -1 89 56 203c-23 9 -46 19 -71 30c-37 17 -74 33 -109 46c-124 -182 -208 -301 -281 -301c-24 0 -43 11 -55 29c-33 55 21 169 37 200
c74 142 175 156 276 132c136 200 277 402 411 402c31 0 46 -15 54 -28c34 -58 -33 -191 -147 -404c-52 -95 -128 -238 -127 -278c21 8 71 44 241 261zM38 51c48 0 143 138 227 263c-14 2 -27 3 -40 3c-61 0 -115 -29 -159 -114c-35 -66 -48 -131 -38 -148c1 -1 3 -4 10 -4z
M450 301c25 -11 50 -21 73 -31c14 26 29 54 45 85c64 118 170 316 148 353c-1 1 -8 1 -9 1c-104 0 -243 -195 -359 -365c35 -13 69 -28 102 -43zM818 873c7 -6 11 -14 10 -22l-6 -88c-1 -13 -12 -24 -25 -24h-2c-15 1 -26 14 -25 28l4 48l-66 -22c-14 -4 -29 3 -33 17
c-5 13 2 28 16 33l103 34c8 3 17 1 24 -4z" />
    <glyph glyph-name="Egrave" unicode="&#xc8;" horiz-adv-x="468" 
d="M583 341c12 -10 14 -26 5 -37c-166 -210 -306 -304 -424 -304c-122 0 -195 58 -195 158c0 122 113 271 256 334c-2 11 -3 23 -3 35c0 30 8 64 24 96c-33 25 -55 57 -59 94c-2 14 9 26 23 28c14 1 27 -10 28 -24c2 -18 15 -37 35 -54c42 55 106 96 188 96
c54 0 96 -20 115 -55c15 -28 14 -60 -4 -86c-26 -43 -84 -64 -158 -59c-42 2 -86 14 -124 33c-11 -24 -16 -47 -16 -69c0 -5 0 -11 1 -17c29 8 58 12 87 12c56 0 81 -30 81 -58c0 -18 -10 -35 -28 -46c-15 -10 -37 -15 -62 -15c-42 0 -76 12 -99 37l-6 6
c-131 -55 -227 -194 -227 -288c0 -88 78 -106 143 -106c100 0 230 90 383 284c9 11 25 13 36 5zM362 471c-19 0 -37 -3 -56 -7c13 -6 28 -9 47 -9c27 0 37 8 39 10c-1 -1 -9 6 -30 6zM461 712c-61 0 -111 -32 -143 -73c29 -13 64 -22 99 -24c53 -4 95 8 112 34
c7 11 8 23 1 34c-9 18 -35 29 -69 29zM533 779l-77 78c-10 11 -9 27 1 37c11 10 27 10 37 0l76 -79c10 -10 10 -27 0 -36c-5 -5 -12 -8 -18 -8c-7 0 -14 3 -19 8z" />
    <glyph glyph-name="Ecircumflex" unicode="&#xca;" horiz-adv-x="473" 
d="M567 356c8 12 25 14 36 4c11 -9 13 -24 4 -36c-166 -209 -322 -324 -440 -324c-121 0 -194 59 -194 157c0 122 113 271 257 334c-3 10 -5 22 -5 35c0 30 8 63 24 94c-33 26 -55 57 -58 94c-2 15 9 27 23 28c15 1 27 -9 29 -24c1 -18 14 -37 34 -53c41 54 105 96 188 96
c52 0 93 -21 113 -56c15 -27 14 -59 -4 -86c-26 -42 -84 -63 -158 -58c-42 2 -85 14 -123 32c-10 -23 -16 -46 -16 -67c0 -5 1 -12 2 -18c28 8 58 12 88 12c54 0 80 -29 80 -58c0 -18 -10 -35 -29 -46c-15 -9 -37 -15 -62 -15c-41 0 -75 13 -99 37c-2 2 -4 4 -5 6
c-44 -18 -87 -47 -125 -85c-63 -63 -102 -140 -102 -202c0 -88 77 -105 142 -105c100 0 246 111 400 304zM367 469c-20 0 -38 -3 -57 -6c13 -6 28 -10 46 -10c28 0 38 8 39 10c-1 -1 -8 6 -28 6zM465 709c-62 0 -111 -31 -144 -72c29 -13 63 -22 98 -25c54 -3 96 9 111 35
c7 11 8 23 2 34c-9 17 -35 28 -67 28zM620 871c6 -6 10 -14 9 -23l-7 -87c-1 -14 -12 -23 -25 -23h-2c-15 1 -25 13 -24 27l3 49l-66 -23c-14 -4 -28 3 -33 17c-4 13 4 28 17 33l103 34c9 3 18 1 25 -4z" />
    <glyph glyph-name="Edieresis" unicode="&#xcb;" horiz-adv-x="473" 
d="M562 356c9 12 25 14 37 5c11 -9 13 -25 4 -36c-166 -211 -323 -326 -441 -326c-122 0 -195 59 -195 157c0 123 113 273 257 335c-2 11 -4 24 -4 36c0 30 8 63 24 95c-33 25 -56 57 -59 94c-2 14 9 27 23 28c15 1 27 -9 28 -23c2 -19 16 -38 36 -54c41 54 106 96 188 96
c53 0 95 -20 114 -56c15 -27 13 -60 -4 -87c-26 -41 -84 -63 -158 -58c-42 3 -85 14 -124 33c-10 -23 -16 -47 -16 -68c0 -5 1 -12 2 -18c28 8 57 13 87 13c56 0 81 -31 81 -59c0 -18 -11 -35 -29 -46c-16 -10 -37 -15 -62 -15c-53 0 -83 20 -99 37l-6 6
c-131 -55 -227 -194 -227 -289c0 -87 78 -105 143 -105c101 0 247 111 400 305zM361 470c-20 0 -38 -3 -57 -6c13 -7 28 -10 47 -10c28 0 38 8 39 11c-1 -2 -9 5 -29 5zM460 711c-62 0 -111 -31 -144 -72c29 -14 64 -23 99 -25c54 -4 96 9 112 34c7 12 7 23 2 34
c-10 18 -36 29 -69 29zM490 802c-9 0 -18 4 -25 12c-6 7 -10 17 -10 27c0 11 4 21 10 27c7 7 16 12 25 12s18 -5 25 -12c6 -6 10 -16 10 -27c0 -10 -4 -20 -10 -27c-7 -8 -16 -12 -25 -12zM552 772v1c-6 8 -10 17 -10 27s4 19 10 27c7 7 16 12 26 12c8 0 17 -5 24 -12
c6 -7 10 -17 10 -27c0 -11 -4 -21 -10 -28c-7 -7 -16 -12 -24 -12c-10 0 -19 5 -26 12z" />
    <glyph glyph-name="Igrave" unicode="&#xcc;" horiz-adv-x="445" 
d="M638 761c22 -2 30 -16 27 -34c-4 -22 -52 -57 -62 -64v0c-1 0 -1 -1 -1 -1c-18 -14 -45 -27 -75 -40c-32 -52 -64 -121 -99 -194c-41 -86 -83 -176 -132 -252c68 17 134 48 224 160c9 11 25 13 37 4c11 -9 13 -25 4 -36c-125 -157 -218 -180 -307 -188
c-56 -70 -120 -117 -197 -117c-26 0 -48 9 -62 22c-10 9 -16 21 -18 34c-3 13 -1 26 4 39c8 20 27 40 57 54c42 20 86 19 133 18c18 0 37 -1 56 0c57 78 107 183 154 283c24 52 47 101 72 145c-57 -18 -118 -35 -172 -50c-66 -19 -121 -33 -140 -44c-37 -21 -57 -50 -59 -78
c-1 -12 0 -23 4 -34c5 -9 11 -18 22 -25c23 -16 62 -21 117 -2c13 5 29 -3 33 -16c5 -13 -2 -28 -16 -33c-72 -25 -127 -17 -163 9c-19 12 -32 28 -40 47c-8 18 -11 39 -9 60c5 43 33 88 87 117c23 13 81 29 150 48c73 21 160 45 226 71c44 65 90 105 145 97zM57 51
c46 0 88 24 126 63h-13c-42 1 -78 2 -111 -13c-15 -7 -26 -18 -30 -28c-1 -3 -2 -6 -1 -9c0 -3 1 -5 3 -6c5 -4 13 -7 26 -7zM681 836c10 -10 10 -26 0 -36c-5 -6 -12 -8 -18 -8c-7 0 -13 3 -19 8l-76 77c-10 11 -10 26 0 37c11 10 27 10 37 0z" />
    <glyph glyph-name="Icircumflex" unicode="&#xce;" horiz-adv-x="438" 
d="M641 766c22 -3 31 -16 28 -35c-5 -22 -53 -56 -62 -63l-1 -1v0c-19 -15 -45 -28 -76 -41c-32 -52 -65 -122 -99 -195c-41 -87 -84 -177 -133 -253c69 16 146 61 236 174c9 11 25 13 37 4c11 -9 13 -26 4 -37c-125 -157 -230 -194 -320 -202c-56 -70 -120 -117 -197 -117
c-27 0 -49 8 -63 21c-9 10 -16 22 -18 35c-3 13 -1 26 4 39c9 21 27 40 57 54c42 21 87 20 135 19c18 -1 36 -1 56 0c57 78 107 184 154 284c25 52 48 102 72 146c-57 -18 -118 -35 -173 -50c-66 -19 -121 -34 -140 -45c-37 -20 -57 -50 -60 -78c-1 -12 0 -24 5 -34
c4 -10 11 -19 22 -25c23 -16 63 -21 118 -2c13 4 27 -3 32 -16c5 -14 -2 -29 -15 -34c-72 -24 -129 -16 -165 9c-18 12 -31 29 -40 47c-8 19 -11 40 -9 61c5 43 33 88 87 118c24 13 82 29 151 48c74 21 162 45 228 71c44 65 90 106 145 98zM58 52c46 0 88 24 126 63
c-4 0 -8 0 -12 1c-43 1 -80 2 -112 -13c-16 -8 -27 -19 -31 -29c-1 -2 -2 -6 -1 -9c0 -3 1 -5 3 -5c5 -5 14 -8 27 -8zM721 903c7 -6 10 -14 10 -23l-7 -88c-1 -14 -12 -24 -26 -24h-2c-14 1 -25 13 -24 28l4 49l-67 -22c-14 -5 -28 3 -33 16c-5 14 3 29 17 34l104 34
c8 3 17 1 24 -4z" />
    <glyph glyph-name="Idieresis" unicode="&#xcf;" horiz-adv-x="442" 
d="M634 761c22 -3 29 -15 27 -34c-3 -22 -51 -57 -62 -64c-19 -15 -45 -29 -76 -41c-32 -52 -64 -121 -99 -195c-41 -85 -83 -175 -131 -251c68 17 145 61 235 173c9 11 25 13 36 4c11 -8 13 -25 4 -36c-124 -156 -229 -193 -318 -201c-56 -70 -119 -117 -196 -117
c-27 0 -47 9 -61 21c-11 10 -17 22 -20 35c-2 13 -1 26 5 39c9 20 27 40 56 53c43 21 86 21 135 20c17 -1 36 -1 55 0c57 77 107 182 154 282c24 52 47 101 71 145c-56 -18 -117 -35 -173 -50c-64 -18 -119 -33 -139 -44c-37 -21 -55 -50 -59 -78c-1 -12 1 -24 5 -34
c5 -9 11 -18 21 -25c24 -16 64 -20 117 -2c14 5 29 -3 34 -16c4 -13 -3 -28 -17 -33c-71 -24 -127 -16 -163 9c-18 12 -31 28 -39 47c-8 18 -12 39 -9 59c5 43 32 88 86 118c23 14 81 29 149 48c75 21 163 45 229 71c43 65 89 105 143 97zM54 51c46 0 88 24 126 63h-12
c-42 2 -80 3 -112 -12c-16 -8 -26 -19 -30 -28c-2 -4 -2 -7 -2 -10c1 -3 2 -4 4 -5c4 -5 13 -8 26 -8zM713 841c7 -7 10 -16 10 -26c0 -11 -3 -21 -10 -27c-7 -7 -14 -12 -24 -12s-19 5 -25 12l-1 1c-5 6 -9 15 -9 26c0 10 4 19 10 26c6 8 15 12 25 12s17 -4 24 -12z
M602 817c-10 0 -19 5 -24 12c-7 7 -11 16 -11 27s4 21 11 27c5 7 14 12 24 12s18 -5 24 -12c6 -6 10 -16 10 -27s-4 -20 -10 -27s-14 -12 -24 -12z" />
    <glyph glyph-name="Ntilde" unicode="&#xd1;" horiz-adv-x="828" 
d="M1092 732c10 -14 21 -39 10 -78c-4 -14 -18 -21 -33 -17c-13 3 -21 18 -17 32s4 25 -1 32c-6 8 -17 10 -22 10c-14 0 -40 -21 -57 -41c-103 -118 -215 -299 -290 -439c-5 -53 -15 -102 -28 -139c-27 -78 -62 -94 -86 -94c-12 0 -22 7 -27 17c-11 24 29 117 90 231
c10 124 -6 278 -77 374c-21 -47 -48 -105 -79 -166c-7 -12 -14 -28 -23 -47c-45 -93 -120 -247 -209 -338c-56 -56 -112 -78 -158 -78c-30 0 -56 10 -75 25c-43 36 -63 119 20 233c31 41 64 76 101 106c12 8 29 6 37 -5c9 -12 7 -28 -5 -37c-34 -26 -64 -57 -91 -95
c-58 -79 -56 -138 -28 -162c29 -25 96 -16 162 50c84 85 155 234 199 324c9 19 17 35 24 48c34 69 64 134 86 183c-2 2 -4 3 -5 5c-68 53 -163 53 -228 29c-55 -20 -92 -57 -99 -99c-4 -29 6 -56 28 -73c33 -25 88 -24 149 2c13 6 28 0 34 -13s0 -29 -13 -34
c-80 -35 -153 -34 -202 4c-37 28 -55 74 -47 121c9 62 59 114 132 141c71 27 185 33 273 -33c6 14 12 27 16 36c6 12 22 18 35 11c13 -5 18 -21 12 -34c-6 -11 -13 -29 -23 -51c74 -83 104 -210 109 -330c77 134 173 276 247 361c11 14 52 59 96 59c18 0 46 -8 63 -31z
M700 786c-13 -8 -28 -4 -36 8s-5 28 7 36c26 16 51 23 67 23c30 0 43 -26 52 -42c4 -7 8 -16 12 -18c2 -1 12 -2 33 14c11 9 28 6 36 -5c9 -12 6 -28 -5 -36c-23 -18 -44 -26 -62 -26c-11 0 -21 3 -30 9c-15 9 -23 25 -30 38c-2 5 -7 12 -9 14c-1 -1 -17 -3 -35 -15z" />
    <glyph glyph-name="Ograve" unicode="&#xd2;" horiz-adv-x="546" 
d="M651 703c13 -32 12 -73 1 -119c-11 -44 -31 -94 -57 -145c-103 -200 -313 -429 -491 -440c-49 -2 -85 12 -108 41c-26 29 -33 73 -29 124c3 46 19 101 41 158c73 183 229 393 362 439c15 4 28 -4 34 -16c5 -14 -4 -28 -16 -33c-121 -42 -264 -236 -332 -409
c-21 -52 -34 -102 -37 -143c-3 -39 2 -69 16 -88c13 -15 34 -23 66 -22c160 10 352 225 447 412c25 48 44 94 52 133c10 37 10 68 2 89c-6 15 -22 25 -47 25c-15 0 -30 -3 -44 -5c-4 -30 -14 -62 -30 -92c-19 -38 -46 -73 -77 -100c-34 -28 -73 -45 -114 -44
c-27 0 -44 11 -53 30c-7 15 -6 33 2 53c6 17 16 35 30 54c40 51 111 110 191 139c-1 13 -6 25 -13 34c-10 12 -8 27 3 37c12 9 27 8 36 -3c12 -16 20 -35 24 -56c14 3 29 5 45 5c50 0 80 -22 96 -58zM435 635c8 17 15 34 19 51c-61 -27 -113 -71 -143 -112
c-12 -16 -19 -29 -24 -41c-2 -7 -4 -12 -2 -14c0 -1 1 0 5 0c28 0 56 12 80 33c27 22 50 51 65 83zM554 828l-77 77c-10 10 -10 27 1 37c10 10 26 10 37 -1l75 -77c11 -10 11 -26 0 -36c-4 -5 -11 -8 -18 -8s-13 3 -18 8z" />
    <glyph glyph-name="Otilde" unicode="&#xd5;" 
d="M464 865c-13 -9 -29 -5 -37 7c-7 12 -4 28 8 36c32 21 58 23 66 23c31 0 44 -25 52 -42c4 -7 9 -16 13 -18c1 -1 11 -1 32 14c11 9 27 7 36 -5c9 -11 7 -28 -5 -36c-23 -17 -43 -26 -62 -26c-11 0 -20 3 -30 9c-15 10 -23 25 -29 38c-3 5 -7 13 -9 15
c-4 -1 -19 -4 -35 -15zM662 704c13 -32 12 -73 1 -120c-10 -42 -29 -93 -55 -145c-103 -199 -312 -428 -491 -438c-50 -3 -85 12 -108 40c-25 30 -34 73 -30 124c4 46 19 101 41 158c73 183 230 393 363 439c14 4 29 -3 33 -16c4 -14 -2 -28 -16 -33
c-119 -42 -263 -236 -331 -408c-21 -52 -34 -103 -38 -144c-3 -39 2 -69 18 -87c12 -15 33 -23 65 -22c159 9 351 224 448 411c24 48 42 94 51 133c9 37 10 68 1 88c-6 16 -21 26 -48 26c-15 0 -29 -3 -43 -5c-4 -30 -14 -62 -29 -92c-20 -39 -47 -74 -78 -100
c-34 -27 -72 -45 -114 -44c-27 0 -44 11 -53 30c-6 15 -5 33 2 53c6 17 17 36 31 54c39 52 109 111 190 138c-1 15 -6 26 -13 35c-9 12 -8 28 4 36c10 10 26 8 36 -3c12 -15 20 -34 23 -54c14 2 29 4 44 4c50 0 80 -22 96 -58zM447 636c9 17 16 34 20 51
c-61 -26 -113 -71 -144 -113c-11 -15 -19 -28 -23 -40c-3 -6 -4 -12 -3 -14c0 -1 1 0 6 0c28 0 55 12 79 33c27 21 49 51 65 83z" />
    <glyph glyph-name="Ugrave" unicode="&#xd9;" horiz-adv-x="590" 
d="M779 703c-20 -38 -103 -153 -203 -278c-80 -149 -153 -310 -161 -368c28 18 82 64 233 258l18 21c9 12 25 14 36 5c12 -10 13 -26 5 -37l-18 -22c-166 -213 -238 -280 -285 -283h-2c-19 0 -38 13 -39 43c-2 33 29 118 75 219c-125 -141 -249 -261 -308 -262h-1
c-40 0 -58 17 -67 32c-31 54 26 153 121 310c74 123 176 292 143 350c-9 16 -33 25 -70 25c-77 0 -198 -36 -225 -102c-7 -18 -8 -37 -1 -53c13 -31 56 -58 139 -30c14 5 29 -2 34 -16c4 -14 -3 -29 -17 -33c-110 -37 -182 3 -205 59c-11 28 -11 62 1 92
c38 93 183 135 274 135c58 0 97 -17 115 -52c48 -84 -45 -238 -144 -402c-58 -96 -137 -227 -119 -257c2 -4 9 -6 21 -6c57 1 248 209 401 397c87 166 186 318 230 320c9 0 21 -5 26 -13c11 -16 3 -34 -7 -52zM546 784l-77 78c-10 11 -9 27 1 37s27 10 36 0l78 -79
c10 -10 9 -27 -1 -37c-5 -5 -11 -7 -18 -7s-14 3 -19 8z" />
    <glyph glyph-name="quotedblright" unicode="&#x201d;" horiz-adv-x="341" 
d="M330 712v-1c-1 0 -1 -1 -1 -1c-14 -20 -26 -38 -35 -52c-11 -16 -21 -31 -29 -42c-7 -10 -20 -13 -27 -7c-10 7 -13 18 -7 28c7 9 14 20 23 34c-15 5 -17 27 -2 50c16 26 46 45 68 42c23 -2 26 -25 10 -51zM422 763c21 -2 26 -25 9 -51v-1l-1 -1c-14 -20 -26 -38 -36 -52
c-10 -16 -20 -31 -28 -42c-6 -10 -18 -13 -27 -7c-10 7 -13 18 -7 28c7 9 14 20 23 34c-15 5 -16 27 -2 50c16 26 48 45 69 42z" />
    <glyph glyph-name="quotedblleft" unicode="&#x201c;" horiz-adv-x="481" 
d="M299 656v1c1 0 1 1 1 1c14 20 26 38 35 52c11 16 21 31 28 42c7 10 20 13 28 7c9 -7 12 -18 7 -28c-7 -9 -14 -20 -23 -34c15 -5 17 -27 2 -50c-16 -26 -47 -45 -68 -42c-23 2 -27 25 -10 51zM206 605c-21 2 -26 25 -8 51v1l1 1c13 20 25 38 35 52c10 16 20 31 28 42
c6 10 19 13 28 7c10 -7 13 -18 6 -28c-6 -9 -14 -20 -23 -34c16 -5 17 -27 3 -50c-17 -26 -48 -45 -70 -42z" />
    <glyph glyph-name="bullet" unicode="&#x2022;" horiz-adv-x="349" 
d="M189 210c-27 0 -36 30 -20 66c18 38 52 69 81 69c27 0 36 -31 20 -69c-18 -36 -53 -66 -81 -66z" />
    <glyph glyph-name="Eth" unicode="&#xd0;" horiz-adv-x="807" 
d="M923 339c10 -10 11 -26 2 -36c-204 -232 -221 -239 -373 -252c-51 -33 -107 -53 -164 -53c-39 0 -69 4 -85 11c-14 6 -22 15 -23 27c-3 15 3 26 20 34c15 8 46 15 99 21c45 4 80 7 110 9c10 0 19 1 28 2c80 56 146 150 185 249c19 47 31 96 35 141c6 43 1 85 -10 120
c-21 60 -70 100 -158 100c-9 0 -17 -1 -26 -2c-9 -18 -19 -39 -29 -60c-34 -74 -73 -157 -100 -209c-1 -2 -2 -3 -3 -5h145c15 0 26 -11 26 -25c0 -15 -11 -27 -26 -27h-171c-41 -78 -86 -163 -132 -232c-63 -91 -129 -157 -194 -155c-47 2 -75 24 -88 60
c-10 30 -7 71 7 117c12 43 34 94 63 145c103 183 296 391 466 436c12 23 21 42 27 53c7 14 22 19 35 13c12 -7 17 -23 11 -35c-3 -6 -7 -14 -11 -23h1c113 0 178 -53 206 -134c15 -41 19 -91 13 -142c-5 -51 -19 -104 -39 -155c-32 -80 -80 -157 -139 -216
c71 19 114 60 255 221c9 10 26 12 37 2zM488 671l9 21c-143 -60 -302 -240 -391 -398c-26 -48 -47 -94 -59 -133c-11 -37 -13 -68 -7 -88c5 -14 18 -22 40 -24c45 -1 97 54 149 132c41 60 80 132 117 203h-73c-14 0 -26 12 -26 27c0 14 12 25 26 25h101c4 10 9 20 14 28
c25 51 64 134 100 207z" />
    <glyph glyph-name="circumflex" unicode="&#x2c6;" horiz-adv-x="476" 
d="M429 565c-12 -8 -29 -4 -37 8l-72 111l-91 -114c-9 -10 -26 -12 -37 -4c-12 10 -13 27 -5 37l114 144v0c9 12 25 13 38 5c3 -3 5 -7 7 -11l90 -139c8 -12 5 -29 -7 -37z" />
    <glyph glyph-name="acircumflex" unicode="&#xe2;" horiz-adv-x="446" 
d="M565 339c10 -10 11 -26 2 -37c-19 -22 -44 -55 -69 -88c-98 -127 -170 -216 -233 -214c-10 0 -44 6 -44 60c0 13 4 34 12 59c-67 -69 -136 -119 -193 -120h-1c-26 0 -46 10 -57 29c-35 58 24 176 51 223c74 130 192 260 290 260c33 0 60 -12 77 -36c18 22 34 36 46 36
c17 0 29 -12 29 -29c0 -29 -65 -146 -152 -258c-33 -77 -56 -148 -51 -173c41 7 131 124 185 193c25 34 51 69 72 92c9 11 25 12 36 3zM39 50c64 1 163 103 245 209c25 58 54 118 82 165c-1 6 -2 11 -5 17c-8 13 -20 19 -38 19c-64 0 -170 -100 -245 -233
c-55 -99 -61 -157 -53 -173c2 -1 4 -4 14 -4zM361 588c-13 -4 -27 3 -31 16c-5 14 3 28 15 33l102 33c8 3 17 2 23 -4c7 -5 11 -13 11 -21l-7 -87c-1 -13 -12 -23 -26 -23h-2c-14 1 -24 14 -23 27l4 48z" />
    <glyph glyph-name="ecircumflex" unicode="&#xea;" horiz-adv-x="366" 
d="M479 338c11 -10 11 -27 2 -37c-121 -128 -299 -302 -442 -302c-28 0 -43 13 -52 24c-11 12 -16 30 -16 52c0 133 204 436 351 436c42 0 59 -20 66 -32c15 -27 10 -62 -12 -101c-45 -76 -157 -156 -303 -160c-31 -56 -51 -109 -51 -143c0 -10 2 -17 4 -21c1 -1 3 -3 13 -3
c91 0 229 97 404 285c10 11 26 11 36 2zM322 460c-64 0 -152 -91 -217 -189c109 14 192 75 226 133c14 24 17 42 12 49c-3 6 -15 7 -21 7zM324 546c-14 -5 -28 2 -32 16c-5 13 2 28 16 33l101 33c8 2 17 1 23 -4c7 -5 10 -14 10 -22l-5 -86c-1 -13 -12 -24 -26 -24h-1
c-14 1 -25 14 -25 28l4 48z" />
    <glyph glyph-name="icircumflex" unicode="&#xee;" horiz-adv-x="207" 
d="M325 337c11 -8 13 -25 4 -36c-2 -2 -252 -301 -336 -301c-24 0 -36 13 -39 20c-15 26 -4 63 43 142c74 125 136 230 197 337c6 13 22 18 34 10c12 -7 17 -22 10 -35c-61 -108 -123 -213 -197 -338c-27 -48 -38 -71 -41 -83c50 21 202 172 289 280c9 11 25 13 36 4z
M196 548c-14 -5 -28 3 -32 16c-5 14 3 28 15 32l103 34c8 3 17 1 24 -4c7 -6 10 -14 10 -22l-8 -86c-1 -13 -11 -24 -25 -24h-2c-14 1 -24 14 -23 28l4 47z" />
    <glyph glyph-name="ocircumflex" unicode="&#xf4;" horiz-adv-x="431" 
d="M537 340c11 -9 13 -24 5 -36l-21 -29c-58 -79 -125 -169 -186 -169c-21 0 -38 5 -51 16c-59 -69 -132 -122 -208 -122c-53 0 -77 23 -88 42c-32 54 4 141 40 204c28 49 172 292 335 262l6 3c17 7 34 1 44 -15c36 -58 -6 -178 -53 -264c-13 -23 -28 -47 -45 -70
c5 -4 12 -5 20 -5c36 0 104 93 146 150l21 28c8 11 24 13 35 5zM251 181c-14 74 27 204 70 277c-98 -11 -200 -149 -248 -237c-48 -83 -53 -134 -41 -154c6 -11 21 -16 44 -16c63 0 128 52 179 115c-2 5 -3 10 -4 15zM376 451c-28 -39 -73 -145 -77 -223c6 10 11 19 16 29
c47 82 65 156 61 194zM336 540c-12 -8 -28 -5 -35 7c-8 11 -5 27 6 35l90 59c7 5 15 6 23 2c8 -3 14 -10 15 -18l17 -84c2 -14 -7 -27 -21 -30h-4c-12 0 -22 8 -25 20l-9 47z" />
    <glyph glyph-name="ucircumflex" unicode="&#xfb;" horiz-adv-x="431" 
d="M534 340c11 -8 13 -23 5 -34l-13 -19c-157 -217 -221 -286 -260 -287c-24 1 -40 9 -49 26c-13 24 -8 65 8 110c-72 -74 -145 -136 -186 -137h-2c-33 0 -49 15 -56 28c-36 61 43 199 149 372c23 39 48 80 56 98c6 12 21 17 34 11s18 -21 12 -33c-9 -20 -33 -61 -59 -102
c-51 -84 -172 -280 -148 -321c2 -3 10 -3 13 -3c38 1 166 134 256 239c32 57 63 104 70 115l4 6c52 82 70 102 92 102c14 0 24 -7 29 -18c11 -22 -3 -48 -60 -118c-3 -3 -5 -5 -6 -7v1c-10 -14 -42 -55 -85 -107c-59 -107 -89 -194 -77 -212h3h1c34 11 174 203 220 266
l13 19c9 11 24 14 36 5zM300 536c-12 -7 -28 -4 -35 7c-8 12 -4 28 7 36l89 59c7 5 16 5 24 2c7 -3 13 -10 15 -18l16 -85c3 -13 -6 -26 -20 -29h-5c-12 0 -22 8 -25 20l-9 47z" />
    <glyph glyph-name="zcaron" unicode="&#x17e;" horiz-adv-x="389" 
d="M503 338c10 -10 11 -26 1 -36l-40 -40c-71 -77 -115 -123 -153 -154c-17 -15 -34 -27 -52 -37c-71 -146 -276 -333 -418 -333c-58 0 -70 34 -72 54c-6 79 88 139 160 176c91 48 156 76 207 99c34 15 62 28 86 41c8 19 12 38 12 53c0 10 -1 16 -4 22
c-45 -31 -91 -51 -133 -51h-1c-67 1 -71 42 -71 50c1 39 51 80 133 80c30 0 55 -5 74 -15c53 42 102 98 129 148c18 35 17 52 14 56c-1 2 -7 10 -30 10c-99 -2 -231 -110 -299 -200c-9 -11 -25 -13 -36 -5c-11 9 -13 24 -5 36c78 103 222 217 339 220v0c34 0 58 -11 73 -32
c18 -26 14 -62 -12 -109c-26 -50 -77 -110 -134 -158c9 -14 14 -32 14 -52v-10c34 30 76 75 143 145l39 41c9 10 26 11 36 1zM96 183c26 -1 52 10 81 27h-19c-47 0 -72 -16 -79 -25c3 -1 9 -2 17 -2zM-159 -211c103 0 256 125 337 241c-7 -3 -14 -6 -22 -9
c-51 -23 -114 -51 -203 -98c-114 -60 -136 -102 -134 -127c0 -2 1 -7 22 -7zM371 544c-5 0 -11 2 -15 6c-7 5 -10 13 -10 22l7 86c1 14 14 24 27 23c14 -1 25 -13 24 -27l-4 -49l65 22c13 5 28 -3 32 -16s-3 -27 -16 -31l-101 -34c-3 -1 -6 -2 -9 -2z" />
    <glyph glyph-name="aring" unicode="&#xe5;" horiz-adv-x="444" 
d="M563 339c11 -9 12 -25 3 -36c-19 -22 -46 -57 -71 -89c-97 -127 -170 -217 -232 -214c-11 0 -45 5 -45 59c1 14 6 34 13 60c-67 -68 -136 -119 -192 -120h-3c-24 0 -44 10 -56 29c-34 57 25 175 52 223c55 96 177 259 289 259c32 0 59 -13 76 -38c18 23 34 38 47 38
c16 0 29 -13 29 -30c0 -28 -66 -145 -152 -256c-33 -77 -56 -148 -52 -173c43 7 132 123 186 194c25 32 52 68 72 92c10 10 26 11 36 2zM37 50c64 1 163 103 245 209c25 57 54 117 82 164c-1 5 -3 11 -5 15c-9 14 -21 21 -38 21c-64 0 -169 -100 -244 -233
c-56 -98 -62 -157 -53 -172c1 -2 4 -5 13 -4zM399 525c-30 0 -54 25 -54 55c0 32 24 57 54 57c29 0 53 -25 53 -57c0 -30 -24 -55 -53 -55zM399 607c-13 0 -24 -12 -24 -27c0 -13 11 -25 24 -25s23 12 23 25c0 15 -10 27 -23 27z" />
    <glyph glyph-name="Ocircumflex" unicode="&#xd4;" horiz-adv-x="541" 
d="M654 704c13 -31 13 -72 2 -119c-11 -44 -30 -94 -56 -146c-103 -200 -314 -429 -492 -439c-50 -3 -85 12 -109 40c-25 29 -33 73 -28 125c3 46 18 101 41 157c72 184 229 394 363 440c13 5 28 -3 33 -15c4 -14 -3 -29 -17 -34c-119 -41 -263 -236 -331 -409
c-21 -52 -34 -102 -37 -144c-4 -39 1 -69 16 -88c13 -15 34 -22 66 -21c159 8 352 225 448 412c25 48 43 94 53 133c8 38 9 68 1 89c-6 15 -22 25 -48 25c-15 0 -30 -2 -44 -5c-4 -30 -14 -62 -29 -92c-20 -38 -46 -74 -79 -100c-33 -28 -72 -45 -113 -44
c-27 0 -45 11 -53 30c-6 15 -5 34 1 53c6 17 17 35 31 54c40 52 110 111 191 139c-1 14 -6 26 -14 35c-8 11 -6 27 4 36c11 10 28 8 37 -3c13 -15 20 -34 23 -55c15 3 30 4 45 4c50 0 81 -21 95 -58zM440 637c8 17 14 33 19 50c-61 -26 -114 -71 -144 -112
c-12 -15 -20 -29 -24 -41c-3 -6 -4 -12 -3 -14c0 -1 2 0 6 0c28 0 55 13 81 33c25 22 48 51 65 84zM487 866c-14 -4 -28 3 -33 17c-4 13 3 28 17 32l104 35c8 3 17 1 24 -4c7 -6 11 -14 10 -23l-7 -87c-1 -14 -12 -24 -26 -24h-2c-14 1 -25 13 -24 28l4 48z" />
    <glyph glyph-name="Odieresis" unicode="&#xd6;" horiz-adv-x="533" 
d="M656 704c12 -32 12 -73 2 -120c-12 -43 -30 -93 -58 -145c-102 -200 -312 -429 -490 -439c-50 -3 -86 12 -108 40c-26 30 -34 73 -30 125c4 46 19 101 42 157c72 184 229 394 362 440c14 5 28 -3 33 -16c6 -14 -3 -29 -15 -33c-121 -42 -264 -237 -332 -409
c-21 -52 -35 -102 -38 -144c-3 -38 2 -69 17 -87c12 -15 34 -23 66 -22c159 9 351 224 448 411c24 49 43 95 52 134c8 37 9 68 2 89c-7 15 -23 25 -48 25c-15 0 -30 -3 -45 -5c-3 -30 -13 -62 -29 -92c-19 -38 -46 -74 -78 -100c-34 -28 -72 -46 -113 -44
c-28 0 -44 10 -53 30c-7 15 -6 33 2 53c6 17 16 35 30 54c39 51 110 110 190 139c-1 14 -5 25 -12 34c-10 12 -8 28 2 37c11 10 28 7 37 -3c13 -16 20 -35 23 -55c15 3 30 4 46 4c50 0 80 -22 95 -58zM441 637c8 16 15 33 19 50c-60 -27 -113 -71 -143 -112
c-11 -15 -19 -29 -24 -41c-3 -7 -4 -13 -3 -14c0 -1 2 0 6 0c29 0 56 12 80 33c26 22 49 51 65 84zM512 844c-10 0 -19 4 -25 12c-6 7 -10 16 -10 27c0 10 4 20 10 27c6 6 15 12 25 12c9 0 18 -6 24 -12c6 -7 10 -17 10 -27c0 -11 -4 -20 -10 -27c-6 -8 -15 -12 -24 -12z
M574 814l-1 1c-5 7 -8 16 -8 26c0 11 4 20 9 28c6 7 15 12 25 12s18 -5 24 -12c7 -8 10 -17 10 -28s-3 -20 -10 -27c-6 -7 -14 -12 -24 -12s-19 5 -25 12z" />
    <glyph glyph-name="Scaron" unicode="&#x160;" horiz-adv-x="636" 
d="M720 740c30 -16 47 -42 47 -70c1 -98 -148 -120 -311 -128c10 -39 31 -78 52 -117c5 -9 10 -18 16 -29c29 -56 44 -110 44 -160c0 -43 -11 -83 -32 -118c-19 -35 -49 -63 -88 -84c-41 -22 -93 -35 -154 -35c-96 0 -153 38 -181 87c-12 20 -18 44 -19 67s4 46 12 66
c20 50 63 90 119 94c8 0 15 0 22 -1c23 -2 46 -12 62 -28c18 -16 30 -39 32 -67c0 -6 0 -14 -1 -22c-1 -14 -14 -24 -28 -22c-15 1 -24 13 -23 27c0 4 1 10 0 14c-1 14 -6 25 -15 32c-8 8 -19 13 -32 14c-4 0 -8 1 -13 0c-35 -2 -62 -27 -75 -59c-6 -15 -9 -30 -8 -46
c1 -15 5 -31 11 -44c20 -33 63 -60 137 -60c53 0 96 10 130 28c30 17 53 39 69 65c15 27 23 58 23 92c0 42 -12 88 -37 136c-5 8 -10 17 -16 27c-25 47 -50 92 -59 141c-15 -1 -29 -2 -43 -2c-106 -4 -207 -7 -256 -26c-46 -18 -72 -50 -79 -80c-3 -13 -3 -25 -1 -35
c3 -10 7 -18 14 -25c15 -15 41 -21 79 -14c13 3 27 -6 30 -20s-5 -27 -19 -30c-56 -12 -98 2 -125 27c-14 13 -24 31 -29 49c-5 19 -4 40 1 59c11 46 47 92 110 117c57 22 163 26 273 30c14 1 27 1 41 2c1 13 2 27 6 41c12 40 37 75 78 97c35 20 82 32 141 32
c39 0 72 -8 95 -22zM452 594c139 6 264 21 263 76c0 9 -7 19 -20 26c-16 10 -41 16 -70 16c-50 0 -88 -11 -115 -26c-28 -17 -46 -40 -54 -68c-2 -8 -4 -16 -4 -24zM813 860c5 -14 -3 -29 -16 -33l-104 -34c-2 -1 -5 -2 -8 -2c-6 0 -11 2 -16 6c-7 5 -10 14 -10 22l7 88
c1 15 14 26 28 24c15 -1 25 -13 24 -28l-4 -49l67 22c13 5 28 -3 32 -16z" />
    <glyph glyph-name="scaron" unicode="&#x161;" horiz-adv-x="372" 
d="M381 600c-5 0 -11 2 -15 6c-7 5 -10 13 -10 22l7 86c1 14 14 24 27 23c14 -1 25 -13 24 -27l-4 -49l65 22c13 5 28 -3 32 -16s-3 -27 -16 -31l-101 -34c-3 -1 -6 -2 -9 -2zM488 339c11 -9 12 -26 3 -36c-77 -89 -148 -122 -214 -136c-32 -92 -102 -167 -213 -167
c-32 0 -60 11 -78 32c-16 17 -22 40 -18 64c8 56 92 103 196 111h16c19 2 39 3 57 6c3 13 6 27 7 41c3 30 4 61 6 92c1 13 1 27 2 41l-21 -6c-61 -18 -106 -31 -186 -122c-10 -10 -26 -11 -36 -2c-11 10 -12 26 -3 37c90 101 146 118 211 137c13 4 26 7 40 13
c10 72 34 130 110 128c22 0 51 -16 58 -45c6 -25 -2 -63 -77 -101c-16 -8 -30 -15 -43 -21c-2 -18 -3 -38 -4 -62c-2 -31 -3 -63 -6 -94c-1 -9 -2 -17 -4 -25c50 15 103 46 161 112c9 11 26 12 36 3zM366 521c-29 0 -44 -18 -53 -55c4 2 8 3 12 6c43 21 51 38 50 42
c0 3 -6 7 -9 7zM64 51c75 0 125 46 155 108c-13 -1 -25 -2 -35 -3l-17 -1c-92 -7 -146 -47 -149 -67c-1 -9 1 -17 7 -23c8 -9 22 -14 39 -14z" />
    <glyph glyph-name="ccedilla" unicode="&#xe7;" horiz-adv-x="357" 
d="M474 338c11 -9 11 -26 1 -36c-52 -56 -141 -152 -235 -219v-1l-45 -58c28 -1 47 -9 58 -24c6 -9 15 -27 1 -53c-23 -46 -111 -103 -181 -103v0c-14 0 -26 11 -26 25s11 26 26 26c57 0 127 54 136 76c-6 2 -24 6 -66 -1c-11 -1 -21 4 -26 13c-5 10 -4 20 2 29l3 4
c-28 -11 -56 -17 -83 -17c-28 0 -45 12 -53 22c-11 13 -16 31 -16 53c0 134 205 437 352 437c38 0 57 -16 68 -29c14 -19 17 -44 9 -73c-3 -14 -18 -22 -31 -18c-14 4 -22 18 -18 32c4 12 3 23 -1 28c-6 8 -20 9 -27 9c-115 0 -301 -282 -301 -386c0 -9 2 -17 5 -20
c1 -1 3 -4 13 -4c131 0 320 202 399 287c10 11 26 11 36 1z" />
    <glyph glyph-name="oe" unicode="&#x153;" horiz-adv-x="778" 
d="M892 339c11 -10 11 -26 2 -36c-120 -129 -301 -303 -443 -303c-28 0 -44 12 -52 23c-10 13 -16 30 -16 52c0 16 3 34 9 55c-20 -15 -41 -25 -61 -25c-19 0 -37 6 -50 17c-59 -69 -133 -123 -209 -123c-52 0 -76 23 -87 42c-33 54 3 141 38 205c40 69 179 292 337 262l6 3
c17 7 35 1 45 -14c36 -60 -7 -182 -56 -267c-12 -23 -26 -46 -43 -69c6 -4 13 -5 19 -5c36 0 103 91 145 147c72 108 174 206 258 206c40 0 58 -20 64 -32c15 -26 11 -61 -12 -100c-44 -75 -156 -155 -301 -159c-31 -56 -51 -109 -51 -143c0 -10 2 -17 4 -21c1 0 4 -3 13 -3
c91 0 230 99 406 287c9 10 25 10 35 1zM734 459c-65 0 -153 -91 -217 -188c109 13 192 74 226 132c14 24 16 42 12 49c-4 6 -16 7 -21 7zM248 180c-14 74 26 205 71 279c-92 -10 -190 -129 -251 -238c-47 -84 -52 -135 -40 -155c7 -11 21 -16 44 -16c63 0 128 53 180 116
c-2 4 -3 9 -4 14zM296 229c6 9 10 17 15 26c47 83 66 158 62 196c-28 -38 -73 -144 -77 -222z" />
    <glyph glyph-name="asciitilde" unicode="~" horiz-adv-x="657" 
d="M603 326c6 -10 2 -24 -8 -31c-120 -66 -170 -30 -218 5c-36 25 -70 50 -153 -4c-10 -6 -25 -3 -31 7c-7 10 -4 25 6 32c110 70 156 37 204 2c37 -27 75 -55 170 -2c11 6 24 2 30 -9z" />
    <glyph glyph-name="bar" unicode="|" horiz-adv-x="460" 
d="M270 814c15 0 27 -12 27 -26v-802c0 -14 -12 -25 -27 -25c-14 0 -26 11 -26 25v802c0 14 12 26 26 26z" />
    <glyph glyph-name="underscore" unicode="_" horiz-adv-x="551" 
d="M420 0c14 0 26 -12 26 -26c0 -13 -12 -24 -24 -24h-167h-55h-151c-12 0 -24 10 -24 24s12 25 24 26h163h62h146z" />
    <glyph glyph-name="Ucircumflex" unicode="&#xdb;" horiz-adv-x="592" 
d="M780 703c-20 -39 -101 -152 -201 -276c-80 -150 -154 -312 -163 -370c30 18 83 67 227 248c10 13 18 24 24 31c9 11 26 13 37 4c11 -10 13 -26 4 -37c-6 -7 -14 -17 -24 -30c-166 -210 -232 -272 -279 -274h-2c-19 0 -37 12 -39 42c-2 32 29 118 75 219
c-124 -141 -249 -260 -307 -261h-1c-40 0 -58 17 -67 32c-31 54 26 152 120 310c78 129 176 291 144 349c-10 17 -34 25 -71 25c-77 0 -198 -35 -224 -101c-8 -19 -9 -38 -2 -54c14 -32 58 -57 141 -29c13 4 28 -3 33 -17c4 -13 -3 -28 -17 -33c-116 -39 -183 8 -205 59
c-12 30 -11 63 2 94c36 91 181 133 272 133c58 0 97 -17 116 -51c48 -84 -45 -239 -144 -402c-58 -96 -137 -227 -119 -258c2 -3 9 -6 22 -5c56 1 246 208 399 396c88 166 186 317 230 320c10 1 21 -5 27 -13c10 -16 2 -34 -8 -51zM489 820c-14 -5 -29 3 -34 16
c-4 14 3 29 17 33l103 35c9 2 18 1 25 -5c6 -5 10 -13 10 -22l-6 -87c-1 -14 -13 -25 -26 -25h-2c-15 1 -25 14 -24 28l3 49z" />
    <glyph glyph-name="Udieresis" unicode="&#xdc;" horiz-adv-x="595" 
d="M784 706c-21 -39 -103 -153 -203 -278c-81 -150 -155 -313 -162 -371c29 19 81 65 226 248c10 13 18 24 24 31c9 11 25 12 37 3c11 -9 12 -25 3 -37c-5 -7 -14 -17 -23 -29c-167 -211 -232 -272 -279 -274h-2c-18 0 -38 13 -39 42c-2 34 29 119 75 220
c-125 -141 -249 -261 -307 -262c-42 1 -60 17 -68 32c-32 55 25 154 120 312c78 130 176 292 143 350c-9 17 -33 25 -70 25c-77 0 -199 -35 -226 -102c-7 -18 -8 -38 -1 -53c13 -32 57 -58 141 -30c14 5 29 -3 33 -16c5 -14 -2 -29 -16 -33c-111 -38 -184 3 -207 59
c-11 28 -11 62 1 92c39 94 184 136 275 136c58 0 97 -18 116 -52c47 -85 -46 -239 -144 -403c-58 -96 -138 -228 -120 -259c2 -3 10 -5 21 -5h1c57 1 247 208 400 397c88 166 187 319 231 322c11 0 22 -5 27 -13c10 -16 2 -34 -7 -52zM542 780l-1 2c-6 7 -9 16 -9 26
s4 21 10 27c6 7 15 12 25 12c9 0 18 -5 24 -12c6 -6 10 -17 10 -27c0 -11 -4 -20 -10 -28c-6 -7 -15 -11 -24 -11c-10 0 -19 4 -25 11zM479 810c-10 0 -19 6 -25 12c-6 7 -10 17 -10 28c0 10 4 20 10 27c6 8 15 12 25 12s19 -4 25 -12c5 -7 9 -17 9 -27c0 -11 -4 -21 -9 -28
c-6 -6 -15 -12 -25 -12z" />
    <glyph glyph-name="asciicircum" unicode="^" horiz-adv-x="502" 
d="M429 319c-12 -8 -29 -4 -37 9l-72 111l-91 -114c-9 -11 -26 -13 -37 -4c-12 9 -13 27 -5 37l114 143v0c9 12 25 14 38 5c3 -3 5 -7 7 -10l90 -139c8 -12 5 -29 -7 -38z" />
    <glyph glyph-name="equal" unicode="=" horiz-adv-x="486" 
d="M433 432c14 0 26 -11 26 -25c0 -13 -12 -24 -24 -24h-140h-54h-151c-13 0 -24 10 -24 24s11 24 24 25h163h62h118zM433 308c14 0 26 -11 26 -25c0 -13 -12 -24 -24 -24h-140h-54h-151c-13 0 -24 10 -24 24s11 24 24 25h163h62h118z" />
    <glyph glyph-name="plusminus" unicode="&#xb1;" horiz-adv-x="608" 
d="M512 394c14 0 26 -11 26 -25c0 -13 -12 -24 -24 -24h-204c-25 -68 -37 -136 -36 -138c-3 -14 -16 -22 -29 -20c-13 3 -23 16 -20 29c7 40 3 11 22 96c2 3 6 26 9 33h-151c-13 0 -24 10 -24 24s11 24 24 25h163c7 30 15 59 25 87c24 86 31 96 58 111c17 9 29 6 37 -10
c10 -21 -4 -55 -39 -143c-7 -15 -13 -30 -19 -45h182zM394 155c14 0 26 -12 26 -26c0 -13 -12 -24 -24 -24h-106h-54h-151c-13 0 -24 10 -24 24s11 25 24 26h163h62h84z" />
    <glyph glyph-name="Ydieresis" unicode="&#x178;" horiz-adv-x="643" 
d="M573 430c-52 -107 -101 -219 -132 -292c-12 -24 -22 -48 -31 -69c3 1 6 2 8 4c102 46 144 92 268 229l31 35c10 10 27 12 37 1c11 -9 11 -25 2 -37l-32 -34c-125 -139 -172 -191 -285 -241c-10 -5 -26 -12 -46 -19c-4 -2 -9 -4 -14 -6c-13 -30 -25 -53 -34 -70
c-73 -129 -150 -201 -244 -201c-47 0 -83 29 -90 62c-18 92 154 176 329 249c16 34 34 75 52 118c18 40 36 80 53 117c-129 -148 -260 -276 -321 -277c-40 0 -58 17 -67 31c-30 54 25 152 120 308c74 122 174 290 141 346c-9 17 -32 25 -69 25c-75 0 -197 -35 -222 -101
c-8 -17 -8 -37 -2 -52c13 -31 56 -58 139 -29c13 4 28 -3 32 -17c5 -14 -2 -28 -16 -33c-108 -36 -181 3 -203 59c-11 28 -11 61 1 92c36 91 181 133 271 133c57 0 96 -17 115 -51c47 -83 -46 -237 -143 -399c-57 -95 -136 -225 -119 -255c3 -4 12 -5 22 -6
c57 1 248 210 400 398c100 208 167 309 225 313c10 1 21 -5 26 -12c11 -16 3 -34 -6 -52c-20 -37 -99 -146 -196 -267zM300 -44c2 4 4 9 7 14c-170 -74 -252 -131 -244 -168c1 -5 16 -21 38 -21c74 0 135 62 199 175zM467 801c-10 0 -18 4 -24 11c-7 7 -12 17 -12 27
c0 11 5 21 12 27c6 7 14 12 24 12s17 -5 24 -12c6 -6 10 -16 10 -27c0 -10 -4 -20 -10 -27c-7 -7 -14 -11 -24 -11zM529 771h-1c-6 7 -10 17 -10 27s4 19 11 26v1c5 7 16 11 25 11s17 -4 24 -11c6 -8 10 -17 10 -27c0 -11 -4 -20 -10 -27c-7 -7 -15 -12 -24 -12
s-20 5 -25 12z" />
    <glyph glyph-name="plus" unicode="+" horiz-adv-x="563" 
d="M498 394c14 0 25 -11 25 -25c0 -13 -11 -24 -24 -24h-203c-26 -68 -46 -189 -45 -190c-3 -14 -16 -22 -30 -21c-13 3 -23 17 -20 30c8 40 12 63 32 148c1 3 5 26 8 33h-151c-12 0 -24 10 -24 24s12 24 24 25h163c8 30 16 59 25 87c25 86 34 111 61 126c17 8 30 5 38 -10
c10 -21 -8 -70 -43 -158c-6 -15 -13 -30 -19 -45h183z" />
    <glyph glyph-name="oslash" unicode="&#xf8;" horiz-adv-x="425" 
d="M535 340c11 -7 13 -24 5 -35l-17 -23c-73 -101 -133 -177 -192 -177c-20 0 -37 6 -50 16c-59 -69 -132 -122 -209 -122h-7l-34 -55c-5 -8 -13 -12 -22 -12c-4 0 -9 1 -13 4c-12 7 -16 23 -8 35l26 41c-14 9 -23 19 -29 28c-31 55 4 141 39 205c36 64 157 256 299 264
l33 54c8 12 23 16 35 8c12 -7 15 -23 8 -34l-15 -25c10 -1 20 -7 26 -17c36 -58 -6 -179 -54 -264c-13 -24 -27 -48 -44 -70c5 -4 12 -5 19 -5c37 0 111 101 151 155l17 24c8 12 24 14 36 5zM29 66c3 -4 6 -7 12 -10l245 393c-81 -30 -164 -134 -217 -229
c-47 -83 -51 -134 -40 -154zM248 180c-6 35 -1 84 12 132l-162 -259c55 11 110 58 154 112c-2 5 -3 10 -4 15zM373 450c-29 -38 -73 -145 -77 -222c6 9 11 18 16 27c46 83 65 157 61 195z" />
    <glyph glyph-name="Z" unicode="Z" 
d="M717 731c7 -10 10 -23 9 -35c0 -10 -4 -21 -11 -32c-17 -23 -53 -44 -106 -47c-30 -2 -58 0 -86 5c-53 -51 -116 -119 -178 -186c31 7 59 9 83 5c18 -3 34 -8 47 -16c29 -18 46 -46 48 -81c2 -31 -5 -68 -22 -109c-10 -21 -22 -44 -36 -66c62 40 124 94 183 166
c9 12 25 14 37 4c11 -9 13 -25 4 -37c-95 -117 -197 -188 -296 -235c-10 -13 -19 -25 -30 -37c-79 -90 -157 -154 -229 -196c-88 -51 -168 -72 -233 -72c-34 0 -61 9 -78 24c-13 11 -21 27 -23 44c-2 15 2 32 11 49c16 30 52 63 110 89c55 25 118 41 187 59
c79 21 166 43 253 84c41 51 72 101 91 145c13 33 20 61 19 84c-1 18 -9 31 -23 39c-8 5 -17 8 -29 10c-38 6 -94 -9 -148 -36c-5 -4 -8 -9 -12 -13c-98 -109 -178 -197 -208 -189c-18 6 -26 21 -17 47c17 61 84 126 160 173c14 9 29 17 45 25c71 80 150 169 223 238
c-36 10 -72 23 -105 35c-60 20 -114 39 -159 39c-33 0 -53 -11 -62 -23c-4 -6 -7 -11 -8 -16c0 -6 0 -11 2 -16c5 -10 15 -19 28 -21c16 -3 25 -18 22 -31c-4 -14 -17 -25 -32 -21c-33 7 -56 28 -67 52c-4 15 -7 29 -4 43c1 15 6 29 15 41c19 26 54 45 106 45
c55 0 113 -20 176 -43c43 -14 89 -30 135 -40c57 50 106 84 137 84c35 0 59 -13 71 -31zM107 -121c55 33 115 79 176 143c-56 -19 -111 -33 -162 -46c-67 -17 -126 -32 -177 -56c-48 -21 -75 -45 -87 -66c-3 -7 -5 -13 -4 -18c0 -4 2 -7 5 -10c8 -7 23 -11 43 -11
c57 0 128 19 206 64zM671 694c2 2 2 4 3 5l-1 1c-3 6 -11 8 -27 8c-15 0 -39 -14 -69 -39c9 0 19 0 29 1c36 2 56 13 65 24z" />
    <glyph glyph-name="s" unicode="s" horiz-adv-x="375" 
d="M488 339c11 -9 12 -26 3 -36c-77 -89 -148 -122 -214 -136c-32 -92 -102 -167 -213 -167c-32 0 -60 11 -78 32c-16 17 -22 40 -18 64c8 56 92 103 196 111h16c19 2 39 3 57 6c3 13 6 27 7 41c3 30 4 61 6 92c1 13 1 27 2 41l-21 -6c-61 -18 -106 -31 -186 -122
c-10 -10 -26 -11 -36 -2c-11 10 -12 26 -3 37c90 101 146 118 211 137c13 4 26 7 40 13c10 72 34 130 110 128c22 0 51 -16 58 -45c6 -25 -2 -63 -77 -101c-16 -8 -30 -15 -43 -21c-2 -18 -3 -38 -4 -62c-2 -31 -3 -63 -6 -94c-1 -9 -2 -17 -4 -25c50 15 103 46 161 112
c9 11 26 12 36 3zM366 521c-29 0 -44 -18 -53 -55c4 2 8 3 12 6c43 21 51 38 50 42c0 3 -6 7 -9 7zM64 51c75 0 125 46 155 108c-13 -1 -25 -2 -35 -3l-17 -1c-92 -7 -146 -47 -149 -67c-1 -9 1 -17 7 -23c8 -9 22 -14 39 -14z" />
    <glyph glyph-name="Agrave" unicode="&#xc0;" horiz-adv-x="665" 
d="M744 335c8 12 25 14 36 5s13 -26 4 -36l-17 -23c-166 -212 -239 -281 -287 -281c-24 0 -36 13 -40 21c-20 33 -1 90 57 202c-23 10 -47 21 -71 31c-37 17 -74 34 -110 45c-123 -181 -210 -300 -283 -300c-24 0 -43 11 -55 29c-33 55 24 169 40 199
c74 143 175 158 276 132c136 201 277 402 411 402c30 0 45 -15 53 -27c35 -59 -32 -192 -147 -405c-51 -95 -127 -236 -127 -276c22 7 72 43 242 260zM33 51c47 0 145 138 230 263c-14 2 -28 4 -40 4c-61 0 -115 -29 -159 -114c-35 -67 -52 -132 -42 -150c1 -1 3 -3 11 -3z
M447 302c26 -12 50 -23 74 -32c13 26 28 53 44 84c64 118 170 316 148 353c-1 2 -7 2 -8 2c-105 0 -243 -195 -359 -365c35 -13 69 -28 101 -42zM806 793c10 -11 10 -27 0 -37c-5 -5 -11 -8 -18 -8s-13 3 -18 8l-77 77c-10 11 -10 27 0 37c11 10 27 10 37 0z" />
    <glyph glyph-name="grave" unicode="`" horiz-adv-x="246" 
d="M169 711v1c-17 26 -13 49 10 51c21 3 52 -16 68 -42c15 -23 13 -45 -2 -50c9 -14 16 -25 23 -34c5 -10 2 -21 -7 -28c-8 -6 -21 -3 -28 7c-7 11 -17 26 -28 42c-9 14 -21 32 -35 52c0 0 0 1 -1 1z" />
    <glyph glyph-name="ae" unicode="&#xe6;" horiz-adv-x="815" 
d="M925 338c10 -9 10 -25 1 -36c-121 -129 -300 -302 -442 -302c-29 0 -44 12 -53 22c-10 14 -15 31 -15 53c0 12 2 26 5 40c-60 -71 -109 -116 -153 -114c-11 0 -45 6 -45 59c1 14 5 35 12 60c-67 -68 -135 -119 -191 -120h-3c-25 0 -45 10 -56 29c-35 58 25 175 52 224
c73 128 191 258 289 258c32 0 59 -13 76 -37c18 23 34 37 47 37c16 0 28 -12 29 -29c0 -29 -66 -146 -153 -258c-32 -76 -56 -147 -51 -172c42 7 131 123 185 194c25 33 49 64 69 87c1 0 1 0 1 1c71 97 162 177 238 177c41 0 59 -20 66 -32c14 -26 10 -62 -13 -100
c-44 -76 -157 -157 -302 -160c-31 -57 -51 -110 -51 -144c0 -9 1 -17 4 -20c1 -1 3 -4 13 -4c91 0 229 98 405 286c9 10 25 11 36 1zM767 460c-65 0 -153 -90 -217 -188c109 13 192 75 226 133c14 24 16 41 12 48c-3 7 -16 7 -21 7zM42 51c63 2 162 103 244 208
c25 59 55 119 82 165c0 6 -2 12 -5 17c-8 13 -20 19 -37 19c-64 0 -170 -100 -245 -233c-55 -98 -61 -156 -52 -172c1 -1 3 -4 13 -4z" />
    <glyph glyph-name="Oslash" unicode="&#xd8;" horiz-adv-x="535" 
d="M653 702c13 -32 12 -73 1 -119c-11 -43 -30 -93 -56 -145c-102 -199 -312 -428 -490 -438c-9 0 -18 0 -26 1l-53 -84c-5 -8 -13 -12 -22 -12c-4 0 -9 1 -14 4c-11 8 -15 23 -8 36l45 71c-11 7 -22 14 -29 24c-26 30 -34 74 -30 124c4 47 19 101 41 158
c73 182 229 392 361 438c14 4 29 -3 34 -16c5 -14 -3 -28 -16 -34c-120 -41 -263 -235 -331 -407c-20 -52 -34 -101 -37 -143c-3 -39 2 -69 17 -88c4 -5 10 -9 17 -12l382 613c-28 -17 -51 -38 -67 -60c-9 -12 -26 -14 -37 -6c-11 9 -13 24 -5 36c25 33 59 64 102 85
c17 9 35 16 54 21l73 117c7 12 23 16 35 8c13 -7 16 -23 9 -35l-50 -80c1 0 3 1 5 1c49 0 80 -22 95 -58zM551 462c25 47 43 93 52 133c9 36 10 67 2 87c-6 16 -22 26 -47 26c-14 0 -27 -2 -39 -4l-406 -652c158 16 345 226 438 410z" />
    <glyph glyph-name="multiply" unicode="&#xd7;" horiz-adv-x="511" 
d="M437 472c15 -6 19 -17 14 -31c-6 -19 -73 -53 -134 -86c-13 -6 -23 -13 -34 -18l95 -119c8 -10 6 -23 -3 -31c-10 -8 -24 -6 -32 2l-101 127c-5 -4 -10 -7 -14 -8c-56 -44 -109 -87 -133 -109c-9 -9 -24 -7 -31 3c-9 9 -8 23 1 31c24 21 73 61 127 102c1 1 1 2 2 3
c3 2 6 4 10 7c3 2 6 5 10 7l-79 97c-7 10 -6 24 3 31c10 9 24 7 32 -2l80 -99c17 13 34 24 50 35c59 40 112 67 137 58z" />
    <glyph glyph-name="dollar" unicode="$" horiz-adv-x="585" 
d="M544 678c4 -2 7 -4 9 -8c20 -22 32 -51 32 -81c0 -7 0 -13 -2 -20c-1 -12 -14 -20 -27 -18c-11 2 -20 14 -18 26c0 4 1 9 1 12c0 19 -7 37 -19 50c-1 1 -2 1 -2 2c-32 -48 -69 -102 -104 -150c-20 -30 -40 -58 -57 -83c2 -6 5 -12 8 -18h2c25 -50 39 -99 39 -145
c0 -38 -10 -74 -28 -103c-18 -33 -44 -57 -79 -76c-37 -19 -83 -31 -137 -31c-6 0 -12 0 -19 1c-22 -44 -41 -82 -50 -103c-7 -11 -20 -15 -32 -10c-12 4 -16 19 -10 30c9 20 25 51 46 91c-40 11 -67 32 -81 59c-10 19 -15 39 -15 59c0 21 5 42 13 62c22 50 68 91 123 95
c13 2 23 -8 23 -21c2 -12 -7 -23 -19 -24c-37 -2 -68 -33 -84 -68c-6 -14 -10 -29 -10 -44c0 -13 4 -24 10 -35v-2v0v0v0c10 -19 29 -33 61 -40c48 92 115 214 180 332c-30 58 -55 116 -36 183c11 35 32 67 69 87c31 18 72 28 125 28c7 0 15 -1 20 -1h1
c47 66 83 109 105 111c18 2 27 -5 30 -20c1 -16 -27 -64 -68 -127zM306 587c-12 -40 2 -82 21 -122c21 36 41 73 62 107c20 34 40 67 60 97c-40 -1 -71 -9 -94 -22c-25 -15 -41 -36 -49 -60zM338 164c15 24 22 51 22 81c0 37 -10 79 -33 120c-15 -24 -29 -42 -34 -52
c0 -2 -2 -3 -2 -4c-46 -81 -88 -161 -124 -228c44 1 83 10 111 24c26 17 47 36 60 59z" />
    <glyph glyph-name="percent" unicode="%" horiz-adv-x="427" 
d="M354 468c-45 -61 -88 -118 -107 -148c-61 -112 -117 -221 -143 -275c-5 -11 -19 -17 -30 -11c-12 6 -17 20 -11 31c41 85 155 308 254 468c63 104 123 184 158 188c17 2 26 -5 29 -23c3 -25 -77 -131 -150 -230zM173 482c-11 5 -20 14 -27 24c-5 10 -7 21 -7 34
s4 29 10 46c10 24 26 45 43 61c19 17 41 28 62 28c7 0 14 -1 20 -3c4 -1 6 -3 8 -6c8 -4 14 -10 19 -18c4 -10 7 -21 7 -34c0 -14 -3 -29 -10 -46c-10 -23 -25 -45 -43 -61c-19 -17 -41 -28 -62 -28c-7 0 -15 1 -20 3zM192 568c-5 -10 -6 -20 -6 -28c0 -5 0 -9 1 -12
c2 -2 2 -3 4 -3c0 0 1 -1 2 -1c8 0 20 7 31 18c13 10 25 26 31 44c4 10 7 20 7 28c0 5 -1 9 -3 12c0 2 -1 3 -2 3h-3c-9 0 -20 -6 -31 -16c-13 -11 -24 -27 -31 -45zM341 268c7 -6 13 -11 18 -19c6 -10 8 -21 8 -34s-3 -29 -11 -46c-9 -23 -25 -46 -43 -61
c-19 -18 -40 -28 -61 -28c-8 0 -14 1 -21 3c-11 5 -20 13 -25 24c-6 10 -8 21 -8 34s2 29 10 46c10 24 25 46 43 62c19 17 41 28 61 28c8 0 15 -2 21 -5c2 0 6 -2 8 -4zM313 187c5 11 8 20 8 28c0 6 -1 9 -3 12c-1 2 -1 3 -3 3c0 1 -2 1 -3 1c-8 0 -20 -7 -31 -17
c-12 -12 -23 -27 -30 -45c-5 -10 -7 -20 -7 -28c0 -5 0 -9 2 -13c1 0 3 -1 3 -1h3c9 0 20 5 31 15c13 12 24 27 30 45z" />
    <glyph glyph-name="exclam" unicode="!" horiz-adv-x="327" 
d="M549 738c3 -28 -84 -146 -167 -256c-53 -72 -105 -141 -122 -171c-65 -121 -53 -93 -81 -152c-5 -13 -21 -18 -34 -12c-13 7 -17 22 -12 34c28 58 13 27 79 148h1c1 3 2 6 4 9c42 75 84 150 124 217c71 116 137 203 176 207c19 3 30 -5 32 -24zM66 -1
c-21 0 -28 24 -15 51c13 29 40 53 62 53c21 0 27 -24 15 -53c-14 -27 -40 -51 -62 -51z" />
    <glyph glyph-name="exclamdown" unicode="&#xa1;" horiz-adv-x="380" 
d="M51 24c-4 28 83 146 166 256c54 72 105 141 122 171c66 121 53 93 81 152c6 13 21 18 34 12c13 -7 18 -22 12 -34c-28 -58 -13 -27 -79 -148v0c-1 -3 -3 -6 -4 -9c-42 -75 -85 -150 -124 -217c-72 -116 -137 -203 -176 -207c-20 -3 -30 5 -32 24zM534 763
c20 0 27 -24 15 -51c-14 -29 -40 -53 -62 -53c-21 0 -28 24 -16 53c14 27 41 51 63 51z" />
    <glyph glyph-name="bracketleft" unicode="[" horiz-adv-x="445" 
d="M634 834c13 0 23 -10 23 -23s-10 -24 -23 -24h-126l-445 -815h101c12 0 23 -10 23 -23s-11 -24 -23 -24h-140c-8 0 -16 5 -20 12c-5 7 -5 16 -1 23l471 862c4 7 12 12 20 12h140z" />
    <glyph glyph-name="bracketright" unicode="]" horiz-adv-x="468" 
d="M163 -75h-139c-13 0 -24 11 -24 24s11 23 24 23h125l446 816h-101c-13 0 -24 10 -24 23s11 23 24 23h140c8 0 16 -5 20 -11c4 -7 4 -16 0 -23l-470 -863c-5 -7 -12 -12 -21 -12z" />
    <glyph glyph-name="cent" unicode="&#xa2;" horiz-adv-x="634" 
d="M662 694c14 -39 -2 -80 -40 -108c-11 -7 -28 -5 -37 6c-8 12 -5 29 8 37c18 13 25 31 20 47c-3 11 -15 21 -34 26c-41 -61 -90 -133 -138 -199c-63 -91 -121 -174 -135 -200c-1 -2 -2 -3 -3 -4c-49 -86 -93 -170 -131 -241c17 -3 36 -5 57 -5c77 0 166 45 226 116
c11 10 26 12 37 4c10 -11 12 -27 3 -38c-68 -81 -175 -136 -266 -136c-34 0 -59 6 -81 12c-33 -60 -56 -110 -71 -137c-6 -13 -22 -18 -33 -11c-14 6 -18 21 -13 34c15 27 38 76 70 135c-26 14 -40 34 -50 50c-44 79 -17 207 73 351c89 142 247 297 390 321
c51 75 95 125 118 127c20 3 29 -5 32 -24c2 -13 -21 -55 -54 -110c27 -12 45 -33 52 -53zM96 108c8 -12 16 -23 28 -30c81 150 191 354 289 518c19 32 38 63 57 91c-111 -45 -227 -165 -302 -282c-78 -124 -104 -237 -72 -297z" />
    <glyph glyph-name="parenleft" unicode="(" horiz-adv-x="388" 
d="M595 872c14 -2 23 -14 22 -28c-2 -14 -15 -23 -29 -22c-34 5 -81 -18 -134 -59c-89 -69 -187 -184 -267 -311c-81 -126 -143 -264 -158 -373c-9 -62 -2 -114 26 -148c8 -11 6 -27 -5 -35c-10 -9 -26 -7 -35 5c-36 46 -45 110 -35 184c16 117 81 261 165 393
c83 131 186 253 278 324c64 49 124 76 172 70z" />
    <glyph glyph-name="parenright" unicode=")" horiz-adv-x="525" 
d="M-85 -106c-15 2 -24 14 -23 28c3 13 15 23 29 21c34 -5 81 18 135 60c89 68 187 184 266 310c82 127 143 264 158 374c9 61 2 113 -25 148c-9 10 -6 26 5 35c10 8 26 7 35 -5c36 -46 45 -111 35 -185c-17 -117 -81 -261 -165 -393c-83 -131 -186 -252 -279 -324
c-63 -48 -123 -76 -171 -69z" />
    <glyph glyph-name="sterling" unicode="&#xa3;" horiz-adv-x="800" 
d="M740 583c41 27 47 70 40 98c-3 9 -13 30 -39 30c-72 0 -163 -160 -248 -312c-3 -8 -6 -14 -11 -21h120c17 0 27 -13 27 -27c0 -15 -10 -26 -27 -26h-149c-63 -107 -125 -208 -193 -271c30 -19 59 -36 89 -55c106 -67 214 -134 277 -143c51 -7 85 4 95 28c7 17 0 37 -8 43
c-12 10 -15 26 -6 39c9 10 26 13 36 4c32 -24 43 -68 27 -106c-9 -21 -34 -63 -114 -63c-11 0 -23 1 -36 3c-76 11 -185 79 -297 149c-38 23 -74 46 -108 66c-36 -22 -73 -34 -114 -32c-64 8 -107 31 -120 66c-8 21 -3 45 13 60c26 27 68 30 117 17c29 -12 63 -29 100 -48
c64 51 123 145 179 243h-128c-15 0 -25 11 -25 26c0 14 10 27 25 27h159c10 15 18 31 27 45c100 184 187 341 293 341c41 0 75 -26 88 -67c15 -46 4 -113 -58 -157c-11 -10 -29 -5 -35 5c-10 11 -8 29 4 38zM106 42c19 -3 36 2 53 7c-24 13 -46 23 -63 29c-15 5 -29 8 -37 8
c-14 0 -24 -5 -27 -8c-2 -4 -2 -5 -1 -6c2 -9 23 -27 75 -30z" />
    <glyph glyph-name="asterisk" unicode="*" horiz-adv-x="416" 
d="M370 592c6 0 12 -6 12 -13c0 -6 -6 -12 -12 -12h-93c0 -2 1 -4 2 -6c17 -38 35 -73 45 -91c3 -5 1 -12 -5 -16c-6 -3 -13 -1 -16 5c-9 16 -25 46 -41 80c-10 -38 -17 -74 -20 -92c-1 -7 -7 -11 -14 -10s-11 8 -10 14c3 18 10 52 19 89c-31 -34 -58 -64 -72 -81
c-4 -5 -12 -5 -17 -1c-5 5 -6 12 -1 17c15 18 46 53 80 91v0l1 1h-59c-6 0 -12 5 -12 12s6 12 12 13h69c-4 8 -7 16 -10 24c-15 38 -23 71 -13 83c6 8 12 8 19 3c9 -6 17 -38 26 -72c0 2 0 3 1 4c13 42 27 77 40 84c8 4 14 3 18 -5c5 -8 -6 -39 -20 -72c34 33 64 58 77 59
c9 1 14 -3 15 -12c1 -11 -43 -48 -84 -84l-15 -12h78z" />
    <glyph glyph-name="degree" unicode="&#xb0;" horiz-adv-x="331" 
d="M126 461c-12 4 -21 13 -27 24c-6 10 -8 22 -8 35c0 14 4 30 11 47c9 24 26 46 44 63c19 17 42 28 63 28c8 0 15 -1 21 -3c3 -1 6 -3 8 -5c8 -5 14 -12 19 -19c4 -10 7 -22 7 -35c0 -14 -3 -30 -10 -47c-10 -24 -26 -47 -44 -63c-20 -18 -42 -29 -64 -29c-7 0 -14 1 -20 4
zM146 549c-5 -11 -7 -21 -7 -29c0 -6 0 -10 2 -13c1 -1 2 -2 3 -2l2 -1c9 0 21 6 33 17s24 28 31 46c5 10 7 20 7 29c0 5 0 9 -2 12c-1 2 -2 3 -3 3h-3c-9 0 -20 -6 -32 -16c-13 -12 -24 -28 -31 -46z" />
    <glyph glyph-name="copyright" unicode="&#xa9;" horiz-adv-x="717" 
d="M528 259c8 9 21 10 29 2c9 -8 9 -21 2 -30l-20 -22c-51 -57 -107 -113 -170 -113c-50 0 -73 22 -83 40c-19 36 -9 92 31 156c18 28 41 57 67 81c-6 8 -10 18 -11 27c-2 12 6 22 18 23c12 2 21 -7 23 -18c0 -2 0 -4 2 -6c27 19 55 31 82 32c25 2 46 -7 57 -25
c8 -14 8 -32 -1 -47c-13 -22 -42 -33 -77 -31c-21 1 -43 8 -62 18c-22 -21 -45 -47 -63 -76c-30 -48 -42 -93 -30 -114c7 -12 23 -18 47 -18c42 0 84 37 139 99zM500 390c-13 0 -29 -7 -46 -16c8 -3 17 -4 25 -5c24 -1 36 5 39 11c2 2 2 3 1 5s-6 6 -19 5zM641 435
c24 -33 39 -76 39 -123c0 -19 -3 -40 -8 -61c-17 -69 -61 -132 -117 -177c-57 -45 -126 -73 -196 -73c-20 0 -39 2 -57 7c-45 11 -82 35 -107 68c-26 34 -40 76 -40 123c0 20 3 41 7 62c18 69 61 132 118 177s126 73 196 73c20 0 39 -2 56 -6c46 -12 82 -36 109 -70z
M529 106c50 40 88 95 102 155c5 17 8 36 8 51c0 38 -12 72 -32 98c-19 27 -49 46 -84 54c-15 4 -31 6 -47 6c-60 0 -121 -25 -170 -64c-50 -40 -88 -95 -103 -155c-4 -18 -7 -35 -7 -52c0 -38 11 -71 32 -97c19 -27 49 -46 84 -54c15 -4 31 -6 47 -6c60 0 121 25 170 64z
" />
    <glyph glyph-name="braceleft" unicode="{" horiz-adv-x="437" 
d="M617 848c13 -3 20 -16 16 -29c-3 -13 -16 -20 -29 -17c-72 19 -123 -82 -176 -189c-49 -96 -100 -196 -177 -237c41 -61 -3 -159 -46 -250c-25 -54 -50 -106 -50 -137c0 -17 11 -26 39 -26c14 0 25 -11 25 -24s-11 -24 -25 -24c-63 0 -87 28 -87 74c0 42 28 98 55 158
c39 83 80 171 45 207c0 1 -1 2 -1 2c-5 -2 -10 -3 -14 -4c-12 -3 -22 -4 -31 -2c-14 3 -24 10 -28 24c-2 4 -3 8 -3 13c0 3 1 4 1 6v0c0 1 0 1 1 2v2c2 5 4 10 7 13c8 11 20 17 33 17c10 0 21 -3 31 -9c4 -2 8 -5 11 -7c4 1 9 4 14 5c64 33 112 128 157 218
c63 126 122 243 232 214z" />
    <glyph glyph-name="braceright" unicode="}" horiz-adv-x="512" 
d="M50 -79c-12 3 -19 16 -16 29s16 20 29 17c72 -19 123 82 177 189c48 96 99 196 176 237c-41 61 4 159 47 250c25 54 49 106 49 137c0 17 -10 26 -39 26c-14 0 -24 11 -24 24s10 24 24 24c64 0 87 -28 87 -74c0 -42 -27 -98 -55 -158c-38 -83 -80 -171 -45 -207
c1 -1 1 -2 2 -2c5 2 9 3 14 4c11 3 22 4 30 2c14 -3 25 -10 29 -24c2 -4 2 -8 2 -13c0 -3 0 -4 -1 -6h1c-1 -1 -1 -1 -1 -2s-1 -1 -1 -2c-2 -5 -4 -10 -7 -13c-8 -11 -19 -17 -32 -17c-10 0 -22 3 -32 9c-3 2 -7 5 -11 7c-4 -1 -8 -4 -13 -5c-64 -33 -112 -128 -158 -218
c-63 -126 -122 -243 -232 -214z" />
    <glyph glyph-name="Zcaron" unicode="&#x17d;" horiz-adv-x="620" 
d="M761 731c7 -10 10 -23 9 -35c0 -10 -4 -21 -11 -32c-17 -23 -53 -44 -106 -47c-30 -2 -58 0 -86 5c-53 -51 -116 -119 -178 -186c31 7 59 9 83 5c18 -3 34 -8 47 -16c29 -18 46 -46 48 -81c2 -31 -5 -68 -22 -109c-10 -21 -22 -44 -36 -66c62 40 124 94 183 166
c9 12 25 14 37 4c11 -9 13 -25 4 -37c-95 -117 -197 -188 -296 -235c-10 -13 -19 -25 -30 -37c-79 -90 -157 -154 -229 -196c-88 -51 -168 -72 -233 -72c-34 0 -61 9 -78 24c-13 11 -21 27 -23 44c-2 15 2 32 11 49c16 30 52 63 110 89c55 25 118 41 187 59
c79 21 166 43 253 84c41 51 72 101 91 145c13 33 20 61 19 84c-1 18 -9 31 -23 39c-8 5 -17 8 -29 10c-38 6 -94 -9 -148 -36c-5 -4 -8 -9 -12 -13c-98 -109 -178 -197 -208 -189c-18 6 -26 21 -17 47c17 61 84 126 160 173c14 9 29 17 45 25c71 80 150 169 223 238
c-36 10 -72 23 -105 35c-60 20 -114 39 -159 39c-33 0 -53 -11 -62 -23c-4 -6 -7 -11 -8 -16c0 -6 0 -11 2 -16c5 -10 15 -19 28 -21c16 -3 25 -18 22 -31c-4 -14 -17 -25 -32 -21c-33 7 -56 28 -67 52c-4 15 -7 29 -4 43c1 15 6 29 15 41c19 26 54 45 106 45
c55 0 113 -20 176 -43c43 -14 89 -30 135 -40c57 50 106 84 137 84c35 0 59 -13 71 -31zM151 -121c55 33 115 79 176 143c-56 -19 -111 -33 -162 -46c-67 -17 -126 -32 -177 -56c-48 -21 -75 -45 -87 -66c-3 -7 -5 -13 -4 -18c0 -4 2 -7 5 -10c8 -7 23 -11 43 -11
c57 0 128 19 206 64zM715 694c2 2 2 4 3 5l-1 1c-3 6 -11 8 -27 8c-15 0 -39 -14 -69 -39c9 0 19 0 29 1c36 2 56 13 65 24zM471 760c-5 0 -11 2 -15 5c-7 6 -10 14 -10 22l7 86c1 14 14 25 27 24c14 -2 25 -14 24 -27l-4 -49l65 22c13 4 28 -3 32 -16s-3 -28 -16 -32
l-101 -34c-3 -1 -6 -1 -9 -1z" />
    <glyph glyph-name="OE" unicode="&#x152;" horiz-adv-x="1030" 
d="M657 584c-10 -43 -30 -92 -57 -145c-102 -199 -312 -429 -490 -439c-50 -2 -86 12 -108 41c-25 29 -34 72 -30 124c4 46 18 101 41 158c72 183 229 393 363 439c13 4 28 -3 33 -16c5 -14 -2 -28 -16 -33c-119 -41 -263 -237 -331 -408c-21 -52 -34 -103 -38 -145
c-3 -38 1 -68 17 -87c12 -15 34 -22 66 -22c159 9 351 225 448 412c24 47 42 94 51 133c8 38 11 68 2 88c-7 16 -23 25 -48 25c-15 0 -30 -1 -45 -4c-3 -30 -13 -62 -29 -92c-19 -38 -46 -73 -77 -100c-34 -28 -73 -45 -114 -44c-28 0 -44 11 -53 30c-6 15 -6 34 2 53
c6 17 17 36 31 54c39 52 110 110 191 139c-3 14 -7 25 -14 34c-9 12 -8 28 3 37s27 8 37 -3c12 -15 20 -35 23 -55c15 2 30 4 45 4c50 0 80 -22 96 -58c12 -31 12 -72 1 -120zM440 636c9 17 16 34 20 51c-61 -26 -114 -71 -145 -112c-10 -15 -18 -28 -22 -40
c-3 -7 -4 -13 -3 -15c0 -1 1 0 6 0c28 0 55 13 79 33c27 22 49 51 65 83zM1154 362c12 -9 14 -26 5 -36c-167 -210 -324 -326 -441 -326c-122 0 -194 59 -194 158c0 122 112 272 257 334c-3 12 -5 23 -5 36c0 29 9 63 24 94c-32 26 -55 58 -58 94c-2 14 8 27 23 28
c14 2 26 -9 28 -23c2 -18 15 -37 35 -54c41 54 106 96 188 96c53 0 95 -20 114 -55c15 -28 14 -60 -3 -87c-28 -42 -85 -63 -160 -59c-41 3 -85 14 -123 33c-10 -22 -16 -47 -16 -67c0 -5 1 -11 2 -18c27 8 57 13 87 13c55 0 81 -31 81 -58c0 -20 -11 -36 -29 -47
c-15 -10 -37 -16 -62 -16c-42 0 -76 14 -99 38c-2 2 -4 4 -5 6c-132 -55 -228 -194 -228 -288c0 -88 78 -106 143 -106c100 0 246 111 400 306c9 11 25 13 36 4zM917 470c-19 0 -38 -1 -56 -5c12 -7 28 -11 46 -11c28 0 38 9 39 12c-1 -1 -9 4 -29 4zM1016 711
c-62 0 -111 -31 -144 -72c29 -13 63 -23 99 -25c53 -4 96 9 111 35c8 11 8 23 2 34c-9 18 -35 28 -68 28z" />
    <glyph glyph-name="section" unicode="&#xa7;" horiz-adv-x="604" 
d="M654 720c19 -22 31 -51 31 -81c0 -7 0 -13 -1 -19c-2 -13 -14 -20 -26 -18c-12 1 -20 14 -19 24c1 4 1 9 1 13c0 18 -8 37 -20 50c-15 19 -38 30 -62 30c-42 0 -75 -10 -100 -23c-22 -13 -38 -31 -46 -54c-1 -2 -2 -5 -3 -7c-14 -57 16 -113 48 -169c3 -7 8 -14 12 -24v0
c16 -29 27 -58 34 -84c11 -50 6 -98 -11 -139c-16 -40 -47 -73 -88 -95c-16 -9 -33 -14 -52 -21v0c-17 -28 -44 -54 -77 -72c-36 -19 -82 -31 -135 -31c-77 0 -123 29 -144 66c-11 19 -16 39 -15 60c0 20 4 40 13 59c20 50 66 92 121 95c11 1 24 -8 24 -20
c1 -13 -9 -24 -22 -25c-36 -2 -68 -32 -82 -67c-6 -14 -9 -28 -9 -43c0 -12 2 -26 9 -38c14 -24 46 -42 105 -42c44 0 83 9 114 26c25 14 45 32 60 56c0 1 1 3 1 4c2 2 2 3 3 5c10 21 16 45 16 71c0 38 -10 78 -32 120v0v1c-4 6 -10 15 -14 23c-35 66 -71 130 -50 206
c8 30 26 55 53 75c21 16 49 28 83 34c11 28 31 53 62 70c30 16 71 28 122 28c36 0 72 -17 96 -44zM418 444c-31 57 -61 112 -57 173c-17 -6 -32 -12 -42 -21c-20 -13 -32 -32 -38 -52c-16 -57 15 -114 47 -170c3 -8 8 -15 13 -26c27 -48 38 -96 38 -141c0 -15 -2 -31 -5 -47
c3 1 5 2 9 3c30 18 55 44 68 74c14 32 16 70 7 110c-5 25 -15 49 -29 74c-3 6 -7 16 -11 23z" />
    <glyph glyph-name="yen" unicode="&#xa5;" horiz-adv-x="611" 
d="M764 750c10 -16 1 -36 -8 -52c-24 -44 -100 -150 -193 -267c-50 -103 -99 -214 -131 -283c-39 -94 -73 -168 -94 -207c-46 -80 -121 -190 -243 -190c-15 0 -25 11 -25 26c0 14 10 25 25 25c72 0 136 52 200 166c18 34 52 111 91 201c17 40 35 76 50 114
c-127 -147 -257 -272 -315 -272h-3c-38 0 -55 16 -63 29c-31 54 23 148 113 298h-101c-15 0 -26 12 -26 25c0 15 11 25 26 25h132c15 27 30 52 44 77h-136c-15 0 -27 12 -27 27c0 13 12 25 25 25h166c36 72 60 137 42 170c-10 16 -32 25 -70 25c-14 0 -25 9 -25 25
c0 13 11 25 25 25c57 0 95 -17 114 -49c27 -49 10 -117 -29 -196h78c15 0 26 -12 26 -25c0 -15 -11 -27 -25 -27h-104c-15 -24 -28 -50 -44 -77h109c14 0 27 -10 27 -25c0 -13 -13 -25 -25 -25h-142c-3 -7 -8 -14 -12 -21c-56 -93 -135 -220 -118 -252c2 -2 12 -4 22 -4
c54 0 247 212 398 399c96 200 163 299 218 302c11 1 21 -5 28 -12z" />
    <glyph glyph-name="guillemotright" unicode="&#xbb;" horiz-adv-x="599" 
d="M288 128c-8 12 -4 30 8 37l185 123l-114 90c-11 9 -13 27 -4 38c9 12 27 13 37 4l143 -114v0c12 -9 14 -25 5 -37c-3 -3 -7 -5 -10 -7l-213 -140c-12 -8 -29 -6 -37 6zM109 128c-8 12 -4 30 8 37l185 123l-114 90c-11 9 -13 27 -4 38c9 12 27 13 37 4l143 -114v0
c12 -9 14 -25 5 -37c-3 -3 -7 -5 -10 -7l-213 -140c-12 -8 -29 -6 -37 6z" />
    <glyph glyph-name="guillemotleft" unicode="&#xab;" horiz-adv-x="551" 
d="M319 414c8 -12 4 -29 -9 -37l-184 -122l114 -91c10 -9 12 -26 4 -37c-10 -12 -27 -13 -37 -5l-144 114v0c-12 9 -13 25 -5 38c3 3 7 5 11 7l212 140c12 8 29 5 38 -7zM498 414c8 -12 4 -29 -9 -37l-184 -122l114 -91c10 -9 12 -26 4 -37c-10 -12 -27 -13 -37 -5l-144 114
v0c-12 9 -13 25 -5 38c3 3 7 5 11 7l212 140c12 8 29 5 38 -7z" />
    <glyph glyph-name="AE" unicode="&#xc6;" horiz-adv-x="1180" 
d="M1294 340c11 -10 14 -26 5 -37c-168 -210 -306 -304 -424 -304c-121 0 -194 59 -194 158c0 6 1 13 1 20c-107 -128 -165 -178 -202 -178c-24 0 -37 14 -41 21c-19 33 0 90 57 204c-23 9 -46 19 -70 30c-38 17 -75 34 -111 46c-124 -182 -210 -300 -283 -300
c-23 0 -43 9 -54 28c-33 54 22 168 38 199c74 143 176 158 277 133c137 201 278 402 412 402c31 0 45 -15 53 -27c35 -58 -32 -191 -146 -404c-52 -96 -129 -238 -129 -279c24 8 87 64 247 267c11 13 19 23 25 30c2 3 4 6 8 7c11 14 23 28 35 41c42 42 90 74 140 95
c-2 12 -4 23 -4 36c0 29 8 62 24 94c-33 26 -55 58 -59 94c-1 15 9 28 23 29s27 -9 29 -23c2 -19 14 -39 35 -55c41 55 105 97 188 97c53 0 95 -20 114 -56c15 -27 14 -60 -3 -87c-28 -42 -86 -64 -159 -58c-42 2 -86 13 -124 32c-11 -23 -16 -47 -16 -67c0 -6 0 -12 1 -18
c29 8 59 12 88 12c55 0 81 -30 81 -58c0 -18 -10 -35 -28 -47c-16 -10 -38 -15 -63 -15c-41 0 -76 13 -99 37c-2 2 -4 5 -5 7c-132 -55 -228 -195 -228 -289c0 -32 10 -57 30 -75c24 -21 62 -31 112 -31c100 0 229 90 383 284c9 11 25 14 36 5zM1075 470
c-19 0 -38 -2 -56 -6c12 -6 27 -9 46 -9c28 0 38 8 39 10c-1 -1 -9 5 -29 5zM1174 712c-61 0 -111 -32 -144 -73c29 -13 64 -23 99 -25c54 -3 95 10 112 35c7 11 7 23 2 34c-11 18 -36 29 -69 29zM32 51c47 0 145 138 230 263c-14 2 -27 4 -40 4c-61 0 -115 -29 -160 -114
c-34 -68 -50 -132 -40 -149c1 -2 3 -4 10 -4zM447 301c25 -10 50 -21 73 -30c14 25 29 54 45 85c64 118 171 316 148 353c-1 2 -7 2 -8 2c-105 0 -243 -196 -360 -367c35 -12 70 -28 102 -43z" />
    <glyph glyph-name="ampersand" unicode="&#x26;" horiz-adv-x="861" 
d="M957 -78c8 -13 4 -29 -8 -36c-22 -13 -47 -24 -72 -31c-25 -8 -51 -11 -76 -11c-122 0 -217 85 -281 203c-73 -29 -155 -47 -242 -47c-41 0 -74 10 -100 26c-30 19 -49 46 -56 77c-31 138 165 248 307 318c0 49 6 96 16 140c29 118 97 201 210 201c34 0 65 -11 88 -31
c21 -18 36 -45 38 -80c2 -49 -24 -92 -69 -129c-41 -36 -95 -68 -155 -98c-17 -8 -35 -17 -55 -27l-20 -9c2 -57 12 -118 28 -174c10 -35 21 -68 35 -100c68 33 126 73 170 117c40 38 66 73 76 101c4 11 5 22 2 28c-2 6 -8 11 -18 15c-6 2 -12 4 -20 6l-4 -2
c-32 -13 -58 -20 -76 -24c-23 -7 -39 -6 -50 -1c-23 8 -28 24 -23 45c4 12 14 22 30 27c9 4 21 6 35 8c31 3 59 3 81 1c28 10 62 25 102 44c13 6 29 1 35 -13c6 -12 0 -28 -13 -34c-18 -8 -35 -16 -51 -24c10 -8 17 -18 21 -29c7 -20 6 -40 -2 -64c-12 -36 -43 -77 -89 -122
c-47 -46 -110 -91 -182 -125c54 -101 134 -171 232 -171c20 0 41 3 61 8c21 5 41 14 60 26c13 7 29 3 35 -9zM495 549c-7 -32 -12 -67 -13 -104c20 10 39 19 51 25c56 30 109 60 145 90c32 29 52 58 51 89c-1 19 -9 33 -20 43c-14 12 -33 17 -54 17
c-84 0 -136 -65 -160 -160zM278 53c78 0 152 16 219 41c-15 34 -27 70 -37 106c-15 53 -25 109 -29 163c-126 -63 -279 -154 -258 -249c4 -18 16 -33 33 -43c17 -12 41 -18 72 -18z" />
    <glyph glyph-name="less" unicode="&#x3c;" horiz-adv-x="445" 
d="M393 414c8 -12 4 -29 -8 -37l-185 -122l114 -91c11 -9 13 -26 4 -37c-9 -12 -27 -13 -37 -5l-143 114v0c-12 9 -14 25 -5 38c3 3 7 5 10 7l213 140c12 8 29 5 37 -7z" />
    <glyph glyph-name="greater" unicode="&#x3e;" horiz-adv-x="486" 
d="M168 128c-8 12 -4 30 9 37l184 123l-114 90c-10 9 -12 27 -4 38c10 12 27 13 37 4l144 -114v0c12 -9 13 -25 5 -37c-3 -3 -7 -5 -11 -7l-212 -140c-12 -8 -29 -6 -38 6z" />
    <glyph glyph-name="quotedbl" unicode="&#x22;" horiz-adv-x="309" 
d="M298 712v-1c-1 0 -1 -1 -1 -1c-14 -20 -26 -38 -35 -52c-11 -16 -21 -31 -29 -42c-7 -10 -20 -13 -27 -7c-10 7 -13 18 -7 28c7 9 14 20 23 34c-15 5 -17 27 -2 50c16 26 46 45 68 42c23 -2 26 -25 10 -51zM390 763c21 -2 26 -25 9 -51v-1l-1 -1c-14 -20 -26 -38 -36 -52
c-10 -16 -20 -31 -28 -42c-6 -10 -18 -13 -27 -7c-10 7 -13 18 -7 28c7 9 14 20 23 34c-15 5 -16 27 -2 50c16 26 48 45 69 42z" />
    <glyph glyph-name="numbersign" unicode="#" horiz-adv-x="802" 
d="M704 381c12 0 21 -11 20 -22c-1 -12 -11 -21 -22 -20l-43 2c-38 3 -87 5 -141 8c-19 -24 -32 -46 -42 -60c-2 -6 -6 -10 -8 -15c50 -3 96 -6 132 -8l43 -1c12 -2 21 -12 19 -23c0 -12 -9 -21 -21 -20l-43 3c-40 2 -94 4 -152 8c-44 -82 -80 -154 -100 -195
c-5 -11 -18 -15 -28 -9c-9 4 -15 17 -9 26c17 39 50 106 90 180c-50 3 -103 5 -153 7c-45 -85 -83 -163 -104 -204c-5 -11 -17 -15 -28 -9c-10 4 -15 17 -10 26c18 40 54 109 96 187c-57 1 -105 0 -137 -2c-11 -1 -22 6 -22 19c-2 12 7 22 20 22c35 3 94 3 160 2
c2 4 5 8 7 12c0 1 0 1 1 2c1 3 4 7 7 13c9 16 18 32 26 49c-56 0 -106 0 -138 -3c-12 0 -21 7 -22 20c-2 11 6 21 18 22c38 4 98 5 168 2c16 30 31 58 47 83c59 95 113 168 144 171c13 2 20 -2 25 -12c1 -2 2 -4 2 -8v0c2 -22 -69 -120 -137 -211c-7 -8 -12 -16 -18 -25
c44 -1 91 -2 135 -5c18 32 35 62 53 90c59 95 112 168 144 171c17 2 26 -4 27 -20c3 -22 -69 -120 -136 -211c-9 -11 -17 -23 -25 -33c42 -3 80 -5 112 -7zM269 282c50 -1 102 -3 152 -6c4 7 8 13 10 20l1 1c2 3 5 7 7 12c8 15 16 29 23 43c-46 2 -96 4 -142 5
c-20 -27 -37 -52 -47 -68c-1 -2 -2 -5 -4 -7z" />
    <glyph glyph-name="registered" unicode="&#xae;" horiz-adv-x="751" 
d="M541 256c6 9 19 11 29 4s11 -20 4 -30c-2 -3 -5 -6 -7 -10c-25 -34 -82 -116 -110 -117c-39 -2 -49 33 -60 69c-4 15 -9 30 -15 40c-35 -57 -75 -109 -115 -108c-22 1 -36 11 -42 29c-5 13 -4 31 2 51c6 17 15 37 27 57c42 70 119 151 187 172l8 17c6 10 19 15 29 9
c8 -5 12 -13 11 -22c3 -1 5 -1 8 -2c17 -5 31 -15 40 -28c10 -13 16 -29 16 -46c0 -7 -2 -15 -4 -22c-11 -36 -35 -61 -67 -78c-18 -10 -37 -16 -57 -20c5 -12 8 -25 13 -37c6 -20 11 -39 18 -39c7 1 56 70 76 99c5 6 7 10 9 12zM503 363c-4 6 -10 9 -17 12c-4 1 -8 1 -13 1
h-3c-17 -32 -37 -71 -48 -93c-5 -7 -9 -15 -13 -23c19 4 38 10 54 18c21 11 39 28 46 53c1 3 1 7 1 10c0 8 -2 16 -7 22zM268 146c19 -1 44 32 69 73c-10 6 -16 15 -16 22c-3 17 8 25 22 28c6 1 12 1 17 1h6c7 11 13 23 19 34c6 12 15 29 25 48c-45 -30 -91 -85 -120 -133
c-10 -17 -18 -33 -22 -48c-5 -12 -5 -20 -4 -25h4zM632 436c25 -33 39 -76 39 -124c0 -20 -2 -41 -7 -62c-18 -70 -62 -133 -118 -179c-57 -45 -128 -73 -197 -73c-21 0 -40 2 -58 7c-46 11 -83 36 -108 69c-26 34 -41 76 -41 124c0 20 3 41 8 62c18 70 61 133 118 179
c58 45 128 74 198 74c20 0 40 -3 57 -7c45 -11 83 -36 109 -70zM520 104c50 41 88 95 103 156c5 18 7 36 7 52c0 38 -11 72 -31 98c-21 27 -50 47 -85 55c-15 4 -31 6 -48 6c-60 0 -121 -25 -171 -65s-89 -95 -104 -156c-5 -18 -7 -36 -7 -52c0 -39 11 -72 32 -98
c20 -27 49 -46 85 -54c14 -4 30 -6 48 -6c60 0 121 25 171 64z" />
    <glyph glyph-name="Thorn" unicode="&#xde;" horiz-adv-x="447" 
d="M491 589c39 -61 -5 -191 -56 -285c-27 -53 -127 -224 -243 -227c-69 -3 -96 35 -109 68c-5 12 1 29 14 34c15 5 30 -1 36 -16c6 -17 18 -34 57 -34c56 3 135 83 197 200c59 110 76 204 59 232c-1 2 -5 6 -16 6c-55 -2 -188 -140 -351 -361c-33 -72 -72 -145 -122 -221
c-48 -79 -72 -89 -91 -89v0c-10 0 -21 5 -27 13c-10 17 -8 33 51 123c41 59 90 131 143 203c24 50 46 100 67 150c24 52 48 107 75 166c33 70 30 128 -8 151c-42 24 -121 -2 -188 -98c-8 -11 -25 -15 -36 -6c-13 7 -16 24 -7 37c83 123 193 150 258 112
c49 -27 86 -101 30 -219c-19 -41 -36 -80 -53 -117c99 117 195 208 257 210c27 1 50 -10 63 -32z" />
    <glyph glyph-name="thorn" unicode="&#xfe;" horiz-adv-x="507" 
d="M624 338c10 -9 11 -26 2 -36l-6 -6c-97 -110 -126 -139 -207 -158c-43 -61 -106 -136 -179 -138c-56 -3 -84 28 -89 56c-5 24 -1 44 11 61c25 34 76 46 129 53l15 2c35 4 61 8 83 12c11 16 20 33 30 51c57 105 73 194 57 219c-3 3 -5 6 -15 6c-42 -2 -166 -120 -389 -436
c-47 -89 -84 -164 -108 -200c-45 -73 -71 -94 -90 -94v0c-8 0 -18 5 -23 12c-11 17 -3 44 50 125c40 60 83 123 126 184c12 23 24 46 36 70c45 90 86 171 124 243c-51 -52 -98 -103 -137 -153c-9 -11 -24 -13 -35 -4c-11 8 -13 24 -5 35c69 89 165 184 256 271
c110 200 183 296 234 296h1c34 0 46 -15 52 -26c18 -46 -47 -111 -208 -264c-12 -12 -26 -25 -39 -37c-36 -66 -73 -136 -107 -203c107 133 204 229 260 232c25 0 46 -9 59 -30c36 -57 -7 -181 -54 -270c-1 -1 -2 -2 -2 -4c35 20 66 54 126 122l6 7c10 11 26 12 36 2z
M494 759c-21 -2 -57 -49 -102 -119c52 50 94 96 105 119h-2h-1zM232 50c32 1 69 31 109 76c-11 -1 -22 -3 -33 -4l-16 -2c-19 -3 -79 -11 -94 -31c-2 -4 -6 -10 -3 -23c3 -14 25 -16 37 -16z" />
    <glyph glyph-name="Euro" unicode="&#x20ac;" horiz-adv-x="738" 
d="M756 714c11 -16 14 -33 14 -51c-1 -16 -7 -33 -19 -47c-25 -37 -78 -62 -160 -58c-54 3 -108 21 -151 50c-35 -30 -68 -63 -96 -99h211c15 0 27 -11 27 -25c0 -15 -12 -26 -27 -26h-253c-11 -18 -23 -34 -33 -52c-7 -8 -12 -19 -17 -27h248c15 0 28 -12 28 -27
c0 -13 -13 -27 -28 -27h-276c-27 -55 -43 -110 -43 -155c0 -21 4 -41 12 -58c7 -15 19 -28 35 -39c24 -13 56 -22 100 -22c39 0 82 11 121 32c40 20 79 49 108 85c9 13 26 14 38 3c10 -8 11 -24 3 -37c-36 -40 -80 -74 -126 -98c-46 -23 -96 -38 -144 -38
c-53 0 -96 12 -128 32c-25 15 -42 35 -55 60c-11 25 -15 51 -15 80c0 48 14 101 36 155h-95c-15 0 -27 14 -27 27c0 15 12 27 27 27h121c8 19 20 37 32 55c5 8 9 16 15 24h-113c-14 0 -26 11 -26 26c0 14 12 25 26 25h150c37 48 79 93 123 131c-20 22 -34 47 -36 74
c-1 14 8 28 23 29c15 0 28 -10 29 -24c1 -16 11 -31 25 -45c67 50 139 85 202 88c58 3 95 -19 114 -48zM708 645c6 8 8 15 8 22c2 7 0 13 -4 19c-9 15 -31 25 -66 24c-50 -3 -107 -29 -161 -68c32 -18 71 -27 111 -32c59 -3 97 14 112 35z" />
    <glyph glyph-name="germandbls" unicode="&#xdf;" horiz-adv-x="530" 
d="M642 338c10 -10 10 -25 0 -36l-18 -21c-121 -128 -169 -180 -222 -206c-42 -21 -79 -22 -144 -24c-4 0 -7 -1 -10 -1c-45 -22 -97 -40 -159 -49v0c-27 -3 -49 2 -62 11c-9 6 -15 15 -16 25c-1 11 3 21 12 30c12 11 36 22 78 25c56 6 98 9 134 9c24 14 46 29 64 45
c70 60 100 133 103 180c6 81 -86 101 -146 112h-2l1 1c-12 3 -21 12 -21 24c-1 14 11 26 24 27v0c97 3 147 42 165 87c14 32 12 67 0 94c-9 24 -26 41 -44 41c-20 0 -44 -17 -70 -61c-33 -55 -58 -103 -85 -149c-37 -67 -74 -133 -126 -218c-11 -21 -25 -41 -40 -64
c-12 -20 -26 -39 -40 -58c-9 -12 -25 -15 -36 -6c-12 8 -15 25 -6 36c13 18 27 37 39 57c13 19 26 40 39 62c53 85 89 150 125 215c26 49 54 98 86 152c36 61 76 85 114 85c41 0 75 -29 92 -72c16 -38 19 -89 -1 -134c-16 -39 -48 -75 -101 -97c50 -23 90 -62 85 -138
c-4 -57 -40 -145 -121 -214c17 2 32 6 46 13c45 22 91 73 208 196l19 20c9 11 26 11 36 1z" />
    <glyph glyph-name="fi" unicode="&#xfb01;" horiz-adv-x="463" 
d="M580 340c11 -9 13 -25 4 -37c-3 -3 -257 -307 -341 -307c-24 0 -35 13 -40 21c-16 28 2 72 43 142l9 15c-35 -22 -67 -33 -97 -31c-5 -126 -35 -293 -101 -369c-25 -30 -54 -45 -87 -45c-24 0 -44 11 -56 31c-45 80 55 311 147 491c-5 41 5 85 35 92h13
c43 79 77 136 81 144c167 277 212 277 226 276c40 -1 54 -24 58 -37c28 -96 -254 -372 -326 -436c2 -9 4 -19 6 -31c2 -18 4 -39 5 -63c24 -4 83 7 187 137c1 1 3 2 4 3c33 56 64 109 94 164c7 12 23 17 35 10c13 -7 17 -23 10 -35c-61 -109 -123 -216 -199 -342
c-27 -48 -37 -71 -40 -83c49 20 200 171 294 286c9 11 25 13 36 4zM417 712c-32 -15 -116 -137 -204 -289c99 105 222 252 211 287c0 0 -2 1 -7 2zM18 -192c58 68 87 236 89 355c-8 7 -15 14 -22 23c-81 -166 -141 -324 -129 -389c2 -17 8 -17 14 -17c17 0 33 9 48 28z
M507 544c-21 0 -28 24 -15 53s41 53 62 53s28 -24 16 -53c-14 -29 -41 -53 -63 -53z" />
    <glyph glyph-name="fl" unicode="&#xfb02;" horiz-adv-x="507" 
d="M582 333c8 11 24 13 35 5c12 -9 14 -25 6 -36c-22 -28 -280 -305 -363 -305h-2c-16 1 -35 13 -34 45c1 24 19 77 47 144c-42 -31 -80 -45 -114 -42c-6 -127 -37 -295 -102 -371c-25 -29 -54 -43 -86 -43c-24 0 -44 11 -56 31c-45 79 55 310 147 491c-4 35 2 83 34 91h13
c44 80 78 137 82 144c166 277 211 276 224 275c41 0 54 -24 59 -37c28 -95 -253 -371 -326 -435c2 -8 4 -18 7 -30c2 -18 4 -40 4 -64c23 -4 78 6 171 115c100 207 247 451 322 451c38 0 50 -20 55 -32c37 -100 -311 -439 -349 -475c-43 -90 -74 -166 -80 -202
c66 33 259 218 306 280zM545 591c-37 -56 -76 -121 -112 -186c105 113 231 267 224 306h-7c-1 0 -28 -6 -105 -120zM415 711c-32 -15 -116 -136 -203 -287c100 104 222 251 210 286c0 0 -2 1 -7 1zM16 -193c58 67 87 236 90 356c-9 6 -16 14 -22 23
c-81 -167 -142 -324 -130 -389c3 -16 9 -16 15 -16c17 0 32 9 47 26z" />
    <glyph glyph-name="fraction" unicode="&#x2044;" horiz-adv-x="313" 
d="M477 739c3 -28 -90 -157 -171 -265c-48 -65 -94 -127 -115 -160c-67 -122 -183 -350 -211 -410c-7 -12 -21 -18 -33 -11c-13 6 -18 21 -13 33c28 57 140 277 204 394v4c3 4 6 9 9 14c39 71 80 144 119 207c70 114 142 213 179 217c15 3 25 -2 29 -13c2 -3 3 -6 3 -10z
" />
    <glyph glyph-name="R" unicode="R" horiz-adv-x="702" 
d="M822 340c11 -8 14 -24 5 -35c-3 -5 -9 -15 -19 -30c-61 -85 -194 -274 -250 -275c-80 -3 -103 76 -129 159c-15 49 -30 100 -57 132c-8 0 -17 -1 -25 -1c-89 -151 -190 -293 -283 -290c-45 2 -73 21 -84 56c-11 30 -7 72 7 118c13 42 37 91 66 142
c109 183 311 394 483 439c9 16 17 32 28 53c6 13 22 18 35 11c12 -6 17 -21 11 -34l-10 -22v0c19 0 37 -2 54 -7c38 -11 69 -34 90 -63c21 -28 32 -64 32 -101c0 -17 -2 -34 -7 -51c-25 -86 -84 -147 -160 -186c-53 -29 -115 -47 -178 -57c22 -36 36 -80 48 -123
c20 -65 37 -125 77 -123c31 0 153 175 209 254c9 11 14 20 21 28c8 13 25 14 36 6zM336 373c20 37 40 73 58 107c26 46 70 133 109 209c-146 -61 -311 -242 -405 -400c-28 -48 -50 -93 -62 -131c-11 -36 -14 -66 -7 -86c4 -12 15 -19 36 -21c65 -1 146 111 223 239
c-9 2 -18 4 -25 6c-20 9 -31 25 -32 36c-1 4 0 7 1 10c2 19 15 28 34 32c12 2 27 2 38 2s22 -1 32 -3zM393 345c67 8 135 25 192 55c63 34 113 84 135 155c3 13 5 26 5 37c0 26 -8 51 -23 71c-14 20 -36 36 -62 44c-13 3 -26 5 -40 5c-10 0 -19 -1 -28 -2
c-44 -86 -102 -199 -132 -255c0 0 -1 0 -1 -1v0v0c-17 -33 -36 -67 -55 -101c2 -2 6 -5 9 -8z" />
    <glyph glyph-name="C" unicode="C" horiz-adv-x="501" 
d="M626 339c11 -10 12 -26 2 -38l-50 -55c-119 -133 -231 -246 -375 -246c-109 0 -157 45 -178 84c-44 79 -17 207 74 352c44 71 106 145 174 205c-20 21 -33 45 -36 73c-1 14 10 27 24 29c14 1 27 -10 29 -24c1 -15 10 -30 23 -45c67 51 137 85 204 88c52 3 95 -16 115 -50
c16 -28 16 -61 -3 -90c-27 -45 -86 -68 -163 -64c-53 5 -109 22 -152 50c-65 -57 -126 -129 -171 -200c-77 -124 -105 -239 -72 -300c20 -37 65 -55 132 -55c110 0 200 76 336 229c11 11 22 23 50 55c9 10 26 11 37 2zM520 710c-51 -3 -107 -28 -162 -68
c32 -17 71 -28 112 -31c55 -3 98 11 115 38c7 12 8 25 2 37c-10 16 -35 25 -67 24z" />
    <glyph glyph-name="Ccedilla" unicode="&#xc7;" horiz-adv-x="489" 
d="M617 355c11 -10 12 -26 2 -37l-17 -19c-11 -13 -22 -25 -32 -37c-130 -144 -236 -240 -349 -260l-43 -53c29 -2 49 -10 60 -26c6 -9 15 -27 1 -54c-25 -47 -115 -104 -186 -104c-14 0 -26 12 -26 26s12 26 26 26c58 0 130 54 140 77c-7 2 -25 5 -68 0
c-11 -2 -21 3 -27 12c-5 10 -4 21 3 30l51 64c-90 8 -132 48 -151 82c-44 80 -17 208 74 353c44 71 105 146 174 205c-20 22 -33 46 -36 74c-1 14 9 27 23 28c14 2 27 -8 29 -23s10 -31 25 -45c66 50 136 84 203 87c52 3 94 -15 114 -50c17 -27 16 -61 -2 -89
c-27 -45 -87 -68 -163 -63c-52 3 -109 20 -152 48c-65 -56 -127 -129 -171 -200c-78 -124 -106 -238 -72 -299c20 -38 65 -57 133 -57c109 0 215 95 351 247c11 12 21 24 32 36l17 19c10 11 26 12 37 2zM495 709c-50 -3 -106 -28 -160 -67c31 -17 70 -28 110 -31
c83 -5 110 28 116 38c7 12 8 25 1 35c-10 17 -35 27 -67 25z" />
    <glyph glyph-name="D" unicode="D" horiz-adv-x="792" 
d="M908 349c11 -9 12 -27 3 -37c-202 -229 -225 -247 -376 -259c-51 -33 -107 -54 -165 -54c-37 0 -67 5 -84 12c-13 5 -21 15 -23 26c-2 14 4 26 20 35c14 7 46 15 99 20c45 5 79 6 110 9c9 1 19 2 27 2c79 56 145 150 184 248c18 47 31 95 36 140c3 44 1 85 -11 119
c-20 60 -70 100 -157 100c-9 0 -17 -1 -26 -2c-9 -19 -18 -38 -28 -59c-35 -74 -75 -158 -100 -208c-48 -94 -103 -202 -161 -288c-62 -90 -127 -155 -194 -154c-45 2 -73 23 -85 59c-10 30 -8 71 6 118c12 43 34 92 63 144c102 181 296 389 464 433c11 23 20 42 26 54
c7 13 22 18 34 11c13 -6 18 -22 12 -34c-3 -6 -6 -13 -11 -22v0c113 0 179 -54 206 -134c15 -42 18 -90 13 -142c-4 -50 -19 -103 -39 -154c-31 -79 -80 -156 -138 -216c71 20 119 70 259 230c10 11 26 12 36 3zM469 670c4 7 7 13 9 19c-141 -59 -298 -237 -387 -395
c-27 -47 -47 -93 -59 -133c-11 -37 -13 -67 -7 -86c6 -14 18 -24 39 -24c45 -1 97 54 149 130c56 84 111 190 158 283c26 50 64 133 98 206z" />
    <glyph glyph-name="a" unicode="a" horiz-adv-x="447" 
d="M564 339c11 -7 12 -26 3 -37c-18 -22 -45 -54 -69 -85c-96 -128 -169 -217 -230 -217h-1c-13 1 -47 7 -47 59c1 16 5 36 12 62c-65 -67 -135 -118 -190 -121c-26 0 -47 11 -59 29c-35 58 23 175 51 222c53 97 176 260 289 260c33 0 60 -13 76 -36c18 22 35 37 46 37
c18 0 30 -14 30 -30c0 -29 -66 -146 -152 -257c-33 -78 -56 -149 -49 -173c41 7 129 125 183 195c25 32 51 65 71 91c10 8 26 10 36 1zM40 52c62 2 162 102 245 207c25 60 54 119 81 166c-1 5 -3 11 -7 15c-6 13 -17 19 -36 19c-65 0 -170 -99 -244 -234
c-55 -96 -62 -155 -52 -169c1 -1 3 -4 13 -4z" />
    <glyph glyph-name="a.1" horiz-adv-x="696" 
d="M812 336c11 -9 12 -26 3 -36c-19 -22 -42 -51 -66 -83c-97 -126 -170 -217 -232 -217c0 0 -1 0 -2 1c-10 0 -45 5 -44 59c0 14 4 35 13 60c-67 -67 -137 -118 -192 -119c-26 -1 -47 9 -59 29c-28 48 8 138 37 194c-112 -29 -209 -17 -262 40c-31 34 -86 135 78 335
c9 12 25 14 36 5c10 -10 12 -25 4 -36c-97 -118 -126 -219 -79 -270c40 -44 140 -53 260 -10c61 96 168 222 267 222c34 0 44 -20 46 -28c16 -50 -81 -124 -124 -153c-51 -35 -104 -63 -155 -82l-12 -21c-54 -97 -61 -155 -52 -170c1 -2 3 -4 13 -5c64 2 162 103 244 208
c52 123 125 253 162 253c17 0 29 -13 29 -30c0 -29 -65 -145 -152 -257c-32 -76 -56 -148 -51 -173c43 7 132 124 186 196c25 32 48 62 68 85c9 11 25 12 36 3zM565 459c-46 -6 -109 -56 -167 -130c23 12 46 26 69 43c56 38 86 69 98 87z" />
    <glyph glyph-name="b.1" horiz-adv-x="804" 
d="M907 339c11 -8 13 -24 5 -35c-77 -102 -114 -131 -168 -131c-11 0 -36 2 -54 27c-58 -93 -145 -200 -240 -201c-1 -1 -1 -1 -2 -1c-35 0 -53 18 -61 33c-20 34 -12 92 9 157c-92 -66 -187 -108 -280 -101c-58 4 -103 31 -127 75c-26 50 -35 146 67 316c7 12 22 16 35 8
c12 -7 16 -23 8 -35c-68 -114 -92 -211 -64 -265c19 -36 56 -46 85 -48c102 -8 215 60 315 145c24 52 50 102 73 141c2 3 194 338 277 338c34 0 48 -18 53 -28c13 -28 9 -78 -122 -233c-73 -85 -155 -176 -241 -251c-33 -75 -53 -140 -49 -179c3 -18 10 -21 23 -21
c79 1 164 115 224 221c1 76 43 211 98 213c10 0 20 -5 25 -13c22 -35 -54 -180 -69 -208c-1 -2 -2 -3 -3 -5c1 -7 2 -13 4 -18c4 -16 11 -16 15 -16c31 1 57 17 127 110c9 11 26 14 37 5zM785 711c-38 -10 -151 -165 -240 -324c55 58 101 112 132 148
c105 125 113 166 114 176h-6z" />
    <glyph glyph-name="c.1" horiz-adv-x="661" 
d="M789 338c11 -9 12 -26 2 -36c-139 -148 -302 -303 -438 -303c-28 0 -44 13 -52 23c-11 12 -17 30 -17 52c0 52 32 129 78 205c-69 -20 -144 -29 -212 -21c-92 13 -153 53 -172 114c-17 54 -5 148 145 287c11 10 27 9 37 -2c9 -10 8 -26 -2 -36
c-103 -94 -149 -177 -131 -234c13 -40 60 -68 130 -78c84 -11 174 9 253 40c69 89 155 161 227 161c22 0 32 -11 36 -18c4 -9 7 -23 -7 -43c-26 -37 -113 -98 -221 -141c-62 -84 -109 -182 -109 -234c0 -9 1 -17 3 -20c2 -2 4 -4 14 -4c132 0 322 202 400 287
c10 10 26 11 36 1z" />
    <glyph glyph-name="d.1" horiz-adv-x="702" 
d="M783 336c10 11 26 12 36 3c11 -9 12 -26 3 -37c-18 -22 -43 -53 -67 -85c-97 -127 -171 -217 -233 -217h-2c-7 0 -39 3 -38 50c0 28 14 74 32 125c-85 -100 -166 -174 -219 -175c-26 -1 -47 9 -59 29c-29 48 8 139 37 195c-112 -29 -210 -17 -263 40
c-32 34 -86 136 78 338c9 11 25 13 36 4s13 -25 4 -36c-97 -118 -126 -220 -80 -271c41 -45 141 -53 262 -10c62 96 169 223 268 223c34 0 44 -20 46 -28c16 -51 -81 -124 -123 -154c-52 -35 -105 -63 -157 -83c-4 -7 -7 -13 -11 -20c-55 -98 -62 -156 -52 -172
c1 -2 3 -4 12 -4c61 1 191 156 306 318c14 31 28 58 38 79c156 308 191 314 203 314c17 0 28 -12 28 -29c1 -37 -103 -220 -224 -390c-60 -127 -110 -249 -112 -291c45 17 130 127 182 196c25 32 49 65 69 88zM570 460c-47 -5 -110 -56 -169 -130c23 12 47 26 71 42
c56 39 86 71 98 88z" />
    <glyph glyph-name="e.1" horiz-adv-x="637" 
d="M765 339c10 -10 11 -27 1 -37c-188 -202 -336 -303 -443 -303c-28 0 -44 13 -52 23c-11 13 -16 31 -16 53c0 28 9 65 26 104c-42 -5 -84 -5 -126 1c-91 13 -152 52 -171 112c-17 54 -6 148 145 287c11 10 27 9 36 -1c10 -11 10 -27 -1 -36c-102 -95 -149 -178 -131 -235
c12 -39 59 -67 129 -77c48 -6 98 -3 145 6c71 132 198 275 300 275c46 0 66 -19 73 -35c9 -17 13 -46 -19 -92c-52 -73 -175 -159 -319 -193c-22 -46 -36 -88 -36 -116c0 -10 1 -17 4 -21c1 -1 4 -3 13 -3c91 0 230 98 405 286c10 11 27 11 37 2zM607 459
c-69 0 -163 -101 -228 -205c109 37 200 104 240 160c17 24 17 36 16 39c-1 2 -8 6 -28 6z" />
    <glyph glyph-name="f.1" horiz-adv-x="620" 
d="M777 584c-54 -82 -156 -200 -271 -300c2 -7 4 -15 5 -24c3 -18 4 -39 5 -64c24 -4 87 11 191 140c9 11 25 12 36 4c11 -10 13 -26 4 -37c-88 -109 -169 -165 -232 -159c-5 -127 -37 -295 -102 -371c-24 -29 -54 -44 -86 -44c-25 0 -45 12 -55 32c-41 71 34 262 116 430
c-96 -66 -192 -111 -271 -105c-59 4 -103 31 -126 75c-26 50 -37 146 65 317c8 12 24 16 36 8c12 -7 16 -23 9 -35c-69 -115 -93 -212 -65 -266c19 -36 57 -46 85 -48c78 -5 188 55 296 141c1 29 11 59 36 65h13c43 79 77 137 82 144c166 277 209 276 224 276
c31 -1 44 -17 49 -27c11 -20 17 -56 -44 -152zM374 -193c59 68 87 236 90 356c-8 6 -15 14 -22 23c-81 -167 -142 -324 -129 -389c3 -16 8 -16 14 -16c16 0 32 8 47 26zM773 711c-34 -15 -123 -147 -215 -307c62 61 116 125 157 182c64 90 62 120 61 125h-3z" />
    <glyph glyph-name="g.1" horiz-adv-x="693" 
d="M827 338c10 -10 11 -26 1 -36c-10 -11 -24 -27 -36 -40c-76 -84 -180 -199 -301 -267c-21 -12 -40 -23 -58 -32c-25 -43 -48 -81 -69 -110c-36 -53 -93 -123 -176 -123c-43 0 -75 23 -83 59c-7 35 13 86 90 118c86 37 132 56 201 94c12 20 23 41 35 63
c-47 -39 -93 -65 -134 -66c-25 -1 -47 10 -59 30c-29 48 4 135 33 195c-113 -30 -212 -18 -264 40c-32 34 -88 135 77 337c8 11 25 13 36 4s12 -25 4 -36c-97 -119 -127 -220 -80 -271c42 -44 141 -53 262 -10c70 115 176 223 267 223c34 0 44 -20 46 -28
c17 -50 -80 -125 -123 -154c-51 -35 -104 -62 -155 -82c-2 -4 -3 -6 -5 -9c-51 -91 -66 -162 -54 -183c1 -1 3 -5 14 -5c60 2 152 92 231 191c128 240 149 272 177 272c17 0 29 -14 29 -31c0 -30 -73 -158 -166 -275c-28 -51 -57 -105 -85 -157c106 65 202 170 272 247
c12 13 26 29 37 40c9 11 25 12 36 2zM565 459c-52 -6 -115 -62 -169 -132c23 13 47 27 71 43c56 40 86 71 98 89zM322 -118c8 10 16 23 24 36c-38 -18 -77 -35 -132 -58c-48 -20 -61 -48 -58 -61c2 -11 15 -18 32 -18c58 0 102 54 134 101z" />
    <glyph glyph-name="h.1" horiz-adv-x="861" 
d="M988 339c11 -10 11 -26 2 -36c-18 -21 -41 -47 -64 -73c-138 -161 -203 -229 -245 -231h-3c-27 0 -39 15 -44 23c-23 40 21 111 101 233c41 62 117 179 107 206h-6c-95 3 -346 -299 -441 -412c-12 -15 -24 -28 -33 -39s-23 -12 -34 -5s-15 21 -9 32l18 38
c19 40 37 79 55 115c-89 -65 -184 -109 -277 -102c-59 3 -103 31 -127 74c-26 51 -36 146 66 316c7 12 23 16 35 9c12 -8 16 -23 8 -35c-68 -115 -91 -212 -63 -266c18 -35 56 -46 84 -47c107 -8 225 68 329 162c164 324 265 461 336 461c32 0 46 -15 52 -28
c17 -38 -16 -97 -126 -228c-56 -66 -133 -156 -220 -236c-12 -23 -24 -48 -37 -74c147 169 295 318 385 317c31 -1 45 -16 51 -28c24 -47 -26 -129 -111 -259c-38 -58 -95 -146 -98 -176v0c31 6 146 140 208 213c24 27 46 54 65 74c9 10 25 11 36 2zM783 711
c-24 0 -80 -45 -213 -285c38 40 72 80 99 112c101 119 118 159 119 173h-5z" />
    <glyph glyph-name="i.1" horiz-adv-x="612" 
d="M734 340c11 -9 13 -25 3 -36c-1 -3 -251 -304 -336 -304c-24 0 -35 13 -39 21c-14 25 -4 62 43 140l6 11c-77 -54 -176 -92 -292 -83c-58 4 -102 30 -124 73c-27 50 -36 145 63 312c7 12 24 16 36 9c11 -7 16 -23 8 -35c-68 -114 -91 -209 -63 -262c19 -36 56 -45 84 -47
c159 -12 284 79 367 172c115 200 122 200 139 200c9 0 18 -6 23 -14c3 -7 14 -26 -47 -121c-17 -26 -43 -62 -76 -99c-19 -33 -40 -71 -65 -114l-15 -27c-28 -47 -38 -71 -41 -83c49 21 203 175 290 283c9 11 25 12 36 4zM661 541c-20 0 -27 22 -15 51c13 29 41 52 62 52
c22 0 27 -23 15 -52c-13 -29 -41 -51 -62 -51z" />
    <glyph glyph-name="j.1" horiz-adv-x="622" 
d="M667 542c-21 0 -28 23 -15 52c14 29 40 52 62 52c21 0 27 -23 15 -52c-13 -29 -41 -52 -62 -52zM752 338c10 -10 11 -26 2 -36l-31 -34c-74 -81 -184 -204 -307 -272c-20 -12 -38 -22 -55 -31c-59 -106 -141 -235 -256 -235c-66 0 -80 41 -82 54c-10 46 29 99 88 123
l50 21c62 26 105 45 162 75c6 9 10 18 15 27c8 14 14 27 21 38c20 37 38 71 55 102c-79 -54 -178 -94 -296 -85c-59 4 -104 31 -126 74c-27 51 -37 146 64 316c8 12 23 16 36 8c12 -7 16 -22 8 -35c-68 -114 -91 -211 -63 -265c19 -35 56 -45 83 -47c161 -11 285 77 367 168
c117 207 128 207 144 207c10 0 19 -6 24 -14c3 -6 14 -26 -49 -124c-16 -26 -43 -63 -77 -101c-32 -56 -72 -129 -122 -222c110 66 210 178 278 253l31 33c9 11 25 12 36 2zM105 -219c66 0 125 69 172 142c-31 -14 -61 -27 -96 -41l-50 -22c-42 -18 -61 -50 -58 -66
c2 -11 23 -13 32 -13z" />
    <glyph glyph-name="k.1" horiz-adv-x="844" 
d="M943 338c10 -9 11 -26 1 -36c-4 -5 -20 -26 -34 -45c-113 -159 -197 -258 -260 -258c-28 0 -51 13 -67 38c-43 68 -18 209 8 265c3 7 9 12 16 14c14 5 30 10 45 14c73 23 142 44 174 99c8 16 8 27 8 30v0c-1 0 -3 4 -13 4c-150 0 -337 -244 -450 -453
c-5 -8 -14 -13 -23 -13c-4 0 -8 1 -11 3c-13 6 -18 20 -13 33c1 1 28 64 70 152c-88 -63 -182 -105 -274 -98c-59 3 -104 30 -127 74c-26 51 -36 147 65 316c8 13 23 16 35 9c13 -7 17 -23 9 -35c-68 -115 -91 -212 -63 -266c18 -35 56 -45 85 -47c105 -9 221 66 324 156
c105 210 253 468 340 468c33 0 47 -15 53 -28c18 -38 -16 -100 -124 -228c-9 -11 -19 -22 -29 -34c44 26 88 42 133 42c30 0 52 -14 61 -38c7 -22 2 -47 -12 -72c-42 -73 -124 -98 -203 -123c-11 -4 -22 -7 -33 -11c-23 -57 -34 -164 -8 -206c6 -9 14 -14 24 -14
c50 0 177 179 218 237c20 27 32 44 39 50c9 10 25 11 36 1zM570 416c44 47 80 91 108 123c101 120 115 160 116 172h-6c-38 0 -128 -134 -218 -295z" />
    <glyph glyph-name="l.1" horiz-adv-x="629" 
d="M718 334c8 12 24 14 36 5c11 -8 13 -24 4 -35c-21 -29 -278 -304 -360 -304h-2c-7 0 -39 5 -38 52c1 26 18 78 44 142c-91 -66 -189 -113 -284 -105c-58 4 -103 30 -126 74c-26 50 -36 146 65 315c7 12 23 16 35 9c13 -7 16 -23 10 -35c-69 -115 -92 -211 -64 -265
c18 -36 55 -45 83 -48c107 -8 225 68 326 159c99 208 255 464 338 464c32 0 46 -15 52 -28c18 -38 -16 -100 -124 -228c-53 -64 -134 -159 -227 -243c-45 -96 -75 -176 -77 -209c61 26 261 218 309 280zM680 602c-41 -58 -82 -125 -118 -192c45 49 83 96 112 129
c101 121 116 160 116 172h-5c0 0 -28 -3 -105 -109z" />
    <glyph glyph-name="m.1" horiz-adv-x="1118" 
d="M1222 339c10 -9 11 -25 2 -36c-35 -39 -73 -85 -105 -125c-92 -114 -147 -179 -194 -179c-26 1 -37 14 -42 23c-24 42 17 122 108 284c16 26 31 53 44 77c26 48 30 68 30 76c-44 -2 -112 -53 -164 -103c-33 -33 -65 -66 -94 -100c-51 -109 -128 -256 -165 -256
c-15 0 -27 8 -33 21c-17 42 71 164 156 263c18 38 35 76 50 110c20 51 12 63 12 64c0 0 -1 1 -6 1c-96 0 -240 -194 -336 -321c-39 -54 -73 -100 -101 -130c-9 -10 -24 -11 -34 -3c-10 7 -14 21 -7 32c25 48 48 90 69 128c-6 -3 -11 -6 -16 -9c-164 -90 -299 -97 -374 -17
c-72 78 -60 219 31 359c8 12 23 15 35 8c12 -8 15 -24 8 -36c-77 -118 -92 -237 -36 -296c56 -61 172 -50 311 26c38 22 71 45 100 71c138 241 158 240 167 239c15 0 25 -10 28 -24s-3 -41 -19 -73c59 57 119 97 174 97c27 0 41 -13 48 -23c13 -21 14 -50 0 -90
c39 37 127 113 196 113c26 0 39 -13 44 -22c15 -25 6 -64 -30 -129c-13 -25 -28 -52 -43 -78c-39 -69 -111 -196 -109 -230c29 6 100 94 152 159c33 41 71 87 106 126c10 11 26 12 37 3z" />
    <glyph glyph-name="n.1" horiz-adv-x="898" 
d="M1010 339c10 -9 11 -25 1 -36c-17 -19 -44 -50 -67 -78c-85 -99 -191 -224 -241 -225c-38 -2 -54 15 -55 46c-1 42 48 118 100 198c53 79 108 164 108 204c0 7 -5 11 -20 11c-71 0 -248 -226 -357 -365c-28 -36 -52 -66 -68 -85h-1c-7 -8 -19 -12 -30 -7
c-12 6 -17 21 -11 34l20 45c14 27 29 62 48 99c-108 -78 -208 -106 -287 -95c-43 6 -82 22 -111 49c-29 26 -49 62 -58 104c-15 72 2 164 67 264c7 11 23 15 34 8c12 -8 15 -24 8 -35c-56 -88 -72 -166 -60 -227c7 -31 21 -57 44 -76c21 -20 49 -33 82 -37
c69 -9 158 16 255 89c33 25 62 52 88 80c44 84 89 163 120 193c4 8 13 13 22 13c3 0 5 -1 8 -1v-1c3 0 6 -2 9 -4c10 -8 11 -23 5 -42c-3 -9 -9 -21 -16 -35c-20 -40 -58 -98 -111 -156c-9 -19 -18 -39 -27 -59c110 138 249 298 327 298c51 0 71 -24 71 -62
c0 -56 -60 -146 -117 -232c-47 -73 -92 -143 -91 -169c0 -2 1 3 2 3c28 1 125 115 204 208c23 27 50 58 69 79c9 11 25 11 36 2z" />
    <glyph glyph-name="o.1" horiz-adv-x="728" 
d="M830 339c11 -8 13 -25 5 -35l-19 -25c-59 -81 -127 -172 -188 -172c-20 0 -37 6 -51 16c-59 -69 -133 -123 -209 -123c-32 0 -57 9 -74 28c-15 16 -23 40 -23 68c0 54 28 126 71 195c-140 -51 -271 -39 -330 34c-32 37 -68 122 31 273c8 12 24 15 35 8
c11 -8 16 -23 7 -36c-60 -91 -72 -168 -34 -213c47 -58 167 -62 292 -11c19 8 38 16 56 26c65 78 143 138 207 138c20 0 28 -10 32 -17c8 10 16 16 24 19c17 7 35 1 45 -14c36 -60 -7 -182 -55 -268c-14 -22 -27 -45 -43 -67c5 -4 11 -5 19 -5c36 0 105 94 147 151l19 26
c9 10 24 13 36 4zM544 181c-12 64 15 169 52 244c-45 -34 -113 -70 -165 -94c-61 -79 -110 -174 -110 -235c0 -16 4 -26 10 -34c7 -8 20 -11 37 -11c63 0 128 53 180 117c-2 4 -3 9 -4 13zM592 230c5 9 10 17 15 26c47 83 66 158 61 197c-28 -38 -72 -145 -76 -223z" />
    <glyph glyph-name="p.1" horiz-adv-x="870" 
d="M983 339c10 -9 11 -25 2 -35l-7 -8c-109 -122 -132 -145 -235 -163c-43 -62 -108 -131 -178 -133s-85 42 -87 56c-4 19 0 38 12 54c26 38 89 50 153 59l15 2c21 3 39 5 55 8c13 18 24 38 35 58c55 104 70 192 55 217c-3 3 -5 7 -14 6c-52 -2 -197 -164 -380 -420
c-55 -104 -100 -190 -118 -217c-45 -70 -72 -93 -92 -93v0c-9 0 -19 5 -24 12c-11 17 -1 44 53 124c40 60 88 130 138 201c8 15 17 31 25 46c13 26 26 51 39 74c-80 -61 -185 -107 -311 -98c-58 5 -102 31 -125 74c-25 49 -35 143 65 310c7 12 23 15 35 8s16 -22 9 -34
c-68 -112 -91 -208 -63 -261c17 -35 54 -44 82 -46c173 -12 304 94 384 192c95 177 102 177 119 177c9 0 18 -6 23 -14c3 -6 13 -26 -48 -121c-5 -9 -13 -20 -21 -31c84 97 160 165 207 168c25 1 46 -10 59 -30c36 -56 -6 -179 -53 -268c-3 -5 -7 -12 -11 -20
c53 17 81 49 159 137l7 7c9 11 25 11 36 2zM563 50c31 2 69 28 108 72c-2 0 -4 -1 -6 -1l-15 -2c-25 -3 -102 -13 -120 -38c-2 -3 -4 -8 -2 -16c2 -13 23 -15 35 -15z" />
    <glyph glyph-name="q.1" horiz-adv-x="687" 
d="M798 338c11 -9 11 -26 1 -36c-32 -33 -75 -83 -116 -129c-59 -66 -114 -129 -148 -160l-1 -8c-20 -94 -62 -275 -171 -275c-18 0 -35 9 -46 25c-10 17 -13 55 11 105c40 80 75 150 105 211c-48 -42 -96 -69 -138 -69c-24 -2 -45 9 -57 29c-29 48 4 135 33 194
c-112 -29 -210 -17 -262 40c-31 34 -87 136 78 336c8 11 25 13 35 4c11 -9 13 -25 3 -36c-95 -118 -125 -219 -78 -270c41 -44 140 -52 260 -10c66 109 170 222 267 222c34 0 43 -19 46 -28c16 -50 -81 -124 -123 -152c-52 -36 -104 -63 -155 -83c-3 -3 -4 -7 -6 -10
c-52 -91 -67 -161 -55 -181c2 -1 4 -4 13 -4c58 1 147 87 224 182c147 278 171 278 183 278c16 0 28 -13 29 -30c1 -31 -75 -161 -170 -279c-55 -104 -120 -231 -186 -367c-13 -27 -16 -50 -12 -55c70 0 107 166 122 233l3 18c1 5 4 10 9 14c29 25 89 94 148 159
c42 47 86 97 118 131c10 10 26 11 36 1zM565 460c-51 -6 -115 -61 -169 -131c24 12 48 27 72 43c56 40 86 70 97 88z" />
    <glyph glyph-name="r.1" horiz-adv-x="783" 
d="M882 339c11 -10 11 -26 2 -36c-10 -11 -27 -30 -47 -55c-140 -164 -219 -247 -265 -247c-24 0 -36 14 -40 21c-18 34 10 87 74 192c8 13 18 27 27 41c59 85 79 127 36 159c-2 1 -4 2 -5 3c-3 -5 -7 -10 -11 -16c-103 -162 -340 -412 -530 -399c-59 4 -104 31 -127 75
c-26 50 -36 146 66 315c7 13 23 16 35 9c13 -7 16 -22 9 -35c-69 -115 -92 -211 -64 -265c19 -36 56 -46 84 -48c140 -10 332 163 451 327c20 27 36 51 49 74c-29 35 -42 77 -30 112c10 32 38 51 76 51c27 0 39 -15 44 -24c14 -26 5 -69 -27 -131c3 -2 6 -4 10 -6
c91 -66 22 -165 -24 -231c-8 -12 -17 -25 -24 -37c-24 -37 -64 -103 -72 -133c46 24 170 170 218 227c22 25 39 45 49 56c10 10 26 10 36 1zM653 505c15 32 20 52 19 60c-23 0 -26 -11 -27 -14c-4 -11 -2 -27 8 -46z" />
    <glyph glyph-name="s.1" horiz-adv-x="736" 
d="M827 339c11 -9 12 -25 2 -36c-66 -77 -132 -113 -190 -129c-31 -93 -103 -174 -215 -174c-56 0 -96 33 -97 81c-3 54 50 116 171 125l17 1c27 2 55 4 83 9c2 13 4 24 5 37c3 30 5 62 6 92c1 9 1 19 2 29c-159 -82 -360 -180 -490 -161c-67 10 -115 44 -134 94
c-20 52 -18 146 104 296c9 12 25 13 36 4s13 -25 4 -36c-84 -102 -118 -190 -96 -246c16 -41 59 -56 93 -61c122 -18 340 93 487 170c9 76 33 136 108 137c24 0 53 -18 60 -47c6 -25 -2 -63 -75 -100c-14 -7 -29 -14 -44 -23c-1 -17 -2 -37 -3 -59c-2 -31 -3 -62 -7 -95
c0 -4 -1 -9 -2 -14c42 18 91 49 139 104c9 10 25 12 36 2zM723 520c-28 -1 -42 -19 -51 -56c4 1 8 4 12 6c43 21 50 37 49 42c0 3 -6 7 -10 8zM424 51c75 0 127 48 156 111c-22 -3 -42 -4 -62 -6l-16 -1c-93 -7 -125 -48 -124 -73c1 -18 19 -31 46 -31z" />
    <glyph glyph-name="t.1" horiz-adv-x="657" 
d="M640 443c-24 -35 -55 -74 -89 -112c-64 -119 -117 -234 -122 -276c43 12 143 91 306 281c10 11 26 13 36 3c11 -9 13 -25 3 -36c-118 -138 -274 -302 -356 -302h-3c-17 1 -38 14 -37 47c0 35 26 101 59 170c-94 -80 -204 -138 -317 -129c-59 4 -104 31 -127 75
c-26 50 -36 146 66 316c7 12 23 16 35 8c12 -7 16 -23 9 -35c-69 -115 -93 -211 -65 -266c19 -35 57 -45 85 -47c138 -9 276 95 385 219c16 28 29 53 41 72c2 4 5 8 7 12h-46c-14 0 -26 11 -26 25c0 15 12 27 26 27h76c137 234 166 234 176 234s19 -4 24 -13
c3 -7 15 -29 -89 -191c-6 -9 -13 -20 -21 -30h80c14 0 26 -12 26 -27c0 -14 -12 -25 -26 -25h-116z" />
    <glyph glyph-name="u.1" horiz-adv-x="844" 
d="M953 341c11 -9 14 -25 6 -36l-13 -17c-158 -217 -222 -287 -262 -288c-23 0 -39 9 -49 26c-13 25 -7 66 8 111c-72 -74 -146 -137 -188 -138h-2c-33 0 -50 16 -58 29c-12 20 -20 55 16 143c-78 -54 -176 -93 -294 -85c-58 5 -103 31 -126 75c-26 50 -36 145 66 313
c7 13 23 16 34 9c13 -7 16 -23 9 -35c-68 -114 -91 -210 -64 -263c19 -36 56 -46 84 -48c149 -10 267 66 349 150c1 0 1 1 1 2c2 2 127 222 159 222c9 0 19 -6 23 -14c4 -6 15 -26 -48 -122c-20 -32 -51 -76 -95 -121c-47 -85 -85 -169 -71 -199c1 -2 3 -5 16 -5
c39 1 168 135 259 240c33 59 63 105 71 117l3 6c53 82 68 98 91 98c13 0 24 -7 29 -18c10 -22 -1 -45 -58 -114c-3 -3 -5 -6 -6 -8v1c-10 -14 -42 -56 -86 -107c-59 -109 -90 -196 -77 -214h3v0c35 10 176 204 222 267l12 17c8 11 24 14 36 6z" />
    <glyph glyph-name="v.1" horiz-adv-x="864" 
d="M969 339c11 -9 12 -25 3 -36l-24 -29c-80 -96 -141 -164 -195 -167c-22 -1 -42 4 -57 16c-60 -70 -136 -124 -213 -124c-56 0 -88 32 -88 88c0 26 7 56 19 88c-79 -55 -179 -96 -300 -87c-57 4 -102 30 -125 74c-25 50 -35 145 65 313c7 12 23 16 35 9
c12 -8 16 -23 9 -35c-68 -114 -91 -210 -63 -264c18 -35 55 -45 83 -46c147 -11 263 63 345 145c12 22 24 43 35 62c65 110 108 165 127 165c9 0 19 -6 24 -14c3 -6 14 -26 -49 -123c-20 -31 -52 -76 -96 -121c-40 -76 -69 -152 -55 -187c2 -5 7 -16 34 -16
c65 0 131 53 185 118c-1 2 -2 5 -3 8c-22 99 64 310 121 333c18 6 37 0 47 -18c34 -59 -10 -174 -59 -258c-13 -23 -29 -48 -46 -71c6 -3 13 -5 23 -4c35 1 112 94 158 149l25 29c9 11 25 12 35 3zM793 450c-28 -36 -75 -141 -80 -221c6 10 12 20 17 29c49 84 68 154 63 192
z" />
    <glyph glyph-name="w.1" horiz-adv-x="1074" 
d="M1185 339c10 -9 12 -25 3 -36c-9 -10 -17 -20 -26 -31c-80 -96 -141 -165 -194 -165c-20 0 -37 6 -50 16c-59 -69 -132 -122 -209 -124h-1c-50 0 -69 29 -76 46s-9 39 -6 64c-59 -62 -120 -108 -174 -108c-25 0 -39 11 -46 20c-9 11 -14 26 -14 45c0 23 16 69 38 122
c-82 -62 -187 -110 -316 -100c-59 4 -103 31 -126 74c-26 51 -36 146 65 315c7 12 23 15 35 8s16 -23 9 -35c-69 -114 -92 -210 -64 -264c18 -35 56 -45 85 -47c162 -12 289 83 372 177c54 103 114 197 136 197c10 0 19 -6 24 -14c3 -6 13 -26 -48 -123
c-17 -25 -41 -59 -73 -96c-56 -102 -103 -208 -83 -227c0 0 2 -1 6 -1c58 0 140 89 210 183c46 113 122 228 134 239c8 8 22 11 31 7c3 -1 20 -10 15 -36c-6 -30 -62 -136 -136 -237c-24 -60 -38 -116 -27 -144c3 -5 7 -14 29 -14c64 1 129 54 181 118c-1 5 -3 9 -4 14
c-18 103 62 305 117 326c17 6 35 0 44 -16c36 -58 -4 -171 -50 -255c-14 -24 -29 -50 -47 -74c5 -4 12 -5 19 -5c33 0 112 96 155 147c9 11 17 21 26 31c9 11 25 12 36 3zM1008 447c-27 -38 -68 -138 -74 -215c6 10 12 20 17 30c46 83 62 148 57 185z" />
    <glyph glyph-name="x.1" horiz-adv-x="946" 
d="M1071 340c11 -9 13 -25 5 -36c-154 -201 -247 -304 -320 -304c-17 0 -32 7 -44 19c-32 34 -38 107 -36 190c-109 -94 -217 -182 -290 -209c-4 -1 -7 -1 -9 -1c-11 0 -21 6 -25 16c-4 14 3 28 16 33c73 27 198 132 311 231c1 7 1 13 1 19c1 18 2 33 2 41
c1 65 -5 104 -17 117c-2 2 -4 4 -10 3c-10 -4 -44 -42 -71 -73c-77 -87 -193 -217 -341 -255c-105 -25 -193 -6 -237 53c-36 50 -57 147 52 329c8 12 23 16 35 9c12 -8 16 -23 9 -35c-74 -123 -93 -220 -55 -272c31 -43 100 -55 184 -34c132 34 242 157 314 239
c51 58 80 89 109 90c17 0 35 -6 47 -18c30 -30 33 -91 32 -153v-12h1c149 133 210 184 246 184h1c23 0 37 -11 45 -19c14 -16 18 -39 14 -68c-3 -14 -16 -23 -30 -22c-14 2 -23 16 -22 30c4 16 1 25 -1 27c-1 0 -3 1 -6 1c-25 -4 -130 -96 -213 -171
c-14 -11 -26 -22 -39 -34c-4 -70 -5 -174 20 -201c3 -3 5 -3 7 -3c56 0 174 147 279 284c9 11 24 13 36 5z" />
    <glyph glyph-name="y.1" horiz-adv-x="875" 
d="M1003 339c11 -10 12 -26 2 -37l-33 -37c-73 -81 -183 -203 -304 -271c-21 -12 -40 -23 -57 -32c-25 -47 -50 -88 -78 -124c-56 -72 -115 -108 -175 -108c-66 0 -79 41 -81 53c-10 46 28 98 87 123l45 18c62 27 106 45 164 76c22 42 44 87 65 134
c-72 -75 -145 -138 -188 -139c-34 -1 -49 17 -55 27c-12 20 -19 55 18 145c-78 -53 -176 -93 -294 -84c-58 4 -104 30 -126 74c-26 50 -36 145 65 314c8 12 24 16 35 8c12 -7 16 -22 9 -35c-69 -114 -92 -210 -64 -263c18 -36 56 -45 85 -47c148 -12 266 66 348 150
c2 3 4 7 7 11c20 35 121 212 153 212c9 0 18 -6 23 -14c3 -6 14 -26 -48 -122c-20 -31 -52 -76 -95 -121c-47 -86 -86 -172 -72 -201c0 -1 1 -3 10 -3c40 1 177 144 268 251c20 37 41 73 61 106l4 6c53 82 71 102 93 102c13 0 24 -7 29 -18c11 -22 -3 -49 -60 -118
c-3 -4 -5 -6 -6 -8v1c-9 -12 -37 -49 -75 -94c-25 -48 -49 -99 -72 -149c-13 -27 -27 -55 -39 -82c111 65 213 180 282 256l33 38c10 10 26 11 36 2zM493 -130c12 15 24 33 36 51c-32 -14 -63 -27 -101 -43l-45 -19c-41 -18 -60 -50 -57 -65c2 -12 23 -13 32 -13
c44 0 89 30 135 89z" />
    <glyph glyph-name="z.1" horiz-adv-x="801" 
d="M921 339c10 -10 10 -26 0 -37c-95 -101 -153 -162 -197 -200c-17 -14 -34 -26 -53 -37c-72 -147 -278 -335 -422 -335c-65 0 -72 42 -73 54c-5 79 90 139 163 177c91 48 156 77 208 101c35 15 62 28 86 41c8 19 13 37 13 53c0 10 -2 18 -5 23c-46 -31 -93 -52 -135 -52
c-68 0 -71 42 -71 50c0 39 52 80 134 80c30 0 54 -5 75 -14c53 43 104 100 130 150c18 35 17 52 14 57c-2 2 -6 8 -31 8c-93 -1 -164 -64 -248 -146l-10 -9c-37 -36 -75 -72 -115 -104c-126 -95 -274 -113 -352 -44c-37 34 -107 134 27 356c7 12 23 16 35 8
c13 -7 16 -22 9 -35c-79 -131 -93 -240 -37 -290c59 -54 182 -33 287 46c38 29 75 65 110 99l10 10c76 74 162 159 284 161c14 0 52 0 73 -31c18 -26 14 -63 -11 -110c-26 -48 -78 -111 -137 -160c10 -14 15 -32 15 -53c0 -3 0 -7 -1 -10c42 37 102 99 188 191
c10 11 26 11 37 2zM506 178c24 0 53 10 82 27c-6 0 -12 1 -19 1c-47 0 -73 -17 -80 -26c3 -1 9 -2 17 -2zM249 -218c105 0 258 126 340 242l-21 -9c-51 -23 -116 -52 -206 -100c-92 -47 -137 -91 -135 -128c0 -1 4 -5 22 -5z" />
    <glyph glyph-name="A.1" horiz-adv-x="657" 
d="M3122 -243c6 -13 1 -29 -12 -35c-4 -3 -8 -3 -12 -3c-10 0 -19 5 -23 14c-29 57 -120 93 -233 93h-2174c-129 7 -204 36 -236 92c-43 75 0 178 52 278c4 8 8 15 12 23c-23 8 -47 19 -71 30c-37 17 -75 34 -111 46c-125 -184 -207 -296 -280 -296c-25 0 -44 10 -55 29
c-34 55 16 162 32 193c75 144 178 160 281 135c137 203 279 406 416 406c30 0 45 -17 51 -27c36 -61 -42 -214 -174 -461c-18 -35 -37 -69 -54 -103c-61 -115 -77 -185 -54 -226c23 -39 88 -61 192 -66h2173c137 0 241 -46 280 -122zM34 51c47 0 140 132 226 258
c-14 2 -28 4 -41 4c-61 0 -116 -30 -161 -115c-34 -68 -45 -126 -34 -143c1 -1 2 -4 10 -4zM447 297c25 -12 50 -23 74 -32c6 11 12 23 18 34c71 132 203 377 174 410c0 0 -2 1 -5 1c-107 0 -247 -198 -364 -370c35 -13 70 -28 103 -43z" />
    <glyph glyph-name="B.1" horiz-adv-x="734" 
d="M2920 -235c4 -15 -5 -29 -19 -32s-28 6 -31 20c-8 33 -33 59 -71 79c-43 21 -101 33 -166 33h-2141v0h-1l-7 1c-35 1 -70 3 -102 8c-76 12 -131 43 -116 125c0 4 2 9 3 14c-15 6 -25 16 -32 28c-8 16 -9 32 -6 48c3 15 10 30 19 43c20 32 56 54 80 48
c31 -8 31 -44 20 -86c-4 -13 -8 -27 -13 -40c78 2 143 26 193 63c61 45 103 110 119 173c7 22 10 45 10 66c0 20 -3 38 -9 55c-24 -8 -51 -12 -80 -12c-42 0 -69 14 -82 31c-7 10 -10 20 -10 30s3 20 10 29c12 18 38 31 75 31c17 0 31 -2 44 -4c27 -8 48 -23 65 -42
c29 16 51 39 63 65c10 17 15 36 15 53c1 19 -3 35 -10 52c-19 37 -62 67 -132 67c-10 0 -20 -1 -30 -3c-17 -33 -34 -66 -52 -98c-57 -109 -113 -212 -182 -325c-46 -73 -93 -143 -139 -196c-50 -54 -102 -90 -151 -88c-43 1 -70 20 -81 52c-11 31 -7 70 8 116
c14 43 37 91 69 141c111 183 320 398 495 443c10 18 19 37 30 55c7 13 22 17 34 10c13 -7 17 -22 11 -35c-4 -7 -8 -14 -11 -21c92 0 150 -42 177 -97c12 -23 16 -48 15 -73c-1 -26 -7 -52 -19 -76c-17 -34 -45 -64 -84 -86c8 -22 12 -47 12 -74c0 -25 -4 -52 -11 -80
c-19 -72 -66 -147 -138 -201c-60 -44 -139 -73 -232 -73h-10c-2 -5 -3 -9 -3 -12c-6 -41 28 -57 73 -65c31 -5 65 -6 97 -8h6h1h2140c74 0 139 -13 189 -39c51 -26 87 -65 98 -113zM481 634c9 18 19 36 28 53c-149 -63 -319 -246 -415 -404c-29 -47 -51 -92 -64 -130
c-12 -35 -16 -64 -8 -82c3 -11 15 -18 34 -19c32 0 70 28 111 73c44 49 88 116 132 187c69 113 125 215 182 322zM529 460c6 -5 19 -9 41 -9c16 0 31 2 46 4c-7 5 -15 8 -22 10c-9 3 -19 4 -30 4c-19 0 -29 -4 -35 -9zM282 85c-2 -5 -3 -12 -2 -16c1 -2 2 -4 4 -6
c6 19 12 38 16 52c-7 -8 -15 -19 -18 -30z" />
    <glyph glyph-name="C.1" horiz-adv-x="587" 
d="M2920 -245c6 -13 1 -28 -13 -35c-3 -2 -7 -2 -11 -2c-10 0 -19 5 -24 14c-28 58 -118 94 -234 94h-2175c-190 8 -242 82 -253 142c-2 12 -3 24 -2 35c-12 -2 -22 -4 -32 -4c-88 0 -148 28 -179 83c-44 80 -17 208 74 353c45 72 107 147 175 206c-20 22 -33 47 -36 75
c-1 14 10 27 24 28c15 1 28 -9 29 -24s10 -31 24 -45c67 50 138 85 204 88c52 3 94 -15 115 -49c17 -28 16 -62 -2 -91c-13 -21 -55 -70 -165 -63c-52 3 -108 20 -152 48c-65 -56 -127 -129 -172 -201c-78 -124 -105 -239 -72 -299c21 -37 65 -56 133 -56c11 0 25 3 42 9
c38 118 165 238 247 273c59 26 87 3 97 -12c9 -11 15 -31 0 -62c-34 -67 -186 -186 -299 -237c-3 -16 -4 -31 -1 -45c13 -75 117 -96 202 -100h2174c139 0 244 -46 282 -123zM485 286c-64 -28 -148 -108 -193 -190c65 38 140 92 189 143c31 33 38 52 38 55
c0 -1 -11 1 -34 -8zM494 710c-51 -2 -107 -28 -162 -67c31 -17 70 -28 111 -31c83 -5 110 28 117 39c7 12 7 25 1 36c-10 16 -35 25 -67 23z" />
    <glyph glyph-name="C.2" horiz-adv-x="479" 
d="M2744 887c14 -3 23 -17 20 -31c-21 -94 -136 -156 -291 -156l-1688 1c-37 0 -75 0 -111 -2c-36 -1 -59 -5 -80 -10c4 -24 0 -51 -14 -75c-17 -32 -47 -52 -79 -52c-26 0 -45 16 -50 39c-7 35 20 78 63 108c-8 2 -16 2 -23 2c-128 -7 -288 -158 -379 -303
c-78 -125 -106 -241 -72 -302c20 -37 65 -56 133 -56c109 0 216 95 353 247l50 56c9 11 26 12 37 2c11 -9 12 -26 2 -37l-49 -55c-121 -134 -251 -265 -393 -265c-89 0 -149 28 -179 83c-45 79 -18 208 73 354c96 153 268 320 421 328c43 2 69 -13 83 -27
c31 10 60 14 101 16c37 2 76 1 113 1h38h1650c128 0 224 46 240 115c3 14 17 23 31 19zM534 640c5 8 8 17 9 25c-25 -17 -38 -39 -40 -50c13 2 24 11 31 25z" />
    <glyph glyph-name="D.1" horiz-adv-x="753" 
d="M2943 -237c4 -13 -5 -27 -19 -29c-14 -4 -29 4 -32 19c-6 32 -33 60 -71 79c-42 22 -99 33 -165 33h-2143v1l-1 -1l1 26v1l-1 -27h-8c-33 2 -70 4 -102 9c-75 13 -130 43 -117 124c1 4 3 9 4 14c-3 2 -6 3 -8 5c-17 9 -25 24 -29 40c-4 15 -2 30 3 45c7 24 26 49 48 64
c0 1 1 1 1 2v0c32 21 54 17 67 -3c15 -22 2 -69 -13 -112c162 10 286 145 345 292c19 48 31 97 35 144c3 45 -1 87 -15 122c-22 60 -71 100 -152 100c-8 0 -17 -2 -26 -3c-9 -18 -18 -38 -28 -58c-36 -73 -74 -156 -101 -208c-47 -94 -103 -202 -160 -287
c-61 -90 -127 -155 -193 -154c-47 2 -74 24 -87 59c-11 30 -8 72 6 117c12 43 34 92 63 144c103 181 295 388 463 433c12 23 21 42 27 53c6 13 21 18 35 11c13 -6 18 -21 10 -34c-2 -6 -6 -13 -10 -22h1c107 0 172 -54 201 -134c16 -41 21 -92 17 -143
c-4 -52 -17 -105 -37 -158c-66 -166 -211 -320 -402 -325h-9c-2 -5 -3 -9 -4 -11c-6 -42 28 -58 74 -66c29 -5 64 -7 96 -8h6h1h2142c74 0 139 -15 190 -39c52 -26 87 -65 97 -115zM468 671c4 6 7 12 9 18c-142 -60 -298 -237 -385 -393c-28 -48 -48 -93 -59 -132
c-11 -38 -14 -68 -7 -87c5 -15 16 -24 38 -24c45 -1 97 54 148 131c56 82 111 188 158 281c25 50 64 133 98 206zM304 85c-1 -5 -2 -12 -1 -16c0 -2 1 -4 3 -6c6 19 13 38 17 52c-8 -8 -15 -19 -19 -30z" />
    <glyph glyph-name="E.1" horiz-adv-x="579" 
d="M2903 -242c7 -13 1 -28 -11 -35c-4 -2 -8 -3 -12 -3c-10 0 -19 6 -23 15c-30 58 -119 93 -233 93h-2169c-188 9 -240 83 -251 142c-2 12 -3 24 -2 36c-46 -9 -95 -7 -143 15c-38 18 -65 47 -77 84c-18 53 -7 119 31 186c41 76 120 157 218 198c-3 11 -5 23 -5 35
c0 30 9 64 25 96c-33 25 -56 58 -59 95c-2 14 8 27 23 28c14 2 27 -9 29 -23c1 -19 15 -38 34 -55c42 55 108 97 190 97c54 0 96 -20 115 -56c15 -27 14 -60 -3 -87c-27 -43 -86 -64 -161 -59c-41 2 -85 14 -123 32c-11 -23 -17 -46 -17 -68c0 -5 1 -11 2 -17
c28 8 58 12 88 12c56 0 81 -31 81 -59c0 -18 -10 -35 -28 -46c-16 -10 -38 -16 -63 -16c-42 0 -77 13 -100 38l-6 6c-87 -36 -157 -108 -194 -176c-30 -54 -40 -107 -28 -144c8 -24 25 -42 50 -53c44 -20 88 -19 132 -6c37 117 163 236 245 270c59 26 87 5 98 -10
c38 -51 -54 -137 -138 -201c-42 -31 -98 -73 -161 -99c-4 -15 -4 -30 -2 -44c14 -74 117 -94 202 -98h2167c136 0 240 -46 279 -123zM478 286c-65 -28 -150 -110 -195 -191c35 19 70 44 104 69c88 67 121 114 125 129h-5c-6 0 -16 -2 -29 -7zM369 467c-20 0 -39 -2 -57 -6
c12 -7 28 -10 47 -10c28 0 38 8 39 11c-1 -2 -9 4 -29 5zM468 710c-61 0 -112 -32 -144 -73c29 -14 63 -23 99 -25c54 -4 97 9 113 35c7 11 7 23 2 34c-10 18 -36 29 -70 29z" />
    <glyph glyph-name="E.2" horiz-adv-x="466" 
d="M2707 885c14 -3 23 -17 20 -30c-21 -94 -134 -154 -289 -154h-1668c-36 0 -73 0 -109 -1c-36 -2 -58 -6 -79 -12c1 -6 1 -12 1 -17c0 -51 -38 -107 -93 -107c-32 0 -47 20 -50 38c-7 34 19 77 61 106c-7 2 -15 3 -24 3c-93 0 -178 -71 -194 -161c-3 -15 -3 -29 -2 -41
c30 8 59 12 89 12c54 0 80 -30 80 -58c0 -19 -10 -35 -29 -47c-15 -10 -37 -15 -61 -15c-57 0 -88 24 -105 43v1c-131 -55 -228 -194 -228 -289c0 -88 78 -106 143 -106c101 0 247 112 400 306c9 12 26 13 37 4s13 -25 4 -36c-166 -210 -323 -326 -441 -326
c-122 0 -195 59 -195 158c0 123 113 272 257 335c-4 21 -5 44 0 69c20 115 126 203 245 203c37 0 63 -11 80 -28c31 10 60 15 101 17c38 1 76 1 112 1h37h1631c127 0 223 45 238 113c3 14 17 23 31 19zM370 469c-20 0 -39 -2 -57 -6c12 -6 27 -10 47 -10c27 0 37 9 38 11
c0 -1 -8 5 -28 5zM491 617c22 3 38 26 40 49c-24 -17 -37 -39 -40 -49z" />
    <glyph glyph-name="F.1" horiz-adv-x="586" 
d="M2688 -240c2 -14 -6 -27 -20 -31c-15 -2 -29 6 -32 20c-8 33 -33 60 -72 80c-44 22 -102 34 -168 34h-2165h-1v0c-187 8 -237 70 -234 146c0 6 1 12 2 18c-9 9 -15 19 -20 31c-8 20 -9 44 -5 68c4 21 12 44 22 64c25 51 66 88 99 81c36 -7 44 -29 37 -62
c-5 -21 -19 -47 -34 -76c-13 -25 -28 -53 -38 -79c5 -1 11 -2 18 -2c77 0 141 125 206 250l4 8c16 31 22 43 27 51c4 10 9 18 13 27c-15 -4 -31 -7 -47 -12c-15 -3 -29 4 -32 18c-4 14 3 28 17 32c33 9 63 16 94 21c59 112 117 201 213 261c-136 5 -287 4 -393 -26
c-80 -23 -120 -68 -130 -109c-4 -18 -3 -36 3 -51c6 -13 15 -24 28 -30c25 -13 61 -10 106 20c11 8 27 5 36 -7c8 -12 5 -28 -7 -36c-63 -43 -119 -44 -160 -24c-24 13 -41 34 -52 59c-9 23 -12 51 -5 79c13 59 64 119 166 149c142 40 352 31 510 24h4c41 13 88 23 142 29
c12 1 23 1 33 1c14 0 25 -2 35 -6c14 -6 24 -17 25 -33c0 -1 2 -2 2 -3c-1 -1 -1 -1 -1 -2h1c-2 -36 -60 -43 -149 -41c-25 1 -51 2 -78 2c-128 -44 -198 -130 -263 -244c25 4 50 7 78 11c2 0 5 1 9 1c32 33 69 53 100 55c30 2 50 -1 60 -8c15 -7 20 -19 17 -34
c-1 -9 -7 -18 -17 -25c-16 -12 -50 -25 -99 -32c-10 -1 -22 -3 -35 -5c-22 -25 -42 -59 -54 -100c-4 -14 -19 -21 -33 -17s-22 19 -17 32c8 29 20 53 33 76c-25 -4 -49 -7 -73 -11c-11 -21 -21 -42 -33 -65v0l-27 -51l-5 -8c-71 -139 -142 -278 -252 -278c-11 0 -20 1 -29 3
c1 -46 42 -82 184 -89h2164c75 0 141 -14 192 -38c52 -28 89 -67 100 -116zM43 168c-9 -17 -14 -35 -18 -51v-9c8 17 17 33 25 49c14 26 26 48 29 63c1 1 5 0 3 1c-7 1 -25 -24 -39 -53z" />
    <glyph glyph-name="G.1" horiz-adv-x="515" 
d="M2712 -229c6 -13 1 -28 -12 -34s-28 -1 -35 12c-14 27 -41 50 -79 65c-40 17 -91 27 -150 27h-2038h-74c-36 1 -73 1 -108 1c-48 -59 -101 -112 -179 -112c-41 0 -78 16 -93 60c-1 4 -1 6 -1 9v1v0c-2 20 7 38 29 53c15 10 39 20 73 27c17 3 37 6 60 9c25 2 54 3 84 4
c39 53 70 118 95 171l10 22c2 3 3 6 5 8c-33 -25 -62 -45 -89 -60c-44 -23 -84 -33 -117 -33c-56 0 -88 23 -103 64c-11 31 -10 72 3 118c12 44 32 93 59 144c60 111 153 230 253 316c-20 21 -34 45 -36 72c-2 15 9 27 24 28c14 1 27 -9 28 -23c1 -16 10 -31 24 -45
c71 53 144 87 208 87c53 0 88 -22 105 -52c8 -15 11 -31 9 -47c0 -16 -6 -31 -17 -46c-24 -34 -76 -60 -156 -56c-54 4 -108 22 -150 49c-95 -81 -186 -199 -246 -308c-25 -47 -44 -91 -54 -131c-10 -36 -12 -67 -5 -89c7 -18 24 -29 54 -29c25 -1 56 7 92 27
c34 18 73 46 116 85c23 20 46 45 68 71c44 82 83 154 119 207c14 20 26 37 36 46c23 26 43 29 59 4c3 -5 5 -13 5 -24c-1 -24 -34 -84 -91 -160c-25 -34 -55 -70 -84 -103c-27 -51 -52 -100 -72 -142l-10 -21c-21 -46 -47 -100 -78 -150h72c21 0 42 -1 73 -1h2038
c65 0 123 -11 170 -30c50 -21 87 -52 106 -91zM612 685c-8 15 -28 26 -59 26c-50 0 -108 -26 -164 -67c32 -17 71 -28 108 -31c60 -4 96 13 110 34c5 6 8 13 8 20c1 7 0 12 -3 18zM37 -219c43 0 73 30 105 58c-10 0 -22 -1 -32 -2c-22 -1 -39 -5 -54 -7
c-27 -5 -45 -12 -55 -19c-5 -4 -7 -6 -7 -8c10 -17 22 -22 43 -22z" />
    <glyph glyph-name="G.2" horiz-adv-x="562" 
d="M2764 884c14 -3 22 -17 19 -31c-22 -94 -132 -153 -288 -153h-1633c-36 1 -73 1 -109 -1c-44 -1 -68 -7 -93 -15c3 -11 5 -22 5 -33c0 -53 -32 -92 -72 -92c-29 0 -50 16 -55 42c-5 29 13 70 48 100c-10 6 -23 9 -40 9c-87 0 -197 -76 -318 -220
c-136 -164 -222 -350 -191 -415c4 -10 14 -24 49 -24c31 0 101 15 208 114c23 21 46 44 69 69c22 43 46 85 68 123c99 171 107 156 127 151c5 -1 24 -8 23 -38c-2 -41 -84 -162 -175 -265c-24 -45 -47 -90 -68 -133c2 0 3 1 4 1c102 46 143 91 264 226l34 38
c9 10 26 11 36 1s11 -26 2 -36l-33 -38c-124 -137 -169 -187 -281 -238c-11 -5 -27 -11 -48 -19c-3 -1 -7 -4 -11 -5c-56 -117 -137 -272 -281 -272c-46 0 -82 30 -88 63c-19 93 156 177 331 249c4 8 7 16 11 23l10 20c1 3 2 6 4 9c-77 -62 -147 -94 -206 -94
c-60 0 -85 28 -97 53c-48 102 70 315 199 469c133 159 253 240 358 240c45 0 72 -17 87 -33c39 14 69 20 118 22c37 2 75 1 111 1h37h1596c128 0 222 45 238 113c3 14 17 22 31 19zM24 -218c94 0 159 98 208 189c-170 -74 -252 -131 -245 -169c1 -4 15 -20 37 -20zM593 610
c9 0 20 18 20 41c0 1 -1 3 -1 5c-17 -19 -25 -38 -23 -46v0h4z" />
    <glyph glyph-name="H.1" horiz-adv-x="691" 
d="M3128 -232c6 -13 1 -29 -12 -35c-3 -2 -7 -3 -11 -3c-10 0 -19 6 -23 15c-29 56 -117 92 -231 92h-2145c-61 2 -116 14 -158 33c-45 21 -73 52 -85 93c-31 98 46 228 97 314c2 2 3 5 5 7c-93 -54 -193 -52 -279 -49c-76 -133 -154 -236 -240 -236c-54 0 -71 34 -76 49
c-11 38 8 88 43 112c12 8 28 5 36 -7s5 -28 -7 -36c-15 -11 -27 -38 -22 -54c1 -3 4 -12 26 -12c83 0 183 184 271 347c35 65 70 129 104 185c-15 -3 -31 -5 -48 -7c-112 -15 -228 -30 -281 -59c-62 -36 -79 -91 -63 -128c13 -32 50 -43 98 -28c13 4 28 -4 32 -18
c4 -13 -4 -28 -17 -32c-88 -27 -142 14 -161 58c-25 58 -3 142 86 193c61 34 177 49 300 65c26 4 58 8 93 13c52 73 105 122 162 122c49 0 75 -29 78 -58c8 -65 -82 -92 -210 -112c-43 -63 -86 -143 -127 -218c-16 -30 -32 -59 -47 -88c105 -2 221 5 316 126c2 3 9 12 21 25
c0 1 0 1 1 1c78 131 199 323 240 323c13 -1 25 -7 30 -18c13 -26 3 -66 -228 -336c-22 -37 -45 -76 -67 -115c-6 -12 -15 -26 -24 -42c-47 -78 -117 -196 -93 -273c8 -26 27 -45 58 -60c36 -16 83 -27 137 -29h2144c135 0 239 -45 277 -120zM622 710c-27 0 -56 -22 -86 -57
c63 13 114 28 112 46c0 5 -9 11 -26 11z" />
    <glyph glyph-name="I.1" horiz-adv-x="421" 
d="M2611 -233c7 -13 1 -28 -12 -35c-14 -5 -30 0 -35 12c-13 28 -41 50 -80 66c-39 17 -91 27 -150 27h-2044h-75c-35 0 -70 1 -104 1c-11 -12 -22 -22 -32 -32c-47 -42 -100 -71 -159 -71c-21 0 -39 4 -54 12c-17 10 -30 24 -34 42h1v4l-1 1v1v0v0c-1 21 8 39 30 54
c16 11 40 20 73 27c17 3 37 6 60 9c28 3 59 4 91 4c23 27 44 58 63 89c70 115 121 234 172 352c27 58 52 118 81 179c15 30 29 58 43 84c-56 -19 -117 -34 -172 -49c-65 -19 -120 -34 -139 -45c-37 -20 -55 -50 -60 -78c0 -12 2 -23 6 -33s12 -19 21 -25
c24 -16 62 -21 118 -3c13 5 28 -2 33 -15c4 -14 -3 -29 -17 -34c-72 -23 -127 -16 -163 9c-19 12 -31 28 -41 47c-7 19 -10 39 -7 60c4 42 32 88 85 117c25 14 82 29 151 48c74 21 162 46 228 71c5 9 10 17 15 24c38 51 80 80 129 73c21 -3 29 -16 26 -34
c-3 -23 -51 -56 -62 -63l-1 -1v0v0v0c-18 -14 -43 -28 -74 -41c-23 -38 -47 -84 -70 -134c-29 -58 -56 -118 -81 -178c-53 -119 -104 -239 -177 -358c-12 -20 -27 -41 -40 -62h63c22 0 42 -1 74 -1h2044c66 0 125 -10 172 -31c49 -20 85 -51 105 -90zM-80 -213
c40 0 79 19 114 48c-11 0 -23 -1 -34 -2c-21 -2 -38 -5 -55 -8c-26 -4 -43 -11 -54 -19c-5 -4 -6 -5 -6 -7s3 -4 5 -7c8 -3 17 -5 30 -5z" />
    <glyph glyph-name="J.1" horiz-adv-x="559" 
d="M2734 -234c6 -13 1 -29 -12 -34c-13 -7 -29 -1 -34 11c-14 28 -42 50 -80 66c-41 18 -93 26 -152 26h-2046c-22 0 -50 1 -81 1c-31 1 -65 1 -99 1c-13 -13 -26 -26 -39 -38c-25 -22 -49 -37 -75 -47c-27 -11 -55 -15 -90 -17h-11c-30 0 -55 6 -74 15
c-24 13 -39 32 -40 56v2v0v0v0v1v0c0 21 11 41 37 55c17 9 42 16 77 20c41 4 115 5 191 5c3 5 7 8 10 13c19 24 37 49 52 76c69 113 126 235 181 358c22 48 45 96 69 148c17 34 33 67 50 97c-95 -12 -198 -26 -264 -65c-44 -23 -65 -58 -69 -88c-2 -13 -1 -25 3 -35
c4 -11 11 -20 20 -25c16 -14 44 -19 80 -7c14 3 29 -4 32 -17c4 -14 -3 -29 -17 -32c-53 -17 -97 -8 -127 13c-16 13 -29 30 -36 49s-10 39 -7 61c7 45 36 94 95 126c79 46 196 60 298 73l24 3c9 14 17 27 26 39c39 54 79 86 122 86c19 0 35 -4 47 -11c16 -8 27 -21 32 -36
c10 -30 3 -54 -21 -73c-17 -15 -43 -26 -75 -35c-28 -7 -62 -13 -99 -18c-22 -37 -44 -80 -67 -127c-23 -46 -45 -97 -68 -148c-57 -123 -114 -247 -185 -364c-12 -20 -26 -41 -41 -61c20 0 40 -1 58 -1c31 -1 60 -1 81 -1h2046c66 0 125 -10 172 -30c49 -21 86 -52 106 -91
zM748 710c-24 0 -50 -24 -79 -63c18 3 34 6 48 10c26 7 45 15 56 25c6 4 7 10 6 15c-1 4 -4 6 -9 8c-5 4 -13 5 -22 5zM97 -200c20 8 38 19 59 37c-56 0 -105 -2 -136 -4c-27 -4 -45 -8 -57 -14c-7 -4 -10 -8 -10 -10v0v0v0v-1c0 -4 4 -8 12 -12c12 -5 29 -10 50 -10
c3 0 6 0 7 1c31 1 55 5 75 13z" />
    <glyph glyph-name="K.1" horiz-adv-x="675" 
d="M3129 -233c7 -13 2 -28 -11 -35c-4 -2 -8 -3 -11 -3c-10 0 -20 5 -24 14c-28 57 -118 93 -230 93h-2148c-244 11 -265 129 -288 265c-8 47 -17 94 -33 144c-7 21 -15 36 -24 48c-13 -4 -26 -5 -40 -7c-87 -157 -172 -288 -269 -288c-55 0 -72 35 -76 50
c-12 37 7 87 43 112c11 8 27 5 35 -7c9 -12 5 -28 -6 -36c-16 -11 -28 -38 -23 -54c2 -4 4 -13 27 -13c65 0 140 113 211 240c-25 8 -38 25 -38 42c0 42 50 42 75 42c3 0 6 -1 10 -1c4 9 9 17 13 25c35 65 70 129 104 185c-15 -2 -31 -5 -48 -7c-113 -15 -229 -30 -281 -59
c-63 -35 -80 -91 -65 -127c14 -33 51 -44 99 -29c14 4 28 -4 33 -17c4 -14 -4 -29 -18 -33c-89 -27 -142 15 -161 58c-25 58 -4 142 86 193c61 34 177 50 300 66c26 3 59 8 94 13c52 73 106 122 162 122c50 0 75 -29 78 -58c8 -66 -81 -92 -210 -112
c-43 -63 -86 -144 -127 -219c-3 -5 -6 -10 -8 -14l15 -9c111 36 221 142 319 238c99 96 177 173 248 173c44 0 81 -20 95 -52c14 -29 7 -62 -18 -91c-9 -11 -25 -12 -36 -3s-12 26 -3 36c7 8 17 23 11 36c-6 11 -23 22 -49 22c-51 0 -129 -77 -212 -158
c-97 -95 -203 -198 -318 -243c8 -14 15 -30 20 -47c19 -54 28 -106 36 -152c23 -132 37 -213 238 -222h2147c135 0 239 -45 276 -121zM627 711c-27 0 -56 -22 -86 -57c63 12 115 27 112 46c0 5 -9 11 -26 11z" />
    <glyph glyph-name="K.2" horiz-adv-x="696" 
d="M3213 884c14 -3 23 -17 20 -31c-22 -95 -133 -153 -289 -153c-303 -6 -621 -4 -927 -1c-315 2 -642 5 -953 -1c-187 -4 -249 -63 -361 -172c-21 -19 -43 -41 -68 -64c-64 -60 -138 -123 -222 -155c23 -40 33 -92 43 -138c15 -76 25 -122 61 -122c16 5 75 55 250 270
c12 14 21 25 26 32c10 11 26 12 37 3c11 -10 12 -26 3 -37c-5 -6 -14 -18 -26 -32c-172 -211 -248 -286 -288 -288h-3c-79 0 -96 87 -112 164c-11 59 -22 105 -43 133c-14 -3 -27 -5 -40 -6c-87 -157 -173 -287 -270 -287c-54 0 -71 34 -75 49c-12 37 7 87 42 112
c12 8 28 4 36 -7c8 -12 5 -29 -7 -36c-15 -11 -26 -39 -21 -54c1 -4 3 -13 25 -13c66 0 140 113 212 240c-25 8 -39 26 -39 42c0 10 4 20 11 27c15 15 40 14 61 14c4 0 8 0 13 -1c5 9 9 17 14 26c35 65 69 129 104 184l-48 -6c-112 -15 -229 -30 -282 -60
c-62 -35 -79 -90 -63 -127c14 -32 51 -43 98 -28c13 4 28 -4 32 -17c5 -14 -3 -29 -17 -33c-89 -28 -142 14 -161 58c-25 57 -3 143 86 193c62 34 177 50 300 66c26 3 59 8 94 13c52 73 106 122 163 122c49 0 74 -30 77 -58c8 -66 -82 -92 -211 -112
c-43 -64 -86 -144 -127 -220c-2 -5 -5 -9 -8 -14c6 -3 11 -6 16 -10c84 26 158 90 224 151c25 23 47 44 67 64c118 114 189 182 396 185c312 7 639 5 954 2c306 -2 623 -5 927 1c129 0 222 44 239 112c3 14 17 23 30 20zM629 711c-28 0 -57 -22 -88 -57c64 12 115 27 113 45
c0 6 -10 12 -25 12z" />
    <glyph glyph-name="L.1" horiz-adv-x="541" 
d="M3060 -232c7 -12 2 -28 -11 -34c-3 -2 -8 -3 -11 -3c-10 0 -19 5 -24 14c-28 56 -118 92 -230 92h-2142c-172 0 -270 73 -366 144c-22 17 -45 34 -68 50c-34 -22 -70 -33 -109 -29c-62 4 -105 27 -118 62c-8 21 -3 43 13 60c24 25 68 31 115 15c35 -12 67 -28 97 -46
c83 67 161 208 233 337c30 54 59 106 87 153c-15 -3 -32 -5 -48 -7c-113 -15 -229 -30 -281 -60c-63 -35 -80 -90 -64 -127c14 -32 51 -43 97 -28c14 4 28 -3 33 -17c4 -14 -4 -28 -17 -33c-88 -27 -142 14 -160 58c-25 57 -3 142 86 193c60 34 176 49 299 65
c25 4 59 8 94 13c52 74 104 122 162 122c42 0 73 -24 77 -58c7 -65 -82 -92 -209 -112c-37 -54 -74 -121 -111 -187c-73 -132 -148 -266 -232 -341c19 -14 37 -28 55 -41c93 -69 180 -134 335 -134h2142c135 0 239 -45 276 -121zM727 710c-28 0 -56 -22 -87 -57
c63 13 114 28 113 46c-1 4 -9 11 -26 11zM103 53c18 -1 36 2 53 9c-20 11 -41 20 -64 28c-13 4 -25 6 -34 6c-13 0 -23 -3 -27 -8c-3 -2 -3 -4 -2 -6c3 -8 23 -25 74 -29z" />
    <glyph glyph-name="M.1" horiz-adv-x="939" 
d="M3429 -232c6 -13 1 -29 -12 -34c-3 -3 -7 -3 -11 -3c-10 0 -19 5 -24 15c-27 56 -115 92 -229 92h-2142c-111 0 -194 32 -239 94s-52 147 -19 253c21 70 64 169 113 267c-18 -17 -37 -33 -58 -51c-70 -59 -140 -120 -201 -175c-14 -41 -30 -79 -48 -112
c-22 -42 -70 -115 -128 -115c-29 1 -42 15 -47 26c-11 26 5 58 59 117c31 32 72 71 118 113c37 122 46 267 -8 359c-22 -46 -49 -100 -78 -159c-6 -11 -13 -26 -21 -43c-45 -93 -120 -249 -212 -341c-91 -93 -184 -92 -230 -52c-42 36 -63 118 20 230c30 42 63 77 101 105
c11 9 28 7 36 -4c9 -11 7 -28 -4 -36c-35 -26 -64 -57 -91 -95c-58 -78 -56 -137 -29 -161c30 -26 95 -17 161 49c85 87 158 237 201 327c8 18 16 33 21 44c35 68 65 131 89 181c-3 2 -6 4 -8 6c-71 57 -166 51 -226 30c-55 -21 -92 -58 -98 -100c-5 -29 5 -56 27 -72
c33 -26 87 -25 148 3c13 6 28 0 35 -13c5 -13 -1 -29 -14 -35c-79 -34 -152 -33 -200 4c-37 28 -55 73 -48 120c10 61 59 114 132 141c73 26 188 32 275 -36c8 17 14 30 18 39c6 13 22 18 35 12s18 -22 12 -35c-5 -10 -12 -24 -21 -43c-1 -4 -3 -8 -5 -11
c71 -90 77 -226 51 -352c46 40 96 82 144 124c54 45 112 95 164 141c60 102 120 179 156 179h1c25 -1 34 -17 36 -24c11 -29 -15 -65 -152 -187c-66 -112 -140 -263 -177 -380c-27 -90 -23 -159 11 -207c36 -48 104 -73 198 -73h2142c137 0 240 -46 276 -122zM513 140
c1 0 1 0 2 1l-34 -34c-25 -28 -37 -45 -43 -55c19 6 47 33 75 88z" />
    <glyph glyph-name="N.1" horiz-adv-x="786" 
d="M3346 904c14 -2 22 -16 19 -30c-21 -92 -133 -151 -286 -151h-1870c-270 0 -420 -244 -535 -476c-4 -57 -14 -109 -28 -148c-27 -77 -63 -99 -87 -99c-9 0 -20 6 -25 14c-7 12 -14 30 45 153l2 5c14 29 28 58 43 89c9 121 -9 267 -78 360c-20 -46 -47 -104 -77 -164
c-6 -12 -15 -29 -24 -47c-43 -91 -117 -244 -206 -334c-55 -55 -111 -78 -156 -78c-30 0 -56 11 -74 26c-42 36 -62 118 20 230c32 43 65 77 100 104c11 9 28 7 36 -5c8 -11 7 -27 -4 -36c-32 -24 -62 -54 -91 -94c-57 -78 -55 -136 -28 -160c30 -26 95 -17 160 49
c83 84 154 232 197 320c9 19 17 36 24 49c34 67 63 131 85 180l-5 5c-67 53 -161 53 -225 29c-55 -20 -91 -57 -98 -99c-4 -28 6 -55 28 -71c33 -25 86 -25 147 2c13 6 28 0 34 -13c5 -13 0 -28 -14 -34c-78 -34 -150 -33 -199 4c-36 28 -54 73 -47 120
c10 61 59 113 131 140c71 26 182 32 270 -33c6 14 12 27 16 35c6 13 21 18 34 12s19 -21 12 -34c-5 -11 -13 -29 -23 -51c71 -78 101 -197 107 -311c114 209 273 413 533 413h1870c126 0 221 44 236 110c3 15 17 23 31 19z" />
    <glyph glyph-name="O.1" 
d="M2744 -234c7 -13 1 -29 -11 -34c-13 -6 -29 -1 -35 11c-14 28 -42 50 -79 66c-42 18 -93 26 -152 26h-2151v2c-1 0 -1 -1 -1 -1l1 26v0l-1 -26c-125 5 -194 51 -223 121c-6 13 -9 28 -12 43c-11 1 -21 3 -30 6c-39 13 -61 42 -72 79c-9 33 -8 75 2 121
c15 74 51 160 98 242c45 78 103 159 172 219c57 52 120 90 190 103c15 2 28 -7 30 -21c4 -14 -7 -28 -20 -30c-60 -11 -115 -45 -166 -90c-64 -57 -117 -133 -161 -207c-44 -78 -78 -159 -93 -226c-7 -39 -9 -72 -2 -97c6 -21 19 -37 39 -44c2 0 6 -1 9 -2c1 23 3 47 8 72
c13 60 38 124 71 188c115 225 330 449 407 449c50 0 81 -22 97 -59c13 -31 11 -72 1 -119c-10 -43 -31 -93 -57 -145c-98 -192 -296 -411 -470 -437c2 -8 4 -17 7 -24c21 -51 76 -86 177 -91h2150c66 0 124 -10 171 -30c50 -21 87 -52 106 -91zM135 114
c-5 -21 -7 -42 -7 -61c155 23 337 229 429 410c24 47 43 93 52 133c9 37 10 68 2 87c-7 17 -23 26 -49 26c-63 0 -252 -209 -360 -419c-32 -60 -55 -121 -67 -176z" />
    <glyph glyph-name="O.2" 
d="M2710 885c14 -3 23 -17 19 -30c-11 -50 -46 -88 -98 -114c-51 -26 -117 -40 -191 -40h-1630h-36c-37 0 -74 2 -110 -1c-23 0 -41 -2 -57 -5c-8 -2 -16 -4 -22 -6c1 -5 1 -11 1 -16c0 -15 -3 -28 -7 -42c-15 -36 -47 -66 -86 -66c-17 0 -30 6 -39 15s-13 23 -12 37
c1 10 4 22 10 33c10 20 29 42 54 59c-7 1 -15 2 -25 2c-158 -7 -333 -212 -416 -395c-21 -48 -37 -93 -43 -135c-7 -37 -5 -70 4 -93c11 -26 36 -40 77 -38h3c110 8 238 117 338 245c100 130 171 277 166 361v2c-1 14 10 27 24 28c15 1 27 -11 28 -24v-3
c5 -96 -70 -257 -177 -395c-108 -138 -249 -256 -375 -265h-1v0h-2h-1v0c-67 -4 -108 22 -127 69c-15 32 -17 75 -9 122c8 45 25 95 48 146c89 198 281 417 461 426c39 2 66 -9 83 -26c12 3 23 7 35 9c18 4 38 6 65 7c36 1 74 1 112 1h36h1630c66 0 124 12 167 34
c39 18 64 46 72 79c3 14 17 23 31 19zM495 618c14 1 28 15 35 31c1 6 2 11 3 16c-16 -12 -29 -25 -35 -38c-1 -4 -2 -7 -3 -9z" />
    <glyph glyph-name="P.1" horiz-adv-x="644" 
d="M2794 -231c6 -12 1 -28 -13 -34c-12 -6 -27 -1 -34 12c-14 27 -41 50 -79 66c-41 17 -93 26 -150 26h-2145v1h-1c-39 1 -72 7 -101 17c-31 9 -56 24 -76 42c-47 42 -61 86 -73 123h-1c-17 -7 -34 -12 -52 -12c-39 0 -63 11 -75 26c-6 10 -9 21 -8 32c1 9 4 18 10 27
c13 20 42 36 72 36c41 0 62 -12 77 -31c27 23 55 57 83 96c22 29 42 61 63 94c-9 1 -17 4 -24 7c-20 7 -31 23 -32 34c-3 26 13 38 35 43c12 3 27 1 38 1s22 -1 31 -3c21 36 41 73 60 107c26 47 69 133 109 210c-42 -19 -86 -46 -130 -81c-95 -75 -187 -181 -253 -281
c-7 -12 -23 -16 -34 -8c-13 8 -17 23 -9 36c69 104 164 214 264 293c64 52 132 90 195 107c8 15 17 32 27 52c7 13 22 18 35 13c12 -7 17 -23 11 -36l-11 -21v0c20 0 38 -2 55 -7c39 -12 69 -35 91 -64c20 -28 31 -63 31 -101c0 -16 -2 -34 -7 -51
c-24 -86 -84 -146 -159 -186c-54 -28 -116 -46 -179 -56c5 -8 9 -17 13 -26c6 -13 0 -28 -12 -33c-13 -6 -29 -1 -35 12c-7 15 -16 28 -25 40c-8 -1 -17 -1 -25 -1c-27 -44 -53 -87 -81 -124c-33 -47 -68 -87 -103 -115c2 -3 3 -8 5 -12c9 -32 21 -70 57 -102
c15 -13 35 -24 58 -32c25 -7 53 -12 87 -15h2144c64 0 123 -10 170 -29c49 -21 87 -52 106 -92zM444 455c-18 -34 -37 -69 -57 -104c3 -2 6 -4 9 -7c67 8 136 25 194 55c62 34 113 84 133 155c4 13 5 25 5 37c0 27 -7 51 -22 72c-14 20 -36 35 -63 43c-11 4 -25 6 -40 6
c-9 0 -18 -1 -27 -3c-44 -86 -102 -199 -132 -254zM69 61c9 0 20 3 31 7c-8 7 -18 11 -32 11c-13 0 -24 -6 -29 -14v0c3 -2 12 -4 30 -4z" />
    <glyph glyph-name="Q.1" 
d="M3144 -232c6 -14 1 -29 -12 -35c-4 -2 -8 -3 -12 -3c-9 0 -19 5 -23 14c-28 57 -118 93 -230 93h-2150c-203 0 -295 107 -362 185c-20 23 -38 44 -56 59c-64 -47 -131 -77 -193 -80c-51 -4 -86 11 -108 39c-26 30 -34 73 -30 124c4 47 19 102 41 159
c73 183 230 393 363 439c14 4 28 -3 34 -17c5 -12 -4 -27 -16 -32c-120 -41 -264 -237 -332 -409c-22 -52 -35 -102 -38 -144c-3 -39 2 -68 16 -87c7 -8 17 -14 28 -18c39 64 107 108 167 108c26 0 49 -6 69 -18c99 82 193 205 250 318c25 48 44 93 53 134c8 37 9 67 1 87
c-6 16 -22 26 -47 26c-16 0 -32 -2 -47 -6c-5 -29 -15 -61 -30 -90c-21 -38 -48 -75 -81 -101c-33 -29 -74 -46 -115 -45c-27 0 -43 11 -52 28c-7 16 -6 35 2 55c7 16 16 35 32 53c39 53 112 112 193 140c-1 15 -5 27 -13 36c-8 11 -6 28 4 37c11 9 28 7 37 -4
c13 -15 20 -34 24 -55c15 3 30 4 46 4c50 0 80 -22 96 -59c13 -30 11 -72 1 -118c-11 -43 -31 -94 -58 -145c-58 -115 -152 -239 -255 -326c18 -17 36 -37 53 -58c68 -78 144 -167 323 -167h2150c135 0 238 -45 277 -121zM434 638c8 16 15 32 19 48
c-61 -27 -114 -73 -146 -113c-12 -15 -20 -29 -24 -40c-3 -8 -4 -13 -4 -15c1 -1 2 1 6 1c27 0 56 12 81 33c28 23 51 53 68 86zM128 54c40 8 82 27 123 54c-6 2 -13 3 -20 3c-30 0 -72 -20 -103 -57z" />
    <glyph glyph-name="Q.2" 
d="M2705 884c15 -3 22 -17 19 -30c-11 -49 -46 -88 -99 -114c-49 -25 -115 -39 -189 -39h-1628h-36c-36 0 -74 1 -110 -1c-23 -1 -41 -3 -56 -6c-8 -1 -15 -3 -23 -5c1 -6 2 -11 2 -16c0 -15 -3 -29 -9 -43c-14 -36 -45 -65 -84 -65c-17 0 -30 6 -39 15s-13 22 -12 37
c0 10 4 21 10 34c10 20 29 41 54 57c-7 2 -15 3 -25 3c-158 -8 -333 -212 -416 -395c-20 -48 -37 -93 -43 -134c-6 -38 -5 -70 4 -93c8 -17 21 -27 40 -34c38 63 106 108 165 108c23 0 45 -8 66 -21c52 42 102 96 147 154c100 129 171 276 166 360v2c-1 14 9 26 24 27
c14 1 26 -10 27 -24v-2c6 -96 -69 -257 -176 -395c-45 -57 -95 -111 -147 -154c20 -20 39 -43 58 -65c43 -51 88 -104 135 -106c26 -2 54 12 85 42c10 10 26 10 37 0c9 -11 9 -28 -1 -37c-39 -39 -78 -58 -117 -58c-2 0 -4 0 -6 1c-70 3 -122 64 -172 124
c-20 24 -41 47 -61 66c-62 -44 -126 -73 -187 -77h-3c-66 -4 -107 22 -126 68c-15 33 -17 75 -9 123c8 45 24 95 47 146c89 197 281 416 461 425c38 2 66 -9 83 -27c11 4 22 7 34 9c19 4 39 6 65 7c36 2 75 2 112 2h36h1628c66 0 124 11 167 33c38 19 64 46 71 80
c4 13 17 22 31 18zM230 111c-30 0 -72 -22 -103 -58c39 7 81 26 122 54c-7 3 -13 4 -19 4zM493 617c15 1 29 15 35 33c2 5 3 10 4 15c-16 -12 -29 -26 -35 -38c-2 -4 -3 -7 -4 -10z" />
    <glyph glyph-name="R.1" horiz-adv-x="662" 
d="M3145 -230c8 -12 2 -28 -11 -34s-29 -1 -34 12c-14 28 -41 50 -79 66c-41 17 -93 25 -150 25h-2142c-231 0 -268 162 -303 303c-15 60 -28 116 -56 150c-10 -1 -19 -1 -28 -2c-90 -151 -190 -290 -285 -288c-44 2 -71 23 -83 56c-11 29 -8 70 7 116c14 42 36 90 66 141
c109 182 311 393 482 438c9 16 17 34 28 54c7 13 22 18 35 12c13 -7 18 -22 11 -35l-11 -22v0c20 0 38 -2 55 -7c39 -11 69 -34 90 -62c21 -29 33 -64 33 -102c0 -16 -3 -34 -8 -50c-25 -87 -84 -147 -159 -187c-53 -27 -113 -45 -174 -55c22 -40 34 -91 47 -144
c30 -124 64 -263 253 -263h2140c65 0 124 -11 172 -30c49 -21 87 -52 104 -92zM633 706c-12 4 -26 6 -41 6c-9 0 -18 -1 -27 -3c-44 -86 -101 -198 -131 -254c-18 -32 -36 -66 -55 -100c4 -3 9 -7 13 -9c65 7 131 25 186 54c64 33 114 83 135 155c3 12 5 25 5 36
c0 27 -8 51 -22 72c-15 19 -37 35 -63 43zM59 54c65 -2 147 108 224 237c-11 1 -19 2 -27 5c-19 9 -30 24 -32 36c-2 25 13 37 37 42c11 3 25 3 37 3c11 0 22 -2 32 -3c20 35 40 72 58 105c0 1 1 1 1 2v0v0c25 47 69 133 107 208c-145 -61 -310 -242 -403 -400
c-29 -47 -50 -92 -62 -131c-12 -36 -14 -64 -8 -83h-1c5 -13 17 -21 37 -21z" />
    <glyph glyph-name="S.1" horiz-adv-x="622" 
d="M3015 -231c6 -13 1 -29 -11 -34c-13 -6 -28 -2 -34 11c-14 28 -43 50 -80 66c-40 17 -92 26 -151 26h-2143c-161 0 -227 75 -262 165c-15 -2 -31 -3 -48 -3c-97 0 -155 38 -182 86c-11 21 -18 44 -18 67c-1 23 3 46 12 66c18 49 61 89 119 93c97 7 115 -75 134 -173
c6 -25 12 -51 19 -77c16 5 32 10 45 18c29 15 53 38 68 64c16 26 24 57 24 92c0 42 -13 88 -38 136c-4 8 -9 17 -15 27c-25 46 -50 92 -60 140c-14 0 -28 0 -43 -1c-105 -4 -206 -7 -255 -26c-46 -19 -72 -50 -79 -82c-4 -11 -4 -23 -1 -33c2 -9 7 -18 15 -26
c15 -14 41 -21 78 -13c14 3 28 -7 30 -20c4 -14 -5 -28 -19 -31c-56 -12 -99 1 -125 28c-15 13 -24 31 -28 49c-5 19 -5 40 0 59c11 46 47 92 110 116c58 23 162 27 272 30c14 1 28 2 42 2c1 14 2 28 7 41c11 41 37 75 76 97c36 21 83 33 140 33c41 0 73 -8 97 -22
c31 -16 46 -42 47 -70c0 -99 -148 -120 -311 -128c9 -39 31 -78 52 -117c5 -9 10 -18 16 -29c29 -56 44 -110 44 -160c0 -44 -11 -84 -32 -118c-20 -35 -49 -63 -88 -83c-16 -9 -33 -16 -52 -21c31 -69 87 -124 209 -124h2143c65 0 124 -11 171 -30c49 -21 86 -52 105 -91z
M446 618c-2 -8 -3 -16 -4 -25c139 7 264 21 264 77c0 9 -7 19 -20 25c-17 10 -40 16 -72 16c-47 0 -86 -10 -113 -26c-28 -16 -47 -40 -55 -67zM286 51c11 0 22 1 33 2c-7 25 -13 51 -17 75c-16 75 -29 136 -82 132c-36 -2 -62 -28 -75 -60c-6 -14 -8 -30 -8 -45
s5 -30 12 -44c19 -34 62 -60 137 -60z" />
    <glyph glyph-name="T.1" horiz-adv-x="432" 
d="M2740 -270c3 -15 -6 -29 -20 -32c-3 -1 -5 -1 -7 -1c-11 0 -23 9 -26 21c-15 70 -114 116 -246 116h-2227c-123 6 -196 33 -226 86c-15 26 -18 54 -13 82c-10 9 -16 18 -20 26c-29 60 9 143 41 185c26 33 52 48 77 43c21 -5 31 -17 35 -27c14 -30 -5 -66 -32 -117
c-13 -25 -28 -53 -38 -81c5 0 11 -1 18 -1c27 0 77 30 161 172c33 56 62 111 89 163c70 137 134 261 259 339c-139 4 -298 4 -408 -27c-77 -23 -127 -68 -134 -121c-5 -31 7 -59 28 -73c29 -17 70 -10 113 19c13 9 29 6 37 -6c9 -13 6 -29 -6 -38c-62 -42 -124 -49 -171 -21
c-41 26 -62 74 -55 126c10 75 75 137 174 166c146 41 364 32 524 25h6c42 14 90 24 144 29c42 5 68 0 83 -13c8 -7 13 -18 13 -30c0 -9 -5 -18 -11 -25c-23 -21 -73 -22 -221 -15c-175 -61 -244 -196 -327 -359c-27 -54 -56 -109 -90 -167c-82 -137 -146 -198 -208 -198
c-11 0 -21 1 -29 3c0 -12 2 -23 7 -32c20 -34 82 -55 181 -59h2226c160 0 277 -62 299 -158zM-2 77c10 21 20 42 30 60c11 20 26 49 30 64c-19 -13 -60 -74 -60 -124z" />
    <glyph glyph-name="U.1" horiz-adv-x="574" 
d="M3121 -269c3 -15 -6 -29 -19 -32c-2 -1 -5 -1 -7 -1c-13 0 -23 9 -26 20c-16 71 -113 116 -245 116h-2214c-128 5 -203 34 -236 90c-48 80 7 193 65 313c-127 -143 -251 -263 -310 -263c-40 0 -61 17 -70 32c-31 55 27 157 123 318c77 126 181 300 148 359
c-9 16 -35 25 -72 25c-80 0 -204 -37 -231 -104c-6 -14 -10 -35 -1 -54c13 -33 58 -60 143 -31c14 4 29 -3 35 -17c4 -14 -4 -29 -18 -34c-113 -37 -187 3 -210 61c-12 27 -12 60 1 95c38 95 187 138 281 138c59 0 98 -18 118 -53c49 -86 -46 -245 -148 -412
c-59 -99 -139 -233 -122 -264c2 -4 9 -6 22 -6c58 1 255 216 412 410c75 139 181 321 233 325c10 0 22 -6 27 -13c11 -17 3 -36 -6 -53c-22 -40 -104 -155 -206 -282c-27 -50 -55 -104 -80 -158l-20 -39c-52 -108 -101 -210 -68 -266c22 -38 87 -59 192 -63h2212
c157 0 275 -62 297 -157z" />
    <glyph glyph-name="V.1" horiz-adv-x="490" 
d="M3087 907c15 -3 23 -17 20 -31c-21 -93 -134 -152 -288 -152h-1903c-177 -8 -239 -91 -342 -230l-27 -36c-25 -35 -52 -71 -78 -107c-136 -188 -253 -351 -357 -352h-1c-38 0 -56 17 -64 31c-30 53 24 146 122 305c76 124 180 293 148 351c-10 16 -33 25 -71 25
c-76 0 -196 -36 -223 -102c-8 -19 -9 -37 -2 -53c13 -31 58 -57 140 -29c14 4 29 -3 33 -17c5 -13 -3 -28 -16 -32c-116 -40 -182 7 -205 58c-12 30 -11 62 2 93c37 92 181 133 271 133c59 0 97 -17 116 -51c47 -85 -48 -239 -148 -403c-56 -89 -138 -223 -122 -252
c2 -3 9 -5 20 -5c76 1 203 176 315 331c26 36 53 72 79 108l27 35c104 140 179 242 382 250h1904c126 0 222 45 238 112c2 14 16 23 30 20z" />
    </font>
</defs>
</svg>
