<?xml version="1.0" standalone="no"?>
<!DOCTYPE svg PUBLIC "-//W3C//DTD SVG 1.1//EN" "http://www.w3.org/Graphics/SVG/1.1/DTD/svg11.dtd" >
<svg xmlns="http://www.w3.org/2000/svg">
<metadata></metadata>
<defs>
<font id="wausauregular" horiz-adv-x="1114" >
<font-face units-per-em="2048" ascent="1638" descent="-410" />
<missing-glyph horiz-adv-x="389" />
<glyph horiz-adv-x="2048" />
<glyph horiz-adv-x="2048" />
<glyph unicode="&#xd;" horiz-adv-x="2048" />
<glyph unicode=" "  horiz-adv-x="389" />
<glyph unicode="&#x09;" horiz-adv-x="389" />
<glyph unicode="&#xa0;" horiz-adv-x="389" />
<glyph unicode="!" horiz-adv-x="524" d="M92 1073l-4 29l-10 26l-4 41l-13 29l-4 49v119l25 88l16 10l6 21l62 41h45l92 -43l64 -8l16 -15l29 -57l14 -96l-2 -19l-35 23l2 37l-20 22v19l-43 41l6 -50l-4 -32l2 -84l-4 -54l-25 -77v-31h-6l-12 18l-19 13l-18 -17l-23 -8l23 -18l12 -43h21l2 -41l-27 -68v-59 l-12 -56v-217l2 -82l-8 -82l-19 -16l-67 16l-9 45v121l2 74v76l-6 67l-12 107l-8 33zM389 231l6 -41l-16 -45l-2 -22l-29 -14l-29 -23l11 25l28 39l19 8l-25 10l6 33l21 -4l-33 22l-24 41l-11 -55l-41 -55l-22 8l-25 -4l-12 18l-31 21l-45 8l21 -15l10 -14l-31 -8v-23 l-37 -6l-6 47l-10 27l-2 41l16 24l10 -28l29 28l-39 25l33 37l35 18h51l35 -8l24 -12l23 -21l43 2l31 -36zM434 1235v-18l-6 -84l-14 -46l-6 -53l-15 -14l-4 -53l-22 -35l-7 -31l-14 14l-8 17l10 37v24l29 41v86l6 49l12 82zM346 668l6 -21l-10 -24v-78l-6 -74l-17 8l-8 43 l-2 62l6 86l31 32v-34zM211 72l27 -17l-31 -2l-66 23l-30 22l-7 29l52 -8zM358 793l-6 -11l-33 19l19 41zM193 236l8 18l-49 -23zM160 1253l-8 -18l41 12z" />
<glyph unicode="&#x22;" horiz-adv-x="737" d="M643 1382v-43l-4 -41l-4 -77l-10 -25l4 -35l-13 -67l-14 -60l-18 -71l-13 -15l-10 66l14 71l13 54l-2 80l6 30l-17 127l-10 23l-10 -33l-2 -39l-23 -6l-41 -27l-26 33l-23 -37l72 -16l37 24l-12 -49l6 -22l-6 -45l-19 -37l12 -23l-24 -41l6 -37l-14 -32l-11 -70l-18 -12 l-29 33l-2 20l-16 84l-2 41h-4l-8 37l-19 98l12 14l-16 15l-6 39v100l18 66l17 18l24 10l37 2l37 -8l31 4l22 -4l33 -22l27 -33l-21 -12l-26 8l2 -41l6 -17h57zM317 1407l2 -33l3 -76l-19 -59l-14 -12l-4 63l-15 23l-4 37l-18 69l-12 -22l2 -39l-9 -10l-4 -64l-14 -88 l-14 -29l-2 -73l-15 -74l-14 -53v-27l-19 -14l-34 28l2 39l-4 41l-17 41v33l-8 31l-2 37l29 32l22 13l-22 22l-31 -35l-6 45l-10 27l10 61l-19 35v51l9 31l36 45l29 2l78 8l57 -14l45 -55zM270 1057v-74l-6 -33l-16 -47v-22l-15 -23l-18 -14h-37l15 33l18 16l16 84l29 80h14 zM571 922l-10 -45v-9l-22 -24l-41 4l59 74h14zM188 1255l-16 56l-47 -29l14 -27h8l3 -6zM508 1450l49 -12l-22 20l6 23h-25zM285 1182l4 -43h-27zM135 1159l-24 6v-12zM481 1427l17 5l-17 8v-13z" />
<glyph unicode="#" horiz-adv-x="1492" d="M350 696l27 31l10 14l4 41l12 17l25 61l-18 31h-23l68 106l-64 13l-24 -11l-19 11h-31l-18 -11h-33l-71 7l28 94l13 10l24 -4l25 4h174l41 -4l24 39l27 -2l18 -25v-22l-6 -23l-18 -20l22 -15l33 45l-4 35l31 6l-11 -18l29 4l55 -2l9 29l16 22l6 39l14 19l23 90l25 16 l-2 -63l-23 -43l4 -21l-8 -27v-61l33 2h102l29 10l41 60l10 26l43 94l16 93l13 22l24 33l-2 35l21 -6l18 12l-6 24h35l61 -8l-47 -155l-4 -9l-29 -81l-12 -13l-23 -61l-6 -31l-12 -22l21 -19l79 31v-31l105 -4l37 -39l-25 -65l-49 4l-53 -11l-23 7h-104l-41 -31l-19 -74 l-14 -18v-25h-14l-13 -35l-36 -43l-68 31l16 31l-10 16l10 43h-47l-98 -4l-23 -14l-14 45l41 8h55v-21l19 23l22 4l37 -2l35 21l6 36l-33 -4l-55 6l-119 -6l2 17l-39 -6l-28 10l-29 -21l-22 -24l-5 -23l-12 -22l-24 -41l-25 -74v-27l-16 -55l18 -27l35 19l14 20l37 19 l16 -58l25 -4l35 6h51l41 13l66 30l34 -8l-8 21l31 18l20 -18l7 -21l-31 13l-8 -19l12 -31l39 -4l65 19l70 -29l49 10l23 -22l37 8l10 -37l-29 -45h-184l-80 -6l-21 -19l-12 -38l-27 -78l-30 -90l-15 -25l-4 -41l-28 -72l-19 -51l-26 -67h-62l-47 26l14 33l21 18l10 46 l19 61l30 80l37 90l6 29l-28 22l36 14l9 35l10 21l-37 12h-37l-76 -4l-86 4l-45 -6l-51 -25l-10 -24l-8 -53l-45 -97l-21 -86l-10 -41l-43 -82l-6 -36l-25 -33h-55l-33 37l4 34l23 35l14 37l37 135l16 23l15 63l24 -4l-26 31l-37 -8l-10 18l24 14l49 5l4 26l-14 33l-51 4 l-58 -8l-22 4l-41 -4l-64 8l23 96l27 -2l18 8h72l73 -8l19 8l53 -6l2 -10h8v10h-8zM573 1255l5 23l30 6l2 31l-18 14l24 64l11 47l6 35l12 4l37 28h68l14 -14l-19 -53h-4l-28 -62l-19 -71l-18 -62l-25 -67h-41l35 -33l-49 -6l-6 43l-10 22l12 21zM616 496l-34 4h-64l-10 -45 l-12 -19v-14l-101 -205l11 90l12 25l28 92l23 39l4 63l64 11l32 -9l29 11l88 -17l-14 -22zM1403 1092l4 -9l-18 -41l-19 -79l-27 -27l-24 -39l-27 8h-35l-18 -8l-88 12l-59 -14l-27 -66l-27 -2l-4 31l17 19l30 61l52 -14l96 18l78 -10l12 37l22 20l33 70l4 33l15 16z M868 307l19 -4l-17 -43l-43 -47l19 -8l-4 -23l-21 -30l-20 -58v-26l-29 -29l-94 2l-37 -10l-41 4v33l96 -5l49 5l19 12l14 51h4v19l19 14l39 123zM381 121l4 -4l-8 -37l-23 -19l19 -6l-19 -24h-41l-108 -13l-29 2l-2 41l49 -4l103 11l32 26zM1257 664l50 -9l-27 -37l-25 -63 v-27l-16 -14l-12 -18h-49l22 41l8 26l49 84v17zM967 539l47 -7l-31 -14l-45 -55l-37 -98l-22 4l8 34l-8 19l32 51l9 64zM827 1350l-36 2l22 75l29 80l41 -2l-9 -47l-22 -18zM182 500l-20 -4l-31 4l-29 -4l-55 14l2 27l14 14l56 -10l24 -9h52v-24zM1219 1337l8 29l6 31l18 49 l4 24l27 -28l-2 -39l-29 -47zM217 897l-45 -2l21 31l34 -6l27 6l59 -2l-14 -27l-39 -6zM414 541v45l-37 32l-27 -26l27 -25l-4 -30zM1001 733l15 60l31 -17l-15 -24v-21zM387 201l16 -13l-8 -16v-18l-41 -9l15 35zM1208 1219l-6 -23l-33 4l15 33l30 18zM637 1061l-14 4 l22 -43l27 33zM895 1059l-43 -4l18 -15v-22zM834 678l36 22l-51 2zM637 846l-10 41l20 18zM616 799l-2 -27l-24 -4zM870 350l21 -18h-35zM504 455l-4 16l-29 -12zM645 1409l-10 -18h24zM633 1114v10l4 -10h-4z" />
<glyph unicode="$" horiz-adv-x="1013" d="M106 573l19 31h-8l8 8l33 17l26 4l-8 -23l39 6l-4 19l74 -33l8 -12l24 -45l-4 -27l4 -39l-18 -33l-14 19l-27 -6l-14 -21l30 -16l-84 -21l21 -45l53 -49l49 -28l35 -15l33 70v18l-37 -14l-18 -14l-41 -9l-21 15l21 14h26l33 23l29 49l8 51l-14 45l-27 61l27 -2l10 52 l-6 71l6 23l-37 41l-29 10l-41 39l-30 18l-101 97l-26 41v16l-23 25l-29 100v41l11 67l12 80l16 31l9 31l22 10l12 14l19 8l24 31l25 10l55 17l23 14l47 4l26 13l5 -17l32 -31l35 41l-53 64l-2 70l16 8h27l35 -8v-33l-8 -19l10 -18v-51l-15 -23l31 4l41 41l-2 70l4 35l37 -6 v-52l8 -86l8 -2l19 -12l51 -47l23 -6l30 -29l-4 -37l58 27l28 -17l10 -24l19 -17l31 -45l8 -36l-4 -93l-31 -67l-25 4l17 24l8 39v72l-8 35l-6 24l-37 43l-31 19v-25l14 -45v-53l-10 -43h-14l10 -12l-45 -47l-37 -19l-31 2l-55 17l-22 41l-21 47l6 37l39 49l25 8l-15 41 l-22 22l14 29l-22 -20l-78 16l4 -35l-14 -88l6 -45l-2 -37l6 -108l-6 -66l6 -55l12 -17l19 -10l14 -22l82 -37l24 -19l21 -28l37 -25l14 -22l19 -11l53 -63l24 -92l19 -29l6 -39v-123l-12 -41l-29 -41l-25 -45l-69 -55l-64 -31l-86 -24l-33 6l-30 -19v-47l-6 -86l-21 -16 h-47l-12 16l-2 4v21l-11 24l-71 37l-25 47l49 -24l58 -8l-9 41l-40 4l-27 18l-51 12l-45 62l-31 4l-68 55l-6 27l-22 37l-11 57l-2 45l13 64l26 49l19 18zM918 438l-7 -37v-39l-8 -32l-16 -54l-31 -55l-10 -28l-96 -64l-23 4v-22l-29 -11l-30 -24l-90 -35l-17 -25l-8 -51 v-37l-27 -39l-34 -4h-82l-37 4l8 43l57 -4l74 4l8 39v43l23 56l61 30l23 19l55 18l45 21l37 28l18 21l35 35l47 96l4 43l6 86l-2 57l-36 109l-35 80l-53 59l24 4l37 -33l59 -79l13 -21l6 -33l22 -45l6 -51zM459 598v-115l8 -20l-4 -29v-131l4 -8l4 -19l55 17l9 20l18 11 l14 -9l56 66l16 94l-27 68l-28 32l-23 11l-6 -43v-54l-6 -40l4 -52l-18 -26l-5 41l5 86l-11 22v78l-20 41l-35 23zM377 1145v137l-55 -18l10 41l30 59l-2 22l-47 -14l-10 -24v-25l-33 -14l-18 -47l-8 -50l26 -125l15 -28l32 -37l50 -31l6 41v49l6 27zM668 840l4 14l-76 27 l-37 32h-18l-17 39l-2 47l27 5l10 -52l21 -4l73 -59l11 -19l26 -16l37 -41h-18zM754 1044l12 -4l-2 -30l-45 -29l-29 16l-22 -6l-19 13l21 14l35 -4zM180 430l4 -4l41 8l-22 33l-33 4zM662 1276l-11 -21l31 -16l45 25h-27zM168 225h18l29 -51zM453 66l-35 -13l33 -10z M621 1008l-27 2l-10 28zM317 1231h9l6 -29zM225 170h8l3 -23z" />
<glyph unicode="%" horiz-adv-x="1261" d="M227 870l-16 23l53 -6l19 6l39 -10l36 24l15 54l6 88l6 147l4 53l-4 56l-14 43l-54 90l-18 18l-18 -12l-35 -6l-31 -41l-12 -39l-8 -72l-5 -74l3 -45l-3 -59l3 -51l12 -66l-10 -65l16 -27l-25 -16l-2 -49l-47 20l-35 70v18l-30 53l-4 60l-11 94v65l6 41l9 54l12 26l8 33 l27 37l28 51l68 43l88 6l47 -22l47 4l2 -6l168 -43h41l86 8l33 10l37 25l41 -17l18 -28l17 -9l-19 -69l-18 -47l-12 -43l-31 -56l-29 -45v-22l-18 -15l-4 -43l-15 -16l-4 -22l-14 -23l-8 -31l-23 -41l-14 -47l-17 -20l7 -35l-17 -12l-31 -64l-36 -94v-29l-23 -14l-27 -66 l-36 -98l-33 -67l-15 -46l-14 -18l-4 -43l-23 -35l-4 -6l-18 -53l-10 -10l2 -29l-19 -47l-43 -8l-37 8l5 43l26 69l8 -30l23 -17l12 50l-8 40l-10 19l14 24l19 52l18 41l18 37l13 51l18 30l8 25l17 31l20 59l25 53l26 68l-45 -27l-86 -14l-78 -4l-32 10l-4 31l24 -12l39 4 l33 -4l33 8l45 18l35 21l28 24l23 29l12 37l18 12l13 64l28 32v19l25 4v35l-29 6v78l4 22l25 19l6 -43l33 2l10 18l31 84l-19 12l-22 6l-23 -2l-32 9l-7 6l-2 20l111 8l35 25l6 25l12 20l-30 -14l-80 -13l-117 17l-23 8l11 -39l10 -10l6 -41v-68l6 -53l-43 -59l-8 -21 l-14 -16l22 -27l19 19l12 2v-4l-17 -64h-14l-6 -61l-33 -43l-14 -27l-33 -18l-31 4l-18 -23l-45 -14l-62 31zM918 113l-50 -4l-63 4l-47 12l-35 22l41 -57l31 -24l-29 6l-43 18l-18 19l-37 24v35h22l-26 43l-7 25l-30 65l-4 47l-7 117l7 65l-27 7l-43 -80l-8 -58l-19 -18 l-4 -41l-22 -21l-11 -26l-12 -31l-26 -65l-7 -35l-16 -29l-2 -20l-41 -66l-8 -27l-35 -4l-76 9l-8 14l-10 -14l-31 14l35 12l74 -8l77 109l13 51l18 22l6 29l-6 22l29 56l41 80l10 47l8 4l19 43l18 47l12 14l33 68l4 31l25 43l8 39l16 20v27l33 55l4 27l25 55l31 49l28 86 l19 -53l-31 -43l-8 -35v-23l-13 -20l-22 -47l-14 -37l-4 -29l-29 -45h18l66 49l35 15l41 10l22 -6l51 -8l27 -15l-12 -26l24 -4l6 34l54 -34l12 -25l12 -45l-37 4l-12 -22l45 -5l16 -10l-40 -26l-21 6l-35 30l-20 -4l-6 29l-50 43l-53 -8l-33 -23l-2 -24l-26 -62v-114 l-8 -78l4 -72l-4 -22l10 -29l6 -45l29 -60l45 -30l22 12l31 6l31 49l8 49l10 15v178l6 139l19 -16l-19 16v10l70 -4l26 -28l25 -4v-31l8 -66v-39l-63 -14l67 -2l-14 -106l-35 -101l-14 -16l-4 -21l-23 -26l-33 -25zM1171 381v-14h-2l-16 -78l-35 -109h-4l-37 -61l-30 -25 l-52 -37l-30 -6l-11 -8l56 53l59 62l16 39l19 10l20 82l9 12l8 145l10 70l18 -45zM887 1366l4 2l37 86l37 -8l-17 -33l-20 -72l-15 -14l-22 -78l-29 -41v-30l-18 -33l-4 -23l-45 8l18 56l55 106zM836 59l34 2l70 -2l-10 -24l-25 16l-10 -16l-51 -4l-31 41zM137 850l13 -14 l30 -37l-6 -23l-68 60l11 26zM373 924l8 -35l16 22l25 19l12 31l-45 -17zM813 1491l-31 8l9 29l32 -2l17 -8zM954 1481l-22 -6l16 47l43 -9zM1104 621l-19 18l11 25l26 -15l6 -37zM854 1464l10 29l23 20h6zM524 717v22l-20 -8zM985 389v-8h10v8h-10zM946 608l2 -2z" />
<glyph unicode="&#x26;" horiz-adv-x="1198" d="M786 121l-90 22l-37 13l-79 14l-35 -4l-25 -10l-20 6l-17 24l-37 -16l25 4l-2 -18l23 -25l-29 -8l-35 -2l-92 4l-51 14l-62 23l-28 26l-95 95v14l-18 33v22l-19 56l70 22h-29l-41 14l-4 21v98l13 68l22 45l6 22l21 31l31 14l6 52l6 8l22 12l25 29l37 28l-19 54l-20 65 l-19 103l-4 88v69l9 31l16 66l18 20v18l17 27l18 8l8 23l64 47l67 27l37 -2l52 -3l59 -14l8 -18l21 2l38 -39l23 6h29l12 -6l10 -29l23 -10l41 -59l6 -56v-76l-6 -51l-15 -14l-16 -80l-18 -16l-17 -35l-45 -41l-12 12l39 74l6 22l6 15h4l4 30l15 15l-7 41l5 22l22 4l-18 21 l-2 39l-15 14l4 31l-41 43l11 -47v-37l-15 -113l-28 -51v-12l-37 -51v-15l-27 -24l-33 -6l-6 -31l-28 -19l-33 -47l10 -39l14 -32l25 -27v-14l41 -111l29 -45l18 -12l4 -23l66 -106l16 -17h6l12 54l19 18l12 96l-31 53l-16 15l-37 -8h-24l-7 16l2 25l29 -11l43 4l6 29l-18 8 l-41 4l-31 11l-2 82l10 34l45 11l31 -11l70 4l96 -4l37 4l37 -22l-4 -39l2 -33l-13 -37l-43 -6l-30 -39l-23 9l-55 -50l-12 -28l22 -17l37 -2l18 15l-6 -91l-12 -69l-10 -35l-19 -12v-60l-20 -18l2 -21l27 -41l47 -18h22l35 29l20 49v113l11 45h65l10 -37v-47l-6 -115 l-30 -113l-19 -28l-67 -60l-41 -16h-52zM526 295l11 27l-11 20l-18 18l-25 56l-22 12l-21 61l-45 95l-26 28l-23 45l-2 23l-27 39h-12l-20 -37l-31 -90l-4 -29l8 -28l-4 -64l25 -63l59 -97h18l21 -16l33 -12l59 -9zM346 1300l-4 -51l4 -78l8 -30l15 -56l41 -41l18 15v22 l14 27l27 8l27 66l12 32l6 50l12 77h33l4 23l17 18l-41 9l-47 -23l-15 23l-45 10l-26 -6l-44 -49zM1102 334l4 -49l-4 -11l-6 -14l-4 -27l-27 -34v-23l-12 -20l-15 -13l-34 -14l-29 -51l-55 -25l-41 6l-60 -24l-51 6l14 37l76 2l74 16l37 25l14 22l23 19l14 24l8 31l23 47 l2 92l-2 103l8 86l43 -33v-53l-31 4l29 -17v-34zM606 84v-31l-2 -6l-35 -6l-59 -2l-94 -10l-43 6l-47 12l-21 12l-22 7l-25 6l-27 18l-26 6l-23 19l-24 4l-17 74h21l24 -23l41 -27l2 -6l19 -12h18l29 -19l37 -18l43 -4l28 -12l43 -2l31 6l41 -10l45 24l15 -18zM383 174l8 29 l-4 37l-51 20h-17l-18 19l-33 4l-22 18l-23 33l17 18h-29l-29 8l-14 -18l-18 -10l32 -37l29 -16l-6 -21l53 -18l-12 -64h33l18 -10l57 20zM913 735l11 4l55 37l4 58l-6 36l10 43l10 -14l25 4l-6 -104l8 -27l-18 -65l-76 -13l-2 -45l-15 -74l-8 -22l-16 -64l-12 37l16 23 l-10 24l6 58l4 63zM139 506l56 18l24 13l17 18l-13 20l13 17l-19 -8l-31 8l-24 -12l-53 41l-9 -86l23 -27zM741 203l21 14l29 12l-31 15l-45 -23l-8 -28zM440 1274h-16l8 37l29 24l8 -6zM868 223l-4 -6l15 -14l32 18l-18 15zM340 465l4 -2l10 -43l-32 39v6h18zM528 1075 l33 12l-55 9zM707 150l-23 26l-6 23v-43zM526 506l23 -4l-23 37v-33zM84 375l20 14l-14 19zM752 809l18 -23l8 21zM874 438l-18 -30l14 51zM629 1223l-6 -11l24 -22zM987 868v-10l29 6zM938 252v-10h10v10h-10zM399 367l19 -25l-27 25h8zM141 621v-13l11 13h-11zM190 326 l9 -13l-9 -2v15z" />
<glyph unicode="'" horiz-adv-x="405" d="M322 1384v-47l-11 -80l-8 -20l-2 -33l-12 -37l4 -39l-23 -16l-18 16l22 62l5 90l-13 59l-4 62l-22 12l-13 -104l-12 -56l-6 -4l2 -37l-18 -100l2 -33l-11 -37l-4 -26l-22 -80l-23 -10l-22 59l-2 49l-17 41v35l25 78l-6 51l-33 -12l-2 35l-12 28v27l-9 29v84l9 28l36 45 l29 4l78 6l39 -4l47 -24l4 -27l12 -18zM270 1057v-74l-6 -33l-16 -47v-22l-33 -47h-35l-6 34l14 6l23 19l16 84l29 80h14z" />
<glyph unicode="(" horiz-adv-x="681" d="M272 20l-30 29l-35 47l-10 35l-29 62l-12 14l-19 69l-10 21l-4 33l-8 20l-15 35l-10 41v27l-8 30l-12 66l-9 86l-4 117l2 86l2 80l2 90l7 32l10 50l12 102l19 49v14l12 19l14 37l10 45l27 65l19 21l4 22l14 27l20 8l2 25l58 71l41 41l24 21l33 24l88 33l47 10l4 -106 l-12 -16l-37 -15l-51 -51l-45 -12l18 -4l-55 -97l-31 -92l-10 -61l-18 -39l10 -17l-10 -88l-8 -18l4 -98l-35 8l-25 -23l25 -28l26 12l-4 -78v-188l4 -90v-70l13 -41l6 -90l12 -96l-22 -4l8 -25l6 -45l25 -10l-19 -19l16 -12l19 4l-70 -76l-26 -8l6 -10l16 12l33 -2l27 -22 l41 24l36 -55l29 -39l98 -68l4 -88l-16 -16l-106 47l-21 2l-47 41zM633 1663l-8 -27v-55l-7 -39l-57 -24l-33 -25l-41 -16v-23l-14 -20l-31 -58v-28l-28 -43l-4 -82l-17 -64l-6 -35l-8 -73l4 -60l-6 -30l-12 -130l6 -65l-11 -53l11 -25l6 -72v-81l10 -41v-68l12 -45l2 -55 l11 -25l6 -70l12 -36v-21l12 -24l-18 -29l-14 22l-35 101l-6 35l20 6l-18 16l-13 21l-2 59l-10 55v45l-12 39l4 115l-6 24l26 21l-20 8l4 129l-8 53l4 37l-4 90l8 39l4 64l14 14l-14 12l6 37l13 88l22 78l14 27v22l13 35l16 25l21 39l14 16l33 39l45 37l45 28v103l10 24 l37 -26zM629 -68v-57l-4 -76l-41 -18l-27 20l-10 -20l-70 8l-49 29l-68 30l-8 17l-18 14l-6 31l-4 -19l-39 43l-2 13h-4l-15 18l8 37l13 -18l30 -41l56 -58l47 -20l49 -35l61 -6l60 31v24l10 84h27zM195 1364l24 -18l14 -19v39l-38 12v-14zM223 1462l2 -20v-37l21 16l-4 25 l-13 16h-6zM272 1317l-26 -4l-17 -13l9 -6zM211 459l-35 43l6 -25zM274 168l-28 18v-12zM319 1573l-8 -8l31 -11zM465 61l-27 15v8z" />
<glyph unicode=")" horiz-adv-x="729" d="M385 131l-8 -22l-19 -33l-18 -17l-72 -90l-55 -37l-82 -49l-29 -4l-26 -12l-21 16l11 101l98 65l26 35l9 12l24 35l8 27l17 28l31 115l12 70v37l8 22l2 78l12 41v31l41 6l-41 4v31l19 55l14 18l19 15l-21 34h-27v35l-2 84l4 51l-12 103v80l-6 30v33l-16 96l-19 95l-12 18 l-27 78l-28 49l-43 55l-23 11l-31 36l-30 5l-13 16v57l7 49l43 -10l84 -33l108 -26l45 -19l53 -59l64 -82l29 -27l32 -63l13 -37l-5 -37l-32 17l-19 16l-10 20l39 -6l-21 25h-20l-37 65l-37 27l-49 74l-51 41l-19 4l33 -31l53 -65l7 -19l37 -61l16 -37l-23 18l-8 -41l33 -18 l29 -43l-11 -25v-47l-20 -22l-27 -13l23 -12l33 6l-19 23l23 12l26 -6l15 -41l-31 -6l6 -23l12 -4l-14 -22l37 -13l12 -80l8 -77l4 -84v-88l-6 -97v-108l-16 -72l-8 -88l-19 -68l-16 -30l-2 -31l-23 -65l-37 -93zM635 754v-23l-6 -51l-13 -68l-18 33v19l2 77v82l-4 68 l-12 67l-11 80l-10 92l17 52l24 -19l4 -26l8 -68l11 -55l6 -60l2 -69l4 -86zM328 -84l28 10h9l-52 -61l-45 -31l-10 -14l-29 -8l-18 -23l-57 -20l-39 -2l-49 32l20 13l29 4l18 12l49 14l49 23l41 26zM569 371h11l2 -33l-15 -57l-16 -39l-27 -27l2 -57l-26 -62l-11 -8 l-49 -68l-26 -22l-23 -35l-14 2v19l33 55l26 31l23 55l18 14l19 54l4 12l20 18l12 72h5l8 18l4 27zM365 262l12 14l-27 13l-24 30l-31 -24l6 -33l39 4zM338 1505l-37 37l-14 -43l-47 -8l28 -18l31 14l18 18h21zM520 1282l10 4l39 -12l-37 -29zM600 563h10l6 -45l-20 -6z M442 989l-2 -10l41 -6zM229 98v8h-6v-8h6z" />
<glyph unicode="*" horiz-adv-x="903" d="M653 942l-61 8l-25 13l-43 41l17 -50l-68 29v45l-8 31l-39 28l-23 -34l19 -17l24 -82l9 -82l-4 -30l-11 -25l-37 -26l-59 10l-27 28l-4 41l9 72l18 64l8 81l-22 -6l-23 -16l-33 -37l-24 -18l-70 -60l-37 -18l37 -4l64 14l32 27l29 -8l-53 -64l-80 -6l-68 6l-22 29l-10 47 l10 82l43 28l41 31l61 14l4 -22l-28 2l12 -18h29l8 -7l59 9l12 26l-24 68l-37 12l-47 2l-25 -31l-28 13l-4 6l-15 4l-14 18l-27 27l-41 37l9 63l47 31l67 -8l4 -8l21 -11l65 -71l74 -45v30l-25 119l-6 51l9 54l28 32l78 -10l27 -45l-4 -90l-25 -6l14 -17l-6 -20l-10 -59 l10 -41l21 14l8 23l31 55l18 78l-16 108l47 -24l6 -66l-8 -25l4 -36l-8 -17l53 19l43 18l49 -18l18 -21l-51 -108l-65 -21l-35 -6l-25 -16l-20 -2l-17 -15l-18 -8l37 -27h26l19 -14l65 -24l60 -17l24 -22l7 -47l-2 -23zM809 1036v-8l-8 -45l-23 -39l4 -20l-37 -13l-26 -20 l-49 -4l-41 10l12 27l31 -4l33 4l49 37l18 30l-8 23l-10 59l-23 19l-41 10l-12 16l-37 2l-37 39l37 21l18 -11l5 23l47 10l57 68l-14 90l41 -4l10 -19l4 -73l-14 -45l-78 -58l-35 -6l74 -45l41 -33zM549 887v-15l2 -22l-10 -41l-45 -57l-25 -7l-18 -12v41l20 6l27 37l8 27 l4 35l12 34zM231 1356v22l31 2l10 -20l35 -45zM551 924l4 -4l-4 -29l-14 22l8 29zM158 1343l6 -6l20 13zM174 1237v8h-10v-8h10z" />
<glyph unicode="+" horiz-adv-x="1234" d="M834 764l-60 2l-47 -2l-25 6l-51 -12l-22 2l-25 -12l6 -74l-24 6l12 18l-41 4l-57 15l-8 35l-101 14h-26l-46 -8h-124l-82 12l-45 -4l-9 33v39l74 32l68 -8l37 4h57l43 -18l39 22l51 -2l33 6l41 37l4 58l-6 67v43l-13 15l21 8l-6 33l8 28l-10 90l6 37l-4 21l45 10l67 -4 l-10 -70v-76l-26 -20l28 -8v-105l4 -30l-6 -19l6 -106l43 -13l43 -2l97 2l67 -2l64 2h69l49 -36l9 -41l-13 18l-8 -18l17 -9l-46 -18l-45 4l-51 -10l-22 6h-27v4zM526 334l-24 -4l-15 41l15 71l-6 54l12 57l-6 20l53 56l2 18l47 -8v-256l-6 -49h-72zM711 500l-4 -43v-47 l6 -68l-11 -43l5 -47l-25 -21l-107 -4l-47 35l27 10h59l50 11l6 90l-4 119l18 24h-18l6 53l-2 41l8 39l-8 37l22 6l15 -22l-7 -37zM1147 707l-8 -33l-25 -12l-39 4l-16 22l-17 -14l17 -12l-80 6l-18 -9l-95 11l-39 14l-4 -16l-30 -2l26 30l37 -12l76 18l61 -16l45 12l64 17 l4 33l31 22l10 -18l-14 -31zM700 1104l9 -12l-9 -43l7 -48v-73l-23 -25l-4 35l-10 70l4 34l-4 56l4 37l18 22zM424 684l12 -10l-55 -12h-115l10 30l43 -6l56 2zM1102 815l-4 55l32 4l13 -86l-31 -4zM672 1247v45l-6 23l34 2l7 -43zM137 688v-2l23 -6l-23 -29h-28l-5 33l15 2 zM561 721l-35 20v-12zM1124 797l-6 -9h12z" />
<glyph unicode="," horiz-adv-x="497" d="M412 246l2 -47v-49l-17 -91l-30 -8l4 70l-9 67l-18 72l-20 27l-21 6l12 -70l2 -55l-14 -72l-14 -39l-41 -53l-31 -2l27 -10l-11 -27l-45 -37l-28 -32l-43 -19l-33 10l-8 41l16 33l27 27l35 59l-7 10l-22 13l-4 26l39 -8l37 6l-41 35l-31 4l-23 8l-45 47v39l4 74l39 55 l60 11h69l33 -15l12 23l56 -8l41 -41l6 -25zM371 16v-2l-23 -34v-29l-26 -45l-48 -35l-8 -29l-37 -30l-39 -21l-90 19l-12 26l31 4l24 -16l47 16l17 13l59 34l23 52l18 22l17 25l18 10l6 20h23zM262 35l-29 31h-6v-33z" />
<glyph unicode="-" horiz-adv-x="708" d="M100 754l-37 4l-6 88l6 41l56 -4l108 -4l25 4l18 8h29l23 -8h36l70 12h31l49 -8v-29l8 -63l-12 -37h-223l-86 2zM563 690h10l9 -31h-37l-35 -10l-82 4h-137l-39 2h-109l-86 4v23l99 12l73 2h84l19 -10l18 8h49l47 -8l103 14zM621 737l-7 -35l-10 -12l-14 31l10 29l-8 30 l-19 -16l9 100h10l18 -24zM186 854l11 -25l26 7z" />
<glyph unicode="." horiz-adv-x="468" d="M375 279v-41l4 -39l-2 -39l-6 -19l-25 -47l-41 -35l-37 -14h-35l-28 -18l-41 2l-23 16l-22 25l-21 4l-16 14l18 27l23 -23l43 -22l72 -11l65 33l8 31l13 24l4 21l-13 47l-14 -33l-45 -41l-49 -22h-43l-49 18l-19 13l-14 24l-19 19l-8 49l6 37l9 26l57 43l29 6l-27 -37 l31 7l63 36l64 -45l22 -28l29 14zM193 129l-5 8l-10 -4l4 -8z" />
<glyph unicode="/" horiz-adv-x="800" d="M104 35l-41 4l11 37l10 8l8 31l23 71l22 109l25 76h4l8 67l14 15l23 63l10 51l45 146l25 102l26 90l21 68l14 67l43 29l31 47l23 6l-7 13l2 67l27 -18v39l-27 4l-47 -33l11 25l12 55l12 39v22l21 11l-11 18l13 43l24 84l23 72l30 8l76 -17l-10 -49l-18 -30l-19 -74 l-4 -37l-27 -90l-20 -74l-18 -41v-24l-17 -35l-12 -60l-33 -73l-22 -4l-11 22l-39 -12l13 -29l59 -20l-18 -58l2 -41l-17 -10l-2 -35l-12 -18l-23 -82l-4 -35l-14 -37l-12 -14l-25 -113l-45 -129l2 -26l-14 -47l-15 -86l-30 -87l4 -22l-25 -25l-53 -30zM715 1540v-4l-10 -51 l-15 -27l-16 -57l-35 -115l-23 -102l-22 -66v-41l-25 -73l-16 -25l-6 -39l-12 -45l-15 -43l-4 -25l-29 4l17 -18l-29 -88l4 -27l-45 -41l19 -18l-2 -29l-17 -20l-10 -23l2 80l27 74l8 47l18 31l-8 28l23 60l28 102v21l21 -6l28 16l-41 12l31 127l23 68l14 14v49l8 19v37 l19 12l14 26l4 56l19 37l10 63l8 14zM340 274l2 -41l-18 -16l6 -20v-29l-19 -72l-8 -12l-6 -37l-10 -82l-19 -22l-18 -6l-66 -9l-61 19h-47l-13 -8l-8 22l8 23l72 -9l43 2l55 15l17 59l10 19l2 26l8 47l11 13l6 43l16 18v23l14 20zM395 410l-2 -25l-45 -70v56l19 51h22z M414 543l6 -31l-27 -10zM414 1069v-10l37 -2z" />
<glyph unicode="0" horiz-adv-x="1069" d="M322 156l-27 2l27 -41l28 -21l-47 -16l-20 16l-31 35l-12 27l24 26l-16 23l-58 69l-34 62l-2 6l-19 53l19 11l-41 51l-13 41l-2 43l-14 28l-4 58l-10 55v41l-11 27l4 51l13 55l-19 10v21l15 102l12 49l-4 37l10 56l10 30l19 -30l20 16v33l-26 8v10l8 10l10 54l12 18v18 l19 27l22 41l33 14l23 39l45 31l32 16l72 41l27 -22l12 22l29 2l78 -10l45 -20l22 2l57 -37l95 -72l28 -45l27 -61v-27l12 -78v-33l17 13l8 -19l-2 -49l14 -22l4 -25l-24 27l-2 -29l28 -12l10 -51l-2 -80l9 -78l-17 -88l8 -35l5 -53l-15 -29l-6 -45l-10 -18l8 18l-23 37 l-18 -19l-29 -16l31 -31h21l8 -32l-25 -86l-6 -37l-12 -21l-10 -20l-46 -54l-10 -36l-8 -11v-8l-37 -35l-20 -12l-49 -43l-31 -4l-29 -12l-39 -6h-35l7 22l-5 27l-26 10l18 39l4 35l70 -2l25 26l16 37l12 16v29l19 37l6 68l2 43l6 47l4 67l-6 21l14 28v39l-8 97l14 22 l-14 29l8 37l-12 78l8 98l-4 35l-4 55l-8 18l-2 82l-23 37l-4 25l-37 45l-55 -2l-31 -8v36l-26 9l-84 -31l-41 -60l-13 -40l5 -21l-15 -65l-4 -105l4 -22l-4 -25v-78l-4 -22v-70l-4 -21l4 -36l-10 -29l10 -57v-25l4 -90l8 -92v-62l6 -24l-24 -17l6 -28l31 -2l20 -88l21 -39 l32 -54h5l-11 -45zM977 735v-18l-10 -78v-90l-9 -86l-12 -23l-4 -47l-10 -45l-14 -16l-25 -62l-8 -32l-13 -25l-28 -27l-4 -28l-62 -56l-18 -26l-23 -15l-18 -30l-43 -15l-41 -6l-33 -22l-39 10l-18 -10l-31 6l-33 -2l-30 14l-39 10l-31 19l-23 4l4 14l27 25l29 -21l39 -18 l80 -4l127 35l63 36l37 37l22 25l17 27l33 34l32 66l37 104l-4 27l10 18l2 39l27 152v72l-4 92l10 51l-16 33l-17 139l-18 96v41l23 -33l22 -55l6 -35v-32l15 -25l-3 -21l9 -51v-67l10 -23l-8 -41zM371 1040l8 101l10 49l14 24h13v-71l-8 -47v-37l-13 -62zM385 776v33l-6 43 l2 37l29 16l-13 -35l11 -24l-5 -51zM395 702l-6 25v31l14 -13zM686 1239h-22l12 -16zM862 707l-24 28h-11zM422 117l-25 8l47 -4zM850 809l-14 18h-9zM258 1241v14h-10z" />
<glyph unicode="1" horiz-adv-x="763" d="M111 127l-7 33l-8 76l27 10l67 -2l48 53l-13 49l4 62l-8 32l17 29l-9 20l-4 29l6 27l-6 51l6 29l-6 143l-6 33l6 35l4 36l-4 52l-10 39l4 57l10 39l-10 20v49l-18 52l-35 6l-31 -4l-39 4l-22 20l12 29l47 -10l45 -4l43 45l-18 12l-56 6l-41 -10l-45 55l-6 33l11 16l8 27 l82 10l41 -4l55 23l16 18l37 37l25 6h80l28 -10l11 -27l-11 -39l4 -35l-45 -4l41 -12l2 -31l-2 -96l4 -96l-8 -25l8 -30l-4 -21l4 -63v-82l-8 -68l4 -25l-4 -22l4 -27l4 -37v-79l-4 -2l6 -54l-2 -51v-45l9 -22l-35 -11l28 -22l5 -60l-5 -67l7 -23v-33l32 -30l41 20v39l19 66 v-47l10 -19l8 -51l8 -8l2 -39l-18 -76h-41l-80 -6l-39 6l-18 29l-33 -25v-4l-37 -14l-20 10l-125 -4zM672 160l4 -37l-4 -60l-17 -49l-43 -2l-82 19l-20 12l-23 -23h-98l-92 -6l-23 -6l-36 29l-27 18l-29 -20l25 -4l14 -17l-37 -10l-41 4l-32 17l6 36l57 2l70 9l84 -9 l-9 -18l41 18l105 5l65 -5l41 9l23 -15l8 35l6 6v47l10 19l-4 43l11 39l43 -15v-63zM504 1446l2 51l47 -22v-23l-10 -55l8 -68l-8 -22v-47l8 -78l-4 -21l6 -96l-6 -25l4 -39l-4 -36l-4 -88l10 -27l-10 -68l8 -59l2 -68l-6 -37l6 -22l-14 -21l-17 19l-2 39l-4 31l-4 2l8 24 l-8 33l10 35l-10 73v35l4 2l-4 37l4 45l-6 25l6 57l23 27h-29l2 51l-8 64l6 22l-4 27l4 73l-6 74v76zM553 479l-31 66l31 10l-6 -27zM412 752l8 24h-27zM387 1251h6l19 27h-17zM322 1065l2 -10l10 4l-4 10zM401 436l15 13l-10 6zM383 39v10h-8v-10h8z" />
<glyph unicode="2" horiz-adv-x="987" d="M104 229l7 54v2l36 104v31l13 14l4 29l10 26l19 27l59 78l59 68l17 32l39 41l45 35l73 92l27 62l23 30l6 66l12 29l16 86l11 -13v25l-15 16l10 27l-22 4l-10 25l-33 34l-37 19l-53 8l-8 25l55 -2l25 -13l28 13l-16 38l-19 19l-43 20l-75 4l-74 -34l-27 -23l-41 -53l-6 -2 l-8 -29l-8 -22l-6 -50l18 -30l37 -2l78 -31l30 -33l5 -22v-58l-9 -28l-28 -33l-78 -29l-66 19h-28l73 -72l33 -14l68 26l37 23l26 24l21 43l16 19l12 -39l-26 -23l-45 -59l-37 -18h-19l-22 -9h-68l-22 15l-37 8l-49 33l-37 18l-17 41l37 31l-2 30l-28 50v34l-9 31l-4 51 l9 41v27l20 57l14 39l17 19l39 63l32 23l33 14l8 8l21 4l39 25l67 16l60 -4l78 -4l34 -14l29 -4l129 -76l41 -55l39 -72l6 -39l10 -31l-2 -20l4 -58l9 -32l-5 -27l-12 -78l-24 -41l-9 -30l-18 -44l-31 -24l-10 -25l-63 -47l-31 -30l-37 -35l-61 -33l-76 -66l-21 -28l-65 -86 l-23 -39l-4 -23l-29 -49l-24 -10l18 -12l17 -25l86 -4l26 -8l52 4h53l69 -4l35 4l19 14l10 31l-4 29l8 61l-10 39l6 35l20 24l25 -2l39 6l35 -16l4 -41l-6 -147l-7 -103l9 -31v-34l-6 -37l-46 -29l-26 -8l-64 12l-41 -6l-73 2l-82 4l-23 -4l-69 4l-72 -4l-55 -20l-39 -7 l-39 9l-8 41l4 22zM866 481l-4 -18v-70l-6 -45l4 -41v-86l-6 -26l6 -54v-57l-6 -49l-18 -19h-84l-66 -2l-68 -6l-57 8l-135 -6l-33 10l-35 -4l-61 -12l-23 6l-32 -4h-49l-31 -6l-37 2l-6 64l47 -3l16 -28l11 24h96l88 -12l20 4l78 -4l64 10l49 -6h188l27 15l8 18l8 59v80 l-2 62v49l2 100v68l-6 33l25 32l28 -24v-62zM893 1167v-73l-14 -86l-19 -86l-6 -11l-6 -6l-31 -65l-24 -15l-27 -41l-23 -8l-10 -26l-31 -21l-40 -12l47 53l24 10l10 29l50 72l2 22l18 21l6 28v33l19 55v17l8 90l-29 102l-14 31l-19 18l-45 60l9 31l32 2l41 -52l35 -53 l6 -14l10 -47l13 -25zM432 1094l2 -15l8 -49l-30 41l-23 45l-29 33l33 -4l19 -12zM305 1268l29 6l-19 -47l-26 -13zM565 1253l-6 29l-29 8v-10zM225 352h-10l-4 -28l31 10zM616 664l5 20l22 -14zM442 524l25 13l-16 -25z" />
<glyph unicode="3" horiz-adv-x="966" d="M334 115l-17 4l-20 6l-49 18l-86 41l-43 39v6l-17 23l-20 27l-2 22l-17 10l-2 82l13 15l-19 4v14l19 12v29l8 18l74 78h28l49 10l29 -16l62 -49l12 -33v-37l-19 -49l-10 -29l-20 -8l-21 -18l-47 -23l14 -28l25 -25l45 -18l2 -4l47 -19l78 6l27 23l30 16l48 72v41l14 100 l-2 98l6 19l-25 24l-8 31l-22 -6l-13 25h35l-20 43l-49 49l-48 18h-100l-84 4l-8 15l-4 20l4 72l33 8l53 -2l55 10l31 -8l39 4l45 19l14 24h4l9 21l16 18l2 47l10 82v35l-6 129l-18 37l-29 24l-2 25l-23 24l-69 11l-96 -17l-41 -32l-19 -39l-4 -43l43 -15l29 -4l20 -14 l19 -23h4l10 -26l8 -56l-100 -104l-47 -4l-35 10l14 -18l64 -13l80 19l10 6l33 18l26 54l2 51l-10 18l4 23l-12 53l24 -12v-23l13 -18l-11 -64l11 -35l-13 -38l-24 -15l-12 -33l-25 -22l-70 -21h-14l-63 -4l-27 7l-41 20l-31 33l4 67l-16 33l-6 27l-15 26v66l5 80l18 33 l16 14l23 31l78 55l69 41l33 6l90 12l56 -6l26 -8l115 -45l18 -23l23 -14l14 -23l27 -10l20 19l29 10l41 -47l10 -27l37 -71v-21l10 -18l12 -113l-2 -51l-34 6l-15 -55l27 -19l-8 -18l-54 -68l-32 -16l4 20l31 70h4l20 31v59l4 111l-12 43l-2 47l-39 37l-6 -23l18 -82v-22 l4 -72l-4 -16l-8 -31l-14 -23l-11 -45l-16 -24l-47 -54l-27 -10l-65 -57l18 -23l-6 -39l-24 -26l24 -19l19 11l20 4l4 37l47 -15l17 -14l-9 -41l35 18l37 -51l2 -22l33 -56l8 -53l8 -20l-16 -93l-47 -4l12 27l16 27l-2 51l-77 35l18 24l25 8l-23 37l-29 31l-32 -2l-47 10v21 l-11 -15l-6 -55l19 -31l18 23v-94l29 -31l16 -49l-12 -11l-33 13v-6l-18 -60l18 -31l-8 -22l-25 16v-37l-24 -36l-25 -9l8 -22l43 -10l23 -54l26 9l-18 -21l-55 -29l-49 -16l-43 -6l-68 -12l-18 6h-31v-4zM868 516l2 -45l7 -45l-17 -78l-24 -41l2 -22l-13 -27l-26 2l14 -27 l-14 -18l-19 -12l4 -4l-36 -49l-31 -25l-19 -29l-45 -35l-28 -14l-31 -31l-74 -14l-82 -10l-22 -8l-23 8l-71 10l-15 8l23 10l18 -10l10 29l21 18l70 -8l90 21l77 28l78 54l15 22l22 12l4 21l23 16l18 35l19 64l14 22l12 55v23l8 18v80l-8 43l-8 72l-12 14l-13 45l-30 45 l-41 47l-8 41l43 -43l10 -22l10 14l29 -28l43 -72l12 -53l16 -66zM729 334l-6 -21l-14 -28l-15 -11l-20 -38l-21 16v24l-10 -16l-41 -18l10 24l-32 -4l32 57l45 33l35 29l56 12l-5 -45zM279 80v-14l8 -19l-2 -27l-70 15l-25 16l-10 19l-28 4l-9 41l9 18l34 -2l25 -22l27 -7z M571 1090l-14 -9l18 -12l15 -18l55 -41l-29 -21l-26 -10l-2 -25l-13 -41l13 -6l24 60l60 67l-47 10l-4 25zM336 602l16 -8l45 -68h4l2 -26l-28 37l-49 49v18zM616 1221l-22 -9h41l4 25l45 8l-27 29h-8l-28 -29l4 -14zM225 623l-24 8l96 -21l-53 -2zM274 698l5 15h18l-10 -29 l-21 -2zM293 399l-12 -6l16 -22l20 18zM516 791l12 12l-47 22zM324 1319l28 -6l-16 -13l-25 9zM365 322v16l20 14l16 19z" />
<glyph unicode="4" horiz-adv-x="1024" d="M930 504l2 -45l-8 -41l-29 -25l-25 10l-24 -14l-37 -8v-53l-31 -13l19 -18l4 -84l-15 -74l-41 -22l-22 10l-57 -4l-37 8l-15 33l-4 78l13 20l-41 -4l-27 8l-10 -37l18 -41l-20 -12l26 -4l19 -45h-27l-29 -10l-40 2l-111 -6l-8 4l-19 26l-4 86l27 21l74 -2l32 6v37l43 6 v39l-6 35l31 6l-8 -23l24 4l-8 19l39 -10l-6 18l-14 14l-58 -6l-6 43l-8 23l12 22l-16 27l-19 18l45 31l-4 25l-18 -23l-14 33l28 37l-6 35l25 18l-52 41l13 35l-11 33v22l-12 27l6 96l6 20l-6 58l4 33v71l9 31l-64 -59l-18 -27l-15 -8l-26 55l-33 -10l35 -35l12 -18l-6 -48 l-19 5l-22 -5l25 -18l-11 -37l-18 -31l-27 -26l-6 -15l-16 -26l-27 -51l-12 -15l-21 -53l-22 -43l-12 -35l24 -20l37 8l18 16l23 6l20 -28l33 -4l66 -4l14 -19l23 -47l-19 -27l10 -22l-10 -19l-86 3l-8 4l-80 4l-8 4l-41 -4l-76 -19l-70 27v84l-4 18l-4 56l4 20l31 76l23 14 l18 51l45 56l19 35l51 96l39 57l12 37l22 16l31 68l4 27l19 36l18 23l15 41l8 6v12l28 25l17 47l24 29l9 37l22 26l31 6l65 4l45 -2l37 -12v-31l-2 -94l-6 -31l4 -34l4 -80l-2 -58l-6 -32v-82l4 -86v-170l-6 -49l2 -31v-72l31 -18l18 6l27 20l-4 107l6 18l-6 31l4 2l-8 18 l8 93l-10 57l2 90l-4 78l12 39l26 26l-41 -4l5 23l-5 51l11 21l4 24l-10 27l-7 37v41l2 63l64 -2l2 -37l-10 -20l4 -41l-4 -37l-4 -47l8 -62l-8 -41l4 -51l-4 -22l2 -43l-6 -103l-2 -94l-9 -29l11 -37l-7 -22v-47l-4 -21l4 -45l15 -69l26 -23v-37l-8 -67l-33 -8l-41 2 l-49 -23v-31l-14 -69l10 -17l-4 -45l31 -47l31 -2l14 25l4 108l10 29l90 14l15 23l10 61l-6 35l10 55h27l6 -32v-74zM410 387l-39 2l-49 -4l-39 4l-25 -4l-90 -8l-31 8l-24 -8l-31 -2l-19 24l11 27l82 6l20 -6l29 4l24 -6h76l31 4l51 -4l31 6l51 -22l31 -39l-13 -43v51 l-18 10l-45 6zM901 168l4 -70l8 -22l-16 -41l-41 8l-10 -8l-27 14l23 17l10 55v47l4 53l12 23l29 -2l4 -17l-4 -35zM764 49l-4 -14l-17 -10l-24 10l-37 -23l-37 13l-102 -7l-54 31l43 8h37l54 -8l18 8l25 -8l43 8zM422 57l10 -4l19 -10l-29 -35l-53 4l-7 31l15 23zM709 604 l18 -41l33 6l-15 39zM569 276l29 33l-51 8zM569 414l37 -6l-24 18l-43 -2zM432 905l-8 -18l-2 -37l-8 27v14l32 33zM838 12l14 -4l-55 10l18 13zM561 645h25l-17 19zM395 868l4 -18l-16 -23zM168 801v12l-12 -12h12z" />
<glyph unicode="5" horiz-adv-x="1021" d="M229 215l-18 -18l-33 -9v31l-22 -10l-19 14l-41 70l-4 12l-10 29l-27 49l4 82l-4 22l23 33l8 29l18 24h11l26 25l33 12l23 6l77 -10l41 -31l19 -22l16 -55l-6 -39l-61 -76l-41 -4l-13 -35l4 -20l78 -68l49 -18l95 2l6 6l53 33l29 18l14 33l4 30l19 52l8 71l-4 37l4 82 l4 96l-4 4l-8 52l-11 18l2 41l-28 37l-19 37l-18 12l-35 -4l-70 4l-22 -12l-70 -62l-18 -28l-21 -17l-45 -69l-51 -4l-59 14l-15 49l17 27l2 69l10 68v74l8 30l-4 41l4 43l-8 35l8 37v23l4 51l-4 43v61l-10 27v33l10 45l37 18h59l46 -14l43 -31l55 -23l80 -24l104 10l49 27 l43 51l45 12l64 -16l-17 -86l-18 -21l-25 -59l-47 -41l-24 -25h-6l-19 -18l-31 -12l-32 -17l-39 4l-29 -6h-33l-53 11l-20 8l-66 6l-18 -25l-6 -20l6 -27l-6 -35l4 -49l-13 -26l17 -86l41 20l14 70l-4 41l14 59l41 -6l33 6l57 -4l23 8l65 2l95 43l49 41l14 21v8l35 55l18 43 l2 21l19 86l39 4v-27l8 -29l-33 -96l-16 -24l-17 -29l-18 -33l-74 -78l-35 -20l-45 -17l-73 -12h-113l-33 10l-18 -10l-27 -59l39 -53l98 8l72 -8l49 -29l68 -39l82 -96l10 -25l16 -49l11 -35l6 -29v-57l4 -31l-2 -53l6 -45l-8 -35l-6 -59l-19 -62l-8 -4l-12 -24l-6 -35 l-21 -23v-8l-12 -24l-31 -27l-49 -41l-55 -27l-56 -18h-45l-71 -10h-62l-94 28l-21 13l-8 33l51 -13l17 -28l10 26l-35 31zM872 342l9 -37l-2 -26l-25 -50l-53 -61l-17 -31l-24 -24l-31 -21l-14 -22l-31 -19l-53 23l-10 -35v-16l-56 -19l-51 -16h-49l-19 10h-67l-27 6 l-18 25l43 22l20 -4l11 -18l16 18l45 -6l35 4l28 10l52 11l18 10l72 26l33 29l59 72l16 12l17 31l30 61l19 27l4 26zM930 573l4 -38l-4 -64l-8 -49l-11 -37l-30 12l-25 -24l10 39l2 45l11 37l6 63l-4 70l-9 20l-12 64v20l-8 21l-33 61l-20 27l-11 28l-36 15l-31 20l-4 33 l22 6l25 -20l47 -56l63 -90l19 -45l22 -69l7 -64zM393 389l4 12l11 56l-7 49l11 29l-23 49l17 6l20 -41l20 -33v-27l-4 -77l-59 -64zM334 63l-19 -6l13 -22l-27 -29l-51 19l-31 20l-22 31l36 -2l-14 26l37 -6l31 -18zM319 702l15 41l35 15l-9 -35zM416 776l-19 12l29 15 l35 -23l-23 -8zM692 287l35 10l-37 18zM211 1323l8 18l-49 7zM104 205l11 -17l-29 -4zM674 391l-17 -16l58 33zM649 315l-6 -32l19 32h-13zM266 1370l-4 10l-18 -34zM111 416l26 -13l-26 25v-12zM401 156l5 -9l8 3l-2 10z" />
<glyph unicode="6" horiz-adv-x="1013" d="M637 190l-14 -10l-43 -26l-31 16h-31l-55 16l-45 21l-8 24l-11 11l-45 -6l-14 -17l-33 12l-24 41l-7 33l-40 4l10 -30l4 -54l31 -30l2 -25l16 -20l-8 -23l18 -41l-59 8l-60 70l-14 24v13l45 6l-12 24l-41 50l-25 16v25l-8 24v23l-22 45l-17 30l-12 64l-12 29l-6 86 l-9 153l6 70l3 86l10 84l14 74l12 30v23l35 71l8 29l17 49l14 19l29 49l24 -10l25 20v45l18 19h23l41 32l37 21l59 10h74l37 -8l90 -33l45 -26l27 -25l22 -12l37 34l39 -16l6 -31l25 -47l4 -22l12 -23l-8 -24l8 -23l-4 -45l-15 -57l-34 -52l-43 -26l-58 -8l-10 18l10 25 l27 10l31 2l47 84l2 55l-10 60l-11 24l-28 19l-4 -64l6 -35l-2 -28l-17 -49l-6 -13l-49 -37l-47 -10l-64 31l-20 2l-8 16l41 8l34 -4l39 25l-47 41l-39 4l-47 -39l-10 57l27 56l37 26l-54 49l-90 -8l-28 -10l-25 -18l-23 -31v-12h-4l-4 -33l-18 -60l-10 -88l-13 -161l23 -41 l22 12l45 51l56 -18l67 4l60 -10l26 -21l62 -37l49 -63l18 -15l4 -26l23 -60l18 -26v-78l11 -27l4 -73l-11 -37l5 -27l-17 -84l-10 -18l-23 -74l-36 -43l-15 -27zM561 432l12 10l-12 19l-2 102l4 47l17 21l-17 18l-10 76l-12 43l-23 6l-14 17l-21 63l-6 6l-37 8l-73 -22 l-35 -37l-15 -53l-4 -43l-6 -21l-4 -55l6 -41l-6 -33l4 -90l10 -37l-4 -28l9 -27l-5 -47l15 -39h16l21 -23l26 -14l27 10l65 -14l56 72l2 36l14 21zM920 563l4 -6l-4 -31l-2 -71l-7 -15l-18 -59l-19 -94l-32 -39l-37 2l14 -43l-47 -72l-27 -22l-26 -15l-37 -24l-45 -13 l-21 15l2 22l41 11l37 30l31 33l55 72v10l33 45l19 41l16 68l14 73v86l4 62l-10 24l-2 49h-4l-6 31l-15 23l-4 24l-32 70l-39 22l-51 84h4l73 -47l19 -26l2 -23l39 -49l8 -25l18 -28l41 -113l2 -49zM455 791l39 -5l-72 -67l-27 -109l-4 -55l15 -33l-3 -96l7 -76l12 -24v-29 l-6 -21l-25 19l-10 31l-12 39l8 47l-10 32l2 37l-7 37l11 27l-4 24l8 27l-4 59l33 95l30 32h8zM483 1303l-39 -43l-18 -56v-43l-12 -47v-41l-15 -31l-18 72l6 66l4 2l4 22l4 33l27 41l14 33l68 14zM211 799l10 30l-31 19l-45 -29l-10 -45l41 -14l-18 -23l-4 -32l20 -21 l21 39l8 4zM418 43l-2 -23l-88 33l-21 2l21 31h8l22 -14l29 -9zM600 190l4 33l-14 39l-23 -2l19 -53zM106 492l31 36l-35 9zM248 1311l28 8l-28 12l-27 -12zM276 1380l13 9l-25 8zM850 315l6 13l-16 12zM713 104l10 9l-14 14z" />
<glyph unicode="7" horiz-adv-x="929" d="M197 1016l-52 -6l-59 22l-4 8l-2 45l-17 70v41l-16 64l27 10l-4 35l-9 18l-4 31l9 22l-11 62l11 57l22 4h82l37 -4l26 4l41 -12l86 4l72 2h111l28 6l95 2l49 -8l18 -31v-131l-8 -104l-10 -41l2 -41l-15 -76l-10 -20l-26 -91l-19 -40l-4 -19l-63 -96l-27 -55l-33 -66 l-10 -43l-31 -78l-12 -45l-14 -33l-4 -39l-17 -28v-17l-12 -77l6 -33l-10 -66l-10 -73l-23 -21l-84 -4l-78 -4l-18 -8h-29l-14 16l4 57l10 47v25l10 76l19 59l4 33l8 20l27 93l20 34l60 125l20 15l6 22l68 101l45 59l12 16l47 86l10 29l23 41l4 10l14 94l-41 15l-73 -4 l-45 14l45 18l41 -4l90 9l10 49l-18 18l-9 19l-32 4l-97 12l-43 -2l-51 -14h-92l-27 -23l-4 -59l8 -31l-8 -29v-45l-6 -84zM784 1163l23 -18l-8 -27v-51l-19 -76l-35 -88l-2 -8l-26 -41l-10 -45l-17 -37l-6 -14l-35 -60l-10 -41l-10 -22l-4 -23l-27 -37l-14 -49l-23 -100 v-33l-10 -49l-12 -29v-39l-11 -32l-4 -39l-39 -31l9 -22l4 -31l-23 -6v75l8 35l39 15l-35 34l19 88l37 154l32 59l5 35l18 35v21l14 28h23l-17 27l37 70l41 79l13 52l24 63l19 66v36l24 39zM524 70l-14 -23l10 -22l-67 -15h-107l-43 6l-96 -14l-43 4l-17 33l9 33l34 -2 l29 -13h45l115 -4l18 6h37l41 -6zM166 893l-25 6l-49 8l4 23l15 18l110 -8l66 8l16 23l6 28l21 -2l10 -39l-6 -34l-66 -25l-67 4zM825 1495l11 -29v-43l-7 -86l-8 -47l8 -26l-49 -25l4 74v84l15 30l-17 19l6 37zM389 1196l-33 -22l-14 -29l-20 -10l-11 43l37 36zM707 1298 h-27l-31 -12l6 -22l31 -23l-10 -18l4 -4l41 22l-35 53zM618 1376l-6 -16l35 -10l49 26l-30 8l-23 -12zM506 1391l-21 -19l25 10h25l36 19l-20 14zM408 236l6 12l-19 10l-28 -35zM506 700l6 13l-39 12zM553 981l-2 33h-12zM82 1257h14v13z" />
<glyph unicode="8" horiz-adv-x="1032" d="M938 487l4 -59l-12 -27l-6 -67l-9 -17l-20 -67l-37 -45l-31 -41l-53 -53l-33 -25l-34 -20l-48 -19l-55 -14l-45 -13l-86 3l-22 -5l-132 29l-55 23l-53 26l6 54l23 -9l32 25l-43 45l13 31l41 28l-17 19l-20 12l-35 41l-16 25l41 49l30 -68l6 -18l19 -13l41 -43l30 -14 l33 -14l51 -4l64 10l-8 -10l2 -31l22 -25l-8 66l70 49l12 16l35 39l2 23l6 53l8 31l-16 35l-6 26l4 47l-19 -10l-28 29l-8 16l-17 15v8l-33 22l-51 33l-49 14l-10 17l-49 20l-68 -51l27 59l-33 -14l-33 12l-4 31l18 23l-10 30l-30 27l-43 45l-11 18l23 11l6 -23l22 -20 l35 -9l29 -36l31 -9l22 11l-28 8l-13 37l27 12l2 27l12 24l-18 19l-29 4l6 24l-14 39l31 37l22 -27l103 -79l36 -17l123 123l4 14l19 27v100l-15 45l-26 27l-25 14l-78 11l31 24l-14 39l-78 17l-41 -7l-43 -20l-18 -16l-41 -52l-6 -51l-11 -18l8 -23l-2 -39l13 -33l-19 -20 l23 -31l-31 2l-24 23l-17 24l-20 13l-17 18l11 25l24 100l-16 19l-29 -9l-10 19l2 53l29 25l20 30l29 19l77 37l35 12l86 2h66l26 -6l109 -49l55 -45l37 -29l27 -51l22 -86l4 -68l-6 -31l-18 -65l-29 -41l-49 -49l-25 -10l-59 -64l12 -43l58 -53l61 -58l31 -32l20 -31l9 -18 l10 -15l14 -41l8 -37h-4l4 -75l-14 -134l-8 -14l-56 -90l-45 -37v-4l-47 -29l-24 -18l-29 -8l-63 -19l-54 -8l-55 -8l-29 6l-49 2l-41 14l-4 -34l8 -2l19 -7v-4l26 -14l113 -27h31l22 -12l8 16l50 3l51 16l51 33l21 4l47 33l39 32l38 49h5l4 19h4l4 8l28 55l19 41l2 27 l10 70l-8 41l4 61l-6 23l-31 79l-16 27l-66 88v23l29 -13l27 -28l32 -47l9 -9l36 -100l17 -59zM78 502l-15 -27l-4 53l13 52l32 53l60 61l22 11l9 -7l28 23l43 -66l-20 -22l-33 33l-27 -23l-53 -14l23 -13l43 5l-13 -29l17 -31l20 -26l-4 -37l4 -35l-41 -2l-20 -10l-35 30z M756 1370l-6 29l18 4l70 -70l26 -49l13 -59l6 -90l-9 -64l-40 -63l-19 -31l-24 -6l2 18l30 53v37l19 23l4 45l14 43l-8 47l-6 10l-8 19l-27 39zM158 297l22 -23l21 -22l-6 -23l-45 27l-41 49h-5l-4 25l-32 65l-5 19l5 28l32 -8l19 -14l-25 -37l10 -23l17 -18l24 -12l-14 -25 zM592 242l-10 -19l32 4l33 11l12 30l48 29l-48 -4l-36 -33zM104 1085l-8 43h76l-27 -53l-22 23zM150 1221l-11 -13l-37 9l13 32l6 45l16 -32zM156 569l-23 -30l8 -23l21 -18v49l6 22h-12zM733 643l17 -37l18 8l23 2l-9 27l-20 -4zM666 328l4 -21l43 -10l24 10zM317 446l9 -2 l12 -73l-23 24zM377 186l-15 -22l19 -14l16 20zM303 776l2 35l-26 -18zM725 391l-25 -12l23 -12zM303 494l19 12l-5 -33zM856 223v10l-33 -22zM211 1403l16 -8l4 12zM567 229v-10h6v10h-6zM141 975l9 -10l6 -13zM399 1253l-8 -6l19 15z" />
<glyph unicode="9" horiz-adv-x="968" d="M877 891l2 -27l-5 -78v-49l-4 -94l-10 -25l-2 -34l-12 -29l-8 -78l-27 -67l-18 -78l-48 -70l-4 -20l-22 -19l-27 -41l-26 -28l-25 -4l-12 -27l-47 -37l-23 -4l-39 -25l-74 -20l-43 4l-81 14l-58 21l-33 37l9 47l-23 22l-37 27l-30 35l-5 28l-24 33l-2 45l-10 27l6 47 l41 63l71 54l52 -4l43 -27l18 -31l6 -51l-24 -63l-31 -31l-12 -29l30 -31l45 -20h60l37 6l36 -16l23 30l-8 58l6 4l18 37l17 82v45l6 41l-4 51l-45 18l-49 -10l55 43l37 16l16 43l-31 21l-51 -37l-63 -12h-56l-82 6l-28 25l-29 14l-18 18l-27 8l-6 23l-31 18l-47 97l-16 78 l-19 40l8 76l-8 21l8 49l5 53l34 72l19 67l24 37l29 35l62 55l51 27l51 4l94 6l23 -6l69 -14l45 -23l35 -24l49 -56l52 -55l-41 4l-17 -18l23 -13l26 5l27 -13l-59 -24l-29 26l-37 -2l29 -30l26 6l39 -11l31 -30l27 -6l14 -132l-74 -10l43 -10h35v-37l14 -106v-37l-4 -82 l-8 -78v-47l-8 -47l-2 -60l-17 -26l-6 -41l-37 -98l-22 -50l-25 -49l-16 -16l-21 -43l-20 -4l-8 -27l-74 -59l-108 -47l-33 18l-27 -18l8 -2l103 -5l63 17l94 63h19l33 56l41 37l6 24l24 25l37 71l-6 29l14 27l15 49l4 37l10 24v82l23 121l-5 51l-10 64v78l8 40l-18 86 l-8 11l-10 78l-13 26v10l-10 17l-6 22l8 27l-18 12v31l22 -14l19 -19l12 -45l10 -14l4 -29l19 -57l4 -64l18 -37v-41l8 -45zM559 1016l2 26l-2 23l4 37l-8 26v37l-6 68l-43 100l-33 15l-8 38l-78 17l-29 -10l-32 -41l-23 -37l-12 -86l-12 -49v-35l-11 -74l11 -22v-80l8 -45 l32 -93l27 -30l27 -4l22 14l15 -10l55 -6l27 6l40 37l7 59l12 27l-2 22l6 23l-4 20zM391 1339l19 -6l-15 -43l-20 -37l-13 -47l-4 54l4 28zM403 496l21 -11l16 -24l6 -47l-14 -15l-22 64zM358 1065l4 -27l-4 -22l-12 20l4 29h8zM614 700l-4 -20l27 20l-2 15zM104 1034v8h-8 v-18zM664 1034v-10h8v10h-8z" />
<glyph unicode=":" horiz-adv-x="479" d="M377 281v-39l4 -39l-2 -45l-4 -13h-4l-23 -47l-41 -35l-100 -32l-47 8l-60 37l-16 16l14 25l72 -43l70 -11l65 31l21 56l4 22l-13 47l-14 -33l-45 -41l-20 -6l-5 -8l-24 -8h-43l-31 8l-37 23l-14 26l-18 19l-9 47l17 63l18 13l45 47l29 2h33l30 -6l23 -19l33 -12l26 -43 l29 14zM395 813h-10l10 -20l-16 -17l4 -43l-53 -12l10 20v45l-18 37l-23 -18l-2 -31l-35 2l-37 -12l23 -27l-45 -14l-15 -18h-36l-21 -37l-25 28l11 19l-25 -6l-22 79l-4 41l22 62l10 14l19 10v5l35 14h59l31 -12l24 -17l58 -4l30 -18l23 -17zM199 127v14l-25 -10zM305 666 l12 24l13 19zM74 793v-7h6v7h-6z" />
<glyph unicode=";" horiz-adv-x="516" d="M150 399l26 4l41 -2v-24l23 -37l18 -16l18 18l27 -27l10 -55l4 -78l-8 -10l-6 -41l-12 -33l-19 -35l-30 -32v-19l-56 -47l-71 -53l-31 10l-10 41l16 33l60 57l2 33l-48 45l-36 27v49l-13 20v37l4 72l41 55l50 8l18 -26l25 -2l-13 18h-6zM59 819l15 45l30 64l23 10l84 14 l53 -32h45l23 -15l33 -31l26 -45l-10 -36l-4 -48l-15 -18l-16 -41l-10 -8h-8l-11 -10l-53 -27h-33l-38 8l24 19l31 10l39 4l26 37l6 4l3 14l14 64l-19 35l-22 -19l-12 -47l-35 -31l-39 -18l-64 -2l-6 -27l11 -18l-13 -23l-24 17l-19 22h25l-17 29l7 74l24 -25l12 33l-18 10z M418 295l6 -35v-74l-10 -69l-19 -49l-22 -23l-15 18l15 19l8 72l-6 69l-19 74l-53 45l-24 29l30 30l29 -12l-29 -12l23 -4l14 14l29 -25zM338 20l8 -6l-18 -59l-6 -10l-50 -37l-8 -31l-74 -51l-67 4l-10 6l-41 27l-9 14v39l27 -12l31 -29l35 -18l37 18l38 37l56 51l26 45z M113 158l8 -31l72 4l-11 19l-30 14zM133 246l-20 -39l37 31zM209 94l-16 4l-11 -16l35 4zM279 276l4 -16l18 16h-22z" />
<glyph unicode="&#x3c;" horiz-adv-x="1316" d="M948 440l-22 -2l-27 21l-59 -19v4l-101 33l-8 6l-59 17l-19 24l-32 11l-23 -9l-14 17l-23 2l23 12l-13 23l-24 6l6 24l-29 2l-12 29l-18 -14l10 -23l-19 -12l-77 20l-13 9l-37 8l-6 10l-37 14l-67 41l-23 19l-45 -4l-2 34l21 15l-19 8l-10 -18l-33 -23l-26 14l-50 37 l-4 39l43 66l17 12l63 14l31 15l33 10l41 26l26 5l37 16l29 6l31 19l120 53l66 14l29 16l22 25l47 14h21l45 19l33 18l16 15l20 4l21 14l82 23l-15 -19l50 2l-17 -31l45 11l29 41l-18 8l47 37l22 12l27 6l26 -12l2 -49l-24 -54h-27l-26 -12l-15 -14l-106 -39l-27 -16 l-47 -15v-4l-12 -2l-56 -29l-61 -18l-70 -29l-51 -22l-57 -23l-78 -41l-100 -20l-29 -25l-37 -16l-24 -55h22l41 8l41 16l31 6l16 -6l29 -2l-21 23l23 4l35 18l55 14l55 -4l-30 2l18 -8l-31 -18l-80 -27l-22 -18l-23 -4l-14 -15l-43 -18l10 -23l56 -20l22 -21l27 -41v19 l-9 26l150 -63l33 -8l37 -21l14 -6l41 -12l16 -12l41 -19l51 -18l19 -19l-23 -8l35 -8l8 22l25 -4l53 -26l33 -6l22 -19h19l14 -35l-37 -32l-16 32l-39 9l14 -23h-28zM858 375l8 -4v-31l-16 -18l-47 18l-23 4l-8 18l-115 46l-41 8l-38 28l-78 23l-21 10l2 29l-14 -25l-47 27 h-27l-39 27l-30 10l-9 35l37 -13l41 -6l21 -16l37 -10l71 -27l76 -41l29 -4l22 -14l45 -9l54 -28h22zM1223 285l6 -37l-21 -62l-45 2l-53 29l-59 19l-43 30l-45 8l-45 29l10 23l57 -19l23 -18l63 -15l10 -12l35 -8l74 35v22h29zM848 961h-8l-15 -11l-30 23l12 18h29l26 13 l10 12l68 28l27 9l73 24v-33l-67 -18l-33 -27l-68 -20zM1182 1114l-41 12l30 9l35 20l-18 37l-2 100l28 2l13 -39l-2 -28l-6 -74l4 -27l-35 -22zM270 602l15 -12l-11 -23l-81 35h-13l-18 19l-80 10l-35 22l78 9l35 -33l88 -13zM631 905l55 37l45 8l-14 -45l-82 -22z M1036 381l31 8l4 -37h-12l-37 15l-59 41l41 4zM1114 1118l14 4l29 -22l-31 -25l-45 2l11 27zM1223 389l4 -14l-2 -27l-29 12l4 48zM1133 416l-5 -13l-14 -28l8 22l-30 -4l16 23l10 28zM608 1026l-22 -22l35 -7v29h-13zM948 1149l-30 -12l16 -15l39 31zM156 815l-2 29 l-13 -29h15zM807 494l-4 30l-12 -6zM543 553l-15 2l11 18zM596 1059v-6h6v6h-6zM1073 348v4h-2z" />
<glyph unicode="=" horiz-adv-x="1243" d="M219 590l-31 -4l-82 4l-40 -4l-9 22l9 82l51 -6l20 6l47 -6l35 16l37 -2l18 -8l50 4l36 -6l23 6l102 -10l76 10l94 -4h95l67 8l31 -4l86 -4l33 10l82 -6l6 -53l-15 -51h-346l-55 -8l-33 6l-84 2h-170l-30 -8l-56 4zM82 950l-16 8v89l40 8h41l64 -8l37 4l90 -2l55 8l96 2 l72 -49l25 -60l12 -8l-41 8l-59 -14l-97 14l-71 -8l-54 2h-106l-49 10zM616 1036l33 31l37 -14l45 -2l100 6l87 -4l16 4l20 -4l50 4l45 -21l10 -39v-30l-8 -19l-84 6l-52 -10l-22 6h-27v4l-22 -6l-60 2l-86 -2l-4 47l29 2l18 13h-24l-27 12l-14 22l-4 -28l-37 2zM1157 561 v-22l-6 -27l-23 -29h-358l-68 11l-43 -9h-53l-39 35l23 4l90 -8l37 8l45 -4l80 8l30 -10l21 6h33l55 -6l92 6l25 6l16 52l8 94l31 -23v-49zM565 872l2 15h60l-70 -41l-41 -2h-137l-31 -4h-119l-20 6l-37 -10l-31 4l-22 -4l-8 45l30 10l29 -4l98 -2l82 -4h76l86 6zM1085 872 l-6 17l25 41l10 69l-6 54l37 -21l8 -51v-86l-2 -37l-25 -12l-82 -2l-22 8h-33l-18 -8l-199 10l-37 14l53 19l13 -17l47 11l18 -13l52 13l55 2l57 -11l25 15zM530 512l-8 -23l-51 -6l-41 2l-55 -2l-21 6l-47 -4l-22 9l-19 -9h-45l-22 27l30 4l23 8l47 -6l35 8h37l45 -8l28 8z M154 504l6 -10l-78 6l39 8zM401 641h-41l29 -14zM1135 981l-7 -8h13z" />
<glyph unicode="&#x3e;" horiz-adv-x="1316" d="M332 449l-6 -5l-64 -8l-16 19l-6 37l14 45h18l11 10l36 12l58 14l-4 -47h43l-13 47h-26v5l59 22l86 41l39 10l17 17l75 22l64 31l65 24v-4l41 17l-73 43l-78 49l73 -4l111 -45l27 -4l47 10l-10 31l-60 26l-96 41l-64 19l-102 51l-74 26l-35 17l-67 33l-41 4l-14 16l-27 6 l-14 33l36 47l-40 -2l-5 -27l-36 -22l-82 35l-45 14l-45 21l-41 6l-9 28l31 68l19 6l4 -29l-7 -32l39 -19l11 -22l61 -19l49 11l-20 8l-15 16l27 27l55 -27l27 6l14 -16l27 -4l90 -47l23 -4l20 -13h27l69 -41l66 -26l65 -25l111 -55h41v-4l37 -17l2 -6l112 -37l39 -22 l45 -19l5 -41l-5 -45l-18 -26h-23l-10 -15l-86 -26l-45 -23l-35 -8l-96 -51l-43 -15l-27 -18l-63 -14l-12 -13l-78 -36l-33 4l-18 -9l-54 -34l-43 -13l-30 -18zM838 555h18l-29 -23l-22 -10v23l-37 -13l4 -14l-45 -31l-41 -14l-72 -22l-36 -25h-7l-39 -12l-26 -15l-53 -18 l-43 -29l-66 -20l-27 30l27 37l23 -4l98 41l43 8l33 15l39 18l16 -14l14 22l43 2l29 -6l23 6l18 27l-27 12l54 21v4l32 4l52 18zM68 399l-11 15l9 37l53 30h20l25 19l31 8h26l-28 -10l2 -21l-15 -18l-4 -35l14 -16l5 -19l-33 -16l2 41l-43 -31l-8 -21l-37 -16l-17 25z M317 1024l5 -12l28 -13l72 -16l96 -41l41 -33l-35 -12l-20 8h-23l-71 33l-25 18l-45 13l-21 18l-83 23l4 43l18 -11h23zM1159 702l6 -24l-78 -35l-55 -14l-45 -29l-86 -18l37 43l63 18l21 -6l41 31l43 22l22 6zM264 332l-59 -51l-21 -5l-57 -34h-6l-27 -11h-35l31 50l23 -2 l37 16l63 22zM145 1243l-8 10l6 21l29 -14l45 -13l31 -22l-39 4l-23 18zM604 866l-26 19l8 20l28 -4l19 -18l20 -11zM102 1079l-36 11l-7 8l13 26l32 -12zM928 909l14 19l-70 -13l39 -28zM1221 733l6 -31l-25 -20v45l-12 25zM145 1055l-6 10l11 22h8zM377 1169v7h-4v-7h4z " />
<glyph unicode="?" horiz-adv-x="929" d="M285 934l-37 2l-55 8h-37l-25 27l-41 26l-16 47l12 19l18 12l-14 41l-22 23v39l-13 49l8 22l15 78l18 49l6 4l37 60l17 18l37 15l92 43l41 10l57 2l88 -12l35 -13l31 -4l41 -26l45 -33v-4l41 -60l26 -59l15 -43v-72l4 -53l6 -29l-8 -49l-41 -96l-39 -82l-27 -12l-12 -25 l-29 -25h-8l-6 -6l-53 -49l-5 -24l-28 -19l-19 -45l-22 -12l-8 -29l-29 -63v-60l-8 -100l-31 -4l-41 6l-4 25l12 28l-12 21l25 35l34 -7l-28 33h-25l-2 27l12 18l-8 19l12 22v33l33 86v22l31 50l37 55l65 100v23l23 59l12 60l-8 24l8 31v18l-18 45l-23 21l-37 18h-26l-23 29 l55 -4l50 4v6l-25 45l-39 27l-37 2l-22 6l-41 -6l-41 -17l-31 -4l-31 -18l-49 -64l-12 -24l12 -31l33 8l33 2l49 -16l33 -43l16 -37l10 -59l-14 -37l-18 -17l-13 -18l-26 -10h-17l-26 -8l-45 6l-15 16l-22 -18l16 -17v-6l31 -31l45 -10l51 6l68 41l41 58v-37l-64 -68 l-29 -12zM563 229l-8 -36l-4 -46l-27 -55l-92 -51h-29l-38 10l24 17l33 10h33l34 47l7 12l12 66l-19 35l-20 -19l-8 -39l-6 -10l-33 -29l-41 -18l-64 -4l-4 -25l9 -18l-13 -21l-43 29l-20 96l-15 72l17 12l10 41l14 14l29 19l82 16l45 -39l18 4l97 -51zM838 1167l4 -45 l-4 -32l-11 -74l-16 -19l-10 23l-49 -6l22 57l4 74l-35 147l-18 19l-35 55l19 41l24 -4l60 -82l16 -37v-29l14 -30zM809 975v-10l-27 -39l-37 -60l-22 -10l-27 -41l-26 -8l-15 -27l-28 -20l-11 -19l-34 11l47 51l22 8l23 45l16 21l6 26l27 15v16l22 24l17 27l31 -24z M358 1206l-14 19v12l21 -10l41 -51l8 -23l-19 -18l-18 47zM291 1292l14 19h21l-17 -39l-30 -4zM506 1448l-23 -29l31 13l18 16h-26zM487 573l9 -2v-16l-9 -20v38zM322 438l-17 8v-8h17z" />
<glyph unicode="@" horiz-adv-x="1935" d="M1841 907l-6 -65l-2 -33l-25 -96v-19l-22 -30v43l6 43l6 8l2 78l4 96l-6 16l-2 49l-14 35l-8 62l-19 57l-2 35l-16 33l22 26l-55 55l-18 11l-15 18l-8 25l-41 43l-37 30l-26 31l-21 12l39 -47l76 -94l18 -29l43 -90l8 -61l23 -84l10 -125l-12 -76l4 -41l-2 -43l-14 -18 l-13 -45v-31l-28 -39l-4 -24l-11 -23l-12 41l-10 18l-19 19l-16 -47v-21l-19 -20l19 -33l-41 -90l-39 -27l-49 -47h-16l-19 -12l-27 -6l-92 -23l-18 -8l-49 -4l-51 4l-23 12h-25l-18 11l-21 2l-34 18l-13 12l-16 9l-43 73l-20 8l-7 -6l-34 -24l-84 -66l-31 -8l-60 -4l-30 4 l-37 12l8 -35l45 -18l27 -4h102l27 16l18 19l19 6l22 22l58 -59l65 -18l100 -35l37 -2l82 2l90 24l43 15l25 4l6 6l55 8l-73 -51l-74 -12l-31 -13l-100 -2l-37 -6l-33 8h-41l-41 13h-22l-19 12l-51 12l-53 31l-45 -33l-37 -8l-55 -10l-58 6l-28 12l-31 6l-74 64l-12 53 l12 29l-12 45l-17 49v29l-6 16l13 96l37 92l40 41l46 27l32 4l37 19l37 4l47 14l37 18l33 19l26 35l7 73l2 78h-2l-15 53l-37 11l29 18l-59 51h-41l-64 -10l-43 -41l27 -37l6 -112l-41 -52l-53 -4l-35 4v-32l-23 2l-26 47l4 49l-21 76l9 45l18 47l14 22l25 21l12 16l39 31 l51 6l90 25l97 -6l49 -11l14 -10l49 -22h-67l-13 -9l13 -41l24 -18l31 18l31 -10l28 23l35 -41l15 -27l6 -33h-37l-10 23l-39 -12l16 -29l33 6l41 -25v-49l-4 -12l4 -74l-10 -37l-2 -34l6 -60l-4 -14v-137l6 -31v-55l-11 -47l15 -50l-4 -22l43 -64l35 -22l32 -4l80 22 l101 62l57 69l26 45l13 41l24 56l43 14l-14 10l-23 -2l19 78l12 37l-2 31l43 14l-18 37h-23l-2 63l-10 95l-2 32l-12 49l-13 19l-2 24l-12 15l-23 45l-16 49l-39 45l-26 37l-29 51l-39 14l-21 23l-71 39l-29 22l-55 19l-25 14h-18l-23 15l-43 4v4l-53 14h-70l-28 4l-99 -4 l-133 -27l-47 -18h-20l-95 -49l-14 -19l-41 -18l-35 -23l-36 -36l-21 -33l-8 -4l-82 -92l-35 -82l-29 -49l-14 -48l-31 -108l4 -39l-8 -37l4 -41l-10 -24l4 -78l-8 -13v-73l8 -17l21 -133l18 -37l10 -12l2 -43l19 -22l37 -68l20 -23l19 -43l28 -36l19 -17l69 -45l35 -33 l23 -26l26 -13l25 -28l49 -4l16 -17l21 -8h31l18 -20l88 -21l76 -8l4 -8h72l88 -2l82 2l22 8l88 27h23l18 10h13l18 12l41 10l37 23l41 18v4l24 11l56 39l16 18l55 31l2 -72l-20 -18l-60 -39l-18 -15l-29 -14l-71 -45l-33 -14l-49 -15l-33 -10l-94 -20l-74 -15l-94 -4l-78 2 l-10 17l-8 -15h-97l-82 17l-34 16l-35 2l-25 10l-61 17l-31 12l-25 18l-30 11l-19 22l-51 25l-16 16h-15l-22 23l-23 14l-37 35l15 -17l59 -88l8 -26l-61 37l-16 18l14 23l-47 26l-25 27l-35 104l-49 60l-12 26l-14 15v18l-19 18l-14 50l-37 81l-25 101v33l-10 49v55l4 64 l4 100l21 123l47 67l-8 25h26l-18 22l10 19l60 113l22 14v12l19 14l30 35l66 70l82 70l155 71l27 19l33 6l117 31l104 6l20 6l58 -2l96 -4l49 -6l78 -19l78 -24l22 -3l64 -26l10 -2l-6 24h41l27 -20l38 -12l54 -33l32 -27h19l22 -26l27 -29h18l48 -41l12 -47l22 -2l15 -15 l26 -51l45 -53l29 -59l2 -23l6 -33l23 -71v-41l8 -23l2 -33l-2 -71zM999 817l7 51l-54 -22l-59 -37l-47 -14l-39 -23l-6 -33v-73l-6 -29l6 -82l18 -59l10 -11l97 27l41 59l20 21l12 65l9 84zM1704 217l14 -18l-10 -78l-31 -27l-24 -6l-23 2l-33 -6l11 -31l-52 -33l-38 -30 l-78 -45h-37l-23 -6l-67 -29l-41 -2l-15 -6l-104 -13h-45l-29 19l56 4l36 20l41 2l35 11l70 8v4l29 8l45 15l18 10l55 26h19l35 33l38 17l17 22l55 27l21 28l26 15l2 49l-30 33l8 22l20 -10zM1182 1249l20 15l8 -7l37 -43l21 -14v-67l12 -52v-96l-8 -16l8 -37l-14 -55l6 -27 v-37l-10 -33l-2 -43l-21 19l2 49l-6 45l4 22v64l2 43l-6 35l33 -8l-33 28l4 31l-8 31l4 30l-10 17l-23 84zM375 1143l-10 -17l-15 -39l-2 -36l-8 -29l-31 -68v-47l-12 -98v-33l-14 -12l-4 67l4 87l8 18l10 61l23 109l10 31l45 92l14 12h8l-8 -86zM340 426l-2 14l-8 13l-8 30 l-17 31l-4 57l-18 88l8 25l-4 35l6 -25l16 -37l6 -59l13 -18v-39l22 -58l8 -53l7 -22zM866 1569l13 8h41l-19 -8l-27 -23l-51 -10l-39 2zM492 121l6 -31l26 -14l15 18l-19 27h19l-33 22h-8zM739 39l-2 -19l47 -8l-20 41l-19 -6v-8h-6zM1567 358l32 50l19 4l-10 -35l-11 -8z M745 750l50 -5l4 27l-19 -8h-22zM893 1182l-27 -39l-14 39h41zM1272 649l-6 -14l-4 -41l-15 18l-6 19zM432 1282l-2 23l35 22l-4 -22zM829 977l23 22l-8 -36l-29 -5zM854 -84l16 -14l-45 -8l-10 18l21 -10zM1604 1300l-29 5l-2 -29zM1708 514l18 -10l-32 -23zM1053 1655 l18 28l-31 -8zM940 899l8 -16l27 18zM111 1053v16h-25zM737 -55l15 -2l-9 -21zM856 522l16 17v-17h-16zM1675 115l11 6l-27 10zM758 1624v8h-6v-8h6z" />
<glyph unicode="A" d="M709 131l-39 -10l-39 6l-25 -10l-33 14l-10 41l12 51l13 19l33 30l-5 74l-28 68l4 37l-12 45l-29 8l-4 53l-12 66l8 18v115l-8 63l-21 -18l-8 37l10 53l19 -33l12 51l-27 11l-24 24l-4 -39l-19 76l-2 43l-20 29l-19 -21l-4 -78l-16 -67l-6 -68l-13 -43l-10 -57l-12 -70 l12 -33l23 -6h110l-6 -41l6 -43l8 -18l-28 -8h-78l-17 4l-55 -12l-8 -19l-14 -14l-5 -51l-14 -39l4 -54l-12 -28l22 -45l27 6l23 14l28 -26l9 -46l-9 -49l-10 -18l-59 -2h-95l-10 -4h-37l-112 4l-13 43l2 67l56 5l22 6l19 12l-4 25l20 81l19 29l2 55l14 48l8 67l10 59l13 31 v37l12 35l12 70l25 124l28 101v43l9 24l-9 25l19 29l4 67l4 2l19 105l10 26l20 142l60 34h32l93 -49l8 -22l-4 -31l14 -49l4 -29l19 -49v-20l8 -23l6 -78l8 -20l16 -119l13 -25l20 -94l10 -69l5 -7l4 -34l28 -99l6 -47l13 -33v-34l8 -50l14 -43l13 -65l18 -62l4 -45l19 -59 l40 -8l5 41l4 4l-9 45l-12 33l-10 67l-14 27v29l-9 22v37l19 23l8 -27l18 -33v-51l11 -31h4l4 -28l18 -64l19 -94v-68l-19 -32l-22 -11l-78 6l-18 -10zM631 1393v22l-2 45l6 27l39 -29l10 -39l14 -76l-6 -20l13 -29l-3 -49l37 -86l6 -57l-6 -29l13 -18l12 -41l-16 -23 l16 -12l16 -51l8 -45l23 -97l-6 -34l31 -50l-19 -90v35l-20 35v45l-27 66h-4l-14 94l-9 22l-6 41l-8 6l-4 58l-6 20h-4l-8 62l-17 55l2 23l-12 24l18 47l-36 29l-19 96zM1022 131l2 -4l-2 -66l-23 -43h-73l-15 7l-69 -5l-170 5l-19 14l35 16h201l59 8l31 78v35l33 49l4 -63z M551 55v-2l-37 -26l-96 -7l-78 -4l-43 9l-88 -5l-90 -2v25l-19 -27l19 41l26 -4l60 2l39 -6l78 6h65l23 -6l45 -2zM539 1018l24 33l6 55l-18 18l10 31l-14 23v20l-15 39l-36 -31l10 -24v-37l-8 -27l16 -31l-8 -28l45 -19zM475 1313l68 -47l-15 94l-26 37v26l-27 -2l-18 -41 l18 -20l23 -37zM606 43l-12 -18l-33 -7l2 39l37 -8zM401 819l-8 31l-24 -19l-4 -30zM352 737l4 13l-32 -11l-2 -26zM528 229l17 -24l2 -37l-4 -14zM524 424l-32 -18l-41 6zM653 700v9h-10v-9h10zM535 1313h-7v-6h7v6z" />
<glyph unicode="B" horiz-adv-x="1105" d="M63 141v27l27 86l51 2l41 18l-4 72l4 25v55l-6 41l2 20l6 13l-10 28l2 64v63l-8 78l2 49l8 97l-4 24l-4 62l6 106l-2 43v62l4 53l-18 49l-47 -8l-41 8l24 29l60 4l12 14l-10 37l-95 4l-14 31l-8 61l8 27l47 18l47 -2l125 -4l66 -4l69 4h93l151 -22l53 -23l43 -27l-10 23 l35 4l14 -18l45 -17l11 -18l4 -21l-27 2l-45 23l31 -47l45 -60l10 -36l4 -17l14 -33l9 -65l-17 -74l-10 -22v-25l-27 -37l-10 -35l-63 -43l-23 -22l-22 26l-29 19v14l-8 10l-15 23l15 22l4 35l-8 25l2 31v59l-25 104l-18 19l-4 33l-15 26l-28 29h-25l-27 8l-75 8l-72 -30 l2 -31l-8 -29l4 -26l-6 -33l2 -66l-4 -57v-127l14 -59l25 -11l24 19l15 28l45 -51l84 15l24 8l49 -4l13 -23l36 -18l9 -17l-15 -20l82 -45l41 -43l41 -39l12 -37l21 -27l20 -73l2 -86l-18 -88l-12 -58l-37 -69l-21 -21l-22 -41l-35 -24l-33 -27l-63 -23l-19 5l-59 -21 l-33 12l-67 -6l-35 -8h-105l-61 4l-90 -8h-66l-65 4zM381 782l-2 -34l8 -66l-4 -78l4 -53l-4 -35l4 -29l4 -81l-6 -64l10 -74l19 -12l28 6l95 -6l28 4l31 8l63 41l19 43l6 54l4 2l2 53l-2 76l-6 104l-78 133l-59 2l-35 12l-104 5zM1022 500v-39l-6 -53l-12 -84l-17 -43 l-16 -19l-39 -86l-25 -26l-28 -21l-19 -29l-22 -6l-45 -37l-41 -16l-97 -23h-20l-2 -4l-49 4l-39 -4l-17 17l-10 -17l-45 4l-100 -4l-78 6l-49 -16l-113 4l-33 -6l-37 10v33l29 10h82l57 -4l29 6l31 -8l33 6h34l29 6l64 -10l47 4l77 -4l25 6l35 -2l53 8l21 13h24l23 24 l78 45l30 23l33 41l16 14l37 68l17 41l8 43l18 94l-22 104l-19 39v39h11l43 -82zM924 1192v51l20 -14l8 -47l15 -21v-88l-11 -24l-30 -111l-33 -37l-19 -8l19 41l4 27l23 55l6 4l6 41l-6 74l4 30zM465 1174l-10 -13l-15 49l-4 62l19 24l32 -8l-14 -47zM387 856v-10l59 -15 l-4 23l17 25l28 -13l-32 27l-4 8l-37 -27l-19 -6zM469 365l-4 -33l-6 -23h-4v56h14zM596 842l-12 -27l41 -2zM459 551l-17 12l13 33zM618 709l-22 -9v15zM915 1272l-10 39l10 -27v-12z" />
<glyph unicode="C" horiz-adv-x="995" d="M825 334l25 -39l-14 -41l-33 -31l-55 -96l-5 -14l-75 -58l-103 -35l-14 5l-45 -17l-53 -2l-39 12l-35 2l-64 33l-8 10l-28 13l-27 22l-23 15l-36 51l10 22l-25 76l-45 70l-14 37l-27 94l-10 18l-8 41l-2 39l-17 62l6 18l-18 72l8 55l12 111l-2 71l31 47l-16 54l4 32 l18 56l2 41l23 75l18 37l25 21l18 35l9 26l49 64l37 37l79 30l84 11l7 -3l4 -6l49 -14l104 -82l23 -27l18 37l-2 43l17 31l90 6l32 -8l29 -16l-10 -93l4 -24l-4 -23l-39 11l-10 -37l30 12l23 -8v-23l-31 -14l27 -27v-82l4 -133l-8 -53l-11 -20h-24l-21 -9h-45l-30 9l-15 28 l-10 43l-8 58l33 2l22 14l-41 20l19 23l4 37l-33 18l8 -26l-59 43l-31 59l-65 25l-29 -15l-33 -28l-6 -23l-18 -8l28 92l23 6l41 21l-41 28l-49 4l-23 -6l-25 -16l-18 -37l-20 -88l-7 -74l-8 -20l-2 -88l-6 -135v-62l-6 -20l6 -101l-2 -35l-8 -84l14 -55l-6 -45l6 -33l4 -43 l8 -71l37 -72l6 -2v-6l21 -33l-8 -39l18 -18l31 16l4 27l29 -25h20l-10 21l-25 18l-37 21l27 6l21 -23l43 -2l77 43l25 33l31 63l14 52l10 53l8 100l33 43l37 -2l39 8l35 -18l-8 -62l2 -28l-11 -27l-4 -55l-10 -45l-27 -92l-32 -47l-13 -43l-24 -29l-19 -8l-8 -27l-53 -18 l-14 -19l-39 -4l-21 -10h-51l-43 -8l-25 8l-30 -4l-60 18v4l-26 6l22 -32l39 -19l55 -18l7 -8l12 -5l31 5l28 -5l33 13h27l22 8l19 -8l49 18l18 15l33 14l31 57l24 33l27 23l10 32l21 19l6 28zM909 1423l-16 -55v-20l10 -82l-4 -84l-6 -111l6 -35l4 -121l-55 -69l-12 26h20 l8 46l-8 45l6 36l23 19l4 29l-29 12v166l-4 104l6 64l-8 34l-6 50l18 16l43 -18v-52zM367 897l4 23v8l4 53l4 152l27 71l14 -26l-4 -45v-60l-8 -33v-34l4 -68l-6 -12l2 -58l-2 -49l-31 -43l-2 51zM406 332l2 30l-23 19l-6 41l-4 164l-8 24l8 68l-4 31l8 28l22 15l5 -47 l-5 -52l5 -37l-5 -61v-63l23 -140zM215 1108l27 6l-21 33l15 67l32 27l-18 23v14l-21 14l-32 15l14 -43h-18l-11 -35l15 -31l-27 -18l-41 -9l-23 -24l31 -2l27 -21l37 13zM903 596l-6 -57l-12 -76l-13 -74l-6 -12l-37 -15v33l11 115l16 65l35 62zM657 350l-14 -43l31 -35 l20 4l21 58zM197 780l-33 56l-8 -19l-33 6l37 -32l-8 -46l-23 -30l37 16h22l-22 27zM221 1069l-6 21h-8l-14 -17l-23 -8l-41 -4l35 -21l14 -16l37 10zM219 1368l-12 -49l43 18l-2 41l-19 23zM266 1167h27l-8 25l18 18l-37 -10v-33zM717 1229l-15 -25l27 -4zM178 920h41 l-26 16zM104 567l11 11h-27zM340 231v-12l12 12h-12zM88 1083l18 4v9z" />
<glyph unicode="D" horiz-adv-x="1124" d="M903 477l-12 -24l-14 -37l-5 -35l-22 -49l-25 -35l-8 -21l-16 -16l-10 -24l-50 -41l-12 -19l-47 -29l-25 -4l-22 -12l-64 -14h-47l-26 8l-60 -8l-32 2l-117 8l-23 -6l-73 4l-56 -4l-55 22v41l-12 29l36 45l44 -2l38 6l15 33l-6 24l2 48l-6 41l2 81l-11 78l6 23l-6 39 l6 39v108l-6 96l4 35l-2 78l11 43l-7 43l3 47l-9 56l6 26l-10 49l-30 8l-25 17l-45 -10l8 32l90 4l10 37l-14 31l-35 2l-69 -4l-19 49l2 25l23 59l74 8l98 -12l74 4l59 -4l31 -22l-21 -9l53 -10l13 37h41l82 -4l53 -12l6 -23l33 4l63 -35l60 -73l32 -56l27 -53l45 -86l4 -39 l8 -27l2 -43l11 -28v-21l8 -63v-74l12 -76l-4 -47l-16 -10l10 -94l-4 -41l-12 -51l-15 -60l-35 21l17 -15zM698 500l2 30l9 25v94l12 27l-8 37l-4 78l8 49v67l-4 6l-4 64l-4 92l-15 61l-10 70l-27 49l-18 15l-14 22l-5 23l-12 28l-43 17l-92 12l-55 -10l-15 -21l9 -30v-50 l-29 -24l-27 -8l43 -80l17 -13v-24l-27 -2l23 -10l-5 -66l9 -88l-4 -96l6 -68v-123l-6 -55l6 -35v-100l-11 -27l9 -43v-41l2 -73l24 -25l84 -6l76 12l51 55l4 15h4l7 28l12 17l6 33l16 36v56zM954 369l23 16l-37 -100l-8 -6l-33 -72l-6 -14l-21 -41l-51 -35l-71 -60l-27 -4 l-6 13l-17 14l23 14l41 33l8 6l27 10l26 41l31 29l18 41l19 8v14l27 31l10 49l22 52zM508 795l-8 -19l-2 -49l6 -20l-6 -35l-19 20l6 33l-8 43l-2 45l10 10l-16 117v141l8 9v-3h8v7h-6l19 18l-9 -18l15 -19l4 -65l-8 -31l-15 -16l21 4v-105zM1030 698v-14l-4 -63l-8 -39v-27 l-19 -59l2 -25l-30 4l10 55l2 68l12 78l-4 108l17 29l18 -8l-16 -29l20 -14l6 -43zM360 49l19 -14l-68 -25l-53 10l-55 -8l-41 4l-37 -6l-37 21l6 35h64l30 -9l86 -8h86zM664 72l12 -15l6 -26l-29 -11l-71 -2l-82 7l-43 -5l-8 33h135zM985 930v47h16l17 -76l2 -43l-31 -4z M965 1034l-7 10l5 31h8l28 -35l-22 -36zM285 1055l41 10l-70 4l-10 -25zM989 444l6 -4l-12 -51l-18 23zM299 205l-14 47l-19 -19zM389 1274l-29 16l-20 -20zM856 766l29 -10l14 16zM817 852l-4 -12l27 -19l-19 31h-4zM494 612l6 -8l-6 -41v49zM256 999l2 9l-29 2zM371 981 l-4 10l-9 -4l2 -8zM285 813l-11 -14h11v14zM397 791h11v8zM999 932v-8l9 8h-9zM477 1094v-4l2 4h-2zM723 53h-6h6z" />
<glyph unicode="E" horiz-adv-x="1058" d="M82 1368l20 59l29 11l-10 16l-33 -20l-35 12l4 22l37 25l31 -25l31 5l22 28l25 -8l82 -2l63 -10l23 10l82 -4l65 4l19 -4l90 6l63 -16l23 18l37 -2l53 6l24 -16l9 -33l-5 -49l7 -64l-13 -100l11 -33v-63l-5 -56l-12 -71l-31 -10l-61 6l-51 4l-8 18l-11 55l5 21l-9 29 l9 102l-9 18l33 56l-6 28l14 23l-63 4l-70 4l-63 4l-72 -4l-18 -8l-7 -51l7 -99l6 -108v-137l6 -33l67 -10l74 -19l35 -49v-82l-43 -37l-23 4l-22 -4l-82 -2l-18 -16l2 -72l-9 -57v-70l13 -59l-6 -23v-45l-7 -43l15 -98l33 -14l40 6l48 -4l57 -6l68 6l28 55l-4 25l4 49v63 l8 29l-8 76l23 73l127 -4l28 -22l9 -56l-11 -71v-88l-8 -39l8 -96l-16 -105h-6l-41 -10l-94 -6h-60l-90 2l-35 14l-37 -6h-79l-78 14l-60 -14l-30 2l-29 -6l-23 4l-22 -4l-68 10l-16 16l-6 56l16 33l33 16h55l17 14v45l6 101l-10 47l14 18l-4 115l-6 24l6 31l4 92l-14 64 l4 28l-7 74l5 13v116l-5 35l3 102l6 19l-4 47l14 41l-19 8l3 41l-5 37l-53 2l-47 -2zM973 88l-2 -4l-8 -45l-19 -29l-20 -8l-19 10l-78 4l-39 -8l-43 6l-36 -4l-33 6l-53 4l-21 -4l-57 15l26 16l60 -12l78 12l26 -8l23 8l51 2l59 -2l56 31l12 55l-8 19l4 102l-4 72l12 59 l-4 92l4 23l-10 26v45l18 27l25 -23l-6 -22l4 -27l-13 -26l5 -35l-5 -37l7 -35l-7 -22l-4 -60l13 -39v-116l6 -35v-33zM930 913l-33 -6l-31 6l29 45l4 64l-6 18l6 27l-4 23l8 43l-4 20l4 25l-4 22l14 10l-14 41l4 66l-4 24l-4 68l10 84l41 -18l-6 -52l4 -73l-6 -58l-20 -59 l14 -29v-63l-4 -23l16 -67l-4 -35v-76zM508 43l22 4l11 -27l-29 -8l-33 8h-26l-19 -8l-20 8l-84 -4l-94 4l-66 -14l-53 -2l-51 16l16 46l16 4l131 -13l101 -10l22 6l25 -10l110 6zM694 881l-4 -54l4 -14v-47l-18 -53l-19 30l-4 119l15 39l104 21l-49 -11zM508 1047l-8 -19 l6 -33l-8 -18l-19 45l8 86l17 -33zM664 688l22 -8l-6 -27h-45l18 15zM102 1260l-26 45l24 -11l11 -34h-9zM508 664l-8 -33l-19 26zM479 1278h25l-19 -27zM299 539l12 -27l13 23zM487 440v9h11v-9h-11z" />
<glyph unicode="F" horiz-adv-x="958" d="M782 1030l-10 -45l-35 -8l-49 2l-22 -6l-37 4l-17 31l6 36l-14 25l6 39v74l4 26l-8 25l-2 35l-24 18l16 27l8 28l-12 27l-90 -2l-19 6l-69 -6l-27 -92v-88l-6 -23l14 -45l-4 -74v-49l12 -86l7 -8l30 35l25 6l16 -37l56 -14l41 -37v-23l-9 -26v-29l-18 -39l-43 6l-43 -8 l-43 2l-19 -61l-4 -53l-4 -88l4 -70l-4 -49l4 -68l-24 -8l28 -33v-84l37 58l2 81l4 84l-6 50l6 26l5 88l-5 56l19 10l27 -35l-11 -29l8 -49l-2 -43l5 -37l-9 -65l6 -21v-26l-12 -76l12 -59l-2 -60l-16 -24l-39 -7l-37 -12l-20 6l-19 -8l-28 4l-41 -4l-51 2l-56 -12l-43 -4 l-65 26l6 93l18 22l54 4l18 17l18 34l-14 109l8 49l-4 66l4 92l2 92l-6 63l6 29l-8 33l8 80l-6 35l6 75l8 19v26l-10 78l2 47l-45 58h-53l-21 14l-4 31l41 8l41 -8l33 4l-2 47l-51 24l-17 39l-8 39l8 21h35l25 -6l26 10l27 -14l14 14l17 -35l-31 -6l-12 -43l37 6l-19 -35 l4 -26l37 -25l33 14l31 -26l28 16l-39 23l11 53l-31 -6l16 30l-6 25l19 41l30 -6l84 6l37 -12l29 -2l63 -2l47 10l62 -6l65 14l39 -18v-54l-8 -28l8 -68v-297zM344 784l25 39l-62 58l-22 -4l-9 47l9 53l-27 18l-8 33h-10l-13 -51v-182l2 -82l13 41l16 -17l-8 -30l18 -31 l-8 -19l-24 11l-11 -29l2 -39v-80l13 -24l2 -43l8 43l-10 30l20 47l-6 -36l6 -25l31 -16l4 30l14 47l-22 13l41 14l16 10l-37 19l-20 28l8 21l51 22l-29 45l-20 -24l-21 22l27 23zM432 76l43 -2l21 -35l-33 -14l-68 4l-69 10l-39 -8l-29 12l-10 -12h-131l-31 8l8 37l29 2 l22 -12l29 10h62l110 -4l45 4l23 -10zM745 907l37 -18l-14 -25l-55 4l-54 -22l-6 -15v-100l13 -37l-25 -30l-23 12l-8 -19l-49 7l55 43v180l37 14l60 -2zM877 999l2 -26l-2 -84l-13 -21l-12 -4h-37l4 23l19 76l-2 43l10 30zM567 133l11 -35l-5 -14h-4l-6 -12l-35 -2v118 l17 52h6l12 -33l6 -39zM868 1208l2 -65l-24 -43l-12 71l4 29v74l8 20l22 -18v-68zM819 1438l19 43l30 -25l2 -65l-6 -13l-8 -4l-27 12zM322 389l-3 33l13 29v45l-37 -21h-29l29 -49l6 -37h21zM418 199l28 -37l25 22l-2 37zM537 1270l-31 6l-55 -16l32 45zM473 1075l-4 -22 l4 -33l-4 -33l-18 57zM227 1149v-37l19 21zM246 244l14 -21l-2 43zM328 188l12 17l-33 -2zM424 43v18h-10zM295 139v13l-12 -13h12z" />
<glyph unicode="G" horiz-adv-x="1124" d="M217 221l-22 12l18 -40l8 -7l15 -24l32 -29l49 -20l39 -33h17l26 -19l52 -4l45 4l82 17l36 2l-6 -23l-12 -18l-35 -19l-35 -10l-86 -8l-63 4l-49 23l-11 14h-22l-29 29l-20 6l-45 59l-19 15l-51 96l19 41l-13 18l-10 64l-25 63l-16 49l-8 78l-12 115l-13 61l-4 86l4 23 v96l10 62l-2 32l5 31l16 63l18 44l4 34l19 31l4 21l27 38l59 62l29 -6l8 -35h4l25 -98l30 -2v-27l-6 -21v-45l-12 -63l8 -49l-8 -107l8 -55v-162l4 -78l4 -73l-6 -31l12 -74l13 -72l20 -55l41 -37l8 49l-10 29l18 23l11 -23l22 -88l10 -20l29 -11h33l51 43l33 41l22 54l9 59 l6 8l4 31l-4 39l6 26l-6 60l-88 26l22 17l33 2l25 16l-11 43l-84 13l-12 18v47l-6 12l47 37h96l62 6l24 -6l49 2l70 -2l45 25l-8 31l4 24l-4 57l-10 23l18 27l-12 24l24 2l7 -20l10 -115l-6 -29v-36l30 -29v-41l-8 -39l-18 -27l-31 -8l-47 -37v-61l2 -72l-10 -31v-108l8 -47 l-8 -33l10 -90l-10 -18v-50l-19 -10h-26l-64 14l-14 58l-23 35l-24 -15l-17 -20l-32 -37l-43 -18l-39 -25l-70 -12l-63 -15l-35 4l-29 15h-25l-40 51l-39 12zM258 1368v27l10 51l39 29l47 8l41 16h92l45 -8l95 -64l-9 -22l23 8l12 -12l35 2l6 70l25 8l-19 -4l9 16l41 -6 l24 6l19 -31l38 -12l-12 -23l27 -4l-8 -59l4 -27l-4 -24l12 -39l-8 -41v-47l-2 -53l2 -56l-2 -100l-6 -45l-33 -21l-27 2l-24 -6l-43 4l-29 68v20l-8 29v27l-17 57l-12 21l-12 81l22 9l-24 4l-4 22l-27 70l-14 -10l-31 26l-59 21l-33 28l-27 7l-45 -15l-31 -28l-28 -50 l-6 -34l-21 -25l-12 16l6 21l-19 41l7 20zM948 66v-19l-24 -37l-50 10l-83 -4l-31 13l-53 -4l-41 24l-25 21l-6 36h24l27 -18l23 -16l36 -11l37 9h52l16 -9l33 -2l10 19l12 78l-12 116v41l16 19l-12 24v39l16 86h11l6 -37l8 -18l4 -51l-4 -53l-8 -25l8 -21v-88l-8 -22 l16 -35zM1040 694v-28l-8 -45l-28 -13l-39 4l-29 -32l-4 -52l-12 -43l-19 33v92l19 25l45 -4l41 18l8 27l-10 22l6 27l18 -8zM893 1090l-10 22l4 51l8 19l-2 59l4 29l-4 53l12 31h6l19 -41l-10 -45l4 -86l6 -95l-17 -28l-20 -4v35zM367 823l-2 29v41l8 98l-6 27l28 37l8 -27 l-8 -59l8 -80l-8 -62v-24zM399 776l7 -45l-19 -43l-18 51l12 56zM913 1372l-20 10v50l14 16l11 14l12 -41zM772 1405l-18 -21l32 13l-12 41zM258 1085v-26l25 12zM395 1100l-18 -10l10 32zM406 1241l-7 -18l-18 14zM414 1313l18 -2l-8 -19zM778 1458v-8h8v8h-8zM666 1249 h-11v-12z" />
<glyph unicode="H" horiz-adv-x="1216" d="M248 119l-41 -2l-29 26l-41 47l13 -40l-21 -33l-51 12l-4 21l-2 92l37 -15l-5 -22h23l14 51l29 -2l12 41v51l-6 86l2 49v209l8 43l-4 37l4 23v53l7 22l-7 25l7 22l-11 41l11 41l-11 23v45l11 18l-15 105l8 45l19 20l-35 -2l-14 27l-41 -35l-25 10h-22l4 39l75 -6l35 43 l-18 23l-23 10v4l-59 -4l-21 22l-2 33l-8 17l-2 30l14 25l37 6l56 -12l14 12h78l31 -29l18 -61l-12 -27l16 -16l8 43l-6 20l12 31l37 4l-33 23l19 12l27 -10h41l40 -19v23l46 -53v-11l-23 -47h-45l-23 -20l-8 -74l6 -33l-6 -53v-47l-6 -27l8 -26l-4 -82l2 -70l6 -31l11 -24 l92 -12h78l20 6l43 2l31 10l16 45l-10 27l-2 73l14 84l-2 21l2 72l-12 32h-57l6 19l26 4l52 -8l22 -23h16l33 12l-22 35l-31 -16l-41 16l4 49l-26 27l-74 4l-19 64l11 30l20 11l14 14h45l84 2l86 -2l31 -45l37 4l-12 35l45 12h20l13 -6l41 -14l2 -17l-9 -72l-30 -20l-41 4 l-15 -14l-14 -53l-23 -3l-4 -34l31 -15l-4 -82v-157l10 -121l-6 -60l2 -49l8 -22v-86l-8 -23l4 -33l-10 -26l10 -27l-6 -24l2 -23l-6 -51l10 -39l-6 -22l6 -89l25 -57l47 21l-10 65l10 31l-10 22v29l6 23l-8 22l2 31l2 65l-2 72v55l28 -4l-4 -78l4 -22h-4l11 -33v-37l6 -24 l-4 -21v-39l-5 -20l3 -35l-25 -12l22 -25v-31l-8 -41l19 -47l-2 -73l-6 -13l-17 -14h-55l-31 8l-22 -8h-164l-78 2l-35 25l-2 41l6 28l31 23l51 14l4 39l8 72l-8 20l-2 37l10 68l-20 63l8 23l8 77l-12 52l31 28l22 2l-16 15l-49 22l-80 8l-27 11l-39 -4l-39 -15l-36 4 l-50 -14l-2 -76l7 -33l-7 -26l-2 -74v-127l9 -31l-7 -34v-33l9 -31l2 -31l18 -10l37 2l18 31l15 10l8 -49l14 -29l-14 -92l-47 -12l-94 4zM1124 80v-25l-8 -28l-22 -13l-82 -2l-23 8h-33l-18 -8l-104 15l-19 -9h-94l-19 19l54 18l12 -16l47 10l19 -12l96 18l35 -4l32 -10 l33 10l37 25l27 43l22 20l-37 47l15 37l20 -4v-35l6 -34v-33zM637 45l33 -25l-60 -8h-26l-27 8l-51 -8h-45l-70 2l-59 -6h-68l-28 47h30l27 -6l47 2l84 -2l35 6h84zM1001 795l-8 -7l-8 -30l-6 39l-10 18l-2 78v158l8 92l10 20l-4 25l-14 35l34 -4l-12 -76l4 -23l11 -14 l-7 -41l4 -35v-51l3 -88l6 -43zM989 1266l64 26l6 66v65l-2 54l45 6l4 -13l-4 -63l10 -49l-4 -51l-14 -41l-78 -11zM197 23l26 -15l-47 6l-18 -12l-49 6l-23 -4l-8 45l31 12l28 -6h45zM248 1229l-29 -10h41l80 36l18 23l-24 12h-29l-20 -22l-31 -15zM350 281l10 6l-41 26 l-20 25l-33 20l17 -24v-31l20 -22h47zM487 1272l37 -2l-10 -37l-18 -14v-39l-9 -29l-10 37l10 18l-6 35zM883 1362l-27 -23l18 -10zM477 158l-31 -13l23 -4zM496 702l18 -12l-22 -6zM580 1260l-23 2l23 10v-12zM758 1403v12l-21 -12h21zM227 1288l2 -10l9 2l-2 10zM358 1348 l-6 -29l6 6v23zM829 1411l-4 -8l17 2z" />
<glyph unicode="I" horiz-adv-x="718" d="M74 125v6l-11 80l5 27l6 10l53 10l37 -6l24 12v41l19 47l-14 27l2 47l-7 25l5 38l-7 29l15 55l-15 29v137l13 150l-6 41l-5 71l7 -18l16 39l-23 -8v61l-6 74l4 74l-16 39l-41 28l47 49l-2 43l-18 -6l-33 6l-19 -10l-36 -2l-17 49l-2 35l25 41l26 8l60 -8l33 4l26 -8l86 4 h84l31 8l18 -8l58 -8l20 -25v-71l-20 -25l-37 6l-31 -2l-18 -24l-9 -89l-24 -57l-31 6v-24l10 -37l15 -23l16 13l-18 28l37 23l-5 -64l5 -28v-68l-5 -29l-14 -86l-12 -12l26 -49v-70l9 -67v-62l4 -45l-4 -53l-15 -74l6 -22l11 -47v-50l6 -96h37l18 33l-4 47l23 59l14 -14 l-4 -45l4 -25l-4 -4l4 -45l18 -28l-8 -92l-20 -21l-113 -6l-35 4l-39 16l-41 11l-30 -21l18 4l18 -14l-81 -4l-29 -8h-45zM618 180l-2 -6l13 -22l-4 -37l-4 -74l-43 -12l-97 -6l-67 -3l-25 5l-33 -2l-10 16l-18 -14h-27v20l-45 -12l-90 -17l-47 -2l-37 6l22 58l23 -2l80 -10 l131 -7l20 4l88 -4l41 4l19 -12l4 19l47 -4l18 12l3 33l10 90l-8 26l49 15zM516 1274l-2 18l37 4l24 17l35 45l2 -23l-10 -22v-27l-22 -22l-56 -7l-26 -22l-6 -35l10 -106l-4 -23l-2 -94l6 -25l-19 -41l-22 13l-4 65l4 72l-6 24l6 25v74l18 24l-18 13v18h26zM498 614 l-19 -53l-18 84l14 21v28l21 -6zM301 1147l14 -43l-4 -33l-10 -18l31 28l18 27l-22 14l4 25h-31zM575 1413l-2 27l29 47l10 -25l-2 -22zM473 803l-6 12l8 47l23 -16v-37zM233 1061l-20 -27l47 41l14 19l-26 4zM268 911l19 -18h41l-31 22zM473 711l-10 37h35zM350 498 l-39 -23l58 25l-45 24v-8zM479 528l19 -41l-25 11zM293 1053l-19 -33l17 14zM487 479v-14l-18 22zM352 899v-6l17 6h-17z" />
<glyph unicode="J" horiz-adv-x="866" d="M670 483l8 -20l-6 -31l2 -49l-8 -84l-11 -61l-28 -78l-49 -66l-54 -39l-53 -18l-12 -10l-37 -4l-66 4l-39 14h-41l-83 45l-3 6h-8l-63 55v7l-10 12l10 47l-23 29l8 30l-36 74l-5 41l15 4l-15 25l5 47l-13 31l-2 59l15 31l63 16l78 -12l12 -29l6 -49l-4 -74l6 -22l2 -49 l15 -29l2 -37l31 -47l34 -2l37 29l19 -11l34 47l-12 39l12 41l-28 -4v51l-6 21l6 72l-10 26l4 82l-4 23l8 55l-4 20l-4 47v54l4 59l8 19l-19 26l4 88l-6 33l25 -2l-16 33l-9 65v86l-10 49l27 11l-17 67h-71l-49 8l10 33l-19 31l19 37l33 6l98 4l96 2l64 -2l59 8l20 -6l39 -2 l17 -14l6 -45l-25 -52l-55 19l8 -27l-28 -14l-5 -10v-35l-4 -64l-2 -77l6 -23l-4 -61v-54l4 -104l-6 -74v-72l11 -40l2 -37l-7 -31l5 -21l2 -90v-131l-7 -65l5 -27l-19 -67l-22 -48l-45 -49l-50 -32l-86 -19l-53 -4l-18 29l-49 -21l-41 6l28 -47l27 2l69 -28l33 -2l35 4 l64 8l30 10l39 25h6l19 24l18 10l19 19l22 43l12 43l-2 20l13 25l-4 86l4 96l-4 78l10 61l-4 37l12 33l-6 23l29 -4l6 -70v-154zM641 1229l10 -4l2 -72l6 -29l-8 -26l4 -64l9 -18v-45l-9 -43l-2 -47v-52l11 -22l-13 -47h-14v59l4 25l-12 22l4 105l-4 22l4 41l-4 33l-11 53 l15 31l-4 43zM774 1327l-22 -43h-64l-47 -37l-6 43l18 19l74 12l23 82h14l10 -29v-47zM410 893l18 -2l31 -21l22 35l-57 4zM268 1274l-28 4l2 25l53 -13zM459 1079l-4 -6l16 -16l31 18l-19 17zM395 242v-9h27v9h-27zM528 1108v-10h11v10h-11zM473 328h19l-37 10zM506 662v12 l-14 -12h14zM451 670l8 -11v11h-8zM182 147v7h-6v-7h6zM459 49v8h-8z" />
<glyph unicode="K" horiz-adv-x="1271" d="M88 115l-12 6l-19 29v45l23 65l20 6l43 -8l43 37l-6 43v100l-6 78l12 27l-12 67v29l-8 18l14 41l-8 19l6 41v41l-4 96l10 37v57l-10 25l6 39v47l4 82l-8 30l4 21l-26 31l-72 6l-12 6l59 29l45 6l-6 37l-12 28l-62 -8h-37l-6 29l-4 65l14 15l33 18h115l31 -8l26 6l82 -2 l109 8l47 -16l4 -41l-23 -66l-75 -8l-25 -14l-4 -80l4 -37l4 -100l2 -97l-10 -49l10 -28l-2 -64l10 -96l45 -23l23 -4l27 37v27l30 -4l54 59l-11 35l17 43l-54 -43l-41 -25l-20 -35h-31l15 48l10 55l31 -6l41 51l14 39l31 10v29l18 41l25 34l28 -18l11 -53l-13 -23l15 -14 l8 -49l-19 -17l-14 -57l14 -53l37 -56l4 -36l23 -27l18 -51l13 -17l16 -55l37 -88l16 -20l19 -43l14 -35l8 -41l6 -15h4v-6l25 -26l8 -33l35 -62l45 -6l2 41l-18 45l-15 29l-45 96l-22 35l-25 76l-76 170l-10 33l-14 18l-19 37l-12 45l-18 41l39 63l16 19l12 35l25 24l24 53 l29 19v25l33 38l12 33l19 29l22 8l14 12l39 2l15 -22l-31 -4l-37 -37l-12 -29l-19 -14l-10 -27l-41 -49l-4 -27l-45 -36l-37 -80l-6 -27l29 -113l6 -6v-8l16 -12l14 -55l33 -52l23 -63l24 -27l17 -53l4 -35l22 -49l27 -45l45 -131l18 -25l15 -10l4 -27l-8 -63l-41 -39h-23 l-24 -10l-121 10l-45 -2l-82 10l-37 -6l-51 4l-19 27l-10 39v26l23 23l47 2l8 57l-16 15l-23 49v22l-18 25l-15 55l-12 19l-37 88l-14 24l-37 15l8 49l-39 37l-10 -19l-27 -28l-32 -70l-11 -47l4 -33v-131l-4 -76l13 -35l53 6l14 54l27 -17l-4 -30l22 -54l-4 -22l-12 -74 l-37 -8h-35l-37 6l-26 -2l-60 2l-35 -6l-47 4l-20 -8l-37 4zM586 1274l-19 18l31 17l84 2l35 24l10 25l-22 12l-64 12l-18 29l-9 64l39 16l19 -18l8 -21l29 -45l75 -55l-18 37l-12 49l-31 -4l-23 14l-10 41l76 4l90 4l27 -4l22 14l37 -6l62 -20l2 -39l-7 -35l-14 -27 l-45 -10l-68 -31l-26 -47l-29 19l-22 -27l10 -22l-14 -15l-33 2l-35 17l35 12l-35 14l-14 -14l-4 -25l-23 -10l-20 -18l6 18l-4 31l-43 4zM1174 106l10 -36l-10 -50l-19 -8h-78v4h-94l-41 4l-43 -4h-227l-58 9l-26 -9l-58 4l-100 -10l-53 6l-51 -4l18 27l-4 22l111 5l20 -5 h121l84 11l59 -6l133 6l27 -33l27 31l32 -7l41 3l19 6l22 -6l33 2l49 26l-8 35l-10 47l8 33l-2 33l31 24l34 -24l3 -35v-101zM326 39l-23 -14l-18 -13l-21 8l-39 -4l-94 -4l-25 -10l-34 23l12 45l37 2l37 -13l22 11l35 -11l59 11zM1077 1401l-4 14l4 60l29 12l8 -60v-98 l-8 -47l-29 8l-4 37zM475 1305h35l20 -15l-53 -41l-6 -45l4 -41l-12 -33l-12 33v49l-2 64zM322 743v-26l-9 -33l49 -8l-18 24l29 19l24 47l-30 2l-15 -29zM276 684l17 -43l-4 -31l-13 -18l31 29l19 26l-23 15l4 22h-31zM821 1440v-13l25 5l18 -11l8 19l-36 16zM727 1114v57 h14l9 -22zM426 762v-41l18 10l13 19zM211 598l-21 -25l27 25l35 33l-27 4zM485 575l9 -2l-7 -49l-18 19zM477 483l10 -8v-35l-12 -12zM221 1090l-24 -31l24 10l23 21h-23zM668 1192l22 -6l-28 -23zM270 592l-34 -47l30 28zM795 199l-35 -19h22zM948 242l-39 -19l21 2z M946 186v13l-22 -13h22zM649 1221l-4 -19l-10 -6l6 18zM344 641h10v8h-10v-8zM395 444v5h-6v-5h6z" />
<glyph unicode="L" horiz-adv-x="1021" d="M684 137h-43l-41 -6l-37 2l-86 -4l-104 -8l-31 8l-82 -8l-33 10l-34 -16l-48 2l-45 -4l-18 20l-14 29l4 59l28 27l31 -4l55 4l2 65l9 90l-9 23l5 20l-15 54l10 55l5 86l-5 39l-10 33l15 26l2 27l-7 29l-2 92l2 45l5 84l-11 110h4l2 72l-14 57l-59 -6l-33 -8l-4 33l31 8 l32 -6l45 47l-10 23l-37 14h-67l-13 16l-14 49l33 39l26 13h52l45 4l26 -4l84 2l62 -4l67 6l47 -6l19 -21l-14 -86l-41 -18h-35l-23 -21v-20l-10 -68l8 -33l-4 -30l6 -66l-2 -25l2 -71l6 -123l-6 -45l-6 -119l4 -10l2 -90l6 -84l-4 -45l4 -41l-4 -43l4 -72l-4 -33l17 -53 l12 -10l49 12l66 -8l49 -10l30 6l33 -6v43l27 4l-16 45l-19 14l8 72l-4 24l4 27l-8 35l-2 80l6 45l-4 22l10 37l31 17l41 -5l27 5l63 -27l-8 -23l10 -49v-266l6 -39l-8 -27l8 -40l-6 -29l6 -21l-35 -55l-67 -6zM932 483l-8 -30l8 -45l-8 -31v-111l6 -73l-2 -62l4 -61l-8 -31 l-31 -37l-19 -4l-26 12l-33 -4l-53 10h-35l-57 4l14 27l61 4l37 2l74 13l8 49l15 37l6 81v205l4 92l-6 41l2 23l8 94l29 -20l12 -37l-8 -23l4 -28l-4 -23zM600 43l29 -23l-29 -8l-39 8l-82 -10h-47l-51 6l-23 9l-24 -13l-51 4l-23 -4l-82 -6l-20 4h-76l-14 15l18 36l84 -2 l59 -8h105l22 -12l90 14h86l25 -10h43zM451 1182l4 39v28l14 27l23 -31l-13 -24l8 -19l-6 -35l6 -73l-14 -25l19 -70l-5 -51l5 -67l-5 -50l5 -55l-15 -57l-22 76l4 51l-8 43v51h4l-4 68l10 32l-6 45l6 21l-6 20l6 29zM551 1257l-19 11l25 32l-6 95l-6 41l6 37l33 4l14 -52 l6 -59l-16 -102l-37 -9v2zM496 430l-4 -41h-23l18 -29l-22 -26l-19 47l13 94l-8 33l14 16l-4 31l26 -2l-8 -27l13 -26l-5 -41zM193 1163l30 -8l4 23zM459 629l24 43l9 -6zM762 526l-43 -14h24z" />
<glyph unicode="M" horiz-adv-x="1271" d="M59 182l4 13l3 36l53 21l55 8l19 45l-7 74l7 22l-7 25l7 25l-9 24l9 37l-5 35l5 28l-7 27l7 27l-9 37l6 77l-6 15l9 55l6 94l-6 29l4 16l6 78l-6 29l6 71l-10 60l4 63l-11 31l-53 2l12 31h41l7 24l-5 41l-96 -8l-16 12l-10 17l32 12h-32l-13 45h4l11 23l18 12l45 4l100 6 l48 -12l86 4l49 -6l55 2l2 -35h-2l12 -43l6 -67l19 -58v-39l-57 -20l34 -29l37 2l2 -37l10 -39l9 -63l16 -49l4 26l21 29l8 49l-4 23l12 63l12 31l2 35l17 26l-11 27l15 82l37 92l39 -2l88 4l73 -6l45 8h35l23 -6l59 10l25 -14l4 -33l-10 -57l-11 -23l-63 -10l-25 -14 l-8 -62l-6 -30l10 -52l-2 -34l4 -35l-6 -41l2 -45l-33 6l2 -43l29 -16v-250l4 -45l-4 -43l8 -35l-2 -66l-2 -69l-18 -99l12 -26l-2 -37l8 -47l37 -27l31 43l24 -16l27 -60l-4 -45l-35 -61l-35 20l-10 -10l-41 -6l-39 2l-61 6l-33 -4l-35 14l-78 -10l-32 17l-9 40l2 25l11 25 l47 14l20 12l6 103l4 98l-12 100l4 25l2 86l-8 18l8 66l-8 24l4 68v115l8 41l-8 22l6 27l-4 43l27 -21l27 9l30 -5l25 -24l37 6l-2 23h-39l-23 18l-28 6l-9 31l15 14l-15 15l-37 -19v25l-2 61l-10 35l-16 -29l-17 -98l-43 14v-24l7 -11l30 -22l-18 -51l-2 -68l-17 -76 l-12 -61v-25l-14 -108l-4 -49l-11 -21l-16 -55l2 -57l-20 -66v-74l-11 -24l2 -25l-4 -27l-26 -106l-15 -18l11 -27l-37 -12l-8 55v49l-21 66l-2 63l-20 70l4 26l-17 68l-8 55l8 19l-12 26v33l-18 100l-13 31l8 45l-12 21l2 39l-22 57l-13 108l-8 21v37l-22 88l4 37l-10 -35 v-61l-9 -23l6 -23l-8 -81l4 -23v-156l-6 -20v-53l6 -27l2 -68l-4 -45l6 -34l3 -89l-9 -47l13 -45l-4 -51v-117l36 -12l27 10l45 -37l-4 -79l-20 -33l-127 6l-31 8l-29 -16h-57l-21 -4l-73 20zM1180 88l-6 -12l-23 -56l-70 7l-37 -4l-79 -3l-13 7l-24 -4l-70 14l-39 -14 l-24 12l-35 -4l-88 -6l-37 8l-41 -6l-72 -2l-18 -13l-19 13l-96 -5h-67l-46 7l-24 -9l-53 5h-33l-4 -7l-74 2l-27 43l23 23l29 -14l67 4l23 -8l47 2l53 -5l33 -6l37 6l76 -4l36 2l41 7l31 -9l23 4l108 5l68 -2l57 4l33 -11l31 -2l10 -18h26l-16 24l186 5l23 20l4 27l4 65 l8 23l45 26l2 -45v-37zM1049 551l-9 -14l4 -31l-4 -37v-74l-4 -63l-45 20l4 19l-4 20l2 90l11 45l-5 56v110l9 39l-4 25l2 30l-5 23l3 51v146l-9 24l11 62v26l-9 37l9 25l-9 49l11 24l8 50h33l-2 -25l-13 -16l4 -72l9 -43l-7 -29v-63l-4 -80l4 -23l-4 -28l2 -68l-4 -59 l10 -95l-4 -20l4 -27l-8 -24zM1090 1284l-19 12l39 31l27 2l-21 17l-12 73l8 62l12 18h27l16 -16l-8 -43l6 -15l-18 -43l12 -22l-4 -33l-10 -27zM813 274l8 33l-33 25l11 -25l-11 -26zM129 1321l-6 -18l6 -19l-29 31zM616 1221l-10 -23l25 8zM420 1282l-6 -14l28 -4z M219 188l-6 -18l29 16zM688 799l12 2v4z" />
<glyph unicode="N" horiz-adv-x="1105" d="M88 135l-8 51l8 56l18 8l44 2l16 8l27 33l-7 78l-6 90l6 28l4 113l-4 82l7 55l-7 25l-6 98l4 62l-8 28l14 45v70l-6 45l9 23l-7 45v73l-10 19l-43 -12l-51 -5l-12 21l18 27h43l53 30l-22 37l-25 -4l-20 8h-33l-23 6l-8 41v37l10 39l25 6l68 -6l59 2l57 -2h95l55 -16 l27 -74l-17 -72l4 -28l33 20l6 -39l12 -16l19 -74l20 -63l-32 -13l-5 -28l-38 -11v-36l20 -17l41 23h47v-15l21 -49l24 -92l8 -18l19 -54l-41 13l-27 32l19 -45l22 -14l41 -37l14 -18l17 10l29 37l-25 10l2 21l-10 55l4 41l-12 41l6 59l2 86v49l-8 23l-7 47l-22 14l18 39v64 l-14 14l-41 8l-20 15v4l-11 6l-8 26l19 -12l20 8l-37 39v25l17 12l38 2l33 8l23 -10l73 4l31 -6l45 6h45l35 -16l8 -90l-14 -15l-98 -37l-2 -34v-54l6 -73l-10 -47l10 -45l2 -82v-123l-2 -82l4 -82l-2 -45v-303l-8 -25l8 -18l-2 -35l4 -35v-106l-21 -23l-57 -4l-96 2l-29 16 l-4 41l-6 15l-21 82l-10 14l-12 45l-19 78l-12 26v23l-10 23l-23 61l-16 68l-18 30l-11 54h-4v47l-18 26l-15 35l-4 39l-18 29l-2 28l16 33l-14 25l27 77l6 68l20 21l-12 32l18 64l-22 20l-15 -18l-4 -41l4 -21l-22 -84l-8 -43l-19 -22l-4 -41l-24 63l-4 41l-15 -34v-23 l-4 -86l8 -12l-16 -78l-23 16l-2 -28l-55 -31l14 -41l-4 -10l-30 -58l16 -14l35 41l12 45l41 -18l-16 -64l34 -82v-14l5 -55l-5 -72l5 -37l-11 -70l11 -28l2 -45l20 -25l53 23l25 -56l2 -45l-8 -51l-27 -12h-41l-86 -4l-37 4l-22 -4l-37 8l-10 -4zM918 94l-5 -39h-2l-16 -28 l-35 -2l-94 -7h-102l-29 11l-27 -9l-78 3l-24 -5l-35 5l-82 -9l-39 4h-184l-41 -8l-35 13l4 53l37 6l37 -8h35l28 8l52 -12l24 6l29 -13l59 -4l54 -4l32 13h49l48 -9h104l68 4h71l33 15l4 51l10 64l-4 77l37 4l8 -155zM893 1176l-6 -33v-72l6 -27v-139l2 -35l-8 -20l6 -55 l2 -70v-47l4 -64l-4 -63l-14 -16l-19 38v105l6 27l-10 20l4 29l-4 49l10 20l-12 70v100l8 19l-6 53l4 45l-4 43l10 35zM1018 1343l-10 -45l-25 -41l-47 9l-49 -27l-10 -27l-5 56l15 22l45 -2l29 19l4 47v86zM512 223l-6 -55v-35l-31 -39v29l-16 82l18 37zM901 479v-37 l-2 -77l-37 6l2 32l8 29l-10 25l15 59l16 -16zM553 1235l-4 4l18 35l35 -2l14 -15zM190 416l5 -43l38 -37l-10 43zM377 358l-4 2l-2 23l20 27l4 -37l-6 -37zM395 1473l21 -33l-13 33h-8zM377 715l8 -19h-14zM285 311v-14l10 14h-10z" />
<glyph unicode="O" horiz-adv-x="1032" d="M936 610l-12 -63l2 -45l-15 -39l-2 -31l-12 -47l-14 -33l-6 -35l-17 -22l-22 -64l-17 -24l-30 -43l-41 -47l-23 -4l-14 -23l-54 -35l-32 -10l-27 -14l-57 -13h-54l-94 9l-18 22h-27l-24 23l-23 4l-8 10h-6l-29 45l35 27l-35 32l-20 29l-19 12l-12 23l-27 27l-10 32 l-29 23l-18 59l-6 6l-17 48v20l-12 31l6 51l-14 22l-6 41v64l-13 18v27l-6 65l-8 23l8 35l2 41l-6 22l15 88l-2 23l12 82l16 63l8 45l48 109l53 74l69 59l68 37h29l96 12l113 -26l49 -33l20 -4l25 -23l6 -18l35 -49l32 -33l23 -45l14 -51l11 -64l12 -22l4 -60l10 -26 l19 -156v-35l-11 -61l7 -25l-7 -37l11 -18l-7 -62l-10 -30l-2 -35l-4 -66l-14 -43l-10 -55l-13 -25v-26l-14 -39l-19 -17l-8 -22l-47 -51l-43 -54l-20 -2l-68 -61l-33 4l-45 -10l-28 10l-29 -4l-25 4l-30 -8l-41 16l22 -30l37 -9l59 -20l60 2l37 10l61 2l37 19l29 26l30 6 l64 72l27 62l30 36l25 56l14 55l14 61l13 68l14 37l4 26l13 -8h18zM326 389v-12l20 -64l41 -47l47 -4l12 14l43 -16l39 10l35 39l10 25l5 28l14 56l-2 22l14 52l-6 34l6 25v72l6 32v41l-2 99l29 -9l-19 25l-10 68v137l-8 112l-8 35l6 33l-12 74l-41 22l-21 29l25 4l-25 31 l-32 24l-19 4h-49l-47 -14v-4l-37 -29l-21 -59l-18 -121v-31l-6 -24l4 -25l-8 -65l4 -35l-4 -66l4 -32l-6 -33l6 -29v-49l-6 -31v-45l6 -20l6 -60v-57l2 -47zM362 629l-4 35l4 88l11 30l-11 68l3 31l30 14v-21l-4 -47l4 -39l-4 -24l12 -43v-43l-8 -25l11 -43v-55l-3 -74 l11 -26l-8 -31l-29 49l-8 64l4 63zM948 733l-2 -31v-28h-14l-14 -15l-19 -10l10 41v29l4 82l-4 22l2 25l-6 20l-4 52l-6 43l-6 47l12 49l19 -72l16 -53v-19l10 -18l-10 -92zM381 956l-12 54l4 20l-4 31l8 29l-4 24l4 31l18 10l11 -29l-3 -43l-8 -47l-4 -45zM664 850l-13 -33 l21 -16l18 45l-18 14zM893 1073l-25 41l-8 47l27 -24zM422 1235l-23 2l19 45h14zM483 1315l-16 -27l-33 4zM809 1266l-31 8l33 18zM221 604l2 29h-12zM778 760l4 -8l9 4l-5 8zM344 100v9h-6v-9h6z" />
<glyph unicode="P" horiz-adv-x="1069" d="M987 1040l-18 -59l-2 -27l-19 -32l2 -45l-4 -7l-51 -98l-18 -10l-39 -41l-56 -31l-65 -33l-39 7l-29 -17h-117l-28 -8l-17 -16v-74l2 -86l-4 -78l4 -33l-4 -22l9 -33l-5 -117l5 -28l-19 -31h-80l-78 -2l-18 14l-10 -12l-76 -6h-78l-53 28l-2 43l8 17l-4 33l37 10l45 -2 l14 41l-2 30l6 66l-4 27l6 77l-10 23l10 22l4 45l-10 46l4 67l-4 78l4 80l-8 43l4 78l41 4l25 -4l-23 30l-47 -12v111l8 94l-28 90l16 18l4 21l-18 47h-58l-51 66l23 67h123l26 -4h60l114 -4l21 4h90l76 -4l18 -14h23l77 -33l56 -41l28 -31l11 -18l-23 -35l23 -8l8 -29l31 8 l30 -86l4 -74l6 -59l-20 -98l-14 -66l-25 4l19 -16l-29 -45l-14 -25l-50 -45l-77 -30l-86 -11l-23 4l-37 19l-41 -23l-67 -4l-33 -22l12 -49l-4 -89l6 -59v-145l-10 -86l16 -19l19 -8v-4l20 12l10 68v59l-2 70l7 57l-5 96l9 46l26 14h105l63 14h21l39 12l18 -14l78 62l4 8 h10l15 18l22 19l43 63l21 64l4 88l24 67l-39 86v33l-37 84l5 18h24l10 -12l21 -45l-4 -33l-10 -8l28 -8l8 -43l13 -23l10 -63zM381 1085l4 -22l-8 -23l8 -26l-4 -33l4 -20l4 -48l-8 -30l33 -31l30 6l7 6l26 -2l19 -12l57 -4l74 43l24 43l17 69l-4 76h24l29 -14l-17 41 l-30 -10l-6 43l-11 86l-12 32l-20 2l-21 35l16 21l-61 41l-25 12l-96 10l-45 -22l-12 -68l14 -35l-10 -20l6 -39l-6 -43v-64zM604 193l-8 -17l12 -41l4 -45l-4 -49l-33 6l-26 -12l29 -23l-35 -2l-29 10l-80 -4l-131 4l-59 -4l-70 4l-76 -4l-18 31l14 29h51l29 -10l66 6 l22 -11l21 9l49 -4l57 6l47 -2l60 2l49 86l8 47l20 35l27 -4zM444 1167l-8 19l27 10l-4 -33l12 -26v-33l-12 -27l-19 41zM100 1257l-24 3l-13 30l19 15h37l8 -29zM455 1233l-19 22l33 25l27 10l-11 -16zM326 827l22 7l-26 10l-39 -10l28 -25zM776 1087l-16 -20l-15 -14 l23 10l45 8zM737 1298l-2 -4l29 -26v30h-27zM354 727l23 12l-47 15zM348 1444h-37l11 -12zM831 1034l-22 6l4 -18zM221 684l-28 37v-8zM563 815v10h-10zM678 1348v-7h8v7h-8z" />
<glyph unicode="Q" horiz-adv-x="1058" d="M965 625v-41l-11 -49l4 -21l-22 -76l-6 -69l-12 -21l-9 -55l-16 -33l-25 -63l-30 -37l-7 -49l27 -41v-50l-2 -53l-33 -127l-26 -53l-33 -25l-37 -30l-22 -43l30 2l29 10l37 -6l20 31l35 2l-29 30l13 23l16 18l8 27l10 10l17 64l4 24l14 17l-4 79l15 43l26 5l12 -41 l-8 -23l-2 -37l-12 25l-25 10l35 -37l2 -53l-4 -31l-16 -53l-35 -96l-21 -33l-49 -31l-37 -16h-108l-107 24l-20 13l-14 20l-7 33l-8 20l-37 111v111h-4l-18 36h-47l-25 13h-22l-78 30l-21 -4l-43 37l-24 35l-19 16l-39 31l-6 23l-18 18l-15 27l-16 33v18l23 12l45 -12 l-4 33l-19 22l-18 35l-13 64l-14 24l-6 35v31l-6 30l-12 25l6 22l-15 60l9 27l-9 34v121l2 88l4 53l9 74l30 101l19 71l22 68l19 20l10 31l37 41l53 33l21 20l26 -8l31 14l45 33l90 4l57 -8l76 -14l92 -74l23 -27l8 -18l51 -66l41 -6l17 -16l37 -68l28 -71l-47 22l-8 25 l-16 12l-13 16v-30l13 -58l18 -51l-12 -55l16 -29l8 -45v-37l-6 -86l10 -26l-4 -23l-12 -90l4 -37l-14 -72l-4 -57l-17 -86l-30 -68l-27 -69l-51 -60l-27 -47l-18 -43l-50 -14l-2 -49l11 -82l-17 -37l4 -45l21 33l41 -19l29 21l-29 55l-8 33l4 45l20 -19l4 -36h4l5 -13 l8 -59l28 6l9 98l24 68l23 23h6l10 14l6 37l15 32l12 17v24l22 35l23 70l2 37l16 28l11 88l8 60zM573 389l23 -16l2 24l16 31l9 70v131l-5 8l9 47v37l6 53l-10 21l10 28l-6 43l-2 64v106l-7 49l9 41l43 -32l16 16l-18 35l-23 2l6 33l19 18l-25 31l-6 28l-35 11l4 30l-22 5 l-15 14l-75 10l-19 21h29l43 14l-45 22l-70 5l-20 6l-19 -11l-33 -36l-18 -15l-8 -41l-17 -18l-2 -74l-8 -35l-2 -43l-6 -12l-4 -49l4 -105l-12 -34l6 -37l-4 -35l-8 -66l18 -39l-18 -38l18 -9l6 -92v-53l-4 -43l23 -74l69 27l-4 18l55 -12l50 -8l18 -19l35 -22zM530 268 l-16 19v30l-8 31l-60 49l-36 -10h-15l-18 -106l22 -35l23 -4l22 -21l33 -2l27 23l8 28zM481 59l15 41l-45 23l-35 8l-31 14l-8 21l-60 -12l-41 20l-30 35l-41 22l31 -57l40 -37l5 -22l38 -9l39 -24zM887 1085l31 7l24 -76v-37l16 -98l9 -78l2 -96l-33 -33l2 31l-4 112l4 45 l-10 23l-4 26l-13 72l-24 90v12zM422 1212l-8 -102l-6 -109l-9 -22v-45l-18 8l-8 55v37l8 23l6 100l8 23zM709 360l-21 -26h29l28 -33l33 64l-41 18zM803 922l-12 -2l-13 -23l45 6l15 21l-23 4zM455 1333v-45l-27 -14v33zM616 1225l-12 -13l-6 25l18 -6v-6zM764 1165l18 -12 v-2l15 12zM623 1343v-14l26 10zM600 270l-2 -10l31 14zM283 637l-21 14v-12zM242 922v-13l20 13h-20zM102 1044l-8 17h-10zM676 319l2 11h-8v-11h6z" />
<glyph unicode="R" horiz-adv-x="1216" d="M639 424l-2 31l6 63l-6 31l6 24l4 45l-18 64l-21 23l-4 32l-47 49l-33 5l-90 14l-39 -19l-2 -63l-14 -23l18 -55l-8 -27l2 -38l15 -60l-11 -35l4 -69l-6 -84l13 -47l26 -31l21 6l16 21l10 28l15 -18l4 -29l14 -22l10 -58l-16 -55l-39 -10l-41 10l-25 -6h-36l-5 4h-36 l-25 -8l-51 8l-45 -8l-111 18l-6 19l-4 41l22 53l74 14l15 19v77l-5 45l2 89l-6 77l9 21l-5 37l5 39l-5 28l5 37l-5 49l5 103l-15 24v41l10 33l-6 25l6 71l-10 33l4 94l-18 51l-29 5l-37 -5l-16 31l6 33l41 -14l49 2l-12 59l-84 2l-19 18l-6 23l-6 68l37 28l47 -8l29 4h67 l136 -4l28 -8l25 6l29 -2h112l51 -14l43 -15l47 -12l31 -12l21 -29l47 -25l28 -20l56 -14l24 -39l21 -17l18 -32l-4 -60l12 -16l5 -37l-27 -2l-19 55l-16 25l-10 45l-15 39l-26 12l6 -33l6 -18l10 -55l-4 -27l6 -55l-10 -74l-24 -64l-25 -43l-37 -30l-12 -21l-39 -37 l-51 -22l12 -23l21 -18l45 -25l59 -102l14 -37l11 -49l2 -41l-7 -39l13 -45l-4 -23l4 -20l4 -88l-4 -39l8 -21l39 -22l20 8l19 64l51 -4l-33 40l-22 -4l2 48l-6 43l8 51h4l14 18h60l28 -26v-43l-2 -91l-8 -24l-2 -45l-12 -31l4 -29l-53 -86l-23 -18h-25l-96 -16l-55 4 l-35 32l-27 9l-6 18l-34 45l-7 41l-8 21l2 73zM639 950l10 23l8 51l5 59l4 80l6 29l-17 45l-16 18l-49 37l39 27l-21 22l-61 27l-23 4l-45 -4l-35 10l-49 -30v-93l2 -77l4 -58l-4 -20v-72l11 -51l-7 -27v-26l11 -11l4 -12l69 25l43 -19l70 19l10 10zM1126 403v-51l-10 -43 v-28l-8 -23l-4 -86l-10 -20v-19l-39 -49l-60 -57l-47 -21l-63 -6l-49 6l-25 -8l-47 4l-72 29l-43 26l-10 29l35 -6l51 -23l51 -14l62 -6l61 6l49 14l64 41l24 47l13 45l18 46v30l12 92l4 97l31 59l16 -14l-8 -45zM618 135l17 -18l-23 -86l-14 -23h-100l-64 -6l-123 10 l-69 -6l-86 2l-27 -8l-31 12l21 45l37 -8l26 -2h127l39 6l23 -4h53l74 -10l30 8l33 -4l19 14l4 68l6 100l18 -8v-22l8 -25zM944 1118l12 -10l7 -8l4 -35l-9 -23l-2 -26l-16 -25l-2 -28l-45 -62l-27 -51l-37 -14l31 -62l12 -16l54 -62l18 -37h4l10 -32l13 -49l-4 -9l-29 9 l-12 49l-64 96l-35 35l-39 51l37 37l11 22l16 11l18 41l21 22l16 23l15 86l-4 26zM510 1296l33 11l37 -13l-23 -24l-29 8l-18 -12l-12 -19l6 -24l-6 -56l6 -41l-2 -20l-8 -19l2 -55l-9 -51l-12 -8l-14 51l-4 35l4 28l-2 56l8 53l-10 23l4 30l26 51zM494 719l10 -19l-17 -22 l11 -96l-4 -33l4 -23l-23 -77l-8 18l-2 45l-2 72l10 92l-4 26zM479 418l19 -33l-23 -59l-10 55zM985 387l27 -10l6 22zM569 702l-26 11l10 18zM844 1124v-10h10v10h-10z" />
<glyph unicode="S" horiz-adv-x="958" d="M399 135l-30 6l-86 45l-54 58l-18 -19l6 -39l-8 -26l-14 -21l-21 -12l-20 12l-70 -8l-25 59l9 41l-2 25l-3 66l3 67l2 62l-11 28l2 103l27 43l68 6l41 -2l16 -33l29 -133l14 -19l16 -36l21 -25l10 -51h-10l12 -10l4 -19l-43 2l-53 -26l41 -11l2 6l27 11l14 -17l6 -22 l25 -15l32 -6l-10 17l19 53l55 4l41 -12l82 8l16 18l17 49l2 33l-9 31l-20 106l-27 23l-51 41l-45 66l-61 40l-54 31l-10 23l-31 12l-18 25l-41 12l-20 22l-58 82l-29 25l-12 57l-28 39l-7 31l-12 47v106l16 33l3 45l18 37l25 60l22 10l41 49l31 27l33 18l18 -8l22 16l48 8 l122 -16l23 -16l53 -31l19 -25l20 -4l25 -61l6 37l41 28l-37 4v21l14 10l-6 19l14 18l54 -8l51 -2l8 -27l14 -108l-10 -19l2 -69l4 -99l-4 -78l-18 -28l-66 -6l-18 6l-2 14h-23l-20 45v19l-23 43l19 41l-27 -7l-8 31l-19 21l-28 53l-27 24l-37 13h-12l-25 -15l-30 -4l14 51 h-51l-37 -16l-35 -31l-16 -45l-6 -43v-47l10 -51l31 -41l8 -20l39 -29l14 -23l14 -10l52 -37l63 -57l23 -6l26 -31l23 -6l45 -35l45 -41l47 -59l25 -17l24 -47l25 -63l26 -82v-51l-8 -33v-72l-24 -88l-19 -35h-4l-10 -22l-23 -21l-22 -30l-72 -60l-39 -4l-24 -14h-29l-21 10 l-34 -8zM868 436v-35l-14 -24l-2 -41l-55 -141l-37 -37l-25 -60l-30 -26l-33 -27l-21 -6l-24 -19l-41 -12l-68 -4l-22 -10l-37 8l-27 -6l-55 12l26 31l33 2l60 -8l22 6h23l63 18l31 17l33 35l26 10l43 49l41 68l4 10l4 16l9 12l14 62l18 65v39l13 41l-17 45l4 25l-8 22 l-24 86l14 33l12 -51l21 -31v-45l14 -24l-6 -49zM731 961l-14 18l37 14h28l19 68v18l-4 58l4 20l4 72l-8 45l16 18l21 8l-3 -100l3 -72l6 -18l-2 -80l-19 -61l-47 -8h-41zM285 76l45 -15l-58 -20l-18 -18l-23 4l-22 -15l-25 -8l-71 -8l-41 22l-9 15l13 12l22 10h142l30 35z M670 860l-6 4l-13 4l-18 17l-60 30l-32 41l2 23h24l15 -8l51 -47zM797 1446l26 43l11 -105l-3 -55l-36 19l10 26l-8 10v62zM350 1110v4l-2 41l29 -12v-10l10 -13l8 -24l-26 2zM295 528l24 -18l7 -61l-19 32l-18 19zM633 1237l-25 -18l37 -19l37 6l-33 17zM676 1452l-19 -35 l48 4zM500 993l-6 13l-39 22l14 14l37 -36zM319 850l29 4l-29 43v-47zM741 793l4 -17l-36 37h26zM641 1397v-11l18 -8l11 19h-29zM408 1073l2 14l22 -22zM313 332h-12l2 -10l10 -7v17zM291 596l4 -23h-12zM670 74v12h-13z" />
<glyph unicode="T" horiz-adv-x="1038" d="M831 1458l5 -8l-11 -53l4 -66l-4 -2l6 -41l-2 -24v-277l-8 -33l-24 -14l-33 -2l-29 8l-20 -2l-39 12l-10 99l6 37l-17 100l11 123l-23 41l-22 12l-52 -4l-18 -31l6 -37l-6 -77l6 -41l-8 -91v-104l8 -59l-4 -37l8 -27l-33 -65l25 -2l4 -107l4 -39l-8 -12l-2 -45l10 -86 l-8 -31v-33l4 -53l-4 -20l4 -45l4 -62l70 8l-6 90l6 91l-2 24l2 76l-6 59v51l12 23l-8 86l10 72l39 4l39 -4l-41 -31l-10 -76l2 -92l4 -18v-33l-4 -68l-13 -22l11 -51l-4 -74l4 -53l26 -117l-12 -66l-82 -12l-57 6l-54 -8l-34 6l-33 -10l-33 6h-76l-49 -14l-33 14l-18 27v22 l-10 31l6 22l49 21l86 22l4 9l-2 41l4 34l-8 47l6 31l-4 68l4 88l-8 51l2 53l-6 29l12 41l-18 67l8 33l-6 35v80l8 39v41l2 102l8 37l-8 29l6 33l-6 59l-25 55l-28 12l-25 -12l-24 -51v-23l10 -34l-10 -37l4 -29l-4 -22v-76l-9 -62h4v-6l9 -12l-4 -59l-27 -25l-35 -2l-33 6 l-28 -12l-33 2l-8 29l-13 20l5 109l-5 28l2 33l-6 35l9 22l-5 66l2 74l7 24l-13 43l9 23l-5 49l29 14l29 -6l100 2v-2h88l53 -2h84l7 -4l51 4l22 -4l27 6h65l74 -2l82 4zM799 94l-6 -74l-13 -22l-63 2l-15 6l-63 2h-111l-24 8l-78 -8l-31 4l-53 -12h-39l-22 6l-33 -8l-33 22 l-4 33l33 19l94 -15h47l66 -8l24 8l31 -10l16 10l62 -8h53l57 8l35 4l23 60l10 47l-14 22l47 5l-2 -23l8 -55zM952 965l-8 -66l4 -53l-14 -15h-23l-37 15l37 49l-4 25l-4 143l4 45l-4 33l6 73l-2 33l33 -80l4 -22l4 -53l-4 -93zM502 831l20 19l-39 14l-10 15l-59 20l-13 -16 l-22 -19l10 -22l-10 -88l29 -9l36 31l13 23l16 18l29 -16v30zM475 1077l-24 -12l-21 -29l8 -20l4 -31l-24 -22l2 -43h31l22 18l31 8l-10 31l18 8l-10 57l-27 17l35 12zM229 821l-55 -4l-45 -6l-29 2l-30 18l34 23l50 4l75 -8l31 4l62 -14l-17 -13zM899 1423l-2 17l14 53 l33 -4l4 -86l-41 -6zM948 1294l-10 -16l2 -31l-14 27l8 20l-19 -2l-6 -14l-6 -4l6 31l-6 26l12 25l29 -27zM487 231l11 5l-23 24l-22 -2l-60 2l45 -24l49 -7v2zM512 303v43h-29l-45 -10zM473 489l-4 23l-16 47h-4l-17 -33l17 -22zM414 1108l-13 -16l37 4l31 12h-55zM485 467 l-28 -14l49 -17zM434 573v5l-20 4v-13zM938 1118l-4 8l-8 -2l2 -10zM416 1178l-2 -15h12zM385 1024l-6 -10v-8z" />
<glyph unicode="U" horiz-adv-x="1161" d="M969 389l2 -10l-6 -21l-4 -65l-13 -29l-18 -59l-17 -19l-73 -86l-54 -43l-34 -18l-50 -16l-120 -21h-86l-54 18l-22 -2l-23 15l-37 12l-61 33l-45 26l-16 27l-52 66l-26 53l-4 29l30 30l-18 47l-2 27l-10 23l10 40l-8 33l18 86l-2 31v61l-12 64l6 22l-2 45l8 25l4 43 l-4 53v107l-2 76l4 55l-2 51l4 33l-12 31l-29 -5v5l-39 -5l-35 13l19 41l72 -4l20 47l-14 20l-78 -2l-31 60l15 67l34 10l162 -8l45 -10l33 8l57 -4l35 6h35l39 -18l2 -39l-2 -58l-10 -10l-64 2l-14 -8l-29 -27l2 -73l2 -33l-4 -2v-33l6 -22l2 -35l-8 -53l6 -39l-4 -52 l4 -36l-14 -23l6 -37v-112l-2 -103l4 -22l-4 -31l-2 -74l8 -12l-2 -82v-70l10 -37v-26l15 -27l18 -41l49 -2l8 19l58 -43h14l4 -9l66 17l55 57l27 37l-17 23l15 45l6 75l-8 23l6 37l-2 80l4 2l6 69l-8 41v109l4 37l-8 55l6 80l12 20l-16 31v111l12 24l-23 43l-53 6l-94 -8 l-51 -10l-12 -14l6 -37l-2 -37l2 -64l-6 -104l4 -27l-9 -110l9 -90l-9 -133l9 -35l-4 -29l2 -31l4 -92l-6 -26v-46l-27 -22v35l-14 51v76l-5 41l11 110l-4 47l-4 41l12 90l-10 64l4 74l-4 102l8 37l-6 35l2 35l14 36l-2 43l22 29h33l58 6l71 -4v4h62l-11 66l-14 10h-29 l-45 16l-14 33l-2 23l10 30l45 31l19 -12l14 8l45 2l88 -2l68 4l65 -2l13 -18l-2 -56l-29 -53l-64 -4l-14 -20l2 -56l-4 -59l2 -78v-59l6 -27l-6 -61v-66l6 -43l-8 -45l-12 -12l14 -39l-10 -88l10 -27l2 -61l-2 -76l-12 -70l12 -18l-20 -64l-11 -8l19 -20l-6 -29l-27 -80 l-29 -31l-37 -63l-55 -31l-43 -6l-43 -14l-22 10l-33 -8l-60 -6l-57 4l-37 10l-45 16l-26 19l-52 26v-20l50 -37l10 -20l88 -37l20 4l37 -25l101 -4l67 4l64 13v4l67 34l62 54v10l18 31l25 53l28 74l6 67l7 35l8 90l22 23l-20 8l31 16v-137zM1077 1438l-16 -74l-2 -57 l-21 -41l-20 -9l-37 -2l-6 -20l-6 -92l4 -41l-2 -76l-25 8l25 -18l-4 -33l6 -53l-6 -62l-43 4l4 31l-2 47v105l6 49l6 98l-4 35l24 53l37 6l31 19l-8 65l-8 37l-27 35l49 49l27 -24zM926 657l10 -24h4v-4l6 -8l-20 -54v90zM967 831l4 -43l-15 -36v36l11 50v-7zM434 227 l-2 -10l19 -2zM756 319l4 -8l8 2l-4 11zM823 369v4h-6v-4h6z" />
<glyph unicode="V" horiz-adv-x="1167" d="M653 209l-2 -4l-37 -78l-55 2l-22 -6l-66 -4l-20 59l-11 31v33l-12 28l-12 58l2 37l-4 36l-19 25l-12 86l-25 59v35l-10 41l-12 92l-23 58l-24 100l2 33l-10 28v31l-19 37l-14 82l-19 53l25 49l-25 -4l-6 23l-47 20l-57 -12l-37 6l2 53l92 -6l17 19l-35 57h-68l-37 23 l2 41l13 51l49 16l51 -2l68 2l63 -8h78l22 6h56l51 -10l6 -60l-12 -51l-66 2l-31 -22l11 -80l-29 -8l6 -82h-29l23 -19l14 -26l37 14l23 -63l4 -35l14 -68l8 -12l11 -86l18 -33v-31l10 -49v-20l13 -45l6 -6l-13 -19l-18 -12l12 -27l-10 -37h41l27 -67l22 104l-6 27l23 4 l-25 37l2 55l25 -6l22 123l6 2l6 53l-6 29l19 49l2 29l18 90v63l19 45l-27 10l-33 -8l-67 8l-11 9l-12 -4l-47 -25l-6 -47l-10 39v47l16 8v4h33l22 -12l49 12l33 2l29 -6l39 14l6 56l-23 22l-24 -6l-62 51l50 74l18 8l35 -8l47 2h100l90 -2l19 -16l-4 -72l-23 -41l-59 4 l-29 -61l-8 -41l4 -37l-16 -21l-17 -67l-8 -72l-16 -45l-2 -98l-39 -58l16 -18l-8 -10l4 -23l-10 -41l-17 -82l4 -28l-14 -21l-4 -55l-18 -51v-39l-11 -21l2 -26l-12 -27l-6 -45l-29 -141v-33zM1075 1393l-2 -27l2 -20l-10 -58l-29 -26l-82 -13l-34 -49l8 -55l-10 -29 l-17 -72l-10 -20l4 -35l-8 -24l-13 -95l-10 -18l-4 -51l-18 -41l-21 69l13 21l8 84l12 33l-4 26l12 27l-4 47l25 90l18 45l-2 41l25 37l34 10l33 2l29 19l-10 28l4 68l-6 25l6 34l26 31l-20 -27l35 -49l18 19l2 14l-2 -33l-14 -10zM772 389l-8 -43l-19 -53l15 -14l-15 -97 l-14 -45l-4 -33l-18 -26l22 10l-8 -18l-2 -33l-12 -27l-58 -6l8 29v37l29 26l-2 54l23 55v33l14 49l4 43l14 16l13 60h10zM813 729l18 -4l-4 -96l-18 -41v-41l-12 -49l-2 -25l-39 2l12 31l10 82l4 59l21 33zM621 59l-11 -22l4 -33l-86 -8l-47 27l-4 34l47 2l56 -4zM150 1448 l8 22l-56 15l-14 -43l31 -35l20 4zM541 426l-19 20l-14 -18zM545 1038l-21 11l8 26zM582 807l-4 49h8zM313 1257l9 17l-23 -2z" />
<glyph unicode="W" horiz-adv-x="1529" d="M907 119l-55 14l-12 39l-13 92l15 15l-31 36l-10 27v47l-4 31l-19 59l-14 105l-19 30l5 25l14 14l-31 31v23l-10 24l2 41l-25 53l-10 -22v-25l-20 -84l-6 -69l-17 -82l-12 -31l-2 -66l-17 -36l2 -37l-22 -8l18 -13l-8 -22v-33l-33 -82l15 -10l-8 -55l-35 -27l-19 -8 l-67 -9l-27 27l-18 47l-8 60l2 34l-9 41h-4l-8 29l-10 100l6 19l-18 37l-11 96l-32 135l-5 47l-20 41v33l-12 33l2 26l-15 82l-8 51l-14 46l-2 34l-12 25l-5 37l5 26l-35 31l-29 14l-45 -2l-23 -6l-26 19l-10 37l41 6h71l21 16l-15 39l-28 14l-33 -6l-62 10v33l-8 19v32 l8 27h39l13 10l41 -6l18 10l74 -6l12 -8h27l88 10l20 -2l88 -30v-56l-6 -33l-67 -22l22 -82v-25l19 -61v-41l10 -45l12 -27v-69l23 -94l6 -48l12 -20l6 -51l8 -21l11 -53l12 -27l18 50l17 137l12 59l-2 41l20 19l13 18l-2 35l-11 18l13 66l30 45l-6 39l-12 37l-23 2l-18 10 l-33 -2l-30 -10l-19 -25l-10 -51l-21 39l-14 43l29 24l78 11l73 18v51l-37 10l-24 19l-19 -10l-12 41v45l37 26l61 -8l25 4l68 -4l88 2l39 -6l14 -18l-8 -39l-25 -54l-41 -10l-18 -16l8 -41l6 -74l4 -2v-35l23 -80l26 -69l-4 -39l23 -56l8 -77l10 -19l31 -137l12 -31l6 31 l15 70l16 45l19 118l6 82l6 21l2 31l16 65l6 74l-24 41l35 31l8 30v31l-27 8l-45 37l-12 78l47 16l39 -8l96 -4l127 4l14 -22l19 -15l12 -59l-16 -23l-19 -14h-30l-19 27l-10 -25l-29 -25l-6 -41l-12 -36v-37l-14 -23v-35l-9 -45l-14 -69l-12 -78l-6 -12l-5 -41l-10 -29 l-12 -74l-6 -12l-6 -35l-15 -61l-10 -90l-12 -54l-37 -10l-41 10l8 -18l41 -29l-6 -39l12 -18l-14 -55l-2 -31l-4 -80l-13 -45l-16 -90l-35 -43h-43zM1217 840l-11 -31l-14 -102l-4 -50l-14 -65l-9 -37l-14 -76l-14 -96l-15 -53l6 -33l-32 -127l-2 -33l-15 -49l-8 -33 l-12 -32l-21 -13l-41 -4l-24 8l-58 -10l-26 6l-15 15l3 22l6 8l30 2l52 -6l41 6l26 58l6 78l37 118l4 43l8 17v32l13 29l12 70l8 14l-6 21l19 55l4 29l28 147l13 29l-4 28l10 37h8zM719 588l22 -4l-2 -37l-24 -72v-92l-15 -49l-16 -119l-10 -47l-8 -113l-15 -35l-45 -4 l-80 -2l-45 -4l-28 17l-17 28l19 27l65 -16l84 12l41 119v45l21 -2l-2 49l-9 18l11 29v31l26 53l4 133zM1440 1370l-6 -61l-19 -47l-8 -5l-78 5l-35 -23l-12 -68v-32l-12 -68h-4l-9 -27l-2 -24l-16 -25l-14 -69v-23l-19 -4l-14 -22l-4 20l14 33l4 41l11 61l28 117v27l12 24 l-2 21l39 71l66 13l12 75l6 47l52 31l4 -63zM514 1128l18 11l17 -41l2 -33l8 -27l-14 -18l16 -12v-31h-10l-25 49l-14 61zM440 528l21 11l12 14l8 31l-22 6l-4 72l-27 -74v-27l-14 -12l22 8zM827 1112l-8 35l-26 -47h26zM514 416l-22 37l-19 8l4 -23l12 -12zM930 1061l6 29 l12 -39l-6 -39zM911 1147l-10 16l6 31l17 -47l2 -25zM985 1280l-12 -12l-19 18h37l19 -12zM874 326l-10 22l-26 17l14 -23zM688 293v14h-14v-14h14zM1397 1399l28 -4l-28 12v-8zM1061 1122v-10h10v10h-10zM827 1063v18h-8z" />
<glyph unicode="X" horiz-adv-x="1300" d="M836 133l-15 -8l-76 -2l-24 6l-90 -4l-33 31l-4 37l4 4l4 36l19 9l43 4l49 14l-11 47l-28 70l-21 29l-18 38l-10 35l-60 117l-12 39l-33 -6l-4 -27l-29 -29l-20 -57l-23 -51l-24 -31l-55 -119h-5l-2 -8l2 -55l52 18l69 -43l-2 -24l6 -37l-34 -37l-13 18l-22 -22l-23 8 l-49 4l-8 4l-2 6l-35 21l-41 35l4 20l-43 23l6 -33l23 -29v-20l28 -41h-36l-60 86l-6 47l29 37l4 31l22 24l37 84l8 6l31 68l2 22l23 19l18 45l31 47l16 55l19 13l2 22l28 31l-2 78l-16 43l-14 22l-35 58v6l-17 34l-8 15l-4 10l-8 35l-18 18l-15 49l-18 25l-8 33l-52 76 l-10 41v40l-20 11l-9 18l-20 10l-23 -2l-84 41l-2 37l27 23l23 26l49 -8l30 8l-12 -22l15 -17l18 11v18l82 2h151l43 4l66 -18l-6 -74l-35 -8l-70 -41l11 -33l28 -94l25 -35l16 -43h-47v-29l45 11l21 -17l34 -73l23 12v6l16 25l31 53v18l31 35l18 68l-14 20l-35 6l39 13 l64 67l-50 19l-55 12l-8 8l-4 47l31 45h30l66 -6h92l61 6l52 -2l55 -22l-53 -25l-31 -41l55 -18l-55 -6l-47 -23v-31l-33 -49l-29 -67l-12 -21l-31 -35l-20 -55l-14 -14l-9 -35l-41 -82l-18 -25l-18 -45l12 -63l10 -19l21 -32l16 -33l6 -27l12 -16l43 -107l35 -73l14 -19 l37 -72l9 -36l8 -4l30 -70l-6 -29l27 -28l37 -27l28 10l7 31l-15 31l-16 14l-31 59v17l-28 24l-13 39l-39 78l-18 47l-17 23l-14 45l-18 28l-19 41l-16 23l-2 22l-35 56l4 34l33 97l18 37l21 26v19l31 34l16 48l35 49l14 28h4l15 25v16l45 41l81 15l23 20l12 47l2 60v43 l19 12l33 -14l-19 -19l25 -10v-35l-25 -18l-16 -29l43 23v-74l-19 -47l-24 -11l-54 5l-22 10l-51 -29l-8 -22l-17 -19v-22l-35 -39l-8 -39l-16 -10l-62 -103l-12 -31l-18 -34l-19 -27l-10 -63l22 -15l21 -37l12 -32l23 -25l22 -51l27 -66l18 -37l4 -18l37 -66l29 -36l8 -27 l41 -96l51 -90l-4 -107l-28 -6l-27 4l-64 -6l-90 2zM1204 86l-22 -78l-90 10l-52 -4l-26 4l-70 -8l-70 -2l-57 6l2 19l-6 22l23 -8l20 8l78 4l72 -2l49 6h71l27 23l-8 47l12 70l-6 20l12 19l19 4l22 -8l2 -56l-6 -35l8 -41zM55 168l2 25l17 67h69l4 -33l-10 -22l4 -31 l25 -27v-28l-41 -4l-43 -9zM244 29l18 -11l-24 -8l-39 -2l-52 2l-18 23h-29l-26 -13l-19 21l21 41l16 14l78 -22l51 -8zM791 389l18 -43l12 21l19 49l-27 16l-43 37l-16 -41l34 -39l15 21zM129 1272l-41 -4l-14 24l20 21l62 -4l37 -15l-21 -28zM602 51l33 6l-19 -43l-51 4 l-30 39zM702 55h37l-16 -37zM1116 1305l-37 -21l29 -16zM522 1276l13 27l18 -41zM727 397l2 31l-16 14zM367 39h8l-21 -10l-6 22zM342 1366v23l-18 10zM829 492v-11h9v11h-9z" />
<glyph unicode="Y" horiz-adv-x="1222" d="M743 127l-8 -2l-43 -8l-24 8l-56 -8l-84 -4l-16 8l-33 4l-35 -12h-57l-35 -9l-43 23l-10 23l10 86l66 14l31 -2l32 6l6 18l5 43l-5 70l-12 55l6 56l-6 22l10 33l-8 67l10 17l-14 31l-6 71l-12 17l-6 22l-41 111h-5l-20 51l-6 37l-19 29l-10 36l-26 62l-23 53l-6 33 l-19 31l-20 18l-4 37l-33 -4l-57 8h-31l-4 27h22l84 24l-28 37l-99 20l-4 7v59l4 4l2 23l15 18l69 4l27 -8l59 4l76 8l29 -4l86 -6l20 6l48 -4l51 -18l-4 -76l-29 -21h-61l-35 -8l12 -31l16 -55l11 -47l26 -41l19 -74l26 -39v-28l11 -19l16 -49l20 -49l27 -18l18 22l9 19 l4 30l14 39l12 19l17 49l18 53l8 8v29l19 16l4 88l-29 -14h-53l10 23l84 10l19 26l2 33l-25 4l-20 -4l-41 17l-15 20l-4 39l13 43l6 2l12 2l72 -20v30l41 -10l28 8l23 -8l22 4l23 -4l26 8l93 -10l10 -37l-6 -57l-17 -27l-47 -2l-22 6l-27 -41l-10 -32l-8 -13l-11 -37 l-22 -36v-21l-19 -43l-28 -4l18 -21l-6 -34l-20 -33l-11 -31l-16 -55l-57 -105v-22l-13 -19v-32l-39 -97l2 -32l9 -99l-6 -127l6 -77l-6 -23l10 -27l2 -49l61 4l10 19v53l-6 23v39l45 -3v-86l-4 -22l19 -53l2 -39l-2 -53zM1116 1458l10 -6v-61l-18 -17l18 -45l-24 -37 l-53 -18l-72 -55l-19 -82l-10 -41l-22 -74l-8 -12l-21 -66l-18 -37l-35 -76l-13 -10l-32 -96l-4 -88l4 -59l-8 -43v-48l-7 -51l-45 4v41l-4 101l4 22l-4 31v59l13 56l16 18l10 45l14 18l52 130l4 36l22 54l13 18l6 31l18 45l15 29l12 49l18 14v49l88 37l35 37l-2 31l-6 55 l16 12l4 35h31zM930 242l14 -27l-4 -80l4 -78l-6 -45l-23 -14l-30 -4l-84 12l-21 -4l-35 4l-12 41l21 -8l10 18h49l72 15l14 63l-8 23v59zM696 35l2 -23h-49l-37 -10l-24 4h-119l-141 -4l-23 16l33 50l37 -11h94l18 -8l43 10l50 -2l45 9l49 -9zM745 1237l-16 -4l41 -25 l29 19l-15 28l-4 27l39 23l-31 14l-26 -14l-19 -35zM299 1397l35 10l22 23l-28 20l-60 -12zM530 279l-8 10l8 18h-47l-16 -12l31 -4l14 -23zM561 1137l-4 14l8 29l19 -13l4 -30h-27zM717 999l41 11l-41 4v-15zM672 1069l12 -22l25 -29l-19 33zM598 1087l-14 21l22 -2z M729 1421l25 9l-25 4v-13zM770 1151v12l-25 -4zM707 1174v-11l28 -4zM580 299l-11 -2l2 -8h9v10zM918 1409v-8l20 -4zM494 260v12l-11 -12h11z" />
<glyph unicode="Z" horiz-adv-x="1040" d="M61 184v33l5 80l10 16l24 25l21 31l37 86l57 102l29 4l-15 25l29 43l8 28l19 29l18 35h4l37 55l35 92l6 4l-18 35l-15 -6l-98 -10l-37 4l-96 -4l-21 16l6 37l33 6l23 -8l31 -4l133 4l41 45l22 -37v-30l60 86l10 30l10 15l39 71l8 39l21 39l12 14l12 27l-39 37l-47 10 l-31 -2l-49 -16l-14 -10l-4 -70l8 -39l-8 -27l4 -34l-33 16l4 20v56l8 59v66l54 12l43 -6l43 2l41 -4l63 43l-74 24l-30 -12l-25 2l-53 4l-111 -4l-26 -14v-43l4 -78l-13 -25l13 -34l4 -41l-12 -41l-23 -19l27 -20v-37l-41 -37l-54 8l-32 -2l-64 37l8 82l-4 37l4 33l-4 18 l2 35l2 65l-8 45l6 35l17 -6l-15 12l-4 47l2 62l19 14h55l23 4l20 -6l86 -4h70l22 4l21 -6l55 6l25 -6l49 6l78 -6l22 6h133l62 -4l34 -39l48 39l26 -20l-6 -84l6 -27v-29l-6 -24l-2 -43l-63 -107l-15 -20v-27l-41 -78l-8 -30l-20 -21l-15 -41l-51 -84l-18 -47l-23 -22 l-10 -27l-19 -21l-8 -24l-26 -17l22 93h4l13 18l10 37l18 27l37 77l49 99l15 16l14 55l41 62l4 22l37 62l6 61l-10 35l8 20l-14 52l-9 -54l-12 -28v-31l-20 -2v-27l-39 -77l-29 -27l-14 -47l-37 -90l-19 -41l-41 -70v-6l-26 -57l-17 -17l-30 -69l-21 -27l-33 -78l-12 -26 l-29 -35l-4 -29l-16 -27l-2 -22l-27 -33l-32 -74l-13 -28l-6 -17h-4l-8 -22l-17 -19l-8 -43l-8 -20l-4 -41l41 -6l68 10l69 -10l53 4l64 -4l18 14l4 14v41l11 39l-2 35l2 90l-6 21l6 88l32 51l43 -2h70l27 -8l10 -49l-4 -25l4 -55l-4 -49v-105l-6 -26l4 -25l-6 -25l2 -47 l-13 -26l-2 -68l-94 -10l-26 4h-134l-22 -8l-74 4l-76 -6l-63 6l-33 12l-33 -18l-37 6l-24 -8l-78 4l-68 22zM950 494l-2 -5l-8 -49l6 -69l-10 -31l6 -33v-28l6 -25v-168l-6 -66l-31 -20l-65 12l-49 -6l-21 6l-67 -4l-115 8l-27 -4l-24 4l-68 4l-31 -8l-34 -4l-29 4l-82 -4 l-41 8l-49 -10l-111 -4l-28 27l-9 18l15 21l37 8l26 -19l33 4l31 -4l30 4l70 -4l78 4l70 -4l90 4l39 -8l129 4l26 -4l29 4h110l13 23l4 26l4 33v74l14 27l-16 12l10 39l-10 59l10 39l-10 41l-2 86l2 92l25 31l30 -84zM555 530h-18l12 64l35 -4zM522 463l-26 -19l41 76 l-2 -39zM156 272l-19 7l17 -25zM481 422l15 -6l-27 -13zM748 504v-10h28zM264 1456l21 -18v12zM524 764v-8h11v8h-11zM186 152l13 -13v13h-13zM825 387v8h-8v-8h8zM686 403v-14h4v14h-4z" />
<glyph unicode="[" horiz-adv-x="663" d="M213 -113l-4 13l-29 22l-20 -12l16 -29h-43l-29 -12l-41 12v72l-8 29l8 22v100l-4 64l4 33l7 96l-2 68l4 61l-9 72l5 49l-5 71l5 29l4 72l-4 112l4 23l-9 107l11 22l4 59l16 66l-16 31l-4 45l30 4l-18 41l59 -10l27 -7l4 25l19 -18l24 -9l19 11l-19 32h-20l24 43l-30 60 l-35 6l2 31l-60 -4l-6 22h-20l4 31l31 -6l-9 18l-26 6l4 74l4 72l-6 59l2 74h61l21 -4h159l58 4l33 -8l22 4h60l10 -37l-2 -60l-76 -10l-59 2h-70l-16 -51l-3 -43l7 -43l-11 -76l7 -20l-3 -49l3 -37v-156l8 -82l-8 -18l-3 -54l7 -67l4 -74l-15 -29l4 -36l-8 -31l8 -31l7 -59 l-15 -74l-2 -49h-6l-18 -27l26 -2l11 -37l8 -84l-4 -59l-11 -96l15 -27l-4 -33l8 -32l-19 -64l25 -106l39 10l-2 33l6 28l-8 39l33 10l-33 54l12 88l-6 37l2 41l-4 26l29 19l4 -17l6 -67l-10 -54l12 -67v-107l-4 -20l8 -33l-23 16l-8 -24l-31 -37l50 23l26 -11l29 15h68 l10 -52l-13 -57h-65l-59 4l-119 -4zM600 -55l6 -23l2 -33l-4 -30l-6 -11l2 -49l-22 -18l-54 -14h-55l-23 10l-77 -6l-25 6l-53 -4l-53 8h-48l3 22l57 11l96 4h72l71 -8l19 8l51 10l4 94l15 55l20 7zM606 1661l4 -21l-4 -20l4 -23l-6 -53l-41 -22l-35 6l-59 -12l-23 14 l-22 -8l-43 -2v-27l-19 -78l-16 43l-6 35l25 76l53 -2l78 2l47 6l24 14v137l11 13l28 -15v-63zM375 559l-6 -18l6 -45l-10 -90l-19 -7l-14 47v35l8 29l-4 63l4 68l-4 27l2 96l6 84l25 -10l-7 -27l11 -29l-11 -18l13 -25l-10 -92zM356 1397l19 -49v-60l-10 -53h4l12 -47 l-16 -133l-21 -2l-4 26l-2 103l16 37l2 43l-12 18l-6 63zM373 989l2 -2l-6 -41l4 -31l-35 -28v51l-12 37l10 53l39 -4zM193 176h38l19 10l-31 41l-20 -4l-19 15l-8 -43l-20 -35l20 -10zM74 -182l37 2h36l29 -6v-19l-24 4l-11 -18h-67v37zM150 1337l24 -4l-24 -22l-29 -4 l-10 32zM68 1251l22 27l19 -27h-41zM176 1421l25 9l-25 4v-13zM223 522v-8l8 8h-8z" />
<glyph unicode="\" horiz-adv-x="829" d="M502 106l18 23l-39 18l-20 21l-12 49l-11 35l-8 43l-18 57l2 37l-19 14l-20 86l-17 31l17 15l-17 -5l-22 93l-17 65l-40 152l-13 12l-4 43l-14 35l-27 92v16l-37 97v20l-12 19l-8 43l-21 55l-18 110l-25 58l-18 84l-12 12l-9 37l95 4l22 -6l23 -68l-13 -26l-41 6l41 -29 l23 14l8 -24l25 -133l14 -25l4 -45l17 -20l-21 10l-14 -23l41 -8l18 -70l2 -34l21 -78l26 -21l-10 -73l29 -17l8 -45l14 -31l2 -32l17 -13l-9 -28l21 -49l45 -170l2 -4l-8 -33l-37 -19h59l4 -34l15 -27l16 -66l15 -30l6 -33l18 -57l4 -48l27 -67l8 -6l8 -58l-47 -16v31 l-24 6zM412 1034l4 10l35 -47v-20l20 -35l8 -35l-12 -33l37 -79l-25 -15l8 -22l37 -19l19 -69l6 -35l31 -51v-23l14 -35l4 -37l18 -63v-27l11 -28l-25 -33l-8 29l-27 45l-10 45l-10 10l-12 98l-25 80l-16 76l-15 37l-4 51l-37 90l-4 41l-14 27l-4 24zM723 16l16 -47l-22 -22 l-82 -2l-78 -2l-35 49l35 -4l59 -4h56l-4 94l-29 96l-4 49l-14 29l-19 18l-4 43l55 -16l2 -27l11 -18l18 -55l2 -41l16 -25zM258 1518l-2 28l-8 23h45l24 -74l9 -49l-4 -49l18 -15l49 -159l-4 -33h-20l-29 90l-14 25l-7 43l-16 20v23l-20 41zM414 1069l-21 39l23 -8z" />
<glyph unicode="]" horiz-adv-x="681" d="M360 -94l-18 -25l-39 -6l-67 8l-52 -6l-20 4l-49 -4l-45 4l-9 60l9 45l82 -4l59 4l41 -4l33 4v28l-6 31l10 41l-6 33l-13 31l11 34l8 60l-15 61l7 35v98l12 80l-8 29l4 35l-4 32v72l8 74l-8 22l4 47l-15 27l7 23l-2 22l10 96l-15 74l15 55l-4 37v166l4 86l-8 27l-2 35 l6 43l-47 6l-41 -6l-78 10l-23 -14l-35 26l9 27h104l74 -6l26 -11l7 33l-11 21v24l-86 -2h-88l-30 6l-5 56l9 45l82 -4l59 4l41 -4l18 -11l35 15l33 -4l29 4l75 8l43 -4l2 -70l-8 -76l4 -18l4 -68l-2 -63l4 -70l9 -78l-11 -55v-67l-8 -48l-10 -12l10 -24l-18 -17l-12 -18 l38 -31v-37l7 -86v-86l-2 -94l10 -51l-8 -21l8 -26l-8 -72l8 -53v-47l-10 -31l2 -37l-15 18l-30 -2l8 -22l37 -8v-101l8 -22l-4 -51l6 -45l-2 -37v-105l-8 -90l4 -37h-66zM594 23v-39l-6 -37l6 -29l-10 -70l4 -49l-27 -18l-55 -8l-14 4h-41l-66 4l-29 -4v37l93 8l55 -4 l37 10l6 22l4 68v115l6 22l-10 21v78l14 92l-10 18l6 60l-4 34l27 7l4 -15h4v-96l-8 -23l10 -67v-74zM324 -186l-5 -33l-57 -8l-41 4l-24 -6l-78 10l-23 -14l-35 24l15 27h135l45 -4h68zM551 551l-4 41l10 41h14l-18 53v88l8 74l23 -10l-4 -27l8 -29l-8 -18l10 -25l-6 -49 l4 -22l-8 -19l10 -90l-2 -22l-19 14l-12 -27zM598 1188l-4 -60l-6 -22h-23l-8 49v43l12 21l2 41l-10 20l-8 63l18 54l19 -49v-60l-10 -53h4zM539 979v74l41 2l10 -72l-6 -37l4 -31l-8 -24l-29 10l2 37zM551 1716v19l6 8l37 -35l4 -22l-4 -25l4 -21l-4 -20l4 -33l-45 -2l4 80 v47zM406 752l-21 16l-8 -45l-19 -33l19 -12l20 27h41l19 10l-31 43zM588 1544v-90l-8 -39l-19 39v25l-8 22l4 25l-4 26zM319 55l19 -14l10 18l19 17l-9 24l-2 58l-4 -31l-24 -14l-13 -27zM356 293l-32 -6h43l30 26l17 29l28 10l-34 8h-29l-2 -38h-29zM590 500l-2 -45 l-27 -56l-4 29l-10 18l28 64zM414 428l-29 23l-6 -31l14 -25zM328 18l24 -28l6 41l-30 -4v-9zM430 1053v-11l8 11h-8z" />
<glyph unicode="^" horiz-adv-x="1216" d="M981 993l-70 4l-45 52l-49 36l-12 17l-25 14l-24 31l-27 14l-37 39l-20 10l-47 39l-37 13l-72 -43l-29 -21l-28 -35l-60 -59l-18 -10l-43 -52l-64 -34l-24 -29l-8 -18l-19 -15l-12 -24l-39 -4l-37 4h-76l-4 36l31 3l14 -5h56l39 15l10 22l26 8l7 7l47 45l16 8l33 29l8 18 l23 8l16 12l12 -18l62 92l41 27l32 51l37 12l-28 35l32 6l-12 19l-18 4l12 33l-31 -9l-4 -47l-121 -98l-12 -16l-33 -21l-28 -29l-54 -59l-18 -8l-45 -41l-45 -37l-15 -16l-34 -11l-29 50l27 36l6 2l12 25l10 6l70 90l29 31l51 29l-19 14l35 37l49 22l41 105l19 29l16 12h21 l24 -15l10 27h41l56 -2l45 -14l37 -51l63 -78l43 -56l-4 -34l18 -19l25 6l29 -30v-9l30 -34l58 -78l65 -78zM1116 958l4 -18l-18 -25l-98 5l-48 22l21 16l84 -6l8 31l-35 37l-10 22l-18 15l-13 22l-18 15l-31 69l53 -30l19 -35l33 -27l30 -29v-16l17 -20zM688 1466l-8 23 l39 -4l24 -23l15 -41l-15 -8l-14 23zM610 1272l-4 55l-31 -10l9 -45h26zM743 1212l35 19l-41 6zM537 1403l8 10l-47 -6l16 -12zM903 1225l-24 12l-9 29zM635 1407l8 10l-18 4l-19 -10zM137 1055h27l-27 10v-10z" />
<glyph unicode="_" horiz-adv-x="983" d="M59 -154l-39 2l-53 17l8 86l56 -8l22 8l47 -6l25 16l25 -8l22 4l98 -10l37 4l33 10l29 -14l26 -2l39 6l80 2l57 -27l19 8l-4 17l14 -8l14 -45h31l27 -37l-4 28l4 23l-27 20l68 21l86 -4l47 2l28 10l46 -2l41 -8l4 -49l-15 -54l-43 2l-86 -4l-94 2l-59 9l-23 -9l-96 -6 l-74 8l-88 -2l-90 2l-102 -2h-64zM1069 -174l-6 -33l-4 -22l-21 -25l-59 -2l-59 -4l-19 6l-61 2l-17 -10l-18 8l-8 -2l-74 2h-227l-31 23l24 14l41 -2l99 2l90 4l78 -4l98 -4l115 14l10 45l-4 41l20 23l11 30l16 -20l-2 -39zM440 -229v-9l-8 -14h-22l-62 -2h-131l-22 6 l-21 -6l-72 -2l-24 12h-47l-31 -8l8 33l64 -2h145l23 8l49 -4l37 -4l28 14z" />
<glyph unicode="`" horiz-adv-x="663" d="M55 1808v56l19 26l67 -18l25 22l-2 21l-12 -14l-33 18l55 2l39 -16l16 -23l31 -20l23 -31l24 -19l15 -26l38 -41l41 -29l19 -26l76 -72l-9 -23h-51l-53 19l-18 22l-13 23l-24 39l-13 -19l-18 -12l41 -27l-64 23l-32 23l-17 4l-51 39h-18l-70 47zM461 1509l37 -18l-52 -14 l-26 14l-82 22l-37 27l-22 33h-31l-35 39l-39 6l-47 14l-41 35l-27 55l45 -26l37 -19l54 -35l20 -18h18l23 -16l27 -9l18 -22l39 -12l10 -15h21l43 -24l6 -8zM535 1573l34 -27l-8 -55l-29 45zM377 1679l-2 -6l31 6h-29zM303 1769v-6h6v6h-6z" />
<glyph unicode="a" d="M879 180l-5 -49l-63 14l-18 -10l-66 -4l-12 41l-15 27l-34 -23l-25 -31l18 -24l-36 29l-31 -15l14 -18l-82 41l-4 51l23 33l18 8h53l9 22l-7 78l-28 62l4 39l-45 53l-129 -4l-62 8l-32 -49l-19 -88l4 -56l-12 -28l18 -45l54 20l30 -26l11 -35l-9 -25l-2 -31l-12 -22h-149 l12 27l-49 -33h-33l-49 4l-33 -8l-23 26v25l-8 26l8 41l56 5l41 22l-2 21l18 81l19 29l-9 23l11 32l20 88l12 93l27 -19l31 6l26 19l25 6l-27 10l-32 -10l-37 18l2 37l10 29l6 37l8 69l64 -59l28 27l35 -9l-12 -67l-10 -70l-23 -26l10 -19l46 6l90 2l47 43l-4 50l-13 22v23 l-20 92l-14 26l-9 45l-12 109l-20 31l-21 -35l-18 18l6 23l14 69l27 5l20 -13v25l-24 18l14 25l-39 -2l-2 6l-27 8l-45 47l4 45l15 45v37l6 15l14 94l6 6l54 24l125 -43l8 -28l-4 -31l26 -108l13 -19l6 -43l6 -78l8 -20v-43l10 -27l6 -45l13 -29l12 -55l10 -74l8 -34l9 -41 l10 -27l8 -45l14 -51l17 -72l-35 -8l43 -37v-23l12 -43l-2 -47l-22 -30l22 6l8 -37l11 -23l-49 -12l14 -14l6 -19l-39 -45l96 8l9 -18l26 -18l-14 -64zM633 1393v18l-4 49l6 27l39 -29l10 -39l-2 -22l14 -47l-4 -29l10 -25v-53l37 -86l6 -55l-6 -29l4 -63l21 6l-16 -25 l16 -12l6 -29l16 -30l2 -37l23 -101l-4 -37l31 -43l-21 -90v35l-20 35v45l-41 123l-13 65l-6 35l-8 6l-4 56l-18 80l-17 59l2 23l-10 24l6 25l12 20l-38 31l-19 100zM565 57l29 -32l-12 12l-27 -17h-137l-78 -4l-43 9l-59 -5h-50l-96 -2l27 39l26 -4l50 2h192l23 -6l41 -2 l88 2zM313 997l6 21l-4 29l13 40l-9 21l15 25l12 -19l49 -6l-30 -35h-15l-18 -29l20 -20l-2 -41l-18 27zM412 860l-6 -18l-5 -29l-2 18l-16 17l-31 -10l-6 -19l-24 12l24 60h6l25 -23zM719 45l35 -4l-17 -21l-65 5l-19 14l31 14zM920 295v-19l14 -38l-10 -19l-21 -10l12 49 l-30 14l-2 27zM834 575l26 -61l14 -14l-18 -39l-18 47l-9 39zM1022 98l2 -18l-4 -35v45l-27 -4l-12 27l20 28l21 -20v-23zM981 213l-2 10l25 4l12 -39v-24l-12 -14v38l-13 19zM659 684l29 -2l23 4l-27 16zM614 365l45 4l-24 20zM690 614l17 9l-25 12l-16 -23zM346 666l4 2 l-4 10l-8 -4l2 -8h6zM719 659l-4 9l-8 -2l2 -11zM598 489v-8h6v8h-6zM285 131v4h-6v-4h6z" />
<glyph unicode="b" horiz-adv-x="1105" d="M74 125l-15 18v68l29 41l53 2l41 18l-4 72l4 25v57l-6 39l10 35l-12 26l4 37l-2 29l-2 84l-4 86l4 69l-10 105l10 41l2 88v76l2 94l-18 41l-41 -6l-19 35l66 24l-10 31l-37 6l-8 39l-23 -19l8 -20h-33l-14 29l-8 61l22 37l33 8l-4 -24l8 -21v-22l27 6l6 10l-14 49l43 2 l33 -8l12 -10h37l12 16l55 -8l84 4l54 -4l34 4l52 -4l53 -10h33l34 -13l52 -18l36 -27l-10 23l33 4l16 -18l23 -5l20 -12l17 -41l-37 10l-12 11l-23 6l82 -125l10 -49l12 -27l-36 4l-19 -18l-12 -23l49 -14l27 6l-29 -108v-25l-25 -37l-10 -35l-63 -43l-19 -20l-26 -19 l-15 -26l49 -29l35 -14l21 -27l59 -55l-8 -39l41 -31v-26l18 -46v-22l9 -41l-9 -27v-30l-8 -37l-33 -99l-8 -22l-6 -12l-31 -27l-10 -29l-27 7l-30 -11l6 27l35 20l-29 23l18 31l27 -13v25l-16 12l-35 -28l-55 -3l-13 -102l13 -33l-11 -28l-8 -4l-98 -25l-29 12l-31 -4 l-49 15l-18 -25h-109l-51 6h-51l-49 -10h-105zM678 645v8l-23 33l-8 53l-31 25l-84 16l-63 11h-63l-27 -11v-39l8 -102l-4 -39l4 -47l-4 -39l6 -63l-2 -70l2 -84l6 -31l19 -12l59 12l33 -14l26 2l41 4l52 18l34 31l19 43l10 78l14 47l-14 19v49zM360 1366l11 -37l16 -18 l-8 -35l-4 -37v-106l-4 -111l6 -68l10 -36l8 -5h33l23 41l14 -28l18 -19l23 -6l55 12l60 19l22 18l23 -2v39l8 17l4 32l-8 23l2 92l6 20l-16 33l-9 35l-6 18l-18 17l-4 33l-43 53h-25l-25 8l-43 2l-88 4zM1022 500v-41l-4 -35l-25 -133l-22 -31l-41 -86l-23 -27l-28 -20 l-19 -29l-22 -4l-45 -37l-41 -18l-121 -27l-29 8h-39l-20 -8h-29l-27 -6l-18 10l-98 -4l-78 8l-74 -14l-41 25l-22 -21l-56 -8l-37 8v33l29 10h174l27 -6l31 6l63 4l64 -8l47 4l77 -4l25 8l35 -4l53 8l21 15h24l23 22l61 29l76 80l18 14l39 68l17 41l6 43l20 94l-22 106 l-19 37l9 21l-9 18l27 -18l14 -19l13 -45l2 -37zM922 1190v51l16 -4l29 -78v-88l-11 -24l-30 -111l-33 -37l-19 -8l19 41l4 26l33 76l-4 99l4 30zM438 1208l-2 62l19 24l32 -8l-32 -127zM762 393l-6 -24l61 20l2 27l-43 -4zM272 1438l-8 -11l19 -14l28 14l21 19h-47z M467 362l-2 -32l-8 -23l-8 45l6 10h12zM688 1192v-14l51 36l-47 -14zM451 205l22 12l-18 23zM475 709l12 -11l-32 -26zM457 549l-15 12l13 33zM874 580v-13l29 -28zM254 1378l2 -10l10 4l-2 10zM670 242l-4 10l-11 -4l4 -8zM915 1270l-12 37l12 -25v-12z" />
<glyph unicode="c" horiz-adv-x="995" d="M825 334l27 -41l-16 -41l-31 -31l-25 -63l-82 -82h-6l-22 -23l-52 -18l-53 -15l-14 3l-64 -17l-32 -4l-23 8l-53 10l-64 31l-6 10l-35 15l-43 37l-26 45l-17 16l7 47l-17 39l-45 70l-33 92l-26 98v33l-19 63l6 23l-6 33l49 -43l74 18l-41 23l19 20l4 39l-31 19l8 -27 l-22 -4l-23 -35l-24 20l-25 5l8 59l10 108v74l17 92l4 58l14 32l4 37l11 33l12 55l18 35l27 21l18 35l7 26l86 101l22 4l23 18l34 8l97 2l47 -14l37 -27l67 -55l23 -27l18 37l-2 43l17 33l90 4l34 -8l29 -16l-8 -43v-138l-6 -26v-66l6 -127l-2 -78l-17 -36h-24l-21 -9h-45 l-28 9l-17 28l-18 115l37 14l-31 27l21 8l18 66l-33 22l4 21l-26 38l-27 13l-4 22l-21 23l-38 -17l16 37l-23 8l-22 -38l-41 28h-78l-27 -16l-18 -37l-14 -49v-21l-6 -20l-7 -78l-8 -29l2 -39l-6 -135l-6 -45l4 -30l-47 10l-23 -21l15 -16l28 12l27 -8l-35 -37l31 -22l2 -43 l-8 -136l12 -55l-6 -43l6 -39l-37 -49l31 -33l-12 -35l37 -2l24 -53l41 -33l45 9l10 -9l7 -14l43 -2l77 43l23 33l33 63l8 29l8 23l2 32l8 21l8 100l31 43l37 -2l39 8l35 -18l-8 -62l4 -28l-11 -25l-4 -43l-12 -45v-27l-18 -41l-9 -38l-32 -48l-13 -43l-24 -28l-19 -8 l-8 -27l-53 -18l-12 -19l-31 -4l-31 -10h-51l-41 -8l-70 4v4l-34 12l-5 2l-34 10l24 -32l62 -31l22 -2l27 -17l31 5l28 -5l35 15l47 4l21 -4l98 45l31 57l51 55l12 33l19 19l6 28zM406 330l-19 51l-8 39l10 37l-6 2l-6 59v66l-8 24l6 43l-4 56l8 32l-4 23l-2 74l-4 59l6 84 l4 162l14 49l8 12l19 -26l-2 -46v-59l-8 -33v-34l-4 -142l-5 -100l5 -49l-5 -62l5 -39l-5 -59v-64l23 -137zM907 1446l-14 -86v-25l8 -26l2 -33l-2 -92l-8 -115l10 -35v-127l-10 -33l-19 -8l-14 -16l-35 -14l-10 22l41 12l8 45l-8 46l10 18l-10 65l4 93l2 80l-6 110l8 64 l-10 34v29l-6 21l18 16l41 -14v-31zM903 594l-6 -41l-4 -37l-19 -127h-4l-4 -14l-37 -15v33l13 70l-4 2l4 43l14 65l37 62zM430 1262l-24 -31l18 78l31 18l65 -29l-28 7l-35 -19zM719 1077l-35 -6l10 -35l43 -6zM219 739l-12 29l-14 -25zM618 51l-6 8v-8h6z" />
<glyph unicode="d" horiz-adv-x="1124" d="M432 123l-33 -4l-67 4h-60l-4 6l-12 14l-6 29l-2 29l-23 26l13 -86l8 -22h-119l-23 -4l-8 4l-10 14l-4 45l-12 31l39 47h73l19 18v33l-8 41l4 25l-2 24l2 92l-11 76l7 23l-7 41l7 37v108l-7 96l2 35v78l9 43l-7 43l5 47l-9 55l7 29l-11 47l-104 21l12 26l88 4l10 37 l-12 31l-35 2l-71 -4l-19 49l4 27l45 69l37 -6h41l35 -6l6 -76l-18 -26l4 -15l24 -26l-10 -29l12 -41v-22l7 -25l22 -6l43 31h-31l-30 24l59 43l27 -8l6 31l37 10l-15 27l-24 2l14 45l37 22l31 37l73 -27l64 -28l-27 49l82 -10l56 -21l63 -37h12l37 -39v-30h23l14 -39 l18 -23l15 -33l57 -108l2 -33l8 -22l4 -52l11 -26l4 -39l4 -103l-8 -18l12 -16l4 -31l2 -68l-8 -71l-4 -90l-17 -43l-8 -43l-28 -80l-5 -25l-10 -35l-22 -43l-17 -14l-8 -23l-16 -14l-8 -27l-50 -40l-14 -19l-18 -8l-27 -23l-37 -6l-12 -8l-37 2l-47 -16h-27l-22 8h-70z M414 242l37 -13l6 -36l-2 -25l28 35l45 -13l27 -26l-12 20l-19 19l8 20l-8 23l41 4l35 10l37 37l16 18l2 4l11 37l14 27l4 25l16 36v54l7 32l4 35v82l10 27l-6 37v39l-6 38l10 50l-4 73l-6 31l2 51l-4 23l-5 78l-12 34l2 21l-4 20l-16 50l-17 28l-18 15l-14 22l-17 51 l-71 23l-105 6l-24 -21l4 -40v-93l-4 -53l6 -27l-2 -36l-23 -50l-37 41l8 23l17 18l-41 2l-43 -8l-8 -26l-19 8l10 20l9 6l-9 25l17 18v37l28 -49l19 -6l8 53l-90 15l4 -27l-31 -10l-4 -15l4 -24v-55l27 4l-27 -23l2 -86l-2 -70l7 -28l-5 -39v-78l35 -10l17 -39l-27 -23 l-25 -32l-2 -27l50 23l-23 -48h-25v-49l25 -28l4 -35l-12 -4l-19 -23l21 -33l-25 -8l21 -26l-17 -80v-76l19 16l26 78l-6 21l29 47l12 32l21 -18l8 -33l37 -12l4 25l-10 84l-19 14l-12 22l12 23l6 29l27 26l4 27l-22 4l-27 29l18 39l19 18l-35 -16l-35 41l29 18l18 37l27 28 l-14 29l-5 45l50 17v-82l2 -86l-25 -29l25 10l2 -84l-4 -59l4 -31v-100l-8 -27l6 -43v-37l-25 11l-55 -86l26 -27zM1030 694v-10l-8 -86l-2 -45l-10 -33l-25 -63l12 -23l-10 -24l-20 -64l-33 -67l-2 -23l-29 -47l-6 24l-16 -24l-7 -45l-18 -23l-51 -49l-53 -35h-19l-37 -28 l-61 -6l-53 -7l-80 7l-25 -9l-28 4l12 29l137 8l39 8l41 -6v17l35 12l86 55l67 82l8 23l19 14l33 59l6 35l31 72l6 39l18 108l-2 23l12 78l-4 67l6 21l-6 20l29 37l8 -78l8 -24zM365 47l12 -20l-68 -19l-49 10l-55 -8l-41 4l-37 -6l-37 21l6 34h64l28 -6l88 -10h89zM469 946 l4 6l10 31l4 -22l19 4l-23 -39l23 -23v-65l4 -45l-8 -21l-4 -47l8 -20l-8 -35l-19 20l8 31l-14 76l10 18l-10 100zM987 926v49h17l16 -76l2 -35l-25 -16zM469 1016l2 28l-2 35l23 13l14 -21l4 -59zM477 1206l-4 56l19 18h51l-23 -12l-22 -29l-6 -33h-15zM322 1024l16 -27 l-70 -18l15 29l6 30zM967 1034l-6 8l2 29h8l28 -33l-20 -37zM756 1108v-14l18 -31v-47l17 24l-27 68h-8zM287 578l10 18l31 -12l-27 -23zM391 1026h15l-37 -37l-27 6l33 17zM260 209l41 -4l-18 37zM721 1235l-29 -29l29 11l22 22l-16 16zM487 561l-4 29l19 -10zM231 725 l23 14h-23v-14zM655 1276v-19l15 19h-15zM889 520v-14l12 14h-12z" />
<glyph unicode="e" horiz-adv-x="1058" d="M82 1372l-14 10l-9 25v70l33 18l82 10l27 -10h65l82 -10l23 10l84 -4h84l90 4l88 4l39 -4l78 -18v-74l4 -62l-4 -65l-9 -39l9 -29v-176l-15 -16l-55 -4h-57l-29 4l-16 47l-5 27l5 26l-7 25l7 102l-25 43l10 31l-35 55l-80 6l-59 -2l-24 6l-23 -6l-20 -26l-5 -23v-33 l7 -129l4 -20v-113l2 -59l6 -33l67 -10l74 -19l14 -24l23 -25l2 -37l-6 -47l-19 -24l-22 -11l-21 5l-20 -5h-78l-26 -18v-104l-11 -37l6 -68l9 -37l-35 -41l31 -4v-43l-7 -35l11 -49l4 -49l33 -16l40 8l105 -10l68 6l28 57l2 72v65l6 25l-8 51v45l25 55l127 -6l28 -20l9 -55 l-7 -29l-6 -43v-60l-6 -69l8 -31l-2 -63l-6 -37l-16 -72l-41 -6l-94 -6h-58l-92 2l-35 12l-32 -4h-86l-76 14l-60 -14l-32 2l-25 -6h-78l-53 25l-4 55l28 16l-18 17l37 18h57l15 14l4 90l-8 103l14 18l-10 45l6 21v47l-6 27l6 30l4 92l-14 64l4 27l-4 47l10 73l-6 23l16 22 l-16 21l-4 70l8 104v27l6 -17l24 15l74 -19l6 27l45 -31l19 16l-19 33l-18 17l4 20l16 12l-34 45l4 21l-35 6v37l-45 -19l-17 17l-6 20l-41 6l-51 68l-10 -49l24 -10l23 -29l14 -35l-67 -6zM975 129l-4 -41l-27 -74l-33 2l-82 4l-26 -8l-88 2l-94 11l-37 -11l-33 11l10 24 l55 -6l52 4l53 -4l37 -8l16 12l64 6l59 -2l23 19l18 67l-8 19l18 61l-18 21l4 47l-8 26l14 78l-6 21l4 20l2 72l-10 28l8 64l29 8l8 -27l-8 -20l4 -25l-13 -28l7 -33l-4 -39l6 -33l-9 -22l-2 -60l7 -51l4 -90zM930 918l-33 -7l-31 7l31 43l4 28l-2 37l-6 18l6 25l-2 25l6 88 l-4 22l16 10l-16 41l4 66l-4 25l-2 67l10 82l41 -18l-8 -50l4 -73l-4 -58l-20 -59l14 -29l-4 -43l4 -20l-4 -23l14 -69l-4 -33v-78zM293 53l-2 -33h-62l-59 -10l-51 -4l-51 17l14 47l10 2l139 -13zM715 905l-19 -24l2 -101l-20 -63l-21 31l-2 59v78l13 39l22 12l39 -12h45 l-16 -13zM504 47l28 4l11 -26l-51 -9l-35 7l-23 -7l-20 7l-66 -9l-37 6l13 27l22 -22l23 22l24 4l41 -2zM506 1059l4 -2l-8 -31l-23 -4l8 90zM285 1339l24 -8l-24 -22l-29 -4l-4 36zM244 1243l-43 -10v35l12 22zM104 1264l-22 12l-4 33h4l47 -33zM666 690l22 -8l-8 -25h-45z M174 1473l14 -19h27l23 8l-35 15zM242 1171l-11 19l-18 12l-12 -26zM479 1282h25l-21 -49l2 24zM510 666l-8 -31l-19 27zM819 342v-12l23 -15zM487 444v9h11v-9h-11zM365 422l4 8h-11v-8h7zM311 1444v-12l8 8zM197 1233l4 -12v12h-4zM492 979l-13 6l19 -6h-6z" />
<glyph unicode="f" horiz-adv-x="958" d="M768 1106l4 -31v-45l-12 -43l-43 -12l-41 4l-23 -4l-49 49l4 25l-14 22l4 39l4 100l-8 60l-27 18l17 27l10 33l-29 36l-24 11l16 -29l-82 8l-78 -8l-20 -92v-41l-4 -88l6 -25v-112l2 -52l16 -53l52 39l20 -37l55 -12l41 -37l-6 -86l-22 -31l-39 6l-45 -8l-41 2l-27 -90 v-84l4 -14v-96l-8 -37l4 -45l-4 -41l22 -58l23 13l4 28l2 50l2 79l-8 35l8 53v136l19 10l36 -23l-20 -41l10 -49l-4 -59l6 -21l-10 -61l8 -25l-4 -59l-8 -35l2 -51l10 -21l-20 -79l-74 -19l-23 6l-18 -10l-27 6l-41 -4l-51 2l-55 -12l-78 8l-31 14l-4 78h6l3 15l26 22l45 4 l19 17l18 34l-16 72l8 33l-8 4l12 49l-4 64l4 94l2 92l-6 63l6 29l-6 64l6 45l-6 37l6 77l6 23l-8 147l-45 58l-74 12l-4 31l78 2l41 41l61 32h-43l-45 -14l-28 14l-9 21l-2 88l70 2l111 -6l32 6l31 -6l33 6l72 -2l20 -10l27 -2l69 -2l49 14l84 -4l31 8l39 -18l-2 -62 l-4 -43l10 -102l-4 -47l4 -23zM420 76h45l20 -37l-123 -6l-51 4l-18 -10l-35 4l-104 -4l-78 12l6 37l31 2l22 -10l27 6h174zM735 909l37 -18l-14 -25l-58 4l-43 -6l-8 -12l-6 -21v-98l10 -37l-22 -30l-23 12l-10 -19l-49 7l55 43l-2 43l6 61l-6 21l2 53l39 16l57 -2z M866 1001l2 -22l-2 -88l-12 -23h-55l-21 19l39 37l10 41l-2 39l29 24zM557 135l8 -35l-4 -14l-8 -12l-35 -4v120l6 33l11 19h6l12 -33l6 -41zM856 1210l2 -65l-22 -43l-5 37l-10 35l6 28l-2 72l31 4l-2 -27zM809 1440l47 22v-4l2 -65l-14 -17l-25 13zM524 1272l-30 6l-60 12 l37 17zM463 1075l-6 -20l6 -33l-6 -33l-19 58zM530 1434l15 32l-21 4l-16 -30zM352 1272l-8 31l-18 -15zM471 1411l-4 37h-14zM252 150v10h-8v-10h8z" />
<glyph unicode="g" horiz-adv-x="1124" d="M229 227l-20 15l-14 -45l18 -19l37 -14l37 -33h8l33 -12l41 -31h14l29 -18l49 -7l127 23l30 -23l-79 -45l-37 -8h-88l-58 13l-16 10l-12 18l-72 35l-25 29l15 32l-33 -10l-18 23l-56 114l35 5l39 -37l33 -13l20 13l-28 8l-11 29l23 18l4 31l12 24l-18 19l-29 2l8 24 l-16 37l31 35l-6 23l2 45l-9 10l-43 -35l23 -31l-31 2l-26 23l-15 24l-22 13l-15 18l33 123l-14 21l-33 -7l-8 23l-10 51l14 25l-19 43v65l5 88l6 19l18 127l8 26l19 60l18 22l2 21l39 57v18l35 48l29 22l77 68l46 10l41 16h92l47 -10l37 -18l18 -17l92 -63l29 100l125 -14 l-4 -23l14 -18v-55l-8 -19l8 -24l-8 -25l12 -41l-6 -41l2 -49l-4 -51l4 -31v-55l-10 -113l-12 -16l-23 -6l-25 4l-24 -7l-43 3l-23 28l13 15l-19 22l-8 80l-16 57l-13 21l2 22l-8 21l-4 35l-29 65l-51 59l-57 21l-23 20l-37 15l-47 -17l-30 -28l-47 -117l-7 -102l-12 -64 l6 -55l-6 -105l6 -51l4 -84l-4 -22v-56l4 -80l6 -73l5 -103l8 -22l26 -105l41 -36l11 26l-15 49l19 21l10 -21l2 -41l33 -67l26 -8h35l49 41l19 26l16 14l21 54l16 69l2 31l-2 23l6 41l-6 55l-41 18l-35 6l-14 9l22 14l33 4l31 27l-31 35l-67 10l-13 18v45l-6 15l45 36h10 l62 2l88 3l20 -5l54 2l67 -2l47 23l-8 33l6 22l-6 58l-10 24l18 27l-12 22l25 4l6 -22l10 -115l-8 -65l33 -27l-2 -51l-13 -47l-22 -13l-45 -4l-25 -22v-78l4 -70l-12 -30l4 -125l4 -31l-4 -35l4 -41l-4 -63l-14 -62h-35l-27 -8l-35 19l-16 59l-20 35l-39 -35l-35 -37 l-78 -43l-74 -12l-65 -13l-64 19h-22l-60 59l-22 2zM961 74v-19l-27 -37l-49 9l-43 -4l-37 2l-35 12l-33 -14l-28 6l-25 16l-27 29l-10 39l43 -9l39 -57l16 27l54 2l96 -10l16 40l4 58l-2 78l-6 18l-2 59l15 19l-9 27l2 98l13 24h8l16 -55v-102l-8 -25l8 -22v-86l-8 -25 l14 -35zM1053 702v-36l-11 -37l-26 -15l-41 7l-27 -33l-4 -51l-12 -43l-19 30v92l19 27l43 -4l45 18l4 27l-8 21l6 28l18 -10zM236 870l-19 15l19 33l-37 34l12 43l-18 -34l-43 -43l-11 -19l-24 -20l-23 -27l-18 10l12 -22v-21l55 51l64 -18zM377 831l-2 27v43l8 96l-6 29 l29 37l8 -29l-4 -57l4 -80l-4 -63zM905 1098l-10 18l2 55l10 17v69l27 -10v-57l8 -111l-37 -16v35zM412 784l4 -47l-17 -43l-18 54l12 55h8zM926 1380l-21 9v38l27 39l6 -26v-45zM932 1272l-25 14l-2 41l10 35l27 -41l-16 -10l16 -13zM104 1098v-49l35 26l-12 29h14l27 18 l-53 -6zM418 1249l-12 -30l-13 28zM268 1092v-25l27 12zM248 1030l-2 33l-17 -14zM410 1108l-4 -4l-15 -6l8 30zM266 584l2 -6l27 10z" />
<glyph unicode="h" horiz-adv-x="1216" d="M86 152l-18 22l6 74l71 14l29 -2l10 39v72l-6 69l4 45l-2 37l8 51l-6 56l-4 24l10 23l-6 24l2 37l4 2l-4 37l4 23l5 78l-5 24l5 23l-9 39l9 41l-9 24v43l9 19l-11 106l6 23l-4 36h-39l-36 -6l-35 8v43l76 -6l34 41l-39 37l-63 -4l-19 23v14l-12 65l17 25l55 14l24 -10h54 l69 -4l97 -2l120 -10l7 -49l-25 -50l-55 -10l-21 -43l2 -39l6 -22l-6 -99l-6 -41l8 -24l-4 -84l8 -96l11 -27l43 -10l49 -2h76l67 8l29 10l16 43l-8 29l-4 74l8 26l8 56l-4 22l4 72l-12 30l-66 7l-2 22l23 8l41 2l10 52l-24 26l-31 -2l-45 6l-19 62l9 30l22 11l14 14h76 l60 4l73 -4l27 6l27 -6l73 10l15 -10l41 -31l-9 -71l-32 -19l-37 4l-31 -63l8 -23l-10 -82l-18 4v-28l18 10v-100l-12 -68l-29 -14l10 -72l-10 -29l-25 5l-18 -13l-43 -51l29 -33l61 -35l10 -28l-28 4l-13 22l-10 -22l-24 -23l24 -14l29 -8l6 -21l-18 -30l-37 -19l45 6 l10 -30l-25 -19l19 -41l33 -14l8 24l-10 19h18l6 -29l-12 -31l2 -32l16 -17l-6 -71l6 -23v-67l25 -56l47 23l-10 61l-2 62l8 47l-10 22l4 31l-4 20l8 43l-4 89l33 22l2 -33l-9 -30l7 -41l2 -52l6 -26l-8 -82v-113l-7 -28l19 -45v-60l-27 -43h-55l-31 10l-24 -10h-164l-76 2 l-33 27l4 67l29 25l51 12l8 53l4 58l-6 22l-4 76l6 14l17 7l-6 59l-19 55l8 56l-14 47l8 22l37 8l-8 7l-25 6l-22 30l-80 9l-25 10l-26 -2l-58 -17l-30 5l-49 -17l-5 -76l7 -32l-7 -25l-4 -70l4 -45l-4 -59l11 -59l-7 -68l-24 10l24 -16l11 -31v-24l18 -9l37 2l18 27l17 14 l8 -51l12 -26l-6 -82l-31 -21l-88 -2l-22 2l-51 -2l-131 -6l-93 -4zM639 53l33 -24l-56 -9h-32l-23 9l-41 -9h-127l-63 -4l-49 4l-29 -8l-74 8l-18 -10l-72 2l-8 45l31 11l30 -7l66 -4l61 4l74 -4h84l76 6l67 -6zM1122 90l4 -29l-6 -26l-24 -15h-80l-23 9h-35l-18 -9 l-104 15l-19 -10l-72 6l-38 12l51 18l12 -14l47 10l21 -14l51 14l41 4l69 -12l35 8l37 27v22l25 123l20 -4v-35l6 -32v-68zM1006 813l-9 -14l-12 -35l-18 90v47l8 41l-8 80l2 35l8 92l8 22v29l-18 29l30 8l7 -10l-7 -66l9 -47l-7 -27l7 -65l-2 -35l4 -20l-2 -27v-57l8 -37z M993 1274l62 33l6 59v61l-2 56l26 18l19 -10l8 -14l-8 -39l10 -72l-2 -53l-16 -39l-29 -10l-55 -7zM803 522v-20l18 -47l-2 -29h23l32 86h-30l-33 20zM487 1278l41 -2l-12 -39l-18 -10v-39l-6 -29l-13 37l8 18l-6 35zM328 485v-30l-27 -19l8 -18l13 -15l30 5l-10 36l16 23z M872 717l19 22l-4 35l20 17l4 -46l-4 -43l-4 7l-24 -15zM287 512l-39 -37h45l8 6zM182 1415l29 -12v31zM872 279h25l-18 24zM219 1372l-18 -22l22 4zM580 1268l-19 2l19 8v-10z" />
<glyph unicode="i" horiz-adv-x="727" d="M84 127v4l-8 82l8 37l45 10l45 -6l25 10v43l18 45l-14 29l4 45l-8 25l4 41l-6 26l14 55l-12 31v193l-6 20l-3 31l3 8l16 23l-10 84v106l-6 82l4 41l-4 61l-37 9l-17 30l49 47l-20 39l-33 6l-14 -10l-41 -4l-17 51l-2 35l52 47l59 -6l31 4l26 -8h103l-6 -33l-19 -22 l33 -23l-8 -37l8 -22l4 -70l-8 -31l8 -26l-2 -35l6 -33l-6 -33l-25 -30l27 -15l4 -36l19 -31l4 -37l-2 -39l8 -35l8 -14l29 -23v-86l8 -82l-2 -71l-10 -15v35l-19 35l4 25l-10 24l-6 62l6 69l-23 -26l5 -27l6 -82l-15 -24l2 -82l-8 -29l25 -39l12 -45l21 -41l6 -27l-17 -24 l4 -47l17 -39l6 -45l-18 -33l32 -4l4 -64l13 -55h-23l-39 -8l-96 8l-96 -10l-29 -10h-43zM354 1393l17 63l-9 41h33l37 6l21 -6l47 4l16 -18l10 -45v-45l-20 -25l-37 4l-49 -24l-6 -56l2 -26l-6 -13l6 -41v-116l-6 -49l6 -23l-6 -49l6 -29l-21 -31v27l-10 33l12 53l-8 25v43 l-4 78l-8 24l2 45l-8 29l8 24l-12 41l4 25zM631 182l-4 -6l12 -22l-6 -111l-43 -14l-96 -6l-64 -3l-31 7l-32 -4l-9 16l-73 -8l-31 2l-78 -15l-82 2l-12 37l16 15l19 8l100 -12l131 -7h111l41 2l67 5l35 53l-4 80l6 43h35zM485 1278l15 18l43 -4l43 27l-11 43l9 35l-4 61 l18 31h10l19 -31l-15 -12l4 -23l7 -86l-9 -22v-27l-24 -22l-53 -6l-29 -25l-4 -35l8 -18v-35l-4 -76l-2 -92l6 -29l-18 -37l-25 19l2 92l-4 63l4 60l6 22l-6 86zM535 244l2 -49l-7 -45h-32l-29 67l-2 43l18 37l-4 49l6 49l17 11l12 -19l-4 -41l-12 -70zM481 604l-10 43 l35 43l2 -76l-19 -51zM485 805l-8 12l10 47l21 -18v-35zM489 528h15l-6 -61l-21 12zM281 913l16 -18h43l-33 20zM485 711l-12 37l35 2zM590 1386l14 -38l4 20l-12 18h-6z" />
<glyph unicode="j" horiz-adv-x="866" d="M668 485l10 -22l-6 -29l2 -22v-64l-8 -67l-19 -78l-12 -27l-125 -127l-31 -10v27l-18 10l6 -41l-66 -10l-45 2l-16 12h-21l-94 33l-43 22l-65 60l-11 14l11 45l-21 29l-8 39l-18 34l-2 43l-7 23l7 25l-5 28l5 29l-13 33v79l15 -6l22 25l37 6l78 -10l12 -31l12 -86v-106 l29 -95l19 -18h45l24 22l23 46l-6 28l6 72l-2 41l6 74l-10 38l6 41l-6 21v20l4 80l-9 56l5 20l-3 31l7 69l-13 23l9 86l-13 37l13 43l-9 61v88l-10 49l25 11l-4 37l-11 30h-32l-91 6l19 76l-21 8l29 27h117l96 2l62 -2l26 10l57 -8l21 4l33 -18l6 -51l-21 -46l-73 -14 l-15 -22l2 -35h-39l25 -33h-18l-15 -41l45 -4l-4 -59l6 -23l-2 -29v-39l-22 -16v-27l-37 -16l-6 -10l-37 4l-6 -37l-10 -8l18 -39l16 12l-16 19l84 -62l16 -39l-4 -77l15 -78l-9 -31l4 -57l5 -56l-5 -30l5 -50v-45l-19 15l8 30l-26 -4l-15 19l-18 -12l14 -29l-12 -19l4 -36 l-29 4l-26 -4l37 -19l18 -14l23 -8l18 39l4 30l19 -22l-9 -45l4 -21l-18 -69l-22 -48l-29 -32l-72 -47l-37 -9l-39 -12l-84 -4l-51 16l-41 -12h19l10 -16l63 -29l23 -6l22 -12l68 4l55 4v4l37 10l37 19l27 30l18 11l19 18l22 37l10 67l13 25v43l-4 86l8 51l-4 4v119l6 18v46 l8 26l-4 23l27 -4l10 -52l-4 -53v-119zM774 1374l-4 -49l-14 -39l-41 -4l-66 29l78 12l6 37l15 43h8zM379 1159l4 -41h23l20 -26l16 34l-34 4l41 15l24 37l-53 -27zM635 813l2 8l2 25l-8 37l22 -4v-52l9 -18l-9 -47h-22zM256 1282l-4 -8l-8 33l43 -29zM621 1102l-3 8l29 -23 l-22 -14zM629 967l28 -11l-32 -18zM653 1200h2l-24 -18l-2 22zM528 586l15 -23l18 -12zM430 1403l-14 -2l14 -10v12zM397 1071v12l-10 -12h10zM174 150h8v4h-8v-4z" />
<glyph unicode="k" horiz-adv-x="1271" d="M90 113l-12 6l-19 28v46l43 71l43 -8l45 37l-8 41v100l-8 55l8 76l-8 70l-6 20l14 39l-8 19l6 45v92l-4 53l19 55l-5 17l-14 41l43 18l-39 8l6 21l-4 35l4 76l-6 34l2 23l-26 31l-56 2l-28 10l59 29l45 6l-4 34l-76 23h-37l-6 29l-8 49l4 14l47 37l78 -4l37 4l31 -10 l26 4l41 -2l82 4l68 4l47 -14l4 -41l-23 -68l-73 -6l-27 -14l-2 -41l-4 -74l6 -2v-90l4 -23l-14 -6l16 -26v-52l-10 -49l10 -28v-46l-2 -63l19 -27l32 52l17 53l6 41l31 -6l43 69l28 -22l-20 37l26 30l9 19h4l10 30l37 54l12 30l21 23l4 37l-47 4l-35 -4l-19 18l31 15h25 l59 4l35 22l12 27l-24 12l-70 21l-12 16l-9 70l21 22l37 -8h76l51 4h82l24 12l37 -6l62 -20l-5 -74l-14 -27l-45 -10l-49 -4l-66 -111l-22 -18l-4 -25l-37 -28l4 -21l-41 -51l-8 -22l-35 -48l-12 -30l-17 -17l-10 -28l-4 -31l10 -31l4 -20l35 -56l6 -34l23 -33l6 -33l25 -31 l14 -51l74 -158l18 -43v-18l14 -35l25 -26l10 -31l33 -62l47 -4l-2 45l-22 50l-54 116l-20 31l-13 53l-18 25l-10 35l-31 69l-33 60l-8 37l-29 49l-8 28l13 19l-23 2l-4 29l27 83l14 15l14 35l23 24l26 53l29 19v24l33 37l31 64l22 8l14 12l39 2l15 -22l-31 -4l-37 -37 l-12 -29l-19 -16l-10 -27l-41 -47l-4 -27l-45 -36l-18 -54l-7 -6l-18 -47l33 -127l18 -12l33 -86l16 -23l21 -61l24 -27l17 -53l4 -35l22 -49l27 -45l14 -51l7 -6l12 -33l12 -41l31 -35l6 -29l-8 -61l-41 -39h-23l-24 -10l-121 10l-47 -4l-45 6l-33 6l-57 -8l-33 4l-19 29 l-10 39v26l23 23l47 2l8 55l-16 17l-21 49v20l-20 27l-9 43l-36 57l-2 23l-31 63l-37 15l8 49l-49 22v-4l-23 -31h-4l-10 -30l-22 -37v-6l-11 -45l4 -33l-4 -49l4 -25v-53l-2 -76l13 -35l51 6l16 52l23 -15l-2 -32l22 -52l-4 -22l-12 -74l-35 -8l-78 2l-2 4l-20 -4l-64 6 l-30 -8l-48 2l-20 -6l-90 4zM1169 94l19 -6l-10 -68l-27 -10l-74 4h-92l-39 6l-59 -10l-94 4l-29 -4l-23 4l-123 9l-59 -9l-27 6l-59 -6l-27 -8l-69 8l-76 -4l-41 10l-88 -14l-39 4l-24 -8l-27 14v47l37 7l12 -4l29 -9l22 9l68 -15l18 8h105l78 4l22 -4l33 4l33 -6h45l94 13 l59 -7l33 7h86l21 -4h53l39 -7l47 11l24 -7l43 7l29 12l-2 37l-8 59l31 80l6 6l28 -12l11 -19v-114zM1077 1399l-2 14l-4 45l6 15l33 12l-14 -27l16 -8l6 -123l-8 -47l-33 6l-2 37l4 43zM477 1303h35l20 -17l-51 -41l-8 -43l4 -43l-12 -31l-14 35v111zM487 573l9 -2l-7 -51 l-20 19zM481 481l8 -10v-33l-12 -12zM338 954l-19 -14l25 -16zM356 639v8h-10v-8h10z" />
<glyph unicode="l" horiz-adv-x="1021" d="M686 139l-27 -6l-18 6l-41 -6l-20 10l-29 -10l-29 4l-20 -6h-25l-108 -6l-23 6l-100 -6l-19 8l-34 -14l-93 -4l-32 47l4 67l30 23l37 -8l43 4l11 55l-3 29l9 76l-9 20l5 47l-15 27l6 22l-4 21l11 100l-3 53l-10 19l13 26l2 29l-5 37v168l5 82l-9 28l4 97l-8 53l-8 20 l-90 -12l-6 31l61 4l41 12l6 31l-10 25l-72 16l-47 37l-8 20v43l19 9l71 4l25 4h227l72 2l33 -8l10 -50l-29 -16l12 -41l-36 -14l-35 -2l-23 -21v-20l-10 -70l6 -33l-4 -26l8 -29l-4 -18l4 -23l-4 -22l4 -21v-182l-2 -68l-6 -94l4 -4l4 -90l8 -41l-8 -23l4 -47l-30 -53h-31 l-53 35l-2 -25l-29 8l-33 -4l-26 -41l47 25l47 -35l-6 -22l36 -5l-20 -61l-18 -16h-27l-23 -13l11 -18l-15 -25l9 -18l-9 -37l-45 -10l35 -55l14 16l-10 18l-16 13l49 28l47 45l-2 23l23 14l4 23l47 4l4 55l18 14l4 -51l-4 -45l29 -55l45 8l20 6l23 -12l98 -6l27 10l8 43 l-2 35l8 45l-4 65l4 25l-6 37v119l8 63l6 12l95 7l47 -11l14 -16l-6 -20l10 -52l2 -43l-2 -90v-121l4 -49l-8 -41l8 -26v-52l-14 -49l-37 -2l14 25l-32 -31l-37 -2zM932 485l-8 -28l8 -49l-6 -31l2 -43v-23l-4 -88l6 -53v-59l-31 -13l-20 -47l-23 6l4 -22l35 -10l6 10l19 12 l-2 -22l-19 -15l-25 -8l-22 10l-37 -2l-90 10h-55l-11 31h29l27 -8h30l115 35l8 51l11 27v51l4 41l4 59v211l-4 55l6 78l12 39l21 -22l14 -33l-8 -25v-49zM600 47l29 -22l-29 -9l-55 4h-39l-25 -8l-26 4l-21 -4l-39 4l-37 13l-22 -13l-53 4l-23 -4l-80 -6l-55 2l-43 8l-10 9 l14 37l86 -5l39 -8h125l22 -12l88 16h86l27 -10h41zM451 1182l4 41v28l14 29l18 -8l5 -23l-11 -78l6 -75l-14 -25l12 -31l7 -43l-5 -47l5 -65l-5 -127l-10 -37l-22 74l4 55l-6 92h2l8 102l-8 43l8 21l-8 22l8 29zM551 1260l-19 12l11 20l16 13v32l-14 101l6 37l35 6l12 -54 l6 -59l-14 -100l-39 -11v3zM496 430l-4 -22l-3 -46l-24 -24l-19 47l13 92l-6 35l12 14l-2 31h26l-8 -27l11 -28l-5 -39zM229 352l-6 -8l45 -2l13 47l-41 -4zM276 1401l-18 -10l37 -9l8 9zM221 1378l-12 -10h12v10zM285 1366v6h-4v-6h4z" />
<glyph unicode="m" horiz-adv-x="1271" d="M92 1376l-24 19l-11 67h4l9 23l18 10v4l43 4l31 -2l71 6l37 -12l97 2l49 -6l53 2l6 -35h-4l12 -43l2 -41l11 -63l12 -25l4 -67l10 -21v-33l10 -37l7 -65l16 -47l6 26l21 29l6 49l-2 21l4 24l8 17v24l16 64l15 26l-11 25l5 37l12 47l10 22l6 50l13 16l26 6l-18 -16l28 -8 v20h17l80 2l106 -4l15 6l55 -4l59 8l27 -18l4 -62l-23 -47l-55 -10l-33 -12l-6 -62l-8 -32l12 -119l-6 -76l-2 -59l-2 -74l8 -33l-6 -31l4 -37l-6 -81l4 -45l-6 -41l10 -35l-2 -66l-6 -69l-61 -68l-9 -14l-6 -19l17 -22l49 65l6 -69l4 -82l41 -29l27 41l26 -14l25 -60 l-8 -92l-37 -16l-41 10l-41 -4l-35 4l-131 14l-76 -8l-35 19l-4 38l25 66l53 10l6 103l4 135l-4 18l37 55l-18 17l-23 -2l2 39l-4 65l6 64l-8 26l6 123l8 101l-6 20l6 29l-8 47l15 59l-7 37l-4 90l-24 -63l-11 -101l-12 -32l-2 2l-14 -41l-6 -86l-13 -54v-28l-14 -39l-8 -51 l2 -45l-8 -60l-31 -100l-2 -37l-33 -6l8 -51l-20 18v27l-37 41l-25 6l-38 -8l-17 18v27l-10 26v33l-14 66l-13 67l4 43l-10 23l-6 53l-12 41l-21 129v37l-14 43v31l-10 12l6 37l-10 -31l-5 -47l7 -16l-9 -21l4 -23l-6 -26v-78l-2 -82l2 -74l-6 -20v-29l4 -53l-4 -41l8 -27 l-6 -43l6 -36l2 -86l-8 -27l2 -51l11 -25l-31 -29l-43 -4l-25 15l-2 43l-8 43l-31 -4l6 90l21 -54l8 62l-35 10l8 27l-12 35l10 79l-8 13l13 61l2 68v65l8 78l-6 29l4 74l-11 59l9 61l-27 35l-51 -2l-35 23l59 10h41l15 51zM53 180v13l6 40l56 23l73 41l-2 37l33 -6l33 2 l27 -11l28 7l4 -33l6 -29l13 -8l49 16l43 -41l-4 -77l-15 -27l-30 -4l-51 6l-93 4l-36 -16l-37 4l-39 -4l-49 20zM1102 35l-27 -15h-37l-82 -4l-12 9l-24 -7l-27 7l-64 2h-30l8 18h-27l-59 -20l-55 -2l-37 8l-45 -6l-70 -2l-18 -13l-21 15l-47 -5h-125l-35 9l-24 -9l-88 3 v-5l-76 2l-27 43l23 21l30 -10h72l88 -8h33l31 -9l37 6l73 -6l31 4l47 5l31 -7l29 4l38 -2l56 7l76 -7l24 2l92 -10l60 4l90 6l63 -2l23 25v23l10 36l2 74l21 25l28 -23l-4 -28l8 -27v-27l6 -59l-6 -10zM1044 547l-8 -17l2 -36l-2 -58v-78l-18 -39l-31 15l-2 20l14 166 l-8 35l2 53v76l11 41v53l-7 29l4 31l5 43l-2 71l-9 74l21 59l20 -36v-156l-2 -35l-2 -70v-36l10 -54l-12 -71l10 -39zM543 397l35 -4l-15 -26l-2 -48l-14 -55v-24l-15 -35l3 -35l-19 -27l-24 15l-5 53l-16 121l12 24l31 15l12 -37zM1083 1278l13 37l20 14l-10 86l4 37l10 35 l39 4l12 -23l-8 -24l6 -31l-8 -55l-28 -66zM764 1391l-12 -37l47 -6v4l57 -4l33 -19l-33 55l-22 11l-33 -6zM995 1231l15 18l-9 27l15 22h35v-14l-17 -22l-2 -37l4 -35l-14 16l-18 2zM860 328l-2 37h-8l-29 -15l-16 -20l35 -29zM801 1280l20 16l27 33l-23 10l-12 -4l-12 -20 v-35zM139 1485v-17l37 11l27 -13l-19 19l-18 10zM698 1386l9 -49l22 49h-31zM438 879l-4 -25l25 10l8 31zM500 526l-33 13l14 28zM1016 1126l31 15l-7 -33zM883 1440l-33 -10l27 -7l26 15zM461 649l8 15l-18 12zM365 319l16 11l-10 -29zM696 786v17l6 -27zM209 1442l-10 6 v-6h10z" />
<glyph unicode="n" horiz-adv-x="1105" d="M100 131l-16 16l4 23l-6 51l8 21l64 10l14 8l29 33l-2 39l-9 78l-10 36l14 35l7 107l-4 20l6 58l-9 18l7 55l-7 23l-6 96l6 57l-10 37l13 43l-7 58l7 14l-7 41l11 27l-9 41l-4 92l-34 -6l-66 -7v43l53 5l49 14l-6 29l-12 20h-29l-20 6h-31l-25 8l-6 78l56 47l45 -10l49 8 l69 -8l27 4l74 -4l55 -29l12 -34l15 -50l8 -36l37 -115l14 -66l8 -16l17 -51l16 -23l14 -67l13 -29l18 -61l23 -80l8 -23l10 -27l19 -34l22 49v31l-10 53l4 43l-12 41l4 55l8 27l-8 86l4 26l-8 21l-6 51l-23 12l18 37l-4 23l4 41l-77 34l-17 66l17 45l38 2l33 8l29 -10l51 6 l47 -6l47 6h43l37 -16l6 -78l-12 -27l-25 -8l-12 27l-8 -29l-27 -6l-24 -16l-6 -93l8 -71l-10 -49l8 -45l2 -82l-2 -60l6 -45l-4 -59l-10 -96l-27 -64l18 23l15 28l8 -28l-4 -68l-2 -100l6 -23l-4 -4l4 -31l-4 -24l4 -23l-6 -74l2 -34l4 -66l-4 -63l4 -45l-23 -21l-96 -6 l-67 4l-19 14v31l-10 29l-4 37l-27 57l-18 82l-15 49l-8 18v23l-18 49l-17 35l-24 86l-10 12l-9 51h-4v50l-18 24l-37 101l-6 38l-6 7l-21 61l-22 57l-17 17l-2 -25l-4 -135l6 -84l-2 -41l11 -70v-319l-9 -27l9 -26l4 -51l18 -19l59 19l23 -39l2 -64l-33 -57l-24 4l-107 -8 h-57l-31 8l-41 2l-16 -10zM922 94l-4 -35l-5 -12l-14 -22h-37l-59 -11h-109l-82 6l-45 -4l-32 7l-27 -7l-33 7l-45 -7l-20 23l-33 -23l-92 4l-21 -4l-57 4l-78 -10l-35 13l4 53l37 6l37 -8h35l26 8l33 -4l19 -8l26 6l29 -13h92l39 11l4 59l-12 76l26 33l27 -27l-8 -47v-53 l45 -49l27 -7h106l68 4l37 -4l34 4l31 15l16 115l-4 77l4 45l-8 19l4 22l-4 23l10 53l-10 25l17 59l14 -16l10 -21v-28l-10 -58l8 -49v-57l6 -35l-4 -23l4 -51zM1020 1391l-2 -15l-23 -104l-12 -15l-43 7l-49 -25l-10 -27l-7 56l17 22l45 -4l29 19l4 47l-2 47v67l10 29 l27 -10zM899 874l-8 -24l4 -55l4 -129l4 -56l-4 -61l-27 -10l-4 14h-4l8 37l-4 31l-4 63l8 23l-10 18l6 37l6 96zM895 1171l-4 -26v-74l4 -70v-96l-31 -28l-6 116l10 19l-6 55l6 68l-6 24l10 27zM664 1384l34 -4l25 -8l12 -24l15 28l-41 23l-47 14l-17 27l-24 -8l-35 8 l16 -21l19 6l28 -22l-10 -23zM567 1225l-14 14l18 35l33 -2l17 -15zM379 356l-2 4l-4 23l22 27l4 -39l-8 -37zM578 461v-10l26 -13l19 -18l-11 24l-14 19zM664 528v-12l26 23v22zM741 627l-2 39l-8 -31l4 -29zM379 713l10 -19h-16zM125 1268l-4 8l-8 -2l4 -10z" />
<glyph unicode="o" horiz-adv-x="1032" d="M791 1169l2 -16l12 -27h-27l31 -32l14 -60l-22 -14l10 -19l16 -12l11 -96v-62l-11 -36l7 -25l-7 -25l7 -22v-31l-15 -71v-33l-4 -66l-6 -16l-18 -82l-13 -27v-24l-16 -39l-17 -15l-8 -26l-47 -51l-43 -52h-14l-45 -34l-29 -29l-67 2l-19 -10l-18 10l-31 -2l-10 14 l-15 -12l-30 -6l-41 14l41 -33l22 -8l33 -10l41 -6l41 2l37 10l61 2l37 19l29 24l30 8l19 23l63 84l9 27l28 36l27 56l24 102l17 70l8 78l12 16l-12 22l12 29l-2 49l31 4l-29 15l6 45l-6 22l4 25l-6 20l-4 52l-6 41l-6 47l4 57l12 -31l31 -100v-19l10 -18l-10 -92l12 -72 v-47l-6 -20v-29l-18 -90l4 -49l-15 -11l-8 -67l-22 -68l-6 -35l-7 -12l-10 -12l-22 -60l-19 -28l-28 -41l-41 -47l-23 -6l-14 -23l-54 -33l-32 -10l-27 -14l-57 -13h-72l-76 9l-20 22h-25l-43 25l-31 24l19 58l-35 34l-20 29l-21 12l-10 21l-27 29l-10 30l-31 31l-14 45 l-25 59l-12 52l2 37l-14 26l6 31l-21 37v100l9 -33l24 6l19 -16l12 21l27 8l-41 18h-35l-23 31v24l-6 23l6 33l8 145l5 8l10 107l16 61l8 45l80 156l113 100l74 23l94 12l20 -6l90 -22l74 -37l31 -33l59 -86l6 -2l25 -45l14 -51zM317 205l11 -4l67 8l-26 29l22 12l19 -8v-23 l30 -14l19 18l-8 23l20 22l47 -6l45 47l10 25l9 43l6 61l12 35l4 74v74l6 34h-4l4 74l-4 55l8 41l-4 23v145l-6 31l-4 104l-8 35l-6 107l-86 39l14 16h35l-57 59h-74l-60 -28l-26 -39l-13 -39l-6 -61l-12 -60v-33l-6 -22l2 -23l-6 -67l4 -37l-4 -66l4 -30l-8 -35l8 -29 l-8 -78l10 -123l6 -4v-104l14 -78l-4 -31l-22 4l35 -22l-17 -10h-24l-6 -19l34 -26l-26 -25l-2 -39l24 -14l29 26l-12 -30zM362 629l-6 33l6 90l11 30l-8 25l4 6l-7 37l3 31l30 -7l-4 -49l4 -37l-4 -24l12 -43v-43l-8 -27l11 -41v-55l-3 -74l11 -26l-8 -31l-31 57l-6 54 l4 65zM162 535l18 -21l43 18l4 27l-41 29l-28 -6l10 -31l-27 -4zM219 426l57 2l33 14l-14 21l-23 18zM369 1057l8 35v53l18 8l11 -45l-3 -43zM483 150l6 10l-38 14l-27 -2l8 -27h49zM893 1073l-25 41l-8 47l27 -26zM201 446l39 35l-50 -8l3 -22l-19 -27zM369 1042l26 -4v-37 l-26 11v30zM483 1315l-16 -27l-35 2l19 23zM422 1235l-23 2l19 43h14zM279 1403l-7 -19l54 9zM809 1266l-31 8l33 18zM381 956l-12 31l22 6zM745 774l-20 -4v-12zM520 131l8 6l-20 13zM793 1067v-6h8v6h-8zM344 100v9h-6v-9h6z" />
<glyph unicode="p" horiz-adv-x="1069" d="M926 926l30 -21l-8 -33l-18 -32v-9h-4l-29 -59l-18 -10l-13 -25l-45 -22l-18 -19l-21 -6l-16 -14l-21 -4l-28 -15l-41 7l-41 -17h-45l-37 6l-31 -8l-35 -22l5 -66l-5 -16l5 -78l-7 -76l7 -37l-7 -22l7 -78l2 -100l-11 -25l-90 -4l-69 -4l-58 4l-51 -6l-41 6l-70 -12 l-24 22l8 72l-2 33l37 10l43 -2l16 63v99l6 71l-10 31l15 67l-9 72l4 58l-6 59v67l6 29l-10 31l4 35l-8 30l10 117v60l-10 118l-18 27l22 41l-18 47h-82l-12 8l-15 45h-4l10 64l17 14l55 4l92 -6l45 2l23 -4h59l58 -4l59 6l20 -2h76l41 -16l29 -7l84 -36l69 -56l21 -37 l26 -28l13 -53l10 -13l12 -47v-57l8 -70l-4 -76l-16 -24l-16 -78l-45 -68l-35 -34l-37 -19l-25 -16l-28 -4l-62 -11h-45l-76 -6l-73 -2l-35 -22l10 -47l2 -54v-127l4 -116l-6 -47l29 -64l18 4l15 72l-5 41l5 20l-5 31h5l-5 37l5 37l-5 57l5 23l2 67l43 31l41 -10l63 10v4h27 l47 8l61 -4l66 57l71 62l15 45l14 8l8 31zM383 1077l4 -14l-8 -23l8 -26l-4 -33l4 -20l2 -52l-6 -26l31 -33l47 14l37 -14l55 -4l35 18l43 27l8 22l14 19l13 41l4 45l-13 45l17 55l-8 23h59l-63 41v32l40 -14l41 4l-18 15l2 22l21 19l-23 18l-39 10l-6 23h-25l-57 37l-55 12 v4l-111 10l-43 -20l-2 -37l-8 -31l14 -35l-10 -22l6 -37l-6 -43v-72zM612 104v-51l-10 -26l-22 -15v-4l-95 10h-79l-76 2l-56 -2h-118l-27 -6l-31 4l-18 31l16 29h51l27 -10h45l23 6l20 -11l27 7l45 -2l59 6l33 -4l72 4l45 49l4 37l6 47h4l4 16l14 19l27 -4l6 -33l-10 -27z M889 1241l-10 14l-39 88h8l24 -12l37 -43l9 -18h4v-6l18 -31l16 -90l-18 8l-23 -6zM989 1044l-18 -63l-8 -39l-37 19v18l4 53l8 49l-12 27l49 -16zM444 1167l-6 19l27 10l-4 -33l12 -26v-33l-12 -27l-19 41zM178 1384l37 -16l14 43l-14 21l14 20l-45 -29zM100 1255l-22 5 l-15 28l19 17h37l10 -29zM334 154l-6 39l-31 -5l-29 -57zM461 1264v-9l-4 -22l-19 22l13 27l53 12l-35 -34zM752 1188l2 -25h39l-11 29zM621 1255l22 23l23 -2l-17 -25zM266 385l13 -14l-13 41l-18 -13zM782 1022v12l-24 -10zM270 1438l4 -11l11 5l-4 8zM801 1028v-10h10v10 h-10zM618 1384l-20 13v-11zM225 909v9h-6v-9h6z" />
<glyph unicode="q" horiz-adv-x="1058" d="M954 31l-6 -23l-2 -67l-4 -58l-18 -51l-33 -96l-23 -33l-28 -27l-31 -14l-45 -4l-107 -4l-90 27l-18 12l-14 24l-9 27l-26 88l-15 43v35l37 18l-18 19l-23 -13l19 50l-29 12l-12 27h-45l-25 14h-22l-56 14l-22 17l-23 -5l-20 19l-47 57l-56 43l-6 23l-43 59l-6 35l62 35 l-19 20v15l-25 55l-4 37l-14 18l-6 35v31l-6 28l-13 27v59l-10 23l10 27l-6 30l-4 125l4 29l6 143l9 72l16 27l31 116l16 60l23 28l10 31l39 41l82 59l45 15l18 12l45 8l43 2h82l8 -10l35 -2l19 -29l6 23l45 -29l-12 -20l49 -47l8 37l49 -52l16 -30l27 -33l10 -15l39 -8 l17 -14l36 -68l29 -71l-29 4l-28 59l-33 15l-6 24l-41 -35l-21 -30l-6 -41l-8 -7l-18 -30l26 16l43 37h45l4 -23l19 -55v-43l-19 -12l-32 -39l-31 8l-2 -26l-21 -9l-22 -28l-33 -19h-18l-29 -41l70 29l63 -10l25 14l-2 27l32 32l25 9l6 -56l-2 -32l-4 -54l6 -47l-6 -55 l-2 -70l-8 -33v-26l-15 -14l9 -31l-4 -35l-19 -27l10 -22l-8 -35l-16 -29l-19 -39l-2 -26l-18 -39l-25 -31h-22l10 -20l-37 -43l-26 -56l-29 -6l-14 -8l-9 -35l4 -37l-41 -22l-32 -33l22 8l21 -10l35 10l41 -82l38 23l-14 14l-18 64l18 49l8 -47l11 -19l4 -55l30 6l2 80 l23 55l12 39l8 6l29 37l31 -6l-17 -26v-37l29 -39l-2 -97l-14 -55l-19 -78l-20 -45h-6v-8l-31 -24l-41 -31l-23 -43l91 28l26 21l21 39l2 14l14 8l8 27l12 25l19 73l12 17v67l13 56l24 4zM270 604l-18 -16l24 -15l31 15l-4 -74l14 -72l43 7l19 18l33 18l51 -18l26 -4l54 -37 l22 -27l-10 -63l35 14l26 19l70 -9l4 29l-88 21l10 22l9 68v133l-5 8l7 45v43l8 47l-10 21l10 28l-6 43l-4 66v113l-9 79v62l-14 24l-14 95l-17 14l31 35l-43 22l6 -57l-35 4l-59 -25l-23 -16l-24 4l29 19v22l32 27l25 10l-43 27h-25l-26 6l-39 -33l-31 -29l-8 -41l-17 -18 l-4 -76l-6 -33l-12 -104l4 -104l-14 -37l8 -37l-8 -23l4 -22l-4 -72l14 -22l-18 -37l18 -9l4 -59zM512 287l-2 37l-6 28l-29 35l-31 14l-53 -12l-14 -18l53 -140l23 -8l47 21zM963 623v-23l-11 -63l2 -21l-22 -74l-4 -71l-15 -19l-10 -69l-35 -64l-24 12l18 78l10 19l15 55 l4 37l14 29l13 67l4 49l8 53zM477 63l17 41l-41 23l22 18l-24 -6l-17 -20l-55 16l-53 19l-60 28l-22 31l-41 23l30 -58l43 -39l78 -53l62 -12l18 -17zM911 991l11 10h18l8 -59l15 -92l2 -68l2 -71l-37 -25l6 23l-6 112l6 45l-12 21l-2 28l-13 46zM379 946l-8 90l8 25l6 63 v37l10 21l4 41l21 -6l-12 -144v-53l-11 -41v-41zM403 182l41 -6l37 10l-49 11zM885 1083l26 13l11 -17l-29 -14zM623 1071v-14l41 -15l-25 29h-16zM143 358l37 19l-43 4zM653 473l-14 -24l43 24h-29zM522 -47l8 31h-8v-31zM745 1260v-17l9 17h-9z" />
<glyph unicode="r" horiz-adv-x="1216" d="M637 432l2 21l4 65l-6 31l6 20l4 49l-18 64l-19 23l-6 32l-31 37l-16 12l-33 5l-26 -11l-37 19l-53 12l-11 -35l-2 -49l-16 -25l18 -57l-8 -27l2 -38l15 -60l-11 -35l2 -41h4l-6 -69l11 -94l32 -27l31 27l10 28l17 -18l2 -29l16 -22l2 -33l8 -25l-18 -55l-39 -10l-39 10 l-59 -6l-47 2l-21 -6l-57 6l-43 -2h-90l-23 29l-8 75l24 6l5 19l69 12l29 29l-14 18l2 53l-7 37v93l5 96l-7 26v72l7 45l-5 49l7 103l-17 24v35l17 33l20 24l-29 15l11 18h28l27 33v27l33 -2l26 34l47 45l-30 13l-4 51l-13 -29l-47 -41l-35 -39h-24l-23 -18v98l-18 51l-27 5 l-51 22l2 37l35 -6l24 -17l31 11l-12 59h-41l-62 27l-10 37l-2 47l37 28l49 -8l27 4l22 -4l45 4l140 -4l24 -8l11 -29l-5 -8l-18 -31l29 -16l6 -33l-21 -12l-2 -55l-20 -23l20 -8v-86l6 -64l-4 -55l11 -90l-7 -53l17 -25l65 25l31 -13l59 7l21 6l57 43l15 112v80l6 27 l-17 49l-26 37l-29 22l29 19l-41 45l-64 12l-39 -4l-6 35l45 8l-22 23l22 6l49 28l21 -8l12 23l47 -15l80 -28l23 -29l51 -25l22 -20l82 -53l19 -17l18 -32l-4 -50l12 -22l5 -41l-27 -2l-19 55l-14 25l-27 82l-26 14l22 -106l-4 -27l6 -55l-6 -66l-32 -92l-19 -23l-39 -30 l-12 -21l-39 -37l-51 -22l14 -23l19 -18l45 -25l32 -61l27 -41l6 -23l19 -63l2 -41l-4 -41l10 -43v-41l4 -92l-4 -43l8 -15l59 -14l19 55l-4 37l2 58l-6 37l8 18v33h4l14 18h60l22 -18l4 -8v-86l-10 -115l-12 -33l4 -29l-53 -86l-23 -20l-37 -2l-6 -8l-72 -9l-61 9l-35 32 l-27 9l-40 63l-15 72l23 6l8 22l31 37l-17 13l-18 -17l-27 4v35zM1130 371l-4 -17v-26l-10 -19l-8 -49l-4 -88l-10 -20v-19l-27 -24l-41 -52l-78 -51l-82 -8l-102 4l-49 10l-27 23l-26 2l-23 49l35 -6l51 -23l51 -14l43 -4l70 4l59 18l68 41l43 111l18 68l-2 28l39 17 l-12 36l-19 19l-4 41l4 37l-6 26l39 7l-2 22l16 -14l-6 -47zM635 113l-17 -64v-6l-18 -35l-65 4l-29 4v-4l-70 -10l-49 4l-76 6l-47 -4h-108l-27 -8l-37 20l6 33h62l88 -4l63 -4l39 8l21 -4h53l59 -6h78l21 14l6 76l-4 31l8 61h6l18 -43l2 -43zM944 1118l12 -10l7 -8v-45 l-7 -39l-16 -25l-2 -28l-12 -35l-33 -27l-27 -51l-37 -14l19 -45l26 -37l64 -76l18 -68l19 -6l-23 -35l-18 23l-12 43l-33 65h-15l-12 21l-67 65l-7 25l64 66l18 43l37 45l4 53l11 35l-2 24zM461 1024l-4 35l4 55l6 82l-10 23l4 30l26 51l23 -4l33 11l39 -13l-25 -24l-29 8 l-18 -12l-12 -19l8 -24l-8 -56l8 -41l-10 -39v-55l-9 -51l-12 -8zM496 719l10 -19l-19 -22l11 -96v-56l-23 -77l-8 18l-2 43l-2 74l10 92l-4 26zM479 418l17 -49l-21 -43l-10 55zM319 1313l21 10l-47 8l-8 -20zM272 1348h29l-16 18h-6zM569 702l-26 11l10 18zM428 1446 l21 -6l-29 -21zM379 315l-4 -20h20zM707 440v13l-23 -13h23zM1016 279l2 18h-12zM709 496l-39 -19l20 4z" />
<glyph unicode="s" horiz-adv-x="958" d="M61 479l5 84l-3 21l27 41l68 6l41 -2l16 -33l29 -133l14 -19l16 -36l21 -25l16 -37l49 -43l29 -16l21 4l4 -23l20 -4l115 31l29 33l18 -15l2 -26l23 22l-37 37l6 45l-4 4l-6 37l4 29l-11 20v41l25 6l23 13h-25l-29 14l-12 23l-2 -31l-27 8l-14 37l4 39l14 20l-12 23 l-55 4l-33 -16l-59 40l-54 31l-10 23l-49 37l-41 12l-20 20l-21 31l-78 90l-18 72l-8 12l-9 31l-12 47v104l15 35l22 82l25 60l22 10l39 49l66 45l18 -8l23 16l47 8l123 -16l38 -29l35 -20l19 -23l20 -4l23 -33l12 39v21l10 31l15 18l53 -8l33 8l18 -10v-17h4l4 -10l6 -57 l9 -51l-11 -64l6 -123l-4 -78l-18 -28l-66 -6l-22 20h-21l-20 45l-8 31l-31 96l-18 21l-31 53l-25 24l-47 13l-26 -15l-31 -4l14 51h-51l-37 -18l-37 -29l-14 -45l-8 -43l2 -47l8 -51l31 -41l10 -20l37 -29l30 -33l19 -10l45 -39l51 -45l23 -6l24 -31l70 -41l45 -41l47 -59 l37 -37v-8l4 -15l33 -67l8 -37h4l12 -45v-51l-6 -33v-72l-24 -88l-15 -24l-20 -33l-43 -51l-72 -60l-41 -4l-22 -14h-29l-23 10l-32 -8l-54 16l-30 4l-41 15l-6 10l-41 22l-11 31l-10 8l-31 19l-18 -19l6 -39l-24 -51l-21 -8l-20 12l-68 -8l-25 59l9 41v48l-6 43l6 47l-2 20 l2 62zM872 436v-35l-14 -26l-2 -39l-12 -39l-27 -88l-51 -49l-27 -62l-63 -53l-23 -6l-22 -19l-41 -12l-68 -4l-22 -10l-37 8l-47 -2l-31 4v4l-31 6l-59 4l-66 -14l-22 8l-23 -8l-78 -8l-26 18l-19 6l39 35l31 -4l41 4l27 -4l45 4l30 35l43 -22l41 -23l64 -4l78 -8l22 6h21 l65 18l31 17l33 35l26 10l43 49l50 86l26 78l14 69v37l13 43l-17 45l4 25l-10 22l-8 64l-10 14l-19 41l25 4l12 -45l25 -41v-45l12 -49l-4 -24zM719 979l26 8l52 14l6 60v145l-2 84l16 25l-20 14l20 55l-16 21l-6 57l14 27h18v-55l11 -50l-7 -65l7 -27l-2 -92l8 -90v-72 l-23 -69l-43 -8h-43zM672 860l-4 4l-15 4l-18 17l-57 30l-35 41l2 23l41 -8l49 -47zM463 705l8 24l-20 29l2 20l-31 -8l10 -25l-24 -40h55zM354 1110v4l-2 41l39 -35l6 -24zM299 528l23 -18l8 -61l-19 32l-18 19zM221 1366l19 18l-29 41l-12 -18zM109 354v-14l53 -4l-37 24z M745 793l3 -17l-35 37h26zM504 993l-33 49l37 -36zM467 848l4 16l-27 2zM295 596l8 -23h-18zM162 485l-6 -12l18 -12zM348 1489l10 -12v12h-10z" />
<glyph unicode="t" horiz-adv-x="1038" d="M829 1460l5 -8l-11 -53v-70l6 -39v-256l-10 -78l-55 -16l-53 6l-37 12l-4 48l-15 28l9 19l6 41v36l-11 17l-6 59l2 80l9 31l-23 41l-23 12l-53 -6l-18 -29l8 -37l-8 -63l8 -55l-10 -72l2 -35v-125l8 -20l-4 -54l6 -43l-6 -73l6 -111l-6 -10l-4 -47l10 -84l-8 -64l6 -53 l-4 -20l4 -23l6 -86l68 10l-6 131l6 50l-4 24l4 76l-6 59v52l12 22l-6 45l-4 96l10 17l41 4l39 -4l-41 -31l-4 -47l-6 -29l2 -20v-72l4 -37l-4 -84l-13 -22l11 -45l-5 -78l5 -53l-9 -25l37 -72l-14 -86l-82 -12l-76 6l-33 -10l-36 6l-33 -8l-33 6l-51 -4l-25 4l-45 -14 l-37 14l-16 27v22l-12 31l6 22l49 21l86 27v69l10 -18l4 24l27 6l2 27h-45l4 74h4l-4 20v109l-8 49l4 57l-6 29l10 41l-6 33l-12 32l10 33l8 84l-14 31l6 41v100l12 80l-8 29l4 33l-4 34v52l-53 41l-25 -13l-24 -51l2 -35l-9 -47l7 -102l-7 -92l7 -84l-27 -25l-35 -2l-33 4 l-26 -10l-33 2l-23 49l4 100l-4 37l-4 68l8 20l-4 64v45l9 53l-13 51l8 19l-4 49l41 18l21 -10h184l53 -2h84l9 -4l47 4l26 -4l105 6l80 -2l51 8l28 -6v-27zM797 94l2 -57l-25 -37h-41l-69 8h-48l-90 2l-24 8l-78 -8l-31 4l-53 -12h-39l-22 6l-56 -4l-14 51l20 13h86l19 -9 h49l68 -8l22 6l82 -12l31 6l104 4l37 8l23 60l2 31l-7 45l15 34l26 -2l2 -53l9 -22v-62zM950 967l-2 -29l-6 -39l6 -37l-33 -41l-41 -2v37l33 23l4 18l-6 25l6 36l-10 107l4 45l-4 33l10 28l-10 105l6 27l-6 30l12 25l-12 22l-6 60l16 55l31 -4l2 -31v-43l-2 -90l-8 -47 l4 -111l4 -22l2 -53l-2 -93zM211 819h-41l-43 -6l-35 2l-24 16l43 29l20 -4l21 4l75 -8l19 8l73 -18l-16 -13zM63 1333l48 -22l-25 41zM707 20v7l-17 -17z" />
<glyph unicode="u" horiz-adv-x="1161" d="M1071 1403v-51l-4 -27l-8 -41l-37 -16h-23l-18 -15l-4 -24l-2 -82l6 -68v-78l4 -86v-167l8 -23l-8 -23v-36l4 -15l-4 -41l-2 -53l2 -57v-62l10 -49l-2 -37l-4 -43l-26 -71l-5 -23l-30 -41l-70 -86l-51 -31l-23 19l4 -31l-49 -18l-123 -25l-88 -2l-53 18l-22 -4l-21 15 l-72 30l-73 37l-17 27l-55 63l-27 56l-4 26l27 31l-18 49l-3 25l-10 22l10 43l-10 31l10 68l7 16l-4 37l-15 121l6 24l-4 43l8 25l5 45l-3 51l-6 25l-4 55l23 41l-4 -43l30 10l11 29l4 37h4v55l-33 -25l-35 -4l4 60l-4 51l45 -6l19 28l-6 25l28 6l19 25l14 39l-18 18l-23 37 l16 22l-34 46l-29 -19l-18 -4l-31 6l18 -18l31 -15l37 9l-19 -25l-57 -10l-18 10l-33 -4l-37 2l-16 27l-13 32l11 68l34 10l60 -4l41 -4l65 4l41 -10l33 10l25 -4l49 4l53 4l39 -18l6 -74l-14 -33h-64v-4l-31 -12l-10 -19l-8 -63l-18 -21l30 -65l6 -43v-39l-6 -18l6 -37 v-101l-8 -14l8 -127v-63l5 -82l-5 -37l9 -82v-82l2 -70l12 -39l35 -92l47 4l12 15l55 -41h15l4 -9l49 13l59 47l9 16l2 37l22 70l4 76l-8 26l4 55l4 134l-8 90v90l-8 55l4 82l12 20l-16 29l-2 53v58l8 24l-20 45l-41 4l-66 -8l-67 -2l-19 8l-27 -16l17 -8l-8 -23l6 -24v-342 l8 -60l-4 -57l4 -39l-6 -68l10 -34l-4 -29l4 -90l6 -33l-6 -43l4 -35l-31 -16l-2 35l-18 100l2 27l-4 41l8 110l-6 47l-4 41l10 90l-12 64l4 74l-6 100l6 41l-6 33l14 71l-4 54l23 -4v22l30 -4l60 12l39 -2l94 6l4 52l-31 22l-51 6l-41 76l18 39l19 8v4l41 -4l29 8l65 -4h74 l51 10l57 -4l13 -18l-2 -55l-27 -56l-64 -4l-53 -30l19 -37l20 12l4 -43l-4 -43l8 -47l-4 -27l4 -63l6 -23l-6 -22v-111l-12 -61l14 -19v-102l-6 -39l12 -25l5 -67v-111l-11 -104l-10 -17l10 -28l-30 -101l-39 -55l-23 -41l-35 -16l-20 -15l-37 -6l-49 -16l-23 6l-32 -6 l-60 -8l-57 2l-37 10l-47 14l-25 19l-49 26l12 -35l35 -22l13 -21l86 -34l20 6l37 -25l104 -4l78 10l51 17l66 37l51 39l33 73l16 15l27 96l2 37l10 53v78l6 30l-6 64v74l-12 100l6 41l-4 74l4 2l-6 71v105l6 47l-4 78l4 12l8 76h23l-6 22l34 9l31 20l-8 27v37l-37 69l10 29 l17 20h32l33 -61zM141 1276l2 -21l-18 -2l-55 9l-4 28l26 8l43 -2zM739 365l-8 -13l23 -16l-6 -21l34 -10v64l-34 2zM694 197l17 -19l20 15l-18 12l26 4l9 43l-35 -2l-2 -41zM188 1221l-10 22l25 -6zM840 379v-6h8v6h-8z" />
<glyph unicode="v" horiz-adv-x="1167" d="M496 115l-19 4l-26 55l-11 35v33l-12 28l-14 58l2 37l-4 36l-21 41l-10 74l-35 131l-6 51l-2 27h-4l-2 23l-19 49l-12 51v20l-14 29l4 33l-12 28v31l-19 37l-4 27l-8 59l-19 49l-2 60l-26 28h-37l-41 -10l-8 -4l-41 22l8 39l45 -6h49l17 19v37l-29 18l-74 2l-37 23l6 81 l9 11l96 14l72 2l61 -8h78l24 6h56l51 -10l4 -60l-12 -51l-66 2l-31 -22l5 -37l18 -51l8 -78l4 -23l23 -75l2 -35l22 -80l13 -86l18 -33v-31l10 -69l4 -33h4l15 -31l14 -100l21 -49l18 90l-4 65l2 72l25 -6l10 49l4 47l14 29l4 53l-4 29l21 78l18 90v63l17 45l-27 10l-33 -8 l-65 8l-13 9l-6 -4l-53 -25l-4 -47l-19 72l11 18l12 4l33 2l26 -10l78 14l31 -6h49l-6 -31l41 -28l8 78h-55l6 51l-21 22l-26 -6l-60 51l23 70l47 12l31 -8h80l71 2l27 -20l18 -29l13 22l-11 25l33 2l25 -18l-4 -72l-23 -41l-59 4l-29 -63v-17l-8 -22l4 -33l-14 -29l-15 -61 v-19h-4l-4 -51l-18 -59l-35 18l31 -47v-39l-11 -39l-18 -43v-28l4 -4l-8 -37l-4 -37l-17 -64l4 -30l-14 -19l-4 -57l-18 -55v-33l-11 -21l4 -26l-12 -27l-18 -109l-17 -77l-6 -64l-33 -53l-75 -2zM1071 1462l4 -26v-52l-4 -59l-6 -39l-18 -18l-13 -6l-78 -9l-18 -18l-18 -35 l10 -43h-37l27 -31l-13 -36l-6 -46l-12 -20l4 -35l-8 -24l-2 -39l-13 -29l-32 2l14 68l-4 26l12 31l-4 43l10 35h4l9 45l22 55l-4 41l27 37l67 12l29 19l-10 47l2 49l-6 25l4 30l10 29l27 6zM768 391l2 -8l-6 -37v-37l-8 -39l-19 -110l-8 -23v-49l-8 -18l-2 -33l-10 -27 l-74 -6l-74 -4l-69 -4l-15 31v30l49 2l56 -4l55 4l33 15l12 22l2 54h4l2 22l17 29l-5 22h5l4 33l8 18l8 56l12 16l4 41zM811 729l18 -4l-2 -96l-20 -41v-41l-10 -47l-4 -6v-21l-37 2l12 31l10 82l2 59l21 33l-2 31zM817 815l6 14l33 -26l-8 -33l-37 -4zM762 1325l37 -27 l6 31l-62 23l-10 -6zM545 1038l-21 11l8 26zM575 483l-12 -18l21 -2zM582 807l-7 49h9z" />
<glyph unicode="w" horiz-adv-x="1529" d="M907 121l-55 14l-10 27l-23 133l-20 53l2 51l-8 45h-5l-36 164l-7 4v23l-12 41l4 20l-14 37v62l-16 28h-19v68h27l41 -8l37 -29l-11 -18l-26 28l-25 -18l21 -6l18 -13l-10 -28l33 -13l59 45v19l27 22l-13 15h-39l-26 -15l-41 29l-29 4l-29 27l-51 6l-33 -51l-30 8l10 51 l-2 35l18 25l11 49l-9 22l13 66l30 45l-6 39l-12 37l-23 2l-18 8h-33l-30 -10l-19 -27l-10 -49l-21 39l5 61l26 6l135 29v51l-84 23l11 37l-19 6v39l39 26l59 -8l25 4l59 -4h70l66 -4l14 -18l-19 -91l-59 -18l-14 -10l18 -119v-33l37 -133l10 -18l-2 -37l23 -55l8 -78 l10 -19l15 -65l4 -41l-13 -43l37 -19l17 78l20 68l19 119l6 81l24 117l6 74l-24 41l35 31l8 30v31l-27 8l-45 37l-12 78l47 16l39 -10l49 2l47 -4h66l94 -4l12 -47l-18 -68l-47 -12l-21 6l-37 -27l-6 -41l-12 -36v-37l-14 -23l-9 -78l-4 -2l-10 -71l-12 -78l-6 -10l-5 -41 l-10 -29l-12 -76l-8 -10l-19 -96l-10 -97l-22 -79v-33l-9 -31l-18 -65l-2 -31l-6 -74l-11 -49l-16 -90l-35 -43h-43zM567 139l-28 -18l-50 -8h-38l-19 26l-18 47l-8 86l-7 45l-16 41v43l-6 43l4 33l-8 19l-15 55l88 57l-18 51l-41 -28l-37 69l-26 19l51 35l20 8l29 -4l22 10 l-10 -18l-18 -11l33 -16l10 31l-6 2l32 18l2 -24l21 -11l47 -49l39 33l27 -8l-37 -33l20 -16h41l17 24l-9 25l23 4l-8 -23l-6 -69l-17 -82l-12 -31l-19 -102l-6 -58l-63 -8l31 -33l-9 27l37 -6v-27l-18 -76v-30l-27 10l25 -41zM338 1106l-37 27h-35l-28 12l26 14l-33 29 l5 26l-43 41l-33 2l-56 -6l-26 19l-10 37l41 6h71l21 16l-15 39l-28 14l-33 -6l-62 10l-6 48l6 61l29 6l76 10l80 -6l12 -8h27l106 8l35 -4l55 -26v-37l-6 -52l-67 -24l22 -80v-27l19 -57l-11 -20l33 -95l4 -36l-37 -33l-16 2l-29 18l-2 39l25 -8h14l-31 31l-20 -6z M1440 1372l-2 -57l-17 -49l-51 -11l-4 9h-37l-35 -23l-12 -67v-37l-25 -90l-22 -97l-10 -24v-25l-8 -72l-25 -120l-4 -50l-14 -65l-9 -37l-14 -76l-14 -96l-17 -51l8 -39l-8 -19l-24 -104l-2 -22l-17 -17l13 -16l-15 -37l-16 -55l-25 -13l-33 -4l-28 8l-49 -10l-31 6l-19 15 l3 22l6 8l30 2l52 -6l39 4l28 60l6 78l37 118l4 41l8 17v35l19 65l14 78l10 29l17 106l14 53l4 33l11 29l-2 28l14 52l4 34l10 19l8 72l25 124l8 21v20l14 31l-4 23l23 59l22 12l62 13l14 102l29 68l22 -2l9 -37v-37zM719 600h8l14 -39l-14 -41l-25 -102l9 -49l-11 -52 l-10 -18l6 -20l-8 -58l-14 -63l-2 -66l-6 -35l-15 -37l-73 -8l-17 56l25 4l24 14l15 59l20 54v41l10 32l27 -6l-23 31l7 37l26 90l4 102l6 43zM788 684l35 -14l41 6l19 47l-33 2l-23 8l39 8l-14 21l-74 6l23 -12l-15 -29l7 -22zM547 1100l4 -47l10 -39l-4 -35l-18 20l-29 84 l4 45l18 13zM500 920l2 -29l12 -49h4l2 -37l-37 45h-32v37l18 37zM506 76l20 -8l-18 -23l2 -29h-41l-18 11l-11 18l15 39zM586 827l-4 27l28 10l6 -18zM930 1063l4 29l14 -39l-6 -39zM911 1149l-10 14l6 33l17 -47l2 -25zM322 1288l-21 -22l18 -19l5 19zM985 1282l-12 -12 l-19 18h37l19 -14zM381 831h-25l17 23l14 -8zM905 799l-39 -13h27zM606 1460l10 8l-24 9zM811 618l-2 11h-8v-13zM526 520l2 -10l11 4l-2 8zM930 666v-7h4v7h-4z" />
<glyph unicode="x" horiz-adv-x="1300" d="M440 1319l-6 -31l-43 -24l8 -82l19 18l20 8v-26l-22 -13l33 -6l20 -12l20 -21l27 -16l14 -49l5 57l26 -45l10 -33l25 7l-6 -41l18 -13l25 -49h47l-21 -43l21 -74l29 -49l10 -26l26 -72l37 -76l33 -76l16 -18l37 -70l13 -45l18 -30l29 -70l8 -20l47 -31l25 41l-31 45 l-31 59v15l-28 26l-31 84l-19 31l-14 45l-8 4l-15 20l-16 48l-18 28l-33 64l-4 22l-33 56l2 34l21 58l36 78l17 22v23l31 32l16 47l33 25l35 78v14l43 45l34 4l78 54l4 22l4 60v43l19 12l28 -8l9 -64l4 -115l-13 -32l-84 -11l-24 11l-55 -31l-4 -18l-15 -19l-10 -37l-25 -26 l-6 -37l-18 -8l-15 -29l-4 -27l-22 -20l-33 -62l-37 -63l-4 -37l19 -55l14 -23h4l6 -22l29 -33l24 -53l43 -101l2 -18l23 -31l14 -35l31 -39l8 -26l43 -109l49 -78l-4 -104l-30 -6l-25 4l-18 -4l-46 -4l-120 4l-93 -4l-26 8l-88 -4l-33 31l4 77l25 11l37 2l49 12l-4 31 l-35 88l-39 71l-23 60l2 22l9 -18l10 22l-17 21l7 29l-25 -5l-12 19l-23 -2l-10 39l-59 16l14 -35l8 -4l-29 -37l-30 -77l-43 -31l-37 14l-17 23l-16 -47l-31 -27l-10 -27l45 27l29 -14l45 24l-6 -28l-25 -39l-6 -31l-49 -8l18 -45l8 -37l27 4l21 -29l47 -16l-4 24l10 21 l18 -29l-4 -24l8 -37l-16 -31l-43 -6l-23 -8l-32 4l-78 -4l-60 4l7 29l-45 -35l-9 30l-36 7l-56 22l4 -16l-35 -25l-10 37l4 18l19 70h100l27 31l4 28l20 27l31 55l35 -4l-23 35l33 72l4 20l23 19l18 45l37 61l10 43l19 10l2 25l28 31v75l-12 23l-6 23l-35 59l-6 2l-4 12 l-21 47l-10 19l-2 6l-8 33l-23 26l-10 43l-18 25l-8 31l-23 34l-29 62l17 37l24 -6l-12 30h-41l-18 13l-9 18l-84 10l-43 23v49l7 25l43 30l43 -10l88 -2h96l86 2l61 4l66 -20l-8 -74l-33 -8l-72 -41l4 -21zM633 1423l2 11l-4 22l18 43l41 2l76 -8l65 6l19 -6l61 6l99 -8 l10 -31l-10 -78l-99 2l11 -16l-17 -4l-51 -90l-41 -82l-31 -33l-22 -41l-41 43l-60 8l17 31l14 -18l31 -6l16 20l-20 4l10 14l4 27l-14 19l24 28l7 25l24 2l23 16l-27 17l37 8l-19 16l-26 -6l-33 16l-37 21l-8 12zM1202 80v-41l-6 -19l-14 -18l-90 10l-52 -4l-26 4l-53 -4 l-97 -2l-28 6l-21 -4h-194l-41 8l-39 -10l-56 2l-28 8h-62l-88 9l-31 -17l-61 -6l-41 4l-43 10l-22 -8l-46 8l19 41h49l23 19l82 -19l53 -10l22 -8l43 14h140l108 -6l29 6l55 -4l23 4l51 -6l35 6l36 -10l46 6l96 8h151l29 29l-8 45l8 27l2 41l-4 26l31 17l20 -11l4 -55 l-6 -33l8 -41zM88 1264l-16 24l18 23l100 -17l-22 -34zM709 1006l4 10l-15 16l-30 -10l-9 -18l-24 12l24 57h9l22 -22l37 -11zM444 1047l-10 30l-31 -14l-26 -23l12 -36h6zM582 676v-10l34 -25l-6 29zM545 1296l10 -39l-33 17zM645 1294l29 4l35 -4l-33 -12zM809 1356v-21 l45 2zM893 1403l-29 6l19 -25v-16zM438 631l-6 -15l6 -6l21 8zM776 297l-39 -18h23zM535 705l-19 -3l14 -20zM348 1247l10 13h-26zM690 1237l4 14l19 -14h-23zM776 1464v-8l8 8h-8z" />
<glyph unicode="y" horiz-adv-x="1222" d="M1128 1391v-25l5 -23l-9 -28l-24 -23l-49 -18l-72 -55l-18 -82l-33 -115l-8 -12l-41 -103l-33 -76l-12 -12l-33 -94l-4 -49l4 -98l-8 -23v-92l-7 -23v-123l-4 -22l19 -53v-92l-64 -27l-43 -6l-24 6l-56 -6l-84 -4l-16 8l-33 2l-35 -10l-40 10l-52 -19l-45 23l-8 23l8 86 l35 6l88 16l19 31v20l-11 27l6 49l-12 55l6 56l-6 24l29 21l24 -23l2 -26l19 18l-12 22l-23 19l10 22l-2 25l-28 10l18 45l-6 33l24 47l-8 12l-22 13l-13 24l-2 -28l-30 2l-11 39l3 41l16 22l-12 21h-43l-13 28l-14 54l4 20l-27 23l-10 36l-22 41l-9 37l-45 101l-18 18 l-4 37l-33 -4l-57 8h-33l-2 27h20l86 24l-28 37l-99 20l-4 7l-2 32l6 52l23 20l64 4l26 -8l60 4l73 8l53 -10l37 6l27 -6l20 6l46 -4l53 -18l-4 -35l-35 -60l-62 -2l-30 -8l14 -31l6 -28l17 -49l26 -56l23 -84l26 -39v-28l19 -35l6 -33l22 -49l25 -18l29 41l18 69l12 19 l33 96l10 14v29l19 22l8 27l-27 37l-59 4l10 23l84 10l19 26l2 33l-25 4l-22 -4l-56 35l-4 45l15 39l6 2l71 10l52 -8l30 8l23 -8l22 4l23 -4l27 8l92 -10l8 -37l-4 -57l-17 -27l-47 -2l-22 6l-27 -41l-10 -32l-41 -86l-31 -50l8 -26l-12 -25l-6 -31l-27 -55l-6 -37 l-53 -108l-14 -15v-22l-13 -19l-2 -49l-35 -80v-26l11 -29l-2 -53l-4 -150l4 -22l-4 -78l8 -22l4 -54l61 4l8 13v32l-8 78l8 35l-4 10v41l-4 101l4 22l-4 31v59l13 56l14 18l10 45l17 18l51 130l4 36l33 72l16 55l25 50l12 49l16 14l2 47l88 39l35 37l-2 35l-2 82l14 16h31 l19 -25l-7 -34zM946 225l-4 -49v-31l4 -84l-8 -49l-18 -14l-80 8l-58 -4l-59 6l-16 8l-31 -10l-25 6l-37 -10l-24 6l-78 -2h-113l-71 -4l-25 35l41 31h14l19 -11h78l26 -20l19 20h88l39 9l26 -9h52l26 -4l103 4l53 15l14 63l-8 23l8 71zM563 1137l-4 14l8 29l19 -13l4 -30 h-27zM821 1495l-2 -20l37 -23l-29 43h-6zM358 1053l4 16l-26 2zM598 1087l-12 21l22 -2zM856 1300l-10 13v-13h10zM840 1247l-17 19h-2z" />
<glyph unicode="z" horiz-adv-x="1040" d="M80 115l-14 26l-7 43l2 68l-4 31l25 43l18 12l21 33l37 86l22 45l37 55l41 72l74 141l12 8l35 90l6 6l-4 41l-31 -12l-84 -14l-2 4l-47 4l-41 -8l-14 4l-27 -4l-35 18l6 37l37 8l68 -37l33 9l-19 12h-16l49 4l23 -10l45 12l41 47l22 -37l29 -28l28 47l-18 12l41 70l8 22 l8 6l23 41l27 78l18 25l-12 65l-19 -10l-47 10l-31 -4l-49 -14l-14 -10l-4 -72l8 -37l-8 -27l-4 -47l-25 29l2 76l12 47l-14 26v23l47 12l-37 11l56 18l43 -8l57 8l27 -10l49 20l14 21l-74 28l-30 -14l-47 6l-25 -6l-18 18l12 37l-37 15l-31 -15l-6 -18l-26 -12l-39 4l8 -25 l-33 2l-14 19l-19 45l-32 -27v-18l-21 -9l-10 -20l28 -39l-6 -33l15 -4l53 19l-12 -37l12 -47l31 -23l8 -63l-10 -41l8 -23l-13 -70l-32 -22l-33 6h-49l-64 35v121l4 35l-4 18l2 33v94l-6 31l8 28l-4 45l21 78h55l21 4l22 -8l86 -4h70l22 4l21 -4l59 4l31 -4h117l90 8 l127 -8l34 -37l48 37l26 -18l-6 -86l6 -25v-35l-6 -20l-2 -43l-18 -25l-31 -61l-29 -41v-25l-41 -78l-8 -30l-20 -23l-9 -33l-20 -28l-14 -35l-41 -74l-23 -24l-10 -25l-17 -23l-10 -22l-14 22l10 52l4 2l19 37l22 43l37 77l49 99l15 18l4 27l10 24l29 49h4l8 15l31 69 l24 43l-18 68l8 23l-14 51l-15 -23l-6 -90l-22 -4v-25l-13 -34l-24 -45l-29 -25l-14 -47l-19 -39l-4 -29l-33 -49v-16l-47 -90l-35 -56l-26 -65l-10 -12l-21 -39l-41 -86l-29 -37l-4 -27l-16 -29l-2 -20l-33 -55l-39 -72l-16 -47l-25 -27l-10 -55l-14 -27l18 -18l33 -4 l-41 -25h55l27 33l22 -10l19 10h37l18 -8l53 4l64 -4l18 16l4 15l11 77v125l-9 21l5 26l4 68l37 47l77 -4l64 -23l4 -38l-4 -21l4 -55l-4 -49l4 -25l-6 -20l2 -62l-6 -22l4 -23l-6 -27l2 -47l-13 -26l-4 -70l-37 -4l-36 4l-23 -8l-57 2l-21 6l-78 -6l-22 -6l-23 4h-51 l-72 -8l-67 8l-33 10l-33 -18l-37 8l-24 -10l-78 6zM918 23l28 6l-37 -27l-32 8l-76 -4l-92 4l-23 6l-41 -2l-65 2l-31 -6l-60 6l-81 -6l-23 4l-41 -4l-68 4l-67 -8h-59l-80 23l-11 18l17 23l49 4l14 -15l33 4l27 -4l34 4l70 -6l156 6h78l22 -6h74l37 6l20 -4l45 -4h60l36 4 l25 -8l21 8l16 -22l29 20zM954 535v-35l-6 -17l-12 -90l10 -20l-4 -94l6 -21v-92l-12 -29l-41 4v133l6 19v104l-8 31l-2 55l2 95l25 61l12 -6l-8 -6l24 -66zM481 979l-12 -39h104l35 -18l-26 32l-9 23l-24 8l-31 -6h-37zM555 530h-18v37l12 29l33 -6l-19 -51zM571 911 l-10 11l-31 4l-8 -23l-14 -16l16 -17l29 29zM299 1409l8 49l-37 -8l-6 -10l12 -21zM522 463l-26 -19l16 35l2 23l-14 -15l4 23l33 10zM598 1032l-35 -16h29l22 14zM432 885l21 -29l6 25zM137 1391l6 26h-24zM418 279l26 14l-10 -25zM745 166l5 20l-23 -12zM481 424l15 -8 l-27 -13zM135 201l-18 -8l14 -15zM705 489l-5 -14l23 6zM444 156v10h-10v-10h10z" />
<glyph unicode="{" horiz-adv-x="634" d="M446 -164l-51 2l-37 17l-20 -7l-57 25l-23 16l18 -22l25 -49l-37 12l-10 18l-49 27l-10 49l-76 105l-19 43l-6 75l-8 11v86l14 32l4 35l33 51l6 27l13 14l2 27l16 14l8 31v27l21 65l6 68l-23 53l-32 21l-15 18l-80 10v80l54 10l41 19l51 80v37l6 53l-16 10l-13 25l-6 45 l-18 28l-23 72l-14 27l-19 51l-20 123l18 59v25l27 61l31 60l53 36l29 27h20l16 21l23 6l100 24l41 2l41 -8v-63l-47 -11l-67 -18l-50 -49l-14 -56l-33 -4l29 -82v-67l-78 -60l29 19l35 -2l41 -19l2 -57l20 -27v-18l-22 -18h28l15 -19v-41l8 -43l8 -6l2 -29l-2 -55l-8 -37 l4 -26l-4 -27l-29 -49l-22 -23l-66 -43l62 -45l18 -33l-18 -36l22 -27l33 -4l4 -55l-23 -54h-30l8 -45l49 31l-4 -47l-4 -68l-19 -8l-32 -117l-4 -34l-31 -72l-27 -41l27 -10v-21l-10 -16v-47l14 -21l6 39l16 -61l23 -35l22 -14h25l47 -19l47 -12v-51l-12 -21h-23zM428 850 l-10 -19l-15 -69l33 -35l33 -63l18 -119v-78l-4 -33l-2 -53l-35 -70l-28 -86l-23 -14l4 -43l-8 -47l-24 12l10 47l22 99v22l23 39h4l10 49l10 96l-2 68l-4 74l-53 104l-68 41l31 14l45 27zM580 1620l-7 -47l-30 -4l-47 -15l-41 -4l-49 -37l-7 -36l-14 -23l10 -86l15 -37 l8 -18l8 -35v-27l18 -28l-4 -41l11 -19l-15 -33l-4 7l-22 63l-4 51l-15 25l-4 33l-29 110l-4 76l13 16l2 21l22 22l37 25l102 35l13 47l2 55l28 -2zM559 -94l4 -39v-43l-14 -68h-6l-97 4l-73 27l33 2h83l35 8l2 86l6 23h27zM434 889l6 24l2 48l21 53l8 -25v-22l-20 -60z M319 621l-10 -31l27 -10l12 -37l2 73zM229 840l43 -4l13 16l-43 -2zM362 39l-4 10l29 -20l8 -37zM156 31l24 8l-30 31zM285 1638l14 -30l14 20zM264 1354l-33 18v-12zM446 1096h9v-37zM227 426l13 23h-11zM328 1069l-6 27h-9zM168 1292h12l-12 17v-17zM283 891l2 -8l10 4 l-4 8zM213 766l14 6h-14v-6zM283 535v4h-7v-4h7zM162 2v4h-6v-4h6z" />
<glyph unicode="|" horiz-adv-x="368" d="M90 -164l-24 -2l-13 39l8 51l5 66l-5 84l9 45l49 33l-19 14l6 35h-40v51l16 -14v-9l16 -8l23 39l-55 37l4 113l-17 41l10 49v90l-10 76l19 26l-4 37l8 31l-13 90l3 57l10 17v32l-10 21l10 24l-23 101l10 33l-2 100l11 18v27l37 8l41 2l-19 37l19 25l-87 -4l-10 14l10 27 l3 28l36 4l-12 15l-20 4l-4 63v82l6 45l-6 47l10 27l-6 22v62l41 10l61 -8l2 -92v-74l6 -72l8 -16l-12 -18v-123l4 -43l-8 -97v-125l4 -104l-4 -51l4 -70l-8 -61v-90l4 -31l-4 -57l4 -74l-6 -92l4 -45l-18 -49l-9 -21l7 -20l-21 -23l25 -14l14 -27l-18 -45l24 -6l-6 -53 v-312l-6 -49h-72zM289 1763l-13 -22l9 -21v-24l-4 -56l4 -45l-9 -63l5 -29v-53l-19 -80l-16 43l-10 45l4 27l-4 65l8 74l-8 29v135zM262 721l12 -27l-8 -47l4 -94v-53l4 -49l-4 -80l-24 -17l-6 31l-11 21v32l11 27l-7 104l-4 97l7 18v94l12 6v19l18 -8l-4 -29l14 -27z M270 -12l11 -11l-7 -45l2 -79l-10 -50l4 -47l-24 -20l-25 -8l-22 14l-33 12l-19 19l-16 -23l-2 -18l-35 32l25 11h31l57 4l20 20l6 78l7 23l-7 77zM229 27v86l15 90l-8 37l4 39l-7 22l25 29l8 -25l4 -61l-4 -58l8 -67l-4 -23l4 -30l2 -39l-14 -13zM270 1159l11 -14l-5 -60 l-6 -24h-22l-8 49v43l12 23l2 41l-10 20l-8 61l18 54l20 -49l-8 -113zM221 936v72l41 6l8 -62l-18 -22v-15l-8 -22h26l-22 -19l-15 -18l3 37zM131 1372v8h-6v-8h6z" />
<glyph unicode="}" horiz-adv-x="671" d="M266 -80l-33 6v-16h-8l-45 -19l-37 3l7 -19l-7 -20l-51 -2l-35 20l19 -2l22 20l-41 11v22l25 4l68 25h22l21 12l28 37l4 23l23 88l-8 20v35l-13 55l-16 62l-14 41l-37 86l-10 88l4 82l16 86l14 26l9 27l34 37l31 18l8 29l-55 35l-21 22l-28 49l-6 21l4 29l-6 38l2 88 l10 31l8 60l16 22l9 41l10 14v33l31 127v31l36 31l-32 16l-15 43l-14 66l-41 30l-63 15l-54 16v61l31 11l133 -19l53 -35l43 -18l41 -37l21 -8l33 -35l8 -43l18 -41v-24l6 -25l13 -23l-6 -41l-2 -36l-15 -56l-14 -16l-4 -37l-8 -18l-11 -19l-2 -22l-14 -15l-2 -26l-19 -27 l-6 -27l-32 -71l12 -49l2 -49l37 -50l24 -18l23 -4l59 -12v-80l-37 -9l-41 -2l-49 -49l-26 -10l8 -39v-37l-8 -53l16 -10l12 -25l25 -74l22 -71h-22l-27 -31l21 -12l24 6l33 -8l2 -27l19 -41l2 -41l-15 -131l-65 -121l-19 -12l-14 -18l-41 -33l-33 -17v31zM371 1661l-31 31 l57 -6l43 -29l11 -19l34 -24l31 -31l14 -29l19 -55l12 -61l-2 -60l-12 -32l-4 -35l-21 -23l8 -20l-12 -19l-10 -35l-10 -10v47l10 80l14 53l2 56l-18 22l-2 21l-6 12l-33 74l-16 26l-46 31zM547 125l-6 -23l-15 -82l-8 -45l-29 -22l-92 -105l-30 -2l-19 -22l-59 -27l-37 -4 l22 45h19l43 23l12 24l49 21l25 22l10 25l27 16l12 41l27 10l6 78l12 17l2 37l23 28zM537 840l41 -9v-69l6 -80l-25 -14l-53 -4l-43 -17l-25 -37l-4 -24l15 -58v-39l-19 13l-16 37l-11 43l-2 47l11 16l8 35l37 -16l-17 24l58 19l43 20v68zM233 -184v-29l-22 -6l-51 -10h-90 l-7 8l19 10h24v16l91 7l30 8zM463 397l-19 19l19 51l18 -23v-22zM293 1085l-17 -10l23 -31l23 3l-23 67zM342 303l-31 -4l-18 -23l51 -4l14 17zM412 924l4 12l16 -18l25 -41h-35zM430 1018h-14l6 41l29 22zM225 362l31 -12l2 21l-33 4v-13zM303 53l12 13l-30 -5v-14z M469 1126l-16 -12l4 31zM324 1419l2 -16l22 6zM412 981l8 -14l-8 -9v23z" />
<glyph unicode="~" horiz-adv-x="1400" d="M1116 733h-14l-29 -16h-37l-49 -47l-84 -4l-88 4l-51 14h-16l-58 21l-31 18l-28 6l-99 41l-75 8l-27 17l-84 -7l19 19v43l-7 39l-20 -10l-4 -39l-19 -56l-73 -24h-11l-57 -45h-27l-59 -53h-25l-8 26l-2 45l6 88l101 78l28 16h19l65 25l93 18h92l75 -20l84 -31l50 -18 l30 -2l43 -27l76 -26l86 -7l84 23l72 29l2 6l31 12l14 25l53 24l43 -6l2 -25l4 -65l-4 -37l-31 -43l-8 -4v-14l-28 -9zM920 598l30 10l31 8l-10 -24l4 -27l-31 4l-43 -8l-59 8l-92 4l-125 56l-33 8l-31 20h-18l-23 19l-33 4l-81 12l-91 -8l25 37h16l101 4l49 -10l45 -17 l37 -14l114 -41l60 -37h37zM1317 840v-37l-23 -31l-22 -18l22 -11l-4 -20l-10 -16l-49 -31h-19l-67 -39l-31 -21l-6 39l31 11l22 36l37 9l33 55l18 18l17 31v96l22 4h-22v19l28 4l13 -41v-37zM152 647l22 -8v-29l-45 -8v-24h-29l23 38zM215 680l31 16l41 -2l-54 -43l-38 11z M1098 852v-12l55 -25l-27 25zM223 657l2 9h-10v-9h8zM1202 940l-4 18l2 -18h2z" />
<glyph unicode="&#xa1;" horiz-adv-x="542" d="M442 256v-18l-6 -37l-12 -19v-16l-18 -25l-9 -22l-37 -27l-20 -26l-53 -21l-43 2l-29 -6l-51 10l-17 12l-2 50l-45 18l-30 43l-19 74l4 35l-2 84l6 53l11 63l12 17l6 61l16 27l-4 33l27 45l-4 36l10 27l4 51l19 8l-15 -36l6 -9l-10 -26l23 -10l-15 -41l21 -4l39 -54 l-10 -37l-19 -18l21 -14l34 41l-6 34l23 -12l31 6l6 -30l8 -17l-33 -6l12 -35l21 15l-2 -29h-37l2 -43l12 -21l-20 -16h26l35 -61l6 -41l13 -17l-17 -102l-24 -37l-4 -21l-11 -6l-57 -47l39 -2l70 23l34 28l43 78zM61 1376v31l17 14l51 74l35 4v4h55l53 -26h21l39 -15 l33 -22l28 -58l-10 -34l-4 -39l-37 -72l-31 8l4 4l9 41l14 21v47l-19 33l-22 -19v-24l-43 -50l-23 -6l-20 -16l-82 -2l-51 57zM432 424l8 -37l11 -33v-35l-39 -4l16 15l-16 35l-2 24l-23 35l-4 10l-14 68h-4l-9 47l-4 4l-2 25l-10 20l-8 53l-21 84l2 43l-4 43l2 45v60l-8 51 l-2 61l6 84l12 78h9l12 -18v-29l6 -23l-4 -55l6 -61l-6 -74l8 -51l-4 -64l6 -45l13 -82l10 -24l2 -45l12 -21l17 -78l14 -28l-2 -27l18 -31zM156 922l26 34l-30 23l-11 47v121l15 53l14 6l63 -16l9 -45l-11 -66l11 -16v-152zM225 633l-6 41l-8 20l12 23l-10 18l-25 25l45 24 l-14 27l-6 -20l-25 12l21 22l16 27l-6 37l25 4l-4 -43l16 -111l2 -34l-16 -39l26 -11zM264 264l19 -31l-4 31h-15zM160 1321l-4 -12l32 -4zM264 1352v-9l23 5zM188 1139v-13h7v13h-7z" />
<glyph unicode="&#xa2;" horiz-adv-x="866" d="M176 223l-12 23l-45 73v11l-19 26l-14 68l-23 68v49l-4 61l4 49l-8 84l8 31l11 49l12 64l14 36v46l11 18l20 14l21 33l71 86l45 31l84 14l47 4l62 2l16 43l25 105l26 55l31 2l39 -14l-25 -80v-39l-12 -35l-14 -65l14 -25l21 -12l41 -45l28 22l19 -4l26 -33l11 -37l4 -34 l4 -6l10 -52l-10 -75l-62 -93l-39 -24v35l41 32l17 66l12 18v21l6 20l-16 37l-4 31l-15 24l-8 -26l6 -33l-24 -68v-24l-11 -19l-22 -20l-70 -18l-28 26l8 19l-23 4l13 -29l-37 -12l10 -23v-22l-33 -51v-84l-8 -48v-32l-14 -13l-8 -30l-19 -47l4 -27l-26 -90v-37h-9l9 -33 l26 6l33 23h6l21 35l-5 28l19 17l-6 -39l2 -37l16 -18l10 26l41 55l11 33l16 64v84l20 30l97 -2l18 -47l-12 -80l-25 -71l-35 -92l-4 -29l-32 -35l-29 -20l-68 -45l-49 -13l-16 17l-37 2v-21l-64 -35l-10 -32l-8 -60l-27 -80l-20 -73h-78l8 41l21 81l6 37l2 41l29 15l22 -7 l8 23l-30 8l-41 2l-13 17l-2 37l45 -25l-4 49l-30 19zM272 678l-4 -23l6 -22l5 -64l4 -82l-11 -32l13 -29l16 -10l2 39l16 67l3 39l16 10l4 58l16 45l7 43l12 59l29 113v26l22 46l51 55l-39 37l-20 12l-43 -2l-37 -19l-21 -2l-22 -36l-12 -41l2 -45l-8 -58l4 -78l-9 -28 l-2 -35v-43zM770 537v-19l-18 -127l-9 -22v-23l-14 -49l-20 -78l-21 -16l-29 -47l-26 -41l-17 -15l-41 -30l-38 -13l-41 -12l-82 -22l-27 -56v-37l-10 -20l-43 -156l-35 -8l-43 -2l-88 4l8 47l35 -8l43 4l33 -4l18 12l23 60l24 41l6 61l19 76v31l74 10l45 16l59 25l41 31 l22 16l29 43l15 51l28 68l17 45l2 33l10 22v115zM565 723l-4 -16l-10 -11l-12 -82l-25 -114l-27 -54v-14l-26 -12l8 45v53l18 96l15 15l16 67l19 33zM633 1112l-19 10l11 39l18 107l27 98l30 -2v-33l-16 -22v-13l-10 19v-49h4l-16 -45l4 -23l-23 -45v-25zM158 674l-2 12 l-11 37v20l-41 -41l-14 -32l14 -23l37 6zM186 279l11 -19l20 -10h29l45 -17l-25 54zM332 842l-8 24l14 92l18 29l19 -10l-17 -21l-12 -47l-4 -35zM195 365l-7 -11l58 -2l22 -10l15 14l-41 9h-47zM328 702l-15 9l9 59h10v-49zM264 383l-33 23v-15zM328 252l28 -2l-28 14v-12z " />
<glyph unicode="&#xa3;" horiz-adv-x="923" d="M383 135l-23 -2l-71 2l-56 8l-77 -34l-68 6l-12 39l4 22l-14 90l45 43l14 13l68 73l8 23l43 63l6 31l-31 14l25 15v4l16 10l-12 57l-10 19l2 18l-11 -14l-18 -8l-23 26h-36l22 78l-12 23l-49 2l-62 35l15 67l69 14l-6 33l-6 31l-17 33l-2 35l-6 18v33l2 67l6 29v57l11 19 l8 33l49 83v21l78 82h22l19 24l37 13l22 14l54 14h30l86 -10l90 -33l45 -26l48 -37l40 35l37 -17l6 -30l25 -45l16 -48l-8 -24l8 -21l-4 -47l-14 -57l-35 -51l-43 -27l-57 -8l-10 18l10 25l26 10l52 8l-6 19l6 6l28 109l-10 59l-39 45l-4 -66l6 -61l-2 -10l-28 -60l-15 -18 l-28 -12l-46 -7v-4l-67 25l-33 31l-12 28l-10 60l26 53l37 27l-53 51h-21l-98 -19l-25 -18l-22 -45h-4l-19 -82l-4 -51l4 -80l13 -74l10 -26l8 -43l29 -99l49 -6h74l26 10l45 -2l47 -43v-18l-14 -49h-123l-78 -2l-10 -29l10 -29l31 -12l19 6l106 -4l74 4l26 6l17 54l-2 32 l43 39v-65l6 -21l-4 -30l-19 -19l-22 -4h-21l-39 -18v-15l-45 -2l-41 6l-43 -8l-30 8l-56 -24l5 -74h-5l-6 -41l-24 -70l-54 -55l-30 -22l-6 -23l26 -16l107 6h84l39 -4l34 2l19 16l8 29l8 90l-12 37l8 35l23 6l-9 18h31l37 8l37 -16l4 -43l-8 -94l-6 -156l10 -26v-37 l-6 -37l-47 -29l-25 -8l-63 10l-41 -4l-80 2zM825 139l4 -73l-10 -31l-18 -19l-25 -8l-59 8l-64 -4l-69 -4l-60 8h-41l-12 -4l-55 -4l-37 4l4 15l-4 20l18 6l45 -6l29 6l72 4l65 -8h135l33 35l8 59v68l-2 39v82l2 102v33l-4 72l27 28l24 -26l-2 -76v-78l-28 25l20 -43l4 -62 l-4 -28l4 -21l-4 -53zM358 49l-2 -10v-21l-39 -12l-73 2l-97 -6h-63v64l78 -9h98l39 -8h59zM463 1315l-39 -41l-18 -55v-45l-13 -87l-14 -32l-19 71l5 23l14 102l16 25l25 49l67 12zM330 180l67 -10l-4 25l-33 4l-4 12l-32 -16l-31 4v-17l22 -12l-10 -25l35 13zM92 678 l-22 -25l-9 11l5 20zM211 322l14 28l-32 -18zM340 315l18 -20l25 2zM330 272l-2 -10h28zM395 682v-18l13 18h-13zM170 272l-4 9l-10 -2l4 -9zM803 328l4 8h-8v-8h4zM197 715v12h-4v-12h4z" />
<glyph unicode="&#xa5;" horiz-adv-x="1234" d="M1145 670l-6 -33l-4 -23l-21 -22h-37l-37 -8h-43l-41 8h-73l-23 -8l-63 -11v-110l-9 -66v-80l-6 -24l19 -47v-90l-13 -19l-49 -14l-43 -6l-24 6l-56 -6l-47 -6l-37 2l-49 10l-22 -10l-19 -2l-32 12l-54 -19l-45 23l-8 20l8 86l68 17l39 -4l37 45l-13 45l7 47l-13 55l6 58 l-6 20l10 35l-32 37l-17 12l-37 -12l-20 4l-68 4l-94 -8l-22 12h-47l-31 -8l2 18l20 11l70 8l104 -4l5 -4l24 8h74l59 49l-26 14l-39 2l-99 -2l-22 -4l-45 4l-68 -4l-76 17v61l21 27l27 -9l20 11l47 -7l29 17l20 -8l23 4l98 -8l49 12l-20 61l-17 13l-67 4l-53 -4l-45 6 l-97 -2l-26 51l30 -6l29 6l23 -10h127l22 -4l37 10l-19 45l-22 4h-53l-99 4l-36 10l-48 -4l-8 31l-2 37l8 33l68 4l51 -2l78 -2l4 61l-27 68l-18 16l-4 37l-33 -2l-22 4l-68 4l-2 25h23l84 24l-29 39l-103 27v55l7 22l20 -8l35 39l18 -12l45 -12l-4 12l29 8l49 4h80l25 -6 l36 6l27 -6l51 6l27 -49l41 27l-4 -76l-29 -23h-47l-49 -6l24 -82l4 -2l33 -80l8 -34l-32 4l41 -33l32 -62v-28l19 -33l6 -35l22 -49l27 -16l14 16l31 96l12 17l15 49l16 45l12 16v29l19 20l8 27l-27 39l-59 2l10 23l84 12l19 24l2 35h-47l-56 33l-2 45l19 41l30 8l60 2 l35 -6l28 6l23 -6h41l31 6l92 -8l8 -37l-4 -59l-17 -25l-47 -4l-22 6l-33 -59l-4 -14l-8 -13l-11 -35l-22 -36v-21l-16 -29l-17 -55l6 -22h68l18 14l19 65l-4 23l8 27l16 16l2 47l47 25l41 12l35 37l-4 78l8 57l33 -16l18 -41l3 -93l-7 -28l-14 -19l-33 -12l-30 -12l-21 -2 l-20 8h-21l6 -35l-26 -31l14 -14l-29 -59l-18 -41l53 -4l10 -21l37 -2l8 -41l-4 -41h-39l-12 64l-31 -64l-82 -6v6l-49 -2l-61 -26l-25 -58l-6 -2v-8l-22 -21v-22l-9 -19l7 -36h34l21 -7l29 23l8 27l35 73l57 -2l14 11l35 4l70 -13l47 19l20 -2l11 18l-5 23l21 43l-4 4 l-12 76l36 2l9 -74v-33l4 -63l-6 -27l-25 -12l-37 2l-41 -4l-24 8h-35l-21 -8l-76 10l-22 -19l-23 -59l-22 -8l27 -10l88 -2l28 10l45 -2l43 -8l2 -50l-12 -53l-78 6l-20 -6h-23l-65 -4l-72 4l-86 -6l-18 -12l6 -27v-178l-6 -25l4 -24l-4 -78l8 -23v-36l16 -27l49 16l9 19 v51l-9 53l6 23l-2 63l-4 84h4l9 41l24 23h60l20 -8l18 8h52l43 -8l12 4l102 8l15 53l-2 35l10 49l18 4l-4 -16l19 -29v-37zM948 223l-4 -47v-31l4 -86l-8 -49l-18 -14h-43l-13 6l-55 2h-68l-34 10l-31 -10l-25 6l-37 -8l-24 6l-174 -8l-21 4l-57 -8l-35 41l41 31h14l17 -11 l90 -2l25 -6l43 8l49 -2l45 8l26 -8h90l43 2h54l47 13l14 65l-10 25l37 82zM506 1020v16l-19 21l9 28l-27 -6l-20 19l-13 -15l15 -26l-13 -23l-6 -37l-45 4l80 -40l16 40zM543 1311v-4l8 -11l12 -26l2 -49l27 -60l-19 -16l-22 47l-8 51l-8 10l-7 39v35zM358 160l17 16 l-41 33zM600 1085l-12 23l22 -2zM641 788l6 13l-37 -19zM1116 1020l-4 -8h12z" />
<glyph unicode="&#xa6;" horiz-adv-x="368" d="M66 956l-9 37v41l9 35v145l6 15l-6 22l6 82l-6 21l-3 47l3 92l6 25l-2 28l-9 21l5 39l14 10l-14 22l40 4l15 41l53 -8l-2 -43v-241l2 -41l-4 -64l-33 -4l2 -31l-20 -4l31 -14l22 27l2 -56l-2 -63l4 -90l-6 -60l-8 -30h-70zM188 690l-16 -26l-20 -140l-13 -4h-28l6 -35 l-23 -8l41 -18l39 14l6 -55v-68l-8 -37v-24l2 -66l-35 -35l-41 -30l-26 -13l-2 23l-7 45l9 86l-15 78l9 18l-3 33l7 39l-7 78l19 14l-16 23l4 22l6 92l6 13l92 -4zM170 895l8 4l49 10l13 109l-9 65l9 50l-11 18v86l9 33l6 59l22 -18l6 -37v-39l4 -92l-6 -29l11 -22l-7 -35 l5 -88l-13 -43l4 -47l-22 -21l-27 -8l-71 4l-54 6l23 39zM174 94l-4 -26l2 -41l-47 -47l-55 8l-4 47l4 41l24 10l25 27l35 -4zM240 1509l-11 19v33l11 26l-11 82l11 23l26 -4l8 -50l-8 -18l8 -47l-8 -62v-28l-18 -6zM281 -6l-7 -41l2 -41l-10 -27l-35 -6l-4 37l21 12l-8 41 l8 33l-8 45l36 -8l-6 -23zM248 664l37 22l-9 -76l-10 -41l-22 6v66h12zM70 -72l43 -10l22 -29l-69 2zM147 549v33l-36 16l-17 -16l19 -27zM266 295l8 -41l-30 -18l4 49zM244 1405l-8 31l22 16l16 -43zM276 518v-33l-38 -4v23zM276 473l-36 -43l-4 41zM266 1403l4 -47l-4 -8 v24l-28 10zM262 539l-24 -13v23zM180 537l-28 -13l-2 -12zM119 16l20 23l-45 -33z" />
<glyph unicode="&#xa7;" horiz-adv-x="948" d="M758 801v-13l-15 -90l-16 -30l-16 -29l-39 -33l-39 -18l-58 -27l-6 31l2 29l-28 -11l8 -10l6 -31l-22 -18l-3 -27l11 -24l-23 -43l19 -13l8 -12l4 -80l-12 -69l-27 10l-27 45l-20 16l-76 62l-49 30l-25 27l-49 21l-55 47l-55 69l-21 15l-31 53l-16 20l-14 47l-11 21 l-2 82l17 90l28 59l41 33l31 14l25 21l39 6l32 14l-55 60l-22 18l32 2l-45 17l-10 24l-18 6l-41 56l-11 49v125l11 35l18 30l8 41l41 49l62 45l30 7l35 22h33l33 6h108l33 -16l27 -2l10 -19l65 -36l19 -27l29 -21l22 11l41 -27l16 -18l17 -49l12 -74l-4 -15l-8 -57l-35 -53 l-65 -57l18 49l27 18l14 64l12 18l6 41l-14 41l-10 37l-25 18v-55l-6 -27h-4l-14 -41v-24l-11 -21l-71 -37h-82l-35 31l-2 33l-4 4l-6 51l10 45l51 60l-12 16l-43 31l-82 -2l-23 -17l-34 -10l-25 -14l-47 -49l-6 -25l8 -41l27 -55l22 -13l33 -47l22 -16l68 -55l2 -6h6 l70 -50l-23 -24l49 -62l-8 -22l55 -31l-32 37l-11 84l74 -57l25 -27l80 -98l28 -49l15 -52zM612 764l-22 51l8 66l-18 20l10 23l-10 22l-5 23l-51 6l15 -27v-28l-15 -27l-30 18l-45 54l-35 14l-80 8l-4 -4h-25l-24 -8h-21l-49 -45v-49l-4 -11l22 -51l39 -67l19 -11l37 -43 l73 -36l68 -15l47 4l31 11l67 45zM565 88l10 -12l5 -84l-70 -27h-35l-20 -6l-136 6l-16 8l-24 4l-13 19l-65 37l-21 26l-24 19l-19 41l-4 31l2 81l31 70l37 23l30 12l97 10l41 -8l53 -47l-37 6l-20 -16l6 -35l-8 -37l-13 -53l-33 -25l-16 -18l27 -27l26 -4l37 29l41 49v-90 l31 16l33 8l6 6l53 31zM715 272l2 -75l-12 -39l-17 -29l-12 -41l-23 -20l-16 -29l-31 -29l-12 29l4 72l-2 88l-12 43l4 39l-8 28l8 21l-13 39l5 20l-19 27v39l19 18l-5 37l56 -41l22 -23l15 -38l39 -39l2 -39l6 -13v-45zM856 788v-34l-8 -29l-64 -96l9 39l18 28v21l6 20 l2 56l-12 36l-33 127h-4l-8 31l20 2l35 -28l8 -23l17 -18l10 -60zM571 -82l4 -24l-28 -3l-41 -16l-45 -8l-47 2l-27 8l-41 14l-22 19l-23 2l-14 16l-39 21l-17 33l54 -17l104 -47l31 4l22 -4l78 -4zM565 1169l-22 31l8 31l43 -10l37 -2l-15 -35l58 -56l74 -73l14 -35l-27 10 l-37 23l-30 49l-21 10l-31 14l-22 25zM377 938l31 -27l-19 11l-78 -25l-18 -31l18 -69l-30 6l-13 22l4 35l-2 41l33 29l27 10zM817 279l-4 -93l-10 -8l-4 23l-19 96v37l-10 24l-8 33l20 -2l6 -12l33 -49zM401 1309l-36 16l-17 27l-14 14l-23 45l4 19l-10 18l37 10l6 -59 l17 -15v-10l18 -18zM729 481l23 -35l-60 27l-26 21l-11 34l43 9l4 -23zM432 625l-6 22h-18l-13 -37zM352 528l35 37l-31 -6zM543 1495l22 -4l23 12l-27 4zM590 -78l26 -12l-26 -14v26zM389 1481l-37 8l47 4zM160 983l-15 25l-10 -21zM432 1298l2 -20l-20 12zM287 1577 l10 -10l22 2zM137 172l15 12h-15v-12zM684 516v8h-10v-8h10zM588 1569v-6h6v6h-6zM408 1495h-7l-2 -2z" />
<glyph unicode="&#xa8;" horiz-adv-x="774" d="M352 1784l6 -25l-8 -18l-4 -37l-18 -37l-25 -12l-29 -23l31 72v43l-14 35l-39 -66l-23 -20l-36 -19l-60 -8l-14 -33l-37 9l-19 88l-8 51l13 49l36 35l29 14h35l39 -2l35 -25l51 -4l20 -14l-47 -6l49 -25h23zM674 1810l2 -36l4 -37l-10 -56l-47 -53l-5 39l25 10l-2 23 l31 6l-43 53l-23 19l-43 6l25 -12l14 -19l-29 -2l-34 -82l-66 -2l-49 19l-14 30l-19 19l-10 43l14 55l23 29l41 30l45 2l41 -6l16 -18l33 -15l22 -36l25 14zM516 1608l12 10l29 -19l-37 -20l-61 16l-21 25l-28 12l26 23l10 -17l50 -18zM516 1753v6h-6v-6h6z" />
<glyph unicode="&#xa9;" horiz-adv-x="1622" d="M1534 719l-2 -19l-4 -73l-6 -17l-2 -24l-25 -51l-8 -33l-49 -113l-21 -33l-16 -8l-6 -10l-35 -57l-51 -48l-47 -38h-17l-41 -56l-22 -6l-35 -20l-55 -7l30 33l68 47l41 31l20 8l11 23l43 24l18 29l23 -4l-5 37l31 24l6 31l39 45v23l29 63l18 23l11 69l6 95l6 102l-12 18 l-11 35v39l-8 60l-49 124l-47 82l-27 33l-6 21l-29 10l29 -35l43 -84l2 -45l-20 -27l37 27l8 -23l30 -108l5 -53l-5 -43l15 -19l-4 -35l-2 -67l-9 -29l-10 -59l-12 -45l-47 -103l-17 -12l-24 -35l-12 -33l-50 -63l-55 -55l-82 -68l-33 -18l-157 -66l-43 -2h-47l-56 -12 l-61 2l-21 -6l-24 10l-60 6l-20 8l-21 -2l-30 13l-21 2l-61 24l-41 4l22 -6l23 -16l27 -2l77 -47l31 -7l14 -12l89 -20l131 -23l-45 -16l-74 4l-64 4v4l-20 6l-53 10l-39 13l-60 24l-41 19l-59 37l-78 47l-18 18l-19 90l-22 15l-17 18l-18 49l-19 4l-24 47l-23 23l-18 39 l-27 53l-18 72l-19 55l-4 72l4 26l-4 64l13 92v35l12 26l8 35l16 49l29 60l53 86l48 33v-23l30 -23l19 -24l-19 -16l-39 -68l-16 -19l-14 -55l-17 -22l-8 -31l-16 -78l2 -39l-11 -31l3 -32l8 -101l16 -57l35 -80l35 -76l37 -55l18 4l-14 10l-19 39l4 72l15 -12v-19l37 -59 l20 -39l66 -82l172 -119l51 -10l55 -4l92 -4l58 16l55 6l22 11l23 4l115 45l18 18l57 41l43 41l39 33l60 92l12 29l53 18l-14 12l-10 25l18 61l14 60l5 84l-7 102l-16 58l-18 71l-25 35l-20 55l-29 43l-60 74l-26 19l49 18l-31 10l27 17l14 -19l41 23l-2 28l39 4l10 -24 l49 -31l11 -47l18 -20l6 -52l43 -4l27 -37l22 -39l5 -36l14 -33l8 -4l18 -56v-32l11 -39v-60l14 -36l-6 -19zM803 1159l-37 4l-21 11l-63 -29l-10 -21l-4 -20l-15 -82v-168l-8 -20l8 -48l-4 -36l-4 -48l8 -20l-4 -37l8 -74l19 -57l24 -20l41 -11l54 2l32 41l9 23l22 45 l33 127l20 -2l43 -66l-6 -14l-8 -45v-23l-14 -26l-8 -33l-15 -16l-8 -29l-37 -41l-37 -18l-86 -15l-41 4l-32 -8l43 -31l30 -10l41 -4l82 12l78 80l31 39l14 29l10 -19l-6 -22l14 -17l-32 -38l-9 -23l-28 -29l-17 -8l-26 -18l-29 -11l-80 -16l-88 31l-14 10l-23 6l-57 72 l6 22l-22 23l-5 22l-20 29l-12 25l-13 39l-30 157l2 88l6 113l4 27l31 129l10 18l18 16l25 52l25 26l51 37l76 4l30 -12l29 -25l55 -22l12 51l41 2l50 -24l-19 -5l17 -14v-78l-17 -16l17 -19l-5 -77l5 -60l-11 -32l-43 -13l-37 17l-4 22l-18 74l-31 69h-65l-15 -34h-16l8 32 l19 39l45 2l-11 19zM408 1348l-11 6l-30 2l-13 30l13 -18l30 -4l19 20l10 39l33 17h8l20 14l58 19l69 14l76 18l74 -4h74l16 -20l18 14l35 -6l35 -25l12 13l82 -31l45 -31h47l50 -6l41 -18l18 -15l-31 -12l-37 12l-4 -20l-43 -2l13 -25l-39 -29l-15 48l-86 16l-47 18l-80 19 l-86 4l-55 -2l-63 -2l-66 -17l-33 -12l-49 -6l-59 -29l-31 -8l-12 8zM748 1010l2 -33l-9 -55v-60l-4 -57l-2 -74v-86l10 -121l-10 2l-14 23l-8 61l-4 72l2 94l-2 74l8 98l4 51l14 41zM1049 1145l2 -39v-90l-7 -21l5 -37l-13 -16l13 -20l-13 -45l4 -27l-10 -10l-20 -4l-29 10 l27 12l10 68l-6 30l18 39l-20 37l4 31v63l18 15l-18 4v94l12 -18l23 2v-78zM403 1192l11 16h-23l23 13l26 30l70 37l88 35l14 -18l-28 -19l-49 -16l-66 -51l-61 -52l-29 -4v19zM266 930l-8 -12l-12 -60l-25 -49l-4 68l12 65l17 39h39zM971 1341l-23 -14l51 4l19 -14l12 -17 l-26 9l-93 4l-24 16l-41 17l18 10h8zM1022 555l-27 -6l25 37l-16 41l16 26l29 -18l-9 -60zM754 1350l14 -21l-20 -2l-19 -10h-57l-19 14l-26 -4l71 19zM256 649v-37l-16 4l-19 43v39h23l4 -32zM973 188l16 15l-4 22l-12 23l-49 -25zM874 57l35 21l56 -6l-35 -23zM932 1450 l8 -29l33 -30l12 30l-27 13l-16 16h-10zM1049 680l-17 -14l-10 55l22 -8zM326 1075l-37 -12l10 27l27 10v-25zM913 827l17 23l33 4l-17 -23zM1026 203l43 12l-29 8l-22 -2zM209 418l6 26l-22 13zM203 731v14l18 -8zM1018 174l-4 10l-10 -4l10 -10zM758 137v6h-8v-6h8z" />
<glyph unicode="&#xaa;" horiz-adv-x="866" d="M754 774l14 -6l-2 -51l-45 -109l-64 -35l-12 25l-2 -25h-139l-66 13h-86l-37 -11l-63 -8l-86 19l-49 32l-45 58l8 69l-8 35l-6 15l-13 63v35l23 57l16 17l-12 24l41 -6l51 12l12 -12l9 -31l-23 -12l47 -14l-6 -97l6 -14v-22l16 -37l48 14v41l14 27l8 -27l21 -37l36 55 l29 56l23 -23l18 -22l2 28l-16 21l-8 29l-19 -2l8 28l-4 31l-39 -16h-39v-17l-20 -35v49l76 37l26 19l-8 30l6 43l-59 -28h-21l-22 -23l-115 15l-39 -35l-37 6l82 51l33 14l8 3l41 6l23 -23l14 14l8 25l60 33l37 65h-15l2 45l-18 80l-25 2l-4 19l33 12l-10 29l-47 22l-58 -4 l-67 -29l-9 -18l25 -20l33 -43v-17l-58 -84l-53 4l-24 -22l-2 -23v4l-27 15l-12 41l-2 6v20l-9 58l68 151l27 23h22l117 28l72 -8l86 -31l32 -20l27 -25l31 -57l4 -90l-4 -115v-237l-6 -86v-76l43 27l14 26l-8 25l8 20v78l31 45l10 41l-14 37l4 59l-4 78v64l-13 84l-37 86 l41 -33l41 -41v-55l9 -68v-107l-5 -71l-12 -55l31 -41l6 -54l-6 -28v-35l-4 -47l4 -4l-8 -31l-15 -45l-26 -29l-49 4l-31 33l-43 35l8 29l-14 18l-41 -18l12 -17l29 -18l20 -37l35 -23l-10 -32l-64 4l-28 18l-25 33l-14 35v26l-82 -73l-31 -23l-59 -18l-60 2l-45 14l39 -43 l35 -23l67 -8l64 8l8 11l12 4l37 16l37 -24l64 -15l51 2l123 17l39 39l20 73l-2 25l16 31zM772 920l4 -58l-4 -26l-12 -15l-31 51l2 52l10 8zM324 1346l-13 -19l19 -22l-13 -76v20l-10 37l-22 27v28zM240 1163l18 19l49 8l-31 -39l-61 -6zM434 1341l35 -26l25 4l-54 37h-6 v-15zM289 901l10 -2l-4 -10l-10 2z" />
<glyph unicode="&#xab;" horiz-adv-x="884" d="M338 494l-45 -5l-62 19l-26 39l-19 18l-45 70l-22 45l-37 49l22 33l-32 14l2 31l-19 33l31 67l74 113l22 31v6l19 28l22 19l15 -37l36 27l-10 43h60l41 -7l-37 -96l-25 -33l-8 -34l-16 -23l-25 -86l-6 -74l20 -86l-41 -6l-30 -10l63 -43l25 27l2 -23l16 -18l16 -50 l19 -20l12 -55zM678 494l-49 -5l-152 146l-8 16l-45 56l-14 32l-17 49l-2 46l6 30l23 43l35 56l10 16l98 137l37 21v4l96 -6l-34 -101l-25 -33l-2 -20l-17 -20l-30 -91l-4 -43l-15 -10l-22 -39l45 -28l-4 -29l4 -29l18 10l6 -20l-6 -29l-10 -14l-2 -35l25 -12l24 2l6 -19 l19 -20l-2 -31zM780 487l2 -59l-39 -18l-22 6h-47l-70 30l25 9l71 -6l15 4l4 8l20 14l-6 37l-14 31v30l-31 52l33 8l22 -76l25 -37zM446 487l-36 -77l-48 10h-53l-22 -8l-23 22l15 19l86 -4l41 26l-11 43l-4 43h4l37 -41zM365 973l4 22l14 19l27 76l2 22l20 14l23 -8 l-19 -80l-35 -77l-28 -3l-4 -36l-31 -41l-4 24l4 35zM788 1118l-2 -47l-43 -82l-24 -16l-8 18l16 49l2 29l14 21l2 22l23 14zM690 940l6 -22v-50l-6 -20l-28 2l22 90h6zM119 770l51 6l-25 23h-6zM145 739l-12 9h-29v-9l19 -10zM340 713l-12 22h22zM342 821l-14 -22l-4 28z M557 729l23 10h-23v-10zM678 809l-16 -6l-11 6h27z" />
<glyph unicode="&#xac;" horiz-adv-x="1400" d="M1118 563l-10 8h-35l-6 39l2 58l10 10l-6 94l-47 64l-31 -5l-69 5l-23 -5l-18 11l51 26l12 -18h70l61 10v66l-65 6v4l-23 -8l-117 4l-38 -8l-64 2l-24 6h-39l-64 -14l-43 6l-78 8l-45 -8h-67l-101 2l-37 10l-26 -10l-19 10h-32l-19 -10h-67l-50 10l-2 43l4 45l56 12 l20 -4l31 4l70 -4l100 4l20 -8l37 4l-18 -26l14 -11l37 11l45 4l-4 22h51l21 4l43 -2l22 6l45 -12l19 8l39 -2l39 6l131 -8l84 8l30 -6h201l12 -55l-2 -47l-18 10l-35 -24l-57 -9l8 -20l18 -12l-4 28l41 -37l-18 -18l26 -14l4 63l33 8v-291l-8 -45zM1305 629l8 -19v-32 l-13 -41l5 -43l-33 -13l-29 8l-24 -26h-52l-28 10l18 35h55l52 51l10 70l-8 63l8 51l-10 19l-2 98l-2 64l26 8l-18 14l-6 35l-2 55l45 -20v-41l-2 -72l6 -53l4 -105l-8 -20l10 -23zM821 858l45 -16l-26 -8l-33 -3l-16 -8l-52 23l-26 -4l-21 -19l-28 4l-21 -4l-84 4l-6 13 l-49 10l-19 -19l-24 11l-27 -11l-18 19l33 18l49 -8l32 4l78 -4l78 8l64 -4l26 4zM397 831l11 -10l-50 10l-36 -14l-33 4l-23 -4v51l23 9l28 -9h66zM193 850l-9 -23l-10 -10l-98 4l-2 29l37 -4l20 4h62zM1151 508l-14 -35l-39 16l20 15zM1110 782l18 -28l5 28h-23zM1157 813 v-14h14zM1079 610v8h-10v-8h10zM838 961l12 6h-12v-6zM1073 1022v-8l8 8h-8zM1137 473v-2l2 2h-2z" />
<glyph unicode="&#xad;" horiz-adv-x="708" d="M100 754l-37 4l-6 88l6 41l56 -4l108 -4l25 4l18 8h29l23 -8h36l70 12h31l49 -8v-29l8 -63l-12 -37h-223l-86 2zM563 690h10l9 -31h-37l-35 -10l-82 4h-137l-39 2h-109l-86 4v23l99 12l73 2h84l19 -10l18 8h49l47 -8l103 14zM621 737l-7 -35l-10 -12l-14 31l10 29l-8 30 l-19 -16l9 100h10l18 -24zM186 854l11 -25l26 7z" />
<glyph unicode="&#xae;" horiz-adv-x="1628" d="M1536 723l-2 -21l-10 -90l-29 -75l-6 -33l-12 -27l-25 -59l-35 10l23 -22l-13 -25l-24 -31l-25 -41l-28 -4l-7 31l31 24l6 31l37 45v23l13 18l18 45l18 23l11 69l6 109l-2 96l-11 35l-4 43l-10 86l-8 27l-51 106l-35 53l-14 15l-19 35l-16 -7l8 -6l51 -92l6 -24l19 -29 l18 -74l6 -8l6 -37l7 -57l-4 -43l14 -19l-4 -65l-10 -68l-21 -6l16 -22l-18 -74l-33 -70l-14 -33l-23 7l-16 -15l16 -26l-18 -13l-12 -32l-50 -64l-55 -55l-82 -68l-33 -18l-71 -33h-15l-71 -33l-92 -4l-54 -10l-82 -4l-24 10l-60 4l-20 10l-90 19l-49 22h-35l22 -6l23 -16 l27 -2l77 -47l43 -19l91 -20l131 -23l-45 -16l-115 4l-43 14l-35 4l-18 6l-68 25l-90 43l-102 57l-37 37v23l20 4l8 45l-18 8l18 33l-37 29l19 43l-31 -37l-53 6l-66 84l-18 49l18 12l13 33h-58l-14 37l-4 37l-19 55l-4 72l4 22l-4 70l4 12v41l9 78l18 14l10 19l31 35l68 59 l10 18l39 23l-19 -39l-16 -18l-14 -56l-17 -22l-18 -74l-14 -107l-23 -53l-23 -8l7 -31l-21 -53l31 19l12 36l19 19l8 -60l16 -57l25 -70l-8 -26l16 12l18 -41l-32 4l-25 -35l8 -32l23 8l16 14l-16 19l18 8l17 -6l12 -13l31 -47l26 -18l-4 16l-14 8l-19 41l-4 52l-10 28 l-12 19l-11 59l-8 19v38h23l10 -71l20 -33l9 -51l18 -47l2 -49l8 -23l15 18v23l14 -39l68 -82l18 -12l59 -62l95 -45l51 -10l55 -4l92 -4l58 16l55 6l22 11l78 20l23 17l37 12l18 18l25 13l32 28l82 74l11 18l51 84l22 21l19 63l22 68l8 43l5 84l-7 102l-16 58l-18 71 l-41 56l-4 22l-19 19l-10 30h-4l-12 35l-31 25l-12 20l-62 47l-51 39l-45 19l-19 18l-92 31l-31 2l-133 8l-104 -10l-37 -11l-76 -20l-4 23l8 36l33 27l-18 18l73 19l54 18h63l31 -30l14 -2l51 -5l-22 5l-25 18l-30 10h96l76 -14l6 -6l61 -13l21 -14l26 -8l45 -31h43l66 -12 l29 -12l67 -54l6 -20l41 -23l39 -45l33 -57l20 -31l48 -84l6 -37l8 -18l27 -63l2 -52l8 -22v-58l8 -6l4 -26zM459 1270l14 10l74 -2l49 -8l47 8l21 -6l47 6l77 -8l50 -17l28 -10l19 -20l39 -21l28 -76l4 -77l-14 -70l-35 -47l-41 -41l-32 -17l20 -22l29 -16l22 -39l21 -41 l8 -33v-41l4 -53v-84l12 -29l29 2l8 47v76l37 6l-31 19l29 12l31 -10l4 -70l-10 -72l-9 -47l-37 -47l-51 -12h-24l-47 12l-31 31l-19 24l-18 131l4 23l-4 49l4 33l45 -8l41 6l-27 24l-45 15l-67 78l-41 -2l-43 20l-12 -25h-13l-6 -6l-49 11l2 -35l18 -8h23l6 8l19 -49 l-7 -23l11 -51l-4 -105l4 -45l14 -14l59 -4l-10 -74l-110 -4l-43 4l-23 -8l-39 8l-31 -8l-16 31l-2 41l18 10h23l27 16v250l6 107l-15 32l9 91l-9 32l4 86l-53 4l-6 37l53 -10l-2 39l-55 4l-10 19v53zM666 1192l-4 -35v-35l8 -75l-4 -23l4 -74l14 -37l53 11l25 -9l53 27 l14 100v50l-28 36l14 33l-8 4l-37 29l-78 8zM123 1102l-12 -6l12 32l16 11l6 22l15 27l14 14l14 27l39 33l29 45l39 30l8 21l47 28l27 11l-2 -39h12l33 65l35 11l14 -17l-18 -51l14 -23l-37 -18l-14 -14l-76 -51l-37 -43l-14 -29l-51 31l20 -37l-20 -2l-37 -23zM1083 461 l7 16l12 82l-4 78l18 18l17 -22h4l2 -41l4 -88l-10 -60l-39 -57l-35 -33l-21 -12l-100 -10l-68 10l-18 8l-18 41l22 -2l8 -2l10 -10l41 -12h52l53 8l39 26l16 33zM1047 987l-13 -53l-22 -43l-27 -35l19 -45l12 -25l14 -47l-2 -34l-43 71l-35 43v66l23 39l22 28l9 47z M829 406l-6 -19l-12 -53l-55 8l-97 -6l-22 10l-41 -4v29h106l50 6l12 -17l22 13l-12 18l14 23v35l23 28l8 -53zM1313 256l-6 -20l-45 -39h-11l-18 -19l-27 -37l-22 -6l-35 -22l-55 -4l14 20l39 29l18 6l41 37l41 24h15l20 21zM322 1108l-13 -43l-30 -104l-19 -41l-12 -74 l-21 20l-8 43l8 25l23 49h6l16 35l37 90h13zM721 1028l4 37l-4 31l6 32l35 11l35 -6l-19 -21l-33 -6l7 -27l2 -45l-9 -41l-2 -47l-22 19v63zM852 1343l14 15l33 -4l57 -6l72 -33l-12 -23l-103 23zM1022 1106l16 -29l-51 21l-18 63l-25 8l4 25l21 6l16 -20l37 -45v-29z M727 659l-2 31l2 55l10 37l23 -8l-8 -22v-45l-2 -82l-23 -11l16 45h-16zM616 1311l17 22l82 19l63 -15l-49 -18h-51zM874 57l21 21l72 -4l-35 -23zM510 340l-14 10l22 23l39 -31zM743 537l-24 22l8 37h16v-59zM334 1139l43 35l-15 -39zM561 709l4 -35l23 16l-19 19h-8z M217 778l6 -45h-18zM115 856l6 -31l16 25zM1456 1053l2 18h-24zM406 201l4 8l-17 10l-16 4zM242 825l-19 -14v14h19zM160 492l8 8l-23 6zM588 1458v12h-13zM537 469l-11 12v-12h11zM150 682v4h-9v-4h9z" />
<glyph unicode="&#xb0;" horiz-adv-x="755" d="M664 1274l4 -29l-4 -90l-15 -65l-39 -37l17 51l8 67v39l-8 25v49l-13 23l-10 41l-12 18l-49 33l30 -70l5 -33l4 -67l-19 -82l-4 -27l-33 -30v-23l-22 -18l-27 -33l-51 -10l-18 -9l-23 9l-16 -23l-70 4l-94 10l-15 19l3 -37l24 -27l-67 23l-64 61v21l23 10l-27 31l-14 63 l-5 4l-6 56l2 77l25 86l47 46l14 18l45 14l27 15l10 18l45 8l17 13h37l6 -37l35 2v26l102 -45l72 -4l26 -18l74 -84l16 -47zM471 1184l6 10l-14 25l-10 47l-19 24l-26 8l-17 13l-51 6l18 31h95l-43 41l-37 14l-47 2l-72 -2l-33 -23l-65 -73v-23l-6 -12l6 -88l39 -45v24 l-9 21l13 53l32 51l11 -26l10 -109l18 -14v-15l39 -32h82l31 16l14 20l23 17v16zM573 993l-14 -24l-18 -23l-37 -4l-10 -18l-21 -19l-59 -8l-105 6l-24 17l-15 -11l-18 15l-12 18l61 -8l64 -8l53 8l53 6l61 39zM299 1333l14 -4l4 -22l-45 -9l13 23z" />
<glyph unicode="&#xb1;" horiz-adv-x="1243" d="M94 909l-26 9l-11 47l78 57l70 -8l55 2h98l48 6l20 -4l78 10l-8 80l4 70l6 20l-2 76l4 39l70 6l36 -12l4 -78l-14 -55l14 -29v-43l-8 -47l17 -31l30 8h19l14 27l-2 28l-18 19l6 37l-4 53l4 49l-6 21l2 47l41 2l6 -27l-6 -24v-119l-4 -53l4 -23l-6 -47l38 -4l60 6l63 -8 l56 6l22 -4l41 4l57 -35l-4 -74l-84 7l-28 -11l-86 9l-31 -5l-86 5l-117 -31l-8 -60l8 -26l-4 -74l6 -63l-20 -78l-90 37v39l2 71l-2 60l4 57l-45 55l-56 4l-12 9h-24l-31 -17l-23 4h-63l-96 4l-37 11zM242 322l-21 4l-71 -4l-56 4v43l-37 -25v43l25 27l-23 -2l37 12l35 -12 l12 14l47 -4l23 14l27 -6l20 2l98 -8l74 12l55 -14l37 4h99l86 -2l65 -2l35 10l61 -14l21 -12l22 -54l29 -24l-31 -2h-92l-86 2l-96 -11l-33 7l-84 2h-172l-39 -9l-24 9zM1081 266v-4l-8 -41l-31 -4l-75 6l-49 -10l-23 10h-180l10 17l-31 -15l-92 -2l-24 37h116l74 2h84 l18 -8l21 6h47l47 -6l31 6l24 -2zM707 813l-2 -4l2 -51l-11 -53h4v-5l13 -36l-4 -29h-27l31 -47l-6 -29l2 -41l-13 -26l-92 -3l-104 11l4 37l47 -7l31 -12l41 21l49 36l10 35l-12 54l16 26l2 43l-12 19l-6 61l6 29h29l18 -11zM1038 850l49 4l9 18l-2 23l8 70l-2 57h33 l10 -76v-33l4 -63l-6 -27l-39 -12l-68 -2l-20 8l-27 -4l-18 37l51 -10zM530 248v-8l-8 -15l-53 -4l-41 2h-121l-22 6l-21 -6h-43l-22 25l30 2l21 10l49 -6l33 8h37l45 -8l30 8zM1051 334l-11 -8h-73v26l-35 25l-19 29l-20 18l49 2l19 10h26l29 -18l6 -25l-25 -6l23 -2 l18 -16l17 8zM930 850l2 -14l-39 -19l-41 -4l-66 4l-45 14l27 15l37 -10l47 10l18 -15l35 15zM1159 303l-8 -35v-20l-23 -25h-36l18 31l23 31v37l18 12zM319 836l39 4l19 -21l8 23l29 -6l22 -13l-55 -14l-62 10h-24l-29 -8l10 25h43zM154 242l4 -13l-37 2l-31 -6l-8 11 l20 22zM1122 412l21 -37l-33 -35v49zM104 831h9l24 9v-4l25 -7l-53 -28zM713 1004l2 -17l26 10zM1124 946l-6 -8h15z" />
<glyph unicode="&#xb2;" horiz-adv-x="681" d="M111 664l-19 2v131l6 22l31 8l-18 23l45 84l45 53l18 31l29 33l41 32l53 91v20l16 68l-6 20l2 37l-24 33l-64 10l-10 8l37 14l24 -6l19 8l-14 17l-33 22h-23l-78 -22l-32 -35v-86l77 -35l11 -43l-4 -12l-7 -16l-24 -21l-53 -12l-45 18l-23 27l-12 29l37 6l22 18l17 21 l-33 -21l-58 -4l-8 51l8 31l2 29l11 36l37 58l24 18l64 35l75 2l52 -4l69 -29l43 -34l-12 -31l-25 12l-16 -14l-8 -19l49 -30l35 -45h28l9 -50l-11 -59l-16 -25l-18 -53l-23 -26l-27 -17l-49 -45l-37 -22l-43 -37l-26 -41l-27 -23l-41 -82l31 -22h51l92 -4l43 26l6 56l-6 34 l35 25l43 -6v-37l-4 -76v-82l-8 -55l-119 -4l-29 4l-59 -4l-37 4l-45 -4l-31 -12zM559 920v-97l-6 -26v-52l4 -120l-18 -39l-45 6l-86 -6l-56 6l-47 -6l-29 6l-57 -10l-39 6l-39 -6l-49 4l-4 20l27 15l37 2l28 -11l41 2l41 -4h195l61 8l17 84l-7 76l2 86v64l17 22h6z M586 1229l-43 -115l-80 -86l-23 10l41 33l43 84l19 70l4 75l-8 21l4 47l-45 55l-35 17l55 -17l31 -20l22 -41l7 -33l12 -26zM94 1092l-10 14l-4 57l31 -24l36 -33l15 -8h63l45 26l23 41l10 -14l-10 -37l-27 -31l-57 -22l-19 8l-20 -8l-29 16zM305 1253l2 -20l-18 -23l-37 78 zM238 1360v-12l-23 -11l10 -22l-28 10zM383 1311l-6 -19l26 19h-20z" />
<glyph unicode="&#xb3;" horiz-adv-x="663" d="M143 692l-22 21l-33 39l-27 39l-8 34l4 43l31 47l31 27l43 6l28 -14l25 -16l10 -62l-14 -37l-27 -16l9 -51l40 -17l50 4l39 23l22 45v33l10 57l-4 21l-24 57l-54 14l68 23l-37 37l-37 18h-22l-88 4l-9 19v45l25 10l23 -6l34 6l97 43l4 6l6 74l-4 80l-10 43l-19 34l-37 13 l-45 2l-63 22l-27 -4l25 27l28 10l56 4l24 8l35 -4v-4l80 -26l18 -23l39 -20l35 2l33 -43l39 -109v-53l-39 -86l-27 6l29 43v104l-6 49l-37 39l4 25l-10 6l-21 -14l21 -15l-8 -41l14 -12l6 -45l-6 -37l-27 -65l-8 -6l-78 -66l35 -22l43 -37l43 -68l16 -37l-2 -69l-26 -78 l-25 -47l-26 -31l-27 -21l-23 -8l-92 -24l-63 6l-31 12zM573 844v-33l-28 -76l-41 -65l-53 -54l-29 -18l-43 -14l-109 -6l-24 6l-78 22l-47 37l33 23l14 -15l72 -35l92 -2l131 66l41 55l22 53l11 56l4 49l-11 68l-16 40l-25 37l-18 19l-4 22l51 -45l25 -39l12 -34l16 -72z M61 1303v43l9 55l28 39l33 -8l12 -23l19 -10l-8 -35l45 -16l22 -21l8 -22l-8 -52l-12 -16l-59 -20l-25 4l-55 65h-4zM244 1190l22 16l17 33l6 29l-6 35l2 32l18 -32l-41 -132l-59 -24h-27l-41 2l-22 10l-19 17l4 43l37 -19l8 -16l43 -6zM270 944l11 -20l4 -21l-23 -4l-22 45 v21zM276 797h-6v-2l-16 12l29 41l6 -35zM180 985h6l35 -20l-65 12zM283 1090l2 8h-19z" />
<glyph unicode="&#xb4;" horiz-adv-x="673" d="M580 1796l4 -27v-34l-37 -45l-43 -13l-33 -22l-20 -15l-43 -28h-33l-31 -6l31 36l2 -20l2 23l18 14l45 18l39 4l23 27l24 6l19 31v37l-8 45l-17 37l-18 8l-4 -64l-13 -30l-30 -21l-25 -4l-31 -22l-65 -41l-45 -11l-29 -24l-65 -33l-41 -10l-31 -17l-64 13l21 28l115 117 l28 14l27 45l18 11l19 37l59 41l12 20h134l49 -18l32 -58zM274 1589l48 -12l-56 -37l-45 -14l-18 -13h-103l-18 13l-8 24l37 -10l100 14zM299 1788l53 -6l-22 37zM365 1726l-7 13l-18 -13h25z" />
<glyph unicode="&#xb5;" horiz-adv-x="1075" d="M240 -233h-17l-37 6l-14 63l10 39l4 47l23 23l-33 22l33 29l-33 12l6 72l-8 47l6 45l-2 37l-6 72l21 20l2 23l18 16l-2 25l6 43l-22 -9l-5 -16l-16 16l16 21l-14 26l6 31l29 8l-39 29v59l-8 27l8 47l8 19l-8 82v30l-8 19l10 37l8 63l-10 23l18 12l-28 -4l-78 14v29l80 12 l-8 37l-47 14l-33 19l-23 45l15 16v29l16 8h35l63 -12l78 6l86 -10l12 -25l7 -43l-9 -25l6 -53l-6 -20l2 -23l-4 -102l8 -105l-4 -39l4 -32l-4 -37l15 -39l-11 -29l7 -28l-7 -25v-53l7 -70l-4 -53l8 -19v-41l22 -30l29 -2l41 8l27 -4l40 10l31 31l17 26l12 37l-2 37l6 76 l2 -19l12 -16l37 33l-10 35v49l-4 -31l-29 -41l-8 68l4 110l-2 41l6 13l-8 53l2 71l-10 19l8 41l-14 39l-23 10l23 41l-4 41l-9 8l-92 6l-26 23l-2 41l6 28l16 13h49l68 4h78l-29 -64l14 -14l23 27l22 -19l19 19l22 10l-22 41h30l46 -19l-13 -135l4 -33l-10 -47l6 -22 l-4 -68l-12 -31l-35 -2l14 -26l33 -4v-54l8 -28l-8 -23v-71l8 -64l-8 -20v-39l8 -78l4 -103l43 29l9 31l-15 33l15 49l-4 28l4 82l-4 23l4 27l-9 22l5 23l-5 24l9 27l-19 35l10 20v37l9 29l-4 34l24 64l10 -25l-8 -80l8 -40l2 -46l-10 -28l10 -74l-6 -90l6 -29l-2 -82l6 -22 l-6 -55l9 -17l-3 -45l15 -37l-6 -47l-31 -49l-55 2l-23 -6h-92l-55 8l-11 10l19 19l2 45l-8 39l-23 -13l-2 -45l-18 11l-68 -47l-78 -31l-71 -6l-11 -74l7 -25v-88l8 -108l-11 -47l-30 -9h-31l-25 9zM864 59l-55 -22l-29 4l-35 -4l-71 2h-45l-88 18l-21 -8l-69 -12v-37 l-11 -16l11 -25l-2 -39l6 -33l-9 -30l-18 -31l-14 31l8 80l-4 47l10 53l12 37l37 2l47 6l2 12l29 15l49 -23l47 -4h90l41 -6l54 -2zM979 82l-12 -41l-47 -8l-23 53l8 14l8 68v37h7l10 26l53 -8v-47zM455 -260l-4 -16v-21l-9 -16l-14 -15h-33l-18 -8l-64 4l-22 -6l-25 8 l-20 -6l-45 8l4 23l14 18l53 -2l97 -4l26 6l51 49zM823 1034v23l-4 63l10 23l41 4l13 -27h-9v-41l-10 -73l-4 -82l-14 14l-12 -29l-15 78l10 31l23 2zM440 618l-8 31l-10 56l10 40l-8 21l8 47l-8 78l27 10v-51l-5 -21l5 -34l2 -101l-7 -63zM455 522l2 -35l2 -32l-35 8l8 72 l19 34l-23 9l8 24l19 -24v-56zM647 674l31 26l16 29l29 10l-35 9h-29l-4 -39h-26l6 -29l-31 -6h43zM666 838l-13 -25l19 -31l22 33zM606 414v-8l27 -29l4 41zM209 41h20l19 -10l12 18zM86 1067l29 12l-11 17zM440 418l-12 20h23zM258 395l-4 4l-8 -4l2 -8l10 2v6zM307 1079 v-6h6v6h-6z" />
<glyph unicode="&#xb6;" horiz-adv-x="1124" d="M793 4h-76l-25 14l-2 72l6 68l-4 61l2 47l-4 43l-2 72l10 33v127l-4 77l2 89v81l29 -12l18 6l21 -4l-66 31v244l-4 77l8 39l-4 31v82l-20 14l20 33l-20 49l-35 -4l-22 6l-35 2l-33 -4l-18 -49v-92l4 -63l-7 -27v-184l7 -21l-4 -70v-141l-11 33l-37 37l-75 28l-56 2l-69 7 l-35 12l-19 18l-22 4l-33 33h-14l29 -49v-20l-37 12l-9 24l-43 41v50l-34 67l-13 109l6 86l23 82l20 53l27 20l49 47l115 58l37 10l59 -2l39 8h60l32 6h37l29 -10l57 4l15 -18l18 22l55 -16l27 8l59 -8l23 -12v20h51l39 -12l-4 -74l-10 -37l-101 6l6 -80v-81l9 -15l-5 -41 l5 -47l-9 -39v-59l4 -117l-4 -35l-2 -49l2 -94l-2 -39l-4 -80l-37 -35l6 -28l29 -9l2 -73l6 -74l-4 -35l13 -18l-9 -76l-6 -18v-195zM430 588l21 -2l43 24l12 -35l18 58l11 -8l-3 -80l11 -72l-8 -43v-39l-3 -80v-88l11 -88v-117l-19 -16l-47 -4l-51 10l-14 23l-4 67v90 l-2 78l-5 78l2 82l3 88v61zM930 0l8 -25v-22l-8 -23l-15 -22l-79 -10l-66 10l-22 39l73 -6l21 4l30 14l7 31l10 84l-4 26l4 27l2 102l-6 43l4 68l-8 22l4 60l6 37l-10 22l16 60l14 -15l11 -22v-27l-11 -55l9 -51l-5 -25l7 -43v-190l8 -60v-53zM911 1198l-4 -29v-73l4 -25 v-88l4 -86l-8 -23l8 -151l5 -82l-5 -66l-26 -10l-4 13h-4l16 90l14 16l-30 27l8 22l-10 19v77l10 19l-6 31l-4 73l-5 66l11 18l-6 56l6 69l-6 23l10 30zM594 1210v23l6 18l2 37l35 4v-18l-12 -76l6 -74l-13 -26v-68l17 4l2 -28l-6 -27l4 -84l2 -90l-37 8v166l-6 57l12 62v86 zM637 74l-2 -39v-94l-10 -37l-50 6l-51 -6h-59l-68 12l19 37l69 -12l39 8h51l23 -8l8 45l-8 28l27 78zM635 508l-4 -21l8 -28l-2 -58l-8 -32v-56l6 -22l-4 -23l-19 -18l-18 84l16 24l-20 52l4 30l12 52l-8 45l12 18l-4 31h29l-10 -31l10 -27v-20zM401 719l-30 14l-43 6 l-60 54l121 -11l35 -71l-16 -29zM1034 1403l2 -51l-10 -27l-39 43v115l43 -25zM907 1315l51 -15l-55 -40l-6 -23l-6 55zM618 154l-16 14l10 49h13l4 -45zM764 1434l18 12l31 24l-39 13zM442 1059l-8 20l-22 -10l-6 -27zM727 -88l8 -12l-28 -2l-11 43zM449 750v36l18 -12 l12 -18zM762 299l12 6l21 12l-25 5l-22 -13zM981 1300l35 7l-17 -23zM434 856l8 12l-16 15zM365 973l4 8l-21 2zM795 383v-6h6v6h-6z" />
<glyph unicode="&#xb7;" horiz-adv-x="487" d="M395 776l-4 -26l-18 -9l-13 -26l13 -25l-31 -39l-10 -2l-8 -6l-37 -2l-45 -27l-29 4l12 23l31 10l41 4l22 23l9 27h4l10 24l-2 39l-16 43l-21 -18v-25l-31 -39l-55 -33l-61 -4l-6 -24l-23 -21l-31 39l-14 66l-10 32l-4 39l32 -6l19 12l-8 21l8 18v37l37 19l63 4l53 -33 h47l46 -29z" />
<glyph unicode="&#xb8;" horiz-adv-x="729" d="M637 -137l4 -39l-4 -2v-23l-8 -20l4 -25l-15 -18l-22 -64l-59 -49l-48 -6l-61 -8l-94 -2l-27 10l-8 16l45 -6l47 4l23 9l20 -5l72 17l35 24l39 41l12 25l6 63h16l-14 35l-10 45l-45 58l4 -33l-17 -19l-36 -22l-9 -10l58 -31l-21 -78l-41 -33l-30 -18l-39 -8l-37 -2 l-23 -6l-32 4l-82 8l-76 12l-33 31l-10 16h-37l-25 13l17 32l-17 19l25 22l29 -8l55 -4l25 -14l83 -29l33 -2l53 14l11 58l-60 4l-53 18l-2 41l14 -22l29 -9h53l-22 50l-39 2l-62 20l9 55l20 74l23 37l53 -21l-8 -28l10 -56l57 35l4 68l27 -10l-6 -41l2 -31l18 -23l19 -10 l49 -31l14 25l21 -10l47 -31l47 -61v-37zM203 -354l2 -6l-43 28l-8 -18l-37 22l2 29l37 -18z" />
<glyph unicode="&#xb9;" horiz-adv-x="544" d="M158 758l4 10l-6 96l6 68l-6 72l2 57v94l-2 100l-88 5l14 47l68 -2l8 24l-19 41l-73 4l-7 19l9 55l53 4l4 -4l59 22l27 27h72l8 -20l-2 -56v-47l2 -59l-2 -94v-119l-23 -21l23 -28v-72l6 -80l-4 -102l12 -62l55 -10l-18 -41l14 -8h-82l-36 6l-27 -12l-37 6l-82 -4l-8 33 v38zM455 684l2 -33l-6 -63l-33 -4l-33 4l-74 2l-71 -4l-56 -4l-78 4l-22 8l18 29l66 4l92 -4l68 4l34 -4l48 18l8 90l14 25l21 -33zM373 768l-19 23l-4 59l-2 49l6 70l-4 26l4 86l-4 70l27 29h10l-10 -47l8 -41l-4 -33l6 -31l-10 -18l8 -82l6 -111l-4 -49h-14zM348 1374 l-4 56v67l33 8l18 -10v-39l-4 -80l-2 -78l2 -79l-41 4l-2 51l14 14l-8 45zM362 1192l-14 -6v24z" />
<glyph unicode="&#xba;" horiz-adv-x="798" d="M346 670l-37 12l-43 6l-6 66l-18 22h77l3 4h61l35 29l6 27l12 71l13 11l-13 12l6 37v120l7 50l-7 45v45l-12 114l-29 23l-36 2l32 39l-55 41l-20 -10l-37 -9l-37 -45l-23 -84l4 -30l-6 -23l-4 -90l4 -47l-4 -55v-76l6 -156l17 -26l-29 -27l-8 -66l-10 -32l-35 28l-37 41 l4 37l-12 49l-35 70l20 10l-20 13l-12 26v33l-13 135v51l13 51l2 43l59 134l4 26l23 23l51 37l41 26l39 2l82 4l61 -14l55 -37l21 -22l18 -11l29 -34l8 -27v-16h4l4 -21l6 -8l13 -29l18 51l31 -79l-43 20l6 -25l2 -43l-29 -14l29 -6l-2 -68l6 -39l-14 -120l-23 -80l-41 -101 l-49 -57l-22 -8l-19 -19l-43 -18zM709 985l-2 -24l-5 -37l-30 -99l-43 -82l-13 -34l-18 -29l-25 -4l-26 12l45 6l-23 13l29 43l8 34l19 11l10 36l24 13l-20 8l39 55l-16 15l8 67v129l26 -10l11 -78l-5 -20zM532 647l29 -2l-26 -22l-86 -33l-33 2l-39 -4l-37 2l-31 18l15 15 h63l82 20l33 14l4 -18zM301 1153l8 98l10 49l15 27h12v-72l-8 -47v-37l-14 -63zM340 1016l-12 -35l10 -23l-10 -32l6 -21l-19 -16l-6 74v36zM401 754v-15l29 11z" />
</font>
</defs>
</svg>
