<?xml version="1.0" standalone="no"?>
<!DOCTYPE svg PUBLIC "-//W3C//DTD SVG 1.1//EN" "http://www.w3.org/Graphics/SVG/1.1/DTD/svg11.dtd" >
<svg xmlns="http://www.w3.org/2000/svg" xmlns:xlink="http://www.w3.org/1999/xlink" version="1.1">
<metadata></metadata>
<defs>
<font id="woodlandoutline" horiz-adv-x="1075" >
<font-face units-per-em="2048" ascent="1638" descent="-410" />
<missing-glyph horiz-adv-x="512" />
<glyph horiz-adv-x="0" />
<glyph horiz-adv-x="682" />
<glyph unicode=" "  horiz-adv-x="512" />
<glyph unicode="&#x09;" horiz-adv-x="512" />
<glyph unicode="&#xa0;" horiz-adv-x="512" />
<glyph unicode="!" horiz-adv-x="442" d="M96.5 957q1.5 26 11 45t18.5 29.5t32.5 19t42.5 12.5t59 10q45 7 67.5 -15.5t20.5 -69.5q0 -3 -0.5 -9.5t-0.5 -10.5q-12 -57 -15.5 -116.5t-2 -146.5t1.5 -117q0 -12 2 -66.5t-2 -67.5q-1 -19 -1.5 -38.5t-1.5 -36t-12.5 -28.5t-33.5 -15q-4 -1 -22 -6.5t-26 -7 t-24.5 -3.5t-24.5 1.5t-17 10t-11.5 21t0.5 35.5q-1 4 -5 40t-10 83.5t-11 77.5q-6 39 -5 74q1 21 -1 46.5t-5 42.5t-8 46.5t-7 43.5q-8 46 -8 52q-2 38 -0.5 64zM119 134q3 24 31 55.5t50 35.5q65 12 71 5q56 -7 79 -31t23 -76q0 -99 -101 -138q-9 -4 -26.5 -4.5t-41 6.5 t-43 22t-32.5 47.5t-10 77.5zM155 860q1 -48 16 -147.5t14 -152.5q0 -113 5 -153q3 -26 14.5 -34.5t36.5 -5.5q27 4 40.5 24t13.5 48t-1 62q1 29 -4 172q-1 31 1 66t5.5 79.5t4.5 65.5q0 6 -1.5 29.5t1.5 30.5q10 50 3 58.5t-58 9.5q-52 1 -63 -7.5t-22 -57.5q-8 -33 -6 -87 zM173 113q-9 -50 38.5 -72.5t91.5 11.5q36 28 8 104q-8 23 -47.5 29t-55.5 -12q-11 -11 -16.5 -18t-7 -10t-5 -14t-6.5 -18z" />
<glyph unicode="#" horiz-adv-x="1099" d="M116 311q-8 30 24 66q6 8 14 8q40 1 66.5 15t40.5 38t21.5 48t17 55.5t20.5 50.5q-15 10 -30 13t-33 3t-26 2q-49 10 -55 54q-8 52 44 71q26 10 90 12q61 2 81.5 18t32.5 72q3 16 15 43t15 42q13 61 62 50q24 -5 42.5 -30t17.5 -51q0 -12 -4 -23.5t-10.5 -25t-9.5 -21.5 q-4 -12 -9.5 -25.5t-8.5 -19.5t-4.5 -13t-0.5 -9.5t6.5 -4t14 -1t23.5 2.5q60 8 91 5q69 -5 89 66q9 29 33 85q9 22 20 35q36 38 65 28q32 -11 28 -63q0 -5 -2 -19t-2 -22q0 -11 -7.5 -29.5t-10 -28.5t6.5 -28q11 -13 42 -14t37 -3q39 -12 37 -38q-6 -55 -38 -69 q-56 -24 -87 -23q-57 1 -77 -61q-2 -6 -9.5 -25t-10.5 -30q-14 -48 -4.5 -64.5t57.5 -28.5q2 -1 8 -2.5t8.5 -2t8 -2t8 -2.5t7 -3.5t6.5 -4.5l5 -5t4.5 -6.5t2.5 -8t1 -9.5q1 -25 -15.5 -43.5t-39.5 -18.5q-27 0 -49 -5t-38 -17.5t-27 -23.5t-21 -32.5t-15 -34.5 t-13.5 -39.5t-12.5 -37.5q-1 -3 -4.5 -12.5t-5.5 -13.5t-6.5 -10t-11.5 -10q-5 -3 -16 -11t-17.5 -11.5t-17 -2.5t-21.5 10q-12 10 -16.5 14.5t-13 15t-10.5 18.5t-1 19.5t7 24.5q5 11 34 84q18 44 -27 45q-31 1 -70 1.5t-55 0.5q-23 1 -36 -12t-24 -37q-7 -16 -21.5 -49 t-22.5 -49q-13 -28 -37 -44q-34 -21 -60.5 -5t-27.5 59q0 8 1.5 17.5t4 21.5t3.5 18q6 38 8 53q-4 6 -8.5 8.5t-7 3t-8.5 0t-8 -0.5q-36 -1 -47 39zM397.5 412.5q7.5 -9.5 68.5 -2.5q11 1 50 1q52 1 80 5.5t41 17.5t15.5 25t7 42.5t12.5 55.5q7 27 9 31q9 25 -1 35.5 t-35 9.5q-3 0 -13 0.5t-18 0.5q-25 8 -65.5 -8.5t-65.5 -13.5q-4 0 -7 -1.5t-5.5 -5t-4.5 -6.5t-4.5 -8t-4.5 -8q-28 -47 -46 -106q-21 -55 -13.5 -64.5z" />
<glyph unicode="$" horiz-adv-x="765" d="M138 338q3 22 12 40q16 33 35 30q15 -2 26 -31q5 -14 8 -20.5t11.5 -14.5t22.5 -11q14 22 19.5 48.5t4.5 44.5t-4.5 49.5t-4.5 45.5q0 11 -7 19.5t-20.5 18.5t-17.5 14q-70 64 -63.5 161t84.5 149q27 17 19 53q-12 52 32 126q13 21 25.5 21.5t28.5 -19.5q6 -8 10 -18 t5.5 -17t3.5 -19.5t3 -18.5q1 -5 -2 -22t2.5 -25.5t27.5 -8.5q20 0 26.5 10t3.5 22.5t3 23.5q2 4 4 14t3 13q10 31 32 35q20 3 37 -27q17 -28 20 -59q9 -74 59 -98q8 -4 15 -11t10.5 -12t10 -15.5t9.5 -14.5q39 -56 5 -113q-8 -16 -24 -11t-29 16.5t-28.5 24.5t-23.5 15 l14 -167q4 -2 11.5 -7t28 -34t37.5 -73q13 -57 17 -95.5t-10 -93.5t-55 -93q-24 -22 -25 -49q-3 -54 -13 -68q-25 -36 -50 -35q-11 0 -18.5 7t-10 12.5t-7.5 18.5q-1 2 -3 20t-4 21q-13 20 -34 20t-34 -21q-2 -4 -4 -23.5t-5 -23.5q-30 -45 -63 -40q-9 1 -15 7.5t-8 11 t-4 17.5t-2 15q-16 84 -64 116q-88 60 -73 149zM374 436q-1 -6 4 -42q-3 -19 -2.5 -27.5t3 -28t3.5 -27.5q2 -26 25 -29q28 -4 34 19q21 78 0 146q-8 27 -39 25q-24 -1 -28 -36zM376 769q-62 -121 78 -141q2 24 -7 141q1 19 -2.5 25t-22.5 9q-27 4 -46 -34z" />
<glyph unicode="%" horiz-adv-x="1069" d="M137 786q8 71 77 113t135 15q52 -20 75 -94q25 -80 -16 -167q-31 -65 -88.5 -75.5t-110.5 39.5q-83 77 -72 169zM233 768.5q-12 -19.5 5 -44.5q16 -16 23 -21t17 -7.5t15 -4.5q15 -6 34 20q21 34 14 57.5t-25 35.5t-31 9q-5 0 -22.5 -12.5t-29.5 -32zM281 61 q-18 71 25 130q52 73 64 159q3 23 26 59.5t27 58.5q12 61 63 176t62 178q9 53 44.5 116t46.5 107q1 6 4.5 14.5t13 20.5t20.5 13q7 6 39 2.5t41 -18.5q11 -15 11.5 -25.5t-4 -23t-4.5 -22.5q-3 -27 -27 -72q-19 -36 -36 -85.5t-32 -80.5q-52 -108 -67 -160q-9 -30 -33 -81 t-30 -66q-25 -63 -63 -181.5t-50 -152.5q-20 -59 -62 -91q-27 -21 -48.5 -14.5t-30.5 39.5zM589 351q16 119 92 176q45 32 117 12.5t99 -68.5q3 -6 15 -25.5t16.5 -30t8.5 -30.5t2 -41q-5 -51 -64 -102.5t-118 -52.5q-58 -1 -116.5 53.5t-51.5 108.5zM712 379 q-18 -57 37 -69q49 -10 60 24q20 33 -1.5 67t-54.5 21q-31 -11 -41 -43z" />
<glyph unicode="&#x26;" horiz-adv-x="1093" d="M105 286q3 91 65 197q17 28 21 42q13 55 78 95q9 6 22 13.5t17 10t10 8.5t5.5 10.5t-3 14.5t-8.5 20.5t-17 29.5q-56 96 -35 212q9 49 50.5 95.5t97.5 54.5h27q81 9 147 -48q79 -66 70 -191q-7 -103 -96 -186q-13 -12 -20 -20.5t-11 -13.5t-1 -12t4 -9.5t11.5 -13 t14.5 -15.5q13 -15 28 -34t24.5 -33t25.5 -37.5t24 -34.5q16 -23 24.5 -29.5t17.5 -2t23 25.5q3 4 39.5 46.5t44.5 73.5q4 18 35.5 25t60.5 -2q37 -11 39 -56q0 -32 -15 -51q-16 -22 -45.5 -80.5t-54.5 -84.5q-13 -15 -13 -28t13 -30q66 -87 117 -126q20 -15 25 -27.5 t-4 -23.5t-32 -23q-65 -35 -118 20q-3 3 -8 7.5t-7 6.5q-8 7 -23.5 25t-28 29.5t-26.5 16.5q-18 7 -32 -2t-28 -29t-22 -26q-116 -89 -298 -74q-28 2 -74 30q10 -6 3 -6q-21 2 -64 34q-105 78 -100 206zM269 338q-7 -45 3.5 -79t32 -52t49.5 -26t58.5 -3t57.5 20 q42 18 92 30q4 3 16.5 13.5t16.5 14.5t10.5 14.5t6 19t-5 22t-15.5 29.5q-2 3 -8.5 9.5t-9.5 10.5q-15 25 -54.5 64.5t-54.5 61.5q-31 49 -46.5 51t-55.5 -39q-2 -1 -5.5 -4t-4.5 -5q-15 -16 -28 -38t-20.5 -37t-18.5 -41t-16 -36zM400 874q-2 -68 15 -100q11 -23 29 -21 q21 3 49 30t34 51q7 27 -4 56.5t-32 44.5q-30 22 -63 11q-12 -4 -18.5 -14t-7.5 -18t-2 -23v-17z" />
<glyph unicode="'" horiz-adv-x="425" d="M129 1003q48 62 123 39q51 -16 67.5 -38t18.5 -79q0 -5 -0.5 -14.5t-0.5 -14.5q-2 -49 -32.5 -80.5t-85.5 -59.5q-44 -23 -63 -10t-15 62q3 31 -11 49q-56 76 -1 146zM138.5 922.5q1.5 -11.5 9.5 -23.5q9 -11 15.5 -28.5t9 -33t6 -29t9.5 -20t16 -3.5q11 4 20 9t17 12 t13.5 12.5t11.5 15t9 13.5t8.5 14t6.5 12q13 22 10 41q-1 35 -24.5 62t-61.5 18l-19 -9.5t-19 -10.5t-19.5 -14.5t-12.5 -16t-5.5 -21z" />
<glyph unicode="(" horiz-adv-x="565" d="M86 512q-6 47 24 155q17 62 41.5 122.5t45 100t61.5 114.5q6 10 34 44q18 22 26 30.5t20.5 15t25.5 2.5t32 -17q10 -7 32 -19t32 -19q63 -44 19 -99q-19 -24 -35.5 -52.5t-34.5 -65t-29 -55.5q-51 -49 -64 -156t10 -217t69 -175q7 -18 28 -49t26 -40q20 -36 18 -55.5 t-29 -50.5q-25 -30 -35 -38q-39 -35 -71 -29.5t-63 49.5t-74 149.5t-70 147.5q-18 28 -27 66.5t-10 63.5t-2 77zM138 530q-6 -190 68 -285q15 -20 30.5 -67t23.5 -62q12 -21 60 -74q32 -35 70 0q31 28 6 63q-41 60 -81 149q-16 36 -25 78t-11 71.5t-4.5 80t-4.5 76.5 q-6 75 34 164q53 120 78 158q4 6 10 16q37 56 38 73q1 22 -37 54q-8 7 -22 18q-7 6 -11.5 6.5t-6 -2.5t-6 -9.5t-10.5 -11.5q-30 -24 -43.5 -46t-31.5 -63q-39 -91 -59 -140.5t-40.5 -120t-24.5 -126.5z" />
<glyph unicode=")" horiz-adv-x="606" d="M85.5 126q3.5 19 27.5 34q128 77 168 271q42 207 -16 392q-4 11 -8 21t-10 21.5t-10 18.5t-13 20t-12 17.5t-13.5 19t-12.5 17.5q-35 49 3 85q2 1 5 5t5 6q7 6 12.5 19.5t13 23.5t21.5 11q46 2 90 -47q79 -89 127 -211q47 -118 56 -169q7 -41 4 -77q3 -37 -2.5 -80.5 t-11 -66t-19.5 -73.5q-64 -236 -175 -367q-42 -49 -74.5 -52.5t-79.5 40.5q-4 4 -18.5 17t-21 19.5t-15 19t-13.5 24.5q-11 22 -7.5 41zM160 97q3 -17 37 -50q27 -25 38 -24t39 30q87 93 131 209t73 274q2 12 3 25.5t1 26v16.5q-8 141 -92 297q-34 65 -93 118l-5 5t-6 5.5 t-5.5 4t-6.5 3t-7 -0.5t-8 -3q-25 -13 -25 -44q0 -20 21 -47q23 -29 39 -72q49 -126 47 -287q-2 -144 -35 -252.5t-123 -191.5q-26 -25 -23 -42z" />
<glyph unicode="*" horiz-adv-x="573" d="M115.5 979.5q-1.5 3.5 0.5 8t5 7t11.5 11.5t16.5 18q40 14 85 -37q8 -10 13 -14q0 14 3.5 33.5t1.5 35.5q0 34 14 40q6 6 25 10.5t31 -2.5q10 -8 13 -15.5t2 -14t2 -16.5q5 -23 0 -53q-3 -20 -3 3v23v11q-1 -18 -1 -52q13 9 32 15.5t33 16.5q34 21 52 -13.5t-6 -62.5 q-16 -15 -47 -26q-19 -7 2 5q5 3 17 9l12 7q-16 -8 -46 -26q1 -1 9.5 -9t22.5 -15q8 -3 30 -18.5t21 -26.5q2 -9 -4.5 -29t-17.5 -24q-6 -9 -12 -10t-10.5 2.5t-12 8.5t-13.5 6q-38 11 -47 20l14 -7q-5 3 -14.5 9t-11.5 7q0 -4 0.5 -13t0.5 -14q0 -7 1 -18t1 -17t-2 -15 t-7 -17t-9.5 -12t-11.5 -6t-11.5 -2t-15.5 0.5t-17 0.5q-18 11 -23 44t4 57q4 11 5 19l-30 -18q-36 -21 -73 -20q-21 7 -31 50q21 46 71 57q6 1 18 5q-22 12 -33 19q-38 23 -54 54q-4 7 -5.5 10.5z" />
<glyph unicode="+" horiz-adv-x="645" d="M62 577q6 44 24 63t42.5 17t54.5 -2q74 -6 71 63q-1 50 2 112q1 17 3.5 26.5t11.5 18.5t25 10q73 4 89 -43q10 -29 10 -88q0 -14 0.5 -44t0.5 -47q30 -6 66.5 -6.5t48.5 -1.5q55 -3 63 -71q5 -23 1 -42.5t-22 -29.5q-10 -6 -23.5 -9t-23 -3.5t-26 -1t-24.5 -0.5l-24 -1.5 t-18 -2.5t-13.5 -2.5t-8.5 -5.5t-5.5 -7.5t-2.5 -12t-2 -14.5t-0.5 -20.5t-1.5 -25.5v-30t-2 -37q-4 -29 -23 -45.5t-51 -13.5q-28 3 -48.5 19.5t-23.5 40.5q-1 31 3 61t7 45t4 28t-7.5 17t-25.5 6.5t-52 1.5q-9 2 -28 3t-28.5 3.5t-21 9.5t-16.5 22t-5 40z" />
<glyph unicode="," horiz-adv-x="331" d="M80 215q48 62 122 39q51 -16 67.5 -38t18.5 -79v-29q-5 -111 -98 -158q-44 -22 -72 -3t-23 69q3 31 -14 53q-56 76 -1 146zM95.5 130q0.5 -9 3.5 -20q14 -17 27 -47t20.5 -50t11.5 -20q28 0 44.5 19t27 50.5t12.5 35.5q4 6 6 17l3 11q-1 28 -26 49t-60 31q-2 -1 -11 -5 t-12 -5.5t-11.5 -6.5t-11.5 -8l-9 -9t-8 -12l-4.5 -13.5t-2 -16.5z" />
<glyph unicode="-" horiz-adv-x="663" d="M122.5 548.5q-0.5 8.5 2 24t2.5 21.5q-4 33 14 52t44 17q24 -1 75 -4t88 -2.5t75 5.5q63 -1 90.5 -17.5t28.5 -65.5q0 -17 -0.5 -25t-5.5 -21t-14.5 -19t-29 -10t-48.5 -3q-161 -7 -271 2q-20 2 -31.5 8t-15 17.5t-4 20z" />
<glyph unicode="." horiz-adv-x="331" d="M42 118q2 50 45 90t90 36q52 -4 89 -45t35 -94q-1 -53 -41 -88.5t-93 -32.5q-52 3 -89.5 43.5t-35.5 90.5zM93 123q-4 -27 17 -52t50 -29q31 -4 57.5 17.5t28.5 53.5q5 68 -70 73q-32 2 -55.5 -16t-27.5 -47z" />
<glyph unicode="/" horiz-adv-x="708" d="M58 101q5 28 16 60.5t20 52.5t27.5 59t24.5 52q72 157 102 225t76.5 196.5t69.5 235.5q4 22 20 59q19 43 33.5 48.5t61.5 -10.5q91 -30 117 -45q43 -24 36 -86l-1 -5q-1 -5 -3 -12t-6 -12q-32 -47 -73 -142t-61 -130q-22 -36 -27 -66q-9 -44 -47 -110q-22 -38 -41 -88.5 t-28 -82.5t-25 -95q-18 -70 -69 -163q-35 -63 -104 -65.5t-112 56.5q-15 21 -7 68zM115 121q-11 -46 37 -71q24 -13 46 -8t33 25q6 11 20 33t23.5 40t15.5 36q54 170 73 220q17 43 34.5 91t28.5 76t26 57q14 27 56 132.5t78 157.5q22 33 10.5 56.5t-53.5 32.5q-3 1 -16.5 1 t-18.5 3q-17 12 -29 8t-17 -12.5t-10 -25.5q-72 -261 -256 -645q-6 -11 -19.5 -38t-20.5 -42.5t-17 -38.5t-15.5 -44.5t-8.5 -43.5z" />
<glyph unicode="0" horiz-adv-x="1050" d="M67 666q5 14 12 44t11 42q19 62 63 116q100 126 231.5 173t263 9t233.5 -154q66 -74 91.5 -161.5t33.5 -213.5q3 -41 -7 -76q-17 -185 -117.5 -299t-269.5 -150q-138 -50 -255 -1t-199 166q-7 10 -21.5 35t-23.5 37q-104 199 -46 433zM122 648q-74 -229 45 -410 q76 -116 167 -170t216 -39q270 33 391 307q21 95 27 130t4 76.5t-18 85.5q-10 75 -44 135t-109 140q-54 68 -150 93.5t-181 2.5q-12 -3 -50.5 -13t-52 -14t-44.5 -15.5t-46.5 -23t-37.5 -30t-37 -43t-28 -55.5q-12 -30 -21 -56t-17.5 -55t-13.5 -46zM260 554q13 77 52 158 q3 6 10.5 13t10.5 13q53 82 119 105t153 -5q23 -12 47.5 -31.5t52.5 -51.5t49 -69.5t31 -88.5t4.5 -105.5t-35.5 -122t-85 -137.5q-21 -17 -31 -25.5t-30.5 -21t-35 -16.5t-33.5 -3t-37 11q-11 7 -26 12q-91 33 -145 90t-69 127.5t-2 147.5zM309 505q-4 -114 62.5 -189.5 t171.5 -79.5q91 -4 125 57q95 164 49 331q-20 69 -98 133q-59 48 -123 39.5t-108 -70.5q-90 -124 -79 -221z" />
<glyph unicode="1" horiz-adv-x="595" d="M44.5 823.5q0.5 9.5 10.5 20t14.5 14t21 12.5t19.5 11q29 17 70 51t87 61q23 29 50.5 44t54.5 17.5t58.5 3t60.5 0.5q28 1 46 -40q15 -34 15 -71q-1 -82 0.5 -259t-0.5 -258q-1 -38 0.5 -195.5t-4.5 -195.5q-2 -32 -21 -43.5t-49 -5.5q-63 14 -99 6q-57 -12 -73 51 q-16 59 -4 117q14 95 13 150.5t-7 151.5t-4 152q3 82 -2 108q-12 -14 -36 -31.5t-30 -24.5q-26 -30 -58 -33t-59 23q-48 47 -59 101q-10 20 -13 36.5t-2.5 26zM99 789.5q6 -22.5 19.5 -41.5t28.5 -31q20 -15 45 -11.5t37 20.5q5 4 22 21q74 70 91 61q6 -3 7 -16 q0 -7 2 -29.5t2 -34.5l-6 -300q0 -25 8 -76.5t7 -78.5q-3 -79 -9 -155q-5 -60 22 -62q89 -6 105 -2q24 7 27 46q0 5 -2 143q-3 113 4 231q-8 207 -3 323.5t2.5 159t-23.5 43.5q-12 1 -42 -1t-49 -3t-30 1q-21 -14 -76.5 -47.5t-103 -65t-74.5 -58.5q-17 -14 -11 -36.5z" />
<glyph unicode="2" horiz-adv-x="978" d="M62 167.5q0 18.5 1 31.5t6 24.5t9 18.5t13.5 15.5t15.5 13t20 14t22 15.5q37 34 156.5 120.5t177.5 121.5q66 44 91 123q17 51 -1.5 88.5t-64.5 47.5q-42 9 -79 -18t-46 -75q-1 -8 -2 -23t-3 -22q-7 -36 -16 -42q-20 -15 -46 -21t-43.5 -5.5t-50.5 4t-46 4.5 q-60 3 -60 76q3 56 11 102t17.5 71t19 42t15 24t4.5 8q137 134 330 140q42 0 68.5 -7t54 -22t42.5 -21q6 -2 17.5 -9.5t14.5 -9.5q109 -62 144.5 -174.5t-22.5 -222.5q-28 -52 -76.5 -105.5t-105 -113t-93.5 -112.5q36 14 78.5 16.5t75 -2.5t73 -9.5t67.5 -2.5 q31 2 52.5 -20t21.5 -58q0 -18 0.5 -47.5t0.5 -41t-1.5 -31.5t-5.5 -27t-12 -18.5t-19.5 -15t-30 -8.5t-42 -6t-56.5 -1q-35 0 -158.5 1.5t-203.5 0t-158 -7.5q-22 -2 -65 2q-63 5 -82 23t-26 82q0 4 -1 14t-1 14q-2 23 -2 41.5zM142 98q3 -14 13 -21t20 -7t26.5 1t23.5 1 q367 -22 604 4q11 1 19 6t12.5 10.5t8 16t4.5 16t2.5 18.5t1.5 15q7 54 -41 58q-51 4 -88.5 6t-70.5 1t-45 -1t-47 -3.5t-42 -4.5q-67 6 -78 12q-17 10 -2 45q3 8 12 11t13 8q28 35 97 99t96 96q104 125 127 208q9 31 9.5 58t-9 51t-19.5 41.5t-33 39.5t-39 35.5t-48 37.5 q-83 59 -196.5 49.5t-205.5 -77.5q-36 -31 -59.5 -69.5t-31.5 -72.5t-9.5 -63.5t3 -46.5t10.5 -17t40 -2.5t60 -1.5t38 8q12 8 16 27.5t2.5 39.5t1.5 40q5 25 18 40.5t23.5 20t36 11t37.5 11.5q31 12 72 5.5t66 -28.5q30 -21 35.5 -67.5t-13.5 -99.5q-31 -93 -154 -198 q-1 2 -52.5 -37.5t-121 -92t-100.5 -73.5q-26 -13 -38 -72.5t-5 -91.5z" />
<glyph unicode="3" horiz-adv-x="915" d="M63 213q3 23 45 56q32 26 48 38q43 33 61 32t61 -41q40 -37 129 -48.5t136 14.5q66 35 67 97q0 6 -1 12t-2 10.5t-4.5 9.5t-5.5 8t-7.5 7.5t-7.5 6.5t-8.5 6.5t-8.5 5.5t-10 5.5t-9 5.5q-29 16 -78 24t-85 4q-88 -8 -96 -8q-54 2 -67 15t-9 64q2 25 -1 54.5t-4.5 44.5 t6.5 29t31 20q23 10 70 28.5t65 27t46.5 27.5t52.5 44q-98 6 -158 3q-6 0 -18 -4t-17 -4q-13 0 -41.5 -2t-45 -2.5t-38 6.5t-35.5 23q-17 19 -19.5 59t2 73.5t-4.5 65.5q-5 16 21 23q30 8 34 8q170 -3 498 7l40 1q-5 0 -22 -1q68 4 113 -30.5t43 -96.5q-5 -113 -26 -158 t-97 -85q-3 -6 -47 -33q-4 -7 13.5 -16.5t45.5 -23.5t56 -33t47.5 -52t18.5 -74q18 -50 14 -108t-26 -111q-48 -113 -134 -180t-199 -75t-226 29.5t-177 123.5q-32 45 -29 68zM137.5 199q-0.5 -4 1 -13t11 -18.5t27.5 -22.5q21 -23 50.5 -39t67.5 -30.5t58 -25.5q2 -1 9 -1 q70 -20 159.5 5t168 92t107.5 157q9 54 3 117q-2 4 -6.5 27t-12.5 41t-25.5 42.5t-53.5 46t-88 36.5q-43 14 -44 28q27 18 52.5 45t37.5 33q19 13 45.5 29.5t45.5 29.5q29 20 34.5 46.5t-3.5 68.5t-9 59q-1 63 -71 61q-423 -9 -476 -9h-12h-12t-9.5 -1t-9 -3.5t-6 -7 t-5.5 -11.5t-2 -17t-1 -23q1 -54 22 -66.5t84 -11.5q67 1 212 -3q12 0 33.5 2.5t33.5 0.5q3 -7 2.5 -14t-1.5 -11.5t-5.5 -9.5t-7.5 -7.5t-9.5 -7.5t-8.5 -7q-18 -14 -50.5 -44.5t-60 -51t-58.5 -33.5q-29 -12 -43 -17.5t-26 -13t-14 -11.5t-3.5 -13.5t0.5 -17.5t4 -26 t2 -36q5 -15 17 -20t23.5 -3.5t28.5 5t24 3.5q55 2 122.5 -14.5t114.5 -42.5q52 -30 65 -89.5t-21 -109.5q-32 -47 -101.5 -73t-124.5 -12q-10 2 -43.5 8t-59 13t-40.5 16q-27 34 -51 44.5t-40 0t-24.5 -20.5t-12.5 -20q-2 -5 -8 -14.5t-6.5 -13.5z" />
<glyph unicode="4" horiz-adv-x="995" d="M65.5 288q1.5 18 4.5 50.5t2 54.5q10 60 43 118t78 101q39 37 118.5 181.5t124.5 191.5q12 17 18.5 26.5t17.5 19.5t15.5 14t20 8.5t23.5 5t33 1.5t41 0.5t55 -1.5t68 -1q17 -8 31.5 -27t13.5 -37q-3 -49 -2 -160t-7 -159q-2 -19 -4 -76.5t-5 -77.5q-2 -14 5.5 -22 t16.5 -10.5t24 -4.5q14 -2 37 1t37.5 -1.5t30.5 -22.5q6 -7 13 -97t8 -91q-7 -53 -58 -52q-2 0 -5 -1t-4 -1q-73 -2 -102 -40.5t-14 -130.5q2 -10 -1 -17.5t-13.5 -13.5t-15 -8t-21.5 -8q-60 -22 -138 -18q-65 3 -78 15.5t-11 72.5q2 53 -8 90q-6 21 -18 29t-35 6 q-54 -5 -163 -3q-57 -1 -93.5 6t-54 17.5t-24 32t-5 39.5zM113.5 381.5q-0.5 -13.5 3 -43.5t4.5 -40q1 -11 9 -19t14 -11t22 -10q48 -20 180 -1q10 2 28 5.5t33 6t28 3.5q38 2 55.5 -13t22.5 -53q1 -12 1 -45.5v-45.5q-1 -29 4.5 -46.5t18.5 -24.5t24 -9t32 -2t32 -1 q7 -3 14 -0.5t11.5 1.5t9.5 3.5t8 5.5t6 7.5t5 8.5t4.5 9.5t3.5 10t3 10.5t3 11q8 26 6.5 60t0.5 61q5 31 25.5 40.5t46 6t50 -4t40 19t13.5 64.5q-4 64 -22 80t-85 13q-18 -1 -31 1.5t-20 11t-11 15t-4.5 23t0 26t2.5 33t3 35.5q5 80 22 152q6 23 8.5 51.5t2 46.5t-2.5 53 t-2 48q-1 54 -49.5 72t-103.5 -5q-112 -42 -128 -62q-2 -3 -16.5 -28.5t-39.5 -68t-57.5 -95t-80.5 -122t-98 -135.5q-20 -15 -31.5 -32.5t-14 -40.5t-3 -36.5zM307.5 459.5q0.5 13.5 3.5 20t13.5 23t11.5 18.5q82 143 165 230q2 2 7 9t8.5 9.5t9.5 5t13 0.5q28 -6 32 -42 q1 -13 6 -36.5t5 -30.5q8 -81 0 -136q1 -21 0 -37t-5 -28t-7.5 -20.5t-12.5 -14.5t-15 -9.5t-20 -6.5t-22.5 -4t-27 -3t-29.5 -3q-17 -3 -39 -1q-5 0 -19 1t-21.5 2t-18 4t-18.5 9t-13 15q-7 12 -6.5 25.5zM354 457q-1 -5 4.5 -7.5t15.5 -2.5t23 1.5t28.5 4t29.5 5t28.5 4.5 t24.5 2t16.5 8.5t9.5 25.5t4.5 34.5t0.5 43.5t-2 44t-3 45t-3 38q-40 -32 -95.5 -125t-81.5 -121zM927 273q2 12 2 20z" />
<glyph unicode="5" horiz-adv-x="952" d="M84 205q-47 65 3 122q61 69 112 71t108 -68q40 -47 83.5 -70t76.5 -24t65 9.5t46.5 20t22.5 16.5q32 32 32 57t-32 54q-37 34 -71 36q-27 2 -79.5 9.5t-79.5 9.5t-81 -1q-40 0 -47 -0.5t-47.5 4.5t-47.5 6q-35 1 -42 38t2 77q-5 89 -3 202t19 201q8 40 29 58t60 23 q120 15 170 13q63 -2 179.5 -2.5t162.5 -1.5q70 -1 95 -31t13 -99q-1 -7 -5 -22t-6 -22q-14 -61 -28.5 -73t-78.5 -17q-14 -1 -64.5 -5.5t-64.5 -5.5t-65 -3t-65 1q-51 3 -71 2q-24 -2 -35 -19.5t-6 -43.5q5 -27 19 -31.5t35 4.5q28 1 70.5 4.5t67 5t56 1t57.5 -5.5 q1 0 3 -1t3 -1q65 -28 113 -67.5t71.5 -73t38 -72t16.5 -53t3 -27.5q12 -137 -50 -252q-36 -66 -156 -127q-41 -21 -105 -30t-121 -7.5t-110 9.5q-136 19 -208 126q-10 15 -32.5 39.5t-30.5 36.5zM118 249q75 -80 135.5 -125.5t107.5 -60.5t94.5 -16.5t98.5 6.5q18 2 28 3 q72 7 155.5 72.5t91.5 133.5q2 13 14 63t10 78q-20 101 -83 160q-111 101 -201 101q-136 0 -188 -8q-7 -1 -37 -1q-19 -1 -24 5q-8 12 -18 133q7 25 26 37.5t43 8.5q58 -10 164 1t150 8q57 -4 85 42t4 99q-11 25 -50 28q-2 0 -6 1h-5q-59 6 -165.5 -1.5t-138.5 -7.5 q-136 0 -153 1q-74 5 -94 -64q-18 -64 -16 -106q3 -47 3 -133t1 -109q1 -17 3.5 -37t7.5 -36t11 -15q22 -1 89.5 -1.5t110.5 -3t90 -10.5q12 -2 34.5 -5t34.5 -5t30 -9.5t35 -19.5q32 -22 49 -36.5t30.5 -39t6.5 -47.5q-4 -36 -25 -61.5t-61 -49.5q-26 -21 -87.5 -23.5 t-125 16.5t-90.5 55q-4 6 -12 18.5t-13 18.5q-38 48 -76 25q-92 -55 -74 -83z" />
<glyph unicode="6" horiz-adv-x="872" d="M56 510q35 179 111 297t223 205q9 5 29.5 18t32 20t30 14t36.5 9q43 5 63.5 -6t31.5 -50q14 -49 19.5 -78t6 -53t-10 -36.5t-28.5 -20.5t-49 -13q-58 -2 -128 -89t-79 -145q18 2 91.5 19t106.5 17q96 6 171.5 -31.5t99.5 -123.5q32 -118 -18 -237q-8 -20 -20.5 -40.5 t-28.5 -45t-24 -38.5q-37 -65 -226 -96q-151 -22 -260 50.5t-162 228.5q-11 32 -17.5 113.5t-0.5 111.5zM108 340q-1 -37 29.5 -96.5t62.5 -93.5q45 -38 82 -59.5t81 -33t93.5 -8.5t115.5 18q110 26 159 131q28 59 35 101q38 221 -143 265q-133 32 -251 -27q-45 -22 -57 -25 q-17 -5 -27 3t-6 24q13 45 32.5 94t53 103t66.5 71q97 49 144 72q11 5 16 10.5t4 14t-3 13.5t-9 17t-9 17q-2 4 -5.5 12t-5.5 12t-6 11t-7 10t-8.5 7.5t-11 5t-14 2t-17.5 -1.5q-14 -2 -28 -7t-23 -9t-25 -13.5t-21 -12.5t-24 -16t-21 -15q-118 -82 -188 -218.5t-62 -290.5 q0 -21 -2 -87zM317 359q12 41 43.5 66t77.5 28q112 19 150.5 -28t14.5 -136q-47 -169 -226 -122q-23 5 -35 19q-58 62 -25 173zM361 299q2 -46 22.5 -71t55.5 -24q43 2 82.5 41t38.5 80q-1 37 -26.5 61.5t-63.5 24.5q-46 0 -78.5 -33.5t-30.5 -78.5z" />
<glyph unicode="7" horiz-adv-x="894" d="M63 895q0 27 4 81l1.5 28.5t4 19t5 12t10 6.5t13 4.5t21.5 2.5t28 4q43 6 124 8t117 6q122 14 266 0q27 -3 53.5 -1t54 0t40.5 -12q29 -26 34 -59.5t-4 -81.5t-9 -62q9 -40 -35 -84q-13 -13 -18 -20q-59 -76 -112.5 -175.5l-107 -199t-112.5 -175.5q-10 -13 -26.5 -38 t-23.5 -33q-2 -2 -25.5 -29t-31.5 -41q-34 -54 -52.5 -59t-70.5 22q-9 4 -14 6q-11 5 -29.5 19.5t-31.5 19.5q-41 17 -49 48.5t18 69.5q14 21 28.5 45t27.5 43t32 42q49 58 133 201.5t153 211.5q6 6 25 37q19 32 17 39q-4 9 -22 14q-8 2 -63 1.5t-130.5 -1.5t-170.5 2 q-47 4 -59.5 18t-12.5 60zM114 931q1 -39 14.5 -59t52.5 -11q75 -1 167 -3t124.5 -3t83.5 0q30 1 31.5 -17t-17.5 -53q-10 -20 -19.5 -37.5t-21.5 -37.5t-19 -31t-23 -33.5t-20.5 -29.5t-25 -34.5t-24.5 -33.5q-35 -49 -107.5 -162t-119.5 -173q-1 -2 -9 -11.5t-10 -12.5 t-7 -11.5t-5.5 -14t0.5 -13.5t5 -16q17 -31 38 -46t54 -24q11 -3 21 1.5t14.5 9.5t13 18.5t10.5 16.5q5 7 28 31.5t32 38.5q22 25 136.5 211t176.5 310q16 30 72 102q5 6 7.5 12t4 13.5t2 12t0.5 14.5v14q1 11 3 29t2.5 26t0.5 20.5t-3 23.5t-9 25q-2 4 -4.5 7t-7 5t-6 3 t-9 2.5t-9.5 2.5q-28 2 -73.5 6.5t-76 6t-73.5 0.5q-180 -4 -277 -22q-34 2 -60.5 1t-42 -18.5t-15.5 -55.5z" />
<glyph unicode="8" horiz-adv-x="935" d="M53 255.5v68.5q1 31 7.5 58t25.5 59t27.5 45t39.5 52t35 44q15 18 37 37q18 16 16 26t-32 56q-3 4 -4 6q-53 108 -4 185q52 82 77 107q49 48 123 65q140 31 241 -28q96 -56 128.5 -148.5t-16.5 -190.5q-10 -19 -20 -31q-16 -20 -14 -35.5t24 -32.5q62 -37 101.5 -96 t48.5 -138t-26 -170q-34 -71 -87 -117t-119 -65.5t-127 -25t-134 -0.5q-155 4 -303 146q-23 23 -34 57t-11 66.5zM98.5 308q-3.5 -62 21 -105t62 -77.5t84.5 -55t87 -31.5t71 -13q85 -4 139 5t106 32q53 24 96.5 68t60.5 97q21 64 25.5 109.5t-9.5 84t-42.5 68.5t-78.5 65 q-48 33 -57 46q-16 27 9 64q46 65 54 96q29 105 -38 184.5t-187 80.5q-183 2 -224 -102q-27 -55 -35.5 -100.5t-1.5 -73.5t20.5 -50t28 -34.5t23.5 -23t5 -19.5t-25 -20q-37 -10 -67.5 -37t-47 -53t-40.5 -73q-36 -70 -39.5 -132zM283 279q-25 79 25.5 151.5t131.5 74.5 q9 0 26 1t31 1.5t26 0.5q106 0 149 -65t3 -164q-30 -75 -87.5 -106.5t-150.5 -19.5q-35 9 -60.5 20t-53.5 38.5t-40 67.5zM329 369q-26 -40 12.5 -105t123.5 -64q70 -7 116 24.5t60 88.5q8 32 -2 67.5t-34 51.5q-50 33 -148 10.5t-128 -73.5zM375 784q4 48 51.5 89.5 t93.5 39.5q29 -1 56 -32t35.5 -69t-2.5 -72q-6 -13 -25 -39q-64 -86 -130 -60q-38 15 -61 56t-18 87zM416 779q-4 -29 17 -60.5t51 -34.5q31 -3 63 23t37 58q4 32 -18.5 62t-49.5 32q-40 3 -68 -24.5t-32 -55.5z" />
<glyph unicode="9" horiz-adv-x="884" d="M62 634.5q0 15.5 2.5 36.5t6.5 42.5t8 42.5t7.5 37t5.5 27l3 10q8 20 18.5 37t24 38t21.5 35q20 35 81.5 65t153.5 45q151 22 260 -50.5t162 -228.5q10 -36 9.5 -114.5t-7.5 -113.5q-34 -175 -114.5 -293t-230.5 -206q-8 -5 -29.5 -18t-33 -19.5t-30 -14t-36.5 -9.5 q-39 -5 -53.5 7.5t-26.5 55.5q-40 76 -44.5 115.5t16.5 54.5t76 24q60 2 139.5 81t88.5 133q-13 -7 -33.5 -19.5t-29 -16t-26.5 -9t-39.5 -6.5t-54.5 0q-130 -2 -197.5 51.5t-95.5 154.5q-2 10 -2 25.5zM118 722q-15 -90 23.5 -167t113.5 -97q67 -15 141.5 -5t135.5 41 q47 22 53 24q8 2 18 8q7 4 7 0l-2 -9q-18 -63 -74 -153t-105 -115q-97 -49 -144 -72q-11 -5 -16 -10.5t-4 -14t2.5 -13t8.5 -17.5t9 -17t5.5 -12t5.5 -12t6 -11t7.5 -9.5t9 -8t11 -5.5t14 -2t17.5 2q14 2 27.5 7t23.5 9.5t24.5 13t21 13t23 16t21.5 14.5q123 85 204 222.5 t73 286.5q0 21 2 87q1 37 -29.5 96.5t-61.5 93.5q-45 38 -82 59.5t-81 33t-94 8.5t-116 -18q-58 -14 -95.5 -46t-62.5 -85q-28 -59 -41 -136zM279 738q13 49 74.5 99.5t135.5 31.5q23 -5 35 -19q35 -37 45 -88t-5 -95q-26 -87 -120 -93q-84 -14 -133.5 43t-31.5 121z M322 701q1 -37 26.5 -61.5t63.5 -24.5q46 0 78 33.5t30 78.5q-2 46 -22.5 71t-54.5 24q-43 -2 -82.5 -41t-38.5 -80z" />
<glyph unicode=":" horiz-adv-x="425" d="M83 120q-1 55 37.5 100t86.5 45q66 0 110.5 -41.5t44.5 -102.5q0 -49 -32 -80q-33 -33 -67 -44.5t-85 -3.5q-36 2 -65 43.5t-30 83.5zM92 606q4 46 52.5 83t101.5 35q49 -2 87 -41t36 -86q-2 -70 -39 -105t-104 -32q-57 2 -97.5 46.5t-36.5 99.5zM135 137 q-1 -31 7.5 -50.5t25 -27.5t29 -10t28.5 -2q29 0 60.5 28.5t29.5 53.5t-32.5 53t-59.5 27q-28 -1 -57.5 -24.5t-30.5 -47.5zM161 585q0 -26 23.5 -47t53.5 -22q34 -1 62 26t30 59q1 25 -19.5 42t-52.5 19q-35 2 -66 -22t-31 -55z" />
<glyph unicode=";" horiz-adv-x="425" d="M97 630q4 47 46.5 84t94.5 35q49 -2 87 -41.5t36 -86.5q-2 -70 -38.5 -105t-103.5 -32q-56 2 -91 46t-31 100zM116 245q51 67 133 42q56 -17 74 -40.5t20 -85.5q0 -5 -0.5 -16t-0.5 -16q-5 -121 -106 -172q-48 -24 -78.5 -3t-25.5 75q3 33 -15 57q-61 82 -1 159z M134.5 150.5q0.5 -9.5 2.5 -19.5q16 -19 30 -51.5t22 -54.5t12 -22q31 0 49 20.5t29.5 55.5t13.5 39q4 7 7 18l3 12q-1 30 -28.5 53.5t-65.5 34.5q-1 -1 -10.5 -5t-12 -5.5t-11.5 -6t-11.5 -7t-9.5 -8t-9.5 -10.5l-6 -12t-4 -14.5t0 -17zM154 609q0 -26 23 -46.5t53 -21.5 q34 -1 62 25.5t30 58.5q1 25 -20 43t-52 19q-35 2 -65.5 -22.5t-30.5 -55.5z" />
<glyph unicode="&#x3c;" horiz-adv-x="677" d="M140 427.5q1 25.5 20.5 56t43.5 55.5t64 61q110 98 154 133q46 37 83 21q36 -16 38 -64q3 -39 -23 -65q-9 -9 -11 -10.5t-4 -4t-4.5 -4t-13 -10t-26.5 -23.5q-26 -23 -58 -47t-47.5 -35t-27 -26.5t-7 -30t22.5 -35.5q32 -37 89.5 -74t83.5 -64t13 -64q-15 -42 -59.5 -49 t-85.5 26q-64 37 -181 139q-35 30 -50 59.5t-14 55z" />
<glyph unicode="&#x3e;" horiz-adv-x="663" d="M153 690q-3 -39 23 -65l10.5 -10.5t5 -4t5 -3.5t12.5 -10.5t27 -23.5q21 -19 48.5 -40t40 -31.5t25 -24.5t11 -26t-10.5 -29t-31 -39q-20 -20 -46.5 -41t-46 -34.5t-37.5 -29.5t-26.5 -29t-7.5 -30.5t15 -36.5q49 -67 125 -8q35 20 84 65.5t88 90.5q75 88 74 133.5 t-80 109.5q-36 29 -57 46.5t-31.5 27t-37.5 33.5t-61 53q-44 38 -83 21q-36 -16 -38 -64z" />
<glyph unicode="?" horiz-adv-x="729" d="M80 759q7 66 20 111.5t45.5 86.5t84.5 63q64 12 90 16t79.5 6.5t94.5 -11t79 -41.5q32 -25 43 -45q28 -54 38.5 -116.5t-5.5 -130.5t-63 -115q-96 -96 -111 -168q-15 -75 -94 -61q-9 2 -46 2t-60.5 8t-31.5 30q-12 43 -4.5 72t37.5 71q10 13 41 47t41 48q82 112 64 153 q-4 9 -23.5 23.5t-29.5 14.5q-11 0 -33 -16.5t-23 -26.5q-1 -7 -14.5 -38t-14.5 -39q-8 -20 -42 -34.5t-71.5 -15.5t-65.5 26t-25 80zM123 746q-3 -37 12.5 -49.5t53.5 -5.5q54 9 71 64q10 42 45.5 78t74.5 35q10 0 16.5 -0.5t14 -6t9.5 -8t13 -14.5q22 -24 29.5 -51t0 -57 t-18 -53t-29.5 -56q-5 -7 -57 -53.5t-57 -68.5q-1 -4 -7 -20.5t-6 -26t4.5 -22t24.5 -17.5t54 -2q41 -1 55.5 9.5t17.5 36.5q14 35 28 55.5t34.5 43.5t34.5 42q20 23 29.5 41.5t17.5 44t13 38.5q22 49 10 119t-52 102q-63 52 -134 60q-73 6 -131 -14.5t-93 -59.5 t-54.5 -85.5t-23.5 -98.5zM229 156q3 43 35.5 65t83.5 22q57 0 97 -35t38 -90q-2 -57 -34 -94.5t-76 -35.5q-68 4 -108.5 50t-35.5 118zM271 120q-2 -31 29 -60t72 -30q23 -3 42 19.5t22 51.5q4 36 -14 62.5t-53 33.5q-4 4 -19.5 1.5t-32 -8t-30.5 -24t-16 -46.5z" />
<glyph unicode="@" horiz-adv-x="1044" d="M145 576q-7 47 0 91t29 87.5t41.5 72.5t54.5 75q20 26 61.5 49t73.5 28q100 15 198 7q91 -7 138 -30.5t104 -90.5q11 -14 24 -34t28.5 -61.5t18.5 -82.5q1 -57 -5 -90.5t-25 -92.5q-11 -33 -35 -51q-96 -69 -248 -71q-72 4 -113 14q-54 15 -84.5 48t-47.5 92q-14 46 1 90 q23 71 102.5 109.5t149.5 12.5q80 -30 106.5 -63.5t42.5 -123.5q60 62 26 143q-16 39 -28 62t-36 49.5t-54 41.5q-106 53 -220 9q-28 -11 -113 -59q-23 -12 -36 -42q-70 -162 15 -334q58 -115 207 -172q102 -38 170 32l30 30q58 50 101 -10q24 -32 1 -58q-2 -2 -6.5 -7.5 t-6.5 -7.5t-6.5 -7t-7 -7.5t-7 -6.5t-7.5 -6.5t-7 -6t-8 -6t-8.5 -5t-9.5 -4.5q-211 -91 -364 -10q-110 58 -173 137.5t-63 195.5q0 36 -4 64zM477 577q1 -46 24.5 -70t65.5 -23q36 1 60.5 26.5t22.5 60.5q-5 68 -107 65q-27 -1 -47 -18.5t-19 -40.5z" />
<glyph unicode="A" d="M53 39q1 14 8 31q43 102 141.5 363t163.5 403q35 76 63 145q10 24 24 40.5t26.5 24t32 10t32.5 2t35.5 -2.5t33.5 -2q35 -1 56.5 -21.5t37.5 -65.5q93 -262 284 -724q35 -85 67 -183q13 -40 -1 -57.5t-56 -15.5q-53 3 -148 11q-45 4 -65 56q-33 90 -61.5 110t-126.5 23 q-34 2 -70 2h-24q-49 -1 -93 -14q-49 -15 -60 -51q-23 -74 -66.5 -104t-123.5 -31q-3 0 -15.5 -0.5t-20.5 -0.5t-21.5 1.5t-21.5 4.5t-17 9t-12 14.5t-2 22.5zM116.5 62.5q-0.5 -6.5 2.5 -10t9 -4.5q19 -3 35 -3q66 0 102 53q9 14 31 41t31 41q22 32 45 47t59 15 q26 0 124 12q18 2 35 2q58 0 116 -23q74 -30 96 -82q39 -92 137 -92h12q5 0 15 -1t16 -1t13 3t5 11.5t-6 24.5q-46 115 -92.5 239.5t-108.5 296.5t-87 241q-3 7 -10.5 22t-10.5 24q-18 61 -37 75q-11 8 -29 8q-14 0 -33 -5q-19 -2 -39 -0.5t-36 2.5t-33.5 -18.5t-31.5 -62.5 q-53 -158 -105 -252q-44 -80 -93.5 -244t-89.5 -241q-7 -13 -32 -86q-1 -2 -4 -10t-4 -12t-1.5 -10.5zM420 443q9 17 17 34.5t15 39.5t11 35.5t10.5 41t9.5 37.5q15 51 26 69q23 39 53 39t50 -39q50 -100 92 -266q6 -26 -11.5 -38t-45.5 -14q-1 0 -152 -6v-2q-5 1 -14.5 1.5 t-17 1.5t-14.5 3q-38 10 -38 35q0 12 9 28zM482 469q-13 -33 22 -41q7 -2 15 -3t16 -1.5t10 -0.5h22t21.5 0.5t16.5 2.5t18 6q38 19 22 47q-12 22 -28 64t-22 56q-14 33 -35 32q-20 -1 -30 -31q-5 -13 -21.5 -59.5t-26.5 -71.5z" />
<glyph unicode="B" d="M75 160q2 62 7 379h-2l6 369v27q6 76 33 101.5t104 26.5h36q189 0 367 -29q44 -7 90.5 -38t80 -75.5t47.5 -96.5q5 -21 5 -41q0 -31 -13 -61q-4 -8 -5.5 -24t-2.5 -19q-5 -20 -6.5 -32t-2 -20.5t4.5 -16t8.5 -11.5t16.5 -15.5t22 -19.5q11 -11 40 -36t42 -39.5t31 -41.5 t27 -61t11 -79q-2 -12 -7.5 -50t-10 -60.5t-19 -52.5t-37.5 -48q-27 -26 -88.5 -48.5t-125.5 -29.5q-207 -23 -423 -23q-76 0 -154 3q-32 1 -47 28q-35 64 -35 124v10zM140 324q-1 -19 -1 -33q0 -20 1 -33q2 -23 11 -81.5t10 -69.5q8 -58 57 -58q7 0 14 1q16 4 57 3h36 q47 -1 72 -1h21q21 -2 43.5 -3t40 -1t45 2t40 3t44.5 5l40 5t45 6t41 6q39 6 70.5 18.5t49.5 24.5t32.5 31t20 30t12.5 29t8 21q1 9 5.5 32t5.5 32t2 28t-1.5 31t-9 29.5t-17.5 33.5q-59 71 -84 92q-34 27 -82 50q-29 13 -37 39.5t5 56.5q3 8 10.5 21t9.5 18q23 52 23 89 q0 12 -2 22q-10 43 -66 90q-79 66 -174 80q-51 7 -156 13t-159 14q-16 2 -28 2q-25 0 -35 -10q-12 -12 -12 -49q0 -8 1 -16q2 -32 2 -88.5t-2 -138.5q-1 -47 -1 -85q0 -97 7 -142q2 -13 2 -26q0 -23 -6 -44q-9 -35 -11 -79zM258 830q0 41 39 41q17 0 77 2q27 1 49 1 q27 0 49 -2q38 -2 77 -11q37 -9 58 -27.5t34 -53.5q8 -24 8 -46q0 -46 -36 -86q-31 -33 -75 -53t-72 -24.5t-81 -10.5q-67 1 -85 14.5t-27 67.5q-15 93 -15 188zM262 300q-1 7 -1 14q1 46 29 86q32 46 85 53q58 9 115 9q131 0 256 -47q56 -21 61 -99v-11q0 -67 -56 -100 q-15 -9 -31.5 -14t-32 -7t-33 -3t-33.5 -0.5t-33 -0.5q-10 0 -22 0.5t-29.5 2t-31.5 2.5q-63 -5 -100 -6h-4q-60 1 -96 31q-37 32 -43 90zM339 693v-18q0 -41 8 -49q8 -7 43 -7q11 0 25 1h53q48 4 84 35.5t36 68.5q0 64 -106 84q-56 12 -90 12q-32 0 -46 -10 q-16 -12 -16 -49q0 -27 9 -68zM353 300q8 -39 24.5 -54t57.5 -18q20 -1 68 -1q14 -2 30 -2q55 0 137 19q62 15 67 60v7q0 45 -63 64q-5 1 -68 18q-20 5 -44.5 7t-41 1.5t-45.5 -2.5t-42 -2q-63 -3 -77 -20q-8 -10 -8 -33q0 -18 5 -44z" />
<glyph unicode="C" d="M62 493q-9 36 -9 74q0 60 23 123q34 94 117 208q21 28 55 52t59 35.5t70 29.5q125 52 221 53q25 0 47 -4q20 3 39 3q30 0 60 -7q50 -12 84.5 -30t85.5 -49l4.5 -3l4.5 -3t5 -3q37 -23 37 -69q0 -13 -3 -27q-4 -19 -29 -77q-15 -31 -33 -40t-54 5q-24 12 -71.5 27 t-58.5 19q-47 17 -93 17q-96 0 -186 -77q-110 -96 -110 -219q0 -46 16 -96q17 -54 73 -105q57 -50 131 -72q29 -8 59 -9q46 0 92 20q13 6 33 15t28 13t21.5 12t21.5 16.5t19.5 22t24.5 32.5q11 18 31 22t30 -9q71 -56 100 -85.5t31 -47t-12 -32.5q-166 -215 -386 -240 q-35 -4 -68 -4q-142 0 -246 73q-28 20 -64 36q-71 33 -108 115q-48 105 -92 285zM117 602q-3 -29 -3 -59q0 -162 98 -324q31 -53 77 -77q192 -104 280 -104q70 4 110.5 9.5t76 22.5t55 32.5t63.5 55.5q3 3 18.5 18t21.5 20q14 11 20 16.5t15.5 17.5t9 24t-10.5 24 q-23 28 -47 34t-46 -15q-51 -57 -117 -87q-59 -27 -121 -27h-16q-150 15 -207 58q-72 78 -104 162q-28 73 -28 137q0 10 1 20q5 72 31.5 133t71.5 106q43 36 81.5 60t84.5 40q40 14 83 14h11q49 -2 101 -24q8 -4 36.5 -10.5t41.5 -16.5q18 -13 46.5 -14.5t40.5 12.5 q8 20 9 34.5t-6 23.5t-14 14t-19 11t-16 9q-56 39 -154 46q-25 2 -49 2q-212 0 -379 -134q-62 -50 -100.5 -119t-46.5 -145z" />
<glyph unicode="D" d="M45 889q-4 22 -4 41q1 43 21 68q30 37 104 51q51 9 103 11h21l83 -5q52 -6 98 -15t102 -24q11 -5 47.5 -18.5t61.5 -25t60 -30t66.5 -45t58.5 -58.5q48 -53 80 -110t45 -101q14 -46 19 -94q3 -32 3 -55v-21q-2 -28 -7 -60t-5 -36q-1 -16 -22 -53t-60 -83.5t-87 -91 t-109 -79t-118 -43.5q-116 -18 -220 -18h-30q-68 0 -81 1h-37t-37 0.5t-35 9t-32 25.5q-66 79 -66 176q0 15 2 31q8 71 8 147q0 101 -14 210q-4 35 -4 62v10q1 25 1 50q0 87 -16 173zM123 900q9 -48 9.5 -136.5t2.5 -112.5q13 -171 13 -299q0 -94 -7 -165q-1 -6 -1 -13 q0 -27 10 -57q7 -24 19 -35.5t40 -16.5q76 -14 156 -14q146 0 303 47q113 34 202 158q88 123 88 250q0 45 -17 95q-32 95 -98.5 165.5t-163.5 128.5q-160 96 -375 96q-61 0 -127 -8q-36 -5 -48.5 -23t-5.5 -60zM238 797v8q0 35 30 59q30 23 76 23q7 0 15 -1q107 -7 218 -48 q107 -38 162.5 -108.5t84.5 -186.5q6 -27 6 -58q0 -34 -8 -71q-14 -71 -57 -107q-7 -6 -30 -28t-34.5 -31.5t-32 -22t-40.5 -16.5q-10 -2 -43.5 -9.5t-44 -9t-44 -7t-44.5 -4t-45 0.5q-1 0 -4 0.5t-5 0.5q-46 2 -70.5 7t-40.5 24.5t-22 42t-14 74.5q-11 67 -11 180 q0 27 1 55q1 51 1 93q0 86 -4 140zM318 741q1 -21 1 -187q0 -162 1 -234q1 -29 9.5 -46t36.5 -18q32 -2 62 -2q119 0 196 29q54 20 93 78.5t47 122.5q2 17 2 34q0 46 -16 87q-40 85 -156 148q-103 56 -191 56q-11 0 -22 -1q-34 -3 -49 -18t-14 -49z" />
<glyph unicode="E" horiz-adv-x="980" d="M67 778q-2 19 -2 46q0 49 7 125q6 61 31 83t85 24q136 3 415 7l255 9q25 0 39 -34q7 -19 7 -52q0 -43 -12 -109q-1 -8 -5.5 -14t-13 -10t-14 -6t-18 -4.5t-16.5 -3.5q-69 -19 -155 -19h-5q-10 0 -20 1q-77 0 -141 -4q-57 -5 -85 -5h-14q-33 2 -50 -11.5t-25 -46.5 q-11 -41 -1 -57.5t52 -18.5q39 -2 235 -2h64q74 -2 90.5 -17t26.5 -90q1 -10 1 -20q0 -87 -115 -100q-114 -13 -218 -13q-35 0 -68 1h-14q-38 1 -52 -9q-17 -12 -18 -45v-6q0 -55 19 -81q20 -28 67 -33q38 -3 91 -3q105 0 269 12q14 1 28 1q57 0 87 -21q38 -26 49 -97 q3 -23 4 -43q-1 -48 -21 -70q-25 -28 -88 -27h-13q-54 -14 -212 -14q-37 0 -81 1q-113 2 -186.5 2t-109.5 -2q-37 -4 -56 8t-34 47q-58 135 -58 320q0 42 3 86q5 72 5 140q0 92 -9 175zM128 889q-4 -32 -4 -71q0 -70 13 -162q4 -45 5 -73q0 -6 -1 -11q-1 -30 -5.5 -84.5 t-4.5 -84.5v-21q0 -116 20 -221q17 -92 101 -95q15 0 91 -3t104 -3q28 -2 87 -2h23q45 0 81 2q45 2 91 6q25 1 43 3.5t36.5 6.5t29 11.5t17 18t5 25.5t-11.5 35q-24 35 -39.5 47t-39.5 7q-36 -8 -53 -11q-45 -9 -110 -10h-32q-47 0 -88 2q-24 1 -50 1q-35 0 -74 -2 q-90 11 -108 115q-2 12 -9 45.5t-10 52.5q-2 12 -2 22q0 27 14 39q19 16 69 19q49 3 90 3q47 0 82 -4q17 -2 40 -2q28 0 66 3q68 6 83 6q59 0 59 54v7q-4 57 -66 57h-2q-16 -1 -29 -1q-33 0 -52 4q-60 12 -124 12q-49 0 -100 -7q-15 -2 -28 -2q-31 -1 -47 11q-24 16 -30 67 q-3 24 -3 45q-1 55 19 83q23 34 81 34q9 0 18 -1q68 -6 143 -5q106 0 225 11q8 1 61 14q20 5 38 28t14 46q-3 24 -18 39t-36 11q-19 -3 -57 6t-59 3q-39 1 -75 1h-36h-57q-9 1 -19 1q-50 -1 -130 -13q-96 -14 -138 -14q-54 -1 -73.5 -22t-27.5 -79z" />
<glyph unicode="F" horiz-adv-x="948" d="M78.5 475q-0.5 17 1.5 36t4 32.5t6 36t6 33.5q4 25 4 59q0 46 -7 106q-12 106 -13 133v11q0 74 26 104q21 23 69 22q17 0 37 -2q64 -9 129 -9t131 9q98 14 184 13.5t158 -13.5q63 -12 63 -64v-9q-1 -5 5 -63q1 -10 1 -18q0 -46 -22 -68q-26 -26 -89 -27q-69 0 -369 -10 q-36 1 -48 -9.5t-7 -53.5t15 -53.5t54 -8.5q20 7 44 10t41.5 4t49 -1.5t43 -3.5t47.5 -6t41 -6q33 -5 43 -30q20 -54 20 -98q0 -28 -8 -52q-14 -41 -35 -54.5t-64 -18.5q-10 -2 -34 -2q-16 0 -39 1q-38 1 -58 1h-15q-36 0 -60 -2t-40.5 -9t-25 -13t-13 -23t-5.5 -30t-1 -41 t9 -86q8 -53 8 -82v-6q-2 -77 -25 -99.5t-98 -23.5h-45q-85 9 -107 37q-14 19 -14 56q0 19 4 43v46v8q0 31 6 126q3 43 2 73q0 46 -6 62q-3 16 -3.5 33zM146 885q0 -9 8 -54q11 -72 11 -139q0 -64 -10 -123q-8 -47 -8 -91q0 -37 6 -71q9 -54 9 -108t-9 -108q-6 -34 -6 -62 q0 -15 2 -28q7 -59 80 -59h7q48 2 48 57q0 25 4 81q2 27 1 45q0 21 -2 32q-3 23 -3 45q0 43 11 81q4 13 8 22t7 16t10 11.5t10 7t14 4.5t15 2.5t20 2t23 2.5q32 3 119 9t118 10q26 3 36 10t11 22t-2 40q-2 20 -3 26t-4 18.5t-7 16t-11.5 7.5t-19.5 5q-66 4 -119 4 q-102 0 -157 -14q-39 -1 -57 14t-12 59q2 16 -2 46t-1 47q8 50 19 59.5t62 5.5q18 -1 41 -1q61 -1 159 9q110 11 172 12q14 0 25 -1h5q51 0 51 64q0 32 -10 49t-41 21q-41 5 -86 5q-56 0 -117 -8q-18 2 -42 2q-52 0 -132 -9q-95 -11 -148 -11q-12 0 -22 1h-17 q-41 -1 -52 -13q-12 -14 -12 -58v-13z" />
<glyph unicode="G" horiz-adv-x="1058" d="M46 395q-3 41 -3 81q0 116 27 215q35 132 138 235q52 51 118.5 78.5t157.5 45.5q12 5 51.5 3.5t57.5 -2.5t54 -5t41 -5q51 -5 81 -14.5t76 -41.5q38 -26 42 -51q1 -4 1 -9q0 -24 -16 -61q-23 -65 -50 -86q-21 -16 -65 -16q-11 0 -23 1q-32 2 -126 40h-16q-83 0 -150 -49 q-72 -53 -103 -141q-19 -53 -19 -109q0 -36 8 -72q14 -64 71 -115t128 -67q26 -5 52 -5l90 17q13 6 65 46q13 10 22 26.5t6 29.5q-2 7 -8 11.5t-15.5 6t-17 1.5t-19 -0.5t-15.5 -0.5q-5 0 -14 -2t-13 -2h-54t-48.5 13t-31.5 40q-11 32 -14 56.5t6 55.5t34 58q19 20 39.5 33 t45.5 18.5t41.5 7.5t48 2.5t44.5 1.5q20 1 45 -4.5t48 1.5q38 0 63.5 -9t34.5 -18t23 -29q43 -96 43 -164v-11q-4 -84 -34.5 -158t-78.5 -127.5t-110 -92t-129.5 -57t-135.5 -18.5q-109 0 -196.5 38.5t-178.5 114.5q-106 90 -119 265zM125 307q25 -68 71 -119 q16 -13 35.5 -32t39.5 -34.5t55 -35.5q18 -10 51.5 -17.5t60.5 -10.5t65.5 -6t45.5 -4q36 -3 64.5 -3t49 2t38.5 7.5t30.5 11.5t27.5 17t26.5 20.5t30 25t36.5 28.5q39 28 72 101.5t41 148.5q2 21 2 41q0 51 -14 92q-10 23 -23.5 34.5t-37.5 10.5q-2 -2 -29 -2q-23 0 -63 1 q-88 3 -103 3q-7 6 -19 6q-18 0 -47 -15q-45 -24 -45 -52v-4q1 -12 2 -17.5t3.5 -17t6 -16.5t10.5 -12t16.5 -9t24 -2t32.5 4q49 -2 73 -5q44 -5 58 -25q7 -11 7 -31q0 -14 -4 -32q-8 -31 -11.5 -42.5t-14.5 -31t-27 -32.5q-29 -31 -109 -53q-55 -15 -110 -15l-50 3 q-125 41 -197 150q-52 78 -52 157q0 32 8 64q25 101 128 223q45 55 138 76q36 9 64 9q44 0 69 -21q23 -17 65 -22q16 -2 29 -2q25 0 45 6q8 3 12 7.5t8 14t8 15.5q19 23 15.5 46.5t-43.5 44.5q-88 46 -185 52q-15 1 -30 1q-81 0 -155 -27q-88 -32 -162.5 -103t-117.5 -172 q-9 -21 -14 -70.5t-12 -68.5q-15 -61 -15 -124q0 -68 26 -137z" />
<glyph unicode="H" d="M88 115q7 48 7 191q0 56 -1 130q-3 204 -3 288v34q0 27 3 75q4 57 4 78q0 25 -5 71q-4 30 22 52q25 22 59 21h3q17 1 73 7q32 4 55 3q18 0 30 -2q31 -6 41 -21.5t12 -55.5q1 -28 0 -63t-3 -78.5t-3 -61.5v-9q0 -69 30 -99q24 -23 70 -23q17 0 37 3q22 4 52.5 4.5 t56.5 6.5q51 12 62.5 26t11.5 64q0 8 1 56q0 24 0.5 44t-0.5 36q-1 30 -6 57q-2 11 -2 22q-1 33 19 53q26 28 79 30q24 3 45 3q73 0 111 -35t38 -103q0 -20 -3 -42q-11 -82 -12 -243t-3 -196q-1 -26 -1 -64q0 -52 2 -124q2 -51 2 -91q0 -60 -4 -96q-5 -61 -63 -69 q-31 -5 -58 -5q-50 0 -87 16q-65 27 -65 79q0 5 1 10q1 11 1 25q0 34 -7 85q-7 47 -7 80q0 17 2 30q1 6 1 11q0 49 -57 56q-27 1 -46 1h-25q-24 -2 -70.5 -8t-69.5 -8q-16 -1 -24.5 -12.5t-10 -21.5t-2.5 -30q-4 -137 -9 -184q-1 -5 -2 -19.5t-2 -21t-3.5 -19t-7 -19 t-11 -15t-16.5 -14t-24 -8.5q-39 -10 -74 -10q-73 0 -125 45q-8 8 -18 41q-3 12 -1 37zM147 908q6 -60 7 -151q0 -49 -2 -109q-2 -74 -3 -133q0 -75 4 -128q3 -56 3 -80.5t-2.5 -77.5t-2.5 -81v-6q0 -54 33 -74q26 -16 49 -16q17 0 33 9q37 20 41 75q4 45 6.5 117.5 t4.5 103.5q6 83 73 83h5h22q39 0 111 4q48 3 81.5 3t51.5 -3q55 -7 68 -19t26 -68q8 -35 8 -73v-13q0 -33 -2 -70q-2 -31 -1 -55v-18q4 -71 91 -71q32 0 43.5 17.5t13.5 49.5q1 27 4.5 93t4.5 99t2 85v49.5v45.5q-1 42 -4 82q11 273 11 345q0 74 -84 77q-39 2 -53.5 -12.5 t-17.5 -59.5q-3 -38 -8 -239q-1 -31 -16 -46.5t-48 -21.5q-8 -2 -38 -7.5t-38.5 -7t-32.5 -5t-36 -4t-32 -1.5t-38.5 0t-39.5 3q-70 8 -100.5 38t-32.5 98q-1 15 2.5 43t3.5 39q5 103 5 138v14q-3 32 -82 32q-21 0 -47 -2q-29 -3 -40 -32t-7 -59z" />
<glyph unicode="I" horiz-adv-x="405" d="M70 81v17q4 63 4 142q0 32 -1 66q-1 40 -1 76q0 71 3 122q-1 22 -1 45q0 69 7 152q1 17 1 41q0 40 -4 98q-5 71 -5 116v23q3 55 21 69q11 8 38 9q16 0 36 -3q8 -1 39 0.5t42 3.5q39 -1 56.5 -3t25 -13t6 -21t-5 -41t-3.5 -59v-89q0 -148 5 -235v-51q-1 -69 1 -165 q1 -75 2 -128q0 -42 -1 -71v-39t-2 -54q-3 -54 -19 -73.5t-66 -21.5q-19 -1 -38 -1q-51 0 -106 6q-11 1 -18.5 9t-10.5 22t-4 25t-1 26zM124 98q-2 -16 1.5 -26t10 -12.5t14.5 -3.5t15.5 0t12.5 0q18 -3 33 -4q72 0 75 79q1 15 1 38q1 53 -3 147q-2 49 -2 87q0 69 5 106 q-12 228 -12 357q0 34 1 61q0 7 1.5 25.5t1 23.5t-4 15t-12 11.5t-24.5 2t-41 -3.5q-37 1 -43.5 -7.5t-8.5 -56.5q-2 -43 -2 -120t-2.5 -141t-10.5 -123q0 -5 3.5 -80t5.5 -90q-2 -143 -15 -285z" />
<glyph unicode="J" d="M88 470q2 41 20.5 60t59.5 21q9 1 27 1q44 0 138 -4q27 -2 40.5 -15t14.5 -42q0 -5 1.5 -34t2.5 -40.5t5 -32.5t10 -38q20 -57 47 -88q26 -31 72 -31h3q47 1 83 31.5t57 79.5q44 105 44 177v9q0 6 2 136q3 43 3 73v21q-2 35 -9 104.5t-8 104.5v14q0 56 14 72q16 18 80 19 q13 0 37.5 1t44 1.5t37.5 0.5q31 -1 50 -15t29 -46q10 -33 10 -77q0 -42 -9 -95q-14 -75 -14 -161q0 -24 1 -49q1 -21 1 -45q0 -60 -4 -137q-8 -90 -36 -161t-64.5 -117.5t-100.5 -107.5q-54 -49 -165 -67q-52 -5 -89 -5q-28 0 -47 3q-66 4 -121 35t-114 84 q-102 117 -145 288q-8 32 -8 65v7zM160 412q3 -37 18 -77.5t29 -66.5t43 -72q70 -112 225 -141q32 -6 49 -6.5t51 3.5q123 9 218 98t107 215q13 143 13 162q0 22 -2 56t-1 58.5t7 56.5q21 115 21 191q0 37 -5 65q-7 39 -23 47q-9 5 -34 5q-15 0 -37 -2q-17 -1 -28 -3.5 t-21 -8.5t-15 -17.5t-4 -29.5q0 -9 2 -39.5t2.5 -41.5t1.5 -36.5t0.5 -40t-1 -36t-2 -40t-4.5 -37.5q-5 -41 -6 -141t-9 -149q-15 -90 -98 -176q-15 -16 -35.5 -25t-34 -11t-39.5 -4q-28 -1 -58 8t-61.5 29.5t-57.5 62t-39 98.5q-2 6 -7 44.5t-10 50.5q-10 26 -82 26 q-11 0 -25 -1q-17 0 -28 -7.5t-14.5 -21.5t-4.5 -22.5t-1 -22.5z" />
<glyph unicode="K" d="M80 943q1 28 1.5 38.5t4 28t4.5 22t9 14t13 10.5t21 5t27.5 5t37.5 3q10 1 49 6.5t60 4.5q39 -1 53 -18t9 -57q-3 -23 -3 -110.5t-14 -134.5q-2 -11 -3 -22q0 -41 40 -61q23 -11 60 2t51 38q22 40 98 197q13 28 37 84q30 67 91 67q12 0 26 -3q18 -4 54.5 -5t54.5 -4 q53 -11 53 -52q0 -13 -5 -29q-15 -47 -43 -91q-78 -120 -123 -236q-11 -23 -30.5 -46.5t-27 -35t-7.5 -32.5t22 -51.5t68 -79.5q31 -43 107 -123.5t109 -128.5q3 -4 14 -18q10 -13 16 -23q8 -14 8 -24q0 -22 -71 -80q-18 -11 -47 -11q-20 0 -42 4q-58 12 -103 42 q-25 16 -55.5 51.5t-48.5 62.5l-18 27q-30 23 -70.5 73t-56.5 66q-7 7 -18.5 22t-22 25.5t-22.5 17.5q-18 11 -39 11q-16 0 -32 -6q-39 -13 -38 -45q0 -3 4 -115q4 -86 4 -133q0 -65 -21.5 -85t-89.5 -20q-43 0 -64 3q-71 9 -72 78q0 25 -6 145q-4 80 -4 136q0 28 1 49 q1 26 1 61q-1 82 -7 208q-6 118 -6 199q0 42 2 74zM135 580v-14q0 -36 7 -102q5 -48 5 -82q0 -23 -2 -40q-4 -15 -4 -47q1 -25 3 -63q5 -72 4 -100v-9q-1 -35 25 -53q25 -17 67 -17h5q25 0 36.5 11.5t10.5 27.5t-1 32q-4 52 -3.5 116t3.5 142q3 51 25 67q14 11 41 11 q14 0 30 -3q90 -16 108 -38q25 -31 80.5 -92.5t80.5 -92.5l95 -108q27 -24 47 -38t47.5 -27t51 -7.5t40.5 29.5q22 10 -6 48t-71 77q-26 22 -66 71t-70.5 90t-32.5 43q-43 38 -62 64q-20 26 -20 60q0 32 28 67q13 22 78.5 128t98.5 166q4 7 15 20.5t17.5 22.5t6 23t-13.5 27 q-12 12 -40 12q-15 0 -33 -4q-54 -10 -72 -31q-10 -12 -33 -55q-14 -27 -52 -104t-60 -118q-25 -47 -73 -66q-35 -14 -75 -14q-15 0 -31 2q-47 6 -57 17t-7 29q-4 31 -4 66q0 74 16 167q3 29 3 50q-1 36 -9 44q-7 6 -31 6q-23 0 -62 -5q-55 -7 -65 -17.5t-11 -66.5 q-1 -18 -2.5 -138.5t-5.5 -183.5z" />
<glyph unicode="L" horiz-adv-x="978" d="M79 129q12 123 12 125q11 74 11 164.5t-4.5 144.5t-14.5 163q-5 50 -5 95q0 102 25 180q14 43 28.5 54t59.5 11q48 -1 131 -16q13 -2 20.5 -13t8.5 -29.5t0.5 -34.5t-3 -38.5t-2.5 -29.5q-1 -12 -1 -28q0 -39 4 -99q4 -70 4 -108v-15q-4 -121 -4 -214q0 -37 1 -69 q1 -69 17.5 -85t86.5 -21q28 -2 57 -2q45 0 93 4q80 8 126 8q7 0 25.5 1.5t28.5 0.5q82 -3 101 -23t22 -103q2 -38 2 -64q0 -39 -4 -50q-9 -27 -51 -35q-24 -3 -95 -7q-84 -4 -329 -6q-15 1 -118 11t-168 16q-30 3 -49 37q-16 30 -16 64v11zM132 919v-11q0 -35 14 -129 q10 -70 10 -134q0 -39 -4 -75v-36q0 -91 -7 -274q-1 -23 0 -44q0 -64 6 -118q1 -15 12.5 -24t23 -11.5t19.5 -1.5q11 1 26 1q40 0 107 -6q57 -5 96 -5q24 0 40 2q51 6 81 7h13q27 0 63 -2q46 -4 85 -5q25 1 55.5 -2t51.5 0q26 3 30 39q1 11 1 21q1 54 -27 82q-24 24 -66 24 q-15 0 -33 -3q-70 -12 -151 -13.5t-121 -4.5h-12q-47 0 -89 26q-46 30 -53 81q-12 83 -12 222q0 65 3 143q4 158 4 221v22q0 13 2 33t2 27.5t-6 17t-21.5 12t-44.5 1.5q-19 4 -34 4q-25 0 -37 -12q-20 -20 -27 -75z" />
<glyph unicode="M" horiz-adv-x="1406" d="M15.5 53q0.5 7 1 11t3.5 13l4.5 13.5t6 15.5t6.5 16q15 33 26 64t22 68t19 59q39 113 93 330t87 317q15 48 47 69q31 20 79 20h5q13 0 40 -2t41 -2q64 0 91 -63q3 -7 43.5 -77.5t58.5 -114.5v-1q25 -61 32 -63q5 -1 11 10q4 8 10 25q2 5 11.5 31t15 41t16 41t19 43t19 35 t20.5 29q6 6 14.5 16.5t13.5 16.5t14 15t16 12.5t18.5 8.5t21 3t25.5 -3q10 -2 39 1t59.5 -6t62.5 -42q29 -55 56 -165t36 -137q24 -70 50.5 -186.5t40.5 -164.5q6 -20 16 -51.5t16.5 -51t14 -52t7.5 -53.5t-2 -55q-8 -51 -19.5 -64.5t-60.5 -25.5q-36 -8 -53 -9h-15 q-36 0 -55 12q-22 15 -36 62q-13 44 -33 129t-31 125q-10 34 -26 104.5t-31 116.5q-1 3 -4.5 26t-9.5 38t-15 15q-11 0 -19.5 -14.5t-16.5 -38t-10 -27.5q-17 -36 -68 -112t-69 -116q-25 -55 -84 -55q-12 0 -26 2q-32 5 -49 16t-23 40q-3 15 -9.5 31t-16.5 37.5t-14 30.5 q5 4 15 13t15 13q37 -71 43 -80q21 -32 50.5 -34.5t53.5 26.5q43 52 67 107q16 26 32.5 56t26 47.5t24.5 46.5q24 47 35 65.5t26.5 36.5t26 9t23.5 -34t28 -76q22 -72 49 -197.5t46 -191.5q2 -8 9.5 -40t13.5 -48q16 -49 41 -67q17 -12 39 -12q11 0 23 3q45 11 59 39 q8 15 7 36q0 19 -6 44q-18 73 -62 217q-28 92 -68 247.5t-60 225.5q-12 43 -41.5 79t-60.5 37q-9 1 -17 1q-59 -1 -102 -25q-49 -28 -66 -87q-11 -41 -25.5 -85.5t-45 -104t-57.5 -61.5h-2q-18 0 -42 44q-24 46 -42.5 100.5t-33.5 104t-18 53.5q-54 70 -115 70h-5 q-64 -3 -114 -81q-13 -21 -25.5 -47.5t-19 -43.5t-18.5 -53t-16 -47q-12 -33 -18.5 -123t-34.5 -134q-20 -32 -27 -76q-19 -133 -77 -260q-6 -14 -8.5 -20.5t-1.5 -18t10 -20.5q15 -16 39 -16q13 0 28 4q94 27 104 52q12 28 13 81.5t8 78.5q105 371 120 429q6 23 20 27 q20 5 36 -20q9 -14 40 -54t42 -66q10 -23 21.5 -71t24.5 -73q-5 -4 -15 -13t-15 -13q-24 28 -48 101.5t-58 106.5q-23 -22 -33 -52t-15.5 -69t-13.5 -61q-22 -63 -38.5 -188.5t-35.5 -184.5q-12 -41 -60 -59q-37 -15 -78 -15q-11 0 -22 1q-87 8 -123 26q-7 4 -12.5 8t-8.5 9 t-5 9t-1.5 11z" />
<glyph unicode="N" d="M107 942q0 7 1 23l1 18v-5q1 34 53 62q32 17 56 17q15 0 28 -6q46 -23 106.5 -95.5t156.5 -192t193 -214.5q22 -30 28 28q2 17 2 54q0 80 -9 251q-2 45 -3 69q-1 20 10 55t26 36q12 1 40.5 5.5t38 5.5t42.5 -1q63 -5 84.5 -23t28.5 -77q4 -32 4 -60q0 -37 -7 -68 q0 -28 -7 -144q-4 -58 -3.5 -91.5t3.5 -43.5q4 -30 4 -45v-113q0 -182 5 -260q1 -14 1 -27q0 -58 -24 -76q-18 -13 -57 -14q-24 0 -56 5q-91 14 -146 92q-20 28 -40 54.5t-48 58t-43 49t-53 56.5t-47.5 48.5l-57 57l-52.5 52.5v-21q0 -44 -3 -107q-5 -79 -5 -121q0 -2 1 -5 q0 -41 7 -112q8 -53 10 -63q2 -9 2 -16q0 -35 -43 -41q-61 -11 -81 -12h-9q-72 0 -103 30q-29 29 -29 94v16q8 130 8 290q0 48 -1 99q-2 42 -10 194q-5 95 -5 163q0 40 2 71zM165.5 907q0.5 -17 1 -26.5t3 -27.5t2.5 -22q7 -109 7 -155t-4 -154t-5 -154q0 -24 -2 -100.5 t-2 -118.5q0 -106 84 -106q17 0 37 4q30 6 28 39q-2 31 -2 81q0 61 3 147q2 60 2 106q0 78 -6 120q-3 10 -2 22.5t11 18.5q23 13 48 -14q26 -27 82 -83t97 -100.5t75 -89.5q23 -30 71.5 -74.5t71.5 -74.5q30 -38 68 -60q24 -14 44 -14q12 0 24 5q18 1 25 19t12 53q1 6 1 14 q0 32 -10 96q-10 57 -11 115v34q-1 43 1 92q1 38 2 69q0 25 -1 46q-1 38 -1 70q0 89 10 130q14 50 14 92q0 14 -2 27q-2 17 -12 27.5t-20.5 13t-28 5.5t-25.5 5q-21 7 -36 7q-27 0 -36 -22q-15 -35 -20 -83q-4 -34 -3 -61v-20q2 -33 8.5 -93t8.5 -80q10 -127 10 -154 q0 -26 -18.5 -40t-33.5 0q-25 23 -42.5 49.5t-48 63.5t-89.5 90q-41 27 -114 109.5t-135.5 151t-88.5 72.5q-15 0 -26 -4.5t-16 -15t-8 -20.5t-2.5 -27z" />
<glyph unicode="O" d="M26 526q-1 9 -1 19q0 30 8 57q18 183 117 295t278 172q70 22 135 22q9 -1 17 -1q72 -4 139.5 -33t121.5 -72t96 -99q7 -10 22.5 -35t25.5 -37q72 -127 72 -269q0 -80 -23 -164q-6 -14 -13 -44t-12 -42q-21 -60 -67 -116q-108 -126 -249 -173q-78 -26 -157 -26l-125 16 q-141 38 -251 154q-71 74 -98 161.5t-36 214.5zM62 504q2 -41 20 -85q11 -75 47 -135.5t117 -139.5q58 -68 162 -94q54 -13 105 -13q46 0 89 11q93 23 197 88t121 106q13 30 22.5 56t18 55t14.5 45q31 88 31 169q0 130 -79 242q-81 116 -179 170q-76 42 -175 42 q-27 0 -57 -3q-291 -33 -421 -307q-23 -92 -29 -129q-5 -28 -5 -59q1 -9 1 -19zM258 588q5 57 37.5 126.5t91.5 139.5q54 42 108 41l74 -19q10 -6 28 -11q98 -33 156 -90q57 -57 73 -127q8 -38 9 -78q-1 -34 -7 -70q-14 -77 -55 -158q-3 -6 -12 -16.5t-12 -16.5 q-57 -81 -127 -101q-29 -8 -62 -9q-47 0 -101 17q-24 12 -51 33t-57 56t-53 76t-34 95q-8 37 -8 77q0 17 2 35zM338 429q21 -69 105 -132q54 -41 111 -41q10 0 20 2q68 8 117 70q86 112 86 201q0 10 -1 20v12q0 107 -68 178q-72 75 -184 79h-12q-88 0 -122 -57 q-68 -109 -69 -221q1 -55 17 -111z" />
<glyph unicode="P" horiz-adv-x="999" d="M92 921.5q0 23.5 2 43t6 32t12.5 22t19 14.5t26.5 9t35 6.5t44 5.5q9 1 14.5 1.5t14 1.5t16.5 2q49 6 118 7q74 0 172 -8q122 -9 216 -79t133 -181q21 -59 20 -121q0 -54 -15 -110q-35 -125 -120.5 -194t-218.5 -103q-39 -10 -80 -15q-17 -2 -37 -0.5t-37.5 4.5t-30 -3.5 t-14.5 -23.5q1 -17 1 -34q-1 -25 -3 -50q-4 -42 -2 -62q4 -45 -4 -57.5t-50 -24.5q-52 -15 -113 -15h-21q-60 3 -79 21t-20 76q0 29 5 263q-1 0 -1 253q-2 172 -7 262q-2 34 -2 57.5zM157 332q2 -40 11.5 -122t11.5 -125q1 -22 13.5 -31.5t29 -8t34.5 1.5q31 2 47 14t12 42 q-2 13 -2 31q0 33 6 85q2 22 5 38.5l5 27.5t7 18.5t7.5 11.5t10 6t9.5 2.5t12.5 0t13.5 -1.5q88 3 135 9q116 9 201.5 62t114.5 144q31 51 31 120q0 27 -4 57q-18 106 -85 177q-90 95 -205 102q-94 6 -170 6q-113 0 -183 -13q-36 -7 -49.5 -21t-5.5 -49l-7 -304 q-1 -12 5 -64q2 -19 2 -37q0 -30 -6 -55q-7 -70 -7 -109v-15zM316 758q-4 18 -4 32q0 20 8 34q14 24 59 32q44 9 87 8q97 0 184 -44q56 -28 72 -86q5 -17 4 -34q0 -43 -29 -88q-35 -49 -66 -73.5t-79 -27.5q-5 0 -28 -3.5t-35 -1.5q-31 -3 -58 -3q-5 1 -9 1q-32 0 -55 5 t-34.5 22.5t-7.5 47.5q-2 18 -2 59v30v14q0 54 -7 76zM377 692q1 -8 1 -23t1 -22q8 -53 24 -65.5t75 -13.5q4 0 9 -1q38 0 100 22q37 13 61.5 42t25.5 60q1 29 -26 52.5t-64 35.5q-73 21 -112 21h-3q-64 -2 -82 -23q-12 -15 -12 -50q0 -15 2 -35z" />
<glyph unicode="Q" horiz-adv-x="1144" d="M28 480v78q33 136 88 264q63 145 218 218q108 50 202 64q35 5 70 5q57 0 114 -14q91 -23 176.5 -93.5t166.5 -189.5q33 -49 47 -108q11 -49 11 -94q0 -10 -1 -20q-3 -53 -17 -118q-26 -119 -124 -275q-6 -9 -14 -17.5t-21 -18.5t-17 -14q-11 -9 -25 -19t-22.5 -15.5 t-19 -14t-13 -14.5t-4.5 -17t5 -22q2 -5 8 -18t8.5 -20t7 -19t5 -20.5t0 -18t-5 -17.5t-12.5 -14q-47 -37 -97 -47q-15 -3 -28 -3q-30 0 -47 17q-10 11 -17 21.5t-10 16.5t-9.5 22.5t-10.5 26.5q-12 27 -19.5 34.5t-14 5.5t-26.5 -9t-43 -9q-10 -1 -21 -1q-86 0 -182 51 q-18 9 -37 21t-41.5 27.5t-35.5 23.5q-42 26 -72 61.5t-50.5 82t-31.5 82t-25 93.5q-1 5 -2.5 14.5t-4 17t-6.5 13.5zM95 441v-8q0 -65 29 -107q91 -134 187 -191q110 -65 208 -65q27 0 53 5q37 7 54 -3t34 -52q16 -40 33 -74q10 -19 28.5 -23t35 2t29.5 16q6 5 20.5 7.5 t21 5t10.5 16t-10 40.5q-2 6 -11 22t-11 19q-15 32 -14 49.5t12.5 27.5t45.5 28q36 19 67 61q49 66 75 105q88 134 88 245q0 17 -2 34q-25 194 -164.5 313.5t-337.5 119.5h-18q-216 0 -345 -187q-113 -164 -118 -406zM244 585q0 17 1 30t6 31t8 28t11.5 29.5t12 26.5 l14.5 29t13 27q62 125 192 125h2q58 0 72 3q24 5 47 5q32 0 65 -9q56 -16 99 -53t76 -88.5t41 -109.5q2 -20 2 -41q0 -38 -9 -76q-4 -14 -16 -58t-18.5 -64t-23 -51t-37.5 -54t-42 -23q-20 0 -39 21q-7 7 -11.5 16.5t-10 24t-7.5 19.5q-13 30 -38.5 31t-47.5 -12 q-2 -1 -3.5 -1.5t-3.5 -1.5q-5 -2 -22.5 -6.5t-20.5 -8.5t-3.5 -17.5t9.5 -37.5q7 -17 7 -31q0 -25 -21 -40q-25 -17 -63 -17q-13 0 -27 2q-181 26 -205 214q-2 16 -3 33.5t-1.5 38.5t-1.5 33q-3 16 -3 33zM300 502q6 -166 115 -206q27 -11 49 -11q20 0 36 9q21 10 21 31 q0 13 -8 30q-16 31 -0.5 57t46.5 33q3 1 9 2q42 13 83.5 13t50.5 -28q5 -15 20 -40q13 -21 21.5 -29t20.5 -4.5t28 22.5q73 93 73 206q0 19 -2 38q-8 82 -82 152.5t-161 81.5q-27 3 -51 3q-74 0 -127 -32q-70 -42 -111 -146q-21 -53 -31 -182z" />
<glyph unicode="R" horiz-adv-x="1028" d="M114 144q5 257 17 771q-2 34 8.5 61t27 40.5t29 20t21.5 8.5q47 9 138.5 17t136.5 16h7q17 0 65 -6q60 -8 73 -12q122 -43 145 -54q8 -5 30 -17t35.5 -20.5t28 -22.5t18.5 -27q7 -22 20.5 -59.5t21.5 -63.5t15 -60q5 -26 5 -51v-15q-2 -32 -14 -64q-2 -8 -9.5 -41 t-14.5 -52t-30 -48.5t-59 -53.5q-25 -16 -33 -24t-6 -22t24 -34q15 -22 49 -88.5t63 -96.5q5 -5 21 -49q9 -25 9 -42q0 -14 -6 -24q-14 -22 -59 -25q-130 -7 -140 -7q-40 3 -62 32q-9 11 -63 106q-8 13 -15 26q-7 12 -27.5 58.5t-46.5 76.5q-55 27 -93 30t-54 -13.5 t-22 -44.5q-3 -13 -3 -27q0 -18 4 -38q1 -5 2.5 -14t2.5 -16.5t1 -14.5q-1 -55 -6 -85t-20.5 -48t-37.5 -23.5t-64 -5.5h-8q-118 0 -122 56zM164 716v-61l1 -439q1 -61 5.5 -93.5t14 -47t25 -15.5t37.5 1q50 4 66 23q11 13 11 47q0 17 -3 39q-3 28 -3 55q0 66 19 121 q5 15 29 26.5t59 13.5q8 1 15 1q28 0 58 -7q38 -9 74.5 -41t59.5 -84q23 -65 24 -68q31 -71 60.5 -100t73.5 -33q11 -1 24 0q37 0 86 7q3 -1 5 -1q7 0 7 8q0 22 -60 109q-2 3 -3 4q-11 15 -35.5 53t-45 64.5t-43.5 48.5q-21 20 -21 40q0 9 4 17q12 30 55 33q37 3 88 74.5 t52 174.5q-2 10 -6 43.5t-7 49.5t-11.5 40t-21.5 41q-27 35 -61.5 61.5t-66.5 43.5t-78 26.5t-80 14t-90.5 4.5t-91 -2t-98.5 -6q-19 1 -44.5 -5.5t-41 -15t-11.5 -12.5q-11 -29 -17.5 -60t-9 -66.5t-3.5 -59.5q-1 -16 -1 -41q1 -12 1 -26zM317 681q-4 17 -4 34q0 28 11 57 q16 44 55 62q60 27 127 27q62 0 129 -23q55 -18 83 -58q27 -37 27 -84q0 -3 -1 -7q-2 -55 -42.5 -98t-108.5 -61q-31 -8 -62 -12q-17 -3 -38 -3q-16 -1 -33 1q-40 4 -69.5 19t-50.5 51.5t-21 92.5q0 -9 -2 2zM365 697q-2 -22 7 -50t29 -40q27 -17 40.5 -24t38 -15t45.5 -6 q89 8 126 53q31 39 31 71q0 12 -4 22q-14 40 -79 64q-60 21 -86 25q-22 3 -40 3q-43 0 -69 -16q-36 -22 -39 -87z" />
<glyph unicode="S" horiz-adv-x="927" d="M59.5 290.5q-0.5 28.5 27 56t82.5 52.5q27 16 52 18t42.5 -4.5t37 -25t29 -32.5t25 -37.5t20.5 -30.5q15 -22 55 -44q39 -21 65 -21h2q19 1 31.5 8t16.5 12.5t10 19.5t7 16q1 8 2.5 11.5t-3.5 10t-7.5 9t-9.5 8.5t-9 8q-14 12 -32 19q-102 35 -181.5 105.5t-166.5 179.5 q-32 43 -32 119q1 6 1 11q2 84 36 145q36 66 89 105t116 50q34 6 69 5q30 0 62 -4q68 -10 141 -39q22 -9 36.5 -25t29.5 -41.5t23 -35.5q13 -17 17.5 -31.5t-2 -32.5t-10 -24.5t-18.5 -28.5q-3 -5 -10 -13t-10 -16q-20 -26 -49.5 -29.5t-53 5.5t-57.5 26q-6 4 -9 5 q-15 8 -30 8q-28 0 -54 -27q-24 -25 -18 -50t40 -35q87 -25 158.5 -63.5t156.5 -100.5q38 -28 65 -72q29 -47 29 -90q0 -20 -9 -110q-5 -52 -32 -102.5t-58 -71.5q-94 -99 -266 -99q-23 0 -47 2q-282 58 -364 225q-19 28 -27 48t-8.5 48.5zM120 279q43 -113 146 -186 t259 -77q49 1 85 10.5t65.5 32.5t47.5 43.5t47 59.5q21 34 30 88q4 23 4 48q0 30 -6 64q-12 60 -47 96q-114 97 -258 130q-74 18 -128 86q-10 19 -10 37.5t6 33t20.5 31t27 27.5t32.5 27q34 14 62 15q5 1 11 -1q32 -4 76 -33q15 -10 32 -14t34 5q5 4 11.5 11t15.5 24t9 33.5 t-15 39t-49 41.5q-36 28 -92 45q-44 13 -95 13q-13 -1 -27 -1q-66 -4 -114 -38q-1 -1 -16.5 -13t-20 -16t-19.5 -18t-20.5 -22.5t-16.5 -26t-14 -32t-7 -36t-1.5 -42t9.5 -47.5t19 -55q61 -94 126 -151.5t158 -84.5q30 -9 65 -38q36 -30 42 -80q1 -11 1 -20q0 -38 -18 -71 q-16 -27 -53 -39q-20 -6 -41 -7q-19 0 -39 5q-35 7 -66 32q-90 72 -120 125q-9 15 -19.5 21.5t-24 4.5t-22.5 -5t-24 -10q-27 -13 -45.5 -31t-12.5 -34z" />
<glyph unicode="T" horiz-adv-x="1042" d="M58 968q-2 12 -2 22q0 34 20 55q20 22 54 22q10 0 20 -2q14 -2 32 -2q26 0 60 5q56 9 79 10q53 -1 523 -14h18h23.5t25 -1.5t23.5 -5t18 -9.5t9.5 -16t-2.5 -25q-3 -8 -3 -22q0 -19 6 -47q8 -41 7 -63v-8q-8 -95 -89 -95q-11 0 -24 2q-92 14 -108 14q-51 0 -68 -20 q-15 -18 -15 -62v-10q-6 -143 -14 -401l-4 -103q3 -33 3 -60q0 -72 -22 -92q-30 -28 -149 -34q-10 -1 -15 -1q-37 -9 -59 -0.5t-28 29.5t-7.5 48.5t2.5 56.5q1 12 1 18q1 73 5 197q4 111 4 202v20q0 99 -11 198q-42 7 -63.5 5t-58.5 -8t-57 -7h-25h-19t-15 2.5t-11.5 3t-9 6 t-6 8.5t-5.5 12.5t-5 14.5t-5.5 19.5t-6.5 23.5q-19 67 -26 114zM132 983q-3 -10 -4 -23q0 -28 15 -74q1 -5 3.5 -13.5t3.5 -12.5q4 -16 5 -20.5t5.5 -11t11 -6.5h19.5q137 12 170 19q41 8 60 -7t14 -52q-6 -41 -6 -105q0 -49 3.5 -112t4.5 -108q0 -58 -7 -86 q-4 -216 -4 -239q1 -44 19.5 -57.5t61.5 -2.5q17 -3 30 -4t22.5 2t16.5 5.5t11.5 11.5t7.5 14t4.5 18.5t1.5 20.5t1 24.5t1 25.5q3 58 3 109q0 37 -2 69q-2 55 -2 120v59q2 101 14 177v39.5t-0.5 34.5t6.5 27t21.5 17t44 4.5t74.5 -10.5q38 -8 65 -8q39 0 57 16q21 19 21 67 q0 22 -4 49q-7 43 -46 44q-217 8 -299 8h-16h-19q-48 0 -141 4q-68 3 -117 2q-33 0 -57 -1q-64 -4 -74 -34z" />
<glyph unicode="U" d="M66 548q-1 16 -1 32t1 33q3 31 3 98q0 40 -1 94q-2 106 -2 161v31q-2 30 15 45t37 15.5t48.5 -1.5t37.5 0q45 6 60 6h4q33 -3 51 -26t12 -56q-9 -52 -12 -104q-1 -18 -1 -37q0 -37 4 -79q6 -63 10.5 -98t18 -114t17.5 -102q12 -84 68 -126q50 -38 122 -39q8 0 17 1 q56 4 101 55q68 78 84 219q7 65 7 117q0 61 -10 102q-4 19 -4 44q-1 39 9 89q16 84 17 111q0 7 8 17q15 21 85 28q20 2 38 2q43 0 70 -12q52 -23 52 -82q0 -11 -2 -24q-4 -29 -6.5 -64t-3.5 -60.5t-1.5 -73t-1.5 -73.5q-1 -85 -2 -129t-10.5 -123t-28.5 -142 q-30 -103 -75 -153t-177 -121q-24 -11 -74 -15q-30 -3 -65 -2q-23 0 -47 1q-61 3 -126.5 20.5t-107.5 49.5q-15 17 -48 52t-52 56.5t-40.5 55t-31.5 65.5q-2 8 -18.5 59t-21.5 69t-14.5 57t-11.5 71zM110 985q0 -43 2 -130q2 -62 2 -104v-31v-30q0 -182 45 -294 q80 -196 216 -300q33 -25 75 -32q67 -11 125 -11q190 0 286 122q29 52 44 91q59 155 59 281q0 20 -2 40q-1 11 -1 24q1 38 7 96q8 71 7 109v8q-1 16 -1 55v55q-2 65 -58 66q-35 1 -55.5 -8t-29.5 -41q-26 -94 -25 -164q0 -18 1 -34q4 -41 4 -83q0 -105 -25 -218 q-17 -76 -90 -177q-48 -67 -136 -71h-9q-82 0 -146 64q-57 59 -81 125.5t-33 157.5q-16 147 -16 258q0 48 3 89q1 14 1 25q0 35 -9 50q-17 30 -65 30q-38 0 -95 -18z" />
<glyph unicode="V" d="M40.5 1021q8.5 19 42.5 33q24 10 67 10q23 0 52 -3q12 -1 36 -5.5t36 -5.5q62 -6 74 -17t31 -75q27 -92 85.5 -273t76.5 -239q9 12 15.5 22t10.5 16t7 14.5t3.5 10.5l3 12t2.5 12q16 66 55 184.5t48 150.5q9 29 33.5 79.5t35.5 80.5q18 25 31 33t35 6q137 -11 192 -22 q38 -7 44 -23.5t-11 -55.5q-23 -53 -70.5 -162t-83.5 -194t-67 -163q-15 -38 -49.5 -135.5t-56.5 -149.5l-7 -20q-6 -19 -9.5 -26.5t-14 -27.5t-20 -30.5t-27.5 -26t-37.5 -23t-48 -13t-61.5 -4.5q-27 -1 -50.5 24.5t-32.5 49.5q-118 319 -131 351q-82 202 -164 372 q-22 46 -71 179q-13 35 -4.5 54zM105 972.5q-2 -12.5 1.5 -28.5t7 -27.5t10.5 -30t9 -24.5q2 -4 23 -50q46 -97 51 -109q37 -88 113 -276t119 -288q11 -63 63 -81q18 -6 36 -6q34 0 68 22q57 46 78 110q8 24 32.5 105t41.5 123q50 123 217 520q17 34 18 50.5t-11 18.5 t-30 1.5t-40 0.5q-22 5 -40.5 5.5t-32.5 -4.5t-25 -10.5t-20.5 -18.5t-15 -22t-12 -28t-9 -29t-8.5 -31q-4 -10 -9.5 -28.5t-7.5 -24.5q-11 -32 -36 -104t-39.5 -113t-37 -100t-43.5 -108q-4 -9 -6.5 -13.5t-7 -10t-10.5 -7.5t-14 -1t-14 7.5t-7.5 10.5t-5.5 16 q-19 55 -53.5 156.5t-62.5 184.5t-52 157q-4 12 -10 32t-8 26.5t-8 18t-11.5 14.5t-15.5 8t-23 6.5t-33 1.5q-8 0 -38 6t-52 6t-30 -12q-7 -9 -9 -21.5z" />
<glyph unicode="W" horiz-adv-x="1536" d="M78 1054.5q10 15.5 45 14.5q30 -1 56 -1q69 0 118 9q32 6 51 -12t36 -54q20 -41 39.5 -95.5t30 -89.5t29.5 -106t25 -92q5 -15 20 -56q19 11 25.5 50t6.5 40q46 117 55 154q15 62 25 77q16 24 58 30q100 14 152 13h21q84 -7 119 -104q10 -29 29 -125.5t29 -127.5 q12 10 21 25t11.5 22.5t8.5 30.5t6 24q34 129 125 354q1 26 25.5 37t58 8t67 -10t57.5 -15l23 -8q18 -9 24 -15.5t5 -23.5t-15 -49q-203 -482 -275 -858q-12 -62 -17 -71q-11 -18 -54 -20h-33q-8 0 -25 -1t-29.5 -1t-26.5 2t-23.5 8t-13.5 17q-15 40 -54 163.5t-48 167.5 q-20 92 -35.5 137.5t-22 43.5t-12.5 -2q-1 -1 -2 -1q-23 -27 -33 -56.5t-16.5 -67.5t-15.5 -63q-18 -51 -41 -152t-38 -147q-10 -31 -26.5 -43t-43.5 -12q-4 0 -100 8q-57 6 -73 62q-19 65 -65.5 212.5t-68.5 229.5q-23 85 -35.5 127t-38.5 109t-55 120q-33 60 -62 133 q-14 35 -4 50.5zM156 958q6 -35 19.5 -63t32.5 -58.5t30 -53.5q46 -102 101 -311t100 -310q1 -3 7 -16t8.5 -18t8.5 -14t13 -14.5t16 -9.5q35 -17 59 -17q12 0 21 4q28 12 48 66q8 20 19 81q9 50 24.5 109t27.5 97t35.5 109t32.5 99q0 1 20 33q19 -9 32.5 -20t16.5 -18l4 -7 q25 -51 27 -56q15 -33 42 -126t49.5 -169.5t60.5 -138.5q37 -60 76 -60h2q34 1 44 16t16 57q11 81 36 173.5t48 157t62.5 169t58.5 157.5q32 92 65 151q6 12 4.5 20t-9 13t-15.5 7.5t-15 3.5l-7 1q-54 10 -74 10q-6 0 -10 -1q-15 -4 -29 -36q-1 -2 -12 -26 q-24 -48 -48 -107.5t-39 -102t-39.5 -114t-36.5 -105.5q0 -1 -4.5 -17.5t-10.5 -24t-18 -12.5q-66 72 -70 141q-1 22 -18 71q-9 58 -21 97t-22 57.5t-25 25t-24 5t-26 -7t-24 -6.5t-21 -2q-35 -3 -49 -5t-32 -7t-24 -11.5t-15 -20.5t-15 -32.5t-16 -48.5q-19 -58 -33 -98 q-22 -52 -50.5 -104.5t-37.5 -53.5q-19 -3 -27 10q-4 7 -9 37q-10 50 -38.5 136t-37.5 145q-13 23 -38.5 83t-44.5 89q-5 5 -12 17.5t-14 19t-17 4.5q-5 2 -12 2q-21 0 -55 -22q-44 -29 -72 -29z" />
<glyph unicode="X" d="M76.5 16.5q-0.5 6.5 4 19t9 21.5t13 24.5t12.5 24.5q17 35 61 99q5 7 30 43.5t34 50t27.5 42t31.5 52t24 47.5q5 11 16 25.5t15 23.5t4.5 26.5t-10.5 45t-34 68.5q-8 25 -23.5 53t-27 44t-36.5 48.5t-33 42.5q-28 37 -83 160q-6 14 -6 25q0 29 41 39q66 16 158 16 q31 0 65 -1q27 -2 47 -20t26 -46q8 -37 20 -49q19 -20 42.5 -83.5t46.5 -85.5q14 24 55.5 89.5t58.5 102.5q16 33 30 52.5t25.5 30t32.5 12.5t37 1t53 -4.5t67 -5.5q29 0 49.5 -4t32 -9.5t16 -15.5t5.5 -18t-4.5 -22t-10 -22t-13.5 -23t-12 -21q-24 -44 -71 -103 q-53 -68 -133 -220q-23 -34 -28 -53.5t0 -28.5t22 -30.5t28 -43.5q49 -84 94 -140q29 -70 121 -214q11 -17 12.5 -30.5t-4 -21.5t-18.5 -14t-23.5 -8.5t-26.5 -5.5q-18 0 -58 -8q-32 -6 -58 -6h-14q-72 4 -116 39t-66 102q-11 33 -45 91t-41 72q-15 -19 -25 -41t-19 -47.5 t-15 -39.5q-4 -8 -9.5 -25t-9.5 -25q-7 -23 -14 -40.5t-14 -31.5t-18 -23.5t-19.5 -16t-25 -10.5t-28.5 -6t-35 -3t-39 -1t-47.5 0.5t-54.5 0.5q-27 -1 -46.5 1t-30.5 6t-16 12t-5.5 14.5zM163 96q-17 -40 6 -48q13 -5 40 -4q23 0 55 3q78 4 129 55q16 16 45 76q2 5 29.5 72 t50.5 97q19 26 37 26q19 0 36 -31q41 -75 72 -143q15 -34 21.5 -48t18.5 -35.5t18.5 -28.5t19.5 -18t24 -12.5t29.5 -4t38 -0.5t48.5 6q6 0 9 1h17q50 0 50 17q0 18 -45 63q-7 11 -62.5 107t-98.5 137q-10 9 -39 67q-31 40 -39.5 59.5t-4 27.5t23 29t30.5 48q22 49 75 133 t72 121q2 4 42 56q24 31 24 45q0 9 -11 9h-5q-40 7 -58.5 10t-43 5t-32.5 2.5t-22.5 -2.5t-17 -6.5t-12.5 -13.5t-13 -18t-13.5 -25.5t-19.5 -31.5q-21 -30 -37 -71q-9 -23 -37.5 -62t-34.5 -50q-9 -16 -15 -24t-13 -13t-14 -0.5t-15 18.5q-49 85 -73 153q-13 23 -23 45 t-14 34t-8.5 24.5t-8 16.5t-12.5 10t-21 5t-34.5 1.5t-52.5 -0.5q-36 0 -58 -4t-32 -8t-10 -13.5t2.5 -16t12 -21t13.5 -22.5q12 -14 24 -30t22 -29t22 -31.5t19.5 -30t19.5 -32.5t17.5 -30.5t18.5 -33.5t17 -31.5t18.5 -34.5t17.5 -33q19 -36 21.5 -56t-3.5 -30t-26 -37.5 t-36 -60.5q-12 -19 -57.5 -96t-71.5 -118q-6 -9 -29.5 -38.5t-32.5 -51.5z" />
<glyph unicode="Y" d="M63.5 952q6.5 19 37.5 25q16 3 31.5 11t24.5 14.5t27 22t26 21.5q17 14 35 14l49 -28q15 -27 64 -92.5t81 -112.5q10 -16 25.5 -30.5t40.5 -34.5t38 -32q36 41 87.5 83.5t70.5 69.5q3 4 42.5 53.5t44.5 58.5q6 10 13 21.5t9.5 17.5t7.5 12t6.5 8t8.5 3t10 -0.5t14 -5.5 t18.5 -8.5t25.5 -13.5t33 -16q42 -16 70 -53q16 -21 16 -41q0 -14 -8 -27q-22 -35 -69 -96t-77 -94q-37 -51 -76.5 -97t-57 -67.5t-36 -52t-24.5 -72.5t-10.5 -105.5t-6.5 -174.5q4 -25 4 -45q0 -57 -33 -78q-32 -21 -105 -21q-26 0 -56 3q-42 1 -63 34q-16 23 -16 56 q0 12 2 26q16 104 16 214q0 60 -5 121q1 22 -19.5 59t-63 90t-62.5 76.5t-62 70.5q-8 9 -35 38t-37.5 41.5t-26 38t-24.5 50.5q-12 26 -5.5 45zM123 910q-1 -3 -1 -6q0 -20 31 -56q5 -6 94 -98t119 -143q7 -12 25.5 -31t25.5 -29q34 -56 34 -103q0 -9 -1 -18q-7 -54 -8 -106 v-18q0 -45 2 -96q2 -44 2 -80v-27q0 -3 -2 -13.5t-3 -18t1 -12.5q5 -8 58.5 -8.5t63.5 1.5q29 1 41.5 15t10.5 32.5t-2 39.5q-2 26 -2 82v79q2 85 2 124v23q0 15 13.5 33.5t37 45.5t37.5 51q52 75 126.5 157.5t97.5 118.5q2 3 12.5 15.5t13.5 18.5q6 11 6 20t-3 15.5 t-10.5 13t-15 10.5t-18.5 10t-17 11q-10 13 -19.5 17t-20 -3t-16.5 -13t-19.5 -24t-18.5 -24q-68 -72 -167 -165q-24 -34 -37.5 -52.5t-27.5 -35t-20 -21t-15 -6t-13.5 4.5t-13.5 17t-16 24.5t-21.5 33t-29.5 37.5q-36 47 -73 84.5t-61 66t-48 74.5q-4 9 -15 6t-19.5 -8.5 t-21.5 -14t-20 -11.5q-52 -20 -58 -40z" />
<glyph unicode="Z" horiz-adv-x="974" d="M55 181q4 30 40 63q27 25 51.5 52.5t50.5 64t40 58t43.5 68.5t38.5 61q17 32 35 57.5t46 59t43 52.5q3 3 10.5 11t12 13.5t10.5 14t5.5 14.5t-3.5 14q-4 5 -11 8t-17 3t-16.5 -1t-18.5 -3t-15 -2q-15 -2 -63.5 -7.5t-74.5 -9.5q-15 -2 -29 -2q-76 0 -122 68 q-13 19 -14.5 46t3.5 48.5t13 50.5t10 42q2 18 35 25q47 8 55 7q44 -4 106 -4q72 -1 166 5q148 9 221 9h25q32 0 47 -1q68 -5 68 -70q0 -99 -39 -159q-30 -47 -53 -87t-54.5 -96t-63.5 -111q-24 -23 -56 -83q-16 -32 -50 -95t-52 -100q51 0 149 10q82 8 133 8h20 q39 -1 62 -11t34 -43q1 -3 8.5 -24t9 -26.5t6.5 -23.5t5 -27v-24t-4 -27.5t-11 -25.5q-15 -25 -34 -28q-60 -11 -321 -23q-140 -6 -254 -6q-100 0 -181 5q-25 10 -33.5 29.5t-9.5 52.5q-4 42 -4 70q0 18 2 30zM114 174q-3 -15 -3 -32q0 -36 14 -81q22 -18 180 -18 q41 -1 89 1q242 6 392 26q44 -4 55 12t-6 59q-4 11 -5.5 25.5t-1.5 24t-4.5 19.5t-14.5 14t-31.5 4t-54.5 -7q-173 -5 -247 -5q-37 0 -48 1q-39 4 -39 18q-1 10 20 32q54 69 74 139q25 36 56.5 92.5t41.5 72.5q42 40 72 92t61.5 122.5t49.5 103.5q6 9 10 36q3 18 3 32 q1 24 -9 37q-16 21 -62 23q-8 0 -31 1.5t-33 2t-30 1t-33 0.5t-30.5 -1t-33 -3.5t-30.5 -5.5q-157 -17 -240 -22q-20 3 -34 3t-22.5 -3t-14 -8t-7.5 -12.5t-2.5 -16.5t0 -19.5t-0.5 -22.5q0 -4 -1 -15.5t-0.5 -16t2 -14t6.5 -13.5t13 -9.5t22 -7.5t33 -2q25 -4 51 -4 q34 0 68 7q61 12 111 12q55 0 94 -15q1 -7 1 -13t-0.5 -10t-3.5 -10t-4 -7.5t-5.5 -8t-4.5 -7.5q-51 -79 -152 -218.5t-151 -218.5q-16 -24 -71 -73q-48 -47 -58 -93z" />
<glyph unicode="[" horiz-adv-x="614" d="M76 821.5q0 89.5 5 191.5t2 166q-1 30 15 37.5t51 7.5q27 0 65 2.5t66 2.5q22 0 71.5 3t85.5 1q22 0 36 -4t21 -10t9.5 -19.5t2 -24t-2 -31.5t-1.5 -35q0 -7 2.5 -26.5t2.5 -33t-3 -28.5t-16.5 -23t-36.5 -7q-60 -14 -90 -5q-29 9 -44 -3t-14 -43q1 -46 10 -118 q13 -100 16 -288t12 -286q-1 -5 -1 -56q2 -65 17.5 -79t78.5 -7q48 16 72 0.5t28 -27.5t6 -52q1 -8 1 -12q2 -44 0 -65q-4 -49 -25 -67t-70 -16q-21 1 -55.5 3.5t-41.5 2.5q-23 -1 -70.5 -4t-71.5 -4q-35 -2 -66.5 14.5t-36.5 40.5q-26 109 -19 163q24 210 4 575 q-15 74 -15 163.5zM110 990q4 -50 5.5 -103.5t4.5 -91t12 -85.5q29 -154 9 -355q-4 -41 -6.5 -89t-3 -83t-1 -91.5t-0.5 -85.5q-1 -40 26.5 -67.5t68.5 -30.5q12 -1 74 -1q25 4 45 4q13 -1 43.5 -1.5t49.5 -2.5q32 -3 45.5 14t14.5 48q0 7 1 23t1 22.5t-0.5 18t-4 16 t-8.5 10.5t-14.5 7.5t-22.5 0.5q-4 0 -44 -6t-58 -5q-30 1 -42.5 14t-15.5 47q-2 30 2.5 110.5t-3.5 110.5q-2 26 -3 119.5t-3 116.5q-4 46 -6 101.5t-6.5 96.5t-17.5 100v127q-4 14 8 23.5t28 9.5q14 0 29.5 -0.5t34.5 -1.5t29 -1q4 0 25 -3t33.5 -1t20.5 11 q14 14 8.5 81.5t-22.5 68.5q-21 2 -49.5 2t-41.5 1q-61 3 -212 -9q-16 -2 -19.5 -6.5t-9.5 -31.5q5 -15 5.5 -37.5t-1 -38.5t-4.5 -42t-4 -34z" />
<glyph unicode="]" horiz-adv-x="600" d="M63 15q3 52 29 74t78 17q63 -7 79.5 7.5t17.5 78.5q0 47 -2 56q9 98 12 286t16 288q9 72 10 118q1 31 -14 43t-44 3q-30 -9 -90 5q-19 0 -32.5 6.5t-20 15.5t-9.5 25.5t-3.5 26.5t0.5 28t1 22q0 63 15.5 91t63.5 27q36 2 85 -1t71 -3q28 0 78 -3t78 -3q30 0 42.5 -10.5 t11.5 -41.5q-4 -95 -1 -171t-0.5 -171t-19.5 -171q-20 -365 4 -575q7 -54 -19 -163q-5 -24 -36.5 -40.5t-66.5 -14.5q-24 1 -71.5 4t-70.5 4q-7 0 -41.5 -2.5t-55.5 -3.5q-49 -2 -69.5 16t-24.5 67q-3 28 -1 65zM109 -31q1 -31 14.5 -48t45.5 -14q19 2 49.5 2.5t43.5 1.5 q20 0 45 -4q62 0 74 1q41 3 68.5 30.5t26.5 67.5q0 28 -0.5 107.5t-2.5 134.5t-7 107q-16 159 20 348q28 144 12 312q-1 12 -4.5 31t-5.5 32t-1.5 31t5.5 33q5 16 -3.5 26t-25.5 12q-151 12 -211 9q-13 -1 -42 -1t-50 -2q-17 -1 -17 -62t14 -76q19 -21 69 -19q10 0 29 1 t34 1.5t29 0.5q16 0 28 -9.5t8 -23.5q-7 -30 -0.5 -65.5t0.5 -61.5q-17 -75 -15.5 -198.5t-2.5 -201.5q-8 -91 2 -137q5 -47 2.5 -72t-12 -72.5t-11.5 -73.5q-3 -34 -15.5 -47t-42.5 -14q-14 0 -44.5 1.5t-47.5 0.5q-61 -3 -58 -89z" />
<glyph unicode="^" horiz-adv-x="577" d="M41 650q3 8 12.5 23t12.5 21q92 191 179 319q30 44 65.5 46t62.5 -40q33 -53 56 -101t55 -126t44 -106q8 -14 6.5 -44t-14.5 -39q-24 -18 -61 -13q-18 1 -32.5 8t-23 14.5t-16.5 22t-11.5 23.5t-9.5 28t-9 26q-2 6 -9.5 28t-11 32t-13.5 24.5t-22 24.5q-9 -4 -16.5 -10 t-11.5 -11t-8.5 -14.5t-5.5 -13t-4 -15.5t-4 -14q-22 -77 -73 -131q-49 -51 -116 -6q-16 11 -20 23.5t-1 20.5z" />
<glyph unicode="_" horiz-adv-x="872" d="M100 12q-2 25 5.5 41.5t24.5 23t33 8.5t38 2q49 -2 74 -0.5t124 1.5q78 -5 139.5 -2t107.5 5t76 -3t44.5 -26.5t13.5 -65.5q0 -17 -6.5 -29t-21 -18.5t-28.5 -9.5t-40.5 -3t-44.5 1t-53.5 4t-55.5 4q-60 -4 -158.5 -2.5t-160.5 -1.5q-50 -3 -74 5t-28.5 18.5t-7.5 40.5 q-1 5 -1 7z" />
<glyph unicode="a" d="M53 39q1 14 8 31q43 102 141.5 363t163.5 403q35 76 63 145q10 24 24 40.5t26.5 24t32 10t32.5 2t35.5 -2.5t33.5 -2q35 -1 56.5 -21.5t37.5 -65.5q93 -262 284 -724q35 -85 67 -183q13 -40 -1 -57.5t-56 -15.5q-53 3 -148 11q-45 4 -65 56q-33 90 -61.5 110t-126.5 23 q-34 2 -70 2h-24q-49 -1 -93 -14q-49 -15 -60 -51q-23 -74 -66.5 -104t-123.5 -31q-3 0 -15.5 -0.5t-20.5 -0.5t-21.5 1.5t-21.5 4.5t-17 9t-12 14.5t-2 22.5zM116.5 62.5q-0.5 -6.5 2.5 -10t9 -4.5q19 -3 35 -3q66 0 102 53q9 14 31 41t31 41q22 32 45 47t59 15 q26 0 124 12q18 2 35 2q58 0 116 -23q74 -30 96 -82q39 -92 137 -92h12q5 0 15 -1t16 -1t13 3t5 11.5t-6 24.5q-46 115 -92.5 239.5t-108.5 296.5t-87 241q-3 7 -10.5 22t-10.5 24q-18 61 -37 75q-11 8 -29 8q-14 0 -33 -5q-19 -2 -39 -0.5t-36 2.5t-33.5 -18.5t-31.5 -62.5 q-53 -158 -105 -252q-44 -80 -93.5 -244t-89.5 -241q-7 -13 -32 -86q-1 -2 -4 -10t-4 -12t-1.5 -10.5zM420 443q9 17 17 34.5t15 39.5t11 35.5t10.5 41t9.5 37.5q15 51 26 69q23 39 53 39t50 -39q50 -100 92 -266q6 -26 -11.5 -38t-45.5 -14q-1 0 -152 -6v-2q-5 1 -14.5 1.5 t-17 1.5t-14.5 3q-38 10 -38 35q0 12 9 28zM482 469q-13 -33 22 -41q7 -2 15 -3t16 -1.5t10 -0.5h22t21.5 0.5t16.5 2.5t18 6q38 19 22 47q-12 22 -28 64t-22 56q-14 33 -35 32q-20 -1 -30 -31q-5 -13 -21.5 -59.5t-26.5 -71.5z" />
<glyph unicode="b" d="M75 160q2 62 7 379h-2l6 369v27q6 76 33 101.5t104 26.5h36q189 0 367 -29q44 -7 90.5 -38t80 -75.5t47.5 -96.5q5 -21 5 -41q0 -31 -13 -61q-4 -8 -5.5 -24t-2.5 -19q-5 -20 -6.5 -32t-2 -20.5t4.5 -16t8.5 -11.5t16.5 -15.5t22 -19.5q11 -11 40 -36t42 -39.5t31 -41.5 t27 -61t11 -79q-2 -12 -7.5 -50t-10 -60.5t-19 -52.5t-37.5 -48q-27 -26 -88.5 -48.5t-125.5 -29.5q-207 -23 -423 -23q-76 0 -154 3q-32 1 -47 28q-35 64 -35 124v10zM140 324q-1 -19 -1 -33q0 -20 1 -33q2 -23 11 -81.5t10 -69.5q8 -58 57 -58q7 0 14 1q16 4 57 3h36 q47 -1 72 -1h21q21 -2 43.5 -3t40 -1t45 2t40 3t44.5 5l40 5t45 6t41 6q39 6 70.5 18.5t49.5 24.5t32.5 31t20 30t12.5 29t8 21q1 9 5.5 32t5.5 32t2 28t-1.5 31t-9 29.5t-17.5 33.5q-59 71 -84 92q-34 27 -82 50q-29 13 -37 39.5t5 56.5q3 8 10.5 21t9.5 18q23 52 23 89 q0 12 -2 22q-10 43 -66 90q-79 66 -174 80q-51 7 -156 13t-159 14q-16 2 -28 2q-25 0 -35 -10q-12 -12 -12 -49q0 -8 1 -16q2 -32 2 -88.5t-2 -138.5q-1 -47 -1 -85q0 -97 7 -142q2 -13 2 -26q0 -23 -6 -44q-9 -35 -11 -79zM258 830q0 41 39 41q17 0 77 2q27 1 49 1 q27 0 49 -2q38 -2 77 -11q37 -9 58 -27.5t34 -53.5q8 -24 8 -46q0 -46 -36 -86q-31 -33 -75 -53t-72 -24.5t-81 -10.5q-67 1 -85 14.5t-27 67.5q-15 93 -15 188zM262 300q-1 7 -1 14q1 46 29 86q32 46 85 53q58 9 115 9q131 0 256 -47q56 -21 61 -99v-11q0 -67 -56 -100 q-15 -9 -31.5 -14t-32 -7t-33 -3t-33.5 -0.5t-33 -0.5q-10 0 -22 0.5t-29.5 2t-31.5 2.5q-63 -5 -100 -6h-4q-60 1 -96 31q-37 32 -43 90zM339 693v-18q0 -41 8 -49q8 -7 43 -7q11 0 25 1h53q48 4 84 35.5t36 68.5q0 64 -106 84q-56 12 -90 12q-32 0 -46 -10 q-16 -12 -16 -49q0 -27 9 -68zM353 300q8 -39 24.5 -54t57.5 -18q20 -1 68 -1q14 -2 30 -2q55 0 137 19q62 15 67 60v7q0 45 -63 64q-5 1 -68 18q-20 5 -44.5 7t-41 1.5t-45.5 -2.5t-42 -2q-63 -3 -77 -20q-8 -10 -8 -33q0 -18 5 -44z" />
<glyph unicode="c" d="M62 493q-9 36 -9 74q0 60 23 123q34 94 117 208q21 28 55 52t59 35.5t70 29.5q125 52 221 53q25 0 47 -4q20 3 39 3q30 0 60 -7q50 -12 84.5 -30t85.5 -49l4.5 -3l4.5 -3t5 -3q37 -23 37 -69q0 -13 -3 -27q-4 -19 -29 -77q-15 -31 -33 -40t-54 5q-24 12 -71.5 27 t-58.5 19q-47 17 -93 17q-96 0 -186 -77q-110 -96 -110 -219q0 -46 16 -96q17 -54 73 -105q57 -50 131 -72q29 -8 59 -9q46 0 92 20q13 6 33 15t28 13t21.5 12t21.5 16.5t19.5 22t24.5 32.5q11 18 31 22t30 -9q71 -56 100 -85.5t31 -47t-12 -32.5q-166 -215 -386 -240 q-35 -4 -68 -4q-142 0 -246 73q-28 20 -64 36q-71 33 -108 115q-48 105 -92 285zM117 602q-3 -29 -3 -59q0 -162 98 -324q31 -53 77 -77q192 -104 280 -104q70 4 110.5 9.5t76 22.5t55 32.5t63.5 55.5q3 3 18.5 18t21.5 20q14 11 20 16.5t15.5 17.5t9 24t-10.5 24 q-23 28 -47 34t-46 -15q-51 -57 -117 -87q-59 -27 -121 -27h-16q-150 15 -207 58q-72 78 -104 162q-28 73 -28 137q0 10 1 20q5 72 31.5 133t71.5 106q43 36 81.5 60t84.5 40q40 14 83 14h11q49 -2 101 -24q8 -4 36.5 -10.5t41.5 -16.5q18 -13 46.5 -14.5t40.5 12.5 q8 20 9 34.5t-6 23.5t-14 14t-19 11t-16 9q-56 39 -154 46q-25 2 -49 2q-212 0 -379 -134q-62 -50 -100.5 -119t-46.5 -145z" />
<glyph unicode="d" horiz-adv-x="1093" d="M64 889q-4 22 -4 41q0 42 20 68q29 37 104 51q51 9 103 11h21l83 -5q52 -6 98 -15t102 -24q11 -5 47.5 -18.5t61.5 -25t60 -30t66.5 -45t58.5 -58.5q48 -53 80 -110t45 -101q14 -46 19 -94q3 -32 3 -55v-21q-2 -28 -7 -60t-5 -36q-1 -16 -22 -53t-60 -83.5t-87 -91 t-109 -79t-118 -43.5q-116 -18 -220 -18h-30q-66 0 -80 1h-37t-37.5 0.5t-35.5 9t-32 25.5q-66 79 -66 176q0 15 2 31q8 71 8 147q0 101 -14 210q-4 35 -4 62v10q1 27 1 53q0 88 -15 170zM141 900q9 -48 10 -137.5t3 -111.5q13 -164 13 -290q0 -99 -8 -174q-1 -6 -1 -13 q0 -27 10 -57q7 -24 19 -35.5t40 -16.5q76 -14 156 -14q146 0 304 47q113 34 201 158q88 123 88 250q0 48 -16 95q-32 95 -98.5 165.5t-163.5 128.5q-160 96 -375 96q-61 0 -127 -8q-36 -5 -49 -23t-6 -60zM257 797v8q1 35 31 59q30 23 75 23q7 0 15 -1q107 -7 218 -48 q107 -38 161.5 -108t84.5 -187q6 -27 6 -58q0 -33 -8 -71q-14 -72 -56 -107q-5 -5 -29.5 -28t-35.5 -32t-32 -21.5t-41 -16.5q-10 -2 -43.5 -9.5t-44 -9t-44 -7t-44.5 -4t-45 0.5q-1 0 -4 0.5t-5 0.5q-46 2 -70.5 7t-40.5 24.5t-22 42t-14 74.5q-10 66 -10 176q0 29 1 59 q1 51 1 93q0 86 -4 140zM337 554h1v-234q1 -29 10 -46t37 -18q32 -2 61 -2q118 0 196 29q54 20 93 78.5t47 122.5q2 17 2 34q0 46 -16 87q-40 85 -156 148q-103 56 -191 56q-11 0 -22 -1q-34 -3 -48.5 -18t-13.5 -49q1 -28 1 -59t-0.5 -69t-0.5 -59z" />
<glyph unicode="e" horiz-adv-x="980" d="M67 778q-2 19 -2 46q0 49 7 125q6 61 31 83t85 24q136 3 415 7l255 9q25 0 39 -34q7 -19 7 -52q0 -43 -12 -109q-1 -8 -5.5 -14t-13 -10t-14 -6t-18 -4.5t-16.5 -3.5q-69 -19 -155 -19h-5q-10 0 -20 1q-77 0 -141 -4q-57 -5 -85 -5h-14q-33 2 -50 -11.5t-25 -46.5 q-11 -41 -1 -57.5t52 -18.5q39 -2 235 -2h64q74 -2 90.5 -17t26.5 -90q1 -10 1 -20q0 -87 -115 -100q-114 -13 -218 -13q-35 0 -68 1h-14q-38 1 -52 -9q-17 -12 -18 -45v-6q0 -55 19 -81q20 -28 67 -33q38 -3 91 -3q105 0 269 12q14 1 28 1q57 0 87 -21q38 -26 49 -97 q3 -23 4 -43q-1 -48 -21 -70q-25 -28 -88 -27h-13q-54 -14 -212 -14q-37 0 -81 1q-113 2 -186.5 2t-109.5 -2q-37 -4 -56 8t-34 47q-58 135 -58 320q0 42 3 86q5 72 5 140q0 92 -9 175zM128 889q-4 -32 -4 -71q0 -70 13 -162q4 -45 5 -73q0 -6 -1 -11q-1 -30 -5.5 -84.5 t-4.5 -84.5v-21q0 -116 20 -221q17 -92 101 -95q15 0 91 -3t104 -3q28 -2 87 -2h23q45 0 81 2q45 2 91 6q25 1 43 3.5t36.5 6.5t29 11.5t17 18t5 25.5t-11.5 35q-24 35 -39.5 47t-39.5 7q-36 -8 -53 -11q-45 -9 -110 -10h-32q-47 0 -88 2q-24 1 -50 1q-35 0 -74 -2 q-90 11 -108 115q-2 12 -9 45.5t-10 52.5q-2 12 -2 22q0 27 14 39q19 16 69 19q49 3 90 3q47 0 82 -4q17 -2 40 -2q28 0 66 3q68 6 83 6q59 0 59 54v7q-4 57 -66 57h-2q-16 -1 -29 -1q-33 0 -52 4q-60 12 -124 12q-49 0 -100 -7q-15 -2 -28 -2q-31 -1 -47 11q-24 16 -30 67 q-3 24 -3 45q-1 55 19 83q23 34 81 34q9 0 18 -1q68 -6 143 -5q106 0 225 11q8 1 61 14q20 5 38 28t14 46q-3 24 -18 39t-36 11q-19 -3 -57 6t-59 3q-39 1 -75 1h-36h-57q-9 1 -19 1q-50 -1 -130 -13q-96 -14 -138 -14q-54 -1 -73.5 -22t-27.5 -79z" />
<glyph unicode="f" horiz-adv-x="948" d="M78.5 475q-0.5 17 1.5 36t4 32.5t6 36t6 33.5q4 25 4 59q0 45 -7 106q-12 106 -13 133v11q0 74 26 104q22 23 69 23q17 0 37 -3q64 -9 129 -9t131 9q98 14 184 14t158 -14q63 -12 63 -64v-9q-1 -5 5 -63q1 -10 1 -18q0 -46 -22 -68q-26 -27 -89 -27q-69 0 -369 -10 q-36 1 -48 -9.5t-7 -53.5t15 -53.5t54 -8.5q20 7 44 10t41.5 4t49 -1.5t43 -3.5t47.5 -6t41 -6q33 -5 43 -30q20 -54 20 -98q0 -28 -8 -52q-14 -41 -35 -54.5t-64 -18.5q-10 -2 -34 -2q-16 0 -39 1q-38 1 -58 1h-15q-36 0 -60 -2t-40.5 -9t-25 -13t-13 -23t-5.5 -30t-1 -41 t9 -86q8 -53 8 -82v-6q-2 -77 -25 -99.5t-98 -23.5h-45q-85 9 -107 37q-14 19 -14 56q0 19 4 43v46v8q0 32 6 126q2 43 2 73q0 46 -6 62q-3 16 -3.5 33zM146 885q0 -9 8 -54q11 -72 11 -139q0 -63 -10 -123q-8 -47 -8 -91q0 -37 6 -71q9 -54 9 -108t-9 -108q-6 -34 -6 -62 q0 -15 2 -28q7 -59 80 -59h7q48 2 48 57q0 23 4 81q1 27 1 45q0 22 -2 32q-3 23 -3 45q0 43 11 81q4 13 8 22t7 16t10 11.5t10 7t14 4.5t15 2.5t20 2t23 2.5q32 3 119 9t118 10q26 3 36 10t11 22t-2 40q-2 20 -3 26t-4 18.5t-7 16t-11.5 7.5t-19.5 5q-66 4 -119 4 q-102 0 -157 -14q-39 -1 -57 14t-12 59q2 16 -2 46t-1 47q8 50 19 59.5t62 5.5q18 -1 41 -1q61 0 159 9q111 12 172 12q14 0 25 -1h5q51 0 51 64q0 32 -10 49t-41 21q-41 5 -86 5q-55 0 -117 -8q-18 2 -42 2q-52 0 -132 -9q-95 -11 -148 -11q-12 0 -22 1h-17q-40 0 -52 -13 t-12 -58v-13z" />
<glyph unicode="g" horiz-adv-x="1058" d="M46 395q-3 41 -3 81q0 116 27 215q35 132 138 235q52 51 118.5 78.5t157.5 45.5q12 5 51.5 3.5t57.5 -2.5t54 -5t41 -5q51 -5 81 -14.5t76 -41.5q38 -26 42 -51q1 -4 1 -9q0 -24 -16 -61q-23 -65 -50 -86q-21 -16 -65 -16q-11 0 -23 1q-32 2 -126 40h-16q-83 0 -150 -49 q-72 -53 -103 -141q-19 -53 -19 -109q0 -36 8 -72q14 -64 71 -115t128 -67q26 -5 52 -5l90 17q13 6 65 46q13 10 22 26.5t6 29.5q-2 7 -8 11.5t-15.5 6t-17 1.5t-19 -0.5t-15.5 -0.5q-5 0 -14 -2t-13 -2h-54t-48.5 13t-31.5 40q-11 32 -14 56.5t6 55.5t34 58q19 20 39.5 33 t45.5 18.5t41.5 7.5t48 2.5t44.5 1.5q20 1 45 -4.5t48 1.5q38 0 63.5 -9t34.5 -18t23 -29q43 -96 43 -164v-11q-4 -84 -34.5 -158t-78.5 -127.5t-110 -92t-129.5 -57t-135.5 -18.5q-109 0 -196.5 38.5t-178.5 114.5q-106 90 -119 265zM125 307q25 -68 71 -119 q16 -13 35.5 -32t39.5 -34.5t55 -35.5q18 -10 51.5 -17.5t60.5 -10.5t65.5 -6t45.5 -4q36 -3 64.5 -3t49 2t38.5 7.5t30.5 11.5t27.5 17t26.5 20.5t30 25t36.5 28.5q39 28 72 101.5t41 148.5q2 21 2 41q0 51 -14 92q-10 23 -23.5 34.5t-37.5 10.5q-2 -2 -29 -2q-23 0 -63 1 q-88 3 -103 3q-7 6 -19 6q-18 0 -47 -15q-45 -24 -45 -52v-4q1 -12 2 -17.5t3.5 -17t6 -16.5t10.5 -12t16.5 -9t24 -2t32.5 4q49 -2 73 -5q44 -5 58 -25q7 -11 7 -31q0 -14 -4 -32q-8 -31 -11.5 -42.5t-14.5 -31t-27 -32.5q-29 -31 -109 -53q-55 -15 -110 -15l-50 3 q-125 41 -197 150q-52 78 -52 157q0 32 8 64q25 101 128 223q45 55 138 76q36 9 64 9q44 0 69 -21q23 -17 65 -22q16 -2 29 -2q25 0 45 6q8 3 12 7.5t8 14t8 15.5q19 23 15.5 46.5t-43.5 44.5q-88 46 -185 52q-15 1 -30 1q-81 0 -155 -27q-88 -32 -162.5 -103t-117.5 -172 q-9 -21 -14 -70.5t-12 -68.5q-15 -61 -15 -124q0 -68 26 -137z" />
<glyph unicode="h" d="M88 115q7 48 7 191q0 56 -1 130q-3 204 -3 288v34q0 27 3 75q4 57 4 78q0 25 -5 71q-4 30 22 52q25 22 59 21h3q17 1 73 7q32 4 55 3q18 0 30 -2q31 -6 41 -21.5t12 -55.5q1 -28 0 -63t-3 -78.5t-3 -61.5v-9q0 -69 30 -99q24 -23 70 -23q17 0 37 3q22 4 52.5 4.5 t56.5 6.5q51 12 62.5 26t11.5 64q0 8 1 56q0 24 0.5 44t-0.5 36q-1 30 -6 57q-2 11 -2 22q-1 33 19 53q26 28 79 30q24 3 45 3q73 0 111 -35t38 -103q0 -20 -3 -42q-11 -82 -12 -243t-3 -196q-1 -26 -1 -64q0 -52 2 -124q2 -51 2 -91q0 -60 -4 -96q-5 -61 -63 -69 q-31 -5 -58 -5q-50 0 -87 16q-65 27 -65 79q0 5 1 10q1 11 1 25q0 34 -7 85q-7 47 -7 80q0 17 2 30q1 6 1 11q0 49 -57 56q-27 1 -46 1h-25q-24 -2 -70.5 -8t-69.5 -8q-16 -1 -24.5 -12.5t-10 -21.5t-2.5 -30q-4 -137 -9 -184q-1 -5 -2 -19.5t-2 -21t-3.5 -19t-7 -19 t-11 -15t-16.5 -14t-24 -8.5q-39 -10 -74 -10q-73 0 -125 45q-8 8 -18 41q-3 12 -1 37zM147 908q6 -60 7 -151q0 -49 -2 -109q-2 -74 -3 -133q0 -75 4 -128q3 -56 3 -80.5t-2.5 -77.5t-2.5 -81v-6q0 -54 33 -74q26 -16 49 -16q17 0 33 9q37 20 41 75q4 45 6.5 117.5 t4.5 103.5q6 83 73 83h5h22q39 0 111 4q48 3 81.5 3t51.5 -3q55 -7 68 -19t26 -68q8 -35 8 -73v-13q0 -33 -2 -70q-2 -31 -1 -55v-18q4 -71 91 -71q32 0 43.5 17.5t13.5 49.5q1 27 4.5 93t4.5 99t2 85v49.5v45.5q-1 42 -4 82q11 273 11 345q0 74 -84 77q-39 2 -53.5 -12.5 t-17.5 -59.5q-3 -38 -8 -239q-1 -31 -16 -46.5t-48 -21.5q-8 -2 -38 -7.5t-38.5 -7t-32.5 -5t-36 -4t-32 -1.5t-38.5 0t-39.5 3q-70 8 -100.5 38t-32.5 98q-1 15 2.5 43t3.5 39q5 103 5 138v14q-3 32 -82 32q-21 0 -47 -2q-29 -3 -40 -32t-7 -59z" />
<glyph unicode="i" horiz-adv-x="405" d="M70 81v17q4 63 4 142q0 32 -1 66q-1 40 -1 76q0 71 3 122q-1 22 -1 45q0 69 7 152q1 17 1 41q0 40 -4 98q-5 71 -5 116v23q3 55 21 69q11 8 38 9q16 0 36 -3q8 -1 39 0.5t42 3.5q39 -1 56.5 -3t25 -13t6 -21t-5 -41t-3.5 -59v-89q0 -148 5 -235v-51q-1 -69 1 -165 q1 -75 2 -128q0 -42 -1 -71v-39t-2 -54q-3 -54 -19 -73.5t-66 -21.5q-19 -1 -38 -1q-51 0 -106 6q-11 1 -18.5 9t-10.5 22t-4 25t-1 26zM124 98q-2 -16 1.5 -26t10 -12.5t14.5 -3.5t15.5 0t12.5 0q18 -3 33 -4q72 0 75 79q1 15 1 38q1 53 -3 147q-2 49 -2 87q0 69 5 106 q-12 228 -12 357q0 34 1 61q0 7 1.5 25.5t1 23.5t-4 15t-12 11.5t-24.5 2t-41 -3.5q-37 1 -43.5 -7.5t-8.5 -56.5q-2 -43 -2 -120t-2.5 -141t-10.5 -123q0 -5 3.5 -80t5.5 -90q-2 -143 -15 -285z" />
<glyph unicode="j" d="M88 470q2 41 20.5 60t59.5 21q9 1 27 1q44 0 138 -4q27 -2 40.5 -15t14.5 -42q0 -5 1.5 -34t2.5 -40.5t5 -32.5t10 -38q20 -57 47 -88q26 -31 72 -31h3q47 1 83 31.5t57 79.5q44 105 44 177v9q0 6 2 136q3 43 3 73v21q-2 35 -9 104.5t-8 104.5v14q0 56 14 72q16 18 80 19 q13 0 37.5 1t44 1.5t37.5 0.5q31 -1 50 -15t29 -46q10 -33 10 -77q0 -42 -9 -95q-14 -75 -14 -161q0 -24 1 -49q1 -21 1 -45q0 -60 -4 -137q-8 -90 -36 -161t-64.5 -117.5t-100.5 -107.5q-54 -49 -165 -67q-52 -5 -89 -5q-28 0 -47 3q-66 4 -121 35t-114 84 q-102 117 -145 288q-8 32 -8 65v7zM160 412q3 -37 18 -77.5t29 -66.5t43 -72q70 -112 225 -141q32 -6 49 -6.5t51 3.5q123 9 218 98t107 215q13 143 13 162q0 22 -2 56t-1 58.5t7 56.5q21 115 21 191q0 37 -5 65q-7 39 -23 47q-9 5 -34 5q-15 0 -37 -2q-17 -1 -28 -3.5 t-21 -8.5t-15 -17.5t-4 -29.5q0 -9 2 -39.5t2.5 -41.5t1.5 -36.5t0.5 -40t-1 -36t-2 -40t-4.5 -37.5q-5 -41 -6 -141t-9 -149q-15 -90 -98 -176q-15 -16 -35.5 -25t-34 -11t-39.5 -4q-28 -1 -58 8t-61.5 29.5t-57.5 62t-39 98.5q-2 6 -7 44.5t-10 50.5q-10 26 -82 26 q-11 0 -25 -1q-17 0 -28 -7.5t-14.5 -21.5t-4.5 -22.5t-1 -22.5z" />
<glyph unicode="k" d="M80 943q1 28 1.5 38.5t4 28t4.5 22t9 14t13 10.5t21 5t27.5 5t37.5 3q10 1 49 6.5t60 4.5q39 -1 53 -18t9 -57q-3 -23 -3 -110.5t-14 -134.5q-2 -11 -3 -22q0 -41 40 -61q23 -11 60 2t51 38q22 40 98 197q13 28 37 84q30 67 91 67q12 0 26 -3q18 -4 54.5 -5t54.5 -4 q53 -11 53 -52q0 -13 -5 -29q-15 -47 -43 -91q-78 -120 -123 -236q-11 -23 -30.5 -46.5t-27 -35t-7.5 -32.5t22 -51.5t68 -79.5q31 -43 107 -123.5t109 -128.5q3 -4 14 -18q10 -13 16 -23q8 -14 8 -24q0 -22 -71 -80q-18 -11 -47 -11q-20 0 -42 4q-58 12 -103 42 q-25 16 -55.5 51.5t-48.5 62.5l-18 27q-30 23 -70.5 73t-56.5 66q-7 7 -18.5 22t-22 25.5t-22.5 17.5q-18 11 -39 11q-16 0 -32 -6q-39 -13 -38 -45q0 -3 4 -115q4 -86 4 -133q0 -65 -21.5 -85t-89.5 -20q-43 0 -64 3q-71 9 -72 78q0 25 -6 145q-4 80 -4 136q0 28 1 49 q1 26 1 61q-1 82 -7 208q-6 118 -6 199q0 42 2 74zM135 580v-14q0 -36 7 -102q5 -48 5 -82q0 -23 -2 -40q-4 -15 -4 -47q1 -25 3 -63q5 -72 4 -100v-9q-1 -35 25 -53q25 -17 67 -17h5q25 0 36.5 11.5t10.5 27.5t-1 32q-4 52 -3.5 116t3.5 142q3 51 25 67q14 11 41 11 q14 0 30 -3q90 -16 108 -38q25 -31 80.5 -92.5t80.5 -92.5l95 -108q27 -24 47 -38t47.5 -27t51 -7.5t40.5 29.5q22 10 -6 48t-71 77q-26 22 -66 71t-70.5 90t-32.5 43q-43 38 -62 64q-20 26 -20 60q0 32 28 67q13 22 78.5 128t98.5 166q4 7 15 20.5t17.5 22.5t6 23t-13.5 27 q-12 12 -40 12q-15 0 -33 -4q-54 -10 -72 -31q-10 -12 -33 -55q-14 -27 -52 -104t-60 -118q-25 -47 -73 -66q-35 -14 -75 -14q-15 0 -31 2q-47 6 -57 17t-7 29q-4 31 -4 66q0 74 16 167q3 29 3 50q-1 36 -9 44q-7 6 -31 6q-23 0 -62 -5q-55 -7 -65 -17.5t-11 -66.5 q-1 -18 -2.5 -138.5t-5.5 -183.5z" />
<glyph unicode="l" horiz-adv-x="978" d="M79 129q12 123 12 125q11 74 11 164.5t-4.5 144.5t-14.5 163q-5 50 -5 95q0 102 25 180q14 43 28.5 54t59.5 11q48 -1 131 -16q13 -2 20.5 -13t8.5 -29.5t0.5 -34.5t-3 -38.5t-2.5 -29.5q-1 -12 -1 -28q0 -39 4 -99q4 -70 4 -108v-15q-4 -121 -4 -214q0 -37 1 -69 q1 -69 17.5 -85t86.5 -21q28 -2 57 -2q45 0 93 4q80 8 126 8q7 0 25.5 1.5t28.5 0.5q82 -3 101 -23t22 -103q2 -38 2 -64q0 -39 -4 -50q-9 -27 -51 -35q-24 -3 -95 -7q-84 -4 -329 -6q-15 1 -118 11t-168 16q-30 3 -49 37q-16 30 -16 64v11zM132 919v-11q0 -35 14 -129 q10 -70 10 -134q0 -39 -4 -75v-36q0 -91 -7 -274q-1 -23 0 -44q0 -64 6 -118q1 -15 12.5 -24t23 -11.5t19.5 -1.5q11 1 26 1q40 0 107 -6q57 -5 96 -5q24 0 40 2q51 6 81 7h13q27 0 63 -2q46 -4 85 -5q25 1 55.5 -2t51.5 0q26 3 30 39q1 11 1 21q1 54 -27 82q-24 24 -66 24 q-15 0 -33 -3q-70 -12 -151 -13.5t-121 -4.5h-12q-47 0 -89 26q-46 30 -53 81q-12 83 -12 222q0 65 3 143q4 158 4 221v22q0 13 2 33t2 27.5t-6 17t-21.5 12t-44.5 1.5q-19 4 -34 4q-25 0 -37 -12q-20 -20 -27 -75z" />
<glyph unicode="m" horiz-adv-x="1382" d="M15.5 53q0.5 7 1 11t3.5 13l4.5 13.5t6 15.5t6.5 16q15 33 26 64t22 68t19 59q39 113 93 330t87 317q15 48 47 69q31 20 79 20h5q13 0 40 -2t41 -2q64 0 91 -63q3 -7 43.5 -77.5t58.5 -114.5v-1q25 -61 32 -63q5 -1 11 10q4 8 10 25q2 5 11.5 31t15 41t16 41t19 43t19 35 t20.5 29q6 6 14.5 16.5t13.5 16.5t14 15t16 12.5t18.5 8.5t21 3t25.5 -3q10 -2 39 1t59.5 -6t62.5 -42q29 -55 56 -165t36 -137q24 -70 50.5 -186.5t40.5 -164.5q6 -20 16 -51.5t16.5 -51t14 -52t7.5 -53.5t-2 -55q-8 -51 -19.5 -64.5t-60.5 -25.5q-36 -8 -53 -9h-15 q-36 0 -55 12q-22 15 -36 62q-13 44 -33 129t-31 125q-10 34 -26 104.5t-31 116.5q-1 3 -4.5 26t-9.5 38t-15 15q-11 0 -19.5 -14.5t-16.5 -38t-10 -27.5q-17 -36 -68 -112t-69 -116q-25 -55 -84 -55q-12 0 -26 2q-32 5 -49 16t-23 40q-3 15 -9.5 31t-16.5 37.5t-14 30.5 q5 4 15 13t15 13q37 -71 43 -80q21 -32 50.5 -34.5t53.5 26.5q43 52 67 107q16 26 32.5 56t26 47.5t24.5 46.5q24 47 35 65.5t26.5 36.5t26 9t23.5 -34t28 -76q22 -72 49 -197.5t46 -191.5q2 -8 9.5 -40t13.5 -48q16 -49 41 -67q17 -12 39 -12q11 0 23 3q45 11 59 39 q8 15 7 36q0 19 -6 44q-18 73 -62 217q-28 92 -68 247.5t-60 225.5q-12 43 -41.5 79t-60.5 37q-9 1 -17 1q-59 -1 -102 -25q-49 -28 -66 -87q-11 -41 -25.5 -85.5t-45 -104t-57.5 -61.5h-2q-18 0 -42 44q-24 46 -42.5 100.5t-33.5 104t-18 53.5q-54 70 -115 70h-5 q-64 -3 -114 -81q-13 -21 -25.5 -47.5t-19 -43.5t-18.5 -53t-16 -47q-12 -33 -18.5 -123t-34.5 -134q-20 -32 -27 -76q-19 -133 -77 -260q-6 -14 -8.5 -20.5t-1.5 -18t10 -20.5q15 -16 39 -16q13 0 28 4q94 27 104 52q12 28 13 81.5t8 78.5q105 371 120 429q6 23 20 27 q20 5 36 -20q9 -14 40 -54t42 -66q10 -23 21.5 -71t24.5 -73q-5 -4 -15 -13t-15 -13q-24 28 -48 101.5t-58 106.5q-23 -22 -33 -52t-15.5 -69t-13.5 -61q-22 -63 -38.5 -188.5t-35.5 -184.5q-12 -41 -60 -59q-37 -15 -78 -15q-11 0 -22 1q-87 8 -123 26q-7 4 -12.5 8t-8.5 9 t-5 9t-1.5 11z" />
<glyph unicode="n" horiz-adv-x="1081" d="M77 940q0 42 4 75q5 44 35 44q6 0 13 -2q26 -6 113.5 -19t142 -33.5t99.5 -64.5q47 -45 75 -77.5t57 -82t39 -100.5q5 -22 27 -103.5t27 -127.5q28 -98 51 -98h2q22 5 22 89q0 19 -1 41q-2 55 -12 125q-14 242 -19 363v7q0 56 32 76q20 7 58 9q15 1 30 1q22 0 46 -2 q38 -3 66 -16.5t26 -34.5q-12 -49 -14 -108q-1 -20 -1 -38q0 -36 3 -67q4 -46 9 -108.5t5 -106.5q0 -46 -3 -156q-3 -94 -3 -167v-24q0 -81 8 -156v-11q0 -67 -70 -67h-34.5h-38t-34.5 0.5t-38 2t-33.5 4.5t-35.5 7q-69 17 -116 67t-86 127q-79 156 -125 379q-6 30 -23 58 t-42 41q-16 -11 -19 -28.5t2 -46.5t5 -38v-26q0 -66 -7 -196q-1 -13 -1 -30q0 -29 2 -65q4 -58 4 -108.5t-10 -93.5q-6 -24 -14.5 -33t-31.5 -10q-89 -2 -138 -14q-30 -8 -40.5 3.5t-10.5 38.5q0 21 7 93q9 87 17 259q1 24 1 54q0 91 -12 231q-16 184 -15 264zM139 884 q-1 -14 -1 -31q0 -37 6 -89q8 -77 8 -103q0 -43 4 -161q3 -104 3 -179q-1 -11 -1 -21q0 -82 -6 -160q-3 -37 8.5 -49.5t47.5 -10.5q38 2 50 18q11 14 10 56v7v44q0 81 4 219q4 102 4 177q0 58 -2 100q-4 14 0 31t23 23q11 3 23 3q18 0 40 -8q36 -12 52 -36q19 -28 33 -76 q9 -29 32.5 -123t45 -155.5t53.5 -118.5q52 -94 130 -134q74 -38 175 -38h10q36 1 51.5 17.5t15.5 50.5q3 231 4 252q2 38 2 90q0 83 -6 201q-6 126 -6 211q0 44 2 77q2 8 0 14t-7 9.5t-11 5.5t-14.5 2.5t-16 0.5t-16.5 -1t-14.5 -2t-12 -2t-7.5 -1q-31 -4 -46 -25t-8 -48 q13 -52 13.5 -149t2.5 -121q2 -27 8.5 -79t10 -84.5t3.5 -77.5t-6 -83q-9 -55 -51 -55q-9 0 -20 3q-65 16 -85 77q-16 47 -38 144t-38 144q-24 70 -53 123t-71 98.5t-101 72.5t-134 32q-11 1 -21 1q-39 0 -56 -13q-21 -16 -26 -70z" />
<glyph unicode="o" d="M26 526q-1 9 -1 19q0 30 8 57q18 183 117 295t278 172q70 22 135 22q9 -1 17 -1q72 -4 139.5 -33t121.5 -72t96 -99q7 -10 22.5 -35t25.5 -37q72 -127 72 -269q0 -80 -23 -164q-6 -14 -13 -44t-12 -42q-21 -60 -67 -116q-108 -126 -249 -173q-78 -26 -157 -26l-125 16 q-141 38 -251 154q-71 74 -98 161.5t-36 214.5zM62 504q2 -41 20 -85q11 -75 47 -135.5t117 -139.5q58 -68 162 -94q54 -13 105 -13q46 0 89 11q93 23 197 88t121 106q13 30 22.5 56t18 55t14.5 45q31 88 31 169q0 130 -79 242q-81 116 -179 170q-76 42 -175 42 q-27 0 -57 -3q-291 -33 -421 -307q-23 -92 -29 -129q-5 -28 -5 -59q1 -9 1 -19zM258 588q5 57 37.5 126.5t91.5 139.5q54 42 108 41l74 -19q10 -6 28 -11q98 -33 156 -90q57 -57 73 -127q8 -38 9 -78q-1 -34 -7 -70q-14 -77 -55 -158q-3 -6 -12 -16.5t-12 -16.5 q-57 -81 -127 -101q-29 -8 -62 -9q-47 0 -101 17q-24 12 -51 33t-57 56t-53 76t-34 95q-8 37 -8 77q0 17 2 35zM338 429q21 -69 105 -132q54 -41 111 -41q10 0 20 2q68 8 117 70q86 112 86 201q0 10 -1 20v12q0 107 -68 178q-72 75 -184 79h-12q-88 0 -122 -57 q-68 -109 -69 -221q1 -55 17 -111z" />
<glyph unicode="p" horiz-adv-x="999" d="M92 921.5q0 23.5 2 43t6 32t12.5 22t19 14.5t26.5 9t35 6.5t44 5.5q9 1 14.5 1.5t14 1.5t16.5 2q49 6 118 6q74 0 172 -7q122 -9 216 -79t133 -181q21 -59 21 -121q0 -54 -16 -110q-35 -125 -120.5 -194t-218.5 -103q-39 -10 -80 -15q-17 -2 -37 -0.5t-37.5 4.5t-30 -3.5 t-14.5 -23.5q1 -17 1 -34q0 -25 -3 -50q-4 -42 -2 -62q4 -45 -4 -57.5t-50 -24.5q-52 -15 -113 -15h-21q-60 3 -79 21t-20 76q0 29 5 263q-1 0 -1 253q-2 172 -7 262q-2 34 -2 57.5zM157 332q2 -40 11.5 -122t11.5 -125q1 -22 13.5 -31.5t29 -8t34.5 1.5q31 2 47 14t12 42 q-2 13 -2 31q0 34 6 85q2 22 5 38.5l5 27.5t7 18.5t7.5 11.5t10 6t9.5 2.5t12.5 0t13.5 -0.5q88 3 135 8q116 9 201.5 62t114.5 144q31 51 31 120q0 27 -4 57q-18 106 -85 177q-90 95 -205 102q-94 6 -170 6q-113 0 -183 -13q-36 -7 -49.5 -21t-5.5 -49l-7 -304 q-1 -12 5 -64q2 -19 2 -37q0 -29 -6 -55q-7 -70 -7 -109v-15zM316 758q-4 18 -4 32q0 21 8 34q15 24 59 32q44 9 87 9q97 0 184 -45q55 -28 72 -86q4 -17 4 -34q0 -43 -29 -88q-35 -49 -66 -73.5t-79 -27.5q-5 0 -28 -3.5t-35 -1.5q-31 -3 -58 -3q-5 0 -9 1q-32 0 -55 5 t-34.5 22.5t-7.5 47.5q-2 18 -2 59v30v14q0 54 -7 76zM377 692q1 -8 1 -23t1 -22q8 -53 24 -65.5t75 -13.5h9q39 0 100 21q37 13 61.5 42t25.5 60q1 29 -26 52.5t-64 35.5q-73 21 -112 21h-3q-64 -2 -82 -23q-12 -15 -12 -50q0 -15 2 -35z" />
<glyph unicode="q" horiz-adv-x="1144" d="M28 480v78q33 136 88 264q63 145 218 218q108 50 202 64q35 5 70 5q57 0 114 -14q91 -23 176.5 -93.5t166.5 -189.5q33 -49 47 -108q11 -49 11 -94q0 -10 -1 -20q-3 -53 -17 -118q-26 -119 -124 -275q-6 -9 -14 -17.5t-21 -18.5t-17 -14q-11 -9 -25 -19t-22.5 -15.5 t-19 -14t-13 -14.5t-4.5 -17t5 -22q2 -5 8 -18t8.5 -20t7 -19t5 -20.5t0 -18t-5 -17.5t-12.5 -14q-47 -37 -97 -47q-15 -3 -28 -3q-30 0 -47 17q-10 11 -17 21.5t-10 16.5t-9.5 22.5t-10.5 26.5q-12 27 -19.5 34.5t-14 5.5t-26.5 -9t-43 -9q-10 -1 -21 -1q-86 0 -182 51 q-18 9 -37 21t-41.5 27.5t-35.5 23.5q-42 26 -72 61.5t-50.5 82t-31.5 82t-25 93.5q-1 5 -2.5 14.5t-4 17t-6.5 13.5zM95 441v-8q0 -65 29 -107q91 -134 187 -191q110 -65 208 -65q27 0 53 5q37 7 54 -3t34 -52q16 -40 33 -74q10 -19 28.5 -23t35 2t29.5 16q6 5 20.5 7.5 t21 5t10.5 16t-10 40.5q-2 6 -11 22t-11 19q-15 32 -14 49.5t12.5 27.5t45.5 28q36 19 67 61q49 66 75 105q88 134 88 245q0 17 -2 34q-25 194 -164.5 313.5t-337.5 119.5h-18q-216 0 -345 -187q-113 -164 -118 -406zM244 585q0 17 1 30t6 31t8 28t11.5 29.5t12 26.5 l14.5 29t13 27q62 125 192 125h2q58 0 72 3q24 5 47 5q32 0 65 -9q56 -16 99 -53t76 -88.5t41 -109.5q2 -20 2 -41q0 -38 -9 -76q-4 -14 -16 -58t-18.5 -64t-23 -51t-37.5 -54t-42 -23q-20 0 -39 21q-7 7 -11.5 16.5t-10 24t-7.5 19.5q-13 30 -38.5 31t-47.5 -12 q-2 -1 -3.5 -1.5t-3.5 -1.5q-5 -2 -22.5 -6.5t-20.5 -8.5t-3.5 -17.5t9.5 -37.5q7 -17 7 -31q0 -25 -21 -40q-25 -17 -63 -17q-13 0 -27 2q-181 26 -205 214q-2 16 -3 33.5t-1.5 38.5t-1.5 33q-3 16 -3 33zM300 502q6 -166 115 -206q27 -11 49 -11q20 0 36 9q21 10 21 31 q0 13 -8 30q-16 31 -0.5 57t46.5 33q3 1 9 2q42 13 83.5 13t50.5 -28q5 -15 20 -40q13 -21 21.5 -29t20.5 -4.5t28 22.5q73 93 73 206q0 19 -2 38q-8 82 -82 152.5t-161 81.5q-27 3 -51 3q-74 0 -127 -32q-70 -42 -111 -146q-21 -53 -31 -182z" />
<glyph unicode="r" d="M114 144q5 257 17 771q-2 34 8.5 61t27 40.5t29 20t21.5 8.5q47 9 138.5 17t136.5 16h7q17 0 65 -6q60 -8 73 -12q122 -43 145 -54q8 -5 30 -17t35.5 -20.5t28 -22.5t18.5 -27q7 -22 20.5 -59.5t21.5 -63.5t15 -60q5 -26 5 -51v-15q-2 -32 -14 -64q-2 -8 -9.5 -41 t-14.5 -52t-30 -48.5t-59 -53.5q-25 -16 -33 -24t-6 -22t24 -34q15 -22 49 -88.5t63 -96.5q5 -5 21 -49q9 -25 9 -42q0 -14 -6 -24q-14 -22 -59 -25q-130 -7 -140 -7q-40 3 -62 32q-9 11 -63 106q-8 13 -15 26q-7 12 -27.5 58.5t-46.5 76.5q-55 27 -93 30t-54 -13.5 t-22 -44.5q-3 -13 -3 -27q0 -18 4 -38q1 -5 2.5 -14t2.5 -16.5t1 -14.5q-1 -55 -6 -85t-20.5 -48t-37.5 -23.5t-64 -5.5h-8q-118 0 -122 56zM164 716v-61l1 -439q1 -61 5.5 -93.5t14 -47t25 -15.5t37.5 1q50 4 66 23q11 13 11 47q0 17 -3 39q-3 28 -3 55q0 66 19 121 q5 15 29 26.5t59 13.5q8 1 15 1q28 0 58 -7q38 -9 74.5 -41t59.5 -84q23 -65 24 -68q31 -71 60.5 -100t73.5 -33q11 -1 24 0q37 0 86 7q3 -1 5 -1q7 0 7 8q0 22 -60 109q-2 3 -3 4q-11 15 -35.5 53t-45 64.5t-43.5 48.5q-21 20 -21 40q0 9 4 17q12 30 55 33q37 3 88 74.5 t52 174.5q-2 10 -6 43.5t-7 49.5t-11.5 40t-21.5 41q-27 35 -61.5 61.5t-66.5 43.5t-78 26.5t-80 14t-90.5 4.5t-91 -2t-98.5 -6q-19 1 -44.5 -5.5t-41 -15t-11.5 -12.5q-11 -29 -17.5 -60t-9 -66.5t-3.5 -59.5q-1 -16 -1 -41q1 -12 1 -26zM317 681q-4 17 -4 34q0 28 11 57 q16 44 55 62q60 27 127 27q62 0 129 -23q55 -18 83 -58q27 -37 27 -84q0 -3 -1 -7q-2 -55 -42.5 -98t-108.5 -61q-31 -8 -62 -12q-17 -3 -38 -3q-16 -1 -33 1q-40 4 -69.5 19t-50.5 51.5t-21 92.5q0 -9 -2 2zM365 697q-2 -22 7 -50t29 -40q27 -17 40.5 -24t38 -15t45.5 -6 q89 8 126 53q31 39 31 71q0 12 -4 22q-14 40 -79 64q-60 21 -86 25q-22 3 -40 3q-43 0 -69 -16q-36 -22 -39 -87z" />
<glyph unicode="s" horiz-adv-x="927" d="M59.5 290.5q-0.5 28.5 27 56t82.5 52.5q27 16 52 18t42.5 -4.5t37 -25t29 -32.5t25 -37.5t20.5 -30.5q15 -22 55 -44q39 -21 65 -21h2q19 1 31.5 8t16.5 12.5t10 19.5t7 16q1 8 2.5 11.5t-3.5 10t-7.5 9t-9.5 8.5t-9 8q-14 12 -32 19q-102 35 -181.5 105.5t-166.5 179.5 q-32 43 -32 119q1 6 1 11q2 84 36 145q36 66 89 105t116 50q34 6 69 5q30 0 62 -4q68 -10 141 -39q22 -9 36.5 -25t29.5 -41.5t23 -35.5q13 -17 17.5 -31.5t-2 -32.5t-10 -24.5t-18.5 -28.5q-3 -5 -10 -13t-10 -16q-20 -26 -49.5 -29.5t-53 5.5t-57.5 26q-6 4 -9 5 q-15 8 -30 8q-28 0 -54 -27q-24 -25 -18 -50t40 -35q87 -25 158.5 -63.5t156.5 -100.5q38 -28 65 -72q29 -47 29 -90q0 -20 -9 -110q-5 -52 -32 -102.5t-58 -71.5q-94 -99 -266 -99q-23 0 -47 2q-282 58 -364 225q-19 28 -27 48t-8.5 48.5zM120 279q43 -113 146 -186 t259 -77q49 1 85 10.5t65.5 32.5t47.5 43.5t47 59.5q21 34 30 88q4 23 4 48q0 30 -6 64q-12 60 -47 96q-114 97 -258 130q-74 18 -128 86q-10 19 -10 37.5t6 33t20.5 31t27 27.5t32.5 27q34 14 62 15q5 1 11 -1q32 -4 76 -33q15 -10 32 -14t34 5q5 4 11.5 11t15.5 24t9 33.5 t-15 39t-49 41.5q-36 28 -92 45q-44 13 -95 13q-13 -1 -27 -1q-66 -4 -114 -38q-1 -1 -16.5 -13t-20 -16t-19.5 -18t-20.5 -22.5t-16.5 -26t-14 -32t-7 -36t-1.5 -42t9.5 -47.5t19 -55q61 -94 126 -151.5t158 -84.5q30 -9 65 -38q36 -30 42 -80q1 -11 1 -20q0 -38 -18 -71 q-16 -27 -53 -39q-20 -6 -41 -7q-19 0 -39 5q-35 7 -66 32q-90 72 -120 125q-9 15 -19.5 21.5t-24 4.5t-22.5 -5t-24 -10q-27 -13 -45.5 -31t-12.5 -34z" />
<glyph unicode="t" horiz-adv-x="1042" d="M58 968q-2 12 -2 22q0 34 20 55q20 22 54 22q10 0 20 -2q14 -2 32 -2q26 0 60 5q56 9 79 10q53 -1 523 -14h18h23.5t25 -1.5t23.5 -5t18 -9.5t9.5 -16t-2.5 -25q-3 -8 -3 -22q0 -19 6 -47q8 -41 7 -63v-8q-8 -95 -89 -95q-11 0 -24 2q-92 14 -108 14q-51 0 -68 -20 q-15 -18 -15 -62v-10q-6 -143 -14 -401l-4 -103q3 -33 3 -60q0 -72 -22 -92q-30 -28 -149 -34q-10 -1 -15 -1q-37 -9 -59 -0.5t-28 29.5t-7.5 48.5t2.5 56.5q1 12 1 18q1 73 5 197q4 111 4 202v20q0 99 -11 198q-42 7 -63.5 5t-58.5 -8t-57 -7h-25h-19t-15 2.5t-11.5 3t-9 6 t-6 8.5t-5.5 12.5t-5 14.5t-5.5 19.5t-6.5 23.5q-19 67 -26 114zM132 983q-3 -10 -4 -23q0 -28 15 -74q1 -5 3.5 -13.5t3.5 -12.5q4 -16 5 -20.5t5.5 -11t11 -6.5h19.5q137 12 170 19q41 8 60 -7t14 -52q-6 -41 -6 -105q0 -49 3.5 -112t4.5 -108q0 -58 -7 -86 q-4 -216 -4 -239q1 -44 19.5 -57.5t61.5 -2.5q17 -3 30 -4t22.5 2t16.5 5.5t11.5 11.5t7.5 14t4.5 18.5t1.5 20.5t1 24.5t1 25.5q3 58 3 109q0 37 -2 69q-2 55 -2 120v59q2 101 14 177v39.5t-0.5 34.5t6.5 27t21.5 17t44 4.5t74.5 -10.5q38 -8 65 -8q39 0 57 16q21 19 21 67 q0 22 -4 49q-7 43 -46 44q-217 8 -299 8h-16h-19q-48 0 -141 4q-68 3 -117 2q-33 0 -57 -1q-64 -4 -74 -34z" />
<glyph unicode="u" d="M66 548q-1 16 -1 32t1 33q3 31 3 98q0 40 -1 94q-2 106 -2 161v31q-2 30 15 45t37 15.5t48.5 -1.5t37.5 0q45 6 60 6h4q33 -3 51 -26t12 -56q-9 -52 -12 -104q-1 -18 -1 -37q0 -37 4 -79q6 -63 10.5 -98t18 -114t17.5 -102q12 -84 68 -126q50 -38 122 -39q8 0 17 1 q56 4 101 55q68 78 84 219q7 65 7 117q0 61 -10 102q-4 19 -4 44q-1 39 9 89q16 84 17 111q0 7 8 17q15 21 85 28q20 2 38 2q43 0 70 -12q52 -23 52 -82q0 -11 -2 -24q-4 -29 -6.5 -64t-3.5 -60.5t-1.5 -73t-1.5 -73.5q-1 -85 -2 -129t-10.5 -123t-28.5 -142 q-30 -103 -75 -153t-177 -121q-24 -11 -74 -15q-30 -3 -65 -2q-23 0 -47 1q-61 3 -126.5 20.5t-107.5 49.5q-15 17 -48 52t-52 56.5t-40.5 55t-31.5 65.5q-2 8 -18.5 59t-21.5 69t-14.5 57t-11.5 71zM110 985q0 -43 2 -130q2 -62 2 -104v-31v-30q0 -182 45 -294 q80 -196 216 -300q33 -25 75 -32q67 -11 125 -11q190 0 286 122q29 52 44 91q59 155 59 281q0 20 -2 40q-1 11 -1 24q1 38 7 96q8 71 7 109v8q-1 16 -1 55v55q-2 65 -58 66q-35 1 -55.5 -8t-29.5 -41q-26 -94 -25 -164q0 -18 1 -34q4 -41 4 -83q0 -105 -25 -218 q-17 -76 -90 -177q-48 -67 -136 -71h-9q-82 0 -146 64q-57 59 -81 125.5t-33 157.5q-16 147 -16 258q0 48 3 89q1 14 1 25q0 35 -9 50q-17 30 -65 30q-38 0 -95 -18z" />
<glyph unicode="v" d="M40.5 1021q8.5 19 42.5 33q24 10 67 10q23 0 52 -3q12 -1 36 -5.5t36 -5.5q62 -6 74 -17t31 -75q27 -92 85.5 -273t76.5 -239q9 12 15.5 22t10.5 16t7 14.5t3.5 10.5l3 12t2.5 12q16 66 55 184.5t48 150.5q9 29 33.5 79.5t35.5 80.5q18 25 31 33t35 6q137 -11 192 -22 q38 -7 44 -23.5t-11 -55.5q-23 -53 -70.5 -162t-83.5 -194t-67 -163q-15 -38 -49.5 -135.5t-56.5 -149.5l-7 -20q-6 -19 -9.5 -26.5t-14 -27.5t-20 -30.5t-27.5 -26t-37.5 -23t-48 -13t-61.5 -4.5q-27 -1 -50.5 24.5t-32.5 49.5q-118 319 -131 351q-82 202 -164 372 q-22 46 -71 179q-13 35 -4.5 54zM105 972.5q-2 -12.5 1.5 -28.5t7 -27.5t10.5 -30t9 -24.5q2 -4 23 -50q46 -97 51 -109q37 -88 113 -276t119 -288q11 -63 63 -81q18 -6 36 -6q34 0 68 22q57 46 78 110q8 24 32.5 105t41.5 123q50 123 217 520q17 34 18 50.5t-11 18.5 t-30 1.5t-40 0.5q-22 5 -40.5 5.5t-32.5 -4.5t-25 -10.5t-20.5 -18.5t-15 -22t-12 -28t-9 -29t-8.5 -31q-4 -10 -9.5 -28.5t-7.5 -24.5q-11 -32 -36 -104t-39.5 -113t-37 -100t-43.5 -108q-4 -9 -6.5 -13.5t-7 -10t-10.5 -7.5t-14 -1t-14 7.5t-7.5 10.5t-5.5 16 q-19 55 -53.5 156.5t-62.5 184.5t-52 157q-4 12 -10 32t-8 26.5t-8 18t-11.5 14.5t-15.5 8t-23 6.5t-33 1.5q-8 0 -38 6t-52 6t-30 -12q-7 -9 -9 -21.5z" />
<glyph unicode="w" horiz-adv-x="1536" d="M78 1054.5q10 15.5 45 14.5q30 -1 56 -1q69 0 118 9q32 6 51 -12t36 -54q20 -41 39.5 -95.5t30 -89.5t29.5 -106t25 -92q5 -15 20 -56q19 11 25.5 50t6.5 40q46 117 55 154q15 62 25 77q16 24 58 30q100 14 152 13h21q84 -7 119 -104q10 -29 29 -125.5t29 -127.5 q12 10 21 25t11.5 22.5t8.5 30.5t6 24q34 129 125 354q1 26 25.5 37t58 8t67 -10t57.5 -15l23 -8q18 -9 24 -15.5t5 -23.5t-15 -49q-203 -482 -275 -858q-12 -62 -17 -71q-11 -18 -54 -20h-33q-8 0 -25 -1t-29.5 -1t-26.5 2t-23.5 8t-13.5 17q-15 40 -54 163.5t-48 167.5 q-20 92 -35.5 137.5t-22 43.5t-12.5 -2q-1 -1 -2 -1q-23 -27 -33 -56.5t-16.5 -67.5t-15.5 -63q-18 -51 -41 -152t-38 -147q-10 -31 -26.5 -43t-43.5 -12q-4 0 -100 8q-57 6 -73 62q-19 65 -65.5 212.5t-68.5 229.5q-23 85 -35.5 127t-38.5 109t-55 120q-33 60 -62 133 q-14 35 -4 50.5zM156 958q6 -35 19.5 -63t32.5 -58.5t30 -53.5q46 -102 101 -311t100 -310q1 -3 7 -16t8.5 -18t8.5 -14t13 -14.5t16 -9.5q35 -17 59 -17q12 0 21 4q28 12 48 66q8 20 19 81q9 50 24.5 109t27.5 97t35.5 109t32.5 99q0 1 20 33q19 -9 32.5 -20t16.5 -18l4 -7 q25 -51 27 -56q15 -33 42 -126t49.5 -169.5t60.5 -138.5q37 -60 76 -60h2q34 1 44 16t16 57q11 81 36 173.5t48 157t62.5 169t58.5 157.5q32 92 65 151q6 12 4.5 20t-9 13t-15.5 7.5t-15 3.5l-7 1q-54 10 -74 10q-6 0 -10 -1q-15 -4 -29 -36q-1 -2 -12 -26 q-24 -48 -48 -107.5t-39 -102t-39.5 -114t-36.5 -105.5q0 -1 -4.5 -17.5t-10.5 -24t-18 -12.5q-66 72 -70 141q-1 22 -18 71q-9 58 -21 97t-22 57.5t-25 25t-24 5t-26 -7t-24 -6.5t-21 -2q-35 -3 -49 -5t-32 -7t-24 -11.5t-15 -20.5t-15 -32.5t-16 -48.5q-19 -58 -33 -98 q-22 -52 -50.5 -104.5t-37.5 -53.5q-19 -3 -27 10q-4 7 -9 37q-10 50 -38.5 136t-37.5 145q-13 23 -38.5 83t-44.5 89q-5 5 -12 17.5t-14 19t-17 4.5q-5 2 -12 2q-21 0 -55 -22q-44 -29 -72 -29z" />
<glyph unicode="x" d="M76.5 16.5q-0.5 6.5 4 19t9 21.5t13 24.5t12.5 24.5q17 35 61 99q5 7 30 43.5t34 50t27.5 42t31.5 52t24 47.5q5 11 16 25.5t15 23.5t4.5 26.5t-10.5 45t-34 68.5q-8 25 -23.5 53t-27 44t-36.5 48.5t-33 42.5q-28 37 -83 160q-6 14 -6 25q0 29 41 39q66 16 158 16 q31 0 65 -1q27 -2 47 -20t26 -46q8 -37 20 -49q19 -20 42.5 -83.5t46.5 -85.5q14 24 55.5 89.5t58.5 102.5q16 33 30 52.5t25.5 30t32.5 12.5t37 1t53 -4.5t67 -5.5q29 0 49.5 -4t32 -9.5t16 -15.5t5.5 -18t-4.5 -22t-10 -22t-13.5 -23t-12 -21q-24 -44 -71 -103 q-53 -68 -133 -220q-23 -34 -28 -53.5t0 -28.5t22 -30.5t28 -43.5q49 -84 94 -140q29 -70 121 -214q11 -17 12.5 -30.5t-4 -21.5t-18.5 -14t-23.5 -8.5t-26.5 -5.5q-18 0 -58 -8q-32 -6 -58 -6h-14q-72 4 -116 39t-66 102q-11 33 -45 91t-41 72q-15 -19 -25 -41t-19 -47.5 t-15 -39.5q-4 -8 -9.5 -25t-9.5 -25q-7 -23 -14 -40.5t-14 -31.5t-18 -23.5t-19.5 -16t-25 -10.5t-28.5 -6t-35 -3t-39 -1t-47.5 0.5t-54.5 0.5q-27 -1 -46.5 1t-30.5 6t-16 12t-5.5 14.5zM163 96q-17 -40 6 -48q13 -5 40 -4q23 0 55 3q78 4 129 55q16 16 45 76q2 5 29.5 72 t50.5 97q19 26 37 26q19 0 36 -31q41 -75 72 -143q15 -34 21.5 -48t18.5 -35.5t18.5 -28.5t19.5 -18t24 -12.5t29.5 -4t38 -0.5t48.5 6q6 0 9 1h17q50 0 50 17q0 18 -45 63q-7 11 -62.5 107t-98.5 137q-10 9 -39 67q-31 40 -39.5 59.5t-4 27.5t23 29t30.5 48q22 49 75 133 t72 121q2 4 42 56q24 31 24 45q0 9 -11 9h-5q-40 7 -58.5 10t-43 5t-32.5 2.5t-22.5 -2.5t-17 -6.5t-12.5 -13.5t-13 -18t-13.5 -25.5t-19.5 -31.5q-21 -30 -37 -71q-9 -23 -37.5 -62t-34.5 -50q-9 -16 -15 -24t-13 -13t-14 -0.5t-15 18.5q-49 85 -73 153q-13 23 -23 45 t-14 34t-8.5 24.5t-8 16.5t-12.5 10t-21 5t-34.5 1.5t-52.5 -0.5q-36 0 -58 -4t-32 -8t-10 -13.5t2.5 -16t12 -21t13.5 -22.5q12 -14 24 -30t22 -29t22 -31.5t19.5 -30t19.5 -32.5t17.5 -30.5t18.5 -33.5t17 -31.5t18.5 -34.5t17.5 -33q19 -36 21.5 -56t-3.5 -30t-26 -37.5 t-36 -60.5q-12 -19 -57.5 -96t-71.5 -118q-6 -9 -29.5 -38.5t-32.5 -51.5z" />
<glyph unicode="y" d="M63.5 952q6.5 19 37.5 25q16 3 31.5 11t24.5 14.5t27 22t26 21.5q17 14 35 14l49 -28q15 -27 64 -92.5t81 -112.5q10 -16 25.5 -30.5t40.5 -34.5t38 -32q36 41 87.5 83.5t70.5 69.5q3 4 42.5 53.5t44.5 58.5q6 10 13 21.5t9.5 17.5t7.5 12t6.5 8t8.5 3t10 -0.5t14 -5.5 t18.5 -8.5t25.5 -13.5t33 -16q42 -16 70 -53q16 -21 16 -41q0 -14 -8 -27q-22 -35 -69 -96t-77 -94q-37 -51 -76.5 -97t-57 -67.5t-36 -52t-24.5 -72.5t-10.5 -105.5t-6.5 -174.5q4 -25 4 -45q0 -57 -33 -78q-32 -21 -105 -21q-26 0 -56 3q-42 1 -63 34q-16 23 -16 56 q0 12 2 26q16 104 16 214q0 60 -5 121q1 22 -19.5 59t-63 90t-62.5 76.5t-62 70.5q-8 9 -35 38t-37.5 41.5t-26 38t-24.5 50.5q-12 26 -5.5 45zM123 910q-1 -3 -1 -6q0 -20 31 -56q5 -6 94 -98t119 -143q7 -12 25.5 -31t25.5 -29q34 -56 34 -103q0 -9 -1 -18q-7 -54 -8 -106 v-18q0 -45 2 -96q2 -44 2 -80v-27q0 -3 -2 -13.5t-3 -18t1 -12.5q5 -8 58.5 -8.5t63.5 1.5q29 1 41.5 15t10.5 32.5t-2 39.5q-2 26 -2 82v79q2 85 2 124v23q0 15 13.5 33.5t37 45.5t37.5 51q52 75 126.5 157.5t97.5 118.5q2 3 12.5 15.5t13.5 18.5q6 11 6 20t-3 15.5 t-10.5 13t-15 10.5t-18.5 10t-17 11q-10 13 -19.5 17t-20 -3t-16.5 -13t-19.5 -24t-18.5 -24q-68 -72 -167 -165q-24 -34 -37.5 -52.5t-27.5 -35t-20 -21t-15 -6t-13.5 4.5t-13.5 17t-16 24.5t-21.5 33t-29.5 37.5q-36 47 -73 84.5t-61 66t-48 74.5q-4 9 -15 6t-19.5 -8.5 t-21.5 -14t-20 -11.5q-52 -20 -58 -40z" />
<glyph unicode="z" horiz-adv-x="974" d="M55 181q4 30 40 63q27 25 51.5 52.5t50.5 64t40 58t43.5 68.5t38.5 61q17 32 35 57.5t46 59t43 52.5q3 3 10.5 11t12 13.5t10.5 14t5.5 14.5t-3.5 14q-4 5 -11 8t-17 3t-16.5 -1t-18.5 -3t-15 -2q-15 -2 -63.5 -7.5t-74.5 -9.5q-15 -2 -29 -2q-76 0 -122 68 q-13 19 -14.5 46t3.5 48.5t13 50.5t10 42q2 18 35 25q47 8 55 7q44 -4 106 -4q72 -1 166 5q148 9 221 9h25q32 0 47 -1q68 -5 68 -70q0 -99 -39 -159q-30 -47 -53 -87t-54.5 -96t-63.5 -111q-24 -23 -56 -83q-16 -32 -50 -95t-52 -100q51 0 149 10q82 8 133 8h20 q39 -1 62 -11t34 -43q1 -3 8.5 -24t9 -26.5t6.5 -23.5t5 -27v-24t-4 -27.5t-11 -25.5q-15 -25 -34 -28q-60 -11 -321 -23q-140 -6 -254 -6q-100 0 -181 5q-25 10 -33.5 29.5t-9.5 52.5q-4 42 -4 70q0 18 2 30zM114 174q-3 -15 -3 -32q0 -36 14 -81q22 -18 180 -18 q41 -1 89 1q242 6 392 26q44 -4 55 12t-6 59q-4 11 -5.5 25.5t-1.5 24t-4.5 19.5t-14.5 14t-31.5 4t-54.5 -7q-173 -5 -247 -5q-37 0 -48 1q-39 4 -39 18q-1 10 20 32q54 69 74 139q25 36 56.5 92.5t41.5 72.5q42 40 72 92t61.5 122.5t49.5 103.5q6 9 10 36q3 18 3 32 q1 24 -9 37q-16 21 -62 23q-8 0 -31 1.5t-33 2t-30 1t-33 0.5t-30.5 -1t-33 -3.5t-30.5 -5.5q-157 -17 -240 -22q-20 3 -34 3t-22.5 -3t-14 -8t-7.5 -12.5t-2.5 -16.5t0 -19.5t-0.5 -22.5q0 -4 -1 -15.5t-0.5 -16t2 -14t6.5 -13.5t13 -9.5t22 -7.5t33 -2q25 -4 51 -4 q34 0 68 7q61 12 111 12q55 0 94 -15q1 -7 1 -13t-0.5 -10t-3.5 -10t-4 -7.5t-5.5 -8t-4.5 -7.5q-51 -79 -152 -218.5t-151 -218.5q-16 -24 -71 -73q-48 -47 -58 -93z" />
<glyph unicode="{" horiz-adv-x="714" d="M62 495q-1 26 1.5 60t-1.5 60q-4 44 95 77q-7 -3 -25 -7q20 5 33 22t19 43t8.5 50.5t5 56.5t4.5 48q9 58 26 99q57 134 145 189t237 42q63 -6 73 -71q2 -7 1 -27.5t-1 -27.5q1 -28 -22 -56.5t-65 -29.5q-95 -3 -139 -49.5t-46 -144.5q-1 -17 1 -48.5t2 -44.5 q3 -67 -6 -106t-18.5 -47.5t-25.5 -14.5q41 -21 50 -54.5t1.5 -94t-4.5 -92.5q-1 -26 5 -55q17 -84 40 -113t54 -38t85 -12q52 -2 68 -30t14 -90q-2 -66 -22.5 -97t-74 -30.5t-147.5 39.5q-91 42 -145 94.5t-68 140.5q-5 32 -11.5 74t-11.5 74q-3 16 -5 41.5t-4 38t-8 27.5 t-19.5 23t-34.5 12q-62 12 -64 69zM108 576q-2 -48 10.5 -73t45.5 -35q66 -21 70 -128q3 -97 31 -196q22 -79 79 -137.5t131 -75.5q79 -18 99 -20q22 -2 37.5 18.5t14.5 48.5q-1 19 -1.5 28t-4.5 26.5t-14.5 26t-26.5 8.5q-57 0 -94.5 16.5t-71.5 57.5q-21 26 -33 60.5 t-14 55t-6 66.5q-1 5 -1.5 16.5t-0.5 17.5q0 24 5 50.5t8.5 41t2.5 29.5t-11.5 25t-33.5 18q-6 2 -10.5 5t-6 5.5t-5 9t-5.5 10.5q-5 20 -1 32.5t8 16.5t13 8l9 2q21 7 27.5 30.5t3 48.5t0.5 49q3 23 2 82.5t7 83.5q17 70 70 112.5t130 46.5q15 1 23 2t20.5 5t18.5 14.5 t6 26.5v13t-0.5 14.5t-1.5 13t-3 13.5t-5 11.5t-8 10.5t-11.5 7t-15.5 5t-21 0q-59 2 -121.5 -21.5t-89.5 -65.5q-12 -19 -34.5 -44.5t-36 -43t-26.5 -55t-17 -88.5q-10 -217 -97 -242q-47 -20 -43 -63z" />
<glyph unicode="}" horiz-adv-x="716" d="M39 1136.5q-1 20.5 1 27.5q10 65 73 71q148 13 232.5 -41.5t141.5 -189.5q17 -41 26 -99q2 -16 4.5 -48t5 -56.5t8.5 -50.5t19 -43t33 -22q38 -9 55 -23.5t14 -46.5q-1 -8 -4 -107q-1 -34 -18 -55.5t-41 -26.5q-21 -4 -34.5 -12t-19.5 -23t-8 -27.5t-4 -38t-5 -41.5 q-5 -32 -11.5 -74t-11.5 -74q-14 -88 -68 -140.5t-145 -94.5q-94 -39 -146.5 -39.5t-72 30t-21.5 97.5q-2 62 14 90t68 30q53 3 82.5 12t52.5 38t40 113q6 29 5 55q3 32 -4.5 92.5t1.5 94t50 54.5q-16 6 -25.5 14.5t-18.5 47.5t-6 106q0 13 2 44.5t1 48.5q-2 96 -50 144 t-144 51q-46 1 -59.5 17.5t-10.5 67.5q0 7 -1 27.5zM92.5 -2q0.5 -16 0.5 -20q-1 -28 14 -48.5t37 -18.5q19 2 51.5 15t50.5 17q75 17 128.5 70t75.5 131q27 95 30 196q4 106 71 128q31 10 39.5 35.5t6.5 78.5q2 17 1.5 28t-8 17.5t-26.5 11.5q-87 25 -97 242 q-3 59 -26 113.5t-64 117.5q-28 43 -101 67.5t-125 9.5q-55 -16 -57 -75q0 -13 3 -21.5t10.5 -11.5t12.5 -4t17.5 -1h15.5q75 -4 123.5 -51.5t66.5 -120.5q8 -31 7.5 -83.5t2.5 -82.5q4 -24 0.5 -49t3 -48.5t27.5 -30.5l9 -2q9 -4 13 -8t7.5 -16.5t-1.5 -32.5 q-3 -4 -6 -10.5t-4.5 -9t-5.5 -5.5t-10 -5q-23 -8 -33.5 -18t-11.5 -25t2.5 -29.5t8.5 -41t5 -50.5q-1 -18 -3 -34q-7 -92 -21 -128q-12 -30 -31 -54q-34 -41 -74 -57.5t-98 -16.5q-13 0 -21.5 -5.5t-11.5 -17.5t-4 -21t-0.5 -25z" />
<glyph unicode="&#xab;" horiz-adv-x="772" d="M98 447q-1 41 3 42q43 93 80 147t105 109q24 21 46 24q46 8 62.5 -11t-0.5 -61q-11 -27 -28.5 -53t-42 -57.5t-36.5 -48.5q-3 -3 -12 -13.5l-12 -14t-10 -13.5t-8.5 -15.5t-4.5 -15.5t-0.5 -18.5t5.5 -20t11 -23.5t19 -26q46 -47 60 -96q13 -42 -1 -61.5t-59 -27.5 q-38 -6 -85 55q-34 43 -80 129q-11 29 -12 70zM338 448q0 12 9.5 36t22 42t38.5 55q27 38 131 175q33 42 83 20q27 -12 38 -63q2 -32 -29 -63q-41 -40 -78 -84q-53 -59 -52.5 -90.5t55.5 -85.5q30 -29 45.5 -60t15 -52.5t-5.5 -38.5q-32 -74 -108 -52q-23 13 -39 32.5 t-34 51.5t-25 42q-25 38 -37.5 56.5t-21 42.5t-8.5 36z" />
<glyph unicode="&#xad;" horiz-adv-x="663" d="M122.5 548.5q-0.5 8.5 2 24t2.5 21.5q-4 33 14 52t44 17q24 -1 75 -4t88 -2.5t75 5.5q63 -1 90.5 -17.5t28.5 -65.5q0 -17 -0.5 -25t-5.5 -21t-14.5 -19t-29 -10t-48.5 -3q-161 -7 -271 2q-20 2 -31.5 8t-15 17.5t-4 20z" />
<glyph unicode="&#xaf;" horiz-adv-x="1007" d="M139 565q-2 25 5.5 41.5t24.5 23t33 8.5t38 2q42 -1 67.5 -3.5t32.5 -4t29 0t69 8.5q62 -4 121.5 -6t98 -1.5t75.5 0t58 0t40 -3.5t27.5 -9.5t15 -18t7.5 -28.5t0 -42q-1 -17 -5.5 -30.5t-14.5 -23t-20 -16t-28.5 -9.5t-32 -5t-38 -2t-40 1t-44 2t-44.5 2q-167 -9 -368 8 q-18 1 -32 3.5t-24.5 7.5t-18 8.5t-13 12t-8.5 11.5t-5 14.5t-2.5 14.5t-2 17t-1.5 17z" />
<glyph unicode="&#xbb;" horiz-adv-x="733" d="M111 269q8 34 47 80t63 88.5t7 85.5q-12 29 -47 69.5t-47 72.5q-16 43 -11 72.5t29 40.5q38 21 62 14t44 -42q25 -45 63 -121.5t61 -117.5q5 -8 2 -32t-2 -28q-2 -41 -81 -153.5t-111 -117.5q-50 -8 -71 15t-8 74zM347 262q2 19 18 35q7 7 26 24.5t30.5 30t20.5 28.5 q30 49 36.5 74t-2 48t-40.5 70q-50 74 -67 117q-6 14 -8 20.5t-3 17t4 17.5t16 12q4 2 21.5 12.5t25.5 13t22.5 0t26.5 -16.5q1 -1 23 -21t28 -32q15 -29 40 -73.5t43 -80.5q12 -16 18 -30.5t5.5 -26.5t-1.5 -19.5t-5 -18t-5 -12.5q-3 -16 -30.5 -67.5t-74.5 -108.5t-88 -70 q-41 -12 -68 21q-14 17 -12 36z" />
<glyph unicode="&#x2000;" horiz-adv-x="682" />
<glyph unicode="&#x2001;" horiz-adv-x="1365" />
<glyph unicode="&#x2002;" horiz-adv-x="682" />
<glyph unicode="&#x2003;" horiz-adv-x="1365" />
<glyph unicode="&#x2004;" horiz-adv-x="455" />
<glyph unicode="&#x2005;" horiz-adv-x="341" />
<glyph unicode="&#x2006;" horiz-adv-x="227" />
<glyph unicode="&#x2007;" horiz-adv-x="227" />
<glyph unicode="&#x2008;" horiz-adv-x="170" />
<glyph unicode="&#x2009;" horiz-adv-x="273" />
<glyph unicode="&#x200a;" horiz-adv-x="75" />
<glyph unicode="&#x2010;" horiz-adv-x="663" d="M122.5 548.5q-0.5 8.5 2 24t2.5 21.5q-4 33 14 52t44 17q24 -1 75 -4t88 -2.5t75 5.5q63 -1 90.5 -17.5t28.5 -65.5q0 -17 -0.5 -25t-5.5 -21t-14.5 -19t-29 -10t-48.5 -3q-161 -7 -271 2q-20 2 -31.5 8t-15 17.5t-4 20z" />
<glyph unicode="&#x2011;" horiz-adv-x="663" d="M122.5 548.5q-0.5 8.5 2 24t2.5 21.5q-4 33 14 52t44 17q24 -1 75 -4t88 -2.5t75 5.5q63 -1 90.5 -17.5t28.5 -65.5q0 -17 -0.5 -25t-5.5 -21t-14.5 -19t-29 -10t-48.5 -3q-161 -7 -271 2q-20 2 -31.5 8t-15 17.5t-4 20z" />
<glyph unicode="&#x2012;" horiz-adv-x="663" d="M122.5 548.5q-0.5 8.5 2 24t2.5 21.5q-4 33 14 52t44 17q24 -1 75 -4t88 -2.5t75 5.5q63 -1 90.5 -17.5t28.5 -65.5q0 -17 -0.5 -25t-5.5 -21t-14.5 -19t-29 -10t-48.5 -3q-161 -7 -271 2q-20 2 -31.5 8t-15 17.5t-4 20z" />
<glyph unicode="&#x2013;" horiz-adv-x="872" d="M100 565q-2 25 5.5 41.5t24.5 23t33 8.5t38 2q49 -2 74 -1t124 2q78 -5 139.5 -2t107.5 5t76 -3t44.5 -26.5t13.5 -65.5q0 -17 -6.5 -29t-21 -18.5t-28.5 -9.5t-40.5 -3t-44.5 1t-53.5 4t-55.5 4q-60 -4 -158.5 -2.5t-160.5 -1.5q-50 -3 -74 5t-28.5 18.5t-7.5 40.5 q-1 5 -1 7z" />
<glyph unicode="&#x2014;" horiz-adv-x="1007" d="M139 565q-2 25 5.5 41.5t24.5 23t33 8.5t38 2q42 -1 67.5 -3.5t32.5 -4t29 0t69 8.5q62 -4 121.5 -6t98 -1.5t75.5 0t58 0t40 -3.5t27.5 -9.5t15 -18t7.5 -28.5t0 -42q-1 -17 -5.5 -30.5t-14.5 -23t-20 -16t-28.5 -9.5t-32 -5t-38 -2t-40 1t-44 2t-44.5 2q-167 -9 -368 8 q-18 1 -32 3.5t-24.5 7.5t-18 8.5t-13 12t-8.5 11.5t-5 14.5t-2.5 14.5t-2 17t-1.5 17z" />
<glyph unicode="&#x2018;" horiz-adv-x="356" d="M121 889q26 -44 66 -39h11q2 0 8.5 0.5t9.5 1.5l7.5 2.5t7.5 4.5t5 8q2 6 0 10.5t-10 9.5t-9 6q-19 15 1 32q9 8 16 17.5t16 27t11 21.5q14 26 -11 47q-28 21 -54 21q-54 0 -68 -22q-48 -77 -7 -148z" />
<glyph unicode="&#x2019;" horiz-adv-x="356" d="M100 991q-14 26 11 47q28 21 54 21q53 0 67 -22q48 -77 7 -148q-26 -44 -66 -39h-11q-1 0 -10 1t-12 2t-8 4.5t-7 9.5t0 10.5t9.5 10t8.5 5.5q20 15 0 32q-10 8 -16.5 17.5t-15.5 27t-11 21.5z" />
<glyph unicode="&#x201a;" horiz-adv-x="356" d="M100 126q-14 26 11 47q29 22 54 22q53 0 67 -22q48 -77 7 -148q-26 -44 -66 -39h-11q-1 0 -10 1t-12 2t-8 4.5t-7 9.5t0 10.5t9.5 10t8.5 5.5q20 15 0 32q-7 6 -14 14.5t-10.5 15t-9.5 18.5t-9 17z" />
<glyph unicode="&#x201c;" horiz-adv-x="389" d="M48 979q-16 -26 12 -69q7 -10 17.5 -18t18.5 -12t22 -9t18 -7q47 1 53 41q6 41 -20 72q-13 16 -1 30q5 10 5.5 14.5t-3 16t-4.5 15.5q-1 9 -15 7q-61 -11 -103 -81zM218 933q9 -10 13 -43q4 -23 19.5 -32t38.5 0q4 2 14.5 5t16 5t12.5 6.5t10.5 12t4.5 18.5q0 1 3 13 q-1 10 -18 46q-2 4 -7 11.5t-7.5 11.5t-4 12.5t2.5 16.5q4 11 -7 17t-24 1q-38 -15 -59 -41q-29 -33 -8 -60z" />
<glyph unicode="&#x201d;" horiz-adv-x="407" d="M53 995q3 12 3 13q1 13 7.5 22t12 12t20.5 7.5t18 5.5q22 9 38.5 0t20.5 -32q4 -33 13 -43q21 -27 -9 -61q-20 -24 -59 -40q-13 -5 -24 0.5t-7 16.5q4 8 2.5 16.5t-4 12.5t-7.5 11.5t-7 11.5q-17 36 -18 47zM214 1007q6 40 53 41q4 -2 18 -7t22.5 -9t19 -12t17.5 -18 q27 -41 11 -68q-42 -70 -102 -81q-14 -2 -15 7q-1 4 -4.5 15.5t-3 16t5.5 14.5q12 13 -2 30q-26 31 -20 71z" />
<glyph unicode="&#x201e;" horiz-adv-x="536" d="M100 126q-14 26 11 47q29 22 54 22q53 0 67 -22q48 -77 7 -148q-26 -44 -66 -39h-11q-1 0 -10 1t-12 2t-8 4.5t-7 9.5t0 10.5t9.5 10t8.5 5.5q20 15 0 32q-7 6 -14 14.5t-10.5 15t-9.5 18.5t-9 17zM280 122q-15 28 12 51q28 23 55 23q54 0 69 -24q50 -83 7 -158 q-26 -47 -67 -42h-12q-3 0 -9 0.5t-9.5 1t-8 2.5t-7 5.5t-4.5 8.5q-4 4 -0.5 10t4.5 7t7.5 5.5t7.5 5.5q20 17 -1 34q-8 6 -14.5 15.5t-10.5 16.5t-10 20t-9 18z" />
<glyph unicode="&#x2026;" horiz-adv-x="933" d="M42 118q2 50 45 90t90 36q52 -4 89 -45t35 -94q-1 -53 -41 -88.5t-93 -32.5q-52 3 -89.5 43.5t-35.5 90.5zM93 123q-4 -27 17 -52t50 -29q31 -4 57.5 17.5t28.5 53.5q5 68 -70 73q-32 2 -55.5 -16t-27.5 -47zM339 118q2 50 45 90t90 36q52 -4 89 -45t35 -94 q-1 -53 -41 -88.5t-93 -32.5q-52 3 -89.5 43.5t-35.5 90.5zM390 123q-4 -27 17 -52t50 -29q31 -4 57.5 17.5t28.5 53.5q5 68 -70 73q-32 2 -55.5 -16t-27.5 -47zM642 118q2 50 45 90t90 36q53 -5 89.5 -46t35.5 -93q-1 -53 -41 -88.5t-94 -32.5q-52 3 -89.5 43.5t-35.5 90.5 zM693 123q-4 -27 17 -52t50 -29q31 -4 57.5 17.5t28.5 53.5q5 68 -70 73q-32 2 -55.5 -16t-27.5 -47z" />
<glyph unicode="&#x202f;" horiz-adv-x="273" />
<glyph unicode="&#x2039;" horiz-adv-x="555" d="M121 448q0 12 9.5 36t21.5 41.5t39 55.5t131 175q33 42 83 20q27 -12 38 -63q2 -32 -29 -63q-40 -40 -78 -84q-39 -43 -51 -67.5t-4 -51t45 -62.5q45 -44 61.5 -83t6.5 -63q-32 -74 -108 -52q-23 13 -39 32t-34.5 51.5t-25.5 42.5q-25 37 -37.5 56t-20.5 43t-8 36z" />
<glyph unicode="&#x203a;" horiz-adv-x="503" d="M111 269q11 29 29 56.5t35.5 46t34 38.5t25.5 36.5t8 36t-15 40.5q-20 29 -94 142q-23 40 -15.5 70t33.5 43q38 21 62 14t44 -42q12 -22 37.5 -63.5t39.5 -66t28.5 -56t18.5 -53.5q2 -11 0.5 -33t-0.5 -27q-2 -41 -81 -153.5t-111 -117.5q-51 -8 -74 16.5t-5 72.5z" />
<glyph unicode="&#x205f;" horiz-adv-x="341" />
<glyph unicode="&#x25fc;" horiz-adv-x="1054" d="M0 0v1055h1055v-1055h-1055z" />
</font>
</defs>
</svg>
