<?xml version="1.0" standalone="no"?>
<!DOCTYPE svg PUBLIC "-//W3C//DTD SVG 1.1//EN" "http://www.w3.org/Graphics/SVG/1.1/DTD/svg11.dtd" >
<svg xmlns="http://www.w3.org/2000/svg" xmlns:xlink="http://www.w3.org/1999/xlink" version="1.1">
<metadata></metadata>
<defs>
<font id="optotyporegular" horiz-adv-x="1386" >
<font-face units-per-em="2048" ascent="1638" descent="-410" />
<missing-glyph horiz-adv-x="512" />
<glyph horiz-adv-x="0" />
<glyph horiz-adv-x="682" />
<glyph unicode="&#xd;" horiz-adv-x="1024" />
<glyph unicode=" "  horiz-adv-x="512" />
<glyph unicode="&#x09;" horiz-adv-x="512" />
<glyph unicode="&#xa0;" horiz-adv-x="512" />
<glyph unicode="!" horiz-adv-x="569" d="M102 1401q0 13 10 23t23 10h299q14 0 23.5 -10t9.5 -23l-29 -1022q0 -14 -8.5 -22.5t-21.5 -8.5h-250q-14 0 -22.5 9t-8.5 22zM115 -6v213q0 14 8.5 22.5t21.5 8.5h273q14 0 22.5 -9t8.5 -22v-213q0 -14 -8.5 -22.5t-22.5 -8.5h-273q-13 0 -21.5 8.5t-8.5 22.5z" />
<glyph unicode="&#x22;" horiz-adv-x="886" d="M102 840l68 428q1 10 9.5 17t19.5 7h174q19 0 29.5 -13t5.5 -30l-115 -444q-7 -26 -33 -23l-131 23q-13 1 -21 11t-6 24zM477 840l68 428q1 10 9 17t19 7h175q19 0 29 -13t5 -30l-114 -444q-7 -26 -33 -23l-131 23q-13 1 -21 11t-6 24z" />
<glyph unicode="#" horiz-adv-x="1792" d="M102 356v187q0 13 8.5 21.5t22.5 8.5h246l78 324h-219q-14 0 -22.5 8.5t-8.5 22.5v186q0 14 8.5 22.5t22.5 8.5h280l64 264q7 23 28 23h224q19 0 29 -13t5 -30l-63 -244h369l63 264q7 23 29 23h235q18 0 27.5 -12.5t5.5 -30.5l-59 -244h184q13 0 22 -8.5t9 -22.5v-186 q0 -14 -9 -22.5t-22 -8.5h-246l-70 -324h207q14 0 22.5 -8.5t8.5 -21.5v-187q0 -13 -8.5 -21.5t-22.5 -8.5h-270l-66 -303q-3 -23 -28 -23h-242q-18 0 -27.5 12.5t-5.5 30.5l70 283h-377l-72 -303q-7 -23 -28 -23h-230q-18 0 -27.5 12.5t-4.5 30.5l73 283h-182 q-14 0 -22.5 8.5t-8.5 21.5zM674 573h370l78 324h-374z" />
<glyph unicode="$" horiz-adv-x="1488" d="M155 167q-3 14 5 26l125 192q14 24 39 10q90 -47 132.5 -68t108.5 -49t121 -38.5t113 -10.5q104 0 157.5 28t53.5 75v26q0 35 -21 62t-54.5 43t-84 30t-97.5 23t-107.5 22t-102.5 27q-59 19 -112 45.5t-102.5 67t-82.5 89t-48 114.5t-3 141q7 49 34.5 97t77.5 94.5 t134.5 79.5t191.5 42v82q0 13 8.5 22t22.5 9h157q13 0 22 -9t9 -22v-84q108 -10 204 -40.5t216 -86.5q14 -6 17.5 -18.5t-3.5 -26.5l-123 -209q-13 -23 -39 -12q-132 56 -223 81.5t-180 25.5q-100 0 -143 -18t-43 -73v-4q0 -36 16.5 -63t40.5 -42.5t65.5 -28.5t77.5 -19.5 t91.5 -17t93.5 -19.5q213 -52 314 -152.5t101 -257.5q0 -75 -30 -142.5t-87 -122.5t-151 -87.5t-213 -32.5v-127q0 -13 -8.5 -21.5t-22.5 -8.5h-159q-14 0 -22.5 8.5t-8.5 21.5v129q-119 11 -216.5 50.5t-246.5 127.5q-12 6 -15 20z" />
<glyph unicode="%" horiz-adv-x="2134" d="M102 1122q0 137 117 232.5t301 95.5q173 0 290.5 -96.5t117.5 -231.5q0 -137 -119 -231t-301 -94q-176 0 -291 94t-115 231zM362 1122q0 -68 42 -111.5t116 -43.5q72 0 110 43t38 112q0 64 -43 111t-117 47q-72 0 -109 -43.5t-37 -114.5zM506 18.5q-10 18.5 2 38.5 l434 744l354 616q9 15 25 15h262q25 0 36 -19t-1 -41l-371 -608l-418 -750q-8 -14 -24 -14h-264q-25 0 -35 18.5zM1221 303v14q0 136 114 225t291 89q184 0 295 -88.5t111 -225.5q0 -141 -111 -235t-295 -94q-180 0 -292.5 92t-112.5 223zM1468 317q0 -69 45 -114t113 -45 q72 0 114 42t42 103v14q0 61 -42.5 108.5t-113.5 47.5t-114.5 -47.5t-43.5 -108.5z" />
<glyph unicode="&#x26;" horiz-adv-x="1531" d="M102 383q0 163 102 289t253 190q-51 60 -77.5 159.5t-8.5 172.5q31 125 131 191.5t262 66.5q179 0 282 -107t103 -253q0 -140 -88.5 -235.5t-261.5 -131.5l149 -219q21 29 43.5 67t34.5 61l12 23q12 12 37 -4l154 -84q15 -7 0 -33q0 -1 -0.5 -2t-1.5 -2 q-90 -162 -131 -223q0 -7 9 -25t28.5 -39t44 -36.5t61.5 -14t76 26.5q20 13 30 14.5t12 -1.5t9 -17l59 -133q11 -22 -6 -33q-68 -54 -146.5 -66.5t-142 9.5t-112 58.5t-70.5 76.5q-77 -76 -145 -111q-69 -35 -149 -47.5t-157 -3t-149 42t-126.5 83t-87 126t-32.5 164.5z M392.5 391q3.5 -57 43.5 -102q50 -57 119.5 -72.5t137 13.5t112.5 96l-211 311q-57 -12 -105 -51t-74 -88.5t-22.5 -106.5zM604 1087q0 -93 70 -163q96 0 167.5 40.5t71.5 108.5q0 70 -39.5 111t-115.5 41q-64 0 -109 -44t-45 -94z" />
<glyph unicode="'" horiz-adv-x="512" d="M102 840l68 428q1 10 9.5 17t19.5 7h174q19 0 29.5 -13t5.5 -30l-115 -444q-7 -26 -33 -23l-131 23q-13 1 -21 11t-6 24z" />
<glyph unicode="(" horiz-adv-x="1138" d="M102 618q0 631 744 981q22 11 35 -8l147 -180q10 -12 8 -26t-16 -23q-267 -167 -385.5 -338t-118.5 -406t118 -405.5t386 -337.5q14 -9 16 -23t-8 -26l-147 -180q-13 -19 -35 -8q-371 173 -557.5 411.5t-186.5 568.5z" />
<glyph unicode=")" horiz-adv-x="1138" d="M103 -148q2 14 16 23q268 167 386 337.5t118 405.5t-118.5 406t-385.5 338q-14 9 -16 23t8 26l147 180q13 19 35 8q743 -349 743 -981q0 -330 -186 -568.5t-557 -411.5q-22 -11 -35 8l-147 180q-10 12 -8 26z" />
<glyph unicode="*" horiz-adv-x="931" d="M104 1004q4 14 19 20l176 72l-176 71q-15 6 -19 20.5t5 29.5l53 81q14 24 39 13l176 -92l-6 180q0 14 9.5 23.5t22.5 9.5h125q15 0 24.5 -10t8.5 -25l-12 -178l184 92q25 11 39 -13l51 -84q9 -13 5 -27t-19 -20l-158 -71l158 -72q15 -6 19.5 -19.5t-3.5 -25.5l-53 -86 q-13 -23 -39 -12l-184 92l12 -178q1 -15 -8.5 -25t-24.5 -10h-125q-13 0 -22.5 9.5t-9.5 23.5l6 180l-176 -92q-25 -11 -39 10l-53 84q-9 15 -5 29z" />
<glyph unicode="+" horiz-adv-x="1040" d="M102 596v176q0 14 9 22.5t22 8.5h268v268q0 13 8.5 22t22.5 9h176q14 0 22.5 -9t8.5 -22v-268h268q13 0 22 -8.5t9 -22.5v-176q0 -14 -9 -22.5t-22 -8.5h-268v-268q0 -13 -8.5 -22t-22.5 -9h-176q-14 0 -22.5 9t-8.5 22v268h-268q-13 0 -22 8.5t-9 22.5z" />
<glyph unicode="," horiz-adv-x="600" d="M102 -197q0 13 9.5 22t23.5 9q57 3 98 16.5t60.5 29t30 40.5t11.5 38.5t1 36.5v5h-152q-13 0 -21.5 8.5t-8.5 22.5v213q0 14 8 22t22 8h273q13 0 21.5 -8t8.5 -22l11 -301q0 -108 -84 -178t-279 -76q-14 0 -23.5 9.5t-9.5 22.5v82z" />
<glyph unicode="-" horiz-adv-x="1040" d="M102 596v176q0 14 9 22.5t22 8.5h774q13 0 22 -8.5t9 -22.5v-176q0 -14 -9 -22.5t-22 -8.5h-774q-13 0 -22 8.5t-9 22.5z" />
<glyph unicode="." horiz-adv-x="538" d="M102 31v213q0 13 8.5 21.5t22.5 8.5h273q14 0 22 -8t8 -22v-213q0 -14 -8.5 -22.5t-21.5 -8.5h-273q-13 0 -22 9t-9 22z" />
<glyph unicode="/" horiz-adv-x="1181" d="M107 18.5q-10 18.5 2 38.5l434 744l354 616q9 15 25 15h321q25 0 36 -19t-1 -41l-371 -608l-418 -750q-8 -14 -24 -14h-324q-24 0 -34 18.5z" />
<glyph unicode="0" horiz-adv-x="1552" d="M145 487v459q0 44 5 85t21 94t42.5 97t73.5 88t109 74.5t154.5 49t205.5 18.5q112 0 204.5 -18.5t154.5 -48.5t109 -73.5t73.5 -87.5t42.5 -96t21 -93t5 -85v-465q0 -43 -5 -84t-21 -93t-42.5 -96t-73.5 -87.5t-109 -73.5t-154.5 -48.5t-204.5 -18.5q-113 0 -205.5 18.5 t-154.5 49t-109 74t-73.5 87.5t-42.5 96.5t-21 93.5t-5 84zM500 604q0 -29 1 -50t6 -58t14.5 -63.5t28.5 -58.5t45 -52t67.5 -34t93.5 -14t93 14t67 34t45 52t28 58.5t14 63.5t6 58t1 50v221q0 29 -1 49.5t-6 57.5t-14 64t-28 58.5t-45 51.5t-67 33.5t-93 13.5t-93.5 -13.5 t-67.5 -33.5t-45 -51.5t-28.5 -58.5t-14.5 -64t-6 -57.5t-1 -49.5v-221z" />
<glyph unicode="1" horiz-adv-x="944" d="M82 1155v248q0 13 9 22t22 9h637q13 0 21.5 -8.5t8.5 -22.5v-1372q0 -14 -8.5 -22.5t-21.5 -8.5h-304q-13 0 -21.5 8.5t-8.5 22.5v1093h-303q-13 0 -22 9t-9 22z" />
<glyph unicode="2" horiz-adv-x="1480" d="M145 973q0 87 22 159.5t56.5 120.5t81.5 85.5t93.5 58t96 34t84.5 17.5t64 4h231q116 0 228 -54t184 -147t72 -196v-111q0 -238 -295 -418l-383 -233h647q31 0 31 -31v-231q0 -31 -31 -31h-1108q-15 0 -24 8.5t-9 22.5v248q0 11 11 22l651 473q33 23 53.5 40t46 45.5 t38.5 64t13 77.5q0 45 -13.5 79t-33.5 50.5t-39.5 26.5t-32.5 12l-14 2h-217q-128 0 -141 -184q0 -12 -9 -20.5t-24 -8.5h-301q-12 0 -20.5 4.5t-8.5 10.5z" />
<glyph unicode="3" horiz-adv-x="1482" d="M129 379v35q0 15 8.5 23.5t22.5 8.5h303q14 0 23.5 -8.5t9.5 -23.5v-43q0 -28 13 -49t32 -31.5t37.5 -16.5t31.5 -7l13 -1h219q163 5 145 244q0 27 -15.5 47.5t-37.5 30t-44.5 15t-37.5 6.5l-16 1h-131q-13 0 -22 9t-9 22v219q0 15 8.5 24t22.5 9h137q68 0 107 46.5 t42 121.5q-1 31 -14.5 54t-32 34t-37 17t-31.5 7l-12 1h-221q-70 0 -103.5 -37.5t-41.5 -114.5q-1 -13 -11 -22t-22 -9h-305q-14 0 -22.5 9t-8.5 24v4q0 76 15.5 140t41 106.5t60 76t68.5 52t71.5 30t65 15.5t51.5 4h401q119 0 215 -36.5t161.5 -115.5t78.5 -192v-117 q0 -81 -30 -135t-89 -106q119 -84 119 -277v-6l-2 -115q0 -78 -27.5 -142t-70.5 -104t-99 -67.5t-109.5 -39t-105.5 -11.5h-432q-165 0 -265.5 103.5t-117.5 287.5z" />
<glyph unicode="4" horiz-adv-x="1556" d="M164 434v373q0 8 8 20l705 600q7 7 16 7h321q14 0 22.5 -9t8.5 -22v-739h117q14 0 22.5 -9t8.5 -22v-199q0 -14 -8.5 -22.5t-22.5 -8.5h-117v-372q0 -13 -8.5 -22t-22.5 -9h-301q-13 0 -21.5 8.5t-8.5 22.5v372h-688q-13 0 -22 8.5t-9 22.5zM530 664h353v380l-353 -315 v-65z" />
<glyph unicode="5" horiz-adv-x="1476" d="M129 410q0 2 33 2h297q28 0 28 -11q0 -32 13 -55t31.5 -33.5t37.5 -16.5t32 -6l13 -1h217q28 0 49.5 3t37 8.5t26 14.5t17.5 20.5t11 26t5.5 32t1.5 38v44.5v28q-2 1 0.5 16.5t-4 39.5t-16.5 46.5t-38 39t-67 16.5h-260q-95 0 -111 -62q-4 -25 -26 -25h-297 q-13 0 -22 8.5t-9 20.5v797q0 13 8.5 22t22.5 9h1097q13 0 22 -9t9 -22v-262q0 -13 -9 -22t-22 -9h-770v-203h500q37 0 79.5 -11t90.5 -39t86 -69t63 -108.5t25 -149.5v-57q0 -121 -26.5 -210t-69 -142t-108.5 -85t-133 -43t-154 -11h-234q-71 0 -135.5 11.5t-128.5 42 t-110 77.5t-74.5 124t-28.5 175z" />
<glyph unicode="6" horiz-adv-x="1536" d="M163 337l1 21v621q1 75 14.5 138.5t35.5 108.5t50 81.5t59 59t61.5 39t58 24.5t48.5 12.5t33 5.5h13h417q23 0 38.5 -0.5t49.5 -4.5t59.5 -12t61 -24t61.5 -38.5t54.5 -58.5t46.5 -80.5t29.5 -108t11.5 -138.5q0 -4 -29 -4h-301q-12 0 -20 8.5t-10 22.5q-4 35 -18 61 t-31.5 38.5t-34 20t-28.5 8.5l-11 1h-215q-35 -1 -61 -10.5t-41 -29.5t-24 -38t-13 -51.5t-4.5 -53t-0.5 -58.5v-13h480q73 0 133 -15.5t96.5 -41t63.5 -56t39 -60.5t19 -55.5t8 -40.5l1 -16v-231q0 -5 0.5 -13.5t-1.5 -35t-6.5 -52.5t-16 -61t-28 -65t-45 -61t-64.5 -52.5 t-88.5 -35t-115.5 -13.5h-440q-89 0 -158.5 21t-110 54t-69 73.5t-39 81t-15.5 73.5t-4 54zM524 399q0 -69 30.5 -108t113.5 -39h221q39 0 64 11.5t35.5 33t14 41t3.5 47.5v123q1 27 -11.5 47.5t-31 29.5t-36.5 14.5t-31 6.5h-13h-236q-5 0 -13.5 -0.5t-29.5 -6t-37 -15 t-29.5 -30t-13.5 -48.5v-107z" />
<glyph unicode="7" horiz-adv-x="1148" d="M102 1151v252q0 13 9 22t22 9l883 -4q14 0 22.5 -9t8.5 -22v-273q0 -7 -3 -10l-532 -1100q-10 -16 -25 -16h-274q-22 0 -32 16.5t-1 36.5l496 1067h-543q-13 0 -22 9t-9 22z" />
<glyph unicode="8" horiz-adv-x="1433" d="M147 305v187q0 48 13.5 89t40.5 74.5t47.5 53.5t54.5 47q-36 22 -62 53.5t-38.5 59.5t-19.5 66t-8 58.5t-1 50.5v80q0 74 22 131.5t57.5 91t78 56t85.5 31t78.5 12t57.5 2.5l22 -2h285h12q30 1 52 0.5t70 -6t83.5 -16.5t79.5 -34.5t72.5 -57t48.5 -87t20 -121.5v-94 q0 -2 0.5 -24.5t0 -29.5t-2 -29t-5 -32.5t-9 -30.5t-14.5 -33t-21 -29t-29.5 -29.5t-39.5 -24.5q1 -1 20 -17.5t23 -20.5l20.5 -20.5t22 -26t18 -27.5t17.5 -34t12 -37.5t9.5 -45t2.5 -50.5v-184q0 -4 0.5 -11.5t-2 -29.5t-7.5 -43.5t-18.5 -51t-33 -54.5t-52 -50.5 t-74 -43.5t-102.5 -29.5t-133 -11.5h-293q-95 0 -172 18t-124 46.5t-81.5 63.5t-49.5 69.5t-24 63t-9 46.5zM500 997q0 -46 12.5 -79.5t30 -49t35.5 -24t30 -9.5l13 -1h233q33 0 57 17t35 41t17.5 47.5t6.5 40.5l1 17v43q1 32 -11 57.5t-29.5 40t-35 24t-29.5 12.5l-12 4 h-219q-5 -1 -14.5 -3t-32.5 -11.5t-41 -22.5t-32.5 -38t-14.5 -56v-50zM506 389q0 -37 12.5 -64.5t31 -40t36.5 -19.5t30 -8l13 -1h229q32 0 56.5 13.5t36 33t18.5 39.5t9 34l1 13v103q0 32 -11.5 55.5t-28 34.5t-33.5 17t-28 7h-12h-237q-43 -1 -70.5 -13t-37.5 -33 t-12.5 -33t-2.5 -29v-109z" />
<glyph unicode="9" horiz-adv-x="1474" d="M147 451q0 4 33 4h305q12 0 20.5 -9t8.5 -22q4 -36 18.5 -63t32 -39.5t34.5 -19.5t29 -8l11 -1h219q31 0 54.5 8t38.5 17.5t25.5 30.5t16 36.5t8 47t3 49.5t0.5 56v15h-488h-21t-51 5t-72.5 14t-77 30t-72.5 49.5t-51 76.5t-21 108v239q0 5 -0.5 13.5t1.5 34.5t7 51.5 t17.5 59.5t30.5 63.5t49 59t70 50.5t95.5 33.5t124.5 11.5h416q92 0 164.5 -21.5t115 -56t71.5 -76.5t40 -83.5t16 -76t4 -56.5l-2 -21v-606q0 -96 -21 -174t-54.5 -126.5t-73.5 -84t-80.5 -52t-74 -26t-54.5 -10.5l-21 -2h-424q-12 0 -32.5 2t-63 12.5t-82.5 28.5 t-85.5 53.5t-79 83.5t-55.5 123.5t-22 167.5zM514 903q0 -44 31 -69t63 -28l31 -3h238q5 0 13.5 0.5t30.5 5.5t39 14.5t30.5 30.5t13.5 51v107q0 69 -32 109t-114 40h-225q-32 0 -55 -8.5t-35 -21t-19 -32t-8.5 -35.5t-1.5 -38v-123z" />
<glyph unicode=":" horiz-adv-x="542" d="M102 713v213q0 13 8.5 21.5t22.5 8.5h273q14 0 22 -8t8 -22v-213q0 -14 -8.5 -22.5t-21.5 -8.5h-273q-13 0 -22 9t-9 22zM106 31v213q0 13 8.5 21.5t22.5 8.5h273q14 0 22 -8t8 -22v-213q0 -14 -8.5 -22.5t-21.5 -8.5h-273q-13 0 -22 9t-9 22z" />
<glyph unicode=";" horiz-adv-x="600" d="M102 -197q0 13 9.5 22t23.5 9q57 3 98 16.5t60.5 29t30 40.5t11.5 38.5t1 36.5v5h-152q-13 0 -21.5 8.5t-8.5 22.5v213q0 14 8 22t22 8h273q13 0 21.5 -8t8.5 -22l11 -301q0 -108 -84 -178t-279 -76q-14 0 -23.5 9.5t-9.5 22.5v82zM147 713v213q0 13 8.5 21.5t22.5 8.5 h273q13 0 21.5 -8t8.5 -22v-213q0 -14 -8.5 -22.5t-21.5 -8.5h-273q-14 0 -22.5 9t-8.5 22z" />
<glyph unicode="&#x3c;" horiz-adv-x="796" d="M102 489v173q0 9 11 20l510 401q25 19 48.5 5.5t20.5 -44.5l-18 -210q-3 -13 -12 -19l-349 -244l349 -227q9 -6 12 -18l20 -207q2 -31 -21 -44.5t-48 5.5l-512 389q-11 11 -11 20z" />
<glyph unicode="=" horiz-adv-x="1042" d="M102 362v177q0 13 8.5 21.5t22.5 8.5h774q14 0 22.5 -8.5t8.5 -21.5v-177q0 -13 -8.5 -21.5t-22.5 -8.5h-774q-14 0 -22.5 8.5t-8.5 21.5zM104 840v176q0 14 9 22.5t22 8.5h774q13 0 22 -8.5t9 -22.5v-176q0 -14 -9 -22.5t-22 -8.5h-774q-13 0 -22 8.5t-9 22.5z" />
<glyph unicode="&#x3e;" horiz-adv-x="794" d="M102 119l19 207q3 12 12 18l348 227l-348 244q-9 6 -12 19l-19 210q-3 31 21 44.5t49 -5.5l510 -401q10 -10 10 -20v-173q0 -10 -10 -20l-512 -389q-25 -19 -48 -5.5t-20 44.5z" />
<glyph unicode="?" horiz-adv-x="1142" d="M104 1044q-12 136 45 240.5t169 160.5t260 56q94 0 176 -24t146.5 -71t102 -124t37.5 -174q0 -131 -43 -226.5t-135 -170.5q-76 -62 -105.5 -96t-41.5 -66q-11 -56 -13 -92q0 -14 -8.5 -22.5t-21.5 -8.5h-221q-14 0 -23 10t-8 23q6 104 33.5 184.5t103.5 142.5 q62 49 102 95t54.5 85.5t18 60.5t3.5 50q0 69 -43.5 109.5t-111.5 40.5q-94 0 -137.5 -42t-49.5 -120q0 -26 -26 -29l-230 -18q-12 -1 -21.5 6.5t-11.5 19.5zM399 31v213q0 13 8.5 21.5t22.5 8.5h272q14 0 22.5 -8.5t8.5 -21.5v-213q0 -13 -8.5 -22t-22.5 -9h-272 q-14 0 -22.5 9t-8.5 22z" />
<glyph unicode="@" horiz-adv-x="1638" d="M102 567q0 145 57 278t153 229t229 153t278 57t278 -57t229 -153t153 -229t57 -278q0 -33 -2.5 -60t-9.5 -65t-22.5 -67t-39.5 -60.5t-63 -51.5t-89.5 -34t-122.5 -13.5t-159 15.5q-18 3 -22 21l-23 82q-29 -52 -85.5 -85.5t-135.5 -33.5q-111 0 -190 67.5t-100 164.5 t-4 195.5t100.5 169.5t211.5 77q136 5 203 -92v39q0 13 8.5 21.5t22.5 8.5h112q14 0 22.5 -8.5t8.5 -21.5v-465q51 -13 87 -4.5t60 25t37.5 47t19 61t5.5 67.5q0 149 -74 276t-201 201t-276 74t-276 -74t-201 -201t-74 -276q0 -111 48.5 -214t128.5 -177.5t186.5 -119 t218.5 -44.5q252 0 407 109q9 7 20 7t19 -7l76 -70q10 -11 10 -24.5t-10 -22.5q-28 -24 -66 -46.5t-100.5 -50t-150.5 -44.5t-187 -17q-201 0 -376.5 97t-280.5 264t-105 360zM637 563q0 -74 52.5 -127t129.5 -53q73 0 118.5 53.5t45.5 126.5q0 63 -47 121.5t-117 58.5 q-77 0 -129.5 -53t-52.5 -127z" />
<glyph unicode="A" horiz-adv-x="1599" d="M37 49l571 1376q10 17 27 17h332q16 0 26 -17l572 -1376q8 -19 -2.5 -34t-32.5 -15h-291q-17 0 -27 16l-133 312h-557l-133 -312q-10 -16 -27 -16h-290q-22 0 -32.5 15t-2.5 34zM621 606h372l-196 457z" />
<glyph unicode="B" horiz-adv-x="1679" d="M164 31v1372q0 13 9 22t22 9h1036q57 0 115 -24t111 -71.5t86.5 -132t33.5 -192.5q0 -164 -125 -297q52 -56 88.5 -136t36.5 -175q0 -87 -21.5 -157.5t-55.5 -116t-78.5 -76t-89.5 -43.5t-89 -13h-1048q-13 0 -22 9t-9 22zM508 289h536q24 0 36.5 0.5t36 3t37.5 7.5 t32 15t27.5 24.5t16.5 37t7 51.5q0 32 -7 57t-16.5 40.5t-28 26.5t-31.5 16.5t-37.5 8t-36 3t-36.5 0.5h-536v-291zM508 868h536q85 0 114 8q79 24 79 125q0 36 -13 61.5t-31 38t-47.5 19.5t-50 8.5t-51.5 1.5h-536v-262z" />
<glyph unicode="C" horiz-adv-x="1673" d="M123 711q0 144 48 275.5t137 235.5t228 166t308 62q157 0 295 -50.5t229.5 -130.5t144 -178.5t52.5 -195.5q0 -37 -33 -37h-262q-27 0 -27 16q0 20 -9.5 48.5t-37.5 65.5t-70 67.5t-116 51.5t-166 21q-167 0 -277 -126t-110 -304q0 -108 47.5 -203.5t137.5 -155.5 t202 -60q74 0 135.5 13.5t102.5 35t72.5 50.5t48.5 56t28 55t14.5 45.5t3.5 28.5q0 12 9.5 20.5t21.5 8.5h260q14 0 23 -10t8 -23q-2 -36 -8.5 -74t-27 -98t-51.5 -112.5t-87.5 -109t-128.5 -96.5t-181.5 -66t-240.5 -26q-215 0 -380.5 94.5t-254 261t-88.5 378.5z" />
<glyph unicode="D" horiz-adv-x="1830" d="M164 31v1372q0 13 9 22t22 9h647q117 0 215.5 -8t176.5 -25t141.5 -39t111 -54.5t83 -66.5t60 -79.5t40 -89.5t24 -101t11.5 -108.5t3 -117.5v-6q0 -65 -3.5 -118.5t-12 -112t-25 -106t-41 -96.5t-60.5 -87t-83.5 -74t-111 -61.5t-141 -45t-175.5 -29t-213 -9.5h-647 q-13 0 -22 9t-9 22zM526 291l281 -2q89 0 161.5 7.5t126.5 18.5t95 34t68.5 42t46 55t28.5 61t14.5 72t5.5 76t1 84v8q0 49 -0.5 73t-3.5 64.5t-10.5 60t-20.5 51t-33.5 46.5t-49.5 36t-69.5 30.5t-92.5 20t-119 14.5t-148 4l-281 2v-858z" />
<glyph unicode="E" horiz-adv-x="1681" d="M164 31v1372q0 13 9 22t22 9h1370q13 0 21.5 -8.5t8.5 -22.5v-227q0 -14 -8.5 -22.5t-21.5 -8.5h-1041v-279h1006q14 0 22.5 -8.5t8.5 -21.5v-236q0 -14 -8.5 -22.5t-22.5 -8.5h-1006v-280h1045q13 0 21.5 -8.5t8.5 -22.5v-227q0 -14 -8.5 -22.5t-21.5 -8.5h-1374 q-13 0 -22 9t-9 22z" />
<glyph unicode="F" horiz-adv-x="1677" d="M164 31v1372q0 13 9 22t22 9h1370q13 0 21.5 -8.5t8.5 -22.5v-227q0 -14 -8.5 -22.5t-21.5 -8.5h-1041v-279h1006q14 0 22.5 -8.5t8.5 -21.5v-236q0 -14 -8.5 -22.5t-22.5 -8.5h-1006v-538q0 -14 -8.5 -22.5t-21.5 -8.5h-299q-13 0 -22 9t-9 22z" />
<glyph unicode="G" horiz-adv-x="1693" d="M123 713q0 114 30 222t90.5 202t144.5 164t200.5 110.5t251.5 40.5q157 0 288.5 -45t218.5 -121t141 -167t73 -191q3 -15 -6.5 -26t-26.5 -11h-260q-19 0 -25 16q-11 23 -26 46.5t-49 59t-75.5 61.5t-108 45.5t-144.5 19.5q-112 0 -204.5 -64t-143 -169t-50.5 -226 q0 -111 45.5 -205.5t138 -155.5t214.5 -61q72 0 132.5 14.5t100.5 37.5t72 55t50 61.5t30 62.5h-316q-13 0 -21.5 8.5t-8.5 22.5v195q0 13 8.5 21.5t21.5 8.5h631q14 0 22.5 -8.5t8.5 -21.5v-103q0 -8 -0.5 -22t-6.5 -57t-17 -85t-36 -99t-59 -106t-91 -99t-127 -85 t-171.5 -57t-220.5 -22q-214 0 -378.5 94.5t-252.5 261t-88 377.5z" />
<glyph unicode="H" horiz-adv-x="1785" d="M164 31v1372q0 13 9 22t22 9h297q13 0 21.5 -8.5t8.5 -22.5v-539h738v539q0 14 8.5 22.5t21.5 8.5h301q13 0 22 -9t9 -22v-1372q0 -13 -9 -22t-22 -9h-301q-13 0 -21.5 8.5t-8.5 22.5v547h-738v-547q0 -14 -8.5 -22.5t-21.5 -8.5h-297q-13 0 -22 9t-9 22z" />
<glyph unicode="I" horiz-adv-x="690" d="M164 31v1372q0 13 9 22t22 9h301q13 0 21.5 -8.5t8.5 -22.5v-1372q0 -14 -8.5 -22.5t-21.5 -8.5h-301q-13 0 -22 9t-9 22z" />
<glyph unicode="J" horiz-adv-x="1454" d="M63 627l328 2q13 0 22 -4t9 -9q0 -28 1 -48.5t6 -57t14.5 -63t28.5 -58t45 -51.5t67.5 -33.5t93.5 -13.5t93 13.5t67 33.5t45 51.5t28 58t14 63t6 57t1 48.5v787q0 13 9 22t22 9h294q13 0 22 -9t9 -22q0 -22 0.5 -183t0.5 -289t-1 -271.5t-4 -198.5q-3 -46 -8.5 -83.5 t-22 -89t-42 -92t-71.5 -82.5t-107 -69.5t-152 -45t-203 -17.5q-113 0 -204.5 17.5t-153 45t-108 69.5t-72 82.5t-42 92t-22 89t-8.5 83.5q-6 127 -6 157q0 11 1 9z" />
<glyph unicode="K" horiz-adv-x="1835" d="M164 31v1372q0 13 9 22t22 9h301q13 0 21.5 -8.5t8.5 -22.5v-541l680 565q7 7 15 7h405q37 0 48 -30.5t-17 -53.5l-535 -432l641 -852q17 -23 6.5 -44.5t-38.5 -21.5h-355q-10 0 -20 10l-512 678l-318 -254v-403q0 -14 -8.5 -22.5t-21.5 -8.5h-301q-13 0 -22 9t-9 22z " />
<glyph unicode="L" horiz-adv-x="1271" d="M164 31v1372q0 13 9 22t22 9h290q13 0 22 -9t9 -22v-1112h664q13 0 21.5 -8.5t8.5 -22.5v-229q0 -14 -8.5 -22.5t-21.5 -8.5h-985q-13 0 -22 9t-9 22z" />
<glyph unicode="M" horiz-adv-x="2066" d="M143 31v1372q0 13 8.5 22t22.5 9h320q14 0 24 -17l498 -964l514 966q8 15 24 15h318q14 0 22.5 -9t8.5 -22v-1372q0 -13 -8.5 -22t-22.5 -9h-289q-13 0 -22 9t-9 22v788l-399 -803q-6 -16 -27 -16h-213q-16 0 -26 16l-393 801l4 -786q0 -13 -9 -22t-22 -9h-293 q-14 0 -22.5 9t-8.5 22z" />
<glyph unicode="N" horiz-adv-x="1736" d="M164 31v1372q0 13 9 22t22 9h297q9 0 20 -11l696 -872v852q0 13 9 22t22 9h303q14 0 22.5 -9t8.5 -22v-1372q0 -13 -8.5 -22t-22.5 -9h-260q-10 0 -20 10l-738 910v-889q0 -14 -8.5 -22.5t-21.5 -8.5h-299q-13 0 -22 9t-9 22z" />
<glyph unicode="O" horiz-adv-x="1746" d="M123 725q0 135 54.5 265.5t150 233t237 165.5t303.5 63q154 0 295.5 -62.5t241.5 -164t159.5 -233.5t59.5 -267q0 -221 -96.5 -391t-268 -262t-391.5 -92q-149 0 -284 52t-237.5 146t-163 236t-60.5 311zM449 735q0 -186 120 -313t291 -127h8q115 -1 214 57 q103 60 162 159t59 210q0 180 -122.5 305t-312.5 125q-166 0 -292.5 -126.5t-126.5 -289.5z" />
<glyph unicode="P" horiz-adv-x="1767" d="M164 31v1372q0 13 9 22t22 9h884h9q135 0 240 -29q109 -30 175 -78t108.5 -114t58.5 -131.5t16 -137.5q0 -86 -19.5 -157.5t-72 -139.5t-136 -114.5t-219 -74.5t-313.5 -28h-400v-399q0 -14 -8.5 -22.5t-21.5 -8.5h-301q-13 0 -22 9t-9 22zM526 719h447q89 0 154 13 t102 33t59 51t28.5 60t6.5 68q0 203 -305 203h-492v-428z" />
<glyph unicode="Q" horiz-adv-x="1785" d="M123 729q0 134 53.5 263.5t147.5 231.5t234.5 165t301.5 63q140 0 263.5 -41t213.5 -110.5t156 -161t98.5 -194t32.5 -206.5q0 -155 -88 -338l160 -165q20 -24 -2 -46l-213 -213q-9 -9 -22.5 -9t-22.5 9l-150 154q-61 -44 -95 -65.5t-85.5 -45t-108.5 -32t-133 -8.5 q-147 0 -284 61t-237 162t-160 239.5t-60 286.5zM453 735v-12q0 -107 51 -203q55 -101 150.5 -161t205.5 -60h9q176 0 299 119q127 122 130 303q0 178 -121.5 302t-308.5 124q-108 0 -204.5 -58t-153.5 -153t-57 -201z" />
<glyph unicode="R" horiz-adv-x="1746" d="M164 31v1372q0 13 9 22t22 9h884q140 0 249 -30t175 -78t108.5 -114t58.5 -131t16 -137q0 -321 -291 -440l239 -449q10 -20 -1 -37.5t-34 -17.5h-321q-14 0 -25 14l-223 418q-33 -2 -104 -2h-426v-399q0 -13 -9 -22t-22 -9h-274q-13 0 -22 9t-9 22zM500 719h473 q89 0 154 11.5t102 29.5t59 46.5t28.5 57t6.5 66.5q0 203 -305 203h-518v-414z" />
<glyph unicode="S" horiz-adv-x="1619" d="M156 208q-4 17 8 34l125 174q9 11 24 14t25 -4q149 -86 268.5 -122t253.5 -36q115 0 179.5 34.5t64.5 86.5v2q0 133 -451 232q-87 19 -152 42t-122 57t-93 78t-56.5 104.5t-20.5 137.5v9q0 79 35 149t103.5 126t181 89t255.5 33q169 0 304 -34t290 -107q16 -8 21.5 -24 t-4.5 -34l-129 -211q-8 -12 -23 -17t-29 1q-144 61 -243.5 89t-196.5 28q-96 0 -150.5 -32.5t-54.5 -78.5v-4q0 -28 28 -52t78 -42t113 -35t137 -35q29 -6 44 -10q107 -28 192.5 -65.5t154 -88t105.5 -116.5t37 -144q0 -240 -159.5 -347t-489.5 -107q-128 0 -230.5 22.5 t-185.5 60.5t-215 115q-18 11 -22 28z" />
<glyph unicode="T" horiz-adv-x="1548" d="M61 1176v227q0 13 8.5 22t22.5 9h1364q14 0 22.5 -9t8.5 -22v-227q0 -14 -8.5 -22.5t-22.5 -8.5h-504v-1114q0 -14 -8.5 -22.5t-21.5 -8.5h-301q-13 0 -22 9t-9 22v1114h-498q-14 0 -22.5 8.5t-8.5 22.5z" />
<glyph unicode="U" horiz-adv-x="1562" d="M165 933q0 128 0.5 287.5t0.5 180.5q0 13 9 22t22 9l299 2q13 0 21.5 -8.5t8.5 -22.5v-780q0 -30 0.5 -50t5.5 -57.5t14.5 -64t28 -58.5t44.5 -52t67.5 -34t93.5 -14t93.5 14t67.5 34t45 52t28.5 58.5t14.5 63.5t6 58t1 50v780q0 13 9 22t22 9l299 -2q14 0 22.5 -9 t8.5 -22q0 -21 0.5 -180.5t0.5 -287.5t-1 -270.5t-4 -197.5q-3 -46 -8.5 -84t-22 -90.5t-42.5 -93t-72.5 -83.5t-108 -71t-154 -45.5t-205.5 -17.5t-205 17.5t-154 45.5t-108 70.5t-72 83.5t-42 93t-21.5 90.5t-7.5 84.5q-3 55 -4 197.5t-1 270.5z" />
<glyph unicode="V" horiz-adv-x="1763" d="M66 1382q-9 19 1 35.5t31 16.5h320q19 0 26 -17l443 -1044l434 1044q7 17 27 17h317q22 0 32 -16.5t1 -35.5l-625 -1366q-10 -16 -26 -16h-332q-17 0 -27 16z" />
<glyph unicode="W" horiz-adv-x="2809" d="M66 1382q-9 19 1 35.5t31 16.5h334q17 0 27 -17l428 -987l313 971q7 20 27 20h321q21 0 27 -18l358 -973l412 987q10 17 27 17h340q21 0 31 -16.5t1 -35.5l-624 -1366q-10 -16 -27 -16h-330q-20 0 -26 18l-342 914l-324 -914q-7 -18 -27 -18h-329q-17 0 -27 16z" />
<glyph unicode="X" horiz-adv-x="1798" d="M64.5 24.5q-10.5 24.5 9.5 47.5l600 657l-596 631q-22 23 -11 48.5t42 25.5h337q10 0 19 -9l434 -456l434 456q9 9 19 9h336q31 0 41.5 -24t-9.5 -46l-575 -662l579 -630q20 -23 9.5 -47.5t-41.5 -24.5h-355q-12 0 -20 8l-418 461l-424 -461q-8 -8 -20 -8h-349 q-31 0 -41.5 24.5z" />
<glyph unicode="Y" horiz-adv-x="1808" d="M64 1411.5q10 22.5 38 22.5h351q9 0 20 -11l434 -553l434 553q11 11 21 11h342q29 0 39.5 -22.5t-6.5 -45.5l-654 -817v-518q0 -14 -8.5 -22.5t-21.5 -8.5h-301q-14 0 -22.5 9t-8.5 22v528l-649 807q-18 23 -8 45.5z" />
<glyph unicode="Z" horiz-adv-x="1742" d="M82 31v243q0 16 8 21l963 829h-940q-13 0 -22 9t-9 22v248q0 13 9 22t22 9h1517q14 0 22.5 -9t8.5 -22v-215q0 -13 -8 -21l-1028 -872h1005q14 0 22.5 -8.5t8.5 -22.5v-233q0 -13 -8.5 -22t-22.5 -9h-1517q-13 0 -22 9t-9 22z" />
<glyph unicode="[" horiz-adv-x="1091" d="M123 -268v1784q0 13 8.5 21.5t22.5 8.5h784q14 0 22.5 -8.5t8.5 -21.5v-203q0 -13 -8.5 -22t-22.5 -9h-453v-1317h453q14 0 22.5 -8.5t8.5 -22.5v-202q0 -14 -8.5 -22.5t-22.5 -8.5h-784q-14 0 -22.5 8.5t-8.5 22.5z" />
<glyph unicode="\" horiz-adv-x="1099" d="M-97 1413q11 19 36 19h321q16 0 25 -15l354 -616l434 -744q12 -20 2 -38.5t-35 -18.5h-323q-17 0 -25 14l-418 750l-370 608q-12 22 -1 41z" />
<glyph unicode="]" horiz-adv-x="1050" d="M102 -66q0 14 9 22.5t22 8.5h451v1317h-451q-13 0 -22 9t-9 22v203q0 13 8.5 21.5t22.5 8.5h785q14 0 22 -8t8 -22v-1784q0 -14 -8.5 -22.5t-21.5 -8.5h-785q-13 0 -22 8.5t-9 22.5v202z" />
<glyph unicode="^" horiz-adv-x="1052" d="M107.5 956q-13.5 23 5.5 48l317 417q11 11 21 11h141q9 0 20 -11l326 -415q20 -25 6.5 -49t-45.5 -21l-158 14q-11 3 -18 13l-205 290l-190 -290q-7 -10 -19 -13l-157 -14q-31 -3 -44.5 20z" />
<glyph unicode="_" horiz-adv-x="1378" d="M102 -311q0 13 8.5 21.5t22.5 8.5h1112q14 0 22.5 -8.5t8.5 -21.5v-68q0 -13 -9 -22t-22 -9h-1112q-13 0 -22 9t-9 22v68z" />
<glyph unicode="`" horiz-adv-x="630" d="M104 1404q5 17 25 23l170 56q20 6 35 -13l188 -307q10 -15 4.5 -30.5t-22.5 -20.5l-135 -39q-17 -6 -31 8l-227 289q-12 17 -7 34z" />
<glyph unicode="a" d="M61 545q0 108 34 206t100 178t174.5 127.5t246.5 47.5q123 0 212.5 -38.5t134.5 -98.5v88q0 13 8.5 21.5t21.5 8.5h240q14 0 22.5 -8.5t8.5 -21.5v-1024q0 -13 -9 -22t-22 -9h-240q-13 0 -21.5 8.5t-8.5 22.5v139q-44 -84 -141.5 -137t-235.5 -53q-123 0 -224 47.5 t-166 127t-100 180t-35 210.5zM369 545q0 -129 83 -219t214 -90q125 0 212 92.5t87 216.5q0 52 -18 105t-51.5 100t-89 76.5t-122.5 29.5q-134 0 -224.5 -91t-90.5 -220z" />
<glyph unicode="b" horiz-adv-x="1404" d="M123 29v1441q0 14 8.5 22.5t22.5 8.5h239q13 0 22 -8.5t9 -22.5v-505q38 58 127 100q83 39 202 39h17q272 -4 423 -183q122 -143 130 -350v-26q0 -184 -93 -332q-110 -173 -302 -219q-61 -14 -127 -14q-139 0 -236 52t-141 136v-139q0 -13 -9 -22t-22 -9h-239 q-14 0 -22.5 9t-8.5 22zM428 535q0 -126 89.5 -216t215.5 -90q127 0 217 90t90 216q0 127 -90 217t-217 90q-126 0 -215.5 -90t-89.5 -217z" />
<glyph unicode="c" horiz-adv-x="1224" d="M61 537v6q0 113 46.5 215t127.5 178t197 121t248 45q149 0 255.5 -40t190.5 -118q9 -9 9 -22.5t-9 -22.5l-159 -158q-20 -20 -43 0q-112 95 -273 95q-104 0 -180 -61t-98 -147q-13 -52 -13 -105q0 -35 6 -69q14 -86 94 -147t206 -61q153 0 276 94q9 8 20.5 8t18.5 -8 l152 -139q11 -9 11 -22.5t-11 -22.5q-92 -85 -199 -129.5t-260 -44.5q-172 0 -313.5 75t-220.5 202t-79 278z" />
<glyph unicode="d" horiz-adv-x="1437" d="M84 482q-4 39 -4 77q0 159 75 290q106 184 319 237q75 18 161 18q118 0 207 -41.5t139 -97.5v505q0 14 8.5 22.5t22.5 8.5h239q13 0 22 -8.5t9 -22.5v-1439q0 -13 -9 -22t-22 -9h-239q-14 0 -22.5 9t-8.5 22v137q-24 -31 -56 -60t-79.5 -59.5t-110.5 -49.5t-131 -19 q-229 0 -376 165q-122 137 -144 337zM365 535q0 -126 90 -216t217 -90q126 0 215.5 90t89.5 216q0 127 -89.5 217t-215.5 90q-128 0 -217.5 -90t-89.5 -217z" />
<glyph unicode="e" horiz-adv-x="1196" d="M20 535v6q0 115 34.5 215.5t101 178.5t173 123.5t240.5 45.5q264 0 405.5 -148t141.5 -393q0 -96 -14 -123q-9 -12 -23 -12h-766q0 -73 91.5 -145t183.5 -72q52 0 73 1.5t69 11t94.5 36t101.5 70.5q19 14 39 -2l96 -90q20 -20 2 -48q-76 -110 -194 -160t-287 -50 q-130 0 -239 49t-178 128.5t-107 177.5t-38 200zM309 627h557q0 98 -81.5 163.5t-213.5 65.5q-104 0 -183 -75.5t-79 -153.5z" />
<glyph unicode="f" horiz-adv-x="970" d="M59 881v196q0 13 8.5 22t22.5 9h141v2q0 184 88.5 294.5t270.5 113.5h5q234 0 384 -175q13 -15 12 -40t-18 -37l-74 -56q-21 -17 -41 0q-85 62 -170 62q-70 0 -109.5 -37.5t-39.5 -99.5v-27h311q14 0 22.5 -9t8.5 -22v-196q0 -13 -8.5 -22t-22.5 -9h-307v-819 q0 -13 -8.5 -22t-22.5 -9h-250q-14 0 -22.5 9t-8.5 22v819h-141q-14 0 -22.5 9t-8.5 22z" />
<glyph unicode="g" d="M85 481q-4 39 -4 77q0 158 75 290q105 185 319 237q76 19 162 19q125 0 211 -40t135 -99v90q0 13 8.5 21.5t22.5 8.5h239q14 0 22.5 -8.5t8.5 -21.5v-951q0 -42 -4 -84.5t-18.5 -101.5t-38.5 -110.5t-68.5 -104t-103.5 -90t-148 -61t-198 -23.5q-395 0 -580 217 q-7 8 -7 19t7 18q61 69 117 129q7 10 20 10.5t23 -8.5q86 -76 205 -118q99 -35 177 -35q15 0 29 1q47 5 86.5 16t67.5 25t50.5 34.5t36.5 39.5t24 44t14.5 44t6.5 43.5t2 38.5t-0.5 33.5t-0.5 23.5v64q-47 -77 -145 -132.5t-232 -55.5q-228 0 -375 163q-123 138 -146 338z M389 563q0 -127 92 -218t224 -91q124 0 202 91.5t78 217.5q0 69 -33.5 139.5t-100 121t-146.5 50.5q-133 0 -224.5 -91.5t-91.5 -219.5z" />
<glyph unicode="h" horiz-adv-x="1505" d="M123 31v1439q0 14 8.5 22.5t22.5 8.5h239q13 0 22 -8.5t9 -22.5v-602q32 52 74 96.5t105 88t152.5 69t194.5 25.5q412 0 412 -555v-561q0 -13 -9 -22t-22 -9h-239q-14 0 -22.5 9t-8.5 22l-2 499q0 164 -69.5 251t-209.5 87q-248 0 -356 -243v-594q0 -13 -9 -22t-22 -9 h-239q-14 0 -22.5 9t-8.5 22z" />
<glyph unicode="i" horiz-adv-x="620" d="M143 1231v213q0 14 8.5 22.5t22.5 8.5h272q14 0 22.5 -8.5t8.5 -22.5v-213q0 -13 -8.5 -22t-22.5 -9h-272q-14 0 -22.5 9t-8.5 22zM156 1055q0 13 8 21.5t22 8.5h250q14 0 22.5 -8.5t8.5 -21.5v-1024q0 -13 -8.5 -22t-22.5 -9h-246q-13 0 -21.5 8.5t-8.5 22.5z" />
<glyph unicode="j" horiz-adv-x="821" d="M0 -174q0 14 9 22.5t22 8.5q172 7 238.5 102t66.5 293v803q0 12 9.5 21t21.5 9l249 -2q14 0 22.5 -8.5t8.5 -21.5q0 -22 0.5 -186t0.5 -295.5t-1 -279.5t-4 -206q-3 -46 -8.5 -85t-22.5 -91t-42.5 -93t-72 -84t-107.5 -72.5t-152 -49t-203 -21.5q-14 0 -23.5 9t-9.5 22z M326 1231v213q0 14 8.5 22.5t21.5 8.5h271q13 0 21.5 -8.5t8.5 -22.5v-213q0 -14 -8.5 -22.5t-21.5 -8.5h-271q-13 0 -21.5 8.5t-8.5 22.5z" />
<glyph unicode="k" horiz-adv-x="1323" d="M123 31v1437q0 14 8.5 22.5t22.5 8.5l252 2q12 0 21 -9.5t9 -21.5v-772l473 381q6 6 15 6h299q37 0 47 -31.5t-19 -54.5l-417 -331l417 -605q15 -23 4.5 -43t-36.5 -20h-275q-13 0 -22 12l-330 498l-156 -127v-352q0 -14 -8.5 -22.5t-21.5 -8.5h-252q-14 0 -22.5 9 t-8.5 22z" />
<glyph unicode="l" horiz-adv-x="589" d="M143 31v1439q0 14 8.5 22.5t22.5 8.5h242q13 0 21.5 -8.5t8.5 -22.5v-1439q0 -14 -8.5 -22.5t-21.5 -8.5h-242q-14 0 -22.5 9t-8.5 22z" />
<glyph unicode="m" horiz-adv-x="2328" d="M143 31v1024q0 13 8.5 21.5t22.5 8.5h242q14 0 22 -8.5t8 -21.5v-187q16 26 57.5 62.5t107 78t162.5 70.5t200 29q248 0 346 -205q23 26 63.5 57.5t101.5 66.5t143.5 58t166.5 23q412 0 412 -555v-522q0 -13 -9 -22t-22 -9h-240q-13 0 -21.5 8.5t-8.5 22.5l-2 499 q0 164 -69.5 251t-209.5 87q-131 0 -252 -112q12 -79 12 -164v-561q0 -14 -8.5 -22.5t-21.5 -8.5h-240q-14 0 -22.5 9t-8.5 22l-2 499q0 164 -69 251t-209 87q-252 0 -357 -243v-594q0 -14 -8.5 -22.5t-21.5 -8.5h-242q-14 0 -22.5 9t-8.5 22z" />
<glyph unicode="n" horiz-adv-x="1505" d="M143 31v1024q0 13 8.5 21.5t22.5 8.5h240q14 0 22 -8.5t8 -21.5v-187q12 21 40 48.5t77 61t107.5 61t138.5 46.5t164 19q411 0 411 -555v-518q0 -14 -8.5 -22.5t-21.5 -8.5h-240q-14 0 -22.5 9t-8.5 22l-2 499q0 164 -69 251t-209 87q-116 0 -206.5 -68t-150.5 -175v-594 q0 -14 -8.5 -22.5t-21.5 -8.5h-240q-14 0 -22.5 9t-8.5 22z" />
<glyph unicode="o" horiz-adv-x="1173" d="M0 539q0 155 73 285t201.5 205t284.5 75q155 0 282 -74.5t199 -203.5t72 -285t-72 -284.5t-199 -201.5t-282 -73q-117 0 -220.5 43t-178 116.5t-117.5 177t-43 220.5zM250 537q0 -125 89.5 -214.5t215.5 -89.5q124 0 213.5 89.5t89.5 214.5q0 126 -89 215.5t-214 89.5 q-126 0 -215.5 -89.5t-89.5 -215.5z" />
<glyph unicode="p" horiz-adv-x="1406" d="M123 -379v1428q0 13 8.5 21.5t22.5 8.5h239q14 0 22.5 -8.5t8.5 -21.5v-142q44 86 142 141.5t235 55.5q228 0 375 -163q123 -138 146 -338q4 -39 4 -77q0 -158 -75 -290q-105 -185 -319 -237q-76 -19 -162 -19q-119 0 -208.5 38.5t-137.5 92.5v-490q0 -13 -9 -22t-22 -9 h-239q-14 0 -22.5 9t-8.5 22zM428 541q0 -127 89.5 -217.5t215.5 -90.5q127 0 217 90t90 218q0 126 -90 215.5t-217 89.5q-126 0 -215.5 -89.5t-89.5 -215.5z" />
<glyph unicode="q" horiz-adv-x="1462" d="M93 422q-14 60 -14 119q0 61 15 122q29 120 90 220t175.5 163t258.5 64h5q133 0 229 -58q98 -58 143 -145v148q0 13 8.5 21.5t22.5 8.5h240q14 0 22 -8.5t8 -21.5v-1434q0 -14 -8.5 -22.5t-21.5 -8.5h-240q-14 0 -22.5 9t-8.5 22v490q-47 -54 -136.5 -92.5t-209.5 -38.5 q-159 0 -281.5 62t-184.5 161t-90 219zM379 541q0 -128 90 -218t217 -90q126 0 215.5 90.5t89.5 217.5q0 126 -89.5 215.5t-215.5 89.5q-127 0 -217 -89.5t-90 -215.5z" />
<glyph unicode="r" horiz-adv-x="903" d="M82 31v1024q0 13 8.5 21.5t22.5 8.5h245q14 0 22.5 -8.5t8.5 -21.5v-234q30 59 76.5 107t92 76.5t98.5 49.5t89 30t70 14q15 3 26 -6.5t11 -26.5v-211q0 -13 -7 -22t-16 -9q-93 0 -166.5 -17t-119 -44t-78 -65.5t-47.5 -77t-22.5 -83t-7.5 -79.5q0 -12 -1 -23 q0 -23 1 -47q1 -22 1 -31v-325q0 -13 -8.5 -22t-22.5 -9h-245q-13 0 -22 9t-9 22z" />
<glyph unicode="s" horiz-adv-x="1128" d="M62.5 152.5q-3.5 13.5 5.5 25.5l96 133q16 19 39 8q114 -62 205.5 -88t193.5 -26q89 0 133.5 23t44.5 63v2q0 31 -27.5 56.5t-81.5 46.5t-104 34.5t-125 30.5q-85 19 -144.5 42.5t-107.5 60.5t-72 91.5t-24 128.5v7q0 61 28.5 116t82 99.5t142 71t198.5 26.5 q129 0 232 -26t222 -83q12 -6 16 -18.5t-3 -26.5l-99 -170q-15 -22 -39 -12q-110 47 -186.5 68.5t-150.5 21.5q-76 0 -117 -21.5t-41 -56.5v-2q0 -10 4.5 -19.5t16 -17.5t23 -15t32 -14t36.5 -12.5t44 -12.5t46.5 -11.5t51.5 -12t53 -12.5q173 -45 277 -123.5t104 -193.5 q0 -184 -125.5 -269t-378.5 -85q-143 0 -240 32.5t-245 118.5q-12 8 -15.5 21.5z" />
<glyph unicode="t" horiz-adv-x="1052" d="M41 879v196q0 13 8.5 22t22.5 9h141v362q0 14 8.5 22.5t22.5 8.5h250q13 0 21.5 -8.5t8.5 -22.5v-362h307q13 0 22 -9t9 -22v-196q0 -13 -9 -22t-22 -9h-311v-490q0 -118 150 -118q109 0 170 45q20 17 41 0l110 -109q-1 1 -6 -7q-120 -175 -372 -186q-21 -1 -42 -1 q-69 1 -122.5 12.5t-75.5 22.5t-47 28q-113 83 -113 285v518h-141q-14 0 -22.5 9t-8.5 22z" />
<glyph unicode="u" horiz-adv-x="1351" d="M61 520v535q0 13 8.5 21.5t22.5 8.5h240q14 0 22 -8.5t8 -21.5l3 -502q0 -164 69 -251t209 -87q173 0 285 195v645q0 13 8 21.5t22 8.5h240q14 0 22.5 -8.5t8.5 -21.5v-1024q0 -13 -8.5 -22t-22.5 -9h-240q-13 0 -21.5 8.5t-8.5 22.5v149q-166 -200 -455 -200 q-94 0 -166 28t-118 75.5t-75.5 117.5t-41 147.5t-11.5 171.5z" />
<glyph unicode="v" horiz-adv-x="1267" d="M55 1038q-6 19 3.5 33t29.5 14h248q22 0 29 -20l258 -813l243 813q7 20 27 20h254q21 0 31 -15t4 -34l-365 -1018q-6 -18 -24 -18h-342q-21 0 -27 18z" />
<glyph unicode="w" horiz-adv-x="2097" d="M55 1038q-7 19 3 33t30 14h293q22 0 29 -20l215 -754l266 756q0 2 20 2h277q18 -1 18 -2l246 -756l238 754q7 20 26 20h293q21 0 31 -15t4 -34l-404 -1018q-6 -18 -24 -18h-332q-20 0 -27 18l-215 613l-229 -613q-6 -18 -27 -18h-329q-21 0 -27 18z" />
<glyph unicode="x" horiz-adv-x="1077" d="M5 19q-10 21 5 44l352 480l-337 479q-15 22 -5 42.5t37 20.5h269q13 0 22 -12l197 -311l196 311q9 12 23 12h258q26 0 37 -20.5t-4 -42.5l-338 -475l352 -486q17 -22 6 -42.5t-39 -20.5h-262q-13 0 -22 12l-215 318l-213 -318q-9 -12 -23 -12h-258q-28 0 -38 21z" />
<glyph unicode="y" horiz-adv-x="1267" d="M55 1038q-7 19 3 33t30 14h291q22 0 29 -20l215 -754l237 754q7 20 27 20h293q21 0 30.5 -15t3.5 -34l-393 -997q-3 -10 -10 -30q-13 -40 -21 -61t-25.5 -61t-33.5 -63.5t-45 -58t-60 -55.5t-77.5 -45.5t-100 -38.5t-124 -24t-152.5 -12q-14 0 -23.5 9t-9.5 22l-2 205 q0 14 8.5 22.5t22.5 8.5q106 5 170 39t96 106z" />
<glyph unicode="z" horiz-adv-x="1183" d="M61 31v172q0 9 9 18l622 615h-579q-14 0 -22.5 8.5t-8.5 21.5v189q0 13 8.5 21.5t22.5 8.5h979q14 0 22 -8.5t8 -21.5v-178q0 -11 -8 -19l-627 -614h605q13 0 21.5 -8.5t8.5 -22.5v-182q0 -14 -8.5 -22.5t-21.5 -8.5h-1000q-14 0 -22.5 9t-8.5 22z" />
<glyph unicode="{" horiz-adv-x="1019" d="M102 428v170q0 14 9 22.5t22 8.5h41q42 0 71 20t43.5 54.5t20.5 68.5t6 72v143q0 32 15 70.5t53.5 86t96 90.5t152 81.5t210.5 60.5q27 7 37 -20l36 -144q7 -29 -22 -36q-144 -43 -220.5 -93t-107 -117t-30.5 -175q0 -51 -2 -80.5t-11 -65t-27 -56t-50 -39t-80 -28.5 q48 -16 80.5 -35.5t51.5 -40t28.5 -52.5t12.5 -62t3 -78q0 -82 13.5 -137.5t51 -105.5t107.5 -84.5t178 -59.5q14 -5 20.5 -16.5t3.5 -24.5l-38 -139q-7 -24 -33 -21q-117 17 -212 54.5t-152 81.5t-96 94t-54 89.5t-15 69.5v144q0 23 -5.5 51.5t-19 64t-44 59t-72.5 23.5 h-41q-13 0 -22 8.5t-9 22.5z" />
<glyph unicode="|" horiz-adv-x="430" d="M102 -291v1634q0 13 9 22t22 9h164q13 0 22 -9t9 -22v-1634q0 -13 -9 -22t-22 -9h-164q-13 0 -22 9t-9 22z" />
<glyph unicode="}" horiz-adv-x="1019" d="M104 -174q-3 14 4.5 25.5t22.5 15.5q108 25 177 59.5t106.5 84t51 106t13.5 137.5q0 48 3 78t12.5 62t28.5 52.5t51.5 40t80.5 35.5q-48 10 -80 28.5t-50 39t-27 56t-11 65t-2 80.5q0 108 -30.5 175t-107 117t-220.5 93q-13 3 -19.5 13.5t-3.5 22.5l37 144q10 27 37 20 q116 -22 210.5 -60.5t152 -81.5t96 -90.5t53.5 -86t15 -70.5v-143q0 -38 6 -72t20.5 -68.5t43.5 -54.5t71 -20h41q13 0 22 -8.5t9 -22.5v-170q0 -14 -9 -22.5t-22 -8.5h-41q-42 0 -72.5 -23.5t-44 -59t-19 -64t-5.5 -51.5v-144q0 -30 -15 -69.5t-54 -89.5t-96 -94 t-152 -81.5t-212 -54.5q-26 -3 -33 21z" />
<glyph unicode="~" horiz-adv-x="1331" d="M104 393q51 121 127 182.5t201 61.5q88 0 264 -45q112 -33 162 -33q56 0 89 19.5t61 62.5q10 17 30 14l164 -39q15 -3 22.5 -16t2.5 -27q-49 -124 -124.5 -186.5t-203.5 -62.5q-109 0 -266 49q-16 4 -45.5 11.5t-44.5 11t-35.5 7t-36.5 3.5q-54 0 -86.5 -19.5 t-60.5 -62.5q-9 -19 -31 -15l-166 39q-15 3 -22 16.5t-1 28.5z" />
<glyph unicode="&#xa1;" horiz-adv-x="569" d="M102 -379l25 1022q0 13 8.5 22t22.5 9h250q13 0 21.5 -8.5t8.5 -22.5l29 -1022q0 -13 -9.5 -23t-23.5 -10h-299q-13 0 -23 10t-10 23zM115 815v213q0 14 8.5 22.5t21.5 8.5h273q14 0 22.5 -8.5t8.5 -22.5v-213q0 -13 -8.5 -22t-22.5 -9h-273q-13 0 -21.5 8.5t-8.5 22.5z " />
<glyph unicode="&#xa2;" horiz-adv-x="1318" d="M102 539v6q0 217 153 379.5t392 191.5v129q0 13 8.5 22t22.5 9h121q13 0 21.5 -8.5t8.5 -22.5v-127q224 -19 371 -160q10 -9 9.5 -22.5t-9.5 -22.5l-166 -163q-19 -19 -43 -2q-67 61 -162 86v-582q102 22 181 86q22 18 39 -2l157 -143q10 -9 10 -23t-10 -25 q-165 -152 -377 -174v-129q0 -14 -8.5 -22t-21.5 -8h-121q-14 0 -22.5 8.5t-8.5 21.5v129q-237 29 -391 190t-154 378zM430.5 546.5q-1.5 -68.5 19.5 -128.5t72.5 -107t124.5 -63v594q-66 -15 -115.5 -61t-74.5 -106t-26.5 -128.5z" />
<glyph unicode="&#xa3;" horiz-adv-x="1253" d="M102 575v216q0 13 8.5 21.5t22.5 8.5l135 2q-17 106 -16.5 200.5t31 173t83 135.5t141 88.5t204.5 31.5q77 0 145 -26t111 -61.5t78.5 -81t51.5 -76.5t25 -56q7 -13 -10 -23l-156 -92q-12 -8 -25 -4t-20 17q-78 133 -206 116q-212 -24 -150 -301l10 -43h299 q14 0 22.5 -8.5t8.5 -21.5v-216q0 -13 -8.5 -21.5t-22.5 -8.5h-295v-266h551q14 0 22.5 -8.5t8.5 -22.5v-217q0 -13 -8.5 -22t-22.5 -9h-979q-13 0 -21.5 8.5t-8.5 22.5v217q0 14 8.5 22.5t21.5 8.5h127v266h-135q-14 0 -22.5 8.5t-8.5 21.5z" />
<glyph unicode="&#xa4;" horiz-adv-x="1001" d="M102 1421q-1 13 8 23t23 10h125q26 0 29 -27q12 -63 70 -104t137 -41t136.5 41t69.5 104q3 27 29 27h135q14 0 23 -10t8 -23q-10 -86 -69.5 -155.5t-151.5 -108.5q77 -45 122.5 -123.5t45.5 -171.5q0 -101 -54 -185t-143 -126q104 -33 174 -107t80 -168q1 -13 -8 -22.5 t-23 -9.5h-135q-25 0 -28 26q-12 63 -70 104.5t-137 41.5t-137 -41.5t-70 -104.5q-3 -26 -29 -26h-125q-14 0 -23 9.5t-8 22.5q10 93 78 166.5t170 106.5q-91 42 -145.5 126t-54.5 187q0 93 45.5 171.5t122.5 125.5q-91 37 -150.5 107t-69.5 155zM315 862q0 -75 53 -127.5 t128 -52.5t127.5 52.5t52.5 127.5t-52.5 127.5t-127.5 52.5t-128 -52.5t-53 -127.5z" />
<glyph unicode="&#xa5;" horiz-adv-x="1601" d="M64 1413.5q10 22.5 38 22.5h297q10 0 21 -11l383 -487l383 487q11 11 20 11h291q29 0 39.5 -22.5t-6.5 -45.5l-572 -715v-86h271q14 0 22.5 -8.5t8.5 -21.5v-72q0 -13 -9 -22t-22 -9h-271v-117h271q14 0 22.5 -8.5t8.5 -21.5v-72q0 -13 -9 -22t-22 -9h-271v-153 q0 -14 -8.5 -22.5t-21.5 -8.5h-258q-14 0 -22.5 9t-8.5 22v153h-268q-13 0 -22 9t-9 22v72q0 13 8.5 21.5t22.5 8.5h268v117h-268q-13 0 -22 9t-9 22v72q0 13 8.5 21.5t22.5 8.5h268v95l-567 706q-18 23 -8 45.5z" />
<glyph unicode="&#xa6;" horiz-adv-x="454" d="M102 -279v594q0 13 9 22t22 9h189q13 0 21.5 -8.5t8.5 -22.5v-594q0 -13 -8 -21.5t-22 -8.5h-189q-14 0 -22.5 8.5t-8.5 21.5zM102 643v594q0 13 9 22t22 9h189q13 0 21.5 -8.5t8.5 -22.5v-594q0 -14 -8.5 -22.5t-21.5 -8.5h-189q-13 0 -22 9t-9 22z" />
<glyph unicode="&#xa7;" horiz-adv-x="1486" d="M155 -211.5q-3 13.5 5 23.5l116 186q17 23 43 10q81 -44 125 -66.5t105.5 -48.5t115 -36.5t109.5 -10.5q100 0 151.5 27t51.5 72v2q0 19 -14.5 37t-44 34t-62.5 29.5t-81.5 27.5t-88 23.5t-94.5 22.5q-78 17 -136.5 36t-114.5 50t-91 70t-56.5 96t-21.5 129v8 q0 195 139 301q-139 92 -139 276v9q0 194 138.5 299.5t398.5 105.5q149 0 267 -30t253 -95q14 -6 17.5 -18.5t-3.5 -26.5l-117 -203q-15 -22 -39 -12q-125 55 -213.5 80t-175.5 25q-86 0 -132 -24t-46 -64v-3q0 -25 23 -45.5t79.5 -39.5t98.5 -30t130 -32q11 -3 17 -4 q59 -15 102.5 -28.5t95 -33t88 -40t72.5 -49t58 -61t35.5 -75.5t13.5 -92v-4q0 -206 -159 -315q159 -98 159 -267v-4q0 -209 -158 -314.5t-446 -105.5q-162 0 -275 38.5t-284 140.5q-12 6 -15 19.5zM520 543q-3 -24 21.5 -44t74.5 -38q82 -27 164 -45q91 -22 144 19.5 t53 94.5v2q5 58 -90 97q-74 27 -189 51q-78 18 -128 -32.5t-50 -100.5v-4z" />
<glyph unicode="&#xa8;" horiz-adv-x="1048" d="M102 1153v231q0 14 9 22.5t22 8.5h281q13 0 21.5 -8.5t8.5 -22.5v-231q0 -14 -8.5 -22.5t-21.5 -8.5h-281q-13 0 -22 9t-9 22zM604 1153v231q0 14 9 22.5t22 8.5h280q13 0 22 -8.5t9 -22.5v-231q0 -13 -9 -22t-22 -9h-280q-13 0 -22 9t-9 22z" />
<glyph unicode="&#xa9;" horiz-adv-x="974" d="M102 1075q0 160 112.5 272.5t272.5 112.5t272.5 -112.5t112.5 -272.5t-112.5 -272.5t-272.5 -112.5t-272.5 112.5t-112.5 272.5zM221 1075q0 -109 76.5 -185.5t185.5 -76.5t185.5 76.5t76.5 185.5t-76.5 185.5t-185.5 76.5t-185.5 -76.5t-76.5 -185.5zM283 1063v2 q0 83 59 141t150 58q85 0 135 -41q11 -9 11 -22.5t-11 -22.5l-25 -27q-19 -19 -43 -2q-30 20 -70 20q-41 0 -67.5 -30.5t-26.5 -73.5q0 -44 27.5 -73t73.5 -29q39 0 69 24q21 14 41 -2l23 -22q11 -9 11 -22.5t-11 -22.5q-58 -48 -140 -48q-88 0 -147 57t-59 136z" />
<glyph unicode="&#xaa;" horiz-adv-x="792" d="M102 715v41q0 13 8.5 21.5t22.5 8.5h526q14 0 22.5 -8.5t8.5 -21.5v-41q0 -13 -9 -22t-22 -9h-526q-13 0 -22 9t-9 22zM106 1018v4q0 76 68 114t186 38q62 0 152 -21v10q0 80 -133 80q-94 0 -150 -16q-25 -4 -34 18l-19 43q-6 14 -3.5 25t11.5 14q82 31 219 31 q147 0 211 -49q70 -55 70 -150v-246q0 -13 -8.5 -21.5t-22.5 -8.5h-110q-14 0 -22.5 8.5t-8.5 21.5v25q-67 -61 -188 -61q-93 0 -155.5 38t-62.5 103zM281 1022q0 -23 26.5 -37t71.5 -14q60 0 98.5 22.5t38.5 57.5v26q-3 1 -30.5 6.5t-47 8t-41.5 2.5q-54 0 -85 -17t-31 -49 v-6z" />
<glyph unicode="&#xab;" horiz-adv-x="1234" d="M102 612q0 6 7 13l319 397q12 16 35 8l139 -59q15 -7 19 -21t-5 -28l-202 -304l207 -368q7 -12 3 -25.5t-18 -19.5l-141 -62q-22 -10 -37 9l-322 446q-4 8 -4 14zM610 612q0 7 6 13l320 403q12 16 35 8l139 -59q15 -8 19 -21.5t-5 -27.5l-204 -310l208 -374 q8 -12 3.5 -25.5t-17.5 -19.5l-141 -62q-24 -10 -37 10l-322 451q-4 8 -4 14z" />
<glyph unicode="&#xac;" horiz-adv-x="1476" d="M102 645v260q0 13 9 22t22 9h1210q13 0 22 -9t9 -22v-620q0 -13 -9 -22t-22 -9h-202q-13 0 -22 9t-9 22v329h-977q-13 0 -22 9t-9 22z" />
<glyph unicode="&#xad;" horiz-adv-x="1316" d="M102 616v240q0 14 9 22.5t22 8.5h1051q13 0 21.5 -8.5t8.5 -22.5l-2 -240q0 -14 -8 -22t-22 -8h-1049q-14 0 -22.5 8.5t-8.5 21.5z" />
<glyph unicode="&#xae;" horiz-adv-x="974" d="M102 1075q0 160 112.5 272.5t272.5 112.5t272.5 -112.5t112.5 -272.5t-112.5 -272.5t-272.5 -112.5t-272.5 112.5t-112.5 272.5zM221 1075q0 -109 76.5 -185.5t185.5 -76.5t185.5 76.5t76.5 185.5t-76.5 185.5t-185.5 76.5t-185.5 -76.5t-76.5 -185.5zM338 936v283 q0 13 8.5 21.5t22.5 8.5h133q61 0 98 -32q43 -25 43 -82q0 -43 -20 -72q-12 -14 -50 -37l39 -59q15 -22 4.5 -42t-36.5 -20h-25q-13 0 -23 13l-57 92h-39v-74q0 -14 -8.5 -22.5t-21.5 -8.5h-37q-13 0 -22 8.5t-9 22.5zM436 1085h60q49 0 49 39q0 43 -49 43h-60v-82z" />
<glyph unicode="&#xaf;" horiz-adv-x="1099" d="M102 1391v75q0 14 9 22.5t22 8.5h834q13 0 21.5 -8.5t8.5 -22.5v-75q0 -14 -8.5 -22.5t-21.5 -8.5h-834q-13 0 -22 9t-9 22z" />
<glyph unicode="&#xb0;" horiz-adv-x="892" d="M102 1065q0 143 101 243.5t243 100.5q143 0 244 -101t101 -243t-101 -243t-244 -101q-142 0 -243 100.5t-101 243.5zM262 1065q0 -75 52.5 -127.5t127.5 -52.5t128 52.5t53 127.5t-53 127.5t-128 52.5t-127.5 -52.5t-52.5 -127.5z" />
<glyph unicode="&#xb1;" horiz-adv-x="1046" d="M102 127v176q0 13 9 22t22 9h774q13 0 22 -9t9 -22v-176q0 -13 -9 -22t-22 -9h-774q-13 0 -22 9t-9 22zM109 885v176q0 14 8.5 22.5t21.5 8.5h269v256q0 14 8 22t22 8h176q14 0 22.5 -8.5t8.5 -21.5v-256h268q13 0 22 -9t9 -22v-176q0 -13 -9 -22t-22 -9h-268v-254 q0 -14 -8.5 -22.5t-22.5 -8.5h-176q-13 0 -21.5 8.5t-8.5 22.5v254h-269q-13 0 -21.5 8.5t-8.5 22.5z" />
<glyph unicode="&#xb2;" horiz-adv-x="659" d="M102 1081q0 45 15.5 80t37.5 55t49.5 33t48 17t36.5 4h88q67 0 122 -48.5t58 -119.5v-35q0 -44 -35 -91.5t-76 -80.5l-122 -92h202q14 0 22.5 -8.5t8.5 -22.5v-53q0 -13 -8.5 -22t-22.5 -9h-376q-14 0 -22.5 9t-8.5 22v72q0 10 10 20l238 182q18 14 26.5 22.5t18.5 27 t10 40.5q0 28 -12 45t-24 20l-13 3h-82q-42 0 -51 -47q-2 -12 -10.5 -20.5t-20.5 -8.5h-76q-31 0 -31 6z" />
<glyph unicode="&#xb3;" horiz-adv-x="690" d="M102 834q0 12 9 20t22 8h82q13 0 22 -9t9 -22q0 -18 13 -28t25 -11l13 -1h88q64 0 55 100q0 18 -15 28.5t-29 11.5l-15 1h-33q-14 0 -22.5 9t-8.5 22v49q0 13 8.5 21.5t22.5 8.5h37q27 0 41 18.5t16 49.5q-1 23 -13.5 35.5t-24.5 14.5l-13 1h-86q-46 0 -55 -43 q-6 -26 -31 -26h-86q-31 0 -31 12q0 42 12 74t28.5 49.5t38 28.5t37.5 14.5t30 3.5h168q77 0 124.5 -51t47.5 -131q0 -64 -47 -105q47 -33 47 -108v-5q0 -56 -14 -96t-39 -60t-52 -29t-59 -9h-170q-66 0 -106 41t-46 113z" />
<glyph unicode="&#xb4;" horiz-adv-x="503" d="M104 1192l64 291q3 22 29 22h170q20 0 29 -14t3 -33l-106 -305q-3 -10 -12.5 -16t-20.5 -4l-131 20q-14 3 -21 14.5t-4 24.5z" />
<glyph unicode="&#xb6;" horiz-adv-x="1705" d="M102 944q0 72 16 137.5t58.5 131.5t108.5 114t175 78t249 29h864q13 0 22 -9t9 -22v-57q0 -14 -9 -22.5t-22 -8.5h-174v-1618q0 -13 -8.5 -22t-22.5 -9h-65q-13 0 -22 9t-9 22v1618h-137v-1616q0 -13 -8.5 -22t-22.5 -9h-98q-14 0 -22.5 9t-8.5 22v731h-113 q-178 0 -313.5 28t-219 74.5t-136 114.5t-72 139.5t-19.5 157.5z" />
<glyph unicode="&#xb7;" horiz-adv-x="655" d="M102 684q0 94 66 159.5t160 65.5t159.5 -65.5t65.5 -159.5t-65.5 -159.5t-159.5 -65.5t-160 65.5t-66 159.5z" />
<glyph unicode="&#xb8;" horiz-adv-x="520" d="M106 -362l166 448q6 18 27 18h88q14 0 23 -10.5t8 -23.5l-43 -453q0 -12 -9.5 -19.5t-21.5 -7.5h-205q-20 0 -30 14.5t-3 33.5z" />
<glyph unicode="&#xb9;" horiz-adv-x="376" d="M102 1157v98q0 13 13 13h254q12 0 12 -13v-546q0 -13 -12 -13h-121q-12 0 -12 13v436h-121q-13 0 -13 12z" />
<glyph unicode="&#xba;" horiz-adv-x="892" d="M102 1065q0 143 101 243.5t243 100.5q143 0 244 -101t101 -243t-101 -243t-244 -101q-142 0 -243 100.5t-101 243.5zM262 1065q0 -75 52.5 -127.5t127.5 -52.5t128 52.5t53 127.5t-53 127.5t-128 52.5t-127.5 -52.5t-52.5 -127.5z" />
<glyph unicode="&#xbb;" horiz-adv-x="1234" d="M103 218.5q-5 13.5 3 25.5l209 374l-204 310q-9 14 -5 27.5t19 21.5l139 59q23 8 35 -8l319 -403q7 -7 7 -15q0 -4 -4 -12l-322 -451q-13 -20 -37 -10l-141 62q-13 6 -18 19.5zM611 224.5q-5 13.5 3 25.5l207 368l-203 304q-9 14 -4.5 27.5t19.5 21.5l139 59q23 8 35 -8 l319 -397q7 -7 7 -15q0 -2 -5 -12l-321 -446q-15 -19 -37 -9l-141 62q-13 6 -18 19.5z" />
<glyph unicode="&#xbc;" horiz-adv-x="1378" d="M102 1155v100q0 13 13 13h258q12 0 12 -13v-553q0 -12 -12 -12h-123q-12 0 -12 12v441h-123q-5 0 -9 4t-4 8zM158 16.5q-10 18.5 2 38.5l381 652l313 546q9 15 25 15h194q26 0 36.5 -19t-1.5 -41l-326 -534l-368 -662q-8 -14 -25 -14h-196q-25 0 -35 18.5zM770 195v129 q0 8 8 20l281 240q6 6 16 6h109q13 0 21.5 -8.5t8.5 -22.5v-287h31q14 0 22.5 -8.5t8.5 -21.5v-47q0 -13 -9 -22t-22 -9h-31v-135q0 -14 -8.5 -22.5t-21.5 -8.5h-88q-14 0 -22.5 9t-8.5 22v135h-264q-13 0 -22 9t-9 22zM920 272h145v156l-145 -129v-27z" />
<glyph unicode="&#xbd;" horiz-adv-x="1366" d="M102 1155v100q0 13 13 13h258q12 0 12 -13v-553q0 -12 -12 -12h-123q-12 0 -12 12v441h-123q-5 0 -9 4t-4 8zM158 16.5q-10 18.5 2 38.5l381 652l313 546q9 15 25 15h194q26 0 36.5 -19t-1.5 -41l-326 -534l-368 -662q-8 -14 -25 -14h-196q-25 0 -35 18.5zM809 397 q0 45 15.5 80t37.5 55t49 33t47.5 17t36.5 4h88q67 0 122.5 -48.5t58.5 -119.5v-35q0 -44 -35 -91.5t-76 -80.5l-123 -92h203q13 0 22 -8.5t9 -22.5v-53q0 -13 -9 -22t-22 -9h-377q-14 0 -22.5 9t-8.5 22v71q0 10 11 21l237 182q18 14 26.5 22.5t18.5 27t10 40.5 q0 28 -12 45t-24 20l-13 3h-82q-42 0 -51 -47q-2 -12 -10.5 -20.5t-20.5 -8.5h-75q-31 0 -31 6z" />
<glyph unicode="&#xbe;" horiz-adv-x="1501" d="M102 834q0 12 9 20t22 8h82q13 0 22 -9t9 -22q0 -18 13 -28t25 -11l13 -1h88q64 0 55 100q0 18 -15 28.5t-29 11.5l-15 1h-33q-14 0 -22.5 9t-8.5 22v49q0 13 8.5 21.5t22.5 8.5h37q27 0 41 18.5t16 49.5q-1 23 -13.5 35.5t-24.5 14.5l-13 1h-86q-46 0 -55 -43 q-6 -26 -31 -26h-86q-31 0 -31 12q0 42 12 74t28.5 49.5t38 28.5t37.5 14.5t30 3.5h168q77 0 124.5 -51t47.5 -131q0 -64 -47 -105q47 -33 47 -108v-5q0 -56 -14 -96t-39 -60t-52 -29t-59 -9h-170q-66 0 -106 41t-46 113zM281 16.5q-10 18.5 2 38.5l381 652l313 546 q9 15 24 15h195q26 0 36.5 -19t-1.5 -41l-326 -534l-368 -662q-8 -14 -25 -14h-197q-24 0 -34 18.5zM893 195v129q0 8 8 20l281 240q6 6 16 6h109q13 0 21.5 -8.5t8.5 -22.5v-287h31q14 0 22.5 -8.5t8.5 -21.5v-47q0 -13 -8.5 -22t-22.5 -9h-31v-135q0 -14 -8.5 -22.5 t-21.5 -8.5h-88q-13 0 -22 9t-9 22v135h-264q-14 0 -22.5 9t-8.5 22zM1042 272h146v156l-146 -129v-27z" />
<glyph unicode="&#xbf;" horiz-adv-x="1142" d="M102 -14q0 130 43.5 226t135.5 171q76 62 105.5 96t41.5 66q10 50 12 92q0 13 9 22t22 9h221q14 0 23 -10t8 -23q-6 -105 -33.5 -185.5t-103.5 -142.5q-62 -49 -102 -95t-54.5 -85.5t-18 -60.5t-3.5 -50q0 -56 45.5 -102.5t109.5 -46.5q94 0 137.5 42t49.5 120 q0 25 26 28l230 19q12 1 21 -7t11 -22q12 -135 -45 -239t-168.5 -160t-259.5 -56q-94 0 -176.5 24.5t-147 71.5t-102 124t-37.5 174zM410 850v213q0 14 8.5 22.5t21.5 8.5h273q13 0 21.5 -8.5t8.5 -22.5v-213q0 -14 -8.5 -22.5t-21.5 -8.5h-273q-13 0 -21.5 8.5t-8.5 22.5z " />
<glyph unicode="&#xc0;" horiz-adv-x="1597" d="M63 49l572 1376q10 17 27 17h274q17 0 27 -17l571 -1376q8 -19 -2.5 -34t-32.5 -15h-239q-17 0 -27 16l-133 312h-604l-134 -312q-10 -16 -26 -16h-238q-22 0 -32.5 15t-2.5 34zM618 606h373l-196 457zM633 1958q-6 19 3.5 33t29.5 14h170q25 0 28 -23l64 -290 q3 -13 -4 -24.5t-21 -14.5l-131 -21q-10 -1 -20 4.5t-13 14.5z" />
<glyph unicode="&#xc1;" horiz-adv-x="1597" d="M63 49l572 1376q10 17 27 17h274q17 0 27 -17l571 -1376q8 -19 -2.5 -34t-32.5 -15h-239q-17 0 -27 16l-133 312h-604l-134 -312q-10 -16 -26 -16h-238q-22 0 -32.5 15t-2.5 34zM618 606h373l-196 457zM721 1696l63 291q3 22 29 22h170q19 0 29 -14t4 -33l-107 -305 q-3 -10 -12 -16.5t-20 -4.5l-132 21q-13 3 -20 14t-4 25z" />
<glyph unicode="&#xc2;" horiz-adv-x="1597" d="M63 49l572 1376q10 17 27 17h274q17 0 27 -17l571 -1376q8 -19 -2.5 -34t-32.5 -15h-239q-17 0 -27 16l-133 312h-604l-134 -312q-10 -16 -26 -16h-238q-22 0 -32.5 15t-2.5 34zM618 606h373l-196 457zM700 1714v131q0 13 9 22t22 9h90q19 0 29.5 -13t5.5 -30l-39 -152 q-4 -17 -20 -23t-31 3l-51 29q-15 9 -15 24z" />
<glyph unicode="&#xc3;" horiz-adv-x="1597" d="M63 49l572 1376q10 17 27 17h274q17 0 27 -17l571 -1376q8 -19 -2.5 -34t-32.5 -15h-239q-17 0 -27 16l-133 312h-604l-134 -312q-10 -16 -26 -16h-238q-22 0 -32.5 15t-2.5 34zM236 1761q51 121 126.5 182.5t200.5 61.5q89 0 264 -45q112 -33 162 -33q56 0 89 19.5 t61 62.5q10 17 30 14l164 -38q15 -3 22.5 -16t2.5 -27q-49 -124 -124.5 -187t-203.5 -63q-109 0 -266 49q-16 4 -45.5 11.5t-44.5 11t-35.5 7t-36.5 3.5q-54 0 -86.5 -19.5t-60.5 -62.5q-9 -19 -31 -15l-166 39q-15 3 -21.5 16.5t-0.5 28.5zM618 606h373l-196 457z" />
<glyph unicode="&#xc4;" horiz-adv-x="1597" d="M63 49l572 1376q10 17 27 17h274q17 0 27 -17l571 -1376q8 -19 -2.5 -34t-32.5 -15h-239q-17 0 -27 16l-133 312h-604l-134 -312q-10 -16 -26 -16h-238q-22 0 -32.5 15t-2.5 34zM397 1743v231q0 14 8.5 22.5t22.5 8.5h281q13 0 21.5 -8.5t8.5 -22.5v-231 q0 -14 -8.5 -22.5t-21.5 -8.5h-281q-14 0 -22.5 9t-8.5 22zM618 606h373l-196 457zM899 1743v231q0 14 8.5 22.5t22.5 8.5h280q14 0 22.5 -8.5t8.5 -22.5v-231q0 -13 -8.5 -22t-22.5 -9h-280q-14 0 -22.5 9t-8.5 22z" />
<glyph unicode="&#xc5;" horiz-adv-x="1597" d="M63 47l547 1313q-72 46 -113.5 122.5t-41.5 166.5q0 143 100.5 243.5t243.5 100.5t243.5 -100.5t100.5 -243.5q0 -89 -43 -165.5t-115 -123.5l549 -1311q8 -20 -2.5 -35.5t-32.5 -15.5h-239q-17 0 -27 16l-133 314h-604l-134 -314q-10 -16 -26 -16h-238q-22 0 -32.5 15 t-2.5 34zM614 1649q0 -75 53 -128t128 -53t127.5 53t52.5 128t-52.5 127.5t-127.5 52.5t-128 -52.5t-53 -127.5zM618 606h373l-196 457z" />
<glyph unicode="&#xc6;" horiz-adv-x="2646" d="M63 49l570 1368q10 17 26 17h275q17 0 27 -17l358 -860v846q0 13 8.5 22t22.5 9h1179q13 0 22 -9t9 -22v-227q0 -14 -9 -22.5t-22 -8.5h-850v-305h746q13 0 22 -9t9 -22v-223q0 -14 -9 -22.5t-22 -8.5h-746v-266h854q13 0 22 -8.5t9 -22.5v-227q0 -13 -9 -22t-22 -9 h-1273q-17 0 -27 16l-135 314h-602l-134 -314q-10 -16 -26 -16h-238q-22 0 -32.5 15t-2.5 34zM616 606h373l-194 457z" />
<glyph unicode="&#xc7;" horiz-adv-x="1671" d="M123 713q0 144 48 276t137 235.5t227.5 165.5t306.5 62q157 0 287.5 -45t217.5 -121t141 -167.5t73 -192.5q3 -15 -6.5 -26t-26.5 -11h-258q-17 0 -27 16q-10 22 -25 46.5t-49 59.5t-75.5 61.5t-108 45.5t-143.5 19q-113 0 -206 -64t-143.5 -168.5t-50.5 -226.5 q0 -110 45.5 -203.5t138.5 -154t216 -60.5q70 0 129 14t99 35.5t71.5 52t50 59.5t31.5 62.5t18 56t8 44.5q2 12 10.5 20t20.5 8h258q14 0 23 -9.5t8 -22.5q-2 -34 -8 -71t-25 -96t-47 -111.5t-79.5 -110t-117.5 -100t-166.5 -73t-220.5 -36.5l-31 -336q-2 -12 -10 -20.5 t-20 -8.5h-199q-20 0 -30 14.5t-3 34.5l121 324q-280 44 -445 238.5t-165 484.5z" />
<glyph unicode="&#xc8;" horiz-adv-x="1681" d="M164 31v1372q0 13 9 22t22 9h1370q13 0 21.5 -8.5t8.5 -22.5v-227q0 -14 -8.5 -22.5t-21.5 -8.5h-1041v-279h1006q14 0 22.5 -8.5t8.5 -21.5v-236q0 -14 -8.5 -22.5t-22.5 -8.5h-1006v-280h1045q13 0 21.5 -8.5t8.5 -22.5v-227q0 -14 -8.5 -22.5t-21.5 -8.5h-1374 q-13 0 -22 9t-9 22zM715 1962q-6 19 3.5 33t29.5 14h170q25 0 28 -22l64 -291q3 -13 -4 -24.5t-21 -14.5l-131 -21q-10 -1 -20 4.5t-13 14.5z" />
<glyph unicode="&#xc9;" horiz-adv-x="1681" d="M164 31v1372q0 13 9 22t22 9h1370q13 0 21.5 -8.5t8.5 -22.5v-227q0 -14 -8.5 -22.5t-21.5 -8.5h-1041v-279h1006q14 0 22.5 -8.5t8.5 -21.5v-236q0 -14 -8.5 -22.5t-22.5 -8.5h-1006v-280h1045q13 0 21.5 -8.5t8.5 -22.5v-227q0 -14 -8.5 -22.5t-21.5 -8.5h-1374 q-13 0 -22 9t-9 22zM668 1696l63 291q3 22 29 22h170q19 0 29 -14t4 -33l-107 -305q-3 -10 -12.5 -16.5t-20.5 -4.5l-131 21q-13 3 -20 14t-4 25z" />
<glyph unicode="&#xca;" horiz-adv-x="1681" d="M164 31v1372q0 13 9 22t22 9h1370q13 0 21.5 -8.5t8.5 -22.5v-227q0 -14 -8.5 -22.5t-21.5 -8.5h-1041v-279h1006q14 0 22.5 -8.5t8.5 -21.5v-236q0 -14 -8.5 -22.5t-22.5 -8.5h-1006v-280h1045q13 0 21.5 -8.5t8.5 -22.5v-227q0 -14 -8.5 -22.5t-21.5 -8.5h-1374 q-13 0 -22 9t-9 22zM465.5 1529q-13.5 23 5.5 48l317 418q10 10 21 10h141q11 0 21 -10l325 -416q20 -25 6.5 -49t-45.5 -21l-157 15q-13 3 -19 12l-204 291l-191 -291q-6 -9 -18 -12l-158 -15q-31 -3 -44.5 20z" />
<glyph unicode="&#xcb;" horiz-adv-x="1681" d="M164 31v1372q0 13 9 22t22 9h1370q13 0 21.5 -8.5t8.5 -22.5v-227q0 -14 -8.5 -22.5t-21.5 -8.5h-1041v-279h1006q14 0 22.5 -8.5t8.5 -21.5v-236q0 -14 -8.5 -22.5t-22.5 -8.5h-1006v-280h1045q13 0 21.5 -8.5t8.5 -22.5v-227q0 -14 -8.5 -22.5t-21.5 -8.5h-1374 q-13 0 -22 9t-9 22zM424 1745v231q0 14 9 22.5t22 8.5h280q13 0 22 -8.5t9 -22.5v-231q0 -13 -9 -22t-22 -9h-280q-13 0 -22 9t-9 22zM926 1745v231q0 14 8.5 22.5t21.5 8.5h281q13 0 22 -8.5t9 -22.5v-231q0 -13 -9 -22t-22 -9h-281q-13 0 -21.5 8.5t-8.5 22.5z" />
<glyph unicode="&#xcc;" horiz-adv-x="706" d="M166 1962q-6 19 3.5 33t29.5 14h170q25 0 28 -22l64 -291q3 -13 -4 -24.5t-21 -14.5l-131 -21q-10 -1 -20 4.5t-13 14.5zM180 31v1372q0 13 9 22t22 9h301q14 0 22.5 -9t8.5 -22v-1372q0 -13 -8.5 -22t-22.5 -9h-301q-13 0 -22 9t-9 22z" />
<glyph unicode="&#xcd;" horiz-adv-x="690" d="M164 31v1372q0 13 9 22t22 9h301q13 0 21.5 -8.5t8.5 -22.5v-1372q0 -14 -8.5 -22.5t-21.5 -8.5h-301q-13 0 -22 9t-9 22zM209 1696l63 291q3 22 29 22h170q19 0 29 -14t4 -33l-107 -305q-3 -10 -12 -16.5t-20 -4.5l-132 21q-13 3 -20 14t-4 25z" />
<glyph unicode="&#xce;" horiz-adv-x="1175" d="M168.5 1529q-13.5 23 5.5 48l318 418q10 10 20 10h141q11 0 21 -10l325 -416q20 -25 7 -49t-45 -21l-158 15q-13 3 -19 12l-204 291l-191 -291q-6 -9 -18 -12l-158 -15q-31 -3 -44.5 20zM410 31v1372q0 14 8.5 22.5t21.5 8.5h301q13 0 22 -9t9 -22v-1372q0 -13 -9 -22 t-22 -9h-301q-13 0 -21.5 8.5t-8.5 22.5z" />
<glyph unicode="&#xcf;" horiz-adv-x="1173" d="M164 1745v231q0 14 9 22.5t22 8.5h282q13 0 22 -8.5t9 -22.5v-231q0 -13 -9 -22t-22 -9h-282q-13 0 -22 9t-9 22zM420 31v1372q0 13 9 22t22 9h301q13 0 21.5 -8.5t8.5 -22.5v-1372q0 -14 -8.5 -22.5t-21.5 -8.5h-301q-13 0 -22 9t-9 22zM668 1745v231q0 14 8.5 22.5 t21.5 8.5h281q13 0 22 -8.5t9 -22.5v-231q0 -13 -9 -22t-22 -9h-281q-13 0 -21.5 8.5t-8.5 22.5z" />
<glyph unicode="&#xd0;" horiz-adv-x="1982" d="M164 598v236q0 13 8.5 21.5t22.5 8.5h120v539q0 13 8.5 22t22.5 9h647q129 0 236.5 -11.5t190 -31.5t147.5 -52.5t111 -68.5t79 -86t53 -98.5t31 -112.5t15 -121t4 -131v-6q0 -73 -4 -131t-16 -121.5t-32 -112.5t-54 -99t-80 -87t-111.5 -70t-147 -53t-188.5 -31.5 t-234 -11.5l-647 2q-14 0 -22.5 9t-8.5 22v536h-120q-13 0 -22 8.5t-9 22.5zM678 287l280 -2q89 0 161.5 7t126.5 17t95 31t68.5 38.5t46 51.5t28.5 58t14.5 69.5t5.5 74t1 83.5v8q0 50 -0.5 74t-3.5 66t-10.5 63t-20.5 54.5t-33.5 50t-49.5 39.5t-69.5 34t-92.5 22.5 t-119 16t-148 4.5l-280 2v-285h237q14 0 22.5 -8.5t8.5 -21.5l-2 -236q0 -14 -9 -22.5t-22 -8.5h-235v-280z" />
<glyph unicode="&#xd1;" horiz-adv-x="1736" d="M164 31v1372q0 13 9 22t22 9h297q9 0 20 -11l696 -872v852q0 13 9 22t22 9h303q14 0 22.5 -9t8.5 -22v-1372q0 -13 -8.5 -22t-22.5 -9h-260q-10 0 -20 10l-738 910v-889q0 -14 -8.5 -22.5t-21.5 -8.5h-299q-13 0 -22 9t-9 22zM295 1765q51 121 127 182.5t201 61.5 q88 0 264 -45q112 -33 162 -33q56 0 88.5 19t60.5 63q11 18 31 15l164 -39q15 -3 22 -16t2 -27q-49 -124 -124 -187t-203 -63q-110 0 -267 49q-16 4 -45 11.5t-44.5 11.5t-35.5 7t-36 3q-54 0 -87 -19.5t-61 -62.5q-9 -19 -31 -15l-166 39q-15 3 -21.5 16.5t-0.5 28.5z" />
<glyph unicode="&#xd2;" horiz-adv-x="1746" d="M123 725q0 135 54.5 265.5t150 233t237 165.5t303.5 63q154 0 295.5 -62.5t241.5 -164t159.5 -233.5t59.5 -267q0 -221 -96.5 -391t-268 -262t-391.5 -92q-149 0 -284 52t-237.5 146t-163 236t-60.5 311zM449 735q0 -186 120 -313t291 -127q119 -2 222 57.5t162 158.5 t59 210q0 180 -122.5 305t-312.5 125q-166 0 -292.5 -126.5t-126.5 -289.5zM698 1962q-6 19 3.5 33t29.5 14h170q26 0 29 -22l63 -291q3 -14 -4 -25t-20 -14l-131 -21q-10 -1 -20 4.5t-13 14.5z" />
<glyph unicode="&#xd3;" horiz-adv-x="1746" d="M123 725q0 135 54.5 265.5t150 233t237 165.5t303.5 63q154 0 295.5 -62.5t241.5 -164t159.5 -233.5t59.5 -267q0 -221 -96.5 -391t-268 -262t-391.5 -92q-149 0 -284 52t-237.5 146t-163 236t-60.5 311zM449 735q0 -186 120 -313t291 -127q119 -2 222 57.5t162 158.5 t59 210q0 180 -122.5 305t-312.5 125q-166 0 -292.5 -126.5t-126.5 -289.5zM758 1696l63 291q3 22 29 22h170q19 0 29 -14t4 -33l-107 -305q-3 -10 -12.5 -16.5t-20.5 -4.5l-131 21q-13 3 -20 14t-4 25z" />
<glyph unicode="&#xd4;" horiz-adv-x="1746" d="M123 725q0 135 54.5 265.5t150 233t237 165.5t303.5 63q154 0 295.5 -62.5t241.5 -164t159.5 -233.5t59.5 -267q0 -221 -96.5 -391t-268 -262t-391.5 -92q-149 0 -284 52t-237.5 146t-163 236t-60.5 311zM398 1538q-10 22 8 45l323 414q10 10 21 10h245q11 0 21 -10 l327 -414q19 -23 8 -45t-40 -22h-191q-8 0 -20 8l-230 270l-229 -270q-12 -8 -20 -8h-185q-28 0 -38 22zM449 735q0 -186 120 -313t291 -127q119 -2 222 57.5t162 158.5t59 210q0 180 -122.5 305t-312.5 125q-166 0 -292.5 -126.5t-126.5 -289.5z" />
<glyph unicode="&#xd5;" horiz-adv-x="1746" d="M123 725q0 135 54.5 265.5t150 233t237 165.5t303.5 63q154 0 295.5 -62.5t241.5 -164t159.5 -233.5t59.5 -267q0 -221 -96.5 -391t-268 -262t-391.5 -92q-149 0 -284 52t-237.5 146t-163 236t-60.5 311zM309 1763q51 121 127 182.5t201 61.5q88 0 264 -45 q112 -33 162 -33q56 0 88.5 19t60.5 63q10 17 31 14l164 -38q15 -3 22.5 -16t2.5 -27q-49 -124 -124.5 -187t-203.5 -63q-109 0 -266 49q-16 4 -45.5 11.5t-44.5 11t-35.5 7t-36.5 3.5q-54 0 -87 -19.5t-61 -62.5q-9 -18 -30 -15l-166 39q-15 3 -22 16.5t-1 28.5zM449 735 q0 -186 120 -313t291 -127q119 -2 222 57.5t162 158.5t59 210q0 180 -122.5 305t-312.5 125q-166 0 -292.5 -126.5t-126.5 -289.5z" />
<glyph unicode="&#xd6;" horiz-adv-x="1746" d="M123 725q0 135 54.5 265.5t150 233t237 165.5t303.5 63q154 0 295.5 -62.5t241.5 -164t159.5 -233.5t59.5 -267q0 -221 -96.5 -391t-268 -262t-391.5 -92q-149 0 -284 52t-237.5 146t-163 236t-60.5 311zM420 1745v231q0 14 9 22.5t22 8.5h280q13 0 22 -8.5t9 -22.5v-231 q0 -13 -9 -22t-22 -9h-280q-13 0 -22 9t-9 22zM449 735q0 -186 120 -313t291 -127q119 -2 222 57.5t162 158.5t59 210q0 180 -122.5 305t-312.5 125q-166 0 -292.5 -126.5t-126.5 -289.5zM922 1745v231q0 14 8.5 22.5t21.5 8.5h281q13 0 22 -8.5t9 -22.5v-231q0 -13 -9 -22 t-22 -9h-281q-13 0 -21.5 8.5t-8.5 22.5z" />
<glyph unicode="&#xd7;" horiz-adv-x="1179" d="M104 464.5q0 13.5 9 22.5l264 265l-264 264q-9 9 -9 22.5t9 22.5l168 166q9 9 22.5 9t22.5 -9l262 -264l266 266q9 9 22.5 9t22.5 -9l168 -170q9 -9 9 -22.5t-9 -22.5l-266 -264l264 -265q9 -9 9 -22.5t-9 -22.5l-166 -166q-9 -9 -22.5 -9t-22.5 9l-264 265l-264 -265 q-9 -9 -22.5 -9t-22.5 9l-168 168q-9 9 -9 22.5z" />
<glyph unicode="&#xd8;" horiz-adv-x="1605" d="M102 715q0 159 51.5 298.5t142 241t222.5 160t287 58.5q205 0 365 -100t246.5 -272t86.5 -384v-2q0 -211 -86.5 -382.5t-247.5 -271.5t-368 -100q-209 0 -369 99.5t-245 270t-85 384.5zM459 715q0 -119 35 -215l387 671q-49 11 -80 11q-155 0 -248.5 -130.5t-93.5 -336.5 zM719 262q41 -12 86 -12q156 0 250 130.5t94 334.5q0 126 -41 229l-109 -174z" />
<glyph unicode="&#xd9;" horiz-adv-x="1562" d="M165 933q0 128 0.5 287.5t0.5 180.5q0 13 9 22t22 9l299 2q13 0 21.5 -8.5t8.5 -22.5v-780q0 -30 0.5 -50t5.5 -57.5t14.5 -64t28 -58.5t44.5 -52t67.5 -34t93.5 -14t93.5 14t67.5 34t45 52t28.5 58.5t14.5 63.5t6 58t1 50v780q0 13 9 22t22 9l299 -2q14 0 22.5 -9 t8.5 -22q0 -21 0.5 -180.5t0.5 -287.5t-1 -270.5t-4 -197.5q-3 -46 -8.5 -84t-22 -90.5t-42.5 -93t-72.5 -83.5t-108 -71t-154 -45.5t-205.5 -17.5t-205 17.5t-154 45.5t-108 70.5t-72 83.5t-42 93t-21.5 90.5t-7.5 84.5q-3 55 -4 197.5t-1 270.5zM578 1962q-6 19 3 33 t29 14h170q26 0 29 -22l63 -291q3 -14 -4 -25t-20 -14l-131 -21q-10 -1 -20 4.5t-13 14.5z" />
<glyph unicode="&#xda;" horiz-adv-x="1562" d="M165 933q0 128 0.5 287.5t0.5 180.5q0 13 9 22t22 9l299 2q13 0 21.5 -8.5t8.5 -22.5v-780q0 -30 0.5 -50t5.5 -57.5t14.5 -64t28 -58.5t44.5 -52t67.5 -34t93.5 -14t93.5 14t67.5 34t45 52t28.5 58.5t14.5 63.5t6 58t1 50v780q0 13 9 22t22 9l299 -2q14 0 22.5 -9 t8.5 -22q0 -21 0.5 -180.5t0.5 -287.5t-1 -270.5t-4 -197.5q-3 -46 -8.5 -84t-22 -90.5t-42.5 -93t-72.5 -83.5t-108 -71t-154 -45.5t-205.5 -17.5t-205 17.5t-154 45.5t-108 70.5t-72 83.5t-42 93t-21.5 90.5t-7.5 84.5q-3 55 -4 197.5t-1 270.5zM666 1696l63 291 q3 22 29 22h170q19 0 29 -14t4 -33l-107 -305q-3 -10 -12.5 -16.5t-20.5 -4.5l-131 21q-13 3 -20 14t-4 25z" />
<glyph unicode="&#xdb;" horiz-adv-x="1562" d="M165 933q0 128 0.5 287.5t0.5 180.5q0 13 9 22t22 9l299 2q13 0 21.5 -8.5t8.5 -22.5v-780q0 -30 0.5 -50t5.5 -57.5t14.5 -64t28 -58.5t44.5 -52t67.5 -34t93.5 -14t93.5 14t67.5 34t45 52t28.5 58.5t14.5 63.5t6 58t1 50v780q0 13 9 22t22 9l299 -2q14 0 22.5 -9 t8.5 -22q0 -21 0.5 -180.5t0.5 -287.5t-1 -270.5t-4 -197.5q-3 -46 -8.5 -84t-22 -90.5t-42.5 -93t-72.5 -83.5t-108 -71t-154 -45.5t-205.5 -17.5t-205 17.5t-154 45.5t-108 70.5t-72 83.5t-42 93t-21.5 90.5t-7.5 84.5q-3 55 -4 197.5t-1 270.5zM359 1648q-13 23 6 48 l317 418q10 10 20 10h142q10 0 20 -10l326 -416q20 -25 6.5 -49t-45.5 -21l-158 14q-11 3 -18 13l-205 291l-190 -291q-7 -10 -19 -13l-158 -14q-31 -3 -44 20z" />
<glyph unicode="&#xdc;" horiz-adv-x="1562" d="M165 933q0 128 0.5 287.5t0.5 180.5q0 13 9 22t22 9l299 2q13 0 21.5 -8.5t8.5 -22.5v-780q0 -30 0.5 -50t5.5 -57.5t14.5 -64t28 -58.5t44.5 -52t67.5 -34t93.5 -14t93.5 14t67.5 34t45 52t28.5 58.5t14.5 63.5t6 58t1 50v780q0 13 9 22t22 9l299 -2q14 0 22.5 -9 t8.5 -22q0 -21 0.5 -180.5t0.5 -287.5t-1 -270.5t-4 -197.5q-3 -46 -8.5 -84t-22 -90.5t-42.5 -93t-72.5 -83.5t-108 -71t-154 -45.5t-205.5 -17.5t-205 17.5t-154 45.5t-108 70.5t-72 83.5t-42 93t-21.5 90.5t-7.5 84.5q-3 55 -4 197.5t-1 270.5zM350 1745v231q0 14 9 22.5 t22 8.5h281q13 0 21.5 -8.5t8.5 -22.5v-231q0 -14 -8.5 -22.5t-21.5 -8.5h-281q-13 0 -22 9t-9 22zM852 1745v231q0 14 9 22.5t22 8.5h280q13 0 22 -8.5t9 -22.5v-231q0 -13 -9 -22t-22 -9h-280q-13 0 -22 9t-9 22z" />
<glyph unicode="&#xdd;" horiz-adv-x="1927" d="M64.5 1410.5q10.5 23.5 41.5 23.5h392q9 0 20 -11l449 -565l458 565q11 11 21 11h375q31 0 41.5 -23.5t-9.5 -46.5l-677 -793v-540q0 -13 -9 -22t-22 -9h-361q-13 0 -21.5 8.5t-8.5 22.5v534l-680 799q-20 23 -9.5 46.5zM852 1696l63 291q3 22 29 22h170q19 0 29 -14 t4 -33l-107 -305q-3 -10 -12 -16.5t-20 -4.5l-131 21q-14 3 -21 14.5t-4 24.5z" />
<glyph unicode="&#xde;" horiz-adv-x="1341" d="M102 31v1413q0 14 9 22.5t22 8.5h250q13 0 22 -8.5t9 -22.5l2 -318l278 -2q125 -1 229 -34t172.5 -89t106 -129t37.5 -155q0 -122 -76 -211.5t-205.5 -134.5t-295.5 -45h-248v-295q0 -13 -9 -22t-22 -9h-250q-13 0 -22 9t-9 22zM414 545h248q124 0 195 46t71 109v17 q0 79 -70.5 116t-195.5 37h-248v-325z" />
<glyph unicode="&#xdf;" horiz-adv-x="1314" d="M159 985.5q-1 32.5 2 80.5t10 82.5t24 77.5t42.5 73t66.5 61t94.5 49.5t128 30.5t165.5 12q266 0 402 -174q99 -127 99 -300q-1 -150 -73 -246q-63 -80 -151 -81q118 0 187 -113q65 -106 55 -245q-11 -147 -102 -228q-72 -65 -181 -65h-338q-14 0 -22.5 9t-8.5 22v182 q0 22 15.5 32t37.5 1q42 -17 82.5 -27.5t90 -14t87.5 19t54 71.5q23 74 -43 140.5t-215 72.5q-14 0 -23.5 9t-9.5 22v141q0 12 9.5 20.5t23.5 8.5q70 3 122 30t76.5 67.5t33.5 89t-6 97t-42 88t-75.5 64t-106.5 24.5q-67 0 -115 -18t-68.5 -43.5t-32 -51t-12.5 -43.5v-18 l-4 -964q0 -14 -8.5 -22.5t-21.5 -8.5h-213q-13 0 -22 9t-9 22v807q0 23 -2 69t-3 78.5z" />
<glyph unicode="&#xe0;" d="M61 545q0 108 34 206t100 178t174.5 127.5t246.5 47.5q123 0 212.5 -38.5t134.5 -98.5v88q0 13 8.5 21.5t21.5 8.5h240q14 0 22.5 -8.5t8.5 -21.5v-1024q0 -13 -9 -22t-22 -9h-240q-13 0 -21.5 8.5t-8.5 22.5v139q-44 -84 -141.5 -137t-235.5 -53q-123 0 -224 47.5 t-166 127t-100 180t-35 210.5zM369 565q0 -129 83 -219t214 -90q125 0 212 92.5t87 216.5q0 52 -18 105.5t-51.5 100.5t-89 76.5t-122.5 29.5q-134 0 -224.5 -91.5t-90.5 -220.5zM510 1597q-6 19 3.5 33.5t29.5 14.5h170q25 0 28 -23l64 -291q3 -13 -4 -24.5t-21 -14.5 l-131 -20q-11 -2 -20.5 3.5t-12.5 14.5z" />
<glyph unicode="&#xe1;" d="M61 545q0 108 34 206t100 178t174.5 127.5t246.5 47.5q123 0 212.5 -38.5t134.5 -98.5v88q0 13 8.5 21.5t21.5 8.5h240q14 0 22.5 -8.5t8.5 -21.5v-1024q0 -13 -9 -22t-22 -9h-240q-13 0 -21.5 8.5t-8.5 22.5v139q-44 -84 -141.5 -137t-235.5 -53q-123 0 -224 47.5 t-166 127t-100 180t-35 210.5zM369 565q0 -129 83 -219t214 -90q125 0 212 92.5t87 216.5q0 52 -18 105.5t-51.5 100.5t-89 76.5t-122.5 29.5q-134 0 -224.5 -91.5t-90.5 -220.5zM543 1325l63 291q3 22 29 22h170q19 0 29 -14t4 -33l-107 -305q-3 -10 -12.5 -16t-20.5 -4 l-131 20q-13 3 -20 14t-4 25z" />
<glyph unicode="&#xe2;" d="M61 545q0 108 34 206t100 178t174.5 127.5t246.5 47.5q123 0 212.5 -38.5t134.5 -98.5v88q0 13 8.5 21.5t21.5 8.5h240q14 0 22.5 -8.5t8.5 -21.5v-1024q0 -13 -9 -22t-22 -9h-240q-13 0 -21.5 8.5t-8.5 22.5v139q-44 -84 -141.5 -137t-235.5 -53q-123 0 -224 47.5 t-166 127t-100 180t-35 210.5zM340 1290q-11 22 6 45l234 297q10 10 20 10h182q11 0 21 -10l235 -297q19 -23 8 -45t-40 -22h-123q-11 0 -21 10l-172 203l-174 -205q-12 -8 -20 -8h-117q-28 0 -39 22zM369 565q0 -129 83 -219t214 -90q125 0 212 92.5t87 216.5 q0 52 -18 105.5t-51.5 100.5t-89 76.5t-122.5 29.5q-134 0 -224.5 -91.5t-90.5 -220.5z" />
<glyph unicode="&#xe3;" d="M61 518q0 108 34 206t100 178t174.5 127.5t246.5 47.5q123 0 212.5 -38.5t134.5 -98.5v88q0 14 8.5 22.5t21.5 8.5h240q13 0 22 -8.5t9 -22.5v-1024q0 -14 -9 -22.5t-22 -8.5h-240q-13 0 -21.5 8.5t-8.5 22.5v139q-44 -84 -141.5 -137t-235.5 -53q-123 0 -224 47.5 t-166 127t-100 180t-35 210.5zM268 1382q38 88 94.5 132.5t149.5 44.5q85 0 190 -33q94 -27 125 -27q39 0 63 13.5t44 43.5q9 19 31 15l112 -25q15 -3 22 -16.5t1 -28.5q-36 -89 -93 -134.5t-151 -45.5q-62 0 -190 35q-87 26 -123 26q-41 0 -65 -13.5t-44 -43.5 q-9 -18 -31 -14l-112 26q-15 3 -22 16.5t-1 28.5zM369 539q0 -129 83 -219.5t214 -90.5q125 0 212 93t87 217q0 52 -18 105t-51.5 100t-89 76.5t-122.5 29.5q-134 0 -224.5 -91t-90.5 -220z" />
<glyph unicode="&#xe4;" d="M61 545q0 108 34 206t100 178t174.5 127.5t246.5 47.5q123 0 212.5 -38.5t134.5 -98.5v88q0 13 8.5 21.5t21.5 8.5h240q14 0 22.5 -8.5t8.5 -21.5v-1024q0 -13 -9 -22t-22 -9h-240q-13 0 -21.5 8.5t-8.5 22.5v139q-44 -84 -141.5 -137t-235.5 -53q-123 0 -224 47.5 t-166 127t-100 180t-35 210.5zM328 1298v168q0 14 8.5 22.5t21.5 8.5h207q13 0 22 -8.5t9 -22.5v-168q0 -13 -8.5 -21.5t-22.5 -8.5h-207q-14 0 -22 8t-8 22zM369 565q0 -129 83 -219t214 -90q125 0 212 92.5t87 216.5q0 52 -18 105.5t-51.5 100.5t-89 76.5t-122.5 29.5 q-134 0 -224.5 -91.5t-90.5 -220.5zM766 1298v168q0 14 9 22.5t22 8.5h207q13 0 21.5 -8.5t8.5 -22.5v-168q0 -14 -8 -22t-22 -8h-207q-14 0 -22.5 8.5t-8.5 21.5z" />
<glyph unicode="&#xe5;" d="M61 545q0 108 34 206t100 178t174.5 127.5t246.5 47.5q123 0 212.5 -38.5t134.5 -98.5v88q0 13 8.5 21.5t21.5 8.5h240q14 0 22.5 -8.5t8.5 -21.5v-1024q0 -13 -9 -22t-22 -9h-240q-13 0 -21.5 8.5t-8.5 22.5v139q-44 -84 -141.5 -137t-235.5 -53q-123 0 -224 47.5 t-166 127t-100 180t-35 210.5zM369 565q0 -129 83 -219t214 -90q125 0 212 92.5t87 216.5q0 52 -18 105.5t-51.5 100.5t-89 76.5t-122.5 29.5q-134 0 -224.5 -91.5t-90.5 -220.5zM469 1458q0 100 71 171t171 71t170.5 -71t70.5 -171t-70.5 -170.5t-170.5 -70.5t-171 70.5 t-71 170.5zM582 1458q0 -53 36.5 -90t90.5 -37q52 0 88.5 37t36.5 90t-36.5 90t-88.5 37q-54 0 -90.5 -37t-36.5 -90z" />
<glyph unicode="&#xe6;" horiz-adv-x="2398" d="M61 545q0 108 34 206t100 178t174.5 127.5t246.5 47.5q123 0 212.5 -38.5t134.5 -98.5v88q0 13 8.5 21.5t21.5 8.5h240q14 0 22.5 -8.5t8.5 -21.5v-168q79 100 201.5 157.5t273.5 57.5q157 0 270 -46t199 -134q53 -59 87 -150t17 -209q-7 -46 -47 -123q-9 -12 -22 -12 h-779q33 -89 114.5 -144t207.5 -55q76 0 163.5 31.5t151.5 79.5q22 18 39 -2l150 -137q12 -10 12.5 -24t-10.5 -23q-92 -79 -232 -126.5t-301 -47.5q-154 0 -282.5 60t-212.5 165v-174q0 -13 -9 -22t-22 -9h-240q-13 0 -21.5 8.5t-8.5 22.5v139q-44 -84 -141.5 -137 t-235.5 -53q-123 0 -224 47.5t-166 127t-100 180t-35 210.5zM369 565q0 -129 83 -219t214 -90q125 0 212 92.5t87 216.5q0 52 -18 105.5t-51.5 100.5t-89 76.5t-122.5 29.5q-134 0 -224.5 -91.5t-90.5 -220.5zM1473 639h622q-14 67 -49 109q-52 62 -120 84t-169 16 q-109 -7 -182 -64.5t-102 -144.5z" />
<glyph unicode="&#xe7;" horiz-adv-x="1163" d="M41 537v6q0 113 46.5 215t127 178t196.5 121t248 45q149 0 256 -40t191 -118q9 -9 9 -22.5t-9 -22.5l-160 -158q-20 -20 -43 0q-112 95 -272 95q-104 0 -180.5 -61t-98.5 -147.5t-7.5 -173t94.5 -147.5t206 -61q154 0 277 94q9 8 20.5 8t18.5 -8l151 -139q10 -9 10 -22.5 t-10 -22.5q-145 -135 -326 -164l-34 -375q0 -12 -9.5 -19.5t-21.5 -7.5h-205q-20 0 -30 14.5t-3 33.5l127 346q-122 7 -228 53t-180.5 120t-117.5 172.5t-43 207.5z" />
<glyph unicode="&#xe8;" horiz-adv-x="1259" d="M82 535v6q0 115 34.5 215.5t101 178.5t173 123.5t240.5 45.5q264 0 405.5 -148t141.5 -393q0 -94 -15 -123q-9 -12 -22 -12h-766q0 -73 91 -145t183 -72q52 0 73 1.5t69 11t94.5 36t101.5 70.5q19 14 39 -2l96 -90q20 -20 2 -48q-76 -110 -194 -160t-287 -50 q-130 0 -238.5 49t-177.5 128.5t-107 177.5t-38 200zM371 627h557q0 98 -81.5 163.5t-213.5 65.5q-104 0 -183 -75.5t-79 -153.5zM410 1597q-6 19 3 33.5t29 14.5h170q11 0 19.5 -6.5t9.5 -16.5l64 -291q3 -13 -4 -24.5t-21 -14.5l-131 -20q-11 -2 -20.5 3.5t-12.5 14.5z " />
<glyph unicode="&#xe9;" horiz-adv-x="1259" d="M82 535v6q0 115 34.5 215.5t101 178.5t173 123.5t240.5 45.5q264 0 405.5 -148t141.5 -393q0 -94 -15 -123q-9 -12 -22 -12h-766q0 -73 91 -145t183 -72q52 0 73 1.5t69 11t94.5 36t101.5 70.5q19 14 39 -2l96 -90q20 -20 2 -48q-76 -110 -194 -160t-287 -50 q-130 0 -238.5 49t-177.5 128.5t-107 177.5t-38 200zM371 627h557q0 98 -81.5 163.5t-213.5 65.5q-104 0 -183 -75.5t-79 -153.5zM522 1329l64 291q3 22 28 22h170q19 0 29 -14t4 -33l-106 -305q-3 -10 -12.5 -16t-20.5 -4l-131 20q-14 3 -21 14.5t-4 24.5z" />
<glyph unicode="&#xea;" horiz-adv-x="1259" d="M82 535v6q0 115 34.5 215.5t101 178.5t173 123.5t240.5 45.5q264 0 405.5 -148t141.5 -393q0 -94 -15 -123q-9 -12 -22 -12h-766q0 -73 91 -145t183 -72q52 0 73 1.5t69 11t94.5 36t101.5 70.5q19 14 39 -2l96 -90q20 -20 2 -48q-76 -110 -194 -160t-287 -50 q-130 0 -238.5 49t-177.5 128.5t-107 177.5t-38 200zM287 1290q-11 22 6 45l233 297q10 10 21 10h182q11 0 21 -10l235 -297q19 -23 7.5 -45t-40.5 -22h-123q-10 0 -20 10l-172 203l-174 -205q-12 -8 -21 -8h-116q-28 0 -39 22zM371 627h557q0 98 -81.5 163.5t-213.5 65.5 q-104 0 -183 -75.5t-79 -153.5z" />
<glyph unicode="&#xeb;" horiz-adv-x="1259" d="M82 535v6q0 115 34.5 215.5t101 178.5t173 123.5t240.5 45.5q264 0 405.5 -148t141.5 -393q0 -94 -15 -123q-9 -12 -22 -12h-766q0 -73 91 -145t183 -72q52 0 73 1.5t69 11t94.5 36t101.5 70.5q19 14 39 -2l96 -90q20 -20 2 -48q-76 -110 -194 -160t-287 -50 q-130 0 -238.5 49t-177.5 128.5t-107 177.5t-38 200zM276 1298v168q0 14 9 22.5t22 8.5h207q14 0 22.5 -8.5t8.5 -22.5v-168q0 -13 -8.5 -21.5t-22.5 -8.5h-207q-14 0 -22.5 8.5t-8.5 21.5zM371 627h557q0 98 -81.5 163.5t-213.5 65.5q-104 0 -183 -75.5t-79 -153.5z M715 1298v168q0 14 8.5 22.5t21.5 8.5h207q14 0 22.5 -8.5t8.5 -22.5v-168q0 -13 -8.5 -21.5t-22.5 -8.5h-207q-13 0 -21.5 8t-8.5 22z" />
<glyph unicode="&#xec;" horiz-adv-x="571" d="M104 1597q-6 19 3.5 33.5t29.5 14.5h170q11 0 19.5 -6.5t9.5 -16.5l63 -291q3 -14 -4 -25t-20 -14l-131 -20q-11 -2 -20.5 3.5t-12.5 14.5zM158 1055q0 13 8 21.5t22 8.5h250q14 0 22.5 -8.5t8.5 -21.5v-1024q0 -13 -8.5 -22t-22.5 -9h-245q-13 0 -22 9t-9 22z" />
<glyph unicode="&#xed;" horiz-adv-x="567" d="M102 1055q0 13 8.5 21.5t22.5 8.5h250q14 0 22.5 -8.5t8.5 -21.5v-1024q0 -13 -9 -22t-22 -9h-246q-13 0 -22 9t-9 22zM168 1327l63 291q3 22 29 22h170q19 0 29 -14t4 -33l-107 -305q-7 -24 -32 -20l-131 20q-14 3 -21 14.5t-4 24.5z" />
<glyph unicode="&#xee;" horiz-adv-x="917" d="M104.5 1290q-10.5 22 6.5 45l233 297q10 10 21 10h182q10 0 20 -10l236 -297q19 -23 7.5 -45t-40.5 -22h-123q-10 0 -20 10l-172 203l-174 -205q-12 -8 -21 -8h-117q-28 0 -38.5 22zM303 1055q0 13 8.5 21.5t22.5 8.5h250q14 0 22 -8.5t8 -21.5v-1024q0 -14 -8.5 -22.5 t-21.5 -8.5h-246q-14 0 -22.5 9t-8.5 22z" />
<glyph unicode="&#xef;" horiz-adv-x="911" d="M102 1298v168q0 14 9 22.5t22 8.5h207q14 0 22.5 -8.5t8.5 -22.5v-168q0 -13 -8.5 -21.5t-22.5 -8.5h-207q-14 0 -22.5 8.5t-8.5 21.5zM309 1055q0 13 8.5 21.5t22.5 8.5h250q14 0 22.5 -8.5t8.5 -21.5v-1024q0 -13 -8.5 -22t-22.5 -9h-246q-14 0 -22.5 9t-8.5 22z M541 1298v168q0 14 8.5 22.5t21.5 8.5h207q14 0 22.5 -8.5t8.5 -22.5v-168q0 -13 -8.5 -21.5t-22.5 -8.5h-207q-13 0 -21.5 8t-8.5 22z" />
<glyph unicode="&#xf0;" horiz-adv-x="1130" d="M0 547q0 119 45.5 223.5t121.5 177t177 115t211 43.5l-70 123l-47 -60q-15 -18 -39 -8l-75 43q-14 9 -16.5 23t7.5 28l76 93l-164 233q-15 22 -4.5 43t37.5 21h102q13 0 23 -13l107 -166l102 166q10 13 22 13h101q26 0 37 -21t-4 -43l-166 -231l190 -260 q111 -49 195.5 -142t124 -195.5t36.5 -195.5q6 -121 -39.5 -229.5t-124 -184t-182 -119.5t-211.5 -44q-110 0 -212.5 39t-183 109.5t-129 179.5t-48.5 239zM252 555q-4 -129 86 -226.5t213 -97.5q134 -2 228 89t95 223q0 131 -89 222t-228 91q-121 0 -213 -91t-92 -210z" />
<glyph unicode="&#xf1;" horiz-adv-x="1505" d="M143 31v1024q0 13 8.5 21.5t22.5 8.5h240q14 0 22 -8.5t8 -21.5v-187q19 32 61.5 69t107 76t159.5 65t199 26q411 0 411 -555v-518q0 -14 -8.5 -22.5t-21.5 -8.5h-240q-14 0 -22.5 9t-8.5 22l-2 499q0 164 -69 251t-209 87q-197 0 -357 -243v-594q0 -14 -8.5 -22.5 t-21.5 -8.5h-240q-14 0 -22.5 9t-8.5 22zM356 1382q38 88 94.5 132.5t149.5 44.5q86 0 191 -33q95 -27 124 -27q39 0 63 13.5t44 43.5q9 19 31 15l112 -25q15 -3 22 -16.5t1 -28.5q-36 -89 -93 -134.5t-151 -45.5q-62 0 -190 35q-87 26 -123 26q-41 0 -65 -13.5t-44 -43.5 q-9 -18 -30 -14l-113 26q-15 3 -22 16.5t-1 28.5z" />
<glyph unicode="&#xf2;" horiz-adv-x="1112" d="M0 539q0 155 73 285t201.5 205t284.5 75q155 0 282 -74.5t199 -203.5t72 -285t-72 -284.5t-199 -201.5t-282 -73q-117 0 -220.5 43t-178 116.5t-117.5 177t-43 220.5zM254 537q0 -125 89.5 -214.5t215.5 -89.5q124 0 213.5 89.5t89.5 214.5q0 126 -89 215.5t-214 89.5 q-126 0 -215.5 -89.5t-89.5 -215.5zM338 1597q-6 19 3.5 33.5t29.5 14.5h170q25 0 28 -23l64 -291q3 -13 -4 -24.5t-21 -14.5l-131 -20q-11 -2 -20.5 3.5t-12.5 14.5z" />
<glyph unicode="&#xf3;" horiz-adv-x="1234" d="M61 539q0 155 73.5 285t202 205t284.5 75q155 0 282 -74.5t199 -203.5t72 -285t-72 -284.5t-199 -201.5t-282 -73q-238 0 -399 160t-161 397zM315 537q0 -125 90 -214.5t216 -89.5q124 0 213.5 89.5t89.5 214.5q0 126 -89 215.5t-214 89.5q-126 0 -216 -89.5t-90 -215.5z M535 1325l63 291q3 22 29 22h170q19 0 28.5 -14t3.5 -33l-106 -305q-3 -10 -12.5 -16t-20.5 -4l-131 20q-13 3 -20 14t-4 25z" />
<glyph unicode="&#xf4;" horiz-adv-x="1112" d="M0 539q0 155 73 285t201.5 205t284.5 75q155 0 282 -74.5t199 -203.5t72 -285t-72 -284.5t-199 -201.5t-282 -73q-117 0 -220.5 43t-178 116.5t-117.5 177t-43 220.5zM211 1290q-11 22 6 45l234 297q10 10 20 10h182q11 0 21 -10l235 -297q19 -23 8 -45t-40 -22h-123 q-11 0 -21 10l-172 203l-174 -205q-12 -8 -20 -8h-117q-28 0 -39 22zM254 537q0 -125 89.5 -214.5t215.5 -89.5q124 0 213.5 89.5t89.5 214.5q0 126 -89 215.5t-214 89.5q-126 0 -215.5 -89.5t-89.5 -215.5z" />
<glyph unicode="&#xf5;" horiz-adv-x="1112" d="M0 539q0 155 73 285t201.5 205t284.5 75q155 0 282 -74.5t199 -203.5t72 -285t-72 -284.5t-199 -201.5t-282 -73q-117 0 -220.5 43t-178 116.5t-117.5 177t-43 220.5zM119 1382q38 88 94 132.5t149 44.5q86 0 191 -33q95 -27 125 -27q39 0 62.5 13.5t43.5 43.5 q9 19 31 15l113 -25q15 -3 21.5 -16.5t0.5 -28.5q-36 -89 -92.5 -134.5t-150.5 -45.5q-63 0 -191 35q-87 26 -123 26q-41 0 -64.5 -13.5t-43.5 -43.5q-9 -18 -31 -14l-113 26q-15 3 -21.5 16.5t-0.5 28.5zM254 537q0 -125 89.5 -214.5t215.5 -89.5q124 0 213.5 89.5 t89.5 214.5q0 126 -89 215.5t-214 89.5q-126 0 -215.5 -89.5t-89.5 -215.5z" />
<glyph unicode="&#xf6;" horiz-adv-x="1234" d="M61 539q0 155 73.5 285t202 205t284.5 75q155 0 282 -74.5t199 -203.5t72 -285t-72 -284.5t-199 -201.5t-282 -73q-238 0 -399 160t-161 397zM256 1298v168q0 14 9 22.5t22 8.5h207q13 0 21.5 -8.5t8.5 -22.5v-168q0 -14 -8 -22t-22 -8h-207q-14 0 -22.5 8.5t-8.5 21.5z M315 537q0 -125 90 -214.5t216 -89.5q124 0 213.5 89.5t89.5 214.5q0 126 -89 215.5t-214 89.5q-126 0 -216 -89.5t-90 -215.5zM694 1298v168q0 14 9 22.5t22 8.5h207q14 0 22.5 -8.5t8.5 -22.5v-168q0 -13 -8.5 -21.5t-22.5 -8.5h-207q-14 0 -22.5 8.5t-8.5 21.5z" />
<glyph unicode="&#xf7;" horiz-adv-x="1318" d="M102 674v108q0 14 9 22.5t22 8.5h1051q14 0 23.5 -9.5t9.5 -23.5l-3 -106q0 -14 -8.5 -22.5t-21.5 -8.5h-1051q-13 0 -22 8.5t-9 22.5zM487 963v213q0 13 8.5 21.5t22.5 8.5h273q13 0 21.5 -8t8.5 -22v-213q0 -14 -8.5 -22.5t-21.5 -8.5h-273q-14 0 -22.5 9t-8.5 22z M492 281v213q0 14 8 22t22 8h273q13 0 21.5 -8t8.5 -22v-213q0 -14 -8.5 -22.5t-21.5 -8.5h-273q-13 0 -21.5 8.5t-8.5 22.5z" />
<glyph unicode="&#xf8;" horiz-adv-x="1159" d="M2 590q7 114 58.5 216.5t133 176t195.5 112.5t240 29q95 -7 180.5 -42.5t149 -91.5t110 -126.5t69.5 -149.5t21 -157q6 -122 -41 -235t-129.5 -194t-198 -127t-241.5 -40q-114 6 -217.5 55.5t-180 130.5t-117.5 197t-32 246zM270 555q-6 -123 78 -217l146 248l151 264 q-35 6 -70 6q-121 0 -213 -91t-92 -210zM530 233q12 -2 39 -2q134 -2 228.5 89t95.5 223q0 114 -70 200l-108 -180z" />
<glyph unicode="&#xf9;" horiz-adv-x="1372" d="M82 520v535q0 13 8.5 21.5t22.5 8.5h239q14 0 22.5 -8.5t8.5 -21.5l2 -502q0 -164 69.5 -251t209.5 -87q172 0 284 195v645q0 13 8.5 21.5t22.5 8.5h240q13 0 21.5 -8.5t8.5 -21.5v-1024q0 -14 -8.5 -22.5t-21.5 -8.5h-240q-13 0 -22 9t-9 22v149q-166 -200 -454 -200 q-94 0 -166 28t-118 75.5t-75.5 117.5t-41 147.5t-11.5 171.5zM451 1597q-6 19 3 33.5t29 14.5h170q11 0 19.5 -6.5t9.5 -16.5l63 -291q3 -14 -4 -25t-20 -14l-131 -20q-11 -2 -20.5 3.5t-12.5 14.5z" />
<glyph unicode="&#xfa;" horiz-adv-x="1372" d="M82 520v535q0 13 8.5 21.5t22.5 8.5h239q14 0 22.5 -8.5t8.5 -21.5l2 -502q0 -164 69.5 -251t209.5 -87q172 0 284 195v645q0 13 8.5 21.5t22.5 8.5h240q13 0 21.5 -8.5t8.5 -21.5v-1024q0 -14 -8.5 -22.5t-21.5 -8.5h-240q-13 0 -22 9t-9 22v149q-166 -200 -454 -200 q-94 0 -166 28t-118 75.5t-75.5 117.5t-41 147.5t-11.5 171.5zM526 1331l64 291q3 23 28 23h170q19 0 29 -14.5t4 -33.5l-106 -305q-3 -10 -12.5 -16t-20.5 -4l-131 20q-14 3 -21 14.5t-4 24.5z" />
<glyph unicode="&#xfb;" horiz-adv-x="1372" d="M82 520v535q0 13 8.5 21.5t22.5 8.5h239q14 0 22.5 -8.5t8.5 -21.5l2 -502q0 -164 69.5 -251t209.5 -87q172 0 284 195v645q0 13 8.5 21.5t22.5 8.5h240q13 0 21.5 -8.5t8.5 -21.5v-1024q0 -14 -8.5 -22.5t-21.5 -8.5h-240q-13 0 -22 9t-9 22v149q-166 -200 -454 -200 q-94 0 -166 28t-118 75.5t-75.5 117.5t-41 147.5t-11.5 171.5zM301 1288q-11 22 6 45l234 297q10 10 20 10h182q11 0 21 -10l235 -297q19 -23 8 -45t-40 -22h-123q-11 0 -21 10l-172 203l-174 -205q-12 -8 -20 -8h-117q-28 0 -39 22z" />
<glyph unicode="&#xfc;" horiz-adv-x="1372" d="M82 520v535q0 13 8.5 21.5t22.5 8.5h239q14 0 22.5 -8.5t8.5 -21.5l2 -502q0 -164 69.5 -251t209.5 -87q172 0 284 195v645q0 13 8.5 21.5t22.5 8.5h240q13 0 21.5 -8.5t8.5 -21.5v-1024q0 -14 -8.5 -22.5t-21.5 -8.5h-240q-13 0 -22 9t-9 22v149q-166 -200 -454 -200 q-94 0 -166 28t-118 75.5t-75.5 117.5t-41 147.5t-11.5 171.5zM303 1298v168q0 14 8.5 22.5t22.5 8.5h207q13 0 21.5 -8.5t8.5 -22.5v-168q0 -14 -8.5 -22t-21.5 -8h-207q-14 0 -22.5 8.5t-8.5 21.5zM741 1298v168q0 14 8.5 22.5t22.5 8.5h207q13 0 22 -8.5t9 -22.5v-168 q0 -13 -8.5 -21.5t-22.5 -8.5h-207q-14 0 -22.5 8.5t-8.5 21.5z" />
<glyph unicode="&#xfd;" horiz-adv-x="1267" d="M55 1038q-7 19 3 33t30 14h291q22 0 29 -20l215 -754l237 754q7 20 27 20h293q21 0 30.5 -15t3.5 -34l-395 -997q-41 -122 -56 -157q-74 -161 -230 -233q-142 -65 -361 -69q-14 0 -23.5 9t-9.5 22l-2 205q0 13 8.5 21.5t22.5 8.5q104 6 167.5 44.5t96.5 111.5zM504 1327 l63 291q3 22 29 22h170q19 0 29 -14t4 -33l-107 -305q-3 -10 -12.5 -16t-20.5 -4l-131 20q-13 3 -20 14t-4 25z" />
<glyph unicode="&#xfe;" horiz-adv-x="1718" d="M102 -379v1800q0 13 9 22t22 9h359q13 0 21.5 -8.5t8.5 -22.5v-493q82 83 190 127.5t261 44.5q124 0 239.5 -39t205.5 -109.5t144 -178t54 -234.5v-7q0 -129 -53.5 -235t-143 -174.5t-205 -105.5t-241.5 -37q-157 0 -264 37.5t-187 109.5v-506q0 -14 -8.5 -22.5 t-21.5 -8.5h-359q-13 0 -22 9t-9 22zM516 532q0 -134 104 -219.5t254 -85.5q153 0 259 85t106 220v7q0 134 -106 218.5t-259 84.5q-150 0 -254 -84.5t-104 -218.5v-7z" />
<glyph unicode="&#xff;" horiz-adv-x="1267" d="M55 1038q-7 19 3 33t30 14h291q22 0 29 -20l215 -754l237 754q7 20 27 20h293q21 0 30.5 -15t3.5 -34l-395 -997q-40 -122 -59 -161q-74 -156 -234 -224q-139 -60 -354 -64q-14 0 -23.5 9t-9.5 22l-2 205q0 14 8.5 22.5t22.5 8.5q106 5 169 39t95 106zM270 1298v168 q0 14 9 22.5t22 8.5h207q14 0 22.5 -8.5t8.5 -22.5v-168q0 -13 -8.5 -21.5t-22.5 -8.5h-207q-14 0 -22.5 8.5t-8.5 21.5zM709 1298v168q0 14 8.5 22.5t21.5 8.5h207q14 0 22.5 -8.5t8.5 -22.5v-168q0 -13 -8.5 -21.5t-22.5 -8.5h-207q-13 0 -21.5 8t-8.5 22z" />
<glyph unicode="&#x152;" horiz-adv-x="2129" d="M125 780q21 299 197.5 467t539.5 185h1151q13 0 22 -9t9 -22v-225q0 -14 -9 -22.5t-22 -8.5h-790v-279h755q14 0 22.5 -8.5t8.5 -21.5v-236q0 -14 -8.5 -22.5t-22.5 -8.5h-755v-280h794q13 0 22 -8.5t9 -22.5v-227q0 -13 -9 -22t-22 -9h-1155q-245 9 -418 109.5 t-253.5 273t-65.5 397.5zM438 735q-3 -119 54 -223.5t156.5 -166.5t213.5 -62v880q-111 -2 -209.5 -62.5t-156.5 -158.5t-58 -207z" />
<glyph unicode="&#x153;" horiz-adv-x="2134" d="M61 539q0 155 73.5 285t202 205t284.5 75q134 0 248 -56.5t190 -156.5q68 100 181 156.5t265 56.5q264 0 405.5 -148t141.5 -393q0 -96 -14 -123q-9 -12 -23 -12h-766q0 -73 91.5 -145t183.5 -72q52 0 73 1.5t69 11t94.5 36t101.5 70.5q19 14 39 -2l96 -90q20 -20 2 -48 q-76 -110 -194 -160t-287 -50q-148 0 -263.5 59.5t-189.5 161.5q-75 -103 -190.5 -161t-253.5 -58q-238 0 -399 160t-161 397zM315 537q0 -125 90 -214.5t216 -89.5q124 0 213.5 89.5t89.5 214.5q0 126 -89 215.5t-214 89.5q-126 0 -216 -89.5t-90 -215.5zM1245 627h557 q0 98 -81.5 163.5t-213.5 65.5q-104 0 -183 -75.5t-79 -153.5z" />
<glyph unicode="&#x178;" horiz-adv-x="1808" d="M64 1411.5q10 22.5 38 22.5h351q9 0 20 -11l434 -553l434 553q11 11 21 11h342q29 0 39.5 -22.5t-6.5 -45.5l-654 -817v-518q0 -14 -8.5 -22.5t-21.5 -8.5h-301q-14 0 -22.5 9t-8.5 22v528l-649 807q-18 23 -8 45.5zM522 1743v231q0 14 9 22.5t22 8.5h281q13 0 21.5 -8.5 t8.5 -22.5v-231q0 -14 -8.5 -22.5t-21.5 -8.5h-281q-13 0 -22 9t-9 22zM1024 1743v231q0 14 9 22.5t22 8.5h280q13 0 22 -8.5t9 -22.5v-231q0 -13 -9 -22t-22 -9h-280q-13 0 -22 9t-9 22z" />
<glyph unicode="&#x2c6;" horiz-adv-x="917" d="M106.5 1173.5q-10.5 22.5 6.5 45.5l233 297q10 10 21 10h182q10 0 20 -10l236 -297q19 -23 7.5 -45.5t-40.5 -22.5h-123q-10 0 -20 10l-172 203l-174 -205q-12 -8 -21 -8h-117q-28 0 -38.5 22.5z" />
<glyph unicode="&#x2dc;" horiz-adv-x="1331" d="M106 1253q51 121 127 182.5t201 61.5q88 0 264 -45q112 -33 162 -33q56 0 89 19.5t61 62.5q11 18 30 15l164 -39q15 -3 22.5 -16t2.5 -27q-49 -124 -124.5 -187t-203.5 -63q-109 0 -266 49q-16 4 -45.5 11.5t-44.5 11t-35.5 7t-36.5 3.5q-54 0 -86.5 -19.5t-60.5 -62.5 q-9 -19 -31 -15l-166 39q-15 3 -22 16.5t-1 28.5z" />
<glyph unicode="&#x2000;" horiz-adv-x="1062" />
<glyph unicode="&#x2001;" horiz-adv-x="2124" />
<glyph unicode="&#x2002;" horiz-adv-x="1062" />
<glyph unicode="&#x2003;" horiz-adv-x="2124" />
<glyph unicode="&#x2004;" horiz-adv-x="708" />
<glyph unicode="&#x2005;" horiz-adv-x="531" />
<glyph unicode="&#x2006;" horiz-adv-x="354" />
<glyph unicode="&#x2007;" horiz-adv-x="354" />
<glyph unicode="&#x2008;" horiz-adv-x="265" />
<glyph unicode="&#x2009;" horiz-adv-x="424" />
<glyph unicode="&#x200a;" horiz-adv-x="118" />
<glyph unicode="&#x2010;" horiz-adv-x="1040" d="M102 596v176q0 14 9 22.5t22 8.5h774q13 0 22 -8.5t9 -22.5v-176q0 -14 -9 -22.5t-22 -8.5h-774q-13 0 -22 8.5t-9 22.5z" />
<glyph unicode="&#x2011;" horiz-adv-x="1040" d="M102 596v176q0 14 9 22.5t22 8.5h774q13 0 22 -8.5t9 -22.5v-176q0 -14 -9 -22.5t-22 -8.5h-774q-13 0 -22 8.5t-9 22.5z" />
<glyph unicode="&#x2012;" horiz-adv-x="1040" d="M102 596v176q0 14 9 22.5t22 8.5h774q13 0 22 -8.5t9 -22.5v-176q0 -14 -9 -22.5t-22 -8.5h-774q-13 0 -22 8.5t-9 22.5z" />
<glyph unicode="&#x2013;" horiz-adv-x="1054" d="M102 416v143q0 13 9 22t22 9h789q13 0 21.5 -8.5t8.5 -22.5v-143q0 -14 -8.5 -22.5t-21.5 -8.5h-789q-13 0 -22 8.5t-9 22.5z" />
<glyph unicode="&#x2014;" horiz-adv-x="1341" d="M102 416v143q0 13 9 22t22 9h1075q14 0 22.5 -9t8.5 -22v-143q0 -14 -8.5 -22.5t-22.5 -8.5h-1075q-13 0 -22 8.5t-9 22.5z" />
<glyph unicode="&#x2018;" horiz-adv-x="702" d="M102 748v280q0 396 447 406q22 0 29 -23l20 -76q4 -15 -4 -27.5t-23 -15.5q-116 -19 -171.5 -76t-45.5 -151h127q13 0 22 -8.5t9 -22.5v-286q0 -14 -9 -22.5t-22 -8.5h-348q-13 0 -22 8.5t-9 22.5z" />
<glyph unicode="&#x2019;" horiz-adv-x="702" d="M104 815q-4 15 4 27.5t23 15.5q116 19 171.5 76t45.5 151h-127q-13 0 -22 8.5t-9 22.5v287q0 13 9 22t22 9h348q13 0 22 -9t9 -22v-281q0 -206 -114.5 -303t-331.5 -102q-23 0 -29 22z" />
<glyph unicode="&#x201a;" horiz-adv-x="702" d="M104 -268q-4 15 4 27.5t23 15.5q116 19 171.5 76t45.5 151h-127q-13 0 -22 9t-9 22v286q0 13 9 22t22 9h348q13 0 22 -9t9 -22v-280q0 -396 -446 -406q-22 0 -29 23z" />
<glyph unicode="&#x201c;" d="M102 748v280q0 396 447 406q22 0 29 -23l20 -76q4 -15 -4 -27.5t-23 -15.5q-116 -19 -171.5 -76t-45.5 -151h127q13 0 22 -8.5t9 -22.5v-286q0 -14 -9 -22.5t-22 -8.5h-348q-13 0 -22 8.5t-9 22.5zM786 748v280q0 396 447 406q22 0 29 -23l20 -76q4 -15 -4 -27.5 t-23 -15.5q-116 -19 -171.5 -76t-45.5 -151h127q13 0 22 -8.5t9 -22.5v-286q0 -14 -9 -22.5t-22 -8.5h-348q-13 0 -22 8.5t-9 22.5z" />
<glyph unicode="&#x201d;" d="M104 815q-4 15 4 27.5t23 15.5q116 19 171.5 76t45.5 151h-127q-13 0 -22 8.5t-9 22.5v287q0 13 9 22t22 9h348q13 0 22 -9t9 -22v-281q0 -206 -114.5 -303t-331.5 -102q-23 0 -29 22zM788 815q-4 15 4 27.5t23 15.5q116 19 171.5 76t45.5 151h-127q-13 0 -22 8.5 t-9 22.5v287q0 13 9 22t22 9h348q13 0 22 -9t9 -22v-281q0 -206 -114.5 -303t-331.5 -102q-23 0 -29 22z" />
<glyph unicode="&#x201e;" d="M104 -270q-4 15 4 27.5t23 15.5q116 19 171.5 76t45.5 151h-127q-13 0 -22 9t-9 22v286q0 13 9 22t22 9h348q13 0 22 -9t9 -22v-280q0 -396 -446 -406q-22 0 -29 23zM788 -270q-4 15 4 27.5t23 15.5q116 19 171.5 76t45.5 151h-127q-13 0 -22 9t-9 22v286q0 13 9 22t22 9 h348q13 0 22 -9t9 -22v-280q0 -396 -446 -406q-22 0 -29 23z" />
<glyph unicode="&#x2022;" horiz-adv-x="894" d="M102 774q0 72 29 135q27 65 72 113q55 55 112 76q55 24 136 24t133 -24q48 -18 106 -76q49 -41 78 -107q25 -63 25 -135v-6q0 -69 -25 -129q-33 -75 -78 -113q-53 -53 -106 -75q-76 -29 -133 -29q-70 0 -136 29q-58 21 -112 75q-49 53 -72 107q-29 66 -29 135z" />
<glyph unicode="&#x2026;" horiz-adv-x="1632" d="M102 29v284q0 13 9 22t22 9h307q14 0 22.5 -9t8.5 -22v-284q0 -13 -8.5 -22t-22.5 -9h-307q-13 0 -22 9t-9 22zM625 29v284q0 14 8.5 22.5t21.5 8.5h308q13 0 21.5 -8.5t8.5 -22.5v-284q0 -14 -8.5 -22.5t-21.5 -8.5h-308q-13 0 -21.5 8.5t-8.5 22.5zM1161 29v284 q0 13 8.5 22t22.5 9h307q13 0 22 -9t9 -22v-284q0 -13 -9 -22t-22 -9h-307q-14 0 -22.5 9t-8.5 22z" />
<glyph unicode="&#x202f;" horiz-adv-x="424" />
<glyph unicode="&#x2039;" horiz-adv-x="874" d="M102 616q0 4 7 15l415 430q15 15 33 6l191 -82q17 -7 20.5 -23.5t-8.5 -29.5l-258 -309l260 -328q12 -13 8.5 -29.5t-20.5 -23.5l-193 -82q-18 -9 -33 6l-415 432q-7 10 -7 18z" />
<glyph unicode="&#x203a;" horiz-adv-x="874" d="M104.5 265.5q-3.5 16.5 8.5 29.5l260 328l-258 309q-12 13 -8.5 29.5t20.5 23.5l190 82q18 9 33 -6l416 -430q6 -9 6 -19q0 -5 -6 -14l-416 -432q-15 -15 -33 -6l-192 82q-17 7 -20.5 23.5z" />
<glyph unicode="&#x205f;" horiz-adv-x="531" />
<glyph unicode="&#x20ac;" horiz-adv-x="1869" d="M102 524v107q0 13 9 22t22 9h152l-2 55q0 19 4 65h-150q-13 0 -22 9t-9 22v107q0 13 8.5 21.5t22.5 8.5h178q32 111 93.5 205.5t148.5 167t206.5 113.5t256.5 41q130 0 244 -31t196.5 -83t146 -122t100.5 -146.5t52 -158.5q3 -15 -6.5 -26t-26.5 -11h-268q-18 0 -24 16 q-11 24 -26 47.5t-50 60.5t-77.5 63.5t-111.5 46.5t-149 20q-106 0 -193 -54.5t-143 -148.5h477q14 0 22.5 -8.5t8.5 -21.5v-107q0 -13 -9 -22t-22 -9h-540q-11 -60 -11 -100l2 -20h545q13 0 22 -9t9 -22v-107q0 -13 -8.5 -21.5t-22.5 -8.5h-508q47 -110 143 -177t228 -67 q99 0 176.5 27.5t119.5 64.5t71 88t38 85.5t13 68.5q4 28 30 28h269q14 0 22.5 -9.5t7.5 -22.5q-2 -37 -8.5 -77t-27.5 -103t-52.5 -119t-89.5 -116.5t-132 -103t-187 -70.5t-248 -28q-273 10 -460 152t-251 379h-178q-14 0 -22.5 8.5t-8.5 21.5z" />
<glyph unicode="&#x2122;" horiz-adv-x="1720" d="M102 1165v72q0 13 9 22t22 9h594q13 0 22 -9t9 -22v-72q0 -13 -8.5 -21.5t-22.5 -8.5h-215v-492q0 -13 -9 -22t-22 -9h-106q-13 0 -22 9t-9 22v492h-211q-14 0 -22.5 8.5t-8.5 21.5zM817 643v594q0 13 8.5 22t22.5 9h121q14 0 24 -17l221 -460l230 462q11 15 24 15h119 q13 0 22 -9t9 -22v-594q0 -13 -9 -22t-22 -9h-104q-13 0 -22 9t-9 22v307l-147 -321q-10 -17 -27 -17h-121q-17 0 -27 17l-145 321v-307q0 -13 -8.5 -22t-22.5 -9h-106q-14 0 -22.5 9t-8.5 22z" />
<glyph unicode="&#x25fc;" horiz-adv-x="1085" d="M0 0v1085h1085v-1085h-1085z" />
<glyph unicode="&#xfb01;" horiz-adv-x="1247" d="M41 870v189q0 13 8.5 22t22.5 9h137v2q0 95 27 177.5t81 121.5q85 61 238 63q247 2 377 -149q11 -14 15.5 -20.5t5 -17.5t-8.5 -20l-88 -88q-19 -19 -41 0q-56 43 -164 43q-78 0 -111.5 -16t-33.5 -70v-26h608q14 0 22.5 -9t8.5 -22v-1028q0 -13 -8.5 -22t-22.5 -9h-248 q-13 0 -21.5 8.5t-8.5 22.5v809h-326v-807q0 -13 -9 -22t-22 -9h-239q-14 0 -22.5 9t-8.5 22v807h-137q-14 0 -22.5 8.5t-8.5 21.5z" />
<glyph unicode="&#xfb02;" horiz-adv-x="1308" d="M41 870v189q0 13 8.5 22t22.5 9h137v2q0 86 41.5 171.5t99.5 127.5q90 61 244 61q245 0 369 -176q10 -19 7 -27.5t-20 -25.5l-61 -60q-20 -20 -43 0q-36 28 -85 47t-93 19q-72 0 -117 -28.5t-45 -84.5v-26h299q13 0 22 -9t9 -22v-189q0 -13 -8.5 -21.5t-22.5 -8.5h-295 v-807q0 -13 -9 -22t-22 -9h-239q-14 0 -22.5 9t-8.5 22v807h-137q-14 0 -22.5 8.5t-8.5 21.5zM897 31v1028q0 13 8.5 22t22.5 9h248q13 0 21.5 -8.5t8.5 -22.5v-1028q0 -14 -8.5 -22.5t-21.5 -8.5h-248q-14 0 -22.5 9t-8.5 22z" />
<glyph unicode="&#xfb03;" horiz-adv-x="1933" d="M102 870v189q0 13 9 22t22 9h135v2q0 94 28 177t81 122q26 17 47 28t73 22.5t119 12.5q204 2 342 -113q14 29 46 50q85 61 237 63q247 2 377 -149q12 -15 10 -39t-16 -39l-70 -68q-20 -17 -41 0q-56 43 -164 43q-78 0 -111.5 -16t-33.5 -70v-26h608q14 0 22.5 -9t8.5 -22 v-1028q0 -13 -8.5 -22t-22.5 -9h-248q-13 0 -21.5 8.5t-8.5 22.5v809h-326v-807q0 -13 -9 -22t-22 -9h-239q-14 0 -22.5 9t-8.5 22v807h-326v-807q0 -14 -8.5 -22.5t-21.5 -8.5h-240q-13 0 -22 9t-9 22v807h-135q-14 0 -22.5 8.5t-8.5 21.5zM567 1090h328v2q0 35 2 49 q-58 61 -186 61q-77 0 -110.5 -16t-33.5 -70v-26z" />
<glyph unicode="&#xfb04;" horiz-adv-x="2009" d="M102 862v187q0 13 8.5 21.5t22.5 8.5h135v2q0 84 42.5 169t99.5 126q89 60 239 62q230 2 359 -113q30 37 53 51q84 60 239 62q90 1 164.5 -15.5t121.5 -44.5t73 -50.5t41 -43.5q9 -16 -4 -29l-103 -102q-20 -20 -41 -2q-37 29 -85.5 47.5t-92.5 18.5q-71 0 -115.5 -28.5 t-44.5 -84.5v-25h295q14 0 22.5 -8.5t8.5 -21.5v-187q0 -14 -9 -22.5t-22 -8.5h-290v-798q0 -13 -8.5 -22t-22.5 -9h-238q-13 0 -21.5 8.5t-8.5 22.5v798h-353v-798q0 -14 -8.5 -22.5t-21.5 -8.5h-238q-13 0 -22 9t-9 22v798h-135q-13 0 -22 8.5t-9 22.5zM563 1079l357 2 q0 34 4 52q-33 35 -90.5 59.5t-108.5 24.5q-72 0 -117 -28.5t-45 -84.5v-25zM1602 31v1018q0 13 8 21.5t22 8.5h244q14 0 22.5 -8.5t8.5 -21.5v-1018q0 -13 -8.5 -22t-22.5 -9h-244q-13 0 -21.5 8.5t-8.5 22.5z" />
</font>
</defs>
</svg>
