<?xml version="1.0" standalone="no"?>
<!DOCTYPE svg PUBLIC "-//W3C//DTD SVG 1.1//EN" "http://www.w3.org/Graphics/SVG/1.1/DTD/svg11.dtd" >
<svg xmlns="http://www.w3.org/2000/svg">
<metadata>
Created by FontPrep 20130207 at Sun Dec  7 22:17:28 2014
 By Tyler Finck
Copyright (c) 2014 by Tyler Finck. All rights reserved.
</metadata>
<defs>
<font id="3a2e10bc53a8daf5ce96e3f2e3c8dfd7" horiz-adv-x='1024' >
  <font-face 
    font-family="PrettyMany"
    font-weight="400"
    font-stretch="normal"
    units-per-em="2048"
    panose-1="2 0 5 6 0 0 0 2 0 4"
    ascent="1536"
    descent="-512"
    x-height="657"
    cap-height="1528"
    bbox="-206.111 -623 1475 1960"
    underline-thickness="102"
    underline-position="-102"
    unicode-range="U+000D-FB04"
  />
<missing-glyph horiz-adv-x="356" 
 />
    <glyph glyph-name="ff" unicode="ff" horiz-adv-x="929" 
d="M735 299l6 -49q0 -20 2 -33l7 -47q0 -14 6 -53t2 -62q10 -20 10 -90q-16 -16 -39 -6q-23 11 -35 27t-34 64t-26 75t-9 34q-6 7 -5 22t-8 20l-12 86h-86q-81 -35 -166 -35q-8 -12 -8 -14q4 -41 14 -60t14 -42q4 -22 13 -34q8 -12 15 -38q6 -26 16 -39q10 -14 10 -33
l-94 -37q-39 -6 -74 39q-23 35 -39 78t-29 63l-22 88q-34 -10 -133 -10q-31 31 -14 70t19 59q3 37 89 61q0 4 1 35t-9 35v6q2 27 -4 79q-7 52 -7 66t-5 108q-5 96 -1 161l9 78v78q4 20 9 59t7 45t8 72q25 45 25 69t26 86l31 66q6 23 18 35t38 46q27 33 59 42q4 2 7 6t31 4
t40 -7q10 -7 52 -31t77 -66v-9q2 -10 10 -30t7 -70q-1 -52 -2 -56t-7 -81l-19 -27l9 -12q-3 -26 -25 -64t-29 -53l-4 -4q-9 -5 -14 -14v-2q-2 -2 -3 -6t-3 -9q-18 82 -22 112t-10 41q-5 11 -3 29t-1 24q-3 8 -4 22t-5 21t-5 23t-5 22q-4 8 -5 22q0 14 -1 18t-13 17l-12 -21
q-1 -6 -13 -24t-12 -29q0 -10 -10 -31q-18 -27 -23 -70l-8 -28q-12 -74 -15 -96t-8 -41q-5 -18 -8 -29q10 -20 0 -29q12 -4 6 -18t-8 -19v-41q0 -2 -6 -20q8 -12 4 -55q-6 -23 -1 -24t2 -14q-3 -14 -2 -16t-3 -13t6 -11q0 -6 2 -22t-7 -27q-8 -10 -1 -18q6 -7 6 -37t6 -70
q6 -39 3 -62q8 -14 8 -71q2 -6 10 -15l51 6h10q17 0 25 8t188 11l-2 22q4 4 4 7l-6 34q0 8 1 35t-5 39t-4 15t2 6l4 2l-6 22v80l-6 33l4 8q-6 33 -8 37t3 17q5 12 2 18t-3 43v256q0 23 5 27t-2 10t-4 9t5 9t4 8q-8 12 -8 17l8 34q0 5 3 15t1 14t2 8l2 6q1 66 21 120t26 63
l64 79q14 16 63 37q3 -6 17 -7t20 -9l25 -31q4 -6 19 -44q14 -38 22 -76t13 -53t5 -51t6 -75t4 -57l-8 -16l6 -7q-4 -6 -12 -12q-10 20 -72 133l-36 72q-2 6 -2 22l-21 17q0 -2 -4 -6q-16 -67 -16 -89q1 -22 -5 -37t-3 -38t-9 -35q-4 -10 2 -18t6 -50t-6 -50q-6 -7 -2 -21
q18 -49 2 -86q8 -13 6 -73q-2 -72 3 -78q19 -19 -3 -38q14 -6 10 -30t0 -31q3 -8 1 -33t6 -35q-18 -25 0 -51l-6 -20q12 -27 24 -88q3 -2 17 -8t16 -7l125 4q18 -18 16 -55t17 -53l-8 -13q-6 -31 -48 -34l-92 -17q-2 0 -43 -10z" />
    <glyph glyph-name="ffi" unicode="ffi" horiz-adv-x="1236" 
d="M1047 983q68 2 98 -37q8 -16 10 -31q-4 -4 -24 -29t-50 -34q-17 3 -23 19q-7 16 -10 21t-8 20q-4 16 -8 24t6 24t9 23zM1225 113q0 -3 -1 -15t5 -15t-17 -44l-75 -45q-51 -23 -76 -19q-10 14 -35 39q-2 8 -7 34t-13 50t-8 48q-1 24 -2 49t-4 35t0 38q3 29 -7 37q4 4 0 48
t2 81t8 62t4 36l19 74q12 12 63 8q6 -10 34 -26t35 -30t13 -39q6 -26 11 -46q0 -2 -11 -6q23 -17 23 -64q6 -12 5 -34t6 -44t9 -30q-2 0 -10 -4l14 -62q2 -10 4 -43t10 -42t4 -19q-3 -10 -3 -12zM756 319l6 -47q0 -20 2 -34l6 -48q0 -14 6 -53t2 -61q10 -20 10 -90
q-16 -16 -38 -6t-35 26q-12 16 -34 64t-26 76q-4 26 -10 33t-5 23t-7 19l-12 86h-86q-74 -32 -166 -35q-8 -12 -9 -14q4 -42 14 -60t15 -42q4 -24 12 -34q7 -11 15 -37q8 -25 17 -39t9 -34l-94 -37q-39 -6 -74 39q-23 35 -35 69t-32 73l-23 88q-37 -11 -133 -11
q-31 31 -13 70t17 57q3 38 90 64q0 4 1 35t-9 35v6q2 27 -4 79t-6 65q0 12 -5 108t-1 161l8 78v78q4 20 9 59q5 40 7 46t9 71q25 45 24 70q0 25 27 86l31 65q6 23 16 34q10 12 23 28q42 54 75 61q4 2 7 6t31 4t40 -7q10 -7 52 -31t77 -66v-8q2 -10 10 -30q8 -19 7 -71
t-2 -56t-7 -81l-18 -26l8 -13q-4 -28 -25 -64q-22 -36 -28 -52l-4 -4q-10 -5 -15 -15v-2q-2 -2 -3 -6t-3 -8q-18 84 -21 112t-10 39q-6 12 -4 30t-1 24q-3 8 -4 22t-5 22t-5 22t-5 22t-4 22t-1 18t-14 17l-12 -20q-2 -6 -13 -26t-11 -29q-1 -8 -15 -32t-18 -67l-8 -29
q-12 -74 -16 -96t-8 -40q-5 -18 -7 -30q10 -20 0 -28q12 -4 5 -18t-7 -19v-41q0 -2 -6 -21q8 -12 4 -55q-6 -24 -1 -24t2 -14t-2 -15q1 -2 -3 -13t6 -12q0 -6 2 -22t-7 -27q-8 -10 -1 -17q6 -7 6 -38t6 -70t2 -61q8 -14 8 -72q2 -6 10 -14l52 6h10q14 0 24 7q9 7 189 11
l-2 23q4 4 4 6l-6 35q0 8 1 34t-5 39t-4 16t2 5l4 2l-6 23v79q0 5 -7 33l5 8q-6 33 -8 37q-2 3 2 17q5 14 2 19t-3 42v256q-1 23 5 27t-1 10t-5 9l6 9q2 6 4 9q-8 12 -9 16l9 35q0 4 3 14t1 14t2 9l2 6q0 65 20 119t27 63l63 80q14 16 64 37q4 -6 17 -7t20 -10q2 -4 11 -12
t13 -16q3 -8 19 -47t23 -76t13 -52q6 -16 5 -52q0 -36 6 -75t4 -57l-8 -16l6 -6q-4 -6 -12 -12q-10 20 -72 133l-37 71q-2 6 -2 23l-20 16q0 -2 -5 -6q-16 -66 -16 -88q0 -21 -5 -37t-2 -38t-9 -36q-4 -10 2 -18t6 -50t-6 -49t-2 -22q18 -49 2 -86q8 -13 6 -73t0 -72
q17 -28 0 -43q14 -6 10 -30t-1 -32q3 -9 1 -33t6 -34q-18 -25 0 -51l-6 -21q12 -27 25 -88q2 -2 16 -7t16 -7l125 4q19 -18 17 -56t16 -53l-8 -12q-6 -31 -47 -35l-92 -16q-2 0 -43 -11z" />
    <glyph glyph-name="ffl" unicode="ffl" horiz-adv-x="1236" 
d="M1120 1573q37 -51 37 -129q0 -28 6 -92t4 -84t7 -37q-23 -23 -7 -45q6 -14 8 -61q1 -46 -3 -49t-1 -14q4 -11 -4 -18q-8 -2 -1 -14t8 -14v-80q0 -27 5 -29t-1 -8t0 -9t6 -12q0 -10 -8 -20t4 -20q-12 -12 -5 -26t7 -48q0 -35 -5 -39q-5 -5 3 -29t-4 -45l6 -37v-165
q0 -3 5 -11t-5 -12v-53l6 -23l-6 -28v-123q2 -29 -3 -83t-5 -67q-6 -6 -8 -25t-9 -28q-2 -35 -55 -62q-10 4 -44 -4t-48 9q0 6 -2 16l-19 12q6 10 -2 34t4 34l-6 31q-2 18 -2 54v54q0 27 -6 31q-4 4 0 14q12 12 9 28q-3 17 0 118t-7 155q4 2 4 4q4 147 0 297q0 2 -6 8
q16 47 2 117l4 23q2 37 2 110v35q0 12 5 22t0 20q-5 9 -1 13t4 31v35q5 43 11 61t2 22q-4 5 -5 7q0 2 5 6q4 4 2 12t5 41t3 52q18 16 18 34t2 21l47 82h37zM756 319l6 -47q0 -20 2 -34l6 -48q0 -14 6 -53t2 -61q10 -20 10 -90q-16 -16 -38 -6t-35 26q-12 16 -34 64t-26 76
q-4 26 -10 33t-5 23t-7 19l-12 86h-86q-74 -32 -166 -35q-8 -12 -9 -14q4 -42 14 -60t15 -42q4 -24 12 -34q7 -11 15 -37q8 -25 17 -39t9 -34l-94 -37q-39 -6 -74 39q-23 35 -35 69t-32 73l-23 88q-37 -11 -133 -11q-31 31 -13 70t17 57q3 38 90 64q0 4 1 35t-9 35v6
q2 27 -4 79t-6 65q0 12 -5 108t-1 161l8 78v78q4 20 9 59q5 40 7 46t9 71q25 45 24 70q0 25 27 86l31 65q6 23 16 34q10 12 23 28q42 54 75 61q4 2 7 6t31 4t40 -7q10 -7 52 -31t77 -66v-8q2 -10 10 -30q8 -19 7 -71t-2 -56t-7 -81l-18 -26l8 -13q-4 -28 -25 -64
q-22 -36 -28 -52l-4 -4q-10 -5 -15 -15v-2q-2 -2 -3 -6t-3 -8q-18 84 -21 112t-10 39q-6 12 -4 30t-1 24q-3 8 -4 22t-5 22t-5 22t-5 22t-4 22t-1 18t-14 17l-12 -20q-2 -6 -13 -26t-11 -29q-1 -8 -15 -32t-18 -67l-8 -29q-12 -74 -16 -96t-8 -40q-5 -18 -7 -30
q10 -20 0 -28q12 -4 5 -18t-7 -19v-41q0 -2 -6 -21q8 -12 4 -55q-6 -24 -1 -24t2 -14t-2 -15q1 -2 -3 -13t6 -12q0 -6 2 -22t-7 -27q-8 -10 -1 -17q6 -7 6 -38t6 -70t2 -61q8 -14 8 -72q2 -6 10 -14l52 6h10q14 0 24 7q9 7 189 11l-2 23q4 4 4 6l-6 35q0 8 1 34t-5 39t-4 16
t2 5l4 2l-6 23v79q0 5 -7 33l5 8q-6 33 -8 37q-2 3 2 17q5 14 2 19t-3 42v256q-1 23 5 27t-1 10t-5 9l6 9q2 6 4 9q-8 12 -9 16l9 35q0 4 3 14t1 14t2 9l2 6q0 65 20 119t27 63l63 80q14 16 64 37q4 -6 17 -7t20 -10q2 -4 11 -12t13 -16q3 -8 19 -47t23 -76t13 -52
q6 -16 5 -52q0 -36 6 -75t4 -57l-8 -16l6 -6q-4 -6 -12 -12q-10 20 -72 133l-37 71q-2 6 -2 23l-20 16q0 -2 -5 -6q-16 -66 -16 -88q0 -21 -5 -37t-2 -38t-9 -36q-4 -10 2 -18t6 -50t-6 -49t-2 -22q18 -49 2 -86q8 -13 6 -73t0 -72q17 -28 0 -43q14 -6 10 -30t-1 -32
q3 -9 1 -33t6 -34q-18 -25 0 -51l-6 -21q12 -27 25 -88q2 -2 16 -7t16 -7l125 4q19 -18 17 -56t16 -53l-8 -12q-6 -31 -47 -35l-92 -16q-2 0 -43 -11z" />
    <glyph glyph-name="tt" unicode="tt" horiz-adv-x="831" 
d="M649 618l15 13q4 0 4 -2l16 10l35 -7q89 -18 117 -42q-4 -34 -14 -41q-11 -6 -29 -14q-19 -7 -33 -15t-45 -12t-43 -8q0 -76 10 -114t12 -201t4 -187q-41 -41 -102 -41q-12 0 -25 18h-2l-4 -2l2 15q0 6 -10 30t-10 35l2 39q-1 8 -15 145t-14 236q-30 -1 -102 -25t-89 -24
t-18 2q-14 -4 -49 -25q10 -102 10 -129v-28q8 -23 9 -47l-2 -27q0 -78 12 -160q-43 -33 -111 -59l-22 29v67q0 6 1 36t0 41t-3 37t-17 64q-17 38 -33 54t-36 30q-4 0 -37 -2t-38 22q-3 11 -3 27l2 39v15q2 12 29 30t38 19h7q4 0 8 8t10 8h8q6 0 47 25v188l-8 37v39l8 39
l-6 16q14 86 15 363v39q0 141 49 190q49 -33 49 -94l2 -438q0 -8 -8 -15q6 -6 6 -18v-176q0 -18 8 -27q-4 -8 -4 -12l6 -33q-2 -8 -2 -25v-26q37 12 78 18q18 6 22 6h13l45 11h8l86 16q-4 66 -14 173t-11 337q1 36 13 104t12 109t63 162h20q17 1 24 -13t14 -26q-6 -6 -6 -21
v-20q0 -16 -9 -25l7 -6q-21 -147 -1 -450q19 -303 29 -304z" />
    <glyph glyph-name=".notdef" horiz-adv-x="356" 
 />
    <glyph glyph-name=".null" horiz-adv-x="0" 
 />
    <glyph glyph-name="nonmarkingreturn" horiz-adv-x="681" 
 />
    <glyph glyph-name="NULL" horiz-adv-x="0" 
 />
    <glyph glyph-name="NULL" horiz-adv-x="0" 
 />
    <glyph glyph-name="CR" unicode="&#xd;" horiz-adv-x="356" 
 />
    <glyph glyph-name="space" unicode=" " horiz-adv-x="356" 
 />
    <glyph glyph-name="exclam" unicode="!" horiz-adv-x="331" 
d="M84 -20l-10 30q-6 83 39 144l108 -31q4 6 45 6l29 -27q-2 -12 0 -80t-14 -83h-95q-16 -2 -82 -23q-20 23 -20 64zM279 795v-123l6 -21q-6 -25 -6 -28v-97l-5 -39q0 -12 5 -32l-9 -45q-6 -37 -8 -41v-19l-61 -55h-25q-29 23 -37 74q0 8 -10 44t-6 58q-6 9 -6 29t-5 28
q-6 8 -6 35v46t-2 30l-6 59q0 6 1 32t-4 39t-5 101q-4 72 -1 105t-3 90t-4 129t-1 106t-4 66q-1 30 -5 50t-9 57l-6 36v17q0 14 -8 18q-8 39 27 78q30 -6 72 -26t65 -25q4 -2 25 -23q12 -16 20 -51l12 -63q0 -2 -6 -15l6 -16v-51l6 -66q14 -25 -4 -39l7 -30q1 -7 -3 -17
t-1 -15t4 -40v-154l8 -24q-14 -23 0 -33l-8 -23q0 -8 -2 -36t5 -38q7 -11 2 -23t-5 -19z" />
    <glyph glyph-name="quotedbl" unicode="&#x22;" horiz-adv-x="415" 
d="M387 1396q0 -6 1 -12t-1 -14t-2 -12t-3 -12t-6 -20t-7 -21q-19 -61 -97 -84q-54 97 -38 175q7 34 8 54v41q12 2 34 2l95 -55q4 -8 7 -16t6 -13q3 -6 3 -13zM16 1460l31 39q51 -16 100 -57q35 -55 24 -123t-34 -96q-6 0 -22 -11q-2 4 -11 9q-56 27 -77 137q-2 8 -3 25
q0 17 -4 25t-4 52z" />
    <glyph glyph-name="numbersign" unicode="#" horiz-adv-x="878" 
d="M377 824q0 -3 4 -6t4 -36v-104q8 -4 14 -10q140 45 176 59q-8 16 -8 18q0 49 -5 103t-11 209l-4 4q-73 -27 -109 -36t-63 -28l10 -28q0 -2 -6 -8q14 -9 6 -25t-6 -21q6 -4 6 -30l-2 -25q4 -6 0 -16t-5 -14t-1 -6zM172 896q0 28 -2 44q-10 -4 -22 -7t-27 -8q-14 -5 -25 -7
l10 -9l-4 -4l-63 -6q-27 -2 -76 -10q-25 55 -18 82q29 29 69 39l25 8q8 4 30 16t48 13q8 10 28 15t27 9v248q-2 11 3 27t5 21t-2 21t10 25q-2 16 8 43l11 33q23 20 57 16l113 -90v-30q0 -23 5 -31t2 -20t1 -15q-11 -19 -9 -41q3 -22 2 -40t-1 -77l12 -10q10 10 38 17
q29 6 41 12t38 14q27 8 37 12v144l8 116q0 33 31 47q43 -14 65 -53q10 -57 9 -79q-1 -21 3 -33q9 -26 6 -71q-2 -45 7 -54q0 -1 -8 -25q30 -6 71 -47q-20 -21 -27 -23t-34 -18v-35q0 -31 8 -35v-41q-2 -31 5 -97t3 -99q0 -2 10 -33l117 18q8 -8 56 -52t59 -77
q-25 -27 -90 -43l-119 -38q-4 -2 -8 -6t-6 -3l6 -39q4 -35 0 -65l8 -86v-90q0 -2 8 -10q-4 -10 -8 -31v-64q-11 -60 -21 -74t-40 -44q-10 16 -29 36q0 43 -17 82v15q4 23 -3 65t-5 66q-11 25 -9 55q1 30 1 41l-8 41q-2 4 -2 19t-6 24v33l-129 -31q-6 0 -62 -16l6 -17
q0 -10 -3 -17q-3 -6 2 -16t-3 -12q-4 -4 3 -12t1 -14q-6 -2 -1 -12t5 -17v-88q8 -41 9 -64l-6 -10q-4 -12 4 -14q2 -2 2 -10v-15q0 -14 7 -32t-7 -33q8 -12 2 -39t-2 -41l-119 -62h-35q-45 35 -45 92q2 23 -3 41t-5 38q0 22 -8 26l6 27l-6 16v92l-7 68q-2 6 -2 71
q-17 5 -89 -15q-72 -19 -101 -19l-47 6v37q29 37 40 57t51 34q40 13 138 54v160l-6 30q-4 44 3 52t1 19t-6 39z" />
    <glyph glyph-name="dollar" unicode="$" horiz-adv-x="737" 
d="M207 1047q33 -59 61 -76q4 43 3 119t-5 96q-12 -4 -32 -24t-28 -46q-9 -25 -4 -44t5 -25zM453 344q0 -4 -7 -18l7 -27q-18 -23 0 -57l-11 -25q37 12 54 51q16 8 24 18t26 42q17 31 19 34q37 61 -34 174q-9 15 -12 24q-3 8 -15 20t-15 16q-1 4 -38 47q-8 -41 2 -51
q-9 -20 -9 -24t4 -48t5 -176zM270 702q0 78 2 99l-79 71q-33 34 -41 46t-19 18q-16 10 -33 43l-26 47q2 10 -5 35t-1 39q4 14 6 39v26q43 104 194 166q11 79 11 111q0 30 6 66t10 42v25l31 16q4 -4 11 -9t12 -10t15 -13t19 -31q8 -23 2 -45q0 -3 7 -15t2 -16t1 -35l-2 -18
q1 -19 3 -23t10 -35q37 -6 66 -36q29 -31 42 -39l12 -31q-14 -35 -49 -37l-47 31h-22q2 -12 10 -72q-8 -18 -3 -24t4 -22q-1 -15 6 -65t3 -82t-1 -44t5 -28q2 -15 4 -24v-53q49 -31 124 -107t89 -90q0 -20 8 -24t30 -44t42 -108l-4 -4q16 -49 0 -104q-10 -20 -4 -24t0 -11
q-6 -6 -6 -8q-16 -57 -68 -115l-18 -24q-25 -35 -33 -39q-8 -5 -14 -15t-10 -12t-21 -18q-57 -44 -79 -48t-60 -34q2 -37 -41 -72q-6 -6 -68 -47q-35 41 -39 45v37q-8 4 -12 4l-23 -8q-16 -4 -69 -1t-70 9q-24 0 -24 18h-5l-22 6q-1 2 -25 25t-41 53t-18 60q-2 31 -8 43
t-2 47q47 -55 90 -68h18q11 -14 51 -22t68 -6h74l8 143q0 12 -1 57t5 71t4 94t3 108q5 42 5 120z" />
    <glyph glyph-name="percent" unicode="%" horiz-adv-x="995" 
d="M193 1067q35 49 41 63t16 40q10 28 15 37t5 40q16 21 20 63t9 50l-6 55q-4 2 -15 5t-16 5q-47 -33 -53 -41q-59 -72 -62 -157q-4 -23 0 -43l9 -45q6 -49 37 -72zM741 139q-68 0 -100 21q-10 12 -29 42q-18 30 -28 44l-9 65v26q0 24 -10 34q10 6 8 18q-2 13 1 21t1 23
t0 23t4 21q1 15 6 23t5 23t2 20q55 104 102 139h33l12 -23q0 -4 -7 -7q-34 -14 -66 -95q-4 -7 -6 -25t-8 -35q-5 -17 -3 -47t0 -53q-3 -23 19 -76t71 -69l31 10q0 2 2 4q33 76 33 133l6 25l-6 20q4 57 -25 95v14l-47 37l-8 22q8 18 39 44t35 32q8 2 26 5t29 5q6 -4 20 -17
t27 -15l12 -19l15 -35q6 -6 9 -18t7 -17t5 -19t3 -17q16 -45 17 -187q2 -23 -13 -37q-23 -125 -135 -178h-80zM201 971q-35 0 -99 45q-15 11 -20 29q-6 18 -17 39t-8 145q0 6 8 20q7 14 3 25q11 11 13 26q1 16 8 36t52 81q12 17 78 56q5 20 23 27q18 8 38 16t28 10
q10 2 30 8t30 4t31 -4q41 -30 51 -58t8 -56q-1 -28 1 -44q-2 -2 -8 -30l-7 -29q0 -7 -7 -29t-24 -77t-65 -133t-100 -98l-41 -15q0 6 -6 6zM334 -48q0 -20 -10 -37t-23 -42q-32 -66 -63 -59q-33 33 -66 77q-18 29 -6 78q20 63 25 98t13 49t8 28q1 15 8 24t7 36t12 44
q12 16 16 39q3 24 5 32q25 63 29 89t20 74t19 73t16 51l18 80q29 84 34 96t5 24q1 12 9 20q8 9 13 37t12 47t9 30l31 92q9 25 23 71t29 85t19 54t12 40q9 25 9 35q-1 10 13 46q14 35 24 65t18 46t28 63q19 46 42 85q33 12 51 16h21l6 -22q-2 -4 -1 -11t-2 -11t-3 -22
q0 -17 -7 -33t-15 -41q-7 -25 -20 -67t-17 -71t-30 -97t-26 -81q-20 -66 -26 -88q-7 -22 -19 -58q-12 -35 -12 -71q-6 -7 -8 -21t-9 -20q-2 -12 -10 -38t-8 -36t-3 -20t-8 -22q-5 -10 -7 -18q-1 -8 -7 -30t-10 -31q-4 -11 -8 -31t-8 -28t-5 -30t-7 -31t-8 -31t-6 -36
q-5 -16 -23 -87l-15 -66l-6 -22q-2 -3 -22 -95t-30 -116q-9 -24 -12 -44q-2 -20 -20 -80t-18 -80z" />
    <glyph glyph-name="ampersand" unicode="&#x26;" horiz-adv-x="935" 
d="M459 1396q1 -8 -11 -20t-15 -20t-23 -39q0 -5 -10 -35t-8 -54q1 -24 -7 -32l10 -10q-10 -14 -10 -17q8 -11 8 -33t3 -32t6 -22q4 -12 8 -23t7 -19t3 -12l39 45q66 76 76 86l65 74q47 53 41 106q-2 9 -2 27q-2 2 -7 6t-7 8q-14 35 -68 68q-16 8 -33 8q-10 -4 -20 -16
t-19 -15q2 -8 -12 -14t-14 -15zM260 45h35q61 8 82 23q73 50 95 70t40 26q10 18 39 45t34 34t17 15t16 14l29 33q-45 63 -57 84t-26 36q-13 15 -25 38q-11 23 -21 29t-10 8q-2 14 -22 38q-19 24 -21 37q-26 30 -49 76q-22 46 -28 54t-6 16q-1 8 -5 12t-7 11t-5 10l-29 -29
q-6 -18 -35 -52q-29 -35 -31 -47t-10 -17t-13 -12t-10 -18t-9 -21t-20 -41l-18 -36q-45 -109 -45 -180q0 -4 -4 -20q5 -2 10 -64t24 -83q19 -20 46 -73q37 -16 39 -16zM1010 33h-2l-4 -2q-48 -8 -92 19t-152 122q-2 2 -15 21q-8 -1 -14 -11t-15 -12t-21 -20q-5 -8 -9 -13
q-27 -20 -31 -26q-18 -29 -47 -48q-18 -11 -55 -41t-61 -42q-6 2 -16 -5t-30 -15t-50 -12q-30 -5 -44 -9t-72 -2t-71 12q-14 10 -46 24t-42 39q-23 18 -49 69t-32 66q-5 15 -9 48q-14 53 -6 159t51 189q2 4 3 16q1 13 15 21t10 30q12 10 25 37q12 27 36 56t31 41t19 28
t15 28q4 12 26 34q22 20 28 31t17 16q2 14 2 20q0 7 -5 21t-14 42t-21 86q-11 58 -9 70q-12 6 -10 56t2 59l8 39q-2 12 2 39l14 37q2 4 6 16t7 18q6 37 34 60q6 6 14 26t18 27q9 6 14 14t18 9q8 4 14 19t47 27q41 13 50 17q25 -6 26 -6q52 0 108 -38t60 -42q71 -71 75 -125
q1 -14 4 -19t4 -33t-13 -54l8 -9q-2 -8 -9 -20t-9 -19q-2 -6 -8 -14q-5 -8 -12 -17t-11 -16l-53 -69q-4 -4 -14 -10t-13 -9l-6 -18q-10 -8 -31 -34t-41 -36v-12l-90 -94q4 -35 11 -44q8 -9 20 -39t19 -38t15 -34t23 -49q14 -22 18 -30q3 -8 15 -20q12 -13 16 -23l39 -61
q10 -27 41 -67t39 -52l22 -33q29 12 62 68q43 -16 104 -70q-4 -4 -6 -4q4 -8 3 -25q-1 -16 -6 -20t-12 -14t-16 -15q-31 -14 -38 -47l79 -106q55 -76 95 -100v-33z" />
    <glyph glyph-name="quotesingle" unicode="'" horiz-adv-x="198" 
d="M16 1464l31 39q51 -16 100 -57q35 -55 24 -123t-34 -96q-6 0 -22 -10q-2 4 -11 8q-56 27 -77 137q-2 8 -3 26q0 18 -4 25q-4 8 -4 51z" />
    <glyph glyph-name="parenleft" unicode="(" horiz-adv-x="522" 
d="M43 346q0 16 -8 19v12q-6 41 -8 46t-1 8t4 11t3 13q-16 33 -17 57q7 73 -6 113q6 14 6 18t3 26t-5 34t-4 16q6 4 5 14q-1 11 0 17t1 18t1 30t-1 26q-2 10 4 22t2 16t1 14q4 10 2 26t3 25t5 28t3 27t5 43q2 34 16 87q15 52 18 72t10 30t7 41q11 34 25 64q6 35 90 207
q47 82 90 123l49 51q43 47 109 72l39 -15q6 -63 -29 -106q-53 -74 -61 -97t-20 -38q-11 -15 -15 -33q-3 -17 -9 -23t-16 -34t-21 -66t-19 -50t-8 -23q-1 -11 -7 -15q3 -21 -6 -48q-14 -38 -18 -75q-3 -37 -17 -68v-2q-4 -70 -8 -104l-9 -39q0 -4 2 -20t-4 -19q-4 -7 1 -23
t-7 -18v-199q10 -23 7 -56q-2 -33 5 -54q7 -20 4 -42t2 -37t10 -51t13 -52v-17q-3 -24 7 -51q11 -27 13 -33t3 -6l2 -4q0 -43 33 -117q-4 -18 7 -51t14 -54t60 -169v-6q20 -28 28 -59q9 -32 33 -91t23 -90l-18 -16q-18 -6 -62 0t-61 4q-29 14 -40 15t-17 13q-70 96 -86 149
q-15 53 -27 72t-22 66l-15 39l-14 42q-12 36 -16 54l-17 54q-2 6 -8 45q-20 53 -19 60q1 8 -1 17q-3 9 -10 28t-6 25t-2 26t-3 36z" />
    <glyph glyph-name="parenright" unicode=")" horiz-adv-x="630" 
d="M373 712v18q0 70 -11 136l-16 97q-2 7 -8 39t-12 44t-8 40q-2 27 -17 65q-12 49 -10 53t-4 11t-13 32q-6 25 -10 32t-5 25t-11 23q2 17 -7 27t-12 20q-2 10 -8 20t-6 36q-9 21 -23 50t-25 60t-19 45t-7 25q-1 11 -27 40q-26 28 -40 46t-23 28l-31 29l-32 41l45 10h12
q25 16 87 -16t76 -47q13 -14 45 -48t36 -61l4 -6q15 -12 39 -72q20 -24 30 -54t23 -58q15 -28 25 -56t26 -64t19 -52q4 -16 32 -90l9 -13q0 -20 8 -50t12 -35t4 -20t8 -20q-2 -18 8 -49t9 -45l8 -53q0 -30 16 -64l-6 -10l6 -39q0 -29 6 -37q-6 -7 -6 -37q-1 -30 5 -33t6 -7
t-7 -13t-5 -32q1 -23 1 -29l-8 -49v-26q0 -19 -3 -32t-13 -102l-8 -35q-10 -31 -8 -47t-9 -24q-2 -25 -15 -66t-15 -52t-13 -42q-10 -31 -6 -60q-4 -5 -12 -31t-21 -38q0 -30 -13 -60t-17 -42t-22 -48q-18 -35 -24 -47q-4 -12 -7 -17t-7 -10t-6 -10q-10 2 -13 -9t-6 -13
t-9 -12t-15 -13q-41 -55 -86 -73t-67 -26q-22 -7 -62 -7q29 21 39 42t19 41q10 20 14 27t6 21t4 18l12 23q0 6 -2 12t4 13t10 29t12 35t5 36q16 16 16 39l41 122v29q16 29 18 40t15 44q-2 4 -6 8q12 23 14 54q3 31 13 55t15 53q5 30 11 54t2 38q10 10 10 33l6 65q0 24 3 33
l8 64q0 4 -3 27t11 40q-8 8 -8 14z" />
    <glyph glyph-name="asterisk" unicode="*" horiz-adv-x="663" 
d="M205 1464q0 27 -8 29v180q0 25 4 33t26 29l64 -52l12 -34v-16q0 -11 4 -18t3 -19t3 -24q5 -12 7 -50t12 -58l41 31q16 14 48 38t46 36t48 34q34 23 42 29t66 35l36 16q2 0 14 -2t21 9q20 -14 24 -24t1 -24q-4 -14 -5 -38q0 -24 -14 -62q-14 -37 -43 -53l-24 -19
q-4 -16 -39 -32q-29 -25 -84 -67t-78 -62q66 -18 84 -62q2 -6 12 -22q10 -15 12 -21t-1 -26h-61q-44 0 -71 15q-28 15 -32 17l-10 -20l28 -201q-20 -39 -94 -78q-22 12 -28 40q-7 27 -10 35t-7 50q-4 44 -8 54t-3 32t-14 52l-10 -25h-20l-13 -19q-49 -25 -102 -59l-18 -6
q-66 37 -48 104q80 113 129 152q-9 15 -39 25t-58 26t-46 21q-18 6 -78 32l-12 29l66 41q70 4 102 -14q8 2 20 -8t23 -7q4 -4 19 -8q16 -4 20 -8t41 -18v32z" />
    <glyph glyph-name="plus" unicode="+" horiz-adv-x="745" 
d="M238 659h-41q-35 0 -39 -8q-8 2 -40 0t-40 4t-32 1t-46 -1t-45 4l-21 19v18l56 66q53 18 63 17q9 -1 15 0t8 2t5 -3t10 1t9 5l74 9q12 0 55 14v80q0 6 -4 18t2 32t4 68t-2 64l17 57l8 31q12 51 55 80q4 0 33 -10q2 -2 5 -7t5 -8q35 -37 35 -93t-1 -65t3 -31t-2 -26
q12 -12 9 -34q-3 -21 -2 -29t0 -26t2 -29q3 -10 7 -54l25 4q20 -4 58 2q38 7 48 7t25 4q14 4 39 -4q61 18 86 -17q6 -10 49 -63q21 -31 25 -43q4 -11 -6 -23t-27 -18q-16 0 -55 -5t-62 -3q-10 -6 -73 -7q-20 -4 -27 5q-10 4 -19 -1t-32 -5t-37 -3l31 -223q-2 -4 -9 -10
q18 -25 19 -76l8 -41l-10 -6q-9 -8 -19 -11t-62 -18t-91 -10q-14 33 -15 41q-8 106 -8 162q-4 49 -11 63t-4 23q3 8 3 10q-14 57 -14 100z" />
    <glyph glyph-name="comma" unicode="," horiz-adv-x="372" 
d="M199 150l41 6q6 -8 32 -40t33 -44q6 -12 21 -88q0 -4 -3 -12t-4 -11q-29 -96 -135 -172q-80 -59 -149 -80q-2 0 -10 -12q-10 43 -5 70q25 139 97 286q33 59 67 76q7 3 15 21z" />
    <glyph glyph-name="hyphen" unicode="-" horiz-adv-x="786" 
d="M524 852h64l33 -16l14 8q6 -2 21 -9t36 -4l68 -124v-43q-10 -12 -51 -13h-91q-50 1 -74 9t-38 8t-33 8t-59 4l-54 8q-41 0 -51 8h-8q-95 4 -113 8t-50 4q-54 2 -118 23v27l70 63l47 8h53q14 7 45 7t51 5t46 2t57 2t49 -1q22 12 50 10t36 -2z" />
    <glyph glyph-name="period" unicode="." horiz-adv-x="339" 
d="M274 -53l-53 -49q-96 14 -198 63v47l-25 21v32l90 82q28 27 48 34t31 12t19 1t38 -12t38 -22q18 -33 25 -70q4 -45 -11 -70q-2 -3 -2 -69z" />
    <glyph glyph-name="slash" unicode="/" horiz-adv-x="712" 
d="M38 -195q8 36 7 71q0 36 11 80t30 140t25 118t16 74t15 74t28 95q23 72 42 141t35 106q17 37 24 70t21 61t17 41q2 12 15 31q8 27 28 75t28 69t31 67q25 46 31 70q6 22 25 55q18 33 27 53t44 82l40 72q12 25 24 46t55 101l9 11q16 33 63 75q2 4 14 5q47 -47 48 -93
q-4 -4 -13 -22l-12 -33l-18 -33l-9 -32l-16 -37q-2 -4 -8 -14t-13 -34q-6 -24 -14 -34t-6 -14t2 -7q-8 -8 -29 -53q-27 -72 -37 -90t-21 -47t-19 -43l-31 -86q-14 -29 -18 -39q-3 -9 -8 -23t-7 -24t-16 -47t-18 -51t-10 -33q-7 -19 -7 -31t-9 -38q-10 -26 -12 -38t-12 -38
t-14 -48t-20 -79q-16 -58 -20 -82q-5 -24 -17 -59q-11 -36 -7 -44q-18 -18 -18 -94l-12 -31q0 -12 -6 -39t-5 -43q0 -2 -14 -16q10 -25 -1 -59t-11 -66q-13 -40 -19 -66t-10 -32t-4 -20t-16 -45q-16 -32 -21 -48l-21 -7q-15 -5 -24 -7l-53 -17l-54 -8q-33 25 -25 61z" />
    <glyph glyph-name="zero" unicode="0" horiz-adv-x="579" 
d="M342 694q0 35 -5 42q-5 8 -5 14t4 10q6 4 6 28v19l-10 50q0 17 -4 23t-1 11q3 6 5 6q-6 37 -6 43t-5 20t-3 36t-7 40q-10 18 -10 41l-8 37q0 23 -8 38t-9 48l-16 10q0 31 -16 35q0 -11 -6 -31t-4 -27t-8 -31t-14 -59q-5 -34 -12 -74t-14 -112v-10q-11 -9 -10 -25
q2 -16 0 -26t-5 -28t-4 -42q-1 -23 -5 -32q-4 -10 -3 -34t1 -30l-6 -59q-2 -39 -2 -115v-113q0 -4 4 -17t-2 -24q8 -10 7 -38t9 -37q-4 -18 10 -79t33 -77h29q49 49 63 123t12 86q10 8 11 24l6 58v24q2 10 0 26t4 25q6 10 -2 23l6 35v145zM531 773l12 -32l-4 -36v-162
q-1 -39 -5 -44t3 -20l-7 -24q4 -63 -6 -86t-10 -32v-16q0 -7 -6 -16q10 -2 4 -10t-5 -14q2 -13 -18 -60q-10 -51 -71 -160q-10 -16 -22 -21t-17 -11q-27 -31 -82 -37q-6 -2 -29 -10t-37 -7q-4 -8 -23 -6t-24 0q-82 39 -104 121q-4 12 -9 36t-10 36q-4 12 -5 40t-5 43t-4 60
t-6 70t-4 37v10q2 12 5 16t0 14t0 24q3 16 2 65t4 81t5 67q0 36 6 49t-4 16q-2 4 0 7q6 9 6 21v20q0 14 8 44q7 30 11 70t10 53l6 24q0 4 -2 18t10 23q8 61 31 131t31 108t18 49t11 54q-33 37 -34 68t34 82q43 0 51 -4l20 -10q26 -11 29 -27q23 -19 53 -59t50 -60t25 -40
t29 -70t21 -64q4 -6 19 -29l-11 -12q7 -12 21 -83t12 -85q11 -11 9 -25q-1 -14 2 -32t5 -18q2 -1 1 -5t-2 -7t-3 -7t-2 -8l6 -25q2 -8 0 -19t6 -17q7 -7 3 -13z" />
    <glyph glyph-name="one" unicode="1" horiz-adv-x="538" 
d="M352 1353q0 -3 2 -21t0 -39q-2 -22 -7 -59q-5 -36 -6 -70t-6 -53t-4 -60t-4 -65t-6 -56t0 -69q1 -38 -3 -157t10 -133q4 -4 0 -17t-4 -24l8 -63l6 -90l6 -37q4 -29 8 -35t2 -20q-2 -15 2 -25t8 -47t10 -47q5 -10 5 -33q4 -2 21 -2l41 -8q11 0 19 6t28 3t22 -15t20 -21
q2 -4 6 -14t5 -14q-17 -12 -13 -41t-12 -43h-29l-12 16l-49 -14q-6 -2 -22 -10t-29 -7q-12 -10 -42 -15t-36 -10q-5 -5 -25 -4q-20 2 -46 -8t-61 -12q-36 -2 -45 -11q-8 -8 -20 1q-12 8 -21 13t-11 23t-12 62q-9 43 -7 68q14 23 78 41l63 22q-2 3 -1 17t-5 16q-4 4 -4 12
q-2 8 0 21t-4 23t-5 28t-7 23v8l-14 154l-11 165q-8 35 -3 51q5 17 1 25t-6 22t-1 33q1 17 1 57t4 60t5 54t0 77t-1 66q8 24 7 28t-7 6q12 10 12 31l5 109l8 32q6 31 -6 35q-24 -16 -76 -55q-41 -25 -86 -37l-12 12q-4 43 32 99q8 8 20 26q11 18 17 27l119 162v12l33 27
q66 0 166 -45q0 -61 -2 -90l-7 -37q-6 -33 -8 -35t-2 -5z" />
    <glyph glyph-name="two" unicode="2" horiz-adv-x="671" 
d="M510 -90q-20 0 -53 -14l-23 6q-100 -18 -184 14l-135 55q-37 14 -52 62q-2 10 -14 49q0 2 8 10l-10 17q18 23 0 45q8 8 8 19t10 46q9 35 7 53q6 6 7 18t4 16q3 2 0 16t7 16l6 35q2 6 6 17q4 12 5 18t22 38q10 55 35 120q25 66 30 88t10 34t7 16t6 13q4 8 4 11v13
q-2 7 6 15t15 37q6 29 10 37t8 24t6 23l17 49q20 49 28 75l33 129q2 4 5 27t11 33q-4 20 8 55q11 35 9 53q10 10 9 75t0 77t-13 41q-14 -9 -48 -21q-35 -12 -51 -22t-46 -34t-48 -34q-4 -10 -28 -39t-21 -65q-8 -2 -16 -2l-9 4q-51 36 -24 100t70 105l32 28q55 59 129 88
l15 9t14 8q74 18 117 -8q14 -3 31 -29q16 -26 18 -37l16 -74q15 -59 8 -204l-8 -39q-2 -6 0 -18t-3 -16q-5 -5 -5 -10v-7q-4 -76 -12 -116t-11 -61q-3 -20 -11 -43t-7 -30q-23 -62 -23 -74t-10 -49t-8 -58l-8 -26q-2 -6 -10 -46q-8 -39 -16 -53t-6 -27q1 -13 -21 -81
q-11 -62 -11 -72t-10 -40l-12 -36q-2 -10 -10 -38t-11 -64l-8 -22q0 -8 -9 -54t-7 -73q51 -16 86 -2h12l99 10q29 10 34 12h37l33 6l53 -28q-4 -10 6 -34t-6 -30l10 -33l-41 -45q-45 -34 -55 -36q-10 -1 -21 -11q-12 -10 -32 -10z" />
    <glyph glyph-name="three" unicode="3" horiz-adv-x="655" 
d="M171 1565q3 0 25 10t26 8t26 -8q29 2 77 -12q48 -13 63 -29q16 -16 22 -16t10 -6t8 -14q4 -9 7 -12t7 -24l12 -6t11 -8q39 -55 54 -123t15 -77t5 -20q4 -11 1 -46q-4 -35 -10 -50q-6 -16 -5 -34t-4 -50t-5 -44q-35 -70 -41 -92t-35 -66q-28 -46 -30 -56t-25 -36
q47 -34 65 -55q19 -21 25 -27q37 -36 71 -112t46 -118l29 -100q20 -72 6 -111v-2l2 -4q5 -41 -1 -50t-16 -58l-22 -39q-27 -54 -77 -74t-67 -16h-20q-63 -3 -211 33q-45 11 -89 39t-67 61q-22 33 -26 47t-2 53q12 12 18 6q25 -47 150 -47l18 -6q25 14 49 0q18 8 62 6t63 10
q16 35 9 105t-31 117l-25 49q-55 92 -129 137q-10 14 -40 30t-40 27l-29 33q12 39 14 51t17 31q35 35 41 43t15 17q8 8 18 20t16 18q-1 24 23 43q24 18 26 21q4 23 36 74t40 88l10 45q0 12 21 61l-6 8q8 4 7 16t4 19q5 6 5 9l-8 22l4 6q0 33 -4 53l-20 51q-20 23 -63 38
q-44 15 -58 24l6 33q-22 4 -39 -11q-16 -14 -25 -16q-10 -4 -19 -24t-24 -25q-18 47 -20 59t8 68q22 18 25 29q12 6 15 6z" />
    <glyph glyph-name="four" unicode="4" horiz-adv-x="641" 
d="M360 895q0 2 -4 23l-20 -66l-21 -61q-10 -25 -12 -48l-10 -45q0 -31 -19 -39l-28 -116q0 -31 -14 -53t-9 -46q55 23 85 30t69 28v57q-6 4 -2 12t-2 19t-4 34t0 38v40q2 6 -5 20t3 17q-16 11 2 29q-8 25 -9 27v100zM541 1399q0 -13 1 -23t-1 -37t8 -54q10 -26 -6 -42
q-2 -3 -2 -119t4 -148t2 -120t3 -124t6 -86t3 -71l8 -8q3 4 68 4l12 -8l10 -57q-2 -4 -8 -12t-12 -22t-35 -34l-27 -26v-111q10 -56 9 -126q-2 -71 0 -125t-15 -95l-16 -14q-43 6 -92 55q-14 45 -37 164q-23 150 -25 164q-12 -8 -53 -20t-55 -30h-23q-43 -16 -47 -16
q-61 -14 -91 -1t-63 33t-45 23t-19 15t-9 14q3 9 12 45l10 64q2 10 15 30q0 41 17 71t18 64q20 55 23 76t11 37t16 52t23 79l23 82q12 31 26 82t14 56q0 4 13 40q11 36 25 80t18 54q4 12 11 42t26 52l-10 10q8 8 15 30q19 59 110 111q18 14 71 31q53 -53 57 -85q3 -32 3 -46
z" />
    <glyph glyph-name="five" unicode="5" horiz-adv-x="563" 
d="M135 438q0 -6 -8 -14l8 -10l10 -82q8 -70 33 -107q0 -2 6 -9t9 -11l18 -23l22 37l-8 10l19 31q-3 25 7 60l15 49q2 4 6 64t8 77q5 18 3 34t10 25q-2 6 0 29t-6 29q-2 4 -2 13v62q2 10 -4 31t-3 41t-10 33q4 20 -7 55t-11 48q0 14 -20 58t-20 52q-1 8 -26 41l-118 -8
q-29 47 -13 63q0 2 -1 12t5 41t6 69t23 75q-14 25 -6 77t33 76q87 25 98 21q12 -4 21 1q8 5 14 1t9 -3t10 4t23 3t19 3q4 3 9 0q6 -3 10 0t22 5t30 0t20 3q9 5 14 -3q4 6 13 2t12 0t15 0t15 -4h33l35 -20h40q23 -21 27 -29t-10 -39q-95 -10 -190 -54q-94 -45 -103 -54
l-37 -19q-8 -2 -22 -12q2 -2 5 -6t5 -6q51 -29 90 -80q2 -4 9 -14t9 -13l62 -129q2 -4 10 -30t20 -49q12 -22 9 -36q8 -8 8 -24l14 -90q0 -5 6 -19q5 -14 3 -34t3 -26q5 -7 -1 -15t6 -58q8 -69 1 -99t-7 -66t-2 -46t-15 -55q10 -11 10 -17t-7 -20t-9 -22t-11 -31
q-9 -24 -9 -54q-4 -10 -17 -36q-12 -53 -41 -72q-4 -41 -37 -51q-4 -14 -26 -24t-23 -11q-96 0 -135 -1t-51 11q-53 53 -56 76q-2 22 -14 27l-12 38q-4 36 -10 44t-5 24q2 16 -4 20t-4 18t-4 56t-6 49v119q0 2 5 14t0 14q-5 3 3 25q0 33 5 38t5 28q-1 23 5 33t8 33t4 30
l16 41q2 6 8 14t7 24q1 15 32 46q15 23 52 39q16 -6 28 -38t0 -47q-12 -16 -16 -28t-7 -26t-6 -24t-5 -34q-2 -22 -6 -34q-3 -12 -4 -54t-6 -49q-5 -6 -4 -10t3 -8q2 -3 0 -23t1 -26t4 -18t0 -24t-1 -18z" />
    <glyph glyph-name="six" unicode="6" horiz-adv-x="786" 
d="M477 600q-31 2 -39 1t-35 -11t-34 -12q-10 -12 -39 -34q-68 -52 -77 -124t5 -105q0 -2 -1 -6t-1 -6q-66 61 -92 121q-4 -23 -5 -27t4 -24t9 -40t25 -61l67 -53q57 -12 113 14q79 51 115 109q49 68 47 121q0 6 8 22q-8 4 -8 9q-6 45 -43 75zM378 39q-24 0 -33 3t-52 2
t-101 15t-77 45q-41 35 -56 60q-14 26 -23 51t-16 35q0 16 -11 62t-7 70t0 36q-4 14 -1 19t3 34v59q2 57 14 91q12 35 13 49q2 14 8 32t5 38q-1 18 17 36q-2 25 15 65q16 40 17 49t9 22q8 14 20 50t17 43q4 7 7 14q2 7 10 14t15 33t26 61q20 35 24 44q33 76 82 134
q21 29 29 46t36 48t44 53t29 32q13 11 25 21q12 11 28 23l24 18q29 -10 33 -10l12 -47q-29 -27 -80 -95t-52 -72t-11 -13q-10 -10 -6 -21q-18 -14 -17 -31q-17 -13 -33 -45t-28 -52t-12 -42q-15 -19 -24 -45q-10 -27 -28 -65t-30 -93l-17 -30q-4 -18 -13 -50t-11 -49
l-21 -81q-4 -12 -4 -39q-6 -27 -4 -35l53 67q45 49 89 70t100 37q2 8 13 3t15 -1q78 -4 101 -21q12 -6 22 -8t36 -19t38 -22q6 -20 34 -51q28 -32 40 -50t17 -46t10 -44q5 -15 5 -24l7 -10q-2 -12 10 -50t-12 -102q-23 -63 -43 -77q-3 -13 -19 -31t-18 -28t-16 -21
q-14 -13 -19 -21t-21 -18t-32 -29t-27 -23q-15 -5 -36 -24t-33 -21q-12 -3 -25 -14h-33l-18 -16q-8 2 -32 2z" />
    <glyph glyph-name="seven" unicode="7" horiz-adv-x="505" 
d="M315 306q0 -6 -4 -21l6 -6q-10 -15 -8 -27t-4 -54t-4 -75t-33 -76t-116 -84q-31 20 -33 49l-8 45q-3 9 -5 23t-8 30t-3 55t-6 58t-3 33t8 28t1 33q-1 18 2 47t5 34q2 4 0 24t2 26t5 24q0 17 10 24v14q-4 20 7 44t17 69q6 46 17 65q-4 14 7 41t10 42t7 25t12 42t13 47
q8 8 6 25t23 65q12 53 15 71t17 31q4 15 16 67t21 72q8 20 24 70q15 49 29 78q-16 -8 -52 -18t-46 -18t-22 -9q-12 -2 -17 -4l-88 -29q-43 -20 -80 -14l-8 16q9 12 8 33q-2 20 -2 29q14 27 45 43q81 42 109 50q27 9 41 17t46 22t42 19q10 6 16 6t10 2l23 25q133 -23 164 -45
q14 -37 14 -53t-6 -38t-11 -58t-8 -48t-10 -50t-22 -64q2 -16 -8 -45t-11 -46l-38 -129l-35 -135q0 -9 -8 -27t-6 -26q1 -8 -2 -24t-9 -33t-14 -59q-7 -42 -13 -55t-10 -59t-10 -59q-6 -14 -7 -30t-3 -21l-6 -37q-2 -4 -3 -18q-1 -13 -5 -19t-4 -25q1 -19 1 -25z" />
    <glyph glyph-name="eight" unicode="8" horiz-adv-x="794" 
d="M522 1235l-168 76q-21 -14 -39 -158q-4 -35 7 -66q20 -68 53 -86q2 3 9 7q24 15 15 28q5 4 13 12t12 11q26 41 40 57t22 35q8 20 12 25q19 9 20 31q2 22 4 28zM205 382q0 -8 4 -26q-14 -14 -14 -45l10 -90q6 -3 15 -25t30 -22q-4 -20 14 -24l31 -7q63 0 119 39
q49 29 57 43q39 17 68 59q30 42 41 52l30 84q0 2 10 24t7 25q-2 1 -3 17t1 22q10 59 -19 110l6 9l-37 53q-4 6 -15 24q-31 53 -71 72q-2 2 -19 20t-36 17q-49 -59 -64 -87q-14 -30 -20 -36t-13 -22t-15 -24t-16 -26t-17 -31q-11 -13 -35 -69t-30 -74l-12 -36q-7 -18 -7 -26z
M520 1364l55 -8q16 -2 43 -14t34 -13q7 -2 20 -14l28 -31l-6 -33q10 -16 6 -23q-4 -8 -6 -26t-8 -25t-14 -23t-13 -21l-90 -132q-55 -76 -61 -84t-10 -20l16 -6q41 -37 68 -43q0 -12 14 -18t17 -13q3 -6 17 -15t17 -18q17 -2 41 -39q8 -6 20 -23q12 -18 19 -28t21 -42
t19 -39t7 -31t0 -32q-2 -6 2 -18t3 -20t-4 -45t-17 -52t-16 -44t-27 -58q-8 -12 -36 -57t-63 -79q-36 -33 -111 -88t-179 -75q-28 -4 -52 -8t-50 7t-46 16q-20 6 -24 22q-26 12 -54 48q-28 37 -45 55t-23 55t-16 80q-1 37 19 76q-8 37 10 57q2 4 5 30t16 33q2 3 3 15t11 16
q8 30 20 50t18 35q7 15 11 19t4 21l25 27q8 30 38 74t40 61t77 108q0 18 -24 41t-50 75q-26 51 -20 147t49 159q0 19 10 29t18 19q9 9 18 19t28 21q31 4 84 9l20 -21q10 -35 -4 -41q33 -8 78 -4z" />
    <glyph glyph-name="nine" unicode="9" horiz-adv-x="587" 
d="M279 1382q2 0 26 -12l2 -6l8 -8l-24 -17q-31 6 -61 -4t-40 -22q-8 -12 -24 -31t-14 -37q-24 -21 -37 -58q-13 -38 -17 -47t-4 -26v-84q4 -4 18 -31t35 -28l66 24q2 1 9 9q22 24 50 30q2 4 2 17q4 6 17 17t34 42t23 90q2 58 -3 76t-1 30t4 15v92l29 51q76 -2 149 -30
q4 -4 3 -16t8 -17q20 -60 2 -90q-4 -7 -1 -23t-3 -47q-7 -31 -7 -40t-16 -34v-102q0 -29 -5 -34t0 -29t1 -48q-4 -22 2 -30t-6 -31q10 -12 10 -20l-10 -39v-64q25 -20 35 -31q-11 -51 -11 -96v-61q0 -29 -4 -32t-4 -13q10 -37 6 -44t-4 -36l6 -19v-10q-12 -27 -9 -61
q3 -33 3 -73t7 -58t-25 -60l-33 -29q0 -49 -10 -61q-13 -7 -34 -21q-47 -32 -77 -32l-18 26v62q2 33 -18 103t-14 101q7 30 7 35q-10 45 0 84v7l-10 25q0 3 4 10q4 8 5 16t0 14t0 13t1 13v66q12 0 8 12t-2 17q14 23 -6 47q10 4 9 36t-1 36l25 32v48q0 16 6 29t-8 65
q-4 -2 -20 -9t-27 -17t-63 -21q-52 -10 -96 3t-89 68q-12 14 -23 46q-10 32 -16 44q9 13 0 15q8 12 8 27l-2 30q0 41 16 74t23 51q6 18 19 27l2 10q6 12 17 24t19 25q8 14 27 24q17 9 31 15t24 11t91 5z" />
    <glyph glyph-name="colon" unicode=":" horiz-adv-x="299" 
d="M264 1002q0 -6 -6 -13q-18 -12 -41 -44t-37 -42q-8 0 -34 2t-50 -10q-39 27 -43 37q-23 41 -16 86l39 35q0 30 22 47q22 16 25 18q12 0 34 -15t38 -13l61 -58q8 -24 8 -30zM37 514q0 16 7 40t46 46q20 -4 52 -23t49 -27t34 -33q18 -25 25 -34v-45l-80 -63
q-23 -14 -41 -13h-23q-27 6 -42 29t-17 25q-10 82 -10 98z" />
    <glyph glyph-name="semicolon" unicode=";" horiz-adv-x="282" 
d="M57 242q-8 16 -16 24q6 16 7 49t4 44t17 73t48 103l84 -43l22 -33q16 -54 11 -67t-11 -36q-41 -63 -135 -108q-2 -2 -31 -6zM244 967q0 -33 -31 -43q-8 -2 -32 -14t-40 -5q-98 33 -141 58l-10 41q2 0 9 20t31 32q24 13 50 33q26 19 63 37h7q6 -2 34 -8t36 -18
q9 -12 24 -41v-92z" />
    <glyph glyph-name="less" unicode="&#x3c;" horiz-adv-x="563" 
d="M455 551l-45 10q-15 0 -31 8q-15 9 -23 11t-22 11t-21 11l-86 43q-41 10 -64 24q-23 13 -63 24t-55 22q-14 11 -43 30q0 2 -8 20t6 38q16 14 56 51t64 51q22 13 40 25t43 26t86 65q61 52 77 61q16 8 25 16q10 8 35 4q33 -57 -27 -117q-20 -25 -55 -51q-2 -2 -7 -14
t-18 -11q-4 -2 -14 -15t-35 -34l-32 -24q14 -12 49 -22t49 -23h18l54 -29l55 -25q6 -4 51 -24q27 -36 37 -94t12 -70l-22 -10q-35 -2 -86 12z" />
    <glyph glyph-name="equal" unicode="=" horiz-adv-x="995" 
d="M666 872q23 0 32 -6q27 12 37 0q43 0 64 -45q4 -12 19 -37q15 -24 14 -32t6 -15l-9 -16l-36 -10h-164l-41 8l-61 6l-116 14q-22 0 -35 3q-12 4 -72 10t-90 7t-45 5q-29 8 -68 5q-39 -2 -105 11l-29 25v16l92 82h250l23 -6q4 0 33 4q15 -8 37 -5t42 -4t27 3l115 -12
q24 1 40 -5q17 -6 40 -6zM381 340q-4 0 -41 4q-25 -12 -47 -5q-21 7 -35 7h-36l-54 6q-18 0 -25 10q-10 -2 -44 6t-42 13l-65 49q-2 27 28 37q94 19 119 29h43q22 0 25 4q4 4 22 3t23 7h28q24 0 34 5t28 4t27 5h2l148 13q28 0 43 4t45 5t46 4q15 3 51 4t66 5t82 4l18 6
q6 -2 48 -9t61 -23q3 -37 -19 -81q-22 -43 -26 -55l-37 -30l-49 -9q-6 0 -30 2t-27 -4q-13 -2 -29 -2t-45 -4h-8q-4 0 -14 -4t-15 -2q-4 6 -15 2t-17 -3t-16 1h-16l-114 -8h-121z" />
    <glyph glyph-name="greater" unicode="&#x3e;" horiz-adv-x="546" 
d="M-63 1065q23 39 92 39q12 -4 42 -24t52 -23q6 -4 22 -21q4 -2 35 -12t43 -23q16 2 43 -11t41 -14t40 -11q26 -9 41 -11t45 -11t44 -13q2 -2 10 -11t13 -14q10 -47 8 -61l12 -62l-14 -12q-29 -41 -34 -43t-16 -17t-26 -16q-4 -14 -32 -30t-31 -33q-19 -6 -39 -28t-29 -28
l-72 -65q-31 0 -32 -21l-37 -10q-73 30 -92 49v37q4 16 28 41q25 25 31 41q0 10 14 11t48 42q34 40 42 48t54 43l36 24v16q-12 8 -18 11q-100 31 -156 65q-14 -3 -31 13q-16 16 -22 18t-42 22t-50 36q-14 15 -18 16q-31 12 -45 53z" />
    <glyph glyph-name="question" unicode="?" horiz-adv-x="497" 
d="M113 67v56l26 33h47q18 -12 74 -47t62 -46q4 -8 7 -22t5 -18v-29q-70 -56 -86 -68l-47 43h-49l-29 25q-10 52 -10 73zM-8 1206q0 43 33 125q4 7 14 17t13 16t10 14l12 16t16 16q10 9 15 14t20 16t33 23q18 11 32 23t52 27q39 15 47 19q12 -2 55 -1q42 1 64 -8t25 -15
t19 -20q16 -16 17 -26q0 -12 18 -30q15 -60 15 -93t10 -36q-13 -23 -9 -73q4 -49 -22 -102q-2 -2 -4 -30t-41 -133q-20 -66 -26 -78l-21 -35q-1 -6 -3 -28t-12 -32t-12 -17t-1 -13t-1 -14q-18 -14 -20 -39t-14 -43q-37 -55 -33 -144q6 -18 12 -39l8 -32q4 -14 4 -84h-38
q-12 6 -61 23t-73 39q-24 21 -35 27t-20 25q-49 45 -29 111l25 74q2 8 25 106q22 18 31 42q10 23 18 37t28 58v4q0 4 14 17t28 52q15 38 32 68t19 46t26 75q21 61 21 69q2 23 11 48q10 26 3 38q-6 12 0 22t1 20t-3 16v25l-18 12q-56 -16 -62 -20l-18 -12q-12 -9 -16 -15
t-22 -15t-22 -17t-24 -25q-20 -16 -27 -25q-6 -10 -28 -45t-42 -108q-2 -4 -14 -17q-55 41 -55 84z" />
    <glyph glyph-name="at" unicode="@" horiz-adv-x="1292" 
d="M465 684q0 -102 14 -144t45 -53q27 45 39 78q27 57 25 94q10 5 11 19t4 19t3 21v21l6 37q7 101 9 111t2 82q-51 -8 -76 -47l-33 -62q-41 -87 -41 -126t-8 -50zM886 459q-13 6 -30 6t-28 14q-11 13 -17 19l-8 8q-1 2 -17 13t-16 20q0 10 -11 20t-9 17t-6 17q-9 9 -11 13
q-18 -39 -20 -43q-14 -63 -92 -141q-51 -51 -140 -23l-26 13q-29 12 -41 20q-6 6 -24 38t-25 112q-6 80 26 182l17 39q2 4 5 23t58 98q15 25 25 35t41 30q5 0 35 9t49 6v61q23 31 33 36q81 43 122 38q10 -9 14 -29l5 -25v-14q-4 -25 -4 -38t4 -42v-41q0 -29 7 -46t17 -56
q9 -39 19 -51q10 -11 14 -31t11 -28t15 -32q8 -22 13 -30l18 -27v-14l33 -41q36 -24 53 -26q16 -2 27 15q10 17 16 21q10 12 28 37l20 30q4 5 21 51t9 69q3 46 -9 80q-13 34 -13 61q-4 12 -3 20t-9 20t-9 19v4q-10 13 -10 27t-7 24t-14 23q-6 14 -10 21l-26 43q-2 2 -2 18
l-17 6v19l-18 6l4 14q-10 0 -18 11q-7 11 -21 26t-19 19l-14 14l-22 22t-29 15l-16 24q-8 2 -21 2l-10 17q-8 2 -39 12q-78 31 -135 6q-21 -6 -29 -11t-20 -8t-20 -9t-38 -28q-32 -22 -64 -54t-46 -53q-14 -20 -19 -21q-15 -12 -31 -47t-36 -56q-39 -89 -52 -124
q-12 -34 -14 -38q8 -4 1 -13t-5 -12t-9 -30t-10 -45t-5 -55t-7 -45q0 -7 -3 -21t0 -34t-1 -27q-4 -9 -1 -25t3 -18l10 -72q22 -131 39 -151q82 -117 107 -125q116 -55 178 -58l98 9l78 10l72 33q4 0 16 -5q8 4 25 19t44 24q26 10 49 34t39 34t23 21q8 11 27 30q10 -8 16 -9
t8 -11q1 -10 5 -36t-13 -51t-57 -102l-8 -6q-8 -2 -4 -12q-10 -8 -50 -42t-84 -54q-43 -20 -59 -32t-42 -14q-26 -3 -83 -18q-39 -6 -117 -6q-157 0 -280 74l-49 43q-12 12 -33 40q-20 27 -24 31t-12 14t-12 13q-6 2 -11 19q-5 16 -19 41q-14 24 -19 34t-5 41q-6 2 -15 2
q-4 33 -18 86l-14 23q8 16 8 22l-10 66q-13 46 0 123l-13 18q20 60 23 66l-6 14q10 53 4 66q10 14 10 16l12 45q8 39 36 110t44 95l19 24q23 33 24 45q4 13 18 31t19 27q18 14 46 49l36 45q8 8 33 37t43 39q17 11 45 39l47 30q27 18 38 20t18 6q7 3 17 7t13 6q86 27 152 17
h38q3 0 13 -4t19 -2t44 -15t76 -35q7 -10 25 -20t32 -23t26 -23q13 -8 22 -24t20 -20l18 -25q21 -42 47 -57q5 -2 5 -10t8 -11q10 -2 10 -15t20 -37t31 -59q12 -35 28 -59q17 -23 16 -44t18 -52l4 -14q8 -12 8 -43l10 -35q-6 -18 6 -33q-4 -70 -7 -90t-4 -46t-48 -103
l-19 -35q-25 -20 -26 -27q-4 -25 -43 -45q-54 -35 -58 -36t-49 -7q-6 -4 -21 -8t-20 -8q-10 4 -32 -1t-36 1z" />
    <glyph glyph-name="A" unicode="A" horiz-adv-x="712" 
d="M346 809l-6 47l-16 82v18q-10 16 -18 52t-11 49q0 -5 -5 -21t-7 -26l-7 -45l-10 -50l-8 -30q0 -31 -5 -47t-6 -34t-4 -28t-4 -27t-3 -23t-9 -58q-8 -35 -11 -72t-7 -49t-4 -38l-12 -128q-1 -8 -5 -13q-4 -4 -5 -16t0 -25t1 -20q45 20 123 43t139 47q-12 49 -15 59t-5 30
q-2 22 -5 31t-7 29t-10 36t-18 62l-20 82q-9 36 -20 83zM414 1277q0 -9 2 -13l12 -68q2 -8 4 -22t6 -26t12 -45q8 -34 11 -46q4 -13 6 -31t5 -30t7 -44q4 -33 9 -47q4 -14 6 -37t4 -30q14 -15 14 -19v-15q0 -18 8 -30q-2 -20 27 -92q4 -45 8 -68q14 -27 25 -94q0 -23 6 -33
t7 -20t3 -13t8 -32l6 -21l31 -161q4 -8 3 -18t6 -41q7 -30 3 -46q0 -2 9 -10q-8 -19 -18 -67t-26 -70h-26q-12 12 -39 36t-47 44l-27 174q-175 -39 -198 -40t-111 -16l-10 -8q0 -55 -18 -117q-18 -61 -23 -75l-33 -31q-16 12 -27 25l-4 -5q-12 51 -10 75t-3 28t0 13t-1 13
q-2 4 1 12t-5 11q-2 2 3 10t-3 13q10 26 8 70t2 85t4 46v25q0 26 5 39t3 19q-3 6 5 18t-3 17q8 12 7 41q-2 29 4 36t6 11v4q4 61 6 77t10 21q-2 0 -4 5l-4 2q8 32 8 36l8 50v18q2 16 6 28t7 37q2 26 4 31l8 35q6 33 6 35l19 115l8 24q4 23 8 64q14 70 20 84t8 29q1 15 8 41
t9 46l14 66q3 33 27 39t58 16t53 15q25 -39 25 -49t4 -36q5 -26 2 -46q-2 -20 6 -32q8 -14 10 -20t2 -15z" />
    <glyph glyph-name="B" unicode="B" horiz-adv-x="555" 
d="M213 582l6 -50l10 -110q2 -4 1 -12t2 -14q2 -6 4 -15q2 -10 1 -17t0 -39t5 -41q4 -10 1 -20t0 -20t2 -45t3 -58q86 133 81 188t-1 71t-3 42t-7 42q0 14 -6 22q-7 8 -18 35q-12 27 -18 34t-14 22t-27 26q-18 10 -22 14v-55zM172 994v-38q0 -28 6 -34v-66l15 -12q2 6 11 26
q9 19 13 35l27 68q4 10 10 40t13 41t12 48v16q2 14 5 20t-3 46q4 2 4 7t2 25t-8 33q0 2 4 25l-15 55l-15 20t-22 29l-61 31h-39l16 -198q-1 -28 3 -39q4 -10 5 -38t6 -41t4 -42t3 -38t4 -19zM53 1454q23 -2 30 -2t47 15t92 7t81 -38q6 -6 28 -25t38 -43q4 -12 24 -43
q-2 0 -8 -10l14 -10q0 -18 7 -78t3 -91q-5 -32 -1 -36q-8 -8 -6 -26t-4 -22q-5 -5 -5 -32l-8 -27q-11 -63 -59 -174l-25 -65q35 -31 46 -35q11 -3 25 -19t23 -20q23 -10 37 -41q4 -6 12 -13t11 -12l20 -24v-27l27 -20l6 -58q2 -6 9 -21t7 -38t5 -31t0 -17t3 -13
q-12 -20 -2 -37q-8 -6 -6 -20t-4 -20q-6 -4 -5 -18t-4 -20t-7 -20t-4 -18q-2 -5 -7 -19q-5 -13 -9 -21t-12 -23q-7 -15 -18 -25q-12 -11 -12 -24q-84 -92 -159 -114l-54 -9h-57l-10 25q-33 22 -47 30q-15 10 -24 32t-9 37t-2 22l-8 25q0 10 8 18v289q0 10 -5 30t-2 50
q3 31 -2 47t-5 49l-17 218q0 40 -2 60q-4 19 -5 63t-7 77t-4 77t0 74v178q11 15 10 36q-2 22 -2 28z" />
    <glyph glyph-name="C" unicode="C" 
d="M104 1100l23 86q0 14 10 18q-3 26 13 56t34 83q23 51 70 107q8 8 59 21t60 20l10 -8l8 6l25 -21q18 -10 28 -38t15 -54q4 -24 8 -29t-6 -20q4 -8 8 -12q-15 -15 -23 -29l-36 31l-21 45q-14 -16 -18 -27q-30 -39 -35 -62q-4 -23 -14 -46t-12 -37t-12 -45q-9 -31 -18 -87
t-16 -71q4 -14 -2 -41q-6 -28 -5 -46t-5 -66t-5 -74q1 -25 1 -150q0 -2 -8 -18q6 -6 8 -12l8 -86q0 -34 5 -48t6 -30t3 -24t0 -31q-2 -22 2 -31q31 -111 66 -152q2 -4 5 -11t5 -11q8 -2 16 -14t21 -9q12 16 34 55t48 62t76 33l16 -23q0 2 2 2q17 -55 19 -64t1 -38t9 -35
q-12 -18 -25 -42t-26 -36l-19 -24q-4 -7 -19 -19t-20 -24q-6 -10 -17 -10t-36 -15q-32 0 -56 -2t-52 11q-28 12 -57 22q-31 10 -55 20t-52 52t-50 112t-21 80t-7 37t-8 63l-17 90l2 43q0 69 -4 85t-4 57l6 18l-6 20v5q8 28 8 68v65q0 15 4 29t2 26t6 18q7 5 5 14t8 93
q16 86 20 95q4 10 4 24z" />
    <glyph glyph-name="D" unicode="D" horiz-adv-x="655" 
d="M217 913v-32l8 -25q0 -25 -6 -29q6 -18 6 -20v-133q0 -4 6 -29q-4 -25 -4 -27q12 -16 4 -22t-1 -12t3 -11l-10 -10q23 -18 0 -37l13 -14l-7 -8l4 -25q-8 -6 -8 -33v-69q0 -21 -3 -27t2 -15t-1 -19t-6 -56v-8q-8 -8 -8 -26v-21q-8 -25 -8 -53l-8 -29q0 -12 -3 -23
q24 18 58 52l-6 8l49 61v19l16 14q6 29 15 38t24 47q14 37 26 59t9 51l12 10l19 67l18 82q2 4 1 16t5 15q4 4 -1 12q-5 9 0 13t6 15t4 15t-3 21q4 12 4 23v44q0 33 3 47l2 31q0 7 -11 84q-12 33 -2 35q-8 6 -7 23q1 16 -4 22t-1 10v4q-2 8 -9 31t-12 47t-22 71
q-17 46 -21 55t-4 14q0 6 -11 16t-7 18q-39 74 -90 131q-18 18 -80 54q-2 -3 -2 -9v-15q0 -20 5 -31t6 -30q1 -20 4 -30t3 -40l17 -161q0 -31 6 -47q-4 -38 2 -104t6 -95zM94 928q-12 12 -8 71v123q0 43 -6 59t-4 58q2 43 2 57l-8 25q12 18 4 42t-3 33t5 52q4 37 -6 49
q2 2 6 24t16 31q4 -2 12 -5t16 -7t33 -12l57 -19q71 -24 148 -110t134 -224q16 -42 29 -76q13 -33 19 -55t14 -56q9 -34 9 -50t4 -30t2 -27q-2 -12 5 -16q6 -3 6 -13l8 -86v-88q0 -16 -6 -54t-2 -59q-6 -10 -10 -38t-15 -42q2 -10 -3 -27t-10 -49q-5 -31 -34 -93t-29 -70v-6
q-4 -6 -17 -21t-13 -26l-19 -50q-4 -8 -17 -23t-23 -35t-32 -38q-20 -19 -26 -35t-33 -41t-31 -31t-29 -21q-25 -14 -34 -23q-51 -2 -103 22q0 20 2 31h5l-7 14q-23 16 -33 50q-11 33 -16 40v31q0 20 -4 22t0 12q3 10 1 22q-2 11 11 63v14q3 17 7 27t6 36t3 46t5 25t-4 30
q12 23 8 59q0 44 4 50t4 22v375l-6 28q0 6 6 13z" />
    <glyph glyph-name="E" unicode="E" horiz-adv-x="473" 
d="M195 752q-2 -18 -2 -66t8 -59q-8 -10 -8 -16l10 -31q-2 -18 -2 -60q6 0 20 -2t25 8q14 -6 42 -5t39 -2t29 -6t33 -15q23 -35 4 -107q-8 -6 -23 -14t-22 -12q-90 -8 -135 10l-10 -15q2 0 8 -6q0 -6 -7 -7t5 -7v-23q0 -61 2 -92v-6q14 -14 5 -24q-9 -9 -7 -19t12 -31
q109 1 126 9t29 4t38 -4t28 -2t4 -10t9 -19q-5 -11 -15 -21t-14 -53t-16 -53q-23 -6 -112 -10t-114 -15h-45q-12 9 -42 21t-35 22t-5 15q0 4 -10 14t-2 64q8 55 9 61t-1 44t6 46q-9 13 -8 35q2 22 2 29v67l6 31l-6 18v101q0 4 5 19t-1 20q-6 4 -5 62t1 66t-4 31l2 27v33
q0 2 2 6v4q-14 27 0 57q2 4 1 14t-3 11q-10 4 -2 10t6 9q-2 2 -4 12t-6 14v115q0 4 -2 16t10 25v4q0 4 -7 19t1 20q8 12 6 23t0 20v45q0 4 -8 20l16 29q-16 8 -7 50t6 62q-4 20 10 46q14 28 14 30l41 33l100 10q9 0 53 -3t57 0t26 -2t32 -5q4 -2 15 -27q-14 -51 -21 -55
q-12 -2 -35 -7t-45 -3q-12 -8 -48 -4t-48 2q-8 -12 -14 -19l6 -20l-10 -25q0 -8 -5 -37q12 -11 6 -44t-1 -40v-141l2 -22q0 -12 -9 -19q8 -31 7 -37q-8 -18 -1 -49t-2 -110l-4 -7q6 -25 7 -26q-8 -8 2 -49z" />
    <glyph glyph-name="F" unicode="F" horiz-adv-x="538" 
d="M270 489q4 7 39 7t41 3t45 -1l13 6l88 -68v-43l-117 -37q-4 -2 -23 0t-63 -5t-64 -5q-12 -20 -12 -78l-8 -53q0 -7 1 -27t-2 -26t-4 -24t-6 -31q-5 -12 -5 -32q1 -20 -5 -30t-5 -15q1 -4 -4 -28t-27 -43q-43 27 -50 82l-8 35q-6 29 -8 30v99q0 31 -5 35t1 13t4 13t-4 10
t-4 11q4 16 7 23q3 6 -1 18t-1 18t3 45v639l-8 33l8 8q-20 39 -2 76q-10 20 -8 67t-6 68q2 20 -19 131l-31 27q-6 16 15 28q82 50 105 56t61 10l55 8l49 6q14 4 84 8h41q6 0 17 6t18 7l51 4l41 -27q-4 -41 -8 -114l-57 -23q-6 -2 -18 5t-32 0q-22 -7 -40 -7t-32 -7
q-13 -7 -26 7q-18 -18 -36 -15t-36 0t-26 1l-37 -13v-26q8 -8 8 -35v-59q8 -45 7 -124t3 -119q6 -60 6 -167v-311l-8 -52q25 0 32 4t13 -2z" />
    <glyph glyph-name="G" unicode="G" horiz-adv-x="647" 
d="M414 377q0 10 3 17q3 8 8 18t5 61l8 49q2 14 -8 56l-20 38q-26 -14 -50 -24t-75 -10l-21 16v84q25 29 29 33q4 2 15 12q10 10 18 14q8 5 18 15l12 12l43 29l76 -9q16 -10 57 -30q-4 -25 15 -45q37 -61 43 -258q-6 -15 -8 -51t-17 -54q-1 -28 -17 -68t-16 -42t-12 -24
t-14 -30q0 -10 -13 -24t-14 -25q-6 -8 -38 -51t-45 -53t-20 -17t-26 -12q-15 -36 -65 -20q-11 2 -31 3t-64 14t-64 27q-20 15 -50 60t-36 56q-5 10 -6 30t-8 42t-3 42q-10 14 -12 41q-1 27 -6 35t-3 42t2 42l2 16q0 7 -8 17l10 61q-2 2 -4 6l6 25q2 14 2 45v45q0 29 8 90
q8 0 7 12q-2 13 0 17t0 16t0 17t5 27t7 29t4 27t5 26q5 7 5 19l8 42q1 15 5 23t6 22q2 15 7 27t19 71q24 62 40 110t52 112t68 106q33 42 113 65l32 4q53 -20 82 -53q5 -6 5 -13t11 -25t18 -52q7 -33 8 -36t-16 -19t-11 -21q-2 -2 -8 -13q-16 -29 -52 7q-12 25 -22 34
t-21 29q-10 -2 -18 -3t-13 -4t-10 -5q-8 -12 -27 -9q-19 4 -25 -8t-23 -38q-15 -26 -21 -46t-14 -30t-10 -24t-6 -22q-4 -6 -9 -26q-4 -20 -10 -30t-11 -28q-6 -18 -10 -26t-5 -24t-6 -29t-10 -32t-5 -27t3 -33t-7 -41v-12q0 -4 2 -18t-5 -20t-5 -20t-6 -17t-4 -23
q5 -20 -2 -66t-7 -58t-5 -23t1 -21t6 -25v-111q0 -62 6 -82t8 -54t15 -57q14 -22 17 -23q14 -5 28 -15l6 -2q6 0 6 -2l23 -15h39q12 12 29 18q16 6 24 21q8 17 23 33t35 64t20 57z" />
    <glyph glyph-name="H" unicode="H" 
d="M465 1370q0 -14 7 -52t3 -58q6 -12 5 -32t3 -34t3 -40t2 -40t1 -46q-1 -32 3 -47t4 -43v-34q0 -31 4 -88q8 -10 7 -30t3 -25q4 -6 -1 -18q-5 -11 3 -48t10 -75t13 -58v-22q0 -2 -1 -22t4 -26t4 -19t5 -19v-5q-4 -14 1 -42q5 -27 3 -39t2 -36t4 -32t8 -16l-6 -7
q4 -16 4 -20v-25q0 -20 3 -23t1 -21t8 -23v-19q-4 -49 -4 -64t-2 -29t9 -19q-8 -6 -9 -31l6 -27q-16 -16 -64 -32t-54 -19q-14 2 -47 2q-26 36 -23 87q2 52 0 82t-2 54l2 78q0 4 -4 18t-1 30t-7 26v16q4 23 0 67t-2 64l-137 -22q0 -47 -2 -63t-1 -44q2 -29 -4 -34
q14 -7 8 -33q-5 -27 -1 -61t4 -50t-6 -19t-5 -6q0 -3 7 -12t-3 -32t-4 -33t7 -17l-11 -34q0 -5 -20 -11t-49 -9t-37 -5h-49q-12 18 -12 34t1 44q1 29 11 70t10 176q4 68 8 202l-6 60q0 56 10 84l-6 14l2 43q0 23 -4 26t4 25l-4 21l2 76q0 20 -4 23t-2 7q14 10 7 43t-4 46
t3 49t-6 49q10 18 8 22q-10 14 -6 30t3 24t3 12t4 16t-6 31q8 6 9 35t34 61q10 14 29 8q29 -18 24 -49q0 -12 5 -47t-1 -47q10 -17 9 -39q-2 -22 -2 -31l6 -30q0 -2 -1 -14t6 -13q7 -2 1 -8q-6 -17 -1 -63t5 -62l8 -160l6 -14l-6 -6q8 -13 8 -119v-60l13 -10q121 23 131 27
q6 6 -1 21t-8 22q8 35 -6 47l13 12q-8 8 -11 13l-6 51q0 6 3 20t-1 60q-4 45 -3 57t-5 33v12q0 10 -6 14q0 37 2 56l-4 22q6 12 3 16t-4 12t0 15q1 6 -1 14l-2 21q-4 16 -4 20l2 27v25q-10 33 -2 44t3 23t-5 19l4 84l-4 22l6 35q4 41 24 66l33 32q4 -4 14 -13t17 -20
q6 -12 16 -19t15 -27q6 -19 10 -30q4 -12 4 -26z" />
    <glyph glyph-name="I" unicode="I" horiz-adv-x="299" 
d="M193 1255q-1 -4 5 -12t1 -16q-8 -3 -2 -13t2 -18t0 -27l4 -69q0 -8 -2 -33t2 -32t4 -48v-47l6 -49q0 -4 -2 -26q-2 -23 1 -29t3 -72q6 -49 6 -53q0 -5 -2 -25t4 -32t2 -62l6 -60l-2 -44q0 -11 4 -24q5 -13 3 -44t0 -47q8 0 4 -94l-4 -97q0 -8 8 -24l-11 -11l9 -16
q-16 -25 -7 -35t3 -20t-2 -45t-5 -58q-12 -15 -55 -30t-52 -19t-28 -4q-12 16 -14 26t-6 40q-10 18 -5 119t5 122l-4 95q0 6 3 46t-1 51t-2 56t0 63t-2 57l-8 111q1 42 1 54l-6 49v53q-4 14 -3 41t-2 44t-2 57t-2 64t-1 74t-3 90q-6 40 0 144t26 152q70 -18 106 -47
q16 -15 16 -37t4 -91q3 -69 -3 -89v-9z" />
    <glyph glyph-name="J" unicode="J" horiz-adv-x="446" 
d="M387 856q-14 -51 -14 -131l-6 -35q-2 -6 0 -17t-6 -41t-7 -48q-8 -2 -5 -10t0 -28t-5 -24l-6 -41q0 -8 -8 -32q4 0 4 -7q-10 -41 -8 -53q2 -13 -11 -20q8 -8 9 -12l-11 -19q0 -33 -5 -41t-9 -51l-12 -47q-4 -39 -11 -45v-4q0 -34 -15 -74t-20 -57t-46 -56t-89 -39
q-2 4 -6 14t-8 16q-4 7 -10 13q-6 5 -8 13t-2 17t-3 17t-29 38t-24 46q-10 6 -8 19q2 12 2 16l-6 31q-10 25 -10 108q-4 27 5 74q9 46 9 68t17 45l49 -39q10 -6 13 -110t22 -105q6 0 12 6q12 17 12 35t2 30t6 49q5 38 9 52q4 13 7 33t9 38t8 62q2 45 8 63q4 17 6 55t10 64
t14 113q5 86 13 100q14 17 5 37t-5 37l2 55v66q-2 6 0 30t-8 29q5 16 0 34q-4 19 -8 45t-18 67l-9 6l-8 -6l-8 6l-115 -17q-14 28 -11 57t3 40q45 18 80 14q9 10 27 13t28 6l60 12t75 20h39l52 -47l-58 -47q31 -98 33 -137q8 -9 7 -29t1 -32t0 -32q-2 -22 0 -32t2 -101
q0 -4 8 -16l-10 -10v-41q-4 -31 -1 -37t-2 -20q-5 -13 1 -19z" />
    <glyph glyph-name="K" unicode="K" horiz-adv-x="571" 
d="M516 1312l-22 -146q0 -12 -4 -17q-4 -6 -5 -39q-15 -21 -19 -63q-5 -42 -13 -55t-9 -46q-12 -10 -20 -58t-16 -63q-8 -16 -11 -31q-2 -15 -10 -24q-1 -12 -17 -63t-25 -82t-27 -81t-31 -110q-20 -20 37 -85q24 -26 32 -44t39 -48t43 -47t46 -48t42 -39v-23
q-58 -58 -88 -71q-30 14 -72 54q-42 41 -54 59t-20 28q-25 35 -56 98q0 -20 -12 -55t-11 -47q0 -12 -20 -125l-70 -70q-24 -3 -37 17l-8 14q-16 76 -9 94t6 40t9 26v4q-4 18 5 77t5 308q-4 248 -8 285q16 16 7 30t-9 29q0 195 -3 221t-4 98q-1 70 -3 96t4 63q6 38 6 50l8 9
l2 -2h4q35 -12 35 -50q0 -16 4 -34t2 -34q-2 -15 11 -26v-8q-4 -29 2 -81q6 -51 8 -107t5 -73t3 -50t7 -49t5 -58t8 -55q-12 -5 -4 -21t4 -32t4 -43q8 -28 9 -84q6 12 14 47t23 51q0 12 10 31t12 44q3 26 12 47q10 22 15 55t10 45q6 11 16 49t18 58q9 19 15 54q6 34 19 70
t15 80t9 58q6 12 9 30t7 34t5 37l2 31v33q0 29 24 45l101 -54v-32q1 -29 -5 -32t-6 -8v-7l-6 -54q-4 -8 -4 -25z" />
    <glyph glyph-name="L" unicode="L" horiz-adv-x="505" 
d="M262 940v-70l-2 -10q6 -12 3 -49t0 -50t0 -37t4 -56t3 -54q-4 -20 -1 -51t3 -43l-2 -53q0 -7 3 -25t1 -28t-2 -22l2 -48q0 -27 -2 -36t2 -19q4 -11 1 -17t3 -35t-2 -38q-1 -4 9 -35q-2 -2 -6 -14q8 -2 10 -3l45 23q61 8 88 8l70 -61l-11 -13q0 -12 4 -32q-14 -29 -41 -48
q-28 -18 -68 -38t-57 -31q-142 -20 -186 -18l-29 26q-6 55 -6 61v54q0 25 11 55v8q-4 21 1 59t3 54q6 8 4 26t0 27q2 7 1 37t5 49q6 4 4 26t1 53t5 36v14q-6 37 4 45q2 5 -5 11t-4 10t2 23t1 57t-2 51q4 6 2 26q-2 19 1 27t1 26t2 29q4 12 -6 101q0 16 3 26t0 22q-3 11 2 16
t5 14q-14 14 -10 29t4 29t4 19v17q-4 94 -4 110l6 99q3 47 13 96t14 74t35 92q16 27 49 33l24 -43l-12 -41v-70l-4 -47l4 -29q0 -6 -6 -12v-4l2 -98q0 -90 4 -109q-6 -12 -4 -44q2 -31 -1 -53t3 -48t4 -38t-2 -28z" />
    <glyph glyph-name="M" unicode="M" horiz-adv-x="987" 
d="M162 915h6q10 41 24 78t22 66q7 29 13 37t5 21q-2 13 4 17t7 16q1 11 6 19t8 31t9 38t14 50q7 35 11 45q25 51 63 74l23 14q20 -10 27 -35q6 -24 12 -42t6 -52t6 -78t2 -69q10 -17 8 -40t-1 -33t6 -25q5 -14 2 -32t10 -28v-8q-4 -20 2 -60t6 -59l8 -45v-18q2 -17 5 -25
t3 -59l13 -8l4 2q0 26 2 33q2 8 0 20t4 15t4 21t-2 21l8 33q4 20 8 35l-6 6l6 39l8 35q2 6 0 14t3 12q6 5 6 13t-1 28t9 23q-8 4 -2 18t2 21q8 10 9 34t8 40t7 42l9 27q0 16 13 59t13 58q16 41 36 55t48 43h27l26 -31v-18q1 -15 7 -21t4 -18t2 -15q5 -4 9 -71t19 -96v-2
q0 -77 10 -118q10 -42 7 -58q-2 -16 8 -25v-2q0 -83 10 -115t8 -50t5 -39q8 -21 10 -73t6 -63q4 -9 3 -27t9 -24v-2q8 -115 16 -140l-2 -22q0 -20 6 -20t5 -18q0 -18 7 -62t13 -94t12 -69q7 -19 11 -41t11 -52t7 -74l8 -31v-37q0 -12 -9 -19t-13 -14q-10 7 -40 9t-36 6
t-10 14t-14 22t-13 27q-2 14 -12 33t-13 60q-4 42 -7 50t-5 21q-2 11 -5 17t1 16t-6 14q-6 6 -6 33l-4 33l-6 35q-6 33 -9 34v25q0 23 -10 70t-8 73q-10 18 -8 38q2 19 -5 51t-7 55l-11 66q0 22 -3 32t4 39t3 39t-5 38t-11 40q8 4 4 21t-4 22l-8 45v49l-14 8
q-10 -36 -10 -68t-5 -46q-4 -14 -2 -25q2 -10 -4 -13q-6 -4 -6 -10l-6 -98l-11 -41q0 -4 2 -18t-10 -23v-8q4 -23 -2 -66t-6 -61l-8 -60l2 -40q0 -10 -10 -46t-8 -77q-11 -14 -9 -31q2 -16 0 -27q-27 -18 -41 -19t-47 23q-53 12 -63 103q-2 18 -6 26q-4 7 -4 25t-4 30
t-10 51q-5 40 -13 60v4q-4 31 -8 85q-3 54 -21 84t-19 54t-1 40v26q0 8 -10 43q-20 -39 -23 -82q-12 -47 -16 -111q-3 -64 -15 -91q-12 -26 -18 -46q-6 -39 -10 -49t-6 -47t-9 -48q-6 -11 -4 -43t-8 -54t-10 -30q0 -7 6 -22q6 -16 2 -22t-2 -21t-8 -22v-10q3 -37 -9 -111
t-6 -112q-41 -33 -71 -29l-64 47l-20 53q0 25 -6 27t-1 11t3 13q-16 31 6 56q-4 4 -8 12l6 29q4 23 1 35t1 24t2 19l4 38v289q-6 6 -3 14t3 11q-2 6 -8 8l6 6l-6 39l20 256q0 23 4 29t-1 17t-1 15q4 3 2 13t4 12q2 2 -2 9t2 16v125q0 12 7 51q6 39 4 55q-4 29 30 36
q14 3 21 9q12 -25 11 -34t7 -28t8 -32l15 -285v-33z" />
    <glyph glyph-name="N" unicode="N" horiz-adv-x="886" 
d="M49 1090q0 32 5 45q5 12 3 41q-2 30 0 38t9 59t36 89h25l14 -21q8 12 21 37h49l65 -61q13 -10 19 -28q6 -19 11 -29t11 -35q-4 -4 -4 -6l15 -62q6 -35 8 -39t2 -17l6 -36q0 -14 8 -16v-5q2 -38 20 -106t22 -82q3 -14 10 -34q8 -20 10 -30q2 -12 14 -48t13 -50t11 -29
t9 -26l16 -57q-1 -4 9 -32t15 -44t14 -36t10 -35t18 -27v14q-2 43 5 133t3 137q11 45 9 95q-1 49 -1 65v164l-2 61q0 97 7 105t3 28q-14 30 -6 58t7 64t-1 62t5 31t3 23t9 25q-2 8 7 56q18 95 60 95l23 16q52 -40 104 -100q8 -22 9 -62t7 -70t3 -66q-4 -36 -1 -44t3 -18
l-2 -41v-174q0 -6 -4 -39q12 -23 3 -47t-8 -27q15 -11 12 -26q-3 -16 -3 -35t-6 -27q6 -8 0 -32t1 -28q7 -5 7 -8t-6 -9q-5 -7 -5 -61v-60t-8 -23q18 -27 2 -47q-2 -2 -2 -21v-81l-8 -156l-16 -88v-47q-14 -61 -17 -76q-8 -6 -8 -17v-18q-12 -18 -14 -22q-10 -33 -72 -58
q-29 -8 -86 -28q-20 4 -32 14q-11 10 -22 37t-10 33t-28 68q-29 64 -40 100t-26 65q-14 29 -24 65t-31 72q-4 45 -13 60t-11 34t-6 28q-4 10 -9 26q-4 16 -14 34t-8 29q-8 5 -7 21t-8 24t-7 28q3 20 -20 71q-22 51 -22 77t-4 33q0 -4 -6 -24t2 -25q-11 -20 -10 -54
q2 -34 2 -44v-119q0 -29 -7 -35t2 -16t3 -23l-6 -24q-4 -5 0 -19t2 -21t-2 -42v-86q0 -35 -9 -45l7 -21l-7 -14v-78q-4 -29 -2 -35q-10 -6 -8 -18t2 -17l-6 -32q-10 -30 -10 -72q-16 -72 -24 -74t-30 -18q-24 -16 -49 -17l-20 23v321q0 43 8 62t-4 38t0 32q12 12 2 26t-5 22
t7 15q2 8 1 20t-1 19v131q0 25 -6 30t-1 27t0 56q-5 35 3 92q-4 18 0 39q-6 31 -4 36t8 44v127z" />
    <glyph glyph-name="O" unicode="O" horiz-adv-x="696" 
d="M143 403q1 -12 7 -41t3 -40t13 -64l-4 -6q16 -50 26 -68t11 -30q4 -23 24 -29q27 37 34 42t12 22t20 38t17 34t22 50q19 37 35 82t18 67t16 66q15 43 17 69t10 46t6 47t19 60q-15 29 -9 39t5 22t1 17q2 6 2 34t3 33q12 20 -2 57l6 6l-6 17v59q3 41 -9 72t-9 56t-9 49
q-12 23 -15 37t-28 56t-27 48q-6 -10 -28 -41t-31 -59q-7 -27 -23 -48t-17 -42t-10 -47t-11 -35t-9 -35q-8 -26 -6 -42q-4 -3 -13 -27t-11 -54t-17 -58l6 -6q-15 -47 -13 -74q1 -28 -3 -32l-6 -25q0 -2 -3 -10t2 -11q5 -2 -1 -10t-6 -12q8 -32 -3 -54t3 -42q-8 -4 -4 -16
t0 -17q-4 -4 -3 -21t-8 -26l6 -12v-91zM20 469q0 17 9 23q-16 25 -8 49t8 47t-6 26q6 8 8 32t6 38l-10 8q12 10 10 32t3 28t5 10l8 86q2 6 5 14t5 24t13 64q12 48 16 54t6 8t2 4l-6 18q4 16 15 43q10 27 14 39l20 70q5 12 13 18t5 16t6 19q9 8 9 12q0 27 33 56q0 21 14 36
q13 15 23 29t39 39q9 7 31 17t30 16q10 0 39 2t51 -10q18 -25 10 -50l-14 -12q-33 27 -37 29l-12 -27l117 -14q54 -41 80 -75q25 -34 40 -94t17 -65v-2q-4 -14 2 -36t6 -30q0 -7 -1 -27t9 -36v-6q0 -8 -6 -27q-6 -18 0 -28t6 -31v-22l-6 -29l8 -10l-18 -35v-6q12 -10 5 -42
t-5 -39t-2 -13t-4 -11l-10 -31q0 -5 8 -16q-8 -33 -15 -47q-8 -32 -13 -64t-21 -65q-9 -11 -9 -15q0 -5 -16 -61q-8 -11 -20 -49q-11 -37 -21 -47t-49 -78q-53 -80 -65 -90q-12 -11 -24 -29q-68 -97 -165 -96q-55 27 -64 39q-77 96 -86 144l-14 55l-16 55q-8 33 4 45l-6 41
q0 4 -4 14t2 15q-11 10 -9 22t2 29z" />
    <glyph glyph-name="P" unicode="P" horiz-adv-x="636" 
d="M117 958q0 27 14 67q0 3 -3 5t-2 7t4 12q3 6 13 45t16 54t13 47q6 31 47 116t76 110l100 64q7 2 27 2t31 6q53 -29 57 -35q33 -37 48 -81t28 -113l8 -33q0 -5 -1 -19t4 -26t5 -96l-8 -105q-10 -13 -8 -30t0 -25t-17 -39q0 -4 -9 -44t-18 -52q-8 -12 -10 -28
q-2 -15 -26 -49t-27 -50q-10 -8 -37 -41t-51 -41q-4 -2 -16 -19q-76 -31 -119 4q53 74 94 152q42 78 48 98q6 21 16 55t16 50t11 47t9 39t5 24q0 16 3 27q3 10 0 15t1 44q-4 8 -4 17v51q-1 16 -9 45t-8 51l-22 47q-16 -8 -20 -14t-19 -30q-16 -24 -23 -40q-6 -29 -19 -46
t-31 -82t-32 -87q0 -27 -4 -36t-3 -27q1 -17 -4 -21t-5 -20v-56q-10 -6 -8 -23t-8 -24v-6l-7 -155q-7 -319 1 -387t6 -91q11 -17 10 -48q-2 -30 -1 -38t-1 -19t8 -17q2 -4 2 -10t-6 -13q-6 -6 -4 -21q2 -16 0 -24q-18 -18 -41 -6q-70 39 -90 59q-2 6 0 16t-6 13l6 16
q-4 6 -10 50q-7 44 -12 62t-3 30q2 14 -3 36t-5 66q0 45 -4 61q12 18 0 54q-2 14 4 28q-14 25 -4 58q0 6 -2 12t0 10q6 4 6 31v43q-4 29 3 82t5 80q10 19 8 42t0 40l9 30q2 6 0 15t8 16v16z" />
    <glyph glyph-name="Q" unicode="Q" horiz-adv-x="813" 
d="M195 723v-55q0 -23 -2 -27t5 -11t-1 -12q5 -16 9 -69q5 -53 14 -84q10 -32 25 -97q15 -64 26 -85t21 -43t14 -33q5 -10 26 -31q12 6 19 2t11 4q18 20 22 54t-6 48q-9 15 -17 37q-7 22 -9 27l-16 45q-4 11 -9 27t-7 23q-13 36 -19 67v51l-8 53q-2 12 8 32t10 26
q34 5 63 -14t36 -23q47 -29 49 -68q8 0 12 2l14 58q2 4 -2 14q-4 11 7 39t8 86v98q2 6 0 16t8 17q0 4 1 40t-5 40q-10 29 6 51q-8 8 -8 12l-11 93v22q-2 4 -8 31l-8 35q-2 29 -27 90l-34 -11l-41 48h-17q-10 -12 -32 -32t-31 -30q-8 -10 -1 -37t-7 -32v-23l-15 -14l8 -9
l-16 -14q0 -6 -15 -46t-18 -42l9 -8q-12 -33 -17 -51v-29l-8 -31l-8 -15q0 -3 8 -7q-8 -8 -8 -23l-4 -45q0 -16 -4 -20q8 -4 3 -22t-4 -25q1 -8 1 -70zM594 -109q-46 27 -139 213l-80 -55h-25q-47 0 -54 7q-6 8 -24 18t-20 22q-38 32 -88 136t-55 126l-31 111q-4 14 -7 55
t-7 57q-5 17 -3 33t-8 25v244q0 10 5 37t1 41q17 31 17 32q6 45 8 47q-2 2 -4 2q0 2 -2 7q4 10 14 24q10 13 12 23t8 22q5 12 9 26t20 49q16 36 21 50q10 8 20 31t25 31q2 2 7 14t17 12q-1 9 11 15t12 12t5 9t12 0t13 6q5 9 7 11q18 6 39 7h35q-25 80 -23 100q33 29 66 12
q8 -4 59 -16q51 -11 81 -61t38 -58q2 -14 15 -45t18 -55q4 -24 8 -39q12 -25 12 -41l6 -39l-6 -6q23 -33 8 -62l8 -22l7 -37q-10 -4 -6 -14t-1 -15q-1 -8 5 -17t1 -15q-5 -5 -1 -19t4 -18v-37q-2 -6 0 -16t-5 -15q-6 -6 -6 -14t6 -16t1 -20q-5 -14 -5 -20v-19q0 -13 -3 -18
t1 -15t-2 -29q-6 -18 -6 -59l-14 -79q-10 -29 -10 -37v-22q3 -12 -3 -30t-6 -27l-30 -93v-28q3 -6 12 -17q10 -11 10 -17t10 -24t12 -29t16 -31q13 -20 23 -40q9 -20 18 -34t38 -66q2 -4 47 -49l10 -43q-14 -14 -52 -34t-53 -29q-39 -23 -79 -26z" />
    <glyph glyph-name="R" unicode="R" horiz-adv-x="696" 
d="M258 752v-15l10 -20q37 68 43 87q7 19 31 72q24 52 34 88t19 52q-1 43 9 63q10 19 14 39t7 45t6 45t-3 84t-59 92h-41q-37 0 -67 -25t-50 -44l-12 -35l34 -41q0 -39 -2 -48q-1 -9 5 -25t6 -23l6 -160q10 -75 10 -231zM382 1526q18 0 24 -13q10 -7 48 -29t56 -37t40 -65
t19 -120v-70q0 -6 -5 -26t-4 -31t-5 -31t-2 -33q-8 -14 -12 -43q-3 -29 -9 -39t-6 -28t-14 -35q5 -39 -29 -107q-29 -82 -51 -121q0 -18 -17 -50t-18 -48q-10 -8 -19 -28q-10 -20 -16 -27q-6 -8 -4 -21l-28 -20l4 -2l-17 -35q22 -13 37 -26q14 -13 24 -18t18 -17t12 -16
t15 -9q11 -6 14 -12q3 -7 13 -13t19 -17q8 -11 52 -50t59 -68q16 -10 33 -36q17 -25 27 -35t11 -26q0 -16 3 -45q3 -30 -4 -44t-7 -45l-29 -17q-55 12 -110 64q-6 6 -20 17t-35 32q-12 14 -43 45q-32 31 -42 44t-32 32v-139q-2 -6 -10 -15l8 -8q-2 -4 -9 -22t-18 -27
q-72 -43 -78 -47t-10 -4l-20 -2l-15 20q-10 16 -11 48q-1 33 -5 47t-5 38t0 56q1 31 1 45t8 59t-16 70l-25 6l-16 20q-8 41 -9 43q-4 78 15 109q-2 6 0 31t-6 30q-11 22 -11 43l-12 56l-4 14q2 8 -7 48t-8 50t-5 30t-12 59q-5 38 -17 57v14q-4 76 -7 84t-10 78q0 66 2 74
t8 49q6 42 15 69l8 8v29l25 19l-4 4q21 43 32 53t13 14q25 19 27 25t16 11t16 15q12 2 41 22t51 19q7 11 23 14q15 3 33 9t29 0t29 -6z" />
    <glyph glyph-name="S" unicode="S" horiz-adv-x="737" 
d="M578 1255q-5 0 -13 2t-18 26q-11 24 -15 27t-18 9t-49 11t-41 9q-33 4 -64 -12q-45 -27 -51 -82q0 -10 -4 -39t3 -48q8 -19 26 -42t21 -33t9 -21q6 -10 9 -18q2 -8 11 -20t10 -18q0 -6 12 -16t8 -21q6 -6 51 -86l76 -142q17 -29 31 -65t14 -38q0 -3 8 -13t19 -48t20 -53
q0 -14 6 -52t4 -56t2 -34t-12 -69q2 -39 -23 -92q-27 -68 -40 -80q-13 -11 -29 -33q-17 -22 -27 -29t-70 -34h-2l-4 -2q-16 1 -45 -11t-69 -12t-52 11l-14 -11l-43 17q-45 19 -59 33t-38 17q-22 3 -28 7q-41 37 -63 64q0 36 -9 45q19 58 55 43q48 -22 66 -17q18 4 30 -8
t28 -14t23 -4l24 -7q18 -5 49 -18t35 -8q8 -4 57 10q24 14 34 73q11 60 11 64q0 3 10 19t2 35l2 24l-6 35l-8 37q0 47 -19 92q-19 46 -25 72t-12 38q-5 13 -15 36q-9 23 -18 33t-16 28q-7 20 -11 30t-18 38q-12 30 -20 48t-34 68t-35 80q-33 55 -53 121l-4 27l-9 24l-8 37
q-4 16 6 47q9 31 11 39t8 13t8 8q23 40 76 64q54 24 116 44t121 -4q3 -4 21 -12t22 -13l49 -41q5 -10 19 -22t18 -16q25 -27 6 -70q-2 -2 -11 -9t-11 -12h-14z" />
    <glyph glyph-name="T" unicode="T" horiz-adv-x="538" 
d="M168 1319l-59 -10q-2 10 -37 2l-35 -8q-6 0 -72 -11q-16 51 -18 58v65q4 4 14 13q10 8 19 18t36 10q10 12 38 20t38 12q10 5 36 13t52 15t33 14q25 0 59 8t38 11q5 3 20 3h229q7 0 62 -10v-8q-180 -92 -342 -150l30 -30v-117q0 -12 -6 -38q-6 -25 -2 -51t-2 -68t-6 -56
t6 -18q-6 -4 -6 -27l2 -35l-2 -33l6 -41q2 -18 1 -48t6 -80t5 -65t4 -27t-8 -25q2 -3 5 -7t5 -6l9 -102q0 -12 5 -44t3 -48l8 -19l-8 -8l8 -8q0 -4 -1 -32t9 -29q-6 -4 -3 -26t2 -29t4 -25t3 -31q-2 -12 11 -21v-4q-2 -16 4 -49t2 -51q-20 -25 -125 -76q-4 -2 -27 -2
q-14 14 -28 62q-4 33 -9 53q0 33 -7 55t-7 56q0 36 -6 83t-4 74q-8 18 -8 48v48q0 11 -6 59t-3 72q-12 30 -9 79t2 99t-1 232q7 206 33 262v29z" />
    <glyph glyph-name="U" unicode="U" horiz-adv-x="745" 
d="M506 1376q0 3 22 56t31 69q15 -89 29 -123t16 -50t5 -24q3 -7 20 -83q8 -3 4 -9t-4 -8l8 -18q6 -43 8 -48t8 -55l9 -77l10 -11l-10 -10q8 -17 8 -43t4 -29q16 -20 -4 -32l8 -25l8 -201l-8 -69q0 -8 2 -38t-4 -32q-4 -10 -6 -33t-6 -33q-8 -20 -5 -44l3 -21
q-16 -19 -20 -50q-5 -31 -9 -44q-10 -10 -13 -28t-19 -49q-17 -31 -27 -53t-60 -79q-23 -27 -82 -49q-89 -42 -109 -43q-20 -2 -55 4q-44 22 -51 33q-35 61 -42 74t-15 42l-27 123q-2 8 -3 31t-6 34t-5 42t-8 45v26q0 25 -7 98q-6 73 -2 113q-8 19 -7 51t-4 54t-4 68t-4 71
t-4 75t-4 80t-5 124q-9 139 1 199q11 60 15 89l27 35q14 -2 22 -16t17 -17v-51q-4 -43 2 -122t6 -113q6 -16 6 -48t4 -44l6 -99q0 -6 5 -22t2 -37t0 -32t7 -42t8 -46q5 -15 2 -35t9 -34v-20q0 -35 5 -43t3 -24t8 -21v-10q-4 -19 2 -55t6 -50l9 -35l6 -30q4 -7 6 -23t5 -25
t7 -61l8 -14l9 -19q-3 -22 11 -56q13 -35 15 -46l6 -21q8 -12 13 -22q39 28 56 60q16 32 34 71t18 53t10 19q0 8 17 67q10 52 9 78t5 60t4 53q-2 18 -2 97q0 80 1 104t-5 56t-4 50q4 0 2 51l-2 53v101q0 12 6 51t2 61q10 8 11 30q0 22 8 34t8 59z" />
    <glyph glyph-name="V" unicode="V" horiz-adv-x="770" 
d="M512 1157q0 14 10 21q0 27 13 51t20 55q8 31 14 41q5 11 11 29t19 41t28 62q16 38 25 46t24 13q28 -14 68 -6t65 -5v-37q-10 -10 -15 -36t-18 -39q0 -31 -8 -42t-10 -27t-7 -24q-5 -9 -15 -34t-15 -39q2 -15 -24 -80q-27 -65 -27 -88l-25 -64q2 -20 -16 -39q0 -24 -6 -36
q-5 -12 -11 -32t-8 -28l-12 -33q-2 -5 -9 -33t-11 -37t-6 -19q-1 -10 -5 -14q-4 -5 -4 -12l-2 -14q-6 -12 -13 -45t-20 -49v-17q0 -26 -8 -34t-9 -29t-22 -61q-2 -8 -2 -35t-16 -41q-2 -7 -1 -25t-4 -23t-4 -23t-7 -21v-6q-1 -19 -7 -67t-5 -64t-7 -72q-18 -12 -36 -34
t-40 -36h-32q-30 8 -43 33l-12 24q-7 15 -9 21l-12 37q-6 5 -6 19t-3 21t-7 27t-9 38q-6 18 -4 26t-4 24t-6 19l-10 70q-1 23 -7 33t-5 27t-1 30l-8 24v11l-8 22v21l-8 24l-8 80q0 3 -6 15t-4 28q1 16 -4 21q-5 6 -4 21t1 20q-24 86 -23 112t-4 37q-5 12 -6 19l-8 30l-8 64
q-6 14 -10 45t-7 40t-8 43q-4 34 -16 50q2 20 -7 44t-15 68q-7 44 -13 59t-6 67l-8 26v31l20 18h15q8 -4 22 -18t29 -17l20 -40q4 -10 52 -158q16 -60 20 -68t5 -24t3 -23l19 -59q2 -8 3 -30t6 -31t6 -27t7 -26t7 -28q0 -20 4 -28t6 -23t5 -37t7 -31t7 -31t7 -30l17 -63
q2 -6 3 -29t16 -58q15 -36 13 -44t7 -9q8 11 11 23t14 26t14 27q3 14 13 43q9 29 9 45q12 36 16 53q5 16 11 34t20 66t20 64t11 32q4 18 9 26t7 25t6 27t13 36q8 27 12 35t4 22z" />
    <glyph glyph-name="W" unicode="W" horiz-adv-x="903" 
d="M147 844v-150q1 -25 7 -80q6 -54 4 -74t4 -34t4 -24t3 -30q5 -18 6 -37t4 -29t20 -89q17 -78 61 -176q0 4 4 17q4 12 0 18t3 19t1 25t-2 21q4 8 4 37v64q0 25 3 48t0 46q-3 22 6 33q-10 14 -9 35q2 22 1 31t-1 31v34q-12 36 4 71q35 66 80 92q26 -15 46 -51t22 -45l6 -10
q6 -84 10 -96t0 -18q-4 -5 3 -13t4 -13t3 -25t12 -51q21 -132 98 -248q24 -36 31 -47t36 -26l8 25v57q2 12 8 23q-12 16 -4 53l4 23v424q0 23 -6 28q6 3 6 17t-6 32q6 27 6 29q-10 13 -8 31t0 28v41q0 11 -5 71t-4 78t-4 34q-4 14 -2 32t-10 27v8q-4 70 -8 105l-8 30
q0 4 1 13t-9 16q4 16 -6 47t-10 40t-9 18q23 47 35 63t45 41l45 -18l47 -107q25 -49 38 -97t13 -59l23 -110q-2 -39 9 -89t8 -84q-3 -36 3 -76t4 -97t4 -97q5 -40 5 -86t-8 -61q-8 -14 8 -31q0 -2 -2 -7t-6 -31t0 -59q3 -34 -3 -87t-4 -80q-10 -18 -10 -76q-10 -76 -16 -94
q-33 -94 -58 -119v-4q-41 -16 -102 -16l-98 14q-3 2 -13 15q-10 12 -17 14t-10 6t-3 5t-2 3l-41 45v6l-54 80q-2 -4 -13 -51t-48 -78q-8 -4 -24 -5t-26 -6q-11 -5 -61 9q-15 2 -41 50t-30 75q-14 14 -19 45l-2 2l-4 2q2 35 -22 96q8 6 2 22t-5 24q-8 6 -7 22t-9 23v4
q-6 106 -18 176q-8 4 -1 10t1 10q-6 5 -6 23t6 22q-8 11 -6 24t0 21t0 41t-7 39q14 18 -2 49q-2 4 3 12t0 10q-5 3 -2 11t3 12q0 3 -3 13t2 26t6 59q0 44 3 66q3 23 4 59t3 50l6 39v16q2 13 6 21t3 21t2 21t9 50q6 41 21 59q-2 20 27 74q22 47 71 63l23 -51q-2 -8 -8 -35
l-9 7q-6 0 -13 -15t-7 -22l-12 -43l-7 -13l-14 -77q0 -8 -6 -33t-4 -38t-3 -35q-5 -21 -3 -49t-5 -50t-6 -51q2 -29 1 -52t-1 -67z" />
    <glyph glyph-name="X" unicode="X" horiz-adv-x="770" 
d="M633 10h-66q-27 8 -40 30t-30 50q-17 29 -34 41q-4 6 -18 17q-13 12 -15 16t6 14q-8 10 -16 28t-15 28q-7 9 -21 34t-24 46t-22 30q4 14 -11 32t-18 25q-4 -25 -19 -69q-14 -44 -18 -60t-17 -63q-21 -76 -15 -82t-9 -33q-16 -12 -15 -34t-21 -54q-12 -6 -45 0t-46 4
q-8 8 -16 13q-20 41 -20 155q0 10 4 26t2 30q-2 13 4 18q6 6 6 20v35q16 32 16 64l15 22l-9 8q18 41 18 53t10 24q9 13 7 24q8 8 10 24q1 16 6 24t13 22q8 15 14 24l-12 12q4 8 18 29q2 15 -10 37t-24 53t-28 65t-25 54q-9 22 -25 68q-32 92 -43 117l-15 36q-23 53 -32 96
t-27 80q-4 24 -13 63t-10 66t-4 35q16 31 17 35q6 18 33 16q42 -63 43 -84q6 -8 16 -42q11 -34 23 -67l18 -51l33 -88q6 -23 35 -84q36 -86 52 -118t20 -46t38 -79q8 31 10 36t7 22q4 17 13 29t21 40q13 29 17 36t10 23q6 15 10 23l10 20t12 22t8 19q3 7 10 19t11 22
q5 10 51 91t52 89t17 30t21 33t21 33q9 22 51 76q42 55 72 86h31l57 -80q-8 -66 -21 -87t-12 -38q-12 -6 -19 -24q-7 -17 -10 -21t-7 -16q-5 -12 -9 -16t-9 -18t-13 -24q-8 -11 -8 -20q-10 -4 -16 -20t-15 -21q3 -12 -7 -26q-9 -14 -12 -19q-6 -25 -24 -43q-6 -10 -20 -40
t-27 -44v-24q-20 -20 -22 -36q-3 -17 -8 -23t-8 -17q-3 -12 -8 -17t-11 -18t-10 -29q-5 -16 -16 -33q-11 -16 -12 -26q-2 -10 -12 -24t-9 -23q1 -7 -8 -23t-12 -36t-15 -35q-12 -16 -17 -43l-8 -9l69 -120q66 -121 90 -158l86 -123q12 -16 48 -74q40 -64 40 -80
q-8 -10 -69 -10z" />
    <glyph glyph-name="Y" unicode="Y" horiz-adv-x="604" 
d="M90 1427q0 -16 8 -16q-8 -4 -2 -18q6 -15 2 -25t4 -22t9 -43q6 -35 9 -40t3 -17t5 -24q5 -10 4 -22t5 -24t4 -24q-1 -12 7 -24q8 -14 8 -40t9 -35q9 -7 8 -21t3 -19q9 -12 19 -60t28 -79l-6 -6l27 -67q8 12 12 38q4 25 8 37t9 48t11 47q6 13 9 45q4 32 12 72t9 59
q0 19 14 103t21 97t7 29t6 23q0 23 12 61t13 56l16 28l33 29q31 2 74 -25l53 -32l25 -25q14 -16 -2 -31q2 -24 -12 -62t-15 -57l-39 -161l-10 -31q0 -18 -9 -37t-8 -35q1 -17 -5 -31t-8 -21q-3 -7 -3 -14v-20q2 -2 -4 -11t4 -11q-8 -4 -8 -21v-24q-4 -18 -8 -58t-8 -53
q-3 -14 -5 -36q-2 -23 -8 -49t-5 -35t-7 -13l6 -6l-6 -37q0 -53 -14 -74q0 -2 6 -8l-8 -6l10 -8q-10 -11 -9 -31t-4 -26t-6 -13l-16 -240q0 -2 -6 -14q6 -12 6 -14q-8 -14 -7 -73t-22 -124l-120 -55l-29 10l-10 14l-9 45q0 18 -6 62t-4 68l8 55q0 5 -1 27t4 33t6 39
q0 39 5 57t3 30t4 16q6 5 4 16t4 45t6 46q-20 34 -33 49q-26 53 -30 79t-15 55q-10 28 -14 44q-8 5 -8 19t-6 26q-5 12 -9 30t-12 43t-12 51t-10 38l-13 37q-4 5 -3 19t-4 17t-5 11q2 8 -8 55l-16 74q-4 12 -6 38q-1 26 -3 36t-8 84l-8 35q6 84 12 93t8 13q11 18 38 3
q26 -15 32 -17v-19z" />
    <glyph glyph-name="Z" unicode="Z" horiz-adv-x="688" 
d="M295 804q0 8 10 26t12 29q1 11 11 31t21 66q11 45 24 70q12 26 14 36t7 21q5 12 7 17l11 35l14 36q4 11 7 27t11 33q27 47 23 100q-31 16 -103 9t-94 -15q-24 -8 -49 -13t-53 -13q-28 -9 -45 -11q-16 -2 -41 -9t-41 -5q-3 19 5 33q7 14 9 22t20 17q17 8 22 11t81 38
q201 82 281 71h43q59 -31 67 -32q49 -16 76 -58q-4 -20 -4 -22q14 -25 5 -46t-11 -46t-8 -38t-13 -32q-12 -53 -29 -89t-30 -86t-39 -111q-27 -60 -24 -85q-16 -10 -17 -35v-14q-12 -12 -21 -40t-23 -62q-15 -34 -19 -49q-4 -17 -22 -55t-29 -77q-12 -39 -50 -114
q-37 -94 -50 -122t-19 -42t-11 -23l-8 -43l10 -10q3 2 19 1t20 3t20 4t43 -2q26 -2 42 9q100 -13 121 -27h8q6 0 12 -6q6 -7 31 -15t33 -16v-25q-115 -72 -277 -88l-22 4q-41 -8 -93 0h-40l-37 9q-7 2 -17 10t-16 9t-22 25t-18 40q-3 14 3 40t8 44q10 94 49 168q8 12 40 93
t47 108q14 29 21 53t9 30l55 135q10 33 14 38t7 11q2 6 2 14z" />
    <glyph glyph-name="backslash" unicode="\" horiz-adv-x="679" 
d="M156 1434q0 -4 7 -18t11 -32t20 -67t25 -86q10 -37 17 -47v-37q12 -6 10 -14q-2 -7 7 -27t7 -31q8 -12 12 -39t12 -41t12 -40q3 -25 11 -53t4 -38q15 -20 25 -65t20 -64l-2 -28l15 -13q0 -45 18 -63q-2 -18 11 -52t16 -38q8 -37 32 -107l50 -141l28 -72q27 -53 31 -81
q3 -28 19 -48t20 -36t14 -23q-6 -9 4 -23t10 -22q1 -17 15 -41q13 -24 18 -64l2 -2q1 -4 5 -6t6 -4q-2 -8 -4 -33t-11 -37q-11 -12 -23 -34t-38 -25l-31 10q-6 2 -14 12q-9 10 -15 12q-11 4 -24 31q-14 18 -57 97l-64 119q-6 13 -14 39t-36 98t-43 120t-36 111t-40 144
q-20 80 -31 120q-12 45 -23 103t-20 85q-10 28 -19 74q-8 45 -17 81t-18 75q-4 35 -14 71t-20 90q-10 56 -19 82q-7 26 -17 72t-18 70q2 16 -5 47t-3 47l-6 29q0 20 -2 27v45l20 24q4 -2 41 -15t51 -42q0 -10 14 -48t18 -47q5 -9 6 -25t14 -23q6 -39 6 -43z" />
    <glyph glyph-name="asciicircum" unicode="^" horiz-adv-x="620" 
d="M168 1729v-7q-16 -10 -36 -36t-34 -37l-12 -17q-35 -31 -57 -33l-11 5q-12 41 -13 48t4 16q5 10 11 28t17 24q-2 10 7 24t13 25q4 10 33 52t54 68t95 26q69 0 85 2l71 -45q13 -8 29 -26t25 -25l112 -92q5 -5 21 -25t16 -25q-39 -70 -59 -84q-45 5 -69 25t-32 22
q0 2 -15 18t-24 15q-4 5 -16 13t-18 14q-43 55 -72 70l-12 12h-13q-8 8 -12 10q-33 -11 -60 -36q-28 -24 -28 -29z" />
    <glyph glyph-name="underscore" unicode="_" horiz-adv-x="1333" 
d="M1002 111h28l82 8q20 0 27 6q16 0 57 5t64 3h14q12 -14 40 -43q28 -30 48 -54t16 -42q-45 -41 -102 -41l-162 -21q-20 0 -82 -6t-96 -2q-44 -12 -95 -9t-81 2t-135 -1l-127 6l-102 6q-30 0 -44 4l-116 7l-33 8q-13 0 -31 7t-48 10q-30 2 -59 14q-30 12 -40 14l-19 35
q10 6 28 25t36 28l55 2q14 0 27 -2q0 -8 106 -6h109q29 -4 36 6q6 2 21 -2q14 -8 24 -3q17 9 69 6q53 -3 78 4t32 1q5 -9 20 2q27 -4 77 2t71 6l71 6q66 0 77 3q22 6 59 6z" />
    <glyph glyph-name="grave" unicode="`" horiz-adv-x="501" 
d="M-10 1780q57 33 81 38t78 -18q54 -22 68 -25q13 -3 27 -11t19 -10q5 -1 13 -6t14 -4t14 -6q7 -8 33 -20t36 -20q0 -4 38 -22t64 -34q2 -14 13 -52t8 -60q-23 -26 -67 -10q-104 37 -165 77q-61 39 -94 54t-43 25q-10 11 -24 14t-76 43q-31 12 -37 47z" />
    <glyph glyph-name="a" unicode="a" horiz-adv-x="663" 
d="M197 229q0 -8 5 -25t3 -28q11 -7 9 -19q-1 -11 -1 -16q4 -4 22 -26t48 -31q18 18 19 25t15 22q2 5 6 25t11 51q8 31 10 51l8 45v22q0 19 4 21q2 2 -1 12t5 15q-9 0 0 30v66q-6 9 -8 27t-6 24t0 18t1 15q-3 4 -3 35q12 6 52 34t75 27q33 -49 29 -106q0 -7 6 -13t10 -26
t13 -34t11 -32q2 -20 7 -26q4 -6 2 -16t7 -26t11 -36t10 -38t48 -130q2 -4 30 -53q-2 -9 -1 -15t0 -15t-5 -17t-5 -24t-3 -26q-2 -8 -11 -16t-12 -14q-4 2 -20 8t-90 47q-23 10 -25 31q-4 10 -14 32t-14 35l-27 -43q-9 -36 -59 -80q-9 -6 -19 -11t-14 -9q-154 -10 -213 117
q2 25 -17 73q-2 4 4 16t-4 15q8 11 1 25t8 26q-8 4 -4 22t3 26q-1 9 13 59q4 4 4 6q2 51 49 149q33 70 94 82q4 0 7 6l12 -6h16l10 -26l-10 -21q-20 10 -30 10q-58 -32 -82 -249v-97z" />
    <glyph glyph-name="b" unicode="b" horiz-adv-x="671" 
d="M313 187q0 -28 37 -81l25 -8l43 19l6 12q31 51 29 96v15q8 12 7 30t1 31q8 17 8 45t-6 70t-2 63v8l-19 68q0 2 -8 36t-18 43t-17 38q-33 -38 -65 -129q-33 -89 -41 -151t-6 -70l10 -95q16 -12 16 -40zM188 837q0 -9 6 -23t4 -32q-3 -20 3 -30t5 -27q-1 -15 2 -25t4 -32
t3 -31l61 108q35 55 74 76q6 2 23 19h47q100 -78 115 -135q4 -11 16 -31t15 -32t16 -42q13 -31 10 -59q10 -14 9 -44t7 -44v-134q0 -11 -5 -49t-3 -49t-8 -18q3 -26 -9 -57q-13 -31 -17 -48t-48 -84q-6 -8 -51 -28t-82 -21l-29 -8h-28l-41 12q-4 4 -38 32t-42 67h-60l-14 38
q0 10 -6 46t-5 50q1 13 -1 45t4 38q9 31 8 79q-2 48 -2 62t-8 47v19q-2 16 -5 23t-3 58l-6 21q2 0 8 6q-10 14 -11 18q4 20 -2 56t-6 47q0 10 2 32t-5 35q-7 14 -6 36t-7 32v66q-8 37 -10 96t-6 104l-9 31l9 27l-9 18l9 12l-9 15v80q0 33 9 38l-5 17q0 2 -3 8t0 10t13 42
q9 38 25 57l25 8q12 -12 20 -38q9 -27 4 -40q-6 -13 -6 -37t-2 -40t6 -23q8 -8 4 -31q-5 -23 3 -76t6 -78q10 -20 8 -44q-2 -25 0 -42l10 -53q-4 -39 6 -53v-2q-4 -18 2 -50t6 -41z" />
    <glyph glyph-name="c" unicode="c" horiz-adv-x="485" 
d="M265 164h24q17 0 33 20t28 28q12 7 24 11q13 4 21 8q20 0 30 -12q11 -12 13 -14l-2 -23q0 -2 -4 -16t4 -16v-17q-4 -13 -1 -27t-8 -32t-21 -36q-10 -17 -31 -26q-44 0 -72 -14q-73 12 -97 20t-42 23q-115 81 -107 221q4 62 2 84t1 40t1 32q-2 13 9 18q-6 18 2 49t8 63
t8 58q31 82 46 104t29 49q14 26 44 46q17 17 64 11q47 -7 55 -7q37 -19 52 -33t25 -47q9 -33 7 -40t-6 -14t-7 -9q-2 -2 -10 -3t-10 -4q-21 1 -41 19t-39 20q-11 -4 -21 -6t-16 -4t-9 -17t-19 -40t-26 -63q-9 -38 -18 -62q0 -37 -2 -42q-2 -6 0 -24t-8 -20q0 -8 -3 -51
t0 -51t8 -18q5 -8 6 -34t15 -46t15 -23l2 -7v-6q6 -4 12 -9q7 -5 9 -6q12 -5 23 -5z" />
    <glyph glyph-name="d" unicode="d" horiz-adv-x="555" 
d="M250 148q0 16 5 35t1 40t4 63t-1 76q-9 36 -11 62t-15 35l-43 -60q-6 -8 -11 -26q-5 -17 -11 -29t-12 -52t-6 -58v-27q0 -28 17 -53t21 -33q4 -4 21 -9t27 -12q14 32 14 48zM158 922v24q-8 31 -8 79v79q0 25 8 37q-8 4 -3 19t5 20q-8 25 -2 37q6 13 9 41t15 42v23
q37 29 99 66q39 20 81 2q6 -20 23 -62q2 0 4 2v-41q0 -35 5 -42t3 -23q-2 -17 3 -21t6 -16q-4 -18 2 -53t6 -52q8 -14 8 -42q0 -29 4 -39t3 -37t2 -42t4 -47t7 -60t4 -68t0 -66v-150q0 -23 -6 -86q-10 -108 4 -137q15 -20 11 -63q16 -16 16 -47t8 -37v-10q-10 -19 -13 -48
q-3 -28 -5 -38l-8 -7q-19 -7 -51 7t-42 14q-11 -25 -37 -41t-30 -21q-16 2 -44 0q-44 -3 -124 48q-11 10 -25 34t-24 35q-2 10 0 28t-4 26t4 22q-12 10 -4 41t2 45q12 7 17 27t10 27t16 33t31 44t24 25l51 45l2 22q0 20 -8 21q-4 6 -2 23t-6 22q0 16 -10 50q-11 34 -9 45
t-3 25t-3 26q2 11 -4 14q-6 4 -8 40t-6 66l-8 32q0 7 8 15q-8 7 -8 23z" />
    <glyph glyph-name="e" unicode="e" horiz-adv-x="530" 
d="M305 618v62q-27 -16 -47 -57t-35 -54q0 -45 -16 -57q2 -20 -25 -80l6 -10l-12 -53q2 -1 4 -7t8 -12t11 -5q6 1 14 1l33 37q4 31 11 41t7 43q12 12 15 12q2 10 6 44t12 60q8 25 8 35zM471 585l8 -7q-13 -9 -17 -28q-5 -20 -10 -32t-6 -55q-4 -29 -14 -43t-18 -30t-15 -25
q-59 -72 -120 -80q-4 0 -11 -6l-32 6l-29 8l-33 8v-119l8 -37q10 -33 48 -47t42 -13t17 -7q12 6 23 6t43 30t85 56l29 -35q2 -6 1 -24t7 -21q-10 -24 -35 -63q-2 -2 -15 -5t-17 -18q0 -8 -10 -8t-29 -9q-18 -9 -33 -5q-27 -16 -82 0q-6 2 -40 11q-98 26 -126 75
q-29 49 -32 67t-9 50t-8 51l-6 30l6 29l-6 27q0 4 8 16q-2 4 -10 12q12 12 10 41t8 41q-8 4 -4 18t3 24q-1 11 1 30l12 28q2 18 18 68q15 51 36 68l-6 6q6 12 12 21t16 26t72 67q61 53 143 74l62 -12q33 -53 33 -57l12 -43q8 -44 15 -64t-2 -38t-6 -39t3 -24z" />
    <glyph glyph-name="f" unicode="f" horiz-adv-x="464" 
d="M248 299l6 -49q0 -20 2 -33l6 -47q0 -14 6 -53t2 -62q11 -22 11 -90q-16 -16 -39 -6q-23 11 -35 27t-34 64t-26 75t-10 34t-5 22t-7 20l-12 86h-119q-29 8 -35 30q33 57 57 87t76 42q-4 12 -8 39q4 4 4 7l-6 34q0 8 1 35t-5 39t-4 14l2 7l4 2l-6 22v80l-6 33l4 8
q-6 33 -8 37t3 17q5 12 2 18t-3 43v256q0 23 5 27t-2 10t-4 9t5 9t4 8q-8 12 -8 17l8 34q0 5 3 15t1 14t2 8l2 6q0 66 20 120t27 63l64 79q14 16 63 37q4 -6 17 -7t20 -9l24 -31q3 -6 19 -44t23 -76t13 -53t5 -51q0 -36 6 -75t4 -57l-8 -16l6 -7q-4 -6 -12 -12
q-10 20 -72 133l-37 72q-2 6 -2 22l-20 17q0 -2 -4 -6q-16 -67 -16 -89t-6 -37q-5 -15 -2 -38t-9 -35q-4 -10 2 -18t6 -50t-6 -50q-6 -7 -2 -21q18 -49 2 -86q8 -13 6 -73t0 -73q17 -28 0 -43q14 -6 10 -30t-1 -31q3 -8 1 -33t6 -35q-18 -25 0 -51l-6 -20q6 -16 6 -44t2 -44
l11 -11h92l104 -108l-8 -13q-6 -31 -47 -34l-92 -17q-2 0 -43 -10z" />
    <glyph glyph-name="g" unicode="g" 
d="M250 596l-8 -2q-6 -4 -11 -6l-12 -19q-43 -67 -49 -111t-8 -56t-7 -21q-5 -8 2 -15t-2 -14t0 -27q9 -21 6 -37t23 -59q27 18 49 80q18 37 31 109q14 73 13 83t8 15q4 62 -35 80zM37 398q0 13 6 27t10 26l8 34q4 35 43 70v10q37 45 42 48l22 13q18 10 28 13q10 2 91 -16
q-2 5 -3 37q0 32 -8 42t-8 60l21 14q30 7 69 -8q40 -14 54 -16l26 -54q6 -10 10 -28t9 -28q4 -10 19 -46q15 -37 24 -51v-29q24 -41 24 -51t14 -52t19 -98q12 -10 16 -41q1 -37 7 -48t10 -46l8 -53v-51q2 -23 -5 -71t-3 -73q-20 -18 -17 -51q-20 -20 -32 -62
q-11 -43 -29 -61t-44 -42t-41 -44t-83 -55q-43 -27 -71 -34t-93 -5q-104 35 -135 135q49 -35 53 -39t18 -7t19 -7l33 8q38 6 76 30t54 42q16 16 26 27q8 12 26 29t23 28q29 68 30 80l15 10q-4 33 5 43t8 22q-1 11 4 45q18 118 -3 160q0 5 -4 17t-2 18q6 7 0 17t-2 14
q-2 4 -8 51l-15 14l-14 -55q-10 -6 -11 -18t-38 -55t-105 -78q-29 -18 -79 -9q-64 37 -96 119t-30 118t6 42q3 6 3 19z" />
    <glyph glyph-name="h" unicode="h" horiz-adv-x="559" 
d="M184 510q0 -10 -6 -34t-4 -34q12 28 42 60q29 32 38 43q43 6 118 -36q15 -9 25 -13q43 -17 78 -157q6 -24 10 -36l13 -49q14 -70 37 -135l14 -43q16 -63 11 -69q-5 -7 -3 -10t5 -7t3 -20t-22 -48l-13 -12q-25 -8 -59 16q-69 41 -111 154q-41 113 -42 130t-9 42t-8 41
l-25 -43q4 -20 -9 -57t-15 -51t-27 -115q-4 -4 -104 -76l-39 24q-10 47 -10 53t-2 23t-5 27t-2 39q2 29 -5 60t-5 118q2 85 1 99t-1 138l2 127q0 39 7 51t-1 27q-16 21 -7 45t9 43v435q-1 28 5 104t4 119q10 16 8 40q-2 23 0 38l18 55h21q6 -6 29 -24t25 -34q3 -17 13 -65
t4 -102t-6 -72l4 -27q0 -6 -4 -12q8 -6 9 -37l-7 -29q20 -25 4 -47q-4 -6 0 -13t0 -15t-4 -17q8 -12 1 -57t-5 -57l-6 -13q6 -4 6 -26v-248l2 -139v-72z" />
    <glyph glyph-name="i" unicode="i" horiz-adv-x="307" 
d="M172 985l8 -35q-4 -6 -21 -33t-42 -36q-13 4 -17 14q-7 17 -15 36q-9 18 -9 40q-4 11 4 29t8 24q57 2 84 -39zM240 73q0 -3 -1 -17t5 -15q6 -2 -15 -49q-49 -40 -77 -58t-52 -12l-30 43q-12 70 -16 81t-4 39q-1 28 -3 39t-3 38t-3 38t0 42t-6 41q4 4 0 51t6 117l6 79
q4 29 16 82q10 12 54 9q5 -11 29 -29t30 -34t11 -48q5 -31 7 -38t-1 -9q-3 0 -7 -4q14 -12 16 -39t6 -30q3 -3 3 -34v-34l6 -24q4 -16 6 -26q-2 0 -4 -3t-4 -3l12 -67q2 -8 3 -45q0 -38 8 -48t5 -20t-3 -13z" />
    <glyph glyph-name="j" unicode="j" horiz-adv-x="397" 
d="M238 1057q0 -7 7 -27t0 -30t-6 -25q1 -14 -1 -25l-31 -24q-51 23 -68 80q44 43 99 51zM254 530q0 -26 6 -77t2 -80q0 -4 8 -13l-8 -28q0 -4 7 -18t-5 -17q6 -8 6 -35v-39q0 -33 1 -38t-3 -17t0 -17t4 -13l-10 -167v-22l-8 -23q4 -30 -1 -37t-9 -41t-10 -46q-6 -11 -7 -26
q-2 -15 -6 -24l-14 -26v-17q-6 -8 -13 -23q-8 -16 -14 -24t-22 -23t-21 -22q-17 -16 -75 -46t-115 -42h-56q-23 5 -47 29t-32 30q-2 4 -11 33q-8 29 -7 34t3 49t27 81l20 10q20 -14 46 -47t38 -43q31 -6 56 19q49 55 73 122q12 48 23 73q12 26 13 41q1 16 4 24t5 28t5 34
t7 51q3 39 7 51t10 96l8 63q0 6 -2 33t4 31q6 18 6 75l11 138q0 47 26 86q20 -4 49 -29q8 -12 13 -25q8 -60 8 -86z" />
    <glyph glyph-name="k" unicode="k" horiz-adv-x="538" 
d="M229 1284l-8 -55v-45q-4 -6 -2 -18t-2 -17q-4 -4 -4 -45v-43q-8 -18 -8 -50v-40l-4 -21q-2 -6 2 -35q-2 -2 -6 -20q0 -66 1 -83q1 -16 -4 -30t3 -16q2 -5 -1 -14q-3 -10 -3 -14t-5 -33v-240l2 -25q0 -4 3 -10q8 0 11 6t38 45q34 39 68 91t69 79l33 11q2 -8 15 -28t16 -30
q3 -12 -7 -37q0 -18 -16 -51t-17 -51q-11 -12 -31 -52t-42 -76t-26 -51q-5 -15 -25 -36q39 -29 81 -45q42 -15 70 -33q29 -18 34 -21t16 -17t16 -17l-11 -107q-4 -27 -32 -28q-43 14 -117 70t-96 78q-23 22 -25 22h-4q-27 -38 -66 -156q-8 -2 -46 -16t-72 -15l-9 41l2 2
q8 23 1 59t-1 48v2q2 2 0 11t6 39q7 30 5 46t4 54t4 73t6 43q-8 11 -3 33t5 71l8 105q0 10 -2 54t4 52q6 25 5 71q-2 47 2 63t5 52t6 64t5 90l8 45q6 43 8 47v29q0 43 4 50t5 21t6 23q6 8 10 64l8 45q8 39 37 117q4 10 70 51l12 -19q12 -18 14 -20v-2q-8 -7 -7 -27t-9 -28
q-8 -101 -17 -131v-19z" />
    <glyph glyph-name="l" unicode="l" horiz-adv-x="307" 
d="M190 1573q37 -51 37 -129q0 -28 6 -92q7 -64 5 -84t6 -37q-23 -23 -6 -45q6 -14 6 -28t1 -47q1 -32 -3 -35t0 -14t-4 -18q-8 -2 -1 -14t7 -14v-80q0 -27 5 -29t-1 -8t0 -9t6 -12q0 -10 -8 -20t4 -20q-12 -12 -5 -26t7 -48q0 -35 -5 -39q-5 -5 3 -29t-4 -45l6 -37v-165
q0 -3 5 -11t-5 -12v-53l6 -23l-6 -28l-2 -30q0 -7 2 -13v-80q2 -29 -3 -83t-5 -67q-6 -6 -7 -25t-10 -28q-2 -35 -55 -62q-10 4 -44 -4t-48 9q0 6 -2 16l-19 12q6 10 -2 34t4 34l-6 31q-2 18 -2 54v54q0 27 -6 31q-4 4 0 14q12 12 9 28q-3 17 0 118t-7 155q4 2 4 4
q4 147 0 297q0 2 -6 8q16 47 2 117l4 23q2 37 2 110v35q0 12 5 22t0 20q-5 9 -1 13t4 31v35q5 43 11 61t2 22q-4 5 -4 7t4 6t2 12t5 41t3 52q18 16 18 34t2 21l48 82h36z" />
    <glyph glyph-name="m" unicode="m" horiz-adv-x="753" 
d="M178 92v-49q-2 -10 -10 -45q-27 -19 -67 -29l-48 -12l-20 18q-8 61 14 156q-4 4 -4 6l-4 6q6 9 2 23t4 26t1 22t-7 44v141q0 31 -8 37q8 6 8 35v78q-2 13 3 33t5 26v60q4 14 8 47q3 33 9 48t13 45t46 60h8q6 0 22 -16t5 -35q-10 -20 -3 -22t-1 -13q4 -18 -2 -50t-6 -71
t-5 -47q-4 -8 -4 -43l17 21q0 8 21 50t44 71q8 14 41 32q39 -12 51 -47q3 -9 17 -24t27 -59t20 -58q-10 -11 -3 -19t8 -17t3 -13q18 39 30 87t52 124q39 76 82 90q23 -10 57 -51t46 -81q13 -40 14 -42q6 -51 8 -55q-2 -23 5 -65t5 -59t4 -45t4 -40l8 -13l-10 -12l10 -21
q0 -3 -6 -12q6 -12 4 -41t3 -37q5 -7 5 -87t3 -150q0 -45 -45 -92q-2 14 -17 24q-14 10 -16 18t-31 38v20q-2 2 -4 5t-5 5t-5 4l-35 154l-25 158v59l-24 -31v-16l-17 -22q1 -23 -35 -30t-96 -22q-4 -2 -26 4l-29 13q-4 8 -27 51t-28 70q-12 -33 -13 -37l-8 -39
q-8 -45 -18 -68q4 -4 -4 -73q-9 -69 -15 -83t-6 -16z" />
    <glyph glyph-name="n" unicode="n" horiz-adv-x="587" 
d="M518 172q8 -16 8 -52t-5 -40t-6 -22t-5 -23l-21 -29l-55 -31l-28 9l-15 28q-8 28 -13 49t-7 21l-2 4q4 12 -2 32t-7 25q2 45 -16 90v15q4 61 -16 112v15q0 35 -5 43t-4 23q2 15 -8 22q4 31 -14 65q0 -22 -7 -33q-7 -12 -8 -26q0 -14 -4 -20q-4 -5 -4 -19t-10 -30t-8 -25
q2 -11 -1 -21t-1 -17t-3 -21t-5 -18t2 -22t-4 -20q-6 -14 -6 -39v-45q0 -4 2 -17t-13 -22q18 -23 2 -70q-7 -14 -42 -26q-35 -13 -56 -21t-39 -2q-10 12 -10 45v209q0 6 1 23t-9 33v8l6 33q-6 8 -6 34v37q0 4 1 21t-6 26q-7 7 0 19t-3 18q8 6 8 23v30q-4 17 3 49t5 48
q4 8 15 19t12 13q18 2 31 -16t24 -20v-41q8 12 19 42t40 70t56 56q21 -1 49 -21t44 -36l21 -21q35 -27 49 -78q2 -5 8 -21l9 -24q2 -8 9 -28t7 -48q1 -26 9 -50t8 -31t1 -23t6 -24q5 -7 3 -23q-2 -17 3 -21t5 -11v-11q0 -23 4 -26t-1 -8t-1 -7q4 -1 0 -9t4 -10q2 -2 2 -22
v-25q0 -1 5 -17t-5 -26z" />
    <glyph glyph-name="o" unicode="o" horiz-adv-x="587" 
d="M266 643v41q-70 -80 -86 -145q-8 -8 -12 -11q-2 -6 -4 -26t-12 -50t-17 -96v-22q-2 -23 -6 -33q6 -9 5 -27t1 -30q16 -8 0 -21l17 -26v-31l43 -62q41 41 63 72t47 84l19 49q0 2 6 30t12 41t24 97t-1 148q-4 14 -11 24l-32 29h-25zM545 504q0 -18 -6 -23q16 -10 8 -23
q-8 -14 -11 -30t-8 -22l-6 -13l4 -8q-8 -6 -7 -20t-4 -23t-7 -22t-4 -18t-8 -17t-14 -41t-27 -56q-4 -12 -24 -30t-38 -58q-100 -82 -141 -99t-78 -6t-57 42q-4 6 -18 22q-13 17 -33 57q-42 84 -39 179q0 4 3 24t-10 37q10 7 9 20q-2 12 3 30t3 24q10 8 10 24t10 36
q10 18 7 31t0 19t4 7l45 96q13 26 31 47q16 20 22 26t12 16t27 28t33 22l28 15q33 0 41 -9q25 14 50 2t53 -19t38 -11q37 -10 58 -49l16 -31q0 -31 8 -40t9 -11v-51q0 -4 8 -24t-4 -24q4 -8 4 -26z" />
    <glyph glyph-name="p" unicode="p" horiz-adv-x="546" 
d="M223 197l49 30l33 82q0 31 2 35q8 0 8 27l-2 26q8 33 9 52v53q4 27 -13 39q-8 -14 -19 -43q-10 -30 -20 -48t-15 -48t-14 -62q-9 -33 -9 -53t-9 -90zM264 -385v-100q0 -1 -6 -15t6 -16q-9 -6 -7 -19q1 -14 1 -20l-96 -68h-35q-22 55 -24 102q-1 46 -4 62t-4 47t-4 46
q-3 16 -4 48t-5 48l-6 108q0 8 -5 28t-2 47q3 28 -3 48q-8 0 -9 55l2 56q-4 86 0 106t4 51q1 31 5 46t8 61t13 64t-3 40v4q-10 21 -6 144l8 18l49 -33q0 1 8 11t13 16l37 62q14 29 73 79h62l112 -71q21 -66 23 -87t5 -29t9 -87q0 -74 -4 -99q-4 -26 -4 -39t-8 -20v-14
q-1 -32 -15 -64q-14 -33 -17 -41t-27 -38t-63 -54q-41 -24 -63 -30t-36 -33q8 -23 6 -37t4 -20q6 -7 1 -16t3 -11q-6 -3 -3 -19t2 -21t1 -21t0 -25q-2 -10 4 -35t6 -37q-8 -49 -3 -67t2 -39t1 -27t1 -24t-3 -21z" />
    <glyph glyph-name="q" unicode="q" 
d="M164 342q6 18 22 50t28 58q11 26 19 38t19 39q11 28 22 48q11 19 16 32t9 22l-29 55h-16q-21 -15 -70 -92q-44 -131 -32 -201q4 -24 12 -49zM471 372q0 -18 -3 -40t0 -32q3 -11 0 -14q-3 -2 -3 -18v-18q-2 -6 0 -15t-8 -16q12 -6 4 -21t-2 -23t-10 -54l6 -25q0 -6 3 -30
t-3 -32q-6 -9 0 -46q0 -29 -6 -33q12 -12 0 -49l6 -25v-29q0 -19 2 -30l6 -33q-2 0 -6 -8q2 0 6 -2h2q14 6 29 27q38 60 86 28q10 -6 30 -15t28 -15t13 -12q4 -7 8 -9l-6 -12q0 -29 -30 -68q-49 -49 -53 -55t-31 -21l-82 -41q-37 -20 -72 -14q-49 29 -70 88q-18 64 -16 76
t-3 22t-5 14t2 15q2 10 -4 14q-6 3 -6 11v69l-9 64q0 25 10 45t0 35t-10 33q-4 146 9 157v43q-36 -41 -60 -50l-45 -18t-49 -12q-4 4 -51 45l-12 39q-29 94 -29 168q9 13 8 28q-7 61 21 122q35 100 110 159q31 27 56 27t56 -18t50 -19l12 53q20 16 33 29q86 -25 145 -70
q5 -46 -30 -125q4 -18 -3 -52t-7 -39t-4 -31q-3 -26 -2 -49q1 -22 -9 -23q8 -4 3 -18t-5 -32z" />
    <glyph glyph-name="r" unicode="r" horiz-adv-x="514" 
d="M254 344q0 -4 -6 -18t6 -29q0 -2 -3 -11q-3 -10 0 -14t3 -14v-12l-6 -6q14 -61 -12 -168l-91 -78l-30 29q-4 37 -11 47l-6 47q-10 75 -9 193q2 221 -7 239q-8 18 -8 37l-8 26q0 8 -11 45q-10 37 -6 60q-10 8 -10 27q0 18 -3 26t-4 26t-3 27q12 5 18 11t8 6l-2 -2h2
q45 -31 51 -93q0 -7 10 -31t7 -38l16 -17q-3 25 9 43t12 23q2 29 41 68q4 2 4 18q12 8 44 39t34 37h16q8 14 15 18q66 37 118 29q14 -4 34 -18t34 -17v-22q-31 -37 -33 -39l-41 -33l-37 -37q-59 -57 -78 -113q-16 -7 -20 -31q-3 -24 -17 -59t-12 -51t-4 -44t-4 -40v-86z" />
    <glyph glyph-name="s" unicode="s" horiz-adv-x="604" 
d="M508 229v-92q4 -29 -14 -61t-28 -42q-10 -11 -18 -12t-12 -2q-4 -14 -12 -21t-31 -15l-24 -11q-9 -2 -29 -5t-38 -9t-50 -4t-35 6l-10 -6q-123 31 -162 92q49 8 59 9q10 2 26 10t30 11q12 3 50 17t72 20t54 40l16 22v35q-31 35 -44 43q-12 8 -44 34t-81 61q-49 36 -70 71
l-33 53v35q0 70 55 131q57 61 141 102q8 3 29 17t57 6q40 -4 54 -9t27 -21t24 -19q2 -7 14 -27t11 -35l8 -41q6 -37 8 -41l-6 -20q-2 -4 -2 -37l-29 -35q-45 18 -70 58q0 61 -28 106q-37 6 -101 -37q-53 -39 -63 -88q0 -6 6 -20q29 -25 98 -78q108 -65 146 -105
q43 -53 46 -65t3 -21z" />
    <glyph glyph-name="t" unicode="t" horiz-adv-x="473" 
d="M236 -18q0 23 -10 36q-10 12 -8 44q3 32 -6 114t-9 86h-158q-16 0 -36 8q-21 8 -27 14t-13 9l-12 24l12 25q14 12 18 38q3 26 16 33q24 13 41 13h7l27 14l47 6q6 0 23 6t30 3q0 5 1 35t-9 34v8q4 25 -3 69t-7 63l-6 147v305l10 109l14 100q0 5 6 19t12 42t15 41l31 64h41
l16 -39q-8 -8 -6 -32t-8 -34l6 -6l-6 -39q0 -412 6 -450q6 -39 7 -72t5 -52t5 -57t3 -54t6 -68q4 -53 9 -64l8 -45q2 -4 6 -10t6 -10l16 10q18 -4 52 -8q12 -5 48 -17t52 -24q-4 -40 -19 -60t-53 -38q-14 -10 -44 -20t-40 -13q0 -63 5 -87t5 -90t1 -106q-3 -4 -7 -8
q-30 -35 -108 -33l-12 19h-2q-2 -2 -4 -2z" />
    <glyph glyph-name="u" unicode="u" horiz-adv-x="663" 
d="M555 431l8 -29q0 -12 6 -15q-2 -11 3 -27q4 -16 6 -27t10 -41t10 -42l6 -14q-4 -12 3 -32t7 -28q8 -2 2 -8t-4 -8l9 -17l10 -114q-23 2 -37 17t-60 58t-71 101l-12 16l-13 -20q-25 -66 -65 -105q-6 -6 -30 -26t-39 -36t-75 -36q-29 -8 -53 10t-53 47q-19 57 -27 71
t-10 34t-8 28q0 16 -10 54t-7 59q-4 10 -10 82l-6 39q0 25 6 30q6 4 -4 30t1 65t6 61t1 42t9 49q3 30 9 37q7 7 8 9t3 5q8 -9 40 -33q10 -8 11 -39l8 -49q0 -4 -2 -19t11 -26v-6q7 -108 12 -126q6 -18 8 -37t5 -27t5 -26q2 -20 8 -29t8 -27t4 -23q3 -5 9 -25t14 -29v-24
q37 55 41 76q14 72 22 85t11 48l8 41q0 2 -1 21t9 22v2l9 94l10 72q0 16 3 23t3 56q12 25 17 31t28 15q85 -33 111 -45t41 -31q0 -2 -7 -14t-4 -67q4 -56 10 -76t3 -32q-2 -12 4 -30t4 -29q6 -2 4 -10q-2 -9 1 -13t3 -13z" />
    <glyph glyph-name="v" unicode="v" horiz-adv-x="538" 
d="M8 750q66 -2 86 -54q45 -112 50 -132t29 -76t30 -75t26 -57l13 11q-3 45 14 116q16 70 20 92l13 9q18 88 49 125q8 10 53 36l129 -45l8 -16q-16 -48 -20 -68t-29 -78t-31 -101q-6 -44 -24 -62q12 -12 -4 -41t-14 -72q0 -43 -15 -67v-2l-10 -93l-74 -73h-28q-25 33 -31 51
t-28 62t-66 143q-39 78 -43 84q2 20 -16 54q-17 35 -21 51t-22 62q-17 46 -22 65q-4 19 -10 35t-12 34t-13 38t13 44z" />
    <glyph glyph-name="w" unicode="w" horiz-adv-x="720" 
d="M281 29q-51 -17 -109 -17q-48 16 -67 84q-5 18 -11 26t-6 23q0 16 -8 23q2 10 -5 38t-12 66q-4 38 -9 54t-6 40q-2 60 -8 64q-5 4 5 35q0 2 -5 14q-5 11 1 15t6 23v58q13 66 23 79t36 69h48q2 -6 16 -35q-35 -35 -38 -108q-1 -27 -6 -41t-5 -57q0 -44 6 -78t2 -52
q10 -8 9 -27t4 -31q6 -12 8 -32t4 -26t12 -41q10 -36 24 -52q8 8 13 11q0 4 -1 28t9 29l-6 4l14 86v47q16 55 27 70q4 10 16 27t17 28l22 8q29 -6 70 -56t45 -61t1 -42t6 -55t14 -37t9 -17q4 9 2 27t7 22l-6 23q0 170 2 188q2 17 3 63t5 72t8 74l6 18l12 50q8 18 39 71
q12 29 39 31q33 -25 65 -115q5 -16 12 -35t7 -69l-8 -10q10 -13 8 -31t0 -29v-61q0 -6 1 -26t-9 -36q16 -29 -2 -55l10 -10q-16 -29 -4 -66q0 -4 -3 -11t-1 -11l8 -21q2 -10 -5 -21t1 -26t-4 -24q13 -9 6 -18q-6 -10 -6 -15v-17q2 -68 -35 -137l-12 -4q-33 -18 -62 -18h-114
q-33 10 -56 38q-22 29 -30 37l-43 -38z" />
    <glyph glyph-name="x" unicode="x" horiz-adv-x="555" 
d="M51 754h35l29 -13q16 -8 24 -16q29 -43 34 -58t21 -43t21 -42l12 -17q4 18 23 47q18 29 22 43q12 3 16 16t29 42q6 4 37 22l80 -16q4 -7 4 -17q0 -41 -28 -104q-28 -62 -31 -86q0 -151 29 -219q6 -12 14 -36l12 -36q8 -14 20 -44t19 -42l45 -84q-17 -33 -27 -45
q-9 -12 -21 -26t-26 -21q-51 47 -55 61t-14 25l-15 18q-10 21 -34 61t-30 54q-7 14 -23 41q-15 27 -21 43q-25 -82 -34 -102t-15 -52q-5 -30 -17 -54t-15 -36t-21 -32t-26 -22q-9 -3 -11 -5q-61 63 -56 127q11 11 12 35t9 49t10 35l12 47q0 6 5 13t12 44l24 31q-9 32 11 58
t12 44q-18 50 -45 102t-37 84t-18 50q-8 20 -13 33v43z" />
    <glyph glyph-name="y" unicode="y" 
d="M246 -166l8 89q0 19 8 22q2 3 1 21t16 67q6 25 10 82l-80 -21h-41q-16 10 -18 14t-12 5q-10 2 -7 10q-23 16 -42 57t-30 53q0 12 -10 34t-8 36q-21 42 -25 84l-10 80q0 6 -4 22q-4 17 -3 23t1 26l8 41q0 15 8 21v21q10 31 45 36q18 -18 29 -32v-37q2 -10 0 -25t4 -27
t5 -30t7 -27v-26l9 -23q4 -23 7 -27t4 -13t6 -16t9 -44q5 -6 23 -47t41 -60q19 5 45 27t34 36t16 18q7 4 13 20t17 20q41 80 47 90l6 25q2 14 14 38q11 23 15 35q32 105 59 123q27 8 51 -10q37 -33 54 -42t27 -23q11 -13 15 -17q-16 -37 -20 -59t-15 -44t-21 -56t-19 -48
q3 -29 -23 -102t-26 -113q-9 -18 -15 -24q-4 -16 -10 -71t-18 -79q-11 -24 -13 -46t-9 -46q-7 -25 -23 -91t-54 -97q-12 -9 -40 -21t-33 -16q-29 6 -29 33q-8 14 -12 53t2 52q6 14 6 46z" />
    <glyph glyph-name="z" unicode="z" horiz-adv-x="647" 
d="M416 205q36 0 44 -2t16 -5q9 -3 16 -5q96 -29 131 -66q4 -23 -29 -37q-8 -2 -18 -11t-17 -11q-6 -2 -18 -10t-31 -15q-19 -8 -69 -15t-68 -16h-8l-83 -8q-19 0 -30 -6q-20 4 -59 -1t-54 -5q-68 0 -106 37q-8 4 0 50t8 50q4 41 41 76q8 8 53 63q47 63 103 127q4 8 8 11
l55 77q12 20 37 56t31 49q6 12 14 24q26 38 16 60l-12 10l-20 -8q-31 2 -57 -8t-52 -12q-25 -2 -35 -7l-24 -6q-41 -4 -62 10q0 51 46 69t118 42q72 22 82 26q10 3 43 3q14 -3 34 -13t32 -14q49 -16 73 -72q2 -4 -4 -9t2 -9q2 -4 2 -6l-8 -11q0 -34 -37 -101t-51 -75
q0 -10 -12 -26q-13 -17 -19 -29t-20 -25q4 -13 -9 -22q-14 -8 -18 -18q-3 -10 -27 -38t-28 -34l-62 -82q-2 -4 -14 -12q19 -6 82 8q8 -10 24 -4q14 6 50 6z" />
    <glyph glyph-name="braceleft" unicode="{" horiz-adv-x="438" 
d="M184 582q129 -234 119 -320q10 -8 9 -74t-1 -84t4 -21t4 -11q-10 -14 -5 -40t1 -43t-4 -24l6 -45q2 -6 -2 -17t-4 -16l8 -53q0 -51 23 -76q2 -4 12 -15t13 -17q16 -35 77 -60q-33 -24 -40 -24q-6 0 -30 -6t-39 -1q-15 4 -87 15q-31 23 -35 26q0 10 -4 14q-3 4 -19 32
t-18 54t-10 40t-8 53v321q0 52 -8 72t-8 50q1 30 -24 76q-26 45 -34 64t-43 46q-45 30 -59 32t-64 31q18 51 96 117h39q37 25 68 41t41 53t15 72q5 34 8 53t4 68t5 63q7 7 3 14q-13 18 2 27l-7 8q-2 3 4 11t3 13q-4 5 -2 15t2 19t-7 22q-8 33 9 49q-16 20 0 35q0 2 -7 12
t5 23l-5 27l5 4l-9 8q0 6 7 16t-5 21q7 7 7 43t2 43l8 45q0 45 53 116q6 11 20 25l19 18l8 15l39 10l14 -10v-31q0 -2 -2 -4q-51 -40 -54 -128q-1 -28 0 -64t1 -52q12 -19 9 -45q-3 -27 -3 -37t7 -63t3 -82q12 -25 11 -66q-2 -41 -2 -53t5 -43t0 -63t-5 -71q0 -38 -7 -69
t-22 -59q-16 -29 -20 -39q-5 -10 -19 -25t-17 -23t-10 -12q-6 -5 -10 -8t-9 -6t-16 -15q-10 -13 -14 -17z" />
    <glyph glyph-name="bar" unicode="|" horiz-adv-x="356" 
d="M202 -279q-59 0 -87 19v20q-3 6 -9 16t-9 21q-3 10 3 20q6 9 6 17q-12 8 -10 75t1 75t1 18t-8 16q0 4 -1 32t5 32q6 12 2 17t-6 17t-1 25q1 14 1 21v10q-2 10 -5 15t1 30l4 30q0 5 -4 15t-4 47v719q0 10 4 47q-10 17 -3 39t7 27q-6 21 -3 47t3 88v137l6 33q-8 24 -3 28
t5 35v123q6 10 24 47t46 64h27q2 -6 14 -20t12 -33l25 -23l-8 -8q24 -91 26 -123t3 -82t4 -75q3 -24 6 -40q3 -17 -5 -39t-1 -40t8 -76v-285q0 -23 10 -29q-14 -31 -2 -41l-8 -26l8 -29q0 -4 -5 -12t-1 -18t6 -28t1 -40q-1 -23 -1 -36v-105l8 -31l-8 -25v-12q10 -10 9 -81
t-1 -80t-2 -32t6 -34q8 -10 2 -21q-18 -19 -9 -31t10 -20t0 -14t0 -20t3 -34q2 -22 2 -30t-4 -37v-72q4 -29 4 -42t-4 -38v-88q-2 -10 -10 -45q-27 -29 -64 -27h-27z" />
    <glyph glyph-name="braceright" unicode="}" horiz-adv-x="413" 
d="M139 70q0 32 -6 36t-4 20t1 24q-1 6 1 36t-6 35q10 8 1 30t5 50q-11 18 -9 41q1 22 1 29q10 6 8 15t0 15q1 6 -1 23t7 31l-8 8q20 33 19 46t7 23q7 10 9 15q18 53 49 78v14q-33 25 -86 113q-6 12 -11 34q-4 22 -8 30t-9 20t-9 18l-12 90q0 4 -6 10l10 15l-8 12q0 2 7 15
t-2 19q-9 5 -9 14t5 15t6 16t0 19q-1 8 1 19l8 39q2 6 0 17t8 20v16q-2 22 7 62t9 52t11 23l-10 8l8 8q-4 17 2 47t6 44t6 20l-4 29q16 23 -2 51l6 8l-26 51l4 2l-76 68q49 33 115 8q6 -6 26 -21q65 -50 57 -177q-1 -18 1 -43l6 -35q-6 -19 -5 -29t-7 -55t-3 -68
q-8 -20 -7 -59q1 -38 -5 -72t-4 -76t1 -61q-1 -18 9 -76q9 -10 21 -38t22 -38t32 -38t39 -44t75 -65q-12 -82 -17 -135q-6 -4 -59 -41v-13q-10 -14 -18 -44t-11 -38q-4 -8 -4 -102q0 -95 3 -119t4 -63t0 -71t1 -70l-6 -76q0 -10 -6 -34t-4 -36q-10 -14 -14 -43
q-5 -29 -11 -41t-26 -54t-54 -73q-4 -12 -23 -27t-26 -22q-20 -25 -55 -29l-63 -10q-6 0 -33 4q27 53 26 76q2 8 15 20q12 11 10 21t8 18q8 8 7 18q-2 10 12 28q14 20 21 44t17 46t10 44t6 40q7 18 8 44t4 45t-3 29l8 23v35z" />
    <glyph glyph-name="asciitilde" unicode="~" horiz-adv-x="571" 
d="M152 1759q10 0 14 4q8 -2 22 3q14 6 18 6t9 2q4 2 7 0l16 -8t18 -7q6 -2 13 -11t19 -14t17 -26q3 -2 15 -15t20 -16l18 -18q10 0 17 -2l92 92q20 20 51 29l12 -17q0 -1 -12 -37t-28 -66t-21 -43q-6 -13 -13 -19q-6 -6 -14 -16q-8 -9 -11 -12t-7 -6q-4 -2 -9 -6t-7 -6
l-19 -4q-54 -17 -133 81q-12 15 -18 22l-27 22q-2 2 -11 2t-14 6q-4 -4 -16 -4t-25 -14l-14 -4q-6 -4 -20 -15t-24 -19q-11 -9 -21 -23t-17 -19l-14 31q2 53 40 91t62 48q5 8 15 8z" />
    <glyph glyph-name="sterling" unicode="&#xa3;" horiz-adv-x="712" 
d="M559 1392q0 -16 4 -26t2 -18l-12 -35q-6 -6 -25 -15q-39 20 -55 64q0 2 -22 31q-45 -20 -93 -68q-6 -10 -16 -32q-10 -21 -16 -31t-16 -42t-8 -48q1 -16 -4 -19q-5 -4 -4 -18t-7 -21v-250l8 -57q0 -55 2 -59l6 -50q0 -2 10 -47l52 8q31 -1 60 7t49 9t26 5t24 3t25 -1
l37 6q47 6 90 -35q-70 -115 -84 -122t-28 -11t-26 -10q-11 -6 -53 -6l-26 -8q-6 0 -13 8q-4 -8 -19 -8t-19 -4t-9 -5h-71v-180l-9 -86l-10 -26q21 -2 31 -2t30 5t42 9l61 6q57 6 81 12t30 6q4 0 26 -10t56 -16q41 -109 36 -158q-112 -19 -166 -23q-55 -3 -94 -6
q-45 -25 -94 -12h-10q-12 -6 -35 -6l-78 -8h-26q-69 25 -131 45l-11 16q6 18 29 48q23 31 31 47t15 40t24 80l4 6q10 64 10 70t5 31t-3 28q8 12 8 34t2 36h-104q-8 8 -43 36t-45 64l37 27l145 31q0 4 1 35t-9 34q-4 4 0 7q4 25 -3 71t-5 73q2 26 -9 36q6 4 0 35v170
q-1 31 5 41t4 27q-2 16 3 20t4 16t2 26t10 33q7 18 9 27q30 106 168 217q38 35 94 35q24 -8 31 -6h8l47 -33q2 -10 14 -49q12 -38 13 -54z" />
    <glyph glyph-name="dieresis" unicode="&#xa8;" horiz-adv-x="696" 
d="M639 1714l12 -57q-8 -10 -25 -38q-36 -60 -79 -77q-24 10 -34 37q-9 27 -14 37t-11 38q-5 28 -10 42t7 43q13 29 15 41q94 2 139 -66zM264 1581q-18 -20 -41 -41q-74 10 -157 51q-11 63 -14 67q-3 5 1 16t16 21q12 11 41 41t66 42t66 -13q28 -25 32 -65t-8 -62
q-2 -6 -2 -57z" />
    <glyph glyph-name="copyright" unicode="&#xa9;" horiz-adv-x="1466" 
d="M700 590l-98 2q-117 6 -182 72q-18 18 -22 28t-17 33v80q2 41 27 96q26 55 34 69t22 42q14 29 46 41q8 16 34 39t29 26l25 23q24 1 50 17t39 14t31 4t21 0q9 -4 23 -4q72 -2 129 -95q22 -42 14 -67l-10 -11h-41q-33 25 -84 60q-53 4 -98 -33q-28 -14 -31 -25
q-4 -6 -22 -17t-50 -51q-31 -40 -57 -116l-6 -14l10 -45q14 -14 27 -19q94 -31 190 4q53 17 61 25t13 8l16 2q-1 14 13 19q14 6 18 10t10 15t10 16l25 34h39q6 -10 33 -46t37 -60q-6 -20 -45 -72q-25 -29 -53 -43q-92 -45 -117 -45q-46 -16 -93 -16zM193 699q0 -24 -11 -42
l11 -14l-11 -14l11 -17l-9 -10q9 -7 9 -37l6 -41l8 -39q4 -25 18 -39v-30q10 -10 17 -13v-20q5 -8 14 -17q8 -10 10 -14q45 -68 109 -82l35 -6q4 0 16 -4t20 -2l105 6q57 12 85 20t39 10q11 1 40 15q41 27 71 31l91 59l55 39q-4 8 6 12t10 10q0 7 22 13q22 7 34 28t36 48
q25 27 31 35t15 18q10 10 16 26t16 24t14 12q4 6 7 13q2 7 5 13t9 20q5 14 13 30q59 129 61 161q0 148 -19 164q-77 123 -116 145q-28 18 -52 30t-42 24t-26 13q-9 1 -36 17l-78 13l-12 12l-53 -2q-12 0 -35 5q-24 5 -82 -7q-58 -13 -80 -27t-74 -51q-4 11 7 31t8 30
q49 70 98 111l-25 -6q-43 -15 -46 -19t-17 -14q-13 -10 -19 -17t-23 -15t-22 -15l-37 -37q-4 -6 -26 -31t-29 -36q-6 -11 -17 -25q-12 -14 -16 -22t-15 -23q-11 -13 -13 -19t-14 -22t-9 -29q-29 -29 -45 -86t-22 -64t-7 -25t-9 -29q-7 -11 -8 -26t-9 -33t-8 -46l-6 -45v-26z
M451 94q-33 0 -45 5t-27 7q-16 2 -21 5q-92 29 -135 71q-5 4 -21 14t-21 17q-5 8 -11 12q-12 4 -34 45t-40 64q0 15 -20 55q-6 31 -12 45t-5 32q0 18 -6 30q-4 0 -3 12t1 18t2 33t-5 36t-1 17t0 12t1 17q7 12 2 43q-5 30 4 62t15 71t14 51q9 12 9 45l21 48q9 33 20 54
q10 21 20 49t33 59q23 29 36 57q14 28 30 46t21 28q5 8 23 26t21 31q17 12 49 43t47 40t43 28t46 24l69 27q8 2 25 2h94l58 -21q2 0 2 2l4 2l125 10l102 -10q27 0 47 -10t59 -24t108 -59q69 -44 114 -95q91 -91 108 -197q4 -16 7 -57t1 -51t4 -18t1 -18q-5 -9 -8 -51
t-23 -73l10 -10l-33 -82v-25l-20 -14l-47 -109q-2 -6 -47 -55q0 -10 -2 -21q-25 -23 -56 -43q0 -13 -19 -29t-24 -38q-12 -4 -16 -8l-35 -31q-29 -27 -103 -76t-105 -58t-44 -20q-14 -12 -36 -19t-29 -13q-25 -2 -66 -16t-97 -26t-69 -12l-53 -6h-57z" />
    <glyph glyph-name="registered" unicode="&#xae;" horiz-adv-x="1507" 
d="M547 947v-7l-8 -31v-32q-4 -16 -9 -29q29 -4 127 6q3 0 17 14h22q33 8 77 38t61 55q16 25 28 45t5 32t-7 49q-23 33 -32 41t-37 22q-29 14 -57 0q-28 -13 -105 -63q-2 -2 -17 -20l-18 -27q-26 -31 -31 -55q-6 -25 -11 -29t-5 -9zM1255 836v22q10 7 8 22q-2 16 9 50l8 35
v77l-8 78q-4 16 -13 22t-16 26q-6 20 -9 25t-5 13t-12 10q-11 2 -21 18t-14 18q-4 3 -4 10h-19q-27 35 -94 61q-67 25 -121 35t-62 13q-7 3 -28 -3q-4 6 -19 5t-22 7q-10 -12 -41 0q-8 -6 -64 -6t-120 -43q-8 -6 -58 -43l-18 -6q29 57 33 64q31 35 39 59l-70 -35
q0 -10 -14 -16t-18 -12t-33 -31l-35 -31q-2 -2 -7 -6t-8 -8q-3 -18 -27 -43t-33 -41t-44 -68q-35 -51 -76 -141q2 -16 -15 -46q-18 -30 -24 -73t-16 -59q0 -5 -4 -11l10 -8q-18 -48 -18 -74v-67q0 -85 6 -98t6 -27t18 -64t28 -61q9 -12 9 -25q4 -4 8 -7t7 -6q2 -3 6 -6
q10 -9 20 -32q48 -48 113 -84q23 -16 54 -18t57 -10t55 4q2 0 24 -6l23 6l26 4q20 2 54 13t58 16q22 6 37 18t37 19t41 22t47 31t50 33q20 17 35 24q12 18 46 47t40 35v12q-129 -23 -133 -22l-121 100q-19 16 -61 45q-42 30 -66 46t-121 63l27 -99q0 -10 9 -27t11 -22l-2 -4
q29 -53 31 -80q4 -2 8 -5t6 -3v-51q-51 0 -79 8t-44 34t-49 69q-33 44 -49 96l-16 32v33l-17 14q0 27 -6 33t-4 21q2 16 -2 34t-4 31l8 105q0 6 3 10q4 4 16 56t30 88t40 64t26 37t13 14t31 21t33 23l72 39q56 26 116 23t87 -23q20 0 61 -37l50 -43q13 -13 19 -23
q7 -10 15 -20t17 -33q8 -24 12 -32l-10 -13q2 -4 10 -12v-68l-16 -63q-3 -23 -58 -78v-14q-6 -4 -32 -28t-70 -46q-45 -22 -53 -29q131 -98 147 -112q98 -82 133 -133l70 94q10 12 27 48t34 52v29q29 41 33 45q0 45 8 53t8 21zM622 68q-24 0 -32 -9q-23 11 -40 6
q-18 -6 -26 -2q-8 5 -55 7q-97 5 -254 106q-33 20 -102 115q-60 75 -72 171q-4 30 -12 39t-9 15q4 16 -2 45t-6 39t-2 46t3 46t9 52q3 42 10 56t8 34q1 18 4 25t8 21t9 21q-5 11 7 31t12 31q23 14 26 55q2 8 13 21q10 13 8 24q10 14 39 61t55 72q14 33 70 84v10l43 39
q5 7 19 17q13 10 19 14t17 17t23 19t13 11q1 6 12 8q11 3 47 23t61 24l16 8q79 18 101 14t47 7q25 10 32 10l39 12q31 4 88 9h54q104 7 264 -60q29 -10 81 -44t66 -48q13 -14 29 -32t27 -29q10 -14 14 -39q20 -17 30 -45q9 -29 11 -33t8 -29t11 -32t5 -11l7 -135l-7 -104
l-8 -19q-16 -61 -16 -94q-16 -14 -17 -59q-4 -4 -16 -11v-26l-16 -13v-30l-41 -47q2 -10 -10 -22t-13 -19l-20 -47q-18 0 -28 -18q-57 -116 -249 -246q-141 -95 -291 -136q-8 -2 -21 -7q-46 -18 -65 -11q-11 -8 -35 -8z" />
    <glyph glyph-name="macron" unicode="&#xaf;" horiz-adv-x="796" 
d="M221 1681q31 -1 51 5t46 3t57 2t49 -1q22 11 50 10q28 -2 36 -2h63l33 -17l15 9q6 -2 20 -9t37 -4l67 -125v-43q-10 -12 -51 -12h-90q-50 0 -74 8t-38 8q-14 1 -33 9t-60 4l-53 8q-41 0 -51 8h-8q-95 4 -113 7t-60 4t-72 12l-36 12v27l70 63l47 8h53q14 6 45 6z" />
    <glyph glyph-name="acute" unicode="&#xb4;" horiz-adv-x="446" 
d="M113 1583l-58 -31h-14l-14 11q10 41 46 83t113 115q18 16 68 46t56 36q7 6 26 6l12 6q12 -6 48 -13t53 -19q8 -18 -22 -46t-46 -37q-16 -10 -43 -28q-28 -18 -50 -28t-81 -48t-94 -53z" />
    <glyph glyph-name="periodcentered" unicode="&#xb7;" horiz-adv-x="368" 
d="M232 1145q2 0 10 -3q8 -4 38 -12t42 -32t20 -60q4 -45 -10 -69q-2 -4 -2 -70l-54 -49q-96 14 -198 63v48l-25 20v33l90 82q27 27 47 34t30 11q9 4 12 4z" />
    <glyph glyph-name="cedilla" unicode="&#xb8;" horiz-adv-x="256" 
d="M164 -324q-16 -4 -51 -4q-47 0 -93 31l-12 18q-8 12 -12 19l12 63l31 7q4 0 14 -4q11 -4 19 -3q8 2 23 -4t29 -2t19 1q7 -3 9 1t8 5t8 0t57 12l23 16q-6 6 -8 18q-60 18 -64 20t-39 3l-67 6q-26 18 -13 62q4 20 47 114q4 20 23 17l23 -41l-11 -54h15q26 4 70 -9
q44 -12 62 -28t22 -26q5 -10 7 -12l21 -37q35 -51 8 -90q-2 -4 -2 -13l-39 -43q0 -2 -8 -2q-27 -18 -68 -28z" />
    <glyph glyph-name="ordmasculine" unicode="&#xba;" horiz-adv-x="571" 
d="M346 1442l-72 31q-8 0 -41 -3q-49 -16 -59 -40q-20 -47 8 -107q14 -35 62 -68q49 -3 86 43q25 27 26 58q1 2 15 41q-14 25 -17 35q-4 10 -8 10zM510 1380l-8 -44q0 -14 -8 -19q0 -23 -39 -64t-64 -60t-72 -42h-29q-24 0 -34 -8q-73 18 -111 53q-63 64 -81 112t-13 105
q10 10 23 34q12 24 22 34t37 19t37 22h63l43 28h101q51 0 74 -22h4q4 0 6 -2v-17q14 0 24 -15t17 -19v-35l14 -24q0 -3 3 -13q3 -9 -9 -23z" />
    <glyph glyph-name="Agrave" unicode="&#xc0;" horiz-adv-x="712" 
d="M231 1743l66 -41q53 -27 72 -39q2 -10 10 -40t6 -48q-17 -18 -45 -9q-74 23 -91 37q-17 13 -24 15q-53 37 -73 45q-33 14 -54 35q-27 8 -65 35q-23 7 -29 36q49 27 58 29q10 2 24 -1t45 -16t42 -15t21 -9q10 -6 17 -8zM346 809l-6 47l-16 82v18q-10 16 -18 52t-11 49
q0 -5 -5 -21t-7 -26l-7 -45l-10 -50l-8 -30q0 -31 -5 -47t-6 -34t-4 -28t-4 -27t-3 -23t-9 -58q-8 -35 -11 -72t-7 -49t-4 -38l-12 -128q-1 -8 -5 -13q-4 -4 -5 -16t0 -25t1 -20q45 20 123 43t139 47q-12 49 -15 59t-5 30q-2 22 -5 31t-7 29t-10 36t-18 62l-20 82
q-9 36 -20 83zM414 1277q0 -9 2 -13l12 -68q2 -8 4 -22t6 -26t12 -45q8 -34 11 -46q4 -13 6 -31t5 -30t7 -44q4 -33 9 -47q4 -14 6 -37t4 -30q14 -15 14 -19v-15q0 -18 8 -30q-2 -20 27 -92q4 -45 8 -68q14 -27 25 -94q0 -23 6 -33t7 -20t3 -13t8 -32l6 -21l31 -161
q4 -8 3 -18t6 -41q7 -30 3 -46q0 -2 9 -10q-8 -19 -18 -67t-26 -70h-26q-12 12 -39 36t-47 44l-27 174q-175 -39 -198 -40t-111 -16l-10 -8q0 -55 -18 -117q-18 -61 -23 -75l-33 -31q-16 12 -27 25l-4 -5q-12 51 -10 75t-3 28t0 13t-1 13q-2 4 1 12t-5 11q-2 2 3 10t-3 13
q10 26 8 70t2 85t4 46v25q0 26 5 39t3 19q-3 6 5 18t-3 17q8 12 7 41q-2 29 4 36t6 11v4q4 61 6 77t10 21q-2 0 -4 5l-4 2q8 32 8 36l8 50v18q2 16 6 28t7 37q2 26 4 31l8 35q6 33 6 35l19 115l8 24q4 23 8 64q14 70 20 84t8 29q1 15 8 41t9 46l14 66q3 33 27 39t58 16
t53 15q25 -39 25 -49t4 -36q5 -26 2 -46q-2 -20 6 -32q8 -14 10 -20t2 -15z" />
    <glyph glyph-name="Aacute" unicode="&#xc1;" horiz-adv-x="712" 
d="M371 1626q-59 -37 -104 -60t-48 -24h-14l-15 10q10 41 46 84q87 104 159 147t79 49t26 7l12 6q12 -6 48 -13t52 -20q8 -18 -18 -45q-33 -29 -49 -37t-43 -26q-28 -18 -50 -30t-81 -48zM346 809l-6 47l-16 82v18q-10 16 -18 52t-11 49q0 -5 -5 -21t-7 -26l-7 -45l-10 -50
l-8 -30q0 -31 -5 -47t-6 -34t-4 -28t-4 -27t-3 -23t-9 -58q-8 -35 -11 -72t-7 -49t-4 -38l-12 -128q-1 -8 -5 -13q-4 -4 -5 -16t0 -25t1 -20q45 20 123 43t139 47q-12 49 -15 59t-5 30q-2 22 -5 31t-7 29t-10 36t-18 62l-20 82q-9 36 -20 83zM414 1277q0 -9 2 -13l12 -68
q2 -8 4 -22t6 -26t12 -45q8 -34 11 -46q4 -13 6 -31t5 -30t7 -44q4 -33 9 -47q4 -14 6 -37t4 -30q14 -15 14 -19v-15q0 -18 8 -30q-2 -20 27 -92q4 -45 8 -68q14 -27 25 -94q0 -23 6 -33t7 -20t3 -13t8 -32l6 -21l31 -161q4 -8 3 -18t6 -41q7 -30 3 -46q0 -2 9 -10
q-8 -19 -18 -67t-26 -70h-26q-12 12 -39 36t-47 44l-27 174q-175 -39 -198 -40t-111 -16l-10 -8q0 -55 -18 -117q-18 -61 -23 -75l-33 -31q-16 12 -27 25l-4 -5q-12 51 -10 75t-3 28t0 13t-1 13q-2 4 1 12t-5 11q-2 2 3 10t-3 13q10 26 8 70t2 85t4 46v25q0 26 5 39t3 19
q-3 6 5 18t-3 17q8 12 7 41q-2 29 4 36t6 11v4q4 61 6 77t10 21q-2 0 -4 5l-4 2q8 32 8 36l8 50v18q2 16 6 28t7 37q2 26 4 31l8 35q6 33 6 35l19 115l8 24q4 23 8 64q14 70 20 84t8 29q1 15 8 41t9 46l14 66q3 33 27 39t58 16t53 15q25 -39 25 -49t4 -36q5 -26 2 -46
q-2 -20 6 -32q8 -14 10 -20t2 -15z" />
    <glyph glyph-name="Acircumflex" unicode="&#xc2;" horiz-adv-x="712" 
d="M117 1575q0 8 -11 41q0 12 4 20t10 24q5 16 11 21q0 9 7 21t9 20t24 46t43 63t77 26q57 1 69 3l58 -41q8 -5 26 -27t65 -64q73 -67 73 -86q-39 -68 -50 -75q-33 2 -59 26q-2 -1 -8 7t-12 10q-2 4 -9 10q-6 6 -6 8q-2 4 -8 7t-8 5t-13 10t-16 13q-35 51 -57 63l-8 13h-11
l-10 8q-37 -10 -69 -59v-7q-14 -9 -30 -33t-28 -32l-8 -17q-33 -27 -47 -28zM346 809l-6 47l-16 82v18q-10 16 -18 52t-11 49q0 -5 -5 -21t-7 -26l-7 -45l-10 -50l-8 -30q0 -31 -5 -47t-6 -34t-4 -28t-4 -27t-3 -23t-9 -58q-8 -35 -11 -72t-7 -49t-4 -38l-12 -128
q-1 -8 -5 -13q-4 -4 -5 -16t0 -25t1 -20q45 20 123 43t139 47q-12 49 -15 59t-5 30q-2 22 -5 31t-7 29t-10 36t-18 62l-20 82q-9 36 -20 83zM414 1277q0 -9 2 -13l12 -68q2 -8 4 -22t6 -26t12 -45q8 -34 11 -46q4 -13 6 -31t5 -30t7 -44q4 -33 9 -47q4 -14 6 -37t4 -30
q14 -15 14 -19v-15q0 -18 8 -30q-2 -20 27 -92q4 -45 8 -68q14 -27 25 -94q0 -23 6 -33t7 -20t3 -13t8 -32l6 -21l31 -161q4 -8 3 -18t6 -41q7 -30 3 -46q0 -2 9 -10q-8 -19 -18 -67t-26 -70h-26q-12 12 -39 36t-47 44l-27 174q-175 -39 -198 -40t-111 -16l-10 -8
q0 -55 -18 -117q-18 -61 -23 -75l-33 -31q-16 12 -27 25l-4 -5q-12 51 -10 75t-3 28t0 13t-1 13q-2 4 1 12t-5 11q-2 2 3 10t-3 13q10 26 8 70t2 85t4 46v25q0 26 5 39t3 19q-3 6 5 18t-3 17q8 12 7 41q-2 29 4 36t6 11v4q4 61 6 77t10 21q-2 0 -4 5l-4 2q8 32 8 36l8 50v18
q2 16 6 28t7 37q2 26 4 31l8 35q6 33 6 35l19 115l8 24q4 23 8 64q14 70 20 84t8 29q1 15 8 41t9 46l14 66q3 33 27 39t58 16t53 15q25 -39 25 -49t4 -36q5 -26 2 -46q-2 -20 6 -32q8 -14 10 -20t2 -15z" />
    <glyph glyph-name="Atilde" unicode="&#xc3;" horiz-adv-x="712" 
d="M186 1759q10 0 15 4q8 -2 22 3q15 6 19 6t8 2t12 -4t22 -9q13 -4 20 -13t18 -14t18 -26q4 -2 15 -15t20 -16l18 -18q10 0 17 -2l92 92q20 20 51 29l12 -17q0 -1 -12 -37q-11 -36 -27 -66t-22 -43t-14 -19t-14 -16q-12 -15 -34 -30l-18 -4q-54 -17 -133 81q-12 15 -19 22
l-26 22q-2 2 -12 2t-13 6q-5 -4 -17 -4t-24 -14l-14 -4q-45 -30 -60 -50q-16 -20 -22 -26l-14 31q2 53 40 91t62 48q4 8 14 8zM346 809l-6 47l-16 82v18q-10 16 -18 52t-11 49q0 -5 -5 -21t-7 -26l-7 -45l-10 -50l-8 -30q0 -31 -5 -47t-6 -34t-4 -28t-4 -27t-3 -23t-9 -58
q-8 -35 -11 -72t-7 -49t-4 -38l-12 -128q-1 -8 -5 -13q-4 -4 -5 -16t0 -25t1 -20q45 20 123 43t139 47q-12 49 -15 59t-5 30q-2 22 -5 31t-7 29t-10 36t-18 62l-20 82q-9 36 -20 83zM414 1277q0 -9 2 -13l12 -68q2 -8 4 -22t6 -26t12 -45q8 -34 11 -46q4 -13 6 -31t5 -30
t7 -44q4 -33 9 -47q4 -14 6 -37t4 -30q14 -15 14 -19v-15q0 -18 8 -30q-2 -20 27 -92q4 -45 8 -68q14 -27 25 -94q0 -23 6 -33t7 -20t3 -13t8 -32l6 -21l31 -161q4 -8 3 -18t6 -41q7 -30 3 -46q0 -2 9 -10q-8 -19 -18 -67t-26 -70h-26q-12 12 -39 36t-47 44l-27 174
q-175 -39 -198 -40t-111 -16l-10 -8q0 -55 -18 -117q-18 -61 -23 -75l-33 -31q-16 12 -27 25l-4 -5q-12 51 -10 75t-3 28t0 13t-1 13q-2 4 1 12t-5 11q-2 2 3 10t-3 13q10 26 8 70t2 85t4 46v25q0 26 5 39t3 19q-3 6 5 18t-3 17q8 12 7 41q-2 29 4 36t6 11v4q4 61 6 77
t10 21q-2 0 -4 5l-4 2q8 32 8 36l8 50v18q2 16 6 28t7 37q2 26 4 31l8 35q6 33 6 35l19 115l8 24q4 23 8 64q14 70 20 84t8 29q1 15 8 41t9 46l14 66q3 33 27 39t58 16t53 15q25 -39 25 -49t4 -36q5 -26 2 -46q-2 -20 6 -32q8 -14 10 -20t2 -15z" />
    <glyph glyph-name="Adieresis" unicode="&#xc4;" horiz-adv-x="712" 
d="M553 1718l10 -47q-6 -8 -27 -41t-57 -49q-17 7 -24 29q-9 22 -13 30t-9 31t-9 33t6 35t12 33q76 0 111 -54zM254 1612q-18 -23 -33 -33q-59 8 -125 41q-5 43 -9 50q-5 6 -2 16t6 11q8 3 36 32q28 30 57 40t52 -10q22 -20 26 -53t-2 -44t-6 -50zM346 809l-6 47l-16 82v18
q-10 16 -18 52t-11 49q0 -5 -5 -21t-7 -26l-7 -45l-10 -50l-8 -30q0 -31 -5 -47t-6 -34t-4 -28t-4 -27t-3 -23t-9 -58q-8 -35 -11 -72t-7 -49t-4 -38l-12 -128q-1 -8 -5 -13q-4 -4 -5 -16t0 -25t1 -20q45 20 123 43t139 47q-12 49 -15 59t-5 30q-2 22 -5 31t-7 29t-10 36
t-18 62l-20 82q-9 36 -20 83zM414 1277q0 -9 2 -13l12 -68q2 -8 4 -22t6 -26t12 -45q8 -34 11 -46q4 -13 6 -31t5 -30t7 -44q4 -33 9 -47q4 -14 6 -37t4 -30q14 -15 14 -19v-15q0 -18 8 -30q-2 -20 27 -92q4 -45 8 -68q14 -27 25 -94q0 -23 6 -33t7 -20t3 -13t8 -32l6 -21
l31 -161q4 -8 3 -18t6 -41q7 -30 3 -46q0 -2 9 -10q-8 -19 -18 -67t-26 -70h-26q-12 12 -39 36t-47 44l-27 174q-175 -39 -198 -40t-111 -16l-10 -8q0 -55 -18 -117q-18 -61 -23 -75l-33 -31q-16 12 -27 25l-4 -5q-12 51 -10 75t-3 28t0 13t-1 13q-2 4 1 12t-5 11q-2 2 3 10
t-3 13q10 26 8 70t2 85t4 46v25q0 26 5 39t3 19q-3 6 5 18t-3 17q8 12 7 41q-2 29 4 36t6 11v4q4 61 6 77t10 21q-2 0 -4 5l-4 2q8 32 8 36l8 50v18q2 16 6 28t7 37q2 26 4 31l8 35q6 33 6 35l19 115l8 24q4 23 8 64q14 70 20 84t8 29q1 15 8 41t9 46l14 66q3 33 27 39
t58 16t53 15q25 -39 25 -49t4 -36q5 -26 2 -46q-2 -20 6 -32q8 -14 10 -20t2 -15z" />
    <glyph glyph-name="Aring" unicode="&#xc5;" horiz-adv-x="712" 
d="M272 1786q-8 0 -41 -2q-104 -34 -51 -148q14 -35 62 -67q51 -3 86 43q25 27 26 57q1 2 15 41q-11 19 -16 32t-11 14q-6 2 -34 16t-36 14zM346 809l-6 47l-16 82v18q-10 16 -18 52t-11 49q0 -5 -5 -21t-7 -26l-7 -45l-10 -50l-8 -30q0 -31 -5 -47t-6 -34t-4 -28t-4 -27
t-3 -23t-9 -58q-8 -35 -11 -72t-7 -49t-4 -38l-12 -128q-1 -8 -5 -13q-4 -4 -5 -16t0 -25t1 -20q45 20 123 43t139 47q-12 49 -15 59t-5 30q-2 22 -5 31t-7 29t-10 36t-18 62l-20 82q-9 36 -20 83zM508 1694l-8 -46q0 -14 -8 -18q0 -24 -39 -64t-64 -60t-72 -42
q-5 -2 -29 -2t-34 -6q-73 18 -111 53q-63 63 -81 111t-13 106q10 10 23 34q12 24 22 34t37 20t37 21h63l43 29h101q51 0 74 -23q2 -2 5 -2h5v-16q14 1 24 -15t17 -20v-35l14 -23q0 -3 3 -14q3 -10 -9 -22zM414 1277q0 -9 2 -13l12 -68q2 -8 4 -22t6 -26t12 -45q8 -34 11 -46
q4 -13 6 -31t5 -30t7 -44q4 -33 9 -47q4 -14 6 -37t4 -30q14 -15 14 -19v-15q0 -18 8 -30q-2 -20 27 -92q4 -45 8 -68q14 -27 25 -94q0 -23 6 -33t7 -20t3 -13t8 -32l6 -21l31 -161q4 -8 3 -18t6 -41q7 -30 3 -46q0 -2 9 -10q-8 -19 -18 -67t-26 -70h-26q-12 12 -39 36
t-47 44l-27 174q-175 -39 -198 -40t-111 -16l-10 -8q0 -55 -18 -117q-18 -61 -23 -75l-33 -31q-16 12 -27 25l-4 -5q-12 51 -10 75t-3 28t0 13t-1 13q-2 4 1 12t-5 11q-2 2 3 10t-3 13q10 26 8 70t2 85t4 46v25q0 26 5 39t3 19q-3 6 5 18t-3 17q8 12 7 41q-2 29 4 36t6 11v4
q4 61 6 77t10 21q-2 0 -4 5l-4 2q8 32 8 36l8 50v18q2 16 6 28t7 37q2 26 4 31l8 35q6 33 6 35l19 115l8 24q4 23 8 64q14 70 20 84t8 29q1 15 8 41t9 46l14 66q3 33 27 39t58 16t53 15q25 -39 25 -49t4 -36q5 -26 2 -46q-2 -20 6 -32q8 -14 10 -20t2 -15z" />
    <glyph glyph-name="AE" unicode="&#xc6;" horiz-adv-x="1040" 
d="M547 694q-6 116 2 162v12q0 60 4 72t0 19t-2 47t0 51q-2 -5 -11 -21q-8 -16 -14 -31t-13 -31t-13 -34q-6 -16 -10 -22t-9 -17q-6 -11 -10 -29t-12 -34q-9 -16 -15 -34t-10 -28t-10 -27t-10 -25t-22 -55q-18 -48 -27 -76t-17 -42t-14 -40t-24 -72t-19 -55q0 -9 -6 -15
q-5 -5 -9 -17t-6 -25t-4 -20q45 18 116 37t112 34t55 19q0 43 -1 57t2 33t1 29t-2 30v29q-2 18 -2 119zM729 827q6 -25 6 -107t8 -93q-8 -10 -8 -16l10 -31q-2 -18 -2 -60q6 0 21 -2t24 8q14 -6 42 -5t38 -2t40 -6t44 -15q23 -35 4 -107q-8 -6 -23 -14t-22 -12
q-63 -4 -155 30l-11 -14q5 -2 9 -6l-10 -24q1 -3 8 -11v-23q0 -133 5 -141t5 -14t-8 -14t10 -44q109 0 126 8q18 8 30 5q12 -4 38 -4t27 -2q2 -3 4 -11t8 -18q-6 -12 -15 -22t-13 -32t-17 -32q-23 -6 -113 -10t-112 -15h-45l-8 6h-12q-61 41 -77 107q-15 66 -10 160
q-171 -38 -217 -40q-46 -3 -133 -18q-4 -4 -12 -8q-10 -51 -42 -113q-33 -61 -42 -79l-41 -31q-14 14 -20 25l-5 -5q-4 45 4 69q7 26 5 32t4 15t2 13q-2 4 3 12t-1 11q-2 2 4 10t0 13q16 26 26 76q13 61 23 87t17 56t14 41q6 10 8 16t2 10t7 16t1 17q12 12 18 41q5 29 17 41
v4q2 4 4 6l27 90q0 4 10 8q-2 0 -4 5l-4 2l18 36l19 50q2 4 6 19t8 23q3 8 23 54q20 48 25 64t10 23t11 23q5 16 11 28t13 34q6 23 10 29t9 15t7 11l22 64q26 61 44 90t18 45q20 39 28 58t21 53q14 34 48 64t56 36l11 6l100 10q10 0 53 -3t56 0t27 -2t32 -5q4 -2 14 -27
q-6 -27 -20 -34q-12 -2 -35 -8t-45 -3q-12 -8 -48 -4t-48 2q-8 -12 -15 -18l6 -21l-14 -82q4 -4 4 -26t-2 -36q-2 -15 2 -22v-141l2 -22q0 -11 -8 -19q8 -31 3 -43q-5 -11 0 -37t3 -67t-2 -49z" />
    <glyph glyph-name="Ccedilla" unicode="&#xc7;" 
d="M104 1100l23 86q0 14 10 18q-3 26 13 56t34 83q23 51 70 107q8 8 59 21t60 20l10 -8l8 6l25 -21q18 -10 28 -38t15 -54q4 -24 8 -29t-6 -20q4 -8 8 -12q-15 -15 -23 -29l-36 31l-21 45q-14 -16 -18 -27q-30 -39 -35 -62q-4 -23 -14 -46t-12 -37t-12 -45q-9 -31 -18 -87
t-16 -71q4 -14 -2 -41q-6 -28 -5 -46t-5 -66t-5 -74q1 -25 1 -150q0 -2 -8 -18q6 -6 8 -12l8 -86q0 -34 5 -48t6 -30t3 -24t0 -31q-2 -22 2 -31q31 -111 66 -152q2 -4 5 -11t5 -11q8 -2 16 -14t21 -9q12 16 34 55t48 62t76 33l16 -23q0 2 2 2q17 -55 19 -64t1 -38t9 -35
q-12 -18 -25 -42t-26 -36l-19 -24q-4 -7 -19 -19t-20 -24q-6 -10 -20 -10t-21 -5q54 -11 78 -31q23 -20 28 -30t7 -13l20 -36q35 -51 9 -91q-2 -4 -2 -12q-6 -10 -20 -22t-17 -18q-2 -6 -11 -5q-27 -18 -67 -29l-64 -12q-15 -4 -45 -4q-66 0 -98 31l-12 18q-8 12 -13 19
l13 63l30 6q4 0 14 -4t19 -2q7 2 23 -4t30 -2t19 1q6 -3 10 5t15 0q2 0 57 12l22 17q-5 5 -8 18q-61 18 -64 20t-38 3l-68 6q-25 19 -12 61q2 20 12 39q-14 7 -44 17q-31 10 -55 20t-52 52t-50 112t-21 80t-7 37t-8 63l-17 90l2 43q0 69 -4 85t-4 57l6 18l-6 20v5q8 28 8 68
v65q0 15 4 29t2 26t6 18q7 5 5 14t8 93q16 86 20 95q4 10 4 24z" />
    <glyph glyph-name="Egrave" unicode="&#xc8;" horiz-adv-x="544" 
d="M176 1782l21 -8q6 0 10 -5t22 -15q17 -10 23 -17t30 -19t52 -30q0 -14 8 -46t6 -49q-16 -20 -61 -4l-64 29l-33 22q-66 45 -92 59t-32 27q-16 3 -37 18t-37 23t-21 37q56 36 76 31q20 -4 51 -18q31 -13 41 -17q11 -4 21 -10t16 -8zM195 752q-2 -18 -2 -66t8 -59
q-8 -10 -8 -16l10 -31q-2 -18 -2 -60q6 0 20 -2t25 8q14 -6 42 -5t39 -2t29 -6t33 -15q23 -35 4 -107q-8 -6 -23 -14t-22 -12q-90 -8 -135 10l-10 -15q2 0 8 -6q0 -6 -7 -7t5 -7v-23q0 -61 2 -92v-6q14 -14 5 -24q-9 -9 -7 -19t12 -31q109 1 126 9t29 4t38 -4t28 -2t4 -10
t9 -19q-5 -11 -15 -21t-14 -53t-16 -53q-23 -6 -112 -10t-114 -15h-45q-12 9 -42 21t-35 22t-5 15q0 4 -10 14t-2 64q8 55 9 61t-1 44t6 46q-9 13 -8 35q2 22 2 29v67l6 31l-6 18v101q0 4 5 19t-1 20q-6 4 -5 62t1 66t-4 31l2 27v33q0 2 2 6v4q-14 27 0 57q2 4 1 14t-3 11
q-10 4 -2 10t6 9q-2 2 -4 12t-6 14v115q0 4 -2 16t10 25v4q0 4 -7 19t1 20q8 12 6 23t0 20v45q0 4 -8 20l16 29q-16 8 -7 50t6 62q-4 20 10 46q14 28 14 30l41 33l100 10q9 0 53 -3t57 0t26 -2t32 -5q4 -2 15 -27q-14 -51 -21 -55q-12 -2 -35 -7t-45 -3q-12 -8 -48 -4t-48 2
q-8 -12 -14 -19l6 -20l-10 -25q0 -8 -5 -37q12 -11 6 -44t-1 -40v-141l2 -22q0 -12 -9 -19q8 -31 7 -37q-8 -18 -1 -49t-2 -110l-4 -7q6 -25 7 -26q-8 -8 2 -49z" />
    <glyph glyph-name="Eacute" unicode="&#xc9;" horiz-adv-x="464" 
d="M412 1784q10 0 18 4q12 -4 43 -11t45 -16q6 -16 -16 -39q-20 -16 -38 -27t-43 -27t-45 -24q-20 -9 -72 -40t-83 -43q-25 -16 -41 -21l-8 -6h-12l-15 8q12 37 40 70q28 32 66 66q37 34 75 58t50 28t19 12t17 8zM195 752q-2 -18 -2 -66t8 -59q-8 -10 -8 -16l10 -31
q-2 -18 -2 -60q6 0 20 -2t25 8q14 -6 42 -5t39 -2t29 -6t33 -15q23 -35 4 -107q-8 -6 -23 -14t-22 -12q-90 -8 -135 10l-10 -15q2 0 8 -6q0 -6 -7 -7t5 -7v-23q0 -61 2 -92v-6q14 -14 5 -24q-9 -9 -7 -19t12 -31q109 1 126 9t29 4t38 -4t28 -2t4 -10t9 -19q-5 -11 -15 -21
t-14 -53t-16 -53q-23 -6 -112 -10t-114 -15h-45q-12 9 -42 21t-35 22t-5 15q0 4 -10 14t-2 64q8 55 9 61t-1 44t6 46q-9 13 -8 35q2 22 2 29v67l6 31l-6 18v101q0 4 5 19t-1 20q-6 4 -5 62t1 66t-4 31l2 27v33q0 2 2 6v4q-14 27 0 57q2 4 1 14t-3 11q-10 4 -2 10t6 9
q-2 2 -4 12t-6 14v115q0 4 -2 16t10 25v4q0 4 -7 19t1 20q8 12 6 23t0 20v45q0 4 -8 20l16 29q-16 8 -7 50t6 62q-4 20 10 46q14 28 14 30l41 33l100 10q9 0 53 -3t57 0t26 -2t32 -5q4 -2 15 -27q-14 -51 -21 -55q-12 -2 -35 -7t-45 -3q-12 -8 -48 -4t-48 2q-8 -12 -14 -19
l6 -20l-10 -25q0 -8 -5 -37q12 -11 6 -44t-1 -40v-141l2 -22q0 -12 -9 -19q8 -31 7 -37q-8 -18 -1 -49t-2 -110l-4 -7q6 -25 7 -26q-8 -8 2 -49z" />
    <glyph glyph-name="Ecircumflex" unicode="&#xca;" horiz-adv-x="464" 
d="M6 1573l-10 41q0 12 4 19t9 23t14 23q-2 7 5 21t10 26t62 99q30 31 86 31t68 2l57 -41q8 -6 43 -48l92 -83q4 -2 18 -22t13 -24q-39 -68 -49 -75q-35 4 -56 22t-26 21q0 4 -8 13t-20 15t-31 25q-35 51 -58 63l-10 13h-10q-2 4 -10 8q-27 -7 -37 -23q-18 -14 -35 -39v-4
q-11 -9 -29 -33t-23 -29t-8 -11t-18 -21t-35 -16zM195 752q-2 -18 -2 -66t8 -59q-8 -10 -8 -16l10 -31q-2 -18 -2 -60q6 0 20 -2t25 8q14 -6 42 -5t39 -2t29 -6t33 -15q23 -35 4 -107q-8 -6 -23 -14t-22 -12q-90 -8 -135 10l-10 -15q2 0 8 -6q0 -6 -7 -7t5 -7v-23
q0 -61 2 -92v-6q14 -14 5 -24q-9 -9 -7 -19t12 -31q109 1 126 9t29 4t38 -4t28 -2t4 -10t9 -19q-5 -11 -15 -21t-14 -53t-16 -53q-23 -6 -112 -10t-114 -15h-45q-12 9 -42 21t-35 22t-5 15q0 4 -10 14t-2 64q8 55 9 61t-1 44t6 46q-9 13 -8 35q2 22 2 29v67l6 31l-6 18v101
q0 4 5 19t-1 20q-6 4 -5 62t1 66t-4 31l2 27v33q0 2 2 6v4q-14 27 0 57q2 4 1 14t-3 11q-10 4 -2 10t6 9q-2 2 -4 12t-6 14v115q0 4 -2 16t10 25v4q0 4 -7 19t1 20q8 12 6 23t0 20v45q0 4 -8 20l16 29q-16 8 -7 50t6 62q-4 20 10 46q14 28 14 30l41 33l100 10q9 0 53 -3
t57 0t26 -2t32 -5q4 -2 15 -27q-14 -51 -21 -55q-12 -2 -35 -7t-45 -3q-12 -8 -48 -4t-48 2q-8 -12 -14 -19l6 -20l-10 -25q0 -8 -5 -37q12 -11 6 -44t-1 -40v-141l2 -22q0 -12 -9 -19q8 -31 7 -37q-8 -18 -1 -49t-2 -110l-4 -7q6 -25 7 -26q-8 -8 2 -49z" />
    <glyph glyph-name="Edieresis" unicode="&#xcb;" horiz-adv-x="464" 
d="M467 1739l10 -53q-6 -10 -27 -49t-57 -58q-19 10 -27 34q-8 25 -12 35t-9 34q-5 26 -9 38t7 39t11 39q78 4 113 -59zM-8 1682q0 8 -2 14t3 11t9 10t17 19t29 32t38 24q38 16 60 -6t26 -59q4 -36 -2 -50t-6 -61q-2 -4 -33 -39q-66 12 -129 47q-2 18 -6 34t-4 24zM195 752
q-2 -18 -2 -66t8 -59q-8 -10 -8 -16l10 -31q-2 -18 -2 -60q6 0 20 -2t25 8q14 -6 42 -5t39 -2t29 -6t33 -15q23 -35 4 -107q-8 -6 -23 -14t-22 -12q-90 -8 -135 10l-10 -15q2 0 8 -6q0 -6 -7 -7t5 -7v-23q0 -61 2 -92v-6q14 -14 5 -24q-9 -9 -7 -19t12 -31q109 1 126 9t29 4
t38 -4t28 -2t4 -10t9 -19q-5 -11 -15 -21t-14 -53t-16 -53q-23 -6 -112 -10t-114 -15h-45q-12 9 -42 21t-35 22t-5 15q0 4 -10 14t-2 64q8 55 9 61t-1 44t6 46q-9 13 -8 35q2 22 2 29v67l6 31l-6 18v101q0 4 5 19t-1 20q-6 4 -5 62t1 66t-4 31l2 27v33q0 2 2 6v4
q-14 27 0 57q2 4 1 14t-3 11q-10 4 -2 10t6 9q-2 2 -4 12t-6 14v115q0 4 -2 16t10 25v4q0 4 -7 19t1 20q8 12 6 23t0 20v45q0 4 -8 20l16 29q-16 8 -7 50t6 62q-4 20 10 46q14 28 14 30l41 33l100 10q9 0 53 -3t57 0t26 -2t32 -5q4 -2 15 -27q-14 -51 -21 -55q-12 -2 -35 -7
t-45 -3q-12 -8 -48 -4t-48 2q-8 -12 -14 -19l6 -20l-10 -25q0 -8 -5 -37q12 -11 6 -44t-1 -40v-141l2 -22q0 -12 -9 -19q8 -31 7 -37q-8 -18 -1 -49t-2 -110l-4 -7q6 -25 7 -26q-8 -8 2 -49z" />
    <glyph glyph-name="Igrave" unicode="&#xcc;" horiz-adv-x="299" 
d="M-145 1839q53 40 74 35q21 -4 53 -20t42 -18q11 -3 21 -10t14 -8q3 0 11 -6t12 -5t10 -5t24 -17t24 -17t32 -22q26 -14 47 -30q2 -12 10 -47t7 -55q-18 -25 -62 -4q-12 4 -36 16l-28 14t-16 10t-46 34t-48 34t-26 18t-17 11q-2 2 -4 6t-13 6t-29 18q-19 17 -28 21
q-22 8 -28 41zM193 1255q-1 -4 5 -12t1 -16q-8 -3 -2 -13t2 -18t0 -27l4 -69q0 -8 -2 -33t2 -32t4 -48v-47l6 -49q0 -4 -2 -26q-2 -23 1 -29t3 -72q6 -49 6 -53q0 -5 -2 -25t4 -32t2 -62l6 -60l-2 -44q0 -11 4 -24q5 -13 3 -44t0 -47q8 0 4 -94l-4 -97q0 -8 8 -24l-11 -11
l9 -16q-16 -25 -7 -35t3 -20t-2 -45t-5 -58q-12 -15 -55 -30t-52 -19t-28 -4q-12 16 -14 26t-6 40q-10 18 -5 119t5 122l-4 95q0 6 3 46t-1 51t-2 56t0 63t-2 57l-8 111q1 42 1 54l-6 49v53q-4 14 -3 41t-2 44t-2 57t-2 64t-1 74t-3 90q-6 40 0 144t26 152q70 -18 106 -47
q16 -15 16 -37t4 -91q3 -69 -3 -89v-9z" />
    <glyph glyph-name="Iacute" unicode="&#xcd;" horiz-adv-x="299" 
d="M80 1606l-10 -7h-15l-14 11q10 41 46 84q36 42 84 86q47 44 97 74t56 36t26 6l12 7q12 -5 48 -13t53 -20q8 -18 -22 -46t-46 -37t-43 -27q-28 -18 -50 -29q-22 -9 -81 -47q-90 -56 -141 -78zM193 1255q-1 -4 5 -12t1 -16q-8 -3 -2 -13t2 -18t0 -27l4 -69q0 -8 -2 -33
t2 -32t4 -48v-47l6 -49q0 -4 -2 -26q-2 -23 1 -29t3 -72q6 -49 6 -53q0 -5 -2 -25t4 -32t2 -62l6 -60l-2 -44q0 -11 4 -24q5 -13 3 -44t0 -47q8 0 4 -94l-4 -97q0 -8 8 -24l-11 -11l9 -16q-16 -25 -7 -35t3 -20t-2 -45t-5 -58q-12 -15 -55 -30t-52 -19t-28 -4q-12 16 -14 26
t-6 40q-10 18 -5 119t5 122l-4 95q0 6 3 46t-1 51t-2 56t0 63t-2 57l-8 111q1 42 1 54l-6 49v53q-4 14 -3 41t-2 44t-2 57t-2 64t-1 74t-3 90q-6 40 0 144t26 152q70 -18 106 -47q16 -15 16 -37t4 -91q3 -69 -3 -89v-9z" />
    <glyph glyph-name="Icircumflex" unicode="&#xce;" horiz-adv-x="299" 
d="M116 1894q34 0 46 2l57 -45q7 -8 21 -26t20 -25l88 -92q6 -4 18 -24t13 -25q-37 -76 -47 -84q-38 3 -58 25t-22 22q-3 13 -27 31q-23 18 -30 28q-35 55 -58 70l-8 12h-10l-10 11q-30 -14 -37 -25l-31 -41v-2q0 -2 -7 -8q-8 -6 -24 -33t-21 -33t-8 -12t-6 -8
q-27 -31 -45 -33l-8 4q0 5 -10 45q0 14 4 22t9 26q5 17 12 24q-2 8 6 22t10 22t9 24q8 16 28 52t24 40q24 34 102 34zM193 1255q-1 -4 5 -12t1 -16q-8 -3 -2 -13t2 -18t0 -27l4 -69q0 -8 -2 -33t2 -32t4 -48v-47l6 -49q0 -4 -2 -26q-2 -23 1 -29t3 -72q6 -49 6 -53
q0 -5 -2 -25t4 -32t2 -62l6 -60l-2 -44q0 -11 4 -24q5 -13 3 -44t0 -47q8 0 4 -94l-4 -97q0 -8 8 -24l-11 -11l9 -16q-16 -25 -7 -35t3 -20t-2 -45t-5 -58q-12 -15 -55 -30t-52 -19t-28 -4q-12 16 -14 26t-6 40q-10 18 -5 119t5 122l-4 95q0 6 3 46t-1 51t-2 56t0 63t-2 57
l-8 111q1 42 1 54l-6 49v53q-4 14 -3 41t-2 44t-2 57t-2 64t-1 74t-3 90q-6 40 0 144t26 152q70 -18 106 -47q16 -15 16 -37t4 -91q3 -69 -3 -89v-9z" />
    <glyph glyph-name="Idieresis" unicode="&#xcf;" horiz-adv-x="299" 
d="M346 1765l10 -49q-8 -10 -29 -44t-59 -54q-22 11 -29 33t-11 31t-10 32q-5 23 -9 35t6 38t12 34q80 2 119 -56zM27 1653l-33 -35q-61 8 -135 43q-6 51 -10 56q-5 5 -2 15t7 11q4 2 20 17l32 32q16 16 41 23q37 16 61 -6q24 -21 29 -55q4 -34 -8 -54q-2 -6 -2 -47z
M193 1255q-1 -4 5 -12t1 -16q-8 -3 -2 -13t2 -18t0 -27l4 -69q0 -8 -2 -33t2 -32t4 -48v-47l6 -49q0 -4 -2 -26q-2 -23 1 -29t3 -72q6 -49 6 -53q0 -5 -2 -25t4 -32t2 -62l6 -60l-2 -44q0 -11 4 -24q5 -13 3 -44t0 -47q8 0 4 -94l-4 -97q0 -8 8 -24l-11 -11l9 -16
q-16 -25 -7 -35t3 -20t-2 -45t-5 -58q-12 -15 -55 -30t-52 -19t-28 -4q-12 16 -14 26t-6 40q-10 18 -5 119t5 122l-4 95q0 6 3 46t-1 51t-2 56t0 63t-2 57l-8 111q1 42 1 54l-6 49v53q-4 14 -3 41t-2 44t-2 57t-2 64t-1 74t-3 90q-6 40 0 144t26 152q70 -18 106 -47
q16 -15 16 -37t4 -91q3 -69 -3 -89v-9z" />
    <glyph glyph-name="Eth" unicode="&#xd0;" horiz-adv-x="655" 
d="M371 684h-70q-41 0 -72 14h-4v-24q0 -4 6 -29q-4 -25 -4 -27q12 -16 4 -22t-1 -12t3 -11l-10 -10q23 -18 0 -37l13 -14l-7 -8l4 -25q-8 -6 -8 -33v-69q0 -21 -3 -27t2 -15t-1 -19t-6 -56v-8q-8 -8 -8 -26v-21q-8 -25 -8 -53l-8 -29q0 -12 -3 -23q24 18 58 52l-6 8l49 61
v19l16 14q6 29 15 38t24 47q14 37 26 59t9 51l12 10l19 67l18 82q2 4 1 16t5 15q4 4 -1 12q-5 9 0 13t6 15t4 15t-3 21q4 12 4 23v44q0 33 3 47l2 31q0 7 -11 84q-12 33 -2 35q-8 6 -7 23q1 16 -4 22t-1 10v4q-2 8 -9 31t-12 47t-22 71q-17 46 -21 55t-4 14q0 6 -11 16
t-7 18q-39 74 -90 131q-18 18 -80 54q-2 -3 -2 -9v-15q0 -20 5 -31t6 -30q1 -20 4 -30t3 -40l17 -161q0 -31 6 -47q-4 -38 2 -104t6 -95l-2 -20h61l27 -16l10 8l19 -8q16 -10 26 -7l54 -129v-45q-10 -12 -41 -12zM94 928q-12 12 -8 71v123q0 43 -6 59t-4 58q2 43 2 57l-8 25
q12 18 4 42t-3 33t5 52q4 37 -6 49q2 2 6 24t16 31q4 -2 12 -5t16 -7t33 -12l57 -19q71 -24 148 -110t134 -224q16 -42 29 -76q13 -33 19 -55t14 -56q9 -34 9 -50t4 -30t2 -27q-2 -12 5 -16q6 -3 6 -13l8 -86v-88q0 -16 -6 -54t-2 -59q-6 -10 -10 -38t-15 -42q2 -10 -3 -27
t-10 -49q-5 -31 -34 -93t-29 -70v-6q-4 -6 -17 -21t-13 -26l-19 -50q-4 -8 -17 -23t-23 -35t-32 -38q-20 -19 -26 -35t-33 -41t-31 -31t-29 -21q-25 -14 -34 -23q-51 -2 -103 22q0 20 2 31h5l-7 14q-23 16 -33 50q-11 33 -16 40v31q0 20 -4 22t0 12q3 10 1 22q-2 11 11 63
v14q3 17 7 27t6 36t3 46t5 25t-4 30q12 23 8 59q0 44 4 50t4 22v211q-23 -4 -33 8h-8q-74 6 -87 8t-39 3t-35 3t-56 23v27l30 36q19 25 23 29l37 8h43q9 8 33 8t40 6q16 5 26 3q8 -2 26 -2v4l-6 28q0 6 6 13z" />
    <glyph glyph-name="Ntilde" unicode="&#xd1;" horiz-adv-x="886" 
d="M244 1769q10 0 14 5q8 -2 22 3t19 5q4 0 8 2t7 0q4 -2 16 -7t18 -7t13 -12q7 -9 19 -14t17 -26q3 -2 15 -15t20 -15l19 -19q10 0 16 -2l92 92q20 20 51 29l13 -16q-1 -2 -13 -38t-27 -66l-18 -36q-10 -20 -17 -27t-14 -17q-6 -10 -10 -11q-4 -2 -8 -5t-9 -6t-7 -5l-19 -5
q-50 -16 -122 69q-23 27 -29 34l-27 22q-2 2 -11 2t-13 7q-4 -4 -17 -4t-24 -15l-15 -4q-6 -4 -19 -14t-25 -20q-11 -9 -21 -23t-17 -19q-3 9 -14 31q2 53 40 91t62 48q5 8 15 8zM49 1090q0 32 5 45q5 12 3 41q-2 30 0 38t9 59t36 89h25l14 -21q8 12 21 37h49l65 -61
q13 -10 19 -28q6 -19 11 -29t11 -35q-4 -4 -4 -6l15 -62q6 -35 8 -39t2 -17l6 -36q0 -14 8 -16v-5q2 -38 20 -106t22 -82q3 -14 10 -34q8 -20 10 -30q2 -12 14 -48t13 -50t11 -29t9 -26l16 -57q-1 -4 9 -32t15 -44t14 -36t10 -35t18 -27v14q-2 43 5 133t3 137q11 45 9 95
q-1 49 -1 65v164l-2 61q0 97 7 105t3 28q-14 30 -6 58t7 64t-1 62t5 31t3 23t9 25q-2 8 7 56q18 95 60 95l23 16q52 -40 104 -100q8 -22 9 -62t7 -70t3 -66q-4 -36 -1 -44t3 -18l-2 -41v-174q0 -6 -4 -39q12 -23 3 -47t-8 -27q15 -11 12 -26q-3 -16 -3 -35t-6 -27
q6 -8 0 -32t1 -28q7 -5 7 -8t-6 -9q-5 -7 -5 -61v-60t-8 -23q18 -27 2 -47q-2 -2 -2 -21v-81l-8 -156l-16 -88v-47q-14 -61 -17 -76q-8 -6 -8 -17v-18q-12 -18 -14 -22q-10 -33 -72 -58q-29 -8 -86 -28q-20 4 -32 14q-11 10 -22 37t-10 33t-28 68q-29 64 -40 100t-26 65
q-14 29 -24 65t-31 72q-4 45 -13 60t-11 34t-6 28q-4 10 -9 26q-4 16 -14 34t-8 29q-8 5 -7 21t-8 24t-7 28q3 20 -20 71q-22 51 -22 77t-4 33q0 -4 -6 -24t2 -25q-11 -20 -10 -54q2 -34 2 -44v-119q0 -29 -7 -35t2 -16t3 -23l-6 -24q-4 -5 0 -19t2 -21t-2 -42v-86
q0 -35 -9 -45l7 -21l-7 -14v-78q-4 -29 -2 -35q-10 -6 -8 -18t2 -17l-6 -32q-10 -30 -10 -72q-16 -72 -24 -74t-30 -18q-24 -16 -49 -17l-20 23v321q0 43 8 62t-4 38t0 32q12 12 2 26t-5 22t7 15q2 8 1 20t-1 19v131q0 25 -6 30t-1 27t0 56q-5 35 3 92q-4 18 0 39
q-6 31 -4 36t8 44v127z" />
    <glyph glyph-name="Ograve" unicode="&#xd2;" horiz-adv-x="696" 
d="M25 1769q57 33 72 36t35 0t63 -20t57 -21t28 -11q14 -8 18 -9q5 -1 13 -6q9 -5 15 -4t13 -6q7 -8 33 -20t36 -20q0 -4 38 -22t64 -34q2 -14 13 -52t7 -60q-22 -26 -66 -10q-91 32 -116 47q-24 13 -68 41t-63 37t-39 21t-23 15q-3 4 -5 6q-18 5 -50 23t-39 22
q-30 12 -36 47zM143 403q1 -12 7 -41t3 -40t13 -64l-4 -6q16 -50 26 -68t11 -30q4 -23 24 -29q27 37 34 42t12 22t20 38t17 34t22 50q19 37 35 82t18 67t16 66q15 43 17 69t10 46t6 47t19 60q-15 29 -9 39t5 22t1 17q2 6 2 34t3 33q12 20 -2 57l6 6l-6 17v59q3 41 -9 72
t-9 56t-9 49q-12 23 -15 37t-28 56t-27 48q-6 -10 -28 -41t-31 -59q-7 -27 -23 -48t-17 -42t-10 -47t-11 -35t-9 -35q-8 -26 -6 -42q-4 -3 -13 -27t-11 -54t-17 -58l6 -6q-15 -47 -13 -74q1 -28 -3 -32l-6 -25q0 -2 -3 -10t2 -11q5 -2 -1 -10t-6 -12q8 -32 -3 -54t3 -42
q-8 -4 -4 -16t0 -17q-4 -4 -3 -21t-8 -26l6 -12v-91zM20 469q0 17 9 23q-16 25 -8 49t8 47t-6 26q6 8 8 32t6 38l-10 8q12 10 10 32t3 28t5 10l8 86q2 6 5 14t5 24t13 64q12 48 16 54t6 8t2 4l-6 18q4 16 15 43q10 27 14 39l20 70q5 12 13 18t5 16t6 19q9 8 9 12q0 27 33 56
q0 21 14 36q13 15 23 29t39 39q9 7 31 17t30 16q10 0 39 2t51 -10q18 -25 10 -50l-14 -12q-33 27 -37 29l-12 -27l117 -14q54 -41 80 -75q25 -34 40 -94t17 -65v-2q-4 -14 2 -36t6 -30q0 -7 -1 -27t9 -36v-6q0 -8 -6 -27q-6 -18 0 -28t6 -31v-22l-6 -29l8 -10l-18 -35v-6
q12 -10 5 -42t-5 -39t-2 -13t-4 -11l-10 -31q0 -5 8 -16q-8 -33 -15 -47q-8 -32 -13 -64t-21 -65q-9 -11 -9 -15q0 -5 -16 -61q-8 -11 -20 -49q-11 -37 -21 -47t-49 -78q-53 -80 -65 -90q-12 -11 -24 -29q-68 -97 -165 -96q-55 27 -64 39q-77 96 -86 144l-14 55l-16 55
q-8 33 4 45l-6 41q0 4 -4 14t2 15q-11 10 -9 22t2 29z" />
    <glyph glyph-name="Oacute" unicode="&#xd3;" horiz-adv-x="696" 
d="M268 1559l-10 -7h-14l-15 11q10 41 46 83q88 104 159 148q72 43 79 49t26 6l12 6q12 -6 48 -13t52 -19q8 -18 -18 -45q-33 -29 -49 -38q-16 -10 -43 -28t-49 -28t-82 -48q-88 -56 -142 -77zM143 403q1 -12 7 -41t3 -40t13 -64l-4 -6q16 -50 26 -68t11 -30q4 -23 24 -29
q27 37 34 42t12 22t20 38t17 34t22 50q19 37 35 82t18 67t16 66q15 43 17 69t10 46t6 47t19 60q-15 29 -9 39t5 22t1 17q2 6 2 34t3 33q12 20 -2 57l6 6l-6 17v59q3 41 -9 72t-9 56t-9 49q-12 23 -15 37t-28 56t-27 48q-6 -10 -28 -41t-31 -59q-7 -27 -23 -48t-17 -42
t-10 -47t-11 -35t-9 -35q-8 -26 -6 -42q-4 -3 -13 -27t-11 -54t-17 -58l6 -6q-15 -47 -13 -74q1 -28 -3 -32l-6 -25q0 -2 -3 -10t2 -11q5 -2 -1 -10t-6 -12q8 -32 -3 -54t3 -42q-8 -4 -4 -16t0 -17q-4 -4 -3 -21t-8 -26l6 -12v-91zM20 469q0 17 9 23q-16 25 -8 49t8 47
t-6 26q6 8 8 32t6 38l-10 8q12 10 10 32t3 28t5 10l8 86q2 6 5 14t5 24t13 64q12 48 16 54t6 8t2 4l-6 18q4 16 15 43q10 27 14 39l20 70q5 12 13 18t5 16t6 19q9 8 9 12q0 27 33 56q0 21 14 36q13 15 23 29t39 39q9 7 31 17t30 16q10 0 39 2t51 -10q18 -25 10 -50l-14 -12
q-33 27 -37 29l-12 -27l117 -14q54 -41 80 -75q25 -34 40 -94t17 -65v-2q-4 -14 2 -36t6 -30q0 -7 -1 -27t9 -36v-6q0 -8 -6 -27q-6 -18 0 -28t6 -31v-22l-6 -29l8 -10l-18 -35v-6q12 -10 5 -42t-5 -39t-2 -13t-4 -11l-10 -31q0 -5 8 -16q-8 -33 -15 -47q-8 -32 -13 -64
t-21 -65q-9 -11 -9 -15q0 -5 -16 -61q-8 -11 -20 -49q-11 -37 -21 -47t-49 -78q-53 -80 -65 -90q-12 -11 -24 -29q-68 -97 -165 -96q-55 27 -64 39q-77 96 -86 144l-14 55l-16 55q-8 33 4 45l-6 41q0 4 -4 14t2 15q-11 10 -9 22t2 29z" />
    <glyph glyph-name="Ocircumflex" unicode="&#xd4;" horiz-adv-x="696" 
d="M246 1620q0 -2 -9 -8t-29 -33t-34 -37l-12 -16q-35 -31 -58 -33l-10 4q-12 41 -13 48t4 17t11 27q6 18 17 25q-2 10 7 24t13 24t33 53t47 61t51 25t76 7t59 2l72 -45q13 -8 29 -26t24 -25l113 -92q9 -4 23 -24t14 -25q-39 -70 -60 -84q-45 5 -68 25t-32 22q0 2 -16 18
t-23 15q-4 4 -16 12t-19 14q-43 55 -71 70l-13 12h-12q-8 8 -12 11q-35 -13 -48 -25t-38 -41v-2zM143 403q1 -12 7 -41t3 -40t13 -64l-4 -6q16 -50 26 -68t11 -30q4 -23 24 -29q27 37 34 42t12 22t20 38t17 34t22 50q19 37 35 82t18 67t16 66q15 43 17 69t10 46t6 47t19 60
q-15 29 -9 39t5 22t1 17q2 6 2 34t3 33q12 20 -2 57l6 6l-6 17v59q3 41 -9 72t-9 56t-9 49q-12 23 -15 37t-28 56t-27 48q-6 -10 -28 -41t-31 -59q-7 -27 -23 -48t-17 -42t-10 -47t-11 -35t-9 -35q-8 -26 -6 -42q-4 -3 -13 -27t-11 -54t-17 -58l6 -6q-15 -47 -13 -74
q1 -28 -3 -32l-6 -25q0 -2 -3 -10t2 -11q5 -2 -1 -10t-6 -12q8 -32 -3 -54t3 -42q-8 -4 -4 -16t0 -17q-4 -4 -3 -21t-8 -26l6 -12v-91zM20 469q0 17 9 23q-16 25 -8 49t8 47t-6 26q6 8 8 32t6 38l-10 8q12 10 10 32t3 28t5 10l8 86q2 6 5 14t5 24t13 64q12 48 16 54t6 8t2 4
l-6 18q4 16 15 43q10 27 14 39l20 70q5 12 13 18t5 16t6 19q9 8 9 12q0 27 33 56q0 21 14 36q13 15 23 29t39 39q9 7 31 17t30 16q10 0 39 2t51 -10q18 -25 10 -50l-14 -12q-33 27 -37 29l-12 -27l117 -14q54 -41 80 -75q25 -34 40 -94t17 -65v-2q-4 -14 2 -36t6 -30
q0 -7 -1 -27t9 -36v-6q0 -8 -6 -27q-6 -18 0 -28t6 -31v-22l-6 -29l8 -10l-18 -35v-6q12 -10 5 -42t-5 -39t-2 -13t-4 -11l-10 -31q0 -5 8 -16q-8 -33 -15 -47q-8 -32 -13 -64t-21 -65q-9 -11 -9 -15q0 -5 -16 -61q-8 -11 -20 -49q-11 -37 -21 -47t-49 -78q-53 -80 -65 -90
q-12 -11 -24 -29q-68 -97 -165 -96q-55 27 -64 39q-77 96 -86 144l-14 55l-16 55q-8 33 4 45l-6 41q0 4 -4 14t2 15q-11 10 -9 22t2 29z" />
    <glyph glyph-name="Otilde" unicode="&#xd5;" horiz-adv-x="696" 
d="M178 1751q10 0 15 4q8 -2 22 3q15 5 19 5t8 2t11 -3t22 -9q14 -4 21 -13t18 -14t18 -26q4 -2 15 -16t20 -15l18 -18q10 0 16 -2l93 92q20 20 51 28l12 -16q0 -1 -12 -37q-11 -36 -27 -66t-22 -43t-14 -21t-19 -20q-12 -13 -19 -18q-8 -4 -10 -6l-18 -4q-44 -14 -117 59
q-20 30 -35 43l-26 23q-2 2 -12 2t-13 6q-5 -4 -17 -4t-24 -14l-14 -4l-49 -37q-7 -6 -17 -20t-16 -19l-15 31q3 53 41 91t62 48q4 8 14 8zM143 403q1 -12 7 -41t3 -40t13 -64l-4 -6q16 -50 26 -68t11 -30q4 -23 24 -29q27 37 34 42t12 22t20 38t17 34t22 50q19 37 35 82
t18 67t16 66q15 43 17 69t10 46t6 47t19 60q-15 29 -9 39t5 22t1 17q2 6 2 34t3 33q12 20 -2 57l6 6l-6 17v59q3 41 -9 72t-9 56t-9 49q-12 23 -15 37t-28 56t-27 48q-6 -10 -28 -41t-31 -59q-7 -27 -23 -48t-17 -42t-10 -47t-11 -35t-9 -35q-8 -26 -6 -42q-4 -3 -13 -27
t-11 -54t-17 -58l6 -6q-15 -47 -13 -74q1 -28 -3 -32l-6 -25q0 -2 -3 -10t2 -11q5 -2 -1 -10t-6 -12q8 -32 -3 -54t3 -42q-8 -4 -4 -16t0 -17q-4 -4 -3 -21t-8 -26l6 -12v-91zM20 469q0 17 9 23q-16 25 -8 49t8 47t-6 26q6 8 8 32t6 38l-10 8q12 10 10 32t3 28t5 10l8 86
q2 6 5 14t5 24t13 64q12 48 16 54t6 8t2 4l-6 18q4 16 15 43q10 27 14 39l20 70q5 12 13 18t5 16t6 19q9 8 9 12q0 27 33 56q0 21 14 36q13 15 23 29t39 39q9 7 31 17t30 16q10 0 39 2t51 -10q18 -25 10 -50l-14 -12q-33 27 -37 29l-12 -27l117 -14q54 -41 80 -75
q25 -34 40 -94t17 -65v-2q-4 -14 2 -36t6 -30q0 -7 -1 -27t9 -36v-6q0 -8 -6 -27q-6 -18 0 -28t6 -31v-22l-6 -29l8 -10l-18 -35v-6q12 -10 5 -42t-5 -39t-2 -13t-4 -11l-10 -31q0 -5 8 -16q-8 -33 -15 -47q-8 -32 -13 -64t-21 -65q-9 -11 -9 -15q0 -5 -16 -61
q-8 -11 -20 -49q-11 -37 -21 -47t-49 -78q-53 -80 -65 -90q-12 -11 -24 -29q-68 -97 -165 -96q-55 27 -64 39q-77 96 -86 144l-14 55l-16 55q-8 33 4 45l-6 41q0 4 -4 14t2 15q-11 10 -9 22t2 29z" />
    <glyph glyph-name="Odieresis" unicode="&#xd6;" horiz-adv-x="696" 
d="M629 1675l12 -57q-7 -10 -25 -38q-38 -60 -79 -77q-24 10 -34 37q-9 26 -15 36t-10 39q-5 28 -10 42t7 43t14 41q94 2 140 -66zM254 1542q-18 -20 -41 -41q-74 10 -158 51q-11 65 -14 68q-2 4 2 15t16 21t50 48q23 20 59 34t64 -12t32 -66t-8 -61q-2 -6 -2 -57zM143 403
q1 -12 7 -41t3 -40t13 -64l-4 -6q16 -50 26 -68t11 -30q4 -23 24 -29q27 37 34 42t12 22t20 38t17 34t22 50q19 37 35 82t18 67t16 66q15 43 17 69t10 46t6 47t19 60q-15 29 -9 39t5 22t1 17q2 6 2 34t3 33q12 20 -2 57l6 6l-6 17v59q3 41 -9 72t-9 56t-9 49q-12 23 -15 37
t-28 56t-27 48q-6 -10 -28 -41t-31 -59q-7 -27 -23 -48t-17 -42t-10 -47t-11 -35t-9 -35q-8 -26 -6 -42q-4 -3 -13 -27t-11 -54t-17 -58l6 -6q-15 -47 -13 -74q1 -28 -3 -32l-6 -25q0 -2 -3 -10t2 -11q5 -2 -1 -10t-6 -12q8 -32 -3 -54t3 -42q-8 -4 -4 -16t0 -17
q-4 -4 -3 -21t-8 -26l6 -12v-91zM20 469q0 17 9 23q-16 25 -8 49t8 47t-6 26q6 8 8 32t6 38l-10 8q12 10 10 32t3 28t5 10l8 86q2 6 5 14t5 24t13 64q12 48 16 54t6 8t2 4l-6 18q4 16 15 43q10 27 14 39l20 70q5 12 13 18t5 16t6 19q9 8 9 12q0 27 33 56q0 21 14 36
q13 15 23 29t39 39q9 7 31 17t30 16q10 0 39 2t51 -10q18 -25 10 -50l-14 -12q-33 27 -37 29l-12 -27l117 -14q54 -41 80 -75q25 -34 40 -94t17 -65v-2q-4 -14 2 -36t6 -30q0 -7 -1 -27t9 -36v-6q0 -8 -6 -27q-6 -18 0 -28t6 -31v-22l-6 -29l8 -10l-18 -35v-6q12 -10 5 -42
t-5 -39t-2 -13t-4 -11l-10 -31q0 -5 8 -16q-8 -33 -15 -47q-8 -32 -13 -64t-21 -65q-9 -11 -9 -15q0 -5 -16 -61q-8 -11 -20 -49q-11 -37 -21 -47t-49 -78q-53 -80 -65 -90q-12 -11 -24 -29q-68 -97 -165 -96q-55 27 -64 39q-77 96 -86 144l-14 55l-16 55q-8 33 4 45l-6 41
q0 4 -4 14t2 15q-11 10 -9 22t2 29z" />
    <glyph glyph-name="Oslash" unicode="&#xd8;" horiz-adv-x="696" 
d="M356 716q0 -9 -7 -31t-9 -32t-21 -61q-4 -25 -17 -74t-15 -61t-15 -60q-10 -23 -6 -32q-14 -14 -14 -78l-10 -25l-9 -67q0 -4 -10 -15q6 -20 -4 -55h4q27 37 34 42t12 22t20 38t17 34t22 50q19 37 35 82t18 67t16 66q15 43 17 69t10 46t6 47t19 60q-15 29 -9 39t5 22
t1 17q2 6 2 34t3 33q12 20 -2 57l6 6l-6 17v16l-25 -67q-2 -6 -7 -16t-7 -18l-6 -18l-26 -78t-22 -76zM182 856q-15 -47 -13 -74q1 -28 -3 -32l-6 -25q0 -2 -3 -10t2 -11q5 -2 -1 -10t-6 -12q8 -32 -3 -54t3 -42q-6 -6 -2 -25q4 23 24 78q20 54 26 78t21 61l10 27q0 4 13 26
q6 19 22 59t22 58t26 58q19 40 26 61q7 20 21 45q14 24 28 57t27 48q0 4 -8 20q-4 23 -29 65t-27 48q-6 -10 -28 -41t-31 -59q-7 -27 -23 -48t-17 -42t-10 -47t-11 -35t-9 -35q-8 -26 -6 -42q-4 -3 -13 -27t-11 -54t-17 -58zM20 469q0 17 9 23q-16 25 -8 49t8 47t-6 26
q6 8 8 32t6 38l-10 8q12 10 10 32t3 28t5 10l8 86q2 6 5 14t5 24t13 64q12 48 16 54t6 8t2 4l-6 18q4 16 15 43q10 27 14 39l20 70q5 12 13 18t5 16t6 19q9 8 9 12q0 27 33 56q0 21 14 36q13 15 23 29t39 39q9 6 31 16t30 17q10 0 39 2t51 -10q18 -25 10 -50l-14 -12
q-33 27 -37 29l-12 -27l111 -14l20 41l8 8q12 29 51 64q0 4 11 4q39 -39 39 -78q-8 -14 -11 -19l-10 -26l-14 -27q0 -15 -13 -41q27 -23 43 -89q17 -66 19 -71v-2q-4 -14 2 -36t6 -30q0 -7 -1 -27t9 -36v-6q0 -8 -6 -27q-6 -18 0 -28t6 -31v-22l-6 -29l8 -10l-18 -35v-6
q12 -10 5 -42t-5 -39t-2 -13t-4 -11l-10 -31q0 -5 8 -16q-8 -33 -15 -47q-8 -32 -13 -64t-21 -65q-9 -11 -9 -15q0 -5 -16 -61q-8 -11 -20 -49q-11 -37 -21 -47t-49 -78q-53 -80 -65 -90q-12 -11 -24 -29q-68 -97 -165 -96l-14 6q-1 -10 -7 -18t-5 -17t-29 -79q-8 0 -37 -11
l-43 -14l-43 -6q-27 18 -21 48t7 59q1 30 11 78t17 90l8 56t-2 27q-4 12 -6 19l-16 55q-8 33 4 45l-6 41q0 4 -4 14t2 15q-11 10 -9 22t2 29z" />
    <glyph glyph-name="Ugrave" unicode="&#xd9;" horiz-adv-x="745" 
d="M49 1784q52 41 75 36q23 -4 57 -20t44 -19q9 -3 21 -11t16 -8q4 -1 11 -6t11 -4t11 -5q5 -6 25 -17q20 -12 25 -18t37 -24t46 -27q2 -12 10 -47t6 -55q-21 -27 -85 5q-47 21 -96 57q-49 35 -70 46l-37 25l-6 6l-3 4q-17 3 -39 20t-30 21q-23 8 -29 41zM506 1376
q0 3 22 56t31 69q15 -89 29 -123t16 -50t5 -24q3 -7 20 -83q8 -3 4 -9t-4 -8l8 -18q6 -43 8 -48t8 -55l9 -77l10 -11l-10 -10q8 -17 8 -43t4 -29q16 -20 -4 -32l8 -25l8 -201l-8 -69q0 -8 2 -38t-4 -32q-4 -10 -6 -33t-6 -33q-8 -20 -5 -44l3 -21q-16 -19 -20 -50
q-5 -31 -9 -44q-10 -10 -13 -28t-19 -49q-17 -31 -27 -53t-60 -79q-23 -27 -82 -49q-89 -42 -109 -43q-20 -2 -55 4q-44 22 -51 33q-35 61 -42 74t-15 42l-27 123q-2 8 -3 31t-6 34t-5 42t-8 45v26q0 25 -7 98q-6 73 -2 113q-8 19 -7 51t-4 54t-4 68t-4 71t-4 75t-4 80
t-5 124q-9 139 1 199q11 60 15 89l27 35q14 -2 22 -16t17 -17v-51q-4 -43 2 -122t6 -113q6 -16 6 -48t4 -44l6 -99q0 -6 5 -22t2 -37t0 -32t7 -42t8 -46q5 -15 2 -35t9 -34v-20q0 -35 5 -43t3 -24t8 -21v-10q-4 -19 2 -55t6 -50l9 -35l6 -30q4 -7 6 -23t5 -25t7 -61l8 -14
l9 -19q-3 -22 11 -56q13 -35 15 -46l6 -21q8 -12 13 -22q39 28 56 60q16 32 34 71t18 53t10 19q0 8 17 67q10 52 9 78t5 60t4 53q-2 18 -2 97q0 80 1 104t-5 56t-4 50q4 0 2 51l-2 53v101q0 12 6 51t2 61q10 8 11 30q0 22 8 34t8 59z" />
    <glyph glyph-name="Uacute" unicode="&#xda;" horiz-adv-x="745" 
d="M281 1538l-9 -6h-14q-8 8 -12 10q22 71 147 187q27 25 78 53l31 18q12 10 28 10l11 7q12 -5 45 -13t47 -18q8 -18 -17 -43q-33 -27 -47 -35t-39 -26t-44 -27q-19 -10 -74 -45q-90 -57 -131 -72zM506 1376q0 3 22 56t31 69q15 -89 29 -123t16 -50t5 -24q3 -7 20 -83
q8 -3 4 -9t-4 -8l8 -18q6 -43 8 -48t8 -55l9 -77l10 -11l-10 -10q8 -17 8 -43t4 -29q16 -20 -4 -32l8 -25l8 -201l-8 -69q0 -8 2 -38t-4 -32q-4 -10 -6 -33t-6 -33q-8 -20 -5 -44l3 -21q-16 -19 -20 -50q-5 -31 -9 -44q-10 -10 -13 -28t-19 -49q-17 -31 -27 -53t-60 -79
q-23 -27 -82 -49q-89 -42 -109 -43q-20 -2 -55 4q-44 22 -51 33q-35 61 -42 74t-15 42l-27 123q-2 8 -3 31t-6 34t-5 42t-8 45v26q0 25 -7 98q-6 73 -2 113q-8 19 -7 51t-4 54t-4 68t-4 71t-4 75t-4 80t-5 124q-9 139 1 199q11 60 15 89l27 35q14 -2 22 -16t17 -17v-51
q-4 -43 2 -122t6 -113q6 -16 6 -48t4 -44l6 -99q0 -6 5 -22t2 -37t0 -32t7 -42t8 -46q5 -15 2 -35t9 -34v-20q0 -35 5 -43t3 -24t8 -21v-10q-4 -19 2 -55t6 -50l9 -35l6 -30q4 -7 6 -23t5 -25t7 -61l8 -14l9 -19q-3 -22 11 -56q13 -35 15 -46l6 -21q8 -12 13 -22
q39 28 56 60q16 32 34 71t18 53t10 19q0 8 17 67q10 52 9 78t5 60t4 53q-2 18 -2 97q0 80 1 104t-5 56t-4 50q4 0 2 51l-2 53v101q0 12 6 51t2 61q10 8 11 30q0 22 8 34t8 59z" />
    <glyph glyph-name="Ucircumflex" unicode="&#xdb;" horiz-adv-x="745" 
d="M305 1833q33 0 45 2l56 -35q18 -14 40 -41q13 -13 89 -69q6 -4 17 -20t11 -19q-35 -55 -47 -64q-35 1 -52 17t-24 18q0 7 -22 21t-35 26q-35 43 -55 53l-11 11h-8l-10 6q-28 0 -66 -49v-2q0 -4 -7 -8t-31 -34q-24 -29 -27 -32q-29 -23 -43 -25l-8 4q-17 41 -4 54
q2 4 5 17t13 19q-2 5 5 17t9 18t26 41t38 49q15 14 39 20t57 5zM506 1376q0 3 22 56t31 69q15 -89 29 -123t16 -50t5 -24q3 -7 20 -83q8 -3 4 -9t-4 -8l8 -18q6 -43 8 -48t8 -55l9 -77l10 -11l-10 -10q8 -17 8 -43t4 -29q16 -20 -4 -32l8 -25l8 -201l-8 -69q0 -8 2 -38
t-4 -32q-4 -10 -6 -33t-6 -33q-8 -20 -5 -44l3 -21q-16 -19 -20 -50q-5 -31 -9 -44q-10 -10 -13 -28t-19 -49q-17 -31 -27 -53t-60 -79q-23 -27 -82 -49q-89 -42 -109 -43q-20 -2 -55 4q-44 22 -51 33q-35 61 -42 74t-15 42l-27 123q-2 8 -3 31t-6 34t-5 42t-8 45v26
q0 25 -7 98q-6 73 -2 113q-8 19 -7 51t-4 54t-4 68t-4 71t-4 75t-4 80t-5 124q-9 139 1 199q11 60 15 89l27 35q14 -2 22 -16t17 -17v-51q-4 -43 2 -122t6 -113q6 -16 6 -48t4 -44l6 -99q0 -6 5 -22t2 -37t0 -32t7 -42t8 -46q5 -15 2 -35t9 -34v-20q0 -35 5 -43t3 -24t8 -21
v-10q-4 -19 2 -55t6 -50l9 -35l6 -30q4 -7 6 -23t5 -25t7 -61l8 -14l9 -19q-3 -22 11 -56q13 -35 15 -46l6 -21q8 -12 13 -22q39 28 56 60q16 32 34 71t18 53t10 19q0 8 17 67q10 52 9 78t5 60t4 53q-2 18 -2 97q0 80 1 104t-5 56t-4 50q4 0 2 51l-2 53v101q0 12 6 51t2 61
q10 8 11 30q0 22 8 34t8 59z" />
    <glyph glyph-name="Udieresis" unicode="&#xdc;" horiz-adv-x="745" 
d="M563 1712l10 -47q-8 -10 -30 -46t-58 -50q-18 9 -26 32q-7 23 -13 31t-10 31t-9 34t6 37t13 33q78 2 117 -55zM248 1602q-16 -20 -35 -33q-63 8 -131 41q-5 46 -10 52q-4 7 -1 17q3 9 7 11t19 17l31 31q16 16 47 28q29 12 53 -10t28 -56t-6 -49q-2 -8 -2 -49zM506 1376
q0 3 22 56t31 69q15 -89 29 -123t16 -50t5 -24q3 -7 20 -83q8 -3 4 -9t-4 -8l8 -18q6 -43 8 -48t8 -55l9 -77l10 -11l-10 -10q8 -17 8 -43t4 -29q16 -20 -4 -32l8 -25l8 -201l-8 -69q0 -8 2 -38t-4 -32q-4 -10 -6 -33t-6 -33q-8 -20 -5 -44l3 -21q-16 -19 -20 -50
q-5 -31 -9 -44q-10 -10 -13 -28t-19 -49q-17 -31 -27 -53t-60 -79q-23 -27 -82 -49q-89 -42 -109 -43q-20 -2 -55 4q-44 22 -51 33q-35 61 -42 74t-15 42l-27 123q-2 8 -3 31t-6 34t-5 42t-8 45v26q0 25 -7 98q-6 73 -2 113q-8 19 -7 51t-4 54t-4 68t-4 71t-4 75t-4 80
t-5 124q-9 139 1 199q11 60 15 89l27 35q14 -2 22 -16t17 -17v-51q-4 -43 2 -122t6 -113q6 -16 6 -48t4 -44l6 -99q0 -6 5 -22t2 -37t0 -32t7 -42t8 -46q5 -15 2 -35t9 -34v-20q0 -35 5 -43t3 -24t8 -21v-10q-4 -19 2 -55t6 -50l9 -35l6 -30q4 -7 6 -23t5 -25t7 -61l8 -14
l9 -19q-3 -22 11 -56q13 -35 15 -46l6 -21q8 -12 13 -22q39 28 56 60q16 32 34 71t18 53t10 19q0 8 17 67q10 52 9 78t5 60t4 53q-2 18 -2 97q0 80 1 104t-5 56t-4 50q4 0 2 51l-2 53v101q0 12 6 51t2 61q10 8 11 30q0 22 8 34t8 59z" />
    <glyph glyph-name="Yacute" unicode="&#xdd;" horiz-adv-x="604" 
d="M209 1559l-10 -7h-13l-12 11q15 68 143 198q10 12 78 58q27 14 34 22t24 8l12 6q10 -6 43 -13t47 -19q6 -16 -16 -45q-29 -29 -43 -37q-14 -9 -39 -27t-45 -29t-75 -49q-53 -38 -71 -46q-18 -9 -30 -18q-13 -9 -27 -13zM90 1427q0 -16 8 -16q-8 -4 -2 -18q6 -15 2 -25
t4 -22t9 -43q6 -35 9 -40t3 -17t5 -24q5 -10 4 -22t5 -24t4 -24q-1 -12 7 -24q8 -14 8 -40t9 -35q9 -7 8 -21t3 -19q9 -12 19 -60t28 -79l-6 -6l27 -67q8 12 12 38q4 25 8 37t9 48t11 47q6 13 9 45q4 32 12 72t9 59q0 19 14 103t21 97t7 29t6 23q0 23 12 61t13 56l16 28
l33 29q31 2 74 -25l53 -32l25 -25q14 -16 -2 -31q2 -24 -12 -62t-15 -57l-39 -161l-10 -31q0 -18 -9 -37t-8 -35q1 -17 -5 -31t-8 -21q-3 -7 -3 -14v-20q2 -2 -4 -11t4 -11q-8 -4 -8 -21v-24q-4 -18 -8 -58t-8 -53q-3 -14 -5 -36q-2 -23 -8 -49t-5 -35t-7 -13l6 -6l-6 -37
q0 -53 -14 -74q0 -2 6 -8l-8 -6l10 -8q-10 -11 -9 -31t-4 -26t-6 -13l-16 -240q0 -2 -6 -14q6 -12 6 -14q-8 -14 -7 -73t-22 -124l-120 -55l-29 10l-10 14l-9 45q0 18 -6 62t-4 68l8 55q0 5 -1 27t4 33t6 39q0 39 5 57t3 30t4 16q6 5 4 16t4 45t6 46q-20 34 -33 49
q-26 53 -30 79t-15 55q-10 28 -14 44q-8 5 -8 19t-6 26q-5 12 -9 30t-12 43t-12 51t-10 38l-13 37q-4 5 -3 19t-4 17t-5 11q2 8 -8 55l-16 74q-4 12 -6 38q-1 26 -3 36t-8 84l-8 35q6 84 12 93t8 13q11 18 38 3q26 -15 32 -17v-19z" />
    <glyph glyph-name="agrave" unicode="&#xe0;" horiz-adv-x="663" 
d="M217 1126l55 -22q6 0 10 -6t25 -16t25 -15t40 -25t42 -24q2 -10 10 -43t6 -51q-34 -38 -186 60q-52 34 -72 44t-37 27q-14 4 -36 19t-31 20q-23 8 -29 39q41 29 55 31t30 -2q16 -3 48 -17q33 -14 45 -19zM197 229q0 -8 5 -25t3 -28q11 -7 9 -19q-1 -11 -1 -16
q4 -4 22 -26t48 -31q18 18 19 25t15 22q2 5 6 25t11 51q8 31 10 51l8 45v22q0 19 4 21q2 2 -1 12t5 15q-9 0 0 30v66q-6 9 -8 27t-6 24t0 18t1 15q-3 4 -3 35q12 6 52 34t75 27q33 -49 29 -106q0 -7 6 -13t10 -26t13 -34t11 -32q2 -20 7 -26q4 -6 2 -16t7 -26t11 -36t10 -38
t48 -130q2 -4 30 -53q-2 -9 -1 -15t0 -15t-5 -17t-5 -24t-3 -26q-2 -8 -11 -16t-12 -14q-4 2 -20 8t-90 47q-23 10 -25 31q-4 10 -14 32t-14 35l-27 -43q-9 -36 -59 -80q-9 -6 -19 -11t-14 -9q-154 -10 -213 117q2 25 -17 73q-2 4 4 16t-4 15q8 11 1 25t8 26q-8 4 -4 22
t3 26q-1 9 13 59q4 4 4 6q2 51 49 149q33 70 94 82q4 0 7 6l12 -6h16l10 -26l-10 -21q-20 10 -30 10q-58 -32 -82 -249v-97z" />
    <glyph glyph-name="aacute" unicode="&#xe1;" horiz-adv-x="663" 
d="M303 862h-10l-10 8q9 45 33 83t81 112q12 13 46 41t42 36q7 8 15 9q8 0 14 6q8 -6 34 -13t38 -20q9 -29 -49 -82q-9 -8 -29 -25t-36 -27t-58 -47q-43 -36 -74 -57t-33 -22q-2 -2 -4 -2zM197 229q0 -8 5 -25t3 -28q11 -7 9 -19q-1 -11 -1 -16q4 -4 22 -26t48 -31
q18 18 19 25t15 22q2 5 6 25t11 51q8 31 10 51l8 45v22q0 19 4 21q2 2 -1 12t5 15q-9 0 0 30v66q-6 9 -8 27t-6 24t0 18t1 15q-3 4 -3 35q12 6 52 34t75 27q33 -49 29 -106q0 -7 6 -13t10 -26t13 -34t11 -32q2 -20 7 -26q4 -6 2 -16t7 -26t11 -36t10 -38t48 -130
q2 -4 30 -53q-2 -9 -1 -15t0 -15t-5 -17t-5 -24t-3 -26q-2 -8 -11 -16t-12 -14q-4 2 -20 8t-90 47q-23 10 -25 31q-4 10 -14 32t-14 35l-27 -43q-9 -36 -59 -80q-9 -6 -19 -11t-14 -9q-154 -10 -213 117q2 25 -17 73q-2 4 4 16t-4 15q8 11 1 25t8 26q-8 4 -4 22t3 26
q-1 9 13 59q4 4 4 6q2 51 49 149q33 70 94 82q4 0 7 6l12 -6h16l10 -26l-10 -21q-20 10 -30 10q-58 -32 -82 -249v-97z" />
    <glyph glyph-name="acircumflex" unicode="&#xe2;" horiz-adv-x="663" 
d="M343 1130h42l53 -38q8 -8 36 -40t91 -87l29 -43q-4 -6 -15 -32t-30 -44q-33 2 -55 22t-23 21q0 10 -13 18t-16 11l-26 22q-33 49 -56 61l-8 13h-10l-8 8q-8 -4 -15 -4q-12 -6 -22 -17l-29 -36l-2 -2v-5q-10 -8 -27 -32t-26 -33l-8 -14q-27 -27 -43 -29l-8 4q-15 46 -4 61
q16 39 18 41q-2 8 5 22t7 17l11 22q31 57 52 85q22 28 100 28zM197 229q0 -8 5 -25t3 -28q11 -7 9 -19q-1 -11 -1 -16q4 -4 22 -26t48 -31q18 18 19 25t15 22q2 5 6 25t11 51q8 31 10 51l8 45v22q0 19 4 21q2 2 -1 12t5 15q-9 0 0 30v66q-6 9 -8 27t-6 24t0 18t1 15
q-3 4 -3 35q12 6 52 34t75 27q33 -49 29 -106q0 -7 6 -13t10 -26t13 -34t11 -32q2 -20 7 -26q4 -6 2 -16t7 -26t11 -36t10 -38t48 -130q2 -4 30 -53q-2 -9 -1 -15t0 -15t-5 -17t-5 -24t-3 -26q-2 -8 -11 -16t-12 -14q-4 2 -20 8t-90 47q-23 10 -25 31q-4 10 -14 32t-14 35
l-27 -43q-9 -36 -59 -80q-9 -6 -19 -11t-14 -9q-154 -10 -213 117q2 25 -17 73q-2 4 4 16t-4 15q8 11 1 25t8 26q-8 4 -4 22t3 26q-1 9 13 59q4 4 4 6q2 51 49 149q33 70 94 82q4 0 7 6l12 -6h16l10 -26l-10 -21q-20 10 -30 10q-58 -32 -82 -249v-97z" />
    <glyph glyph-name="atilde" unicode="&#xe3;" horiz-adv-x="663" 
d="M266 1020q-10 0 -20 -12l-13 -4q-6 -4 -19 -14t-20 -16q-8 -6 -16 -18t-12 -16q-2 2 -12 27q2 45 41 86q31 27 45 32q2 7 10 7t12 4l37 6q8 4 10 2q3 -2 13 -6t16 -6t11 -10t9 -9q16 -8 21 -24q4 -1 12 -13q9 -12 15 -14t16 -16q10 0 14 -2l76 79q18 16 43 25l10 -14
q-13 -64 -47 -119l-16 -27q-4 -2 -10 -10t-29 -25q-41 -12 -64 7q-39 25 -55 48t-22 29l-21 19q-2 2 -9 3t-11 5q-5 -4 -15 -4zM197 229q0 -8 5 -25t3 -28q11 -7 9 -19q-1 -11 -1 -16q4 -4 22 -26t48 -31q18 18 19 25t15 22q2 5 6 25t11 51q8 31 10 51l8 45v22q0 19 4 21
q2 2 -1 12t5 15q-9 0 0 30v66q-6 9 -8 27t-6 24t0 18t1 15q-3 4 -3 35q12 6 52 34t75 27q33 -49 29 -106q0 -7 6 -13t10 -26t13 -34t11 -32q2 -20 7 -26q4 -6 2 -16t7 -26t11 -36t10 -38t48 -130q2 -4 30 -53q-2 -9 -1 -15t0 -15t-5 -17t-5 -24t-3 -26q-2 -8 -11 -16
t-12 -14q-4 2 -20 8t-90 47q-23 10 -25 31q-4 10 -14 32t-14 35l-27 -43q-9 -36 -59 -80q-9 -6 -19 -11t-14 -9q-154 -10 -213 117q2 25 -17 73q-2 4 4 16t-4 15q8 11 1 25t8 26q-8 4 -4 22t3 26q-1 9 13 59q4 4 4 6q2 51 49 149q33 70 94 82q4 0 7 6l12 -6h16l10 -26
l-10 -21q-20 10 -30 10q-58 -32 -82 -249v-97z" />
    <glyph glyph-name="adieresis" unicode="&#xe4;" horiz-adv-x="663" 
d="M461 1114q80 0 112 -53l11 -45q-6 -8 -29 -43t-55 -47q-19 6 -27 28q-8 21 -12 29t-9 32q-6 25 -10 33t8 31q11 23 11 35zM270 956q-14 -18 -32 -32q-66 8 -129 41q-3 37 -9 47q-10 19 1 27q12 8 41 35q28 28 58 38t52 -9t27 -50q3 -31 -3 -43t-6 -54zM197 229
q0 -8 5 -25t3 -28q11 -7 9 -19q-1 -11 -1 -16q4 -4 22 -26t48 -31q18 18 19 25t15 22q2 5 6 25t11 51q8 31 10 51l8 45v22q0 19 4 21q2 2 -1 12t5 15q-9 0 0 30v66q-6 9 -8 27t-6 24t0 18t1 15q-3 4 -3 35q12 6 52 34t75 27q33 -49 29 -106q0 -7 6 -13t10 -26t13 -34t11 -32
q2 -20 7 -26q4 -6 2 -16t7 -26t11 -36t10 -38t48 -130q2 -4 30 -53q-2 -9 -1 -15t0 -15t-5 -17t-5 -24t-3 -26q-2 -8 -11 -16t-12 -14q-4 2 -20 8t-90 47q-23 10 -25 31q-4 10 -14 32t-14 35l-27 -43q-9 -36 -59 -80q-9 -6 -19 -11t-14 -9q-154 -10 -213 117q2 25 -17 73
q-2 4 4 16t-4 15q8 11 1 25t8 26q-8 4 -4 22t3 26q-1 9 13 59q4 4 4 6q2 51 49 149q33 70 94 82q4 0 7 6l12 -6h16l10 -26l-10 -21q-20 10 -30 10q-58 -32 -82 -249v-97z" />
    <glyph glyph-name="aring" unicode="&#xe5;" horiz-adv-x="663" 
d="M410 1038l-21 35q-7 2 -27 12q-20 11 -27 11t-32 -2q-39 -12 -47 -31q-16 -39 2 -76t53 -59q23 -2 35 4l31 29q17 20 19 34t14 43zM346 846q-18 0 -27 -4q-70 23 -86 41q-51 51 -64 89t-7 79q6 6 16 24q10 19 18 27t29 15q20 7 29 18h49l33 22h78q39 0 57 -18h4q2 0 4 -2
v-13q9 0 17 -12t14 -14v-27q20 -31 6 -47l-6 -25q0 -20 -6 -24q0 -16 -29 -49q-79 -80 -129 -80zM197 229q0 -8 5 -25t3 -28q11 -7 9 -19q-1 -11 -1 -16q4 -4 22 -26t48 -31q18 18 19 25t15 22q2 5 6 25t11 51q8 31 10 51l8 45v22q0 19 4 21q2 2 -1 12t5 15q-9 0 0 30v66
q-6 9 -8 27t-6 24t0 18t1 15q-3 4 -3 35q12 6 52 34t75 27q33 -49 29 -106q0 -7 6 -13t10 -26t13 -34t11 -32q2 -20 7 -26q4 -6 2 -16t7 -26t11 -36t10 -38t48 -130q2 -4 30 -53q-2 -9 -1 -15t0 -15t-5 -17t-5 -24t-3 -26q-2 -8 -11 -16t-12 -14q-4 2 -20 8t-90 47
q-23 10 -25 31q-4 10 -14 32t-14 35l-27 -43q-9 -36 -59 -80q-9 -6 -19 -11t-14 -9q-154 -10 -213 117q2 25 -17 73q-2 4 4 16t-4 15q8 11 1 25t8 26q-8 4 -4 22t3 26q-1 9 13 59q4 4 4 6q2 51 49 149q33 70 94 82q4 0 7 6l12 -6h16l10 -26l-10 -21q-20 10 -30 10
q-58 -32 -82 -249v-97z" />
    <glyph glyph-name="ae" unicode="&#xe6;" horiz-adv-x="997" 
d="M733 551v57q-27 -14 -47 -52t-35 -50q0 -41 -16 -53q2 -16 -25 -72l6 -10l-12 -49q10 -18 18 -21q7 -2 19 0l33 35q4 29 11 38t7 38q4 2 8 6t7 6q12 74 12 78q14 42 14 49zM740 61q11 1 44 27t86 51l29 -30q2 -5 1 -23t7 -20l-16 -27q-6 -14 -19 -31q-4 -2 -17 -5
t-15 -15q0 -8 -10 -8t-30 -8q-19 -8 -34 -5q-26 -16 -94 2q-68 19 -78 25t-23 8q-12 -12 -14 -16q-4 2 -22 9t-89 46q-23 10 -24 31q-4 10 -14 32t-15 35l-26 -43q-10 -41 -60 -80q-8 -6 -18 -11t-15 -9q-154 -10 -213 117q2 25 -16 73q-2 4 3 16t-3 15q8 11 0 25t8 26
q-8 4 -4 22t3 26q-1 9 14 59q4 4 4 6q2 51 49 149q33 70 94 82q4 0 6 6l12 -6h17l10 -26l-10 -21q-20 10 -31 10q-58 -32 -82 -249v-97q0 -8 5 -25t3 -28q12 -8 10 -19q-1 -11 -1 -16q4 -4 22 -26t47 -31q17 18 19 25t16 22q2 6 4 23t11 50q9 34 12 54l8 45v22q0 19 4 21
q2 2 -1 12t5 15q-9 0 0 30v66q-6 9 -8 27t-6 24t0 18t1 15q-3 4 -3 35q12 6 52 34t75 27q33 -49 28 -106q0 -7 6 -13t10 -26t11 -30q6 -10 12 -28l12 27q2 14 11 38l10 30q12 41 35 55l-8 6q4 6 9 13t7 11t6 9q4 6 7 9t8 9q6 5 12 11t14 12t17 14q71 64 167 84l62 -10
q4 -6 15 -19t15 -28q5 -15 10 -27t9 -36t11 -42t1 -29t-8 -21t0 -23q2 -14 2 -19l2 -2q4 -2 6 -4q-13 -9 -17 -26q-5 -17 -10 -28t-6 -43q0 -31 -12 -47t-20 -30t-15 -23q-61 -66 -122 -71q-4 0 -11 -6l-61 12l-33 8v-108l8 -35q10 -29 46 -42t42 -12t19 -8q12 6 23 6z" />
    <glyph glyph-name="ccedilla" unicode="&#xe7;" horiz-adv-x="497" 
d="M80 548q0 32 8 58q31 82 46 104t29 49q14 26 44 46q17 17 64 11q47 -7 55 -7q37 -19 52 -33t25 -47q9 -33 7 -40t-6 -14t-7 -9q-2 -2 -10 -3t-10 -4q-21 1 -41 19t-39 20q-11 -4 -21 -6t-16 -4t-9 -17t-19 -40t-26 -63q-9 -38 -18 -62q0 -37 -2 -42q-2 -6 0 -24t-8 -20
q0 -8 -3 -51t0 -51t8 -18q5 -8 6 -34t15 -46t15 -23l2 -7v-6q6 -4 12 -9q7 -5 9 -6q13 -5 23 -5h24q17 0 33 20t28 28q12 7 24 11q13 4 21 8q20 0 30 -12q11 -12 13 -14l-2 -23q0 -2 -4 -16t4 -16v-17q-4 -13 -1 -27t-8 -32t-21 -36q-10 -17 -31 -26q-44 0 -72 -14l-33 6
q-4 -8 -4 -12h13q19 2 57 -10t56 -24q18 -13 21 -22q3 -8 5 -10l18 -32q29 -43 6 -76v-13l-34 -36h-7q-29 -18 -59 -25l-53 -12q-12 -2 -39 -2q-28 0 -54 10t-30 15t-11 15t-12 17q8 31 11 55l26 4q4 2 14 -2t16 -2q7 2 20 -4q12 -6 24 -2t17 1t7 1t6 5q5 1 9 0t49 10
q6 2 18 14q-4 4 -4 6q-2 2 -2 8q-64 21 -88 21l-59 4q-20 20 -13 46t23 64q-29 6 -53 25q-115 81 -107 221q4 62 2 84t1 40t1 32q-2 13 9 18q-6 18 2 49t8 63z" />
    <glyph glyph-name="egrave" unicode="&#xe8;" horiz-adv-x="530" 
d="M305 618v62q-27 -16 -47 -57t-35 -54q0 -45 -16 -57q2 -20 -25 -80l6 -10l-12 -53q2 -1 4 -7t8 -12t11 -5q6 1 14 1l33 37q4 31 11 41t7 43q12 12 15 12q2 10 6 44t12 60q8 25 8 35zM200 1184q2 0 11 -5q8 -5 12 -4t10 -5q7 -6 27 -18q20 -11 26 -17t28 -19
q24 -13 57 -35q2 -14 11 -50t7 -56q-16 -20 -67 -4q-8 4 -32 15q-24 12 -33 16t-21 12t-44 32t-52 35q-20 9 -34 19q-12 10 -18 12l-2 4l-6 6q-16 4 -40 22t-30 21q-24 8 -30 43q56 40 78 36q22 -5 58 -21q36 -15 47 -19t23 -12t14 -8zM471 585l8 -7q-13 -9 -17 -28
q-5 -20 -10 -32t-6 -55q-4 -29 -14 -43t-18 -30t-15 -25q-59 -72 -120 -80q-4 0 -11 -6l-32 6l-29 8l-33 8v-119l8 -37q10 -33 48 -47t42 -13t17 -7q12 6 23 6t43 30t85 56l29 -35q2 -6 1 -24t7 -21q-10 -24 -35 -63q-2 -2 -15 -5t-17 -18q0 -8 -10 -8t-29 -9q-18 -9 -33 -5
q-27 -16 -82 0q-6 2 -40 11q-98 26 -126 75q-29 49 -32 67t-9 50t-8 51l-6 30l6 29l-6 27q0 4 8 16q-2 4 -10 12q12 12 10 41t8 41q-8 4 -4 18t3 24q-1 11 1 30l12 28q2 18 18 68q15 51 36 68l-6 6q6 12 12 21t16 26t72 67q61 53 143 74l62 -12q33 -53 33 -57l12 -43
q8 -44 15 -64t-2 -38t-6 -39t3 -24z" />
    <glyph glyph-name="eacute" unicode="&#xe9;" horiz-adv-x="530" 
d="M305 618v62q-27 -16 -47 -57t-35 -54q0 -45 -16 -57q2 -20 -25 -80l6 -10l-12 -53q2 -1 4 -7t8 -12t11 -5q6 1 14 1l33 37q4 31 11 41t7 43q12 12 15 12q2 10 6 44t12 60q8 25 8 35zM461 1200l10 6q10 -4 41 -11t45 -17q4 -14 -16 -41q-29 -25 -42 -32t-37 -23t-42 -26
q-18 -9 -70 -42q-51 -33 -82 -47q-18 -11 -49 -27h-12q-4 4 -12 8q10 35 34 70q94 112 190 164q11 6 18 12t24 6zM471 585l8 -7q-13 -9 -17 -28q-5 -20 -10 -32t-6 -55q-4 -29 -14 -43t-18 -30t-15 -25q-59 -72 -120 -80q-4 0 -11 -6l-32 6l-29 8l-33 8v-119l8 -37
q10 -33 48 -47t42 -13t17 -7q12 6 23 6t43 30t85 56l29 -35q2 -6 1 -24t7 -21q-10 -24 -35 -63q-2 -2 -15 -5t-17 -18q0 -8 -10 -8t-29 -9q-18 -9 -33 -5q-27 -16 -82 0q-6 2 -40 11q-98 26 -126 75q-29 49 -32 67t-9 50t-8 51l-6 30l6 29l-6 27q0 4 8 16q-2 4 -10 12
q12 12 10 41t8 41q-8 4 -4 18t3 24q-1 11 1 30l12 28q2 18 18 68q15 51 36 68l-6 6q6 12 12 21t16 26t72 67q61 53 143 74l62 -12q33 -53 33 -57l12 -43q8 -44 15 -64t-2 -38t-6 -39t3 -24z" />
    <glyph glyph-name="ecircumflex" unicode="&#xea;" horiz-adv-x="530" 
d="M305 618v62q-27 -16 -47 -57t-35 -54q0 -45 -16 -57q2 -20 -25 -80l6 -10l-12 -53q2 -1 4 -7t8 -12t11 -5q6 1 14 1l33 37q4 31 11 41t7 43q12 12 15 12q2 10 6 44t12 60q8 25 8 35zM424 1001q0 3 -9 13t-22 14q-4 4 -13 10t-13 11q-27 43 -54 55l-10 10h-8l-10 8
q-9 -4 -19 -8t-16 -10l-29 -33v-2q0 -4 -7 -8q-8 -5 -24 -25t-24 -28l-8 -13q-25 -25 -36 -25t-16 1q-8 25 -10 37q0 12 6 18q16 37 19 39q-2 6 5 17t13 26q14 36 57 85q21 24 73 25q53 1 67 3q23 -17 42 -29t52 -49l86 -72q6 -4 14 -17t12 -17t-14 -34t-28 -38
q-36 4 -54 20t-22 16zM471 585l8 -7q-13 -9 -17 -28q-5 -20 -10 -32t-6 -55q-4 -29 -14 -43t-18 -30t-15 -25q-59 -72 -120 -80q-4 0 -11 -6l-32 6l-29 8l-33 8v-119l8 -37q10 -33 48 -47t42 -13t17 -7q12 6 23 6t43 30t85 56l29 -35q2 -6 1 -24t7 -21q-10 -24 -35 -63
q-2 -2 -15 -5t-17 -18q0 -8 -10 -8t-29 -9q-18 -9 -33 -5q-27 -16 -82 0q-6 2 -40 11q-98 26 -126 75q-29 49 -32 67t-9 50t-8 51l-6 30l6 29l-6 27q0 4 8 16q-2 4 -10 12q12 12 10 41t8 41q-8 4 -4 18t3 24q-1 11 1 30l12 28q2 18 18 68q15 51 36 68l-6 6q6 12 12 21t16 26
t72 67q61 53 143 74l62 -12q33 -53 33 -57l12 -43q8 -44 15 -64t-2 -38t-6 -39t3 -24z" />
    <glyph glyph-name="edieresis" unicode="&#xeb;" horiz-adv-x="530" 
d="M543 1100l10 -45q-8 -8 -30 -41t-60 -47q-19 6 -27 27q-8 20 -12 28t-9 30t-10 32t6 35q11 24 13 32q80 2 119 -51zM305 618v62q-27 -16 -47 -57t-35 -54q0 -45 -16 -57q2 -20 -25 -80l6 -10l-12 -53q2 -1 4 -7t8 -12t11 -5q6 1 14 1l33 37q4 31 11 41t7 43q12 12 15 12
q2 10 6 44t12 60q8 25 8 35zM43 1052q0 6 -2 12q-2 5 7 14t24 21q14 11 29 25t46 24t56 -8q25 -20 29 -52t-3 -42q-6 -10 -6 -51q-20 -20 -35 -30q-59 8 -135 39q-2 14 -6 28t-4 20zM471 585l8 -7q-13 -9 -17 -28q-5 -20 -10 -32t-6 -55q-4 -29 -14 -43t-18 -30t-15 -25
q-59 -72 -120 -80q-4 0 -11 -6l-32 6l-29 8l-33 8v-119l8 -37q10 -33 48 -47t42 -13t17 -7q12 6 23 6t43 30t85 56l29 -35q2 -6 1 -24t7 -21q-10 -24 -35 -63q-2 -2 -15 -5t-17 -18q0 -8 -10 -8t-29 -9q-18 -9 -33 -5q-27 -16 -82 0q-6 2 -40 11q-98 26 -126 75
q-29 49 -32 67t-9 50t-8 51l-6 30l6 29l-6 27q0 4 8 16q-2 4 -10 12q12 12 10 41t8 41q-8 4 -4 18t3 24q-1 11 1 30l12 28q2 18 18 68q15 51 36 68l-6 6q6 12 12 21t16 26t72 67q61 53 143 74l62 -12q33 -53 33 -57l12 -43q8 -44 15 -64t-2 -38t-6 -39t3 -24z" />
    <glyph glyph-name="igrave" unicode="&#xec;" horiz-adv-x="307" 
d="M47 1122l74 -51q53 -33 80 -51q2 -12 11 -51t5 -62q-18 -25 -59 -7q-88 37 -136 75q-49 39 -73 51t-47 35l-2 4q-16 3 -43 23t-31 22q-29 14 -31 47q47 33 67 37t66 -17q46 -22 57 -25t22 -11q11 -7 15 -9t13 -7q8 -5 12 -3zM240 73q0 -3 -1 -17t5 -15q6 -2 -15 -49
q-49 -40 -77 -58t-52 -12l-30 43q-12 70 -16 81t-4 39q-1 28 -3 39t-3 38t-3 38t0 42t-6 41q4 4 0 51t6 117l6 79q4 29 16 82q10 12 54 9q5 -11 29 -29t30 -34t11 -48q5 -31 7 -38t-1 -9q-3 0 -7 -4q14 -12 16 -39t6 -30q3 -3 3 -34v-34l6 -24q4 -16 6 -26q-2 0 -4 -3t-4 -3
l12 -67q2 -8 3 -45q0 -38 8 -48t5 -20t-3 -13z" />
    <glyph glyph-name="iacute" unicode="&#xed;" horiz-adv-x="307" 
d="M242 1151q10 0 16 6q10 -6 41 -13t45 -20q6 -18 -16 -45q-33 -33 -44 -40t-34 -25q-22 -18 -40 -28t-69 -49q-51 -38 -82 -54q-35 -23 -38 -24t-9 -7h-12l-12 10q8 41 38 85q80 117 182 182q11 7 18 15q6 8 16 7zM240 73q0 -3 -1 -17t5 -15q6 -2 -15 -49q-49 -40 -77 -58
t-52 -12l-30 43q-12 70 -16 81t-4 39q-1 28 -3 39t-3 38t-3 38t0 42t-6 41q4 4 0 51t6 117l6 79q4 29 16 82q10 12 54 9q5 -11 29 -29t30 -34t11 -48q5 -31 7 -38t-1 -9q-3 0 -7 -4q14 -12 16 -39t6 -30q3 -3 3 -34v-34l6 -24q4 -16 6 -26q-2 0 -4 -3t-4 -3l12 -67
q2 -8 3 -45q0 -38 8 -48t5 -20t-3 -13z" />
    <glyph glyph-name="icircumflex" unicode="&#xee;" horiz-adv-x="307" 
d="M83 1128q55 0 67 2q23 -18 57 -43q21 -21 41 -49l90 -88q6 -4 18 -24t13 -23q-37 -68 -50 -78q-37 4 -59 27q-10 14 -20 16q0 11 -25 29q-25 19 -33 29q-37 53 -57 65l-10 13h-11l-8 10q-29 -11 -39 -23q-10 -13 -21 -27t-11 -16v-4q-13 -8 -29 -34t-27 -36
q-32 -44 -53 -47q-4 2 -10 4q0 13 -10 43q0 14 4 22t9 24t11 22q0 10 8 24t10 26q2 11 19 34q23 43 43 70q28 32 83 32zM240 73q0 -3 -1 -17t5 -15q6 -2 -15 -49q-49 -40 -77 -58t-52 -12l-30 43q-12 70 -16 81t-4 39q-1 28 -3 39t-3 38t-3 38t0 42t-6 41q4 4 0 51t6 117
l6 79q4 29 16 82q10 12 54 9q5 -11 29 -29t30 -34t11 -48q5 -31 7 -38t-1 -9q-3 0 -7 -4q14 -12 16 -39t6 -30q3 -3 3 -34v-34l6 -24q4 -16 6 -26q-2 0 -4 -3t-4 -3l12 -67q2 -8 3 -45q0 -38 8 -48t5 -20t-3 -13z" />
    <glyph glyph-name="idieresis" unicode="&#xef;" horiz-adv-x="307" 
d="M369 1032l10 -51q-8 -10 -31 -49t-59 -55q-20 10 -29 33q-10 24 -14 34t-9 35t-9 37t6 39q12 27 12 37q84 2 123 -60zM41 911l-37 -37q-66 12 -137 48q-5 52 -10 58q-4 7 -1 17q3 9 12 17t37 36q70 70 115 29q25 -23 29 -59t-2 -48t-6 -61zM240 73q0 -3 -1 -17t5 -15
q6 -2 -15 -49q-49 -40 -77 -58t-52 -12l-30 43q-12 70 -16 81t-4 39q-1 28 -3 39t-3 38t-3 38t0 42t-6 41q4 4 0 51t6 117l6 79q4 29 16 82q10 12 54 9q5 -11 29 -29t30 -34t11 -48q5 -31 7 -38t-1 -9q-3 0 -7 -4q14 -12 16 -39t6 -30q3 -3 3 -34v-34l6 -24q4 -16 6 -26
q-2 0 -4 -3t-4 -3l12 -67q2 -8 3 -45q0 -38 8 -48t5 -20t-3 -13z" />
    <glyph glyph-name="ntilde" unicode="&#xf1;" horiz-adv-x="587" 
d="M175 1149q3 0 6 3t6 0t13 -8t17 -7q6 -3 11 -13q6 -10 16 -14t16 -31q4 -2 13 -16t16 -15t18 -22q8 0 15 -2l2 2v2q16 20 44 54t40 50t38 25q2 -6 11 -18q-8 -45 -32 -110q-25 -63 -33 -71t-13 -18q-6 -10 -10 -14l-19 -19l-16 -4q-28 -10 -54 15t-49 51l-30 47l-23 24
q-2 2 -10 2t-12 7l-4 -5q-20 0 -31 -16l-12 -4q-4 -4 -22 -19t-50 -63q-12 18 -12 33q2 59 43 110q29 33 45 41q4 10 13 10t13 5q5 -2 19 3t17 5zM518 172q8 -16 8 -52t-5 -40t-6 -22t-5 -23l-21 -29l-55 -31l-28 9l-15 28q-8 28 -13 49t-7 21l-2 4q4 12 -2 32t-7 25
q2 45 -16 90v15q4 61 -16 112v15q0 35 -5 43t-4 23q2 15 -8 22q4 31 -14 65q0 -22 -7 -33q-7 -12 -8 -26q0 -14 -4 -20q-4 -5 -4 -19t-10 -30t-8 -25q2 -11 -1 -21t-1 -17t-3 -21t-5 -18t2 -22t-4 -20q-6 -14 -6 -39v-45q0 -4 2 -17t-13 -22q18 -23 2 -70q-7 -14 -42 -26
q-35 -13 -56 -21t-39 -2q-10 12 -10 45v209q0 6 1 23t-9 33v8l6 33q-6 8 -6 34v37q0 4 1 21t-6 26q-7 7 0 19t-3 18q8 6 8 23v30q-4 17 3 49t5 48q4 8 15 19t12 13q18 2 31 -16t24 -20v-41q8 12 19 42t40 70t56 56q21 -1 49 -21t44 -36l21 -21q35 -27 49 -78q2 -5 8 -21
l9 -24q2 -8 9 -28t7 -48q1 -26 9 -50t8 -31t1 -23t6 -24q5 -7 3 -23q-2 -17 3 -21t5 -11v-11q0 -23 4 -26t-1 -8t-1 -7q4 -1 0 -9t4 -10q2 -2 2 -22v-25q0 -1 5 -17t-5 -26z" />
    <glyph glyph-name="ograve" unicode="&#xf2;" horiz-adv-x="587" 
d="M-20 1188q53 33 73 36t68 -17q47 -21 58 -24t23 -11t17 -10q4 -1 12 -6q9 -5 13 -4t10 -5q6 -5 29 -17t32 -22q0 -4 7 -4q72 -41 84 -49q2 -14 12 -51t6 -58q-20 -25 -72 -4q-55 16 -131 67q-77 51 -98 60t-27 19t-15 12t-34 18t-37 23q-28 14 -30 47zM266 643v41
q-70 -80 -86 -145q-8 -8 -12 -11q-2 -6 -4 -26t-12 -50t-17 -96v-22q-2 -23 -6 -33q6 -9 5 -27t1 -30q16 -8 0 -21l17 -26v-31l43 -62q41 41 63 72t47 84l19 49q0 2 6 30t12 41t24 97t-1 148q-4 14 -11 24l-32 29h-25zM545 504q0 -18 -6 -23q16 -10 8 -23q-8 -14 -11 -30
t-8 -22l-6 -13l4 -8q-8 -6 -7 -20t-4 -23t-7 -22t-4 -18t-8 -17t-14 -41t-27 -56q-4 -12 -24 -30t-38 -58q-100 -82 -141 -99t-78 -6t-57 42q-4 6 -18 22q-13 17 -33 57q-42 84 -39 179q0 4 3 24t-10 37q10 7 9 20q-2 12 3 30t3 24q10 8 10 24t10 36q10 18 7 31t0 19t4 7
l45 96q13 26 31 47q16 20 22 26t12 16t27 28t33 22l28 15q33 0 41 -9q25 14 50 2t53 -19t38 -11q37 -10 58 -49l16 -31q0 -31 8 -40t9 -11v-51q0 -4 8 -24t-4 -24q4 -8 4 -26z" />
    <glyph glyph-name="oacute" unicode="&#xf3;" horiz-adv-x="587" 
d="M238 969q-32 -23 -50 -29h-10q-6 2 -12 8q14 70 133 195q19 17 59 45t44 34t22 7l10 6q10 -6 40 -13t42 -20q8 -20 -20 -48t-38 -35q-11 -7 -34 -24q-24 -17 -42 -27t-68 -48q-50 -37 -76 -51zM266 643v41q-70 -80 -86 -145q-8 -8 -12 -11q-2 -6 -4 -26t-12 -50t-17 -96
v-22q-2 -23 -6 -33q6 -9 5 -27t1 -30q16 -8 0 -21l17 -26v-31l43 -62q41 41 63 72t47 84l19 49q0 2 6 30t12 41t24 97t-1 148q-4 14 -11 24l-32 29h-25zM545 504q0 -18 -6 -23q16 -10 8 -23q-8 -14 -11 -30t-8 -22l-6 -13l4 -8q-8 -6 -7 -20t-4 -23t-7 -22t-4 -18t-8 -17
t-14 -41t-27 -56q-4 -12 -24 -30t-38 -58q-100 -82 -141 -99t-78 -6t-57 42q-4 6 -18 22q-13 17 -33 57q-42 84 -39 179q0 4 3 24t-10 37q10 7 9 20q-2 12 3 30t3 24q10 8 10 24t10 36q10 18 7 31t0 19t4 7l45 96q13 26 31 47q16 20 22 26t12 16t27 28t33 22l28 15
q33 0 41 -9q25 14 50 2t53 -19t38 -11q37 -10 58 -49l16 -31q0 -31 8 -40t9 -11v-51q0 -4 8 -24t-4 -24q4 -8 4 -26z" />
    <glyph glyph-name="ocircumflex" unicode="&#xf4;" horiz-adv-x="587" 
d="M197 1030q0 -2 -7 -6q-8 -4 -22 -27t-20 -27t-8 -8q-21 -35 -46 -34l-2 2h-4q-13 42 -9 52q5 10 10 24t11 20q0 12 6 22q6 9 11 21t29 48t32 46q8 9 32 17t52 7q29 -1 45 1l53 -37l39 -43l80 -76q7 -4 17 -20t10 -19q-23 -53 -43 -69q-31 4 -50 21t-22 18q-4 15 -15 20
q-11 4 -14 6l-24 23q-31 45 -51 57l-11 10h-8l-8 8q-39 -17 -63 -55v-2zM266 643v41q-70 -80 -86 -145q-8 -8 -12 -11q-2 -6 -4 -26t-12 -50t-17 -96v-22q-2 -23 -6 -33q6 -9 5 -27t1 -30q16 -8 0 -21l17 -26v-31l43 -62q41 41 63 72t47 84l19 49q0 2 6 30t12 41t24 97
t-1 148q-4 14 -11 24l-32 29h-25zM545 504q0 -18 -6 -23q16 -10 8 -23q-8 -14 -11 -30t-8 -22l-6 -13l4 -8q-8 -6 -7 -20t-4 -23t-7 -22t-4 -18t-8 -17t-14 -41t-27 -56q-4 -12 -24 -30t-38 -58q-100 -82 -141 -99t-78 -6t-57 42q-4 6 -18 22q-13 17 -33 57q-42 84 -39 179
q0 4 3 24t-10 37q10 7 9 20q-2 12 3 30t3 24q10 8 10 24t10 36q10 18 7 31t0 19t4 7l45 96q13 26 31 47q16 20 22 26t12 16t27 28t33 22l28 15q33 0 41 -9q25 14 50 2t53 -19t38 -11q37 -10 58 -49l16 -31q0 -31 8 -40t9 -11v-51q0 -4 8 -24t-4 -24q4 -8 4 -26z" />
    <glyph glyph-name="otilde" unicode="&#xf5;" horiz-adv-x="587" 
d="M232 1030q-8 0 -13 6q-4 -4 -14 -4t-19 -8t-16 -8q-42 -29 -55 -48q-13 -18 -17 -22l-12 29q2 49 43 90q23 27 47 37q4 8 12 7t13 3l49 10q24 -12 31 -14q6 -2 12 -10t16 -14t15 -21q4 -2 13 -14t17 -15l17 -16q8 0 14 -2l82 84q16 18 45 24l10 -14q-11 -54 -51 -125
q-7 -21 -28 -42t-51 -31t-97 57q-20 29 -31 39l-22 20q-2 2 -10 2zM266 643v41q-70 -80 -86 -145q-8 -8 -12 -11q-2 -6 -4 -26t-12 -50t-17 -96v-22q-2 -23 -6 -33q6 -9 5 -27t1 -30q16 -8 0 -21l17 -26v-31l43 -62q41 41 63 72t47 84l19 49q0 2 6 30t12 41t24 97t-1 148
q-4 14 -11 24l-32 29h-25zM545 504q0 -18 -6 -23q16 -10 8 -23q-8 -14 -11 -30t-8 -22l-6 -13l4 -8q-8 -6 -7 -20t-4 -23t-7 -22t-4 -18t-8 -17t-14 -41t-27 -56q-4 -12 -24 -30t-38 -58q-100 -82 -141 -99t-78 -6t-57 42q-4 6 -18 22q-13 17 -33 57q-42 84 -39 179
q0 4 3 24t-10 37q10 7 9 20q-2 12 3 30t3 24q10 8 10 24t10 36q10 18 7 31t0 19t4 7l45 96q13 26 31 47q16 20 22 26t12 16t27 28t33 22l28 15q33 0 41 -9q25 14 50 2t53 -19t38 -11q37 -10 58 -49l16 -31q0 -31 8 -40t9 -11v-51q0 -4 8 -24t-4 -24q4 -8 4 -26z" />
    <glyph glyph-name="odieresis" unicode="&#xf6;" horiz-adv-x="587" 
d="M563 1075l10 -47q-8 -10 -30 -46t-58 -50q-18 9 -26 32q-7 23 -13 31t-10 31t-9 34q-5 10 6 36t13 34q78 2 117 -55zM248 965q-16 -20 -35 -33q-63 8 -131 41q-5 46 -10 52q-4 7 -1 17t7 12t19 16l31 32q16 16 47 27q29 11 53 -11t28 -54q4 -34 -2 -45t-6 -54zM266 643
v41q-70 -80 -86 -145q-8 -8 -12 -11q-2 -6 -4 -26t-12 -50t-17 -96v-22q-2 -23 -6 -33q6 -9 5 -27t1 -30q16 -8 0 -21l17 -26v-31l43 -62q41 41 63 72t47 84l19 49q0 2 6 30t12 41t24 97t-1 148q-4 14 -11 24l-32 29h-25zM545 504q0 -18 -6 -23q16 -10 8 -23q-8 -14 -11 -30
t-8 -22l-6 -13l4 -8q-8 -6 -7 -20t-4 -23t-7 -22t-4 -18t-8 -17t-14 -41t-27 -56q-4 -12 -24 -30t-38 -58q-100 -82 -141 -99t-78 -6t-57 42q-4 6 -18 22q-13 17 -33 57q-42 84 -39 179q0 4 3 24t-10 37q10 7 9 20q-2 12 3 30t3 24q10 8 10 24t10 36q10 18 7 31t0 19t4 7
l45 96q13 26 31 47q16 20 22 26t12 16t27 28t33 22l28 15q33 0 41 -9q25 14 50 2t53 -19t38 -11q37 -10 58 -49l16 -31q0 -31 8 -40t9 -11v-51q0 -4 8 -24t-4 -24q4 -8 4 -26z" />
    <glyph glyph-name="oslash" unicode="&#xf8;" horiz-adv-x="587" 
d="M317 438l-12 -49q-2 -8 -8 -23t-9 -32q-4 -18 -14 -56t-12 -47l-10 -41q-8 -16 -4 -24q-6 -6 -8 -14q38 55 65 108l19 49q0 2 6 30t12 41t22 89t7 127q-10 -25 -11 -27l-8 -26q-2 -10 -11 -34t-13 -36zM129 301q4 -1 4 -53l17 51q7 43 18 59l12 37q12 29 16 44t10 31
q7 16 9 24t4 12l10 20q4 16 18 47q13 31 18 45t22 48l-21 -23v41q-70 -80 -86 -145q-8 -8 -12 -11q-2 -6 -4 -26t-12 -50t-17 -96v-22q-2 -23 -6 -33zM51 -135q0 14 17 92q14 92 20 115l-6 14q-67 127 -53 227q4 25 -9 43q10 7 9 20q-2 12 3 30t3 24q10 8 10 24t10 36
q10 18 7 31t0 19t4 7l45 96q13 26 31 47q16 20 22 26t12 16t26 28t34 22l28 15q33 0 41 -9q23 10 41 5q2 4 12 19q10 16 14 24l10 20q7 12 9 19q3 7 15 25t24 42l12 25q4 5 11 19t21 26t24 12q29 -29 28 -59q0 -3 -3 -7t-5 -8l-6 -20l-12 -21q0 -2 -6 -20l-11 -25
q0 -8 -10 -18q-6 -25 -16 -39q2 -4 2 -8l-21 -35v-2h4q2 -2 4 -2q37 -10 58 -49l16 -31q0 -31 8 -40t9 -11v-51q0 -4 8 -24t-4 -24q4 -8 4 -26t-6 -23q16 -10 8 -23q-8 -14 -11 -30t-8 -22l-6 -13l4 -8q-8 -6 -7 -20t-4 -23t-7 -22t-4 -18t-8 -17t-14 -41t-27 -56
q-4 -12 -24 -30t-38 -58q-100 -82 -141 -100q-29 -8 -39 -8l-6 -23q-2 -6 -2 -26l-10 -29q-5 -29 -9 -33t-3 -12t-1 -10l-22 -52l-64 -18l-33 -6q-23 16 -17 42t5 40z" />
    <glyph glyph-name="ugrave" unicode="&#xf9;" horiz-adv-x="663" 
d="M-25 1169q47 33 67 37t63 -17t55 -25t23 -11q11 -8 15 -9t11 -6q8 -5 12 -4q4 2 10 -6t28 -21t26 -19q3 -6 33 -24q30 -16 53 -34q2 -12 11 -51t5 -61q-18 -25 -54 -10q-80 33 -104 54q-64 56 -95 71t-54 38l-2 4q-23 8 -43 24q-20 17 -29 23q-25 10 -31 47zM555 431
l8 -29q0 -12 6 -15q-2 -11 3 -27q4 -16 6 -27t10 -41t10 -42l6 -14q-4 -12 3 -32t7 -28q8 -2 2 -8t-4 -8l9 -17l10 -114q-23 2 -37 17t-60 58t-71 101l-12 16l-13 -20q-25 -66 -65 -105q-6 -6 -30 -26t-39 -36t-75 -36q-29 -8 -53 10t-53 47q-19 57 -27 71t-10 34t-8 28
q0 16 -10 54t-7 59q-4 10 -10 82l-6 39q0 25 6 30q6 4 -4 30t1 65t6 61t1 42t9 49q3 30 9 37q7 7 8 9t3 5q8 -9 40 -33q10 -8 11 -39l8 -49q0 -4 -2 -19t11 -26v-6q7 -108 12 -126q6 -18 8 -37t5 -27t5 -26q2 -20 8 -29t8 -27t4 -23q3 -5 9 -25t14 -29v-24q37 55 41 76
q14 72 22 85t11 48l8 41q0 2 -1 21t9 22v2l9 94l10 72q0 16 3 23t3 56q12 25 17 31t28 15q85 -33 111 -45t41 -31q0 -2 -7 -14t-4 -67q4 -56 10 -76t3 -32q-2 -12 4 -30t4 -29q6 -2 4 -10q-2 -9 1 -13t3 -13z" />
    <glyph glyph-name="uacute" unicode="&#xfa;" horiz-adv-x="663" 
d="M244 870l-8 -6h-11l-10 10q8 39 33 77t86 112q17 17 65 53l25 19q10 10 22 10l11 6q10 -6 37 -13t38 -18q6 -18 -14 -42t-34 -34t-33 -27q-20 -17 -38 -29t-63 -46q-45 -35 -71 -49q-20 -16 -35 -23zM555 431l8 -29q0 -12 6 -15q-2 -11 3 -27q4 -16 6 -27t10 -41t10 -42
l6 -14q-4 -12 3 -32t7 -28q8 -2 2 -8t-4 -8l9 -17l10 -114q-23 2 -37 17t-60 58t-71 101l-12 16l-13 -20q-25 -66 -65 -105q-6 -6 -30 -26t-39 -36t-75 -36q-29 -8 -53 10t-53 47q-19 57 -27 71t-10 34t-8 28q0 16 -10 54t-7 59q-4 10 -10 82l-6 39q0 25 6 30q6 4 -4 30
t1 65t6 61t1 42t9 49q3 30 9 37q7 7 8 9t3 5q8 -9 40 -33q10 -8 11 -39l8 -49q0 -4 -2 -19t11 -26v-6q7 -108 12 -126q6 -18 8 -37t5 -27t5 -26q2 -20 8 -29t8 -27t4 -23q3 -5 9 -25t14 -29v-24q37 55 41 76q14 72 22 85t11 48l8 41q0 2 -1 21t9 22v2l9 94l10 72q0 16 3 23
t3 56q12 25 17 31t28 15q85 -33 111 -45t41 -31q0 -2 -7 -14t-4 -67q4 -56 10 -76t3 -32q-2 -12 4 -30t4 -29q6 -2 4 -10q-2 -9 1 -13t3 -13z" />
    <glyph glyph-name="ucircumflex" unicode="&#xfb;" horiz-adv-x="663" 
d="M130 911q-9 0 -13 2l-8 33q-2 4 2 12t9 21q5 12 11 16q-2 7 5 17t9 17t9 15q6 8 20 30t30 39q17 17 67 19q49 1 61 3l51 -33l37 -35q62 -55 74 -63t19 -18q7 -11 9 -13t2 -6q-23 -47 -41 -60q-31 1 -48 17t-21 16l-15 14q-2 4 -7 6t-7 5q-2 2 -8 6t-17 12q-21 27 -59 57
h-8q-16 16 -30 1q-15 -15 -22 -21t-18 -19v-4q-10 -6 -25 -25t-21 -24t-11 -14q-27 -23 -36 -23zM555 431l8 -29q0 -12 6 -15q-2 -11 3 -27q4 -16 6 -27t10 -41t10 -42l6 -14q-4 -12 3 -32t7 -28q8 -2 2 -8t-4 -8l9 -17l10 -114q-23 2 -37 17t-60 58t-71 101l-12 16l-13 -20
q-25 -66 -65 -105q-6 -6 -30 -26t-39 -36t-75 -36q-29 -8 -53 10t-53 47q-19 57 -27 71t-10 34t-8 28q0 16 -10 54t-7 59q-4 10 -10 82l-6 39q0 25 6 30q6 4 -4 30t1 65t6 61t1 42t9 49q3 30 9 37q7 7 8 9t3 5q8 -9 40 -33q10 -8 11 -39l8 -49q0 -4 -2 -19t11 -26v-6
q7 -108 12 -126q6 -18 8 -37t5 -27t5 -26q2 -20 8 -29t8 -27t4 -23q3 -5 9 -25t14 -29v-24q37 55 41 76q14 72 22 85t11 48l8 41q0 2 -1 21t9 22v2l9 94l10 72q0 16 3 23t3 56q12 25 17 31t28 15q85 -33 111 -45t41 -31q0 -2 -7 -14t-4 -67q4 -56 10 -76t3 -32q-2 -12 4 -30
t4 -29q6 -2 4 -10q-2 -9 1 -13t3 -13z" />
    <glyph glyph-name="udieresis" unicode="&#xfc;" horiz-adv-x="663" 
d="M553 1055l10 -49q-8 -8 -29 -44t-61 -55q-21 11 -29 33t-12 32t-9 33q-5 25 -9 35t7 35t11 37q82 2 121 -57zM231 942l-34 -35q-59 8 -138 43q-6 52 -10 57t0 15t8 12t37 33q32 31 62 43t54 -10t29 -57q5 -36 -1 -46t-7 -55zM555 431l8 -29q0 -12 6 -15q-2 -11 3 -27
q4 -16 6 -27t10 -41t10 -42l6 -14q-4 -12 3 -32t7 -28q8 -2 2 -8t-4 -8l9 -17l10 -114q-23 2 -37 17t-60 58t-71 101l-12 16l-13 -20q-25 -66 -65 -105q-6 -6 -30 -26t-39 -36t-75 -36q-29 -8 -53 10t-53 47q-19 57 -27 71t-10 34t-8 28q0 16 -10 54t-7 59q-4 10 -10 82
l-6 39q0 25 6 30q6 4 -4 30t1 65t6 61t1 42t9 49q3 30 9 37q7 7 8 9t3 5q8 -9 40 -33q10 -8 11 -39l8 -49q0 -4 -2 -19t11 -26v-6q7 -108 12 -126q6 -18 8 -37t5 -27t5 -26q2 -20 8 -29t8 -27t4 -23q3 -5 9 -25t14 -29v-24q37 55 41 76q14 72 22 85t11 48l8 41q0 2 -1 21
t9 22v2l9 94l10 72q0 16 3 23t3 56q12 25 17 31t28 15q85 -33 111 -45t41 -31q0 -2 -7 -14t-4 -67q4 -56 10 -76t3 -32q-2 -12 4 -30t4 -29q6 -2 4 -10q-2 -9 1 -13t3 -13z" />
    <glyph glyph-name="yacute" unicode="&#xfd;" 
d="M256 791l-10 -7h-13l-14 11q12 41 47 83q72 87 134 127q62 39 69 43q6 5 14 11t25 6l12 6q12 -6 45 -13t47 -18q8 -18 -14 -40t-42 -35q-20 -11 -45 -29t-47 -28t-78 -46q-56 -35 -87 -49q-23 -14 -43 -22zM246 -166l8 89q0 19 8 22q2 3 1 21t16 67q6 25 10 82l-80 -21
h-41q-16 10 -18 14t-12 5q-10 2 -7 10q-23 16 -42 57t-30 53q0 12 -10 34t-8 36q-21 42 -25 84l-10 80q0 6 -4 22q-4 17 -3 23t1 26l8 41q0 15 8 21v21q10 31 45 36q18 -18 29 -32v-37q2 -10 0 -25t4 -27t5 -30t7 -27v-26l9 -23q4 -23 7 -27t4 -13t6 -16t9 -44q5 -6 23 -47
t41 -60q19 5 45 27t34 36t16 18q7 4 13 20t17 20q41 80 47 90l6 25q2 14 14 38q11 23 15 35q32 105 59 123q27 8 51 -10q37 -33 54 -42t27 -23q11 -13 15 -17q-16 -37 -20 -59t-15 -44t-21 -56t-19 -48q3 -29 -23 -102t-26 -113q-9 -18 -15 -24q-4 -16 -10 -71t-18 -79
q-11 -24 -13 -46t-9 -46q-7 -25 -23 -91t-54 -97q-12 -9 -40 -21t-33 -16q-29 6 -29 33q-8 14 -12 53t2 52q6 14 6 46z" />
    <glyph glyph-name="ydieresis" unicode="&#xff;" 
d="M485 1108q80 0 117 -49l10 -41q-8 -8 -31 -40t-57 -44q-17 6 -26 25q-8 20 -12 27q-4 8 -9 28q-4 20 -9 30t6 32t11 32zM293 963q-20 -20 -35 -31q-53 8 -131 37q-5 41 -9 47t0 14q3 8 6 9t34 29t61 37q29 9 53 -8t29 -50q0 -31 -8 -43v-41zM246 -166l8 89q0 19 8 22
q2 3 1 21t16 67q6 25 10 82l-80 -21h-41q-16 10 -18 14t-12 5q-10 2 -7 10q-23 16 -42 57t-30 53q0 12 -10 34t-8 36q-21 42 -25 84l-10 80q0 6 -4 22q-4 17 -3 23t1 26l8 41q0 15 8 21v21q10 31 45 36q18 -18 29 -32v-37q2 -10 0 -25t4 -27t5 -30t7 -27v-26l9 -23
q4 -23 7 -27t4 -13t6 -16t9 -44q5 -6 23 -47t41 -60q19 5 45 27t34 36t16 18q7 4 13 20t17 20q41 80 47 90l6 25q2 14 14 38q11 23 15 35q32 105 59 123q27 8 51 -10q37 -33 54 -42t27 -23q11 -13 15 -17q-16 -37 -20 -59t-15 -44t-21 -56t-19 -48q3 -29 -23 -102t-26 -113
q-9 -18 -15 -24q-4 -16 -10 -71t-18 -79q-11 -24 -13 -46t-9 -46q-7 -25 -23 -91t-54 -97q-12 -9 -40 -21t-33 -16q-29 6 -29 33q-8 14 -12 53t2 52q6 14 6 46z" />
    <glyph glyph-name="Amacron" unicode="&#x100;" horiz-adv-x="712" 
d="M496 1679q4 0 16 2l51 -106v-35q-8 -12 -39 -12h-69q-41 0 -59 7t-30 7q-11 0 -27 7t-44 3l-41 9q-35 0 -41 6h-6q-88 6 -95 7t-37 2t-55 9q-24 8 -32 10v23l55 55l37 6h41q7 4 33 4q26 -1 42 5t36 3t42 2t39 -1q0 8 35 8l33 -2h49q16 -6 25 -15l12 9q25 -13 29 -13z
M346 809l-6 47l-16 82v18q-10 16 -18 52t-11 49q0 -5 -5 -21t-7 -26l-7 -45l-10 -50l-8 -30q0 -31 -5 -47t-6 -34t-4 -28t-4 -27t-3 -23t-9 -58q-8 -35 -11 -72t-7 -49t-4 -38l-12 -128q-1 -8 -5 -13q-4 -4 -5 -16t0 -25t1 -20q45 20 123 43t139 47q-12 49 -15 59t-5 30
q-2 22 -5 31t-7 29t-10 36t-18 62l-20 82q-9 36 -20 83zM414 1277q0 -9 2 -13l12 -68q2 -8 4 -22t6 -26t12 -45q8 -34 11 -46q4 -13 6 -31t5 -30t7 -44q4 -33 9 -47q4 -14 6 -37t4 -30q14 -15 14 -19v-15q0 -18 8 -30q-2 -20 27 -92q4 -45 8 -68q14 -27 25 -94q0 -23 6 -33
t7 -20t3 -13t8 -32l6 -21l31 -161q4 -8 3 -18t6 -41q7 -30 3 -46q0 -2 9 -10q-8 -19 -18 -67t-26 -70h-26q-12 12 -39 36t-47 44l-27 174q-175 -39 -198 -40t-111 -16l-10 -8q0 -55 -18 -117q-18 -61 -23 -75l-33 -31q-16 12 -27 25l-4 -5q-12 51 -10 75t-3 28t0 13t-1 13
q-2 4 1 12t-5 11q-2 2 3 10t-3 13q10 26 8 70t2 85t4 46v25q0 26 5 39t3 19q-3 6 5 18t-3 17q8 12 7 41q-2 29 4 36t6 11v4q4 61 6 77t10 21q-2 0 -4 5l-4 2q8 32 8 36l8 50v18q2 16 6 28t7 37q2 26 4 31l8 35q6 33 6 35l19 115l8 24q4 23 8 64q14 70 20 84t8 29q1 15 8 41
t9 46l14 66q3 33 27 39t58 16t53 15q25 -39 25 -49t4 -36q5 -26 2 -46q-2 -20 6 -32q8 -14 10 -20t2 -15z" />
    <glyph glyph-name="amacron" unicode="&#x101;" horiz-adv-x="663" 
d="M196 1083q24 0 38 4q15 3 33 1q19 -2 43 2t38 0q9 4 66 4h49l24 -11l11 7q37 -10 43 -9q25 -39 51 -88v-30q-8 -8 -39 -9h-68q-43 0 -58 6t-27 6q-12 1 -22 5q-11 4 -48 4l-41 6q-35 0 -39 4h-6l-86 6q-28 4 -74 4l-53 15v18l53 45l37 6h39q12 4 36 4zM197 229
q0 -8 5 -25t3 -28q11 -7 9 -19q-1 -11 -1 -16q4 -4 22 -26t48 -31q18 18 19 25t15 22q2 5 6 25t11 51q8 31 10 51l8 45v22q0 19 4 21q2 2 -1 12t5 15q-9 0 0 30v66q-6 9 -8 27t-6 24t0 18t1 15q-3 4 -3 35q12 6 52 34t75 27q33 -49 29 -106q0 -7 6 -13t10 -26t13 -34t11 -32
q2 -20 7 -26q4 -6 2 -16t7 -26t11 -36t10 -38t48 -130q2 -4 30 -53q-2 -9 -1 -15t0 -15t-5 -17t-5 -24t-3 -26q-2 -8 -11 -16t-12 -14q-4 2 -20 8t-90 47q-23 10 -25 31q-4 10 -14 32t-14 35l-27 -43q-9 -36 -59 -80q-9 -6 -19 -11t-14 -9q-154 -10 -213 117q2 25 -17 73
q-2 4 4 16t-4 15q8 11 1 25t8 26q-8 4 -4 22t3 26q-1 9 13 59q4 4 4 6q2 51 49 149q33 70 94 82q4 0 7 6l12 -6h16l10 -26l-10 -21q-20 10 -30 10q-58 -32 -82 -249v-97z" />
    <glyph glyph-name="Abreve" unicode="&#x102;" horiz-adv-x="712" 
d="M170 1792q-4 -18 11 -56t46 -41t49 -12l64 13q6 4 30 16t36 35q12 10 21 36t13 34q4 35 11 51q7 31 36 37l74 -56q0 -4 8 -23q17 -40 -16 -100q-8 -12 -8 -24q-79 -79 -151 -99q-37 -10 -58 -18q-25 6 -32 1t-41 4t-62 30q-27 20 -34 26t-16 25q-9 18 -12 21l-6 12
q0 42 -1 66t24 42zM346 809l-6 47l-16 82v18q-10 16 -18 52t-11 49q0 -5 -5 -21t-7 -26l-7 -45l-10 -50l-8 -30q0 -31 -5 -47t-6 -34t-4 -28t-4 -27t-3 -23t-9 -58q-8 -35 -11 -72t-7 -49t-4 -38l-12 -128q-1 -8 -5 -13q-4 -4 -5 -16t0 -25t1 -20q45 20 123 43t139 47
q-12 49 -15 59t-5 30q-2 22 -5 31t-7 29t-10 36t-18 62l-20 82q-9 36 -20 83zM414 1277q0 -9 2 -13l12 -68q2 -8 4 -22t6 -26t12 -45q8 -34 11 -46q4 -13 6 -31t5 -30t7 -44q4 -33 9 -47q4 -14 6 -37t4 -30q14 -15 14 -19v-15q0 -18 8 -30q-2 -20 27 -92q4 -45 8 -68
q14 -27 25 -94q0 -23 6 -33t7 -20t3 -13t8 -32l6 -21l31 -161q4 -8 3 -18t6 -41q7 -30 3 -46q0 -2 9 -10q-8 -19 -18 -67t-26 -70h-26q-12 12 -39 36t-47 44l-27 174q-175 -39 -198 -40t-111 -16l-10 -8q0 -55 -18 -117q-18 -61 -23 -75l-33 -31q-16 12 -27 25l-4 -5
q-12 51 -10 75t-3 28t0 13t-1 13q-2 4 1 12t-5 11q-2 2 3 10t-3 13q10 26 8 70t2 85t4 46v25q0 26 5 39t3 19q-3 6 5 18t-3 17q8 12 7 41q-2 29 4 36t6 11v4q4 61 6 77t10 21q-2 0 -4 5l-4 2q8 32 8 36l8 50v18q2 16 6 28t7 37q2 26 4 31l8 35q6 33 6 35l19 115l8 24
q4 23 8 64q14 70 20 84t8 29q1 15 8 41t9 46l14 66q3 33 27 39t58 16t53 15q25 -39 25 -49t4 -36q5 -26 2 -46q-2 -20 6 -32q8 -14 10 -20t2 -15z" />
    <glyph glyph-name="abreve" unicode="&#x103;" horiz-adv-x="663" 
d="M242 1001l41 -8l63 13q6 4 29 15t37 36q12 10 21 36t13 33q4 37 11 52q8 30 37 36l73 -55q0 -4 12 -33t-8 -65q-20 -37 -20 -49q-79 -79 -133 -94q-55 -15 -76 -23q-25 6 -32 1t-37 3t-66 30t-48 46q-11 24 -14 26l-6 13q0 42 -1 66t24 42l14 -20q-4 -18 11 -56t55 -45z
M197 229q0 -8 5 -25t3 -28q11 -7 9 -19q-1 -11 -1 -16q4 -4 22 -26t48 -31q18 18 19 25t15 22q2 5 6 25t11 51q8 31 10 51l8 45v22q0 19 4 21q2 2 -1 12t5 15q-9 0 0 30v66q-6 9 -8 27t-6 24t0 18t1 15q-3 4 -3 35q12 6 52 34t75 27q33 -49 29 -106q0 -7 6 -13t10 -26
t13 -34t11 -32q2 -20 7 -26q4 -6 2 -16t7 -26t11 -36t10 -38t48 -130q2 -4 30 -53q-2 -9 -1 -15t0 -15t-5 -17t-5 -24t-3 -26q-2 -8 -11 -16t-12 -14q-4 2 -20 8t-90 47q-23 10 -25 31q-4 10 -14 32t-14 35l-27 -43q-9 -36 -59 -80q-9 -6 -19 -11t-14 -9q-154 -10 -213 117
q2 25 -17 73q-2 4 4 16t-4 15q8 11 1 25t8 26q-8 4 -4 22t3 26q-1 9 13 59q4 4 4 6q2 51 49 149q33 70 94 82q4 0 7 6l12 -6h16l10 -26l-10 -21q-20 10 -30 10q-58 -32 -82 -249v-97z" />
    <glyph glyph-name="Aogonek" unicode="&#x104;" horiz-adv-x="712" 
d="M346 809l-6 47l-16 82v18q-10 16 -18 52t-11 49q0 -5 -5 -21t-7 -26l-7 -45l-10 -50l-8 -30q0 -31 -5 -47t-6 -34t-4 -28t-4 -27t-3 -23t-9 -58q-8 -35 -11 -72t-7 -49t-4 -38l-12 -128q-1 -8 -5 -13q-4 -4 -5 -16t0 -25t1 -20q45 20 123 43t139 47q-12 49 -15 59t-5 30
q-2 22 -5 31t-7 29t-10 36t-18 62l-20 82q-9 36 -20 83zM51 351v25q0 26 5 39t3 19q-3 6 5 18t-3 17q8 12 7 41q-2 29 4 36t6 11v4q4 61 6 77t10 21q-2 0 -4 5l-4 2q8 32 8 36l8 50v18q2 16 6 28t7 37q2 26 4 31l8 35q6 33 6 35l19 115l8 24q4 23 8 64q14 70 20 84t8 29
q1 15 8 41t9 46l14 66q4 33 37 43q14 2 47 12t54 15q25 -39 25 -49t4 -36q5 -26 2 -46q-2 -20 6 -32q8 -14 10 -20t2 -15t2 -13l12 -68q2 -8 4 -22t6 -26t12 -45q8 -34 11 -46q4 -13 6 -31t5 -30t7 -44q4 -33 9 -47q4 -14 6 -37t4 -30q14 -15 14 -19v-15q0 -18 8 -30
q-2 -20 27 -92q4 -45 8 -68q14 -27 25 -94q0 -23 6 -33t7 -20t3 -13t8 -32l6 -21l31 -161q4 -8 3 -18t6 -41q7 -30 3 -46q0 -2 9 -10q-8 -18 -15 -41h4v-45l-14 -12q-6 -20 -19 -39h-20l-27 -35q0 -2 -4 -14t15 -50q4 -2 14 -2l12 -16h19l22 -18q0 2 4 6q41 -13 59 -13
t19 -3q2 -3 5 -3t5 4t29 3t92 14l31 8q4 2 15 3q10 1 14 5t30 4h29q-10 -33 -66 -98h-12q-6 -13 -34 -25t-39 -11t-22 -6t-51 -5t-50 0l-60 12l-24 12q-61 12 -103 54q-25 16 -38 59t12 82l4 4q-2 18 22 43l27 27l-41 39l-27 174q-175 -39 -198 -40t-111 -16l-10 -8
q0 -55 -18 -117q-18 -61 -23 -75l-33 -31q-16 12 -27 25l-4 -5q-12 51 -10 75t-3 28t0 13t-1 13q-2 4 1 12t-5 11q-2 2 3 10t-3 13q10 26 8 70t2 85t4 46z" />
    <glyph glyph-name="aogonek" unicode="&#x105;" horiz-adv-x="663" 
d="M642 -88l17 -4q1 4 31 4q33 8 49 14l21 8q2 2 9 4t10 7q3 4 19 4h19q-6 -35 -43 -105h-8q-4 -14 -23 -24q-18 -14 -25 -14q-6 0 -14 -7q-8 -8 -34 -6t-33 0q-3 6 -11 6h-10q-23 10 -34 21q-16 4 -19 8q-18 6 -31 24q-14 18 -24 31q-10 12 -18 54t8 90q0 2 1 2t1 2v14
q-14 9 -18 23t-13 36q-10 22 -14 35l-27 -43q-9 -36 -59 -80q-9 -6 -19 -11t-14 -9q-154 -10 -213 117q2 25 -17 73q-2 4 4 16t-4 15q8 11 1 25t8 26q-8 4 -4 22t3 26q-1 9 13 59q4 4 4 6q2 51 49 149q33 70 94 82q4 0 7 6l12 -6h16l10 -26l-10 -21q-20 10 -30 10
q-58 -32 -82 -249v-97q0 -8 5 -25t3 -28q11 -7 9 -19q-1 -11 -1 -16q4 -4 22 -26t48 -31q18 18 19 25t15 22q2 5 6 25t11 51q8 31 10 51l8 45v22q0 19 4 21q2 2 -1 12t5 15q-9 0 0 30v66q-6 9 -8 27t-6 24t0 18t1 15q-3 4 -3 35q12 6 52 34t75 27q33 -49 29 -106q0 -7 6 -13
t10 -26t13 -34t11 -32q2 -20 7 -26q4 -6 2 -16t7 -26t11 -36t10 -38t48 -130q2 -4 30 -53q-2 -9 -1 -15t0 -15t-5 -17t-5 -24t-3 -26q-2 -8 -11 -16t-12 -14q-4 2 -12 5t-12 5l-45 22q-6 -24 6 -61q2 -2 8 -2q4 -6 8 -18h13l16 -19q0 4 2 6q29 -12 40 -12z" />
    <glyph glyph-name="Cacute" unicode="&#x106;" 
d="M449 1827q9 -4 33 -11t36 -18q6 -18 -12 -41q-33 -33 -37 -36q-5 -3 -25 -21t-36 -28t-58 -43q-42 -34 -67 -48q-19 -16 -27 -19t-14 -10h-11l-10 11q8 35 32 73t81 107q24 27 52 46t35 26t19 8zM104 1100l23 86q0 14 10 18q-3 26 13 56t34 83q23 51 70 107q8 8 59 21
t60 20l10 -8l8 6l25 -21q18 -10 28 -38t15 -54q4 -24 8 -29t-6 -20q4 -8 8 -12q-15 -15 -23 -29l-36 31l-21 45q-14 -16 -18 -27q-30 -39 -35 -62q-4 -23 -14 -46t-12 -37t-12 -45q-9 -31 -18 -87t-16 -71q4 -14 -2 -41q-6 -28 -5 -46t-5 -66t-5 -74q1 -25 1 -150
q0 -2 -8 -18q6 -6 8 -12l8 -86q0 -34 5 -48t6 -30t3 -24t0 -31q-2 -22 2 -31q31 -111 66 -152q2 -4 5 -11t5 -11q8 -2 16 -14t21 -9q12 16 34 55t48 62t76 33l16 -23q0 2 2 2q17 -55 19 -64t1 -38t9 -35q-12 -18 -25 -42t-26 -36l-19 -24q-4 -7 -19 -19t-20 -24
q-6 -10 -17 -10t-36 -15q-32 0 -56 -2t-52 11q-28 12 -57 22q-31 10 -55 20t-52 52t-50 112t-21 80t-7 37t-8 63l-17 90l2 43q0 69 -4 85t-4 57l6 18l-6 20v5q8 28 8 68v65q0 15 4 29t2 26t6 18q7 5 5 14t8 93q16 86 20 95q4 10 4 24z" />
    <glyph glyph-name="cacute" unicode="&#x107;" horiz-adv-x="497" 
d="M152 911q-11 11 -13 11q8 36 37 72t100 108q10 10 54 38t51 35q5 7 15 7t18 4q10 -4 41 -11t45 -18q6 -18 -23 -45t-38 -32t-31 -22q-22 -18 -44 -28q-20 -10 -71 -43t-80 -47q-25 -16 -41 -22l-4 -3l-4 -4h-12zM265 164h24q17 0 33 20t28 28q12 7 24 11q13 4 21 8
q20 0 30 -12q11 -12 13 -14l-2 -23q0 -2 -4 -16t4 -16v-17q-4 -13 -1 -27t-8 -32t-21 -36q-10 -17 -31 -26q-44 0 -72 -14q-73 12 -97 20t-42 23q-115 81 -107 221q4 62 2 84t1 40t1 32q-2 13 9 18q-6 18 2 49t8 63t8 58q31 82 46 104t29 49q14 26 44 46q17 17 64 11
q47 -7 55 -7q37 -19 52 -33t25 -47q9 -33 7 -40t-6 -14t-7 -9q-2 -2 -10 -3t-10 -4q-21 1 -41 19t-39 20q-11 -4 -21 -6t-16 -4t-9 -17t-19 -40t-26 -63q-9 -38 -18 -62q0 -37 -2 -42q-2 -6 0 -24t-8 -20q0 -8 -3 -51t0 -51t8 -18q5 -8 6 -34t15 -46t15 -23l2 -7v-6
q6 -4 12 -9q7 -5 9 -6q12 -5 23 -5z" />
    <glyph glyph-name="Ccircumflex" unicode="&#x108;" 
d="M246 1716q-8 -4 -23 -10t-39 -41v-2q-18 -18 -31 -35q-13 -16 -22 -24l-8 -13q-38 -31 -49 -20q-14 35 -9 46t10 24t11 18q0 10 6 19q6 10 8 16t27 44t35 48t34 17t54 6q29 -1 47 1l51 -34l28 -27q7 -8 11 -12l82 -72l25 -31q2 -2 2 -6q-23 -47 -43 -63q-33 0 -56 20
q-8 12 -18 14q0 13 -27 25l-26 21q-29 41 -52 53l-10 10h-8zM104 1100l23 86q0 14 10 18q-3 26 13 56t34 83q23 51 70 107q8 8 59 21t60 20l10 -8l8 6l25 -21q18 -10 28 -38t15 -54q4 -24 8 -29t-6 -20q4 -8 8 -12q-15 -15 -23 -29l-36 31l-21 45q-14 -16 -18 -27
q-30 -39 -35 -62q-4 -23 -14 -46t-12 -37t-12 -45q-9 -31 -18 -87t-16 -71q4 -14 -2 -41q-6 -28 -5 -46t-5 -66t-5 -74q1 -25 1 -150q0 -2 -8 -18q6 -6 8 -12l8 -86q0 -34 5 -48t6 -30t3 -24t0 -31q-2 -22 2 -31q31 -111 66 -152q2 -4 5 -11t5 -11q8 -2 16 -14t21 -9
q12 16 34 55t48 62t76 33l16 -23q0 2 2 2q17 -55 19 -64t1 -38t9 -35q-12 -18 -25 -42t-26 -36l-19 -24q-4 -7 -19 -19t-20 -24q-6 -10 -17 -10t-36 -15q-32 0 -56 -2t-52 11q-28 12 -57 22q-31 10 -55 20t-52 52t-50 112t-21 80t-7 37t-8 63l-17 90l2 43q0 69 -4 85t-4 57
l6 18l-6 20v5q8 28 8 68v65q0 15 4 29t2 26t6 18q7 5 5 14t8 93q16 86 20 95q4 10 4 24z" />
    <glyph glyph-name="ccircumflex" unicode="&#x109;" horiz-adv-x="497" 
d="M205 1075q0 -2 -4 -7q-5 -5 -17 -30t-20 -34l-6 -17q-22 -26 -28 -27t-13 3q-6 37 -7 45t8 34t11 27q-2 9 4 23t6 18l15 41q26 53 34 69t28 22q20 7 46 7q25 0 35 2l41 -41q10 -14 18 -28t16 -24t30 -38q22 -29 30 -38q8 -10 16 -28t9 -22q-27 -68 -35 -78q-27 4 -45 27
q-4 14 -15 16q0 9 -17 26t-26 30q-17 33 -49 75h-6q-4 8 -8 9q-18 0 -49 -60q-2 0 -2 -2zM265 164h24q17 0 33 20t28 28q12 7 24 11q13 4 21 8q20 0 30 -12q11 -12 13 -14l-2 -23q0 -2 -4 -16t4 -16v-17q-4 -13 -1 -27t-8 -32t-21 -36q-10 -17 -31 -26q-44 0 -72 -14
q-73 12 -97 20t-42 23q-115 81 -107 221q4 62 2 84t1 40t1 32q-2 13 9 18q-6 18 2 49t8 63t8 58q31 82 46 104t29 49q14 26 44 46q17 17 64 11q47 -7 55 -7q37 -19 52 -33t25 -47q9 -33 7 -40t-6 -14t-7 -9q-2 -2 -10 -3t-10 -4q-21 1 -41 19t-39 20q-11 -4 -21 -6t-16 -4
t-9 -17t-19 -40t-26 -63q-9 -38 -18 -62q0 -37 -2 -42q-2 -6 0 -24t-8 -20q0 -8 -3 -51t0 -51t8 -18q5 -8 6 -34t15 -46t15 -23l2 -7v-6q6 -4 12 -9q7 -5 9 -6q12 -5 23 -5zM123 959v-1v1z" />
    <glyph glyph-name="Cdotaccent" unicode="&#x10a;" 
d="M174 1653q0 4 -7 36t3 33q18 29 41 43q31 23 49 23t33 12q16 12 22 15q33 -12 58 -21q27 -68 33 -170q-6 -4 -18 -9t-15 -9l-6 -27l-25 -12l-96 32q-27 9 -40 21q-14 12 -20 16t-9 8t-3 9zM104 1100l23 86q0 14 10 18q-3 26 13 56t34 83q23 51 70 107q8 8 59 21t60 20
l10 -8l8 6l25 -21q18 -10 28 -38t15 -54q4 -24 8 -29t-6 -20q4 -8 8 -12q-15 -15 -23 -29l-36 31l-21 45q-14 -16 -18 -27q-30 -39 -35 -62q-4 -23 -14 -46t-12 -37t-12 -45q-9 -31 -18 -87t-16 -71q4 -14 -2 -41q-6 -28 -5 -46t-5 -66t-5 -74q1 -25 1 -150q0 -2 -8 -18
q6 -6 8 -12l8 -86q0 -34 5 -48t6 -30t3 -24t0 -31q-2 -22 2 -31q31 -111 66 -152q2 -4 5 -11t5 -11q8 -2 16 -14t21 -9q12 16 34 55t48 62t76 33l16 -23q0 2 2 2q17 -55 19 -64t1 -38t9 -35q-12 -18 -25 -42t-26 -36l-19 -24q-4 -7 -19 -19t-20 -24q-6 -10 -17 -10t-36 -15
q-32 0 -56 -2t-52 11q-28 12 -57 22q-31 10 -55 20t-52 52t-50 112t-21 80t-7 37t-8 63l-17 90l2 43q0 69 -4 85t-4 57l6 18l-6 20v5q8 28 8 68v65q0 15 4 29t2 26t6 18q7 5 5 14t8 93q16 86 20 95q4 10 4 24z" />
    <glyph glyph-name="cdotaccent" unicode="&#x10b;" horiz-adv-x="497" 
d="M168 1012q0 4 -6 28t2 25q27 51 67 51q11 0 21 10t14 13q33 -14 41 -17q18 -57 23 -133l-23 -14q-4 -16 -4 -23l-18 -8l-68 25q-20 10 -35 24q-14 15 -14 19zM265 164h24q17 0 33 20t28 28q12 7 24 11q13 4 21 8q20 0 30 -12q11 -12 13 -14l-2 -23q0 -2 -4 -16t4 -16v-17
q-4 -13 -1 -27t-8 -32t-21 -36q-10 -17 -31 -26q-44 0 -72 -14q-73 12 -97 20t-42 23q-115 81 -107 221q4 62 2 84t1 40t1 32q-2 13 9 18q-6 18 2 49t8 63t8 58q31 82 46 104t29 49q14 26 44 46q17 17 64 11q47 -7 55 -7q37 -19 52 -33t25 -47q9 -33 7 -40t-6 -14t-7 -9
q-2 -2 -10 -3t-10 -4q-21 1 -41 19t-39 20q-11 -4 -21 -6t-16 -4t-9 -17t-19 -40t-26 -63q-9 -38 -18 -62q0 -37 -2 -42q-2 -6 0 -24t-8 -20q0 -8 -3 -51t0 -51t8 -18q5 -8 6 -34t15 -46t15 -23l2 -7v-6q6 -4 12 -9q7 -5 9 -6q12 -5 23 -5z" />
    <glyph glyph-name="Ccaron" unicode="&#x10c;" 
d="M43 1790q12 12 14 12q55 29 115 -10q91 -53 117 -92q12 8 14 17t23 32q20 23 24 29l19 22q14 16 82 43q25 6 51 4q0 -59 -1 -81t-9 -31q-8 -10 -26 -38q-17 -28 -34 -40q2 -7 -6 -17t-12 -18t-8 -10l-19 -21q-2 -2 -5 -9t-11 -9t-15 -21q-25 -6 -67 19q-43 20 -53 49v4
l-97 82l-14 10zM104 1100l23 86q0 14 10 18q-3 26 13 56t34 83q23 51 70 107q8 8 59 21t60 20l10 -8l8 6l25 -21q18 -10 28 -38t15 -54q4 -24 8 -29t-6 -20q4 -8 8 -12q-15 -15 -23 -29l-36 31l-21 45q-14 -16 -18 -27q-30 -39 -35 -62q-4 -23 -14 -46t-12 -37t-12 -45
q-9 -31 -18 -87t-16 -71q4 -14 -2 -41q-6 -28 -5 -46t-5 -66t-5 -74q1 -25 1 -150q0 -2 -8 -18q6 -6 8 -12l8 -86q0 -34 5 -48t6 -30t3 -24t0 -31q-2 -22 2 -31q31 -111 66 -152q2 -4 5 -11t5 -11q8 -2 16 -14t21 -9q12 16 34 55t48 62t76 33l16 -23q0 2 2 2q17 -55 19 -64
t1 -38t9 -35q-12 -18 -25 -42t-26 -36l-19 -24q-4 -7 -19 -19t-20 -24q-6 -10 -17 -10t-36 -15q-32 0 -56 -2t-52 11q-28 12 -57 22q-31 10 -55 20t-52 52t-50 112t-21 80t-7 37t-8 63l-17 90l2 43q0 69 -4 85t-4 57l6 18l-6 20v5q8 28 8 68v65q0 15 4 29t2 26t6 18
q7 5 5 14t8 93q16 86 20 95q4 10 4 24z" />
    <glyph glyph-name="ccaron" unicode="&#x10d;" horiz-adv-x="497" 
d="M258 1067l8 8q3 16 16 35q13 18 17 25l12 20q10 12 54 37q20 4 34 2q0 -82 -7 -95t-17 -36t-21 -33q0 -8 -5 -15t-8 -15t-5 -9l-12 -18q-2 0 -4 -7q-2 -8 -6 -8t-11 -18q-18 -6 -45 16q-27 16 -35 41v4l-63 72l-10 8l-54 64q40 40 86 2q47 -35 72 -70zM265 164h24
q17 0 33 20t28 28q12 7 24 11q13 4 21 8q20 0 30 -12q11 -12 13 -14l-2 -23q0 -2 -4 -16t4 -16v-17q-4 -13 -1 -27t-8 -32t-21 -36q-10 -17 -31 -26q-44 0 -72 -14q-73 12 -97 20t-42 23q-115 81 -107 221q4 62 2 84t1 40t1 32q-2 13 9 18q-6 18 2 49t8 63t8 58
q31 82 46 104t29 49q14 26 44 46q17 17 64 11q47 -7 55 -7q37 -19 52 -33t25 -47q9 -33 7 -40t-6 -14t-7 -9q-2 -2 -10 -3t-10 -4q-21 1 -41 19t-39 20q-11 -4 -21 -6t-16 -4t-9 -17t-19 -40t-26 -63q-9 -38 -18 -62q0 -37 -2 -42q-2 -6 0 -24t-8 -20q0 -8 -3 -51t0 -51
t8 -18q5 -8 6 -34t15 -46t15 -23l2 -7v-6q6 -4 12 -9q7 -5 9 -6q12 -5 23 -5z" />
    <glyph glyph-name="Dcaron" unicode="&#x10e;" horiz-adv-x="655" 
d="M150 1722q12 6 14 14t19 29q17 20 22 27l16 18q16 16 72 39q23 6 47 4q0 -86 -8 -97t-24 -37t-32 -36q2 -8 -6 -15t-11 -15t-5 -11l-16 -18q-2 0 -6 -7t-9 -9q-12 0 -12 -17q-27 -6 -61 17q-37 14 -48 43v4q-48 41 -70 59t-30 25t-33 29t-37 34q8 8 13 10q51 27 102 -8
q59 -35 96 -71q4 -8 7 -11zM217 913v-32l8 -25q0 -25 -6 -29q6 -18 6 -20v-133q0 -4 6 -29q-4 -25 -4 -27q12 -16 4 -22t-1 -12t3 -11l-10 -10q23 -18 0 -37l13 -14l-7 -8l4 -25q-8 -6 -8 -33v-69q0 -21 -3 -27t2 -15t-1 -19t-6 -56v-8q-8 -8 -8 -26v-21q-8 -25 -8 -53
l-8 -29q0 -12 -3 -23q24 18 58 52l-6 8l49 61v19l16 14q6 29 15 38t24 47q14 37 26 59t9 51l12 10l19 67l18 82q2 4 1 16t5 15q4 4 -1 12q-5 9 0 13t6 15t4 15t-3 21q4 12 4 23v44q0 33 3 47l2 31q0 7 -11 84q-12 33 -2 35q-8 6 -7 23q1 16 -4 22t-1 10v4q-2 8 -9 31t-12 47
t-22 71q-17 46 -21 55t-4 14q0 6 -11 16t-7 18q-39 74 -90 131q-18 18 -80 54q-2 -3 -2 -9v-15q0 -20 5 -31t6 -30q1 -20 4 -30t3 -40l17 -161q0 -31 6 -47q-4 -38 2 -104t6 -95zM94 928q-12 12 -8 71v123q0 43 -6 59t-4 58q2 43 2 57l-8 25q12 18 4 42t-3 33t5 52
q4 37 -6 49q2 2 6 24t16 31q4 -2 12 -5t16 -7t33 -12l57 -19q71 -24 148 -110t134 -224q16 -42 29 -76q13 -33 19 -55t14 -56q9 -34 9 -50t4 -30t2 -27q-2 -12 5 -16q6 -3 6 -13l8 -86v-88q0 -16 -6 -54t-2 -59q-6 -10 -10 -38t-15 -42q2 -10 -3 -27t-10 -49q-5 -31 -34 -93
t-29 -70v-6q-4 -6 -17 -21t-13 -26l-19 -50q-4 -8 -17 -23t-23 -35t-32 -38q-20 -19 -26 -35t-33 -41t-31 -31t-29 -21q-25 -14 -34 -23q-51 -2 -103 22q0 20 2 31h5l-7 14q-23 16 -33 50q-11 33 -16 40v31q0 20 -4 22t0 12q3 10 1 22q-2 11 11 63v14q3 17 7 27t6 36t3 46
t5 25t-4 30q12 23 8 59q0 44 4 50t4 22v375l-6 28q0 6 6 13z" />
    <glyph glyph-name="dcaron" unicode="&#x10f;" horiz-adv-x="641" 
d="M250 148q0 16 5 35t1 40t4 63t-1 76q-9 36 -11 62t-15 35l-43 -60q-6 -8 -11 -26q-5 -17 -11 -29t-12 -52t-6 -58v-27q0 -28 17 -53t21 -33q4 -4 21 -9t27 -12q14 32 14 48zM466 1225q75 0 126 -60q12 -16 47 -69q0 -8 5 -41t7 -64t-14 -71q-33 10 -35 12q-56 41 -74 94
q-18 54 -24 62q-41 58 -66 88l-18 22q-8 14 12 29q6 -2 34 -2zM158 922v24q-8 31 -8 79v79q0 25 8 37q-8 4 -3 19t5 20q-8 25 -2 37q6 13 9 41t15 42v23q37 29 99 66q39 20 81 2q6 -20 23 -62q2 0 4 2v-41q0 -35 5 -42t3 -23q-2 -17 3 -21t6 -16q-4 -18 2 -53t6 -52
q8 -14 8 -42q0 -29 4 -39t3 -37t2 -42t4 -47t7 -60t4 -68t0 -66v-150q0 -23 -6 -86q-10 -108 4 -137q15 -20 11 -63q16 -16 16 -47t8 -37v-10q-10 -19 -13 -48q-3 -28 -5 -38l-8 -7q-19 -7 -51 7t-42 14q-11 -25 -37 -41t-30 -21q-16 2 -44 0q-44 -3 -124 48q-11 10 -25 34
t-24 35q-2 10 0 28t-4 26t4 22q-12 10 -4 41t2 45q12 7 17 27t10 27t16 33t31 44t24 25l51 45l2 22q0 20 -8 21q-4 6 -2 23t-6 22q0 16 -10 50q-11 34 -9 45t-3 25t-3 26q2 11 -4 14q-6 4 -8 40t-6 66l-8 32q0 7 8 15q-8 7 -8 23z" />
    <glyph glyph-name="Dcroat" unicode="&#x110;" horiz-adv-x="655" 
d="M229 649l-2 -31q12 -16 4 -22t-1 -12t3 -11l-10 -10q23 -18 0 -37l13 -14l-7 -8l4 -25q-8 -6 -8 -33v-69q0 -21 -3 -27t2 -15t-1 -19t-6 -56v-8q-8 -8 -8 -26v-21q-8 -25 -8 -53l-8 -29q0 -12 -3 -23q24 18 58 52l-6 8l49 61v19l16 14q6 29 15 38t24 47q14 37 26 59t9 51
l12 10l19 67l18 82q2 4 1 16t5 15q4 4 -1 12q-5 9 0 13t6 15t4 15t-3 21q4 12 4 23v44q0 33 3 47l2 31q0 7 -11 84q-12 33 -2 35q-8 6 -7 23q1 16 -4 22t-1 10v4q-2 8 -9 31t-12 47t-22 71q-17 46 -21 55t-4 14q0 6 -11 16t-7 18q-39 74 -90 131q-18 18 -80 54q-2 -3 -2 -9
v-15q0 -20 5 -31t6 -30q1 -20 4 -30t3 -40l17 -161q0 -31 6 -47q-4 -38 2 -104t6 -95v-32l8 -25v-4h29l22 -16l9 8q29 -15 39 -13q37 -96 47 -129v-45q-8 -12 -35 -12h-62q-31 0 -45 6v-2zM94 928q-12 12 -8 71v123q0 43 -6 59t-4 58q2 43 2 57l-8 25q12 18 4 42t-3 33t5 52
q4 37 -6 49q2 2 6 24t16 31q4 -2 12 -5t16 -7t33 -12l57 -19q71 -24 148 -110t134 -224q16 -42 29 -76q13 -33 19 -55t14 -56q9 -34 9 -50t4 -30t2 -27q-2 -12 5 -16q6 -3 6 -13l8 -86v-88q0 -16 -6 -54t-2 -59q-6 -10 -10 -38t-15 -42q2 -10 -3 -27t-10 -49q-5 -31 -34 -93
t-29 -70v-6q-4 -6 -17 -21t-13 -26l-19 -50q-4 -8 -17 -23t-23 -35t-32 -38q-20 -19 -26 -35t-33 -41t-31 -31t-29 -21q-25 -14 -34 -23q-51 -2 -103 22q0 20 2 31h5l-7 14q-23 16 -33 50q-11 33 -16 40v31q0 20 -4 22t0 12q3 10 1 22q-2 11 11 63v14q3 17 7 27t6 36t3 46
t5 25t-4 30q12 23 8 59q0 44 4 50t4 22v172q-25 -4 -31 8h-6q-66 4 -78 7t-40 4t-48 12q-20 10 -26 12v29q20 25 47 65l33 8h37q8 7 30 7t35 5q15 5 23 3t24 -2v45l-6 28q0 6 6 13z" />
    <glyph glyph-name="dcroat" unicode="&#x111;" horiz-adv-x="555" 
d="M250 148q0 16 5 35t1 40t4 63t-1 76q-9 36 -11 62t-15 35l-43 -60q-6 -8 -11 -26q-5 -17 -11 -29t-12 -52t-6 -58v-27q0 -28 17 -53t21 -33q4 -4 21 -9t27 -12q14 32 14 48zM158 922v24q-2 2 -2 8q-34 0 -54 4t-47 6q-27 1 -40 3t-32 10t-28 10v27l59 61l39 8h45
q12 6 52 7v14q0 25 8 37q-8 4 -3 19t5 20q-8 25 -2 37q6 13 9 41t15 42v23q37 29 99 66q39 20 81 2q6 -20 23 -62q2 0 4 2v-41q0 -35 5 -42t3 -23q-2 -17 3 -21q4 -4 4 -16t10 -82h16l27 -16l12 8q6 -2 19 -9t30 -4l55 -122v-41q-8 -12 -43 -13h-98q2 -12 2 -39t7 -52t5 -68
q-2 -42 0 -68v-150q0 -23 -6 -86t-4 -94t12 -47t7 -59q16 -16 16 -47t8 -37v-10q-10 -19 -13 -48q-3 -28 -5 -38l-8 -7q-19 -7 -51 7t-42 14q-11 -25 -37 -41t-30 -21q-16 2 -44 0q-44 -3 -124 48q-11 10 -25 34t-24 35q-2 10 0 28t-4 26t4 22q-12 10 -4 41t2 45q12 7 17 27
t10 27t16 33t31 44t24 25l51 45l2 22q0 20 -8 21q-4 6 -2 23t-6 22q0 16 -10 50q-11 34 -9 45t-3 25t-3 26q2 11 -4 14q-6 4 -8 40t-6 66l-8 32q0 7 8 15q-8 7 -8 23z" />
    <glyph glyph-name="Emacron" unicode="&#x112;" horiz-adv-x="544" 
d="M118 1706q20 0 34 4t30 1t38 1t34 0q8 4 57 4h43l21 -10l10 6q33 -10 39 -8l45 -80v-29q-8 -8 -35 -8h-59q-31 0 -49 5t-26 6l-24 6t-38 2l-37 6q-27 0 -33 6h-6q-53 0 -78 4l-64 4q-8 0 -47 12v19l47 41l31 4h37q10 4 30 4zM195 752q-2 -18 -2 -66t8 -59q-8 -10 -8 -16
l10 -31q-2 -18 -2 -60q6 0 20 -2t25 8q14 -6 42 -5t39 -2t29 -6t33 -15q23 -35 4 -107q-8 -6 -23 -14t-22 -12q-90 -8 -135 10l-10 -15q2 0 8 -6q0 -6 -7 -7t5 -7v-23q0 -61 2 -92v-6q14 -14 5 -24q-9 -9 -7 -19t12 -31q109 1 126 9t29 4t38 -4t28 -2t4 -10t9 -19
q-5 -11 -15 -21t-14 -53t-16 -53q-23 -6 -112 -10t-114 -15h-45q-12 9 -42 21t-35 22t-5 15q0 4 -10 14t-2 64q8 55 9 61t-1 44t6 46q-9 13 -8 35q2 22 2 29v67l6 31l-6 18v101q0 4 5 19t-1 20q-6 4 -5 62t1 66t-4 31l2 27v33q0 2 2 6v4q-14 27 0 57q2 4 1 14t-3 11
q-10 4 -2 10t6 9q-2 2 -4 12t-6 14v115q0 4 -2 16t10 25v4q0 4 -7 19t1 20q8 12 6 23t0 20v45q0 4 -8 20l16 29q-16 8 -7 50t6 62q-4 20 10 46q14 28 14 30l41 33l100 10q9 0 53 -3t57 0t26 -2t32 -5q4 -2 15 -27q-14 -51 -21 -55q-12 -2 -35 -7t-45 -3q-12 -8 -48 -4t-48 2
q-8 -12 -14 -19l6 -20l-10 -25q0 -8 -5 -37q12 -11 6 -44t-1 -40v-141l2 -22q0 -12 -9 -19q8 -31 7 -37q-8 -18 -1 -49t-2 -110l-4 -7q6 -25 7 -26q-8 -8 2 -49z" />
    <glyph glyph-name="emacron" unicode="&#x113;" horiz-adv-x="530" 
d="M305 618v62q-27 -16 -47 -57t-35 -54q0 -45 -16 -57q2 -20 -25 -80l6 -10l-12 -53q2 -1 4 -7t8 -12t11 -5q6 1 14 1l33 37q4 31 11 41t7 43q12 12 15 12q2 10 6 44t12 60q8 25 8 35zM510 975h-61q-33 0 -51 7t-26 7q-9 0 -24 7t-39 3l-37 9q-29 0 -34 6h-7q-77 6 -83 7
t-28 2t-31 3t-24 8t-24 8v23l47 55l33 6h37q6 4 28 4t37 6q14 6 32 2q18 -3 36 2t35 -1q0 8 30 8l29 -2h43l23 -15l8 9q26 -13 41 -11l45 -106v-35q-8 -12 -35 -12zM471 585l8 -7q-13 -9 -17 -28q-5 -20 -10 -32t-6 -55q-4 -29 -14 -43t-18 -30t-15 -25q-59 -72 -120 -80
q-4 0 -11 -6l-32 6l-29 8l-33 8v-119l8 -37q10 -33 48 -47t42 -13t17 -7q12 6 23 6t43 30t85 56l29 -35q2 -6 1 -24t7 -21q-10 -24 -35 -63q-2 -2 -15 -5t-17 -18q0 -8 -10 -8t-29 -9q-18 -9 -33 -5q-27 -16 -82 0q-6 2 -40 11q-98 26 -126 75q-29 49 -32 67t-9 50t-8 51
l-6 30l6 29l-6 27q0 4 8 16q-2 4 -10 12q12 12 10 41t8 41q-8 4 -4 18t3 24q-1 11 1 30l12 28q2 18 18 68q15 51 36 68l-6 6q6 12 12 21t16 26t72 67q61 53 143 74l62 -12q33 -53 33 -57l12 -43q8 -44 15 -64t-2 -38t-6 -39t3 -24z" />
    <glyph glyph-name="Ebreve" unicode="&#x114;" horiz-adv-x="473" 
d="M68 1772l10 -17q-2 -12 10 -45t43 -39q2 0 33 -6l51 10q4 4 25 14t28 29q16 13 25 52q8 39 10 47q8 28 31 30l59 -45q0 -4 8 -25t-14 -77q-8 -8 -8 -19q-70 -70 -143 -88l-25 -8q-8 0 -12 2q-3 2 -11 -3t-36 5l-39 17l-35 26q-16 16 -29 49q0 35 -1 56t20 35zM195 752
q-2 -18 -2 -66t8 -59q-8 -10 -8 -16l10 -31q-2 -18 -2 -60q6 0 20 -2t25 8q14 -6 42 -5t39 -2t29 -6t33 -15q23 -35 4 -107q-8 -6 -23 -14t-22 -12q-90 -8 -135 10l-10 -15q2 0 8 -6q0 -6 -7 -7t5 -7v-23q0 -61 2 -92v-6q14 -14 5 -24q-9 -9 -7 -19t12 -31q109 1 126 9t29 4
t38 -4t28 -2t4 -10t9 -19q-5 -11 -15 -21t-14 -53t-16 -53q-23 -6 -112 -10t-114 -15h-45q-12 9 -42 21t-35 22t-5 15q0 4 -10 14t-2 64q8 55 9 61t-1 44t6 46q-9 13 -8 35q2 22 2 29v67l6 31l-6 18v101q0 4 5 19t-1 20q-6 4 -5 62t1 66t-4 31l2 27v33q0 2 2 6v4
q-14 27 0 57q2 4 1 14t-3 11q-10 4 -2 10t6 9q-2 2 -4 12t-6 14v115q0 4 -2 16t10 25v4q0 4 -7 19t1 20q8 12 6 23t0 20v45q0 4 -8 20l16 29q-16 8 -7 50t6 62q-4 20 10 46q14 28 14 30l41 33l100 10q9 0 53 -3t57 0t26 -2t32 -5q4 -2 15 -27q-14 -51 -21 -55q-12 -2 -35 -7
t-45 -3q-12 -8 -48 -4t-48 2q-8 -12 -14 -19l6 -20l-10 -25q0 -8 -5 -37q12 -11 6 -44t-1 -40v-141l2 -22q0 -12 -9 -19q8 -31 7 -37q-8 -18 -1 -49t-2 -110l-4 -7q6 -25 7 -26q-8 -8 2 -49z" />
    <glyph glyph-name="ebreve" unicode="&#x115;" horiz-adv-x="530" 
d="M305 618v62q-27 -16 -47 -57t-35 -54q0 -45 -16 -57q2 -20 -25 -80l6 -10l-12 -53q2 -1 4 -7t8 -12t11 -5q6 1 14 1l33 37q4 31 11 41t7 43q12 12 15 12q2 10 6 44t12 60q8 25 8 35zM111 1116q0 20 -1 44t19 38l12 -18q-2 -14 13 -56q14 -33 45 -34l34 -9q37 8 56 11
q6 4 27 15t30 32q10 11 18 33t11 30q4 33 10 45q4 29 31 35q8 -6 63 -51q0 -4 10 -30t-7 -59q-17 -34 -17 -44l-22 -22q-47 -47 -132 -75q-2 0 -26 -10q-20 6 -31 -2t-74 27l-39 31q-7 5 -19 27q-11 22 -11 42zM471 585l8 -7q-13 -9 -17 -28q-5 -20 -10 -32t-6 -55
q-4 -29 -14 -43t-18 -30t-15 -25q-59 -72 -120 -80q-4 0 -11 -6l-32 6l-29 8l-33 8v-119l8 -37q10 -33 48 -47t42 -13t17 -7q12 6 23 6t43 30t85 56l29 -35q2 -6 1 -24t7 -21q-10 -24 -35 -63q-2 -2 -15 -5t-17 -18q0 -8 -10 -8t-29 -9q-18 -9 -33 -5q-27 -16 -82 0
q-6 2 -40 11q-98 26 -126 75q-29 49 -32 67t-9 50t-8 51l-6 30l6 29l-6 27q0 4 8 16q-2 4 -10 12q12 12 10 41t8 41q-8 4 -4 18t3 24q-1 11 1 30l12 28q2 18 18 68q15 51 36 68l-6 6q6 12 12 21t16 26t72 67q61 53 143 74l62 -12q33 -53 33 -57l12 -43q8 -44 15 -64t-2 -38
t-6 -39t3 -24z" />
    <glyph glyph-name="Edotaccent" unicode="&#x116;" horiz-adv-x="544" 
d="M181 1788q17 0 57 27q33 -12 57 -21q27 -68 33 -170q-6 -4 -18 -9t-15 -9l-6 -27l-25 -12l-96 32q-27 9 -40 21t-19 16q-5 4 -9 8t-4 9q0 4 -7 36t3 33q18 29 41 43q31 23 48 23zM195 752q-2 -18 -2 -66t8 -59q-8 -10 -8 -16l10 -31q-2 -18 -2 -60q6 0 20 -2t25 8
q14 -6 42 -5t39 -2t29 -6t33 -15q23 -35 4 -107q-8 -6 -23 -14t-22 -12q-90 -8 -135 10l-10 -15q2 0 8 -6q0 -6 -7 -7t5 -7v-23q0 -61 2 -92v-6q14 -14 5 -24q-9 -9 -7 -19t12 -31q109 1 126 9t29 4t38 -4t28 -2t4 -10t9 -19q-5 -11 -15 -21t-14 -53t-16 -53
q-23 -6 -112 -10t-114 -15h-45q-12 9 -42 21t-35 22t-5 15q0 4 -10 14t-2 64q8 55 9 61t-1 44t6 46q-9 13 -8 35q2 22 2 29v67l6 31l-6 18v101q0 4 5 19t-1 20q-6 4 -5 62t1 66t-4 31l2 27v33q0 2 2 6v4q-14 27 0 57q2 4 1 14t-3 11q-10 4 -2 10t6 9q-2 2 -4 12t-6 14v115
q0 4 -2 16t10 25v4q0 4 -7 19t1 20q8 12 6 23t0 20v45q0 4 -8 20l16 29q-16 8 -7 50t6 62q-4 20 10 46q14 28 14 30l41 33l100 10q9 0 53 -3t57 0t26 -2t32 -5q4 -2 15 -27q-14 -51 -21 -55q-12 -2 -35 -7t-45 -3q-12 -8 -48 -4t-48 2q-8 -12 -14 -19l6 -20l-10 -25
q0 -8 -5 -37q12 -11 6 -44t-1 -40v-141l2 -22q0 -12 -9 -19q8 -31 7 -37q-8 -18 -1 -49t-2 -110l-4 -7q6 -25 7 -26q-8 -8 2 -49z" />
    <glyph glyph-name="edotaccent" unicode="&#x117;" horiz-adv-x="530" 
d="M305 618v62q-27 -16 -47 -57t-35 -54q0 -45 -16 -57q2 -20 -25 -80l6 -10l-12 -53q2 -1 4 -7t8 -12t11 -5q6 1 14 1l33 37q4 31 11 41t7 43q12 12 15 12q2 10 6 44t12 60q8 25 8 35zM213 1048q0 2 -6 32q-6 28 4 30q12 23 33 39q31 20 40 20t48 23l47 -18q20 -53 29 -150
q-9 -6 -29 -16q0 -4 -4 -25l-21 -10q-14 4 -41 14t-47 17q-20 6 -36 24q-17 18 -17 20zM471 585l8 -7q-13 -9 -17 -28q-5 -20 -10 -32t-6 -55q-4 -29 -14 -43t-18 -30t-15 -25q-59 -72 -120 -80q-4 0 -11 -6l-32 6l-29 8l-33 8v-119l8 -37q10 -33 48 -47t42 -13t17 -7
q12 6 23 6t43 30t85 56l29 -35q2 -6 1 -24t7 -21q-10 -24 -35 -63q-2 -2 -15 -5t-17 -18q0 -8 -10 -8t-29 -9q-18 -9 -33 -5q-27 -16 -82 0q-6 2 -40 11q-98 26 -126 75q-29 49 -32 67t-9 50t-8 51l-6 30l6 29l-6 27q0 4 8 16q-2 4 -10 12q12 12 10 41t8 41q-8 4 -4 18t3 24
q-1 11 1 30l12 28q2 18 18 68q15 51 36 68l-6 6q6 12 12 21t16 26t72 67q61 53 143 74l62 -12q33 -53 33 -57l12 -43q8 -44 15 -64t-2 -38t-6 -39t3 -24z" />
    <glyph glyph-name="Eogonek" unicode="&#x118;" horiz-adv-x="544" 
d="M57 29q0 4 -10 14t-2 64q8 55 9 61t-1 44t6 46q-9 13 -8 35q2 22 2 29v67l6 31l-6 18v101q0 4 5 19t-1 20q-6 4 -5 62t1 66t-4 31l2 27v33q0 2 2 6v4q-14 27 0 57q2 4 1 14t-3 11q-10 4 -2 10t6 9q-2 2 -4 12t-6 14v115q0 4 -2 16t10 25v4q0 4 -7 19t1 20q8 12 6 23t0 20
v45q0 4 -8 20l16 29q-16 8 -7 50t6 62q-4 20 10 46q14 28 14 30l41 33l100 10q9 0 53 -3t57 0t26 -2t32 -5q4 -2 15 -27q-14 -51 -21 -55q-12 -2 -35 -7t-45 -3q-12 -8 -48 -4t-48 2q-8 -12 -14 -19l6 -20l-10 -25q0 -8 -5 -37q12 -11 6 -44t-1 -40v-141l2 -22q0 -12 -9 -19
q8 -31 7 -37q-8 -18 -1 -49t-2 -110l-4 -7q6 -25 7 -26q-8 -8 2 -49q-2 -18 -2 -66t8 -59q-8 -10 -8 -16l10 -31q-2 -18 -2 -60q6 0 20 -2t25 8q14 -6 42 -5t39 -2t29 -6t33 -15q23 -35 4 -107q-8 -6 -23 -14t-22 -12q-90 -8 -135 10l-10 -15q2 0 8 -6q0 -6 -7 -7t5 -7v-23
q0 -61 2 -92v-6q14 -14 5 -24q-9 -9 -7 -19t12 -31q109 1 126 9t29 4t38 -4t28 -2t4 -10t9 -19q-5 -11 -15 -21t-14 -53t-16 -53q-23 -6 -74 -8t-84 -6l-12 -17q0 -2 -3 -13t13 -50q4 -2 14 -2l12 -17h19l22 -18q0 2 5 6q41 -12 58 -12t19 -3t5 -3t6 2q2 6 27 5t93 13l31 8
q3 2 15 3q12 2 15 6t58 4q-10 -33 -65 -99h-13q-6 -12 -34 -22q-27 -13 -38 -13t-23 -7t-51 -5q-40 2 -50 0l-60 12l-24 13q-48 10 -64 22q-17 12 -39 31q-25 16 -34 55q-16 47 8 86q0 2 2 2l-25 2q-12 9 -42 21t-35 22t-5 15z" />
    <glyph glyph-name="eogonek" unicode="&#x119;" horiz-adv-x="530" 
d="M305 618v62q-27 -16 -47 -57t-35 -54q0 -45 -16 -57q2 -20 -25 -80l6 -10l-12 -53q2 -1 4 -7t8 -12t11 -5q6 1 14 1l33 37q4 31 11 41t7 43q12 12 15 12q2 10 6 44t12 60q8 25 8 35zM471 585l8 -7q-13 -9 -17 -28q-5 -20 -10 -32t-6 -55q-4 -29 -14 -43t-18 -30t-15 -25
q-59 -72 -120 -80q-4 0 -11 -6l-32 6l-29 8l-33 8v-119l8 -37q10 -33 48 -47t42 -13t17 -7q12 6 23 6t40 25q35 35 88 61l29 -35q2 -6 1 -24t7 -21q-10 -24 -35 -63q-2 -2 -15 -5t-17 -18q0 -8 -10 -8t-29 -9q-18 -9 -33 -5q-20 -12 -45 -9q-2 -2 -2 -4l-4 -24q0 -11 10 -31
h10q4 -8 8 -14h15q8 -12 14 -17q0 4 4 4q37 -10 45 -10t10 -4h7q1 4 30 4l54 12l20 9q20 6 23 6q2 4 19 4h19q-8 -37 -45 -86h-8q-6 -14 -24 -19q-16 -12 -26 -11t-19 -5q-10 -6 -33 -5t-35 -1l-23 6l-18 6q-4 0 -12 5t-16 7q-18 4 -37 19l-25 24q-18 14 -26 50t8 73l2 2v15
q-49 12 -89 30t-64 58q-24 41 -27 59t-9 50t-8 51l-6 30l6 29l-6 27q0 4 8 16q-2 4 -10 12q12 12 10 41t8 41q-8 4 -4 18t3 24q-1 11 1 30l12 28q2 18 18 68q15 51 36 68l-6 6q6 12 12 21t16 26t72 67q61 53 143 74l62 -12q33 -53 33 -57l12 -43q8 -44 15 -64t-2 -38t-6 -39
t3 -24z" />
    <glyph glyph-name="Ecaron" unicode="&#x11a;" horiz-adv-x="481" 
d="M219 1716l10 10q3 14 21 34t22 28l17 20q14 14 73 41q20 6 46 4q0 -55 -1 -75t-9 -30q-8 -11 -22 -35q-13 -24 -30 -38q0 -8 -7 -15t-10 -14t-7 -12l-17 -18q-2 -2 -5 -9t-9 -8q-6 -2 -12 -20q-25 -4 -60 18q-39 16 -47 45v5l-72 63t-20 16t-6 5l-72 69q8 8 12 10
q51 25 111 -14t86 -70q2 0 8 -10zM195 752q-2 -18 -2 -66t8 -59q-8 -10 -8 -16l10 -31q-2 -18 -2 -60q6 0 20 -2t25 8q14 -6 42 -5t39 -2t29 -6t33 -15q23 -35 4 -107q-8 -6 -23 -14t-22 -12q-90 -8 -135 10l-10 -15q2 0 8 -6q0 -6 -7 -7t5 -7v-23q0 -61 2 -92v-6
q14 -14 5 -24q-9 -9 -7 -19t12 -31q109 1 126 9t29 4t38 -4t28 -2t4 -10t9 -19q-5 -11 -15 -21t-14 -53t-16 -53q-23 -6 -112 -10t-114 -15h-45q-12 9 -42 21t-35 22t-5 15q0 4 -10 14t-2 64q8 55 9 61t-1 44t6 46q-9 13 -8 35q2 22 2 29v67l6 31l-6 18v101q0 4 5 19t-1 20
q-6 4 -5 62t1 66t-4 31l2 27v33q0 2 2 6v4q-14 27 0 57q2 4 1 14t-3 11q-10 4 -2 10t6 9q-2 2 -4 12t-6 14v115q0 4 -2 16t10 25v4q0 4 -7 19t1 20q8 12 6 23t0 20v45q0 4 -8 20l16 29q-16 8 -7 50t6 62q-4 20 10 46q14 28 14 30l41 33l100 10q9 0 53 -3t57 0t26 -2t32 -5
q4 -2 15 -27q-14 -51 -21 -55q-12 -2 -35 -7t-45 -3q-12 -8 -48 -4t-48 2q-8 -12 -14 -19l6 -20l-10 -25q0 -8 -5 -37q12 -11 6 -44t-1 -40v-141l2 -22q0 -12 -9 -19q8 -31 7 -37q-8 -18 -1 -49t-2 -110l-4 -7q6 -25 7 -26q-8 -8 2 -49z" />
    <glyph glyph-name="ecaron" unicode="&#x11b;" horiz-adv-x="530" 
d="M305 618v62q-27 -16 -47 -57t-35 -54q0 -45 -16 -57q2 -20 -25 -80l6 -10l-12 -53q2 -1 4 -7t8 -12t11 -5q6 1 14 1l33 37q4 31 11 41t7 43q12 12 15 12q2 10 6 44t12 60q8 25 8 35zM293 1084q0 -1 2 -3q10 6 11 15t19 26q17 18 20 22l9 12q6 7 13 15t65 31q20 6 45 4
q0 -51 -1 -69t-24 -51q-22 -32 -34 -42q0 -10 -12 -18q0 -7 -13 -20l-14 -17q-2 -2 -5 -8t-8 -8t-14 -17q-18 -4 -57 15q-37 14 -45 43v2l-164 141q10 10 12 10q49 27 97 -8q77 -43 96 -72q2 -2 2 -3zM471 585l8 -7q-13 -9 -17 -28q-5 -20 -10 -32t-6 -55q-4 -29 -14 -43
t-18 -30t-15 -25q-59 -72 -120 -80q-4 0 -11 -6l-32 6l-29 8l-33 8v-119l8 -37q10 -33 48 -47t42 -13t17 -7q12 6 23 6t43 30t85 56l29 -35q2 -6 1 -24t7 -21q-10 -24 -35 -63q-2 -2 -15 -5t-17 -18q0 -8 -10 -8t-29 -9q-18 -9 -33 -5q-27 -16 -82 0q-6 2 -40 11
q-98 26 -126 75q-29 49 -32 67t-9 50t-8 51l-6 30l6 29l-6 27q0 4 8 16q-2 4 -10 12q12 12 10 41t8 41q-8 4 -4 18t3 24q-1 11 1 30l12 28q2 18 18 68q15 51 36 68l-6 6q6 12 12 21t16 26t72 67q61 53 143 74l62 -12q33 -53 33 -57l12 -43q8 -44 15 -64t-2 -38t-6 -39t3 -24
z" />
    <glyph glyph-name="Gcircumflex" unicode="&#x11c;" horiz-adv-x="647" 
d="M193 1659q1 -4 -9 -9t-30 -32t-33 -37l-12 -16q-35 -31 -58 -33l-10 4q-12 41 -13 48q-1 6 4 16t11 28t16 25q-2 10 8 24q9 15 13 25t32 52t48 60q18 18 51 26t76 7q43 0 59 2l72 -45q12 -8 28 -26t25 -25l113 -92q8 -5 22 -25t15 -24q-39 -70 -60 -84q-45 4 -76 28
q-16 16 -24 19q1 2 -11 13q-12 10 -19 14t-10 7t-15 11t-19 14q-43 55 -72 70l-12 12h-12q-8 8 -12 10q-33 -11 -48 -23q-14 -13 -38 -42v-2zM414 377q0 10 3 17q3 8 8 18t5 61l8 49q2 14 -8 56l-20 38q-26 -14 -50 -24t-75 -10l-21 16v84q25 29 29 33q4 2 15 12
q10 10 18 14q8 5 18 15l12 12l43 29l76 -9q16 -10 57 -30q-4 -25 15 -45q37 -61 43 -258q-6 -15 -8 -51t-17 -54q-1 -28 -17 -68t-16 -42t-12 -24t-14 -30q0 -10 -13 -24t-14 -25q-6 -8 -38 -51t-45 -53t-20 -17t-26 -12q-15 -36 -65 -20q-11 2 -31 3t-64 14t-64 27
q-20 15 -50 60t-36 56q-5 10 -6 30t-8 42t-3 42q-10 14 -12 41q-1 27 -6 35t-3 42t2 42l2 16q0 7 -8 17l10 61q-2 2 -4 6l6 25q2 14 2 45v45q0 29 8 90q8 0 7 12q-2 13 0 17t0 16t0 17t5 27t7 29t4 27t5 26q5 7 5 19l8 42q1 15 5 23t6 22q2 15 7 27t19 71q24 62 40 110
t52 112t68 106q33 42 113 65l32 4q53 -20 82 -53q5 -6 5 -13t11 -25t18 -52q7 -33 8 -36t-16 -19t-11 -21q-2 -2 -8 -13q-16 -29 -52 7q-12 25 -22 34t-21 29q-10 -2 -18 -3t-13 -4t-10 -5q-8 -12 -27 -9q-19 4 -25 -8t-23 -38q-15 -26 -21 -46t-14 -30t-10 -24t-6 -22
q-4 -6 -9 -26q-4 -20 -10 -30t-11 -28q-6 -18 -10 -26t-5 -24t-6 -29t-10 -32t-5 -27t3 -33t-7 -41v-12q0 -4 2 -18t-5 -20t-5 -20t-6 -17t-4 -23q5 -20 -2 -66t-7 -58t-5 -23t1 -21t6 -25v-111q0 -62 6 -82t8 -54t15 -57q14 -22 17 -23q14 -5 28 -15l6 -2q6 0 6 -2l23 -15
h39q12 12 29 18q16 6 24 21q8 17 23 33t35 64t20 57z" />
    </font>
</defs>
</svg>
