<?xml version="1.0" standalone="no"?>
<!DOCTYPE svg PUBLIC "-//W3C//DTD SVG 1.1//EN" "http://www.w3.org/Graphics/SVG/1.1/DTD/svg11.dtd" >
<svg xmlns="http://www.w3.org/2000/svg" xmlns:xlink="http://www.w3.org/1999/xlink" version="1.1">
<metadata></metadata>
<defs>
<font id="steelheartregular" horiz-adv-x="550" >
<font-face units-per-em="2048" ascent="1638" descent="-410" />
<missing-glyph horiz-adv-x="397" />
<glyph horiz-adv-x="0" />
<glyph horiz-adv-x="682" />
<glyph horiz-adv-x="0" />
<glyph horiz-adv-x="0" />
<glyph unicode="&#xd;" horiz-adv-x="397" />
<glyph unicode=" "  horiz-adv-x="397" />
<glyph unicode="&#x09;" horiz-adv-x="397" />
<glyph unicode="&#xa0;" horiz-adv-x="397" />
<glyph unicode="!" horiz-adv-x="335" d="M76 90q12 38 43.5 58t64.5 10q30 -9 43.5 -37t5.5 -58q-8 -31 -42 -56.5t-66 -18.5q-33 6 -47.5 34t-1.5 68zM117 1004q0 20 14.5 35t35.5 20t42 3t37.5 -17.5t19.5 -40.5q6 -73 -27 -364t-57 -392q-2 -11 -12 -18.5t-19.5 -2t-9.5 28.5q0 14 -12 331t-12 417z" />
<glyph unicode="&#x22;" horiz-adv-x="237" d="M28.5 699.5q11.5 18.5 25.5 44t7 32.5q-8 0 -15 10.5t-10 30t5 47.5q12 36 35 59.5t45 22.5q28 -3 33 -42t-7 -77q-17 -66 -56 -115t-62 -40q-12 9 -0.5 27.5zM170 672q-12 9 0 27.5t26 44t7 32.5q-8 0 -15.5 10.5t-10.5 30t5 47.5q12 36 35 59.5t45 22.5q28 -3 33.5 -42 t-6.5 -77q-17 -66 -56.5 -115t-62.5 -40z" />
<glyph unicode="#" horiz-adv-x="733" d="M82 141q-9 0 6 20q12 15 21 15q36 0 75 -2l35 62h-24t-21 0.5t-16 1t-11 0.5h-4q-9 0 4 20q12 18 21 18l25 -1q25 -1 47 -1q94 169 102 177q14 13 36.5 9t41 -21t10.5 -31q-3 -4 -100 -138q18 -2 57 -2q100 176 105 183q15 13 37.5 9t40.5 -21t10 -31q-13 -22 -103 -144 q23 -1 46.5 -2t35 -1.5t12.5 -0.5q4 -2 4 -7t-4 -11.5t-10 -8.5h-106l-49 -65q25 -1 51 -2l39 -1.5t14 -0.5q3 -2 3.5 -7t-3.5 -11t-10 -7q-7 -3 -117 0q-89 -121 -113 -145q-13 -10 -21.5 -3t-2.5 21q0 1 9.5 17.5t26.5 47.5t33 62h-82q-100 -131 -114 -145 q-12 -10 -21.5 -3t-3.5 21l72 129h-84zM258 172q49 0 76 -2l35 66h-64z" />
<glyph unicode="$" horiz-adv-x="471" d="M0 80q-1 42 13 77.5t37 56.5t47 32.5t44 11.5q6 0 8 -3.5t0.5 -8t-4.5 -6.5q-15 -12 -28 -53.5t-13 -96.5q0 -56 20.5 -95t51.5 -48l6 344q-15 11 -47 32.5t-49 35t-38 35.5t-30.5 48.5t-9.5 59.5q0 73 52 127.5t133 60.5q2 39 2 68q1 15 8 18.5t13.5 -2.5t6.5 -14v-68 q49 -5 92 -37.5t43 -74.5q0 -79 -57 -99l-8 -3q-8 -2 -12.5 -3t-12.5 -1.5t-8.5 3t0.5 10.5q22 47 9.5 103t-46.5 67q0 -34 -1 -138.5t-1 -166.5q17 -15 61 -48.5t65 -53t41 -56.5t20 -79q0 -82 -55 -138t-136 -67v-60q0 -9 -10.5 -14t-21.5 -2t-11 14v60q-70 5 -121.5 53.5 t-52.5 118.5zM135 520q0 -75 51 -133l7 268q-27 -12 -42.5 -50.5t-15.5 -84.5zM217 -47q29 15 46.5 59.5t17.5 96.5q0 89 -62 151q0 -63 -1 -168t-1 -139z" />
<glyph unicode="%" horiz-adv-x="788" d="M23 508q0 62 18 110t47 73t58.5 37.5t58.5 12.5q31 0 43 -16.5t10 -35.5t-10 -40h2q32 0 60 -41t28 -116q0 -90 -38 -150.5t-112 -60.5q-80 0 -122.5 58.5t-42.5 168.5zM32 -106.5q-1 5.5 1 8.5q8 14 309 423.5t305 417.5q17 27 50 -17q30 -41 31 -72q1 -6 -1 -9 q-8 -17 -336 -381.5t-342 -376.5q-6 -5 -11 -2t-6 8.5zM137 510q0 -90 14.5 -147.5t38.5 -57.5t41 50t23 128q10 135 -8 135q-5 0 -9 -2t-6 -6t-3 -6.5t-2 -7.5l-1 -6q-2 -9 -18 -1q-12 7 -12 17q0 14 20 31q5 11 9.5 22.5t8.5 27.5t-1.5 26t-20.5 10q-35 0 -54.5 -57 t-19.5 -156zM436 123q0 62 18 110t46.5 73t58 37.5t57.5 12.5q31 0 44.5 -16.5t11.5 -35.5t-10 -40h2q31 0 58.5 -41.5t27.5 -116.5q0 -90 -38 -150t-110 -60q-80 0 -123 58.5t-43 168.5zM551 125q0 -90 14.5 -147.5t38.5 -57.5t41 50t23 128q10 135 -9 135q-5 0 -8.5 -2 t-5.5 -6t-3 -6.5t-2 -7.5t-1 -6q-2 -4 -9.5 -4t-15.5 6.5t-8 13.5q3 14 23 31q5 11 9.5 22.5t8 27.5t-2 26t-21.5 10q-35 0 -53.5 -56.5t-18.5 -156.5z" />
<glyph unicode="&#x26;" horiz-adv-x="675" d="M-39 201q0 134 63.5 230.5t161.5 146.5q-57 43 -90 109.5t-33 139.5q0 149 85.5 248t226.5 99q74 0 121 -44t47 -110q0 -97 -62 -154t-133 -57q-48 0 -46 31q1 25 25 41q14 9 23 4q34 -19 62 -14.5t45.5 43t17.5 102.5q0 45 -21 81t-71 36q-74 0 -125 -94t-51 -212 q0 -159 61 -217q50 13 88 13q62 0 65 -34q2 -28 -31 -50q-21 -13 -44 -13q-51 0 -100 19q-56 -45 -88.5 -134.5t-32.5 -193.5q0 -360 184 -360q65 0 116 27t80 72t43.5 97.5t14.5 110.5q0 71 -28.5 118.5t-79.5 47.5q-37 0 -59 -18.5t-27 -49t-1.5 -64t15.5 -69.5 q9 -28 -5.5 -54.5t-36.5 -29.5t-42 21q-16 24 -19.5 62.5t7.5 79t32.5 77t58.5 59.5t83 23q67 0 106 -61t39 -136q0 -48 -12 -98t-36.5 -98.5t-59 -86.5t-83 -61t-104.5 -23q-148 0 -249 111.5t-101 286.5z" />
<glyph unicode="'" horiz-adv-x="96" d="M28.5 699.5q11.5 18.5 25.5 44t7 32.5q-8 0 -15 10.5t-10 30t5 47.5q12 36 35 59.5t45 22.5q28 -3 33 -42t-7 -77q-17 -66 -56 -115t-62 -40q-12 9 -0.5 27.5z" />
<glyph unicode="(" horiz-adv-x="489" d="M0 225q0 114 25 216t65.5 173.5t91 124t101 78t94.5 25.5q6 0 6.5 -11t-2.5 -21.5t-8 -10.5q-54 0 -108.5 -83.5t-90 -218.5t-35.5 -272q0 -142 30 -273.5t85 -216.5t119 -85q5 0 8 -11t2.5 -21.5t-6.5 -10.5q-73 0 -140.5 41.5t-120.5 117.5t-84.5 195t-31.5 264z" />
<glyph unicode=")" horiz-adv-x="516" d="M0 -382.5q-1 10.5 2 21.5t8 11q64 0 119.5 85t86 217t30.5 273q0 137 -36 272t-91 218.5t-109 83.5q-5 0 -8 10.5t-2 21.5t6 11q44 0 94.5 -25.5t101 -78t91 -124t65.5 -173.5t25 -216q0 -145 -31.5 -264t-84.5 -195t-120.5 -117.5t-140.5 -41.5q-5 0 -6 10.5z" />
<glyph unicode="*" horiz-adv-x="403" d="M95.5 568q-1.5 15 8.5 24t25 2l57 -29q-2 13 -3.5 29.5t-2.5 25.5t-2 13q-2 16 21.5 22t47 -0.5t21.5 -21.5l-8 -64l49 25q15 7 25 -2t9 -24t-15 -21l-60 -27q64 -35 66 -37q12 -8 7.5 -21.5t-22.5 -6.5l-71 30l-10 -79q-2 -12 -9.5 -15t-15 2t-8.5 13q0 3 -8 81 q-16 -6 -33 -13t-29.5 -12.5t-15.5 -6.5q-18 -7 -22.5 6.5t7.5 21.5q2 2 66 37l-59 27q-14 6 -15.5 21z" />
<glyph unicode="+" horiz-adv-x="440" d="M36 300.5q-6 17.5 1 35t22 16.5q14 -2 105 -2q0 79 -4 103q-2 16 15.5 22t35 0t16.5 -22q-2 -14 -2 -103q91 0 107 2q13 1 18.5 -16.5t-0.5 -34.5t-20 -16q-36 4 -105 4q0 -93 2 -109q1 -13 -16.5 -18.5t-34.5 0.5t-16 20q4 36 4 107q-79 0 -107 -4q-15 -2 -21 15.5z" />
<glyph unicode="," horiz-adv-x="266" d="M49 90q12 37 44 57.5t65 10.5q29 -9 40 -43.5t1 -75.5q-14 -65 -60.5 -115.5t-70.5 -40.5q-12 9 -1 27.5t24.5 44.5t6.5 33q-33 6 -47.5 34t-1.5 68z" />
<glyph unicode="-" horiz-adv-x="440" d="M36 300.5q-6 17.5 1 35t22 16.5q34 -2 134.5 -2.5t138.5 2.5q13 1 18.5 -16.5t-0.5 -34.5t-20 -16q-37 3 -141 3.5t-132 -3.5q-15 -2 -21 15.5z" />
<glyph unicode="." horiz-adv-x="272" d="M49 90q12 37 44 57.5t65 10.5q30 -9 43.5 -37t5.5 -58q-8 -31 -42.5 -56.5t-66.5 -18.5q-33 6 -47.5 34t-1.5 68z" />
<glyph unicode="/" horiz-adv-x="753" d="M11 -106.5q-1 5.5 1 8.5q8 14 309.5 423.5t305.5 417.5q17 27 50 -17q30 -41 31 -72q1 -6 -1 -9q-8 -17 -336 -381.5t-342 -376.5q-6 -5 -11.5 -2t-6.5 8.5z" />
<glyph unicode="0" horiz-adv-x="487" d="M0 297q0 95 28.5 177t71 133.5t89.5 80.5t87 29q37 0 58 -19t23.5 -49t-1.5 -58.5t-14 -55.5h6q43 0 77 -73.5t34 -191.5q0 -67 -10 -124.5t-32.5 -108t-64 -80t-98.5 -29.5q-121 0 -187.5 99.5t-66.5 269.5zM174 299q0 -139 22.5 -236.5t59.5 -97.5q35 0 60.5 85.5 t35.5 207.5q17 229 -12 229q-9 0 -15.5 -6t-8.5 -12t-4 -15.5t-3 -11.5q-4 -6 -14.5 -5.5t-22.5 10.5t-12 22q3 22 33 45q8 17 15.5 42.5t13 57t-2.5 53t-32 21.5q-52 0 -82.5 -115t-30.5 -274z" />
<glyph unicode="1" horiz-adv-x="294" d="M-39 397q3 18 15 22.5t24.5 0.5t26.5 -8t20 -2q32 14 68 41q53 282 155 282q58 0 20 -94q-24 -59 -77 -131q-14 -150 -4.5 -288.5t33.5 -254.5q2 -9 -15 -17.5t-42 -14t-50.5 -8t-43.5 1t-19 12.5q-1 18 0 80t8.5 169t21.5 199q-22 -22 -45 -35q-39 -19 -70 -1.5 t-26 46.5z" />
<glyph unicode="2" horiz-adv-x="471" d="M0 16q0 36 42 60t91 26q46 96 79.5 209t33.5 211q0 81 -13 120.5t-47 39.5q-33 0 -63 -29t-46.5 -72t-22.5 -91.5t9 -86.5q15 18 41 4t27 -47q0 -21 -14.5 -39t-34.5 -18q-52 0 -73.5 104.5t27.5 209t169 104.5q86 0 142 -66t56 -166q0 -94 -53.5 -205t-130.5 -202 q109 -51 119 -51q12 0 21 11t13 23t7.5 27.5t3.5 16.5q3 10 16 6q14 -4 11 -23q-3 -18 -8.5 -39.5t-18 -55t-35.5 -55.5t-51 -22q-27 0 -58 15t-50 29.5t-46 39.5q-62 -49 -98 -49q-23 0 -34 17.5t-11 43.5zM43 16q0 -22 14 -22q15 0 41 47q-9 6 -18 6q-14 0 -25.5 -9 t-11.5 -22z" />
<glyph unicode="3" horiz-adv-x="462" d="M0 -115q0 30 14.5 62.5t34.5 49t35 3.5q19 -22 2 -55.5t-41 -38.5q-5 -47 26 -86t79 -39q54 0 83 62.5t29 154.5t-33 149q-59 -36 -123 -36q-49 0 -49 36q0 20 37 43t96 29q68 125 68 281q0 94 -10.5 138t-50.5 44q-44 0 -87 -48t-56.5 -110t14.5 -121q15 19 40 4t25 -47 q2 -20 -13 -38.5t-34 -18.5q-53 0 -75 104.5t27.5 209t170.5 104.5q85 0 141 -66t56 -166q0 -177 -107 -284q58 -24 94.5 -78.5t36.5 -128.5q0 -110 -80.5 -183t-187.5 -73q-81 0 -121.5 45t-40.5 98zM94 147q0 -10 19 -10q27 0 59 49q-28 0 -53 -14.5t-25 -24.5z" />
<glyph unicode="4" d="M5.5 -4.5q-14.5 38.5 2.5 55.5q18 24 98 37q20 84 32 208.5t12 188.5q0 205 -41 205q-15 0 -32 -20.5t-24 -36.5q-6 -12 -20.5 -8t-14.5 14q0 16 33 49t76 33q59 0 112.5 -48.5t53.5 -137.5q0 -255 -94 -439q74 3 135 -2q37 406 102 570q15 42 43 28q20 -10 20 -30l-1 -7 q-27 -87 -41.5 -252t-12.5 -327q38 -15 52 -27q14 -9 9 -34q-7 -20 -20 -13q-23 15 -41 23q7 -145 19 -201q2 -8 -12.5 -16.5t-36.5 -13.5t-44.5 -7.5t-39 0.5t-17.5 12q-4 25 17 256q-86 10 -154 4q-63 -102 -123 -102q-33 0 -47.5 38.5zM39.5 0.5q6.5 -12.5 19.5 -12.5 q21 0 37 59q-40 -9 -53 -22q-10 -12 -3.5 -24.5z" />
<glyph unicode="5" horiz-adv-x="464" d="M0 -115q0 30 14.5 62.5t34.5 49t35 3.5q19 -22 2 -55.5t-41 -38.5q-5 -46 25.5 -79.5t79.5 -33.5q53 0 73.5 60t20.5 172q0 200 -86 200q-27 0 -41 -2q-13 -59 -54 -59q-49 0 -49 39q0 40 66 65q-2 31 -2 123q-6 154 -6 156q-41 41 -61 87.5t-7 59.5q26 21 46 8.5 t36 -51.5q47 -10 103 -13t110 8t70 38q19 27 34 11q13 -14 9 -46q-20 -172 -191 -172q-47 0 -104 33q8 -70 8 -111q3 -67 0 -120q28 4 51 4q105 0 172.5 -66.5t67.5 -191.5q0 -133 -75.5 -208t-184.5 -75q-76 0 -116 45t-40 98zM51 201q0 -11 19 -11q8 0 8 25 q-27 -8 -27 -14z" />
<glyph unicode="6" horiz-adv-x="565" d="M0 324q0 107 27 196.5t69 147.5t94.5 98.5t100.5 58t90 17.5q33 0 55.5 -17t22.5 -43q0 -32 -15 -48.5t-38 -16.5q-34 0 -44.5 34.5t17.5 57.5q-105 -2 -167 -139t-62 -371q0 -81 18 -158.5t51.5 -128.5t71.5 -51q88 0 88 252q0 244 -53 244q-33 0 -55 -45.5t-24 -99 t7 -97.5q7 -22 -15 -38q-22 -14 -31 3q-2 4 -3 8q-11 41 -6.5 95t17.5 103t45.5 82.5t76.5 33.5q90 0 143.5 -72.5t53.5 -198.5q0 -135 -66 -219t-188 -84q-41 0 -79 10.5t-75.5 38.5t-65 71t-44.5 114t-17 162z" />
<glyph unicode="7" horiz-adv-x="528" d="M-20 614q0 46 28 80.5t66 34.5q11 0 27 -4t28.5 -8.5t37.5 -14t38 -14.5q35 90 18 117q-2 4 -13 8.5t-19 8t-11.5 11t8.5 17.5q25 24 50.5 3.5t25.5 -62.5q0 -45 -26 -115q85 -30 141 -37q84 88 131 68q19 -11 17.5 -35.5t-27.5 -56.5t-62 -52q-79 -139 -159 -373.5 t-80 -355.5q0 -59 34 -59q7 0 10 -10.5t-0.5 -21.5t-11.5 -11q-24 0 -53 11t-56.5 32t-46 56.5t-18.5 78.5q0 135 73.5 315.5t172.5 321.5q-42 6 -113 39q-55 -80 -110 -80q-47 0 -73.5 32t-26.5 76zM14 596q0 -26 17.5 -41.5t44.5 -15.5q41 0 84 63q-77 41 -101 41 q-21 0 -33 -14t-12 -33z" />
<glyph unicode="8" horiz-adv-x="487" d="M0 113q0 67 38 124t105 115q-55 69 -84.5 126.5t-29.5 123.5q0 27 6 55.5t22.5 60.5t40.5 56.5t63.5 40.5t88.5 16q40 0 74.5 -11t54.5 -26t31 -28.5t12 -22.5q2 -11 -13 -24t-30 -16.5t-21 6.5q-5 13 -6.5 18t-10.5 20.5t-18 23t-26 15t-37 7.5q-45 0 -75.5 -39 t-30.5 -92q0 -54 28 -102.5t82 -108.5q94 83 94 145q0 15 -3.5 27t-9.5 19.5t-14 12t-15.5 6.5t-16 2.5t-14 0t-10.5 -1.5h-5q-1 0 -12 -5.5t-19.5 -7t-17.5 5.5q-3 5 -3 13t11.5 17.5t32.5 14.5q15 6 39.5 1.5t48 -13.5t40 -35t16.5 -63q0 -26 -17.5 -57.5t-36.5 -53.5 t-57 -63q39 -41 59.5 -64.5t48 -62t40 -76.5t12.5 -78q0 -31 -14 -65.5t-41.5 -67t-76.5 -53.5t-110 -21q-102 0 -157.5 52t-55.5 133zM109 98q0 -61 34.5 -100t81.5 -39q43 0 64.5 34t21.5 79q0 38 -20 81t-41 70t-62 76q-79 -104 -79 -201z" />
<glyph unicode="9" horiz-adv-x="561" d="M-10 418q0 135 66 219t188 84q42 0 79 -10.5t75 -38t65 -71t44 -114t17 -161.5q0 -107 -27 -197t-69 -147.5t-94.5 -98.5t-100.5 -58.5t-90 -17.5q-33 0 -55 17t-22 43q0 32 15 48.5t38 16.5q34 0 44 -34.5t-18 -57.5q104 2 167 139.5t63 370.5q0 81 -19 159t-52 128.5 t-71 50.5q-88 0 -88 -252q0 -243 54 -243q33 0 54.5 45t23 98.5t-8.5 97.5q-6 22 17 38q22 14 31 -4l3 -7q11 -41 6.5 -95t-17.5 -103t-45.5 -82.5t-76.5 -33.5q-90 0 -143 72t-53 199z" />
<glyph unicode=":" horiz-adv-x="452" d="M127 131q12 37 44 57.5t65 10.5q30 -9 43.5 -37t5.5 -58q-8 -31 -42.5 -56.5t-66.5 -18.5q-33 6 -47.5 34t-1.5 68zM127 389q12 37 44 57.5t65 10.5q30 -9 43.5 -37t5.5 -58q-8 -31 -42.5 -56.5t-66.5 -18.5q-33 6 -47.5 34t-1.5 68z" />
<glyph unicode=";" horiz-adv-x="452" d="M127 131q12 37 44 57.5t65 10.5q29 -9 39.5 -44.5t0.5 -74.5q-14 -64 -60.5 -115t-70.5 -43q-12 10 -0.5 29t25 45t6.5 33q-33 6 -47.5 34t-1.5 68zM127 389q12 37 44 57.5t65 10.5q30 -9 43.5 -37t5.5 -58q-8 -31 -42.5 -56.5t-66.5 -18.5q-33 6 -47.5 34t-1.5 68z" />
<glyph unicode="&#x3c;" horiz-adv-x="499" d="M62.5 276.5q11.5 42.5 41.5 42.5t78 -38q37 39 71 95.5t44 78.5q5 9 30 -6t47.5 -38.5t20.5 -37.5q-4 -19 -44.5 -73t-90.5 -93q84 -99 94 -131q6 -23 -14 -27q-12 -2 -14 4q-3 8 -34 48.5t-65 80.5q-59 -32 -102 -32q-40 0 -57 42t-5.5 84.5zM89.5 245q1.5 -14 10.5 -14 q26 0 56 27q-33 29 -47 29q-9 0 -15 -14t-4.5 -28z" />
<glyph unicode="=" horiz-adv-x="440" d="M36 242.5q-6 17.5 1 35.5t22 17q34 -2 134.5 -2.5t138.5 2.5q13 1 18.5 -16.5t-0.5 -35t-20 -16.5q-37 3 -141 3.5t-132 -3.5q-15 -2 -21 15.5zM36 357.5q-6 17.5 1 35.5t22 17q34 -2 134.5 -2.5t138.5 2.5q13 1 18.5 -16.5t-0.5 -35t-20 -16.5q-37 3 -141 3.5t-132 -3.5 q-15 -2 -21 15.5z" />
<glyph unicode="&#x3e;" horiz-adv-x="497" d="M104 373q-2 14 20.5 37.5t47.5 38.5t29 6q68 -119 114 -170q53 34 80 34q29 0 40.5 -42.5t-5.5 -84.5t-57 -42q-55 0 -111 40q-44 -43 -82.5 -86t-40.5 -51t-16 -4q-18 5 -12 27q5 16 39.5 56.5t78.5 82.5q-49 40 -86 90.5t-39 67.5zM342 260q33 -29 57 -29q8 0 9.5 14 t-3.5 28t-14 14q-15 0 -49 -27z" />
<glyph unicode="?" horiz-adv-x="452" d="M40 712q-18 108 30.5 216t167.5 108q85 0 134.5 -64.5t49.5 -166.5q0 -62 -20 -124.5t-52 -117t-65.5 -104.5t-66 -107t-48.5 -106q-5 -15 -17 -18.5t-21 3.5t-7 17q9 48 37.5 121.5t55.5 136.5t49 149.5t22 165.5q0 78 -15.5 128t-48.5 50q-47 0 -61 -100t0 -223 q1 -19 -25.5 -45.5t-40.5 -26.5q-40 0 -58 108zM80 90q11 37 43 57.5t65 10.5q29 -9 43.5 -37t6.5 -58q-8 -31 -42.5 -56.5t-66.5 -18.5q-33 6 -47.5 34t-1.5 68z" />
<glyph unicode="@" horiz-adv-x="864" d="M-18 297q10 75 41.5 136t77 101t103 67.5t116.5 39.5t120 12q79 0 146 -30t112.5 -84.5t65 -138t4.5 -183.5q-18 -124 -90 -213.5t-143 -89.5q-103 0 -103 203q-47 -119 -92 -119q-92 0 -140.5 86t-27.5 225q36 228 238 228q43 0 66.5 -34.5t12.5 -64.5q-5 -19 -24.5 -30 t-40.5 2q-13 9 -9.5 28t21.5 31q9 5 -17 19q-19 10 -34 10q-35 0 -59 -113t-21 -226.5t31 -113.5q31 0 59.5 76t46.5 166q6 46 15 82q7 12 38 9t64.5 -18.5t28.5 -29.5q-13 -43 -24.5 -198.5t1.5 -158.5q31 0 56 81t34 171q20 181 -42 288t-175 110q-82 2 -156 -38 t-127 -127t-63 -206q-10 -145 47 -231.5t154 -86.5q67 0 104 37q7 9 19 -6q14 -18 0 -26q-1 0 -12 -7t-18.5 -11t-23.5 -10.5t-30 -11t-34 -7.5t-40 -3q-130 0 -214 114t-62 294z" />
<glyph unicode="A" horiz-adv-x="921" d="M0 111q0 134 55 219.5t135 85.5q36 0 65 -16t43.5 -39.5t22 -44t7.5 -35.5q0 -27 -13 -45.5t-39 -18.5q-17 0 -27 22t-5 46t26 30q0 31 -19.5 51.5t-49.5 20.5q-62 0 -114 -79t-52 -199q0 -123 49 -203t113 -80q55 0 129.5 74.5t154.5 201.5l-61 13q-18 4 -13 22t27 15 l70 -11q46 80 96 181q-63 223 -63 419q0 100 17.5 180.5t43 126.5t57.5 76.5t57.5 41t45.5 10.5q78 0 78 -154q0 -211 -121 -524q30 -185 86 -365q5 0 16.5 1t16.5 1q14 3 31 -21q19 -26 -2 -30h-3q-12 -2 -43 -2q82 -256 186.5 -422t198.5 -166q50 0 71.5 17t26.5 36 q-19 2 -28 20t-2 38t28 28q22 9 39 -7.5t17 -47.5q0 -30 -16.5 -53.5t-42 -35.5t-49 -18t-42.5 -6q-85 0 -182 85.5t-183.5 224t-156.5 309.5q-95 3 -162 14q-87 -141 -170.5 -223t-148.5 -82q-86 0 -143.5 91.5t-57.5 226.5zM545 137l119 -6q-26 65 -48 139 q-11 -19 -34 -64t-37 -69zM686 815q0 -112 19 -248q98 272 98 453q0 50 -10 80t-25 30t-34 -38.5t-33.5 -114t-14.5 -162.5z" />
<glyph unicode="B" horiz-adv-x="940" d="M0 784v16q0 86 38 170q42 91 111 156t158 104.5t176 39.5q166 0 288.5 -134t131.5 -341q1 -15 1 -30q0 -69 -16 -133q-18 -76 -53.5 -132t-73.5 -96.5t-83 -71.5q151 -75 156 -240v-18q0 -72 -29 -130q-33 -65 -89 -101.5t-119 -55t-128 -18.5q-104 0 -159 58t-58 138v15 q0 44 16 82q18 44 51 67q-19 88 -21 229q-1 34 0 66q0 104 6 190q8 114 17 213.5t9 100.5q0 19 36 22q8 1 15 1l57 -9q37 -11 37 -31q0 -24 -10 -152q-11 -140 -25.5 -328t-19.5 -288q34 -15 48 -54q7 -20 7 -38q-1 -18 -7 -34q-14 -33 -48 -33q-63 0 -92 108 q-35 -42 -35 -113v-12q3 -72 57.5 -114.5t122.5 -42.5q67 0 115 46t68 111q18 59 18 124v13q-7 141 -56 193q-63 -35 -90 -35q-22 0 -42.5 49t-6.5 60q2 5 41.5 3t83.5 -14q57 62 96 194q34 115 34 242q0 20 -1 40q-3 74 -18.5 140t-45 125.5t-82 94.5t-122.5 35 q-90 0 -189.5 -61t-167.5 -165q-63 -97 -63 -197v-15q3 -68 26.5 -108t53.5 -40q25 -1 38 35q11 31 11 62v10q-20 0 -32 23t-4.5 46t34.5 23q53 0 53 -92v-13q-2 -51 -30 -98t-72 -47q-50 0 -84.5 49.5t-38.5 140.5zM418 104q-3 -37 -3 -58q0 -28 5 -28q20 0 18.5 32 t-20.5 54z" />
<glyph unicode="C" horiz-adv-x="966" d="M0 696q0 120 57.5 202.5t112.5 82.5q33 0 33 -38q0 -16 -6 -40q-7 -27 -31.5 -33t-44.5 7q-3 -2 -8.5 -5.5t-19.5 -18t-24.5 -34t-19 -54t-8.5 -75.5q0 -113 57 -199t138 -112q5 140 34.5 267t76 222t105.5 165.5t125 106.5t132 36q76 0 117.5 -59t41.5 -144 q0 -88 -35.5 -188.5t-96 -190t-149 -159.5t-186.5 -97q0 -12 -1 -38.5t-1 -41.5q0 -183 46 -291t139 -108q67 0 123 43q-41 84 -41 186q0 44 9 91.5t25.5 88.5t43 67.5t57.5 26.5q40 0 60 -38.5t20 -85.5q0 -77 -32 -173.5t-87 -164.5q37 -56 65 -56q13 0 21.5 -14 t4.5 -28.5t-22 -14.5q-55 0 -104 78q-63 -60 -141 -60q-149 0 -249.5 145.5t-100.5 375.5v4q-102 22 -169 115.5t-67 250.5zM403 389q106 36 201 131.5t152 221t57 243.5q0 68 -31 109t-82 41q-49 0 -98 -53t-90.5 -147.5t-71 -237t-37.5 -308.5zM711 96q0 -90 32 -159 q47 56 71 138.5t24 157.5q0 93 -43 93q-27 0 -55.5 -72.5t-28.5 -157.5z" />
<glyph unicode="D" horiz-adv-x="999" d="M0 784v16q0 86 38 170q42 91 111 156t158 104.5t176 39.5q218 0 333.5 -179.5t115.5 -496.5q0 -150 -35.5 -298.5t-95.5 -265t-147.5 -189t-184.5 -72.5q-104 0 -159 58t-58 138v15q0 44 16 82q18 44 51 67q-19 88 -21 229q-1 34 0 66q0 104 6 190q8 114 17 213.5 t9 100.5q0 19 36 22q8 1 15 1l57 -9q37 -11 37 -31q0 -24 -10 -152q-11 -140 -25.5 -328t-19.5 -288q34 -15 48 -54q7 -20 7 -38q-1 -18 -7 -34q-14 -33 -48 -33q-63 0 -92 108q-35 -42 -35 -113v-12q3 -72 57.5 -114.5t122.5 -42.5q85 0 152 118.5t100 291t33 355.5 q0 73 -2 130t-9 128t-19 124.5t-34.5 107.5t-52.5 88.5t-75 56t-101 21.5q-90 0 -189.5 -61t-167.5 -165q-63 -97 -63 -197v-15q3 -68 26.5 -108t53.5 -40q25 -1 38 35q11 31 11 62v10q-20 0 -32 23t-4.5 46t34.5 23q53 0 53 -92v-13q-2 -51 -30 -98t-72 -47 q-50 0 -84.5 49.5t-38.5 140.5zM418 104q-3 -37 -3 -58q0 -28 5 -28q20 0 18.5 32t-20.5 54z" />
<glyph unicode="E" horiz-adv-x="731" d="M0 203q0 134 63.5 231.5t161.5 147.5q-57 41 -90 108t-33 139q0 4 1 11.5t1 11.5q-98 65 -98 201q0 120 57.5 202t112.5 82q25 0 31 -25t-6 -40q-14 -24 -41 -30t-39 15l-8 -8t-18 -23.5t-22.5 -41t-17.5 -59.5t-8 -78q0 -94 62 -146q21 123 101.5 199t203.5 76 q74 0 121 -44t47 -110q0 -97 -92 -158t-207 -61q-6 0 -18.5 1t-18.5 1q4 -139 61 -191q50 13 88 13q62 0 65 -35q2 -29 -31 -51q-21 -13 -44 -13q-46 0 -100 21q-56 -45 -88.5 -134.5t-32.5 -193.5q0 -180 44.5 -271t139.5 -91q67 0 123 43q-41 84 -41 186q0 60 15 121.5 t47 107t73 45.5q40 0 60 -38.5t20 -85.5q0 -77 -32 -173.5t-87 -164.5q37 -56 68 -56q12 0 20.5 -14t4.5 -28.5t-23 -14.5q-51 0 -104 78q-63 -60 -142 -60q-148 0 -249 112.5t-101 285.5zM246 850q12 -2 39 -2q89 0 159 49t70 123q0 45 -21 80t-71 35q-71 0 -121 -86 t-55 -199zM475 96q0 -88 33 -159q46 56 70 138t24 158q0 93 -43 93q-27 0 -55.5 -72.5t-28.5 -157.5z" />
<glyph unicode="F" horiz-adv-x="757" d="M0 780q0 109 82.5 177.5t218.5 95.5q23 4 54.5 8t74 7.5t66.5 6.5q48 150 133 150q36 0 53.5 -25.5t19.5 -60.5q0 -72 -112 -103q-3 -48 -3 -119t1.5 -124.5t4 -144.5t3.5 -128q2 -10 2 -33q82 48 104 48q16 0 15 -50q-1 -49 -15 -51h-2q-5 2 -14 2q-27 0 -88 -22 q-3 -205 -37 -360t-98 -242.5t-150 -87.5q-98 0 -163.5 98.5t-71.5 265.5v20q0 146 54 237q58 97 136 97q83 0 111 -110q32 32 74 63q-4 98 -4 154q-2 58 -2 111q0 214 32 358q-22 -3 -82 -8.5t-82 -10.5q-101 -16 -180.5 -70.5t-79.5 -137.5q0 -47 23 -82t57 -35 q45 0 71 48q25 44 25 108v10q-12 -15 -33.5 -14t-27.5 16q-12 28 3 47.5t36 19.5q58 0 61 -98v-9q0 -64 -38 -118q-40 -58 -95 -57q-69 0 -103 45t-34 108zM125 70q3 -127 57 -220.5t127 -93.5q39 0 67 28.5t43.5 80.5t24 124.5t9.5 159.5q0 44 0.5 90.5t-0.5 96.5 q-36 -22 -66 -49q6 -37 6 -78v-15q-1 -74 -27 -133q-30 -65 -63 -65q-26 0 -42.5 22.5t-16.5 59.5v6q0 107 106 221q-17 103 -71 103q-69 0 -115 -84q-40 -75 -39 -216q-1 -18 0 -38zM272 86q0 -22 7 -38.5t20 -16.5q27 1 45 57q15 48 14 105v20q0 31 -2 45 q-84 -84 -84 -166v-6zM596 1092q68 16 68 45q0 43 -27 43q-31 0 -41 -88z" />
<glyph unicode="G" horiz-adv-x="675" d="M0 600q6 153 66 285q-54 60 -54 158v10q4 121 64 202.5t117 81.5q24 0 27.5 -25t-7.5 -40q-14 -24 -41 -30t-39 15l-8 -8t-18.5 -23.5t-24 -41t-19.5 -59.5t-10 -78v-11q0 -66 35 -110q61 115 152 182.5t192 67.5q73 0 116 -44q40 -42 40 -104v-6q-3 -65 -50 -116.5 t-115.5 -77t-141.5 -25.5q-39 0 -84 10q-30 -128 -33 -238q-1 -18 -1 -35q0 -46 5 -89q5 -58 19.5 -115t46 -90t77.5 -33q56 0 101 39q-5 46 -7.5 82.5t-4.5 87.5v36q0 29 2 54q2 38 10 79t22 67.5t38 43.5t56 17q28 0 45 -40t17 -85q-3 -113 -60 -232q26 -166 31 -235 q3 -38 3 -73q0 -175 -74 -288q-90 -135 -242 -135q-77 0 -131 59.5t-54 172.5q0 115 48 176t116 61q51 0 79 -44q26 -41 26 -97v-8q-1 -60 -30.5 -100.5t-57.5 -40.5q-25 0 -41.5 15.5t-14.5 33.5t23 26q19 6 31 -13.5t0 -39.5q20 0 36.5 38t16.5 81q0 54 -19.5 84.5 t-50.5 30.5q-48 0 -80 -54t-32 -153q0 -81 41 -135t98 -54q67 0 107 39t52.5 104t16.5 150q1 28 1 57q0 58 -5 119l-8 74q-50 -37 -105 -37q-143 0 -229 122q-82 114 -82 282v20zM209 856q33 -8 76 -8q89 0 160.5 49t74.5 123q1 27 -5 51t-27.5 44t-55.5 20q-67 0 -126 -77 t-97 -202zM497 604q3 -40 8 -79t15 -103q31 75 35 164v10q0 86 -35 86q-14 0 -20 -19t-3 -59z" />
<glyph unicode="H" horiz-adv-x="1083" d="M0 780q0 109 82.5 177.5t218.5 95.5q23 4 54.5 8t74 7.5t66.5 6.5q48 150 133 150q36 0 53.5 -25.5t19.5 -60.5q0 -72 -112 -103q-3 -48 -3 -119t1.5 -124.5t4 -144.5t3.5 -128q2 -44 2 -86t-2 -82q160 37 188 45q24 5 52 23v16q0 178 21 334q22 164 66 267.5t99 103.5 q86 0 86 -150q0 -83 -37 -234.5t-110 -262.5q-5 -80 -5 -161q0 -76 4 -153q8 -158 28.5 -285.5t68.5 -207.5t117 -80q31 0 58.5 15.5t39.5 29t20 26.5q-15 3 -23 25t2 48.5t40 37.5q20 8 38.5 -7.5t23.5 -41t-11 -53.5q-25 -44 -76.5 -78.5t-101.5 -34.5q-86 0 -153 68 t-107 184t-62 253.5t-26 293.5q-28 -14 -37 -17q-13 -5 -43.5 -11.5t-77.5 -16.5t-84 -19q-15 -268 -89 -426.5t-192 -158.5q-98 0 -163.5 98.5t-71.5 265.5v20q0 146 54 237q58 97 136 97q97 0 119 -157q33 17 66 28q0 72 -4 236q-2 58 -2 111q0 214 32 358 q-22 -3 -82 -8.5t-82 -10.5q-101 -16 -180.5 -70.5t-79.5 -137.5q0 -47 23 -82t57 -35q45 0 71 48q25 44 25 108v10q-12 -15 -33.5 -14t-27.5 16q-12 28 3 47.5t36 19.5q58 0 61 -98v-9q0 -64 -38 -118q-40 -58 -95 -57q-69 0 -103 45t-34 108zM125 70q3 -127 57 -220.5 t127 -93.5q45 0 75.5 36.5t45.5 109.5q14 72 20 158q5 72 5 170v36q-39 -14 -64 -26q2 -10 2 -31v-15q-1 -74 -27 -133q-30 -65 -63 -65q-26 0 -42.5 22.5t-16.5 59.5v10q0 111 112 180q-14 140 -77 140q-69 0 -115 -84q-40 -75 -39 -216q-1 -18 0 -38zM272 86 q0 -22 7 -38.5t20 -16.5q27 1 45 57q15 48 14 105v20v6q-86 -53 -86 -128v-5zM596 1092q68 16 68 45q0 43 -27 43q-31 0 -41 -88zM965 575q32 61 57 137t37.5 144t16.5 126q2 25 2 46q0 28 -3 48q-6 34 -22 34q-23 0 -49.5 -159t-38.5 -376z" />
<glyph unicode="I" horiz-adv-x="700" d="M0 780q0 109 82.5 177.5t218.5 95.5q23 4 54.5 8t74 7.5t66.5 6.5q48 150 133 150q36 0 53.5 -25.5t19.5 -60.5q0 -72 -112 -103q-3 -48 -3 -119t1.5 -124.5t4 -144.5t3.5 -128q1 -42 1 -83q1 -182 -25 -329q-32 -180 -99 -282t-160 -102q-60 0 -103.5 45t-63 111 t-21.5 145v16q0 108 38 190q41 88 107 88q39 0 64.5 -29t34.5 -65.5t10 -81.5v-12q-1 -73 -35 -123q-38 -56 -74 -55q-40 0 -53 33.5t10 58.5q23 28 41 5q17 -22 6 -49q-3 -8 -8 -13q30 0 56 48q25 46 24 106q0 141 -76 141q-42 1 -72 -77q-28 -71 -28 -177v-21 q1 -37 9.5 -78.5t24.5 -81.5t43.5 -66t61.5 -26q101 0 131 197q14 96 14 297q0 96 -3 216q0 21 -2 83q-2 58 -2 111q0 214 32 358q-22 -3 -82 -8.5t-82 -10.5q-101 -16 -180.5 -70.5t-79.5 -137.5q0 -47 23 -82t57 -35q45 0 71 48q25 44 25 108v10q-12 -15 -33.5 -14 t-27.5 16q-12 28 3 47.5t36 19.5q58 0 61 -98v-9q0 -64 -38 -118q-40 -58 -95 -57q-69 0 -103 45t-34 108zM596 1092q68 16 68 45q0 43 -27 43q-31 0 -41 -88z" />
<glyph unicode="J" horiz-adv-x="700" d="M0 780q0 109 82.5 177.5t218.5 95.5q23 4 54.5 8t74 7.5t66.5 6.5q48 150 133 150q36 0 53.5 -25.5t19.5 -60.5q0 -72 -112 -103q-3 -48 -3 -119t1.5 -124.5t4 -144.5t3.5 -128q1 -42 1 -83q0 -182 -25 -329q-32 -180 -99 -282t-160 -102q-103 0 -187.5 101t-90.5 263v13 q0 73 21 137q22 69 57.5 112t76.5 67.5t78 24.5q117 0 125 -233v-15q0 -74 -27 -133q-29 -65 -63 -65q-28 0 -44 13t-16 29.5t7 31.5q14 22 32.5 18t23.5 -22t-7 -35q27 0 45 57q14 48 14 105v20q-3 195 -79 195q-69 0 -115 -84q-40 -75 -40 -216q0 -18 1 -38 q3 -127 57 -220.5t127 -93.5q101 0 131 197q14 96 14 297q0 96 -3 216q0 21 -2 83q-2 58 -2 111q0 214 32 358q-22 -3 -82 -8.5t-82 -10.5q-101 -16 -180.5 -70.5t-79.5 -137.5q0 -47 23 -82t57 -35q45 0 71 48q25 44 25 108v10q-12 -15 -33.5 -14t-27.5 16q-12 28 3 47.5 t36 19.5q58 0 61 -98v-9q0 -64 -38 -118q-40 -57 -95 -57q-69 0 -103 45t-34 108zM596 1092q68 16 68 45q0 43 -27 43q-31 0 -41 -88z" />
<glyph unicode="K" horiz-adv-x="1007" d="M0 780q0 109 82.5 177.5t218.5 95.5q23 4 54.5 8t74 7.5t66.5 6.5q48 150 133 150q36 0 53.5 -25.5t19.5 -60.5q0 -72 -112 -103q-3 -47 -3 -116.5t1.5 -122t4 -141.5t3.5 -126q182 174 258 293q-53 59 -53 144q0 73 26.5 125.5t73.5 52.5q39 0 69.5 -43.5t30.5 -116.5 q0 -87 -59 -184q22 -10 59 -10q7 0 11.5 -8.5t0.5 -17.5t-16 -9q-33 0 -73 16q-88 -123 -281 -287q70 -9 122 -67.5t81.5 -144t53.5 -187t46.5 -201.5t51 -182t77 -133t115.5 -51q85 0 98 53q-18 2 -27 20t-2.5 38t27.5 28q22 8 38.5 -8.5t15.5 -48.5q0 -30 -16 -53t-41 -35 t-47.5 -17.5t-41.5 -5.5q-86 0 -157.5 47.5t-120 125t-87.5 171.5t-68 193t-54 184.5t-52.5 150t-56.5 84.5q0 -213 -33.5 -375.5t-98.5 -254.5t-153 -92q-98 0 -163.5 98.5t-71.5 265.5v20q0 146 54 237q58 97 136 97q88 0 113 -123l72 72q-4 102 -4 158q-2 58 -2 111 q0 214 32 358q-22 -3 -82 -8.5t-82 -10.5q-101 -16 -180.5 -70.5t-79.5 -137.5q0 -47 23 -82t57 -35q45 0 71 48q25 44 25 108v10q-12 -15 -33.5 -14t-27.5 16q-12 28 3 47.5t36 19.5q58 0 61 -98v-9q0 -64 -38 -118q-40 -58 -95 -57q-69 0 -103 45t-34 108zM125 70 q3 -127 57 -220.5t127 -93.5q39 0 66.5 28t43 78.5t24.5 121.5q9 70 10 156q0 43 0.5 89t-0.5 95q-10 -8 -21 -18t-23.5 -22t-19.5 -18q4 -36 4 -57v-15q-1 -74 -27 -133q-30 -65 -63 -65q-26 0 -42.5 22.5t-16.5 63.5q0 83 108 207q-13 119 -73 119q-69 0 -115 -84 q-40 -75 -39 -216q-1 -18 0 -38zM279 48q7 -16 20 -17q27 1 45 57q15 48 14 105v20v23q-86 -92 -86 -146q0 -25 7 -42zM596 1092q68 16 68 45q0 43 -27 43q-31 0 -41 -88zM840 965q0 -66 32 -109q56 104 56 186q0 23 -11 41.5t-28 18.5q-23 0 -36 -44t-13 -93z" />
<glyph unicode="L" horiz-adv-x="1017" d="M0 696q0 120 57.5 202.5t112.5 82.5q33 0 33 -38q0 -16 -6 -40q-7 -27 -31.5 -33t-44.5 7q-3 -2 -8.5 -5.5t-19.5 -18t-24.5 -34t-19 -54t-8.5 -75.5q0 -65 24 -117.5t64 -83.5t87 -47t97 -16h27q-27 276 -30 361v36q0 254 95 323q41 30 101 30q84 0 131 -84t47 -205 q0 -55 -7.5 -111.5t-26 -124.5t-58.5 -127t-96 -94q10 -78 10 -133q0 -198 -57 -340q27 -9 75 -27t77 -28t71 -18.5t80 -8.5q166 0 166 170q0 84 -33.5 134t-93.5 50q-42 0 -63 -30t-21 -77q21 3 36 -12t14.5 -35.5t-16.5 -39.5q-16 -15 -40.5 -16.5t-44 15.5t-19.5 50 q0 31 8 62t24.5 61t48 48.5t73.5 18.5q84 0 127 -69t43 -172q0 -113 -73.5 -199t-178.5 -86q-32 0 -64.5 5.5t-55.5 11.5t-55.5 19.5t-47.5 21t-50 26t-45 23.5q-79 -109 -194 -109q-53 0 -89 27.5t-36 83.5q0 59 48.5 97t125.5 38q48 0 100 -10q8 59 8 219q0 70 -10 180 h-33q-60 0 -111 14t-98 47.5t-74.5 98t-27.5 155.5zM119 -156q0 -27 21 -43t59 -16q83 0 123 102q-71 29 -125 29q-34 0 -56 -20t-22 -52zM415 967q1 -41 9 -103q10 -64 19.5 -119t23.5 -132t22 -130q71 60 101.5 164.5t30.5 216.5q0 118 -30.5 192t-80.5 74 q-36 0 -58.5 -19t-29.5 -57q-7 -42 -7 -87z" />
<glyph unicode="M" horiz-adv-x="1116" d="M0 25v16q0 108 38 190q42 88 109 88q29 0 51 -16t34 -43t18 -56q7 -34 6 -65q0 -77 -36 -131q-38 -55 -75 -55q-39 0 -52 33.5t9 58.5q24 28 41 5q17 -22 6 -49q-3 -8 -8 -13q29 0 55 48q25 46 25 106q0 141 -76 141q-43 1 -73 -77q-28 -71 -27 -177v-21q2 -38 10.5 -79 t24 -81t43 -66t61.5 -26q99 0 127 192q14 93 14 290q0 94 -3 211q-1 21 -2 64q-1 24 -1 36q0 24 -1 69.5t-1 67.5q-124 250 -124 418q0 42 21.5 70t51.5 28q54 0 94 -65t62 -173t33 -213.5t14 -220.5q13 -22 91.5 -153t109.5 -189q25 42 59 93t82 120t72 105 q5 171 31.5 313.5t74.5 232t107 89.5q40 0 62 -33t22 -90q0 -127 -166 -408q-10 -136 -11 -270v-23q0 -122 10 -246q11 -135 35 -236t69 -164.5t106 -63.5q44 0 75.5 25t42.5 46q-15 3 -23 25t2 48.5t40 37.5q20 8 38.5 -7.5t23 -41t-10.5 -53.5q-25 -44 -76.5 -78.5 t-101.5 -34.5q-87 0 -155.5 70.5t-109.5 190t-63 261.5t-24 299q-127 -200 -170 -282q39 -83 39 -125q0 -36 -19 -61t-51 -25q-36 0 -64 23t-28 61q0 56 51 147q-23 39 -80.5 133t-87.5 146q-3 -205 -37 -359.5t-98 -241.5t-150 -87q-60 0 -103 45t-62 110.5t-21 145.5z M231 1108q0 -104 84 -291q-2 172 -12.5 253t-42.5 81q-29 0 -29 -43zM662 -20q0 -15 6.5 -25t15.5 -10t15 9t6 21q0 25 -23 76q-20 -48 -20 -71zM1024 733q98 173 98 285q0 67 -14 67q-21 0 -43.5 -97t-40.5 -255z" />
<glyph unicode="N" horiz-adv-x="983" d="M0 25v16q0 108 38 190q42 88 109 88q29 0 51 -16t34 -43t18 -56q7 -34 6 -65q0 -77 -36 -131q-38 -55 -75 -55q-39 0 -52 33.5t9 58.5q24 28 41 5q17 -22 6 -49q-3 -8 -8 -13q29 0 55 48q25 46 25 106q0 141 -76 141q-43 1 -73 -77q-28 -71 -27 -177v-21q2 -38 10.5 -79 t24 -81t43 -66t61.5 -26q101 0 131 197q14 96 14 297q0 96 -3 216q0 21 -2 83l-5 213q-122 199 -122 342q0 42 21 70t50 28q47 0 83.5 -48.5t59 -132.5t36 -172.5t20.5 -193.5q73 -96 254 -313q-1 37 -1 75q0 143 18 287q23 182 71 336.5t131.5 251.5t187.5 97 q49 0 101 -34.5t78 -78.5q12 -20 12 -40q-1 -18 -11 -36q-17 -28 -40 -29q-7 0 -15 3q-30 11 -40 37t-1.5 48t23.5 25q-11 22 -42 47t-75 25q-80 0 -138 -124t-85 -315t-37 -380q-7 -128 -8 -247q0 -57 2 -112q102 -140 102 -190q0 -36 -20.5 -66.5t-52.5 -30.5 q-37 0 -69 29.5t-48 91.5q-28 110 -37 230q-171 198 -256 305q0 -19 2 -27q1 -37 1 -73q0 -188 -26 -339q-32 -180 -99.5 -282t-160.5 -102q-60 0 -103.5 45t-63 111t-21.5 145zM233 1108q0 -91 84 -236q-2 141 -12.5 210t-40.5 69q-31 0 -31 -43zM856 82q3 -56 10 -102 q7 -35 23 -35q18 0 18 30q0 37 -51 107z" />
<glyph unicode="O" horiz-adv-x="1067" d="M0 696q0 120 57.5 202.5t112.5 82.5q33 0 33 -38q0 -16 -6 -40q-7 -27 -31.5 -33t-44.5 7q-3 -2 -8.5 -5.5t-19.5 -18t-24.5 -34t-19 -54t-8.5 -75.5q0 -109 53 -193.5t131 -113.5q1 146 30 275t77.5 222.5t110 161t130 101t136.5 33.5q76 0 117.5 -59t41.5 -144 q0 -60 -14 -115q130 -136 130 -396q0 -20 -1 -42q-7 -157 -61.5 -299t-141 -229t-180.5 -87q-147 0 -256.5 145.5t-118.5 381.5q-98 25 -161.5 118t-63.5 246zM403 303q0 -208 50 -326t145 -118q52 0 92 40.5t63 101.5t37.5 142.5t19.5 152.5t5 144q0 147 -20 256 q-63 -128 -166 -225t-226 -131v-37zM406 389q116 40 216 150t152 247q-35 105 -92 105q-23 0 -49 -17q-12 -8 -12 10q1 29 22 50q13 12 27 12q73 0 135 -45q8 58 8 84q0 68 -31 109t-82 41t-100 -50.5t-90.5 -142.5t-69.5 -236t-34 -317z" />
<glyph unicode="P" horiz-adv-x="958" d="M0 25v16q0 108 38 190q42 88 109 88q29 0 51 -16t34 -43t18 -56q7 -34 6 -65q0 -77 -36 -131q-38 -55 -75 -55q-39 0 -52 33.5t9 58.5q24 28 41 5q17 -22 6 -49q-3 -8 -8 -13q29 0 55 48q25 46 25 106q0 141 -76 141q-43 1 -73 -77q-28 -71 -27 -177v-21q2 -38 10.5 -79 t24 -81t43 -66t61.5 -26q46 0 72 38t36 115t10 195t-5 279q-1 47 -1 90q0 106 7 182q-8 -2 -24 -2q-94 0 -167 75.5t-73 199.5q0 151 111 246.5t288 95.5q128 0 238.5 -59.5t179.5 -169t74 -246.5q0 -12 1 -24q0 -69 -15 -132q-17 -74 -47.5 -126.5t-69 -96.5t-77.5 -71.5 t-75.5 -47t-59.5 -27.5t-32 -8q-23 0 -43 49t-4 60q1 5 40 3t83 -14q57 62 96 194q34 115 34 242q0 20 -1 40q-8 171 -101.5 283t-238.5 112q-135 0 -230.5 -92t-95.5 -221q0 -94 59 -153.5t128 -59.5q18 0 26 2q35 352 172 352q35 0 54.5 -28.5t19.5 -63.5 q0 -68 -31 -139.5t-86 -116.5q0 -79 10 -357q1 -31 1 -61q-1 -131 -15 -232q-18 -124 -53.5 -196.5t-83 -106.5t-107.5 -34t-103.5 45t-63 111t-21.5 145zM436 772q78 85 78 191v8q0 43 -29 43q-45 0 -49 -242z" />
<glyph unicode="Q" horiz-adv-x="1042" d="M0 696q0 120 57.5 202.5t112.5 82.5q33 0 33 -38q0 -17 -6 -40q-7 -27 -31.5 -33t-44.5 7q-3 -2 -8.5 -5.5t-19.5 -18t-24.5 -34t-19 -54t-8.5 -75.5q0 -109 53 -193.5t131 -113.5q1 146 30 275t77.5 222.5t110 161t130 101t136.5 33.5q76 0 117.5 -59t41.5 -144 q0 -60 -14 -115q130 -136 130 -396q0 -21 -1 -42q-7 -178 -76 -334t-170 -229q58 -119 119 -119q41 0 71.5 33t30.5 57q-15 0 -27.5 10.5t-12.5 36.5q0 23 14.5 39t36.5 16q45 0 45 -67q0 -20 -8.5 -45.5t-26 -54t-51.5 -47.5t-78 -19q-87 0 -160 131q-48 -23 -90 -23 q-147 0 -256.5 145.5t-118.5 381.5q-98 25 -161.5 118t-63.5 246zM403 303q0 -90 15 -197q37 58 104 58q40 0 76.5 -39t53 -73t49.5 -114q5 -12 8 -18q58 78 82 223.5t24 296.5q0 147 -20 256q-63 -128 -166 -225t-226 -131v-37zM406 389q116 40 216 150t152 247 q-35 105 -92 105q-22 0 -49 -17q-12 -8 -12 10q1 29 22 50q13 12 27 12q73 0 135 -45q8 58 8 84q0 68 -31 109t-82 41t-100 -50.5t-90.5 -142.5t-69.5 -236t-34 -317zM434 33q49 -174 164 -174q35 0 68 20q-10 22 -26.5 58.5t-26.5 59t-25 50.5t-27 44t-27.5 27t-31.5 11 q-40 0 -68 -96z" />
<glyph unicode="R" horiz-adv-x="958" d="M0 25v16q0 109 38 189q41 86 112 87q28 0 48 -11t30.5 -27t17 -41.5t8.5 -45.5q3 -34 2 -53q0 -77 -36 -131q-38 -55 -75 -55q-39 0 -52 33.5t9 58.5q24 28 41 5q17 -22 6 -49q-3 -8 -8 -13q29 0 55 48q25 46 25 106q0 28 -3 58q-2 20 -7.5 41.5t-18 31.5t-32.5 10 q-62 0 -90 -73q-26 -66 -25 -178v-24q2 -38 10.5 -79t24 -81t43 -66t61.5 -26q46 0 72 38t36 115t10 195t-5 279q-1 54 -1 102q0 96 5 170q-6 -2 -22 -2q-94 0 -167 75.5t-73 199.5q0 151 111 246.5t288 95.5q128 0 238.5 -59.5t179.5 -169t74 -246.5q1 -20 1 -38 q0 -268 -173 -409q43 -41 71.5 -110.5t42 -144.5t24 -157.5t23.5 -155.5t33 -132.5t59 -94t97 -34.5q85 0 98 53q-18 2 -27 20t-2.5 38t27.5 28q22 8 39 -8.5t17 -48.5q0 -30 -16.5 -53t-41.5 -35t-48 -17.5t-42 -5.5q-74 0 -133.5 32t-100.5 88.5t-72 123.5t-53 148 t-38.5 151t-34 142t-33.5 112q-50 -17 -90 -17q-29 0 -47 18.5t-18 51.5q0 34 25 55t63 21q46 0 90 -13q42 79 68 195q22 101 23 205q0 16 -1 33q-8 171 -101.5 283t-238.5 112q-135 0 -231.5 -92t-96.5 -221q0 -94 60 -153.5t129 -59.5q16 0 26 2q14 160 56.5 256t113.5 96 q37 0 56.5 -28.5t19.5 -63.5q0 -68 -31 -139.5t-86 -116.5q0 -79 10 -357q1 -31 1 -61q-1 -131 -15 -232q-18 -124 -53.5 -196.5t-83 -106.5t-107.5 -34t-103.5 45t-63 111t-21.5 145zM436 772q78 85 78 191v8q-5 43 -29 43q-45 0 -49 -242zM540.5 320q6.5 -17 22.5 -17 q27 0 60 33q-21 35 -54 35q-19 0 -27 -17t-1.5 -34z" />
<glyph unicode="S" horiz-adv-x="817" d="M0 25v11q0 74 24 137q26 68 68 108t86.5 62t83.5 22q69 0 110 -64q44 -69 44 -160q0 -79 -42 -150q-42 -73 -77 -73q-29 0 -45 13.5t-16 30t8 32.5q20 29 43 13q20 -15 12 -39q-2 -8 -8 -15q31 -1 61 65q30 63 29 128q0 80 -35 134q-32 50 -74 50q-65 0 -110 -76.5 t-45 -210.5q0 -122 54.5 -202.5t145.5 -80.5q96 0 171 99.5t75 220.5q0 82 -24 150.5t-63 116.5t-85.5 91t-93 83.5t-85.5 83t-63 100t-24 124.5q0 27 2 39q-70 63 -70 176v9q4 121 64 202.5t117 81.5q24 0 27.5 -25t-7.5 -40q-14 -24 -41 -30t-39 15l-8 -8t-18.5 -23.5 t-24 -41t-19.5 -59.5t-10 -78v-10q0 -66 37 -115q25 111 104.5 182.5t209.5 71.5q77 0 131 -45q52 -43 51 -102v-7q-3 -97 -96.5 -158t-208.5 -61q-35 0 -62 6q8 -65 37.5 -121t70.5 -97.5t89 -81t94 -81t84 -87.5t61 -110.5t23 -140.5q0 -172 -115.5 -273.5t-288.5 -101.5 q-137 0 -226 85t-93 225zM260 854q35 -6 70 -6q88 0 160 49q75 51 75 127q0 37 -31 73q-33 38 -85 38q-75 0 -132 -87t-57 -190v-4z" />
<glyph unicode="T" horiz-adv-x="733" d="M0 930q0 83 46.5 138.5t122.5 75.5q50 14 111 15q31 -1 64 -5q99 -10 203 -52l20 -6q76 82 187 82q61 0 98 -25t37 -61q0 -50 -42.5 -87t-112.5 -47q-19 -3 -39 -3q-55 0 -120 20q-5 -32 -5 -85q0 -66 8 -163q15 -175 16 -207q1 -42 2 -83q0 -182 -26 -329 q-32 -180 -99 -282t-160 -102q-60 0 -103.5 45t-63 111t-21.5 145v16q1 108 39 190q42 88 108 88q29 0 51 -16t34 -43q11 -27 17 -56q7 -34 7 -65q-1 -77 -37 -131q-38 -55 -74 -55q-39 0 -52 33.5t9 58.5q24 28 41 5q17 -22 6 -49q-3 -8 -8 -13q30 0 56 48q25 46 24 106 q0 141 -76 141q-42 1 -72 -77q-28 -71 -28 -177v-21q2 -38 10.5 -79t24 -81t43 -66t61.5 -26q39 0 67 28.5t43.5 78.5t24.5 122q8 73 10 157q1 42 0.5 88t-0.5 96q-2 100 -5 202q-1 14 -1 21q-1 34 -1 67q0 242 65 388q-79 35 -156 54q-76 20 -145 20h-2q-67 0 -109 -34 t-43 -104q0 -47 23 -82t57 -35q28 0 46 27t19 57t-5 51q-12 -14 -34 -12.5t-28 15.5q-12 28 3 47.5t36 19.5q30 0 49.5 -24t20.5 -70v-10q0 -64 -25 -104q-27 -44 -80 -44q-70 0 -103.5 45t-33.5 109zM614 1077q70 -23 126 -29q26 -3 45 -2q23 0 39 4q28 8 28 25 q0 25 -26.5 41.5t-75.5 16.5q-90 0 -136 -56z" />
<glyph unicode="U" horiz-adv-x="1124" d="M10 856q29 168 128 270q89 91 204 91q119 0 196.5 -74.5t105.5 -193.5q21 -88 21 -194q0 -38 -3 -79q-5 -61 -17.5 -192t-18.5 -216q-8 -86 -12 -182q-2 -33 -1 -61q-1 -53 5 -85q8 -50 31 -49q40 0 102 96t130 251q-11 103 -11 206q0 58 4 115q10 161 33.5 290.5 t69 210.5t102.5 81q40 0 61 -34t21 -91q0 -74 -40.5 -235.5t-104.5 -338.5q-1 -42 -1 -82q1 -114 7 -218q8 -140 29.5 -265t65 -197.5t104.5 -72.5q31 0 58.5 15.5t39.5 29t20 26.5q-15 3 -23 25t2 48.5t40 37.5q20 8 38.5 -7.5t23 -41t-10.5 -53.5q-25 -44 -76.5 -78.5 t-101.5 -34.5q-69 0 -127 44.5t-99.5 123.5t-69.5 178.5t-44 218.5q-155 -327 -266 -327q-137 0 -157 316q-3 45 -3 109q0 155 16 420q3 43 4 66q3 54 3 103q0 66 -6 122q-10 97 -41.5 158t-84.5 61q-146 1 -224 -173q-54 -121 -53 -243q-1 -53 9 -105q34 -174 156 -173 q34 0 61.5 26t43.5 66t24.5 81.5t9.5 78.5v37q0 237 -86 237q-39 0 -63 -39q-27 -42 -27 -101q1 -61 25 -107q26 -48 55 -47q-18 20 -7 50q10 28 31 20q9 -3 17 -13q22 -25 8 -58.5t-53 -33.5q-37 0 -75 56q-35 51 -34 122v12q2 68 35 121t98 53q62 0 93 -85q28 -78 28 -187 v-21q-2 -80 -21 -145.5t-62 -110.5t-103 -45q-142 0 -205 131q-37 79 -37 177q0 51 10 108zM1022 621q84 267 84 399q0 36 -3 50.5t-13 14.5t-23 -60.5t-25.5 -169.5t-19.5 -234z" />
<glyph unicode="V" horiz-adv-x="1058" d="M10 858q30 168 129 270q89 91 205 91q86 0 164.5 -48t140 -132t110 -188t83.5 -226q139 333 297 555q-37 50 -53 118q-14 57 -13 105v17q3 54 19 85q13 27 29.5 44.5t32 22.5t29.5 3t24 -12t14 -25q2 -10 2 -19q-1 -27 -23 -49q-16 -14 -34 -15q-18 0 -38 13 q-14 -45 -14 -90q0 -22 4 -44q10 -66 47 -117q191 256 346 256q54 0 87.5 -37.5t33.5 -98.5q0 -28 -8 -60t-28.5 -69t-51 -66.5t-80.5 -49t-112 -19.5q-103 0 -176 66q-174 -252 -314 -598q46 -196 50 -378q0 -16 1 -32q1 -161 -41 -269q-46 -120 -135 -120q-45 0 -73.5 36 t-28.5 103q0 156 96 449q-19 155 -50 295.5t-76.5 266.5t-110 201.5t-138.5 75.5q-146 0 -224 -174q-54 -121 -53 -243q-1 -53 9 -105q34 -174 156 -174q34 0 61.5 26t43.5 66t24.5 81.5t9.5 78.5v37q0 237 -86 237q-39 0 -63 -39q-27 -42 -27 -101q1 -61 25 -107 q26 -48 55 -47q-19 19 -9 50q10 28 31 20q8 -3 17 -13q22 -25 9 -58.5t-52 -33.5q-37 0 -75 55q-37 54 -36 131q0 69 36 125q34 53 99 53q61 0 93 -86q29 -78 28 -186v-21q-2 -79 -21.5 -145t-63 -111t-103.5 -45q-141 0 -203 131q-37 79 -37 177q0 52 10 110zM690 -141 q0 -26 7.5 -45t17.5 -19q27 -1 35 115q3 40 2 87q0 87 -9 196q-53 -201 -53 -334zM1202 1176q53 -43 123 -43q117 0 183.5 63.5t66.5 155.5q0 28 -20.5 47.5t-53.5 19.5q-124 0 -299 -243z" />
<glyph unicode="W" horiz-adv-x="1441" d="M10 858q30 168 129 270q89 91 205 91q101 0 192 -67t158 -179.5t115 -247.5t74 -283q126 222 170 310q-14 72 -19 124q-3 29 -3 55q0 21 2 41q4 44 23.5 65.5t53.5 21.5q76 0 76 -74q0 -62 -53 -176q10 -25 49 -119.5t63 -152.5q131 384 287 630q-40 50 -60 120 q-17 62 -18 115v13q2 58 19 90q13 27 30 44.5t32.5 22.5t29.5 3t23.5 -12t13.5 -25q2 -10 2 -19q0 -27 -22 -49q-16 -14 -35 -15q-18 0 -38 13q-13 -45 -13 -89q0 -27 5 -53q13 -70 55 -122q178 269 338 269q54 0 87.5 -37.5t33.5 -98.5q0 -28 -8 -60t-28.5 -69t-51 -66.5 t-80.5 -49t-112 -19.5q-94 0 -164 53q-167 -269 -297 -669q34 -103 53 -187q23 -115 23 -220q0 -14 -1 -28q-4 -117 -44 -198.5t-105 -81.5q-44 0 -73 36.5t-29 102.5q0 141 67 393q-14 61 -47.5 200t-48.5 206l-174 -309q17 -135 17 -251q0 -30 -1 -59 q-6 -140 -51.5 -229.5t-122.5 -89.5q-45 0 -73.5 36t-28.5 103q0 91 110 303q-10 130 -30 260t-54 262.5t-76.5 233.5t-102 165t-126.5 64q-146 0 -224 -174q-54 -121 -53 -243q-1 -53 9 -105q34 -174 156 -174q34 0 61.5 26t43.5 66t24.5 81.5t9.5 78.5v37q0 237 -86 237 q-39 0 -63 -39q-27 -42 -27 -101q1 -61 25 -107q26 -48 55 -47q-19 19 -9 50q10 28 31 20q8 -3 17 -13q22 -25 9 -58.5t-52 -33.5q-37 0 -75 55q-37 54 -36 131q0 69 36 125q34 53 99 53q61 0 93 -86q29 -78 28 -186v-21q-2 -79 -21.5 -145t-63 -111t-103.5 -45 q-141 0 -203 131q-37 79 -37 177q0 52 10 110zM690 -141q0 -26 7.5 -45t17.5 -19q23 -1 33 79q6 52 6 126q0 39 -2 84q-62 -144 -62 -225zM1086 945q2 -26 22 -75q19 48 19 74q0 29 -25 29q-18 -2 -16 -28zM1155 -141q0 -64 25 -64q14 1 20 47q5 34 4 85v43q-2 82 -16 171 q-33 -175 -33 -282zM1595 1167q49 -34 113 -34q116 0 183 64t67 155q0 28 -20.5 47.5t-53.5 19.5q-123 0 -289 -252z" />
<glyph unicode="X" horiz-adv-x="1099" d="M10 858q30 168 129 270q89 91 205 91q83 0 154 -40.5t127 -117t99.5 -165.5t84.5 -208q24 92 46.5 159t50 126.5t60 90t68.5 30.5q45 0 78.5 -17.5t49.5 -43.5t23.5 -45.5t8.5 -33.5q4 -38 -17 -49.5t-43.5 1t-23.5 32.5q-2 35 -24 76t-48 41q-18 0 -35 -16t-34 -53.5 t-30.5 -73.5t-31 -102t-29 -111t-30.5 -126q22 -69 51 -168.5t49.5 -171.5t49 -160t53 -150t57.5 -125.5t67 -102t77 -62.5t91 -24q44 0 75.5 24t41.5 45q-15 3 -23 25t2 48.5t40 37.5q8 3 15 3q23 0 39 -28q10 -18 10 -37q0 -20 -11 -40q-26 -44 -78 -78.5t-102 -34.5 q-91 0 -170.5 37t-139 97t-113 151t-91.5 183t-76 208q-115 -402 -248 -402q-108 0 -146 106q-23 64 -23 129q0 42 10 83q25 106 71 106q31 0 42.5 -26t2.5 -57.5t-31 -45.5q-19 -11 -29 -53q-7 -31 -8 -64q-1 -11 1 -23q4 -45 29 -80.5t69 -35.5q29 0 56.5 26t49 66.5 t44 106t39.5 127.5t38 147q-17 57 -38 133.5t-36.5 132t-35 123t-36 115.5t-37 99.5t-40.5 86t-43.5 63t-50.5 42.5t-56 14q-146 0 -224 -174q-54 -121 -53 -243q-1 -53 9 -105q34 -174 156 -174q34 0 61.5 26t43.5 66t24.5 81.5t9.5 78.5v37q0 237 -86 237q-39 0 -63 -39 q-27 -42 -27 -101q1 -61 25 -107q26 -48 55 -47q-19 19 -9 50q10 28 31 20q8 -3 17 -13q22 -25 9 -58.5t-52 -33.5q-37 0 -75 55q-37 54 -36 131q0 69 36 125q34 53 99 53q61 0 93 -86q29 -78 28 -186v-21q-2 -79 -21.5 -145t-63 -111t-103.5 -45q-141 0 -203 131 q-37 79 -37 177q0 52 10 110z" />
<glyph unicode="Y" horiz-adv-x="1116" d="M8 863q29 171 124 271q78 83 181 83q119 0 198.5 -74t108.5 -195q18 -75 18 -161q0 -53 -7 -111q-11 -106 -12 -184v-20q0 -65 6 -106q7 -46 22.5 -73.5t33.5 -37t42 -9.5q65 0 127 143q-18 212 -18 364q0 384 114 384q41 0 63.5 -32.5t22.5 -88.5q0 -166 -57 -400 q49 -300 51 -489v-19q0 -214 -88 -342q-91 -135 -240 -135q-78 0 -131 59.5t-53 172.5q0 115 47.5 176t116.5 61q51 0 78 -44q26 -41 26 -97v-8q-1 -59 -31 -100t-57 -41q-26 0 -42 15.5t-13.5 33.5t23.5 26q18 6 30 -13.5t0 -39.5q20 0 36.5 38t16.5 81q0 54 -19.5 84.5 t-49.5 30.5q-48 0 -80.5 -54.5t-32.5 -152.5q0 -81 41 -135t96 -54q67 0 107 39t52.5 104t16.5 150q1 28 1 57q0 58 -5 119q0 23 -14 156q-70 -127 -158 -127q-123 0 -184 135q-50 110 -50 319q0 48 3 101q5 64 5 123q0 26 -1 50q-3 81 -15 141t-45 95t-85 35 q-146 0 -220 -173q-51 -117 -51 -233q0 -57 13 -115q36 -173 159 -173q62 0 100 64t40 118v11q0 64 -21 106q-24 45 -74 45q0 -41 -36 -61q-31 -18 -48 3q-4 5 -6 11q-9 31 13.5 56.5t87.5 25.5q61 0 96 -58q33 -54 33 -115v-7q-2 -59 -22 -110t-63.5 -86.5t-103.5 -35.5 q-131 0 -190 131q-36 81 -36 183q0 52 9 109zM921.5 999.5q0.5 -25.5 5.5 -67t10.5 -78.5t14.5 -92q25 164 25 258q0 32 -7.5 51t-17.5 19q-12 0 -19.5 -10t-9.5 -32.5t-1.5 -48z" />
<glyph unicode="Z" horiz-adv-x="991" d="M0 979q0 90 66.5 162.5t166.5 72.5q38 0 91.5 -16t91.5 -32.5t108 -50.5t97 -46q116 162 243 162q51 0 84 -33.5t33 -83.5q0 -53 -68.5 -107.5t-138.5 -54.5q-34 0 -72 6q-20 -51 -71 -189.5t-84.5 -223t-89.5 -190.5t-113 -169q43 -27 114.5 -87.5t127.5 -95t110 -34.5 q73 0 121.5 52t48.5 157q0 71 -33.5 131t-87.5 60q-40 0 -68 -34.5t-37 -80.5q-5 -27 -5 -52q0 -17 2 -34q24 26 45 24t36 -20.5t15 -38.5q0 -28 -17.5 -45.5t-45.5 -17.5q-30 0 -56 36.5t-26 94.5q0 49 14.5 96t51 84t89.5 37q60 0 100.5 -39.5t56 -92t15.5 -112.5 q0 -117 -70 -192.5t-190 -75.5q-48 0 -96.5 15.5t-82.5 34t-78 55t-63.5 55.5t-58.5 59q-71 -55 -151 -55q-54 0 -67 45q-4 12 -4 25q0 32 25 61q35 40 95 41q14 0 66 -9q34 68 89.5 214t117.5 294.5t122 249.5q-40 12 -127.5 43.5t-141.5 46.5t-91 15q-76 0 -120 -45 t-44 -109q0 -54 36 -87.5t89 -33.5q54 0 96.5 37.5t42.5 77.5q0 31 -23 47.5t-46 16.5l-23 1q1 -34 -35 -48q-32 -13 -50 6q-7 7 -7 20q0 35 32 50t72 15q45 0 84 -26t39 -76q0 -57 -45.5 -105.5t-116.5 -48.5q-90 0 -140 52t-50 139zM93 170q-18 -29 3 -47q12 -10 33 -10 q37 0 84 73q-28 21 -45 21q-52 0 -75 -37zM733 1026q38 -10 66 -10q49 0 91 31.5t42 68.5q0 32 -18 51t-48 19q-61 0 -133 -160z" />
<glyph unicode="[" horiz-adv-x="399" d="M0 -391q40 498 4 1243l285 -2q5 0 6 -18t-2 -36t-8 -18q-90 21 -158 27q20 -209 17.5 -562t-17.5 -593q30 5 69.5 15t63.5 17l25 7q5 0 8 -18t2 -36t-6 -18q-8 -2 -22 -4t-53 -7t-73.5 -7t-74.5 0t-66 10z" />
<glyph unicode="\" horiz-adv-x="458" d="M12 762q-1 4 6.5 11.5t15 10t11.5 -3.5q11 -24 164 -420.5t172 -439.5q9 -18 -11 -37q-21 -20 -35 1q-3 4 -5 10q-31 80 -169.5 456.5t-148.5 411.5z" />
<glyph unicode="]" horiz-adv-x="428" d="M0 -365q-1 18 2 36t8 18q90 -27 158 -39q-15 240 -17.5 593t17.5 562q-30 -3 -69.5 -9.5t-64.5 -11.5l-24 -6q-5 0 -8 18t-2 36t6 18q185 2 285 2q-36 -745 4 -1243q-52 -13 -116 -11t-119 10l-54 9q-5 0 -6 18z" />
<glyph unicode="^" horiz-adv-x="505" d="M104 414q-15 17 0 22q32 10 101.5 79t73.5 85q7 13 21.5 6t18.5 -18q7 -35 45 -84t70 -55q30 -5 -10 -50q-35 -38 -59 -46q-5 -2 -7 -1q-33 14 -65 57.5t-39 88.5q-13 -28 -51.5 -62t-65.5 -37q-14 -3 -33 15z" />
<glyph unicode="_" horiz-adv-x="1019" d="M1 -44q2 20 22 24q9 2 105 2.5t230.5 0t263 -1t229 -1t103.5 -0.5q14 0 20.5 -11.5t-0.5 -23.5t-26 -13q-18 -1 -245 1t-456.5 4t-232.5 2q-14 0 -13 17z" />
<glyph unicode="`" horiz-adv-x="331" d="M106 707q-8 9 9 23.5t40.5 22.5t30.5 1q17 -16 30 -65.5t11 -72.5q-1 -17 -15.5 -19t-18.5 9q-56 70 -87 101z" />
<glyph unicode="a" d="M-10 309q36 228 237 228q43 0 67 -34q16 -24 16 -46q0 -10 -3 -19q-5 -19 -25.5 -30t-39.5 2q-14 9 -10.5 28t22.5 31q9 5 -17 19q-20 10 -36 10q-35 0 -59 -113q-21 -100 -20 -201v-26q3 -114 32 -113q52 0 106 242l12 82q2 8 17 9.5t35.5 -3t40 -11.5t32 -16.5 t9.5 -17.5q-14 -43 -25 -200q-5 -72 -5 -111q0 -47 7 -48q15 0 44.5 59t61 142t51 138t27.5 81q3 12 17 7q18 -8 12 -33q-5 -20 -14.5 -50t-28 -86t-41 -107t-48.5 -100t-56 -78.5t-58 -29.5q-98 0 -102 203q-41 -119 -90 -119q-92 0 -140 86q-34 60 -34 146q0 37 6 79z" />
<glyph unicode="b" horiz-adv-x="505" d="M0 506q-1 26 0 53q0 111 15 221q19 136 49.5 249.5t82.5 184t113 70.5q43 0 64 -32q18 -28 19 -73q0 -7 -1 -14q-3 -56 -18 -124t-44.5 -151.5t-60 -159t-67.5 -155.5q-6 -111 -6 -200q0 -71 4 -127q23 107 72.5 186.5t90.5 79.5q98 0 123 -99q8 -31 8 -65 q0 -69 -33 -151q-49 -121 -132 -171q-42 -26 -86 -26q-62 0 -106.5 70.5t-63.5 184t-23 249.5zM158 696q40 105 70 197.5t50 174.5q18 73 18 119v11q-2 48 -32 47q-34 0 -63 -161t-43 -388zM160 125q13 -88 37 -88q32 0 59.5 43.5t43.5 105.5t24 124q7 48 7 85q-1 11 -1 21 q-2 44 -15 43q-33 0 -84.5 -106t-70.5 -228z" />
<glyph unicode="c" horiz-adv-x="454" d="M-4 170q-3 36 -4 71q0 73 14 147q20 110 84.5 186.5t153.5 76.5q84 -1 116 -73q18 -41 18 -88q0 -36 -11 -76q-14 -52 -46 -62q-33 -9 -51 21q-9 15 -9 34q0 18 9 39q14 36 19.5 66t3.5 47.5t-8.5 30t-14 17.5t-14.5 5q-28 0 -53.5 -66.5t-38.5 -161.5q-12 -94 -14 -190 q0 -11 -1 -23q1 -81 17 -139q18 -66 55 -67q39 0 84.5 60.5t81 142.5t57 141.5t27.5 81.5q5 12 18 -1q17 -17 11 -42q-7 -27 -19 -64.5t-40.5 -108.5t-59 -126.5t-75.5 -98t-89 -42.5q-93 0 -152 76.5t-69 185.5z" />
<glyph unicode="d" horiz-adv-x="512" d="M-20 309q7 45 25.5 82.5t41.5 59t48 33t47 8.5t36 -19l4 -37q-14 12 -25 12q-27 0 -44 -67q-14 -61 -13 -135q0 -44 4 -93q11 -108 39 -108q23 0 86 156q-32 190 -32 514q0 111 18.5 197t47 131.5t57.5 67.5t55 22q47 0 64.5 -43.5t17.5 -141.5q0 -165 -109 -522 q3 -195 14 -331t25 -136q21 0 47 64.5t44.5 139.5t35 149t18.5 79q4 13 16 7q14 -9 9 -33q-1 -5 -13 -63t-26.5 -117.5t-34.5 -124.5t-46 -106.5t-52 -41.5q-94 0 -143 223q-64 -137 -95 -137q-92 0 -140 86q-33 60 -33 145q0 38 6 80zM346 573q74 289 74 398q0 54 -11 86.5 t-26 32.5q-37 0 -37 -517z" />
<glyph unicode="e" horiz-adv-x="464" d="M-7 200q-4 33 -4 67q0 46 8 92q14 79 40.5 144.5t76 106.5t111.5 41q92 0 115 -91q7 -29 7 -60q0 -62 -29 -132q-42 -102 -112 -135q-26 -13 -54 -12v-24q0 -96 14 -160q16 -72 53 -72q38 0 85.5 61t85 141.5t62 142.5t29.5 81q5 12 18 -1q17 -17 11 -42 q-6 -22 -20.5 -64t-44 -110t-63 -125t-79.5 -99t-90 -42q-64 0 -113 41t-73 106t-34 145zM152 264q21 10 41 49.5t33 88.5q12 49 20 97q6 38 6 66v15q-2 32 -14 32q-31 0 -56 -107.5t-30 -240.5z" />
<glyph unicode="f" horiz-adv-x="401" d="M0 233q2 189 30 378t97 321.5t154 132.5q88 0 88 -103q0 -13 -1 -28q-13 -137 -128 -335q-42 -72 -90 -136q-17 -157 -17 -298q0 -62 3 -121q11 -194 59 -194q24 0 27 64q1 17 1 35q0 51 -7 109q-10 80 -26 147q-26 10 -34 28q-7 13 13 47q22 38 36 19q17 -23 28 -59 q20 3 36 19.5t22 39.5q3 15 -4 34t-11 28.5t7 25.5q7 4 20 6t26 -10t13 -35q0 -44 -12 -71.5t-43 -53.5q-14 -11 -41 -18q20 -63 30 -135q8 -54 8 -107q0 -15 -1 -31q-3 -66 -29.5 -109.5t-75.5 -43.5q-85 0 -132 133q-46 127 -46 306v15zM156 543q96 162 143 319 q18 68 18 108q0 53 -32 56q-36 0 -71 -138.5t-58 -344.5z" />
<glyph unicode="g" horiz-adv-x="491" d="M-10 309q36 228 237 228q43 0 67 -34q16 -24 16 -46q0 -10 -3 -19q-5 -19 -25.5 -30t-39.5 2q-14 9 -10.5 28t22.5 31q9 5 -17 19q-20 10 -36 10q-35 0 -59 -113q-20 -100 -20 -201v-26q3 -113 32 -113q56 0 116 332v2q0 12 36 17q14 2 29 2q21 0 42 -4q36 -7 37 -23 q2 -91 2 -125t-3 -115t-3 -104q-3 -57 -9 -113q49 -10 86 -36t50 -42q10 -17 10 -24q0 -12 -10.5 -24.5t-22.5 -12.5t-24.5 13.5t-12.5 25.5q0 14 12 26q-39 39 -92 49q-24 -176 -88 -281.5t-153 -105.5q-92 0 -106 80q-3 16 -3 32q0 65 46 142q53 90 132 131q23 13 43 19 q0 32 4 110q0 22 2 94v75v38q-21 -91 -51 -158t-65 -67q-92 0 -140 86q-34 60 -34 146q0 37 6 79zM120 -398q9 -63 42 -63q52 0 74 82.5t30 249.5l-14 -6q-73 -39 -107 -119q-27 -64 -27 -117q0 -14 2 -27z" />
<glyph unicode="h" horiz-adv-x="575" d="M0 442q2 140 18.5 289t45.5 272t81.5 202t118.5 79t77 -90q3 -21 3 -45q0 -77 -28 -183q-36 -139 -81 -271.5t-98 -254.5q-3 -113 -3 -183q0 -35 1 -60q29 137 76.5 245.5t95.5 108.5q46 0 74.5 -38t37 -97.5t10.5 -133.5v-23q0 -62 -7 -123q-8 -72 -13.5 -133.5 t-10.5 -97.5t3 -38q27 0 96 212.5t95 311.5q5 13 19 6q16 -8 10 -32q0 -1 -7.5 -30.5t-15.5 -58.5t-20.5 -75t-26.5 -87.5t-30.5 -88t-34.5 -84t-36.5 -69t-39 -48.5t-39.5 -17q-43 0 -68 38.5t-30 98.5q-3 40 -3 87v48q2 75 13 147.5t17 134.5t9 98.5t-10 38.5 q-20 0 -56 -78t-66.5 -182.5t-35.5 -174.5l4 -36q0 -6 -26.5 -10t-54 -2t-31.5 10q-19 51 -27 164q-7 96 -7 212q1 20 1 41zM141 545q42 118 77 233q34 116 60 224q24 102 25 168q-1 4 -1 8q-2 67 -34 67q-46 0 -80 -206.5t-47 -493.5z" />
<glyph unicode="i" horiz-adv-x="276" d="M0 267q-1 17 -1 34q0 68 11 137q3 24 41 35q19 6 38 6q18 1 35 -5q35 -10 30 -40q-12 -80 -17 -161q-2 -39 -2 -72q1 -37 3 -67q6 -58 22 -58q11 0 23 12.5t23 32t22.5 47.5t20 54t17.5 56.5t14.5 50.5t11 40.5t5.5 21.5q4 13 16 7q14 -9 9 -33q-1 -3 -8 -32.5t-14 -56 t-18.5 -65.5t-24.5 -71t-28 -63t-33 -50.5t-36 -24.5q-17 -5 -32 -5q-33 0 -59 23q-37 33 -51 98t-18 149zM35 684q11 43 48 75.5t81 33.5q36 1 52 -27q9 -16 10 -37q0 -15 -5 -33q-11 -42 -48.5 -75.5t-76.5 -34.5h-7q-31 0 -47 26q-11 18 -11 41q0 15 4 31z" />
<glyph unicode="j" horiz-adv-x="243" d="M-208 -418q-3 16 -3 32q0 65 46 142q53 90 132 131l29 15q12 172 12 325q0 88 -4 170q-1 12 34 17q14 2 28 2q21 0 42 -4q36 -8 37 -25q0 -4 1.5 -41.5t2.5 -64.5t1 -77q1 -17 1 -32q0 -32 -1 -60q-1 -42 -4.5 -95.5t-8.5 -100.5q52 -10 91.5 -37t50.5 -43q12 -20 12 -24 q0 -12 -14.5 -30t-24.5 -18q-12 0 -26.5 13.5t-14.5 25.5q0 15 20 39q-51 41 -98 49q-10 -81 -27.5 -147t-44.5 -122.5t-69 -88t-94 -31.5q-92 0 -106 80zM-138 -398q9 -63 42 -63q65 0 90 326q-72 -39 -106 -119q-27 -65 -27 -118q0 -13 1 -26zM-20 635q11 43 47 75t79 33 q38 1 54 -27q10 -16 10 -38q0 -14 -4 -31q-11 -41 -49 -75t-76 -35h-7q-32 0 -48 27q-10 18 -10 40q0 15 4 31z" />
<glyph unicode="k" horiz-adv-x="507" d="M0 442q2 140 18.5 289t45.5 272t81.5 202t118.5 79t77 -90q3 -21 3 -45q0 -77 -28 -183q-36 -139 -81 -271.5t-98 -254.5q-3 -113 -3 -183q0 -35 1 -60q29 137 76.5 245.5t95.5 108.5q73 0 93 -57q6 -18 6 -38q0 -56 -50 -126q-32 -45 -82 -88q32 -96 60 -148.5t61 -52.5 q12 0 28.5 32.5t33 82.5t30 97.5t24.5 90t13 47.5q3 12 17 7q18 -8 12 -33q-1 -2 -8 -32t-14.5 -59t-21 -73.5t-26.5 -82t-31 -78.5t-36 -69t-39.5 -46.5t-42.5 -18.5q-83 0 -160 244q-8 24 10 53q39 59 71 130.5t44 118t0 46.5q-20 0 -56 -78t-66.5 -182.5t-35.5 -174.5 l4 -36q0 -6 -26.5 -10t-54 -2t-31.5 10q-19 51 -27 164q-7 96 -7 212q1 20 1 41zM141 545q42 118 77 233q34 116 60 224q24 102 25 168q-1 4 -1 8q-2 67 -34 67q-46 0 -80 -206.5t-47 -493.5z" />
<glyph unicode="l" horiz-adv-x="370" d="M-8 561q0 103 9 205.5t32.5 195.5t53.5 165t73.5 114.5t91.5 42.5q64 0 78 -86q4 -26 5 -57q1 -71 -21 -163q-30 -134 -73 -265.5t-94 -253.5q3 -154 25.5 -249t63.5 -95q27 0 64 65.5t58.5 124t28.5 86.5q5 13 19 6q16 -8 10 -32q-7 -27 -22.5 -71t-41.5 -105 t-60 -103.5t-65 -42.5q-58 0 -103.5 42.5t-72.5 114.5t-43 165q-16 90 -17 190q1 3 1 6zM145 555q40 115 72.5 231t54.5 222q20 95 20 157v14q-2 66 -36 66q-41 0 -75 -221.5t-36 -468.5z" />
<glyph unicode="m" horiz-adv-x="786" d="M0 8v53q0 75 2 191q2 162 2 233q0 12 29.5 17.5t59.5 -2.5t32 -29q4 -54 5 -102q68 307 140 307q40 0 64 -29.5t32 -84t8 -112t-7 -133.5q34 101 74 167.5t77 66.5q46 0 75 -33.5t38 -87.5q9 -52 11 -118v-28q0 -51 -6 -102q-8 -64 -12.5 -118.5t-9 -86.5t3.5 -34 q29 0 98 188.5t87 259.5q5 12 18 6q16 -9 10 -32q-8 -34 -27 -99t-52.5 -162t-78 -165t-85.5 -68q-43 0 -68.5 34.5t-30.5 89.5q-4 42 -4 92q1 15 1 31q2 68 11.5 133.5t15 122t8 89.5t-10.5 35q-28 0 -84 -129.5t-78 -243.5q-6 -37 -6 -68q-2 -14 -54.5 -11.5t-54.5 15.5 q-1 4 -1 12q0 19 4 65q5 64 12 143t13.5 161t7.5 130.5t-5 54.5q-23 0 -69.5 -184.5t-75.5 -329.5q-4 -36 -17 -93q-2 -10 -27 -23t-49.5 -12.5t-25.5 23.5z" />
<glyph unicode="n" horiz-adv-x="528" d="M0 8v53q0 75 2 191q2 162 2 233q0 12 29.5 17.5t59.5 -2.5t32 -29q5 -45 5 -101q0 -24 -1 -51q63 232 131 232q46 0 75 -33.5t38 -87.5q9 -52 11 -118v-28q0 -51 -6 -102q-8 -64 -12.5 -118.5t-9 -86.5t3.5 -34q29 0 98 188.5t87 259.5q5 12 18 6q16 -9 10 -32 q-8 -34 -27 -99t-52.5 -162t-78 -165t-85.5 -68q-43 0 -68.5 34.5t-30.5 89.5q-4 42 -4 92q1 15 1 31q2 68 11.5 133.5t15 122t8 89.5t-10.5 35q-24 0 -64 -107.5t-65 -224.5q-7 -87 -21 -146q-2 -10 -27 -23t-49.5 -12.5t-25.5 23.5z" />
<glyph unicode="o" horiz-adv-x="425" d="M-13 234q-3 23 -3 46q0 32 6 62q11 54 32.5 98t61.5 71.5t90 27.5q38 0 66 -22.5t28 -47.5q0 -18 -12.5 -33.5t-26 -21.5t-16.5 -2q-1 1 -2 24t-7.5 41.5t-21.5 18.5q-38 0 -56 -106q-11 -66 -11 -133q0 -41 4 -81q11 -106 45 -106q30 0 49 104q-17 39 -17 89q0 27 5 57 q14 86 55 86q58 0 78 -72q9 -32 8 -64q0 -41 -14 -84q9 6 17.5 15t15.5 17t15 21t13 21t11.5 23.5t10 22.5t10 24t8 21.5t7.5 21.5t6 18q5 13 19 6q16 -8 10 -32q-5 -20 -16.5 -49t-31 -67t-50.5 -70t-66 -44q-52 -98 -145 -98q-51 0 -89.5 27.5t-58 71.5t-27.5 98z" />
<glyph unicode="p" horiz-adv-x="493" d="M-28 -6q1 139 15.5 263.5t35.5 207.5q3 12 18 15t35 -1.5t38.5 -12.5t31 -18.5t10.5 -17.5q-12 -43 -21 -115q34 84 76 141.5t74 57.5q100 0 133 -100q14 -41 14 -87q0 -57 -22 -123q-40 -118 -120 -165q-39 -23 -81 -23q-49 0 -69 30q-16 25 -16 53q0 6 1 12q6 36 41 47 t59 -6q17 -10 11.5 -33t-17.5 -23q-15 0 -26 9.5t-13 23.5q-18 0 -22 -23t7 -46t30 -23q32 0 57 43.5t37 105.5t17 124q2 29 2 55q0 28 -3 51q-5 43 -18 43q-30 0 -84 -91t-84 -196l-13 -180q37 -51 61.5 -123.5t31.5 -142.5q4 -45 4 -87q0 -23 -1 -46q-4 -62 -21 -100 t-42 -38q-62 0 -102 79t-53 200q-13 108 -13 232q0 14 1 28zM104 -66q-4 -117 -4 -203q0 -243 33 -243q26 0 34 76q3 25 3 54q0 58 -12 132q-16 108 -54 184z" />
<glyph unicode="q" horiz-adv-x="468" d="M-37 256q18 136 87 208.5t167 72.5q43 0 67 -35q16 -23 16 -45q0 -10 -3 -19q-5 -19 -25 -30t-41 2q-13 9 -9 28t22 31q9 5 -17 19q-19 10 -34 10q-22 0 -42 -54t-32 -131t-18 -155q-3 -37 -3 -68q0 -35 4 -63q6 -54 23 -54q47 0 111 281q13 78 24 125q3 12 18 15 t35 -1.5t38.5 -12.5t31 -18.5t10.5 -17.5q-29 -110 -39 -340l4 -4q39 -50 64 -123t32 -145q6 -51 6 -98q0 -18 -1 -36q-3 -64 -20 -103.5t-42 -39.5q-55 0 -94.5 53.5t-58 143t-24.5 192.5q-4 53 -4 109q0 52 3 106q-49 -133 -90 -133q-90 0 -137 94q-34 69 -34 163 q0 35 5 73zM352 -47q-2 -74 -2 -141q0 -101 5 -184q9 -140 34 -140q27 0 35 82q2 23 2 50q0 64 -14 144q-19 114 -60 189z" />
<glyph unicode="r" horiz-adv-x="454" d="M-30 456q-1 17 -1 34q1 86 33 172q40 104 96 104q26 0 30 -35q1 -9 1 -18q0 -31 -11 -76q-14 -59 -28.5 -107t-34.5 -104q3 -18 21 -18q51 0 110.5 29.5t69.5 29.5q28 1 44 -41q9 -23 9 -55q0 -25 -6 -56q-2 -12 -14.5 -73.5t-19.5 -101.5t-15 -92q-7 -46 -7 -73v-7 q1 -28 11 -27q37 0 116.5 191.5t96.5 258.5q4 13 17 7q18 -7 12 -33q-8 -35 -50 -149t-103 -232.5t-99 -118.5q-34 0 -60 12.5t-41 36t-24.5 51.5t-11.5 66t-2 72t5 76.5t9 72t10 66.5t8 53q-57 -19 -104 -19q-59 0 -67 104z" />
<glyph unicode="s" horiz-adv-x="346" d="M-47 8q-1 55 37 84q23 18 42 18q12 0 23 -8q14 -9 16.5 -41t-4 -60t-14.5 -28q-7 0 -12.5 5.5t-11.5 16t-9 13.5q-8 -5 -9 -16t3 -24t13.5 -25.5t25 -20.5t33.5 -8q20 0 32.5 6.5t17.5 20t6 29.5t-4.5 39t-12 44t-18 49.5t-20.5 50.5t-21.5 52t-20.5 49q-56 134 -56 218 q-1 12 1 22q8 88 48 121q26 22 55 22q15 0 30 -6q22 -9 26 -32.5t-11.5 -62t-29 -65t-38.5 -70.5q11 -27 38 -59t56 -61t57 -62t46 -73t18 -83q0 -65 -32 -109.5t-73.5 -61.5t-85.5 -17q-61 0 -101 37t-40 96z" />
<glyph unicode="t" horiz-adv-x="350" d="M-330 793q-2 19 15 25q9 3 10 -3q15 -46 37 -71q58 -66 178 -66h10q29 0 96 18q20 244 58 410q4 19 40 32q30 11 59 11q5 -1 11 -1q34 -2 35 -22q0 -8 -5 -57.5t-15 -143t-17 -173.5q85 27 155 39q35 6 74 6t81 -6q85 -12 151 -58q7 -5 6 -32q-1 -14 -6 -11 q-57 34 -115 48q-42 11 -87 11q-17 1 -35 -1q-64 -6 -111.5 -16.5t-118.5 -31.5q-29 -323 -29 -487q0 -170 31 -170q30 0 76.5 86t73.5 155.5t39 106.5q5 12 18 6q15 -9 10 -32q-7 -26 -28 -81.5t-53.5 -129.5t-74.5 -127.5t-79 -53.5q-55 0 -91 60.5t-49 156.5t-16 218 q-1 26 -1 53q0 95 9 190q-53 -12 -104 -12h-7q-49 1 -91 13q-44 14 -69.5 33t-42 42.5t-22.5 40t-6 25.5z" />
<glyph unicode="u" horiz-adv-x="571" d="M0 254q3 75 8 126.5t12 104.5q1 7 17.5 12.5t39.5 6.5t45 -1.5t36 -10.5t12 -21q-12 -62 -21 -188q-7 -94 -7 -179q0 -28 1 -56q3 -109 23 -109q21 0 77 204.5t56 235.5q0 13 38 23q23 6 45 6q14 0 28 -2q35 -6 30 -35q-7 -34 -12 -103q-3 -46 -3 -89q1 -21 1 -41 q2 -62 14 -62t26.5 15.5t28 42t26.5 57t25.5 65t21 60t16 49.5t8.5 26q3 14 15 7q14 -9 9 -33q-9 -33 -22 -74.5t-38 -109.5t-56 -118t-60 -61q-13 -5 -26 -5q-43 1 -79 57q-39 62 -39 129q0 13 1 26q-4 -14 -12.5 -49.5t-15.5 -61.5t-17 -62t-20 -61t-21.5 -49t-24.5 -36.5 t-26 -12.5q-49 0 -83.5 32.5t-50 89t-22.5 118.5q-5 43 -5 93q0 22 1 44z" />
<glyph unicode="v" horiz-adv-x="514" d="M-12 489q-1 22 24.5 39t58 22t61 -3.5t32.5 -30.5q7 -41 12 -165t14.5 -211t30.5 -87q25 0 78 174q-35 59 -39 149q-1 15 0 29q0 73 19 129q23 66 59 66q34 0 46 -50q6 -27 6 -62q0 -28 -4 -62q-10 -74 -34 -160q23 -67 62 -67q30 0 63 56.5t58 133.5q2 8 15.5 1.5 t10.5 -17.5q-24 -85 -64 -150t-87 -65q-50 0 -80 30q-36 -107 -78 -178t-76 -71q-42 0 -78.5 66.5t-58.5 163.5t-34.5 179.5t-16.5 140.5zM328 496q-2 -23 -2 -46q0 -43 6 -88q19 78 24 138q1 17 1 29q0 31 -9 32q-15 -1 -20 -65z" />
<glyph unicode="w" horiz-adv-x="829" d="M-12 489q-1 22 24.5 39t58 22t61 -3.5t32.5 -30.5q7 -41 12 -165t14.5 -211t30.5 -87q26 0 55 97.5t41 195.5q-13 98 -16 143q-1 22 24.5 39t58 22t61 -3.5t32.5 -30.5q6 -40 11.5 -165t15.5 -211.5t31 -86.5q24 0 77 174q-34 59 -38 149q-1 15 -1 30q1 72 19 128 q22 66 57 66q36 0 48 -50q7 -29 7 -65q0 -27 -4 -59q-9 -74 -34 -160q23 -67 61 -67q30 0 63 56.5t58 133.5q2 8 15.5 1.5t10.5 -17.5q-26 -87 -65.5 -151t-85.5 -64q-50 0 -80 30q-38 -109 -79.5 -179t-74.5 -70q-86 0 -147 278q-31 -111 -79 -194.5t-87 -83.5 q-42 0 -78.5 66.5t-58.5 163.5t-34.5 179.5t-16.5 140.5zM640 496q-2 -22 -1 -43q0 -44 6 -91q18 83 23 138.5t-9 60.5q-15 -1 -19 -65z" />
<glyph unicode="x" horiz-adv-x="485" d="M-59 -51q2 33 22.5 62.5t44.5 13.5q17 -15 17 -35.5t-12.5 -37.5t-26.5 -13q1 -2 -0.5 -13t5.5 -26t23 -19q16 -3 41 38.5t58 115.5q-55 114 -91.5 270.5t-44.5 233.5v9q0 50 53 76q28 14 49 14q12 0 21 -4q9 -6 11 -13q0 -15 27.5 -135t60.5 -240q64 161 104 228 q29 49 58 49l22 -7q24 -16 23.5 -48.5t-21.5 -55.5q-14 -20 -34.5 -8t-16.5 42q-62 -114 -115 -251l-4 -9q71 -243 102 -243q40 0 185 448q5 12 18 6q15 -9 10 -32q-132 -494 -243 -494q-83 0 -152 121q-69 -141 -110 -148q-6 -1 -11 -1q-36 -1 -54 31q-19 32 -19 68v7z" />
<glyph unicode="y" horiz-adv-x="530" d="M0 364q3 77 8 130.5t12 105.5q1 7 17.5 12.5t39.5 6.5t45 -1.5t36 -10.5t12 -21q-12 -62 -20 -194q-7 -98 -7 -186q0 -31 1 -60q3 -115 22 -115q21 0 77 215.5t56 247.5q0 13 35 18q14 2 28 2l42 -4q35 -8 36 -25q2 -41 2 -96q0 -100 -6 -248q-3 -110 -22 -225 q52 -10 90 -36.5t49 -43.5q10 -17 10 -24q0 -12 -11.5 -23.5t-23.5 -11.5t-24 11.5t-12 23.5q0 15 16 28q-52 40 -98 49q-33 -171 -94 -279t-144 -108q-93 0 -108 80q-3 15 -3 31q0 65 47 143q54 90 134 131q37 19 47 21q8 147 10 223q1 24 3 71.5t2 67t-1 74.5 q-5 -19 -18 -75.5t-24.5 -100.5t-27 -93t-34.5 -76.5t-39 -27.5q-49 0 -83.5 34t-50 93t-22.5 124q-5 46 -5 97q0 22 1 45zM135 -398q9 -63 43 -63q82 0 107 334l-17 -8q-73 -39 -108 -119q-27 -64 -27 -117q0 -14 2 -27z" />
<glyph unicode="z" horiz-adv-x="444" d="M-31 -170q4 42 33 82t78 63q24 11 50.5 11t39.5 -17q11 -19 0.5 -41.5t-37.5 -29.5q-33 -8 -42.5 9.5t1.5 31.5q-44 -37 -58 -97q-6 -25 -6 -48q0 -31 12 -56q20 -45 62 -45q60 0 102 78t42 233q0 141 -60 180q-62 -43 -108 -43q-30 0 -30 28q1 29 30 49q15 11 33 11 q2 0 27.5 1.5t43.5 0.5q40 43 63 111t23 123q0 44 -15 73t-44 29q-57 0 -93.5 -65t-41.5 -148q-1 -16 -26 -9q-35 9 -49 47q-7 17 -7 36q0 66 61.5 121t141.5 55q165 0 165 -131q0 -67 -33.5 -132t-86.5 -116q143 -32 143 -229q0 -147 -82.5 -241.5t-196.5 -94.5 q-46 0 -80 25t-46 63q-9 29 -10 61q0 11 1 21z" />
<glyph unicode="{" horiz-adv-x="432" d="M-0.5 221q0.5 39 12.5 39q19 0 29.5 32t14.5 83.5t9 113.5t20 124t39.5 113.5t74.5 83.5t120 32q6 0 6.5 -11t-2.5 -21.5t-8 -10.5q-37 0 -59 -42.5t-29 -106.5t-17.5 -138t-23.5 -138t-47 -106.5t-88 -42.5q47 0 77 -31.5t42.5 -82.5t18.5 -112t11 -122.5t15 -112.5 t34.5 -82.5t65.5 -31.5q5 0 8 -11t2.5 -21.5t-6.5 -10.5q-63 0 -110 24.5t-72.5 65t-43 92.5t-23 105.5t-10.5 105.5t-7.5 92.5t-12.5 65t-28 24.5q-13 0 -12.5 39z" />
<glyph unicode="|" horiz-adv-x="288" d="M102 1061q1 15 11.5 18.5t21 -2.5t10.5 -14q0 -7 -3 -727t-3 -729q0 -12 -13 -13q-14 0 -15 17q0 3 -2.5 364.5t-5 716t-1.5 369.5z" />
<glyph unicode="}" horiz-adv-x="460" d="M0 -382.5q-1 10.5 2 21.5t8 11q32 0 52 31.5t30 82.5t17 112t16.5 122.5t25 112.5t47.5 82.5t78 31.5q-48 0 -78 31.5t-43 82.5t-19.5 112t-11.5 122t-14.5 112t-34 82.5t-65.5 31.5q-5 0 -8 10.5t-2 21.5t6 11q72 0 123 -32t75.5 -82.5t39 -112t18.5 -123t8 -112 t13.5 -82.5t29.5 -32q13 0 12.5 -38t-12.5 -38q-17 0 -27 -25t-13.5 -66t-9 -93.5t-11.5 -107t-23.5 -107t-43 -93.5t-71.5 -66t-108 -25q-5 0 -6 10.5z" />
<glyph unicode="~" horiz-adv-x="573" d="M74 219q0 46 36.5 92.5t102.5 46.5q33 0 56.5 -21t34.5 -46.5t32 -46.5t51 -21q40 0 58 29t18 49q0 5 7.5 6t14.5 -2.5t7 -9.5q0 -48 -40 -100t-116 -52q-39 0 -66 23.5t-38.5 51.5t-29 51.5t-38.5 23.5q-27 0 -46.5 -32.5t-19.5 -61.5q0 -8 -11 -4q-13 6 -13 24z" />
<glyph unicode="&#xa2;" horiz-adv-x="489" d="M0.5 330q0.5 92 27.5 170.5t85.5 132.5t138.5 59v92q1 15 8 18.5t14 -2.5t7 -14q0 -39 2 -96q64 -7 103.5 -71.5t39.5 -126.5q0 -30 -31 -39q-27 -7 -37 9q-2 5 -2 11q4 69 -21 116.5t-52 61.5q0 -305 4 -645q29 2 54.5 40.5t25.5 96.5q0 26 16 24q17 -2 25 -28 q4 -11 4 -24q0 -67 -41 -114t-84 -52v-72q0 -9 -10.5 -14.5t-21.5 -2.5t-11 15v76q-79 10 -136.5 68.5t-82.5 138.5t-24.5 172zM146.5 342.5q-2.5 -106.5 23.5 -203.5t76 -125q0 295 4 635q-46 -18 -73.5 -109t-30 -197.5z" />
<glyph unicode="&#xa3;" horiz-adv-x="493" d="M3 -44q-14 46 17 87q28 37 76 37h25q0 68 -6 129q-4 24 -4 35q-43 -6 -56 -6q-16 0 -23 18.5t0 37t25 19.5h43q-6 48 -9.5 79t-5.5 75t0.5 72.5t10.5 60t22.5 50t38 30.5t56.5 12q49 0 86 -48.5t27 -108.5q-6 -39 -42 -49q-27 -7 -36 9q-3 6 -2 13q13 61 -1.5 110.5 t-41.5 49.5q-24 0 -32.5 -20t-3 -59.5t14.5 -79t24.5 -99t22.5 -99.5h93q16 -1 22.5 -12t0.5 -22t-21 -11q-3 0 -14 -1t-32.5 -3t-39.5 -4q4 -32 4 -49q0 -76 -25 -156q9 -3 29 -12t31 -13t29.5 -8t37.5 -4q36 0 59 24.5t23 53.5q0 12 17 8q18 -5 18 -20q0 -64 -40 -119 t-97 -55q-33 0 -65 11t-44 19t-43 29q-46 -59 -100 -59q-55 0 -69 48zM40 -25q-7 -22 13 -30q6 -2 13 -2q34 0 47 53q-24 4 -37 4q-28 0 -36 -25z" />
<glyph unicode="&#xa5;" horiz-adv-x="507" d="M2 616q-6 11 5 27.5t30.5 30.5t42.5 24.5t41 10t26 -12.5q6 -10 103 -311l170 295q13 23 34 3q20 -18 13 -36q-1 -3 -4 -6q-6 -6 -81.5 -131t-102.5 -174h100q16 -1 22.5 -12.5t0.5 -22.5t-21 -10q-3 0 -18.5 -1.5t-41.5 -4t-49 -4.5l7 -60q26 0 61.5 -1t38.5 -1 q16 0 22.5 -11t0.5 -22.5t-21 -11.5q-3 0 -15.5 -1t-37 -3t-43.5 -4q16 -146 24 -178q6 -31 -29 -39.5t-73 3.5t-37 28l23 176q-61 -9 -80 -9q-16 -1 -23 17t-0.5 37t23.5 20h88l6 51q-78 -10 -94 -10t-23 18.5t-0.5 37.5t23.5 20h88q-181 243 -199 278z" />
<glyph unicode="&#xa8;" horiz-adv-x="481" d="M106 682q9 29 33.5 44.5t50.5 6.5q22 -6 32.5 -27t4.5 -44t-32.5 -43.5t-49.5 -14.5q-27 6 -37.5 27t-1.5 51zM254 682q9 29 33.5 44.5t50.5 6.5q22 -6 32.5 -27t4.5 -44t-32.5 -43.5t-49.5 -14.5q-27 6 -37.5 27t-1.5 51z" />
<glyph unicode="&#xad;" horiz-adv-x="440" d="M36 300.5q-6 17.5 1 35t22 16.5q34 -2 134.5 -2.5t138.5 2.5q13 1 18.5 -16.5t-0.5 -34.5t-20 -16q-37 3 -141 3.5t-132 -3.5q-15 -2 -21 15.5z" />
<glyph unicode="&#xb4;" horiz-adv-x="331" d="M104 616q-2 22 12 72t31 66q6 7 29 -1t40 -22.5t9 -23.5q-72 -81 -84 -101q-6 -11 -21 -9t-16 19z" />
<glyph unicode="&#xb8;" horiz-adv-x="329" d="M104 -117q1 1 14 26t15 28q4 6 20 -10q7 -8 3 -9q-2 -2 -7 -8.5t-12 -16.5t-14 -18q16 19 43 19t44 -14.5t17 -35.5q0 -25 -20 -41t-49 -16q-32 0 -52 20q-3 5 -1 9.5t6.5 8.5t5.5 3q6 -18 22 -18q25 0 25 32q0 27 -21 27q-4 0 -7.5 -2.5t-8 -6.5t-6.5 -5 q-8 -5 -12.5 7.5t-4.5 20.5z" />
<glyph unicode="&#xc0;" horiz-adv-x="921" d="M0 111q0 134 55 219.5t135 85.5q36 0 65 -16t43.5 -39.5t22 -44t7.5 -35.5q0 -27 -13 -45.5t-39 -18.5q-17 0 -27 22t-5 46t26 30q0 31 -19.5 51.5t-49.5 20.5q-62 0 -114 -79t-52 -199q0 -123 49 -203t113 -80q55 0 129.5 74.5t154.5 201.5l-61 13q-18 4 -13 22t27 15 l70 -11q46 80 96 181q-63 223 -63 419q0 100 17.5 180.5t43 126.5t57.5 76.5t57.5 41t45.5 10.5q78 0 78 -154q0 -211 -121 -524q30 -185 86 -365q5 0 16.5 1t16.5 1q14 3 31 -21q19 -26 -2 -30h-3q-12 -2 -43 -2q82 -256 186.5 -422t198.5 -166q50 0 71.5 17t26.5 36 q-19 2 -28 20t-2 38t28 28q22 9 39 -7.5t17 -47.5q0 -30 -16.5 -53.5t-42 -35.5t-49 -18t-42.5 -6q-85 0 -182 85.5t-183.5 224t-156.5 309.5q-95 3 -162 14q-87 -141 -170.5 -223t-148.5 -82q-86 0 -143.5 91.5t-57.5 226.5zM545 137l119 -6q-26 65 -48 139 q-11 -19 -34 -64t-37 -69zM631 1384q-8 9 9 24t40.5 23t30.5 1q17 -16 30 -65.5t11 -72.5q-1 -17 -16 -19t-19 9q-56 70 -86 100zM686 815q0 -112 19 -248q98 272 98 453q0 50 -10 80t-25 30t-34 -38.5t-33.5 -114t-14.5 -162.5z" />
<glyph unicode="&#xc1;" horiz-adv-x="921" d="M0 111q0 134 55 219.5t135 85.5q36 0 65 -16t43.5 -39.5t22 -44t7.5 -35.5q0 -27 -13 -45.5t-39 -18.5q-17 0 -27 22t-5 46t26 30q0 31 -19.5 51.5t-49.5 20.5q-62 0 -114 -79t-52 -199q0 -123 49 -203t113 -80q55 0 129.5 74.5t154.5 201.5l-61 13q-18 4 -13 22t27 15 l70 -11q46 80 96 181q-63 223 -63 419q0 100 17.5 180.5t43 126.5t57.5 76.5t57.5 41t45.5 10.5q78 0 78 -154q0 -211 -121 -524q30 -185 86 -365q5 0 16.5 1t16.5 1q14 3 31 -21q19 -26 -2 -30h-3q-12 -2 -43 -2q82 -256 186.5 -422t198.5 -166q50 0 71.5 17t26.5 36 q-19 2 -28 20t-2 38t28 28q22 9 39 -7.5t17 -47.5q0 -30 -16.5 -53.5t-42 -35.5t-49 -18t-42.5 -6q-85 0 -182 85.5t-183.5 224t-156.5 309.5q-95 3 -162 14q-87 -141 -170.5 -223t-148.5 -82q-86 0 -143.5 91.5t-57.5 226.5zM545 137l119 -6q-26 65 -48 139 q-11 -19 -34 -64t-37 -69zM686 815q0 -112 19 -248q98 272 98 453q0 50 -10 80t-25 30t-34 -38.5t-33.5 -114t-14.5 -162.5zM715 1262q-2 22 12 71.5t31 65.5q6 7 29 -1t40 -22.5t9 -23.5q-72 -81 -84 -101q-4 -6 -12.5 -8t-16 2.5t-8.5 16.5z" />
<glyph unicode="&#xc2;" horiz-adv-x="921" d="M0 111q0 134 55 219.5t135 85.5q36 0 65 -16t43.5 -39.5t22 -44t7.5 -35.5q0 -27 -13 -45.5t-39 -18.5q-17 0 -27 22t-5 46t26 30q0 31 -19.5 51.5t-49.5 20.5q-62 0 -114 -79t-52 -199q0 -123 49 -203t113 -80q55 0 129.5 74.5t154.5 201.5l-61 13q-18 4 -13 22t27 15 l70 -11q46 80 96 181q-63 223 -63 419q0 100 17.5 180.5t43 126.5t57.5 76.5t57.5 41t45.5 10.5q78 0 78 -154q0 -211 -121 -524q30 -185 86 -365q5 0 16.5 1t16.5 1q14 3 31 -21q19 -26 -2 -30h-3q-12 -2 -43 -2q82 -256 186.5 -422t198.5 -166q50 0 71.5 17t26.5 36 q-19 2 -28 20t-2 38t28 28q22 9 39 -7.5t17 -47.5q0 -30 -16.5 -53.5t-42 -35.5t-49 -18t-42.5 -6q-85 0 -182 85.5t-183.5 224t-156.5 309.5q-95 3 -162 14q-87 -141 -170.5 -223t-148.5 -82q-86 0 -143.5 91.5t-57.5 226.5zM545 137l119 -6q-26 65 -48 139 q-11 -19 -34 -64t-37 -69zM657 1258q-10 10 0 12q20 5 65.5 49t49.5 55q4 9 13.5 4.5t11.5 -10.5q13 -40 59 -74q11 -8 -3 -25t-35 -28.5t-25 -7.5q-33 38 -37 76q-11 -18 -35 -39.5t-41 -24.5q-11 0 -23 13zM686 815q0 -112 19 -248q98 272 98 453q0 50 -10 80t-25 30 t-34 -38.5t-33.5 -114t-14.5 -162.5z" />
<glyph unicode="&#xc3;" horiz-adv-x="921" d="M0 111q0 134 55 219.5t135 85.5q36 0 65 -16t43.5 -39.5t22 -44t7.5 -35.5q0 -27 -13 -45.5t-39 -18.5q-17 0 -27 22t-5 46t26 30q0 31 -19.5 51.5t-49.5 20.5q-62 0 -114 -79t-52 -199q0 -123 49 -203t113 -80q55 0 129.5 74.5t154.5 201.5l-61 13q-18 4 -13 22t27 15 l70 -11q46 80 96 181q-63 223 -63 419q0 100 17.5 180.5t43 126.5t57.5 76.5t57.5 41t45.5 10.5q78 0 78 -154q0 -211 -121 -524q30 -185 86 -365q5 0 16.5 1t16.5 1q14 3 31 -21q19 -26 -2 -30h-3q-12 -2 -43 -2q82 -256 186.5 -422t198.5 -166q50 0 71.5 17t26.5 36 q-19 2 -28 20t-2 38t28 28q22 9 39 -7.5t17 -47.5q0 -30 -16.5 -53.5t-42 -35.5t-49 -18t-42.5 -6q-85 0 -182 85.5t-183.5 224t-156.5 309.5q-95 3 -162 14q-87 -141 -170.5 -223t-148.5 -82q-86 0 -143.5 91.5t-57.5 226.5zM545 137l119 -6q-26 65 -48 139 q-11 -19 -34 -64t-37 -69zM647 1319q0 24 18.5 49.5t51.5 28.5q26 3 46.5 -22t43.5 -23q13 1 24 12t11 16t8 5.5t8 -5.5q0 -27 -20.5 -61.5t-59.5 -38.5q-24 -3 -39.5 11.5t-26.5 29t-24 12.5q-18 -3 -29 -22q-1 -2 -4 -2.5t-5.5 2t-2.5 8.5zM686 815q0 -112 19 -248 q98 272 98 453q0 50 -10 80t-25 30t-34 -38.5t-33.5 -114t-14.5 -162.5z" />
<glyph unicode="&#xc4;" horiz-adv-x="921" d="M0 111q0 134 55 219.5t135 85.5q36 0 65 -16t43.5 -39.5t22 -44t7.5 -35.5q0 -27 -13 -45.5t-39 -18.5q-17 0 -27 22t-5 46t26 30q0 31 -19.5 51.5t-49.5 20.5q-62 0 -114 -79t-52 -199q0 -123 49 -203t113 -80q55 0 129.5 74.5t154.5 201.5l-61 13q-18 4 -13 22t27 15 l70 -11q46 80 96 181q-63 223 -63 419q0 100 17.5 180.5t43 126.5t57.5 76.5t57.5 41t45.5 10.5q78 0 78 -154q0 -211 -121 -524q30 -185 86 -365q5 0 16.5 1t16.5 1q14 3 31 -21q19 -26 -2 -30h-3q-12 -2 -43 -2q82 -256 186.5 -422t198.5 -166q50 0 71.5 17t26.5 36 q-19 2 -28 20t-2 38t28 28q22 9 39 -7.5t17 -47.5q0 -30 -16.5 -53.5t-42 -35.5t-49 -18t-42.5 -6q-85 0 -182 85.5t-183.5 224t-156.5 309.5q-95 3 -162 14q-87 -141 -170.5 -223t-148.5 -82q-86 0 -143.5 91.5t-57.5 226.5zM545 137l119 -6q-26 65 -48 139 q-11 -19 -34 -64t-37 -69zM600 1327q9 29 33.5 44.5t50.5 6.5q22 -6 32.5 -27t4.5 -44t-32.5 -43.5t-49.5 -14.5q-27 6 -37.5 27t-1.5 51zM686 815q0 -112 19 -248q98 272 98 453q0 50 -10 80t-25 30t-34 -38.5t-33.5 -114t-14.5 -162.5zM748 1327q9 29 33 44.5t50 6.5 q22 -6 32.5 -27t4.5 -44t-32.5 -43.5t-49.5 -14.5q-26 6 -36.5 26.5t-1.5 51.5z" />
<glyph unicode="&#xc5;" horiz-adv-x="921" d="M0 111q0 134 55 219.5t135 85.5q36 0 65 -16t43.5 -39.5t22 -44t7.5 -35.5q0 -27 -13 -45.5t-39 -18.5q-17 0 -27 22t-5 46t26 30q0 31 -19.5 51.5t-49.5 20.5q-62 0 -114 -79t-52 -199q0 -123 49 -203t113 -80q55 0 129.5 74.5t154.5 201.5l-61 13q-18 4 -13 22t27 15 l70 -11q46 80 96 181q-63 223 -63 419q0 100 17.5 180.5t43 126.5t57.5 76.5t57.5 41t45.5 10.5q78 0 78 -154q0 -211 -121 -524q30 -185 86 -365q5 0 16.5 1t16.5 1q14 3 31 -21q19 -26 -2 -30h-3q-12 -2 -43 -2q82 -256 186.5 -422t198.5 -166q50 0 71.5 17t26.5 36 q-19 2 -28 20t-2 38t28 28q22 9 39 -7.5t17 -47.5q0 -30 -16.5 -53.5t-42 -35.5t-49 -18t-42.5 -6q-85 0 -182 85.5t-183.5 224t-156.5 309.5q-95 3 -162 14q-87 -141 -170.5 -223t-148.5 -82q-86 0 -143.5 91.5t-57.5 226.5zM545 137l119 -6q-26 65 -48 139 q-11 -19 -34 -64t-37 -69zM664 1327q0 44 29 65t61 21t61 -21t29 -65q0 -40 -25 -62t-65 -22t-65 22t-25 62zM686 815q0 -112 19 -248q98 272 98 453q0 50 -10 80t-25 30t-34 -38.5t-33.5 -114t-14.5 -162.5zM733 1329q-4 -65 17 -65q7 -1 11.5 7.5t7.5 22t5 33.5 q4 31 1.5 49.5t-17.5 18.5q-15 1 -19 -13t-6 -47v-6z" />
<glyph unicode="&#xc6;" horiz-adv-x="1617" d="M0 111q0 134 55 219.5t135 85.5q36 0 65 -16t43.5 -39.5t22 -44t7.5 -35.5q0 -27 -13 -45.5t-39 -18.5q-17 0 -27 22t-5 46t26 30q0 31 -19.5 51.5t-49.5 20.5q-62 0 -114 -79t-52 -199q0 -123 49 -203t113 -80q55 0 129.5 74.5t154.5 201.5l-61 13q-18 4 -13 21 q5 19 27 14l70 -9q53 88 123 236q-90 188 -90 362q0 101 17.5 181.5t43 126.5t57.5 77t57.5 41.5t45.5 10.5q78 0 78 -154q0 -213 -119 -520q60 -284 182 -406q-12 49 -12 107q0 134 63.5 230.5t161.5 148.5q-57 41 -89 107t-32 140v23q-98 65 -98 201q0 120 57.5 202 t112.5 82q25 0 30.5 -25t-6.5 -42q-14 -23 -40 -28.5t-39 15.5l-8 -8t-18 -24t-22.5 -41.5t-17.5 -59t-8 -77.5q0 -94 61 -146q21 122 101.5 198.5t203.5 76.5q74 0 121 -44t47 -110t-45.5 -117.5t-112.5 -76.5t-141 -25q-24 0 -36 2q4 -138 61 -193q50 13 88 13 q62 0 65 -34q2 -28 -31 -50q-21 -13 -44 -13q-47 0 -101 21q-56 -45 -87 -134t-31 -194q0 -181 43.5 -271.5t138.5 -90.5q67 0 123 43q-41 80 -41 184q0 45 9.5 92.5t26 89t43.5 68t58 26.5q39 0 58.5 -38.5t19.5 -85.5q0 -77 -32 -173.5t-87 -164.5q37 -56 68 -56 q12 0 20.5 -14t4.5 -28.5t-23 -14.5q-52 0 -105 76q-65 -58 -141 -58q-104 0 -188 57.5t-125 157.5q-39 26 -78 62q-125 -9 -326 14q-87 -140 -170.5 -221.5t-148.5 -81.5q-86 0 -143.5 91.5t-57.5 226.5zM545 137q162 -11 250 -4q-89 95 -148 205q-54 -115 -102 -201z M686 815q0 -110 19 -246q98 269 98 451q0 50 -10 80t-25 30t-34 -38.5t-33.5 -114t-14.5 -162.5zM1133 850q12 -2 38 -2q89 0 159.5 49t70.5 121q0 46 -21 81.5t-71 35.5q-71 0 -121 -86t-55 -199zM1362 96q0 -80 33 -159q47 56 70.5 137.5t23.5 158.5q0 93 -43 93 q-27 0 -55.5 -72.5t-28.5 -157.5z" />
<glyph unicode="&#xc7;" horiz-adv-x="966" d="M0 696q0 120 57.5 202.5t112.5 82.5q47 0 27 -78q-7 -27 -31.5 -33t-44.5 7q-3 -2 -8.5 -5.5t-19.5 -18t-24.5 -34t-19 -54t-8.5 -75.5q0 -113 57 -199t138 -112q5 140 34.5 267t76 222t105.5 165.5t125 106.5t132 36q76 0 117.5 -59t41.5 -144q0 -88 -35.5 -188.5 t-96 -190t-149 -159.5t-186.5 -97q0 -12 -1 -38.5t-1 -41.5q0 -183 46 -291t139 -108q67 0 123 43q-41 84 -41 186q0 44 9 91.5t25.5 88.5t43 67.5t57.5 26.5q40 0 60 -38.5t20 -85.5q0 -77 -32 -173.5t-87 -164.5q37 -56 65 -56q13 0 21.5 -14t4.5 -28.5t-22 -14.5 q-55 0 -104 78q-63 -60 -141 -60q-149 0 -249.5 145.5t-100.5 375.5v4q-102 22 -169 115.5t-67 250.5zM403 389q106 36 201 131.5t152 221t57 243.5q0 68 -31 109t-82 41q-49 0 -98 -53t-90.5 -147.5t-71 -237t-37.5 -308.5zM520 -225q1 1 14 25.5t15 27.5q4 6 19 -9 q8 -8 3 -9q-2 -2 -6.5 -8.5t-11.5 -16.5t-14 -18q16 18 43 18t44 -14t17 -35q0 -26 -20.5 -42t-49.5 -16q-30 0 -51 21q-3 5 -1 9.5t6 8t5 2.5q6 -18 23 -18q25 0 25 33q0 26 -21 26q-4 0 -7.5 -2.5t-8 -6.5t-6.5 -5q-8 -5 -12.5 8t-4.5 21zM711 96q0 -90 32 -159 q47 56 71 138.5t24 157.5q0 93 -43 93q-27 0 -55.5 -72.5t-28.5 -157.5z" />
<glyph unicode="&#xc8;" horiz-adv-x="731" d="M0 203q0 134 63.5 231.5t161.5 147.5q-57 41 -90 108t-33 139q0 4 1 11.5t1 11.5q-98 65 -98 201q0 120 57.5 202t112.5 82q25 0 31 -25t-6 -40q-14 -24 -41 -30t-39 15l-8 -8t-18 -23.5t-22.5 -41t-17.5 -59.5t-8 -78q0 -94 62 -146q21 123 101.5 199t203.5 76 q74 0 121 -44t47 -110q0 -97 -92 -158t-207 -61q-6 0 -18.5 1t-18.5 1q4 -139 61 -191q50 13 88 13q62 0 65 -35q2 -29 -31 -51q-21 -13 -44 -13q-46 0 -100 21q-56 -45 -88.5 -134.5t-32.5 -193.5q0 -180 44.5 -271t139.5 -91q67 0 123 43q-41 84 -41 186q0 60 15 121.5 t47 107t73 45.5q40 0 60 -38.5t20 -85.5q0 -77 -32 -173.5t-87 -164.5q37 -56 68 -56q12 0 20.5 -14t4.5 -28.5t-23 -14.5q-51 0 -104 78q-63 -60 -142 -60q-148 0 -249 112.5t-101 285.5zM246 850q12 -2 39 -2q89 0 159 49t70 123q0 45 -21 80t-71 35q-71 0 -121 -86 t-55 -199zM307 1341q-8 9 9 24t40.5 23t30.5 1q17 -16 30 -65.5t11 -72.5q-1 -17 -16 -19t-19 9q-56 70 -86 100zM475 96q0 -88 33 -159q46 56 70 138t24 158q0 93 -43 93q-27 0 -55.5 -72.5t-28.5 -157.5z" />
<glyph unicode="&#xc9;" horiz-adv-x="731" d="M0 203q0 134 63.5 231.5t161.5 147.5q-57 41 -90 108t-33 139q0 4 1 11.5t1 11.5q-98 65 -98 201q0 120 57.5 202t112.5 82q25 0 31 -25t-6 -40q-14 -24 -41 -30t-39 15l-8 -8t-18 -23.5t-22.5 -41t-17.5 -59.5t-8 -78q0 -94 62 -146q21 123 101.5 199t203.5 76 q74 0 121 -44t47 -110q0 -97 -92 -158t-207 -61q-6 0 -18.5 1t-18.5 1q4 -139 61 -191q50 13 88 13q62 0 65 -35q2 -29 -31 -51q-21 -13 -44 -13q-46 0 -100 21q-56 -45 -88.5 -134.5t-32.5 -193.5q0 -180 44.5 -271t139.5 -91q67 0 123 43q-41 84 -41 186q0 60 15 121.5 t47 107t73 45.5q40 0 60 -38.5t20 -85.5q0 -77 -32 -173.5t-87 -164.5q37 -56 68 -56q12 0 20.5 -14t4.5 -28.5t-23 -14.5q-51 0 -104 78q-63 -60 -142 -60q-148 0 -249 112.5t-101 285.5zM246 850q12 -2 39 -2q89 0 159 49t70 123q0 45 -21 80t-71 35q-71 0 -121 -86 t-55 -199zM375 1257q-2 22 12 72t31 66q6 7 29 -1t40 -22.5t9 -23.5q-72 -81 -84 -101q-6 -11 -21 -9t-16 19zM475 96q0 -88 33 -159q46 56 70 138t24 158q0 93 -43 93q-27 0 -55.5 -72.5t-28.5 -157.5z" />
<glyph unicode="&#xca;" horiz-adv-x="731" d="M0 203q0 134 63.5 231.5t161.5 147.5q-57 41 -90 108t-33 139q0 4 1 11.5t1 11.5q-98 65 -98 201q0 120 57.5 202t112.5 82q25 0 31 -25t-6 -40q-14 -24 -41 -30t-39 15l-8 -8t-18 -23.5t-22.5 -41t-17.5 -59.5t-8 -78q0 -94 62 -146q21 123 101.5 199t203.5 76 q74 0 121 -44t47 -110q0 -97 -92 -158t-207 -61q-6 0 -18.5 1t-18.5 1q4 -139 61 -191q50 13 88 13q62 0 65 -35q2 -29 -31 -51q-21 -13 -44 -13q-46 0 -100 21q-56 -45 -88.5 -134.5t-32.5 -193.5q0 -180 44.5 -271t139.5 -91q67 0 123 43q-41 84 -41 186q0 60 15 121.5 t47 107t73 45.5q40 0 60 -38.5t20 -85.5q0 -77 -32 -173.5t-87 -164.5q37 -56 68 -56q12 0 20.5 -14t4.5 -28.5t-23 -14.5q-51 0 -104 78q-63 -60 -142 -60q-148 0 -249 112.5t-101 285.5zM246 850q12 -2 39 -2q89 0 159 49t70 123q0 45 -21 80t-71 35q-71 0 -121 -86 t-55 -199zM304 1242q-8 9 1 11q20 5 65.5 49.5t49.5 55.5q4 9 13 4.5t11 -10.5q13 -39 60 -74q11 -8 -3.5 -25t-35.5 -28.5t-25 -7.5q-33 38 -37 75q-11 -18 -34.5 -39t-40.5 -24q-12 0 -24 13zM475 96q0 -88 33 -159q46 56 70 138t24 158q0 93 -43 93q-27 0 -55.5 -72.5 t-28.5 -157.5z" />
<glyph unicode="&#xcb;" horiz-adv-x="731" d="M0 203q0 134 63.5 231.5t161.5 147.5q-57 41 -90 108t-33 139q0 4 1 11.5t1 11.5q-98 65 -98 201q0 120 57.5 202t112.5 82q25 0 31 -25t-6 -40q-14 -24 -41 -30t-39 15l-8 -8t-18 -23.5t-22.5 -41t-17.5 -59.5t-8 -78q0 -94 62 -146q21 123 101.5 199t203.5 76 q74 0 121 -44t47 -110q0 -97 -92 -158t-207 -61q-6 0 -18.5 1t-18.5 1q4 -139 61 -191q50 13 88 13q62 0 65 -35q2 -29 -31 -51q-21 -13 -44 -13q-46 0 -100 21q-56 -45 -88.5 -134.5t-32.5 -193.5q0 -180 44.5 -271t139.5 -91q67 0 123 43q-41 84 -41 186q0 60 15 121.5 t47 107t73 45.5q40 0 60 -38.5t20 -85.5q0 -77 -32 -173.5t-87 -164.5q37 -56 68 -56q12 0 20.5 -14t4.5 -28.5t-23 -14.5q-51 0 -104 78q-63 -60 -142 -60q-148 0 -249 112.5t-101 285.5zM246 850q12 -2 39 -2q89 0 159 49t70 123q0 45 -21 80t-71 35q-71 0 -121 -86 t-55 -199zM274 1292q9 29 33.5 44.5t50.5 6.5q22 -6 32.5 -27t4.5 -44t-32.5 -43.5t-49.5 -14.5q-27 6 -37.5 27t-1.5 51zM422 1292q9 29 33.5 44.5t50.5 6.5q22 -6 32.5 -27t4.5 -44t-32.5 -43.5t-49.5 -14.5q-27 6 -37.5 27t-1.5 51zM475 96q0 -88 33 -159q46 56 70 138 t24 158q0 93 -43 93q-27 0 -55.5 -72.5t-28.5 -157.5z" />
<glyph unicode="&#xcc;" horiz-adv-x="700" d="M0 780q0 109 82.5 177.5t218.5 95.5q23 4 54.5 8t74 7.5t66.5 6.5q48 150 133 150q36 0 53.5 -25.5t19.5 -60.5q0 -72 -112 -103q-3 -48 -3 -119t1.5 -124.5t4 -144.5t3.5 -128q7 -232 -24.5 -412t-98.5 -282t-160 -102q-60 0 -103.5 45t-63 111t-21.5 145q-3 118 38 206 t107 88q39 0 64.5 -29t34.5 -65.5t10 -81.5q3 -79 -34.5 -134.5t-74.5 -55.5q-40 0 -53 33.5t10 58.5q23 28 41 5q17 -22 6 -49q-3 -8 -8 -13q30 0 55.5 47.5t24.5 111.5q-4 136 -76 136q-42 0 -72.5 -77.5t-27.5 -197.5q1 -37 9.5 -78.5t24.5 -81.5t43.5 -66t61.5 -26 q101 0 131 197q21 142 11 513q0 21 -2 83q-10 289 30 469q-22 -3 -82 -8.5t-82 -10.5q-101 -16 -180.5 -70.5t-79.5 -137.5q0 -47 23 -82t57 -35q45 0 71.5 47.5t24.5 118.5q-12 -15 -33.5 -14t-27.5 16q-12 28 3 47.5t36 19.5q58 0 61 -98q3 -69 -37.5 -126.5t-95.5 -57.5 q-69 0 -103 45t-34 108zM485 1395q-8 9 9 23.5t40.5 22.5t30.5 1q17 -16 30 -65t11 -72q-1 -12 -8.5 -16.5t-15.5 -2.5t-11 8q-60 75 -86 101zM596 1092q71 17 68 47q0 41 -27 41q-31 0 -41 -88z" />
<glyph unicode="&#xcd;" horiz-adv-x="700" d="M0 780q0 109 82.5 177.5t218.5 95.5q23 4 54.5 8t74 7.5t66.5 6.5q48 150 133 150q36 0 53.5 -25.5t19.5 -60.5q0 -72 -112 -103q-3 -48 -3 -119t1.5 -124.5t4 -144.5t3.5 -128q7 -232 -24.5 -412t-98.5 -282t-160 -102q-60 0 -103.5 45t-63 111t-21.5 145q-3 118 38 206 t107 88q39 0 64.5 -29t34.5 -65.5t10 -81.5q3 -79 -34.5 -134.5t-74.5 -55.5q-40 0 -53 33.5t10 58.5q23 28 41 5q17 -22 6 -49q-3 -8 -8 -13q30 0 55.5 47.5t24.5 111.5q-4 136 -76 136q-42 0 -72.5 -77.5t-27.5 -197.5q1 -37 9.5 -78.5t24.5 -81.5t43.5 -66t61.5 -26 q101 0 131 197q21 142 11 513q0 21 -2 83q-10 289 30 469q-22 -3 -82 -8.5t-82 -10.5q-101 -16 -180.5 -70.5t-79.5 -137.5q0 -47 23 -82t57 -35q45 0 71.5 47.5t24.5 118.5q-12 -15 -33.5 -14t-27.5 16q-12 28 3 47.5t36 19.5q58 0 61 -98q3 -69 -37.5 -126.5t-95.5 -57.5 q-69 0 -103 45t-34 108zM573 1294q-2 22 12 72t31 66q6 7 29 -1t40 -23t9 -24q-74 -83 -84 -100q-6 -11 -21 -9t-16 19zM596 1092q71 17 68 47q0 41 -27 41q-31 0 -41 -88z" />
<glyph unicode="&#xce;" horiz-adv-x="700" d="M0 780q0 109 82.5 177.5t218.5 95.5q23 4 54.5 8t74 7.5t66.5 6.5q48 150 133 150q36 0 53.5 -25.5t19.5 -60.5q0 -72 -112 -103q-3 -48 -3 -119t1.5 -124.5t4 -144.5t3.5 -128q7 -232 -24.5 -412t-98.5 -282t-160 -102q-60 0 -103.5 45t-63 111t-21.5 145q-3 118 38 206 t107 88q39 0 64.5 -29t34.5 -65.5t10 -81.5q3 -79 -34.5 -134.5t-74.5 -55.5q-40 0 -53 33.5t10 58.5q23 28 41 5q17 -22 6 -49q-3 -8 -8 -13q30 0 55.5 47.5t24.5 111.5q-4 136 -76 136q-42 0 -72.5 -77.5t-27.5 -197.5q1 -37 9.5 -78.5t24.5 -81.5t43.5 -66t61.5 -26 q101 0 131 197q21 142 11 513q0 21 -2 83q-10 289 30 469q-22 -3 -82 -8.5t-82 -10.5q-101 -16 -180.5 -70.5t-79.5 -137.5q0 -47 23 -82t57 -35q45 0 71.5 47.5t24.5 118.5q-12 -15 -33.5 -14t-27.5 16q-12 28 3 47.5t36 19.5q58 0 61 -98q3 -69 -37.5 -126.5t-95.5 -57.5 q-69 0 -103 45t-34 108zM520 1299q-10 10 0 12q20 5 65.5 49t49.5 55q4 9 13 4.5t11 -10.5q13 -39 60 -74q11 -8 -3.5 -25t-35.5 -28.5t-25 -7.5q-33 38 -37 76q-11 -18 -34.5 -39.5t-40.5 -24.5q-11 0 -23 13zM596 1092q71 17 68 47q0 41 -27 41q-31 0 -41 -88z" />
<glyph unicode="&#xcf;" horiz-adv-x="700" d="M0 780q0 109 82.5 177.5t218.5 95.5q23 4 54.5 8t74 7.5t66.5 6.5q48 150 133 150q36 0 53.5 -25.5t19.5 -60.5q0 -72 -112 -103q-3 -48 -3 -119t1.5 -124.5t4 -144.5t3.5 -128q7 -232 -24.5 -412t-98.5 -282t-160 -102q-60 0 -103.5 45t-63 111t-21.5 145q-3 118 38 206 t107 88q39 0 64.5 -29t34.5 -65.5t10 -81.5q3 -79 -34.5 -134.5t-74.5 -55.5q-40 0 -53 33.5t10 58.5q23 28 41 5q17 -22 6 -49q-3 -8 -8 -13q30 0 55.5 47.5t24.5 111.5q-4 136 -76 136q-42 0 -72.5 -77.5t-27.5 -197.5q1 -37 9.5 -78.5t24.5 -81.5t43.5 -66t61.5 -26 q101 0 131 197q21 142 11 513q0 21 -2 83q-10 289 30 469q-22 -3 -82 -8.5t-82 -10.5q-101 -16 -180.5 -70.5t-79.5 -137.5q0 -47 23 -82t57 -35q45 0 71.5 47.5t24.5 118.5q-12 -15 -33.5 -14t-27.5 16q-12 28 3 47.5t36 19.5q58 0 61 -98q3 -69 -37.5 -126.5t-95.5 -57.5 q-69 0 -103 45t-34 108zM469 1354q9 29 33.5 44.5t50.5 6.5q22 -6 32.5 -27.5t4.5 -44.5t-32.5 -43t-49.5 -14q-27 6 -37.5 27t-1.5 51zM596 1092q71 17 68 47q0 41 -27 41q-31 0 -41 -88zM616 1354q9 29 33.5 44.5t50.5 6.5q22 -6 32.5 -27.5t4.5 -44.5t-32.5 -43 t-49.5 -14q-27 6 -37.5 27t-1.5 51z" />
<glyph unicode="&#xd0;" horiz-adv-x="999" d="M0 784q-4 95 38 186t111 156t158 104.5t176 39.5q218 0 333.5 -179.5t115.5 -496.5q0 -150 -35.5 -298.5t-95.5 -265t-147.5 -189t-184.5 -72.5q-104 0 -159 58t-58 138q-3 53 15.5 96.5t51.5 67.5q-22 100 -22 301q-48 0 -68 -4q-15 -2 -21 15.5t1 35.5t22 17 q10 -2 68 -2q3 94 10.5 198.5t14 169t6.5 68.5q-1 19 35.5 22t73 -8t36.5 -27q0 -11 -4.5 -70t-12.5 -164.5t-14 -188.5q48 0 60 2q13 1 18.5 -16.5t-0.5 -35t-20 -16.5q-4 0 -25.5 1t-38.5 1q-10 -131 -18 -285q34 -15 48 -54t0.5 -72t-48.5 -33q-63 0 -92 108 q-38 -45 -35 -125q3 -72 57.5 -114.5t122.5 -42.5q85 0 152 118.5t100 291t33 355.5q0 73 -2 130t-9 128t-19 124.5t-34.5 107.5t-52.5 88.5t-75 56t-101 21.5q-90 0 -189.5 -61t-167.5 -165t-63 -212q3 -68 26.5 -108t53.5 -40q25 0 38 35.5t11 71.5q-20 0 -32 23t-4.5 46 t34.5 23q57 0 53 -105q-2 -51 -30 -98t-72 -47q-50 0 -84.5 49.5t-38.5 140.5zM418 104q-6 -86 2 -86q20 0 18.5 32t-20.5 54z" />
<glyph unicode="&#xd1;" horiz-adv-x="983" d="M0 25q-3 118 38.5 206t108.5 88q29 0 51 -16t34 -43t17.5 -56t6.5 -61q1 -80 -36.5 -135t-74.5 -55q-39 0 -52 33.5t9 58.5q24 28 41 5q17 -22 6 -49q-3 -8 -8 -13q30 0 55.5 47.5t24.5 111.5q-4 136 -76 136q-42 0 -72.5 -77.5t-27.5 -197.5q2 -38 10.5 -79t24 -81 t43 -66t61.5 -26q101 0 131 197q21 142 11 513q0 21 -2 83l-5 213q-122 199 -122 342q0 42 21 70t50 28q47 0 83.5 -48.5t59 -132.5t36 -172.5t20.5 -193.5q73 -96 254 -313q-6 181 17 362.5t71 336t131.5 251.5t187.5 97q49 0 101 -34.5t78 -78.5q24 -39 1.5 -76.5 t-55.5 -25.5q-30 11 -40 37t-1.5 48t23.5 25q-11 22 -42 47t-75 25q-80 0 -138 -124t-85 -315t-37.5 -380t-5.5 -359q102 -140 102 -190q0 -36 -20.5 -66.5t-52.5 -30.5q-37 0 -69 29.5t-48 91.5q-28 110 -37 230q-171 198 -256 305q0 -19 2 -27q6 -232 -25.5 -412t-99 -282 t-160.5 -102q-60 0 -103.5 45t-63 111t-21.5 145zM233 1108q0 -91 84 -236q-2 141 -12.5 210t-40.5 69q-31 0 -31 -43zM500 1198q0 24 18 49.5t51 28.5q26 3 46.5 -22t43.5 -23q13 1 24 12.5t11 16.5t8.5 5.5t8.5 -5.5q0 -27 -20.5 -62t-59.5 -39q-24 -3 -39.5 11.5 t-26.5 29t-24 12.5q-18 -3 -29 -22q-1 -2 -4 -2.5t-5.5 2t-2.5 8.5zM856 82q3 -56 10 -102q7 -35 23 -35q18 0 18 30q0 37 -51 107z" />
<glyph unicode="&#xd2;" horiz-adv-x="1067" d="M0 696q0 120 57.5 202.5t112.5 82.5q47 0 27 -78q-7 -27 -31.5 -33t-44.5 7q-3 -2 -8.5 -5.5t-19.5 -18t-24.5 -34t-19 -54t-8.5 -75.5q0 -109 53 -193.5t131 -113.5q1 146 30 275t77.5 222.5t110 161t130 101t136.5 33.5q76 0 117.5 -59t41.5 -144q0 -60 -14 -115 q140 -147 129 -438q-7 -157 -61.5 -299t-141 -229t-180.5 -87q-147 0 -256.5 145.5t-118.5 381.5q-98 25 -161.5 118t-63.5 246zM403 303q0 -208 50 -326t145 -118q52 0 92 40.5t63 101.5t37.5 142.5t19.5 152.5t5 144q0 147 -20 256q-63 -128 -166 -225t-226 -131v-37z M406 389q116 40 216 150t152 247q-49 148 -141 88q-12 -8 -12 10q1 29 22 50q13 12 27 12q73 0 135 -45q8 58 8 84q0 68 -31 109t-82 41t-100 -50.5t-90.5 -142.5t-69.5 -236t-34 -317zM575 1397q-8 9 9 23.5t40.5 22.5t30.5 1q17 -16 30 -65t11 -72q-1 -12 -8 -16.5 t-15 -2.5t-11 8q-56 70 -87 101z" />
<glyph unicode="&#xd3;" horiz-adv-x="1067" d="M0 696q0 120 57.5 202.5t112.5 82.5q47 0 27 -78q-7 -27 -31.5 -33t-44.5 7q-3 -2 -8.5 -5.5t-19.5 -18t-24.5 -34t-19 -54t-8.5 -75.5q0 -109 53 -193.5t131 -113.5q1 146 30 275t77.5 222.5t110 161t130 101t136.5 33.5q76 0 117.5 -59t41.5 -144q0 -60 -14 -115 q140 -147 129 -438q-7 -157 -61.5 -299t-141 -229t-180.5 -87q-147 0 -256.5 145.5t-118.5 381.5q-98 25 -161.5 118t-63.5 246zM403 303q0 -208 50 -326t145 -118q52 0 92 40.5t63 101.5t37.5 142.5t19.5 152.5t5 144q0 147 -20 256q-63 -128 -166 -225t-226 -131v-37z M406 389q116 40 216 150t152 247q-49 148 -141 88q-12 -8 -12 10q1 29 22 50q13 12 27 12q73 0 135 -45q8 58 8 84q0 68 -31 109t-82 41t-100 -50.5t-90.5 -142.5t-69.5 -236t-34 -317zM637 1325q-2 22 12 71.5t31 65.5q6 7 29 -1t40 -22.5t9 -23.5q-74 -83 -84 -100 q-6 -11 -21 -9t-16 19z" />
<glyph unicode="&#xd4;" horiz-adv-x="1067" d="M0 696q0 120 57.5 202.5t112.5 82.5q47 0 27 -78q-7 -27 -31.5 -33t-44.5 7q-3 -2 -8.5 -5.5t-19.5 -18t-24.5 -34t-19 -54t-8.5 -75.5q0 -109 53 -193.5t131 -113.5q1 146 30 275t77.5 222.5t110 161t130 101t136.5 33.5q76 0 117.5 -59t41.5 -144q0 -60 -14 -115 q140 -147 129 -438q-7 -157 -61.5 -299t-141 -229t-180.5 -87q-147 0 -256.5 145.5t-118.5 381.5q-98 25 -161.5 118t-63.5 246zM403 303q0 -208 50 -326t145 -118q52 0 92 40.5t63 101.5t37.5 142.5t19.5 152.5t5 144q0 147 -20 256q-63 -128 -166 -225t-226 -131v-37z M406 389q116 40 216 150t152 247q-49 148 -141 88q-12 -8 -12 10q1 29 22 50q13 12 27 12q73 0 135 -45q8 58 8 84q0 68 -31 109t-82 41t-100 -50.5t-90.5 -142.5t-69.5 -236t-34 -317zM607 1277q-8 9 1 11q20 5 65.5 49.5t49.5 55.5q4 9 13.5 4t11.5 -11q12 -38 59 -73 q11 -8 -3.5 -25t-35.5 -29t-25 -8q-32 37 -36 76q-10 -17 -34.5 -38.5t-41.5 -24.5q-12 0 -24 13z" />
<glyph unicode="&#xd5;" horiz-adv-x="1067" d="M0 696q0 120 57.5 202.5t112.5 82.5q47 0 27 -78q-7 -27 -31.5 -33t-44.5 7q-3 -2 -8.5 -5.5t-19.5 -18t-24.5 -34t-19 -54t-8.5 -75.5q0 -109 53 -193.5t131 -113.5q1 146 30 275t77.5 222.5t110 161t130 101t136.5 33.5q76 0 117.5 -59t41.5 -144q0 -60 -14 -115 q140 -147 129 -438q-7 -157 -61.5 -299t-141 -229t-180.5 -87q-147 0 -256.5 145.5t-118.5 381.5q-98 25 -161.5 118t-63.5 246zM403 303q0 -208 50 -326t145 -118q52 0 92 40.5t63 101.5t37.5 142.5t19.5 152.5t5 144q0 147 -20 256q-63 -128 -166 -225t-226 -131v-37z M406 389q116 40 216 150t152 247q-49 148 -141 88q-12 -8 -12 10q1 29 22 50q13 12 27 12q73 0 135 -45q8 58 8 84q0 68 -31 109t-82 41t-100 -50.5t-90.5 -142.5t-69.5 -236t-34 -317zM600 1298q0 24 18.5 49.5t51.5 28.5q26 3 46.5 -22t43.5 -23q13 1 24 12.5t11 16.5 t8 5.5t8 -5.5q0 -27 -20.5 -61.5t-59.5 -38.5q-24 -3 -39.5 11.5t-26.5 29t-24 12.5q-17 -3 -29 -23q-1 -2 -4 -2.5t-5.5 2t-2.5 8.5z" />
<glyph unicode="&#xd6;" horiz-adv-x="1067" d="M0 696q0 120 57.5 202.5t112.5 82.5q47 0 27 -78q-7 -27 -31.5 -33t-44.5 7q-3 -2 -8.5 -5.5t-19.5 -18t-24.5 -34t-19 -54t-8.5 -75.5q0 -109 53 -193.5t131 -113.5q1 146 30 275t77.5 222.5t110 161t130 101t136.5 33.5q76 0 117.5 -59t41.5 -144q0 -60 -14 -115 q140 -147 129 -438q-7 -157 -61.5 -299t-141 -229t-180.5 -87q-147 0 -256.5 145.5t-118.5 381.5q-98 25 -161.5 118t-63.5 246zM403 303q0 -208 50 -326t145 -118q52 0 92 40.5t63 101.5t37.5 142.5t19.5 152.5t5 144q0 147 -20 256q-63 -128 -166 -225t-226 -131v-37z M406 389q116 40 216 150t152 247q-49 148 -141 88q-12 -8 -12 10q1 29 22 50q13 12 27 12q73 0 135 -45q8 58 8 84q0 68 -31 109t-82 41t-100 -50.5t-90.5 -142.5t-69.5 -236t-34 -317zM561 1352q9 29 33.5 44.5t50.5 6.5q22 -6 32.5 -27.5t4.5 -44.5t-32.5 -43t-49.5 -14 q-27 6 -37.5 27t-1.5 51zM709 1352q9 29 33.5 44.5t50.5 6.5q21 -6 31.5 -27t4.5 -45q-6 -23 -32 -43t-49 -14q-27 6 -37.5 27t-1.5 51z" />
<glyph unicode="&#xd8;" horiz-adv-x="1067" d="M0 696q0 121 57 203t113 82q47 0 27 -78q-7 -27 -31.5 -33t-44.5 7q-3 -2 -8.5 -5.5t-19.5 -18t-24.5 -34t-19 -54t-8.5 -75.5q0 -110 52.5 -194t131.5 -113q1 146 29.5 275t77 222.5t110.5 161t130.5 101t136.5 33.5q41 0 75 -21l41 143q3 13 18 0q18 -15 13 -30 l-41 -138q53 -59 53 -157q0 -47 -14 -115q138 -149 127 -438q-6 -157 -60 -299t-141 -229t-182 -87q-79 0 -152 48l-40 -146q-2 -4 -10.5 -3.5t-17 7t-5.5 13.5l45 149q-83 66 -135 184.5t-58 274.5q-98 25 -161.5 118t-63.5 246zM403 303q0 -196 46 -317l126 440 q-81 -62 -172 -86v-37zM406 389q101 36 196 131q83 286 105 365q-31 16 -74 -11q-12 -8 -12 10q0 29 22 50q12 12 27 12q29 0 53 -8l47 168q-29 29 -70 29q-51 0 -100.5 -50.5t-91 -142.5t-69.5 -236.5t-33 -316.5zM471 -59q48 -82 125 -82q65 0 111 58.5t68 154t31 185 t9 183.5q0 147 -20 256q-66 -138 -172 -231zM655 580q75 93 119 206q-15 45 -37 74zM756 928q29 -15 49 -27q6 43 6 84q0 50 -14 82z" />
<glyph unicode="&#xd9;" horiz-adv-x="1124" d="M10 856q29 168 128 270q89 91 204 91q119 0 196.5 -74.5t105.5 -193.5t18 -273q-5 -61 -17.5 -192t-19 -216.5t-11 -181.5t4 -145.5t30.5 -49.5q40 0 102 96t130 251q-17 160 -7.5 321t33.5 290.5t69.5 210.5t102.5 81q40 0 61 -34t21 -91q0 -74 -40.5 -235.5 t-104.5 -338.5q-3 -160 5.5 -300.5t30 -265t65 -197t104.5 -72.5q31 0 58.5 15.5t39.5 29t20 26.5q-15 3 -23 25t2 48.5t40 37.5q20 8 38.5 -7.5t23 -41t-10.5 -53.5q-25 -44 -76.5 -78.5t-101.5 -34.5q-69 0 -127 44.5t-99.5 123.5t-69.5 178.5t-44 218.5 q-155 -327 -266 -327q-137 0 -157 316q-9 156 13 529q3 43 4 66q7 128 -2.5 225t-41.5 158t-85 61q-146 0 -223.5 -173.5t-44 -347t155.5 -173.5q34 0 61.5 26t43.5 66t24.5 81.5t9.5 78.5q7 274 -86 274q-39 0 -63.5 -39t-26.5 -96q-1 -64 24.5 -111.5t55.5 -47.5 q-18 20 -7 50q10 28 31 20q9 -3 17 -13q22 -25 8 -58.5t-53 -33.5q-37 0 -74.5 55.5t-34.5 134.5q2 68 35 121t98 53q62 0 93 -85t28 -208q-2 -80 -21 -145.5t-62 -110.5t-103 -45q-142 0 -205 131q-57 120 -27 285zM700 1307q-8 9 9 23.5t40.5 22.5t30.5 1q17 -16 30 -65 t11 -72q-1 -12 -8.5 -16.5t-15.5 -2.5t-11 8q-60 75 -86 101zM1022 621q84 267 84 399q0 36 -3 50.5t-13 14.5t-23 -60.5t-25.5 -169.5t-19.5 -234z" />
<glyph unicode="&#xda;" horiz-adv-x="1124" d="M10 856q29 168 128 270q89 91 204 91q119 0 196.5 -74.5t105.5 -193.5t18 -273q-5 -61 -17.5 -192t-19 -216.5t-11 -181.5t4 -145.5t30.5 -49.5q40 0 102 96t130 251q-17 160 -7.5 321t33.5 290.5t69.5 210.5t102.5 81q40 0 61 -34t21 -91q0 -74 -40.5 -235.5 t-104.5 -338.5q-3 -160 5.5 -300.5t30 -265t65 -197t104.5 -72.5q31 0 58.5 15.5t39.5 29t20 26.5q-15 3 -23 25t2 48.5t40 37.5q20 8 38.5 -7.5t23 -41t-10.5 -53.5q-25 -44 -76.5 -78.5t-101.5 -34.5q-69 0 -127 44.5t-99.5 123.5t-69.5 178.5t-44 218.5 q-155 -327 -266 -327q-137 0 -157 316q-9 156 13 529q3 43 4 66q7 128 -2.5 225t-41.5 158t-85 61q-146 0 -223.5 -173.5t-44 -347t155.5 -173.5q34 0 61.5 26t43.5 66t24.5 81.5t9.5 78.5q7 274 -86 274q-39 0 -63.5 -39t-26.5 -96q-1 -64 24.5 -111.5t55.5 -47.5 q-18 20 -7 50q10 28 31 20q9 -3 17 -13q22 -25 8 -58.5t-53 -33.5q-37 0 -74.5 55.5t-34.5 134.5q2 68 35 121t98 53q62 0 93 -85t28 -208q-2 -80 -21 -145.5t-62 -110.5t-103 -45q-142 0 -205 131q-57 120 -27 285zM745 1157q-2 22 12 71.5t31 65.5q6 7 29 -1t40 -22.5 t9 -23.5q-74 -83 -84 -100q-6 -11 -21 -9t-16 19zM1022 621q84 267 84 399q0 36 -3 50.5t-13 14.5t-23 -60.5t-25.5 -169.5t-19.5 -234z" />
<glyph unicode="&#xdb;" horiz-adv-x="1124" d="M10 856q29 168 128 270q89 91 204 91q119 0 196.5 -74.5t105.5 -193.5t18 -273q-5 -61 -17.5 -192t-19 -216.5t-11 -181.5t4 -145.5t30.5 -49.5q40 0 102 96t130 251q-17 160 -7.5 321t33.5 290.5t69.5 210.5t102.5 81q40 0 61 -34t21 -91q0 -74 -40.5 -235.5 t-104.5 -338.5q-3 -160 5.5 -300.5t30 -265t65 -197t104.5 -72.5q31 0 58.5 15.5t39.5 29t20 26.5q-15 3 -23 25t2 48.5t40 37.5q20 8 38.5 -7.5t23 -41t-10.5 -53.5q-25 -44 -76.5 -78.5t-101.5 -34.5q-69 0 -127 44.5t-99.5 123.5t-69.5 178.5t-44 218.5 q-155 -327 -266 -327q-137 0 -157 316q-9 156 13 529q3 43 4 66q7 128 -2.5 225t-41.5 158t-85 61q-146 0 -223.5 -173.5t-44 -347t155.5 -173.5q34 0 61.5 26t43.5 66t24.5 81.5t9.5 78.5q7 274 -86 274q-39 0 -63.5 -39t-26.5 -96q-1 -64 24.5 -111.5t55.5 -47.5 q-18 20 -7 50q10 28 31 20q9 -3 17 -13q22 -25 8 -58.5t-53 -33.5q-37 0 -74.5 55.5t-34.5 134.5q2 68 35 121t98 53q62 0 93 -85t28 -208q-2 -80 -21 -145.5t-62 -110.5t-103 -45q-142 0 -205 131q-57 120 -27 285zM706 1227q-9 10 1 12q20 5 65 49t49 55q4 9 13.5 4.5 t11.5 -10.5q12 -38 59 -73q11 -8 -3 -25t-35 -29t-25 -8q-33 38 -37 76q-11 -18 -35 -39.5t-41 -24.5q-11 0 -23 13zM1022 621q84 267 84 399q0 36 -3 50.5t-13 14.5t-23 -60.5t-25.5 -169.5t-19.5 -234z" />
<glyph unicode="&#xdc;" horiz-adv-x="1124" d="M10 856q29 168 128 270q89 91 204 91q119 0 196.5 -74.5t105.5 -193.5t18 -273q-5 -61 -17.5 -192t-19 -216.5t-11 -181.5t4 -145.5t30.5 -49.5q40 0 102 96t130 251q-17 160 -7.5 321t33.5 290.5t69.5 210.5t102.5 81q40 0 61 -34t21 -91q0 -74 -40.5 -235.5 t-104.5 -338.5q-3 -160 5.5 -300.5t30 -265t65 -197t104.5 -72.5q31 0 58.5 15.5t39.5 29t20 26.5q-15 3 -23 25t2 48.5t40 37.5q20 8 38.5 -7.5t23 -41t-10.5 -53.5q-25 -44 -76.5 -78.5t-101.5 -34.5q-69 0 -127 44.5t-99.5 123.5t-69.5 178.5t-44 218.5 q-155 -327 -266 -327q-137 0 -157 316q-9 156 13 529q3 43 4 66q7 128 -2.5 225t-41.5 158t-85 61q-146 0 -223.5 -173.5t-44 -347t155.5 -173.5q34 0 61.5 26t43.5 66t24.5 81.5t9.5 78.5q7 274 -86 274q-39 0 -63.5 -39t-26.5 -96q-1 -64 24.5 -111.5t55.5 -47.5 q-18 20 -7 50q10 28 31 20q9 -3 17 -13q22 -25 8 -58.5t-53 -33.5q-37 0 -74.5 55.5t-34.5 134.5q2 68 35 121t98 53q62 0 93 -85t28 -208q-2 -80 -21 -145.5t-62 -110.5t-103 -45q-142 0 -205 131q-57 120 -27 285zM659 1251q9 29 33.5 45t50.5 7q22 -6 32.5 -27.5 t4.5 -44.5t-32.5 -43t-49.5 -14q-27 6 -37.5 26.5t-1.5 50.5zM807 1251q9 29 33.5 45t50.5 7q22 -6 32.5 -27.5t4.5 -44.5t-32.5 -43t-49.5 -14q-27 6 -37.5 26.5t-1.5 50.5zM1022 621q84 267 84 399q0 36 -3 50.5t-13 14.5t-23 -60.5t-25.5 -169.5t-19.5 -234z" />
<glyph unicode="&#xdd;" horiz-adv-x="1116" d="M8 863q29 171 124 271q78 83 181 83q119 0 198.5 -74t108.5 -195t11 -272q-11 -106 -12 -184.5t6 -125t22.5 -74t33.5 -37t42 -9.5q65 0 127 143q-63 748 96 748q41 0 63.5 -32.5t22.5 -88.5q0 -166 -57 -400q49 -300 51 -489q4 -227 -87.5 -361.5t-240.5 -134.5 q-78 0 -131 59.5t-53 172.5q0 115 47.5 176t116.5 61q51 0 78.5 -44t25.5 -105q-1 -59 -31 -100t-57 -41q-26 0 -42 15.5t-13.5 33.5t23.5 26q18 6 30 -13.5t0 -39.5q20 0 36.5 38t16.5 81q0 54 -19.5 84.5t-49.5 30.5q-48 0 -80.5 -54.5t-32.5 -152.5q0 -81 41 -135t96 -54 q67 0 107 39t52.5 104t16 150t-3.5 176q0 23 -14 156q-70 -127 -158 -127q-123 0 -184 135t-47 420q7 92 4 173t-15 141t-45 95t-85 35q-146 0 -220.5 -173.5t-38 -347t159.5 -173.5q62 0 100 64t40 118q2 71 -21.5 116.5t-73.5 45.5q0 -41 -36 -61q-31 -18 -48 3 q-4 5 -6 11q-9 31 13.5 56.5t87.5 25.5q61 0 96 -57.5t33 -122.5q-2 -59 -22 -110t-63.5 -86.5t-103.5 -35.5q-131 0 -190 131q-55 122 -27 292zM694 1167q-2 22 12 72t31 66q6 7 29 -1t40 -23t9 -24q-74 -83 -84 -100q-6 -11 -21 -9t-16 19zM921.5 999.5q0.5 -25.5 5.5 -67 t10.5 -78.5t14.5 -92q25 164 25 258q0 32 -7.5 51t-17.5 19q-12 0 -19.5 -10t-9.5 -32.5t-1.5 -48z" />
<glyph unicode="&#xdf;" horiz-adv-x="577" d="M-311 -252q0 20 16 22q13 -1 14 -10q0 -11 4 -32t14.5 -52.5t36 -51.5t62.5 -17q31 3 55 28.5t40.5 83t27 104.5t18.5 142t11 141.5t8 153.5q4 77 6 113q6 106 21 202t43 187t66.5 157t94 106t123.5 40q63 0 112.5 -43t49.5 -111q0 -40 -25.5 -86.5t-62 -89.5t-73 -86.5 t-62 -91t-25.5 -88.5q0 -33 26 -71.5t63 -75t74 -76t63 -87.5t26 -96q0 -87 -69 -137.5t-164 -50.5q-61 0 -105.5 38t-44.5 95q0 22 33 20q29 -1 35 -15q1 -2 0 -5q-11 -11 -7 -31.5t28 -41.5t52 -21q174 0 2 340q-63 123 -63 219q0 45 20.5 94t49.5 93t58.5 88.5t50 95.5 t20.5 98q0 40 -16 63t-44 23q-163 0 -211 -651q-57 -803 -317 -803q-39 0 -68 22.5t-42.5 55t-19 57t-5.5 39.5z" />
<glyph unicode="&#xe0;" d="M-10 309q36 228 237 228q43 0 66.5 -34t13.5 -65q-5 -19 -25.5 -30t-39.5 2q-14 9 -10.5 28t22.5 31q9 5 -17 19q-20 10 -36 10q-35 0 -58.5 -113t-20.5 -226.5t32 -113.5q52 0 106 242l12 82q2 8 17 9.5t35.5 -3t40 -11.5t32 -16.5t9.5 -17.5q-14 -43 -25 -200t2 -159 q15 0 44.5 59t61 142t51 138t27.5 81q3 12 17 7q18 -8 12 -33q-5 -20 -14.5 -50t-28 -86t-41 -107t-48.5 -100t-56 -78.5t-58 -29.5q-98 0 -102 203q-41 -119 -90 -119q-92 0 -140.5 86t-27.5 225zM121 707q-8 9 9 23.5t40.5 22.5t30.5 1q17 -16 30 -65.5t11 -72.5 q-1 -17 -16 -19t-19 9q-60 75 -86 101z" />
<glyph unicode="&#xe1;" d="M-10 309q36 228 237 228q43 0 66.5 -34t13.5 -65q-5 -19 -25.5 -30t-39.5 2q-14 9 -10.5 28t22.5 31q9 5 -17 19q-20 10 -36 10q-35 0 -58.5 -113t-20.5 -226.5t32 -113.5q52 0 106 242l12 82q2 8 17 9.5t35.5 -3t40 -11.5t32 -16.5t9.5 -17.5q-14 -43 -25 -200t2 -159 q15 0 44.5 59t61 142t51 138t27.5 81q3 12 17 7q18 -8 12 -33q-5 -20 -14.5 -50t-28 -86t-41 -107t-48.5 -100t-56 -78.5t-58 -29.5q-98 0 -102 203q-41 -119 -90 -119q-92 0 -140.5 86t-27.5 225zM207 616q-2 22 12 72t31 66q6 7 29 -1t40 -22.5t9 -23.5q-72 -81 -84 -101 q-6 -11 -21 -9t-16 19z" />
<glyph unicode="&#xe2;" d="M-10 309q36 228 237 228q43 0 66.5 -34t13.5 -65q-5 -19 -25.5 -30t-39.5 2q-14 9 -10.5 28t22.5 31q9 5 -17 19q-20 10 -36 10q-35 0 -58.5 -113t-20.5 -226.5t32 -113.5q52 0 106 242l12 82q2 8 17 9.5t35.5 -3t40 -11.5t32 -16.5t9.5 -17.5q-14 -43 -25 -200t2 -159 q15 0 44.5 59t61 142t51 138t27.5 81q3 12 17 7q18 -8 12 -33q-5 -20 -14.5 -50t-28 -86t-41 -107t-48.5 -100t-56 -78.5t-58 -29.5q-98 0 -102 203q-41 -119 -90 -119q-92 0 -140.5 86t-27.5 225zM122 621q-9 10 1 12q20 5 65.5 49t49.5 55q4 9 13 4.5t11 -10.5 q13 -39 60 -74q11 -8 -3.5 -25t-35.5 -28.5t-25 -7.5q-33 38 -37 76q-11 -18 -35 -39.5t-41 -24.5q-11 0 -23 13z" />
<glyph unicode="&#xe3;" d="M-10 309q36 228 237 228q43 0 66.5 -34t13.5 -65q-5 -19 -25.5 -30t-39.5 2q-14 9 -10.5 28t22.5 31q9 5 -17 19q-20 10 -36 10q-35 0 -58.5 -113t-20.5 -226.5t32 -113.5q52 0 106 242l12 82q2 8 17 9.5t35.5 -3t40 -11.5t32 -16.5t9.5 -17.5q-14 -43 -25 -200t2 -159 q15 0 44.5 59t61 142t51 138t27.5 81q3 12 17 7q18 -8 12 -33q-5 -20 -14.5 -50t-28 -86t-41 -107t-48.5 -100t-56 -78.5t-58 -29.5q-98 0 -102 203q-41 -119 -90 -119q-92 0 -140.5 86t-27.5 225zM123 641q0 24 18.5 49.5t51.5 28.5q26 3 46.5 -22t43.5 -23q13 1 23.5 12 t10.5 16t8.5 5.5t8.5 -5.5q0 -27 -20.5 -61.5t-59.5 -38.5q-24 -3 -39.5 11.5t-26.5 29t-24 12.5q-18 -3 -29 -22q-1 -2 -4 -2.5t-5.5 2t-2.5 8.5z" />
<glyph unicode="&#xe4;" d="M-10 309q36 228 237 228q43 0 66.5 -34t13.5 -65q-5 -19 -25.5 -30t-39.5 2q-14 9 -10.5 28t22.5 31q9 5 -17 19q-20 10 -36 10q-35 0 -58.5 -113t-20.5 -226.5t32 -113.5q52 0 106 242l12 82q2 8 17 9.5t35.5 -3t40 -11.5t32 -16.5t9.5 -17.5q-14 -43 -25 -200t2 -159 q15 0 44.5 59t61 142t51 138t27.5 81q3 12 17 7q18 -8 12 -33q-5 -20 -14.5 -50t-28 -86t-41 -107t-48.5 -100t-56 -78.5t-58 -29.5q-98 0 -102 203q-41 -119 -90 -119q-92 0 -140.5 86t-27.5 225zM113 682q9 29 33.5 44.5t50.5 6.5q22 -6 32 -26.5t4 -44.5t-32 -44t-49 -14 q-27 6 -37.5 27t-1.5 51zM260 682q9 29 33.5 44.5t50.5 6.5q22 -6 32.5 -27t4.5 -44t-32.5 -43.5t-49.5 -14.5q-27 6 -37.5 27t-1.5 51z" />
<glyph unicode="&#xe5;" d="M-10 309q36 228 237 228q43 0 66.5 -34t13.5 -65q-5 -19 -25.5 -30t-39.5 2q-14 9 -10.5 28t22.5 31q9 5 -17 19q-20 10 -36 10q-35 0 -58.5 -113t-20.5 -226.5t32 -113.5q52 0 106 242l12 82q2 8 17 9.5t35.5 -3t40 -11.5t32 -16.5t9.5 -17.5q-14 -43 -25 -200t2 -159 q15 0 44.5 59t61 142t51 138t27.5 81q3 12 17 7q18 -8 12 -33q-5 -20 -14.5 -50t-28 -86t-41 -107t-48.5 -100t-56 -78.5t-58 -29.5q-98 0 -102 203q-41 -119 -90 -119q-92 0 -140.5 86t-27.5 225zM141 676q0 44 29 65t61 21t61.5 -21t29.5 -65q0 -40 -25.5 -62t-65.5 -22 t-65 22t-25 62zM211 678q-4 -66 16 -66q18 -3 25 64q4 31 1.5 49t-17.5 18q-17 1 -22 -21q-1 -10 -3 -44z" />
<glyph unicode="&#xe6;" horiz-adv-x="737" d="M-10 307q36 228 237 228q21 0 32.5 -12t11.5 -32.5t-2.5 -37.5t-8.5 -35q-7 -18 -26.5 -28.5t-40.5 1.5q-13 9 -9 28.5t23 31.5q9 6 10 26t-16 21q-35 0 -58.5 -113t-20.5 -226.5t32 -113.5q32 0 62 86.5t48 177.5q10 142 72 242t162 100q92 0 115 -92q22 -86 -21 -191 q-42 -102 -112 -135q-28 -13 -56 -12q-2 -110 15.5 -184t52.5 -74q38 0 85 60t86 144.5t62 141t31 82.5q5 12 17 -1q15 -17 9 -42q-6 -22 -20.5 -64t-44 -110t-62.5 -125t-78.5 -99t-89.5 -42q-92 0 -147.5 76.5t-71.5 195.5q-52 -182 -110 -182q-92 0 -140.5 86t-27.5 223z M426 262q20 10 40 49.5t33 89t21 98t6 81t-14 32.5q-32 0 -56.5 -107.5t-29.5 -242.5z" />
<glyph unicode="&#xe7;" horiz-adv-x="454" d="M-4.5 170q-9.5 109 10 218.5t84.5 186t154 76.5q83 0 115.5 -72.5t7.5 -164.5q-14 -52 -46 -61.5t-50.5 20.5t-0.5 73q14 36 19.5 66t3.5 47.5t-8.5 30t-14 17.5t-14.5 5q-28 0 -53.5 -66.5t-38 -161.5t-15 -190.5t16 -162t55.5 -66.5q39 0 84.5 60.5t81 142.5t57 141.5 t27.5 81.5q5 12 18 -1q17 -17 11 -42q-7 -27 -19 -64.5t-40.5 -108.5t-59 -126.5t-75.5 -98t-89 -42.5q-93 0 -152.5 76.5t-69 185.5zM147 -121q1 1 14 25.5t15 27.5q4 6 20 -9q5 -7 3 -9t-7 -8.5t-12 -16.5t-14 -18q16 18 43 18t44 -14t17 -35q0 -25 -20 -41t-49 -16 q-31 0 -51 20q-3 5 -1 9.5t6 8.5t5 3q6 -19 22 -19q25 0 25 33q0 27 -21 27q-4 0 -8 -2.5t-8 -7t-6 -5.5q-8 -5 -12.5 8t-4.5 21z" />
<glyph unicode="&#xe8;" horiz-adv-x="464" d="M-7 200.5q-10 79.5 4 158.5t40.5 144.5t76 106.5t111.5 41q92 0 115 -91q22 -86 -22 -192q-42 -102 -112 -135q-26 -13 -54 -12q-2 -112 14.5 -184t52.5 -72q38 0 85.5 61t85 141.5t62 142.5t29.5 81q5 12 18 -1q17 -17 11 -42q-6 -22 -20.5 -64t-44 -110t-63 -125 t-79.5 -99t-90 -42q-64 0 -113 41t-73 106.5t-34 145zM123 823q-8 9 9 23.5t40.5 22.5t30.5 1q17 -16 30 -65t11 -72q-1 -17 -16 -19t-19 9q-56 70 -86 100zM152 264q21 10 41 49.5t33 88.5t20.5 97t5.5 80.5t-14 32.5q-31 0 -56 -107.5t-30 -240.5z" />
<glyph unicode="&#xe9;" horiz-adv-x="464" d="M-7 200.5q-10 79.5 4 158.5t40.5 144.5t76 106.5t111.5 41q92 0 115 -91q22 -86 -22 -192q-42 -102 -112 -135q-26 -13 -54 -12q-2 -112 14.5 -184t52.5 -72q38 0 85.5 61t85 141.5t62 142.5t29.5 81q5 12 18 -1q17 -17 11 -42q-6 -22 -20.5 -64t-44 -110t-63 -125 t-79.5 -99t-90 -42q-64 0 -113 41t-73 106.5t-34 145zM152 264q21 10 41 49.5t33 88.5t20.5 97t5.5 80.5t-14 32.5q-31 0 -56 -107.5t-30 -240.5zM164 741q-2 22 12 72t31 66q6 7 29 -1t40 -23t9 -24q-74 -83 -84 -100q-6 -11 -21 -9t-16 19z" />
<glyph unicode="&#xea;" horiz-adv-x="464" d="M-7 200.5q-10 79.5 4 158.5t40.5 144.5t76 106.5t111.5 41q92 0 115 -91q22 -86 -22 -192q-42 -102 -112 -135q-26 -13 -54 -12q-2 -112 14.5 -184t52.5 -72q38 0 85.5 61t85 141.5t62 142.5t29.5 81q5 12 18 -1q17 -17 11 -42q-6 -22 -20.5 -64t-44 -110t-63 -125 t-79.5 -99t-90 -42q-64 0 -113 41t-73 106.5t-34 145zM129 707q-10 10 0 12q20 5 65.5 49t49.5 55q4 9 13 4.5t11 -10.5q13 -39 60 -74q11 -8 -3.5 -25t-35.5 -28.5t-25 -7.5q-33 38 -37 76q-11 -18 -34.5 -39.5t-40.5 -24.5q-11 0 -23 13zM152 264q21 10 41 49.5t33 88.5 t20.5 97t5.5 80.5t-14 32.5q-31 0 -56 -107.5t-30 -240.5z" />
<glyph unicode="&#xeb;" horiz-adv-x="464" d="M-7 200.5q-10 79.5 4 158.5t40.5 144.5t76 106.5t111.5 41q92 0 115 -91q22 -86 -22 -192q-42 -102 -112 -135q-26 -13 -54 -12q-2 -112 14.5 -184t52.5 -72q38 0 85.5 61t85 141.5t62 142.5t29.5 81q5 12 18 -1q17 -17 11 -42q-6 -22 -20.5 -64t-44 -110t-63 -125 t-79.5 -99t-90 -42q-64 0 -113 41t-73 106.5t-34 145zM86 760q9 29 33.5 44.5t50.5 6.5q22 -6 32.5 -27.5t4.5 -44.5t-32.5 -43t-49.5 -14q-27 6 -37.5 27t-1.5 51zM152 264q21 10 41 49.5t33 88.5t20.5 97t5.5 80.5t-14 32.5q-31 0 -56 -107.5t-30 -240.5zM233 760 q9 29 33.5 44.5t50.5 6.5q22 -6 32.5 -27.5t4.5 -44.5t-32.5 -43t-49.5 -14q-27 6 -37.5 27t-1.5 51z" />
<glyph unicode="&#xec;" horiz-adv-x="276" d="M-6 651q-8 9 9 23.5t40.5 22.5t30.5 1q17 -16 30 -65t11 -72q-1 -17 -16 -19t-19 9q-56 70 -86 100zM-0.5 267q-3.5 84 10.5 171q3 24 41 35t73 0.5t30 -39.5q-12 -80 -17 -161t0.5 -139t22.5 -58q11 0 23 12.5t23 32t22.5 47.5t20 54t17.5 56.5t14.5 50.5t11 40.5 t5.5 21.5q4 13 16 7q14 -9 9 -33q-1 -3 -8 -32.5t-14 -56t-18.5 -65.5t-24.5 -71t-28 -63t-33 -50.5t-36 -24.5q-54 -15 -91 18t-51.5 98t-18 149z" />
<glyph unicode="&#xed;" horiz-adv-x="276" d="M-0.5 267q-3.5 84 10.5 171q3 24 41 35t73 0.5t30 -39.5q-12 -80 -17 -161t0.5 -139t22.5 -58q11 0 23 12.5t23 32t22.5 47.5t20 54t17.5 56.5t14.5 50.5t11 40.5t5.5 21.5q4 13 16 7q14 -9 9 -33q-1 -3 -8 -32.5t-14 -56t-18.5 -65.5t-24.5 -71t-28 -63t-33 -50.5 t-36 -24.5q-54 -15 -91 18t-51.5 98t-18 149zM53 567q-2 22 12 72t31 66q6 7 29 -1t40 -23t9 -24q-74 -83 -84 -100q-6 -11 -21 -9t-16 19z" />
<glyph unicode="&#xee;" horiz-adv-x="276" d="M-11 586q-9 10 1 12q20 5 65 49t49 55q4 9 13.5 4.5t11.5 -10.5q12 -38 59 -73q11 -8 -3 -25t-35 -29t-25 -8q-33 38 -37 76q-11 -18 -35 -39.5t-41 -24.5q-11 0 -23 13zM-0.5 267q-3.5 84 10.5 171q3 24 41 35t73 0.5t30 -39.5q-12 -80 -17 -161t0.5 -139t22.5 -58 q11 0 23 12.5t23 32t22.5 47.5t20 54t17.5 56.5t14.5 50.5t11 40.5t5.5 21.5q4 13 16 7q14 -9 9 -33q-1 -3 -8 -32.5t-14 -56t-18.5 -65.5t-24.5 -71t-28 -63t-33 -50.5t-36 -24.5q-54 -15 -91 18t-51.5 98t-18 149z" />
<glyph unicode="&#xef;" horiz-adv-x="276" d="M-37 629q9 29 33.5 44.5t50.5 6.5q22 -6 32.5 -27.5t4.5 -44.5t-32.5 -43t-49.5 -14q-27 6 -37.5 27t-1.5 51zM-0.5 267q-3.5 84 10.5 171q3 24 41 35t73 0.5t30 -39.5q-12 -80 -17 -161t0.5 -139t22.5 -58q11 0 23 12.5t23 32t22.5 47.5t20 54t17.5 56.5t14.5 50.5 t11 40.5t5.5 21.5q4 13 16 7q14 -9 9 -33q-1 -3 -8 -32.5t-14 -56t-18.5 -65.5t-24.5 -71t-28 -63t-33 -50.5t-36 -24.5q-54 -15 -91 18t-51.5 98t-18 149zM111 629q9 29 33.5 44.5t50.5 6.5q21 -6 31.5 -27t4.5 -45q-6 -23 -32 -43t-49 -14q-27 6 -37.5 27t-1.5 51z" />
<glyph unicode="&#xf0;" horiz-adv-x="458" d="M-20 309q14 96 66.5 149.5t121.5 53.5q66 0 111 -53q6 171 6 188v64q-99 -21 -127 -21q-6 0 -6.5 10t4.5 19.5t12 9.5q35 0 113 19q-5 64 -17 120t-26.5 93t-31 63.5t-30 38.5t-22.5 12t-14 10.5t-3 21.5t10 11q25 0 62.5 -20.5t79 -59t76.5 -107.5t47 -153q53 9 98 6 q8 -2 8 -28q-1 -16 -8 -15q-38 6 -94 -4q2 -18 2 -61q-3 -132 -24.5 -247.5t-52.5 -192t-67 -132.5t-68.5 -81t-58.5 -25q-92 0 -140 86t-27 225zM100 244q0 -78 12 -138.5t31 -60.5q47 0 80.5 91.5t48.5 264.5q-18 50 -59 50q-53 0 -83 -56.5t-30 -150.5z" />
<glyph unicode="&#xf1;" horiz-adv-x="528" d="M0 8q-1 81 1.5 243.5t2.5 233.5q0 12 29.5 17.5t59.5 -2.5t32 -29q7 -64 4 -152q63 232 131 232q46 0 75 -33.5t38 -87t11 -119t-5.5 -129.5t-12.5 -118.5t-9.5 -86.5t3.5 -34q29 0 98 188.5t87 259.5q5 12 18 6q16 -9 10 -32q-8 -34 -27 -99t-52.5 -162t-78 -165 t-85.5 -68q-43 0 -68.5 34.5t-30.5 89.5t-3.5 122.5t11.5 133.5t15.5 122.5t8 89.5t-10.5 35q-24 0 -64 -107.5t-65 -224.5q-7 -87 -21 -146q-2 -10 -27 -23t-49.5 -12.5t-25.5 23.5zM106 641q0 24 18.5 49.5t51.5 28.5q26 3 46.5 -22t43.5 -23q13 1 24 12t11 16t8 5.5 t8 -5.5q0 -27 -20 -61.5t-59 -38.5q-24 -3 -40 11.5t-27 29t-24 12.5q-16 -3 -28 -22q-1 -2 -4 -2.5t-6 2.5t-3 8z" />
<glyph unicode="&#xf2;" horiz-adv-x="425" d="M-13 234.5q-8 53.5 3 107t32.5 98t61.5 72t90 27.5q38 0 66 -22.5t28 -47.5q0 -18 -12.5 -33.5t-26 -21.5t-16.5 -2q-1 1 -2 24t-7.5 41.5t-21.5 18.5q-38 0 -56 -106.5t-7 -213t45 -106.5q30 0 49 104q-26 60 -12 146t55 86q57 0 77.5 -72t-5.5 -148q9 6 17.5 15 t15.5 17t15 21t13 21t11.5 23.5t10 22.5t10 24t8 21.5t7.5 21.5t6 18q5 13 19 6q16 -8 10 -32q-5 -20 -16.5 -49t-31 -67t-50.5 -70t-66 -44q-52 -98 -145 -98q-51 0 -89.5 27.5t-58 72t-27.5 98zM82 707q-8 9 9 23.5t40.5 22.5t30.5 1q17 -16 30 -65.5t11 -72.5 q-1 -17 -16 -19t-19 9q-60 75 -86 101z" />
<glyph unicode="&#xf3;" horiz-adv-x="425" d="M-13 234.5q-8 53.5 3 107t32.5 98t61.5 72t90 27.5q38 0 66 -22.5t28 -47.5q0 -18 -12.5 -33.5t-26 -21.5t-16.5 -2q-1 1 -2 24t-7.5 41.5t-21.5 18.5q-38 0 -56 -106.5t-7 -213t45 -106.5q30 0 49 104q-26 60 -12 146t55 86q57 0 77.5 -72t-5.5 -148q9 6 17.5 15 t15.5 17t15 21t13 21t11.5 23.5t10 22.5t10 24t8 21.5t7.5 21.5t6 18q5 13 19 6q16 -8 10 -32q-5 -20 -16.5 -49t-31 -67t-50.5 -70t-66 -44q-52 -98 -145 -98q-51 0 -89.5 27.5t-58 72t-27.5 98zM143 616q-2 22 12 72t31 66q6 7 29 -1t40 -22.5t9 -23.5q-72 -81 -84 -101 q-6 -11 -21 -9t-16 19z" />
<glyph unicode="&#xf4;" horiz-adv-x="425" d="M-13 234.5q-8 53.5 3 107t32.5 98t61.5 72t90 27.5q38 0 66 -22.5t28 -47.5q0 -18 -12.5 -33.5t-26 -21.5t-16.5 -2q-1 1 -2 24t-7.5 41.5t-21.5 18.5q-38 0 -56 -106.5t-7 -213t45 -106.5q30 0 49 104q-26 60 -12 146t55 86q57 0 77.5 -72t-5.5 -148q9 6 17.5 15 t15.5 17t15 21t13 21t11.5 23.5t10 22.5t10 24t8 21.5t7.5 21.5t6 18q5 13 19 6q16 -8 10 -32q-5 -20 -16.5 -49t-31 -67t-50.5 -70t-66 -44q-52 -98 -145 -98q-51 0 -89.5 27.5t-58 72t-27.5 98zM57 621q-10 10 0 12q20 5 65.5 49t49.5 55q4 9 13.5 4.5t11.5 -10.5 q13 -40 59 -74q11 -8 -3 -25t-35 -28.5t-25 -7.5q-33 38 -37 76q-11 -18 -35 -39.5t-41 -24.5q-11 0 -23 13z" />
<glyph unicode="&#xf5;" horiz-adv-x="425" d="M-13 234.5q-8 53.5 3 107t32.5 98t61.5 72t90 27.5q38 0 66 -22.5t28 -47.5q0 -18 -12.5 -33.5t-26 -21.5t-16.5 -2q-1 1 -2 24t-7.5 41.5t-21.5 18.5q-38 0 -56 -106.5t-7 -213t45 -106.5q30 0 49 104q-26 60 -12 146t55 86q57 0 77.5 -72t-5.5 -148q9 6 17.5 15 t15.5 17t15 21t13 21t11.5 23.5t10 22.5t10 24t8 21.5t7.5 21.5t6 18q5 13 19 6q16 -8 10 -32q-5 -20 -16.5 -49t-31 -67t-50.5 -70t-66 -44q-52 -98 -145 -98q-51 0 -89.5 27.5t-58 72t-27.5 98zM61 641q0 24 18.5 49.5t51.5 28.5q26 3 46.5 -22t43.5 -23q13 1 24 12t11 16 t8 5.5t8 -5.5q0 -27 -20 -61.5t-59 -38.5q-24 -3 -40 11.5t-27 29t-24 12.5q-16 -3 -28 -22q-1 -2 -4 -2.5t-6 2.5t-3 8z" />
<glyph unicode="&#xf6;" horiz-adv-x="425" d="M-13 234.5q-8 53.5 3 107t32.5 98t61.5 72t90 27.5q38 0 66 -22.5t28 -47.5q0 -18 -12.5 -33.5t-26 -21.5t-16.5 -2q-1 1 -2 24t-7.5 41.5t-21.5 18.5q-38 0 -56 -106.5t-7 -213t45 -106.5q30 0 49 104q-26 60 -12 146t55 86q57 0 77.5 -72t-5.5 -148q9 6 17.5 15 t15.5 17t15 21t13 21t11.5 23.5t10 22.5t10 24t8 21.5t7.5 21.5t6 18q5 13 19 6q16 -8 10 -32q-5 -20 -16.5 -49t-31 -67t-50.5 -70t-66 -44q-52 -98 -145 -98q-51 0 -89.5 27.5t-58 72t-27.5 98zM43 674q9 29 33.5 44.5t50.5 6.5q22 -6 32.5 -27.5t4.5 -44.5t-32.5 -43 t-49.5 -14q-27 6 -37.5 27t-1.5 51zM190 674q9 29 33.5 44.5t50.5 6.5q22 -6 32.5 -27.5t4.5 -44.5t-32.5 -43t-49.5 -14q-27 6 -37.5 27t-1.5 51z" />
<glyph unicode="&#xf8;" horiz-adv-x="425" d="M-13.5 271.5q1.5 65.5 20 126.5t64 101t105.5 40q16 0 33 -7l35 123q5 14 16.5 1.5t7.5 -27.5q-18 -55 -32 -109q34 -24 34 -51q0 -18 -13 -33.5t-26.5 -21.5t-15.5 -2q-1 2 -1.5 5.5t-1 9.5t-1.5 11q-12 -40 -40 -144.5t-44 -158.5q13 -65 39 -65t49 104q-26 60 -13 146 t54 86q38 0 61.5 -34.5t25 -83.5t-12.5 -102q9 6 17 15t15 17t14.5 20.5t12.5 21.5t11.5 24t10 22.5t9.5 23.5t8 21.5t7.5 21.5t6.5 18q5 13 19 6q16 -8 10 -32q-5 -20 -16.5 -49t-31 -67t-50 -70t-64.5 -44q-55 -98 -147 -98q-33 0 -60 12l-22 -82q-2 -8 -16 -1 q-12 6 -9 18l25 75q-45 29 -70 88t-23.5 124.5zM119 195q16 54 42.5 154.5t37.5 139.5q-7 7 -17 7q-36 0 -53.5 -98.5t-9.5 -202.5z" />
<glyph unicode="&#xf9;" horiz-adv-x="571" d="M0 254q3 75 8 126.5t12 104.5q1 7 17.5 12.5t39.5 6.5t45 -1.5t36 -10.5t12 -21q-12 -62 -21 -188t-6 -235t23 -109q21 0 77 204.5t56 235.5q0 13 38 23t73 3.5t30 -34.5q-7 -34 -12 -103t-2.5 -130.5t14.5 -61.5t26.5 15.5t28 42t26.5 57t25.5 65t21 60t16 49.5t8.5 26 q3 14 15 7q14 -9 9 -33q-9 -33 -22 -74.5t-38 -109.5t-56 -118t-60 -61q-58 -22 -105 51.5t-38 155.5q-4 -14 -12.5 -49.5t-15.5 -61.5t-17 -62t-20 -61t-21.5 -49t-24.5 -36.5t-26 -12.5q-49 0 -83.5 32.5t-50 89t-22.5 118.5t-4 137zM147 635q-8 9 9 23.5t40.5 22.5 t30.5 1q17 -16 30 -65t11 -72q-1 -17 -16 -19t-19 9q-56 70 -86 100z" />
<glyph unicode="&#xfa;" horiz-adv-x="571" d="M0 254q3 75 8 126.5t12 104.5q1 7 17.5 12.5t39.5 6.5t45 -1.5t36 -10.5t12 -21q-12 -62 -21 -188t-6 -235t23 -109q21 0 77 204.5t56 235.5q0 13 38 23t73 3.5t30 -34.5q-7 -34 -12 -103t-2.5 -130.5t14.5 -61.5t26.5 15.5t28 42t26.5 57t25.5 65t21 60t16 49.5t8.5 26 q3 14 15 7q14 -9 9 -33q-9 -33 -22 -74.5t-38 -109.5t-56 -118t-60 -61q-58 -22 -105 51.5t-38 155.5q-4 -14 -12.5 -49.5t-15.5 -61.5t-17 -62t-20 -61t-21.5 -49t-24.5 -36.5t-26 -12.5q-49 0 -83.5 32.5t-50 89t-22.5 118.5t-4 137zM211 539q-2 22 12 71.5t31 65.5 q6 7 29 -1t40 -22.5t9 -23.5q-72 -81 -84 -101q-4 -6 -12.5 -8t-16 2.5t-8.5 16.5z" />
<glyph unicode="&#xfb;" horiz-adv-x="571" d="M0 254q3 75 8 126.5t12 104.5q1 7 17.5 12.5t39.5 6.5t45 -1.5t36 -10.5t12 -21q-12 -62 -21 -188t-6 -235t23 -109q21 0 77 204.5t56 235.5q0 13 38 23t73 3.5t30 -34.5q-7 -34 -12 -103t-2.5 -130.5t14.5 -61.5t26.5 15.5t28 42t26.5 57t25.5 65t21 60t16 49.5t8.5 26 q3 14 15 7q14 -9 9 -33q-9 -33 -22 -74.5t-38 -109.5t-56 -118t-60 -61q-58 -22 -105 51.5t-38 155.5q-4 -14 -12.5 -49.5t-15.5 -61.5t-17 -62t-20 -61t-21.5 -49t-24.5 -36.5t-26 -12.5q-49 0 -83.5 32.5t-50 89t-22.5 118.5t-4 137zM152 554q-5 8 2 11q20 5 65 49.5 t49 55.5q4 9 13.5 4.5t11.5 -10.5q13 -40 59 -74q11 -8 -3 -25t-35 -29t-25 -8q-33 38 -37 76q-10 -17 -34.5 -38.5t-41.5 -24.5q-12 0 -24 13z" />
<glyph unicode="&#xfc;" horiz-adv-x="571" d="M0 254q3 75 8 126.5t12 104.5q1 7 17.5 12.5t39.5 6.5t45 -1.5t36 -10.5t12 -21q-12 -62 -21 -188t-6 -235t23 -109q21 0 77 204.5t56 235.5q0 13 38 23t73 3.5t30 -34.5q-7 -34 -12 -103t-2.5 -130.5t14.5 -61.5t26.5 15.5t28 42t26.5 57t25.5 65t21 60t16 49.5t8.5 26 q3 14 15 7q14 -9 9 -33q-9 -33 -22 -74.5t-38 -109.5t-56 -118t-60 -61q-58 -22 -105 51.5t-38 155.5q-4 -14 -12.5 -49.5t-15.5 -61.5t-17 -62t-20 -61t-21.5 -49t-24.5 -36.5t-26 -12.5q-49 0 -83.5 32.5t-50 89t-22.5 118.5t-4 137zM135 614q9 29 33.5 45t50.5 7 q22 -6 32.5 -27.5t4.5 -44.5t-32.5 -43t-49.5 -14q-27 6 -37.5 26.5t-1.5 50.5zM283 614q9 29 33.5 45t50.5 7q21 -6 31.5 -27t4.5 -45q-6 -23 -32 -43t-49 -14q-27 6 -37.5 26.5t-1.5 50.5z" />
<glyph unicode="&#xfd;" horiz-adv-x="530" d="M0 364q3 77 8 130.5t12 105.5q1 7 17.5 12.5t39.5 6.5t45 -1.5t36 -10.5t12 -21q-12 -62 -20.5 -194t-5.5 -246.5t22 -114.5q21 0 77 215.5t56 247.5q0 13 35 18t70 -2.5t36 -24.5q5 -114 -4 -344q-3 -110 -22 -225q52 -10 90 -36.5t49 -43.5q10 -17 10 -24 q0 -12 -11.5 -23.5t-23.5 -11.5t-24 11.5t-12 23.5q0 15 16 28q-52 40 -98 49q-33 -171 -94 -279t-144 -108q-93 0 -108 80q-14 77 44 174q54 90 134 131q37 19 47 21q8 147 10 223q1 24 3 71.5t2 67t-1 74.5q-5 -19 -18 -75.5t-24.5 -100.5t-27 -93t-34.5 -76.5t-39 -27.5 q-49 0 -83.5 34t-50 93t-22.5 124t-4 142zM135 -398q9 -63 43 -63q82 0 107 334l-17 -8q-73 -39 -107.5 -119.5t-25.5 -143.5zM221 612q-2 22 12 72t31 66q6 7 29 -1t40 -23t9 -24q-74 -83 -84 -100q-6 -11 -21 -9t-16 19z" />
<glyph unicode="&#xff;" horiz-adv-x="530" d="M0 364q3 77 8 130.5t12 105.5q1 7 17.5 12.5t39.5 6.5t45 -1.5t36 -10.5t12 -21q-12 -62 -20.5 -194t-5.5 -246.5t22 -114.5q21 0 77 215.5t56 247.5q0 13 35 18t70 -2.5t36 -24.5q5 -114 -4 -344q-3 -110 -22 -225q52 -10 90 -36.5t49 -43.5q10 -17 10 -24 q0 -12 -11.5 -23.5t-23.5 -11.5t-24 11.5t-12 23.5q0 15 16 28q-52 40 -98 49q-33 -171 -94 -279t-144 -108q-93 0 -108 80q-14 77 44 174q54 90 134 131q37 19 47 21q8 147 10 223q1 24 3 71.5t2 67t-1 74.5q-5 -19 -18 -75.5t-24.5 -100.5t-27 -93t-34.5 -76.5t-39 -27.5 q-49 0 -83.5 34t-50 93t-22.5 124t-4 142zM131 748q9 29 33.5 44.5t50.5 6.5q22 -6 32.5 -27.5t4.5 -44.5t-32.5 -43t-49.5 -14q-27 6 -37.5 27t-1.5 51zM135 -398q9 -63 43 -63q82 0 107 334l-17 -8q-73 -39 -107.5 -119.5t-25.5 -143.5zM279 748q9 29 33 44.5t50 6.5 q22 -6 32.5 -27.5t4.5 -44.5t-32.5 -43t-49.5 -14q-26 6 -36.5 26.5t-1.5 51.5z" />
<glyph unicode="&#x152;" horiz-adv-x="1392" d="M94 371q0 211 54 376t147 271q-14 49 -14 112q0 121 57 203t113 82q24 0 28.5 -25t-6.5 -40q-12 -24 -39 -29t-39 16l-8 -8t-17.5 -24.5t-22 -42t-17.5 -60t-8 -78.5q0 -36 6 -71q126 123 282 123q76 0 123 -47.5t70 -122.5q38 79 108 124.5t164 45.5q74 0 121 -44 t47 -110q0 -99 -90.5 -171.5t-241.5 -102.5q13 -91 58 -136q50 13 88 13q62 0 65 -34q2 -28 -31 -50q-21 -13 -44 -13q-47 0 -101 21q-56 -45 -87.5 -134t-31.5 -194q0 -181 44 -271.5t139 -90.5q67 0 123 43q-41 80 -41 184q0 45 9.5 92.5t26 89t43.5 68t58 26.5 q39 0 58.5 -38.5t19.5 -85.5q0 -77 -32 -173.5t-87 -164.5q37 -56 67 -56q12 0 20.5 -14t4.5 -28.5t-23 -14.5q-51 0 -104 76q-65 -58 -141 -58q-112 0 -200 65.5t-126 178.5q-67 -244 -217 -244q-153 0 -264 156.5t-111 409.5zM272 303q0 -209 50 -326.5t145 -117.5 q43 0 76.5 29t56 82t37 108t25.5 125q0 134 63.5 230.5t161.5 148.5q-77 58 -107 149q-20 -2 -65 -2q-104 0 -199 42.5t-156 119.5q-88 -231 -88 -588zM379 936q53 -76 142.5 -120t195.5 -44q9 0 27 1t26 1q-6 27 -6 55q0 22 4 58q-3 42 -13 81t-28 79t-50.5 64t-74.5 24 q-132 0 -223 -199zM907 793q124 28 196.5 88.5t72.5 136.5q0 46 -21.5 81.5t-71.5 35.5q-74 0 -125 -93t-51 -213v-36zM1137 96q0 -83 32 -159q47 57 71 138t24 158q0 93 -43 93q-27 0 -55.5 -72.5t-28.5 -157.5z" />
<glyph unicode="&#x153;" horiz-adv-x="722" d="M-13 234.5q-8 53.5 3 107t32.5 98t61.5 72t90 27.5q38 0 66 -23t28 -47q0 -18 -12.5 -33.5t-26 -21.5t-16.5 -2q-1 1 -2 24t-7.5 41.5t-21.5 18.5q-38 0 -56 -106.5t-7 -213t45 -106.5q17 0 31.5 21.5t25 63t17.5 78t14 89.5q11 137 72.5 233t158.5 96q92 0 115 -92 q22 -85 -21 -191q-42 -102 -112 -135q-27 -13 -55 -12q-2 -111 15 -184.5t52 -73.5q38 0 85 60t86 144.5t62 141t31 82.5q5 12 17 -1q16 -17 10 -42q-6 -22 -20.5 -64t-44 -110t-62.5 -125t-78.5 -99t-89.5 -42q-72 0 -122.5 48.5t-76.5 129.5q-46 -49 -112 -49 q-51 0 -89.5 27.5t-58 72t-27.5 98zM412 262q20 10 40 49.5t33 89t21 98t6 81t-14 32.5q-32 0 -56.5 -107.5t-29.5 -242.5z" />
<glyph unicode="&#x178;" horiz-adv-x="1116" d="M8 863q29 171 124 271q78 83 181 83q119 0 198.5 -74t108.5 -195t11 -272q-11 -106 -12 -184.5t6 -125t22.5 -74t33.5 -37t42 -9.5q65 0 127 143q-63 748 96 748q41 0 63.5 -32.5t22.5 -88.5q0 -166 -57 -400q49 -300 51 -489q4 -227 -87.5 -361.5t-240.5 -134.5 q-78 0 -131 59.5t-53 172.5q0 115 47.5 176t116.5 61q51 0 78.5 -44t25.5 -105q-1 -59 -31 -100t-57 -41q-26 0 -42 15.5t-13.5 33.5t23.5 26q18 6 30 -13.5t0 -39.5q20 0 36.5 38t16.5 81q0 54 -19.5 84.5t-49.5 30.5q-48 0 -80.5 -54.5t-32.5 -152.5q0 -81 41 -135t96 -54 q67 0 107 39t52.5 104t16 150t-3.5 176q0 23 -14 156q-70 -127 -158 -127q-123 0 -184 135t-47 420q7 92 4 173t-15 141t-45 95t-85 35q-146 0 -220.5 -173.5t-38 -347t159.5 -173.5q62 0 100 64t40 118q2 71 -21.5 116.5t-73.5 45.5q0 -41 -36 -61q-31 -18 -48 3 q-4 5 -6 11q-9 31 13.5 56.5t87.5 25.5q61 0 96 -57.5t33 -122.5q-2 -59 -22 -110t-63.5 -86.5t-103.5 -35.5q-131 0 -190 131q-55 122 -27 292zM588 1284q9 29 33.5 44.5t50.5 6.5q22 -6 32.5 -27t4.5 -44t-32.5 -43.5t-49.5 -14.5q-27 6 -37.5 27t-1.5 51zM735 1284 q9 29 33.5 44.5t50.5 6.5q22 -6 32.5 -27t4.5 -44t-32.5 -43.5t-49.5 -14.5q-27 6 -37.5 27t-1.5 51zM921.5 999.5q0.5 -25.5 5.5 -67t10.5 -78.5t14.5 -92q25 164 25 258q0 32 -7.5 51t-17.5 19q-12 0 -19.5 -10t-9.5 -32.5t-1.5 -48z" />
<glyph unicode="&#x2c6;" horiz-adv-x="415" d="M108 621q-9 10 1 12q20 5 65 49t49 55q4 9 13.5 4.5t11.5 -10.5q13 -40 59 -74q11 -8 -3 -25t-35 -28.5t-25 -7.5q-33 38 -37 76q-11 -18 -35 -39.5t-41 -24.5q-11 0 -23 13z" />
<glyph unicode="&#x2dc;" horiz-adv-x="415" d="M102 641q0 24 18.5 49.5t51.5 28.5q26 3 46.5 -22t43.5 -23q13 1 24 12t11 16t8 5.5t8 -5.5q0 -27 -20.5 -61.5t-59.5 -38.5q-24 -3 -39.5 11.5t-26.5 29t-24 12.5q-16 -3 -28 -22q-1 -2 -4 -2.5t-6 2.5t-3 8z" />
<glyph unicode="&#x2000;" horiz-adv-x="787" />
<glyph unicode="&#x2001;" horiz-adv-x="1575" />
<glyph unicode="&#x2002;" horiz-adv-x="787" />
<glyph unicode="&#x2003;" horiz-adv-x="1575" />
<glyph unicode="&#x2004;" horiz-adv-x="525" />
<glyph unicode="&#x2005;" horiz-adv-x="393" />
<glyph unicode="&#x2006;" horiz-adv-x="262" />
<glyph unicode="&#x2007;" horiz-adv-x="262" />
<glyph unicode="&#x2008;" horiz-adv-x="196" />
<glyph unicode="&#x2009;" horiz-adv-x="315" />
<glyph unicode="&#x200a;" horiz-adv-x="87" />
<glyph unicode="&#x2010;" horiz-adv-x="440" d="M36 300.5q-6 17.5 1 35t22 16.5q34 -2 134.5 -2.5t138.5 2.5q13 1 18.5 -16.5t-0.5 -34.5t-20 -16q-37 3 -141 3.5t-132 -3.5q-15 -2 -21 15.5z" />
<glyph unicode="&#x2011;" horiz-adv-x="440" d="M36 300.5q-6 17.5 1 35t22 16.5q34 -2 134.5 -2.5t138.5 2.5q13 1 18.5 -16.5t-0.5 -34.5t-20 -16q-37 3 -141 3.5t-132 -3.5q-15 -2 -21 15.5z" />
<glyph unicode="&#x2012;" horiz-adv-x="440" d="M36 300.5q-6 17.5 1 35t22 16.5q34 -2 134.5 -2.5t138.5 2.5q13 1 18.5 -16.5t-0.5 -34.5t-20 -16q-37 3 -141 3.5t-132 -3.5q-15 -2 -21 15.5z" />
<glyph unicode="&#x2013;" horiz-adv-x="1143" d="M42 300.5q-19 17.5 3 35t70 16.5q109 -2 431 -2.5t443 2.5q42 1 59.5 -16.5t-1.5 -34.5t-64 -16q-118 3 -451 3.5t-423 -3.5q-48 -2 -67 15.5z" />
<glyph unicode="&#x2014;" horiz-adv-x="2167" d="M50.5 300.5q-38.5 17.5 6.5 35t141 16.5q218 -2 861 -2.5t887 2.5q83 1 118 -16.5t-3 -34.5t-128 -16q-237 3 -903 3.5t-845 -3.5q-96 -2 -134.5 15.5z" />
<glyph unicode="&#x202f;" horiz-adv-x="315" />
<glyph unicode="&#x205f;" horiz-adv-x="393" />
<glyph unicode="&#x20ac;" horiz-adv-x="559" d="M3.5 259q6.5 19 23.5 20h45q-2 16 -2 47q-9 -2 -19.5 -3t-16 -2t-7.5 -2q-16 0 -23 18.5t-0.5 37.5t23.5 20h47q16 127 84 212t178 85q72 0 116 -67.5t44 -132.5q0 -30 -30 -38q-27 -8 -36 9q-2 4 -2 10q3 55 -15 99t-38.5 62.5t-32.5 18.5q-50 0 -81.5 -74t-39.5 -186 h72q16 -1 22 -12t0 -22t-22 -11q-15 0 -76 -6q0 -43 2 -63q59 0 74 -3q16 0 22 -11t0 -22t-22 -10q-2 0 -11 -1t-26.5 -3t-32.5 -4q11 -98 43.5 -159.5t85.5 -61.5q30 0 57 39t27 100q0 26 16 24q17 -2 25 -28q4 -11 4 -24q0 -70 -44 -118t-89 -48q-105 0 -173 73.5 t-93 188.5q-43 -6 -55 -6q-16 -1 -23 17t-0.5 37z" />
<glyph unicode="&#x25fc;" horiz-adv-x="634" d="M0 0v635h635v-635h-635z" />
</font>
</defs>
</svg>
