<?xml version="1.0" standalone="no"?>
<!DOCTYPE svg PUBLIC "-//W3C//DTD SVG 1.1//EN" "http://www.w3.org/Graphics/SVG/1.1/DTD/svg11.dtd" >
<svg xmlns="http://www.w3.org/2000/svg">
<metadata>
Created by FontPrep 20130207 at Wed Mar  5 08:58:43 2014
 By Tyler
Copyright (c) 2014 by Tyler Finck. All rights reserved.
</metadata>
<defs>
<font id="11abe4c0e9461f5627594d5ac9b3d1bc" horiz-adv-x='1024' >
  <font-face 
    font-family="Gluten"
    font-weight="400"
    font-stretch="normal"
    units-per-em="2048"
    panose-1="2 0 5 7 6 0 0 2 0 4"
    ascent="1536"
    descent="-512"
    x-height="1172"
    cap-height="1510"
    bbox="-296 -870.972 2820 2275"
    underline-thickness="102"
    underline-position="-102"
    unicode-range="U+000D-F726"
  />
<missing-glyph horiz-adv-x="1157" 
 />
    <glyph glyph-name=".notdef" horiz-adv-x="1157" 
 />
    <glyph glyph-name=".null" horiz-adv-x="0" 
 />
    <glyph glyph-name="nonmarkingreturn" horiz-adv-x="681" 
 />
    <glyph glyph-name="NULL" horiz-adv-x="0" 
 />
    <glyph glyph-name="NULL" horiz-adv-x="0" 
 />
    <glyph glyph-name="CR" unicode="&#xd;" horiz-adv-x="1157" 
 />
    <glyph glyph-name="space" unicode=" " horiz-adv-x="1069" 
 />
    <glyph glyph-name="exclam" unicode="!" horiz-adv-x="724" 
d="M170 -27q-146 67 -5 178q42 33 128 47t159 -14q73 -27 72 -96q0 -106 -129 -135q-119 -29 -225 20zM80 1489q61 80 228 80t232 -89q64 -89 56 -227q-9 -137 -42 -277q-34 -140 -34 -181t1 -84t0 -63t-3 -64q-2 -45 -17 -104q-15 -58 -31 -78q-51 -64 -89 -74
q-152 -41 -260 61q-107 102 -107 391l2 185q0 29 -4 124t-3 150t18 129q16 74 53 121z" />
    <glyph glyph-name="quotedbl" unicode="&#x22;" horiz-adv-x="1050" 
d="M979 1446q0 -260 -121 -346q-92 -66 -184 4q-113 84 -115 287q-2 59 7 119q10 60 56 102q88 78 220 48q57 -14 97 -70t40 -144zM246 1059q-117 1 -179 111t-52 238q11 128 81 177q180 127 279 -2q77 -100 59 -272t-112 -232q-35 -20 -76 -20z" />
    <glyph glyph-name="numbersign" unicode="#" horiz-adv-x="2471" 
d="M1423 791q0 26 -179 26l-128 -2q-55 0 -80 -50t-24 -108q0 -35 45 -34l157 10l84 -2q125 0 125 160zM2378 420q0 -70 -48 -119t-123 -69t-153 -34q-200 -33 -258 -116q-119 -176 -278 -176q-92 0 -141 33q-48 33 -57 81t-15 94q-14 114 -127 114t-187 -24
q-75 -24 -101 -59t-50 -77t-38 -76q-14 -35 -62 -59q-48 -23 -140 -23t-149 29t-75 70q-17 42 -28 85q-25 106 -117 113q-143 12 -180 33q-61 35 -53 137q4 61 46 100t98 57t112 34q134 36 133 124q0 60 -39 98t-94 56q-54 18 -110 38q-134 48 -134 166q0 122 264 147
q119 11 157 23t78 56q40 43 68 92t62 96q81 109 223 109t171 -64q13 -29 19 -63q16 -85 68 -134q67 -65 291 -71q72 -2 115 24q43 25 61 63t33 77q35 97 121 111q151 18 221 1t108 -67t49 -102q11 -50 43 -100t86 -63t85 -25t65 -39q34 -29 36 -73q1 -44 -42 -78t-103 -56
q-59 -22 -119 -46t-98 -74q-38 -48 -30 -124q4 -39 57 -64t115 -35t112 -45q52 -36 52 -106z" />
    <glyph glyph-name="dollar" unicode="$" horiz-adv-x="1507" 
d="M0 336q0 94 62 145t138 59t137 20q62 13 62 41q0 47 -117 127q-48 34 -94 72q-45 38 -67 94t-6 120t53 108t71 62q33 20 99 50t98 48t39 56q8 38 11 78q2 40 18 79t70 64t151 24q207 0 268 -74q14 -14 37 -87t55 -79q216 -35 271 -98q28 -33 28 -84t-57 -89t-124 -54
t-111 -48t-23 -79q6 -14 74 -40q69 -25 141 -55t132 -95t61 -146q0 -131 -83 -196t-251 -119q-64 -18 -77 -105t-72 -161t-234 -73q-176 1 -217 58q-32 45 -49 93q-17 50 -50 74q-32 24 -68 32t-98 16q-204 26 -254 91q-24 30 -24 71z" />
    <glyph glyph-name="percent" unicode="%" horiz-adv-x="1961" 
d="M295 1157q0 -37 50 -54t101 2q52 19 52 69t-57 84t-113 -28q-10 -12 -22 -24t-11 -49zM1442 299q0 -37 45 -47t89 12t44 53q0 32 -23 50t-63 18t-82 -55q-10 -14 -10 -31zM346 834q-137 0 -223 54q-149 94 -108 302q17 86 83 160t156 102q147 44 278 22q132 -22 192 -103
t70 -173t-85 -192q-94 -100 -275 -160q-41 -12 -88 -12zM1495 -16q-358 43 -405 223q-35 133 105 275t333 175l78 7q207 0 290 -160q74 -139 13 -295q-61 -162 -228 -211q-84 -26 -186 -14zM113 2q-23 117 60 258q83 142 309 366t264 268t161 221q125 177 234 286
q219 219 455 89q116 -62 137 -174t-81 -237q-96 -117 -213 -220q-118 -102 -202 -175t-168 -155t-249 -281t-263 -291q-61 -57 -159 -80t-184 9q-85 32 -101 116z" />
    <glyph glyph-name="ampersand" unicode="&#x26;" horiz-adv-x="1959" 
d="M741 1182q0 -29 38 -80q37 -51 71 -51q14 0 41 29t33 96q2 29 -18 48t-58 19q-39 0 -73 -16t-34 -45zM729 305q53 0 123 35t70 85t-123 140q-51 37 -122 -36t-65 -146q4 -78 117 -78zM1563 766q109 0 167 -38q99 -65 45 -230q-24 -70 -73 -142q8 -8 70 -58
q124 -101 122 -165q0 -104 -53 -153t-132 -43t-155 26t-137 47t-64 27t-137 -46q-403 -138 -609 -138q-205 0 -393 121q-187 122 -187 309q0 100 43 192t103 159t121 124q146 139 146 198q0 60 -26 137q-75 220 -17 326q35 64 86 98q117 78 375 76q176 1 300 -73t166 -180
t1 -228q-41 -123 -168 -215q152 -164 234 -166q23 -1 82 17t90 18z" />
    <glyph glyph-name="quotesingle" unicode="'" horiz-adv-x="491" 
d="M455 1456q0 -137 -39 -231q-49 -113 -207 -113q-78 0 -122 43q-89 87 -44 361q10 55 55 97t105 51q147 22 213 -74q40 -56 39 -134z" />
    <glyph glyph-name="parenleft" unicode="(" horiz-adv-x="1050" 
d="M694 754q0 -108 34 -212q34 -105 81 -173t94 -124q115 -137 115 -222q0 -83 -66 -143t-166 -60q-147 0 -272 49t-208 133q-183 186 -235 420q-62 284 -28 469q47 315 293 526q184 156 358 166t215 -113q51 -148 -101 -368q-114 -166 -114 -348z" />
    <glyph glyph-name="parenright" unicode=")" horiz-adv-x="964" 
d="M6 1356q0 158 154 212t350 -36q231 -104 342 -340q76 -160 76 -358q0 -109 -49 -280t-130 -345t-210 -299t-267 -125q-106 0 -183 56q-77 57 -77 153t77 230t165 282q153 257 83 417q-32 71 -86 121q-53 50 -109 98q-136 114 -136 214z" />
    <glyph glyph-name="asterisk" unicode="*" horiz-adv-x="1417" 
d="M1210 1636q72 0 119 -57t47 -113t-63 -117q-63 -62 -68 -120q0 -23 45 -107t45 -129t-41 -80t-91 -35t-134 53q-84 52 -130 52t-60 -29q-15 -28 -19 -68t-13 -81t-46 -70t-103 -29t-108 34q-43 34 -62 74q-18 40 -50 74t-64 34t-125 -26q-94 -26 -160 -31
q-131 -9 -131 110q0 39 37 84t119 105t82 79q0 23 -29 39t-63 28t-62 44q-28 30 -29 86q0 56 39 112t109 58q41 0 122 -25t119 -23t69 52q30 51 54 104q25 53 43 60q111 33 196 -34t122 -171q32 -21 142 21t142 42z" />
    <glyph glyph-name="plus" unicode="+" horiz-adv-x="1726" 
d="M932 1440q121 0 202 -88t97 -199q2 -18 5 -40t3 -29t5 -16t7 -10q1 -1 13 -5t23 -4q11 -1 35 -5l48 -8q125 -24 218 -102t93 -186t-116 -156q-78 -34 -193 -56q-114 -22 -150 -30t-63 -46t-40 -85t-30 -93t-57 -79t-104 -37q-350 -20 -420 221q-6 23 -14 60t-23 35
q-10 -1 -21 1t-37 4q-130 10 -222 44t-115 59q-60 65 -61 160q-1 94 47 141t119 67t144 36q177 38 195 134q33 164 127 238t285 74z" />
    <glyph glyph-name="comma" unicode="," horiz-adv-x="724" 
d="M343 -397q-132 0 -140 65q-6 43 14 110q21 66 21 102t-27 60t-61 26t-74 16t-58 43q-70 111 58 183t328 54q202 -18 272 -147q25 -45 24 -103q0 -119 -112 -264t-245 -145z" />
    <glyph glyph-name="hyphen" unicode="-" horiz-adv-x="1746" 
d="M6 707q0 125 54 203t144 105q189 59 425 38q53 -2 156 1t286 5t286 -20q103 -23 178 -57q157 -71 157 -247q0 -87 -50 -155q-23 -35 -128 -76q-51 -18 -154 -26q-102 -7 -123 -7l-25 -2q-87 -10 -290 -17q-461 -16 -645 33q-185 49 -237 119q-34 45 -34 103z" />
    <glyph glyph-name="period" unicode="." horiz-adv-x="600" 
d="M270 -51q-152 -1 -230 65t-50 146q30 80 153 116q236 70 349 -28q76 -66 43 -158q-35 -102 -173 -131q-43 -10 -92 -10z" />
    <glyph glyph-name="slash" unicode="/" horiz-adv-x="1654" 
d="M10 209q0 94 162 315q162 222 377 442t445 389t348 169t206 -50t88 -147q0 -72 -78 -213t-208 -303q-129 -162 -293 -324q-164 -161 -334 -275t-332 -159t-285 27q-48 28 -72 56t-24 73z" />
    <glyph glyph-name="zero" unicode="0" horiz-adv-x="1302" 
d="M642 594q72 0 110 87q36 87 14 173t-95 83t-109 -89t-14 -170t94 -84zM624 -59q-318 0 -460 192q-191 255 -142 689q26 251 125 427q76 133 202 209q255 154 543 39q289 -115 379 -442q48 -179 9 -435t-78 -358q-78 -205 -276 -274q-131 -47 -302 -47z" />
    <glyph glyph-name="one" unicode="1" horiz-adv-x="1036" 
d="M537 -82q-158 0 -251 78t-93 213q1 73 35 388t28 327q-19 46 -146 92q-44 16 -80 56t-36 97q0 82 88 165q169 159 453 191q124 13 199 -45t122 -215q76 -255 71 -681q-3 -162 -11 -216t-14 -93q-20 -156 -62 -226t-101 -94q-92 -37 -202 -37z" />
    <glyph glyph-name="two" unicode="2" horiz-adv-x="1472" 
d="M1444 336q0 -141 -69 -220t-199 -115q-264 -73 -683 -67q-198 4 -339 69t-142 187q0 84 73 170t176 157t207 137q250 159 251 264q0 61 -52 76q-52 14 -129 -8q-171 -50 -336 -73q-77 -10 -127 29q-50 38 -48 144t73 198q72 92 187 141q392 167 777 12q114 -45 184 -139
t71 -204q0 -110 -33 -189q-33 -80 -68 -146q-36 -67 -44 -83l-11 -27q0 -48 141 -115q52 -26 96 -78t44 -120z" />
    <glyph glyph-name="three" unicode="3" horiz-adv-x="1542" 
d="M124 1400q186 124 566 124t509 -70q50 -28 82 -54q79 -66 76 -254q-1 -62 -11 -194q-9 -130 -9 -196q-1 -66 59 -204t60 -212q0 -440 -774 -440q-485 0 -627 196q-84 115 -18 242q55 104 166 129q23 4 63 4t158 -41t186 -41t90 28t23 86q0 58 -33 91t-72 43
q-40 10 -72 36q-32 25 -32 71t82 98t82 101q0 48 -46 72q-46 25 -115 27t-151 6t-153 8q-72 5 -124 36q-52 30 -61 94t16 121q26 57 80 93z" />
    <glyph glyph-name="four" unicode="4" horiz-adv-x="1486" 
d="M288 1460q92 0 150 -36q60 -36 78 -91q36 -106 45 -240q4 -57 31 -97t66 -44q60 -6 71 68q8 35 16 145t33 186q26 76 74 109t125 33q352 0 336 -569l-4 -29q2 -27 39 -63q38 -36 74 -77q36 -42 37 -87t-25 -81t-61 -58q-93 -61 -117 -167q-52 -227 -113 -300
q-29 -34 -82 -64t-121 -29q-139 0 -182 76q-33 56 -52 138q-18 81 -28 112q-22 63 -94 91t-149 28q-217 0 -283 61q-79 74 -96 146q-17 71 -25 106t-8 108v95l12 190q4 76 24 146q21 70 79 132t150 62z" />
    <glyph glyph-name="five" unicode="5" horiz-adv-x="1341" 
d="M610 985q0 -72 90 -72q131 0 247 -43q227 -84 318 -270t-18 -349q-57 -87 -149 -137q-185 -100 -498 -143q-152 -20 -286 -13q-134 8 -224 68t-92 171q0 78 40 127t100 66q125 35 264 40t135 66q-2 47 -68 66q-67 18 -147 24t-165 52t-124 145t-39 260t41 264
q30 77 137 127q98 43 382 43q64 0 142 2q76 2 192 0t173 -20q57 -17 108 -40q101 -46 101 -149q0 -104 -68 -154t-165 -55q-97 -6 -194 -5q-97 2 -165 -12t-68 -59z" />
    <glyph glyph-name="six" unicode="6" horiz-adv-x="1501" 
d="M969 426q1 74 -63 100t-128 -7q-64 -32 -63 -89q-1 -57 25 -84t64 -27q90 0 138 50q27 26 27 57zM1008 915q262 0 376 -186q98 -159 34 -365t-265 -313q-143 -76 -330 -76q-434 1 -611 177t-177 569q0 227 110 481q55 127 161 210t230 83t204 -58t79 -155q0 -64 -85 -212
t-87 -226l27 -35q43 8 144 57t190 49z" />
    <glyph glyph-name="seven" unicode="7" horiz-adv-x="1386" 
d="M933 1532q148 -20 259 -107q111 -88 111 -272q1 -119 -45 -273t-132 -315q-86 -160 -198 -294t-258 -219q-148 -85 -282 -85q-257 0 -290 94q-34 94 35 214q70 119 154 230t104 141t53 77q88 125 88 196t-53 105t-130 47q-77 11 -153 27t-130 68q-53 52 -54 151
q0 145 269 205q139 30 321 30q183 0 331 -20z" />
    <glyph glyph-name="eight" unicode="8" horiz-adv-x="1705" 
d="M657 445q0 -45 36 -75q65 -53 189 -51q50 2 86 30t36 81t-62 89t-136 34q-75 -2 -112 -32t-37 -76zM823 930q139 0 164 78q23 61 -41 112q-88 67 -221 6q-49 -24 -63 -70t26 -86t135 -40zM931 -57q-144 0 -255 8t-239 38t-211 81t-138 145t-53 225q0 52 74 138t73 141
q0 28 -92 170q-35 53 -52 124t-7 134t84 131t214 120q308 114 606 101q159 -6 290 -50q131 -45 228 -149t130 -260q16 -76 0 -138t-44 -94q-76 -87 -73 -118q4 -31 48 -77t86 -107t42 -131q0 -131 -123 -235q-124 -103 -284 -150t-304 -47z" />
    <glyph glyph-name="nine" unicode="9" horiz-adv-x="1435" 
d="M678 1104q-56 0 -102 -36t-46 -94t74 -90q74 -30 144 -5q66 20 70 75q5 54 -39 102t-101 48zM1356 782q0 -152 -68 -340q-68 -190 -178 -336q-60 -80 -158 -116q-201 -73 -336 41q-63 53 -63 123t56 172q56 104 57 163q0 115 -144 113q-63 0 -132 -3q-178 -8 -249 81
q-219 270 -84 498q100 174 355 247q276 84 532 -4q412 -145 412 -639z" />
    <glyph glyph-name="colon" unicode=":" horiz-adv-x="659" 
d="M364 1231q74 0 146 -34t72 -101q0 -90 -94 -144t-211 -41q-118 12 -181 90q-47 68 -4 118t121 81q77 31 151 31zM575 453q0 -129 -145 -168q-133 -37 -266 23q-152 69 -117 192q19 72 81 112t137 43q180 5 263 -87q47 -50 47 -115z" />
    <glyph glyph-name="semicolon" unicode=";" horiz-adv-x="626" 
d="M14 1052q0 70 66 124q142 115 339 4q101 -57 101 -140q0 -20 -8 -53q-24 -86 -148 -99t-237 40q-113 54 -113 124zM254 700q168 0 231 -133t3 -267t-187 -134q-96 0 -96 119l10 121q0 36 -28 62q-27 26 -59 37t-52 37t-10 70q20 88 188 88z" />
    <glyph glyph-name="less" unicode="&#x3c;" horiz-adv-x="1095" 
d="M16 653q-12 168 93 303q55 72 97 114t146 136t277 148q223 68 280 -62q27 -60 16 -136t-55 -130t-85 -88q-107 -84 -68 -164t167 -143q48 -25 91 -56q95 -68 69 -192q-16 -76 -71 -113q-55 -38 -135 -32t-162 23q-147 30 -410 165q-123 68 -185 129q-63 61 -65 98z" />
    <glyph glyph-name="equal" unicode="=" horiz-adv-x="1347" 
d="M76 422q-43 238 230 291t568 -28t306 -163q10 -90 -88 -158q-179 -125 -562 -121q-160 1 -290 49t-164 130zM55 942q-137 162 71 254t555 81t484 -108q66 -45 58 -102q-13 -91 -183 -155t-374 -80t-388 10q-184 28 -223 100z" />
    <glyph glyph-name="greater" unicode="&#x3e;" horiz-adv-x="1017" 
d="M51 1194q-68 207 129 215q168 8 406 -111q94 -47 154 -97t93 -79q31 -29 71 -78t47 -91q20 -121 -24 -214q-43 -94 -103 -183t-162 -163q-231 -168 -409 -128q-93 22 -128 114q-17 49 9 98t71 85q149 119 188 186q29 47 10 126q-10 44 -90 104t-163 118t-99 98z" />
    <glyph glyph-name="question" unicode="?" horiz-adv-x="1345" 
d="M444 -82q-158 0 -238 73t-5 140q43 41 135 70q162 51 280 -33q86 -61 72 -137q-17 -113 -244 -113zM492 317q-90 0 -163 79t-73 167t105 215q106 126 106 230q0 58 -26 86q-26 29 -78 28t-144 -22q-92 -22 -132 -22t-70 49q-30 50 -29 100q0 92 104 171q104 78 230 116
q235 70 501 22q266 -49 381 -217q64 -95 64 -199t-18 -160q-28 -90 -139 -155q-38 -23 -112 -57t-122 -66q-89 -52 -163 -220q-24 -56 -78 -100t-144 -45z" />
    <glyph glyph-name="at" unicode="@" horiz-adv-x="2549" 
d="M1382 750q0 74 -98 108t-164 -16q-63 -51 -50 -90q14 -39 68 -63q113 -50 203 -1q41 23 41 62zM1102 381q-248 0 -352 151q-86 125 -21 277q76 170 299 242q127 41 283 41q157 0 277 -45t186 -112t110 -133t73 -121q30 -54 50 -65q47 23 47 76q0 102 -52 194t-139 154
q-199 144 -443 177q-294 37 -490 -33q-115 -41 -202 -106q-87 -64 -139 -172t-52 -251q-1 -143 79 -247q148 -194 459 -185q92 1 268 57t246 44q152 -27 152 -156q0 -119 -201 -201q-254 -100 -610 -73q-442 33 -694 251q-229 201 -230 519q0 198 108 374q206 337 668 483
q217 69 437 66q963 -11 1203 -541q69 -153 70 -341q4 -256 -145 -339q-128 -71 -322 -71q-79 0 -147 28q-68 27 -108 63q-119 106 -214 132q-63 -10 -205 -74t-249 -63z" />
    <glyph glyph-name="A" unicode="A" horiz-adv-x="2091" 
d="M999 909q-53 -2 -100 -78q-51 -88 -12 -133q19 -22 75 -22t133 45t76 98q0 37 -39 64q-40 27 -81 26h-52zM1608 -49q-113 0 -246 60q-133 59 -249 121t-179 64q-107 4 -234 -76q-51 -34 -106 -69q-129 -82 -298 -82t-254 94q-48 54 -38 130q43 315 139 562
q177 455 507 629q302 160 630 17t528 -538q104 -206 154 -439t-27 -353q-76 -120 -327 -120z" />
    <glyph glyph-name="B" unicode="B" horiz-adv-x="1689" 
d="M928 428q0 36 -56 62t-97 26q-40 0 -82 -18t-42 -52q1 -34 63 -68t109 -34t76 24t29 60zM710 930q48 0 88 28t40 60t-43 58t-87 27t-69 -26q-29 -41 -3 -94t74 -53zM1300 1063l-24 -221q0 -58 141 -175q53 -44 97 -130t45 -195q-1 -152 -97 -246t-386 -145t-587 -33
t-399 111q-49 43 -71 190q-21 147 -21 279t12 253q12 120 57 255q44 135 116 225q73 90 204 149t309 60q604 0 604 -377z" />
    <glyph glyph-name="C" unicode="C" horiz-adv-x="1548" 
d="M1284 1223q0 -82 -150 -213q-56 -49 -104 -125t-47 -161q0 -85 50 -142t123 -84q72 -27 144 -53q72 -25 122 -79t51 -145q0 -119 -195 -213q-236 -111 -543 -100q-385 14 -581 229q-152 169 -152 415t114 473q113 227 318 333q82 42 221 70q351 70 526 -29
q103 -59 103 -176z" />
    <glyph glyph-name="D" unicode="D" horiz-adv-x="1888" 
d="M1030 773q0 44 -50 76t-102 31t-57 -44q0 -4 -7 -40q-40 -208 15 -208t128 70t73 115zM10 600q0 218 58 398t153 284q96 106 224 164q127 58 269 59q293 4 576 -151t432 -400q221 -360 -114 -641q-252 -211 -717 -311q-385 -82 -625 -31q-135 29 -155 97q-39 31 -70 173
q-31 141 -31 359z" />
    <glyph glyph-name="E" unicode="E" horiz-adv-x="1615" 
d="M1446 215q0 -72 -47 -128q-80 -95 -277 -141q-147 -36 -331 -36q-183 0 -339 61t-251 161t-145 234q-100 264 3 564q102 299 367 474q301 198 736 147q120 -13 203 -67t83 -143q0 -49 -43 -94t-95 -73q-139 -76 -139 -93q0 -40 142 -95q53 -22 97 -70t44 -116t-43 -117
q-43 -51 -97 -71q-166 -63 -196 -100q3 -52 167 -106q61 -20 111 -70t50 -121z" />
    <glyph glyph-name="F" unicode="F" horiz-adv-x="1501" 
d="M1165 610q0 -58 -50 -99q-49 -40 -113 -57q-191 -51 -235 -93t-61 -98q-18 -56 -26 -105q-8 -50 -28 -96q-43 -102 -226 -101q-94 0 -168 55q-74 54 -117 146q-93 197 -109 426t-1 350q43 391 381 543q262 117 587 55q266 -49 387 -182q60 -66 60 -140t-55 -136
q-55 -60 -133 -93t-156 -57t-133 -42q-55 -19 -56 -38q-1 -8 63 -41t126 -86t63 -111z" />
    <glyph glyph-name="G" unicode="G" horiz-adv-x="2009" 
d="M1116 1536q473 0 473 -166q0 -144 -162 -209q-73 -29 -159 -51t-173 -48t-159 -64t-117 -106t-45 -165q0 -145 89 -230t255 -85q112 0 76 29q-16 13 -46 31t-38 26q-10 6 -30 19t-30 23t-28 22q-18 14 -30 26t-25 27q-56 61 -56 131q0 184 275 233q68 12 139 12
q399 0 543 -209q112 -164 20 -381t-344 -360t-560 -143t-547 126q-238 126 -334 366t-59 453q77 432 547 606q234 87 525 87z" />
    <glyph glyph-name="H" unicode="H" horiz-adv-x="1988" 
d="M530 1522q78 0 140 -69t96 -151q35 -82 85 -151q50 -68 106 -68q95 0 169 167q31 69 69 138q38 68 111 116q72 48 180 48t194 -50t110 -132q60 -197 54 -604q-2 -203 -28 -386t-101 -308t-191 -125t-194 35q-79 35 -118 85q-38 50 -70 100q-76 120 -177 120
q-69 0 -243 -144q-163 -131 -323 -170q-78 -18 -158 27q-163 92 -205 426q-22 166 -5 353q16 187 67 355t164 278t268 110z" />
    <glyph glyph-name="I" unicode="I" horiz-adv-x="1406" 
d="M1024 596q0 -80 30 -130t72 -70t82 -40q101 -46 101 -150q0 -207 -274 -261q-101 -23 -357 -23h-96q-60 0 -174 2t-177 26q-63 23 -115 53q-102 59 -102 198q0 55 33 93t73 56t80 54t51 82t52 193q41 146 41 231q0 132 -91 206t-91 170q0 58 50 112t128 75q138 37 326 37
t300 -18q244 -37 314 -153q35 -57 0 -144q-36 -87 -146 -191t-110 -408z" />
    <glyph glyph-name="J" unicode="J" horiz-adv-x="1724" 
d="M16 307q0 184 246 281q68 27 222 45q36 4 81 41q45 38 83 108t54 175t28 197t44 178q31 87 115 138q84 52 214 52q129 0 235 -56t163 -147q104 -172 105 -428q0 -608 -375 -862q-264 -176 -625 -133q-287 35 -463 182q-127 106 -127 229z" />
    <glyph glyph-name="K" unicode="K" horiz-adv-x="1859" 
d="M516 1436q100 0 160 -30t80 -74q34 -81 31 -187q-2 -107 79 -107q96 0 289 137q72 50 170 93t193 43t163 -68t68 -150q0 -83 -45 -157t-98 -123q-54 -49 -98 -95t-42 -69q0 -6 38 -63t84 -129t75 -158t27 -156q-2 -71 -76 -117t-205 -46q-239 0 -396 138q-67 58 -117 116
t-91 104t-70 51q-12 4 -24 -43q-18 -129 -33 -174q-68 -193 -305 -192q-139 -1 -211 69q-109 105 -126 365t37 516t143 381t300 125z" />
    <glyph glyph-name="L" unicode="L" 
d="M526 1493q106 0 166 -59q62 -58 76 -154t14 -196t6 -202q6 -103 35 -157q52 -89 223 -107q74 -8 148 -19q182 -27 268 -159q135 -207 -53 -366q-167 -141 -507 -175t-603 95q-305 152 -305 465q0 154 76 473q41 178 134 347q52 95 134 155t188 59z" />
    <glyph glyph-name="M" unicode="M" horiz-adv-x="2490" 
d="M1228 57q-68 0 -130 33q-63 33 -98 73q-90 105 -126 105q-22 0 -55 -34t-74 -82t-89 -96t-116 -82t-141 -33q-195 -1 -300 237t-65 576t230 528q147 147 354 148q102 0 188 -35t142 -85q54 -50 102 -100q114 -121 179 -120q29 0 69 34t90 84q50 48 113 98t159 85t208 34
q283 0 434 -282q132 -247 110 -569t-176 -484q-100 -109 -239 -108q-82 0 -147 32q-66 32 -104 75q-38 44 -66 89t-51 77q-24 32 -42 34q-37 3 -95 -55t-127 -118t-137 -59z" />
    <glyph glyph-name="N" unicode="N" horiz-adv-x="2107" 
d="M1226 987q22 0 43 43q22 43 42 97t26 63q106 176 357 176q352 0 352 -438q0 -172 -82 -504q-45 -176 -120 -284t-161 -140q-183 -67 -382 30q-199 96 -332 213q-66 56 -108 94t-44 38q-29 4 -59 -94t-39 -115q-59 -119 -145 -176q-156 -103 -337 10q-79 49 -134 143
q-54 94 -67 213t-9 291t24 284t52 212q31 100 91 169t138 85q196 35 328 8t232 -95t160 -141q58 -72 105 -127t69 -55z" />
    <glyph glyph-name="O" unicode="O" horiz-adv-x="2062" 
d="M985 637q154 0 176 94q18 74 -47 137q-80 72 -171 35t-105 -101t32 -115q46 -50 115 -50zM1946 721q0 -360 -316 -602q-272 -209 -658 -246t-659 127q-311 188 -311 571q0 470 364 711q347 231 803 174t666 -365q111 -163 111 -370z" />
    <glyph glyph-name="P" unicode="P" horiz-adv-x="1632" 
d="M854 827q47 0 82 46q35 45 35 99t-53 67t-110 -5t-71 -41q-55 -65 24 -129q46 -37 93 -37zM774 1473q526 0 723 -240q133 -163 71 -355t-243 -294q-98 -56 -223 -72t-207 -90q-29 -25 -49 -88q-20 -62 -38 -126t-49 -124t-103 -91q-72 -30 -183 -16q-256 35 -384 280
t-78 557t276 495q201 164 487 164z" />
    <glyph glyph-name="Q" unicode="Q" horiz-adv-x="1933" 
d="M877 905q-50 0 -91 -37q-90 -74 -46 -140t156 -66t154 72q44 72 -10 122q-54 49 -163 49zM1745 719q0 -61 -28 -180q-27 -119 -27 -169t38 -97q38 -48 74 -106q37 -58 37 -124q0 -113 -118 -181t-241 -67q-122 0 -198 35t-132 69t-116 33q-522 0 -796 228
q-136 112 -192 294t-19 396t179 358q142 143 332 211t402 62q213 -6 391 -84t296 -254t118 -424z" />
    <glyph glyph-name="R" unicode="R" horiz-adv-x="1775" 
d="M754 1018q0 -86 64 -122t130 1q64 37 64 127q0 57 -48 89q-48 31 -108 21t-92 -59q-10 -16 -10 -57zM1667 254q1 -139 -107 -212t-264 -73t-248 86q-36 35 -64 71q-66 85 -116 85q-16 0 -34 -28q-18 -27 -43 -65t-61 -77t-102 -66t-168 -27q-100 0 -187 42
q-87 41 -136 104t-90 181t-41 301q0 182 43 387t129 311t265 167q179 62 379 63q469 2 687 -190q121 -108 121 -255q0 -68 -33 -129t-73 -99q-113 -102 -125 -145q12 -35 58 -78t91 -81q45 -39 82 -111t37 -162z" />
    <glyph glyph-name="S" unicode="S" 
d="M1020 1014q0 -27 54 -66t131 -88t154 -110q77 -60 130 -150t53 -188q0 -281 -381 -406t-762 -47t-381 287q0 102 52 158t124 68q74 12 146 16q72 2 123 14t51 49q0 31 -48 65t-114 73q-66 38 -132 88q-66 49 -104 133t-26 188t106 188t230 130q279 95 503 94t337 -93
q66 -53 66 -125t-50 -122q-49 -48 -106 -70q-56 -22 -106 -46q-50 -22 -50 -40z" />
    <glyph glyph-name="T" unicode="T" horiz-adv-x="1931" 
d="M1874 1004q0 -92 -46 -142t-113 -66q-67 -18 -135 -32t-122 -56q-53 -42 -61 -122q-27 -267 -89 -395t-170 -197q-108 -68 -261 -68q-154 0 -238 32t-125 100t-55 142q-14 75 -15 189l21 279q0 71 -48 95q-28 15 -112 35q-163 40 -235 111q-132 132 -20 288
q113 156 446 239q333 84 703 41q187 -23 337 -76t244 -157t94 -240z" />
    <glyph glyph-name="U" unicode="U" horiz-adv-x="1966" 
d="M708 1244q112 -138 241 -138t227 98q38 41 82 81q107 99 307 97q159 0 227 -142t50 -332t-68 -368q-49 -177 -105 -264q-90 -139 -250 -221t-342 -96t-372 42t-344 172q-153 116 -249 319q-97 203 -98 458q0 92 16 174q15 82 71 166q57 84 149 111q127 33 204 17
q78 -16 144 -68q66 -51 110 -106z" />
    <glyph glyph-name="V" unicode="V" horiz-adv-x="2273" 
d="M27 1111q0 163 99 259t227 114t256 -28q128 -47 182 -153q88 -176 118 -210q29 -34 57 -66t52 -43t54 -20q58 -18 116 28q57 46 120 113q138 150 220 214q133 104 323 102q269 0 313 -216t-126 -526t-449 -511q-371 -268 -723 -180q-188 47 -389 256q-201 208 -325 456
t-125 411z" />
    <glyph glyph-name="W" unicode="W" horiz-adv-x="2742" 
d="M1315 1425q86 1 158 -33q73 -34 119 -82t85 -96t71 -82t61 -34q28 0 84 49q55 49 117 107t160 108t195 49q225 0 271 -228q46 -229 -89 -547q-134 -318 -345 -489q-125 -100 -250 -118q-182 -27 -303 -1t-174 66t-101 82q-86 73 -168 19q-38 -27 -74 -62
q-91 -89 -275 -113q-101 -12 -271 7q-201 27 -366 305t-201 610t104 467q68 66 160 66q92 1 180 -55t148 -123q157 -175 196 -176t92 47t107 104t138 105q85 48 171 48z" />
    <glyph glyph-name="X" unicode="X" horiz-adv-x="1896" 
d="M981 1157q45 0 98 39t107 87t135 87q82 39 162 39q129 0 255 -90t126 -201q0 -63 -52 -130q-52 -66 -113 -112q-171 -125 -190 -190q-7 -23 121 -135q49 -43 90 -112t41 -136q0 -129 -93 -210t-241 -81q-100 0 -205 49q-106 49 -190 99t-125 51q-41 0 -134 -69
q-280 -208 -445 -208q-111 0 -211 81q-101 81 -101 168t75 187t147 188q72 87 67 142q-3 34 -152 196q-58 62 -102 143q-43 81 -50 154t63 147t225 126q104 29 178 11q134 -33 278 -179q55 -55 123 -98t113 -43z" />
    <glyph glyph-name="Y" unicode="Y" horiz-adv-x="1933" 
d="M1479 1423q172 -1 267 -113t95 -268q0 -106 -32 -181q-31 -75 -79 -111q-97 -75 -226 -118q-56 -20 -106 -58t-70 -81t-57 -163q-38 -120 -85 -201q-89 -154 -231 -154t-228 44t-113 112q-49 122 -40 311q9 188 -87 232q-272 136 -369 231q-44 43 -80 103t-36 120
q0 138 106 224t256 86q152 0 310 -76t274 -180q37 0 116 60q80 60 190 120t225 61z" />
    <glyph glyph-name="Z" unicode="Z" horiz-adv-x="1675" 
d="M1559 1155q0 -59 -73 -151t-160 -171q-234 -212 -232 -255q0 -49 225 -132q84 -31 155 -86q70 -56 70 -124t-85 -134t-220 -106q-481 -144 -924 -43q-135 31 -220 105t-85 176q0 100 81 203t179 175t180 144q80 72 80 112t-164 57q-80 7 -150 27t-132 74q-62 55 -64 142
q0 87 85 163t221 115q476 137 927 3q135 -40 221 -117t85 -177z" />
    <glyph glyph-name="bracketleft" unicode="[" horiz-adv-x="1163" 
d="M1106 1417q0 -109 -54 -155t-124 -41q-70 7 -154 -5t-130 -69t-59 -143t-24 -172t-8 -235q2 -149 2 -165q0 -80 44 -124q43 -44 105 -58t124 -24q151 -26 151 -128q0 -176 -138 -277t-333 -57q-104 25 -154 36t-116 34t-92 38t-62 48t-44 63q-33 110 -35 182
q-3 73 -3 165t13 284t13 242v122q-3 220 21 319t68 148q45 48 163 96q247 101 524 92q130 -3 216 -55t86 -161z" />
    <glyph glyph-name="backslash" unicode="\" horiz-adv-x="1386" 
d="M1026 2q-126 0 -322 190t-359 435t-255 483t-28 325t182 95q117 8 222 -45q104 -53 148 -117t286 -405q242 -342 351 -527q37 -61 41 -137q9 -172 -109 -253q-65 -44 -157 -44z" />
    <glyph glyph-name="bracketright" unicode="]" horiz-adv-x="1148" 
d="M45 4q0 82 51 129t123 61t145 30q74 18 124 78t50 158t-20 252t-20 242t-48 146t-116 83t-136 49t-117 78q-48 54 -48 146q0 193 354 193q301 0 438 -110t161 -303q25 -193 15 -359v-109l3 -678q0 -210 -98 -278t-366 -68q-267 0 -377 57q-118 61 -118 203z" />
    <glyph glyph-name="asciicircum" unicode="^" horiz-adv-x="1247" 
d="M714 1044q-151 94 -306 -64q-113 -116 -192 -142q-48 -16 -116 6q-120 45 -76 230t203 353q190 203 381 193q41 -2 78 -14q184 -62 356 -264t185 -351q8 -104 -78 -135q-91 -28 -147 -16t-109 50t-90 80t-89 74z" />
    <glyph glyph-name="underscore" unicode="_" horiz-adv-x="1673" 
d="M1375 -532q-7 0 -105 -10t-160 -13q-62 -4 -184 -12q-121 -8 -308 -8t-284 14q-96 13 -174 33q-158 40 -189 133q-50 147 24 234t214 124q140 36 219 38q80 1 128 5t77 0q100 0 315 -24t328 -23q229 6 319 -133q70 -106 12 -224t-223 -134h-9z" />
    <glyph glyph-name="grave" unicode="`" horiz-adv-x="811" 
d="M-6 1413q0 72 47 110t131 38q145 0 301 -101q17 -12 117 -60q224 -108 225 -183q1 -59 -29 -87t-120 -50q-90 -20 -254 16q-162 36 -290 123q-128 88 -128 194z" />
    <glyph glyph-name="a" unicode="a" horiz-adv-x="1810" 
d="M748 633q0 -84 70 -122t142 4q70 42 70 155q0 68 -54 94t-120 -2q-66 -26 -98 -92q-10 -20 -10 -37zM1710 233q0 -102 -54 -170t-169 -67q-72 0 -165 52t-142 52q-111 0 -322 -59t-323 -59q-221 0 -372 146t-151 341q1 229 143 400t321 255q333 156 673 -2
q340 -159 487 -516q74 -178 74 -373z" />
    <glyph glyph-name="b" unicode="b" horiz-adv-x="1796" 
d="M907 319q49 0 89 40t40 80q0 82 -83 144t-143 34q-34 -15 -56 -73t22 -141q45 -84 131 -84zM1692 428q0 -151 -108 -259q-198 -198 -628 -230t-714 116q-144 76 -193 189q-33 74 -33 194q0 255 119 542t304 413q103 69 226 69t171 -36q27 -19 48 -43t21 -110l-4 -149
q0 -105 96 -155q57 -30 162 -57t135 -38q182 -61 290 -178t108 -268z" />
    <glyph glyph-name="c" unicode="c" horiz-adv-x="1519" 
d="M870 1319q98 0 182 -69t85 -156q1 -54 -49 -102t-98 -97t-48 -113t47 -122q47 -56 114 -95t133 -77q160 -92 161 -216q0 -125 -77 -211q-77 -85 -198 -121q-248 -73 -554 -19t-463 221q-89 96 -108 200q-57 315 255 647q92 98 197 171q226 159 421 159z" />
    <glyph glyph-name="d" unicode="d" horiz-adv-x="1636" 
d="M731 299q59 0 116 46q56 46 56 97q1 96 -77 119t-152 -47q-72 -63 -56 -139t113 -76zM646 -78q-194 0 -336 48q-277 94 -318 303t190 378q124 91 310 148q80 25 124 93t56 152q30 213 84 341q31 75 115 124q85 49 197 49q188 1 292 -91q125 -111 151 -351
q32 -294 -17 -565q-24 -133 -84 -257t-158 -202t-254 -124q-157 -46 -352 -46z" />
    <glyph glyph-name="e" unicode="e" horiz-adv-x="1697" 
d="M705 831q0 -78 93 -92t186 26t93 97q0 90 -93 102t-186 -36t-93 -97zM943 1333q157 0 292 -47t233 -141q98 -93 98 -193t-49 -175t-109 -115t-110 -82q-50 -41 -51 -69q0 -28 53 -45q53 -16 118 -32t118 -78t53 -169t-79 -181q-80 -74 -200 -102q-247 -58 -530 -19
q-127 19 -213 52q-256 96 -393 242t-149 298q-11 151 59 307t205 277t316 197t338 75z" />
    <glyph glyph-name="f" unicode="f" horiz-adv-x="1347" 
d="M100 570q0 38 -56 98t-56 102q0 68 41 104t94 64t71 62t38 92q46 125 115 200q69 74 227 123t314 52q158 3 276 -63t118 -190q0 -63 -54 -106t-127 -82t-100 -82l-16 -33q-4 -14 49 -53q52 -38 62 -62t10 -71t-34 -85t-66 -55t-97 -45q-115 -50 -184 -256
q-27 -81 -59 -159t-96 -129t-170 -51q-106 1 -184 87q-115 126 -124 302q-2 53 3 125q5 73 5 111z" />
    <glyph glyph-name="g" unicode="g" horiz-adv-x="1773" 
d="M827 383q131 0 177 85t-5 146q-66 74 -213 31q-86 -25 -120 -70t-20 -87q16 -42 66 -74t115 -31zM694 -532q-156 0 -259 47t-103 145q0 53 34 100t71 75q101 74 81 147q-15 55 -158 125t-242 177q-52 56 -81 148t-17 205q20 182 150 319q130 138 308 200q179 62 383 59
t376 -73t286 -229q114 -158 113 -376q0 -321 -163 -605t-461 -400q-162 -64 -318 -64z" />
    <glyph glyph-name="h" unicode="h" horiz-adv-x="1796" 
d="M640 1456q108 0 172 -39q62 -39 85 -98t38 -129t22 -130t34 -102t76 -43q309 -16 468 -156t159 -421q0 -166 -104 -269t-285 -103q-182 0 -251 90q-28 38 -53 77q-62 96 -184 103q-71 3 -148 -101q-34 -45 -75 -89t-110 -76q-68 -32 -158 -32q-183 1 -247 135
q-63 134 -56 301q8 167 34 324q12 98 36 191q63 241 178 385q61 78 161 130t208 52z" />
    <glyph glyph-name="i" unicode="i" horiz-adv-x="1017" 
d="M850 1401q0 -90 -57 -141q-57 -52 -131 -68t-194 -16t-193 51t-64 118q7 67 77 132t181 92q94 18 179 20q86 2 144 -48t58 -140zM838 708q0 -299 -42 -442q-16 -57 -52 -123q-36 -65 -85 -105q-117 -94 -296 -94q-178 1 -265 98q-86 97 -79 228l14 262l4 46
q27 268 213 434q154 138 320 118t235 -217q33 -99 33 -205z" />
    <glyph glyph-name="j" unicode="j" horiz-adv-x="1046" 
d="M332 1491q64 45 170 56t206 -11t172 -79q73 -58 72 -136q0 -127 -174 -164t-353 23t-194 155q-10 76 101 156zM490 1069q200 0 298 -135t123 -302q25 -166 25 -306q0 -494 -324 -770q-221 -190 -501 -211q-231 -18 -344 86q-63 59 -63 133t54 136q55 64 136 131
q79 67 111 117q62 98 96 386t108 496q37 103 109 171t172 68z" />
    <glyph glyph-name="k" unicode="k" horiz-adv-x="1726" 
d="M1290 1065q102 0 192 -60q90 -61 91 -141q0 -80 -68 -165q-67 -85 -135 -153t-68 -98q0 -32 50 -72q49 -40 109 -71q61 -31 111 -84t50 -112q0 -111 -87 -144t-217 -2q-208 50 -489 170q-104 45 -116 45q-68 0 -189 -126q-45 -48 -108 -87t-121 -39q-117 0 -169 81
t-52 194q0 41 6 101t13 152q28 375 79 592t139 335q108 149 277 149q90 0 146 -49t68 -123q24 -156 -4 -332t17 -190q65 25 141 86t154 102t180 41z" />
    <glyph glyph-name="l" unicode="l" horiz-adv-x="931" 
d="M182 1380q57 120 139 142t140 20q109 0 189 -90t118 -234q126 -491 -43 -981q-49 -143 -136 -231t-192 -84q-211 6 -291 86t-79 262q0 782 155 1110z" />
    <glyph glyph-name="m" unicode="m" horiz-adv-x="2242" 
d="M1207 1145q96 0 239 44t219 44q258 0 400 -315q142 -316 84 -632t-285 -317q-88 0 -158 26q-70 27 -110 63t-71 73q-77 90 -137 89q-59 -1 -108 -72q-18 -26 -68 -48t-125 -22q-76 0 -132 22t-82 48q-70 71 -104 70t-97 -89q-27 -37 -61 -73q-82 -87 -228 -87
q-297 0 -355 264q-58 263 80 557t334 384q164 74 285 84t181 -18q203 -95 299 -95z" />
    <glyph glyph-name="n" unicode="n" horiz-adv-x="1867" 
d="M1747 354q0 -162 -92 -270t-259 -107q-167 0 -227 96q-25 40 -47 80q-53 95 -174 95q-159 0 -227 -54q-29 -24 -47 -53t-36 -57t-41 -52q-54 -53 -194 -55q-219 1 -302 85t-81 274q2 256 99 447q96 191 248 281q151 90 335 126q184 34 368 -20t335 -153q152 -99 247 -275
t95 -388z" />
    <glyph glyph-name="o" unicode="o" horiz-adv-x="1822" 
d="M844 522q55 0 105 54t50 106q0 51 -58 81q-57 31 -127 21t-104 -64t9 -126t125 -72zM1743 564q0 -152 -96 -286t-249 -214t-338 -129q-186 -47 -372 -29t-339 80t-249 202q-96 141 -96 345q0 203 85 345q233 388 714 433q289 25 538 -101t349 -364q54 -129 53 -282z" />
    <glyph glyph-name="p" unicode="p" horiz-adv-x="1783" 
d="M896 520q81 0 137 28q100 50 85 153q-6 42 -54 77t-124 43q-135 15 -178 -61t5 -158t129 -82zM1667 694q0 -184 -50 -310t-128 -186q-156 -120 -384 -164q-97 -18 -199 -60t-152 -92t-84 -127t-57 -136q-21 -59 -77 -105t-143 -46q-258 0 -311 270q-164 811 166 1214
q213 262 575 291q303 25 547 -117q297 -172 297 -432z" />
    <glyph glyph-name="q" unicode="q" horiz-adv-x="1794" 
d="M1055 649q0 76 -47 112q-46 36 -106 33t-112 -35t-63 -83q-25 -117 78 -156q88 -35 169 9t81 120zM1659 672q0 -122 -78 -310t-78 -272t43 -154t95 -112q139 -115 139 -158q0 -72 -58 -119q-97 -79 -282 -79q-258 0 -384 99q-67 52 -110 101t-107 133q-65 83 -110 131
t-142 62t-219 42t-212 99q-140 113 -140 389t139 436q139 158 461 271q152 53 306 56t283 -42q285 -99 395 -329q58 -122 59 -244z" />
    <glyph glyph-name="r" unicode="r" horiz-adv-x="1648" 
d="M16 510q0 438 336 661q260 170 591 158t511 -155q133 -106 133 -252q-1 -104 -69 -174t-156 -99t-205 -71t-172 -84q-99 -73 -118 -212t-90 -233q-36 -47 -122 -77t-217 -30q-300 1 -379 274q-43 151 -43 294z" />
    <glyph glyph-name="s" unicode="s" horiz-adv-x="1464" 
d="M993 886q0 -36 38 -69t93 -69q56 -36 110 -83q54 -46 92 -122t38 -170q0 -195 -264 -318q-254 -121 -578 -115t-452 140q-60 63 -60 140q1 135 135 186q55 20 111 38t96 54q39 36 39 84q0 47 -37 83q-37 37 -87 69t-99 71q-115 92 -92 237q28 164 312 274t558 68
t275 -247q0 -51 -36 -86t-78 -51t-78 -46q-36 -32 -36 -68z" />
    <glyph glyph-name="t" unicode="t" horiz-adv-x="1505" 
d="M6 881q0 136 91 166q40 12 82 22q103 24 133 132t128 187q98 78 215 104t234 -14t176 -149q41 -70 49 -107q2 -10 25 -24t49 -20t100 -22t115 -72q41 -58 41 -134t-33 -130t-81 -82t-97 -50q-121 -55 -131 -135t-25 -177t-44 -155q-73 -142 -147 -187q-107 -65 -286 -66
q-180 0 -248 104q-43 66 -57 144t-13 191q1 115 -3 163q-5 48 -49 81t-93 45t-90 60t-41 125z" />
    <glyph glyph-name="u" unicode="u" horiz-adv-x="1892" 
d="M23 676q0 180 65 333q37 87 116 137t173 50t148 -34t89 -81t71 -95q87 -116 230 -116q89 0 189 50t170 103q70 52 169 84t187 -3q90 -31 122 -147t32 -351q0 -393 -237 -558t-711 -165q-383 0 -576 151q-237 185 -237 642z" />
    <glyph glyph-name="v" unicode="v" horiz-adv-x="2041" 
d="M964 901q102 0 263 106q162 106 272 143q111 36 209 36q140 0 204 -82t64 -200t-56 -233q-56 -114 -116 -186q-60 -71 -122 -139q-63 -68 -74 -80q-434 -472 -858 -285q-205 88 -422 328q-111 120 -224 330t-95 388q9 85 90 137t229 53q82 1 174 -49t161 -109t153 -109
q86 -50 148 -49z" />
    <glyph glyph-name="w" unicode="w" horiz-adv-x="2455" 
d="M757 858q72 0 152 97q33 40 69 81q87 99 189 99t170 -88l58 -74q70 -90 167 -89q96 1 226 153q47 57 129 105t178 48q149 0 215 -91t66 -221q0 -422 -243 -677q-81 -85 -205 -139t-258 -54t-226 31t-163 61t-153 29q-82 0 -162 -37q-79 -37 -150 -74t-150 -36
q-158 0 -286 74t-204 193q-156 242 -156 507q0 147 67 274t210 149t202 -57q59 -80 109 -169q22 -39 63 -67q40 -28 86 -28z" />
    <glyph glyph-name="x" unicode="x" horiz-adv-x="1789" 
d="M4 956q0 104 89 180t211 74q122 0 337 -101t299 -101q49 0 124 45t168 91t190 46t177 -58t80 -140q0 -133 -169 -323q-58 -67 -62 -89t62 -94q66 -70 138 -160q142 -179 1 -287q-70 -53 -156 -53t-213 46q-126 46 -234 91t-143 43t-143 -49t-224 -93t-235 -74t-196 14
t-77 152t112 291q36 56 49 132q14 76 -35 127q-102 125 -126 181t-24 109z" />
    <glyph glyph-name="y" unicode="y" horiz-adv-x="1994" 
d="M1913 870q0 -132 -109 -346q-108 -214 -266 -416t-348 -368t-339 -215t-304 -41q-78 4 -129 48q-52 44 -56 125t66 207t70 193q0 121 -154 304q-63 77 -136 160t-126 163t-79 154t7 144t129 126q131 66 222 64t187 -48q96 -47 167 -103q187 -149 315 -151q2 0 54 33
t129 76q221 124 336 148q114 24 192 17t125 -74q47 -68 47 -200z" />
    <glyph glyph-name="z" unicode="z" horiz-adv-x="1501" 
d="M475 754q0 35 -41 54q-41 18 -99 30q-57 12 -117 29t-101 61t-41 114t77 121q203 135 830 142q322 0 322 -205q1 -106 -59 -217t-131 -183t-130 -130t-59 -70q43 -65 282 -79q84 -5 152 -51t68 -134t-78 -154q-132 -112 -448 -145q-315 -33 -600 44q-124 32 -202 94
t-78 139t161 195q67 48 133 100q160 127 159 245z" />
    <glyph glyph-name="braceleft" unicode="{" horiz-adv-x="1056" 
d="M816 1632q194 0 194 -145q0 -47 -33 -87t-86 -82t-75 -70t-33 -72t-13 -68q-2 -25 0 -87t2 -71q0 -78 -57 -206t-58 -134q3 -49 42 -93t49 -60q43 -72 56 -245t48 -243q12 -25 86 -99t74 -110q0 -80 -142 -102t-305 36q-164 60 -215 185q-33 83 -52 187t-54 180t-129 168
q-29 29 -49 81t-18 83q2 32 40 102q112 213 131 393q29 262 258 430q176 129 339 129z" />
    <glyph glyph-name="bar" unicode="|" horiz-adv-x="708" 
d="M582 1190v-123q0 -236 -14 -506q-14 -271 -15 -335t-21 -145q-47 -186 -148 -246q-56 -35 -127 -15q-146 40 -192 172q-42 116 -42 297q0 344 6 436t7 182t10 236t36 223q27 78 62 138q76 126 239 130q78 4 115 -48q20 -28 36 -54t23 -75q9 -48 17 -95q8 -46 8 -172z" />
    <glyph glyph-name="braceright" unicode="}" horiz-adv-x="1036" 
d="M829 123q0 -186 -211 -336q-176 -125 -350 -139t-196 90q-4 14 -4 31q0 49 40 103t88 95t88 107t40 120t-20 130q-19 76 -19 120t41 140q41 94 41 141t-49 121q-48 74 -48 117q0 96 -33 195q-34 98 -73 162q-98 160 -74 214q63 72 181 74t233 -47t212 -124t132 -149
t39 -136t-10 -144q-15 -82 -15 -140t66 -116q66 -59 66 -95t-26 -74t-57 -73t-57 -135t-25 -252z" />
    <glyph glyph-name="asciitilde" unicode="~" horiz-adv-x="1521" 
d="M528 1141q-74 0 -192 -49q-117 -49 -178 -50q-141 0 -133 88q9 94 163 224q193 163 370 137q40 -6 152 -61q112 -56 188 -56t212 54q135 54 203 55q190 0 186 -101q-4 -90 -143 -194q-182 -131 -365 -135q-81 0 -235 44t-228 44z" />
    <glyph glyph-name="exclamdown" unicode="&#xa1;" horiz-adv-x="724" 
d="M524 1409q0 -71 -72 -97t-159 -12q-86 14 -133 50q-113 84 -33 147t219 55t172 -100q6 -20 6 -43zM119 1107q75 73 173 73q97 0 138 -41q23 -23 40 -44t31 -81q15 -60 17 -103t3 -62t0 -63t-1 -86q0 -43 24 -146t44 -221q33 -204 -39 -304q-72 -101 -240 -101t-231 81
t-69 249q-1 54 3 150t4 124l-2 185q0 135 16 194q38 144 89 196z" />
    <glyph glyph-name="cent" unicode="&#xa2;" horiz-adv-x="1501" 
d="M627 401q37 0 28 99q-2 24 -4 46t-2 28t3 32q7 67 6 119q-2 51 -29 51q-51 0 -99 -70q-47 -71 -45 -121t44 -117t98 -67zM1370 992q0 -72 -33 -108t-81 -38t-97 4t-85 0t-40 -39q-10 -86 -8 -236t16 -233q4 -20 90 -30t166 -36q82 -25 82 -77q0 -127 -123 -179
q-53 -23 -107 -42q-137 -48 -171 -142q-57 -166 -209 -166q-88 0 -126 38t-38 96t-8 84q-13 39 -66 50q-18 3 -56 8q-201 27 -338 146q-196 171 -159 435q36 264 264 462q112 96 251 146q20 6 46 15t38 10t17 6t9 6q4 2 7 12t5 16l9 27q6 20 10 35q37 117 128 178t176 27
t103 -162q8 -53 62 -91t111 -54q59 -17 107 -57t48 -111z" />
    <glyph glyph-name="sterling" unicode="&#xa3;" horiz-adv-x="1456" 
d="M218 -88q-81 0 -132 60t-51 144t76 219q76 136 88 169q-109 18 -151 65t-20 99t82 98q60 47 140 70q13 293 75 433t158 201q132 84 324 82q293 0 471 -145q98 -80 98 -190q0 -47 -35 -70q-61 -40 -324 2q-62 10 -100 10q-124 0 -157 -87q-19 -54 -33 -193
q293 -12 344 -109q39 -74 -90 -145q-109 -61 -295 -95q-19 -166 36 -198t169 4q115 35 212 36q97 0 174 -60t77 -142q0 -114 -114 -163t-225 -55q-110 -5 -165 -5l-232 4q-66 1 -192 -19t-208 -20z" />
    <glyph glyph-name="dieresis" unicode="&#xa8;" horiz-adv-x="1140" 
d="M249 1051q-91 0 -156 44q-123 83 -58 226q29 63 90 100q69 35 143 6t131 -97t57 -130t-58 -106t-149 -43zM940 1458q102 0 152 -73t30 -162q-18 -89 -90 -136q-47 -33 -119 -32q-147 0 -200 101t14 202q68 100 213 100z" />
    <glyph glyph-name="copyright" unicode="&#xa9;" horiz-adv-x="1972" 
d="M670 938q108 137 312 147q85 5 158 -25t64 -97q-2 -25 -54 -50t-104 -55t-58 -77q-6 -46 35 -81q40 -35 90 -51t90 -50t34 -81q-7 -80 -153 -97t-297 65t-169 255q-12 117 52 197zM467 446q145 -303 659 -223q186 29 280 124q93 95 124 284q35 186 -30 342
q-66 157 -216 241t-350 72q-102 -6 -264 -99t-207 -183q-115 -188 -68 -371q21 -78 72 -187zM356 -6q-119 80 -218 268t-122 370t42 397q65 216 194 326q129 109 302 177t375 80t400 -56q301 -102 426 -285t119 -536q-4 -223 -43 -377t-132 -270q-180 -224 -662 -223
q-482 0 -681 129z" />
    <glyph glyph-name="registered" unicode="&#xae;" horiz-adv-x="1984" 
d="M1069 841q0 52 -59 64t-86 -35q-8 -8 -9 -30q0 -51 38 -73t77 0t39 74zM1358 520q0 -120 -129 -121q-55 0 -105 43t-88 85q-37 42 -55 42q-10 0 -20 -45t-43 -89t-95 -44q-209 0 -209 287q0 76 20 168q19 92 62 144t153 79q111 27 219 17t190 -63q82 -52 83 -134
q0 -51 -60 -103t-62 -65q6 -16 42 -42q37 -26 67 -63q30 -36 30 -96zM1219 209q217 92 309 301t22 465q-8 117 -111 205t-243 120t-269 4q-128 -30 -250 -103t-206 -179t-86 -219q-2 -178 64 -328q132 -300 447 -337q153 -17 323 71zM1747 190q-102 -172 -301 -278
t-425 -116t-450 87q-157 74 -291 191t-176 244t-64 231t-21 233t39 238q38 108 132 222t244 204q233 140 512 158t505 -82t327 -285q128 -252 116 -537t-147 -510z" />
    <glyph glyph-name="macron" unicode="&#xaf;" horiz-adv-x="1474" 
d="M164 1409q83 32 306 33q223 2 408 22q184 20 265 13t139 -21q181 -46 178 -203q0 -55 -53 -93t-177 -61t-271 -31q-148 -7 -175 -9q-750 -86 -749 205q0 92 129 145z" />
    <glyph glyph-name="degree" unicode="&#xb0;" horiz-adv-x="765" 
d="M276 1286q0 -60 80 -72t121 29q25 31 3 67t-72 49t-90 -6q-42 -19 -42 -67zM721 1233q0 -103 -116 -161t-245 -58t-217 50t-111 121q-24 71 18 154t145 144q75 47 167 41t172 -41t134 -104q53 -69 53 -146z" />
    <glyph glyph-name="acute" unicode="&#xb4;" horiz-adv-x="802" 
d="M558 1585q79 0 139 -47q61 -48 61 -112t-45 -113t-95 -74t-135 -59q-84 -34 -112 -50q-55 -36 -172 -30t-146 68t67 164t227 178q132 75 211 75z" />
    <glyph glyph-name="middot" unicode="&#xb7;" horiz-adv-x="534" 
d="M270 983q130 1 210 -101t12 -200q-37 -54 -151 -70t-217 34t-104 157q0 76 80 128t170 52z" />
    <glyph glyph-name="cedilla" unicode="&#xb8;" horiz-adv-x="948" 
d="M315 53q279 0 279 -112q0 -24 -14 -64q-25 -75 11 -97t126 -66t132 -77q78 -60 79 -178q0 -162 -230 -254q-230 -91 -458 -73q-229 18 -230 129q0 75 49 115t120 46t142 6t119 7q48 8 49 42t-67 47q-68 12 -160 32t-136 65t-54 120t14 143t84 119q61 50 145 50z" />
    <glyph glyph-name="ordmasculine" unicode="&#xba;" horiz-adv-x="765" 
d="M256 1274q0 -52 54 -70t106 9q51 28 46 81q-5 52 -56 66t-101 -10q-49 -25 -49 -76zM356 1014q-126 0 -213 50q-88 50 -111 121q-24 71 18 154t130 135q89 52 176 56q186 8 279 -130q47 -70 45 -169q-2 -97 -100 -157t-224 -60z" />
    <glyph glyph-name="questiondown" unicode="&#xbf;" horiz-adv-x="1345" 
d="M707 1491q159 0 239 -73t4 -140q-43 -41 -135 -70q-162 -51 -280 33q-86 61 -72 137q17 113 244 113zM659 1092q90 0 163 -79t73 -167t-105 -215q-106 -125 -106 -229q0 -56 26 -86t78 -29t144 22q92 23 132 23t70 -50t29 -100q0 -92 -104 -171q-103 -79 -229 -117
q-235 -70 -502 -21q-266 49 -381 217q-63 94 -63 198t16 162q28 90 140 154q38 23 112 58q74 36 124 66q88 53 160 219q25 57 79 101t144 44z" />
    <glyph glyph-name="Agrave" unicode="&#xc0;" horiz-adv-x="2091" 
d="M510 1896q0 72 47 110t131 38q145 0 301 -100q17 -12 117 -60t162 -95q62 -46 63 -97t-29 -79q-30 -29 -120 -49t-254 15q-162 35 -290 123t-128 194zM999 909q-31 0 -61 -30q-63 -57 -66 -129q-4 -74 80 -74q66 0 143 45t76 98q0 37 -39 64q-40 27 -81 26h-52zM1608 -49
q-113 0 -246 60q-133 59 -249 121t-179 64q-107 4 -234 -76q-51 -34 -106 -69q-129 -82 -298 -82t-254 94q-48 54 -38 130q43 315 139 562q177 455 507 629q302 160 630 17t528 -538q104 -206 154 -439t-27 -353q-76 -120 -327 -120z" />
    <glyph glyph-name="Aacute" unicode="&#xc1;" horiz-adv-x="2091" 
d="M1339 1910q0 -64 -45 -114t-95 -74q-50 -26 -134 -60t-113 -48q-56 -36 -172 -30t-145 68t66 164t227 178q132 74 212 74q79 0 139 -47t60 -111zM999 909q-53 -2 -100 -78q-51 -88 -12 -133q19 -22 75 -22t133 45t76 98q0 37 -39 64q-40 27 -81 26h-52zM1608 -49
q-113 0 -246 60q-133 59 -249 121t-179 64q-107 4 -234 -76q-51 -34 -106 -69q-129 -82 -298 -82t-254 94q-48 54 -38 130q43 315 139 562q177 455 507 629q302 160 630 17t528 -538q104 -206 154 -439t-27 -353q-76 -120 -327 -120z" />
    <glyph glyph-name="Acircumflex" unicode="&#xc2;" horiz-adv-x="2091" 
d="M1372 1438q-66 0 -146 50t-151 103q-73 53 -117 61t-110 -27q-66 -34 -116 -78t-116 -80t-118 -31q-115 8 -169 56t-37 116t99 131q389 313 748 229q213 -51 331 -213q96 -131 62 -224t-160 -93zM999 909q-53 -2 -100 -78q-51 -88 -12 -133q19 -22 75 -22t133 45t76 98
q0 37 -39 64q-40 27 -81 26h-52zM1608 -49q-113 0 -246 60q-133 59 -249 121t-179 64q-107 4 -234 -76q-51 -34 -106 -69q-129 -82 -298 -82t-254 94q-48 54 -38 130q43 315 139 562q177 455 507 629q302 160 630 17t528 -538q104 -206 154 -439t-27 -353
q-76 -120 -327 -120z" />
    <glyph glyph-name="Atilde" unicode="&#xc3;" horiz-adv-x="2091" 
d="M1194 1819q78 0 212 54t202 54q190 0 186 -100q-4 -90 -143 -195q-182 -131 -365 -135q-80 0 -234 44t-230 44q-74 0 -191 -49t-178 -49q-141 0 -134 88q8 94 163 224t304 140l50 -2q57 -8 169 -63q111 -55 189 -55zM999 909q-53 -2 -100 -78q-51 -88 -12 -133
q19 -22 75 -22t133 45t76 98q0 37 -39 64q-40 27 -81 26h-52zM1608 -49q-113 0 -246 60q-133 59 -249 121t-179 64q-107 4 -234 -76q-51 -34 -106 -69q-129 -82 -298 -82t-254 94q-48 54 -38 130q43 315 139 562q177 455 507 629q302 160 630 17t528 -538q104 -206 154 -439
t-27 -353q-76 -120 -327 -120z" />
    <glyph glyph-name="Adieresis" unicode="&#xc4;" horiz-adv-x="2091" 
d="M809 1644q0 -62 -58 -107q-57 -44 -149 -44t-157 44q-121 82 -58 226q29 64 90 101q70 35 144 6q74 -28 131 -96t57 -130zM1266 1497q-146 0 -200 101t13 202q68 100 213 101q102 0 152 -73t30 -162q-18 -89 -90 -136q-47 -33 -118 -33zM999 909q-53 -2 -100 -78
q-51 -88 -12 -133q19 -22 75 -22t133 45t76 98q0 37 -39 64q-40 27 -81 26h-52zM1608 -49q-113 0 -246 60q-133 59 -249 121t-179 64q-107 4 -234 -76q-51 -34 -106 -69q-129 -82 -298 -82t-254 94q-48 54 -38 130q43 315 139 562q177 455 507 629q302 160 630 17t528 -538
q104 -206 154 -439t-27 -353q-76 -120 -327 -120z" />
    <glyph glyph-name="Aring" unicode="&#xc5;" horiz-adv-x="2091" 
d="M815 1655q0 -61 80 -73t121 30q24 30 2 66t-71 49q-50 13 -91 -6t-41 -66zM1608 -49q-113 0 -246 60q-133 59 -249 121t-179 64q-107 4 -234 -76q-51 -34 -106 -69q-129 -82 -298 -82t-254 94q-48 53 -38 130q43 315 139 562q177 455 507 629q33 17 66 32
q-117 52 -143 130q-27 78 15 161t145 144q76 47 168 41q203 -13 305 -144q54 -68 54 -156t-107 -146q229 -57 418 -245q133 -132 237 -338t154 -439t-27 -353q-76 -120 -327 -120zM999 909q-53 -2 -100 -78q-51 -88 -12 -133q19 -22 75 -22t133 45t76 98q0 37 -39 64
q-40 27 -81 26h-52z" />
    <glyph glyph-name="AE" unicode="&#xc6;" horiz-adv-x="2721" 
d="M1860 -90q-116 0 -250 41h-2q-113 0 -246 60q-133 59 -249 121t-179 64q-107 4 -234 -76q-51 -34 -106 -69q-129 -82 -298 -82t-254 94q-48 53 -38 130q43 315 139 562q177 455 507 629q302 160 630 18q73 -32 141 -77q178 156 418 213q183 41 423 13q120 -13 203 -67
t83 -143q0 -61 -70 -117t-138 -92t-69 -51q0 -40 142 -95q53 -22 97 -70t44 -116t-43 -117q-43 -51 -97 -71q-166 -63 -196 -100q3 -52 167 -106q60 -20 110 -70q51 -50 51 -121q0 -72 -47 -128t-117 -88q-195 -89 -522 -89zM1141 875q-44 35 -90 34h-52q-53 -2 -100 -78
q-51 -88 -12 -133q20 -23 78 -22t148 56q8 71 28 143z" />
    <glyph glyph-name="Ccedilla" unicode="&#xc7;" horiz-adv-x="1548" 
d="M2 552q0 246 114 472t318 334q82 42 221 70q351 70 526 -29q103 -59 103 -176q0 -82 -150 -213q-56 -49 -104 -125t-47 -161q0 -85 50 -142t123 -84q72 -27 144 -53q72 -25 122 -79t51 -145q0 -119 -195 -213q-140 -66 -306 -89q34 -21 84 -45q115 -56 164 -93
q74 -56 74 -174q0 -162 -229 -254t-459 -74t-229 129q0 76 49 116t120 46q72 6 142 5t119 7t49 42t-68 47t-160 33q-211 46 -192 254q-171 57 -282 179q-152 169 -152 415z" />
    <glyph glyph-name="Egrave" unicode="&#xc8;" horiz-adv-x="1615" 
d="M303 1954q0 72 47 110t131 37q145 0 301 -100q18 -13 118 -61t162 -94t62 -97t-30 -79t-120 -48t-252 14q-162 35 -291 123q-128 88 -128 195zM1446 215q0 -72 -47 -128q-80 -95 -277 -141q-147 -36 -331 -36q-183 0 -339 61t-251 161t-145 234q-100 264 3 564
q102 299 367 474q301 198 736 147q120 -13 203 -67t83 -143q0 -49 -43 -94t-95 -73q-139 -76 -139 -93q0 -40 142 -95q53 -22 97 -70t44 -116t-43 -117q-43 -51 -97 -71q-166 -63 -196 -100q3 -52 167 -106q61 -20 111 -70t50 -121z" />
    <glyph glyph-name="Eacute" unicode="&#xc9;" horiz-adv-x="1615" 
d="M853 2091q79 0 139 -47q60 -48 60 -112t-44 -113q-46 -49 -96 -74t-134 -59t-112 -50q-55 -36 -172 -30t-146 68q-30 62 66 164t228 178q132 75 211 75zM1446 215q0 -72 -47 -128q-80 -95 -277 -141q-147 -36 -331 -36q-183 0 -339 61t-251 161t-145 234q-100 264 3 564
q102 299 367 474q301 198 736 147q120 -13 203 -67t83 -143q0 -49 -43 -94t-95 -73q-139 -76 -139 -93q0 -40 142 -95q53 -22 97 -70t44 -116t-43 -117q-43 -51 -97 -71q-166 -63 -196 -100q3 -52 167 -106q61 -20 111 -70t50 -121z" />
    <glyph glyph-name="Ecircumflex" unicode="&#xca;" horiz-adv-x="1615" 
d="M1327 1569q-65 0 -145 50t-152 103q-72 52 -116 60t-111 -26q-66 -34 -116 -78t-116 -80t-118 -31q-115 8 -169 56t-37 116t99 131q389 313 748 229q213 -51 331 -213q97 -131 63 -224t-161 -93zM1446 215q0 -72 -47 -128q-80 -95 -277 -141q-147 -36 -331 -36
q-183 0 -339 61t-251 161t-145 234q-100 264 3 564q102 299 367 474q301 198 736 147q120 -13 203 -67t83 -143q0 -49 -43 -94t-95 -73q-139 -76 -139 -93q0 -40 142 -95q53 -22 97 -70t44 -116t-43 -117q-43 -51 -97 -71q-166 -63 -196 -100q3 -52 167 -106q61 -20 111 -70
t50 -121z" />
    <glyph glyph-name="Edieresis" unicode="&#xcb;" horiz-adv-x="1615" 
d="M725 1750q0 -62 -58 -106q-57 -44 -149 -44t-157 44q-121 83 -58 226q29 63 90 100q70 35 144 6q74 -28 131 -96t57 -130zM1208 2007q102 0 152 -73t30 -162q-18 -89 -90 -136q-47 -33 -118 -32q-146 0 -200 101t13 202q68 100 213 100zM1446 215q0 -72 -47 -128
q-80 -95 -277 -141q-147 -36 -331 -36q-183 0 -339 61t-251 161t-145 234q-100 264 3 564q102 299 367 474q301 198 736 147q120 -13 203 -67t83 -143q0 -49 -43 -94t-95 -73q-139 -76 -139 -93q0 -40 142 -95q53 -22 97 -70t44 -116t-43 -117q-43 -51 -97 -71
q-166 -63 -196 -100q3 -52 167 -106q61 -20 111 -70t50 -121z" />
    <glyph glyph-name="Igrave" unicode="&#xcc;" horiz-adv-x="1406" 
d="M303 1896q0 72 47 110t131 38q145 0 301 -100q18 -12 118 -60t162 -95q62 -46 62 -97t-30 -79q-30 -29 -120 -49t-252 15t-291 123q-128 88 -128 194zM1024 596q0 -80 30 -130t72 -70t82 -40q101 -46 101 -150q0 -209 -274 -261q-106 -23 -277 -23h-235q-179 0 -238 16
q-157 42 -192 78q-79 80 -79 185q0 55 33 93t73 56t80 54t51 82t52 193q41 146 41 231q0 132 -91 206t-91 170q0 58 50 112t128 75q138 37 326 37t300 -18q244 -37 314 -153q35 -57 0 -144q-36 -87 -146 -191t-110 -408z" />
    <glyph glyph-name="Iacute" unicode="&#xcd;" horiz-adv-x="1406" 
d="M867 2101q79 0 139 -47q60 -48 61 -112q0 -64 -45 -113t-95 -74t-134 -59t-113 -49q-55 -35 -172 -30t-146 67q-30 62 66 164t228 178q132 75 211 75zM1024 596q0 -80 30 -130t72 -70t82 -40q101 -46 101 -150q0 -207 -274 -261q-101 -23 -357 -23h-96q-60 0 -174 2
t-177 26q-63 23 -115 53q-102 59 -102 198q0 55 33 93t73 56t80 54t51 82t52 193q41 146 41 231q0 132 -91 206t-91 170q0 58 50 112t128 75q138 37 326 37t300 -18q244 -37 314 -153q35 -57 0 -144q-36 -87 -146 -191t-110 -408z" />
    <glyph glyph-name="Icircumflex" unicode="&#xce;" horiz-adv-x="1406" 
d="M1180 1518q-66 0 -146 50t-152 103t-116 61q-45 8 -111 -27q-65 -34 -115 -78t-116 -80t-119 -31q-115 8 -169 56t-37 116q18 68 100 131q389 313 747 229q213 -51 332 -213q96 -131 59 -229q-31 -88 -157 -88zM1024 596q0 -80 30 -130t72 -70t82 -40q101 -46 101 -150
q0 -207 -274 -261q-101 -23 -357 -23h-96q-60 0 -174 2t-177 26q-63 23 -115 53q-102 59 -102 198q0 55 33 93t73 56t80 54t51 82t52 193q41 146 41 231q0 132 -91 206t-91 170q0 58 50 112t128 75q138 37 326 37t300 -18q244 -37 314 -153q35 -57 0 -144q-36 -87 -146 -191
t-110 -408z" />
    <glyph glyph-name="Idieresis" unicode="&#xcf;" horiz-adv-x="1406" 
d="M612 1848q0 -62 -58 -106t-149 -44t-156 44q-122 82 -59 226q30 63 91 100q69 34 143 6t131 -96t57 -130zM1069 1702q-147 0 -201 101t15 201q68 100 213 101q102 -1 151 -73t31 -161t-90 -136q-47 -33 -119 -33zM666 1659q188 1 300 -17t196 -57t118 -96q35 -57 0 -144
q-36 -87 -146 -191t-110 -409q0 -80 30 -130t72 -70q42 -21 82 -39q101 -46 101 -149q0 -104 -79 -180q-55 -52 -174 -78q-118 -27 -378 -27h-96q-273 0 -366 33q-137 49 -177 127q-25 50 -25 112t33 99q33 39 73 57t80 54t51 82t52 192t41 262q0 55 -29 102t-62 74
q-93 74 -92 150q1 78 51 132t128 74q138 37 326 37z" />
    <glyph glyph-name="Eth" unicode="&#xd0;" horiz-adv-x="2037" 
d="M1108 628q0 -22 2 -44q4 -43 35 -43q55 -1 131 71t76 118t-52 79t-107 33q-54 0 -58 -45q1 -2 -5 -27t-9 -43l-8 -48q-5 -29 -5 -51zM183 1006l152 -4q57 178 152 283q284 310 782 188q291 -74 529 -289q115 -104 191 -228q221 -360 -115 -641q-252 -211 -717 -311
q-385 -82 -625 -31q-135 29 -155 97q-39 32 -64 146t-29 172t-5 85q-69 0 -161 12q-93 11 -131 31t-76 46q-71 48 -72 143q-2 175 102 237q103 62 242 64z" />
    <glyph glyph-name="Ntilde" unicode="&#xd1;" horiz-adv-x="2107" 
d="M1202 1839q78 0 212 54t202 55q190 0 186 -101q-4 -90 -143 -194q-182 -131 -365 -135q-80 0 -234 44t-230 44q-74 0 -191 -50t-178 -49q-141 0 -133 88q8 94 162 224t305 141l49 -2q57 -8 169 -64q111 -56 189 -55zM1226 987q22 0 43 43q22 43 42 97t26 63
q106 176 357 176q352 0 352 -438q0 -172 -82 -504q-45 -176 -120 -284t-161 -140q-183 -67 -382 30q-199 96 -332 213q-66 56 -108 94t-44 38q-29 4 -59 -94t-39 -115q-59 -119 -145 -176q-156 -103 -337 10q-79 49 -134 143q-54 94 -67 213t-9 291t24 284t52 212
q31 100 91 169t138 85q196 35 328 8t232 -95t160 -141q58 -72 105 -127t69 -55z" />
    <glyph glyph-name="Ograve" unicode="&#xd2;" horiz-adv-x="2062" 
d="M571 1872q0 72 47 110t132 37q145 0 301 -100q18 -12 117 -60q223 -108 225 -184q1 -59 -29 -87t-120 -48t-254 14q-163 35 -291 123t-128 195zM985 637q154 0 176 94q18 74 -47 137q-80 72 -171 35t-105 -101t32 -115q46 -50 115 -50zM1946 721q0 -360 -316 -602
q-272 -209 -658 -246t-659 127q-311 188 -311 571q0 470 364 711q347 231 803 174t666 -365q111 -163 111 -370z" />
    <glyph glyph-name="Oacute" unicode="&#xd3;" horiz-adv-x="2062" 
d="M1095 2015q79 0 139 -47q60 -48 60 -112t-45 -113t-95 -74t-134 -59t-113 -49q-55 -35 -171 -30t-146 67q-29 62 66 164q96 102 228 178q132 75 211 75zM985 637q154 0 176 94q18 74 -47 137q-80 72 -171 35t-105 -101t32 -115q46 -50 115 -50zM1946 721
q0 -360 -316 -602q-272 -209 -658 -246t-659 127q-311 188 -311 571q0 470 364 711q347 231 803 174t666 -365q111 -163 111 -370z" />
    <glyph glyph-name="Ocircumflex" unicode="&#xd4;" horiz-adv-x="2062" 
d="M1450 1511q-66 1 -146 51t-151 103q-72 53 -117 60q-44 7 -110 -27t-116 -77q-50 -44 -116 -80t-119 -32q-115 9 -169 57t-36 116q17 68 99 130q389 313 748 230q213 -51 331 -213q96 -131 62 -225t-160 -93zM985 637q154 0 176 94q18 74 -47 137q-80 72 -171 35
t-105 -101t32 -115q46 -50 115 -50zM1946 721q0 -360 -316 -602q-272 -209 -658 -246t-659 127q-311 188 -311 571q0 470 364 711q347 231 803 174t666 -365q111 -163 111 -370z" />
    <glyph glyph-name="Otilde" unicode="&#xd5;" horiz-adv-x="2062" 
d="M1132 1833q76 0 211 54t203 55q190 0 187 -101q-4 -90 -144 -194q-182 -131 -364 -136q-80 0 -235 44t-229 44q-73 0 -191 -49t-179 -49q-141 0 -133 88q8 94 163 224t304 141l49 -2q57 -8 169 -64q113 -56 189 -55zM985 637q154 0 176 94q18 74 -47 137q-80 72 -171 35
t-105 -101t32 -115q46 -50 115 -50zM1946 721q0 -360 -316 -602q-272 -209 -658 -246t-659 127q-311 188 -311 571q0 470 364 711q347 231 803 174t666 -365q111 -163 111 -370z" />
    <glyph glyph-name="Odieresis" unicode="&#xd6;" horiz-adv-x="2062" 
d="M868 1694q0 -62 -58 -106t-149 -44t-156 44q-122 83 -59 227q30 63 91 100q69 35 143 6t131 -97t57 -130zM1325 1548q-147 0 -201 100t15 202q68 101 213 102q102 0 151 -73t31 -162t-90 -136q-47 -33 -119 -33zM985 637q154 0 176 94q18 74 -47 137q-80 72 -171 35
t-105 -101t32 -115q46 -50 115 -50zM1946 721q0 -360 -316 -602q-272 -209 -658 -246t-659 127q-311 188 -311 571q0 470 364 711q347 231 803 174t666 -365q111 -163 111 -370z" />
    <glyph glyph-name="Oslash" unicode="&#xd8;" horiz-adv-x="2062" 
d="M985 637q154 0 176 94q18 74 -47 137q-80 72 -171 35t-105 -101t32 -115q46 -50 115 -50zM1774 1614q82 0 145 -68t63 -148t-85 -196q-35 -48 -77 -90q8 -10 15 -21q111 -163 111 -370q0 -360 -316 -602q-272 -209 -655 -246q-251 -24 -453 36q-324 -239 -502 -99
q-72 74 -45 177t125 217q-98 153 -98 378q0 459 364 700q347 231 799 174q127 -16 240 -53q246 211 369 211z" />
    <glyph glyph-name="Ugrave" unicode="&#xd9;" horiz-adv-x="1966" 
d="M481 1726q0 72 47 110t131 38q145 0 302 -100q18 -12 117 -60q100 -48 162 -95q62 -46 62 -97t-28 -79q-30 -29 -120 -49t-254 15q-163 35 -291 123t-128 194zM708 1244q112 -138 241 -138t227 98q38 41 82 81q107 99 307 97q159 0 227 -142t50 -332t-68 -368
q-49 -177 -105 -264q-90 -139 -250 -221t-342 -96t-372 42t-344 172q-153 116 -249 319q-97 203 -98 458q0 92 16 174q15 82 71 166q57 84 149 111q127 33 204 17q78 -16 144 -68q66 -51 110 -106z" />
    <glyph glyph-name="Uacute" unicode="&#xda;" horiz-adv-x="1966" 
d="M1006 1395q-55 -35 -172 -29t-146 67q-30 62 66 164q96 101 228 177t211 76t139 -48t60 -112t-44 -113q-46 -49 -96 -74t-134 -59t-112 -49zM708 1244q112 -138 241 -138t227 98q38 41 82 81q107 99 307 97q159 0 227 -142t50 -332t-68 -368q-49 -177 -105 -264
q-90 -139 -250 -221t-342 -96t-372 42t-344 172q-153 116 -249 319q-97 203 -98 458q0 92 16 174q15 82 71 166q57 84 149 111q127 33 204 17q78 -16 144 -68q66 -51 110 -106z" />
    <glyph glyph-name="Ucircumflex" unicode="&#xdb;" horiz-adv-x="1966" 
d="M1393 1503q-66 0 -146 50q-79 49 -151 103t-117 61t-111 -27t-116 -77q-50 -44 -115 -80q-66 -36 -119 -32q-115 9 -169 57q-55 48 -37 116t100 130q389 313 747 230q213 -51 332 -213q96 -131 59 -230q-31 -88 -157 -88zM708 1244q112 -138 241 -138t227 98q38 41 82 81
q107 99 307 97q159 0 227 -142t50 -332t-68 -368q-49 -177 -105 -264q-90 -139 -250 -221t-342 -96t-372 42t-344 172q-153 116 -249 319q-97 203 -98 458q0 92 16 174q15 82 71 166q57 84 149 111q127 33 204 17q78 -16 144 -68q66 -51 110 -106z" />
    <glyph glyph-name="Udieresis" unicode="&#xdc;" horiz-adv-x="1966" 
d="M856 1636q0 -62 -58 -106t-149 -43q-91 0 -156 44q-122 82 -59 226q29 64 90 101q70 35 144 6t131 -97q57 -69 57 -131zM1313 1491q-147 0 -201 100q-53 100 14 202q68 101 213 101q102 0 152 -72q49 -73 31 -162t-90 -136q-47 -33 -119 -33zM708 1244q112 -138 241 -138
t227 98q38 41 82 81q107 99 307 97q159 0 227 -142t50 -332t-68 -368q-49 -177 -105 -264q-90 -139 -250 -221t-342 -96t-372 42t-344 172q-153 116 -249 319q-97 203 -98 458q0 92 16 174q15 82 71 166q57 84 149 111q127 33 204 17q78 -16 144 -68q66 -51 110 -106z" />
    <glyph glyph-name="Yacute" unicode="&#xdd;" horiz-adv-x="1933" 
d="M1142 1911q79 0 139 -47q60 -48 60 -112t-45 -114t-95 -74t-134 -59t-113 -49q-56 -36 -172 -30t-145 68t66 164t227 178q132 75 212 75zM1479 1423q172 -1 267 -113t95 -268q0 -106 -32 -181q-31 -75 -79 -111q-97 -75 -226 -118q-56 -20 -106 -58t-70 -81t-57 -163
q-38 -120 -85 -201q-89 -154 -231 -154t-228 44t-113 112q-49 122 -40 311q9 188 -87 232q-272 136 -369 231q-44 43 -80 103t-36 120q0 138 106 224t256 86q152 0 310 -76t274 -180q37 0 116 60q80 60 190 120t225 61z" />
    <glyph glyph-name="Thorn" unicode="&#xde;" horiz-adv-x="1415" 
d="M569 645q11 2 63 3t87 3q35 1 69 15t41 39q21 83 -69 115t-168 -11q-98 -52 -23 -164zM283 -59q-322 0 -269 944q2 12 2 67t8 109q8 55 16 121t26 104t44 82q51 84 162 84q149 0 220 -128q55 -102 63 -237q147 33 309 11t283 -94q121 -70 169 -187t-30 -272
q-53 -99 -117 -138q-41 -27 -69 -45t-85 -29q-58 -11 -83 -19q-24 -8 -96 -12q-72 -3 -109 -5t-174 -2q-49 -354 -270 -354z" />
    <glyph glyph-name="germandbls" unicode="&#xdf;" horiz-adv-x="1714" 
d="M567 657q0 -16 3 -87q5 -108 -3 -252q-7 -144 -64 -266t-201 -122q-143 0 -226 195q-96 221 -47 524q59 375 306 596t628 221q143 0 221 -47q168 -96 168 -223q0 -57 -45 -166t-45 -168q0 -106 124 -213q52 -43 104 -90t89 -118t37 -158q0 -229 -207 -338
q-166 -85 -337 -55t-202 130q-6 20 -6 41q0 70 47 119q47 48 103 68q146 51 139 106q-6 43 -42 78t-74 55q-39 21 -69 65t-30 103l16 166q0 90 -94 134t-184 -19q-109 -78 -109 -279z" />
    <glyph glyph-name="agrave" unicode="&#xe0;" horiz-adv-x="1810" 
d="M465 1622q0 72 47 110t131 37q145 0 301 -100q18 -12 118 -60q224 -108 224 -184q0 -59 -30 -87t-120 -48t-252 14q-162 36 -291 124q-128 88 -128 194zM748 633q0 -84 70 -122t142 4q70 42 70 155q0 68 -54 94t-120 -2q-66 -26 -98 -92q-10 -20 -10 -37zM1710 233
q0 -102 -54 -170t-169 -67q-72 0 -165 52t-142 52q-111 0 -322 -59t-323 -59q-221 0 -372 146t-151 341q1 229 143 400t321 255q333 156 673 -2q340 -159 487 -516q74 -178 74 -373z" />
    <glyph glyph-name="aacute" unicode="&#xe1;" horiz-adv-x="1810" 
d="M1149 1568q0 -64 -45 -114t-95 -74q-51 -26 -135 -60t-112 -48q-55 -36 -172 -30t-146 68q-30 62 66 164t228 178q132 74 211 74t139 -47t61 -111zM748 633q0 -84 70 -122t142 4q70 42 70 155q0 68 -54 94t-120 -2q-66 -26 -98 -92q-10 -20 -10 -37zM1710 233
q0 -102 -54 -170t-169 -67q-72 0 -165 52t-142 52q-111 0 -322 -59t-323 -59q-221 0 -372 146t-151 341q1 229 143 400t321 255q333 156 673 -2q340 -159 487 -516q74 -178 74 -373z" />
    <glyph glyph-name="acircumflex" unicode="&#xe2;" horiz-adv-x="1810" 
d="M1280 1178q-66 0 -146 50t-151 103q-72 53 -117 61q-44 8 -110 -27q-66 -34 -116 -78t-116 -80t-118 -31q-115 8 -169 56t-37 116t99 131q389 313 748 229q213 -51 331 -213q96 -131 62 -224t-160 -93zM748 633q0 -84 70 -122t142 4q70 42 70 155q0 68 -54 94t-120 -2
q-66 -26 -98 -92q-10 -20 -10 -37zM1710 233q0 -102 -54 -170t-169 -67q-72 0 -165 52t-142 52q-111 0 -322 -59t-323 -59q-221 0 -372 146t-151 341q1 229 143 400t321 255q333 156 673 -2q340 -159 487 -516q74 -178 74 -373z" />
    <glyph glyph-name="atilde" unicode="&#xe3;" horiz-adv-x="1810" 
d="M1070 1565q78 0 211 54q134 54 202 54q190 0 186 -100q-4 -90 -143 -195q-182 -131 -365 -135q-81 0 -235 44t-228 44t-192 -49q-117 -49 -178 -49q-141 0 -133 88q9 94 163 224t304 141l49 -3q57 -8 169 -63t190 -55zM748 633q0 -84 70 -122t142 4q70 42 70 155
q0 68 -54 94t-120 -2q-66 -26 -98 -92q-10 -20 -10 -37zM1710 233q0 -102 -54 -170t-169 -67q-72 0 -165 52t-142 52q-111 0 -322 -59t-323 -59q-221 0 -372 146t-151 341q1 229 143 400t321 255q333 156 673 -2q340 -159 487 -516q74 -178 74 -373z" />
    <glyph glyph-name="adieresis" unicode="&#xe4;" horiz-adv-x="1810" 
d="M729 1366q0 -62 -58 -106t-149 -43q-91 0 -156 44q-122 82 -59 226q29 63 90 100q70 35 144 6t131 -97t57 -130zM1212 1624q102 0 152 -73t31 -162q-18 -89 -90 -136q-47 -33 -119 -32q-147 0 -201 100q-53 100 14 202q68 101 213 101zM748 633q0 -84 70 -122t142 4
q70 42 70 155q0 68 -54 94t-120 -2q-66 -26 -98 -92q-10 -20 -10 -37zM1710 233q0 -102 -54 -170t-169 -67q-72 0 -165 52t-142 52q-111 0 -322 -59t-323 -59q-221 0 -372 146t-151 341q1 229 143 400t321 255q333 156 673 -2q340 -159 487 -516q74 -178 74 -373z" />
    <glyph glyph-name="aring" unicode="&#xe5;" horiz-adv-x="1810" 
d="M748 633q0 -84 70 -122t142 4q70 42 70 155q0 68 -54 94t-120 -2q-66 -26 -98 -92q-10 -20 -10 -37zM1210 1284q0 -88 -103 -144q191 -73 323 -215q132 -141 206 -319t74 -373q0 -102 -54 -170t-169 -67q-72 0 -165 52t-142 52q-111 0 -322 -59t-323 -59q-221 0 -372 146
t-151 341q1 229 143 400q176 213 422 296q-108 98 -37 235q42 83 146 144q76 47 167 41t171 -41q80 -36 133 -104t53 -156zM766 1348q0 -60 80 -72t121 29q25 30 3 66t-72 49t-91 -6t-41 -66z" />
    <glyph glyph-name="ae" unicode="&#xe6;" horiz-adv-x="2734" 
d="M1706 831q0 -78 93 -92t187 26q93 40 93 97q0 90 -93 102t-187 -36q-93 -48 -93 -97zM748 633q0 -84 70 -122t142 4q70 42 70 155q0 68 -54 94t-120 -2q-66 -26 -98 -92q-10 -20 -10 -37zM1944 1333q328 0 526 -188q98 -94 98 -209q0 -84 -50 -159t-110 -115t-109 -82
q-50 -41 -50 -69t53 -45q53 -16 118 -32q66 -16 118 -78t52 -169t-78 -181q-135 -125 -445 -135q-310 -9 -498 66q-92 35 -169 75q-37 12 -104 50t-116 38q-111 0 -322 -59t-323 -59q-221 0 -372 146t-151 341q1 229 143 400t321 255q333 156 682 -6q64 -30 121 -67
q6 5 11 10q134 121 316 197t338 75z" />
    <glyph glyph-name="ccedilla" unicode="&#xe7;" horiz-adv-x="1519" 
d="M870 1319q98 0 182 -69t85 -156q1 -54 -49 -102t-98 -97t-48 -113t47 -122q47 -56 114 -95t133 -77q160 -92 161 -216q0 -125 -77 -211q-77 -85 -178 -115t-191 -41q10 -21 88 -60q144 -70 193 -107q73 -56 75 -174q1 -162 -229 -254t-460 -74t-229 129q0 76 49 116
t120 46q72 6 142 5t119 7t49 42t-68 47t-159 33q-92 20 -136 65q-45 45 -53 108t1 113q-226 64 -348 195q-89 96 -108 200q-57 315 255 647q92 98 197 171q226 159 421 159z" />
    <glyph glyph-name="egrave" unicode="&#xe8;" horiz-adv-x="1697" 
d="M446 1776q0 72 48 110t131 37q145 0 301 -100q18 -13 117 -61t161 -94t64 -97q0 -51 -30 -79t-120 -48t-253 14q-163 35 -291 123t-128 195zM705 831q0 -78 93 -92t186 26t93 97q0 90 -93 102t-186 -36t-93 -97zM943 1333q157 0 292 -47t233 -141q98 -93 98 -193
t-49 -175t-109 -115t-110 -82q-50 -41 -51 -69q0 -28 53 -45q53 -16 118 -32t118 -78t53 -169t-79 -181q-80 -74 -200 -102q-247 -58 -530 -19q-127 19 -213 52q-256 96 -393 242t-149 298q-11 151 59 307t205 277t316 197t338 75z" />
    <glyph glyph-name="eacute" unicode="&#xe9;" horiz-adv-x="1697" 
d="M882 1831q79 0 139 -47q60 -48 60 -112t-45 -113t-95 -74t-134 -60t-113 -49q-56 -36 -172 -30t-145 68t66 164t227 178q132 75 212 75zM705 831q0 -78 93 -92t186 26t93 97q0 90 -93 102t-186 -36t-93 -97zM943 1333q157 0 292 -47t233 -141q98 -93 98 -193t-49 -175
t-109 -115t-110 -82q-50 -41 -51 -69q0 -28 53 -45q53 -16 118 -32t118 -78t53 -169t-79 -181q-80 -74 -200 -102q-247 -58 -530 -19q-127 19 -213 52q-256 96 -393 242t-149 298q-11 151 59 307t205 277t316 197t338 75z" />
    <glyph glyph-name="ecircumflex" unicode="&#xea;" horiz-adv-x="1697" 
d="M1358 1325q-66 0 -146 50q-80 49 -152 103t-116 61t-110 -27t-116 -78t-116 -79q-66 -36 -119 -32q-115 8 -169 56t-36 116q17 68 99 131q389 313 747 229q213 -51 332 -213q96 -131 62 -224t-160 -93zM705 831q0 -78 93 -92t186 26t93 97q0 90 -93 102t-186 -36t-93 -97
zM943 1333q157 0 292 -47t233 -141q98 -93 98 -193t-49 -175t-109 -115t-110 -82q-50 -41 -51 -69q0 -28 53 -45q53 -16 118 -32t118 -78t53 -169t-79 -181q-80 -74 -200 -102q-247 -58 -530 -19q-127 19 -213 52q-256 96 -393 242t-149 298q-11 151 59 307t205 277t316 197
t338 75z" />
    <glyph glyph-name="edieresis" unicode="&#xeb;" horiz-adv-x="1697" 
d="M784 1514q0 -62 -58 -106t-149 -44t-156 44q-122 82 -59 226q30 64 91 101q69 35 143 6t131 -97t57 -130zM1241 1368q-147 0 -201 100q-53 100 15 202t213 102q102 0 151 -73t31 -162t-90 -136q-47 -33 -119 -33zM705 831q0 -78 93 -92t186 26t93 97q0 90 -93 102
t-186 -36t-93 -97zM943 1333q157 0 292 -47t233 -141q98 -93 98 -193t-49 -175t-109 -115t-110 -82q-50 -41 -51 -69q0 -28 53 -45q53 -16 118 -32t118 -78t53 -169t-79 -181q-80 -74 -200 -102q-247 -58 -530 -19q-127 19 -213 52q-256 96 -393 242t-149 298
q-11 151 59 307t205 277t316 197t338 75z" />
    <glyph glyph-name="igrave" unicode="&#xec;" horiz-adv-x="968" 
d="M59 1554q0 72 47 110t132 38q145 0 301 -100q18 -12 117 -60q100 -48 162 -95q62 -46 62 -97t-28 -79q-30 -29 -120 -49t-254 15q-163 35 -291 123t-128 194zM838 708q0 -299 -42 -442q-16 -57 -52 -123q-36 -65 -85 -105q-117 -94 -296 -94q-178 1 -265 98
q-86 97 -79 228l14 262l4 46q27 268 213 434q154 138 320 118t235 -217q33 -99 33 -205z" />
    <glyph glyph-name="iacute" unicode="&#xed;" horiz-adv-x="968" 
d="M451 1186q-55 -36 -172 -30t-146 68t67 164t227 178q132 74 211 74t139 -47q61 -47 61 -111t-45 -114t-95 -74q-50 -26 -135 -60q-84 -34 -112 -48zM838 708q0 -299 -42 -442q-16 -57 -52 -123q-36 -65 -85 -105q-117 -94 -296 -94q-178 1 -265 98q-86 97 -79 228l14 262
l4 46q27 268 213 434q154 138 320 118t235 -217q33 -99 33 -205z" />
    <glyph glyph-name="icircumflex" unicode="&#xee;" horiz-adv-x="968" 
d="M965 1096q-66 0 -146 50q-79 50 -151 103t-117 61t-111 -27q-66 -34 -116 -78t-115 -80q-66 -36 -119 -31q-115 8 -169 56t-37 116q18 68 100 131q389 313 747 229q213 -51 332 -213q96 -131 59 -229q-31 -88 -157 -88zM838 708q0 -299 -42 -442q-16 -57 -52 -123
q-36 -65 -85 -105q-117 -94 -296 -94q-178 1 -265 98q-86 97 -79 228l14 262l4 46q27 268 213 434q154 138 320 118t235 -217q33 -99 33 -205z" />
    <glyph glyph-name="idieresis" unicode="&#xef;" horiz-adv-x="968" 
d="M393 1330q0 -62 -58 -106t-149 -44t-156 44q-122 82 -59 226q29 63 90 100q70 35 144 6q74 -28 131 -96t57 -130zM850 1184q-147 0 -201 100q-53 100 15 202t213 101q102 0 151 -73q49 -74 31 -162t-90 -135q-47 -33 -119 -33zM838 708q0 -299 -42 -442q-16 -57 -52 -123
q-36 -65 -85 -105q-117 -94 -296 -94q-178 1 -265 98q-86 97 -79 228l14 262l4 46q27 268 213 434q154 138 320 118t235 -217q33 -99 33 -205z" />
    <glyph glyph-name="eth" unicode="&#xf0;" horiz-adv-x="1435" 
d="M496 464q0 -68 80 -100q80 -30 139 19q57 51 26 162q-16 59 -76 65q-61 6 -115 -36t-54 -110zM657 -78q-328 0 -505 225q-135 175 -117 387t170 310q92 59 215 59q18 0 135 -16t150 -6q-46 71 -177 161q-160 -45 -299 -12t-98 131q20 51 86 111q-154 150 -94 250
q51 84 209 75q100 -6 207 -51q205 102 354 70q129 -27 111 -146q-12 -78 -91 -182q210 -181 322 -449q185 -447 -26 -717q-71 -92 -212 -146t-340 -54z" />
    <glyph glyph-name="ntilde" unicode="&#xf1;" horiz-adv-x="1867" 
d="M1046 1602q76 0 211 54t203 54q190 0 187 -100q-4 -90 -144 -195q-182 -131 -364 -135q-80 0 -235 44t-229 44q-73 0 -191 -49t-179 -49q-141 0 -133 88q8 94 163 224t304 140l49 -2q57 -8 169 -63q113 -55 189 -55zM1747 354q0 -162 -92 -270t-259 -107q-167 0 -227 96
q-25 40 -47 80q-53 95 -174 95q-159 0 -227 -54q-29 -24 -47 -53t-36 -57t-41 -52q-54 -53 -194 -55q-219 1 -302 85t-81 274q2 256 99 447q96 191 248 281q151 90 335 126q184 34 368 -20t335 -153q152 -99 247 -275t95 -388z" />
    <glyph glyph-name="ograve" unicode="&#xf2;" horiz-adv-x="1822" 
d="M461 1714q0 72 47 110t131 38q145 0 301 -101q18 -12 118 -60q224 -108 224 -183q0 -60 -30 -88t-120 -48t-252 14q-162 36 -291 124q-128 88 -128 194zM844 522q55 0 105 54t50 106q0 51 -58 81q-57 31 -127 21t-104 -64t9 -126t125 -72zM1743 564q0 -152 -96 -286
t-249 -214t-338 -129q-186 -47 -372 -29t-339 80t-249 202q-96 141 -96 345q0 203 85 345q233 388 714 433q289 25 538 -101t349 -364q54 -129 53 -282z" />
    <glyph glyph-name="oacute" unicode="&#xf3;" horiz-adv-x="1822" 
d="M986 1837q79 0 139 -47q61 -48 61 -112t-45 -113t-95 -74t-134 -59t-113 -50q-55 -36 -172 -30t-146 68t67 164t227 178q132 75 211 75zM844 522q55 0 105 54t50 106q0 51 -58 81q-57 31 -127 21t-104 -64t9 -126t125 -72zM1743 564q0 -152 -96 -286t-249 -214t-338 -129
q-186 -47 -372 -29t-339 80t-249 202q-96 141 -96 345q0 203 85 345q233 388 714 433q289 25 538 -101t349 -364q54 -129 53 -282z" />
    <glyph glyph-name="ocircumflex" unicode="&#xf4;" horiz-adv-x="1822" 
d="M350 1645q389 313 748 229q213 -51 332 -213q96 -131 59 -229q-31 -88 -158 -89q-65 1 -145 51t-152 103t-116 60t-111 -27q-66 -34 -116 -77q-50 -44 -116 -80t-118 -32q-115 9 -169 57t-37 116t99 131zM844 522q55 0 105 54t50 106q0 51 -58 81q-57 31 -127 21
t-104 -64t9 -126t125 -72zM1743 564q0 -152 -96 -286t-249 -214t-338 -129q-186 -47 -372 -29t-339 80t-249 202q-96 141 -96 345q0 203 85 345q233 388 714 433q289 25 538 -101t349 -364q54 -129 53 -282z" />
    <glyph glyph-name="otilde" unicode="&#xf5;" horiz-adv-x="1822" 
d="M1070 1712q78 0 211 54q134 54 202 55q190 0 186 -101q-4 -90 -143 -194q-182 -131 -365 -135q-81 0 -235 44t-228 44t-192 -49q-117 -49 -178 -50q-141 0 -133 88q9 94 163 224t304 141l49 -2q57 -7 169 -63t190 -56zM844 522q55 0 105 54t50 106q0 51 -58 81
q-57 31 -127 21t-104 -64t9 -126t125 -72zM1743 564q0 -152 -96 -286t-249 -214t-338 -129q-186 -47 -372 -29t-339 80t-249 202q-96 141 -96 345q0 203 85 345q233 388 714 433q289 25 538 -101t349 -364q54 -129 53 -282z" />
    <glyph glyph-name="odieresis" unicode="&#xf6;" horiz-adv-x="1822" 
d="M762 1544q0 -62 -58 -106t-150 -43q-91 0 -156 44q-121 82 -58 226q29 63 90 100q70 35 144 7t130 -97q58 -69 58 -131zM1219 1399q-147 0 -201 101t14 202q68 100 213 100q102 0 152 -72q49 -73 31 -162t-91 -136q-47 -33 -118 -33zM844 522q55 0 105 54t50 106
q0 51 -58 81q-57 31 -127 21t-104 -64t9 -126t125 -72zM1743 564q0 -152 -96 -286t-249 -214t-338 -129q-186 -47 -372 -29t-339 80t-249 202q-96 141 -96 345q0 203 85 345q233 388 714 433q289 25 538 -101t349 -364q54 -129 53 -282z" />
    <glyph glyph-name="oslash" unicode="&#xf8;" horiz-adv-x="1822" 
d="M844 522q55 0 105 54t50 106q0 51 -58 81q-57 31 -127 21t-104 -64t9 -126t125 -72zM1534 1462q195 0 244 -76t-60 -210q-38 -46 -66 -80t-67 -75q158 -188 158 -454q0 -155 -96 -289t-249 -214q-460 -242 -918 -121q-132 -123 -294 -193t-268 -10q-61 37 -61 78
q0 80 154 263q44 53 92 103q-2 2 -3 4q-96 141 -96 345q0 203 85 345q233 388 714 433q221 19 425 -51q208 202 306 202z" />
    <glyph glyph-name="ugrave" unicode="&#xf9;" horiz-adv-x="1880" 
d="M418 1567q0 71 47 109t131 38q145 0 301 -100q17 -12 117 -60t162 -95q62 -46 63 -97t-29 -79q-30 -29 -120 -49t-254 15q-162 35 -290 123t-128 195zM23 676q0 180 65 333q37 87 116 137t173 50t148 -34t89 -81t71 -95q87 -116 230 -116q89 0 189 50t170 103
q70 52 169 84t187 -3q90 -31 122 -147t32 -351q0 -393 -237 -558t-711 -165q-383 0 -576 151q-237 185 -237 642z" />
    <glyph glyph-name="uacute" unicode="&#xfa;" horiz-adv-x="1880" 
d="M1335 1525q0 -63 -45 -113t-95 -75t-134 -59t-113 -49q-56 -35 -172 -29t-145 67q-29 63 66 165t227 177t212 75q78 0 138 -48q60 -47 61 -111zM23 676q0 180 65 333q37 87 116 137t173 50t148 -34t89 -81t71 -95q87 -116 230 -116q89 0 189 50t170 103q70 52 169 84
t187 -3q90 -31 122 -147t32 -351q0 -393 -237 -558t-711 -165q-383 0 -576 151q-237 185 -237 642z" />
    <glyph glyph-name="ucircumflex" unicode="&#xfb;" horiz-adv-x="1880" 
d="M1352 1305q-66 0 -146 50t-152 103q-72 52 -116 60q-45 8 -111 -26q-65 -34 -115 -78t-116 -80t-119 -31q-115 8 -169 56t-37 116q18 68 100 131q389 313 747 229q213 -51 332 -213q96 -131 59 -229q-31 -88 -157 -88zM23 676q0 180 65 333q37 87 116 137t173 50t148 -34
t89 -81t71 -95q87 -116 230 -116q89 0 189 50t170 103q70 52 169 84t187 -3q90 -31 122 -147t32 -351q0 -393 -237 -558t-711 -165q-383 0 -576 151q-237 185 -237 642z" />
    <glyph glyph-name="udieresis" unicode="&#xfc;" horiz-adv-x="1880" 
d="M768 1440q0 -62 -58 -106t-150 -44t-156 44q-121 82 -58 227q29 63 90 100q70 35 144 6t131 -97t57 -130zM1225 1294q-147 0 -201 100t14 202q68 101 213 102q101 0 151 -73t32 -162t-91 -136q-47 -33 -118 -33zM23 676q0 180 65 333q37 87 116 137t173 50t148 -34
t89 -81t71 -95q87 -116 230 -116q89 0 189 50t170 103q70 52 169 84t187 -3q90 -31 122 -147t32 -351q0 -393 -237 -558t-711 -165q-383 0 -576 151q-237 185 -237 642z" />
    <glyph glyph-name="yacute" unicode="&#xfd;" horiz-adv-x="1994" 
d="M1281 1628q79 0 139 -47t60 -111t-44 -114q-46 -49 -96 -74q-50 -26 -134 -60t-112 -48q-55 -35 -172 -30t-146 67q-30 63 66 165t228 177t211 75zM1913 870q0 -132 -109 -346q-108 -214 -266 -416t-348 -368t-339 -215t-304 -41q-78 4 -129 48q-52 44 -56 125t66 207
t70 193q0 121 -154 304q-63 77 -136 160t-126 163t-79 154t7 144t129 126q131 66 222 64t187 -48q96 -47 167 -103q187 -149 315 -151q2 0 54 33t129 76q221 124 336 148q114 24 192 17t125 -74q47 -68 47 -200z" />
    <glyph glyph-name="ydieresis" unicode="&#xff;" horiz-adv-x="1994" 
d="M954 1392q0 -62 -58 -107q-58 -44 -149 -44t-156 44q-123 83 -59 226q30 64 91 101q69 35 143 6q74 -28 131 -96t57 -130zM1411 1245q-147 1 -201 101t15 201q68 101 213 102q102 0 151 -73t31 -162t-90 -136q-47 -33 -119 -33zM1913 870q0 -132 -109 -346
q-108 -214 -266 -416t-348 -368t-339 -215t-304 -41q-78 4 -129 48q-52 44 -56 125t66 207t70 193q0 121 -154 304q-63 77 -136 160t-126 163t-79 154t7 144t129 126q131 66 222 64t187 -48q96 -47 167 -103q187 -149 315 -151q2 0 54 33t129 76q221 124 336 148
q114 24 192 17t125 -74q47 -68 47 -200z" />
    <glyph glyph-name="Amacron" unicode="&#x100;" horiz-adv-x="2091" 
d="M375 1909q76 29 295 32t254 6q34 3 100 10t115 12q537 55 532 -216q0 -55 -53 -93t-177 -61t-271 -31q-148 -7 -175 -9q-750 -86 -749 204q0 93 129 146zM999 909q-53 -2 -100 -78q-51 -88 -12 -133q19 -22 75 -22t133 45t76 98q0 37 -39 64q-40 27 -81 26h-52zM1608 -49
q-113 0 -246 60q-133 59 -249 121t-179 64q-107 4 -234 -76q-51 -34 -106 -69q-129 -82 -298 -82t-254 94q-48 54 -38 130q43 315 139 562q177 455 507 629q302 160 630 17t528 -538q104 -206 154 -439t-27 -353q-76 -120 -327 -120z" />
    <glyph glyph-name="amacron" unicode="&#x101;" horiz-adv-x="1810" 
d="M170 1503q0 93 129 146q80 31 297 32t252 5q34 4 100 11t115 12t121 7t124 -2q132 -10 211 -61q78 -51 76 -160q0 -55 -53 -93t-144 -55t-172 -25t-180 -14q-99 -5 -126 -8q-750 -86 -750 205zM748 633q0 -84 70 -122t142 4q70 42 70 155q0 68 -54 94t-120 -2
q-66 -26 -98 -92q-10 -20 -10 -37zM1710 233q0 -102 -54 -170t-169 -67q-72 0 -165 52t-142 52q-111 0 -322 -59t-323 -59q-221 0 -372 146t-151 341q1 229 143 400t321 255q333 156 673 -2q340 -159 487 -516q74 -178 74 -373z" />
    <glyph glyph-name="Abreve" unicode="&#x102;" horiz-adv-x="2091" 
d="M877 1880q90 0 232 62t203 63q62 0 106 -66t44 -129q0 -120 -110 -194q-211 -140 -576 -64q-287 62 -347 239q-26 77 11 139q36 62 122 62t174 -56t141 -56zM999 909q-53 -2 -100 -78q-51 -88 -12 -133q19 -22 75 -22t133 45t76 98q0 37 -39 64q-40 27 -81 26h-52z
M1608 -49q-113 0 -246 60q-133 59 -249 121t-179 64q-107 4 -234 -76q-51 -34 -106 -69q-129 -82 -298 -82t-254 94q-48 54 -38 130q43 315 139 562q177 455 507 629q302 160 630 17t528 -538q104 -206 154 -439t-27 -353q-76 -120 -327 -120z" />
    <glyph glyph-name="abreve" unicode="&#x103;" horiz-adv-x="1810" 
d="M473 1749q68 0 156 -56t141 -57q90 0 234 62t202 63q60 1 105 -65t45 -129q0 -121 -111 -195q-211 -142 -575 -64q-287 61 -347 239q-26 77 11 139t139 63zM748 633q0 -84 70 -122t142 4q70 42 70 155q0 68 -54 94t-120 -2q-66 -26 -98 -92q-10 -20 -10 -37zM1710 233
q0 -102 -54 -170t-169 -67q-72 0 -165 52t-142 52q-111 0 -322 -59t-323 -59q-221 0 -372 146t-151 341q1 229 143 400t321 255q333 156 673 -2q340 -159 487 -516q74 -178 74 -373z" />
    <glyph glyph-name="Aogonek" unicode="&#x104;" horiz-adv-x="2091" 
d="M999 909q-53 -2 -100 -78q-51 -88 -12 -133q19 -22 75 -22t133 45t76 98q0 37 -39 64q-40 27 -81 26h-52zM2302 -324q0 -114 -159 -158t-355 28t-246 229q-25 78 1 181q-134 19 -430 177q-116 61 -179 63q-107 4 -234 -76q-51 -34 -106 -69q-129 -82 -298 -82t-254 94
q-48 54 -38 130q43 315 139 562q177 455 507 629q302 160 630 17t528 -538q104 -206 158 -457q28 -135 9 -232q2 -12 2 -23l-11 -139q0 -69 119 -118q49 -20 98 -44q119 -60 119 -174z" />
    <glyph glyph-name="aogonek" unicode="&#x105;" horiz-adv-x="1810" 
d="M748 633q0 -84 70 -122t142 4q70 42 70 155q0 68 -54 94t-120 -2q-66 -26 -98 -92q-10 -20 -10 -37zM1710 233q0 -53 -14 -95v-1q-6 -45 -6 -65q0 -88 168 -141q63 -19 115 -67t52 -122q0 -121 -153 -164q-164 -45 -360 27t-246 229q-33 101 17 235q-65 32 -103 31
q-111 0 -322 -59t-323 -59q-221 0 -372 146t-151 341q1 229 143 400t321 255q333 156 673 -2q340 -159 487 -516q74 -178 74 -373z" />
    <glyph glyph-name="Cacute" unicode="&#x106;" horiz-adv-x="1548" 
d="M892 2011q79 0 139 -47q61 -48 61 -112t-45 -113t-95 -74t-135 -59q-84 -34 -112 -50q-55 -36 -172 -30t-146 68t67 164t227 178q132 75 211 75zM1284 1223q0 -82 -150 -213q-56 -49 -104 -125t-47 -161q0 -85 50 -142t123 -84q72 -27 144 -53q72 -25 122 -79t51 -145
q0 -119 -195 -213q-236 -111 -543 -100q-385 14 -581 229q-152 169 -152 415t114 473q113 227 318 333q82 42 221 70q351 70 526 -29q103 -59 103 -176z" />
    <glyph glyph-name="cacute" unicode="&#x107;" horiz-adv-x="1519" 
d="M808 1788q79 0 139 -47q61 -47 61 -111t-45 -114q-45 -49 -95 -74t-135 -60q-84 -35 -112 -49q-55 -35 -172 -29t-146 67q-29 63 67 165t227 177q132 75 211 75zM870 1319q98 0 182 -69t85 -156q1 -54 -49 -102t-98 -97t-48 -113t47 -122q47 -56 114 -95t133 -77
q160 -92 161 -216q0 -125 -77 -211q-77 -85 -198 -121q-248 -73 -554 -19t-463 221q-89 96 -108 200q-57 315 255 647q92 98 197 171q226 159 421 159z" />
    <glyph glyph-name="Ccircumflex" unicode="&#x108;" horiz-adv-x="1548" 
d="M1239 1432q-65 0 -145 50t-152 103t-116 61t-111 -27q-66 -34 -116 -78t-116 -80t-118 -31q-115 8 -169 56t-37 116t99 131q389 313 748 229q213 -51 331 -213q97 -131 63 -224t-161 -93zM1284 1223q0 -82 -150 -213q-56 -49 -104 -125t-47 -161q0 -85 50 -142t123 -84
q72 -27 144 -53q72 -25 122 -79t51 -145q0 -119 -195 -213q-236 -111 -543 -100q-385 14 -581 229q-152 169 -152 415t114 473q113 227 318 333q82 42 221 70q351 70 526 -29q103 -59 103 -176z" />
    <glyph glyph-name="ccircumflex" unicode="&#x109;" horiz-adv-x="1519" 
d="M231 1559q389 313 748 229q213 -51 332 -213q96 -131 59 -229q-31 -88 -158 -89q-66 1 -146 51t-151 103q-73 53 -117 60t-110 -27t-116 -77q-50 -44 -116 -80t-118 -32q-115 9 -169 57t-37 116t99 131zM870 1319q98 0 182 -69t85 -156q1 -54 -49 -102t-98 -97t-48 -113
t47 -122q47 -56 114 -95t133 -77q160 -92 161 -216q0 -125 -77 -211q-77 -85 -198 -121q-248 -73 -554 -19t-463 221q-89 96 -108 200q-57 315 255 647q92 98 197 171q226 159 421 159z" />
    <glyph glyph-name="Cdotaccent" unicode="&#x10a;" horiz-adv-x="1548" 
d="M496 1737q0 76 79 128q80 52 170 52q129 1 209 -101t13 -200q-37 -54 -151 -70t-217 34t-103 157zM1284 1223q0 -82 -150 -213q-56 -49 -104 -125t-47 -161q0 -85 50 -142t123 -84q72 -27 144 -53q72 -25 122 -79t51 -145q0 -119 -195 -213q-236 -111 -543 -100
q-385 14 -581 229q-152 169 -152 415t114 473q113 227 318 333q82 42 221 70q351 70 526 -29q103 -59 103 -176z" />
    <glyph glyph-name="cdotaccent" unicode="&#x10b;" horiz-adv-x="1519" 
d="M725 1765q129 1 209 -101t12 -200q-36 -55 -150 -70q-114 -16 -217 34t-104 157q0 76 80 128t170 52zM870 1319q98 0 182 -69t85 -156q1 -54 -49 -102t-98 -97t-48 -113t47 -122q47 -56 114 -95t133 -77q160 -92 161 -216q0 -125 -77 -211q-77 -85 -198 -121
q-248 -73 -554 -19t-463 221q-89 96 -108 200q-57 315 255 647q92 98 197 171q226 159 421 159z" />
    <glyph glyph-name="Ccaron" unicode="&#x10c;" horiz-adv-x="1548" 
d="M180 1960q0 59 45 105t107 46t147 -63q84 -62 164 -126t127 -67q74 -4 249 114t238 118q121 0 117 -102q-2 -117 -137 -256q-174 -184 -393 -216q-60 -8 -119 -2q-153 14 -349 168t-196 281zM1284 1223q0 -82 -150 -213q-56 -49 -104 -125t-47 -161q0 -85 50 -142
t123 -84q72 -27 144 -53q72 -25 122 -79t51 -145q0 -119 -195 -213q-236 -111 -543 -100q-385 14 -581 229q-152 169 -152 415t114 473q113 227 318 333q82 42 221 70q351 70 526 -29q103 -59 103 -176z" />
    <glyph glyph-name="ccaron" unicode="&#x10d;" horiz-adv-x="1519" 
d="M304 2011q62 0 146 -63q84 -62 164 -126t127 -67q74 -4 249 114t239 118q121 0 117 -103q-2 -117 -138 -256q-174 -184 -393 -215q-60 -8 -119 -2q-154 14 -350 168t-194 281q0 61 45 106t107 45zM870 1319q98 0 182 -69t85 -156q1 -54 -49 -102t-98 -97t-48 -113
t47 -122q47 -56 114 -95t133 -77q160 -92 161 -216q0 -125 -77 -211q-77 -85 -198 -121q-248 -73 -554 -19t-463 221q-89 96 -108 200q-57 315 255 647q92 98 197 171q226 159 421 159z" />
    <glyph glyph-name="Dcaron" unicode="&#x10e;" horiz-adv-x="1888" 
d="M385 1982q0 60 45 106q46 46 108 46t146 -63t164 -127t127 -66q74 -4 249 114t238 117q121 0 117 -102q-2 -117 -137 -256q-174 -184 -393 -215q-60 -8 -119 -2q-154 14 -350 168t-195 280zM1030 773q0 44 -50 76t-102 31t-57 -44q0 -4 -7 -40q-40 -208 15 -208t128 70
t73 115zM10 600q0 218 58 398t153 284q96 106 224 164q127 58 269 59q293 4 576 -151t439 -409q155 -255 14 -480q-152 -246 -604 -395q-375 -125 -713 -115q-284 9 -315 113q-39 31 -70 173q-31 141 -31 359z" />
    <glyph glyph-name="dcaron" unicode="&#x10f;" horiz-adv-x="1976" 
d="M1978 1198q0 -248 -113 -314q-52 -30 -131 -30t-123 43q-89 87 -44 360q10 55 55 98q84 78 220 47q58 -14 97 -70t39 -134zM731 299q59 0 116 46q56 46 56 97q1 96 -77 119t-152 -47q-72 -63 -56 -139t113 -76zM646 -78q-194 0 -336 48q-277 94 -318 303t190 378
q124 91 310 148q80 25 124 93t56 152q30 213 84 341q31 75 115 124q85 49 197 49q188 1 292 -91q125 -111 151 -351q32 -294 -17 -565q-24 -133 -84 -257t-158 -202t-254 -124q-157 -46 -352 -46z" />
    <glyph glyph-name="Dcroat" unicode="&#x110;" horiz-adv-x="2037" 
d="M-57 696q0 97 102 150q37 20 91 24t85 8q12 63 31 119q58 179 154 285q286 312 781 188q293 -74 529 -288q115 -104 191 -228q221 -360 -115 -641q-252 -211 -717 -311q-385 -82 -624 -31q-135 29 -156 97q-39 31 -65 152t-32 248q-255 28 -255 228zM1057 686
q0 -55 -43 -98h2q53 0 126 70q72 70 72 115q0 44 -50 76q-50 33 -100 31t-57 -37q50 -53 50 -157z" />
    <glyph glyph-name="dcroat" unicode="&#x111;" horiz-adv-x="1636" 
d="M731 299q59 0 116 46q56 46 56 97q1 96 -77 119t-152 -47q-72 -63 -56 -139t113 -76zM381 1100q0 61 40 105q70 77 236 95q35 4 71 7q13 41 28 78q31 75 115 124q85 49 197 49t180 -25q156 -60 221 -236q219 -31 288 -90q45 -38 44 -87q-2 -96 -113 -132
q-111 -35 -165 -39q-1 -237 -27 -384q-59 -325 -244 -473q-211 -170 -623 -170q-177 0 -319 48q-277 94 -318 303t190 378q124 91 310 148q80 25 124 93q21 33 36 69q-271 37 -271 139z" />
    <glyph glyph-name="Emacron" unicode="&#x112;" horiz-adv-x="1615" 
d="M211 1999q76 29 295 32t254 6q34 3 100 10t115 12t121 7q415 12 411 -223q0 -55 -53 -93t-177 -61t-271 -31q-148 -7 -175 -9q-750 -86 -749 204q0 93 129 146zM1446 215q0 -72 -47 -128q-80 -95 -277 -141q-147 -36 -331 -36q-183 0 -339 61t-251 161t-145 234
q-100 264 3 564q102 299 367 474q301 198 736 147q120 -13 203 -67t83 -143q0 -49 -43 -94t-95 -73q-139 -76 -139 -93q0 -40 142 -95q53 -22 97 -70t44 -116t-43 -117q-43 -51 -97 -71q-166 -63 -196 -100q3 -52 167 -106q61 -20 111 -70t50 -121z" />
    <glyph glyph-name="emacron" unicode="&#x113;" horiz-adv-x="1697" 
d="M211 1632q0 93 129 146q80 31 297 32q217 2 252 6t101 10q66 7 114 12q49 5 121 7t124 -2q132 -10 211 -61q78 -51 76 -160q0 -55 -53 -93t-177 -61t-271 -31q-148 -7 -174 -10q-750 -86 -750 205zM705 831q0 -78 93 -92t186 26t93 97q0 90 -93 102t-186 -36t-93 -97z
M943 1333q157 0 292 -47t233 -141q98 -93 98 -193t-49 -175t-109 -115t-110 -82q-50 -41 -51 -69q0 -28 53 -45q53 -16 118 -32t118 -78t53 -169t-79 -181q-80 -74 -200 -102q-247 -58 -530 -19q-127 19 -213 52q-256 96 -393 242t-149 298q-11 151 59 307t205 277t316 197
t338 75z" />
    <glyph glyph-name="Ebreve" unicode="&#x114;" horiz-adv-x="1615" 
d="M1146 2101q62 1 106 -65t44 -129q0 -121 -110 -195q-211 -142 -576 -64q-287 61 -347 239q-26 77 11 139q36 62 122 62t174 -55q88 -56 141 -57q88 0 231 62t204 63zM1446 215q0 -72 -47 -128q-80 -95 -277 -141q-147 -36 -331 -36q-183 0 -339 61t-251 161t-145 234
q-100 264 3 564q102 299 367 474q301 198 736 147q120 -13 203 -67t83 -143q0 -49 -43 -94t-95 -73q-139 -76 -139 -93q0 -40 142 -95q53 -22 97 -70t44 -116t-43 -117q-43 -51 -97 -71q-166 -63 -196 -100q3 -52 167 -106q61 -20 111 -70t50 -121z" />
    <glyph glyph-name="ebreve" unicode="&#x115;" horiz-adv-x="1697" 
d="M778 1796q90 0 234 62t202 63q60 0 105 -66t45 -129q0 -120 -111 -194t-263 -86t-312 22q-287 61 -347 239q-26 77 11 139t122 62t173 -56t141 -56zM705 831q0 -78 93 -92t186 26t93 97q0 90 -93 102t-186 -36t-93 -97zM943 1333q157 0 292 -47t233 -141q98 -93 98 -193
t-49 -175t-109 -115t-110 -82q-50 -41 -51 -69q0 -28 53 -45q53 -16 118 -32t118 -78t53 -169t-79 -181q-80 -74 -200 -102q-247 -58 -530 -19q-127 19 -213 52q-256 96 -393 242t-149 298q-11 151 59 307t205 277t316 197t338 75z" />
    <glyph glyph-name="Edotaccent" unicode="&#x116;" horiz-adv-x="1615" 
d="M772 2007q129 1 209 -101t12 -200q-37 -54 -151 -70t-216 34q-103 50 -104 157q0 76 80 128t170 52zM1446 215q0 -72 -47 -128q-80 -95 -277 -141q-147 -36 -331 -36q-183 0 -339 61t-251 161t-145 234q-100 264 3 564q102 299 367 474q301 198 736 147q120 -13 203 -67
t83 -143q0 -49 -43 -94t-95 -73q-139 -76 -139 -93q0 -40 142 -95q53 -22 97 -70t44 -116t-43 -117q-43 -51 -97 -71q-166 -63 -196 -100q3 -52 167 -106q61 -20 111 -70t50 -121z" />
    <glyph glyph-name="edotaccent" unicode="&#x117;" horiz-adv-x="1697" 
d="M1126 1520q-36 -54 -150 -70t-217 34t-104 156q0 76 80 128t170 53q129 1 209 -101t12 -200zM705 831q0 -78 93 -92t186 26t93 97q0 90 -93 102t-186 -36t-93 -97zM943 1333q157 0 292 -47t233 -141q98 -93 98 -193t-49 -175t-109 -115t-110 -82q-50 -41 -51 -69
q0 -28 53 -45q53 -16 118 -32t118 -78t53 -169t-79 -181q-80 -74 -200 -102q-247 -58 -530 -19q-127 19 -213 52q-256 96 -393 242t-149 298q-11 151 59 307t205 277t316 197t338 75z" />
    <glyph glyph-name="Eogonek" unicode="&#x118;" horiz-adv-x="1615" 
d="M1446 215q0 -72 -47 -128q-80 -95 -277 -141q-107 -26 -233 -34v-8q0 -39 54 -69t120 -47t120 -57t54 -100q0 -119 -206 -145q-207 -26 -407 62q-200 89 -188 249q6 72 63 157q-191 64 -291 171q-102 107 -152 241q-100 264 3 564q102 299 367 474q301 198 736 147
q120 -13 203 -67t83 -143q0 -49 -43 -94t-95 -73q-139 -76 -139 -93q0 -40 142 -95q53 -22 97 -70t44 -116t-43 -117q-43 -51 -97 -71q-166 -63 -196 -100q3 -52 167 -106q61 -20 111 -70t50 -121z" />
    <glyph glyph-name="eogonek" unicode="&#x119;" horiz-adv-x="1697" 
d="M705 831q0 -78 93 -92t186 26t93 97q0 90 -93 102t-186 -36t-93 -97zM943 1333q157 0 292 -47t233 -141q98 -93 98 -193t-49 -175t-109 -115t-110 -82q-50 -41 -51 -69q0 -28 53 -45q53 -16 118 -32t118 -78t53 -169q0 -108 -79 -182t-224 -107q-2 -21 -2 -33
q0 -51 52 -86t116 -54t116 -67t52 -123q0 -121 -159 -165t-355 28t-246 229q-32 104 22 247q-189 15 -315 63q-256 96 -393 242t-149 298q-11 151 59 307t205 277t316 197t338 75z" />
    <glyph glyph-name="Ecaron" unicode="&#x11a;" horiz-adv-x="1615" 
d="M133 2058q0 60 46 106q45 46 107 46t146 -64t164 -126q80 -64 127 -66q74 -4 249 114t238 117q121 0 117 -102q-2 -117 -137 -256q-174 -184 -393 -215q-60 -8 -119 -2q-154 14 -350 168t-195 280zM1446 215q0 -72 -47 -128q-80 -95 -277 -141q-147 -36 -331 -36
q-183 0 -339 61t-251 161t-145 234q-100 264 3 564q102 299 367 474q301 198 736 147q120 -13 203 -67t83 -143q0 -49 -43 -94t-95 -73q-139 -76 -139 -93q0 -40 142 -95q53 -22 97 -70t44 -116t-43 -117q-43 -51 -97 -71q-166 -63 -196 -100q3 -52 167 -106q61 -20 111 -70
t50 -121z" />
    <glyph glyph-name="ecaron" unicode="&#x11b;" horiz-adv-x="1697" 
d="M488 2013q62 0 145 -63q84 -62 164 -126t127 -67q74 -4 248 114t239 118q121 0 117 -103q-2 -117 -137 -256q-174 -184 -394 -215q-59 -8 -118 -2q-154 14 -350 168t-195 281q0 59 46 105t108 46zM705 831q0 -78 93 -92t186 26t93 97q0 90 -93 102t-186 -36t-93 -97z
M943 1333q157 0 292 -47t233 -141q98 -93 98 -193t-49 -175t-109 -115t-110 -82q-50 -41 -51 -69q0 -28 53 -45q53 -16 118 -32t118 -78t53 -169t-79 -181q-80 -74 -200 -102q-247 -58 -530 -19q-127 19 -213 52q-256 96 -393 242t-149 298q-11 151 59 307t205 277t316 197
t338 75z" />
    <glyph glyph-name="Gcircumflex" unicode="&#x11c;" horiz-adv-x="1957" 
d="M336 1860q397 301 762 217q215 -49 332 -207q94 -125 53 -215q-37 -78 -158 -80q-84 0 -227 98q-143 99 -189 105t-112 -26t-117 -74t-117 -76t-119 -29q-117 8 -171 53t-36 109q17 64 99 125zM1116 1536q473 0 473 -166q0 -144 -162 -209q-73 -29 -159 -51t-173 -48
t-159 -64t-117 -106t-45 -165q0 -145 89 -230t255 -85q112 0 76 29q-16 13 -46 31t-38 26q-10 6 -30 19t-30 23t-28 22q-18 14 -30 26t-25 27q-56 61 -56 131q0 184 275 233q68 12 139 12q399 0 543 -209q112 -164 20 -381t-344 -360t-560 -143t-547 126q-238 126 -334 366
t-59 453q77 432 547 606q234 87 525 87z" />
    <glyph glyph-name="gcircumflex" unicode="&#x11d;" horiz-adv-x="1773" 
d="M1274 1202q-66 0 -146 50t-152 104t-116 60q-44 8 -110 -26t-116 -78t-116 -80t-119 -32q-115 8 -169 56t-36 116q17 68 99 131q389 313 747 230q213 -51 332 -213q96 -130 62 -224t-160 -94zM827 383q131 0 177 85t-5 146q-66 74 -213 31q-86 -25 -120 -70t-20 -87
q16 -42 66 -74t115 -31zM694 -532q-156 0 -259 47t-103 145q0 53 34 100t71 75q101 74 81 147q-15 55 -158 125t-242 177q-52 56 -81 148t-17 205q20 182 150 319q130 138 308 200q179 62 383 59t376 -73t286 -229q114 -158 113 -376q0 -321 -163 -605t-461 -400
q-162 -64 -318 -64z" />
    <glyph glyph-name="Gbreve" unicode="&#x11e;" horiz-adv-x="1957" 
d="M727 1925q88 1 231 63t204 62t106 -66t45 -129q0 -121 -111 -195q-110 -74 -262 -85t-314 23q-287 61 -346 238q-26 77 11 139q37 63 122 63t173 -56t141 -57zM1116 1536q473 0 473 -166q0 -144 -162 -209q-73 -29 -159 -51t-173 -48t-159 -64t-117 -106t-45 -165
q0 -145 89 -230t255 -85q112 0 76 29q-16 13 -46 31t-38 26q-10 6 -30 19t-30 23t-28 22q-18 14 -30 26t-25 27q-56 61 -56 131q0 184 275 233q68 12 139 12q399 0 543 -209q112 -164 20 -381t-344 -360t-560 -143t-547 126q-238 126 -334 366t-59 453q77 432 547 606
q234 87 525 87z" />
    <glyph glyph-name="gbreve" unicode="&#x11f;" horiz-adv-x="1773" 
d="M426 1749q68 0 156 -56t141 -57q88 0 231 62t204 63t106 -65t45 -129q0 -121 -111 -195q-212 -142 -576 -64q-287 61 -347 239q-27 77 11 139t140 63zM827 383q131 0 177 85t-5 146q-66 74 -213 31q-86 -25 -120 -70t-20 -87q16 -42 66 -74t115 -31zM694 -532
q-156 0 -259 47t-103 145q0 53 34 100t71 75q101 74 81 147q-15 55 -158 125t-242 177q-52 56 -81 148t-17 205q20 182 150 319q130 138 308 200q179 62 383 59t376 -73t286 -229q114 -158 113 -376q0 -321 -163 -605t-461 -400q-162 -64 -318 -64z" />
    <glyph glyph-name="Gdotaccent" unicode="&#x120;" horiz-adv-x="1957" 
d="M1040 1735q-36 -55 -150 -71t-217 35q-103 50 -104 156q0 76 80 128t170 53q129 0 209 -102t12 -199zM1116 1536q473 0 473 -166q0 -144 -162 -209q-73 -29 -159 -51t-173 -48t-159 -64t-117 -106t-45 -165q0 -145 89 -230t255 -85q112 0 76 29q-16 13 -46 31t-38 26
q-10 6 -30 19t-30 23t-28 22q-18 14 -30 26t-25 27q-56 61 -56 131q0 184 275 233q68 12 139 12q399 0 543 -209q112 -164 20 -381t-344 -360t-560 -143t-547 126q-238 126 -334 366t-59 453q77 432 547 606q234 87 525 87z" />
    <glyph glyph-name="gdotaccent" unicode="&#x121;" horiz-adv-x="1773" 
d="M1077 1384q-37 -55 -151 -70t-216 35q-103 50 -104 156q0 76 80 128t170 53q129 0 209 -102t12 -200zM827 383q131 0 177 85t-5 146q-66 74 -213 31q-86 -25 -120 -70t-20 -87q16 -42 66 -74t115 -31zM694 -532q-156 0 -259 47t-103 145q0 53 34 100t71 75q101 74 81 147
q-15 55 -158 125t-242 177q-52 56 -81 148t-17 205q20 182 150 319q130 138 308 200q179 62 383 59t376 -73t286 -229q114 -158 113 -376q0 -321 -163 -605t-461 -400q-162 -64 -318 -64z" />
    <glyph glyph-name="Gcommaaccent" unicode="&#x122;" horiz-adv-x="1957" 
d="M850 -145q76 1 136 -47t60 -120q1 -212 -114 -262q-53 -24 -133 -24t-125 35q-67 52 -61 195q4 47 15 100t79 88q67 35 143 35zM1116 1536q473 0 473 -166q0 -144 -162 -209q-73 -29 -159 -51t-173 -48t-159 -64t-117 -106t-45 -165q0 -145 89 -230t255 -85q112 0 76 29
q-16 13 -46 31t-38 26q-10 6 -30 19t-30 23t-28 22q-18 14 -30 26t-25 27q-56 61 -56 131q0 184 275 233q68 12 139 12q399 0 543 -209q112 -164 20 -381t-344 -360t-560 -143t-547 126q-238 126 -334 366t-59 453q77 432 547 606q234 87 525 87z" />
    <glyph glyph-name="gcommaaccent" unicode="&#x123;" horiz-adv-x="1773" 
d="M973 1620q0 -138 -39 -230q-49 -114 -207 -114q-78 0 -122 43q-89 87 -44 360q10 55 55 97t105 52q147 22 213 -74q39 -56 39 -134zM827 383q131 0 177 85t-5 146q-66 74 -213 31q-86 -25 -120 -70t-20 -87q16 -42 66 -74t115 -31zM694 -532q-156 0 -259 47t-103 145
q0 53 34 100t71 75q101 74 81 147q-15 55 -158 125t-242 177q-52 56 -81 148t-17 205q20 182 150 319q130 138 308 200q179 62 383 59t376 -73t286 -229q114 -158 113 -376q0 -321 -163 -605t-461 -400q-162 -64 -318 -64z" />
    <glyph glyph-name="Hcircumflex" unicode="&#x124;" horiz-adv-x="1988" 
d="M1446 1579q-66 0 -146 50q-80 49 -152 103t-116 61t-110 -27t-116 -78t-116 -79q-66 -36 -119 -32q-115 8 -169 56t-36 116q17 68 99 131q389 313 747 229q213 -51 332 -213q96 -131 62 -224t-160 -93zM530 1522q78 0 140 -69t96 -151q35 -82 85 -151q50 -68 106 -68
q95 0 169 167q31 69 69 138q38 68 111 116q72 48 180 48t194 -50t110 -132q60 -197 54 -604q-2 -203 -28 -386t-101 -308t-191 -125t-194 35q-79 35 -118 85q-38 50 -70 100q-76 120 -177 120q-69 0 -243 -144q-163 -131 -323 -170q-78 -18 -158 27q-163 92 -205 426
q-22 166 -5 353q16 187 67 355t164 278t268 110z" />
    <glyph glyph-name="hcircumflex" unicode="&#x125;" horiz-adv-x="1796" 
d="M1192 1458q-66 0 -146 50t-151 104q-72 54 -117 60q-44 8 -110 -26t-116 -78t-116 -80t-119 -32q-115 8 -169 56t-36 116q17 68 99 131q389 313 747 230q213 -51 332 -213q96 -130 62 -224t-160 -94zM640 1456q108 0 172 -39q62 -39 85 -98t38 -129t22 -130t34 -102
t76 -43q309 -16 468 -156t159 -421q0 -166 -104 -269t-285 -103q-182 0 -251 90q-28 38 -53 77q-62 96 -184 103q-71 3 -148 -101q-34 -45 -75 -89t-110 -76q-68 -32 -158 -32q-183 1 -247 135q-63 134 -56 301q8 167 34 324q12 98 36 191q63 241 178 385q61 78 161 130
t208 52z" />
    <glyph glyph-name="hbar" unicode="&#x127;" horiz-adv-x="1796" 
d="M-106 1163q0 51 59 79q73 33 162 38t167 6q60 70 155 120t203 50t172 -39q62 -39 85 -98q1 -4 3 -8q176 -15 224 -76q27 -33 27 -80q0 -70 -192 -107q20 -129 108 -133q309 -16 468 -156t159 -421q0 -166 -104 -269t-285 -103q-182 0 -251 90q-28 38 -53 77
q-62 96 -184 103q-71 3 -148 -101q-34 -45 -75 -89t-110 -76q-68 -32 -158 -32q-183 1 -247 135q-63 134 -56 301q8 167 34 324q21 170 76 316q-92 8 -139 26q-100 37 -100 123z" />
    <glyph glyph-name="Itilde" unicode="&#x128;" horiz-adv-x="1406" 
d="M910 1878q76 0 212 54q135 54 203 55q190 0 186 -101q-4 -90 -143 -194q-182 -131 -364 -136q-80 0 -235 44t-229 45t-192 -49q-117 -50 -178 -50q-141 0 -133 88q9 94 163 224t304 141l49 -2q57 -7 169 -63t188 -56zM1024 596q0 -80 30 -130t72 -70t82 -40
q101 -46 101 -150q0 -207 -274 -261q-101 -23 -357 -23h-96q-60 0 -174 2t-177 26q-63 23 -115 53q-102 59 -102 198q0 55 33 93t73 56t80 54t51 82t52 193q41 146 41 231q0 132 -91 206t-91 170q0 58 50 112t128 75q138 37 326 37t300 -18q244 -37 314 -153q35 -57 0 -144
q-36 -87 -146 -191t-110 -408z" />
    <glyph glyph-name="itilde" unicode="&#x129;" horiz-adv-x="968" 
d="M674 1532q70 0 192 54t183 54q172 0 168 -102q-4 -94 -151 -214t-308 -120q-72 0 -212 45t-208 45t-172 -50q-106 -50 -162 -50q-127 0 -121 90q6 98 151 230t277 139l39 -2q50 -7 152 -63t172 -56zM838 708q0 -299 -42 -442q-16 -57 -52 -123q-36 -65 -85 -105
q-117 -94 -296 -94q-178 1 -265 98q-86 97 -79 228l14 262l4 46q27 268 213 434q154 138 320 118t235 -217q33 -99 33 -205z" />
    <glyph glyph-name="Imacron" unicode="&#x12a;" horiz-adv-x="1406" 
d="M1448 1777q0 -57 -53 -95t-169 -60t-272 -30q-155 -9 -182 -11q-750 -86 -749 205q0 92 129 145q83 32 320 34q238 2 443 27q533 54 533 -215zM1024 596q0 -80 30 -130t72 -70t82 -40q101 -46 101 -150q0 -207 -274 -261q-101 -23 -357 -23h-96q-60 0 -174 2t-177 26
q-63 23 -115 53q-102 59 -102 198q0 55 33 93t73 56t80 54t51 82t52 193q41 146 41 231q0 132 -91 206t-91 170q0 58 50 112t128 75q138 37 326 37t300 -18q244 -37 314 -153q35 -57 0 -144q-36 -87 -146 -191t-110 -408z" />
    <glyph glyph-name="imacron" unicode="&#x12b;" horiz-adv-x="968" 
d="M1237 1420q0 -113 -198 -149q-156 -29 -303 -37q-148 -7 -175 -9q-750 -86 -749 205q0 92 129 145q83 32 306 33q223 2 316 12t142 15q532 54 532 -215zM838 708q0 -299 -42 -442q-16 -57 -52 -123q-36 -65 -85 -105q-117 -94 -296 -94q-178 1 -265 98q-86 97 -79 228
l14 262l4 46q27 268 213 434q154 138 320 118t235 -217q33 -99 33 -205z" />
    <glyph glyph-name="Ibreve" unicode="&#x12c;" horiz-adv-x="1406" 
d="M1052 2058q60 0 105 -66t45 -128q0 -121 -110 -195t-263 -86q-151 -11 -313 23q-287 61 -347 238q-26 77 11 139q37 63 122 63t173 -56t141 -57q88 1 232 63t204 62zM1024 596q0 -80 30 -130t72 -70t82 -40q101 -46 101 -150q0 -207 -274 -261q-101 -23 -357 -23h-96
q-60 0 -174 2t-177 26q-63 23 -115 53q-102 59 -102 198q0 55 33 93t73 56t80 54t51 82t52 193q41 146 41 231q0 132 -91 206t-91 170q0 58 50 112t128 75q138 37 326 37t300 -18q244 -37 314 -153q35 -57 0 -144q-36 -87 -146 -191t-110 -408z" />
    <glyph glyph-name="ibreve" unicode="&#x12d;" horiz-adv-x="968" 
d="M469 1581q88 1 231 63t204 62t106 -66t45 -129q0 -121 -111 -195q-110 -74 -262 -85t-314 23q-287 61 -346 238q-26 77 11 139q37 63 122 63t173 -56t141 -57zM838 708q0 -299 -42 -442q-16 -57 -52 -123q-36 -65 -85 -105q-117 -94 -296 -94q-178 1 -265 98
q-86 97 -79 228l14 262l4 46q27 268 213 434q154 138 320 118t235 -217q33 -99 33 -205z" />
    <glyph glyph-name="Iogonek" unicode="&#x12e;" horiz-adv-x="1406" 
d="M1024 596q0 -80 30 -130t72 -70t82 -40q101 -46 101 -150q0 -207 -274 -261q-97 -22 -263 -22v-11q0 -70 119 -119q49 -20 98 -44q119 -58 119 -173t-159 -159t-355 29t-246 228q-36 110 27 255q-107 8 -157 26t-102 48q-102 59 -102 198q0 55 33 93t73 56t80 54t51 82
t52 193q41 146 41 231q0 132 -91 206t-91 170q0 58 50 112t128 75q138 37 326 37t300 -18q244 -37 314 -153q35 -57 0 -144q-36 -87 -146 -191t-110 -408z" />
    <glyph glyph-name="iogonek" unicode="&#x12f;" horiz-adv-x="968" 
d="M850 1401q0 -90 -57 -141q-57 -52 -131 -68t-194 -16t-193 51t-64 118q7 67 77 132t181 92q94 18 179 20q86 2 144 -48t58 -140zM838 708q0 -299 -34 -412q-34 -114 -77 -180q-2 -17 -6 -50t-4 -54q0 -51 52 -86q51 -35 115 -54q64 -20 116 -68t53 -121q0 -121 -159 -165
q-158 -44 -354 28t-247 229q-25 77 -1 174q-126 17 -203 103t-70 218l14 262l4 46q27 268 213 434q154 138 320 118t235 -217q33 -99 33 -205z" />
    <glyph glyph-name="Idotaccent" unicode="&#x130;" horiz-adv-x="1406" 
d="M459 1788q0 76 80 128t170 52q129 0 209 -102t12 -199q-37 -55 -151 -71t-217 35q-103 50 -103 157zM1024 596q0 -80 30 -130t72 -70t82 -40q101 -46 101 -150q0 -209 -274 -261q-106 -23 -277 -23h-235q-179 0 -238 16q-157 42 -192 78q-79 80 -79 185q0 55 33 93t73 56
t80 54t51 82t52 193q41 146 41 231q0 132 -91 206t-91 170q0 58 50 112t128 75q138 37 326 37t300 -18q244 -37 314 -153q35 -57 0 -144q-36 -87 -146 -191t-110 -408z" />
    <glyph glyph-name="dotlessi" unicode="&#x131;" horiz-adv-x="968" 
d="M838 708q0 -299 -42 -442q-16 -57 -52 -123q-36 -65 -85 -105q-117 -94 -296 -94q-178 1 -265 98q-86 97 -79 228l14 262l4 46q27 268 213 434q154 138 320 118t235 -217q33 -99 33 -205z" />
    <glyph glyph-name="Jcircumflex" unicode="&#x134;" horiz-adv-x="1724" 
d="M1530 1501q-66 0 -146 50q-80 49 -152 103t-116 61t-110 -27t-116 -77q-50 -44 -116 -80t-119 -32q-115 8 -169 56t-36 116q17 68 99 131q389 313 747 230q213 -51 332 -213q96 -131 62 -225t-160 -93zM16 307q0 184 246 281q68 27 222 45q36 4 81 41q45 38 83 108
t54 175t28 197t44 178q31 87 115 138q84 52 214 52q129 0 235 -56t163 -147q104 -172 105 -428q0 -608 -375 -862q-264 -176 -625 -133q-287 35 -463 182q-127 106 -127 229z" />
    <glyph glyph-name="jcircumflex" unicode="&#x135;" horiz-adv-x="1046" 
d="M948 1018q-66 0 -146 50t-151 103q-73 53 -117 61t-110 -27q-66 -34 -116 -78q-50 -43 -116 -79t-118 -32q-115 8 -169 56t-37 116t99 131q389 313 748 229q213 -51 332 -213q96 -131 59 -229q-31 -88 -158 -88zM490 1069q200 0 298 -135t123 -302q25 -166 25 -306
q0 -494 -324 -770q-221 -190 -501 -211q-231 -18 -344 86q-63 59 -63 133t54 136q55 64 136 131q79 67 111 117q62 98 96 386t108 496q37 103 109 171t172 68z" />
    <glyph glyph-name="Kcommaaccent" unicode="&#x136;" horiz-adv-x="1859" 
d="M1034 -186q0 -248 -113 -315q-51 -29 -131 -29t-124 43q-88 87 -43 360q10 55 55 97q85 80 221 47q57 -13 96 -69t39 -134zM516 1436q100 0 160 -30t80 -74q34 -81 31 -187q-2 -107 79 -107q96 0 289 137q72 50 170 93t193 43t163 -68t68 -150q0 -83 -45 -157t-98 -123
q-54 -49 -98 -95t-42 -69q0 -6 38 -63t84 -129t75 -158t27 -156q-2 -71 -76 -117t-205 -46q-239 0 -396 138q-67 58 -117 116t-91 104t-70 51q-12 4 -24 -43q-18 -129 -33 -174q-68 -193 -305 -192q-139 -1 -211 69q-109 105 -126 365t37 516t143 381t300 125z" />
    <glyph glyph-name="kcommaaccent" unicode="&#x137;" horiz-adv-x="1726" 
d="M987 -172q0 -138 -39 -230q-49 -114 -207 -114q-232 0 -166 403q10 55 56 98q85 78 221 47q58 -14 96 -70q39 -56 39 -134zM1290 1065q102 0 192 -60q90 -61 91 -141q0 -80 -68 -165q-67 -85 -135 -153t-68 -98q0 -32 50 -72q49 -40 109 -71q61 -31 111 -84t50 -112
q0 -111 -87 -144t-217 -2q-208 50 -489 170q-104 45 -116 45q-68 0 -189 -126q-45 -48 -108 -87t-121 -39q-117 0 -169 81t-52 194q0 41 6 101t13 152q28 375 79 592t139 335q108 149 277 149q90 0 146 -49t68 -123q24 -156 -4 -332t17 -190q65 25 141 86t154 102t180 41z
" />
    <glyph glyph-name="Lacute" unicode="&#x139;" 
d="M859 2030q79 0 139 -48t60 -111t-44 -113q-45 -50 -95 -75q-51 -25 -135 -59t-112 -49q-55 -35 -172 -29t-146 67q-30 63 66 165t228 177t211 75zM526 1493q106 0 166 -59q62 -58 76 -154t14 -196t6 -202q6 -103 35 -157q52 -89 223 -107q74 -8 148 -19q182 -27 268 -159
q135 -207 -53 -366q-167 -141 -507 -175t-603 95q-305 152 -305 465q0 154 76 473q41 178 134 347q52 95 134 155t188 59z" />
    <glyph glyph-name="lacute" unicode="&#x13a;" horiz-adv-x="931" 
d="M624 2052q78 0 138 -47t61 -111q0 -64 -45 -114q-45 -49 -95 -74q-50 -26 -134 -60t-113 -49q-56 -35 -172 -29t-145 67q-29 63 66 165t227 177q134 75 212 75zM182 1380q57 120 139 142t140 20q109 0 189 -90t118 -234q126 -491 -43 -981q-49 -143 -136 -231t-192 -84
q-211 6 -291 86t-79 262q0 782 155 1110z" />
    <glyph glyph-name="Lcommaaccent" unicode="&#x13b;" 
d="M1001 -322q0 -177 -115 -224q-54 -22 -134 -21q-242 0 -170 297q16 70 120 102t202 -9q98 -40 97 -145zM526 1493q106 0 166 -59q62 -58 76 -154t14 -196t6 -202q6 -103 35 -157q52 -89 223 -107q74 -8 148 -19q182 -27 268 -159q135 -207 -53 -366q-167 -141 -507 -175
t-603 95q-305 152 -305 465q0 154 76 473q41 178 134 347q52 95 134 155t188 59z" />
    <glyph glyph-name="lcommaaccent" unicode="&#x13c;" horiz-adv-x="931" 
d="M567 -330q0 -189 -115 -237q-54 -23 -134 -23q-235 0 -168 314q16 74 119 108t201 -9q98 -42 97 -153zM182 1380q57 120 139 142t140 20q109 0 189 -90t118 -234q126 -491 -43 -981q-49 -143 -136 -231t-192 -84q-211 6 -291 86t-79 262q0 782 155 1110z" />
    <glyph glyph-name="Lcaron" unicode="&#x13d;" 
d="M526 1493q106 0 166 -59q62 -58 76 -154t14 -196t6 -202q6 -103 35 -157q52 -89 223 -107q74 -8 148 -19q182 -27 268 -159q135 -207 -53 -366q-167 -141 -507 -175t-603 95q-305 152 -305 465q0 154 76 473q41 178 134 347q52 95 134 155t188 59zM-35 1972q0 60 46 106
q45 46 107 46t146 -64t164 -126q80 -64 127 -66q74 -4 249 114t238 117q121 0 117 -102q-2 -115 -135 -256q-172 -182 -391 -215q-61 -8 -139 -1t-207 81t-226 178q-96 104 -96 188z" />
    <glyph glyph-name="lcaron" unicode="&#x13e;" horiz-adv-x="1179" 
d="M1270 1254q0 -139 -39 -231q-49 -114 -207 -114q-78 0 -122 43q-89 87 -44 361q10 55 55 97q84 78 222 47q57 -13 96 -69t39 -134zM182 1380q57 120 139 142t140 20q109 0 189 -90t118 -234q126 -491 -43 -981q-49 -143 -136 -231t-192 -84q-211 6 -291 86t-79 262
q0 782 155 1110z" />
    <glyph glyph-name="Ldot" unicode="&#x13f;" 
d="M526 1493q106 0 166 -59q62 -58 76 -154t14 -196t6 -202q6 -103 35 -157q52 -89 223 -107q74 -8 148 -19q182 -27 268 -159q135 -207 -53 -366q-167 -141 -507 -175t-603 95q-305 152 -305 465q0 154 76 473q41 178 134 347q52 95 134 155t188 59zM1053 920q0 76 80 128
t170 52q129 0 209 -102t12 -199q-37 -55 -152 -71t-217 35q-102 50 -102 157z" />
    <glyph glyph-name="ldot" unicode="&#x140;" horiz-adv-x="1290" 
d="M850 848q0 76 80 128t170 52q129 0 209 -102t12 -199q-37 -55 -151 -71t-217 35q-103 50 -103 157zM182 1380q57 120 139 142t140 20q109 0 189 -90t118 -234q126 -491 -43 -981q-49 -143 -136 -231t-192 -84q-211 6 -291 86t-79 262q0 782 155 1110z" />
    <glyph glyph-name="Lslash" unicode="&#x141;" 
d="M-215 537q0 212 359 368q60 27 104 45t52 20q8 4 22 10q94 337 256 454q82 59 188 59t166 -59q61 -59 76 -155q1 -4 1 -7q401 134 511 -33q70 -110 -76 -244q-84 -75 -399 -226q36 -129 240 -151q73 -8 148 -19q183 -27 269 -159q135 -207 -53 -366q-168 -141 -508 -175
t-602 95q-290 144 -305 435q-449 -128 -449 108z" />
    <glyph glyph-name="lslash" unicode="&#x142;" horiz-adv-x="1101" 
d="M983 1114q92 0 166 -98q25 -35 25 -64q0 -79 -260 -249q-16 -236 -95 -466q-49 -143 -136 -231t-191 -84q-211 6 -291 86t-80 262v62q-282 -77 -322 37q-6 16 -6 37q0 66 35 122q62 101 314 227q29 402 134 624q58 121 140 143t139 20q109 0 189 -90t118 -234
q15 -58 26 -120q58 16 95 16z" />
    <glyph glyph-name="Nacute" unicode="&#x143;" horiz-adv-x="2107" 
d="M1287 1919q79 0 139 -47q60 -48 60 -112t-44 -113q-45 -49 -95 -74q-51 -25 -135 -60t-112 -49q-55 -36 -172 -30t-146 68q-30 62 66 164t228 178q132 75 211 75zM1226 987q22 0 43 43q22 43 42 97t26 63q106 176 357 176q352 0 352 -438q0 -172 -82 -504
q-45 -176 -120 -284t-161 -140q-183 -67 -382 30q-199 96 -332 213q-66 56 -108 94t-44 38q-29 4 -59 -94t-39 -115q-59 -119 -145 -176q-156 -103 -337 10q-79 49 -134 143q-54 94 -67 213t-9 291t24 284t52 212q31 100 91 169t138 85q196 35 328 8t232 -95t160 -141
q58 -72 105 -127t69 -55z" />
    <glyph glyph-name="nacute" unicode="&#x144;" horiz-adv-x="1867" 
d="M1251 1604q0 -64 -45 -113t-95 -74t-134 -59t-113 -49q-56 -35 -172 -29t-145 67q-29 62 66 164q95 101 227 177t212 76q79 0 139 -48t60 -112zM1747 354q0 -162 -92 -270t-259 -107q-167 0 -227 96q-25 40 -47 80q-53 95 -174 95q-159 0 -227 -54q-29 -24 -47 -53
t-36 -57t-41 -52q-54 -53 -194 -55q-219 1 -302 85t-81 274q2 256 99 447q96 191 248 281q151 90 335 126q184 34 368 -20t335 -153q152 -99 247 -275t95 -388z" />
    <glyph glyph-name="Ncommaaccent" unicode="&#x145;" horiz-adv-x="2107" 
d="M1090 -343q-49 -114 -206 -114q-79 0 -123 43q-89 87 -44 361q10 55 55 97q44 42 104 51q146 22 210 -68q63 -90 34 -267q-8 -49 -30 -103zM1226 987q22 0 43 43q22 43 42 97t26 63q106 176 357 176q352 0 352 -438q0 -172 -82 -504q-45 -176 -120 -284t-161 -140
q-183 -67 -382 30q-199 96 -332 213q-66 56 -108 94t-44 38q-29 4 -59 -94t-39 -115q-59 -119 -145 -176q-156 -103 -337 10q-79 49 -134 143q-54 94 -67 213t-9 291t24 284t52 212q31 100 91 169t138 85q196 35 328 8t232 -95t160 -141q58 -72 105 -127t69 -55z" />
    <glyph glyph-name="ncommaaccent" unicode="&#x146;" horiz-adv-x="1867" 
d="M1120 -144q0 -248 -113 -314q-51 -30 -131 -30t-124 44q-88 87 -43 360q10 55 55 97q85 80 221 47q57 -13 96 -69q39 -57 39 -135zM1747 354q0 -162 -92 -270t-259 -107q-167 0 -227 96q-25 40 -47 80q-53 95 -174 95q-159 0 -227 -54q-29 -24 -47 -53t-36 -57t-41 -52
q-54 -53 -194 -55q-219 1 -302 85t-81 274q2 256 99 447q96 191 248 281q151 90 335 126q184 34 368 -20t335 -153q152 -99 247 -275t95 -388z" />
    <glyph glyph-name="Ncaron" unicode="&#x147;" horiz-adv-x="2107" 
d="M559 1812q0 60 46 106q45 46 107 46t146 -63t164 -127t127 -66q74 -4 249 114t238 117q121 0 117 -102q-2 -117 -137 -256q-174 -184 -393 -215q-60 -8 -119 -2q-154 14 -350 168t-195 280zM1226 987q22 0 43 43q22 43 42 97t26 63q106 176 357 176q352 0 352 -438
q0 -172 -82 -504q-45 -176 -120 -284t-161 -140q-183 -67 -382 30q-199 96 -332 213q-66 56 -108 94t-44 38q-29 4 -59 -94t-39 -115q-59 -119 -145 -176q-156 -103 -337 10q-79 49 -134 143q-54 94 -67 213t-9 291t24 284t52 212q31 100 91 169t138 85q196 35 328 8
t232 -95t160 -141q58 -72 105 -127t69 -55z" />
    <glyph glyph-name="ncaron" unicode="&#x148;" horiz-adv-x="1867" 
d="M346 1739q0 59 46 105t108 46t145 -63q84 -63 164 -127t127 -66q74 -4 249 114t238 118q121 0 117 -103q-2 -117 -137 -256q-174 -184 -393 -215q-60 -8 -119 -2q-153 14 -349 168t-196 281zM1747 354q0 -162 -92 -270t-259 -107q-167 0 -227 96q-25 40 -47 80
q-53 95 -174 95q-159 0 -227 -54q-29 -24 -47 -53t-36 -57t-41 -52q-54 -53 -194 -55q-219 1 -302 85t-81 274q2 256 99 447q96 191 248 281q151 90 335 126q184 34 368 -20t335 -153q152 -99 247 -275t95 -388z" />
    <glyph glyph-name="napostrophe" unicode="&#x149;" horiz-adv-x="1867" 
d="M387 1472q0 -249 -114 -314q-52 -30 -131 -30t-123 43q-89 87 -44 361q9 55 55 97q84 78 222 47q57 -13 96 -69q39 -57 39 -135zM1747 354q0 -162 -92 -270t-259 -107q-167 0 -227 96q-25 40 -47 80q-53 95 -174 95q-159 0 -227 -54q-29 -24 -47 -53t-36 -57t-41 -52
q-54 -53 -194 -55q-219 1 -302 85t-81 274q2 256 99 447q96 191 248 281q151 90 335 126q184 34 368 -20t335 -153q152 -99 247 -275t95 -388z" />
    <glyph glyph-name="Omacron" unicode="&#x14c;" horiz-adv-x="2062" 
d="M1737 1726q1 -56 -53 -95q-54 -38 -145 -55q-91 -18 -172 -26t-180 -13t-126 -7q-750 -86 -750 205q0 92 129 145q83 32 306 33q223 2 316 12q94 10 142 15q533 55 533 -214zM985 637q154 0 176 94q18 74 -47 137q-80 72 -171 35t-105 -101t32 -115q46 -50 115 -50z
M1946 721q0 -360 -316 -602q-272 -209 -658 -246t-659 127q-311 188 -311 571q0 470 364 711q347 231 803 174t666 -365q111 -163 111 -370z" />
    <glyph glyph-name="omacron" unicode="&#x14d;" horiz-adv-x="1822" 
d="M1622 1629q0 -112 -198 -149q-156 -29 -303 -37q-148 -7 -175 -9q-750 -86 -749 204q0 93 129 146q76 29 295 32t254 6t101 10t114 12q532 54 532 -215zM844 522q55 0 105 54t50 106q0 51 -58 81q-57 31 -127 21t-104 -64t9 -126t125 -72zM1743 564q0 -152 -96 -286
t-249 -214t-338 -129q-186 -47 -372 -29t-339 80t-249 202q-96 141 -96 345q0 203 85 345q233 388 714 433q289 25 538 -101t349 -364q54 -129 53 -282z" />
    <glyph glyph-name="Obreve" unicode="&#x14e;" horiz-adv-x="2062" 
d="M913 1919q89 0 233 62q144 63 204 63t104 -66q45 -66 45 -129q-1 -121 -111 -195t-262 -85t-314 23q-287 61 -346 238q-26 77 11 139q37 63 122 63t173 -56t141 -57zM985 637q154 0 176 94q18 74 -47 137q-80 72 -171 35t-105 -101t32 -115q46 -50 115 -50zM1946 721
q0 -360 -316 -602q-272 -209 -658 -246t-659 127q-311 188 -311 571q0 470 364 711q347 231 803 174t666 -365q111 -163 111 -370z" />
    <glyph glyph-name="obreve" unicode="&#x14f;" horiz-adv-x="1822" 
d="M516 1878q68 0 156 -56t141 -57q88 1 231 63t204 62t106 -66t45 -128q0 -121 -111 -195q-212 -141 -576 -63q-287 61 -346 238q-26 78 11 140t139 62zM844 522q55 0 105 54t50 106q0 51 -58 81q-57 31 -127 21t-104 -64t9 -126t125 -72zM1743 564q0 -152 -96 -286
t-249 -214t-338 -129q-186 -47 -372 -29t-339 80t-249 202q-96 141 -96 345q0 203 85 345q233 388 714 433q289 25 538 -101t349 -364q54 -129 53 -282z" />
    <glyph glyph-name="OE" unicode="&#x152;" horiz-adv-x="2832" 
d="M985 637q154 0 176 94q18 74 -47 137q-80 72 -171 35t-105 -101t32 -115q46 -50 115 -50zM2611 1341q-1 -61 -69 -116t-138 -92t-69 -52q0 -27 50 -53t107 -52q56 -24 96 -82t23 -140q-8 -43 -62 -86t-160 -91t-108 -65q3 -36 118 -82q48 -20 96 -46t81 -69t33 -100
q0 -127 -188 -219q-223 -111 -514 -90q-244 16 -413 123q-228 -128 -519 -156q-389 -37 -662 127q-311 188 -311 571q0 470 364 711q347 231 799 174q200 -25 364 -103q115 87 259 141q326 122 574 65t249 -218z" />
    <glyph glyph-name="oe" unicode="&#x153;" horiz-adv-x="2930" 
d="M1935 862q-1 -78 93 -92t187 26t93 97q0 90 -93 101t-187 -36t-93 -96zM844 522q55 0 105 54t50 106q0 51 -58 81q-57 31 -127 21t-104 -64t9 -126t125 -72zM2174 1364q157 0 292 -47t233 -141q99 -94 99 -194t-50 -174q-50 -75 -110 -116t-110 -82q-50 -40 -50 -68
t53 -45t118 -33t118 -76q53 -62 53 -170t-79 -182q-137 -128 -445 -135q-307 -8 -492 63q-185 70 -306 162q-159 -119 -438 -191q-186 -47 -372 -29t-339 80t-249 202q-96 141 -96 345q0 203 85 345q233 388 714 433q289 25 530 -97q103 -52 185 -124l2 2q135 120 316 196
t338 76z" />
    <glyph glyph-name="Racute" unicode="&#x154;" horiz-adv-x="1775" 
d="M970 2050q79 0 139 -47t60 -111t-45 -114q-45 -49 -95 -74q-50 -26 -134 -60t-113 -49q-56 -35 -172 -29t-145 67q-29 63 66 165t227 177t212 75zM754 1018q0 -86 64 -122t130 1q64 37 64 127q0 57 -48 89q-48 31 -108 21t-92 -59q-10 -16 -10 -57zM1667 254
q1 -139 -107 -212t-264 -73t-248 86q-36 35 -64 71q-66 85 -116 85q-16 0 -34 -28q-18 -27 -43 -65t-61 -77t-102 -66t-168 -27q-100 0 -187 42q-87 41 -136 104t-90 181t-41 301q0 182 43 387t129 311t265 167q179 62 379 63q469 2 687 -190q121 -108 121 -255
q0 -68 -33 -129t-73 -99q-113 -102 -125 -145q12 -35 58 -78t91 -81q45 -39 82 -111t37 -162z" />
    <glyph glyph-name="racute" unicode="&#x155;" horiz-adv-x="1648" 
d="M992 1862q80 0 140 -47t60 -111t-45 -114t-95 -74t-134 -60q-84 -35 -113 -49q-55 -35 -172 -29t-146 67q-29 63 67 165t227 177q132 75 211 75zM16 510q0 438 336 661q260 170 591 158t511 -155q133 -106 133 -252q-1 -104 -69 -174t-156 -99t-205 -71t-172 -84
q-99 -73 -118 -212t-90 -233q-36 -47 -122 -77t-217 -30q-300 1 -379 274q-43 151 -43 294z" />
    <glyph glyph-name="Rcommaaccent" unicode="&#x156;" horiz-adv-x="1775" 
d="M843 -586q-79 0 -123 43q-89 87 -44 361q10 55 55 97t105 51q146 22 209 -68t34 -267q-8 -49 -30 -103q-49 -114 -206 -114zM754 1018q0 -86 64 -122t130 1q64 37 64 127q0 57 -48 89q-48 31 -108 21t-92 -59q-10 -16 -10 -57zM1667 254q1 -139 -107 -212t-264 -73
t-248 86q-36 35 -64 71q-66 85 -116 85q-16 0 -34 -28q-18 -27 -43 -65t-61 -77t-102 -66t-168 -27q-100 0 -187 42q-87 41 -136 104t-90 181t-41 301q0 182 43 387t129 311t265 167q179 62 379 63q469 2 687 -190q121 -108 121 -255q0 -68 -33 -129t-73 -99
q-113 -102 -125 -145q12 -35 58 -78t91 -81q45 -39 82 -111t37 -162z" />
    <glyph glyph-name="rcommaaccent" unicode="&#x157;" horiz-adv-x="1648" 
d="M686 -310q0 -66 -9 -110q-40 -191 -296 -188q-78 0 -128 26t-71 65q-48 92 -8 257q12 49 69 85q105 67 275 41q70 -10 119 -60t49 -116zM16 510q0 438 336 661q260 170 591 158t511 -155q133 -106 133 -252q-1 -104 -69 -174t-156 -99t-205 -71t-172 -84
q-99 -73 -118 -212t-90 -233q-36 -47 -122 -77t-217 -30q-300 1 -379 274q-43 151 -43 294z" />
    <glyph glyph-name="Rcaron" unicode="&#x158;" horiz-adv-x="1775" 
d="M315 2038q0 59 45 105q46 46 108 46t146 -63q84 -62 164 -126t127 -67q74 -4 249 114t239 118q121 0 116 -103q-2 -117 -137 -256q-174 -184 -393 -215q-60 -8 -119 -2q-154 14 -350 168t-195 281zM754 1018q0 -86 64 -122t130 1q64 37 64 127q0 57 -48 89
q-48 31 -108 21t-92 -59q-10 -16 -10 -57zM1667 254q1 -139 -107 -212t-264 -73t-248 86q-36 35 -64 71q-66 85 -116 85q-16 0 -34 -28q-18 -27 -43 -65t-61 -77t-102 -66t-168 -27q-100 0 -187 42q-87 41 -136 104t-90 181t-41 301q0 182 43 387t129 311t265 167
q179 62 379 63q469 2 687 -190q121 -108 121 -255q0 -68 -33 -129t-73 -99q-113 -102 -125 -145q12 -35 58 -78t91 -81q45 -39 82 -111t37 -162z" />
    <glyph glyph-name="rcaron" unicode="&#x159;" horiz-adv-x="1648" 
d="M349 2013q63 0 147 -63q84 -62 164 -126t126 -67q74 -4 249 114t239 118q121 0 117 -103q-2 -117 -138 -256q-174 -184 -393 -215q-60 -8 -119 -2q-153 14 -349 168t-195 281q0 59 45 105t107 46zM16 510q0 350 220 567q221 217 583 248q315 27 541 -93t227 -310
q-1 -104 -69 -174t-156 -99t-205 -71t-172 -84q-99 -73 -118 -212t-90 -233q-36 -47 -122 -77t-217 -30q-300 1 -379 274q-43 151 -43 294z" />
    <glyph glyph-name="Sacute" unicode="&#x15a;" 
d="M900 2015q79 0 139 -47q61 -48 61 -112t-45 -113t-95 -74t-135 -59q-84 -34 -112 -49q-55 -35 -172 -30t-146 67t67 164t227 178q132 75 211 75zM1020 1014q0 -27 54 -66t131 -88t154 -110q77 -60 130 -150t53 -188q0 -281 -381 -406t-762 -47t-381 287q0 102 52 158
t124 68q74 12 146 16q72 2 123 14t51 49q0 31 -48 65t-114 73q-66 38 -132 88q-66 49 -104 133t-26 188t106 188t230 130q279 95 503 94t337 -93q66 -53 66 -125t-50 -122q-49 -48 -106 -70q-56 -22 -106 -46q-50 -22 -50 -40z" />
    <glyph glyph-name="sacute" unicode="&#x15b;" horiz-adv-x="1464" 
d="M800 1911q79 0 139 -47q60 -48 60 -112t-45 -114t-95 -74t-134 -59t-113 -49q-56 -36 -172 -30t-145 68t66 164t227 178q132 75 212 75zM993 886q0 -36 38 -69t93 -69q56 -36 110 -83q54 -46 92 -122t38 -170q0 -195 -264 -318q-254 -121 -578 -115t-452 140
q-60 63 -60 140q1 135 135 186q55 20 111 38t96 54q39 36 39 84q0 47 -37 83q-37 37 -87 69t-99 71q-115 92 -92 237q28 164 312 274t558 68t275 -247q0 -51 -36 -86t-78 -51t-78 -46q-36 -32 -36 -68z" />
    <glyph glyph-name="Scircumflex" unicode="&#x15c;" 
d="M1270 1507q-66 1 -146 51t-152 103t-116 60q-45 7 -111 -27q-65 -34 -115 -77q-50 -44 -116 -80t-119 -32q-115 9 -169 57t-36 116t99 130q389 313 747 230q213 -51 332 -213q96 -131 59 -230q-31 -88 -157 -88zM1020 1014q0 -27 54 -66t131 -88t154 -110
q77 -60 130 -150t53 -188q0 -281 -381 -406t-762 -47t-381 287q0 102 52 158t124 68q74 12 146 16q72 2 123 14t51 49q0 31 -48 65t-114 73q-66 38 -132 88q-66 49 -104 133t-26 188t106 188t230 130q279 95 503 94t337 -93q66 -53 66 -125t-50 -122q-49 -48 -106 -70
q-56 -22 -106 -46q-50 -22 -50 -40z" />
    <glyph glyph-name="scircumflex" unicode="&#x15d;" horiz-adv-x="1464" 
d="M1184 1362q-66 0 -146 50t-152 104t-116 60q-45 7 -111 -27q-65 -34 -115 -78q-50 -43 -116 -79t-119 -32q-115 8 -169 56t-37 116q18 68 100 131q389 313 747 229q213 -51 332 -213q96 -131 59 -229q-31 -88 -157 -88zM993 886q0 -36 38 -69t93 -69q56 -36 110 -83
q54 -46 92 -122t38 -170q0 -195 -264 -318q-254 -121 -578 -115t-452 140q-60 63 -60 140q1 135 135 186q55 20 111 38t96 54q39 36 39 84q0 47 -37 83q-37 37 -87 69t-99 71q-115 92 -92 237q28 164 312 274t558 68t275 -247q0 -51 -36 -86t-78 -51t-78 -46
q-36 -32 -36 -68z" />
    <glyph glyph-name="Scedilla" unicode="&#x15e;" 
d="M1542 412q0 -338 -566 -455q24 -12 66 -31t82 -37q101 -47 134 -112q19 -39 20 -94q0 -150 -236 -236t-472 -69t-236 120q0 86 77 122t170 32t170 3t76 42q1 31 -69 44t-165 31t-140 59q-45 42 -56 112q-1 9 -2 17q-377 78 -377 286q0 102 52 158t124 68q74 12 146 16
q72 2 123 14t51 49q0 31 -48 65t-114 73q-66 38 -132 88t-103 133q-39 84 -27 188t106 188t230 130q279 95 503 94t337 -93q66 -53 66 -125t-50 -122q-49 -48 -106 -70q-56 -22 -106 -46q-50 -22 -50 -40q0 -27 54 -66t131 -88t154 -110q77 -60 130 -150t53 -188z" />
    <glyph glyph-name="scedilla" unicode="&#x15f;" horiz-adv-x="1464" 
d="M391 582q0 47 -37 83q-37 37 -87 69t-99 71t-77 100t-15 137q28 164 312 274t558 68t275 -247q0 -51 -36 -86t-78 -51t-78 -46q-36 -32 -36 -68t38 -69t93 -69q56 -36 110 -83q54 -46 92 -122t38 -170q0 -195 -264 -318q-102 -49 -216 -76q13 -13 101 -50q88 -36 127 -55
t72 -62t33 -105q-1 -135 -225 -212t-448 -61t-225 107q0 78 74 111t161 29q236 -11 234 40q0 29 -66 40t-156 27q-91 16 -134 55q-43 38 -52 101q-1 4 -1 7q-211 28 -309 129q-60 63 -60 140t40 121q40 45 95 65t111 38t96 54q39 36 39 84z" />
    <glyph glyph-name="Scaron" unicode="&#x160;" 
d="M131 2013q0 59 45 105q46 46 108 47t146 -63t164 -128t127 -65q74 -5 249 113t238 118q121 0 117 -102q-2 -117 -137 -256q-174 -184 -393 -215q-60 -8 -119 -2q-154 14 -350 168t-195 280zM1020 1014q0 -27 54 -66t131 -88t154 -110q77 -60 130 -150t53 -188
q0 -281 -381 -406t-762 -47t-381 287q0 102 52 158t124 68q74 12 146 16q72 2 123 14t51 49q0 31 -48 65t-114 73q-66 38 -132 88q-66 49 -104 133t-26 188t106 188t230 130q279 95 503 94t337 -93q66 -53 66 -125t-50 -122q-49 -48 -106 -70q-56 -22 -106 -46
q-50 -22 -50 -40z" />
    <glyph glyph-name="scaron" unicode="&#x161;" horiz-adv-x="1464" 
d="M94 1905q0 61 45 106t107 45t147 -63q84 -63 164 -127t127 -66q74 -4 249 114t238 118q121 0 117 -103q-2 -117 -137 -256q-174 -184 -393 -215q-60 -8 -119 -2q-153 14 -349 168t-196 281zM993 886q0 -36 38 -69t93 -69q56 -36 110 -83q54 -46 92 -122t38 -170
q0 -195 -264 -318q-254 -121 -578 -115t-452 140q-60 63 -60 140q1 135 135 186q55 20 111 38t96 54q39 36 39 84q0 47 -37 83q-37 37 -87 69t-99 71q-115 92 -92 237q28 164 312 274t558 68t275 -247q0 -51 -36 -86t-78 -51t-78 -46q-36 -32 -36 -68z" />
    <glyph glyph-name="Tcommaaccent" unicode="&#x162;" horiz-adv-x="1931" 
d="M889 -147q81 -1 145 -49t64 -138q0 -197 -124 -252q-56 -24 -140 -24t-133 36q-98 73 -48 302q12 55 84 90t152 35zM1874 1004q0 -92 -46 -142t-113 -66q-67 -18 -135 -32t-122 -56q-53 -42 -61 -122q-27 -267 -89 -395t-170 -197q-108 -68 -261 -68q-154 0 -238 32
t-125 100t-55 142q-14 75 -15 189l21 279q0 71 -48 95q-28 15 -112 35q-163 40 -235 111q-132 132 -20 288q113 156 446 239q333 84 703 41q187 -23 337 -76t244 -157t94 -240z" />
    <glyph glyph-name="tcommaaccent" unicode="&#x163;" horiz-adv-x="1505" 
d="M897 -262q0 -207 -136 -257q-63 -24 -147 -24t-133 26q-49 27 -68 61q-47 86 -7 243q10 47 65 81t125 41t138 -3t116 -58q47 -48 47 -110zM6 881q0 136 91 166q40 12 82 22q103 24 133 132t128 187q98 78 215 104t234 -14t176 -149q41 -70 49 -107q2 -10 25 -24t49 -20
t100 -22t115 -72q41 -58 41 -134t-33 -130t-81 -82t-97 -50q-121 -55 -131 -135t-25 -177t-44 -155q-73 -142 -147 -187q-107 -65 -286 -66q-180 0 -248 104q-43 66 -57 144t-13 191q1 115 -3 163q-5 48 -49 81t-93 45t-90 60t-41 125z" />
    <glyph glyph-name="Tcaron" unicode="&#x164;" horiz-adv-x="1931" 
d="M520 2208q62 0 146 -64t164 -126q80 -64 126 -66q74 -4 249 114t239 117q121 0 117 -102q-2 -117 -138 -256q-174 -184 -393 -215q-60 -8 -119 -2q-153 14 -349 168t-195 280q0 60 46 106t107 46zM1874 1004q0 -92 -46 -142t-113 -66q-67 -18 -135 -32t-122 -56
q-53 -42 -61 -122q-27 -267 -89 -395t-170 -197q-108 -68 -261 -68q-154 0 -238 32t-125 100t-55 142q-14 75 -15 189l21 279q0 71 -48 95q-28 15 -112 35q-163 40 -235 111q-132 132 -20 288q113 156 446 239q333 84 703 41q187 -23 337 -76t244 -157t94 -240z" />
    <glyph glyph-name="tcaron" unicode="&#x165;" horiz-adv-x="1796" 
d="M1860 1054q-49 -114 -206 -114q-79 0 -123 43q-89 87 -44 360q10 55 55 97q44 42 104 52q146 22 210 -68q63 -90 34 -267q-8 -49 -30 -103zM6 881q0 136 91 166q40 12 82 22q103 24 133 132t128 187q98 78 215 104t234 -14t176 -149q41 -70 49 -107q2 -10 25 -24t49 -20
t100 -22t115 -72q41 -58 41 -134t-33 -130t-81 -82t-97 -50q-121 -55 -131 -135t-25 -177t-44 -155q-73 -142 -147 -187q-107 -65 -286 -66q-180 0 -248 104q-43 66 -57 144t-13 191q1 115 -3 163q-5 48 -49 81t-93 45t-90 60t-41 125z" />
    <glyph glyph-name="Tbar" unicode="&#x166;" horiz-adv-x="1931" 
d="M1630 496q0 -98 -210 -134q-31 -5 -60 -9q-4 -16 -15 -62q-24 -100 -102 -202q-125 -163 -409 -163q-240 0 -320 131q-40 67 -52 129t-16 125q-290 29 -290 195q0 84 133 131q68 23 176 23v24q0 73 -97 98q-24 6 -63 16q-163 40 -235 111q-132 132 -20 288
q113 156 446 239q333 84 703 41q187 -23 337 -76t244 -157t94 -240q0 -92 -46 -142t-113 -66q-67 -17 -151 -35t-131 -78q197 -43 197 -187z" />
    <glyph glyph-name="Utilde" unicode="&#x168;" horiz-adv-x="1966" 
d="M1078 1829q78 0 210 54q133 54 203 54q190 0 186 -100q-4 -90 -143 -195q-182 -131 -365 -135q-81 0 -235 44t-228 44t-192 -49q-117 -49 -178 -49q-141 0 -133 88q9 94 163 224t304 141l49 -2q57 -8 169 -64t190 -55zM708 1244q112 -138 241 -138t227 98q38 41 82 81
q107 99 307 97q159 0 227 -142t50 -332t-68 -368q-49 -177 -105 -264q-90 -139 -250 -221t-342 -96t-372 42t-344 172q-153 116 -249 319q-97 203 -98 458q0 92 16 174q15 82 71 166q57 84 149 111q127 33 204 17q78 -16 144 -68q66 -51 110 -106z" />
    <glyph glyph-name="utilde" unicode="&#x169;" horiz-adv-x="1880" 
d="M1053 1669q78 0 212 54t201 55q190 0 187 -101q-4 -90 -144 -194q-182 -131 -364 -135q-80 0 -235 44t-229 44q-73 0 -191 -50t-179 -49q-141 0 -133 88q8 94 163 224t304 141l49 -2q57 -8 169 -64t190 -55zM23 676q0 180 65 333q37 87 116 137t173 50t148 -34t89 -81
t71 -95q87 -116 230 -116q89 0 189 50t170 103q70 52 169 84t187 -3q90 -31 122 -147t32 -351q0 -393 -237 -558t-711 -165q-383 0 -576 151q-237 185 -237 642z" />
    <glyph glyph-name="Umacron" unicode="&#x16a;" horiz-adv-x="1966" 
d="M1694 1707q0 -56 -54 -94t-144 -55q-91 -18 -172 -26t-180 -13t-126 -8q-750 -86 -750 205q0 93 129 146q80 31 297 32q217 2 252 6t101 10q66 7 114 12q533 54 533 -215zM708 1244q112 -138 241 -138t227 98q38 41 82 81q107 99 307 97q159 0 227 -142t50 -332t-68 -368
q-49 -177 -105 -264q-90 -139 -250 -221t-342 -96t-372 42t-344 172q-153 116 -249 319q-97 203 -98 458q0 92 16 174q15 82 71 166q57 84 149 111q127 33 204 17q78 -16 144 -68q66 -51 110 -106z" />
    <glyph glyph-name="umacron" unicode="&#x16b;" horiz-adv-x="1880" 
d="M168 1534q0 92 129 145q83 32 318 33q236 2 366 18q389 46 528 -41q86 -56 84 -165q0 -110 -197 -149q-141 -26 -296 -35q-156 -9 -182 -11q-750 -86 -750 205zM23 676q0 180 65 333q37 87 116 137t173 50t148 -34t89 -81t71 -95q87 -116 230 -116q89 0 189 50t170 103
q70 52 169 84t187 -3q90 -31 122 -147t32 -351q0 -393 -237 -558t-711 -165q-383 0 -576 151q-237 185 -237 642z" />
    <glyph glyph-name="Ubreve" unicode="&#x16c;" horiz-adv-x="1966" 
d="M559 1888q68 0 156 -56t141 -56q90 0 234 62t202 62q60 0 105 -65q45 -66 45 -129q0 -121 -111 -195t-263 -86t-312 23q-287 62 -347 239q-26 77 11 139t139 62zM708 1244q112 -138 241 -138t227 98q38 41 82 81q107 99 307 97q159 0 227 -142t50 -332t-68 -368
q-49 -177 -105 -264q-90 -139 -250 -221t-342 -96t-372 42t-344 172q-153 116 -249 319q-97 203 -98 458q0 92 16 174q15 82 71 166q57 84 149 111q127 33 204 17q78 -16 144 -68q66 -51 110 -106z" />
    <glyph glyph-name="ubreve" unicode="&#x16d;" horiz-adv-x="1880" 
d="M539 1706q67 0 155 -56t142 -57q90 1 233 63t203 62t104 -66t45 -128q-1 -121 -111 -195q-211 -141 -575 -63q-287 61 -347 238q-26 78 11 140t140 62zM23 676q0 180 65 333q37 87 116 137t173 50t148 -34t89 -81t71 -95q87 -116 230 -116q89 0 189 50t170 103
q70 52 169 84t187 -3q90 -31 122 -147t32 -351q0 -393 -237 -558t-711 -165q-383 0 -576 151q-237 185 -237 642z" />
    <glyph glyph-name="Uring" unicode="&#x16e;" horiz-adv-x="1966" 
d="M846 1673q0 -61 80 -72t121 29q25 31 3 67t-72 49t-91 -6t-41 -67zM1290 1620q0 -102 -115 -161q-116 -58 -245 -58t-217 50t-112 121q-25 71 17 154t146 144q76 47 168 41t172 -41t133 -104t53 -146zM708 1244q112 -138 241 -138t227 98q38 41 82 81q107 99 307 97
q159 0 227 -142t50 -332t-68 -368q-49 -177 -105 -264q-90 -139 -250 -221t-342 -96t-372 42t-344 172q-153 116 -249 319q-97 203 -98 458q0 92 16 174q15 82 71 166q57 84 149 111q127 33 204 17q78 -16 144 -68q66 -51 110 -106z" />
    <glyph glyph-name="uring" unicode="&#x16f;" horiz-adv-x="1880" 
d="M797 1489q0 -61 80 -73t120 30q25 30 3 66t-72 50t-90 -6q-41 -20 -41 -67zM1241 1436q0 -102 -116 -160q-117 -58 -245 -59q-128 0 -216 50t-112 121t18 154t145 144q76 46 168 40t172 -40t133 -104q53 -69 53 -146zM23 676q0 180 65 333q37 87 116 137t173 50t148 -34
t89 -81t71 -95q87 -116 230 -116q89 0 189 50t170 103q70 52 169 84t187 -3q90 -31 122 -147t32 -351q0 -393 -237 -558t-711 -165q-383 0 -576 151q-237 185 -237 642z" />
    <glyph glyph-name="Uogonek" unicode="&#x172;" horiz-adv-x="1966" 
d="M708 1244q112 -138 241 -138t227 98q38 41 82 81q107 99 307 97q159 0 227 -142t50 -332t-68 -368q-49 -177 -105 -264q-90 -139 -242 -217t-313 -96q-2 -19 -2 -31q0 -51 52 -86t116 -54t116 -67t52 -122q0 -121 -159 -165t-355 28t-246 229q-39 121 44 298
q-213 61 -368 178q-156 118 -252 321q-97 203 -98 458q0 92 16 174q15 82 71 166q57 84 149 111q127 33 204 17q78 -16 144 -68q66 -51 110 -106z" />
    <glyph glyph-name="uogonek" unicode="&#x173;" horiz-adv-x="1880" 
d="M23 676q0 180 65 333q37 87 116 137t173 50t148 -34t89 -81t71 -95q87 -116 230 -116q89 0 189 50t170 103q70 52 169 84t187 -3q90 -31 122 -147t32 -351q0 -333 -170 -502q18 -75 166 -119q63 -19 115 -67t53 -123q0 -121 -159 -165t-362 31t-246 249
q-153 -27 -345 -27q-383 0 -576 151q-237 185 -237 642z" />
    <glyph glyph-name="Wcircumflex" unicode="&#x174;" horiz-adv-x="2742" 
d="M1761 1430q-65 0 -145 50t-152 103t-116 60t-111 -27q-66 -34 -116 -77q-49 -44 -115 -80t-119 -32q-115 9 -169 57t-37 116t99 131q389 313 748 229q213 -51 332 -213q96 -131 59 -229q-31 -88 -158 -88zM1315 1425q86 1 158 -33q73 -34 119 -82t85 -96t71 -82t61 -34
q28 0 84 49q55 49 117 107t160 108t195 49q225 0 271 -228q46 -229 -89 -547q-134 -318 -345 -489q-125 -100 -250 -118q-182 -27 -303 -1t-174 66t-101 82q-86 73 -168 19q-38 -27 -74 -62q-91 -89 -275 -113q-101 -12 -271 7q-201 27 -366 305t-201 610t104 467
q68 66 160 66q92 1 180 -55t148 -123q157 -175 196 -176t92 47t107 104t138 105q85 48 171 48z" />
    <glyph glyph-name="wcircumflex" unicode="&#x175;" horiz-adv-x="2455" 
d="M1597 1202q-65 0 -145 50t-152 104t-116 60q-44 8 -111 -26q-66 -34 -116 -78q-49 -44 -115 -80t-119 -32q-115 8 -169 56t-37 116t99 131q389 313 748 230q213 -51 332 -213q96 -131 59 -230q-31 -88 -158 -88zM757 858q72 0 152 97q33 40 69 81q87 99 189 99t170 -88
l58 -74q70 -90 167 -89q96 1 226 153q47 57 129 105t178 48q149 0 215 -91t66 -221q0 -422 -243 -677q-81 -85 -205 -139t-258 -54t-226 31t-163 61t-153 29q-82 0 -162 -37q-79 -37 -150 -74t-150 -36q-158 0 -286 74t-204 193q-156 242 -156 507q0 147 67 274t210 149
t202 -57q59 -80 109 -169q22 -39 63 -67q40 -28 86 -28z" />
    <glyph glyph-name="Ycircumflex" unicode="&#x176;" horiz-adv-x="1933" 
d="M453 1815q389 313 747 229q213 -51 332 -213q96 -131 59 -229q-31 -88 -157 -89q-66 1 -146 51t-152 103t-116 60q-45 7 -111 -27q-65 -34 -115 -77q-50 -44 -116 -80t-119 -32q-115 9 -169 57t-36 116t99 131zM1479 1423q172 -1 267 -113t95 -268q0 -106 -32 -181
q-31 -75 -79 -111q-97 -75 -226 -118q-56 -20 -106 -58t-70 -81t-57 -163q-38 -120 -85 -201q-89 -154 -231 -154t-228 44t-113 112q-49 122 -40 311q9 188 -87 232q-272 136 -369 231q-44 43 -80 103t-36 120q0 138 106 224t256 86q152 0 310 -76t274 -180q37 0 116 60
q80 60 190 120t225 61z" />
    <glyph glyph-name="ycircumflex" unicode="&#x177;" horiz-adv-x="1994" 
d="M1493 1233q-65 0 -145 50t-152 103q-72 52 -117 60t-111 -26t-115 -78q-50 -44 -116 -80t-119 -31q-114 8 -168 56t-37 116t99 131q389 313 748 229q213 -51 331 -213q97 -131 63 -224t-161 -93zM1913 870q0 -132 -109 -346q-108 -214 -266 -416t-348 -368t-339 -215
t-304 -41q-78 4 -129 48q-52 44 -56 125t66 207t70 193q0 121 -154 304q-63 77 -136 160t-126 163t-79 154t7 144t129 126q131 66 222 64t187 -48q96 -47 167 -103q187 -149 315 -151q2 0 54 33t129 76q221 124 336 148q114 24 192 17t125 -74q47 -68 47 -200z" />
    <glyph glyph-name="Ydieresis" unicode="&#x178;" horiz-adv-x="1933" 
d="M675 1516q-91 0 -156 44q-123 83 -58 226q29 63 90 100q69 35 143 6q74 -28 131 -96t57 -130t-58 -106t-149 -44zM1366 1923q102 0 152 -73t30 -162q-18 -89 -90 -136q-47 -33 -119 -32q-147 0 -200 100t14 202q68 101 213 101zM1479 1423q172 -1 267 -113t95 -268
q0 -106 -32 -181q-31 -75 -79 -111q-97 -75 -226 -118q-56 -20 -106 -58t-70 -81t-57 -163q-38 -120 -85 -201q-89 -154 -231 -154t-228 44t-113 112q-49 122 -40 311q9 188 -87 232q-272 136 -369 231q-44 43 -80 103t-36 120q0 138 106 224t256 86q152 0 310 -76t274 -180
q37 0 116 60q80 60 190 120t225 61z" />
    <glyph glyph-name="Zacute" unicode="&#x179;" horiz-adv-x="1675" 
d="M1027 2044q79 0 139 -47t60 -111t-44 -114q-46 -49 -96 -74t-134 -60t-112 -49q-55 -35 -172 -29t-146 67q-30 63 66 165t228 177t211 75zM1559 1155q0 -59 -73 -151t-160 -171q-234 -212 -232 -255q0 -49 225 -132q84 -31 155 -86q70 -56 70 -124t-85 -134t-220 -106
q-481 -144 -924 -43q-135 31 -220 105t-85 176q0 100 81 203t179 175t180 144q80 72 80 112t-164 57q-80 7 -150 27t-132 74q-62 55 -64 142q0 87 85 163t221 115q476 137 927 3q135 -40 221 -117t85 -177z" />
    <glyph glyph-name="zacute" unicode="&#x17a;" horiz-adv-x="1501" 
d="M869 1862q79 0 139 -47t61 -111q0 -64 -45 -114t-95 -74t-134 -60q-84 -35 -113 -49q-56 -35 -172 -29t-145 67q-29 63 66 165t227 177t211 75zM475 754q0 35 -41 54q-41 18 -99 30q-57 12 -117 29t-101 61t-41 114t77 121q203 135 830 142q322 0 322 -205
q1 -106 -59 -217t-131 -183t-130 -130t-59 -70q43 -65 282 -79q84 -5 152 -51t68 -134t-78 -154q-132 -112 -448 -145q-315 -33 -600 44q-124 32 -202 94t-78 139t161 195q67 48 133 100q160 127 159 245z" />
    <glyph glyph-name="Zdotaccent" unicode="&#x17b;" horiz-adv-x="1675" 
d="M545 1782q0 76 80 128t170 52q129 0 209 -102t12 -199q-37 -55 -151 -71t-217 35q-103 50 -103 157zM1559 1155q0 -59 -73 -151t-160 -171q-234 -212 -232 -255q0 -49 225 -132q84 -31 155 -86q70 -56 70 -124t-85 -134t-220 -106q-481 -144 -924 -43q-135 31 -220 105
t-85 176q0 100 81 203t179 175t180 144q80 72 80 112t-164 57q-80 7 -150 27t-132 74q-62 55 -64 142q0 87 85 163t221 115q476 137 927 3q135 -40 221 -117t85 -177z" />
    <glyph glyph-name="zdotaccent" unicode="&#x17c;" horiz-adv-x="1501" 
d="M737 1741q129 1 209 -101t12 -200q-36 -54 -150 -70t-217 34t-104 157q0 76 80 128t170 52zM475 754q0 35 -41 54q-41 18 -100 30q-60 12 -118 29t-99 61t-41 114t77 121q203 135 830 142q322 0 322 -205q1 -106 -59 -217t-131 -183t-130 -130t-59 -70q43 -65 282 -79
q84 -5 152 -51t68 -134t-78 -154q-132 -112 -448 -145q-315 -33 -600 44q-124 32 -202 94t-78 138t160 196q66 48 132 100q160 126 161 245z" />
    <glyph glyph-name="Zcaron" unicode="&#x17d;" horiz-adv-x="1675" 
d="M362 2146q62 0 146 -63t164 -127t127 -66q74 -4 249 114t238 118q121 0 117 -103q-2 -117 -137 -256q-174 -184 -394 -215q-59 -8 -118 -2q-154 14 -350 168t-195 281q0 61 45 106q46 45 108 45zM1559 1155q0 -59 -73 -151t-160 -171q-234 -212 -232 -255q0 -49 225 -132
q84 -31 155 -86q70 -56 70 -124t-85 -134t-220 -106q-481 -144 -924 -43q-135 31 -220 105t-85 176q0 100 81 203t179 175t180 144q80 72 80 112t-164 57q-80 7 -150 27t-132 74q-62 55 -64 142q0 87 85 163t221 115q476 137 927 3q135 -40 221 -117t85 -177z" />
    <glyph glyph-name="zcaron" unicode="&#x17e;" horiz-adv-x="1501" 
d="M303 1976q61 0 145 -63t164 -127t127 -66q74 -4 249 114t239 118q121 0 116 -103q-2 -117 -137 -256q-174 -184 -393 -215q-60 -8 -119 -2q-154 14 -350 168t-194 281q0 59 46 105t107 46zM475 754q0 35 -41 54q-41 18 -100 30q-60 12 -118 29t-99 61t-41 114t77 121
q203 135 830 142q322 0 322 -205q1 -106 -59 -217t-131 -183t-130 -130t-59 -70q43 -65 282 -79q84 -5 152 -51t68 -134t-78 -154q-132 -112 -448 -145q-315 -33 -600 44q-124 32 -202 94t-78 138t160 196q66 48 132 100q160 126 161 245z" />
    <glyph glyph-name="AEacute" unicode="&#x1fc;" horiz-adv-x="2721" 
d="M1617 2079q79 0 139 -47q60 -48 60 -112t-44 -114q-46 -50 -96 -74t-134 -59t-112 -49q-55 -36 -172 -30t-146 68q-30 62 66 164t228 178q132 75 211 75zM1860 -90q-116 0 -250 41h-2q-113 0 -246 60q-133 59 -249 121t-179 64q-107 4 -234 -76q-51 -34 -106 -69
q-129 -82 -298 -82t-254 94q-48 53 -38 130q43 315 139 562q177 455 507 629q302 160 630 18q73 -32 141 -77q178 156 418 213q183 41 423 13q120 -13 203 -67t83 -143q0 -61 -70 -117t-138 -92t-69 -51q0 -40 142 -95q53 -22 97 -70t44 -116t-43 -117q-43 -51 -97 -71
q-166 -63 -196 -100q3 -52 167 -106q60 -20 110 -70q51 -50 51 -121q0 -72 -47 -128t-117 -88q-195 -89 -522 -89zM1141 875q-44 35 -90 34h-52q-53 -2 -100 -78q-51 -88 -12 -133q20 -23 78 -22t148 56q8 71 28 143z" />
    <glyph glyph-name="aeacute" unicode="&#x1fd;" horiz-adv-x="2734" 
d="M1535 1751q79 0 139 -47q60 -48 60 -112t-44 -113q-46 -49 -96 -74t-134 -59t-112 -50q-55 -36 -172 -30t-146 68q-30 62 66 164t228 178q132 75 211 75zM1706 831q0 -78 93 -92t187 26q93 40 93 97q0 90 -93 102t-187 -36q-93 -48 -93 -97zM748 633q0 -84 70 -122t142 4
q70 42 70 155q0 68 -54 94t-120 -2q-66 -26 -98 -92q-10 -20 -10 -37zM1944 1333q328 0 526 -188q98 -94 98 -209q0 -84 -50 -159t-110 -115t-109 -82q-50 -41 -50 -69t53 -45q53 -16 118 -32q66 -16 118 -78t52 -169t-78 -181q-135 -125 -445 -135q-310 -9 -498 66
q-92 35 -169 75q-37 12 -104 50t-116 38q-111 0 -322 -59t-323 -59q-221 0 -372 146t-151 341q1 229 143 400t321 255q333 156 682 -6q64 -30 121 -67q6 5 11 10q134 121 316 197t338 75z" />
    <glyph glyph-name="Oslashacute" unicode="&#x1fe;" horiz-adv-x="2062" 
d="M1109 2028q79 0 139 -48t60 -111t-44 -113q-46 -50 -96 -75t-134 -59t-112 -49q-55 -35 -172 -29t-146 67q-30 63 66 165t228 177t211 75zM985 637q154 0 176 94q18 74 -47 137q-80 72 -171 35t-105 -101t32 -115q46 -50 115 -50zM1774 1614q82 0 145 -68t63 -148
t-87 -196q-35 -47 -76 -88q127 -175 127 -393q0 -360 -316 -602q-272 -209 -655 -246q-264 -25 -475 43q-136 -115 -263 -146q-127 -30 -217 40q-136 140 83 388q-101 155 -101 382q0 461 364 702q347 231 799 174q129 -16 243 -54q242 212 366 212z" />
    <glyph glyph-name="oslashacute" unicode="&#x1ff;" horiz-adv-x="1822" 
d="M1200 1734q0 -64 -45 -114q-45 -49 -95 -74q-50 -26 -134 -60t-113 -48q-55 -36 -171 -30t-146 68q-29 62 66 164q96 102 228 178t210 74q78 0 140 -47q60 -47 60 -111zM844 522q55 0 105 54t50 92q0 36 -13 57q-66 17 -85 53q-41 12 -99 4t-92 -62t9 -126q11 -18 24 -32
q59 -15 87 -39q7 -1 14 -1zM1534 1462q195 0 244 -76t-60 -210q-68 -85 -133 -155q158 -188 158 -454q0 -155 -96 -289t-249 -214q-462 -243 -924 -120q-350 -301 -556 -204q-61 37 -61 78q0 80 154 263q44 53 92 103q-2 2 -3 4q-96 141 -96 345q0 203 85 345
q233 388 714 433q221 19 425 -51q208 202 306 202z" />
    <glyph glyph-name="Scommaaccent" unicode="&#x218;" 
d="M1022 -295q0 -181 -120 -228q-54 -22 -137 -22t-129 32q-68 48 -62 180q4 42 16 89q16 72 122 104t208 -8t102 -147zM1020 1014q0 -27 54 -66t131 -88t154 -110q77 -60 130 -150t53 -188q0 -281 -381 -406t-762 -47t-381 287q0 102 52 158t124 68q74 12 146 16
q72 2 123 14t51 49q0 31 -48 65t-114 73q-66 38 -132 88q-66 49 -104 133t-26 188t106 188t230 130q279 95 503 94t337 -93q66 -53 66 -125t-50 -122q-49 -48 -106 -70q-56 -22 -106 -46q-50 -22 -50 -40z" />
    <glyph glyph-name="scommaaccent" unicode="&#x219;" horiz-adv-x="1464" 
d="M668 -78q82 0 148 -46t67 -140q0 -94 -42 -165q-56 -91 -231 -89q-263 0 -182 317q12 55 85 89t155 34zM993 886q0 -36 38 -69t93 -69q56 -36 110 -83q54 -46 92 -122t38 -170q0 -195 -264 -318q-254 -121 -578 -115t-452 140q-60 63 -60 140q1 135 135 186q55 20 111 38
t96 54q39 36 39 84q0 47 -37 83q-37 37 -87 69t-99 71q-115 92 -92 237q28 164 312 274t558 68t275 -247q0 -51 -36 -86t-78 -51t-78 -46q-36 -32 -36 -68z" />
    <glyph glyph-name="dotlessj" unicode="&#x237;" horiz-adv-x="1046" 
d="M490 1069q200 0 298 -135t123 -302q25 -166 25 -306q0 -494 -324 -770q-221 -190 -501 -211q-231 -18 -344 86q-63 59 -63 133t54 136q55 64 136 131q79 67 111 117q62 98 96 386t108 496q37 103 109 171t172 68z" />
    <glyph glyph-name="circumflex" unicode="&#x2c6;" horiz-adv-x="1241" 
d="M1069 1018q-65 0 -145 50t-152 103t-116 61t-111 -27q-66 -34 -116 -78q-50 -43 -116 -79t-118 -32q-115 8 -169 56t-37 116t99 131q389 313 748 229q213 -51 331 -213q97 -131 63 -224t-161 -93z" />
    <glyph glyph-name="caron" unicode="&#x2c7;" horiz-adv-x="1208" 
d="M10 1511q0 61 46 107t108 45q62 1 145 -63q84 -64 164 -127t127 -66q74 -4 249 114t238 117q121 0 117 -102q-2 -117 -137 -256q-174 -184 -393 -215q-60 -8 -119 -2q-153 14 -349 168t-196 280z" />
    <glyph glyph-name="breve" unicode="&#x2d8;" horiz-adv-x="1064" 
d="M469 1409q88 0 231 62q143 63 204 63t106 -66t45 -129q0 -121 -111 -195q-110 -74 -262 -85t-314 23q-287 61 -346 238q-26 77 11 139q37 63 122 63t173 -56t141 -57z" />
    <glyph glyph-name="dotaccent" unicode="&#x2d9;" horiz-adv-x="540" 
d="M270 1440q130 0 210 -102t12 -199q-37 -55 -151 -71t-217 35q-103 50 -104 157q0 76 80 128t170 52z" />
    <glyph glyph-name="ring" unicode="&#x2da;" horiz-adv-x="765" 
d="M276 1286q0 -60 80 -72t121 29q25 31 3 67t-72 49t-90 -6q-42 -19 -42 -67zM721 1233q0 -103 -116 -161t-245 -58t-217 50t-111 121q-24 71 18 154t145 144q75 47 167 41t172 -41t134 -104q53 -69 53 -146z" />
    <glyph glyph-name="ogonek" unicode="&#x2db;" horiz-adv-x="671" 
d="M455 -146q1 -30 35 -59t83 -49t99 -44t84 -66q35 -42 35 -101q0 -121 -159 -165q-158 -44 -354 29t-247 226t85 365q89 139 206 139t134 -66q15 -56 7 -117q-8 -62 -8 -92z" />
    <glyph glyph-name="tilde" unicode="&#x2dc;" horiz-adv-x="1521" 
d="M528 1141q-74 0 -192 -49q-117 -49 -178 -50q-141 0 -133 88q9 94 163 224q193 163 370 137q40 -6 152 -61q112 -56 188 -56t212 54q135 54 203 55q190 0 186 -101q-4 -90 -143 -194q-182 -131 -365 -135q-81 0 -235 44t-228 44z" />
    <glyph glyph-name="Wgrave" unicode="&#x1e80;" horiz-adv-x="2742" 
d="M940 1835q0 72 47 110t131 37q145 0 301 -100q17 -12 117 -60q224 -108 225 -184q1 -59 -29 -87q-30 -29 -120 -49t-254 16q-162 36 -290 122q-128 88 -128 195zM1315 1425q86 1 158 -33q73 -34 119 -82t85 -96t71 -82t61 -34q28 0 84 49q55 49 117 107t160 108t195 49
q225 0 271 -228q46 -229 -89 -547q-134 -318 -345 -489q-125 -100 -250 -118q-182 -27 -303 -1t-174 66t-101 82q-86 73 -168 19q-38 -27 -74 -62q-91 -89 -275 -113q-101 -12 -271 7q-201 27 -366 305t-201 610t104 467q68 66 160 66q92 1 180 -55t148 -123
q157 -175 196 -176t92 47t107 104t138 105q85 48 171 48z" />
    <glyph glyph-name="wgrave" unicode="&#x1e81;" horiz-adv-x="2455" 
d="M721 1567q0 71 47 109t131 38q145 0 301 -100q18 -12 118 -60t162 -95q62 -46 62 -97t-30 -79q-30 -29 -120 -49t-252 15t-291 123q-128 88 -128 195zM757 858q72 0 152 97q33 40 69 81q87 99 189 99t170 -88l58 -74q70 -90 167 -89q96 1 226 153q47 57 129 105t178 48
q149 0 215 -91t66 -221q0 -422 -243 -677q-81 -85 -205 -139t-258 -54t-226 31t-163 61t-153 29q-82 0 -162 -37q-79 -37 -150 -74t-150 -36q-158 0 -286 74t-204 193q-156 242 -156 507q0 147 67 274t210 149t202 -57q59 -80 109 -169q22 -39 63 -67q40 -28 86 -28z" />
    <glyph glyph-name="Wacute" unicode="&#x1e82;" horiz-adv-x="2742" 
d="M1439 1960q79 0 139 -47t60 -111t-45 -114q-45 -49 -95 -74t-134 -60t-113 -49q-55 -35 -171 -29t-146 67q-29 63 66 165q96 102 228 177t211 75zM1315 1425q86 1 158 -33q73 -34 119 -82t85 -96t71 -82t61 -34q28 0 84 49q55 49 117 107t160 108t195 49q225 0 271 -228
q46 -229 -89 -547q-134 -318 -345 -489q-125 -100 -250 -118q-182 -27 -303 -1t-174 66t-101 82q-86 73 -168 19q-38 -27 -74 -62q-91 -89 -275 -113q-101 -12 -271 7q-201 27 -366 305t-201 610t104 467q68 66 160 66q92 1 180 -55t148 -123q157 -175 196 -176t92 47
t107 104t138 105q85 48 171 48z" />
    <glyph glyph-name="wacute" unicode="&#x1e83;" horiz-adv-x="2455" 
d="M1277 1690q79 0 139 -48t60 -111t-44 -113q-46 -50 -96 -75t-134 -59t-112 -49q-55 -35 -172 -29t-146 67q-30 63 66 165t228 177t211 75zM757 858q72 0 152 97q33 40 69 81q87 99 189 99t170 -88l58 -74q70 -90 167 -89q96 1 226 153q47 57 129 105t178 48
q149 0 215 -91t66 -221q0 -422 -243 -677q-81 -85 -205 -139t-258 -54t-226 31t-163 61t-153 29q-82 0 -162 -37q-79 -37 -150 -74t-150 -36q-158 0 -286 74t-204 193q-156 242 -156 507q0 147 67 274t210 149t202 -57q59 -80 109 -169q22 -39 63 -67q40 -28 86 -28z" />
    <glyph glyph-name="Wdieresis" unicode="&#x1e84;" horiz-adv-x="2742" 
d="M1200 1680q0 -62 -58 -106t-149 -44t-156 44q-122 82 -59 226q29 64 90 101q70 35 144 6t131 -97t57 -130zM1657 1534q-147 0 -201 101t14 202q68 100 213 100q102 0 152 -72q49 -73 31 -162t-90 -136q-47 -33 -119 -33zM1315 1425q86 1 158 -33q73 -34 119 -82t85 -96
t71 -82t61 -34q28 0 84 49q55 49 117 107t160 108t195 49q225 0 271 -228q46 -229 -89 -547q-134 -318 -345 -489q-125 -100 -250 -118q-182 -27 -303 -1t-174 66t-101 82q-86 73 -168 19q-38 -27 -74 -62q-91 -89 -275 -113q-101 -12 -271 7q-201 27 -366 305t-201 610
t104 467q68 66 160 66q92 1 180 -55t148 -123q157 -175 196 -176t92 47t107 104t138 105q85 48 171 48z" />
    <glyph glyph-name="wdieresis" unicode="&#x1e85;" horiz-adv-x="2455" 
d="M1081 1372q0 -62 -58 -106t-149 -43q-91 0 -156 44q-122 82 -59 226q30 63 91 100q70 35 144 6t130 -97q57 -68 57 -130zM1538 1227q-146 0 -200 101q-54 102 14 202t213 100q102 0 151 -72t31 -162q-18 -89 -90 -136q-47 -33 -119 -33zM757 858q72 0 152 97q33 40 69 81
q87 99 189 99t170 -88l58 -74q70 -90 167 -89q96 1 226 153q47 57 129 105t178 48q149 0 215 -91t66 -221q0 -422 -243 -677q-81 -85 -205 -139t-258 -54t-226 31t-163 61t-153 29q-82 0 -162 -37q-79 -37 -150 -74t-150 -36q-158 0 -286 74t-204 193q-156 242 -156 507
q0 147 67 274t210 149t202 -57q59 -80 109 -169q22 -39 63 -67q40 -28 86 -28z" />
    <glyph glyph-name="Ygrave" unicode="&#x1ef2;" horiz-adv-x="1933" 
d="M496 1757q0 72 47 110t131 38q145 0 301 -101q17 -12 117 -60q223 -107 225 -183q1 -59 -29 -87t-120 -48t-254 14q-162 35 -290 123t-128 194zM1479 1423q172 -1 267 -113t95 -268q0 -106 -32 -181q-31 -75 -79 -111q-97 -75 -226 -118q-56 -20 -106 -58t-70 -81
t-57 -163q-38 -120 -85 -201q-89 -154 -231 -154t-228 44t-113 112q-49 122 -40 311q9 188 -87 232q-272 136 -369 231q-44 43 -80 103t-36 120q0 138 106 224t256 86q152 0 310 -76t274 -180q37 0 116 60q80 60 190 120t225 61z" />
    <glyph glyph-name="ygrave" unicode="&#x1ef3;" horiz-adv-x="1994" 
d="M573 1475q-1 71 47 109t132 38q145 0 301 -100q18 -12 117 -60q100 -48 162 -95q62 -46 62 -97t-28 -79q-30 -29 -120 -49t-254 15q-163 35 -291 123t-128 195zM1913 870q0 -132 -109 -346q-108 -214 -266 -416t-348 -368t-339 -215t-304 -41q-78 4 -129 48
q-52 44 -56 125t66 207t70 193q0 121 -154 304q-63 77 -136 160t-126 163t-79 154t7 144t129 126q131 66 222 64t187 -48q96 -47 167 -103q187 -149 315 -151q2 0 54 33t129 76q221 124 336 148q114 24 192 17t125 -74q47 -68 47 -200z" />
    <glyph glyph-name="endash" unicode="&#x2013;" horiz-adv-x="1634" 
d="M-6 721q0 59 58 123t130 99q72 33 290 57q567 61 878 -45q184 -62 184 -189t-157 -170q-128 -34 -271 -41q-12 0 -45 -2q-1067 -55 -1067 168z" />
    <glyph glyph-name="emdash" unicode="&#x2014;" horiz-adv-x="2105" 
d="M2054 758q0 -125 -212 -203q-367 -135 -1116 -83q-302 22 -514 90t-212 151q0 85 86 155t182 82q563 70 1374 31q128 -5 226 -42q186 -72 186 -181z" />
    <glyph glyph-name="quoteleft" unicode="&#x2018;" horiz-adv-x="661" 
d="M483 1577q53 0 92 -35t39 -82q0 -46 -53 -112t-63 -92t-14 -74t-11 -72q-59 -168 -197 -188q-113 -16 -194 73q-119 126 -19 308q47 80 187 177t233 97z" />
    <glyph glyph-name="quoteright" unicode="&#x2019;" horiz-adv-x="706" 
d="M2 1395q0 117 131 159q141 43 297 -26q182 -82 217 -258l8 -76q0 -184 -92 -230q-41 -22 -109 -22t-109 55q-43 55 -67 117t-47 72q-6 2 -26 9t-39 13t-30 13t-30 17t-33 23q-71 66 -71 134z" />
    <glyph glyph-name="quotesinglbase" unicode="&#x201a;" horiz-adv-x="477" 
d="M440 144q0 -248 -113 -315q-52 -30 -131 -30t-123 43q-89 87 -44 361q10 55 55 97q83 78 221 47q57 -13 96 -69t39 -134z" />
    <glyph glyph-name="quotedblleft" unicode="&#x201c;" horiz-adv-x="1036" 
d="M211 1145q-80 0 -139 53q-60 52 -60 122t41 137t103 114q149 112 257 96q60 -8 87 -55q14 -27 -13 -68t-69 -94q-42 -54 -48 -78q-7 -24 -18 -78t-29 -88q-32 -61 -112 -61zM649 997q-162 0 -190 133q-27 125 74 276t264 177h6q70 13 121 3q51 -11 60 -27q19 -33 7 -69
q-28 -83 -100 -185q-15 -25 -29 -51t-20 -84q-6 -56 -9 -89t-47 -59t-137 -25z" />
    <glyph glyph-name="quotedblright" unicode="&#x201d;" horiz-adv-x="1120" 
d="M690 1655q114 0 213 -71q98 -71 98 -165q0 -65 -43 -139t-108 -74t-147 113q-80 113 -105 129q-102 78 -62 142t154 65zM612 1171q0 -90 -51 -150t-136 -60q-150 0 -191 71q-19 35 -39 126t-30 114q-9 24 -45 89t-36 106q0 40 46 65t95 24q139 0 263 -130t124 -255z" />
    <glyph glyph-name="quotedblbase" unicode="&#x201e;" horiz-adv-x="1021" 
d="M979 3q0 -81 -40 -138q-68 -97 -213 -72q-58 9 -104 51t-55 97q-39 252 74 381q80 92 178 57q115 -43 148 -232q12 -63 12 -144zM96 -129q-70 47 -82 175t50 239t179 111q116 0 168 -146q52 -144 7 -290t-160 -148q-72 -2 -162 59z" />
    <glyph glyph-name="bullet" unicode="&#x2022;" horiz-adv-x="636" 
d="M266 995q129 1 209 -101t12 -200q-45 -72 -270 -96q-76 -12 -138 58q-63 70 -63 153q0 82 80 134t170 52z" />
    <glyph glyph-name="Euro" unicode="&#x20ac;" horiz-adv-x="1478" 
d="M1411 930q1 -76 -65 -118t-161 -53t-191 -13q-234 -6 -238 -46q-4 -26 58 -34t153 -11h90q53 -6 112 -53t59 -98t-62 -85q-64 -34 -140 -42q-201 -21 -203 -66q59 -53 168 -59t199 8t158 -8t68 -98q0 -74 -55 -134q-96 -105 -330 -142t-485 39q-112 33 -206 103t-145 166
q-29 53 -86 83t-107 41q-50 12 -84 56q-35 44 -30 110t39 102q34 35 72 49t70 31q86 46 -69 150q-100 71 -100 151q0 46 39 82q39 37 89 53t106 47t81 67q88 133 169 210q174 165 493 165q182 0 357 -46q98 -26 162 -81t64 -133t-70 -110q-70 -31 -168 -27q-100 4 -200 13
q-243 22 -246 -64l328 -50q201 -31 254 -69t53 -86z" />
    <glyph glyph-name="trademark" unicode="&#x2122;" horiz-adv-x="1323" 
d="M969 1262q-7 0 -49 -50t-68 -51q-26 0 -65 48q-38 48 -44 48q-6 1 -18 -31q-36 -96 -84 -96q-67 0 -91 96t17 194q41 97 131 98q64 0 124 -82q20 -27 32 -27t32 27q61 80 143 80q81 0 118 -94t9 -188q-28 -93 -99 -93q-54 0 -74 90q-6 31 -14 31zM522 1407q0 -45 -59 -58
t-64 -51q-6 -53 -15 -84q-9 -32 -41 -60q-31 -28 -91 -28t-80 30t-20 91l4 72q0 14 -6 21q-6 8 -26 12q-86 19 -89 66q-2 40 53 71q56 35 160 44t189 -24t85 -102z" />
    <glyph glyph-name="Delta" unicode="&#x2206;" horiz-adv-x="1826" 
d="M907 760q0 -2 -59 -94t-57 -113q12 -59 159 -55t187 57q18 25 -31 123q-59 121 -123 129q-43 2 -76 -47zM1751 341q0 -46 -18 -75q-19 -29 -31 -43t-35 -30l-46 -32t-91 -40q-106 -41 -330 -68q-584 -70 -916 49q-198 72 -227 211q-23 88 103 300q210 356 489 655
q53 57 93 93t107 70t128 29q88 -4 205 -110q191 -173 347 -445q155 -271 214 -485q8 -33 8 -79z" />
    <glyph glyph-name="infinity" unicode="&#x221e;" horiz-adv-x="2347" 
d="M1755 836q-29 49 -109 42t-124 -65q-49 -45 10 -100t137 -41q49 10 82 62t4 102zM559 276q-145 0 -330 70q-141 54 -182 230t23 352q63 176 192 237q239 116 500 26q133 -47 225 -149q39 -41 96 -45q106 -7 209 84q215 193 453 170q117 -10 215 -71q196 -122 233 -350
t-123 -387q-87 -85 -206 -122t-197 -39q-79 -2 -149 22q-70 26 -130 69t-116 97t-102 70t-121 -25q-75 -42 -111 -73q-90 -57 -133 -83q-43 -27 -116 -55t-130 -28zM643 856q-23 14 -73 13t-74 -13q-45 -27 -34 -81t42 -70q63 -35 144 -3t63 84q-13 35 -68 70z" />
    <glyph glyph-name="notequal" unicode="&#x2260;" horiz-adv-x="1347" 
d="M940 1450q68 0 119 -29t51 -75t-32 -132q157 -62 145 -147q-16 -120 -297 -192q-45 -88 -97 -178q23 -5 45 -12q295 -81 306 -163q10 -90 -88 -158q-179 -125 -562 -121h-6q-203 -231 -319 -163q-55 29 -55 73t46 158q-92 44 -120 111q-43 238 230 291q45 9 91 14
q27 50 56 100q-340 11 -398 115q-137 162 71 254t560 82q28 -1 54 -3q132 175 200 175z" />
    <glyph glyph-name="commaaccent" unicode="&#xf6c3;" horiz-adv-x="464" 
d="M440 -51q0 -249 -113 -315q-52 -30 -131 -30t-123 44q-89 87 -44 360q10 55 55 97t104 52q147 23 213 -73q39 -56 39 -135z" />
    <glyph glyph-name="Acute" unicode="&#xf6c9;" horiz-adv-x="829" 
d="M558 2071q79 1 139 -47q61 -48 61 -112t-45 -114t-95 -74q-50 -26 -135 -60q-84 -34 -112 -48q-55 -36 -172 -30t-146 68t67 164t227 178q132 75 211 75z" />
    <glyph glyph-name="Caron" unicode="&#xf6ca;" horiz-adv-x="1208" 
d="M10 2124q0 59 46 105t108 46t145 -63q84 -62 164 -126t127 -67q74 -4 249 114t238 118q121 0 117 -103q-2 -117 -137 -256q-174 -184 -393 -215q-60 -8 -119 -2q-153 14 -349 168t-196 281z" />
    <glyph glyph-name="Dieresis" unicode="&#xf6cb;" horiz-adv-x="1140" 
d="M249 1548q-91 0 -156 44q-123 83 -58 227q29 63 90 100q69 35 143 6t131 -97t57 -130t-58 -106t-149 -44zM913 1552q-147 0 -200 100t14 202q68 101 213 102q102 0 152 -73t30 -162q-18 -89 -90 -136q-47 -33 -119 -33z" />
    <glyph glyph-name="Grave" unicode="&#xf6ce;" horiz-adv-x="811" 
d="M-6 1870q0 72 47 110t131 37q145 0 301 -100q17 -12 117 -60q224 -108 225 -184q1 -59 -29 -87t-120 -48t-254 14q-162 35 -290 123t-128 195z" />
    <glyph glyph-name="Macron" unicode="&#xf6d0;" horiz-adv-x="1474" 
d="M164 1950q80 31 297 32q217 2 252 6t101 10q66 7 114 12q537 55 532 -216q0 -55 -53 -93t-177 -61t-271 -31q-148 -7 -175 -10q-750 -86 -749 205q0 93 129 146z" />
    <glyph glyph-name="ampersandsmall" unicode="&#xf726;" horiz-adv-x="851" 
d="M477 117q221 1 277 -105t-32 -212q-89 -106 -220 -107q-84 0 -149 35t-95 86q-68 117 -26 211q22 47 68 69t177 23zM735 1522q0 -62 -52 -118t-126 -82q-75 -26 -149 -23t-126 70t-53 185q1 77 58 126t135 55t146 -19t118 -79q49 -54 49 -115zM782 1167q0 -37 -93 -113
t-93 -111q0 -34 41 -83t41 -84q0 -36 -36 -100t-36 -102t23 -74t51 -60q72 -61 72 -120q0 -60 -73 -99t-139 -39q-130 0 -289 48q-77 24 -131 66t-54 89t40 123q41 76 41 121t-54 113t-62 104q-53 195 170 315q173 94 377 92t204 -86z" />
    <glyph glyph-name="Breve" horiz-adv-x="1064" 
d="M172 2066q68 0 156 -56t141 -56q88 0 231 62t204 62t106 -65q45 -66 45 -129q0 -120 -111 -194q-110 -74 -262 -86t-314 22q-287 61 -346 239q-26 77 11 139t139 62z" />
    <glyph glyph-name="Dotaccent" horiz-adv-x="540" 
d="M270 1923q130 1 210 -101t12 -200q-37 -54 -151 -70t-217 34t-104 157q0 76 80 128t170 52z" />
    <glyph glyph-name="Cedilla" horiz-adv-x="948" 
d="M315 53q279 0 279 -112q0 -24 -14 -64q-25 -75 11 -97t126 -66t132 -77q78 -60 79 -178q0 -162 -230 -254q-230 -91 -458 -73q-229 18 -230 129q0 75 49 115t120 46t142 6t119 7q48 8 49 42t-67 47q-68 12 -160 32t-136 65t-54 120t14 143t84 119q61 50 145 50z" />
    <glyph glyph-name="Circumflex" horiz-adv-x="1241" 
d="M1069 1528q-65 0 -145 50t-152 103t-116 61t-111 -27q-66 -34 -116 -78q-50 -43 -116 -79t-118 -32q-115 8 -169 56t-37 116t99 131q389 313 748 229q213 -51 331 -213q97 -131 63 -224t-161 -93z" />
    <glyph glyph-name="Tilde" horiz-adv-x="1521" 
d="M1313 1964q190 0 186 -100q-4 -90 -143 -195q-182 -131 -365 -135q-81 0 -235 44t-228 44t-192 -49q-117 -49 -178 -49q-141 0 -133 88q9 94 163 224q193 163 370 136q40 -6 152 -61t188 -55t212 54q135 54 203 54z" />
    <glyph glyph-name="Ring" horiz-adv-x="765" 
d="M276 1858q0 -60 80 -72t121 29q25 30 3 66t-72 49t-90 -6q-42 -19 -42 -66zM721 1804q0 -102 -116 -160t-245 -58t-217 49q-88 50 -111 121q-24 71 17 154q42 83 146 144q75 47 167 41q204 -13 306 -144q53 -69 53 -147z" />
    <glyph glyph-name="Ogonek" horiz-adv-x="671" 
d="M455 -146q1 -30 35 -59t83 -49t99 -44t84 -66q35 -42 35 -101q0 -121 -159 -165q-158 -44 -354 29t-247 226t85 365q89 139 206 139t134 -66q15 -56 7 -117q-8 -62 -8 -92z" />
    <glyph glyph-name="commaaccent.cap" horiz-adv-x="464" 
d="M440 -51q0 -249 -113 -315q-52 -30 -131 -30t-123 44q-89 87 -44 360q10 55 55 97t104 52q147 23 213 -73q39 -56 39 -135z" />
    <glyph glyph-name="periodcentered" horiz-adv-x="534" 
d="M270 983q130 1 210 -101t12 -200q-37 -54 -151 -70t-217 34t-104 157q0 76 80 128t170 52z" />
    </font>
</defs>
</svg>
