<?xml version="1.0" standalone="no"?>
<!DOCTYPE svg PUBLIC "-//W3C//DTD SVG 1.1//EN" "http://www.w3.org/Graphics/SVG/1.1/DTD/svg11.dtd" >
<svg xmlns="http://www.w3.org/2000/svg" xmlns:xlink="http://www.w3.org/1999/xlink" version="1.1">
<metadata></metadata>
<defs>
<font id="thirsty_dogregular" horiz-adv-x="659" >
<font-face units-per-em="2048" ascent="1638" descent="-410" />
<missing-glyph horiz-adv-x="819" />
<glyph horiz-adv-x="0" />
<glyph horiz-adv-x="682" />
<glyph unicode=" "  horiz-adv-x="819" />
<glyph unicode="&#x09;" horiz-adv-x="819" />
<glyph unicode="&#xa0;" horiz-adv-x="819" />
<glyph unicode="!" horiz-adv-x="303" d="M106 539v82q5 42 -12 159q-28 179 -33 232l-16 145l-12 129q-1 14 -4 60t-6 71q-4 61 4 92q2 10 2.5 31.5t1.5 28.5l4 2q4 0 8 -4q2 -2 2 -6q21 -152 23 -220q0 -18 2 -28q6 -33 10 -103l4 -6l2 4l2 17q-2 60 18 178q3 20 9 37q6 22 28 28q15 3 15 21q1 9 2 27.5t2 27.5 q5 14 8 19q3 8 12 8q8 0 13 -10q0 -15 4 -43q0 -6 6 -11t12 -4q22 6 47 2q8 -2 13 -8t2 -12q-17 -32 -25 -94q-3 -28 -10.5 -83t-10.5 -83q-1 -7 -2 -21.5t-2 -21.5l-6 -92q-1 -11 -2 -32.5t-2 -33.5l-6 -152q-2 -30 -2.5 -87.5t-1.5 -75.5q0 -9 4 -21q4 -16 9.5 -58 t13.5 -65q6 -20 1.5 -28.5t-26.5 -12.5q-6 0 -10 -2q-13 -4 -13 -16q-3 -17 11 -29l12 -10q7 -7 4 -21q-3 -9 -16 -12q-12 -4 -19 6q-19 14 -28 11q-1 0 -3.5 1t-3.5 1t-2 1t-2 1q-35 44 -35 84zM174 1114q-8 -14 -8 -57q0 -29 -1 -87t-1 -87l2 -70q0 -6 2 -10q0 1 1 4.5 t1 5.5q5 251 4 301l6 21l2 114l-2 4q-4 0 -4 -4q-1 -13 -1 -36t-1 -42t-4 -36q0 -3 2 -10t2 -11zM283 45v-27q3 -36 -33 -51q-13 -5 -31 2q-12 6 -26 0q-43 -18 -54 21q-14 43 -20 90q-6 70 0 141q4 29 10 41q1 2 4 4t4 2q4 -2 4 -4q0 -18 2 -26v-93q3 -58 21 -94 q-4 56 -8 156q0 26 8 76q0 11 10 24t23 23q7 7 14 4l39 -19q9 -6 12 -18q0 -25 2 -37q0 -53 6 -80q1 -7 2 -21.5t2 -21.5q5 -76 9 -92zM176 35l-12 14q1 -3 2 -9t2 -9t4 -3.5t4 1.5v6z" />
<glyph unicode="&#x22;" horiz-adv-x="417" d="M238 1161v-6q0 -29 8 -35q10 -8 35 2q5 3 8.5 1t3.5 -7q1 -4 2 -12.5t2 -13.5q1 -6 8.5 -10.5t13.5 -2.5q47 10 52 47q4 24 4 33q3 38 0 76q-11 138 20 231q2 0 2 4q-1 2 -1 6t-1 5q-10 12 -30 32q-3 0 -5 -2q-9 -2 -12 -16q-5 -10 -10 -10t-10 10q0 4 -4 16 q-1 4 -8.5 4.5t-10.5 -2.5q-8 -10 -12 -30q-35 -146 -53 -293q-2 -10 -2 -27zM20 1239q1 -10 2.5 -30.5t2.5 -30.5q2 -14 8 -44.5t8 -46.5q2 -26 29 -57q7 -10 24 -6q21 9 27 18q18 22 22 37q35 120 35 170q0 15 4 47q8 39 4 93q0 4 -4 4l-4 -2l-12 -93q-2 -22 -14 -73 q0 -4 -2 -4q-2 -2 -3.5 -0.5t-1.5 4.5q-2 33 5 82l6 53q0 2 2 17t4 22q3 23 20 37q7 3 11 12q4 8 4 14q0 20 -13 23q-3 1 -8.5 2t-7.5 2q-14 9 -35 2q-25 -4 -35 8q-3 3 -7.5 2t-6.5 -4q-16 -27 -21 -33q-12 -12 -20 -43q-7 -65 -14 -108q-9 -37 -9 -74z" />
<glyph unicode="#" horiz-adv-x="1337" d="M477 1663q7 0 12 -10l3 -21q-2 -22 -7.5 -67t-7.5 -68l-4 -53q-1 -6 -0.5 -10.5t2.5 -7t4 -1.5q9 0 13 11q12 16 20 55q13 70 20 100q1 4 3 8t5.5 9t4.5 8q2 2 10 2q4 -4 4 -8q-8 -51 -14 -80q-5 -36 -4 -43q0 -4 -1 -12t-1 -11q-9 -32 -15.5 -68.5t-13.5 -81t-12 -69.5 q-5 -27 -9 -63q0 -7 5.5 -13t11.5 -6h22q211 26 295 43q3 0 8.5 1t8.5 1q15 8 18 21q12 90 12 96q3 38 9 80l4 61q2 46 20 111q1 2 12 25l9 6q8 8 14 -2q4 -4 4 -9q-16 -25 -24 -94q-2 -21 -17 -168q-1 -6 -2 -18.5t-2 -18.5q0 -8 4 -8l4 4q15 44 31 64q9 12 22 55 q1 2 23 84q9 25 25 47q10 10 20 8q15 -3 23 11q3 9 10 16q4 4 10 4q6 -6 6 -8l-6 -27l-18 -63q-8 -37 -4 -58q4 -26 -5 -88q-7 -37 -4 -69q4 -20 21 -23q8 0 24.5 -1t24.5 -1q32 3 70 -4q14 -2 39 -2q18 0 26 -2q35 -9 70 -6q4 0 4 -4l-2 -8q-60 -19 -96 -11q-23 6 -70 2 l-49 -6q-8 -4 -8 -12q2 -12 -13 -23q-1 -1 -20.5 -7.5t-24.5 -16.5q-5 -8 -7 -25.5t-3 -21.5q-13 -60 -20 -135l-9 -70l-2 -39q0 -29 31 -29q4 0 13 1t14 1q14 0 20 -2q14 -8 43 -4q22 3 29 -18l6 -27q0 -14 -6 -26q-19 -26 -39 -39q-39 -29 -53 -37q-28 -18 -50 4 q-1 0 -2 1t-2 1q-4 3 -10.5 1.5t-7.5 -5.5l-6 -10q-1 -7 -5 -25.5t-5 -28.5q-1 -15 -7.5 -63.5t-7.5 -75.5q-1 -21 -3 -44.5t-5 -52t-4 -44.5q-6 -49 -6 -103v-98h-2v-98q0 -72 8 -107q1 -5 1.5 -15t1.5 -18.5t3 -15.5q4 -23 21 -29q8 -4 8 -6q4 -12 2 -16q-4 -12 -18 -14.5 t-23 6.5q-2 4 -7 11t-7 11q-19 37 -27 47q-14 17 -21 45l-12 64q-7 40 -16 184q-9 104 2 201q4 20 4 63v131q0 15 -2 21l-8 6l-4 -4q-9 -16 -13 -47q-4 -51 -20 -162l-13 -106q-3 -22 -8.5 -80t-11.5 -88q-2 -10 -2 -33q-5 -48 -8 -64q-6 -46 4 -81q4 -24 2 -37 q0 -11 -8 -19q-5 -4 -11 -3.5t-8 5.5q0 1 -3 7t-3 10q-3 42 4 75q6 35 6 70v27q7 27 10.5 79t6.5 72q2 4 2 17q1 44 20 176q9 68 15 135q1 11 4 31t4 28q0 11 -2 17q0 3 -3.5 6.5t-6.5 3.5h-17q-30 -5 -37 -2q-23 10 -63 -2q-36 -6 -37 -6q-21 0 -60.5 -5.5t-58.5 -5.5 q-41 0 -82 -26q-2 0 -8 -6q-2 -2 -13 -6.5t-16 -10.5q-8 -12 -12 -41q0 -5 -1 -16t-1 -16q0 -29 -2 -43q-10 -62 -10 -224q0 -23 14 -100q3 -17 14 -25q19 -11 15 -36q0 -13 -2 -17q-12 -36 8 -61q3 -3 -0.5 -11.5t-9.5 -9.5q-9 -6 -21 -2q-22 9 -31 31q-15 29 -22 72 l-12 75q0 21 -15 39q-16 16 -16 45q0 183 6 244q4 27 4 82q0 14 -9 21t-24 4h-6q-13 -2 -73.5 -11.5t-92.5 -13.5t-49 -4q-4 0 -16 4q-13 4 -15 14q-2 5 2.5 12.5t10.5 10.5q2 1 8.5 4t11.5 4q20 3 37 20q59 56 146 41q40 -8 59 -6q14 5 18 19q1 3 2 10t2 10l7 56 q2 28 7 85.5t7 86.5q3 35 -6.5 45t-44.5 10l-92 6l-15 6q-5 5 -2 10q0 5 4 9q4 2 17 2q14 2 43 2q4 0 16 4q3 2 5 8.5t-1 9.5q-31 36 -37 47q-4 11 -16 11l-27 6q-12 8 -12 16q-4 15 12 23q8 4 15 4q88 10 104 10q41 0 49.5 7.5t14.5 47.5q7 43 14 115q8 45 20 139 q0 5 1.5 20.5t2 23t-0.5 20t-5 22.5q-5 9 -2 17l13 69q0 5 10 10q3 3 9.5 1t8.5 -5q4 -12 4 -16q0 -37 -2 -53l-24 -205q-2 -20 -7 -54.5t-8.5 -64t-3.5 -55.5q0 -4 4 -8t7 2l4 8q2 20 8 57.5t8 55.5q2 26 9 76.5t9 74.5q1 16 8 78t7 96q0 2 1 8t1 9q0 4 4 8q3 5 12 10z M829 1102h-14q-32 -5 -70 -15q-76 -17 -208 -40q-6 -1 -41 -11q-18 -7 -23 -22q0 -17 -8 -25q-10 -13 -14 -35l-31 -182q-2 -10 -2 -27q0 -35 24 -32h13q21 0 30 -17q10 -16 39 -12q14 4 19 10q23 18 59 25q74 13 103 16q40 2 94 27q13 7 16 18q8 20 8 33q1 7 2 21.5t2 21.5 q7 123 19 199v32q0 4 -6 9.5t-11 5.5zM330 1098q-9 -1 -29 -2t-29 -2q-6 0 -10 -4q-4 0 -4 -5q0 -6 2 -10q10 -12 35 -12q19 0 39 10q6 3 9 8.5t1 8.5q-5 8 -14 8zM975 1051q-4 0 -4 -2q-6 -18 -6 -21l-13 -80q-2 -18 -7 -54t-7 -54q0 -15 -4 -43q0 -1 3 -3.5t5 -2.5t8 6 q1 1 2 4.5t2 5.5l13 113q2 14 5 42.5t5 43.5v43zM315 1024q-8 0 -8 -6q3 -6 8 -6l11 4q2 5 -11 8zM866 938q0 -1 -1 -4.5t-1 -5.5q0 -52 -10 -117v-10q3 -6 8 -4q4 0 4 4q3 9 3.5 19t-0.5 22t-1 16v70q0 8 -2 10zM535 659q-32 0 -46 -6l-2 -4q0 -8 2 -8q15 -12 29 -2 q11 11 17 20zM909 444l-8 -8l-6 -76q0 -57 -6 -88q0 -3 -1 -11.5t-1 -12.5v-148q2 -2 2 -4q4 4 4 8q5 38 10 181q0 12 1 25.5t2.5 29.5t2.5 25q1 13 2 35.5t2 35.5q0 1 -2 3.5t-2 4.5z" />
<glyph unicode="$" horiz-adv-x="1083" d="M707 1370q-25 -5 -32.5 -12t-4.5 -33q-8 -63 -4 -227q0 -28 4 -82q1 -9 2 -27.5t2 -27.5q0 -40 -6 -58q-10 -46 -4 -86q0 -27 22 -43q40 -24 62 -35q13 -7 49 -20q15 -6 42 -19.5t42 -19.5q93 -45 143 -158q21 -47 27 -98q14 -103 -4 -178q-14 -70 -54 -135 q-10 -20 -26 -48q-23 -38 -33 -69q-3 -8 -10.5 -24.5t-10.5 -24.5l-14 -25q-15 -19 -31 -16q-25 3 -43 -19l-16 -16q-8 -8 -23 -12q-7 -1 -21.5 -4.5t-21.5 -4.5q-14 -3 -14 -20q0 -1 -1 -4.5t-1 -5.5q-3 -14 -14 -6q-1 0 -2 1t-2 1q-19 13 -28 10.5t-17 -21.5 q-11 -22 -11 -41v-49q0 -2 -6 -14q-3 -6 -11 -6.5t-11 4.5q-9 13 -9 20q-3 10 -8 31t-8 31q0 4 -4 4q-6 3 -6 -6v-60v-20q0 -22 -21 -29q-8 -3 -16 1.5t-8 13.5q-4 16 -4 26q1 27 -6 78t-7 57q-1 4 -4 12.5t-4 12.5q-7 13 -20 16q-4 1 -13.5 2t-13.5 2q-74 0 -170 35 q-77 29 -158 72q-40 21 -63 57q-20 23 -14 51q7 26 -9 48q-10 17 -10 34q3 22 -8 47q-8 16 -16 48q-15 55 20 102q3 5 8 8l8 2q9 -5 9 -6q4 -20 4 -27q0 -23 16 -63q70 -133 178 -201q33 -23 103 -63q41 -24 98 -41q10 -2 27 -2q8 0 8 6q4 4 4 16v60q-2 68 -10 204 q-1 13 -1.5 53.5t-2.5 61.5q-7 59 -7 152v92q0 10 -1 30t-1 29q-3 19 -16 29q-15 9 -42 28t-50 33.5t-45 26.5q-28 15 -76 49q-58 46 -49 121q4 33 10 47q35 91 53 119q25 40 45 92q0 2 19 45q8 24 35 41l43 33v-6q0 -10 6 -13q7 -7 18 7l8 12q20 -10 35 0q48 30 53 38 q8 10 7 52v16q0 20 -4 56q-7 56 -5 92q0 14 2 20q8 16 19 19q8 0 10 -2q10 -15 10 -19q2 -6 7 -43l12 -129l2 -2q4 0 6 2q6 10 6 35q3 27 17 59q11 23 32 23q8 2 27 2q6 0 10.5 -7t3.5 -14q-12 -45 -8 -69q5 -11 8 -12q6 -6 18 -4t15 10q4 8 4 14q3 17 15.5 20.5t21.5 -8.5 q23 -33 68 -39l14 -6q39 -14 70 -16q25 -4 41 -14q7 -5 8 -13t-6 -16l-15 -8q-4 -4 -4 -17l8 -14q2 -4 13 -28t18 -36q9 -21 25 -40q24 -39 45 -93q8 -20 10 -32v-31q-3 -19 -21 -25q-19 -6 -34 6q-9 9 -11 15l-12 35l-10 53q-6 30 -27 51l-102 104q-36 33 -84 33 q-28 0 -55 -6zM664 1530q3 6 -5 6l-4 -4q0 -6 -4 -14l4 -11q4 4 4 9q5 10 5 14zM752 1417q-45 -3 -68 -26q41 3 78 14l2 4l-4 4q-4 4 -8 4zM475 1321v-6l4 -4q23 5 43 28q0 7 -2 9q-5 5 -8 2q-26 -22 -37 -29zM430 1257q0 2 1 6t1 5q0 4 -2 4q-4 4 -8 4q-8 0 -16 -12 q-27 -40 -33 -88q0 -5 2 -7q5 5 6 5q3 5 49 83zM539 1182v12q-1 9 -2 29t-2 30q-7 7 -9 7q-3 0 -8 -5q-8 -8 -10 -12q-18 -37 -35 -90q-19 -59 -8 -113q1 -4 2 -13t2 -13q10 -44 35 -72q2 -2 6 -2q3 -1 4.5 1t1.5 5q4 26 8 70q9 80 15 166zM315 1145v-2q4 4 0 2zM313 924 q-6 107 0 217q-33 -71 -28 -133q3 -53 28 -84zM377 1020l-4 10q0 -2 -1 -4.5t-1 -3.5l2 -39q0 -2 2 -4q0 1 1 2t1 2v37zM479 856q4 -1 4 2v4q-5 6 -16 17.5t-16 17.5q-6 3 -9 -2q-4 -4 0 -4q11 -22 37 -35zM631 784q-2 -5 4 -8q2 2 4 2q-4 4 -4 8q-4 0 -4 -2zM575 684 q13 4 15 12q0 5 -4 9q-3 0 -6 -3q-5 -5 -5 -18zM780 616l2 -10q3 -10 17 -10h6q13 3 26 -2q13 -10 19 -25l12 -30q0 -3 2.5 -4t5.5 2l4 4q5 17 5 63q0 1 -7 8l-14 6q-18 -11 -29 0l-36 33q1 -4 4 -12t4 -12q3 -8 1 -10t-11 -1h-11zM664 557q-3 7 -9 4q-2 0 -2 -4 q-2 -36 -14 -106l-6 -27q-6 -6 -8 -6q-3 0 -7 8q-1 1 -2 4t-2 4q-6 6 -6 -12l-6 -139q0 -37 2 -43q7 -54 0 -136q-3 -22 2 -38l6 -48q13 -66 21 -90q3 -9 12 -2q18 11 35 11q26 3 41 24q16 26 37 39q12 5 26 33q16 38 27 98q2 8 3.5 17t2.5 18.5t2 13.5q-10 126 -12 142 q-10 101 -62 176q-1 1 -5 8.5t-8 10t-9 1.5q-7 -1 -10 -5.5t-4 -13.5t-2 -12l-5 -10q0 -6 -4 -2q-6 8 -6 27q-4 29 -18 43q-8 8 -10 12zM825 543q4 -39 21 -56q0 -2 2 -4q0 -2 4 -2q-4 4 -6 8q0 36 -21 54zM563 319v119l-2 4l-4 -2q0 -16 -2 -46t-2 -46q0 -26 1 -76t1 -75 q0 -1 1 -5t1 -6q4 8 4 11q0 81 2 122zM907 115q-63 -86 -67 -90q-9 -14 -9 -21q0 -1 2.5 -3.5t4.5 -2.5q5 -3 10 2q11 7 29.5 21.5t21.5 17.5q2 2 10 14q17 29 21 49q24 94 22 144q0 38 -6 76q-4 26 -16 90q0 1 -1 2t-1 2q0 7 -7 10h-3q-5 -5 -5 -10q3 -13 8.5 -40t8.5 -40 q9 -43 2 -113q-8 -52 -10 -73q-3 -21 -15 -35zM862 387q-2 -1 -1.5 -4t3.5 -4q1 -1 4.5 -2t5.5 -2q3 2 3 4q-1 1 -2.5 4t-2.5 4q-3 7 -10 0zM442 -84q2 2 4 2l-4 4q-6 4 -18 8q-75 28 -156 68q-104 57 -147 100q-10 10 -12 11q-8 0 -11 -3l-6 -8q-2 -14 10 -30 q14 -23 43 -41q95 -62 205 -97q5 -2 15.5 -4t11.5 -2q5 0 13.5 -1t12.5 -1v-2q15 0 39 -4z" />
<glyph unicode="%" horiz-adv-x="933" d="M227 692q-10 -30 -49 -47q-40 -19 -78 -22q-28 0 -49 18q-28 25 -31 61q0 11 5 31q2 4 8 20.5t9 23t9 19t12 22t13 18.5q19 23 35 32q6 4 17 13.5t17 13.5q24 12 29 14q52 19 90 -16l15 -14q5 -4 14 -11t12 -10q1 -2 1 -5t-1 -5q-14 -11 -14 -33q0 -13 -12 -41 q-24 -47 -39 -65q-5 -5 -13 -17zM643 588l-31 -33q-66 -69 -127 -139q-4 -4 -24 -29l-39 -45l-47 -53q-3 -6 -10 -13q-16 -17 -99 -100q-6 -6 -14 -2q-8 3 -8 12q-3 14 4 25q23 32 28 41l109 135q3 6 -2 8l-4 -4q-38 -34 -49 -57q0 -5 -6 -8q-19 -17 -70 -82l-21 -19 q-16 -3 -28 -12q-11 -7 -19 -10q-4 -3 -10 1t-6 9q0 10 2 16q1 6 4 22t4 25q3 17 17 35q28 32 67 97q44 71 109 149q25 32 69 92t58 78q31 37 41 43q9 9 20 -2l6 -6l4 -4q7 -8 15 0q7 7 32 37q38 43 78 84q3 3 6.5 5.5t8 5t6.5 3.5q10 6 16 0t6 -14l-4 -17q-1 -1 -28 -39 q-16 -16 -19 -20q-2 -2 -2 -8q4 0 4 2q44 32 76 53q30 23 59 35q8 2 23 2q8 0 13.5 -8t2.5 -15q-5 -15 -8 -18q-36 -44 -45 -68q-3 -9 -8 -14q-7 -7 -35 -39.5t-45 -48.5zM168 786q7 7 -2 11h-4q-16 -8 -19 -19q0 -1 1 -4.5t1 -5.5h7l8 8q4 2 8 10zM567 606q4 4 2 4 q0 4 -6 -2q-2 -2 -4 -2q0 -4 -4 -8q2 -1 5 1.5t5 2.5zM510 537q1 1 2 4t2 4l-8 -6q-6 -6 -8 -7q-2 -4 -6 -8q-3 -6 10 4q3 7 8 9zM440 455l4 8q-2 0 -10 -4l-4 -4q0 -1 -2 -4t-2 -5q-1 -2 0 -2q3 0 10 9zM909 311q8 -44 -6 -67q-21 -40 -39 -66q-4 -5 -16 -15.5t-19 -17.5 q-1 0 -3.5 -2t-7 -6t-7.5 -6q-25 -22 -59 -25q-35 -6 -60 19l-8 8q-12 20 -39 27q-36 11 -39 53q-7 51 12 90q1 1 3 2q1 0 1.5 0.5t0.5 1.5q2 3 6.5 4t7.5 -2q5 -5 2 -8q0 -2 -12 -43l2 -14q0 -4 4 -4q8 0 10 2q7 7 10 16q14 35 37 68q54 75 119 98q26 10 49 4q18 -7 21 -22 q2 -4 2 -11v-22q-3 -19 10 -35q10 -10 14 -16q4 -4 4 -11zM846 381q1 4 -2 9t-8 7q-15 0 -21 -2q-30 -10 -51 -28q-12 -11 -32.5 -32.5t-24.5 -25.5q-5 -5 -9 -16l27 29q19 19 43 22q19 0 27 2q23 3 39 16q9 6 12 19zM678 240l16 47q-9 -9 -18 -21q-3 -4 -8 -20q0 -5 6 -8 q2 2 4 2zM829 223l9 13q7 10 0 20q-1 4 -7.5 7t-11.5 1q-19 -12 -24 -26q-5 -10 4 -19t20 -2zM182 145q14 46 51 80q-2 -7 -5 -23.5t-5 -23.5q-3 -22 -22 -41q-1 0 -3 -1t-3 -1q-7 0 -9 2q-4 4 -4 8z" />
<glyph unicode="'" horiz-adv-x="200" d="M20 1108v-6q0 -28 9 -35q11 -9 37 4q3 2 6.5 0t3.5 -6q5 -25 6 -27q2 -6 8 -10.5t12 -3.5q47 10 52 49q4 20 4 31q3 39 0 76q-10 139 20 231q2 2 2 6q0 8 -2 10q-16 16 -28 31h-7q-9 -6 -12 -16q-4 -12 -10 -12q-8 0 -8 12l-7 14q-1 4 -8 4.5t-10 -2.5q-9 -12 -12 -31 q-35 -147 -53 -292q-3 -12 -3 -27z" />
<glyph unicode="(" horiz-adv-x="495" d="M457 1595q18 6 18 -8q-3 -36 -31 -82l-36 -61q-54 -76 -107 -207q-4 -11 -23 -64t-30 -81q-1 -3 -2.5 -9.5t-2.5 -11t-1 -8.5q-2 -21 -14 -58t-15 -53q-18 -66 -23 -116q-3 -40 -14 -70q-21 -82 -24 -168q-4 -151 -2 -227q6 -103 6 -107q0 -29 4 -41q5 -19 12 -58.5 t12 -58.5q15 -73 25 -110q4 -15 12.5 -47.5t13.5 -51t14 -45t19 -47.5q1 -6 4 -14.5t4 -11.5q9 -30 43 -101l15 -30q8 -18 0 -29q-3 -6 -13 -4t-16 10q-5 5 -17 17.5t-22 22.5t-20 18q-2 3 -9 10.5t-10 11.5q7 -19 17 -33q5 -9 17.5 -26.5t17.5 -26.5q2 -2 5 -8t5 -8 q3 -12 -1 -18t-16 -3l-10 4q-5 0 -6 -0.5t0 -3.5l31 -53q11 -21 2 -27q-5 -3 -14 1.5t-13 11.5q-2 2 -6 8t-6 8q-6 14 -19.5 41.5t-19.5 42.5q-10 14 -21 41q-23 37 -26 49q-57 125 -86 252q-34 132 -43 274q-25 250 -4 496q15 195 69 389l6 27q27 101 62 176q5 10 13 29.5 t12 27.5q3 9 -2.5 14.5t-14.5 2.5q-21 -7 -51 -33q-10 -10 -16 -10l-3 2q2 8 7 12q17 28 47 45q9 7 22 10q33 12 66 54q7 7 19.5 23.5t19.5 23.5q6 8 14 14q4 4 12 4q2 0 3.5 -2.5t0.5 -3.5l-24 -57v-5q5 0 12 7q20 33 68 77q25 21 37 21q10 1 47 20zM295 1309q7 9 13.5 24 t8.5 19q-18 -22 -26 -43v-2q1 0 2 1t2 1zM266 1241q2 6 -1 7q-1 0 -3 -1l-4 -4q-18 -38 -29 -69q-2 -4 -2 -13q0 -2 4 -2q8 8 9 10q4 17 26 72zM176 979q3 4 2 4q0 -2 -2 -4q-20 -46 -26 -105l-19 -96q-9 -47 -8 -63q0 -4 4 -4l4 4q8 21 12 63q3 22 7 47.5t9.5 56.5t8.5 48 q4 15 8 49zM109 -78l2 -4q-1 2 -2.5 8t-2.5 8q3 16 -10 41q2 18 -6 43q-1 6 -2 18.5t-2 18.5q-10 58 -23 109v12q-2 2 -2 4q0 -3 1 -9t1 -9q-3 -75 25 -144q-2 -9 8 -43q-3 -16 10 -41q0 -9 3 -12zM201 -111v7q0 2 -2 2q2 -2 2 -9q0 -12 3 -26t6 -23.5t10 -27.5t9 -25l4 -4 q5 -3 5.5 -2.5t-0.5 6.5q-19 62 -37 102z" />
<glyph unicode=")" horiz-adv-x="432" d="M319 -141q-2 -6 -8.5 -28.5t-11.5 -31.5q-2 -9 3.5 -14t14.5 -2q16 7 50 37q8 12 14 12l2 -2q0 -8 -4 -12q-11 -25 -43 -49q-14 -11 -23 -13q-31 -14 -61 -57q-6 -8 -17.5 -25.5t-17.5 -25.5q-7 -10 -14 -15q-1 -2 -5 -3.5t-5 -2.5q-2 0 -5 2.5t-2 3.5l21 60v4 q-6 0 -12 -6q-20 -39 -62 -84q-23 -23 -35 -23q-12 -3 -45 -24q-18 -6 -18 6q0 39 24 86l31 63q48 77 90 213q9 29 23.5 80.5t19.5 69.5q0 5 2 14.5t2 13.5q0 23 9.5 62.5t11.5 50.5q12 78 12 119t10 70q14 81 11 170q-3 113 -15 227q-7 67 -14 104q-6 37 -8 41 q-5 16 -15.5 56t-17.5 59q-13 51 -33 109q-6 15 -16.5 46t-17 49.5t-17.5 44t-23 46.5q-1 5 -5 12.5t-5 11.5q-12 34 -51 99q-6 14 -16 28q-8 19 -2 29q3 6 12.5 4.5t15.5 -8.5q5 -4 28 -24t36 -29q17 -17 20 -21q-7 17 -18 31q-6 9 -19.5 25.5t-19.5 25.5q-1 1 -5 8t-7 9 q-3 11 1 17t15 3l10 -2q5 0 6 0.5t0 3.5l-34 51q-15 18 -5 25q5 4 13.5 1t13.5 -11q2 -1 4.5 -3.5t5.5 -6.5t4 -5q8 -16 23.5 -42t21.5 -38q15 -23 23 -41q27 -32 31 -47q62 -113 104 -243q44 -124 66 -271q44 -243 41 -493q0 -195 -39 -393l-4 -27q-20 -106 -50 -180z M178 1280v-6q0 -2 2 -2q-2 2 -2 8q0 8 -2.5 17t-4.5 16t-6.5 17.5t-7 15.5t-8.5 17.5t-8 16.5l-4 4q-5 3 -5 2.5t1 -6.5q16 -43 45 -100zM276 1243q-2 -11 13 -41q0 -24 10 -41l6 -37q8 -35 31 -106v2q-3 73 -35 141q0 13 -12 41q2 11 -13 41q-1 2 -2 6.5t-2 5.5l-2 5 q1 -1 2.5 -7.5t3.5 -9.5zM287 197q15 50 18 106l10 96q5 51 4 64q0 4 -4 4l-4 -4q-8 -20 -8 -64q0 -12 -12 -153q-4 -16 -4 -49q-3 -4 -2 -4q0 2 2 4zM248 -2q4 8 0 12q0 2 -4 2q-2 -2 -6 -10q-4 -26 -23 -74q0 -9 6 -6l4 4q12 30 23 72zM197 -141v2q-1 0 -2 -1t-2 -1 q-4 -8 -7.5 -16t-6.5 -16t-5 -13q19 28 23 45z" />
<glyph unicode="*" horiz-adv-x="419" d="M395 1305q3 -2 4 -5.5t-2 -5.5l-2 -4q-13 -7 -10 -20q0 -4 -2 -6q0 -7 -6 -7h-2q-16 0 -33 -10q0 -2 -2 -2q-14 -11 -29 -2h-4q-4 0 -6 -2q-8 -4 -14 -2q-16 4 -25 4l17 -22q17 -20 34 -47q1 0 2 -1.5t2 -1.5q2 -5 13 -10q3 -1 14 -12q5 -5 14 -8q1 0 3.5 -1t3.5 -1 q8 -8 4 -19q-4 -4 -7 -4q-14 0 -22 2q-6 0 -14 -4q-3 0 -3.5 -3t1.5 -5l2 -4q8 -8 8 -15q-2 -2 -4 -2t-4 2q-9 9 -15 13l-10 10q-5 6 -11.5 12.5t-14 13.5t-11.5 11q-8 6 -20 22q-1 1 -4 4.5t-5.5 6t-5.5 4.5q-6 3 -6 6q-1 2 -7 10l-9 12l-29 -36q-24 -34 -33 -48 q-2 -2 -2 -4q-6 -6 -6 -14l-6 -18q-4 -4 -4 -15q0 -6 -2 -8q0 -4 -4.5 -7t-9.5 -1q-7 0 -7 4l-6 20q0 3 -6 15q-2 2 -5 2t-3 -2l-4 -4q-1 -1 -3.5 -6.5t-4.5 -6.5h-4q-2 0 -2 2v5q4 12 8 18l6 14q15 26 22 45q4 9 17 27q1 3 4 9t4 9q1 1 2 4.5t2 4.5q5 4 16 20q-7 0 -22 -1 t-23 -1h-4l-14 -6l-18 -6q-3 0 -15 -6l-6 -4q-10 -3 -16 6q-4 4 0 8q8 12 12 16q6 6 6 17q0 6 -6 6h-4q-1 0 -4.5 -1t-6.5 -1t-6 2v4l3 2l18 6q3 0 8.5 1t7.5 1q3 1 23 4.5t29 7.5q4 1 13.5 2t14.5 2q6 0 21 5q4 2 10 2h4q2 25 2 73q-2 20 -2 60v4l-6 14q-4 6 -4 19 q0 2 -6 14l-4 6q-3 10 6 16q4 4 8 0q12 -8 16 -12q1 -1 15 -8q8 0 8 6v4q0 1 -1.5 7t-0.5 10l2 2h4l4 -4q0 -7 4 -19q0 -3 1 -8t1 -8q4 -33 10 -49q1 -5 2 -15.5t2 -15.5q0 -12 3 -21q2 -4 2 -10q-3 -18 0 -37q2 -8 2 -22h8q6 2 18 2q31 0 45 2q8 2 27 2h16q5 -2 16.5 -5 t16.5 -5q4 0 8 -4z" />
<glyph unicode="+" horiz-adv-x="665" d="M100 473q3 22 27 29l16 4q-11 -15 -43 -33q-8 -8 -10 -14v-10q6 -5 8 -3q8 3 21.5 11t17.5 10q23 15 62 22q5 2 12 -2t8 -10q6 -18 6 -20q4 -46 4 -66q-1 -48 5 -138.5t6 -131.5q-3 -8 2 -17q0 -2 4 -10q3 -10 16 -10q14 4 17 14q2 4 2 17q-2 9 -7 96l-6 82v10q0 3 1.5 5 t4.5 1q2 -2 2 -4q3 -16 9 -47.5t8 -42.5q8 -31 8 -70q0 -10 4 -26q4 -12 14 -15q14 -4 21 7q5 3 10 12q14 32 8 70q-11 61 -2 129q6 58 6 118q4 5 5 6q2 0 2 -4l24 -159q7 -29 15 -47q1 -2 12 -19q5 -4 12.5 -2t9.5 8q4 8 4 10v21l-16 158l-6 65q0 17 16 25q8 4 11 4 q79 16 116 -4l11 -4q26 -9 53 8q14 10 14 26q3 24 -12 39q-21 24 -49 33q-87 31 -138 33q-1 0 -11 2t-15 4q-19 4 -25 19l-6 16q-13 59 -16 80q-3 32 -23 172q-1 7 -6 20t-6 15q-3 12 -23 12q-13 -3 -16 -12l-6 -17l-27 -98q-8 -25 -20 -33q-17 -12 -21 -41q-6 -27 -6 -82 l-2 -53q-4 -22 -20 -25l-70 -10q-11 -2 -33.5 -7t-34.5 -7q-4 -1 -11 -5t-9 -5q-11 -11 -4 -21l2 -4q13 -22 -4 -39l-13 -18q-2 -3 0.5 -10.5t6.5 -8.5q12 -8 18 -8q27 -6 55 0z" />
<glyph unicode="," horiz-adv-x="292" d="M272 90q-2 8 -5 26t-5 25q-2 9 -14 21q-17 17 -31 24q-22 11 -29 11q-48 6 -84 -17q-38 -20 -57 -63l-24 -60q0 -3 -1.5 -8.5t-1.5 -7.5q-2 -14 7 -26t22 -15q4 0 11.5 -1t11.5 -1q12 1 35 -2t34 -2q6 1 11.5 -6t3.5 -13q-7 -41 -17 -57t-43 -39q-10 -7 -43 -26 q-7 -7 -18 -11q-17 -14 -8 -35q11 -17 0 -34q-9 -11 2 -29q12 -23 39 -37q26 -15 43 8q15 21 30 45q12 21 35 56q39 47 66 116q8 19 10 31q3 15 8 47t8 49q1 5 2 15t2 16zM166 90h-12q-1 1 -4.5 2.5t-4.5 3.5q0 3 5 8q11 4 16 2q4 0 8 -4q4 -8 -8 -12zM131 -152 q-4 -16 -12 -20q-5 -5 -8 0v4q8 8 20 16z" />
<glyph unicode="-" d="M639 659q4 -4 -2 -10l-2 -2l-29 -8q-2 0 -4 2q0 4 4 4l2 4q2 0 2 4l-2 2q0 2 -2 2q-12 6 -31 -4q5 -7 11 -10q8 -8 8 -14q7 -14 -2 -19l-8 -4q2 -2 5.5 -3.5t4.5 -2.5q8 -4 4 -12q0 -9 -4 -13l-4 -4q-10 -3 -35 -20q-2 -4 -8 2l-4 8q-2 5 -11 10q-20 4 -30 4q-9 3 -17 0 q-21 0 -39 5q-10 1 -30.5 2t-30.5 2h-14q-21 4 -31 0q-8 -2 -27 -2q-5 0 -12 -7q-6 -12 -12 -6q-16 13 -31 4q-8 -4 -22 -4l-48 -4q-6 0 -6 4l4 6l2 3q-7 7 -20 4q-4 -2 -4 -13q0 -6 -2 -6l-10 -4q-8 0 -5 10l-2 2q-4 4 -8 4q-16 -3 -28 0q-8 2 -27 -2h-8q-1 0 -6 5 q-2 6 -13 14q-15 4 -26 -4q-2 -2 -2 0l-7 6q0 8 3 8q3 6 6 6q4 4 4 8v7q4 20 8 26q9 13 20 10q8 -2 29 -2q9 0 12 11q3 6 11 6h10q24 -2 55 8q7 0 10 6q10 19 31 19q52 4 78 8q7 0 10 -15q16 -4 25 -4q10 0 12 -14l4 -2q9 3 23.5 2.5t23.5 1.5q6 2 19 -2q23 -10 69 -6l82 6 h10q9 -2 28 -7t28 -7q5 -2 8 -9zM492 659l2 3q0 2 -5 2q-12 3 -24 0h-2q-1 -2 -0.5 -3.5t2.5 -1.5q7 -5 27 0zM123 590l2 2q0 2 -2 2q-9 12 -19 12q-4 0 0 -4q3 -3 9 -6q8 -4 10 -6zM195 580v4h-2l-3 -4h5z" />
<glyph unicode="." horiz-adv-x="290" d="M143 -2q29 0 43 4q7 2 22.5 8t22.5 8q26 11 35 39q4 24 4 39q5 37 -26 68q-20 18 -68 43q-35 17 -74 8q-44 -8 -73 -51q-12 -15 -9 -35q14 -48 17 -63q8 -28 35 -48q29 -20 71 -20zM205 139h4q18 -9 24 -26q0 -15 -6 -15t-10 4q-11 13 -14 33zM182 57q-6 0 -6 6 q0 10 8 13q6 0 6 -6q0 -10 -8 -13z" />
<glyph unicode="/" horiz-adv-x="645" d="M614 1499q17 -43 7 -80q-2 -5 -5.5 -15.5l-6.5 -19.5t-7 -16q-16 -38 -53 -170q-5 -19 -16.5 -57t-16.5 -58q-6 -18 -6 -20q0 -14 -3.5 -28t-10.5 -31t-9 -25q-15 -56 -22 -90q-3 -25 -16 -51q-33 -64 -46 -121q-5 -23 -47 -168q-4 -16 -13 -43.5t-11 -34.5 q-1 -3 -4.5 -14t-3.5 -17q-1 -18 -9.5 -50.5t-9.5 -39.5q-3 -14 -11 -42t-11 -42q-4 -21 -20 -72t-19 -79q-4 -14 -8 -21q-4 -12 -8 -26t-8 -31t-7 -27l-6 -26q-5 -12 -23 -23q-9 -3 -17.5 1t-8.5 11q-6 28 -19 58q-4 12 -4 20q-6 -12 -6 -26l-4 -50q0 -6 -4 -14 q-6 -23 -31 -12l-8 6q-7 4 -10 -2q-9 -37 -13 -47q-4 -18 -22 -21q-6 -2 -12 3.5t-5 11.5l5 16l24 72q8 23 10 37q2 7 4.5 21.5t4.5 21.5q4 14 59 202q10 35 33 103.5t33 103.5q55 170 98 367q34 143 65 297l4 22q16 91 29 144q3 7 8 47q1 7 -5.5 13.5t-14.5 4.5 q-26 -3 -43 -20q-14 -5 -15 -4q-4 0 -4 4q0 6 2 10q12 22 37 31l21 6q29 2 51 35l20 39q1 2 11 12h10q8 0 8 -6l-2 -56l2 -4q5 -2 8 4q21 44 41 66q13 17 27 14q10 -1 43 8q6 1 12 -2.5t8 -9.5zM526 1266q4 4 5.5 10t3 13t2.5 11l-17 -32q0 -4 2 -4t4 2zM496 1153l14 57 q0 7 -6 7q-2 -1 -4 -3l-17 -55q0 -6 2 -10q0 -2 4 -2zM414 854l30 117q1 6 2.5 17t2.5 16q-15 -27 -27 -72q-4 -27 -23 -74q-11 -38 -10 -45q0 -4 2 -4q4 -4 4 2q10 12 19 43zM205 434l-2 -8l2 4v4zM180 340q16 36 19 76q-30 -46 -33 -105q-6 -6 -10 -32q-7 -7 -11 -31 q11 11 11 31q8 11 12 32q1 2 6 12.5t6 16.5zM145 244l-6 -6q0 -1 1 -2.5t1 -2.5zM225 199l-4 -6q-16 -25 -28 -82v-5q2 -4 5 0l1 3q22 50 22 84l2 2z" />
<glyph unicode="0" horiz-adv-x="974" d="M950 1032q7 -47 0 -114q-4 -46 -8 -142q0 -17 -4 -49q-21 -128 -25 -149q-14 -70 -20 -95q-26 -97 -33 -137q-7 -43 -14 -108q-13 -83 -39 -158l-41 -111q-12 -36 -43 -75q-26 -30 -55 -44q-20 -8 -50 -4q-20 6 -30 25t-4 39q0 3 5 5.5t7 0.5l8 -8q2 -2 8 -14 q10 -13 29 -13q18 0 31 10q54 41 65 103q0 3 -4 6t-8 2q-21 -7 -64 -20.5t-63 -20.5q-54 -19 -119 -10q-52 10 -121 45q-55 30 -108 113q-4 6 -12 22q-9 22 -21 43.5t-31.5 53t-25.5 40.5l-43 70q-64 104 -82 227l-12 86q-4 19 0 56q2 40 18 122q19 113 20 150q3 32 21 129 q13 60 41 106q5 7 14 29q40 69 88 117q47 43 66 74q6 9 18 18q9 10 19 0q11 -11 18 -6l45 22q53 24 125 31q31 3 64 19q4 2 12 5t12 5q89 33 164 2q4 -4 4 -8t-8 -4l-23 2q-37 9 -102 -2q-3 -1 -18 -11q-4 -4 0 -8q2 -2 14 -8q48 -13 86 -33q9 -5 27 -9.5t24 -6.5 q18 -4 23 -15q5 -5 2 -8q0 -6 -9 -6q-8 4 -24 8q-14 9 -21 9q-12 0 -24 3t-26 8t-23 7q-64 18 -107 16q-42 0 -63 -24q-3 -3 -3 -8.5t3 -6.5q4 -4 12 -8q22 -9 27 -10q32 -14 43 -39q-9 2 -24 10.5t-19 10.5q-32 16 -64 16q-15 2 -29.5 -14t-11.5 -31q1 -5 4.5 -16t3.5 -17 q2 -7 -2 -20q-3 -8 -11.5 -11.5t-14.5 0.5l-19 13q-3 4 -9 3.5t-9 -3.5l-37 -33q-35 -35 -29 -78v-16q0 -13 11 -148q3 -45 13 -127.5t13 -107.5q2 -15 11 -75t10 -93l2 -21q2 -17 6.5 -50.5t7.5 -60t4 -50.5q4 -20 4 -33q4 -32 13.5 -92.5t11.5 -73.5l6 -37q4 -22 8 -33 q6 -21 31 -24q69 -6 137 26q3 2 9 5q36 20 49 36q8 10 22 31q38 61 61 149q6 19 15 58l12 47q0 4 2 5t4 -1l4 -4q0 -2 1 -5.5t1 -4.5q7 -7 11 8q24 76 16 133q-5 30 -14.5 89t-14.5 89l-22 127q-14 79 -43 168q-7 20 -20.5 60t-20.5 59q-10 29 -31 69q-9 24 -33 41 q-19 15 -26 29q22 0 34 14l15 15q3 2 10 1.5t10 -3.5q13 -10 23 -23q35 -49 57 -110l33 -88q39 -107 67 -267l15 -114l4 -2l4 4l12 47q0 2 4 2q4 -4 4 -6q4 -33 0 -49q-13 -59 -6 -162q0 -1 2 -3.5t4 -2.5q5 0 9 4q1 1 4 6.5t6 5.5q1 0 5 -1t5.5 0t1.5 5q17 112 15 162 q-2 14 2 39q6 41 6 125v75q-4 36 -4 60q-4 20 -4 31q0 37 -9 75q0 4 2 6t5 1q1 0 2 -2q1 -1 1 -1.5t1 -1.5q15 -53 18 -106q4 -48 10 -74zM397 1397v-4q9 -9 15 -2q2 4 8 10l-4 6q-6 3 -12.5 -0.5t-6.5 -9.5zM309 1378v-4q0 -8 8 -4q15 7 23 21l-2 4l-4 2q-19 -3 -25 -19z M240 1321q-85 -49 -109 -143q0 -7 4 -9l4 5q1 2 6.5 14t11 18.5t13.5 10.5v-33q2 5 8 14t8 14q15 37 37 52q16 11 27 32q5 10 2 23q0 4 -8 4q-4 0 -4 -2zM340 1311v4q-4 4 -8 0l-13 -17l3 -4h4q2 3 7 8.5t7 8.5zM174 1225l-4 -8zM367 236l-7 30q-19 70 -26 156 q-27 213 -29 235q0 11 -4 27l-14 115l-13 129q-4 28 -8 80q-2 16 -2 49q0 6 -1 18.5t-1 18.5q-1 3 -2 8.5t-2 7.5q-2 8 -5 11.5t-7 2.5q-3 -1 -8 -12q-3 -58 2 -102q4 -26 8 -82q0 -17 4 -49l6 -70q1 -8 2 -24.5t2 -24.5q1 -17 7 -73.5t7 -86.5q3 -50 14.5 -139t14.5 -125 q2 -20 10 -60q5 -14 9 -18q13 -12 34 -49h11l2 4zM160 1110l2 2q-2 0 -2 -2zM137 1055q5 5 10 30l9 19q-5 -8 -9 -19q-10 -13 -10 -30zM131 1030l4 8q2 6 2 15l-6 -13v-10zM238 354q2 4 2 11l-9 81q0 18 -4 50q-3 32 -8 95t-8 93l-6 70q-3 28 -8.5 85.5t-8.5 86.5 q-3 42 -12 86l-4 4q-5 0 -8 -6q-14 -51 -14 -90v-244q0 -69 32 -191q11 -33 27 -47q11 -11 8 -30q-6 -29 16 -54q1 -3 3 -3t2 3zM756 250q50 89 53 213q0 4 -2 4q-4 4 -8 -4l-47 -139l-29 -70l-35 -84l2 -4h6q5 7 19.5 25t24 31.5t16.5 27.5zM754 84q34 66 34 111 q-8 -13 -10 -19q-25 -48 -39 -82q-3 -7 -8.5 -20.5t-7.5 -18.5q19 5 31 29zM584 70q58 51 73 104l-16 -12q-52 -37 -115 -49l-30 -7q-11 -4 -13 -10q0 -8 6 -14q24 -17 50 -23q27 -7 45 11z" />
<glyph unicode="1" horiz-adv-x="899" d="M778 143h-239q-31 3 -31 31q-2 4 -2 10q0 127 6 256q6 55 6 113q1 18 2 54.5t2 54.5l6 92q3 121 11 213q6 80 14 247q0 38 6 76q1 9 2 28t2 28v16q-2 6 -5.5 10.5t-6.5 3.5q-2 0 -14 -6l-15 -31q-2 -3 -6.5 -4t-7.5 2q-10 5 -12 11q-4 12 -4 20q-4 15 -15 21 q-18 15 -33 22q-20 10 -41 4q-6 -2 -47 -14q-52 -19 -67 -51q-8 -18 -33 -29l-23 -12q-5 -3 -14 -17q-7 -11 -5 -23t13 -20q14 -9 16.5 -14.5t-3.5 -17.5q-29 -70 -66 -107q-32 -32 -43 -68q-1 -5 -18 -38q-6 -22 -29 -39q-2 -2 -55 -43q-13 -10 -6 -25q14 -24 20 -31 q4 -6 14.5 -6.5t16.5 4.5q1 2 5 6.5t5 6.5q25 39 72 79l20 19q80 89 103 121l16 20q12 11 41 49q4 7 22 25h11l4 -4q2 -7 2 -43q-3 -191 0 -381q2 -70 2 -211q-1 -34 -6 -142.5t-4 -166.5q0 -11 -2 -17q-6 -37 0 -75q0 -18 -15 -21q-20 -7 -53 -14q-29 -7 -45 -29 q-23 -29 -57 -35l-17 -4q-33 -14 -39 -49q-1 -8 6 -15t15 -6q21 9 47 9h153q15 0 21 -2q9 -4 12 -11q2 -4 5 -12t5 -12l7 -33q3 -11 12 -14.5t20 2.5q7 0 11 4q28 18 49 20q14 4 14 23l-4 16q-3 26 20 31q38 10 70 10l70 8q5 1 16.5 2t16.5 2q23 1 151 21l14 2l4 4q5 0 5 4 l-5 10q-5 2 -9.5 5.5t-7 6.5t-8.5 10t-9 11q-15 18 -23 37q-4 8 -12 8q-16 4 -27 4zM311 1217q2 16 7 31t14 36.5t12 28.5q6 14 21 22q5 3 10.5 1t7.5 -7q3 -27 -8 -47q-34 -47 -64 -65zM518 1251v-53q0 -31 -14 -51q-2 -4 -5 -12.5t-5 -12.5q0 -2 -5 -2q-2 2 -2 4 q0 15 2.5 30.5t7.5 35.5t7 29l6 36q0 1 1 2.5t1 2.5q3 -6 6 -9zM512 997v-22q-4 -19 -6 -42t-3.5 -52t-2.5 -45q-3 -23 -8 -152v-33l-3 -4q-2 0 -2 4v86q0 68 -8 103q-6 30 0 59l19 100q4 9 8 7zM438 203v-25l-2 -4q-4 0 -4 8l-6 47l4 4q4 4 4 -2q4 -20 4 -28z" />
<glyph unicode="2" horiz-adv-x="735" d="M715 80q2 -4 0 -11.5t-6 -7.5q-12 -4 -17 -4l-63 15q-47 8 -70 0q-1 0 -2 -1t-2 -1q-4 -7 4 -11l35 -14q4 -2 12 -10q3 -3 2.5 -10.5t-4.5 -8.5l-8 -6q-50 -12 -96 -12h-62q-58 4 -102 -4q-8 -1 -26 -2t-27 -2q-32 -4 -37 -27q-10 -50 -58 -41q-15 2 -26 -16l-19 -33 q-18 -21 -43 -18q-9 2 -15 8.5t-5 13.5q0 23 4 33q7 23 16 45q0 4 -2 4q-4 8 -8 0l-18 -27q-3 -3 -10.5 -4t-10.5 2q-7 7 -10 13q0 18 2 26q0 2 12 37q6 25 -2 47q-3 7 -8 21.5t-10 24.5t-12 18q-4 7 0 20l55 101q103 187 137 247q36 63 97.5 182t82.5 158q35 67 41 82 q12 24 17 39q16 22 59 111l31 69q6 16 0 31q-16 32 -29 45q-31 28 -84 35q-26 0 -47 -12l-66 -49l-59 -48q-8 -4 -8 5v4l78 75q2 2 2 7l-4 2q-27 -7 -43 -23l-47 -51q-17 -20 -17 -39q1 -5 -4 -21q-6 -12 -16 -22q-23 -38 -25 -66q-5 -32 -33 -67q-6 -6 -22 -14 q-5 -2 -15.5 -4.5t-15.5 -4.5q-16 -3 -22 -22q0 -6 -5 -21q-4 -4 -10 -4q-5 0 -8 6q-1 1 -2 5t-2 6l-10 51q-4 20 -4 28q3 87 36 146l19 33q12 34 37 59q5 5 14 16.5t14 16.5q45 59 111 104q17 12 23 13q52 24 124 34q18 5 48 -4q18 -6 55 -17.5t55 -17.5q29 -7 45 -26 l19 -21q10 -7 20 -2l10 2q7 1 13 -3.5t4 -10.5q-15 -35 -4 -96q4 -14 0 -43q-1 -10 -4.5 -28.5t-4.5 -25.5q0 -12 13 -16l10 -2q9 -6 6 -20l-4 -11l-14 -28q-5 -9 -54 -88q-40 -59 -90 -160q-26 -50 -28 -84q13 13 34 51l43 82q24 49 58 92l20 25l19 12q8 2 14 -4 q9 -4 4 -14q-9 -14 -14 -17q-40 -40 -68 -98l-55 -105l-61 -120l-23 -43q-64 -127 -102 -211q-51 -100 -68 -148q-4 -16 -4 -26q-2 -11 6 -20t18 -9q29 0 43 2q85 13 197 6q78 -3 148 -45q2 -1 4 -4t4 -4zM481 1268q46 -30 76 -76q0 -2 4 -2l5 -2h-1q-6 36 -26 53 q-30 26 -45 37q-2 2 -7 2q-6 0 -8 -4q-3 -1 2 -8zM612 1087v-4l4 -4q7 0 11 2q1 0 6 9l6 47l-2 26l-4 2q-8 0 -8 -4q-9 -30 -13 -74zM594 1001q-6 -6 -10 -22q10 10 10 22q13 8 20 25q3 6 -4 6q-4 0 -4 -2q-8 -8 -12 -29zM426 965q10 6 16 0l11 -19q-3 0 -10 -1t-11 -1 q-9 0 -12 8q0 10 6 13zM410 664q-29 -43 -23 -86l41 88q4 4 4 14q2 2 -2 6h-4q-7 -4 -16 -22zM279 242q7 7 12.5 16.5t11 23.5t8.5 19l158 313q5 7 9.5 20.5t6.5 18.5q11 11 11 21q-8 -8 -11 -21q-12 -12 -16 -20l-23 -37l-151 -309q-13 -23 -16 -45zM356 557l4 6q3 6 -2 6 l-2 -4v-8zM354 553q-14 -13 -16 -31l4 -4q2 2 4 2q8 10 8 33zM229 262l21 62q2 6 4 18t4 18q6 6 10 21q-6 -6 -10 -21q-10 -10 -29 -53q-21 -41 -36 -84q-31 -79 -33 -92q49 65 69 131zM123 215l8 6q21 40 41 82q4 9 8 31l-4 -4q-20 -29 -55 -105q0 -1 1 -4.5t1 -5.5z M268 219q8 8 11 21q-8 -8 -11 -21q-6 -6 -10 -22q-13 -13 -22 -54q19 26 22 54q6 6 10 22z" />
<glyph unicode="3" horiz-adv-x="872" d="M848 465l2 -21q5 -32 -4 -120q-3 -26 -17 -62q-17 -40 -20 -45q-7 -23 -18 -33q-11 -8 -31 -34t-37 -35q-28 -12 -61 -45q-46 -39 -93 -58q-59 -25 -102 -32q-63 -15 -98 -31q-18 -6 -37 -6h-76q-50 0 -76 47q-2 2 -24 53q-2 4 -4.5 13.5t-4.5 13.5q-13 42 -45 65 q-2 2 -14.5 11.5t-19.5 15.5q-5 5 -15 20q9 1 24 -5t21 -7q5 -2 8 4v4q-1 3 -2.5 5.5t-3 5.5t-2.5 4q-17 14 -39 14q-4 1 -8 -2t-2 -6l4 -17q-22 11 -24 13q-7 3 -7.5 12.5t5.5 15.5l16 13q6 4 18 8q11 6 7 14l-13 47q0 13 11 19q2 2 5 2t5 -2t12 -17q14 -17 47 -65 q13 -22 35 -35q116 -68 164 -84q56 -24 104 -29q19 0 29 10q17 14 31 39q37 66 51 131q4 15 11 44t11 44q11 44 13 76l6 60q8 61 -12 133q-6 20 -23 37l-63 59q-14 11 -27 0q-6 -6 -10 -8q-4 -3 -12 -0.5t-11 8.5q-1 6 -4 18.5t-4 18.5q-6 29 -27 39q-2 1 -22 16 q-3 1 -4.5 8.5t0.5 10.5l57 80q4 7 21 16q15 7 28 24q38 40 111 142q23 33 39 76q6 25 -4 41q-23 33 -72 75q-9 6 -21 6q-30 -6 -32 -6q-54 -7 -90 8q-14 3 -17 19v12q0 5 -5 7t-11 1q-27 -9 -66 -36q-7 -6 -16 -27q-4 -12 -10 -12q-7 1 -14.5 -1.5t-11.5 -4t-13 -8 t-11 -7.5q-10 -5 -14 4l-6 8q-1 4 -4.5 9t-3.5 6q30 41 78 82q24 21 47 26q141 39 223 35q25 0 41 -8q18 -7 47 -14q51 -11 86 -62q45 -54 51 -123q6 -55 -20 -100q0 12 0.5 32.5t0.5 36.5t-1 31q-3 61 -43 107q0 -8 10 -53q5 -13 -2 -31q-17 -41 -23 -88q-4 -27 -24 -72 q-6 -12 -35 -41q-4 -5 -14.5 -18t-16 -19.5t-13 -17.5t-13 -21.5t-9.5 -21.5q-4 -8 -4 -15q0 -1 3.5 -3.5t5.5 -2.5q31 5 59 33l29 27l22 20q16 32 29 45q1 3 4 3.5t4 -1.5q2 -2 2 -10q-7 -19 -33 -41q-6 -21 -22 -37q-3 -2 -25 -21t-33 -30q-4 -4 -4 -8q1 -4 3 -5t5.5 -1.5 t4.5 -1.5h16q13 -3 16 -13q7 -27 45 -80q58 -76 111 -192l25 -68q10 -33 10 -63zM502 1317q3 2 5 6t-1 6q-17 29 -55 23q-11 -4 -15 -15q0 -16 15 -20q4 -1 12 -2t12 -2q4 1 13.5 2t13.5 2zM608 1311l2 -4q20 -24 39 -37q-3 15 -31 43q-7 4 -10 -2zM195 1260q-6 3 0 6l10 4 l-6 -8q0 -2 -4 -2zM743 1081q0 15 17 25q-1 -3 -1.5 -9.5t-1.5 -11t-5 -8.5h-4q-5 0 -5 4zM811 319q1 8 2 26.5t2 27.5h-2v33q0 58 -33 141q-2 5 -7 14t-7 14q-5 5 -10 5q-6 0 -6 -9t-1 -29t-1 -30q0 -80 -3 -106q-6 -64 0 -125q2 -15 -2 -43q-5 -34 -26 -82l2 -4q0 -2 2 -2 t2 2q37 32 59 69q29 56 29 98zM682 309v43q-1 4 -3.5 24.5t-4.5 33.5l-19 96l-6 20q0 4 -4 4q-7 0 -4 -6l6 -75q6 -52 -2 -97q-4 -38 -8 -53q-9 -43 -6 -86v-10q3 -5 8 -8q8 -4 12 8l6 14q0 4 1 13.5t1 13.5q0 24 15 45q4 4 8 20zM578 150q18 92 18 122q0 6 -1 18.5t-1 18.5 q0 2 -4 2q-2 0 -4 -2q-37 -112 -64 -182q-2 -6 -2 -16q-1 -4 2 -7.5t8 -3.5q19 -2 35 21q10 13 13 29zM379 -27q4 8 4 9q0 8 -6 8q-33 9 -98 43q-41 21 -84 39h-15q-8 -4 -4 -17q12 -42 43 -78q22 -22 55 -22h5l96 16q2 2 4 2z" />
<glyph unicode="4" horiz-adv-x="1193" d="M1171 625q8 -11 -2 -21q-12 -6 -26 -6l-80 -6l-16 -2q-14 -4 -11 -17l6 -8q3 -9 -0.5 -16.5t-11.5 -7.5l-12 -2q-42 0 -86 -9q-8 -1 -24.5 -2t-24.5 -2q-7 0 -27 -4q-11 -2 -20 -12.5t-9 -22.5q-3 -30 0 -65q3 -54 11 -90q2 -26 14 -80q4 -17 29 -94q6 -18 6 -21 q0 -6 -8 -14q-5 -3 -15 2q-13 13 -14 16q-4 7 -10.5 22.5t-10.5 22.5l-16 35q-3 -34 4 -76q6 -25 6 -96q0 -27 -14 -39q-10 -8 -18 -33q-8 -22 -35 -16l-11 4l3 -6q-3 -26 -27 -29q-16 0 -12 -16l6 -27q4 -16 4 -22q0 -5 -6 -8q-4 -4 -11 0q-4 0 -8 4q-34 40 -37 88 q-13 151 -10 338q2 55 -2 162q0 12 -4 36q-6 28 -35 31h-244l-32 -2l-80 -8q-14 -2 -43 -10q-8 -4 -21 -17l-6 -10q-21 -36 -71 -43q-24 -4 -39 -4q-4 0 -8.5 4.5t-4.5 9.5l4 17q2 14 -12 20l-20 6q-11 11 -9 15q8 34 5 57q0 8 4 16q7 11 36.5 57t47.5 70q11 11 24 41 q27 70 103 178l22 31q33 39 67.5 83.5t78.5 101.5t65 85q14 16 64 89q11 16 14 40l4 50q4 16 10 24q5 5 10 2q5 0 9 -4q1 -5 2 -13.5t2 -12.5q0 -5 2 -5l4 -2q50 50 76 93q3 7 6 19.5t4 16.5q4 15 14 23q11 11 25 4q5 -2 14.5 -7t14.5 -7q16 -3 21.5 -9t2.5 -24 q-10 -50 -14 -59q-15 -49 -8 -117q4 -26 16 -86l25 -150q12 -85 18 -168q0 -2 6 -157l2 -49q0 -7 6.5 -13t14.5 -8h26q35 0 105 4q61 6 125 0q10 -1 31.5 -2t31.5 -2q5 0 7 -7t-1 -11q-4 -8 -10 -11q-4 -2 -11.5 -4t-8.5 -2l-23 -2l-4 -4l4 -2q15 0 39 -4q10 0 22 -12z M698 1282l2 10q0 3 -1 4.5t-3 -0.5q-6 0 -6 -6q0 -4 4 -8h4zM592 1276l2 -4q1 1 3 2q3 1 3 2q4 12 4 14l-10 -10zM551 1227q-18 -12 -21 -31q16 16 21 31zM635 852v195q0 31 -2 43q-4 34 -8 98q0 8 -4 20q0 1 -2 2t-3 2h-4q-24 -28 -22 -53q12 -94 16 -141q1 -36 25 -166 q2 -2 2 -4zM578 643l26 6q8 1 13.5 9t5.5 16l-2 16l-11 58q-27 162 -30 215q-1 19 -6.5 56t-6.5 56q-3 23 -10 53l-2 5q-7 0 -10 -3l-47 -67q-3 -4 -6.5 -7.5t-8.5 -8t-8 -7.5q-6 -35 -33 -53q6 36 31 55l2 21l-24 -23l-48 -57q-82 -108 -104 -149q-14 -27 -37 -39 q-2 -1 -6.5 -6.5t-5.5 -6.5q-45 -52 -47 -100q15 17 21 21t28 10l6 2l-16 -35l-21 -43q-2 -5 2 -10.5t10 -5.5h54q39 0 59 2q12 1 65.5 5.5t80.5 10.5q6 1 18.5 1t19.5 1zM688 940l2 125q0 43 -8 63l-2 -6q-8 -43 0 -90q3 -21 0 -39l-4 -30q-2 -11 6 -27l4 -2q2 2 2 6z M748 690q2 -2 4 -0.5t2 4.5v60l-4 82q0 14 -3 40t-4 35q0 13 -10 80l-2 2l-2 -4q0 -4 -1 -11t-1 -11l6 -90l6 -152q0 -13 4 -33q3 -2 5 -2zM432 975q-4 -15 -12 -21q3 12 12 21zM399 922q3 20 21 32q-2 -17 -21 -32zM291 758q3 19 20 33q-3 -19 -20 -33zM772 78h2 q3 15 3.5 30.5t-0.5 37.5t-1 32l-8 150l-2 141q0 10 -2 16q0 2 -2.5 4.5t-3.5 2.5q-1 1 -2.5 0t-2.5 -3t-1 -4v-36q4 -50 4 -70l4 -229q5 -58 8 -70q1 0 2 -1t2 -1zM721 297v131q-4 -8 -4 -10v-119q0 -1 1 -2t1 -2z" />
<glyph unicode="5" horiz-adv-x="970" d="M938 1427q12 -12 12 -30l-6 -15q-11 -11 -20 -2q-1 1 -4.5 2.5t-4.5 3.5q-8 12 -22.5 21t-22 12t-28.5 11q-4 2 -11 2q-16 -1 -30.5 2t-36 11.5t-27.5 10.5q-27 12 -57 12q-68 -5 -76 -8q-4 -1 -13 -2t-13 -2q-11 0 -27 -4q-12 -5 -41 -10q-36 -9 -168 -23q-3 0 -10 -2.5 t-10 -3.5q-6 -3 0 -6q41 -14 69 -12q8 2 27 2q62 9 125 12q28 0 63 14q20 7 53 0q12 -3 19 -17t2 -26q-8 -17 -16 -22q-8 -6 -32.5 -26t-41.5 -32.5t-35 -21.5q-3 -2 -10 -5t-10 -5q-14 -3 -21 4q-2 3 -1 9t5 9q22 18 35 27l27 26v11q0 4 -5 4h-49q-90 -9 -188 -21 q-13 0 -33 -4q-22 -7 -22 -28q0 -57 2 -86q0 -13 2 -17q5 -9 8.5 -19.5t6.5 -26t5 -21.5q0 -6 6.5 -10.5t14.5 -4.5q30 4 43 8q37 8 80 5q37 0 73 -19q20 -10 23 -12q11 -6 20 0q8 4 11 4q24 10 28 -14v-39q4 -14 15 -23l41 -24q31 -20 47 -45q25 -40 36 -78l19 -45 q52 -99 72 -234q14 -90 4 -155q-3 -24 8 -43q11 -18 -6 -27q-15 -15 -15 -29q-4 -28 -4 -43h11q2 -26 -9 -63l-12 -37q-18 -80 -104 -139q-4 -3 -15 -10.5t-16 -12.5q-33 -28 -127 -61q-9 -5 -31 -9q-42 -3 -86 -12q-3 -2 -6 1t-2 7q0 4 2 4q3 12 -6 21q-14 14 -29 14 q-14 1 -39 7t-35 8q-22 4 -34 16q-20 17 -45 14q-10 -3 -21 0q-36 3 -61 31q-32 36 -37 72q-1 5 -2.5 15t-2.5 18t-1 14q0 116 8 157q0 9 2 11q21 108 8 243q-3 28 27 43q8 4 15.5 1t10.5 -11q2 -5 2 -12t-1 -15t-1 -12q4 -11 13 -16l8 -6q14 -11 8 -25q-12 -24 -12 -63 l2 -2q4 0 6 2q7 20 22 49q6 13 19 18q4 3 9 0t7 -8q2 -16 -8 -37q-27 -39 -31 -129q0 -2 2 -5.5t2 -4.5q3 -10 13 0l4 4q8 0 8 -6q0 -27 14 -113q6 -61 52 -104l53 -55q11 -14 35 -11q39 6 116 39l11 6q21 13 27 26.5t1 35.5l-24 106q-27 143 -27 221v152q0 85 27 188 q6 42 6 43q4 25 -14 37q-19 16 -37 25q-18 12 -41 12h-54q-37 -3 -59 21q-8 10 -33 18q-17 4 -30 -4q-19 -11 -21 -25q-4 -16 -4 -26q0 -14 -13 -18t-24 6q-8 8 -10 12q-2 2 -5 7t-5 7q-7 11 -19 8l-20 -6h-21q-32 14 -69 8q-16 0 -23 13l-6 10q-18 18 -18 55v135 q0 30 -3 54q0 20 17 26q2 0 10 4q3 2 3.5 6t-3.5 7q-17 17 -14 39q4 18 -2 26q-8 19 10 33q8 8 12 10q73 32 80 35q8 6 0 14q-2 1 -12 11q-8 9 -5 19.5t15 14.5q17 5 21 4q18 -4 38.5 -4.5t35.5 1t37.5 4.5t33.5 4q12 1 33.5 3t39 4t33.5 5q58 8 82 8h11q34 5 98.5 10 t91.5 8q16 1 50 4.5t52 4.5q23 3 41 -9q14 -7 17 -20q0 -5 -1 -16.5t-1 -16.5q0 -13 8 -18q32 -18 55 -35q9 -5 31 -23zM205 1235q3 6 -2 31q0 2 -6 8q-4 1 -13.5 2t-13.5 2q-16 3 -20 -14q0 -3 -1.5 -10t-1.5 -9q0 -12 3 -24q8 -39 8 -117q0 -5 4 -17q1 -4 7.5 -5.5 t10.5 1.5l13 19q2 4 2 14t1 29.5t1.5 31.5t2 28t5.5 30zM96 1090q4 33 -4 53q-11 41 -14 94l-4 4q-4 0 -4 -4v-63h2v-44v-26l6 -17q2 -3 6 -5t6 -1q6 6 6 9zM389 1085l-2 -2l2 -4q50 -16 107 -39q2 -2 10 -2t14 9q5 10 -4 14q-10 10 -16 12q-30 17 -90 17zM618 825v-43 q0 -11 3 -32q0 -9 12 -9q3 0 6.5 4t3.5 7v12q-9 43 -14 61q0 8 -8 4q-3 0 -3 -4zM766 682q-4 -16 -4 -27q2 -65 41 -172q0 -2 4 -2q2 0 2 4q2 10 2 31q1 14 -0.5 31t-3.5 28.5t-5.5 30.5t-4.5 29q0 1 -19 51q-2 2 -6 4q-6 0 -6 -8zM565 686q0 -2 -1 -5t-1 -5t1 -5t1 -5l2 8 q0 1 1 4q1 7 -3 8zM655 623q-8 0 -8 -5q-16 -22 -16 -49v-6q6 -6 8 -4q8 0 14 6q13 10 13 39q-2 6 -2 10q-3 6 -9 9zM674 434q-4 0 -6 -2q-39 -34 -39 -86q0 2 1 0.5t1 -4.5q0 -6 4.5 -8.5t9.5 0.5q12 6 14 8q28 20 25 57l-6 31zM799 360q1 6 4 17.5t4 17.5q0 15 -6 21 q-2 2 -4 2l-2 -2q-1 -2 -1 -4.5t-0.5 -4t-0.5 -3v-1.5v-45q0 -6 2 -6q4 0 4 8zM651 258q16 16 27 49q-4 4 -6 4h-4l-25 -26q-6 -9 -2 -21q0 -5 6 -8q2 0 4 2zM821 305l-4 -6q-3 -6 2 -6l2 4v8zM700 123q-2 -4 2 -8q5 0 7 2q40 40 55 96q5 18 14 61q3 6 6 9l-2 4q0 -5 -4 -13 l-6 -8q-17 -42 -53 -98q-12 -17 -19 -45zM168 203q7 -44 35 -70q-1 16 -13 41t-14 29q-2 2 -4 2zM303 141h4l2 4q-7 15 -30 31q14 -28 24 -35zM543 102v4q-7 6 -8 5q-15 -4 -40 -14t-36 -13l-2 -4l4 -4q8 -4 41 -4q28 0 41 30z" />
<glyph unicode="6" horiz-adv-x="794" d="M770 348q-10 -80 -41 -141l-12 -24t-19 -33q10 1 23.5 10.5t19.5 11.5h7q4 -4 4 -8v-10q-11 -25 -29 -33q-67 -39 -80 -45q-16 -6 -67.5 -26.5t-79.5 -29.5l-41 -12q-83 -17 -144 4q-41 15 -80 21q-33 7 -57 18q-86 29 -129 123q-22 52 -22 105q-3 119 16 215 q3 19 7 40.5t9 48t8 40.5q14 74 17 96l18 143q4 28 31 105q13 37 39 57q14 12 25 37q13 37 69 151l33 56q9 15 22 20q-2 -15 -24 -55q-4 -7 -12.5 -22.5t-13 -24t-8.5 -22t-5 -25.5q-2 -2 -2 -4l2 4l8 12q26 44 70 127q3 4 8 25q19 12 33 40q6 9 6 21q0 23 20 43 q31 33 86 74q24 15 52 18l69 6q2 0 5.5 -2t4.5 -2q2 -1 2 -7t-2 -9l-6 -8q-2 -3 -7 -8.5t-7 -8.5q-28 -31 -35 -61q-8 -20 -20 -25q-50 -23 -95 -94q-64 -101 -122 -258l-15 -35q-28 -65 -37 -96q-3 -13 -16 -47q-7 -20 -14 -43t-14.5 -51.5t-12.5 -44.5v-17q4 -4 8 -4 q6 0 10 4q9 5 31 23q45 42 107 61q82 30 147 0q24 -9 47 -12q50 -10 86 -31q15 -8 33 -29q17 -25 27 -59q7 -30 10 -53q3 -38 22 -78q19 -46 29 -102q4 -35 -2 -60zM461 1436v-4q1 -3 4 -3.5t4 1.5q15 9 20 22q0 4 -2 4h-4q-13 -5 -22 -20zM428 1374q-6 3 -10 -6q1 0 3.5 1 t4.5 1zM416 1366q-48 -55 -62 -104q8 6 14.5 15t13.5 20t11 16q20 23 23 53zM317 1290l7 15q5 9 16 -2q-9 -6 -23 -13zM319 1290l-2 -2q0 2 2 2zM256 1014l-2 -4q3 3 2 4zM172 778q6 6 6 8l55 158q6 22 9 41q-28 -32 -41 -80q-21 -74 -33 -102q0 -8 -2 -10q1 -13 6 -15z M678 621q5 5 2 10q-7 21 -16 39q-12 19 -31 28l-10 4q-1 -2 -4 -4.5t-3 -3.5q0 -8 2 -10l54 -61q2 -2 6 -2zM512 514v100q0 25 -23 41q-17 13 -32 21q-4 2 -20.5 12t-26.5 10q-9 0 -54 -10q-52 -15 -100 -41q-30 -18 -45 -53q-16 -33 -6 -80l12 -51q13 -48 0 -109 q-2 -12 -10 -41q-4 -16 -4 -26q-3 -21 10 -37q49 -57 94 -68q7 -2 21.5 -7t21.5 -7q31 -7 60 -4q52 7 67 45l12 24q25 52 25 105q0 21 4 53v29zM555 371q12 23 12 86l-2 26q-4 4 -8 6q-6 0 -6 -6q0 -19 -1 -55t-1 -53q0 -4 2 -6q0 -6 3 -1q0 1 1 3zM197 414l-7 32 q0 2 -2.5 5t-3.5 4l-4 -4v-66q0 -6 6 -6l4 4zM82 379v-6q4 -48 12 -62l4 -2q4 -4 4 2q-2 13 -7 36.5t-7 35.5l-2 4zM707 221l4 4q6 7 10 33q14 19 18 55v29q0 3 -1.5 1.5l-1.5 -1.5q0 1 1 2q-2 -2 -2 -6q-6 -29 -14 -80q-16 -9 -19 -29q-4 -8 5 -8zM121 207q5 -2 5 1 q0 2 -1 3q-10 28 -35 43q-5 5 -5 1q0 -1 1 -3q6 -25 31 -43q2 0 4 -2z" />
<glyph unicode="7" horiz-adv-x="997" d="M956 854l19 -12q6 -11 0 -17l-8 -6q0 -2 -4 -2q-11 0 -17 2q-98 14 -168 2q-41 0 -123 -12q-26 -4 -39 -8q-22 -6 -28 -29l-10 -47q-6 -31 -26.5 -127t-29.5 -149q-19 -110 -33 -209q-5 -39 -2 -88l2 -2l5 2l8 32q0 6 8 2q4 0 4 -4q0 -10 -2 -16q-4 -16 -4 -53v-60 q0 -42 -19 -73q-12 -19 -12 -58q-6 -103 35 -190q0 -1 1 -5t1 -6l-2 -8q-6 -5 -16 -2q-18 15 -23 29q-21 60 -24 84q-11 90 -11 145l-2 45q3 41 -10 84q-6 25 -10 66q0 8 -4 20q0 3 -5 5.5t-8 0.5q-8 0 -8 -6q-9 -23 -2 -53q12 -42 12 -106q0 -7 2.5 -20t2.5 -19 q0 -7 -9 -25q-1 -7 -11.5 -9.5t-14.5 3.5q-29 34 -41 51q-3 5 -8.5 16.5t-8.5 16.5q-3 8 -12 2l-8 -8q-6 -3 -14 -1.5t-11 7.5q-7 7 -10 18q-4 20 -4 31q0 56 6 109q7 45 14 114q7 71 29 183q6 28 20.5 97.5t24.5 108.5q2 7 4 21.5t2 15.5q0 6 -5 11.5t-11 5.5q-19 0 -29 -2 q-43 -7 -73 -19q-15 -6 -29 8q-2 2 -12 17q-9 13 2 20q19 11 28 15q26 11 41 26q19 22 51 41q11 8 7 10t-15 2l-30 -12q-4 -2 -11 -2q-3 0 -6 4.5t-2 7.5q7 14 8 15q20 20 47 26l64 13q21 3 27 22l18 58q17 61 46.5 175.5t43.5 166.5l18 71q1 7 -3.5 14t-10.5 7q-17 4 -26 2 q-73 0 -130 8q-14 1 -39 2t-38 2q-69 0 -140 6q-15 2 -82 2q-10 0 -26 4q-11 3 -14 15.5t4 19.5l14 14q16 11 47 19q54 8 80 8q7 0 21.5 1t21.5 1q27 0 33 23q1 2 2 5.5t2 4.5q10 20 31 20q70 9 92 9h69q77 3 142 -5q11 -2 43 3q34 4 47 8q17 3 26 18q3 3 8.5 10.5t8.5 10.5 q5 4 13 1.5t11 -8.5l2.5 -7.5t2.5 -8.5t1 -8q2 -18 21 -37q13 -13 22 -25q9 -9 9 -21.5t-9 -21.5q-8 -8 -28 -16q-17 -7 -21 12q-2 2 -2 11q-8 12 -18 10q-11 -5 -12 -8q-13 -19 -25 -60l-18 -86q-4 -28 -10 -59.5t-13.5 -70.5t-11.5 -62v-10q0 -7 6 -7q4 0 4 4l37 146 l35 127q8 20 16 26l10 5q3 0 6 -5t2 -8v-10l-6 -22q-14 -51 -37 -147t-30 -122l-43 -190q-1 -4 -2 -13t-2 -14q0 -11 10 -16q16 -4 22 -4q35 -6 74 -15q34 -6 64 -18q42 -23 92 -23q29 0 69 -14zM580 1522q2 6 -1.5 11t-9.5 5q-25 0 -37 -4q-21 -3 -47 -10q-1 0 -3.5 -3 t-2.5 -5t2.5 -4.5t5.5 -2.5q13 -3 62 -8q25 0 31 21zM528 1284q11 14 11 37q-7 -9 -11 -37zM616 1264l7 43q0 4 -2 4l-7 -4q-12 -32 -26 -125q0 -4 0.5 -4.5t3.5 0.5l4 4q5 12 8.5 25.5t6.5 31.5t5 25zM514 1229l2 6q14 16 10 41q-10 -15 -10 -41l-2 -2v-4zM446 946 q2 11 -2 12q-1 -2 -2 -7t-2 -7l4 -2q0 1 1 2t1 2zM418 842h4q4 4 4 8l-2 4l-4 -2zM319 815q30 0 50 14l4 5v10q0 6 -6 6q-29 2 -54 -23q-2 -4 0 -4q2 -4 6 -8zM356 508q14 81 43 203q1 4 2 12.5t2 13.5l-4 4q-4 0 -8 -4l-10 -37q-20 -86 -39 -184q-35 -169 -43 -262l-4 -23 q-4 -50 -8 -79h2v-43q0 -2 1 -6t1 -5q3 -5 8 -8q5 0 8 6v10q-2 43 6 124.5t9 97.5q0 10 4 26q29 149 30 154zM428 367v49q0 3 -1.5 5t-4.5 1q-2 0 -8 -6q-15 -47 -15 -74q0 -39 -8 -70q-2 -4 2 -16q0 -3 3.5 -6.5t6.5 -3.5t8 2.5t5 5.5q8 82 12 113z" />
<glyph unicode="8" horiz-adv-x="1054" d="M1030 289q4 -8 4 -17q0 -6 -5 -12t-11 -6q-12 0 -21 6q-6 4 -14 16l-33 29q-17 12 -27.5 10t-17.5 -22l-10 -31q-9 -27 -12 -53q0 -1 -6 -49q-7 -39 -41 -94q-33 -55 -84 -74q-117 -47 -211 -39q-66 0 -99 8q-6 1 -18 2t-18 2q-31 0 -93 12q-33 5 -77 35l-3 4q0 8 7 4 l41 -12q109 -35 235 -6q4 0 8 8q2 1 0.5 7.5t-4.5 7.5q-4 2 -10 2l-37 -13q-64 -19 -111 25q-35 31 -59 35q-6 0 -10 4q-3 2 -3 7t3 7l12 10q2 2 2 11v4l-53 133q-4 2 -8 2l-4 -4q-7 -22 -2 -37q4 -20 4 -31q-3 -17 -19 -20q-18 -4 -26 12l-6 33q-3 7 -9 4q-4 0 -4 -4 l-6 -15q-9 -23 -6 -35.5t22 -25.5q6 -3 13 -10v-6l-4 -4q-9 -2 -21 2q-3 1 -9 5t-11.5 6t-10.5 1q-2 0 -8 -6v-6q1 -1 6 -9.5t9 -13.5q12 -14 41 -43v-4q-3 -6 -11 -2q-18 12 -20 14q-17 17 -41 45l-12 11q-3 3 -10.5 3t-10.5 -3l-29 -25q-9 -7 -22 -1.5t-16 17.5 q-3 10 0 21q2 12 10 31q22 49 57 116q74 141 135 285l41 100q2 4 4 12t2 9q3 5 -6 14q-3 0 -8.5 1t-7.5 1l-49 4q-3 0 -21 6q-4 1 -5.5 7.5t1.5 9.5l14 10q8 9 3 14q-11 21 6 35l8 6q13 19 0 35l-29 39q-64 82 -43 184v4q17 73 17 130q-3 51 14 112l12 49q0 2 -4 6 q-3 3 -6 0l-35 -34l-43 -47q-6 -6 -14 -9q-3 -3 -9 1t-6 10q0 9 5 14q2 4 18 20l84 78q53 53 76 84q10 15 28 33q5 5 14 13.5t17 16.5t14 15q17 20 43 33q42 21 50 26q57 38 120 -6q20 -15 25 -20q27 -27 51 -43q18 -10 37 -37q11 -17 33 -14l6 -2q6 0 10 -6.5t4 -14.5 l-6 -20l-20 -74q-7 -24 -4 -43q3 -35 3.5 -46.5t-2.5 -46t-3 -46.5l-2 -17q-43 -147 -123 -227q-16 -14 -33 -37q-12 -15 -2 -35q17 -31 55 -65q36 -29 62 -47l98 -66q30 -19 49 -25q21 -4 66 -26q48 -29 73 -84q16 -41 19 -74q1 -5 2 -16.5t2 -16.5q3 -25 20 -49 q37 -42 49 -57q7 -8 18 -25t13 -20zM242 1352q-2 -3 -0.5 -8t4.5 -5q8 0 10 2q3 3 39 45q22 32 45 48q21 18 43 12q27 -2 43 6l76 33q1 0 1.5 1.5t1 3.5t1.5 3q0 4 -4 4q-20 17 -49 14q-10 0 -30.5 -2t-29.5 -2q-39 -3 -69 -30q-57 -48 -82 -125zM328 1016l28 -39 q7 -7 13 -10q3 -3 7.5 -2t6.5 4q2 5 12 24t13 29l49 133q7 19 22.5 56t22.5 55q18 47 43 92q9 15 16 41q5 11 -2 26l-8 15q-16 22 -43 16q-60 -11 -121 -55q-21 -15 -39 -33q-10 -8 -31 -29l-51 -69l-16 -29q-6 -9 -10 -45q0 -2 2 -12.5t4 -16.5q25 -67 41 -94zM354 1403 q8 4 0 8h-4q-34 -20 -45 -55q8 5 16 12.5t18.5 19t14.5 15.5zM588 1360q-3 4 -10.5 4.5t-10.5 -2.5q-1 -1 -4 -5.5t-4 -8.5l-33 -86q-1 -4 -2 -13t-2 -14l64 59q8 12 8 19q6 25 -6 47zM549 1184v12q0 4 -4.5 7t-7.5 1q-9 -2 -17 -14q-41 -67 -90 -203q-6 -12 -10 -41 q-3 -5 2 -10q2 -4 8.5 -6.5t9.5 0.5q1 2 5 5l4 3q20 34 28 63q12 49 41 111q13 28 31 72zM215 909q6 -7 13.5 -14.5t16 -15.5t13.5 -13q6 -6 14 -3t11 11l2 9q0 8 -2 14l-9 12q-43 46 -75 70q-1 1 -5 1t-6 -1q-4 -4 -4 -10q5 -31 31 -60zM268 711q6 0 15 6q6 3 6 12 q-4 11 -13 6q-13 -3 -20 -8q-4 -4 -4 -8q-3 -5 7 -8q5 -1 9 0zM350 625l2 -9q4 4 4 5l6 30l-4 4q-6 0 -6 -6zM879 512v14q-15 57 -64 82q-4 0 -6 -2q-4 -4 0 -8l59 -90q0 -2 9 -2zM604 578l-29 16q6 -18 33 -55l84 -105q32 -37 47 -45q3 34 -20 66q-23 37 -84 102 q-6 6 -31 21zM510 354l4 -20q12 -74 12 -76q1 -12 11 -86q4 -18 22 -18h10q54 3 103 20q28 9 53 25q8 4 20 16q5 6 5 14t-5 11q-4 4 -11.5 10.5t-13 12t-9.5 11.5q-17 22 -60 74.5t-65 81.5q-29 41 -76 92q-24 24 -70 60q-2 2 -14 8q-12 0 -14 -4q-7 -4 -15 -17 q-17 -52 -18 -55q-6 -29 -14 -80q-1 -6 3.5 -12t10.5 -8l33 -2q25 0 37 -2q50 -10 61 -56zM303 504l-2 18q0 4 -4 8l-4 -4l-14 -32q0 -8 -3 -11q0 -6 3 -11.5t6 -4.5q5 0 9.5 4t4.5 10zM197 420q-11 -11 -11 -19q9 14 11 19zM229 389v4q0 4 -2 4q-1 2 -3.5 0.5t-2.5 -4.5 l-4 -16l-2 -2v-4l2 6zM131 281l19 18q30 57 34 96q-15 -19 -49 -94q-2 -3 -2.5 -10.5t-1.5 -9.5zM508 195l-12 96q-2 15 -11 47q-8 32 -45 45q-20 4 -28 4l-19 -2l-12 -2q-6 -2 -12.5 -9t-6.5 -14q0 -17 3 -32q2 -14 10 -37q4 -15 -4 -25l-4 -10q-7 -12 0 -31q9 -15 20 -26 q40 -28 72 -35q10 -2 28 -2q8 0 13.5 6.5t5.5 15.5zM299 293l2 24q0 13 -2 17q0 4 -4 8q-6 -6 -6 -8q-3 -19 8 -41q0 -3 1 -3t1 3zM190 274l7 17q7 7 10 18l-10 -18l-13 -12q-7 -7 2 -7zM100 221l-2 -6q-19 -19 -26 -59l4 -2q4 0 8 4q14 19 14 57l2 2v4zM834 145q3 7 0 13 q0 6 -5 8q-4 4 -8 0t-11.5 -11t-13.5 -13t-10 -11l-43 -49q-48 -60 -122 -84q-10 -3 -58 -14l-47 -11l-4 -4q2 -2 4 -2l25 -2q98 6 184 43q14 5 29 17q72 46 80 120zM492 84q2 0 2 8q0 4 -2 4q-8 6 -27 6q-44 6 -82 23l-14 6q-2 2 -11 2q1 -2 1 -5.5t1 -4.5q2 -4 7.5 -11.5 t7.5 -11.5l18 -12q43 -17 78 -12q14 4 21 8zM717 100v4q-7 7 -8 7q-15 -5 -17 -5q-58 -11 -102 -65q-1 -1 -12 -23q63 10 127 64zM487 47q5 5 5 8l-3 4q-19 5 -43 2q-6 -3 -4 -8q0 -4 4 -4l19 -6q6 0 22 4zM575 18h-2l-4 -2z" />
<glyph unicode="9" horiz-adv-x="841" d="M817 274l2 -86q0 -3 1 -11t0.5 -14t-3.5 -11q0 -5 -4 -5h-4l-25 31q-2 2 -4 0l-2 -2q-6 -49 19 -94q11 -20 8 -47q-1 -13 -11 -23.5t-24 -13.5q-1 -1 -4.5 -1t-5.5 -1q-14 0 -17 -10q-5 -16 -6 -17q-6 -10 -20 -12t-23 6q-6 6 -16 21q-30 54 -39 90q-26 92 -33 147 l-12 82q-8 41 -8 96q0 32 -0.5 91t-0.5 107t1 91q0 29 -6 86t-7 66q0 9 -7.5 14.5t-18.5 3.5q-19 0 -47 -14q-22 -9 -11 -31l11 -18q3 -9 -4 -17.5t-17 -7.5q-18 0 -26 4q-11 4 -33.5 12.5t-39.5 15.5t-32 15q-94 50 -141 70q-86 37 -146 119q-28 36 -36 71q-16 79 26 135 q1 1 5.5 4t6.5 5l5 -2q2 -4 2 -11q-5 -32 -2 -71q0 -1 2 -11.5t4 -15.5q32 -70 69 -94l-6 37q-4 17 -6 38.5t-2.5 34.5t0 41t0.5 37q0 10 10 35q19 46 74 94l37 31v8l-4 2l-21 -8q-15 -11 -28 -14q3 3 8 10t8 10l39 31q30 26 37 53q6 15 16 35l10 10q0 1 2 1t2 -1l5 -2 q2 -6 2 -16q0 -1 -1 -4t-1.5 -5t-1 -4.5t0 -4.5t2 -4t3.5 -3q8 -4 20 4q50 28 203 78q16 4 27 2q35 -9 61 8l10 4q28 11 45 -18q0 -1 1 -4.5t1 -5.5q-10 -10 0 -23q3 -13 -2 -24q-6 -13 -6 -56q0 -38 12 -116q10 -50 11 -60v-10q6 -22 7.5 -45t0 -57t-1.5 -45v-15 q-13 -52 6 -112q8 -33 8 -70l2 -43q0 -36 -6 -66q-11 -41 -2 -86q4 -28 4 -43q2 -47 10 -141q10 -65 13 -80l24 -106q6 -18 8 -21q0 -1 2.5 -3.5t4.5 -2.5q14 1 20 -6t6 -21zM356 1446l-14 -8q-6 -6 -6 -15q0 -3 4 -5t8 -1l33 6q34 8 72 -12q5 -2 14 -7t14 -7q3 -2 31 -13 q7 -28 20 -41q0 29 -20 41l-4 17q-7 20 10 33l8 6q15 12 15 28q1 20 -8 28t-29 3l-17 -2q-36 -11 -131 -51zM616 1479l-2 10q-2 4 -8 4l-4 -4q-3 -13 2 -21q0 -8 8 -4q2 2 2 4zM727 1350q2 29 -6 90q-7 21 4 37l8 6q2 -1 5.5 -2t4.5 -2q1 -3 4.5 -9.5t4.5 -9.5q4 -23 14 -33 q8 -8 8 -30q-3 -32 -29 -58q-2 -2 -10 -2l-6 6q0 1 -1 3.5t-1 3.5zM575 940v10q0 53 -2 80q-8 79 -20 227q-4 50 -18 80l-3 -22q0 -9 -6 -15t-14 -4q-17 7 -43 11q-37 3 -51 32l-6 11q-9 9 -25 12q-19 3 -41 -8q-15 -9 -18 -27v-16q4 -88 30 -129l2 -4q10 -21 5 -37 q-3 -16 4 -33q14 -28 20 -37q52 -79 164 -139l4 -2q4 -1 10 2t8 8zM186 1341q-3 1 -3 4t3 5l11 2l-7 -9q-2 -2 -4 -2zM729 1262q-6 -6 -10 2q-3 13 0 26q4 4 8 4l6 -2q14 -18 -4 -30zM238 1128l2 103q0 10 -4 26q0 1 -3 4t-4 3q-10 5 -14 -4l-2 -5q-17 -65 -20 -90 q-6 -49 6 -96l16 -47q1 -3 6 -8.5t6 -7.5q0 -2 4 -2q3 -1 5 1t2 5v118zM428 934q3 5 -2 10q-87 68 -127 189l-8 20l-6 8q-3 6 -9 6q-2 -4 -2 -6q-3 -84 13 -153l12 -37q6 -16 25 -19l47 -8l16 -4l21 -4l16 -4q2 2 4 2zM715 102q2 2 2 4q-1 10 -2 30t-2 30q-10 56 2 96 q0 8 -2 10q-17 11 -4 27q9 14 2 31l-6 10q-16 27 -23 66q-3 23 -10 64t-10 60l-3 5q-2 -2 -2 -9q0 -33 2 -39q3 -17 3 -73q-4 -41 2 -78q2 -10 2 -33q-2 -47 20 -166q2 -12 19 -33q2 -2 10 -2z" />
<glyph unicode=":" horiz-adv-x="614" d="M305 1096l-61 -6q-12 -3 -21 -9q-69 -46 -90 -106q-15 -37 12 -70q10 -12 29 -16q21 -6 43 0q71 20 139 61l9 8q10 10 10 23l-13 70q-5 20 -20 32.5t-37 12.5zM305 492l-63 -7q-14 -5 -19 -8q-69 -46 -90 -106q-15 -37 12 -70q7 -12 29 -16q22 -6 43 0q73 21 137 61 q5 3 8 8q13 13 11 23q-1 11 -11 69q-5 21 -20.5 33.5t-36.5 12.5z" />
<glyph unicode=";" horiz-adv-x="614" d="M393 1032q-42 -5 -61 -8q-11 0 -19 -8q-66 -40 -92 -105q-11 -38 15 -71q7 -9 26 -17q26 -4 43 2q64 15 139 62l9 6q13 13 10 25q-2 23 -10 69q-9 42 -60 45zM211 250h6q11 1 42.5 7t49.5 7q11 0 19 8q8 6 26 29q24 34 31 49q12 30 18 64q5 19 23 41l27 26q8 8 14 17 q7 8 4 20t-14 17l-21 4q-11 0 -18 10l-12 18q-12 20 -33 25.5t-43 -6.5l-15 -8q-45 -30 -84 -89l-6 -10q-21 -50 25 -71q6 -2 17 -8t12 -7l2 -4l-5 -10l-63 -53q-8 -6 -16 -21q-9 -31 -7 -43l7 -8q8 -4 14 -4zM297 520l-23 -16q-4 0 -4 2l-2 4q29 47 78 55q10 0 14 -2 q6 -3 -8 -10q-26 -8 -55 -33z" />
<glyph unicode="&#x3c;" horiz-adv-x="1024" d="M1001 913q7 -23 -12 -34q-4 -2 -10 -2l-8 8q-6 6 -15 2q-8 -3 -18 -13q-52 -35 -76 -65l-10 -10q-21 -11 -23 -11q-22 -8 -104 -45q-58 -28 -113 -49q-42 -16 -131 -57l-14 -6q-29 -10 -135 -64l-133 -75q-11 -15 -15 -25q-1 -3 4 -5t11 -2.5t11 -1t5 -1.5q2 -2 2 -4 l14 -7q44 -9 62 -16q7 -4 51 -20q11 -4 23 -8.5t26 -11t23 -9.5q5 -4 9 5q1 2 1 3q3 8 8 8q7 0 37 -10q17 -6 48.5 -21.5t45.5 -21.5q15 -10 39 -18q5 -2 19 -11q8 -4 10 -8q9 -16 13.5 -20.5t15.5 -7.5q4 -1 24 -11q3 -1 4.5 2.5t1.5 8.5l-2 4q36 -7 55 -39q9 -14 25 -21 l33 -12q27 -10 51 -10q17 0 25 -2q7 -2 14 -13q1 -2 1 -7t-1 -7l-14 -18h-13q-11 0 -8 -17q4 -8 4 -16q0 -6 -2 -8q0 -2 -3 -2.5t-5 0.5l-25 20q-8 4 -12 4q-2 0 -2 -2q-2 0 -2 -4q4 -8 6 -10q9 -9 29 -21l31 -24q13 -10 16 -31q2 -12 12 -18q9 -9 10 -11q6 -6 4 -15.5 t-8 -14.5q-15 -5 -18 -4q-11 0 -39 4q-25 8 -39 20q-3 3 -9.5 9t-12 11.5t-9.5 10.5q-34 36 -82 63q-25 13 -75 41t-76 41q-4 2 -18.5 9.5t-22.5 9.5q-3 1 -10.5 5.5t-10.5 6.5q-38 23 -90 47q-89 41 -116 57q-36 22 -50 33q-16 14 -43 33q-52 30 -108 18q-12 -2 -25 -12 q-8 -4 -12 -4q-6 -1 -10 6.5t-2 13.5v5q13 23 16 59q0 6 4 14q13 33 17 37l20 19q15 4 21 10q-17 -4 -21 -10l-31 -7q-3 0 -8 -1t-8 -1q-14 -3 -20 21q-3 3 2 8q0 6 4 6l32 19q134 61 154 71q30 15 39 21q37 27 86 59l49 29q56 29 94 51q43 24 90 45q25 10 101 41l74 31 l79 37q52 21 109 30q13 5 27 2q4 0 4 -6t-4 -6q-2 -3 -11 -8q-43 -13 -57 -16q-21 -6 -56.5 -23t-41.5 -20q-19 -11 -56 -27q-15 -7 -46 -20.5t-46 -20.5q-25 -11 -90 -49q-20 -7 -31 -23q-4 0 -6 -2q-4 0 -2 -2h2l6 4q22 6 27 8q6 3 42 18.5t54 22.5q2 1 32 12.5t46 16.5 l82 31l70 18q28 6 57 25q14 14 33 18q19 6 26 -18q1 -3 2 -9.5t2 -9.5zM621 195h-5l5 -5q10 -6 46 -29t56 -34l92 -61l12 -7q5 -3 11 0q0 7 -7 11q-14 9 -16 10q-22 11 -33 22q-5 5 -14 11q-55 38 -88 55q-20 13 -49 25q-6 2 -10 2z" />
<glyph unicode="=" horiz-adv-x="1183" d="M143 788h-30q-12 -2 -37 -2q-10 -3 -13 -10q-3 -12 5 -20t18 -8q8 0 24.5 1t24.5 1q1 0 15 -7q8 -8 10 -14q11 -19 30 -8q22 12 58 16q21 2 56.5 1.5t57.5 0.5q1 0 3.5 -1t3.5 -1l-4 -2q-73 -19 -160 -39q-38 -13 -41 -14q-12 -6 -14 -8q-5 -5 -5 -8q0 -9 5 -9 q20 -13 51 -16q91 0 129 14q28 12 69 9l31 -7q24 -3 37 7q15 10 41 10h82q16 0 20 -4q6 -5 12 -8t14.5 -4.5t13 -2t15 -1.5t13.5 -1q102 0 151 -6q9 -2 27 -2.5t23 -1.5q26 0 41 10q13 11 41 15q24 4 36 8q11 5 17.5 17t3.5 24q-4 11 -12 14q-16 4 -23 4h-59l-4 2q4 4 6 4 q24 4 39 4q60 9 118 -2q14 -4 54 -8q9 -3 20 4q8 8 6 15l-6 8q-12 6 -14 6q-23 6 -70 10q-42 0 -65 4q-108 13 -244 0q-46 -4 -70 -4h-381q-15 0 -43 1t-43 1q-17 1 -45.5 4t-38.5 4zM604 547q-27 1 -94 -4t-96 -6q-23 0 -33 -2q-35 -7 -64 -7q-27 0 -118 -14 q-35 -6 -56 -33q-2 -3 -1.5 -8t3.5 -6l11 -4l14 -6l-6 -15q-4 -9 6 -14q1 0 4.5 -1t5.5 -1q7 0 21.5 -1t21.5 -1q5 0 5 -0.5t-1 -3.5h-4q-3 -1 -8.5 -2t-7.5 -2q-4 -4 -4 -8q0 -5 2 -5q20 -17 51 -14q10 0 29.5 1t29.5 1q14 1 40.5 1.5t48.5 1.5t42 3q148 9 199 9h12 q27 1 81 4t81 4q6 1 18.5 2t18.5 2q39 8 88 8q14 2 47 2q14 4 21 8q10 2 10 17q0 10 -12 16q-4 0 -11.5 1t-11.5 1q-26 0 -76 -4q-10 -1 -29.5 -2t-29.5 -2l-123 -12q-2 -1 -8 -2.5t-8 -2.5q-19 -10 -47 -6q-7 0 -20 -1t-19 -1q-27 -3 -81.5 -8t-80.5 -8h-6l-4 4q0 5 6 8 q17 9 41 12q22 2 112 17q41 8 93 8h92q24 -3 41 8q21 13 51 13h121l20 6q9 6 12 18q0 9 -10 16q-34 27 -69 19q-48 -6 -50 -6q-17 -4 -26 0q-25 12 -74 8q-13 -2 -35 -2.5t-30 -1.5q-85 0 -146 -2zM416 512h37q2 0 4 -2q-1 0 -2 -1t-2 -1q-39 -2 -117 -14q-11 0 -17 2 q-2 2 -2 4q2 2 2 4q18 8 58 8q12 2 39 2v-2zM47 446q13 0 26.5 -1t16.5 -1l4 5q0 4 -2 4q-21 27 -67 12q-5 0 -5 -8q0 -1 2.5 -3.5t4.5 -2.5q20 -4 20 -5zM383 469h27q1 0 2 -1t2 -1q0 -2 -2 -2q-33 -7 -78 -14h-12q-7 0 -15 4q-4 0 5 5q3 2 7 3q20 6 64 6z" />
<glyph unicode="&#x3e;" horiz-adv-x="1024" d="M983 469q13 3 21 -20q0 -6 -3 -9q-3 -6 -4 -6l-34 -18q-17 -8 -70 -32t-82 -38q-25 -11 -39 -20q-15 -10 -44 -30t-44 -30l-51 -28q-22 -11 -92 -52q-57 -30 -92 -43q-16 -7 -49 -20.5t-50 -20.5l-74 -30l-79 -37q-60 -23 -111 -31q-12 -3 -25 0q-4 0 -4 6l2 6q5 5 13 9 l57 14q19 6 55 23t43 20q19 11 56 27q14 7 45 20.5t45 20.5q8 3 92 47q22 9 31 22q4 0 6 2q2 0 2 2h-4l-4 -4q-18 -4 -29 -8q-12 -5 -45 -18.5t-51 -20.5q-59 -23 -76 -29l-82 -30l-70 -19q-30 -6 -57 -24q-22 -15 -35 -17q-7 -3 -14 2.5t-10 16.5q-1 3 -2 9t-2 9 q-7 25 12 35q2 2 10 2q4 -4 6 -8q8 -5 17 -2q6 2 18 10q50 33 76 66q3 7 10 10q9 6 21 10q19 6 104 45q75 35 115 49q46 16 133 55l14 7q35 12 135 63l133 76q11 14 13 24q1 3 -4 5t-11 3t-11 1.5t-5 1.5v4l-16 6q-40 8 -60 16q-20 10 -53 21q-28 10 -70 28q-7 5 -12 -8 q0 -8 -6 -8q-7 0 -37 10q-19 7 -51.5 24t-42.5 21q-26 15 -41 19q-8 3 -19 10q-4 4 -6 8q-9 17 -13 21.5t-15 7.5q-10 3 -25 10q-4 1 -6 -2t0 -8q0 -4 2 -4q-35 6 -55 39q-10 12 -25 20l-35 13q-27 10 -49 10q-19 0 -27 2q-6 3 -12 12q-2 2 -2.5 7t2.5 7l15 19h12q9 0 6 16 q0 2 -1 8t-1 9v8q5 5 10 2l25 -21q8 -4 12 -4q2 0 2 2v4q0 7 -4 11q-13 10 -29 20l-30 25q-13 10 -19 30q0 11 -12 19l-10 10q-5 6 -3.5 16.5t7.5 14.5q15 5 18 4q15 0 39 -4q25 -7 39 -21q26 -22 33 -30q38 -41 80 -64q76 -41 153 -84q30 -15 39 -18q2 -1 21 -13 q49 -29 90 -47q89 -41 116 -57q36 -23 50 -33q13 -13 41 -33q50 -33 110 -20q14 3 25 12q8 4 12 4q6 1 10 -6.5t2 -13.5l-2 -4q-11 -25 -14 -60q0 -2 -6 -14l-4 -12t-5.5 -15.5t-5.5 -9.5l-22 -18q-14 -5 -19 -10q17 6 19 10l33 6q2 0 7.5 1t8.5 1zM408 807h4l-4 4 q-21 12 -58.5 35.5t-44.5 27.5l-94 62l-10 6q-7 4 -11 0q-2 -2 5 -10q12 -8 18 -10q21 -10 31 -23q2 -2 7 -5t7 -5q47 -32 88 -55q25 -14 51 -25q6 -2 11 -2z" />
<glyph unicode="?" horiz-adv-x="698" d="M672 1300l6 60q0 46 -27 86l-22 43q-3 6 -43 63q-17 17 -25 21q-39 23 -59 49q-13 13 -31 2q-18 -12 -22 -14q-14 -11 -31 -4q-8 3 -19 10q-56 24 -94 -17q-14 -15 -43.5 -44.5t-44.5 -45.5l-10 -12q-42 -51 -74 -113q-2 -5 -18 -36t-23 -48q-1 -2 -5.5 -12t-5.5 -13 t-4.5 -12t-5 -13.5t-4 -12.5t-3.5 -13.5t-1.5 -13t-0.5 -14.5t1 -14q3 -18 -8 -43l-16 -41q-11 -33 -16 -58q-3 -6 0 -16q0 -6 8 -10q3 -3 7.5 -2t6.5 4l8 14q1 6 2 17t2 16q7 36 19 57q4 8 8 0q9 -24 35 -18q2 0 7 2t7 2q14 6 27 -4l37 -31q3 -2 8 -7t8 -7q17 -10 31 -2 q9 3 12.5 13.5t-2.5 16.5l-21 19q-35 30 -63 88q-12 27 0 57q20 41 55 92q6 8 19 21q27 26 36.5 29.5t45.5 -0.5q2 0 5.5 -1t4.5 -1q22 -6 43 6q24 17 61 2q3 -1 11 -5.5t10 -5.5q16 -9 24 -26q2 -7 8 -19.5t7 -15.5q15 -34 2 -70l-25 -65l-6 -27l2 -4h6q4 4 7 9t5 11.5 t3 8.5q16 32 22 37h6q4 0 4 -2q9 -30 2 -64l-4 -16q-28 -54 -61 -82q-31 -26 -37 -39q-3 -8 -10 -12q-11 -5 -20.5 -13.5t-15 -15.5t-14 -20.5t-12.5 -18.5q-5 -5 -8 -14q-4 -14 -2 -21q10 -23 -10 -43q-1 -1 -2 -4.5t-2 -5.5q-2 -3 2 -6.5t8 -3.5q1 0 4.5 1t5.5 1 q6 1 10.5 -1t4.5 -7q1 -11 2 -33t2 -33q4 -43 16 -129q7 -99 -8 -168q-1 -6 -4 -18.5t-4 -18.5q-5 -31 20 -39q24 -8 31 -41q2 -6 2 -20q2 -11 5 -34.5t5 -35.5q1 -5 4 -11.5t4 -8.5q3 -6 11.5 -7.5t11.5 3.5l12 18q5 11 17 4l10 -6q12 -9 25 -3.5t18 19.5q6 15 6 33 q0 5 -4 9t-10 4h-5q-17 0 -20 12q0 8 -1 24.5t-1 24.5q0 106 -6 141q0 23 2 33q4 27 4 80l2 131q0 26 10 53q6 19 17.5 54t15.5 49q11 33 20 51q20 37 48 115q5 18 16 52.5t16 51.5q7 10 7 20q-3 23 10 86zM522 1499l-2 4q-20 10 -35 25q-3 1 -4.5 6t0.5 6q9 10 17 2l12 -8 q6 -9 10 -31l4 -6zM227 1448q3 29 23 43q4 4 8 0v-6q-5 -18 -31 -37zM338 1458q-5 1 -22 2t-25 2l-4 2q0 9 2 11q8 14 26 14q48 7 84 -12q3 0 7 -9q0 -6 -9 -6t-59 -4zM575 1481q11 -11 13 -23q0 -6 -6 -6q-4 0 -4 4t-1.5 12.5t-1.5 12.5zM606 1368q8 0 8 -10q-3 -6 -8 -4 q-7 4 -4 14q2 2 4 0zM367 57q0 -13 -5 -43v-4l-4 2q-4 3 -7 12.5t-5 12.5q0 4 -8 4q0 2 -4 -2t-4 -10q-10 -26 6 -57t43 -40q21 -8 53 -8q54 3 115 29q16 8 22 14q3 3 14.5 13t16.5 16q20 20 31 39q14 16 11.5 42.5t-26.5 43.5l-49 33q-20 12 -28 22q-15 18 -35 8 q-14 -3 -25 -12q-29 -22 -63 -25q-25 -2 -43 -28q-11 -15 -11 -31q5 -25 5 -31zM516 172q4 0 4 -4q2 -5 -4 -8h-10q-2 2 -2 4q4 8 12 8zM422 115q0 -6 -4 -6q-6 -3 -6 4q0 1 1 2t1 2q6 3 8 -2z" />
<glyph unicode="A" horiz-adv-x="1138" d="M1118 -82q3 -7 -4 -14q-11 -11 -20 -2q-2 2 -5 6t-5.5 6.5t-5 6.5t-3.5 7q-30 59 -39 78l-37 84q-35 79 -49 121q-20 61 -43 106q-2 3 -7 8.5t-7 8.5q-4 2 -4 0q-1 -1 -2.5 -2t-2.5 -2t-1 -2q10 -50 20 -90q1 -5 4 -15.5t4 -15.5q2 -19 27 -101q8 -27 35 -102 q4 -10 13 -29.5t13 -29.5q5 -10 -4 -15q-5 -3 -10.5 -2t-7.5 4q-2 4 -9.5 16t-9.5 19l-30 99q-9 40 -29.5 111.5t-26.5 96.5l-6 17q-3 18 -25 37.5t-30 19.5q-2 0 -24 -11t-35 -11q-7 0 -11 4t0 8q1 2 7 8q7 7 0 10q0 2 -5 2h-10q-15 0 -39 -4q-14 -2 -46 -7t-50 -7 q-25 -4 -76 -4q-38 0 -69 -8q-7 0 -15 -4q-8 -6 -12 -13q-4 -20 -4 -32v-86q0 -1 -2 -11.5t-4 -15.5q-4 -11 -15 -14h-6q-1 0 -15 0.5t-15 -5.5q-7 -7 -11 -28q-9 -28 -20 -74q-2 -13 -9.5 -37t-9.5 -31q-3 -9 -8 -14q-7 -10 -18 -10q-15 0 -19 16v17q3 25 -10 41 q-8 9 -12 36l-6 48q0 27 2 39q12 62 12 122q4 63 10 82v11q0 21 -16 24q-40 12 -60 8q-10 -3 -20 0q-32 14 -117 27q-20 4 -28 12q-5 2 -5 8q0 2 7 9q2 2 6 2h14l92 -13q32 -6 64 4q10 3 31.5 8.5t31.5 8.5q14 2 25 20q6 18 6 21q19 74 33 143q4 18 12 54.5t15 64.5t16 53 q6 33 27.5 91t27.5 85q20 83 39 154l12 47q8 16 15 21q15 11 22 36q8 30 21 68q11 34 12 35q8 13 34 60t44 71q8 8 10 12q9 10 24 10t21 -16q30 -70 37 -102q17 -51 20 -56q6 -12 6 -37q5 -46 9 -59q4 -15 16 -20q6 -3 10 -11q4 -11 13 -53q25 -150 43 -213q7 -36 24 -84 q18 -52 48.5 -156.5t47.5 -154.5q4 -15 10.5 -32t14.5 -37.5t12 -31.5q10 -26 15 -47q9 -51 26 -94q8 -15 15 -41q29 -113 51 -166q4 -16 0 -26q-6 -21 0 -43q3 -19 -6 -37q-8 -14 2 -31q8 -18 22 -43zM664 1352v-6q3 -3 6 -9q0 -6 2 -10q0 -3 1 -4t3 2v4q-2 4 -6 8v11 q0 4 -2 5t-4 -1zM608 1341q-15 -37 -6 -63l4 -14q16 33 19 65v10q-7 7 -9 7q-3 0 -8 -5zM434 625q12 17 15 45q46 180 67 297l31 186q0 3 1 8t1 8q0 31 10 64q2 10 7 29.5t7 29.5q5 15 5 21q2 4 2 10q0 4 -2 6q-5 5 -9 -4q-21 -57 -28 -82q-12 -43 -21 -90q-6 -29 -14 -84 q-7 -61 -37 -158q-19 -59 -23 -90q-16 -113 -28 -166q-2 -6 -2 -20q0 -6 4 -10q0 -4 4 -4q6 0 10 4zM604 1260q-12 -16 -14 -25q-1 -2 -12 -53q-3 -6 2 -6q4 0 4 4l8 24t9 30.5t3 25.5zM582 504h69q70 0 125 8q17 1 21.5 8t1.5 25l-6 26q-52 192 -54 199q-6 20 -13 58.5 t-9 48.5l-16.5 82.5t-16.5 87.5q-16 78 -14 116q16 26 4 54q-4 0 -4 -5q0 -8 -2 -20.5t-2 -20.5q-6 8 -7.5 20t-3.5 17q-5 11 -12 11t-14 -7q-10 -15 -11 -18q-3 -10 -8 -32t-8 -32q-19 -72 -37 -106q-22 -49 -24 -82l-13 -70q-14 -95 -36 -202q-5 -24 -14.5 -72.5 t-14.5 -71.5q0 -3 -1 -8t-1 -8q0 -5 4 -9.5t8 -4.5h43q11 1 32.5 4t33.5 4zM707 1133q-3 -11 2 -50l30 -159q1 -4 23 -90q10 -30 16 -39q2 -4 2 -17q0 -2 4 -6l2 8l-8 15q1 12 -0.5 24.5t-5 29.5t-4.5 25q-13 96 -27 173q-5 33 -26 81q0 1 -4 5q-1 3 -4 0zM784 905v-4l4 -6 v6q0 3 -1 4t-3 0zM887 524q2 0 2 4q0 11 -2 17q-35 135 -72 270q-3 8 -7 24t-8 27.5t-9 20.5q0 -51 4 -64q12 -56 16 -80q5 -19 13.5 -58t13.5 -58l24 -82q9 -18 17 -21q4 -4 8 0zM403 739q1 3 -1 5t-5 1q-2 0 -4 -2q-10 -13 -10 -28q-1 -7 -2 -21.5t-2 -21.5q0 -14 -12 -23 q-10 -7 -13 -18q-6 -10 -10 -33.5t-6 -28.5q-3 -7 -23 -65v-17q0 -4 2 -4h11q1 0 3.5 2.5t4.5 3.5q16 13 16 31q1 8 0.5 21.5t0.5 23.5t5 19q2 3 0.5 11.5t-0.5 10.5q3 7 9 8q8 2 16 27q3 16 10 48.5t10 49.5zM786 471q8 -2 25 -2q-9 6 -25 6h-4q-4 -4 4 -4zM567 461 q2 2 4 2l-8 4q-5 1 -14 1t-12 1q-13 0 -33 -4q-15 0 -21 -2q-3 0 -6 -2t-5 -4.5t-1 -3.5q2 0 5.5 -1t4.5 -1q27 2 86 10zM545 373l4 4q-1 0 -2 1t-2 1h-10q-29 2 -72 -8q-8 -2 -10 -5l2 -1q3 -3 8 -3q17 -1 45 4.5t37 6.5z" />
<glyph unicode="B" horiz-adv-x="747" d="M721 340q9 -39 2 -96q-1 -8 -4 -24.5t-4 -24.5q0 -23 -15 -45q-17 -26 -34 -56q-3 -4 -19 -20l-31 -31q-29 -29 -67 -35q-72 -14 -96 -14q-7 3 -17 0q-31 -7 -106 6q-6 1 -18.5 4t-18.5 4q-23 3 -23 -18q0 -18 1 -52.5t1 -50.5v-22q-5 -10 -10 -10q-14 -3 -20 6 q-9 9 -9 24q-4 23 -16 33q-14 12 -18 39q-9 47 -11 63q-4 29 -12 43q-5 5 -8 5l-2 -5q4 -32 8 -92q0 -5 6 -53q4 -33 0 -49q-2 -4 -10 -12t-18 2q-12 9 -15 24q-2 12 -2 37q0 46 -8 82l-31 170q-23 120 -26 215q-1 26 -4.5 77t-4.5 75q-1 1 -0.5 57t0.5 57h-2q0 27 1 79 t1 79q1 7 2.5 21.5t2.5 21.5q7 74 0 184q-5 50 -5 60v147q3 100 -18 199l-20 112q-3 3 -3 11q6 6 9 6q1 1 4.5 0.5t3.5 -2.5q10 -13 12 -25q7 -20 14 -57q5 -15 11 -19q22 -16 22 -45q0 -10 8 -6q3 0 5 2l6 9q8 13 26 42.5t27 45.5q14 25 47 32q30 5 66 2q29 -5 57 -26 q32 -22 49 -51l16 -23q7 -13 21 -16q0 -2 4 -2q58 -15 98 -80q5 -8 19 -27q27 -38 30 -82q4 -87 -14 -149q-8 -31 -20 -97q-3 -18 -9 -36q-14 -77 -14 -97q0 -32 -22 -78q-16 -38 -13 -44.5t35 -24.5l55 -35q74 -50 101 -133q21 -63 33 -125q2 -14 7 -42.5t7 -43.5z M195 1444l2 -4q0 -5 6 -9.5t10 -3.5q6 2 18.5 6t16.5 5q50 23 94 20l16 2q4 4 4 10q-12 40 -55 56q-28 8 -47 8q-57 0 -63 -51q0 -15 -2 -23v-16zM338 1423q0 4 -2 4l-17 5q-54 0 -102 -25q-12 -8 -16 -14q-2 -2 -2 -11q4 -4 10 -4t10 2q16 5 48.5 14.5t49.5 14.5q8 3 19 10 q2 0 2 4zM223 690q3 -17 11.5 -22.5t27.5 -3.5q15 2 35 14q21 16 29 27q41 42 63 80.5t41 99.5l4 16q6 6 8 6q4 0 4 -6q0 -8 7 -8l4 2q26 43 26 104q0 17 -1 50t-1 49q3 62 -22 108q-17 34 -17 64q3 -4 6.5 -7.5t8 -7.5t6.5 -6q-2 25 -17 68q-15 38 -55 47q-7 2 -23.5 5 t-23.5 5q-26 3 -53 -4q-56 -16 -98 -65q-9 -18 -9 -27q-6 -76 2 -139q6 -49 9 -99q0 -8 1 -24t1 -23q16 -170 20 -250q0 -26 6 -53zM117 1317l-2 4l-4 4q-1 -1 -4.5 -2t-4.5 -2q-9 -13 0 -39q0 -2 9 -6l2 4q1 3 2 11t2 12v14zM494 1307v-13q21 -78 26 -141q0 -2 2 -4l4 -4 q6 0 6 6l5 20q2 54 -23 121q-2 8 -12 17q-3 3 -6 0zM440 1274l2 -4l-4 6zM166 586q2 8 2 20l-6 43q-10 63 -23 221l-2 33q0 119 -2 178v60l-2 4q-4 -4 -4 -6v-215q-1 -45 6 -129t8 -99q1 -11 11 -80q0 -6 3.5 -16.5l4.5 -13.5q4 -8 4 0zM674 315q3 1 4 7q0 78 -41 143 q-4 8 -11.5 21.5t-13.5 24.5t-10 21q-18 51 -61 80q-8 5 -16.5 12.5t-18 16.5t-14.5 14l-17 17q-11 7 -24 4q-23 -3 -29 -21q-14 -36 -53 -75l-19 -19q-20 -25 -33 -35q-10 -10 -30 -28t-29 -27q-20 -20 -20 -45q0 -62 2 -76q3 -23 6 -66t4 -57q0 -11 3.5 -31.5t4.5 -27.5 q3 -12 14 -23l25 -14q19 -11 44 -22t42.5 -17.5t49 -18t44.5 -16.5q30 -10 58 6q33 15 55 50l31 45q20 32 26 75q5 41 -2 99l-12 67l-2 13l4 4q6 0 8 -4q12 -62 27 -93zM125 428q6 0 6 6q1 10 -3.5 29.5t-4.5 28.5q0 2 -2 4l-2 -2l2 -62q0 -4 4 -4zM129 375l6 -21q4 -8 8 -8 v12q0 3 -4 19q-3 6 -8 4q0 -1 -1 -3t-1 -3zM156 195q3 15 -11 32q-2 2 -4 -2q-2 -13 9 -32l4 -3q2 0 2 5zM430 37q4 3 -4 6q-14 7 -23 10q-9 4 -25 12t-29 13.5t-25 9.5q-9 0 -9 -4t2 -6q37 -33 109 -43q4 0 4 2z" />
<glyph unicode="C" horiz-adv-x="710" d="M547 94q-16 -19 -35 -35q-5 -10 4 -14q19 -5 68 -22h16q15 0 25 10q10 14 16 28q31 77 31 142q0 6 1 18.5t1 18.5q0 2 4 6q4 0 4 -6q8 -95 -4 -140q-8 -35 -23 -73q-9 -20 -28.5 -31t-42.5 -8q-26 4 -37 8q-48 13 -68 16q-33 7 -53 0q-39 -11 -82 2q-7 1 -47 11 q-6 1 -12.5 -4t-8.5 -11q0 -2 -1 -7.5t-1 -8.5q0 -39 -47 -60q-8 -3 -18.5 1.5t-13.5 11.5l-11 30l-6 27q0 2 -6 8q-1 -2 -3.5 -4.5t-2.5 -3.5l6 -27l2 -16q-3 -10 -12 -16q-10 -5 -21 2q-12 5 -20 24l-27 88q-6 31 -14 86l-19 91q-15 121 -26 188q-2 12 -2 37q0 88 -13 190 q-2 16 3 54q9 53 2 135v16q-4 164 0 246q6 90 18 182q8 71 20 107q0 5 5 10l8 6q3 3 3.5 1t2.5 -13v-11l8 7q14 23 33.5 49.5t31.5 41t40 46.5t36 41q17 22 52 26q33 3 63 29q33 29 51 39q9 6 21 6q8 0 16 -4q4 0 4 -8q0 -7 -6 -10q-4 -2 -14 -2q-16 -3 -27 -17l-14 -10v-4 l2 -4q26 -5 59 2q88 9 140 -66q14 -21 30 -57q25 -58 41 -125l2 -10q0 -3 -4 -9.5t-8 -7.5q-11 -8 -21 2q-7 7 -10 13l-16 47q-14 31 -35 47q-12 9 -41 43q-1 3 -4 3.5t-4 -1.5q-2 -2 -2 -6q3 -28 18 -55q12 -24 17 -39q9 -28 -4 -54q-4 -12 -18 -13.5t-21 9.5q-9 14 -11 19 q-5 37 -36 71q-7 6 -17.5 19t-15.5 18q-13 13 -29 10q-49 -11 -104 -30q-22 -11 -29 -25q-26 -37 -37 -65q-22 -63 -29 -138q-6 -38 9 -75q8 -32 8 -47q-2 -64 24 -222l43 -245q2 -7 5.5 -23.5t5.5 -24.5l28 -210l13 -91q4 -26 16 -41q8 -11 8 -30v-47q3 -16 17 -23 q39 -12 73 4l13 10q85 72 116 113q29 36 33 100q2 5 -4 17l-12 16q-5 10 -2 23q8 18 22 43q15 25 17 45q15 75 -2 123q-6 17 -9 37q-6 36 -20 61q-6 9 -6 20t8 15q5 2 14 -2q8 -3 13 -13l12 -36q4 -16 16 -52q6 -21 27 -30q11 -5 13 -14.5t-5 -20.5q-8 -16 -8 -27 q4 -24 4 -37q1 -7 2.5 -19t2.5 -21.5t1 -18.5q3 -86 -37 -174q-34 -78 -47 -115q-13 -44 -55 -86zM289 1501q-2 -1 -1.5 -7t3.5 -7q4 -4 10 -4q33 11 53 26q3 3 6 9l-2 10q-11 15 -22 8q-28 -9 -47 -35zM102 1311l-2 -17q0 -4 2 -4q2 -2 4.5 -0.5t2.5 4.5q8 27 10 43 q0 5 -4 9q-4 -4 -4 -5q-6 -18 -9 -30zM119 1018l4 -2q4 0 8 4q8 20 8 88q0 11 -4 51q0 6 -8 6q0 -1 -1 -2t-1 -2l-8 -26q-8 -35 -4 -107zM119 924v16q0 6 -8 6q-6 -3 -9 -6q-4 -12 -4 -20q0 -46 -2 -66q-10 -74 -6 -221v-12q4 4 4 6v22q0 37 4 103l19 139q2 10 2 33z M170 373v76q0 61 -2 92l-6 92q-1 22 -2 65t-2 64q-8 78 -8 119l-3 6l-4 -8q-12 -66 -12 -99q0 -15 -4 -47q-9 -71 0 -141q4 -24 4 -37l14 -113q3 -43 19 -73q4 -2 4 0q2 0 2 4zM270 180q5 2 7.5 7.5t1.5 11.5q0 7 -3 16q-3 22 -19.5 127.5t-23.5 161.5q0 15 -8 43l-2 2 q-2 0 -2 -4v-43q8 -51 8 -152v-92q0 -6 1 -18.5t1 -18.5q2 -16 19 -33q12 -8 20 -8zM575 225q-17 -14 -20 -30q17 12 20 30zM543 172l8 16q-4 -4 -8 -16zM459 72q2 2 2 4l-2 4q-19 0 -27 -2q-8 0 -4 -8q1 0 2 -1t2 -1q14 -6 27 4z" />
<glyph unicode="D" horiz-adv-x="722" d="M702 737q6 -157 -38 -311q-13 -55 -29 -98q-27 -69 -49 -185q-21 -87 -25 -100q-13 -42 -22 -61q-19 -39 -45 -52q-4 -4 -9 0q-1 2 -1 5t1 4q3 7 9 14q36 44 45 102q7 32 14 82q3 6 -4 6q-4 0 -4 -2q-13 -13 -15 -16q-27 -52 -75 -107q-12 -14 -35.5 -43.5t-36.5 -44.5 q-34 -44 -45 -73q-10 -25 -23 -37q-13 -10 -26 0q-8 8 -4 20q10 20 12 23q12 17 35.5 48t25.5 34q40 51 41 53q50 63 70 90q33 41 82 133q26 46 37 131q6 51 20 193q1 15 2 46t2 46q4 76 0 223q-3 39 -14 70q0 2 -2 4t-4 2q-6 0 -6 -6q0 -9 -1 -28t-1 -28q2 -32 -9 -86 q-9 -35 -25.5 -105t-25.5 -105q-5 -19 -26 -150q-4 -16 -4 -47q4 -2 10 -2q5 -38 -8 -86l-19 -68q-21 -62 -28 -104q-8 -56 -54 -105q-6 -8 -41 -43l-43 -43q-4 -4 -16 -12q-3 -2 -8 -1.5t-6 3.5q-8 8 -5 14q12 18 13 19l30 31q8 12 3 20l-7 10q-22 24 -32 74l-31 154 l-21 106q-3 7 -6 8q-2 -4 -2 -6q5 -88 8 -108q11 -55 -2 -97q-5 -22 -2 -49q3 -39 9 -80q1 -5 3 -10t5 -11t4 -9q10 -13 10 -31q0 -44 -2 -64q0 -6 -6 -11t-14 -5q-11 0 -23 12q-15 17 -23 50t-10 47q-15 113 -16 135q0 19 -4 65q-1 12 -2 38t-2 38q0 38 -11 102 q-6 32 -17 97t-17 96q-1 10 -5.5 31.5t-5.5 31.5q-8 54 -20 152q-12 86 -21 178q-2 16 -2 49l-6 54q0 12 -4 32q0 30 -2 63.5t-5.5 74t-4.5 63.5l-6 64l-6 65q0 15 2 23q3 22 28 28h10q23 6 13 29q-6 6 -10 4q-2 0 -7.5 -2.5t-7.5 -3.5q-8 -8 -12 -10h-10q-9 5 -9 12 q2 11 3.5 24t2 16.5t5.5 10.5t12.5 11.5t24.5 15.5t20 31q0 2 6 26q5 10 19 10q10 -2 16 -12q2 -8 2 -22q-2 -6 -2 -21q0 -7 10 -12q2 -1 21 -6q68 -6 121 -45q11 -8 63 -31q6 -3 27 -12.5t30 -16.5q7 -5 14.5 -13.5t15.5 -19.5t13 -16q20 -24 33 -37l12 -16q5 -7 19 -16.5 t23 -20t10 -25.5l32 -67q47 -101 62 -207q9 -53 29 -100q15 -44 22 -72q16 -59 16 -113zM520 705q25 112 25 198q0 37 -2 60q-14 79 -17 102q-6 40 -32 78q-56 77 -105 166q-22 44 -72 108q-17 22 -45 47q-19 19 -41 25q-44 12 -86 12q-6 1 -11 -5t-5 -13q0 -11 10 -41 q21 -50 31 -121q1 -4 2 -13.5t2 -13.5q17 -114 19 -161q0 -37 14 -175q3 -21 10 -63.5t10 -63.5q4 -22 19 -129q29 -172 30 -176q7 -36 20.5 -107.5t20.5 -107.5q4 -25 13.5 -76.5t13.5 -76.5q4 -29 14 -47q1 -3 6.5 -5t8.5 0l3 2q4 3 5 5q40 40 43 90q8 79 25 184 q30 178 51 244q9 28 20 74zM455 1317q-16 40 -47 59q5 -16 13 -31.5t22.5 -37t19.5 -29.5l6 -6q-3 26 -14 45zM508 387v-4l-4 -4q0 8 4 8zM492 375q2 0 2 4q-4 -4 -2 -4z" />
<glyph unicode="E" horiz-adv-x="1155" d="M1120 14l13 -24q3 -7 -2 -17.5t-13 -15.5q-15 -6 -37 -6q-4 0 -4 2v4l17 14q8 8 0 21q-12 15 -27 18q-10 0 -14 -2l-19 -12q-40 -27 -88 -21q-1 0 -2 1t-2 1q-4 9 2 9l41 16q6 0 10 4q4 8 4 10q0 9 -6 9q-41 14 -69 12q-16 -1 -70 -10q-6 0 -6 -13l8 -20v-12 q0 -11 -10 -11q-8 0 -8 4q-21 46 -80 43q-42 0 -82 -6q-13 -3 -41 -8t-43 -8q-18 -4 -57 -21q-11 -4 -11 -18v-31q0 -12 -12 -16q-18 -7 -25 6q-5 5 -14 23q-9 11 -12 8q-4 -8 -4 -10l2 -80v-56l-6 -8q-1 -3 -6.5 -0.5t-6.5 6.5l-6 21l-4 28l-12 97q0 6 -8 6l-4 -4 q-1 -2 -2.5 -7.5t-2.5 -7.5l-12 -18q-4 -5 -12.5 -4.5t-11.5 6.5q-5 12 -15 29q-7 13 -20 16q-22 3 -43 0q-50 -11 -58 -12q-4 -2 -10 4q-2 2 1 5.5t7 4.5q10 3 32 8.5t32 8.5q9 1 35 12q2 0 8 6q3 7 0 10q0 1 -3 3.5t-5 2.5l-35 -12q-20 -8 -33 -4q-8 1 -10.5 1t-10.5 -2.5 t-10 -2.5q-12 0 -14 6q-3 3 -1 8.5t7 7.5q19 12 37 15q32 3 57 12q19 8 19 25q0 26 -2 38l-15 107l-2 23q-1 29 -6.5 93.5t-5.5 100.5l-2 27q3 39 -27 55l-12 12q-15 15 -13.5 36t19.5 34q15 10 17 12q3 3 1 9t-5 6q-7 3 -35 8l-4 4q0 8 2 10q6 6 8 6l26 6q2 0 4.5 3t2.5 6 q3 3 -2 8q0 6 -9 6q-36 -6 -69 -29q-6 -5 -11 -18t-6 -15q-6 -6 -10 -2q-11 6 -13 17.5t7 19.5q14 10 27 17q12 6 34.5 15.5t24.5 10.5q8 4 10 6q9 3 14.5 11.5t4.5 17.5q-5 34 -9 135q-4 70 -10 103q-3 17 -8 74t-12 87q-32 122 -39 138l-6 30q-4 22 -27 25q-35 4 -63 -2 q-40 -11 -86 -8q-5 0 -5 4q0 8 5 8q4 2 12 2q45 10 80 10q25 0 51 13q11 6 12.5 21t-6.5 22q-4 4 -10 4q-3 1 -8.5 1t-8.5 1q-4 0 -12 8q-4 7 2 16q1 1 2 2.5t2 2.5t2 1q29 14 25 56q-2 12 -2 33q0 12 2 16l8 6q9 4 14 -6l7 -37q0 -13 4 -33q4 -12 16 -12q13 -3 19 6 q3 3 15 18t21 21q1 3 14.5 28.5t12.5 41.5q0 2 1 5t1 5q3 14 16 14q12 -4 15 -14q1 -5 2 -16.5t2 -16.5q2 -18 2 -53q4 -21 22 -21h17l192 31q13 4 43 8q30 5 76 15l57 12q34 10 80 10q7 2 23 -2q7 0 14.5 -6t7.5 -12q3 -15 -6 -27q-25 -28 -61 -31q-21 0 -33 -2 q-25 -4 -43 4q-37 10 -70 7q-11 0 -69 -5q-4 0 -4 -2q0 -8 6 -8t18.5 -1t18.5 -1q95 3 211 -14q1 0 3 -1t3 -1q17 -7 22 -21q6 -24 -16 -37q-13 -9 -19 0q-17 17 -38 11l-91 -25q-29 -12 -61 -2l4 8q4 8 -2 8l-10 5q-63 0 -125 -9q-11 -2 -49 -6.5t-58 -9.5q-11 -3 -18 -10 q-4 -4 -2 -6l4 -9l4 -2q76 -7 131 6q46 10 58 9q2 0 2 -4v-7q-8 -6 -25 -10q-39 -6 -102 -33q-30 -13 -47 -28q-15 -19 -15 -35q4 -28 4 -43l8 -76v-16q5 -35 7 -76t2.5 -90.5t1.5 -77.5v-65q0 -9 4 -21q2 -10 18 -18q24 -3 49 0q26 4 96 11.5t107 14.5q28 4 39 4q14 1 41 2 t41 2q29 0 41 -4q14 -5 14 -16q-4 -12 -6 -14q-11 -10 -18 -13q-5 -2 -15.5 -4t-15.5 -4q-9 -3 -14 -8q-2 -2 -2 -10l4 -2q40 0 92 10q36 4 59 4q15 0 21 -4q3 0 6.5 -3.5t3.5 -6.5q4 -7 -4 -15q-12 -12 -29 -12q-11 0 -14 6q-15 15 -35 15q-2 0 -6 -0.5t-7.5 -0.5t-6.5 1 q-38 0 -60 -25q-23 -29 -74 -29q-1 0 -18 11h-20q-54 3 -101 -17q-22 -8 -98 -31l-37 -12q-28 -10 -25 -37l7 -59q5 -30 16 -88.5t16 -87.5q14 -94 17 -119q8 -67 10 -96q3 -24 31 -27q10 0 31.5 -1t31.5 -1q101 3 195 18h6q118 10 207 5l26 -7q32 -11 37 -34q5 -13 19 -27 q22 -22 26 -27zM770 1516q-2 0 -2 -5q0 -4 2 -4q5 -1 11.5 -2.5t11 -2.5t6.5 -1q5 -1 11 -1.5t9.5 -1t7.5 -1.5q3 0 7 3.5t4 6.5q1 3 -1.5 8t-5.5 7q-8 4 -14 4q-21 -3 -47 -10zM377 1393l14 -2q51 6 156 14q4 0 6 2q33 6 102 6q36 0 54 -6q31 -13 73 4q2 2 2 4q0 4 -2 4 q-6 6 -30 11q-95 6 -97 6q-37 4 -108 4h-53q-35 2 -111 -23q-5 -3 -10 -12q-2 -2 -2 -10q1 0 3 -1t3 -1zM219 1397q0 -6 3.5 -10.5t8.5 -4.5q7 0 13 5.5t6 11.5q-3 12 -17 12q-11 -3 -14 -14zM246 1311q3 -2 6.5 1t3.5 7q0 10 -10 10q-3 1 -6.5 -2t-1.5 -6q0 -10 8 -10z M389 1303l4 -3q12 6 13 7t-2 2q-5 2 -11 0q-7 0 -4 -6zM266 1231v14q0 17 -2 27q0 6 -8 6l-4 -4q-6 -23 8 -47q2 0 4 -2q0 1 1 3t1 3zM342 846l2 4l-2 22q0 3 -2 5q0 -1 -1 -4t-1 -5v-14q0 -4 4 -8zM354 782l-4 9q-4 -4 -4 -9t1 -15t1 -15l2 -4q4 0 4 4v30zM436 692 q7 1 23 1.5t28 1.5t23 5q40 10 47 11q9 2 28 6.5t33.5 7t28.5 2.5q31 0 96 21q9 0 5 8q-3 2 -5 2h-41q-2 0 -24.5 -3t-36.5 -5q-6 0 -19 -1t-20 -1q-32 0 -106 -17q-28 -7 -52 -16q-4 -2 -12 -10v-11q0 -6 4 -2zM561 653v4q-19 3 -41 -8q-3 0 -13.5 -1t-17.5 -2.5t-12 -6.5 q25 0 43 10zM287 545q2 2 2 8q0 4 -4 8q-3 2 -6.5 -2t-2.5 -8q0 -5 4 -7t7 1zM840 55q1 0 2 1t2 1q-2 2 -4 2q-47 4 -70 0q-8 -4 -4 -8t4 -2q6 0 18.5 1t18.5 1q6 1 17 2t16 2z" />
<glyph unicode="F" horiz-adv-x="870" d="M358 -61v86q0 1 1 3t1 3q6 3 9 -4q7 -16 14 -41q3 -5 6 2l2 20q-15 86 -22 146q-17 108 -17 116q-4 126 -4 191q0 117 -6 157q-2 12 -2 39q0 20 22 29q7 0 15 4q86 19 221 15q25 0 49 -3q25 14 41 25q6 4 6 14q0 7 -4 11q-3 11 6 14q3 1 10.5 2t10.5 2l14 8q6 6 4.5 16 t-8.5 13q-6 4 -18 8l-60 6h-55l-102 -6q-46 0 -93 -6q-16 -2 -49 -2q-19 0 -26 22q-5 15 -5 17l-12 129q-6 110 -18 217q-1 8 -2 24t-2 23q0 27 22 35q102 33 109 35q61 13 147 37q38 11 64 0q7 -2 20 2q41 14 84 20q6 0 10 4q7 7 7 10q0 2 -3 4.5t-4 2.5q-32 9 -39 16 q-6 7 -20 2q-18 -4 -27 -8q-32 -11 -69 -8q-4 1 -13.5 2t-13.5 2q-27 6 -82 6q-6 0 -18.5 1t-18.5 1l-4 2q0 6 6 6q55 19 107 19q5 1 16.5 1t16.5 1l118 18q75 8 113 0q11 -4 16 -2q7 0 15 4q10 3 6 14l-3 4q-3 4 -5 5l-21 2q-9 -1 -26.5 -4.5t-26.5 -4.5q-6 -1 -8 1.5 t0 7.5q2 14 0 17.5t-12 6.5q-5 1 -15.5 4t-15.5 4q-48 3 -86 -2q-29 -6 -86 -10q-51 -2 -148 -10q-10 0 -26 -4q-10 -1 -32 -5t-32 -5q-16 -3 -65 -7q-30 0 -33 29v37q0 41 -2 61q0 11 -2 15q-3 6 -8 6q-7 4 -11 -4q0 -2 -1 -8t-1 -9q0 -54 -14 -129q0 -6 -4 -14 q-6 -6 -8 -6q-9 0 -11 2q-4 9 -17 31t-17 36q-10 25 -47 80q-5 9 -15 4q-4 -4 -8 -12q-5 -15 2 -33q2 -5 9 -18.5t9 -20.5q19 -42 23 -55q9 -21 -4 -43q-28 -45 -31 -96v-10q-4 -44 -28 -64q-3 0 -3 -4q0 -8 3 -8q22 -6 26 -31v-16q3 -78 12 -158q11 -94 13 -108 q1 -8 9.5 -64.5t14.5 -85.5q1 -5 12.5 -64t22.5 -88q3 -8 8 -49q2 -16 2 -49q0 -79 4 -102v-23q4 -155 11 -215q2 -16 2 -49q1 -16 4 -48.5t4 -49.5q0 -5 1 -16t1 -17q5 -90 47 -289q9 -26 14 -35q0 -2 9 -2q3 1 2 4q0 19 -2 27q-32 176 -33 232l-6 36q-4 33 -4 99 q0 22 16 30t16 27q0 27 2 39q3 0 5 2v-6q2 -73 14 -217q1 -11 6 -13q4 4 4 11q1 13 2 37.5t2 37.5q0 1 1 3.5t1 3.5q2 -2 2 -7l6 -75q3 -30 9 -70q4 -34 8 -47q0 -6 4 -10l4 -2q8 4 8 6q1 15 -8 69q-8 50 12 72q8 11 0 27q-1 3 -4 9t-4 9q-9 15 -2 33q1 2 2 7.5t2 8.5 q0 6 6 6q2 0 2 -4q11 -107 11 -114q0 -35 10 -80l6 -15q4 -4 10 -4q2 0 5 3t3 4q4 12 4 20q-1 11 -2 33.5t-2 32.5zM573 1452l-118 -22q-10 -1 -25.5 -3t-21.5 -2q-1 0 -2.5 1t-2.5 1l3 3l73 18q78 16 117 20q6 0 6 -6l-4 -4zM307 1436l-4 4q-4 4 2 4q16 8 39 8q4 0 4 -4 l-2 -2q-29 -8 -39 -10zM377 1376v2q40 0 63 -2l2 -2q0 -4 -4 -4q-29 -2 -96 -10q-14 -2 -47 -2q-2 0 -3.5 3.5t-0.5 4.5q0 6 6 6q16 4 25 4h55zM305 1305q-20 0 -20 10q2 4 6 8l4 4q2 0 10 4q10 1 50 8t63 7q3 0 63 6q3 2 5 0.5t1 -4.5q0 -2 -4 -2q-81 -30 -155 -41h-23z M217 1118q0 -25 -2 -37q0 -2 -2 -4q0 1 -1 2t-1 2v84q0 4 2 4l2 -2q0 -8 1 -24.5t1 -24.5zM129 829l-4 -6q0 1 -1 2t-1 2q-10 35 -10 41q0 30 -8 84.5t-9 71.5q-4 32 -8 96q0 9 6 6q2 -2 2 -4q10 -23 10 -47q1 -39 21 -213q0 -12 2 -22v-11zM260 879v-48q0 -1 -1 -2t-1 -2 q-4 4 -4 7q0 16 -1 48t-1 48q0 2 1 5t1 5q4 -4 4 -12zM494 748h38q4 0 9 -5q-2 -2 -4 -2q-3 0 -8.5 -1t-8.5 -1q-32 0 -102 -8q-6 0 -6 6q2 2 4 2l14 6q9 0 30 1.5t34 1.5zM311 160v-27q0 -6 -6 -6l-4 4q0 6 -4 14l-6 76q-1 12 -0.5 46t-1.5 46q-4 29 -4 90q0 5 2 7t4 -2 q8 -62 10 -91q1 -11 3 -58t7 -71q1 0 1 -14z" />
<glyph unicode="G" horiz-adv-x="962" d="M502 1587q21 6 43 0q6 0 18 -8q-18 2 -57 2l-4 2l-1 1q-3 2 1 3zM938 473q3 -1 3.5 -7t-1.5 -7q-2 -2 -14 -8h-6q-45 16 -91 -2q-16 -8 -41 0q-30 12 -59 6q-13 -1 -22 -10t-11 -21q0 -7 -0.5 -19t-0.5 -22t1 -18l6 -109q0 -12 1.5 -36t1.5 -36q0 -27 10 -47 q12 -14 4 -37q-19 -42 -8 -110q0 -8 -2 -10q0 -2 -7 -9t-14 0l-10 13l-8 8q-4 0 -4 -8l-9 -60q-2 -6 -10 -18q-2 -2 -10 -2q-6 0 -6 6q-4 6 -4 20l-2 50l-9 12q-9 9 -20 -2q-12 -12 -14 -15q-16 -19 -45 -16q-18 0 -54 4q-22 5 -49 2q-55 -7 -125 25q-20 9 -33 28 q-33 36 -47 66q-9 19 -14 25q-11 19 -27 24q-23 10 -30 41q-1 7 -4 18t-4 15q-2 37 -25 100q-25 78 -37 152q-18 130 -18 211q1 26 2 77t2 76q0 25 4 37q6 32 -23 51q-22 17 -26 52q-1 13 -4.5 39.5t-4.5 41.5q0 27 3 54l8 76l12 79q5 29 27 66q45 69 59 90q4 9 8 27l6 37 q0 5 11 10q3 3 9 1t9 -7q1 -2 2 -6t2 -5l4 -4q4 -4 10 -4q38 12 66 37q58 58 139 64q2 0 43 12q12 4 21 -2q12 -8 18 -8q59 -10 109 -15l-23 33q33 -3 55 -31q24 -26 62 -53q78 -53 121 -149q19 -48 16 -111l-4 -10q-2 -9 -12.5 -13t-18.5 2q-10 10 -12 17l-14 47 q-4 16 4 27q7 14 0 34q-29 65 -88 109q25 -89 28 -105q10 -64 2 -118q-5 -20 5 -47q5 -12 7 -20t2 -11t-3 -13t-4 -14l-7 -16q-3 -9 -14 -13t-20 1q-27 19 -31 36q-6 54 -6 56q-4 46 -4 69q0 36 -13 125q0 2 -1 8t-1 9q-9 56 -63 84l-29 12q-30 4 -43 8q-16 0 -20 -4 q-1 -2 -2 -7.5t-2 -8.5l-7 -9q-4 -7 -12 5l-8 8l-6 8q-19 19 -45 0q-4 -4 -6 -8q-3 -3 -3 -9.5t3 -9.5q17 -14 40 -43.5t31 -38.5q2 -2 2 -10q0 -3 -5 -3.5t-9 1.5q-29 18 -41 35q-16 21 -27 29q-5 6 -14 5t-14 -7q-4 -10 -8 -15q-26 -67 -29 -127q-4 -119 6 -200 q2 -17 2.5 -46.5t1.5 -39.5q0 -32 2 -46q8 -61 8 -188q0 -82 23 -172q11 -46 20 -74q6 -18 29 -18q48 -3 82 24q1 2 6 6t6 5q20 10 41 10q6 0 19.5 -1t19.5 -1q47 -4 74 8q6 2 16 2q11 -1 99 10q38 3 73 -8q26 -9 35 -16q5 -8 16 -15q12 -6 23 -16t23 -22.5t18 -18.5z M311 1499q-2 -4 2 -4h4l23 12q4 7 0 9q0 2 -2 2t-2 -2q-19 -8 -25 -17zM215 1440v-4l4 -2l6 6l-2 2q-6 0 -8 -2zM264 1368q-2 -10 -3.5 -27.5t-2.5 -21.5l2 -21q0 -2 1 -5.5t1 -4.5q2 0 6 8q6 67 35 123q2 4 2 11l-2 4h-6q-27 -27 -33 -66zM197 1364v4q0 -1 -1 -3t-1 -3 q-14 -7 -17 -19q0 -8 2 -10q0 -2 4 -2t4 2q7 9 7 29zM104 1178l7 49q12 71 22 110q0 9 -4 9q-3 0 -6 -3q-40 -46 -47 -116l-6 -82q-1 -8 -2 -24t-2 -25l12 -123l4 -2l4 2q6 14 6 43l6 108zM147 1161v17q0 6 -2 10q-3 -1 -3 -6t-1 -6v-15l2 -4q3 0 4 4zM252 756v-54 q0 -21 12 -57q0 -8 4 0q6 18 6 19v12l-16 78q0 1 -1 3q-1 5 -3 3zM123 578q0 -1 6 -19q-1 18 -2 50t-2 50q0 3 -2 5q-3 -1 -4 -7q1 -14 2 -39.5t2 -39.5zM133 524l4 4q0 18 -8 29q0 -5 1 -14.5t1 -14.5q0 -1 1 -2t1 -2zM256 457q-4 -8 -4 -17q3 -18 18 -30q5 -5 11 -2 q1 0 3.5 2t2.5 4q4 11 2.5 45.5t-0.5 44.5q0 9 -6 6q-2 -2 -2 -4q-2 -6 -6 -18.5t-5 -16.5zM586 158v39q0 35 -4 53q-10 79 -13 135q0 15 -6 33q-1 7 -8.5 11.5t-15.5 2.5q-26 -8 -39 -16q-3 -2 -21 -8q-2 -2 -10 2t2 14l14 8l39 19l21 10q13 5 6 12q-1 1 -2 2.5t-2 2.5 t-2 1q-30 15 -64 6q-27 -9 -59 -6q-6 0 -10 -2q-14 -2 -23 -13t-8 -24l8 -32q13 -62 27 -115q4 -26 8 -37q3 -18 16 -35q51 -51 115 -90q4 0 6 -2q6 -2 13 2t8 10q4 12 4 17zM279 446q-6 -3 -9 5v20q1 -3 4.5 -9t4.5 -9v-7zM342 385q-1 3 -3 -3q-2 -7 1 -15l14 -58l6 -12 q4 -4 9 -4q6 0 2 4q0 10 -6 31q-1 4 -4 13t-5.5 17t-5.5 15q-3 10 -8 12zM215 322v6q0 3 -1.5 4.5t-2.5 -0.5v-4zM408 12v6q-72 117 -76 125q-4 9 -17 13q-17 8 -26 24l-13 19q-31 35 -43 80q-7 25 -16 36q0 -66 33 -137q5 -15 22 -49q14 -38 58 -86q19 -25 59 -35 q3 -3 10 0q5 0 9 4zM569 49q3 1 3 6t-3 6q-3 7 -8 9q-84 47 -141 88q-5 3 -19 8q8 -18 45 -60q23 -26 58 -47q18 -13 45 -16q11 -3 20 6z" />
<glyph unicode="H" horiz-adv-x="1046" d="M182 166l-4 72q-1 7 -1.5 27.5t-2.5 31.5q-3 23 -8 145q-2 8 -2 23q-4 23 0 92l2 4l4 4q8 0 8 -4q15 -71 17 -117q0 -45 2 -65q5 -37 10 -164q1 -14 1 -39t1 -45.5t4 -38.5v-22v-86v-23q3 -21 23 -27q16 0 28 -12l15 -10q2 -1 7 -0.5t7 2.5q1 2 2 5.5t2 4.5q0 4 -2 6 q-11 28 -23 95q-6 31 -10 92q0 35 -2 53q-10 69 -6 174l2 4q0 6 3 1q0 -1 1 -3q28 -108 31 -242q0 -5 -1 -15t-1 -15q-3 -22 6 -37q17 -28 20 -62q1 -11 11 -69l12 -70q0 -6 8 -6q4 0 8 4q6 8 6 37q1 41 -1 87t-6 102t-5 87l-2 5q-6 29 -6 88q0 57 -4 86q-6 52 -6 102 q-1 15 -1 43t-1 51t-4 43q-2 2 2 10t10 11q16 4 26 4q34 0 64 6q75 10 131 0q13 -2 37 2q27 10 53 10h98q11 0 15 -2q6 -2 12 -8t6 -10q2 -10 2 -27q1 -24 2 -71t2 -70q0 -46 2 -66q5 -39 5 -92v-92q0 -32 4 -98q4 -34 8 -47q10 -38 47 -41q10 0 14 -2q10 -5 13 -11 q2 -8 2 -26q3 -15 -15 -19q-14 0 -10 -14q5 -25 10 -31q3 -3 10.5 -2.5t10.5 4.5q6 12 6 15q1 7 2 23t2 24q10 59 6 180q-4 29 -2 43q3 43 0 86l2 4q8 4 8 -2l13 -53l30 -166q5 -25 9 -60q1 -7 0 -21.5t0 -21.5q1 -10 13 -20.5t15 -17.5q8 -12 17 -21q1 -3 7 -3.5t7 1.5 q9 9 6 14q0 12 -6 21q-22 45 -19 94v21q4 98 0 294q0 5 -1 16t-1 17l-6 70q-3 45 15 78q8 14 2 32l-9 19q-20 55 -22 78q0 7 -3.5 20t-4.5 17q-2 5 -2.5 7t1 4.5t3.5 3.5t8 5q8 8 2 14q-24 21 -27 52l-10 90q-28 220 -33 286q0 7 -2 11q-6 37 -6 75q0 5 -1 14t-1 13 q-2 18 -6 50t-7 58t-5 50q-1 22 -15 112q-3 36 -12 74q-2 10 -10 21q-5 6 -14 6t-15 -6q0 -1 -3.5 -6t-4.5 -9q-11 -49 -4 -80l8 -43q5 -22 2.5 -35.5t-22.5 -37.5q-3 -3 -9 -15q0 -4 -4 -4q-1 -3 -4 -2q-4 4 -4 6v23q11 33 4 57q-3 8 2 20t4 17q-1 3 -3 12.5t-2 12.5t1 12 q2 6 2 16q0 6 -7 10.5t-13 0.5q-2 -1 -12 -11q-8 -12 -11 -24q-12 -66 -12 -103q0 -23 -4 -69q-10 -68 0 -158q0 -15 4 -43q5 -48 8 -64q15 -97 15 -118q0 -4 1 -11.5t1 -11.5q3 -28 8 -82t8 -80q0 -20 -4 -30q-6 -16 -21 -19q-53 -12 -106 -12q-57 3 -115 -6q-55 -7 -102 4 q-19 5 -43 2h-27q-23 -2 -32.5 5.5t-10.5 29.5v16l-12 201q-1 4 -2 13t-2 13l-6 76q0 23 -2 33q-5 30 -9 119q-1 12 -2 37.5t-2 38.5q-6 55 -6 114v109q0 18 -8 31q-14 9 -18 8q-12 -4 -17 -4q-7 -3 -14 4q-5 9 -10 12q-2 4 -9 4q-12 0 -12 -8q-4 -12 -4 -16q1 -8 1.5 -33 t2.5 -39q6 -41 6 -168q2 -98 2 -299v-43l-2 -4q-2 0 -6 8q-1 7 -4 25t-4 28q0 29 -6.5 81t-7.5 65l-13 118q-8 54 -8 82q-4 108 -2 162q2 8 -2 23q0 8 -8 4q-8 0 -8 -2q-15 -27 -15 -58q-2 -31 -2 -92v-59q0 -1 -1 -2t-1 -2l-4 4l-10 47l-12 47l-7 16q-3 5 -9 7.5t-9 -0.5 q-8 -3 -8 -13v-20q16 -74 24 -139q16 -155 17 -175q0 -52 4 -79q6 -59 6 -115q5 -101 8 -119q2 -8 2 -27q2 -33 2 -98q0 -25 -6 -34.5t-31 -16.5q-2 0 -6.5 -2.5t-7.5 -3.5q-9 -5 -4 -15q6 -6 8 -6q6 -2 21 -2l4 -2q0 -2 -2 -4q-1 0 -13 -2t-18 -4t-18 -10q-4 -2 -3.5 -9 t3.5 -10q11 -7 20 -4q6 1 18.5 4t18.5 4t12 -3.5t8 -10.5q2 -4 2 -16q2 -18 2 -60q-1 -64 6.5 -180.5t8.5 -144.5q0 -11 2 -17q4 -52 8 -80l12 -79q0 -8 13 -25q8 -4 14 -4q11 0 16 14l2 21q0 23 -1 67.5t-1 67.5q0 15 -4 43zM842 1239l-4 -2l-4 2l-5 4q0 45 2 53l5 2 q4 0 4 -2q6 -9 6 -41zM160 713l-4 4v26q0 2 1 5t1 4q2 -2 2 -4q2 -8 2 -19v-14zM758 666h-15q-8 0 -32 4q-1 0 -2 1t-2 1l4 4l47 12q2 0 5 -3.5t3 -6.5q1 -4 -2 -8t-6 -4zM637 657h-14q-11 1 -35 4.5t-37 4.5q-4 0 -4 4l2 4q11 4 37 8q24 7 51 -12q6 -6 4 -11q-2 0 -4 -2z " />
<glyph unicode="I" horiz-adv-x="780" d="M758 1520q3 -11 -1.5 -23t-13.5 -16q-18 -6 -20 -6q-17 -3 -33 0q-64 11 -131 -27q-21 -12 -24 -39q0 -19 -1.5 -59t-1.5 -60q-4 -94 -4 -141l-2 -16q3 -39 3.5 -111.5t2.5 -101.5q0 -157 3 -310q0 -23 1 -71.5t1 -73.5q0 -10 2 -29.5t2 -29.5q4 -54 4 -82 q0 -33 6.5 -95.5t7.5 -76.5q0 -3 1 -9t1 -8q7 -26 29 -31q22 -4 31 -8q39 -17 41 -18q20 -10 20 -35q3 -11 -8 -18q-5 -5 -15 0q-2 2 -8.5 11.5t-13.5 10.5q-8 0 -10 -2q-2 0 -2.5 -3.5t0.5 -4.5q9 -16 8.5 -28.5t-6 -19.5t-17.5 -18q-16 -12 -26 -18q-8 -4 -15 0 q-3 0 -7.5 3t-6.5 3q-17 -7 -25 -20q-11 -22 2 -41q14 -19 19 -27q7 -7 -2 -21q-3 -3 -10.5 -4t-10.5 2q-7 5 -16 23l-12 53q-1 5 -2 15.5t-2 15.5q-4 26 -15 33.5t-39 5.5q-11 0 -20 -6q-8 -4 -8 -13v-26v-17q0 -5 -6.5 -9t-10.5 -3q-8 4 -12 8l-6 15q-1 6 -2 19t-2 20 q-4 22 -27 22q-57 0 -86 2q-32 0 -49 -20q-6 -6 -8 -6q-13 0 -17 2q-4 1 -7.5 4.5t-7.5 9t-7 8.5q-11 11 -25 8q-28 -7 -43 -22l-18 -19q-9 -4 -17 4q-9 5 -4 15q1 1 5 6t6 6q52 41 94 51q92 26 147 33q29 4 43 12q9 6 13 17q0 5 1 13.5t1 12.5l-2 78q0 46 -13 68 q-7 12 -4 32q4 16 4 27q3 39 -2 70q-3 25 -10 75.5t-10 75.5q-4 50 -4 76q-4 254 -4 379l-7 98q0 12 -1 38t-1 38q-1 21 -2 62.5t-2 62.5q0 32 -10 70q-1 6 -7.5 11t-12.5 5q-21 0 -33 -2l-53 -6q-18 -3 -56.5 -8.5t-56.5 -8.5q-14 -2 -47 -14q-8 0 -12 8q-5 5 0 15 q8 11 24 14q97 18 100 18q16 1 44.5 6.5t35.5 6.5q12 0 19 10v6l-2 4l-66 6q-26 0 -45 13q-6 3 -7.5 11.5t1.5 12.5q16 23 41 23q33 0 49 -4q48 -9 84 12q11 7 21 0q12 -6 36 -6q19 0 27 14l18 29q1 1 5 2t6 2h4q6 -3 4 -8l-6 -21q0 -4 4 -4q16 1 20.5 0t19.5 3t19.5 5.5 t19 7t19.5 7.5l25 26q3 7 8 -2q2 -2 2 -4q2 -4 2 -12q4 -15 12 -15q18 2 56 2q35 5 43 5q23 2 57 -9q27 -10 35 -32zM532 129q0 60 -8 107q-1 7 -2 21.5t-2 21.5q-1 38 -7 113.5t-7 113.5v12q-4 21 -5 44.5t-1.5 56t-1.5 45.5q0 119 -4 180l-7 145v207l-2 190q0 4 -1 13 t-1 14q-2 6 -8.5 9.5t-13.5 2.5q-23 -8 -23 -26q-3 -78 4 -131q7 -65 7 -113q0 -84 6 -125q2 -23 2 -65q1 -15 2.5 -99t7.5 -129v-32q0 -30 2.5 -61t7.5 -75.5t6 -58.5q2 -36 10 -103t9 -81q15 -112 22 -179q1 -3 4 -9t4 -9zM354 1356q0 2 1 7.5t1 8.5q0 13 -2 19q0 6 -8 6 l-4 -4q-4 -12 0 -37q3 -6 8 -4q4 0 4 4zM379 1341v31l-4 4q0 -1 -1 -2t-1 -2l-2 -63q2 -2 2 -4l4 4q0 22 2 32zM473 125v16q-15 126 -16 156q-2 24 -7.5 71t-7.5 70q0 23 -6 31q-14 32 -8 70q0 29 -2 43q0 3 -6 96q0 39 -2 59q-4 74 -4 109q0 48 -15 293q0 2 -4 6v-4 q-2 -27 -2 -76q0 -89 -6 -174q-4 -31 0 -96q0 -26 4 -76q0 -37 1 -109t1 -108q0 -55 8 -80q2 -8 2 -23q5 -129 5 -141q-1 -23 2.5 -67t3.5 -62l2 -4q4 -14 16 -14h27q5 0 9.5 4.5t4.5 9.5z" />
<glyph unicode="J" horiz-adv-x="710" d="M688 422q2 -23 2 -66q0 -11 -6 -20q-5 -12 -15.5 -14.5t-19.5 6.5q-13 10 -16 26q-1 10 -4 28.5t-4 25.5q-1 15 -5.5 46t-5.5 46q-2 28 -6 59.5t-9.5 69.5t-8.5 59q-5 47 -13.5 100.5t-19.5 117t-16 98.5l-6 38q-1 1 -2.5 5.5t-2.5 5.5q0 -2 -1 -5t-1 -4q1 -14 2 -44 t2 -44q3 -41 9 -86q2 -27 10 -86q2 -22 5 -46t7 -53t6 -46q0 -5 1 -16.5t1 -16.5q3 -39 9 -80q2 -16 2 -49q2 -70 2 -207q0 -19 -9 -37q-12 -25 -16 -67q0 -2 -12 -76q-3 -21 -25 -27q-19 -3 -82 -26q-81 -29 -121 -31q-24 0 -38 2q-29 3 -50 21q-2 1 -59 47l-12 8h-6l-2 -4 q3 -36 16 -74q3 -6 8 -26q4 -4 -2 -9q-2 -2 -10 -2q-11 7 -14 17q-13 17 -15 28q-9 23 -26 82q-17 52 -33 70q-12 15 2 35l22 24q11 14 4 35q-4 7 -11 22.5t-11 22.5q-37 75 -62 162v10q1 2 7 8q2 3 7 2.5t7 -2.5l8 -8q11 -19 17 -33q26 -65 43 -100q5 -12 34 -68 q8 -17 31 -20q15 -4 21 -16q12 -18 55 -68l20 -18q44 -41 115 -31q17 3 27 16q12 24 14 37q7 81 0 135l-2 2l-4 -2q-15 -58 -21 -118l-6 -21q-3 -14 -20 -14q-11 3 -17 12q-8 12 -2 20q19 51 29 111q17 82 20 178q3 108 3 217q0 102 -3 207q0 12 -2 37t-2 39l-6 86 q-1 13 -1.5 45.5t-1.5 55.5t-5 44q0 26 -2 55t-5.5 64.5t-4.5 54.5v27q4 26 4.5 35t-2.5 34t-4 33q0 38 -25 66q-2 1 -5 6t-5 6q-3 4 0 10.5t8 6.5h16q12 -2 23 -17l23 -30q-1 8 -11 59q-2 12 -2 37q0 8 10 18q6 6 16 5t13 -7l6 -10q2 -4 5.5 -12.5t5.5 -12.5 q25 -94 47 -133q4 -8 4 -16q49 -160 61 -248q3 -19 23 -117q4 -23 22.5 -122.5t26.5 -153.5q9 -57 26 -184q2 -13 6 -37.5t5 -32.5q5 -31 10 -89.5t8 -82.5zM424 1350q1 -11 3 -23.5t5 -27t4 -23.5q15 -128 15 -152q-2 -122 6 -368q1 -11 2 -32.5t2 -33.5q0 -26 1 -79t1 -79 q4 -40 4 -65l6 -70q0 -117 2 -174q0 -6 6 -6l4 4q19 62 19 117q0 123 -17 188q-2 4 -2 13q-10 64 0 112q9 35 0 70q0 11 -4 27q-22 217 -20 352q0 140 -10 243q-5 59 -23 140q-15 56 -20 67q0 -29 4 -43q8 -47 8 -102q0 -19 4 -55zM508 135q4 16 4 27q0 6 -4 14q0 6 -7 -6 l-3 -4q-16 -43 -45 -72q-2 -2 -5.5 -7t-5.5 -7q22 6 27 8q33 11 39 47zM362 45q23 4 33 10q-23 -4 -33 -10h-20q-34 -5 -84 10q-29 10 -37 11q21 -26 66 -33q42 -6 75 12z" />
<glyph unicode="K" horiz-adv-x="909" d="M883 78q19 -36 -13 -58q-4 0 -6 -2q-14 -9 -15 -13t5 -21l6 -23q0 -13 -8 -18q-12 -8 -21 -2q-24 18 -26 20q-42 45 -96 109l-97 118q-41 51 -53 62q-13 15 -28 30t-34.5 33.5t-29.5 28.5q-2 2 -10 2q-7 0 -4 -14l6 -27q0 -2 -6 -8q-3 -3 -8 -3t-7 3l-24 31l-15 20 q0 2 -6 2q-2 -2 -4 -2q0 -1 -1 -3t-1 -3q4 -74 -2 -102q-4 -132 12 -211q0 -15 2 -21q0 -4 -3.5 -8t-6.5 -4q-8 0 -14 6l-8 14l-7 27q-2 18 -8.5 64t-7.5 71q-1 15 -4 45.5t-4 46.5q-3 7 -6 4q-6 0 -6 -6q-5 -50 -5 -61v-80q-3 -69 7 -119q3 -8 -9 -12q-10 -6 -14 2l-12 18 q-16 37 -19 74q-10 118 -10 141q0 67 -24 154q-4 8 -11 4l-2 -4l-2 -16q9 -54 10 -70l13 -82q8 -49 8 -113v-82q0 -32 -12 -90q-3 -15 -15 -24q-8 -4 -14 -4q-10 5 -8 12q3 33 -12 63q-9 23 -9 31l-32 225q-20 177 -23 218q-2 16 -7 44t-7 40q-19 99 -62 354q-4 25 -9 75.5 t-9 75.5q-2 12 -2 37q0 63 -8 115q-8 91 2 139q12 50 10 76q0 15 -10 102q-1 4 -2 13.5t-2 13.5q0 4 4 16q4 4 8 4q5 3 10 -2q6 -6 10 -18q3 -23 9.5 -62.5t11 -73t4.5 -63.5q0 -37 2 -55q4 -26 8 -37l2 -2l2 2q3 60 12 119q3 40 3 78v37q0 47 43 37q18 -6 36 -9 q16 -4 27 -4q33 -3 41 25l12 37q2 3 7.5 8t7.5 8h10q6 -6 6 -8q0 -11 -4 -27q-3 -14 -8 -76q0 -90 6 -178q4 -51 4 -153q0 -22 2.5 -45.5t7 -55.5t6.5 -45q0 -1 2.5 -3.5t3.5 -4.5q2 -2 7 1t6 7q66 160 78 197l36 100q5 14 16 40.5t19 48t13 40.5q2 10 10 25q2 5 7.5 8 t8.5 0q8 -4 8 -12q3 -24 0 -49q0 -11 -8 -31q-24 -59 -37 -141l2 -5q9 4 9 5q8 12 10 20q42 111 67 234q6 31 9 59l6 20q3 9 12 9q12 0 12 -9q4 -16 4 -22q0 -16 13 -29q17 -17 10 -45q-4 -21 -31 -86q-1 -4 -4.5 -8.5t-3.5 -5.5q-59 -105 -117 -264q-20 -62 -32 -93 q-19 -66 -23 -84q-2 -12 -10 -41q-3 -14 -17 -20q-15 -6 -22 -23l-17 -38q-12 -27 -6 -54q10 -34 21 -61q1 -2 12 -25l29 -32q143 -168 209 -236q80 -77 163 -188q4 -5 78 -97q15 -20 17 -22zM340 905q36 71 68 152q16 51 18 73l-94 -206q-2 -4 -2 -17q0 -4 2 -4q4 -7 8 2z M203 739l8 6q8 16 8 41q-5 63 -6 66l-31 197l-2 4q-4 0 -4 -4q0 -47 -2 -70l2 -49q3 -101 23 -187zM229 662v12q0 6 -6 6l-4 -4q-8 -8 -4 -21l8 -6q2 2 4 2q0 2 1 6t1 5zM662 229l24 -22q5 -15 23 -33q-6 22 -23 33q-30 64 -86 108q2 -3 5 -11t5 -11q9 -14 29 -37.5 t23 -26.5zM719 164q7 -20 20 -31q-3 17 -20 31zM752 121q6 -23 22 -33q-6 16 -22 33z" />
<glyph unicode="L" horiz-adv-x="733" d="M471 66h47q26 3 115 -11q10 0 26 -8q14 -7 11 -22q-2 -6 2 -10t10 -1q9 3 18 9q10 6 11.5 16.5t-6.5 19.5q-9 11 -33 19q-54 14 -97 14q-8 1 -32 1.5t-37 2.5q-84 8 -131 10q-9 0 -27 7q-17 3 -20 20q-15 67 -15 82q0 25 -2 37q-18 123 -20 211q0 4 -1 13t-1 13 q-4 40 -4 60q-6 97 -6 98q-6 48 -9 92q0 29 -2 43q-6 42 -10 125q0 17 -2 27q-2 20 -6.5 60t-7.5 72.5t-4 61.5q0 7 -2 11q-7 41 -11 151q-5 101 0 135q4 12 -2 21q0 5 -10 10q-4 4 -10 -2l-31 -37q-14 -17 -14 -35l-2 -4q-4 4 -4 6l-13 70q0 8 -6 14q-3 9 -12 9 q-8 0 -12 -11q-5 -5 -5 -10q0 -17 -20 -49q-2 -2 -4 -2q-4 0 -4 4q-9 23 -19 31q-11 7 -20 4q-6 0 -11.5 -7.5t-5.5 -13.5l7 -24q14 -63 12 -103q0 -12 1 -33t1 -32q0 -7 1 -21.5t1 -21.5l6 -60q2 -26 7 -78t7 -79q11 -88 13 -97q6 -40 6 -81q1 -11 2 -34.5t2 -35.5 q6 -47 6 -92q1 -19 1.5 -54.5t1.5 -65t3 -54.5q4 -70 4 -109q2 -39 2 -119q0 -32 -4 -98q0 -19 -18 -25q-18 -4 -25 -8q-3 -1 -8 -12q-4 -9 6 -14q12 -3 21 -9q6 -2 18 -10q9 -4 4 -14q-6 -6 -8 -6h-22h-21q-3 0 -6.5 -3.5t-3.5 -6.5q0 -10 10 -13l14 -2q6 -1 19.5 -2 t19.5 -2q8 -1 25 -2t25 -2q15 0 22 -18q2 -4 5 -13.5t5 -13.5l6 -8q5 -9 15 -4q4 2 8 6l6 14q1 5 2 14t2 13q6 6 10 6q5 0 9 -4q35 -71 39 -90q0 -9 8 -13q4 -4 8 -4q5 2 8 9q2 4 2 16q-2 12 -2 37q0 14 2 20q4 8 6 8q1 1 4.5 0.5t3.5 -2.5q13 -13 17 -14q10 -4 26 4 q8 3 19 10q15 11 18 25q6 30 35 27q2 0 6 1t6 1q13 4 13 16v10q0 13 12 13zM211 981v-12v-4q-4 0 -4 2q-1 10 -5 30.5t-5 30.5l-7 76l3 4q8 0 8 -6q8 -82 10 -121zM223 891v-33q0 -1 -1 -2t-1 -2l-2 2q-2 10 -2 31q0 8 4 8zM229 743v27q0 2 2 4q0 -1 1 -2t1 -2v-25 q0 -8 -2 -10q0 1 -1 3.5t-1 4.5zM205 324l6 -43q5 -110 10 -140q0 -4 -2 -6q-4 0 -4 6q-8 21 -8 54l-6 69q-4 24 -4 39q-3 38 -9 80q-7 69 -4 125q0 1 1 2t1 2q2 -2 2 -4q2 -17 8 -63.5t7 -71.5q0 -33 2 -49zM375 76l8 -4q5 -2 -2 -7l-6 -2h-10l-5 5q5 5 7 6q2 2 8 2z" />
<glyph unicode="M" horiz-adv-x="1067" d="M1036 43q0 -54 11 -102q0 -12 -3 -21q0 -3 -3.5 -6.5t-6.5 -3.5q-10 -3 -14 4q-8 12 -8 20q-9 46 -11 64q-4 31 -22 41q-33 22 -47 72q-23 76 -27 98q-22 123 -31 194q-16 110 -16 166q0 12 -2 34t-2 32l-6 49l-6 86q-2 10 -2 33q-1 27 -6.5 78t-6.5 63q0 4 -2 4 q-5 2 -8 -4l-6 -16q-7 -33 -17 -69l-22.5 -81t-19.5 -69q-11 -45 -47 -179q-7 -31 4 -53q2 -4 8.5 -18t9.5 -20t9.5 -16t13.5 -17q2 -3 12 -23q6 -17 20 -31q13 -9 13 -35q-1 -13 -11 -20t-24 -4q-9 1 -33 16l-47 39h-4q-6 -6 -6 -8q0 -10 2 -16l18 -27q17 -34 19 -51 q4 -12 -7 -19q-24 -14 -28 -16q-18 -7 -29 8q-5 7 -14 29q-7 10 -19 10q-25 0 -37 21l-8 14q-1 2 -4.5 8t-5.5 8q-21 15 -14 45q4 34 8 47q10 49 -29 72q-19 13 -22 35q-3 17 -19 33q-57 65 -116 161q-5 10 -46 68q0 2 -8 6q-3 0 -6 -4t-2 -8q1 -12 -0.5 -52t2.5 -50v-17 q-4 -61 -4 -276v-154q0 -11 1.5 -44t0.5 -52q0 -59 4 -88q0 -15 2 -21q7 -24 10.5 -68t6.5 -61q0 -8 -2 -10q-3 -12 -17 -12q-10 -3 -18 8l-4 14q-9 40 -13 103q0 35 -16 51q-7 7 -12 35v22l12 139q4 46 4 66q1 84 2 253t2 253q0 17 -1 49t-1 47q-5 37 -6 39q-20 61 -53 129 q-4 7 -10 4q-3 -2 -3 -4v-23q9 -90 15 -118q4 -23 26 -193q2 -27 2 -82l3 -207q0 -82 4 -125q6 -65 -2 -122q-1 -5 -2.5 -16t-2.5 -17v-23q-14 -60 -6 -106q0 -21 -18 -33q-9 -3 -20 0t-15 10q-8 16 -8 25q-13 92 -6 129q2 13 2.5 35t1.5 30l6 119v82l-6 162q0 30 -8 92 q-5 43 -16.5 129t-16.5 129q-1 14 -6 63t-7 80.5t-1 63.5v10q-7 39 -11 142q0 12 -8 36q-30 69 -57 105q-19 19 -8 51q4 12 16 12q13 0 18 -8q14 -24 25 -41q3 -6 10 -2q2 0 2 4t1 11.5t1 11.5q-2 24 17 55q9 21 35 21q7 0 16 -3l-6 33q0 3 2.5 8t5.5 5h10q10 -7 17 -17 q12 -20 34 -14q4 1 8.5 -2t4.5 -8l2 -11q-8 -44 20 -98q20 -46 33 -80q3 -9 12 -4q13 5 13 -2l-3 -23q-3 -29 13 -51l10 -18q14 -29 39 -87.5t39 -86.5q27 -58 57 -117q13 -24 36 -72t34 -69q14 -33 24 -43q1 -2 6.5 -1.5t6.5 3.5l14 30q74 218 102 314q15 70 17 80 q4 53 20 155q1 9 1 28t1 28q0 9 7.5 15.5t17.5 6.5q6 2 11.5 -4t2.5 -12l-10 -37q-4 -11 -8 -37l2 -8q4 0 4 2q30 22 57 78q11 22 11 53l2 53q0 12 1 34t1 32q0 17 10 37q6 6 14 6q3 1 6.5 -2t3.5 -6q0 -7 1 -20t1 -19q0 -60 3 -119v-4l4 4q-1 21 12 82q6 28 25 53 q15 18 30 21q-1 -1 -4.5 -8t-7.5 -11q-21 -32 -21 -88q1 -6 7 -8.5t10 0.5q3 1 9 5t9 5q7 0 15 -4q6 -4 6 -14l-19 -47q-8 -20 11 -25q9 -5 10 -6q8 -5 8 -19q-4 -22 -16 -32l-27 -27q-17 -17 -20 -43l2 -92q-1 -16 4 -88q15 -170 16 -205l6 -66l6 -108q0 -2 4 -6v6v141 q0 31 1 94t1 95l7 75l4 109q4 64 10 98l6 15q4 7 13.5 8.5t15.5 -4.5q5 -2 10 -13q8 -12 2 -20q-22 -24 -22 -72v-43q-5 -103 -7 -114q-2 -14 -2 -43q0 -212 2 -254q1 -21 4 -109.5t7 -136.5q8 -135 10 -205v-16q5 -31 7 -63t2.5 -79.5t0.5 -64.5q1 -9 1 -25.5t1 -29.5 t4 -25q2 -12 2 -39zM958 1653q4 -1 -2 -6l-8 -2q4 4 6 8q2 2 4 0zM162 1354q1 3 2 10.5t2 11.5q-1 4 -2 14t-2 15q-3 6 -8 4l-4 -2q-6 -28 2 -53q0 -4 8 -4q2 2 2 4zM272 1159q2 48 -1 60.5t-25 58.5q-2 6 -10 18q-1 1 -4.5 2t-4.5 2l-4 -6q0 -16 2 -24l11 -60l24 -116 q0 -8 8 -4q2 2 2 4q0 12 1 33t1 32zM449 780q2 2 2 6l-39 95q-45 100 -70 170l-25 59q0 2 -4 2l-4 -2q-3 -42 -8 -78l2 -14q10 -40 41 -94l49 -76q18 -30 47 -66q1 -3 4.5 -3.5t4.5 1.5zM891 821q2 2 2 4q-1 17 -1.5 72t-2.5 84q-8 82 -8 119v6l-4 4v-6l-3 -86q0 -16 5 -98 q1 -15 4 -47.5t4 -49.5q0 -2 4 -2zM813 1030l12 64q0 2 -4 10q0 3 -6 -2l-4 -8l-55 -170l-31 -105q-10 -40 -23 -71q-6 -16 -10.5 -45t-5.5 -35l-6 -31q-2 -8 -2 -23q0 -13 8 -18q7 -7 10 0q10 15 11 18q11 55 20 84q38 129 82 322q1 1 2 4.5t2 5.5zM698 1014 q-10 -10 -10 -33q-10 -10 -10 -31q6 10 10 31q10 13 10 33q8 12 17 39q2 6 -1 7l-3 -1l-4 -4q-4 -9 -9 -41zM666 915q10 13 10 31q-6 -9 -10 -31zM649 850q4 8 -2 14q-5 -1 -10 -16l-19 -55l-14 -35q-7 -20 2 -37q0 -6 8 -6q1 0 9 4l2 4q22 71 20 100v15q1 2 2 6t2 6z M901 698v47q0 1 -1 3.5t-1 3.5q-4 -8 -4 -9q0 -8 1 -24t1 -23l2 -6q2 2 2 8z" />
<glyph unicode="N" horiz-adv-x="882" d="M854 -121q11 -32 6 -53l-6 -14q-4 -7 -14.5 -7.5t-14.5 5.5q-7 7 -10 16q-5 10 -14 37q-14 24 -33 35q-11 5 -14 2q-2 -2 -10 -9t-12.5 -12.5t-6.5 -11.5q-4 -9 -16 -27.5t-15 -29.5l-2 -5q-3 -5 -11 -5.5t-13 3.5q-10 10 -13 23q-30 88 -43 203l-12 80q-1 4 -2 10.5 t-2 9.5q-2 6 -18.5 53t-28.5 70q-65 142 -96 201q-24 50 -56 122q-5 12 -24.5 56.5t-28.5 68.5q-68 177 -100 254q-15 41 -23 50q-5 5 -8 2l-4 -5q-2 -6 -2 -16l-2 -92q0 -8 1 -24.5t1 -24.5q4 -46 4 -70q2 -40 4 -119.5t4 -119.5q4 -98 4 -152q1 -26 1 -56t-0.5 -66 t-0.5 -56l-2 -23q-4 -23 -5 -48t-1.5 -60t-1.5 -49v-37q-4 -25 -14 -41q-10 -13 -23 -13q-18 4 -18 25q0 19 2 27q4 20 8 30q10 27 10 80q-1 3 -1 9t-1 8q-5 25 -6.5 50.5t-2.5 66.5t-1 51q0 1 -1 3t-1 3q-4 -4 -4 -8v-64q0 -3 -1 -8.5t-1 -7.5q-1 -13 -11 -21t-24 -6l-14 6 q-5 0 -8.5 -3t-2.5 -7l4 -70q1 -18 2 -54t2 -54q4 -48 0 -72q0 -8 -6 -14q0 -4 -8 -4l-8 6q-4 8 -4 16q0 50 -8 152q-2 57 -2 174v237q0 15 -4 39q-9 64 0 129q3 39 -3 76q-4 28 -4 43l-2 125v164q0 57 -16 119q-4 28 -4 47l2 49q0 57 -12 86l-7 20q-3 24 17 37q10 7 29 15 q8 4 12 16v23q3 21 18 30q14 11 21 4q4 -4 8 -12l6 -43q0 -6 8 -6q3 -3 8 2l13 18q10 10 12 11q8 8 21 0q9 -5 4 -15q-6 -13 -9.5 -27t-7 -35t-4.5 -28q-6 -40 6 -80l2 -4q9 0 9 4l18 103q1 7 4 21.5t4 21.5q2 24 17 57q17 32 20 72q0 12 4 32l12 25q14 20 39 6 q16 -13 19 -33q0 -14 -15 -20h-6q-16 0 -22 -18q-17 -39 -2 -84q9 -26 14 -35q4 -22 0 -33q-3 -6 -8 -6l-21 10q-7 4 -12 -6q-8 -19 -10 -31q-12 -82 -21 -162q-2 -20 -2 -59q0 -11 8 -27q3 -23 13 -51q27 -77 57 -153l86 -209q35 -82 41 -99q22 -62 53 -106q-4 29 -10 41 q-7 17 -20 61q-7 26 -15 41q-2 9 -8 24t-8 21q-8 29 -39 107q-17 40 -50.5 119.5t-51.5 119.5q-32 67 -48 84v43q0 3 5 23q8 19 27.5 23t33.5 -11q3 -3 3 -7.5t-3 -6.5l-10 -4q-26 -9 -23 -31q1 -4 2 -13.5t2 -13.5q30 -71 37 -84q20 -33 31 -65q5 -13 18.5 -44.5 t20.5 -49.5l76 -187l6 -20q3 -10 21.5 -46.5t19.5 -60.5l30 -102l13 -37q5 -10 10 -12q2 -1 3 1t2 6q1 3 1 5q0 94 2 141q0 20 4 66q1 6 2 18.5t2 18.5q0 77 21 184q10 45 10 80q0 37 10 82q11 41 31 61q22 24 25 66q6 52 -2 98l-7 43q-4 37 19 60q8 8 8 24q0 1 2 15.5 t4 21.5q4 33 0 49q-6 32 15 56q1 3 6 3t8 -3l6 -9q8 -28 4 -43q-7 -37 -10 -63q-1 -8 -2 -24.5t-2 -24.5q0 -4 2 -6q3 -3 6 4q27 70 31 92q0 2 12 31q2 2 10 2q1 0 3.5 -2.5t2.5 -4.5q-5 -61 -6 -65q0 -9 -4 -21q0 -14 6 -20l8 -6q25 -19 19 -47l-6 -49q-12 -76 -23 -183 q-2 -43 -14 -125q-9 -76 -8 -96q0 -21 -6 -39q-10 -27 -13 -53q-1 -9 -4.5 -37t-3.5 -43q0 -1 6 -76l2 -43q5 -76 8 -86q0 -3 1 -8t1 -8q0 -41 13 -152l18 -145q6 -44 21 -84q5 -22 4 -27q-8 -24 4 -69q6 -33 22 -95q4 -14 19 -8q4 0 8 -4zM131 1225v32q-4 28 -18 37 q-8 4 -11 -2l-6 -14q-6 -86 2 -158q9 -97 21 -194l2 -4q2 2 2 6v86q1 19 1.5 67t1.5 81t5 63zM750 1280q0 -8 -1 -24.5t-1 -24.5q0 -2 2 -4q0 -6 3 -1q0 1 1 3q0 10 4 26l2 21q0 6 -4 10q-6 0 -6 -6zM166 866l12 217q0 39 -2 64q0 2 -6 20q0 2 -4 2h-4q0 -4 -1 -11t-1 -11 v-211q0 -47 2 -70v-6q3 0 4 6zM637 987q6 0 6 8q-1 1 -1 6t-3 7l-2 -11l-2 -6zM625 631q0 13 1 40t1 40q0 9 -6 6l-3 -2q-4 -19 -4 -82q2 -23 2 -70q1 -2 2 -3.5t2 -2.5t1 -2l2 6q0 11 1 34t1 36zM184 543q4 8 4 10l-2 86l-2 7v-1q-2 -2 -2 -6v-90q0 -1 1 -3t1 -3zM115 426 q3 43 -2 76q0 9 -9 12q-4 1 -8 -3.5t-4 -10.5l2 -60v-12q2 -8 5 -11.5t7 -2.5q6 6 9 12zM737 -61l2 16q18 47 6 96v17q-3 58 -20 133q-25 115 -27 166q0 4 -4 8q-2 0 -2 -4q-4 -132 6 -195q4 -28 4 -43l7 -88v-14q-2 -30 10 -76q0 -2 6 -14q4 -4 10 -4zM666 117v37q0 1 -1 2 t-1 2l-2 -6v-35q0 -2 1 -5.5t1 -5.5q2 4 2 11z" />
<glyph unicode="O" horiz-adv-x="765" d="M20 653v-10q-1 -15 3 -45t4 -37q9 -81 36 -158q15 -41 33 -81q21 -48 19 -84q0 -25 4 -37q12 -50 33 -121q8 -17 20 -17q42 0 61 -43q2 -5 7 -10.5t6 -7.5l12 -12q10 -10 25 -6l14 6q26 15 59 8q45 -12 97 4l51 12q15 2 37 13q13 7 24 4q3 0 9 -1t8 -1q19 0 28 12 q2 2 5.5 7t5.5 7l63 107q22 35 27.5 47.5t17.5 50.5q10 33 2 59q-9 33 -2 70l6 33q3 16 0 31q-6 20 -6 75l2 39q0 33 2 49q6 85 6 172q0 33 -8 60q-18 103 -18 106q-3 16 2 27q11 16 4 37q-11 36 -51 131q-23 53 -64 100q-32 41 -57 66q-26 22 -39 43q-38 58 -113 55 q-12 0 -24 -6l-56 -37q-29 -15 -39 -16q-7 -2 -16 2q-8 8 -14 0q-9 -18 -29 -21q-18 -4 -27 -8q-14 -7 -20 -16q-19 -22 -25 -49q2 -3 2 -5h7q10 10 12 11q13 10 24 2q11 -4 15 -8q7 -7 4 -21q-8 -20 -23 -18q-20 2 -32 -25q-3 -12 -9 -24q0 -8 -6 -11q-4 -4 -8 -4 q-3 0 -5 2.5t-1 5.5q0 15 2 21q0 1 -1 3t-1 3q-8 4 -8 -4q-21 -60 -23 -68q-32 -114 -49 -221q-11 -56 -25 -248zM344 1194q-6 0 -10 2q-2 2 0 4q0 8 12 0q2 0 2 -4q-1 0 -2 -1t-2 -1zM389 1137v4q0 14 12 14q23 0 41 -12q61 -36 97 -92q16 -32 8 -64q-6 -25 0 -49 q4 -32 4 -53q0 -206 2 -310q0 -10 1 -31.5t1 -33.5q4 -36 4 -59q1 -51 -1.5 -71t-16.5 -73q-18 -61 -74 -88q-6 -3 -21 -8q-30 -12 -57 0q-41 17 -67 37q-36 26 -58 71q-4 6 -4 27q0 4 1 13t1 14q0 8 -8 12t-10 4q-15 6 -15 23l-2 53q-1 12 -0.5 33t-0.5 37.5t-5 31.5l-2 23 q0 96 -10 145q-2 10 -3 22t-1.5 26t-1.5 22v22q2 10 2 64q0 13 4 33q0 16 14 20q24 5 31 33q4 15 4 65q2 20 2 60q0 8 4 20q9 30 41 33q33 0 47 -6q7 -4 21.5 -8t15.5 -4zM422 1114q-13 20 -33 23q11 -17 33 -23zM215 1038q0 -6 -2 -8v-4q-4 -2 -3 1q0 1 1 3q1 1 2 4t2 4 q4 32 4 47q2 2 4 2q2 -2 2 -4q0 -27 -10 -45zM745 922q-4 24 -12 32q-4 2 -4 -2q-3 -16 8 -34h4zM590 731l6 43l2 4q4 2 8 -6q0 -1 2 -15.5t4 -21.5q8 -17 -10 -39h-4q-4 0 -4 4q-4 7 -4 31zM68 610q0 -8 -5 -10q-6 0 -6 8q-1 12 -2 37t-2 37q0 1 2 3t2 3l2 -4q6 -39 9 -74z M598 395v43q1 8 1.5 23.5t1.5 28.5t3 24q5 27 -2 66q-6 18 -6 36q-4 29 18 43l7 7q2 2 6 2q1 -1 2.5 -2t2.5 -2t1 -2q2 -6 2 -17q0 -113 -14 -168q-2 -8 -3 -23.5t-2 -19.5q-5 -33 -10 -41l-2 -4q-6 -3 -6 6z" />
<glyph unicode="P" horiz-adv-x="714" d="M694 1221q3 -21 -8 -35q0 -2 -4 -2t-4 2q-4 9 -10 32.5t-13 34.5q-2 2 -4 2q-4 0 -4 -2q-1 -7 -5 -20.5t-5 -20.5q-1 -19 -4.5 -40.5t-10 -48.5t-8.5 -40q-1 -3 -6 -33t-6 -46q-7 -73 -41 -121l-53 -78l-55 -74q-10 -15 -11 -18q-8 -30 -39 -78q-10 -17 -10 -37 q1 -10 2 -31.5t2 -31.5l27 -189q6 -44 21 -124t20 -111q13 -66 16 -91l25 -112q0 -17 2 -27q0 -3 -4.5 -6.5t-7.5 -3.5t-11 4l-8 12l-12 25q-4 4 -10 4q-3 4 -9 -2l-18 -41q-4 -8 2 -14q18 -24 21 -56q0 -6 1 -18t1 -18q0 -1 -7 -15q-3 -3 -10 -2t-10 4q-7 3 -10 13l-17 32 l-37 103q-4 18 -16 28q-9 8 -37 45q-16 22 -41 25q-6 1 -18.5 2t-18.5 2q-2 0 -20 6q-6 3 -7.5 11t1.5 14q8 8 12 10q7 4 21 8q24 5 27 16t-5 31q-22 63 -33 154q-1 4 -12 115q-4 37 -11 128.5t-14 141.5l-2 14q-1 23 -7.5 125.5t-6.5 157.5q0 12 -2 38t-2 38q-4 32 -4 49 q-2 24 -5 71t-5 70q-10 101 -13 119q-2 20 -2 63q0 41 41 54q2 0 11.5 2t15.5 4q3 0 4.5 2t-0.5 4l-4 4q-20 -4 -27 -4q-21 -4 -39 -6q-66 -10 -112 -47q-8 -4 -11 2q0 3 3 6q18 25 40 35q66 25 97 33q46 8 69 14q24 3 33 24l6 9q9 15 23 4l8 -8l14 -7q3 0 10.5 2t10.5 2 q45 11 69 15q18 6 21 8q21 14 49 -4q26 -17 39 -21q54 -21 100 -81q36 -45 56 -93q19 -44 26 -116zM539 991l18 39q51 108 16 227q-12 40 -30 56q-30 26 -49 84l-15 41q-5 24 -35 28h-75q-10 0 -17.5 -7.5t-7.5 -18.5v-60v-53q3 -27 8 -174q0 -30 4 -92q6 -117 6 -119 q1 -28 7.5 -82t7.5 -80v-6q8 -8 12 -10q8 0 10 2q45 42 72 94zM260 958l2 113q-5 127 -8 152q-2 14 -2 43q0 69 -2 102q0 19 -2 27q0 2 -6 8q-7 0 -11 -4q-9 -14 -4 -21q12 -22 9 -57q-3 -70 2 -125q4 -24 4 -37l14 -201q0 -2 4 -6v6zM326 350v90q0 59 -2 92q-1 18 -4.5 52 t-4.5 51l-4 6q0 -1 -1 -3t-1 -3q1 -12 1.5 -49.5t2.5 -57.5q2 -17 3 -36t1.5 -41.5t1.5 -34.5q0 -36 3 -66q0 -1 1 -3t1 -3q2 2 2 6zM373 319l-6 9q0 -7 -2 -9l12 -141q4 -36 16 -100l6 -23l7 -8q1 -3 12 -8q2 -1 5 -1t5 1q4 4 4 10q-5 21 -16.5 75.5t-18.5 82.5z" />
</font>
</defs>
</svg>
