<?xml version="1.0" standalone="no"?>
<!DOCTYPE svg PUBLIC "-//W3C//DTD SVG 1.1//EN" "http://www.w3.org/Graphics/SVG/1.1/DTD/svg11.dtd" >
<svg xmlns="http://www.w3.org/2000/svg">
<metadata></metadata>
<defs>
<font id="anodyneregular" horiz-adv-x="905" >
<font-face units-per-em="2048" ascent="1479" descent="-569" />
<missing-glyph horiz-adv-x="409" />
<glyph horiz-adv-x="2048" />
<glyph horiz-adv-x="2048" />
<glyph unicode="&#xd;" horiz-adv-x="2048" />
<glyph unicode=" "  horiz-adv-x="409" />
<glyph unicode="&#x09;" horiz-adv-x="409" />
<glyph unicode="&#xa0;" horiz-adv-x="409" />
<glyph unicode="!" horiz-adv-x="538" d="M168 1008v4l-2 18v68l-2 65l-4 64l-2 67l-4 66l-2 67l6 21l16 29l23 2l63 2l66 -4l14 4l10 -11l27 -4l10 -12l6 -31l-6 -63l-12 -64l4 -65l-8 -31l4 -65l-17 -66l2 -8h5l-7 -2l-4 6l-24 -18v-11l8 -2l8 -10l8 -2l2 -4l-8 -21l6 -10l13 -6l2 -8l-7 -60l-6 -63l-2 -70 l-2 -69l-2 -66l-6 -65l4 -64l-18 -63l-11 -13l-53 -8l-30 4l-29 13l-10 57l-7 63l9 68l-11 33l7 47l-5 61l-4 70l-8 33l4 63l-4 33zM365 8l-5 -2l-18 -4l-66 -4l-69 2l-6 4l-2 8l-13 8l-4 -10l-8 -2l-10 17l6 14l-6 14l-2 51l2 74l14 62l45 8l70 2l65 -6l11 -19v-16l10 -4 l2 -64l-10 -67zM287 1319l-2 -4l-9 -15l15 -28l2 -15l8 -2l4 41h-10v21zM295 1407l-2 -2l-12 -27l24 -4l-4 29zM246 522l-6 2l-9 -2l-18 -24l33 6v18zM365 1167h-7l-14 -4l10 -28l13 14l2 10l-4 2v6zM227 74l4 -2l21 -9l4 5l-4 2v8h-25v-4z" />
<glyph unicode="&#x22;" horiz-adv-x="669" d="M543 973l-4 -2l-7 -2l-67 -8l-29 8l-6 20l-8 66l-4 69l8 64l-4 24l-10 11l-2 24l4 31l-2 33l-6 10l-5 35l5 30l-3 31l-6 6l9 9l-5 24h5l20 21l31 10l6 -4h31l65 -8l12 -21l9 -29l-2 -65l-5 -70l-2 -65l-8 -64l4 -31l-2 -65l-8 -66zM229 969h-4h-10l-4 -11h-29l-63 15 l-15 61v68l-4 67l-6 64l4 33l-2 30l-8 64l-2 59l2 37l10 8l29 11l72 2l61 -11l6 -32l-4 -33l-8 -66l4 -32l-2 -33l-6 -13l-8 -69l2 -66l2 -65l-4 -2l-2 -8l6 -17l-4 -31zM158 1276l4 2l10 4l8 10l2 19l-8 4l-12 -12l-4 2l8 6v10l-10 2l-33 -12l4 -23l-2 -4l14 -29h8z M147 1360v-6l-4 -11l-10 -8l8 -10l11 14l8 -2l6 9v8l-10 6h-9zM229 1442v-4l-4 -11l11 5l2 8z" />
<glyph unicode="#" horiz-adv-x="987" d="M637 6h-4l-70 -6l-33 4l-24 10l-2 27l4 33l6 4l2 28l6 64l13 27l-5 12l5 16l-3 17l7 63l14 64l-4 34l-23 25l-63 4l-66 -4l-26 -12l-23 -19v-63l-10 -66l-14 -65l-7 -64l-8 -65l-20 -64l-39 -10h-35l-35 6l-22 14v25v66l8 34l12 64v31l10 6l13 28l-2 5l-6 -11l-11 2l4 33 l4 -2l31 8v4l-12 6l-4 9l2 6l-8 -2l-4 -17l-9 -2l11 62l-4 31l14 -5l2 7l-16 22l8 35l-19 -6l-14 -29l-43 -2l-70 4l-22 17l-8 2l-5 22l5 66l38 24l29 8l37 -4l29 -10l30 8l9 -2l22 21l2 8h10l11 10h14v12l14 2l-4 15l-6 6l-4 -4l4 8l-27 18l-2 7l11 43l8 69l16 64l2 30 l-6 33l-14 10l-27 5h-35l-73 2l-29 8l-10 28l-4 35l4 35l8 12l8 2v-6l8 -8l23 8l10 11l-2 6h47l70 -2l24 10l9 14l8 4l8 -2l-4 15l18 10l-4 4h-10l4 63l16 -6l23 2l-2 9h-23l-14 6l2 8l6 2l2 8l2 64l8 14l7 61l8 68l14 45l17 25l51 8l63 -13l8 -14l9 -33l-7 -6l7 -12 l-17 -51l-8 -4l4 -9l-4 -32l4 -33l-4 -4l-2 -15l-4 -4l-2 -28l-10 -23l-4 -65l8 -66l37 -20l34 -4l76 6l21 10l24 35l2 28l8 70l17 61l-4 35l8 49l6 68l23 59l6 7l22 6l35 2l33 -4l29 -11l4 -6l4 -28l-13 -70v-31l-6 -12l11 -4l-21 -60h-6l-19 15l5 -10l-9 -9v-10l-14 2v-14 l25 -2l14 -6v-43l-8 -6l-6 -13l-7 8l-2 -30l13 -68l16 -12l31 -4l69 2l35 -4l6 -23l13 -67l-4 -23l-13 -8l-4 -8l2 -4l-8 2l-63 -4l-31 6l-35 -6l-29 -11l-12 -12l-12 -29l4 -14l-8 -31l2 -65l-8 -31l-13 -57l-2 -37h4l-4 -19v-30l25 -19l33 -2l14 -8l49 10l43 -12l16 -45 l-2 -37l-10 -31l-12 -8h-25l-4 -6h-22l-66 6l-8 6l-14 -6l-19 4l-28 -18l-7 -54l-10 -61l-8 -68l-6 -67l-15 -68l-8 -65zM393 573l4 -2l33 -8h68l63 12l19 39l4 35l10 68l10 63l8 2l-2 25l4 70l-6 32l-14 4v7l-23 6h-32l-15 -6l-57 -7l-45 -22l-2 -31l-8 -8l-2 -33l-13 -65 v-64l-6 2l-4 -18l-4 -4l-2 -31l-12 -27l8 -2zM274 479l-4 2v2l13 -2l-2 4l4 25h-11l-4 4l9 2l2 12l-9 13l-14 8h-8l-19 -25l-12 -8l-4 -29l10 -26l8 -8l27 -13l-10 -10h14l15 6l6 15h-19l-6 6l2 16zM352 973v6l6 14l25 11l-4 12l8 31l-14 18l-15 6l-28 -29l8 -2l10 -22 l10 -10l-4 -13l4 -2l-30 -4l-15 6l-24 19l-4 -25l4 -16l10 -8l6 8l6 2l31 -4zM711 1042l-2 -4l-13 -26v-19l19 -14l4 22l-4 7l16 10l8 14l-12 8zM207 485l2 4l2 5l-4 24l8 2l2 8h-8l-4 7l2 14l-19 6l-6 -6l4 -2v-23l15 -20l-8 -4l6 -2l2 -9zM862 1004l-4 4l-8 4l-23 -8 l11 -31l14 2l4 4l-4 6zM231 313h5l16 6l8 9l-4 6l-4 -4l4 18l-18 -2l-13 -8h4zM637 1004v-5v-30l16 10v20l-6 5h-10zM721 1198l4 4v8l-10 15l-6 2l-9 -8l13 -17zM172 469h4l17 2v8l-5 4l-16 2l-2 9h-6l-2 -5l8 -4zM41 469l2 4l12 8l4 8l-6 -2l-22 7v-9l10 -6l-4 -6zM84 1004 l4 2l14 -5l7 3l4 10l-7 4l-24 -12zM246 500l4 -2l-6 -13l2 -6l-15 6l-6 15l17 -6zM774 1434l-2 -4l-12 -7v-10l12 4l6 8v7zM608 229v4l-2 17h-8l2 -17zM387 909h-4l-12 2l-4 -6l2 -4l14 4l4 -8l6 4zM739 1458v-4v-10h11l4 8zM803 1057v-4v-4l14 -9l6 7h-6l-10 10h-4z M309 856h4v6l-14 8v-14h10zM686 1233l-2 4l-2 4l-2 -12l14 -8zM383 1444v-4v-6h10v10h-10zM334 782v4v7h-10v-11h10zM178 510l-2 -4l-6 -4l8 -2l4 8l-2 6z" />
<glyph unicode="$" horiz-adv-x="827" d="M451 -123h-5l-40 -6l-35 2l-29 8l2 6l-18 50l-17 67l-14 21l-19 6l-45 28l-55 37l-6 15l-43 49l-16 26l-9 33l-10 14v39h-4l-6 11l-4 34l-8 15l-2 24l4 66l8 63l8 13l35 4l2 8l45 8l29 -4l65 -12l19 -45l2 -31l-4 -66l14 -59l29 -57l14 -6l4 -9h10l4 -4l35 -8l31 6l61 27 l9 20l8 2l12 47l6 7l-4 39l-4 8l-6 2l-4 45l-21 45l-28 57l-7 4l7 6l-21 9l-2 8l-31 39l-24 22l-8 17l-33 32l-49 46l-41 49l-17 8l-35 39l-12 28l-39 52l-6 18l4 4l-12 27l-8 33l-19 59l-10 14l-2 11l-2 67l6 68l19 63l16 29l8 31l43 49v8l10 10l17 8l8 13l6 -4l23 14 l10 -6l4 6l53 27l10 12l2 14l9 14l-4 35l8 64l20 2l15 8l28 6l37 -6l29 -10l14 -49l2 -64l19 -24l28 -17l49 -22l31 -27l2 -12h10l37 -47l2 -13h11v-10l6 -4l12 -31l10 -12l6 -25l2 -32l3 -72l4 -66l-15 -65l-43 -4h-71l-64 12l-10 27l-2 67l-4 64h-11l-4 39l-12 20l-57 35 l-31 -4l-35 -14l-26 -17l-23 -24l-2 -9l-10 -12l2 -47l8 -35l12 -31l-2 -14l10 -12l31 -57l47 -48l19 -24h4l20 -21l29 -18l2 -25l14 -18l50 -39l22 -27l6 -14l25 -18v-11h8l22 -28l5 -13l16 -16l16 -31l11 -10l-7 -4l17 -14l2 -23l12 -2v-10h4l11 -53l12 -37l2 -33l4 -59 v-74l-6 -10l-2 -19l-17 -61l-20 -25l-4 -18l-6 -11l-9 -2l-18 -24l-14 -4l-6 -15l-33 4l2 -14l12 -6l-14 -14l-6 6l-4 -6l-48 -25l-30 -10l-25 -19v-45v-57h-10v-20zM479 629l6 2h4l5 6l-5 22l-8 7l2 6l-18 20l-10 31l-39 4l-15 -29l5 -10l-3 -4l7 -12l-9 -8l15 -19l4 -18 l-2 -9l4 -28l8 -4l6 18l19 25l-4 4l-2 12l8 25l-15 6l2 8l19 -6l2 -8l-10 -11l24 -20v-10zM303 846l4 2l10 10l7 16l-23 33l-8 2l6 -30l-2 -9l-10 -12l-15 -8l-10 -12l-2 -9l33 -24l-2 -6h10l2 16l-4 6zM324 1368l-2 -4h-13l-6 4l12 -14l17 -4l30 8v10l-14 14l-14 -14h-6v8 l-4 2v-10zM504 170l-2 -6l6 -10l14 -7l6 -14l15 -8l2 20l-8 13l-15 8zM571 1227l-4 2l-12 6l-16 2l2 -23l12 -8l8 2l10 11v8zM201 326v-4l-11 -35l19 -8l6 4l-6 30zM602 254l-2 -4l-6 -21l8 -10v4l14 15l-8 4zM324 1329l4 -2l8 -18l6 -4l10 10l-30 18zM621 1094h-5h-8l-2 -4 l10 -21h11v10zM352 1280v4v8l-14 8v-20h14zM578 1108l-5 2l-6 12l-10 2l2 -12l10 -8h6zM201 111h4h6l10 10l-16 2zM563 102l-4 -4v-8l12 -8l-2 16zM578 106v5l-9 16l-6 4v-10zM342 879h6h4l10 10l-14 4zM229 135h4l11 10l-13 -2z" />
<glyph unicode="%" horiz-adv-x="1421" d="M915 -2l-4 2l-49 23l-26 20l-7 14l-20 25l-6 14l-10 8l-5 25l-6 6l-4 12l-10 64l2 51l-10 64l10 63l-6 31l10 16l10 64l29 63l47 41l8 12l62 25l61 12l62 11l20 -5l25 -10l14 4l51 -6l17 -8h16l18 -18l15 -7l45 -36l10 -29l14 -8l5 -29l10 -35h-4l-2 -6l8 -35l2 -33 l2 -65v-68l-4 -63l-8 -62l-11 -14l-2 -31l-26 -43l-4 -14l-37 -27l-33 -10l-14 -8l-4 6l-27 -12l-33 -2l-31 -10l-32 -3l-62 7l-63 14l-2 -4zM324 829h-5l-49 5l-61 26l-10 10l-9 2l-2 -4l-8 11l-41 49l-16 63l-6 6l-13 62l-4 69l21 -2l10 7l2 18l-14 -4l-10 2l6 12l10 2 l-10 17v8h10l18 20l4 19l-16 -2l-27 -13l-6 11l2 28l15 -8l10 -12l8 4l-8 10v25l6 4l12 20l-28 25l14 45l4 33l10 4l21 -8l-2 12l-15 8l7 10l53 43l18 7l66 18l4 6l10 2l17 -4l12 4l31 2l67 -2l64 -20l59 -19l25 -20l18 -4l10 -19l23 -26l2 -23l16 -47l2 -29l-2 -65l4 -64 v-65l-4 -70l-12 -61l-10 -15l-4 -24l-25 -29v-10l-12 -6l-56 -39l-32 -6l-17 -9l-53 -6l-31 -10l-16 4l-10 8l-15 -6zM369 -2h-4h-3l-69 2l-31 8l-10 10l-2 11l12 45l12 10l5 8l-3 10l7 -2l24 50l10 10l7 14l6 -4l2 -8l8 -2l4 8l-14 6v10l12 11l4 8v14l16 29l11 30l6 5 l16 26l2 19l21 26l39 54l10 38l27 -10l14 6v17l-16 2l-7 4l13 26l28 54l15 16l2 19l28 57l-2 4l6 16l-2 4h11l2 17l18 12l-6 4l14 17v8l23 35l12 10l-2 12l29 39h6l-4 6l24 41l11 33l14 8l6 -8l4 20l29 15v-10l-14 -9l8 -12l8 -4l6 2v12l-10 39l-17 2l21 41l14 12l2 17l13 2 l8 24l10 11l8 35l10 12l7 2l14 45l16 18l4 17l21 28l-2 9l12 -9l8 2l-8 19l4 4l15 -16l10 10l2 16l-4 6l-8 2l12 25l-2 4l24 45l23 -20l4 6v16l6 8l-18 -6l4 35l4 -4l10 2l6 6h-16l33 51l14 31l12 12l41 11l66 -4l26 -13l-12 -30l2 -17l-24 -35v-10h-11l-4 -10l-6 -4l-2 -27 l-12 -27l-10 -8v-8l-9 -4v-10l-8 -2l-4 -6l-29 -56l-14 -10l4 -12l-22 -35l-6 -16l-15 -5v-24l-10 -10l-14 -45l-19 -29l-14 -8l-10 -31h-11v-8l-10 -8v-17l-12 -2l-10 -35l-27 -55l-31 -53l-30 -58l-13 -30l-14 -13l-8 -24l-27 -39l-4 -18l-12 -11l-6 4v-28l-11 -13 l-12 -26h-8v-10l-10 -11l-25 -61l-18 -27v-10l-15 -29l-22 -22l-13 -45l-14 -10l-4 -15l-12 -8l-2 -12h-11l-10 -21l-10 -4v-10l-8 -21l4 -2l-19 -26l-2 -19l-10 -8l-4 -16l-10 -10v-15l-4 -2l-35 -51l-31 -57zM926 430l-2 -4v-41l10 -66v-69l4 -64l8 -26l12 -4l13 -11h8 l6 -10l29 -10v-4l45 -4l18 8l39 10l6 10l25 21v33l8 6l4 18l2 68l-6 67l6 27l15 -6l4 6h-4l-11 10l9 -4l8 4l4 19l-8 4l-15 -17l-2 11l-14 61h-10l-21 25l-20 6l-4 8l10 4l-19 19h11l-2 6l-19 6l2 -21l-8 -4l-2 10l-6 5l-8 -9l-9 4v-12l-32 -2l-2 -8l-45 -21l-23 -6l-4 -10 l4 -14l-8 4zM246 1255l-2 -4l18 -20l6 -27v-71l-2 -74l4 -29l6 -10l9 -4l-4 -12l4 -7l37 -18l8 2l18 -8l55 -8l37 8l23 10l6 16l6 2l6 39l13 19l2 14l-7 62l-4 65l7 57l-5 37l-8 27l-26 22l-37 13l-41 -2l-62 -8l-20 -11l-17 -30l-6 -35l-8 -4h-14zM545 1231l-4 -2l-11 -8h7 l-2 -19l10 -6v-22h10l14 -17v-29l13 -26l2 -17l22 7l2 8l-14 14l-2 8l-12 11l-2 16v68l-9 10v-4l-10 -11l-6 17zM721 805h-6l-23 6l2 -10l27 -35l18 -10l6 2l5 16l-5 12l-30 5l-4 6h8zM975 1237v-6v-12l-4 -5l-15 -2l2 -14l7 -6l14 -4l16 16l4 27zM965 102l2 -4l22 -10l35 4 l-10 14l-15 11l-4 -11l-10 19l-6 -4l-4 -12zM940 1163l-4 -4l-8 -8l4 2l20 -8l15 4l12 -6l10 10l10 -6l5 2l6 25h-9l-4 -17h-16l-8 4l-8 13l-9 -7l11 -2zM1092 596v-4l4 -10h-9l7 -19l14 -6l-4 37zM428 903l2 2l6 6l2 13l-6 8l-8 -12l4 -11h-20v-10l-11 -6v-8l9 2l8 14z M1042 1372h-4l-14 -6l-8 -12l-2 -11l26 13zM696 752l-2 -2l-12 -9v-14h18l9 4l2 6l-6 2zM520 1231h-6l-14 2l-8 -12l14 -9h10zM358 92v6v4l-14 9l-8 -15l4 -14l8 2l2 6zM397 825h4l19 4l2 7l-4 4l-2 -4l-4 4l4 8l-8 2v-6l-11 -10v-9zM1020 1393h-6l-15 -4l2 -9l23 -8z M516 483v-4v-30h6l4 8v18l-4 8h-6zM266 987h-4l-8 -4l-8 -10v-10l12 2l8 12v10zM436 967h-4l-10 -6v-13l6 -6l6 10zM1274 473v-4v-12l10 -8l2 14zM711 639h4h4l6 10l-6 10h-8v-20zM858 293v2l10 20l-6 7l-10 -23zM559 1270l-2 -4l-8 -15l10 -2l6 -10l8 -2l-2 8l-10 6l-4 9 l4 8zM442 932h4h5v16h-9v-16zM305 86v-4v-4l10 -6l4 6zM344 141l-6 -2l-4 -2v-12zM569 1188v-4v-6h-10v10h10zM989 57h4l11 2v9h-9zM109 1178v-4v-7h-9v11h9zM877 332v4v6h-9v-10h9z" />
<glyph unicode="&#x26;" horiz-adv-x="1243" d="M852 -10v2l-53 22l-29 21l-14 4l-6 10l-15 8l-4 6l-45 -2l-27 -10l-26 -20l-31 -15l-39 -24v-8l-57 -15l-19 2l2 6l-4 7l-14 -9l-25 -6l-8 4h-22l-31 13l-66 8l-4 10l-14 2l-6 6l-25 6v11h-10l-4 10h-10l-4 8l-13 2l-8 14l-14 5l-4 14l-13 4l-14 25l-8 6l4 10l-2 8l-6 -4 l-6 4l-4 17h-4v6l-13 45l-8 8l-14 51v31l-9 65v33l7 15l6 4l-4 34l10 31l2 33l10 12l4 19l6 4l7 14h10l20 47l31 60l23 22l8 2v6l12 19l-2 6l20 14l9 15l16 4l12 12l-6 47l-16 63l-10 11v14l-13 10l-2 15l-16 61l-8 70l-11 59l-4 70l17 63l2 29l-4 4l10 14l2 25l12 18l10 29 l19 31l8 -6l-2 -9l8 -14l8 8l2 21l-4 16l39 21l19 28l49 19l61 18l37 2l-6 -18l-6 -4l-16 -2l4 -7v-18l6 -4l14 6l19 2v-14l6 -4l4 4v28l4 7l-2 4l-8 -4l-4 4l10 10v10h30l62 -10l14 -10l-6 -6l-14 10h-6l4 -12l-6 -17l6 -4l-4 -8l-15 2l-2 -14l-28 -5l-9 -14l-12 4v-8 l10 -12l4 4l17 -2l4 8l35 -14v-7l-13 -6l7 -16l34 -35l5 2l4 31l-2 8l-7 4l15 8l-6 7l-17 -5l-2 5l12 8l-2 4l-10 2l25 24l-2 5l6 22l8 8l2 8l37 -28l4 2l35 -45l37 -56l4 -49l10 -8v-16l4 -62v-73l-6 -29l-23 -59l-10 -37l-14 -29l-14 -8l-2 -10l-17 -25l-2 14l8 33l-2 6 h-8v-6l4 -2v-10h-8l-2 24l-8 -12v-63l-6 -13l-21 -14v-16l-37 -33l-4 -17l-27 -20l-40 -49l-3 -17l5 -34l18 -60l6 -4l2 -16l12 -8v-11l19 -14v-8l16 -29l4 -33l25 -43l10 -28l13 -11h10l30 15l7 37l16 63l12 55l15 -4l6 17l12 4l-4 10l-14 4l-7 -6l-4 -14l-2 12l4 16l9 66 l12 22l12 -4l12 11l7 -5v-6l10 15h49h53l11 -13l10 -2v-55l-6 -68h-9v-24l-6 -23l-4 -67l-20 -62l-11 17l-2 -47l-6 -17l-10 6l2 19l-8 4l-10 -6l-7 -52l-12 -30l15 2l6 12l2 -6l-8 -23h-9l-10 -45h-24l-9 -32l9 -31l14 35l8 -21l21 -24l6 -15l18 -6l33 -2l29 6l10 11l14 26 l2 68l6 35l29 14l14 -4l49 4l31 -6l8 2l13 -21l6 -30l-4 -66l2 -63l-13 -35l-14 -11l-4 -26l-10 -8l-6 -13l-54 -41l-4 -10l-12 -2l-14 -10l-60 -8l-69 -4zM559 209l2 6l2 39l-24 55l-25 25l-14 28l-6 31l-11 13l2 8l-18 20l-29 62l-6 30l-12 9l-17 2l-4 6l-14 8v-6l-16 -8 l-4 -15l-11 -10l4 -4l-8 -14l-16 -62l-8 -67l4 -35l10 -51l18 -27v-8l25 -21l6 -14l-31 -4v-15l-6 -14l-10 -10l-18 14l-29 -28l8 -11l-2 -30l4 -9l25 -6l14 6l8 -4l2 8l-12 5l-2 10l6 4l6 -2l2 8l-4 8l2 25l27 41l39 -4l14 -11h25l2 -12l8 -2l25 8l4 6l20 -2zM432 1192v-4 l2 -51l10 -66l21 -63l6 -31l16 -27l17 -2l12 10l14 5l5 14l10 4l4 16l18 17l2 14l9 10l26 58l4 32l8 -2l2 9l9 6v16l-13 6l-4 8l2 7l-4 20l4 33l-4 14l4 6v11l-12 26l-22 27l-25 12h-37l-33 -6l-43 -47l-2 -12zM686 328l2 4l14 33l15 6l8 -4l-2 6l-8 2l-8 16v-4l-15 -14h-6 v6l10 12h-18l-6 4l-15 -24v-9l11 -12v-16l4 -6h14zM305 1069l2 4l12 19l9 2l6 -4l6 28l-6 6l-4 -4l-6 8h-5l-10 -14v21h-18l4 -25l-4 -6l12 -4l-2 -23zM774 121l2 6l8 43l-12 4l-31 -12l-2 -6zM809 434l-4 2h-10l-13 -10l-18 -27l39 -4l4 4zM827 86v6l-14 25v39h-14l-4 -50 l10 -2zM393 713v-6l-2 -7h-10l-2 5l-17 -13l-8 6l8 -12l15 -6l18 2l15 6l6 10l-4 7zM408 621h-5l-6 4v30l-26 9l16 -21l2 -29zM883 670l-4 2l-17 -10l25 -15l12 6l2 11l-4 2l-12 -7zM647 1061v-6l-4 -4h-10l4 -13l20 -8l5 12zM950 96l-2 -2l-12 -12v-14h16l6 10l-2 14z M563 502h4l21 -15l6 7l-16 24l-15 8v-24zM573 1374l-2 -4l-6 -8l-2 -19l8 3l11 16l-15 8zM608 459v-4l4 -15l15 -6l6 4l-6 8h-6l-3 11zM475 543l-4 2l10 22l-10 4l2 -6l-10 -12v-12l8 -2zM676 1079v-4l2 -12l4 -4l10 2v18h-16zM868 600h4l13 12l2 9l-4 4l-15 -11v-14z M750 1374l-2 -2l2 -16l6 -6l4 14l-2 8zM242 145l-2 -6l8 -10l8 -2l4 4l-8 14h-10zM696 1329v-4v-4l13 -4l16 6l-4 4zM692 1446h-6l-10 -8v-11l12 5zM530 885v6v8l-10 10l-4 -6l2 -8zM1004 111h-5l-6 -5l-4 -14l12 2zM662 1085h-5h-10v-14l4 -6l6 6zM657 1128l-2 -2l-4 -16 l6 -6l5 20zM612 1427l6 3l15 -15l-19 4zM231 82h7l8 2l6 12l-12 -2zM485 518h4l9 2l4 17l-6 6l-2 -15zM422 537v4l-4 12l-6 4l-2 -10zM330 131l-4 2l-2 12l20 -4zM309 346v-6l2 -8l8 4zM643 1237h-4l-6 8l-4 -4l6 -8l6 -2zM643 1438l-4 2l4 12l4 -4z" />
<glyph unicode="'" horiz-adv-x="450" d="M283 963l-4 -2l-25 -3l-68 13l-8 8l-2 12h-10v10l-6 11l-4 30v68l-4 31l4 16l-9 64l-8 65l17 14v11l-6 4l-7 43l-8 67l6 35l23 15l65 4l70 -4l12 -15l8 -30l3 -33l-5 -35l-4 -4v-33l-6 -14l-4 -33l4 -33l-6 -61v-66l6 -20l-8 -8v-66l-6 -35zM215 1358l-2 6l16 6l-6 29 l-8 4l-8 -23l2 -16zM258 995v4l2 15l-4 14l-6 2l-2 -8l-12 -6l14 -19zM186 1319l4 -2l5 2v14h-5l-2 -8l-20 -16l-2 -11h12l6 5z" />
<glyph unicode="(" horiz-adv-x="548" d="M358 -217l-2 -2l-24 -27l-31 -12l-18 4l-9 12l-4 -6l-20 31h-8l-6 8l-15 6l-2 13l-26 28l-5 15l2 18l-16 2l-8 6l-8 31l-13 2v8l-28 57l-6 66l-11 16l-6 29l2 64l-12 67l2 64l-4 65v66l4 65l4 66l-2 65l-2 56l6 -2l6 4l-4 10v63l-4 70v59v66l-2 70l-10 61l6 6l-6 10v17 l10 69v64l8 59l-2 33l4 70l-2 28l13 66l18 47l16 31l33 49l-4 4l16 16l-2 9h13l12 10l4 14l10 6l4 15l41 39l43 4l15 -7l34 -34l15 -6l-4 -17l18 -14l6 6l9 -14v-21l-19 6l-20 -20l4 -4l14 6l6 -2l-2 -15l-18 -24l-21 -17l-2 -8l-22 -12l-9 -12l-14 -11l-8 -45l-16 -4 l-15 -39l17 5l4 6l2 -13l-8 -26l-5 14l-10 -6l-2 12l-26 -4v-10l10 -12v-11l-10 -14v-33l8 -10l-4 -10l12 10v23l4 8l8 4l-6 22l2 6l4 -10l10 6l5 -8l-3 -8l-12 -68l-18 -8l-10 -12l4 -64h4l8 11l2 -13l-14 -2l2 -10l14 -8l4 -6l-2 -4h-12l2 -8l10 -5l4 -49l4 -65l-2 -66 l-10 -63l10 -33l6 -49l-8 -33v-33l8 -33l-2 -30l-4 -68l4 -63l-6 -56l-2 -63l4 -76l6 -63l2 -66l-8 -29l2 -16l15 -63l-5 -62l7 -63l18 -27l12 -8l19 -45l18 -29l25 -20l2 -11l6 -4l4 2l14 -55l-4 -14l-12 -15zM162 756l-2 -2l-13 -4v-29v-64l15 5l4 30l20 -6l2 64l-4 14 l-6 6l-6 16l-6 5l-4 -5v-30zM162 139l2 -2l8 -8h10l-4 12l12 2v17v63l-6 4l-24 -12l-13 2l11 -49h-8l-3 -14l13 -9zM197 31v-4l2 -13l8 -12l-4 -18l2 -15l10 -10v16l6 5l4 -3l-14 31l4 15zM172 119l-2 -4l-2 -11l10 -24l12 -10l7 16l-13 25zM236 -90v6l-3 8l-12 8l-24 -4 v-14l10 -10l4 8zM182 1587v-4l-2 -4l-14 -6l-4 -6l20 -29v23l15 6l-7 18zM254 -8l-2 6l18 18l-10 7v8l-6 6v-10l-8 -11h12l2 -4h-27l-4 -6h11zM176 389l4 2l6 15l-2 8l-12 8l-4 -10l2 -19zM225 1454l2 2l4 8l-4 17l-6 2l-6 -4l6 -6l-4 -15zM246 1264v6l8 8l-8 6l4 4l6 -2 l4 -8v-18zM147 510v-4l-6 -19l6 -6l11 19l-2 8zM182 1401h-4l2 14l-6 -8l-8 -2l6 -19zM176 1528v-4l6 -15l13 -12l2 2l-7 6l-4 17zM88 1083h6l15 -6l-3 10l-6 5zM152 569v4v21l-5 -4l3 -25zM225 150l4 -3l4 3v14h-4zM176 735l-2 -4l-2 -6l-10 6l4 10zM176 203l-2 -4l-12 -6 v4z" />
<glyph unicode=")" horiz-adv-x="548" d="M348 -166v-4v-6l-39 -33l-45 -47l-16 -8l-21 4l-18 18l-14 31l-39 35l-4 20l4 15l8 2l6 18l25 23v10l16 4l2 8l12 17l35 57l14 33l-6 12l8 12l3 33l2 57l2 70v68l-2 65l8 64l-6 65l4 64l2 65l10 -10l4 6l-18 16l-2 9l12 6l4 8l-14 18l2 52l-4 30l-7 66l5 29l4 63l-6 72 h18l10 12l-22 6l-6 8l6 58v61l-6 66l14 65l-2 33l-8 63l-9 17l-2 24l-12 62l-22 65l-13 11l4 8l-36 37l-41 47l-5 37l7 12l18 18l14 7v10l29 28l8 3l2 8h13l30 -8l25 -23l45 -43l4 -14l14 -7v-8l11 -10l18 -31l18 -22l13 -33l20 -27l8 -28l13 -64l8 -67v-66l-4 -65l8 -31 v-33l6 -61l-10 -31l-2 -31l2 -65l-6 -62l10 -61l-2 -68l-8 -30l4 -33v-64l2 -65v-66l-2 -65v-66l2 -61l2 -60v-69l-2 -70l-6 -66l-15 -63l-14 -63l-4 -3v-8h-10l-4 -16l-21 -23l-2 -12l-33 -27v-10zM338 420h-4v-31l16 -4l2 -8h-8l-8 -10l6 -5l4 9l21 10l-5 10l9 4l10 -8 l6 4l-6 39l6 2l6 10l2 23l-28 16v-4l-15 -4l6 -12l-20 -17v-18l10 -6h-10zM342 78v-4l-4 -23l2 -12l6 -4h10l-4 16l19 10l10 13v10l-14 -4l-15 4l-10 10v8l10 2l2 5l-16 14l-6 -17l4 -14l-2 -6zM176 -152l4 -2l31 -24l18 -2l-8 10h-10l-14 6v17l-4 12l-7 2zM395 528v4l-2 15 l-12 4l-4 -8h6l6 -13zM328 176l2 2l2 10l-4 7h-11v-11zM352 391l-4 2l-6 8v11l10 -11v-10zM387 205l2 4v6l-8 4l-4 -14h10z" />
<glyph unicode="*" horiz-adv-x="909" d="M698 850l-4 -2l-20 -10l-51 -35l-33 -10l-12 6l-19 26l-10 33l-29 60l-20 61l-19 27l-26 16l-17 -6l-22 -25l-15 -8l-12 -39l2 -14l-12 -8l-2 -33l-10 -8v-11l-11 -14l-20 -51l-8 -4h-37l-27 14l-49 37l4 14h-10l-4 -6h-4l-2 21h-4l6 20l8 12l16 7l4 6l39 51l21 8l22 23 l17 4l22 32l-4 7l14 14l7 16l-15 17l-45 8l-12 10l-31 4l-67 15l-68 6l-27 12l-2 8l13 66l6 4v8l22 61l35 5l-12 -13l2 -6h6v10l12 4l4 -6l19 -10l2 -8h16l15 -8l2 -8l28 -13l54 -37l28 -6l39 -2l12 37l3 33l-11 14l-2 25h-6l4 12l-6 23l6 12l-22 55v29l12 31l6 2l68 8 l28 -10v-11l6 -14l-10 -2l-6 -12l8 -7h6l21 15l12 -6l-2 -9l19 -4l-5 -32l-8 -25v-29l-4 -20l-16 -60v-34l8 -15l25 -2l55 21l4 10l4 -4l16 8l5 -2l-9 -29h13l10 31l22 10l54 35l18 4l19 -18l6 4l-4 8l-7 2l7 4l8 -2l18 -16l6 -23l19 -61l-2 -35l-6 -6l-21 -8l-63 -11 l-72 -8l-66 -10l-28 -10v-29l6 -12l45 -55l22 -7l41 -47l21 -18l16 -2l4 -17l11 -4l4 -8v-24zM532 1452h-4l-12 4l-8 10v11l18 -9zM190 1241v4v12h-14v-10zM180 1184l2 4l2 14h-14l4 -14zM586 860v-4v-4l10 -8l4 6z" />
<glyph unicode="+" horiz-adv-x="1130" d="M1032 678h-4l-6 -4l-8 -15l-31 -6l-61 -4l-64 -2h-72l-2 4l4 8l-12 5l-6 -5l-2 -12h-8h-70l-28 -6l-9 -43l-2 -63l2 -68l4 -68v-67l-8 -64l-45 -16l-35 -6h-32l-33 6l-27 16l-10 47l-2 35l8 23l2 28v78l-6 66l4 67l-16 27l-17 8l-4 6h-30l8 13l-2 16l-11 -6v-8l-20 14 l-4 -6l8 -21l-66 -8l-63 -2l-31 8l-10 -8h-61l-25 8l-29 21l-6 28l-2 68l8 35l13 29l45 6l69 6l64 -4l63 -8l13 -11l6 2l-4 13l69 2l29 6l12 16l-4 10l-2 31l6 35l-4 33l17 2l4 6l-17 12l-4 15l-6 4l2 18v68l2 63l12 62l4 -2l-6 -13l9 -14l8 -2l2 8l6 -2v-14l-8 -11l6 -12 l2 -16l6 2l4 14l6 -2l-4 12l4 2l6 15l23 24l-12 25l2 10l55 -2l29 -10l22 -16l8 -39l-2 -66l-2 -72l4 -63l-4 -29l4 -71l11 -31l30 -8l66 -4l65 2l64 4h65l66 -9l6 -6l4 -12l2 -31l-6 -69zM588 672l2 2l22 28v9l13 2l2 4l-17 6l-22 -6l-6 4l-9 -4l-10 10l-8 -2l-4 -6l-8 -2 l2 12l-6 10l-31 17l-8 -6l18 -54l6 -2l15 11l4 -3l8 -34l12 -29l-10 -10l14 -11h11l-5 25l7 4zM494 918h4l20 4l-2 -27l-8 -2v-6l8 -6l14 8l2 -21l15 6l6 23l-8 23l4 30h-14l-3 -4l5 -8v-37l-5 -4l-8 39l4 6l-4 4l-6 -2l-18 4l-11 -2v-20zM797 717h4l26 18l-10 37l4 8h-33 v-4l-10 -10l2 -21zM557 336l6 4l8 4l2 6l-16 25l4 2l-4 2l-10 -6l-15 20v-37l7 -12l10 -8h8zM416 717l2 4l18 24h-10l-29 -10l-16 8l4 -14l-4 -10l-19 -17l5 -4l14 4l2 -8l8 -2l-8 15v8l8 6zM489 756v6l-4 14l4 15l-12 2l-22 -9v-18zM352 756v6l-4 18l-6 4v-4h-25l5 -28 l8 -2zM627 918v2l4 8l6 -2l-6 -19h10l4 4l-4 31l-25 4l2 -18zM803 819v-4l-15 -16l-2 -8l7 -7l8 13l6 2l6 -13l8 -2v11zM549 502v-6l4 -19l12 2l2 17l-10 6h-8zM514 1210l-2 -2l-4 -2l-4 8l2 17l8 6l10 -2l-8 -16l-6 -2zM606 672h6l17 4l2 6l-19 10l-6 -10v-10zM645 657v5 l6 10l-10 4l-6 -2l2 -12zM797 760l4 4l6 2l4 -14l-4 -2zM528 854l-2 -4v-6l13 -10v10zM528 770h-4h-10l8 -14zM606 623l2 4l4 2l-2 8l-8 2v-14zM485 1010v-4l9 -11l-2 11z" />
<glyph unicode="," horiz-adv-x="425" d="M231 -172l2 -6l-6 -10l4 -5l-20 -12l-8 -14l-19 -2l-30 4l-31 10l4 31l12 31l13 10l-5 20l7 2l18 19l12 20l4 31l-6 33l-16 10l-33 4l-4 8l-16 6v9l-4 2l-3 47v61l3 68h4l10 -19l6 -2l8 9v6l-14 8l-4 6l2 16l6 4l2 11l39 4l2 8l63 -4l66 -8l6 -11l17 -59l-3 -68l-10 -61 v-31l-10 -30l6 -15l-22 -61l-23 -62l-18 -8v-10l-4 -4zM197 53l2 4l2 35l-33 -6v12l-6 4l-4 -6zM242 184v-4v-20l24 -6l4 6h-4l-4 6l-2 18l-4 4v-8z" />
<glyph unicode="-" horiz-adv-x="694" d="M559 795h2h8l4 -15l-8 -67l-10 -31l-27 -14l-65 -9l-60 -4h-67l-72 4l-67 9l-54 2l-8 12l-14 47l-2 25l16 47l-2 8l21 4l65 4l-6 -12l4 -6l12 4l-2 16l33 -6l35 4l63 -4l68 6l68 2l61 -8l-2 -6l10 -4zM256 725l2 4l16 59l-30 -2l-2 -6l8 -8l2 -16l4 -6l-6 -7l-2 -12z" />
<glyph unicode="." horiz-adv-x="425" d="M291 0h-4l-29 4l-61 2l-68 -2l-4 6l-19 58l-2 34l5 72l16 59l39 17l14 -6l6 6l31 -2l23 6l57 -10l8 -13l8 -2l11 -28l4 -35l-11 -31v-55l-4 -55zM184 141l2 2v21l-8 2v-21z" />
<glyph unicode="/" horiz-adv-x="538" d="M123 -90l-2 -4l-23 -39l-14 -2l-16 -8h-25l-35 6l-28 12v70l22 49l6 35l15 65l18 64l16 63l15 62l14 28l6 33l17 66v30l22 62l8 12l11 31l4 28l10 17l2 31l8 34l14 66l15 -16l8 -3l-2 21l-8 12h-4l-4 -8l-5 2l9 35l10 12l-4 8l2 17l8 14l2 16l-4 9l10 6l8 22l11 6v44 l8 10l8 35l8 18l-4 16l4 9l19 61l6 2l4 37l8 31l16 24l5 45l8 29l4 33l10 32l2 25l10 16l6 48l11 32l18 60l12 8l11 31l8 4l-2 4l4 67l12 15l23 14l14 4l16 -2l68 -18l10 -11l-6 -47l-14 -61l-19 -66l-24 -61l-2 -39l-6 -27l-21 -59l4 -6l-12 -55l-16 -48l-13 15l-10 -4 l-6 -11l6 -10h4l-14 -10l-2 -8l8 -15l12 -8l-10 -37l-16 -67l-13 -10l-2 -19l-8 -2v-33l-29 -10l2 -16l5 -4h18l-10 -39l-17 -62l-22 -61l4 -15l-4 -4l-8 -47l-7 -2l-4 -24l-16 -64l-20 -61l-13 -66l-10 -35l-10 -10l-6 -47l-15 -45l-10 -14l-8 -64l-10 -14h-11v-45l-6 -8 v-17l-10 -31l-20 -65l-15 -64zM457 1565v4l-4 8l-13 6l-8 -4l14 -39l-4 -6l9 -14l-11 -4l2 -13l4 -4v4l19 13l2 16l8 2l14 -4l15 10v8h-17l-10 11l2 14h-8zM549 1597l-4 -2l-49 -2l-9 -10l-2 -10l7 2l10 -4l4 -6l14 -6l15 20l16 12zM338 836l-2 -5l-21 -22l-4 -14l2 -19 l15 6v19l6 -10l6 12l8 2l-2 14l-8 10l4 2zM426 1348v-5l-4 -10l8 4l10 -6l9 -22l8 -4l-2 6l16 4v4l-10 6l-10 14l20 29l-12 -4l-19 -25l-4 9h-10zM207 635l-2 -2l2 -27l4 -6l14 29zM475 1382l4 2v5l-12 2l-21 16l-8 -2l37 -33v10zM80 106v5v14l-4 8l-6 2l-2 -20z" />
<glyph unicode="0" horiz-adv-x="858" d="M694 88l-2 -2l-16 -27l-17 -4l-30 -16l-23 -19l-4 5v-5l-47 -24l-59 -21l-7 5l-18 2l-33 -7l-28 7l-68 4l-33 12l-30 2l-9 10l-12 2l-33 17l-4 6l-26 16l-19 27l-29 16v8h-10l6 11l-20 32l-12 31l-23 60l6 20l4 63l-10 5l-4 24l-4 55l4 66v72l-2 67l-4 64l-4 63l4 66 l-4 33l2 14l8 59l4 72l-4 14l4 47v66v65l-4 66l8 23l8 2l-4 2l2 22l6 6l29 62l37 49l27 24l47 39l32 9l64 20l33 2l14 10l31 -6l33 2l63 -2l33 -6l51 -18l18 -17l58 -33l16 -18l15 -29l10 -10l-4 -4l8 -16h10l4 -25h10l2 -12l7 -6l6 -41v-17l-4 -6h8l4 -24l6 -7v-30l12 -62 v-35l-8 -28l-2 -31l4 -70l2 -63v-64l2 -63l-2 -66v-67l-4 -68v-65l6 -15l-8 -47l4 -65l-4 -33v-66l-6 -32v-31l-10 -6l-2 -25l-17 -18l-2 -8l-10 -4l-2 -17l-8 -4l-4 -14zM553 891l6 -2l4 -2l19 8l-2 10l-13 2l-4 17l10 10l-18 4l-2 8l-4 66l10 30l-6 31v33v63l-12 23 l-13 65l-8 5l-10 12l-16 4v8l-43 12l-31 5l-33 -7l-10 -10l-19 -4v-4l-30 -55l-19 -66l4 -63l-4 -62l8 -31v-61l-4 -63v-64v-68v-67v-72l-2 -67v-60l8 -61l-10 -47l2 -74l8 -25v-18l7 -6l12 -29l22 -20l17 -4l69 -9l29 4l27 19l14 2l8 -4l-8 -8l4 -31l15 -6l-5 -8l5 -7 l-7 -30l4 -15l7 -4l2 11l16 -13l10 2l4 11l-10 30l-22 8v11l16 16l8 2l4 31l-28 43l10 18l4 31l-4 31l4 63l6 33l-2 16l-8 13l-4 51l4 61l4 64v67l-2 66l-4 63zM254 676v4v14h-10l-13 -8l-2 12l-47 11l-28 -15l-11 -32l33 -15l-12 -10l-6 -14l10 -5l18 13l-2 26l11 9l6 -4 l-11 -11l17 11l33 4v12zM416 1438l-2 2l-11 4h-26l20 -60l-4 -2v-6l4 -2l2 8l11 11l16 6l2 6l-12 25l10 -9l14 11h13l12 -9l6 7l-6 12l-16 2zM182 1014v-6l-10 -9l-29 15l4 -25l9 -12l6 -2l-4 -12l8 -23l4 6l-4 12l2 9l12 10l10 16l-2 15zM182 1190v-4l-16 -45l8 -2l6 -11 l10 2l5 11l-5 8l19 8l2 8h-14l-4 4l-3 19zM152 416l4 -2h10l10 12l-39 10v-41l6 -10l9 -2v33zM147 606l-2 -2l-8 -2v-6l10 -18l-4 -11l23 -10l10 2l-18 31l-6 16h-5zM137 856v-4v-25l15 2l14 17l8 4l8 12l-8 4l-18 -10h-19zM416 1356v-6l4 -15l-8 -4v10l-21 -10h15l22 -8 l12 8l-4 19zM309 123h4l13 -2l12 6l-8 4l-6 12l-15 9v-5l10 -10l-12 -10v-16l12 -13v11l9 10h-15zM686 1374h4l-10 -14l6 -23l4 -2l10 13v32zM182 1063v-6l-6 -25h23l2 6l-8 21zM264 475h6h4l13 -18l8 -2l-6 30l-15 -2l-10 21l-4 -8l8 -13zM578 1370l2 2l18 2l-6 21l-2 -4 l-17 -5l-6 -6zM186 397l2 4l13 25l-15 4l2 -6l-6 -10l-10 -6zM686 270l-2 -4l-14 -8l-4 -8l14 -10l8 26zM176 1307v-4l-8 -19l14 -6l2 25zM612 1321v4v10h-14l-6 -4v-8zM367 127l-2 -2l-3 -14l5 -7l10 -2v15zM573 1366v-6l-6 -10v-9l13 5l2 8zM690 940v-4l15 -21l-7 23z M416 1462h-4h-4l-7 -14l15 6v8z" />
<glyph unicode="1" horiz-adv-x="583" d="M459 1157l2 -6l4 -6l-6 -31l2 -67l-2 -66l-2 -63l-2 -66l4 -64l-2 -65v-64l4 -63l2 -59l-2 -70l-2 -72l6 -33l-6 -18v-65l-4 -66l2 -66l4 -65l-12 -64l-11 -10l-14 -6h-68l-69 -4l-29 6l-6 6l-8 31l-4 63l4 66v66l-8 63l2 31l4 65l-2 66l-4 6l4 63l-2 66l2 66l4 57l2 65 l-4 70l-2 68l-4 63l8 68l-4 63l-15 25l-18 2l-23 -4l-26 -17l-31 -8l-25 -14l-18 -4l-27 12l-6 12l-2 72l-4 68l8 28l19 15l6 -5l4 13l39 22l26 23l60 22l29 17l47 47l16 2l18 24h9l30 17l33 2l31 -6l31 -13l6 -47l2 -67l-4 -66l4 -33l-4 -28zM338 139h6l18 4v13l-14 26h-16 l-10 -10l-33 -12l-10 -10l20 -21l-10 -23l4 -2l4 5l4 -17l8 -2l10 10h9v15h10v24zM293 965v-4v-25l10 -29l-4 -2l-4 -14l8 -33h6l2 8l17 2l4 15l8 10v31l-10 14l-6 23l-11 -3zM352 1333v-4l-4 -53l-10 -62l4 -24l6 -2l10 20l13 6l2 11l-11 20l15 39l-10 4zM373 242l-2 4 l-4 41l-13 4l-30 -4l-5 -13l-12 -10v-12l25 4l2 -6l12 -8h8h-2h21zM324 1108h4l4 -2l6 -14v-19l-16 -37l6 -16l2 12l12 6l4 43l-4 6l14 13l-4 16l-20 8l-6 -6zM356 76l2 2l21 14l2 14l-4 5l-17 -15l-6 -14z" />
<glyph unicode="2" horiz-adv-x="837" d="M537 -12h-5l-18 -2l-63 2l-68 4l-66 6h-65l-66 -10l-34 4l-62 18l-6 6l-2 37l4 37l10 -2l8 -12h7l8 16l-19 17l4 6h-10l-6 -4l-2 24l8 33l17 29v30l8 17l18 59l19 27l-2 12l24 64v12l10 10v8h7l2 21l16 20l8 21l12 12l7 16l18 19l2 16l12 8v15l13 6l10 20l6 27l25 31v8 l28 31l11 30v19l6 2l8 22l12 2l2 19l35 33l2 14l16 31l25 59l12 2l9 23l22 59l8 2v10l6 13l13 53v69l-13 62l-8 12l-14 10l-4 21l-37 29l-33 4l-37 -4l-30 -9l-11 -10l-2 2l4 53l-6 7l-10 2l-6 -7v-12l12 -31l-6 -16l6 -4l-35 -29l-6 -32l-14 -56l12 -24l8 -33l-14 -66 l-49 -10l-70 -4l-63 8l-13 10l-8 27l-8 4l-2 49l2 66l2 63l8 33l15 29l34 43l5 16l10 4v10l6 13l27 22l2 9l38 14l9 12l16 12l14 5l7 6l-3 4l56 14l71 4l62 8l33 -4l39 -18l28 -4l15 -8l32 -9l2 -12h11l26 -41l29 -20l16 -25l4 -12l13 -8v-11h10v-16l4 -8h10l15 -64l4 -2 l-4 -10l4 -25l-2 -30l2 -66l-11 -57l-12 -64l-10 -6l-8 -20l-2 -19l-11 -4l-14 -26l-20 -27l-2 -37l-23 -33l-2 -16l-16 -12l-15 -39l-10 -11l-8 -16l-37 -53l-12 -31l-13 -8v-4h-4l-2 -17l-8 -12l4 -4l-8 -2l-2 -10l-18 -29l-3 -14l-20 -27l-4 -14l-14 -23h-9l-14 -39 l-29 -59l-26 -57l-13 -11l-16 -28l-4 -31l6 -4l-4 -6l4 -19l10 -10l29 -6l66 -6l71 2l62 10l37 -4l65 6l31 -6l16 -23l2 -16l4 -72l4 -65l-14 -27l-27 -12l-28 -2l-68 2zM360 1376v4l11 27l-2 8l-9 4l5 13l-5 4l-38 -6l2 -31l-17 -29l4 -14l17 12zM326 520h6l18 21l15 -11 l-3 39l-12 29l-22 -37l-6 -16v-17zM174 41l2 6v27l-16 26l-4 -6l-23 -6l-2 -8l4 -6l6 6l4 -4l-4 -4l9 -31h12l6 4zM174 150l2 2l12 18v18h-18l-6 -22l-8 -10l4 -6h14zM522 1356v4l2 16l-4 15l-8 4l-2 -13l-12 -6l2 -12l12 -8h10zM307 70l-2 6l12 22l-12 17h-8l-4 -15l8 -26z M354 115l6 2l29 -8l-4 34l-8 -8l-8 -2l-13 -10zM487 1419l2 4l7 4l2 9l-21 -6zM354 510l4 2l2 8l-8 -2l-12 -12l8 -4zM170 70l-2 -2l-6 -5l-10 3l-5 6l3 4zM115 6l2 4l4 2l-2 6l-8 2z" />
<glyph unicode="3" horiz-adv-x="817" d="M653 92h-2l-12 -18l-23 -23l-2 -8l-10 2l-10 -8l-16 -4l-7 -6l-55 -29l-6 -6l-57 -17l-15 5l-14 -9l-31 2l-61 11l-51 18l-2 8h-9l-30 13l-52 20l-8 14l-30 25l-3 18l-12 27l-29 29l-4 30l-10 4l-10 29l4 29l-10 45l2 26l2 66l8 33l8 12l68 6l69 2l29 -6l25 -12l4 -25 l-4 -57l4 -72l12 -28l23 -29l12 -6l18 -2v-11l15 5l4 -5h14l25 -10l22 8l39 21l19 24l8 3l4 12l6 6l-2 12l8 10l2 11l-4 12l16 6l-2 14l-12 60l8 67l-4 33l4 33l-4 31l-18 63l-17 29l-24 20l14 25l2 10l-8 6l-2 9l-10 -9v-37l-37 9l-66 10l-30 12l-2 6l-7 2v43v72l9 29 l22 10l33 8l63 14l27 21l37 53l-2 25l2 65v66l4 67l-4 33l-10 31l4 6l-8 14l-9 35l-41 25l-20 -6h-41l-61 -27l-17 -41l-12 -67l-2 -68l-8 -31l-47 -8l-68 2l-66 6l-14 31l-4 33l2 67v66l10 8l10 41l13 8l10 21l27 57l22 23v4l21 12l53 33l63 22l35 4l17 6l32 -6l31 6l31 -6 l65 -14l31 -12l4 2l6 -11l29 -8l2 -12l43 -25l12 -12l17 -27l24 -22l2 -12l6 -6l-4 -11l11 -10l-4 -12l-21 -23l2 -8h27v-55l-13 -4l-6 2l-6 8l6 -21l-6 -4l-2 -14l12 -64l15 9v18l-11 12l-4 17l4 8l9 2l4 10l8 2v-57l-4 -64l2 -32l12 -29l-4 -37l-12 -65l-10 -27l-9 -37 l-51 -41l-37 -51l15 -20l14 -11l8 -14l51 -43v-10l-4 -4l11 -7l10 -16l12 -65l10 -64l-4 -6l4 -4v-55l-4 -64v-72l-6 -65l-12 -27l-4 -33l-17 -51l-16 -14l-10 -21zM565 1149l2 -4l2 -10l-8 -29l6 -2l11 6l8 12h32v-12h17l-2 18l-10 9l-23 41l-14 2l-15 28l7 2l2 9l10 8 l-10 6l-17 -39l4 -18l17 -7l6 -6l-4 -6l12 -8l4 -8l-2 -6l-10 -2l-10 10zM575 958v-4l-4 -30h15l4 -11h31l-7 9l-2 22l-18 17l-12 47h-17v-4l10 -11l-8 -6v-12zM487 729l2 2l17 23l2 18l-53 -10l12 -21zM449 1335h6l10 2l8 47l-18 5l-2 -13l-9 -14l5 -12h-5zM629 1237h-6 l-11 -12l13 -41l22 10v16l-18 2l-4 7l4 2v16zM213 92v6l-2 6l-10 9l-4 18l-13 10l-4 -8l13 -41l6 -4l2 4h12zM322 1403l4 2l10 -8l2 -6l6 -2l2 4l-4 2l-4 14l-6 6l-15 2l-4 13l-6 4l-8 -9l-2 -14l20 -2l5 4v-10zM195 328h6l8 2l6 14l-2 18l-14 5l-4 -9l4 -22zM209 1208l2 6 v7l-16 16l-7 14h-4l17 -34zM678 1120v-6l10 -16l14 -8l3 14l-5 14zM268 137v-6l6 -12l9 -2l14 6l-8 14h-21zM606 504l2 4l-2 18l-16 6l-4 -18l6 2l8 -14zM575 332h5l14 -8l14 4l2 10h-28zM586 1296h-6l-13 -6l4 -14h9l4 4l-4 6zM279 92v4l-3 17h-8l-6 -11v-10h17zM508 201h4 l8 2l2 8l-6 14h-4zM213 1384l2 5l4 18l-6 16l-4 -14v-20zM713 973l-2 -4l-9 -33l3 -6l12 33zM434 1438l-2 -4l-2 -11l14 -6zM279 156l-3 6l-2 2v-12l7 -9l6 -2l-2 11zM664 195v4l6 14l-11 2v-14zM430 743h4h4l11 11h-11z" />
<glyph unicode="4" horiz-adv-x="831" d="M774 508l2 -2l12 -33l7 -33v-34l-15 -64h-4l-63 -12l-29 -11l-8 -18l-4 -63v-72l-6 -2l-17 4l-12 8l-6 -2l-8 -22l2 -13l6 -2l22 8l9 -18l6 6l-4 17l4 6l6 -15l-4 -18l-8 -10l6 -13l2 -51l-4 -26l-11 -17l-12 -6h-14l-6 -4l-7 2l-75 -4h-62l-6 10l-14 62l-4 69l6 66 l16 -8l2 -23l6 -14l19 16l2 18l14 -6l-4 17l8 28h-16l-4 4l2 7h-6l-6 -13l-37 -2v21l-4 65l-25 8l-10 13l-27 4l-65 -6l-70 -4l-66 10l-34 -2l-64 -4l-31 6l-16 33l-4 37l2 26v68l18 61l17 31h8v14l4 6l25 62l24 53l4 31l7 4l20 45l29 61l8 2l8 45l6 9l-4 4l8 2l2 4l-6 4 l15 12l4 15l12 12l2 18l6 6l12 43l15 19l8 29l12 32l15 31h4l28 -27l8 5l9 24l12 12l-8 13l-15 -8h-8l-4 4l10 8l-4 6h11l14 6l-21 19l11 24l-4 25l10 30l33 58l10 39l37 53l6 16l18 11l25 2l16 10l25 2l63 -6l13 -4h26l10 -9l11 -2l2 -34l6 -66l-6 -66l-2 -67l4 -66l-4 -30 l4 -31v-64l-2 -67l2 -60v-61l-2 -70l2 -69l-2 -68l2 -72l6 -28l8 -19l27 -4zM461 713v4v33l-4 61l4 31l-4 30l-2 66l-9 31l-12 -4l-12 -11l-19 -26l-12 -29l-18 -63l-11 -5l-6 -16l-8 -4l-8 -39l-10 -10l-6 -51l-5 -13l-10 -10l-4 -24h-10v-9l-29 -59l4 -4l-14 -55l18 -13 l29 -8h68l69 4l15 27l4 33l-2 67zM379 406l2 4l2 12l-6 14l-8 4l-7 -12h-14l-8 -12l6 -4zM580 846h4l12 8l2 16h-14l-4 -6v-18zM467 297l-2 -4l-2 -10l18 -19l-2 19l-6 12zM403 934h-2l-12 10l-6 -6h4v-16l6 -2zM188 705v-5l7 -12l14 -2l4 8l-10 -2l-6 10zM393 958l2 3l2 4 l-14 18l4 -20zM365 1120v-4l2 -8l6 -4v14z" />
<glyph unicode="5" horiz-adv-x="831" d="M500 -18h-4l-50 2v4l13 10l-4 4l-15 2l-14 8v-22l6 -4l4 2l-18 -6l-8 2l-31 -11l-31 -4l-61 31l-2 6h-35l-2 4l-58 27h-10l-8 14l-14 8l-23 41l-12 11l-12 49l-13 28l2 11l-12 67v31l-4 70l6 32l19 23l67 6l64 10l32 -22l21 -27l4 -55l-4 -64l12 -28l35 -52l16 -2l11 -10 l45 -6l34 4l7 4l2 8l14 2l31 27l10 43l16 64l2 28l-4 64v69h4l15 17h4l-2 6l-19 -10l-2 10l4 14l19 -6v14l-6 68h-11l-2 10l-2 72l-8 63l-10 27l-8 4v12l-13 7l-8 12l-24 14l-66 -4l-29 -12l-22 -23l-41 -53l-12 -8l-39 -10l-39 12l-68 2l-26 12l-9 33l-2 33l4 33l3 63l4 68 l8 65v64l-4 67l10 27v16l-6 70l2 65l-4 64l12 65l59 13l72 4l6 -6l25 6l37 -2l65 -4l64 6l24 -6l-8 -11l17 -2l2 -6h8l8 17l65 4l66 2l57 -8l7 -13l4 2l2 -14l-6 -33l4 -16l-4 -15l4 -14l-17 -63l-16 -27l-21 -8h-63h-64h-67l-31 -6l-65 12l-33 -6l-6 -23v-51l-9 -14 l-10 -49l6 -29l-6 -64l-6 -67l14 -19l-2 -8h43l6 11l31 16l8 12h27l66 12l30 -2l64 -8l18 -8l60 -33l34 -53l17 -49l12 -10l4 -31l10 -33l-4 -33l6 -28l3 -33l-5 -37l11 -4l4 -6l4 -66l-8 -18l-6 -31l-3 -37l3 -67l2 -66l-5 -69l-12 -62l-12 -8l-2 -14l-10 -17l-2 -35 l-11 -30l-12 -19l-12 -10l-2 -14l-17 -13l-61 -30l-21 -21h-14v-8l-12 4zM508 1391l-2 -5l-17 -38l48 -2l10 -9v35l10 33l-8 -2l-4 6v10l-13 4l-32 -2l2 -18l-6 -6zM514 207l2 -4l4 -8l-14 -29l-2 -16l16 4l12 10l-6 10l6 23v16l-26 -2zM567 125l-4 -2l-20 -10l-11 -13h29 l6 -6l8 51l-8 5l-4 -9zM567 178h-6l-8 -16l-6 2l2 -10l14 -4l19 14h-9v26l-6 9l-4 -4zM479 100l-2 -4l-2 -6l4 -16l15 -8l6 16l-6 14zM152 1235l-2 -6l-3 -39l11 6l8 12v21zM152 858h6l10 2l12 8l-8 33l-6 6l-4 -16l2 -8l8 -6zM317 66h5l30 -9l4 4l-6 2l-2 17l-6 6l-14 -16 l-13 -2zM274 100l-2 -4l-2 -6l4 -6l25 -8v4l-14 6l-2 12zM645 295v-4v-15l4 -6h6l4 6l-4 3l7 12l-3 4h-14zM166 829l2 -4v-14l8 -2l-2 18l-12 21l-2 -2zM250 188v7l-6 4l-13 -6l2 -5h17z" />
<glyph unicode="6" horiz-adv-x="847" d="M410 -14h-4h-46l-10 8l-65 8l-11 10l-53 19l-22 22l-29 15v10h-10l-15 33l-26 61l-23 59l-4 33l-12 21l-2 28v70l-4 27l8 69h-4l4 25l-2 63l6 31v68v63l-4 66v63l-2 66v63l2 64l-4 67l-8 31l12 10l4 27l10 65l13 66l8 10l4 16l16 31l37 49l14 13l31 12l39 27l31 12l12 10 l59 6l68 4l70 -4l59 -16l10 -12l39 -13l4 -8l47 -39l13 -2v-10l18 -8l8 -11l6 -16l25 -63l4 -29l10 -25l7 -32l-7 -31l4 -66l-8 -32l-8 -3l-12 -12h-15l-8 -12l-30 -6l-17 4l-65 10l-11 10l-30 15v14l-11 31l2 18l9 15l-4 14l6 12l-2 12l-9 15l-6 24l-12 27l-12 12l-8 -4 l-13 14h-20h-74l-29 -8l-20 -16l-6 -14l-21 20l4 6l-8 12l-10 -10l4 -2l-14 -16l6 -10v-11l6 -2l16 15l7 -2l-21 -39l8 -23l-4 -72l2 -65l-6 -64l4 -32l8 -64l-4 -18l13 -35l38 6l2 4l9 -2l37 29l30 10l66 16l45 -8h37l4 -6l8 -2l4 -6l12 -4v-6h17l14 -7l53 -34l21 -25 l14 -29l21 -61l8 -66l-4 -4l6 -49l8 -65l-4 -29l-8 -10l2 -13l-4 11l-10 10l4 8l-9 -4l-12 14l-8 4l-14 -4l-15 4l-14 -6l-10 -10l-2 -14l6 -19h10l12 11l6 14l19 -10l6 6l4 -4l-8 -21v-10l6 -2l27 8l2 8l4 -34v-64v-70l-8 -63l-17 -62l-24 -55l-11 -33l-45 -45l-26 -18 l-31 -14l-20 -31l-15 -2l-65 -8l-72 -9l-14 5zM346 215l4 -2l21 -18l61 -15l17 2l55 25l6 12l27 60l8 67v66l-4 69l-4 64l4 61l-17 70l-18 20l-60 29l-8 -2l-8 29l-16 2l-4 -4v-9l14 -18l-25 -4l-63 -37l-17 -20l-12 -56l2 -31l2 -73l-2 -70v-67l8 -60l2 -35l9 -28zM645 690 l-6 2l-39 2l2 -10l23 -18v-7l14 -18l20 -10l9 20l-4 47l-7 2l-6 -12zM258 1106l2 4l27 35l-11 8h-8l-20 -14v-23l4 -8zM748 547h-5h-8v-10l31 -9l-2 37l-6 2l-6 -4zM166 1026l2 2l4 23l-6 10l-4 -2l-2 -21h-13l-10 9l-2 -5l8 -4l-6 -34l4 -3l2 11zM346 82v6v14l10 29l-14 6 l-10 -43l6 -10zM307 117l-2 6v4l10 6l2 8h-26l-8 -10l4 2l6 -6v-29l4 4v15h10zM297 170l4 2l14 6l17 17l-13 -2l-26 -17l-2 -22l4 -7l6 5zM463 1423v-4l-4 -16l6 -4h18l-6 18zM410 850h-4l-17 -6v-19h10l7 -4l-3 6zM205 698l-2 -6l6 -10l8 -4l21 2l-19 4v12l-6 4zM233 582v4 v6l-10 10l-2 -4l-8 -2l6 -18zM512 123l-2 4l8 14l-6 6l-10 -10h-8l2 -12zM582 219l-4 -4l4 -20h4l10 10l-6 14h-8zM596 328l-2 -4l2 -15l6 -6h6l2 4l-4 17zM659 743l-2 -2l-10 -22l4 -4l8 4h-4l9 14l2 -4l4 4zM190 522v6l-2 9l-14 6l6 -19zM575 127v-4v-10l19 6l2 8h-21z M670 170v-4l4 -6l6 8l-2 8h-4zM629 381l2 4l-6 14l-4 -4z" />
<glyph unicode="7" horiz-adv-x="737" d="M377 10l-4 -2l-11 -2l-63 -10l-68 2l-65 12l-4 35l4 33l-4 14l12 62l6 63l25 62v16l6 12l-6 6l6 23l-6 6l12 37l4 37l12 30l15 60l-2 37l4 2l12 30l12 64l13 10l4 39l12 31l4 33l8 28l15 31l4 31l8 63l10 4l10 37l19 64l-4 4l6 12l8 35l10 10l5 25l6 4l6 14l-2 31l18 35 l19 65l-4 15l-39 12h-64h-67l-66 4l-70 -8l-63 4l-27 14l-4 21l-10 67l2 70l8 29l27 4l63 6l66 -6l14 4l33 -2l63 -6l31 4l66 2h65l64 2l67 6l4 -4l-6 -17l10 15h11v-13h8l2 9l-6 4l6 2l35 -4l18 -25l12 -65l-8 -64l-10 -10l-2 -25l-10 -12l-4 -27l-13 -10l-12 -65l-14 -54 l-2 -32l-9 -7l-4 -16l-6 -2l-2 -14l-12 -17l-8 -51l-15 -27l-8 -57l-10 -33l4 -12l-2 -6l-25 -62l-4 -34l-4 -7l-6 -32l-16 -62l-17 -69l-14 -64l-4 -63l-21 -64l-4 -31l-10 -65l-12 -64l-8 -65l-2 -66l-13 -30l-10 -47zM444 983l2 -6l-2 -8l-18 -19l4 -6l2 4l4 -10l13 -2 l8 -27l-2 -10h6l18 25l6 -2l-4 -13l13 4l-2 9l-17 16v10l12 2l27 27l-12 10l-2 6h-6l-11 -10l-14 -6l2 16l6 4h17l10 15l-4 2l2 6l12 8l4 8l-29 2l-4 4l2 17l13 6l-4 4l10 -2l2 29h-10l6 22l-4 10h-21v-18l-12 -4l-10 -10l-6 -15l6 -2l14 4l4 -2l-8 -10l-4 -14l-10 -15 l-9 -2l7 -12l-9 -29l2 -6l9 21l8 4l8 -14v-11h-14l2 -14l12 -6v-10l-6 -2l-8 8l-6 14h-5zM313 1339l2 2l13 13h10l-4 59l-15 -2l-18 -25l-8 -2l-10 11l-7 14l-12 12l-8 2l-8 -4l-2 -6h4v4h4l12 -20l8 -33l-8 2l-26 18l-15 5l-2 -13l6 -26l-4 -9l11 -2l-5 -6l2 -4l11 2l2 12 l39 9l22 -13h6zM549 1423l2 -4l-2 -51l10 4l6 23l8 4l17 -2l10 -8v-33l6 -6l8 34l-2 15l-16 4v14l-6 2l-10 -6l-7 -10l-6 10v10h-18zM412 1354v6l18 29l-6 4l-10 26l-8 4l-7 -12l-2 -35l-6 -16zM401 874v-4l-10 -36l-4 -29l4 -8l21 34v11l6 4l8 14v10l-14 -4zM416 659h-4 l-45 7l2 -17l4 -4l8 6l8 -4l4 -41h8l9 21zM641 1448h-4l-25 12l-6 -4v-8l10 -21l-4 -10l4 -14zM373 518v-4l-8 -35l2 -12l10 -12l2 34l8 29h-14zM387 522v4l8 37l-4 4l-4 -6h-10l-6 -33l6 -6l2 4zM444 899h-6l-6 4l-4 29l-6 6l-2 -23l6 -16h-10l-4 -4l14 -8h8zM117 1350h4 h20l-4 8l-20 2l-4 -6l2 -6l-6 -27l12 -10l6 4l-8 16zM641 1262l2 4l8 16v8h-14v-22zM401 983v-4v-16h11v20h-11zM469 1022l2 -6v-2l-4 4l4 14h14l-2 -4zM422 952l-4 2l-6 4l-6 -10l10 -4z" />
<glyph unicode="8" horiz-adv-x="833" d="M592 18l-4 -2l-31 -14l-63 -12l-31 -13l-66 -6l-32 9h-33v4l-17 8l-2 8l-6 -6h-24l-47 26v5l-39 14l-2 6l-17 6l-10 19l-21 22h-10v10l-12 7l-23 51l7 6l-7 6l-2 12l-14 21v14l-8 60l-6 61l-2 66l2 69l2 70l4 65l4 2l2 15l10 6l8 22l19 29l22 37l25 22l8 15l-2 24l-18 29 l-23 23l-27 51l-18 69l-2 33l2 64l-2 61l-2 66l8 65l10 31l17 65l18 15v8l8 8l-4 4l25 17l4 6l6 -4l12 26l27 19l10 14l21 6l10 10l23 9l6 -4l32 18h17l6 12l45 -6l14 4l41 -6l9 -4l30 10l60 -14v-10h12l37 -23l14 -2v-10l19 -6l10 -13l51 -41l4 -14l27 -57l16 -62l6 -63 l4 -68l2 -63l-4 -68l-8 -63l-10 -11l-2 -8l-25 -61l-8 -2v-11l-14 -10v-10h-11v-14l-8 2l-6 -6l-4 -39l6 -13l37 -32l37 -52l8 -18l-6 -41l-18 -37l4 -6l2 -16h8l4 -4l-8 -17l4 -4l29 -6l6 -31v-31l-6 -63v-70v-65l-9 -33l-6 -4l-12 -49l-16 -29l-35 -55l-13 -2l-6 -19 l-14 -8l-8 -14l-35 -8zM518 274v5l2 4l2 63l8 64l2 65l-4 68l4 10l-4 37l-26 47l-31 16l-2 6l18 -4l13 2l4 7l2 24l-14 21l-27 4l4 -15l-10 -4l-8 -10l4 -14l-4 -6l-21 6l-35 4l-20 -10l-33 -9l-2 -4l-35 -49l-10 -35l-4 -35l2 -32l4 -66l2 -65l-2 -66l2 -63l20 -37l11 -8 l35 -9l14 -8l14 -2l60 6l22 8l4 11l15 4l2 12l16 23zM303 1198v-2l-2 -31l-4 -65v-72l10 -65l-4 -15l2 -20l19 -39l26 -27l23 -14l33 -2l63 14l8 12h8l29 56l12 67l-4 31l-8 66l2 32l10 33l-2 45l-10 10v25l-6 2l-31 37l-26 16l-64 8l-37 -26l-18 -8l-2 -11l-13 -14l-4 -24 l-10 -5v-14zM186 938h7l14 -2l4 8l-4 2l-2 17l18 41l2 36h-22l2 17h-6l-9 -10l7 -21h-4l-17 -27l-10 -2l-14 4l-7 -2l-2 -14l4 -8l-6 -14l9 -15l-3 -4l-2 4h-6l-6 6v-10l-6 -14l12 -10l47 -7l4 9zM215 1153v4l-14 37l2 8l10 10l2 11l-25 -6v4l-10 10h-8l-6 -14l22 -17l-2 -6 h-14l-14 6l-6 12l6 -41l-6 -12l34 -35zM528 782l-2 -4l2 -20l-4 -15l8 -2l7 -22l8 -2l6 -27l-8 -16l4 -8l22 8h11l-4 8l10 27l-13 14l3 10l18 -20l-10 22l-15 8h-32l-4 13l4 10l14 12l16 -4l9 4l-7 4l-8 15l-2 -4l-8 4l-10 -11zM162 1321v-2l-15 -37l13 -10l-4 -12l6 -9l6 9 h10v8l6 6h11l20 45l-2 12l-27 4l-14 -30l2 26l-8 4zM549 113l2 6l4 6l23 6l2 8l-5 33l-12 8h-10l-6 -24l2 -11l-14 -6l-3 -8l7 -14zM250 1389h4l10 12l-10 2v-10h-10l-13 -17l-30 -8l10 -18l18 -4l11 8l14 -4zM612 889h-6l-4 2l-4 16l-12 13l-23 4l21 -43l-2 -21h14l10 12z M254 733v4l-4 31l-6 -2l-6 10l-9 2v-55zM748 528l-5 2l-8 9l-12 47l8 -2l2 -6l6 8l9 -21v-37zM156 356l4 2l6 4l-4 27l-6 2l-4 -10l-25 -10v-19h10l15 15zM451 78l4 4l4 12l-15 29h-14l2 -19zM549 1124l-2 -4l-2 -8l4 -2l43 39h-10l-11 10v-10l-18 -10zM655 401h-4h-10 l-14 -6l8 -22l20 -6l2 10l-4 14zM395 797v-6l-4 -23l21 -6l-4 29zM582 68l-4 -5l-11 -20l19 -10l6 6l-4 2l4 8h-10l4 17zM500 117h4l10 6l4 14h-18v-20zM211 63l2 -2l8 -4l15 4l4 7l-4 6v-4l-25 -2v-5zM197 870l2 2l2 9l-6 14l-7 -2l2 -16zM606 1178v-7l4 -8h11v8zM700 1272 h-6l-8 -6l-2 -9h10zM483 1466v-4l9 -6l12 6zM582 1184v-4v-6h14l-4 10h-10zM563 801v6l-14 4v-10h14zM190 395v4v7h-10v-11h10zM236 483h-5h-6v-10h11v10z" />
<glyph unicode="9" horiz-adv-x="849" d="M621 18h-5l-32 -8l-9 -10l-14 -4l-61 -16l-70 -7h-70l-61 11l-6 6l-25 4v10l-24 4l-2 8l-11 11l-16 6l-18 26l-27 19l-18 33l-11 30l-10 4v15l-12 20l-2 17l-11 12l-8 63l-2 66l15 61l8 -2l2 6l10 3l12 -7l41 9l15 -7l-11 -18l2 -6l17 -17l2 -8l6 4l64 21l-5 8l-26 14 l14 4l35 -8l2 -16l4 -72l10 -63l13 -25l49 -37l37 -2l6 -10h12l2 8l23 2l8 10l16 5l25 20h8l16 37l15 57l2 33l-2 74l8 28l-6 17l-4 67v70l-9 27l-26 -2l-29 -13l-57 -32l-31 -7h-33l-6 4v-2h-67l-62 15l-24 16l-21 8l-26 31l-44 51l-10 39l6 10l-20 54v16l2 64l-6 65l6 14 l4 33v66l-8 22l-2 29l4 33l10 69l4 64l17 18v8l8 2l10 39l33 56l47 41l20 22l2 8l31 9l27 14h14l72 8l4 4h49l-6 -24l-2 -31l-6 -14l-17 16l11 6l-2 16l-25 -16l-2 6l4 6h8l-6 9l-6 2l-12 -17l-2 6l-7 -4l7 -24l-7 -6l-30 -5l-31 -12l-16 2l4 -8l-15 -6l7 -17l-3 -8l-18 -18 l4 -10l-8 -13l4 -12l29 8l10 10l6 25l29 -4l12 20l-8 15l4 10l20 14l7 -6l-2 -61l6 -17l8 2l14 17l6 16l9 -4l22 4l-10 33l2 10l6 4l16 27v10l-14 27l4 16l21 2l34 -4l60 -18l59 -17l19 -16l51 -41l14 -29l15 -12l12 -27l8 -4l-4 -6l2 -6l8 -4l6 -23l9 -2l2 -10l12 -61v-39 v-64l-4 -14l8 -16v-15v-61l-4 -66h-4l10 -59l-2 -33v-65l6 -33l-6 -15l4 -30l-4 -66l2 -31l-2 -67v-68l4 -65l-2 -62l-10 -32l-2 -64l-8 -63l4 -5l-7 -12l-2 -18h-10l-2 -8h-4l-8 -31l-17 -29l-47 -43zM502 786l4 -2l12 -4l29 13l-12 22l2 10l6 -2l14 6l8 13l15 6l6 -2 l14 49l-4 -2l-16 8l-5 -6l7 -6l-2 -2l-13 8l-2 -14l-18 -11l2 27l-4 64l2 61l10 10l-14 6v9l6 -5l8 2l4 7l-16 8l-2 14l-2 68l6 61l-8 2l-17 47l-16 6l-8 15l-23 24l-69 9l-27 -7l-4 -8l-19 -2l-14 -8l-6 -23l-29 -61l2 -25l-2 -65l10 -33l-8 -49l-4 -66l-4 -63h-4l-10 -10 l8 -15h12v19h4v-58l11 -28l16 -23l24 -18l29 -10l35 -4l37 4zM571 635v4l4 6l5 -16l16 -13l6 -14l-2 -10h10l15 8l-9 37l-16 12l-4 -4v10h-14l-13 13l-2 8l-6 4l-4 -4l-10 4v-10l-4 -6l-2 12l-4 4l-5 -6l25 -29l-10 -6h-10l2 -8l12 -10l2 16zM596 1266l2 2l2 2l10 -19 l-10 -8l-18 -26h12l6 -5l4 11l14 -4l7 4l-4 22l14 27l-17 -6l-6 2l-2 10l15 16l-17 29l-10 2l-8 -6l6 -8v-35l-4 -8zM635 1407l-2 -6l2 -6l12 -9l4 -16l13 -10v8l-5 2v8l17 2l2 9l-6 14l-8 4l-9 -6zM268 160l2 4v10l-12 10l-4 -4l-4 2v17l-6 -9h-11l7 -14zM479 727v-6l4 -6 l23 2l6 -4l4 20l-8 4l-12 -8zM254 311l-6 2l-8 -2l-4 -6l-3 -16l11 -10zM733 782v-6l-6 -24l21 6l-7 22zM272 1462v-4l-2 -4l-12 -2l-4 -4v-10h25zM518 1354v4l-4 8l-10 8h-10l2 -12l12 -8h10zM571 748l-4 2l2 6l-8 6l-2 -4h-8v-15h14zM571 1036v-4v-8l15 -8v10l-6 10h-9z M590 360v-4l6 -14h10l-6 14zM631 479v4v6l-10 9v-17zM215 381l-4 2l-4 2l-2 14l14 -4zM240 391l-2 -4l-5 -10h-10l2 8zM526 645l2 4l-2 4h-14v-4zM600 913v-4l-4 -10h6l6 12zM283 1477h-4l-11 -11h4z" />
<glyph unicode=":" horiz-adv-x="425" d="M111 780v4l-2 58l8 26l12 9l43 6l61 2l68 -2l6 -15h8l7 -43l-3 -32l-8 -13l2 -8l9 -67l-5 -35l-10 -27l-37 -8l-69 2l-70 2l-18 12l-7 62zM287 784l-2 -4l6 -16l-4 -14l2 -9l12 -10v-10l-4 -2l4 -2l10 8l-14 31v18l-4 10h-6zM307 12l-4 -2l-47 -12h-70l-65 8l-8 31l-7 67 l15 9l10 32l-4 7l-14 6l-7 63l7 -2l6 17l37 10h22l21 10l32 2l66 -12v-8l14 -11l6 -34l-2 -54l4 -63l-2 -35zM227 70h4l13 -9l16 37l-2 13h-14l-4 4l4 14l-13 -4l-8 -12v-17l10 -10z" />
<glyph unicode=";" horiz-adv-x="425" d="M201 -223l-4 -2h-39l-25 18l-6 19h4v10l12 12l15 29l8 31l10 16l14 -6l3 49l-9 27l-53 32l-22 23v8l-3 63l3 66l6 33l12 28v9h37l61 12h31l8 -6l2 -39l13 -8v-8l4 10l-7 20l3 19l36 -19l4 -35l9 -28l-9 -23l-4 -31l2 -32l-2 -66l-14 -67l-25 -60l-8 -2l-8 -24l-16 -27z M117 651l-2 4l-6 7l-11 57l-2 74l6 30l-4 4l6 23l-2 12l15 15h16l2 8l39 4l76 -4l35 -11l24 -12l-2 -35l6 -34l-12 -27l18 -57v-33l-16 -29l-41 -6l-8 6l-12 -2l-62 -14l-39 2zM211 94l2 -6l2 -4l-14 -25h18l27 11l43 -19l4 4v8l-17 21l3 6h-5zM186 -106h-4l-10 6v-17h10z M147 -188h5h8l2 8h-10zM264 41v-4l12 2l3 4l-5 4z" />
<glyph unicode="&#x3c;" horiz-adv-x="1183" d="M1055 406v-3l6 -51l-8 -69l-15 -7l-18 -2l-4 -6l-17 2l-14 9l-57 34l-19 2l-59 17l-6 6l-21 8l-57 31h-8l-51 22l-13 11l-10 -4l-37 30l-29 15l-36 4l-2 4l-15 6l-8 14l-6 -4l-29 10l-24 19l-49 10l-5 6l5 12l-3 9l-32 2l-6 18l-7 2l-26 -4l-33 4l-31 12l-26 19l-27 4 l-27 12l-12 -4l-31 21l-28 10l-4 8l-21 10v11l-8 10l-6 26l2 35l10 74l27 16l18 21l62 24l55 33l6 -6l6 6l21 4l63 23l27 16l59 31l31 4l10 10h8v11h21l12 10l33 12l61 29l17 16l16 4l4 6l-2 4l29 5l31 10l4 -4l39 14l8 10l16 2l6 6l56 27l67 21l39 28l31 6l33 -4l8 -28 l6 -68l-6 -68l-39 -24l-35 -10l-25 -21l-26 -2l-12 -10l-52 -23l-32 -8l-29 -16l-8 2l-6 -10l-15 -9l-61 -24l-62 -25l-14 -10l-31 -4l-4 -4l-14 -2l-31 -17l2 -4l-26 -6l-15 -8l-8 6l-2 -8l-2 2l-12 -10l-2 -9h-5l-57 -26l-8 -12l-10 -2l20 -39l31 -2l12 -13l43 -14l29 -18 l26 -5l15 -8l31 -4l6 -6l12 -2v-6l31 -4v-11l43 -24l61 -21l66 -28l26 -17l45 -10l7 -12l59 -21l61 -34l6 -19l7 -6zM342 754l2 2l16 45l-2 16l-8 14l4 3l6 14l-2 8l-8 4l-6 -2l-2 -8l8 -29l-10 -4l-2 -8l-6 -2l10 -39l-6 -12zM385 754l4 2l19 12l-9 4l-24 -16l-4 -6l4 -7 l2 5l12 -21l6 2l-2 14zM406 920v-7l22 -16l6 2v10l-4 6zM444 944v-6l-4 -6l4 -2l5 6l20 -8l4 6h-6l-16 12zM702 1032h-4h-10l4 -14l6 -6zM424 856l4 -2l8 8l-6 15z" />
<glyph unicode="=" horiz-adv-x="1183" d="M975 627h4l14 -2l64 -17l6 -67l-6 -68l-8 -27l-64 -4l-59 -4v6l10 13l-21 -2l-26 -9l-17 5l-8 -13l-8 -2l-20 4h-31l-68 -4l-63 6l-31 -2l-68 -2l-67 -2l-64 4l-63 -6h-59l-66 2l-66 2l-61 2l-6 37l-2 66l8 65l47 19l37 2l33 8l16 -6l66 -4h59h64l65 2h70l65 -6l66 4 l33 -4l65 4l66 6h63zM137 852l-2 2l-16 45l-2 39l6 70l14 10l-2 6l6 6l58 6l63 -4l66 -4l63 6l62 4l65 -4l68 -6l32 2l29 8h31l65 -8l35 2l2 -10l-14 -16l-2 -17l6 -4l12 2l9 19l12 -2v-13l-10 -12h-9l-2 -4l4 -14l-4 -9l-16 -14l-2 -8l4 -8l14 4l11 -13l6 -16l-21 4l2 -8 l19 -12l-2 -13l8 -4l8 2l4 -10l6 -4l-18 -6l-25 4l-63 2l-68 -4h-67l-66 2l-61 -2l-62 -4l-65 6l-4 6l-11 -8l-45 -2l-69 6h-62zM842 975l-4 4l-4 2l-27 -16h-8l2 12l8 14l12 8l17 5l-2 -11l16 -18l2 2l-12 22l14 23l-4 10l6 2l4 -10h15l6 -14l14 -6l2 4l-12 12v8l31 6l8 -4 l10 -12l25 16l45 -4l2 -6h6l10 8l16 -2l13 -8l10 -33v-63l-14 4v-23l14 -10l-12 -37l-15 -8l2 -4l-20 -4l-70 -2l-76 4l-6 4l11 2l-23 10l4 15l-10 30l8 15l37 -2l12 6v10l-4 6l-14 8h4l4 6l-8 5l10 18v10l-59 -28l4 -50l-17 17l-2 8l-14 4l4 25h10zM872 553v4l5 6v10h-23 l-51 5l-12 -21l-3 -18l-8 -2l-2 -9l8 -2l13 -12v-8l10 -10l2 4l-8 28l20 11l19 -29l12 16l10 2l4 7l-2 8zM319 979v-4l-6 -25l11 -10l-11 -2v-16h39l-4 12l10 45h-39zM657 524l-2 4l-2 9l13 16v10l-19 10l-6 -6l-4 -12l-10 -10l-6 4h-19v-6l19 -15h14l16 -6zM295 588v4 l-2 20l-8 -4l-6 8h-5l-4 -6v-16h9l-3 4l5 4l4 -4v-8l4 -4zM887 944l-2 -4l-8 -10h-15l2 10l10 8zM999 985v-4v-31l15 29zM866 877v-7l4 -6l15 4l2 9l-17 -5zM334 856v4v10l-4 2l-2 -4l-15 -6l6 8zM954 457l2 2l5 12l-7 4l-6 -14zM774 510l4 -2l6 8l-6 2l-8 -6z" />
<glyph unicode="&#x3e;" horiz-adv-x="1183" d="M1049 782l2 -4l12 -16v-29l-12 -57l-21 -31l-14 -8h-8l-43 -21l-64 -24l-20 -17l-29 -8l-25 -20l-18 2l-43 -21h-12l-45 -20l-27 -19l-14 3l-11 -7l-10 4l8 -8l2 -8l-41 -10l-59 -25l-61 -28l-19 -15l-31 -14l-28 -4l-23 -10l-59 -29l-55 -19l-11 -10l-22 -2l-17 -10 l-16 -4l-8 -14l-37 -9l-37 -2l-12 17l-2 59l4 66l8 26l6 6l60 29l24 18l25 5l10 6l45 18l27 17l30 4l11 14l20 4l29 18l18 3l13 12l18 2l47 18l25 21l30 4l2 8l15 4l61 27l8 -2l11 -13l10 5l2 20l4 4h16l7 -4l4 2l-4 8l8 2l2 9h8l12 8l2 -6l-16 -48l8 -6l10 13l6 -7l9 11 l16 4l-14 31l-6 4l10 34l-8 21l-23 8l-6 8l-23 2l-12 11l-31 8l-10 10l-35 10l-10 10h-14l-35 25h-8l-10 6l-35 8l-2 4h-9v11l-38 14l-5 -4l-45 14l-24 19l-29 10l-63 25l-4 6l-17 2l-12 10l-19 4l-12 12l-28 4l-7 7l-32 8l-9 12l-8 4l-12 64l-6 8l10 45l8 63l21 2l63 -16 l-6 -18l-8 -2l4 -9l27 -8l6 -6l16 -2v10l-6 6l-23 9l5 8l6 2l24 -14l60 -29l57 -31l55 -16l13 -13l22 -2l12 -8l13 4l12 -4l-4 -6l20 -10l2 -8l31 -4l2 -9l21 -4l12 -12l22 -6l15 -12l35 -11l6 -6l43 -24l30 -5l11 -18l-2 -12l4 -2l12 12h12l15 -6l61 -14l6 -9l23 -12v-8 l20 -4l15 -11l16 3l57 -29v-23l4 -4l11 2l10 11l8 2l14 -15l-2 -4l-16 8l-8 -10l-6 -2l-11 4l7 -14l12 -10zM696 905v4l-8 21l8 14h-4l-8 10l-8 4l-10 -12l-25 -18l-10 -13l-8 -2l4 -10l-9 -49l5 -8h4l10 10v18l25 19l10 2v-8l10 2l4 -4l-2 6zM881 737l2 2l6 9l8 34l-4 15 l-10 12h-21l-14 -12l-8 14l-15 6l-8 -2l-4 -8l39 -25l2 -8l10 -10l2 -16zM612 909v6l-4 23h-24l-6 35l-23 -6l-6 -15l8 -6l6 -22l15 -2l-5 -4l11 -9l-4 -2l4 -2l2 4l24 -4zM500 973v-4l2 -4l24 -4l4 14l-12 12l-18 4l-17 -4l-8 -14l8 -4zM690 850l2 2l2 8l-6 14l-12 11 l8 -33z" />
<glyph unicode="?" horiz-adv-x="741" d="M254 1061l-4 -2l-6 -2l-66 -10l-69 4l-29 8l-10 10l-9 49l7 64l-7 65l17 60l6 6l8 22l14 8l5 15l8 10h8v4l-6 2l6 4l12 25l35 35l16 4l5 10l24 4l17 19l28 8l64 14l67 6l64 -8l22 -10l31 -8l10 -13l8 -2l11 -10l6 2l10 -12l14 -2l11 -13l8 -4v-8l41 -45l6 -24l12 -11 l4 -14l13 -66l10 -20l2 -25l-2 -63l-4 -6v-29l-13 -61l-10 -4l-2 -7l-22 -65l-33 -57l-27 -44l-4 -12l-39 -57l-33 -55l-4 -21l-16 -16l-23 -62l-2 -30l-6 -5l-14 -41l-4 -38h4v-5h-4l-14 -49l4 -18l-4 -31l-9 -4l-14 6l-2 -10l-25 -6l-69 4l-4 6l-35 10l-6 64l2 65l10 6 l4 56l4 63l6 4l8 29l11 10l2 39l35 53l8 35l22 29l27 55l20 29l7 24l8 5l8 20h-4l10 21v8l4 4l10 33l11 16l2 61l-2 68l-17 25h-8l-4 14l-6 6l-14 4l-7 14l-30 5l-31 -2l-16 -9l-46 -32l-4 -15l-16 -63l-4 -37l12 -12l4 -17zM420 113v-4l10 -39l-10 -62l-8 -2l-2 -6l-37 -6 l-68 4l-67 6l-13 25l-10 32l-4 35l4 72l12 59l19 6l33 5l69 2l33 -7l14 7v-4l11 -11l14 -6l-6 -14l10 -6l-6 -56zM561 1030l4 2l4 19l-10 12l-8 2l-2 -25zM131 1159h4l10 6l11 23l-25 -4v-25zM170 1270v-4l-4 -15l16 4l8 15h-20zM582 997v4l-4 11l-7 4h-10v-4zM606 967l4 2 l-2 12l-6 2l-6 -6l2 -6zM557 1427l2 5l-6 6h-8l-4 -6l6 -5h10zM326 184l4 2l2 4l-13 5l-2 -2l9 -5l-4 -8z" />
<glyph unicode="@" horiz-adv-x="1347" d="M862 6l-4 -2l-20 -6l-60 -27l-30 4l-15 7l-14 -5l-33 9l-65 -2l-66 12l-61 14l-64 25l-6 8l-35 10l-27 21l5 14l-5 2l3 6l24 6l2 7l-4 16l-8 12l-17 6l-4 -6l4 -4h11l-33 -22l-2 -9l10 -10v-8l-10 8l-51 41l-17 29l-20 20l-10 -4l-13 12l-6 15l-14 18l-2 17l-8 -4l-15 16 l-32 51l-13 31l-18 67l6 5l8 -3l4 5v8l-8 -2l-2 8l-12 -2l-2 -8l-9 30l-6 4l-10 39l6 13l-6 14l2 20l4 7l-10 22l-4 55l4 64l8 12l2 66l15 26l6 31l-2 19l12 20l18 66l23 24l22 43l13 31l16 8l23 23l6 14l20 24l51 48l13 2l8 -7l4 3l-6 14l33 20l8 13l18 6l-2 10l4 4l29 4 l12 8l64 25l61 20l21 -4l16 4l66 19l32 2l66 -10l47 4l31 -8l45 -19l55 -18l12 -10l33 -15l55 -35l50 -41h8l14 -18l35 -55l39 -52l31 -61l22 -61l12 -64l17 -61v-35l-4 -68l-9 -59h-10l-4 -39h-4l-8 -18l-12 -15v-31l-17 -22l-12 -10l-19 -39l-22 -23l-43 -49l-8 -2 l-60 -33l-14 -2l-14 4v-4l6 -2l-37 -10l-55 -12l-33 10l-64 8l-24 19l-21 28l-12 33l-10 12l-6 17h-23l-20 6l-4 -4l4 -21l-11 -6l-16 -27l-25 -6l-12 -10l-18 -8l-64 -17h-35l-32 11l-33 4l-6 14l-23 23l-14 6l-16 31v14h-9l-2 12l-4 2l8 17l23 22l-2 8l-6 4l-4 17l-9 12 l-14 -6l-4 61l8 31l6 6l15 58l22 59l29 55l8 4l35 37l6 17l10 12l43 24l2 13h11l4 10l12 4l65 17l13 8h43l28 -6l27 -19h8l27 -29l16 -6l15 6l22 25l8 14h4l66 4l25 -6l26 -16l2 -16l-6 -35l-18 -58h-21l2 -20h8l-10 -29l-16 -67l-19 -11l11 -12l-2 -6l-9 -6l6 -10l-6 -11 l-6 -28l-22 -66l6 -12l-6 -35l12 -45l25 -16l2 -9h10l14 -10l33 -2l6 -6v10l-4 4l4 4l18 2l27 19l12 2l13 12l47 49l2 15l26 43l13 45l-2 22l4 33l10 33l2 33l-6 65l-8 64l-8 10l-25 63l-21 29l-6 25l-10 6l-10 22l-21 29l-14 4l-8 12l-10 2l-11 13l-14 4l-2 6l-23 22 l-57 35l-20 17l-23 -2l-31 6l-65 14l-33 -4l-10 8l-64 -4v21l-6 -19l-63 -10l-13 -10l-26 -4l-15 -7l-4 -6l-10 4l-10 11l-19 2l-2 14l-8 18l-4 -8l6 -20l-2 -21h39l-16 -12l-29 -12l-27 -19l-22 -22l-29 -15l-4 -8h-8l-16 -16l-9 -2l-4 -6l-2 -19h-4l-10 -20l-12 -11 l-19 -28l-12 -10l-23 -54l-20 -59l-12 -8v-21l-9 -4v-12l-14 -64l-2 -34l2 -66l8 -63l-4 -3l6 -40l15 -64l18 -27l10 -45l13 -14l8 -23l33 -34l4 -15l18 -18l16 -27l11 -4l24 -20l2 -8l13 -11v-10l24 -8l56 -25l63 -26l68 -17l63 -6l66 4l65 2l17 8l30 9l6 8l11 -2v6l6 -2 l18 14l21 2l6 4l53 33l31 4l33 -12l10 -12l8 -25v-14l-27 -41l-28 -13l-13 -10l-55 -24l-26 -17l-44 -10zM768 637l2 4l8 27l21 65v29l-19 35l-22 16l-8 12l-50 2l-30 -8l-15 -10l-47 -41l-6 -14l-8 -4l-16 -35l-29 -64l-8 -33l-13 -26v-10l2 -70l7 -31l22 -41l23 -14l36 -4 l52 14l8 10h8l29 37l26 39l2 35l9 18l6 33l8 6zM694 1264l-2 -2l-14 -23l-8 -35l6 -2l12 6v9l12 28l-2 17zM934 94l-6 -2l-23 2l4 -20h27l4 6l-6 4v10zM817 436l4 -2l10 4l21 27l-27 -14zM807 440v4l4 13l6 4h10l-6 14h-8v-4l-10 -10h4l-4 -23zM514 641l2 2v21l-6 2l-6 -15z M821 506l6 -2l-6 -19h10l5 7l-2 16l-7 2zM485 627l2 -2l13 -2l10 10h-18zM367 1137v-4l2 -5h12l2 9h-16zM793 377h4l10 10l-12 -2z" />
<glyph unicode="A" horiz-adv-x="886" d="M807 2l-2 -2l-8 -8l-17 -2l-24 4l-62 18l-28 -14l4 4h-49l-23 49l-6 29v39l-6 35l6 14l-4 4l-17 2l-6 49l8 10l-4 35l-6 17l4 2l-26 14l-66 14l-6 39l-8 -4l4 -10l-4 -10l4 -4l-14 -7l-45 -2l-68 -8l-27 -18l-8 -49l-8 -66l-10 -29l-6 -34v-33l-11 -64l-28 -10l-68 -4 l-70 -2l-28 6l-21 37v8l8 10l2 11l-4 14l4 31l11 69l-6 31l10 25v39h10l4 30l6 4l4 19l29 6h35l-14 49l-15 -2l-16 -12l-8 4l-2 8l14 4l4 6l2 17l10 14l-4 6l-12 -6h-8l2 33l12 63l4 62l12 67l-2 17l5 30l10 31l20 64l2 30l4 9l-8 10l-2 10l12 6l5 29l8 12l-4 6l2 6l12 64 l8 61l-4 11l6 6l15 63l8 64l8 -4l4 43l8 63l10 64l27 -5l6 5v8l-22 2l-6 4l6 61l30 56h37l70 4l4 6l49 -14l33 -7h35l4 11l16 -9l19 -36l-2 -7l-9 -2l21 -4l2 -8l8 -2l8 -49v-66l15 -61l14 -66l14 -63l6 -64l9 -26l4 -33l14 -63l8 -66l15 -31l-4 -30l10 -33h-15v-10l17 -5 l2 -18l14 -63l-8 -11l-2 -20l6 -4v-13l14 -12l5 -33l10 -65l12 -66l10 -63l13 -66l10 -63l-10 -10l10 -23l16 -63l6 -7l6 -45l15 -30l-12 -56l-13 -10zM362 526l5 -2l32 -6h66h55l-4 31l-2 69l-4 3l-2 8l6 2l4 12l-4 6l-6 33l-8 68l-13 65l11 6l-4 2l2 23l-4 14l-13 21v16 l-10 4v62l-20 61h-9l-12 -33l-4 -24l-12 -11v-10l-9 -67l-12 -27l4 -14l-4 -23l-12 -65l-2 -64l-17 -61l-4 -66zM313 403l2 5l9 10l-5 8l-20 59l12 27v8l-8 -8h-6l-12 27l-6 -4h4v-5l-31 -16l-14 -2l-9 4l4 14l11 5v18l35 2v8l-5 64l7 14l-7 6l-14 -4l-6 14l14 17l2 16 l-10 12l-2 -10l-14 -14l6 -6v-10l-6 -15l10 -12v-12l-10 -2l-17 -15l-12 -2l-8 -12l-6 2l-4 -25l22 6l6 -2l-4 -6l4 -32l-6 2l-20 -11h-9l-2 6l-8 3l-2 -5l2 -55l-4 -8l29 -2l12 -6l6 -13l2 -18l-30 -20l-9 -15l9 -2l2 -6l8 -2l20 35l19 6l6 14l-21 25l27 -6l4 6h-4l8 14 l8 -2l11 -16v-37h10l12 -16zM236 319l-7 3l-6 6l-4 16l17 14l-13 11l-33 10l-12 -39l-10 -12l-2 -9l6 -16l-8 -8l-2 -8l10 -21l-6 -14l20 -27v-8l23 8l16 -2v17l4 6l-8 2l-2 4l10 16zM729 111l2 4l12 10v25l-6 32h-8l-2 -28l-47 6l-2 -10l6 -21l-18 -35l10 2l4 8l4 -4l-2 -4 l10 -22l2 -19l17 -2l4 -6l-25 6l-10 -12l16 -6l23 2l12 24l-2 11h-6l-10 -11h-8l-11 15l4 8l-4 25l4 6l11 -4l4 -7v-16l20 -2l-10 18zM539 418h6l22 4l-4 12v33l-16 4l6 18l-6 3l-4 -7l-27 -14l-35 -6l-22 -21l-8 -12l10 -4l10 8l18 2l5 -18l10 -6l8 10l25 2l6 6zM641 326h6 l25 2l12 6l-4 2l12 16l-2 6l12 19l13 31l-13 2l-8 49l-10 4l-6 -12l-2 -41l-6 -7h14l-25 -24h3l-5 -19l-22 -2l4 -10l-2 -14zM180 76l2 4l23 45l-49 4l-13 -16l-2 -9l13 -18l-2 -6l-13 -2l-14 10l-12 -4l6 -12l-10 -21l30 10l21 13zM293 784l-2 2l-35 15l-16 -6v-15l12 -10 l2 -39l14 -12v-8h6l13 8l4 14l-2 35zM176 160l4 -2v-8l-8 -15l8 4h17l-4 8l2 15l6 6h-15zM739 86v-4v-21l17 -4l12 9l-10 6v8zM236 809l-3 -4l-24 -14l-4 -7l35 15v14l-4 6v-10zM268 358h4l21 17h10v12l-4 6l-2 -4h-8v-14l-23 -13zM610 399v-6l4 -8l17 -2l-4 14zM793 27v6 l-2 2l-9 -4l-10 10h-8l-6 -10zM610 295l2 -2l17 -14l2 2l-13 20l-8 4v-10zM621 662l2 4l8 14l-10 6l-3 -12l-6 -6zM303 1274l-4 2l-2 6l-18 2l-5 -6h19v-6l4 -2zM602 717v-4l6 -11h8l5 5h-5l-6 8zM500 1087v-4v-10h8l6 10zM268 496v4l13 2l4 -6l-2 -4z" />
<glyph unicode="B" horiz-adv-x="917" d="M700 33l-4 -2l-22 -15l-51 -4l-33 -8l-68 -8l-61 -2l-4 18l4 6l-10 -4l-5 -6l5 -14h-27h-57l-68 4l8 20h10l7 29l12 -4l4 2l2 10h-33l-6 -12h-29l-6 43l4 -4l27 8l-2 8l-18 8l-5 9l-22 -15l-8 4l-4 -8h-4l-5 10l5 9l6 2v4l-13 4l-4 6v-16l-14 -29l2 -6l12 -6l19 -2l-4 -6 l6 -23l16 -2l6 -4l-2 -12l19 -27h-31v10l10 10h-24l-13 -22l-12 2l-4 8l4 6h10l-6 4l-6 15l2 6l-6 -6v-23l-4 -10l-45 4l-27 10l-4 25l-2 53v70v71l-6 33l8 53l-2 35l-4 60l-4 69l-2 70l20 24l-2 9l-12 6l4 8l-4 2l-2 21l-2 65l4 66h14l-2 8l-12 6v41l2 65v64l-8 31l6 57 l4 59l-4 68l4 68l-4 65l4 6l-4 31l6 63l4 66l17 18l32 15l13 -4l59 4l57 -4l70 -4l31 10l34 -2l64 -8l16 4l52 -11v2l63 -6v-8l31 -8l26 -18l11 2l45 -39l14 -7l18 -49l17 -18l2 -16l18 -62l8 -67l13 -62l-2 -65l-6 -66l-9 -63l-14 -15l-22 -57l-23 -23l-49 -43l10 -39 l-10 4l-4 -8l10 -10l4 2v8l37 -24l22 -25l43 -49l13 -55l12 -68l-4 -63l4 -33l-6 -64l6 -34l-8 -3l-2 -14l-10 -67l-5 -64l-20 -24l-8 -25l-8 -2l-2 -12l-17 -17l-47 -47h-10l-14 -6zM616 195l2 4l13 24l-6 2l-4 8l6 15l-23 20l-2 8l6 11l4 35l9 14l-5 57l-6 68l2 31l-6 30 l6 4v6l-10 5l4 8l-10 10l4 2l2 8l-10 10l4 3l2 8l-12 16l-43 47l-35 6l-66 11l-24 -4l-31 -17l-14 -2l-8 -25l2 -45v-73l-2 -64l2 -63l-5 -62l9 -65l-4 -23l4 -2l2 -8l41 -23h32l62 19l14 -6l15 8h10l24 12l21 27l14 2l-14 -49l4 -31l10 -33l-4 2l-6 -4l-10 -26l4 -13 l-6 -12l28 10l11 15l-21 14l2 4l14 -4l7 14l-9 11l9 8l-2 6l4 10l-11 10v11zM362 1153v-4l-6 -45l6 -31l7 -65v-66l8 -63l8 -7l-8 -4l6 -4l8 4l21 -4v-8l4 -4l33 -4l65 2l27 16l12 2l8 17l12 12l23 59l16 31l-6 23l6 14l-10 49v64l-6 34l-25 60l-24 20l-58 21l-30 4l-68 -8 l-14 -19l-8 -28zM778 393h-6l-22 6l-11 11l-2 -7l4 -20l11 -12l2 -11v5h-6v-15l-9 -6v-8l9 -12l-9 -19l19 -14v6l14 4l6 43l-4 31l-6 4l8 6zM666 590l-2 -4l20 -49l16 -7l2 33l13 27l-15 16v8l9 9l-13 2l-2 -13l-4 -4l-6 2l-2 17l-6 2l-6 -25h10l4 -4zM723 1040h-2l-19 17 l-2 8l17 -6l2 6l-10 29l-11 -4l-14 8l-8 -33l4 -2l6 -14l2 -31l12 -12l-6 24l4 4l21 -2zM764 428l-2 2v33l-4 4l-37 -14l-6 -15l10 -8l18 -2l-2 -6l9 -10l14 2l-4 4l6 6zM567 82l2 4l9 6v8l-29 11l-6 -5l-11 11l-8 -2l-16 -15l6 -2l18 -22l7 10zM475 90l2 2l8 8l7 15l-3 10 h-10l-18 -25l-17 11l-4 -21l11 -8v-10h14zM373 72h4l22 -2l13 6l-23 26l-2 9l4 6l-4 4h-14l-6 4l4 -6l6 -31zM518 27v6l10 16v10l-4 2l-12 -10l-8 2l-4 8l-4 -2l-7 -28l5 -13l8 7zM659 1128v-6l7 -18l22 6l6 -2v10l23 12l2 7h-14l-5 -9h-12l-12 -10l-2 4zM176 227l4 2l17 2 l4 7l-21 43l-4 2v-56zM719 526h-4l-15 -6l5 -14h24l-2 10l4 16l8 9h-10l-10 -6v-9zM733 928l2 4v14l-12 12l-8 3l-6 -15v-18l-4 -6h10l4 -4l-2 16l6 8l8 -4l-2 -6zM236 145h4l28 -14l11 8l-3 4l-18 -4l-18 15zM743 610l-2 -4l-16 -20l4 -6l14 8l5 6l-5 2l5 18zM715 854v4 l10 -6l4 6l-8 2l-4 17l-8 2l2 -25h4zM768 217l2 2l2 8l-4 9l-14 6l4 -13zM338 1147l2 -2l16 -12l-8 24zM676 330l-2 -4l-2 -21l8 -4l2 23zM416 2h6l4 4v8l-6 4l-4 -6l4 -2zM289 125l-2 -4l2 -4h14v4zM328 1167l4 -2l6 -8l4 6l-4 6l-8 2z" />
<glyph unicode="C" horiz-adv-x="892" d="M817 506v-4l-4 -60l-2 -65v-66l-8 -65l-12 -64l-17 -24v-6l-22 -29l-2 -8l-7 4l-2 8l-6 2l-14 -4v10l-8 -10l-23 -4v-10l6 -5l17 -2l12 -10l-4 -14l-12 -6l2 -13l-56 -36l-30 -11l-50 2l-2 -8l-28 10h-37l-29 -4l-8 -24l4 -17l-53 9l-64 2l-4 4l2 8l13 10l-2 8l-17 4 l-37 -4l2 -6l9 -6l-5 -4l-45 16l-28 19l-23 20l2 8l-20 -4l-8 15l-19 16l-35 45l-20 17l-6 30l-8 4l4 9l-2 8l-17 61l-8 68l-8 57l2 72l-6 67l6 23l-4 2l-2 8l10 66l-4 30l6 62v65l-2 66l-6 65l4 62l-2 67l4 64l-2 63l6 66l8 2l2 23h8l3 10l26 59l17 27l41 47l18 29l45 16 l12 10l13 2v10l20 7l4 8h21l61 16l31 2l63 -4l68 4l31 -8l61 -25l8 -12l27 -16l51 -41l14 -27l33 -55l8 -25l21 -55l6 -4l-6 -27l8 -65l6 -64l-14 -65v-64l-21 -10l-30 -8h-19l-71 4h-64l-8 12l-4 33l-11 10l-2 33l-6 10l11 41l4 64l-19 63l-4 33l-10 12l-14 8v5l-13 10 l-2 8l-14 2l-17 8h-63l-4 -4l-6 4l-13 -10l-2 6l-14 -18l-14 -6h-11l-2 -17l-14 -6l-4 -6l2 -8l-8 -11l-8 -30l-2 -60l2 -69v-68v-63l4 -62l-13 -41l9 -63l2 -60v-67l-4 -66l6 -33v-59l-6 -65l2 -70l12 -68l12 -26l17 -23l26 -16l25 -6l2 -9l8 2l66 9l24 18l45 47l6 21l2 30 l2 66l3 65l6 11l-13 10l7 49l6 4v10l-6 11h6l8 10l31 16l34 2l66 -4l61 2l7 -6l2 4l10 -6zM274 104l2 2l29 29l-8 2l-12 13l-15 28l6 -4l9 4l-4 15l-21 6v26l-4 6l-25 -4l5 -18l-15 -8l-4 -37l4 -4l-2 -6l21 -27l16 -2l4 -10zM655 164v4v35l-14 6l4 6l-8 10l8 13h-29 l-28 -11l2 -16l8 -12v-11l-29 -8l-2 -6l11 -2l16 6l4 6l18 -12l5 -22l10 -15l2 4l16 2l-4 23h10zM637 1225l-2 -4l-4 -19l2 -35l6 -4l16 13l15 -7l26 2l4 54l-38 28l-15 -4h4l11 -18l-13 -6l6 -4zM211 1083l-2 -4v-16l10 -29l6 10l-8 -59h8l21 10v27l10 27l-16 8l-4 18l6 15 l12 10l2 8h-25l-4 -14zM524 104h4h7l-3 9l-8 -2l-18 20l-2 8h-33l4 -22l-10 -45l4 -2l6 -15l2 4l8 2v15zM412 41h4l10 6l4 10l-12 4l-21 25l13 2l2 12l8 15l-23 16l2 6l-8 2l-10 -22l-4 -31h10l-6 -14l16 -2zM362 72l3 4l8 28l-29 11l-2 -4l-18 12l-7 -2l-2 -8l-8 -2l-4 -7 l21 -16l18 2v-18h20zM715 1059h-4l-52 4l-8 -4v-25l21 4l4 -4l29 -4l12 23zM432 1440v-4l-31 -60v-14h17l12 18l16 4l5 7l-15 4v39zM696 330l4 -2l35 12v6l-20 14v5h-15l-6 -25zM285 1376h-2l-19 -10l19 -2l4 -4l2 -17l16 3l12 6l2 20l-6 2l-16 -12h-8zM197 301l4 -2l2 -2 l16 10l12 -2v6l-10 11v4l25 8l4 6h-19l-4 -8l-26 -15zM309 1333l-6 2l-6 -2l-2 -24l-19 -6l-2 -9l33 27zM672 203l4 2l18 6l11 12l-19 4v-4l-12 -12zM221 1288v-6l-8 -14l4 -4l12 4l7 16zM231 1415v-4l-10 -27l4 -12l6 8l5 29zM256 383v4v31l-6 10l-4 -16l2 -17l-17 -6z M451 1352l2 4l4 6l-17 4v-14h11zM602 150l2 -3l10 -14l7 6l-21 15zM567 -8l2 2l4 4l19 4v-8zM256 1147l-2 6l6 16l-4 2l-6 -6l-2 -12zM250 1366v4v10l-4 2l-10 -16h14z" />
<glyph unicode="D" horiz-adv-x="942" d="M397 4h-4l-37 4l-32 -8h-17l-65 4l-31 -4l-45 8l-19 -4l-8 4l-10 21l2 8h6l2 4l-8 37l-2 65l-4 13l6 2l2 8l6 -6v-15l33 11l2 -37l14 2l5 -4l-7 -33l7 -6l16 4l10 12l8 2l4 31l-4 8l6 21l-2 10l25 18l16 27l19 4l8 29l-23 26l-24 -2l-10 4l-17 -10l-6 -14l2 -19l-8 -4 l-20 15l-5 -2l-6 -15l-10 2v-35l-20 3l-27 -13v23l2 61l-2 68h29l-13 12l-22 2l2 45l6 66l-12 59l4 25l2 65l6 31l12 27v28l-14 45v64l-2 67l2 64l8 2l-18 39v33v65l-6 64l2 30l6 72l14 59l-2 68l-2 63l6 35l23 11l2 8l14 -2l64 2l61 -2l65 -4h72l66 2h63l31 -9l14 -12 l27 -2l29 -10l32 -6v-8l19 -15v-8l8 4l12 -18l10 2l25 -11l4 -12l-4 -12l8 -12l-8 -9l-10 9l10 12l-10 4l-4 -12l-21 -11l-10 -12l-10 4l-10 13l-9 4l-8 -2l-16 -29l-10 -4l-3 6l7 14h-4l-7 -8l2 16l-8 5l-26 -13l4 6l-9 13l-4 -2l4 -9l-4 -4h-8l-22 11l-23 -4l-2 4l4 -15 h17l-2 -12l10 -12l14 -8l21 -23l49 -4l2 -16l8 -15l-4 -16l-16 -17l4 -47l2 -65l4 -4l12 12l8 2l-10 23h12l17 -33h10l-4 -8l6 -35l-2 -6l-12 4l-9 30l-24 5l-6 -7l-4 -26l8 -33l31 -4l8 -16l28 -3l9 -4l8 2l20 23h10v6h-12l-2 8l4 4l17 -4l-4 27l-5 70l-12 26l4 8v13l-8 24 l-16 6l-4 7l-15 -15l-12 -2l-8 8l8 15l22 2l7 4l4 16l-21 2v53h8l25 23l23 4l4 8l16 -22l2 -17l-4 -6l4 -6l10 6l19 -63l16 -64l2 -67l2 -64l-4 -63l-6 -17l10 -8l-2 -65l4 -68l2 -68l-4 -59l-12 -22l12 -21l2 -31l-6 -63l4 -60v-59v-72l-8 -4l-6 4l2 -18l8 -10l-6 -25 l-8 -61l-8 -31l-9 -2l-4 -33l-12 -10l-23 -35l-2 -14l-24 -21l-2 -8h-10l-17 -8l-2 -6h4l-2 -4l-16 -2l-35 -35l-25 -4l-6 -4l-61 -19l-8 -6l-29 -4l-66 4l-24 10zM481 1272l-2 2l-47 2l-59 -14l-4 -27l-7 -66v-67l3 -66v-63l-7 -15l7 -14v-24v-68v-72l-5 -63l-8 -27l13 -6 v-8l2 -62l-2 -63v-70l2 -67l-2 -62v-65l-9 -15h9l4 -6l4 -51l8 2l47 -16h33l63 8l6 6l33 12l25 25l12 18l6 49l2 72h10v35v63l9 33l2 33l-6 33l-7 65v70l2 63l-2 62l-8 2v27l10 61l5 66v69l-5 62l-18 65l-6 2l4 6l-4 15l-12 4l-17 14h-10l-43 23zM158 1032v-6l14 -10v-8 l10 -2l21 6l2 -8l18 -17l8 -14l-20 -29l-14 -8l-17 -2l-8 4l6 -10l39 -4v-4l10 -11v-8l9 -2l-3 10l-14 15l-2 10l10 18l9 35l24 25l-29 12l-4 8l25 39l-6 2l-10 12l18 7l33 2l8 -4v28v66l-27 -8l-12 8l6 6l2 24l-4 9l-12 -4l-15 2l-6 6l-2 10l8 6l3 8l-29 -4l6 -6l-16 -10 l-7 -12l-18 -2l2 -54l4 -59h4l6 -12l5 -35h-11l-14 -25h-10zM711 723l-6 2l-13 -12l4 -13l-2 -32l11 -11l16 -2l2 -8l6 2l6 -6l45 6l4 6l-10 33l10 12l-6 11l-14 12l-6 14l6 6l4 -4l-2 -6h12l8 12l9 3v38l-17 -4l-6 2l-2 13l4 16l12 8l9 -4v43l-25 10l-2 -8l-18 -26l4 -2v-7 l-9 -2l-6 6l-8 -4l4 -16h-10l-4 -4l18 -39l-18 -6l-8 -21zM319 1319v2l13 14l-25 27l-2 6l19 23l6 -2l4 34l-29 4v-12l-4 -6l-16 -2v-8l10 -21h-4l-6 -14l6 -4l2 4l6 -14h-8l4 -17l-14 -18v-39l10 -10l4 -15l6 25l-2 10l20 21v12zM221 719l2 6l13 12l-5 11l15 6l6 8h-8 l-8 -8l-5 4l21 26l4 17h-18l-2 10l10 6l2 -8l4 -2l14 16l15 8h10l-4 11l-17 4l-18 -15l-16 -6l-5 15l-18 -2l-10 -11v-10l6 2l6 -4l2 -18l8 -2l2 -9h-6l-12 -8l-6 4l-6 -24l6 -6l6 6l12 -13l-18 -10v-16l-19 -4l-10 -13l8 -8l6 19zM784 553v4v4l11 10l-2 9l-23 20h4l6 14 l-6 7l-14 -9l-10 -12h-19l-2 -16l-4 -4l-10 2l2 -11l10 -12zM330 1319h6l10 12l2 19l31 45l8 32l-39 -4v-26l-6 -15zM731 983l-2 -4l-24 -12l-5 -9l45 -24l9 8l30 16l-2 5l4 24l-6 -2l-8 -14l-8 -4l-14 4l-5 6zM178 1389v-7v-4l15 6l14 -28l14 -6l2 4h8l5 53l-15 10l-8 -14 l-33 -8zM182 567v4l21 50h-6l-4 10l4 14l-7 -2l-4 16h-4l-2 -14l-33 -20l-4 -9h23l6 -6v-14l10 -10v-11l-4 -2l-16 9l-4 -7zM715 659h-2l-4 7l4 24l18 4l-8 11l-2 18l18 -14h11l-2 -11l-27 -18l2 -10zM442 113h4l5 2l-15 6l8 22l-8 7l-18 2l10 -19l-4 -4l-2 -14l10 -23l6 19 zM446 1360h-4l-22 -10l-2 -15l4 -6l6 8l21 -2l4 4l-7 13v8zM672 537h4h35l-2 10l-23 20l2 -6l-6 -14zM236 537h4l49 4l2 6l-15 10l-6 -6l-20 -6l-8 -8h-6zM291 1032l-4 2l-2 6l8 2l2 5l-14 4l-5 -9l-24 5v-9l6 -6l18 -4zM838 1120l-2 6l-2 4l-13 3l-26 -23zM672 846l-2 -4 v-25l6 -6l2 4l8 2l-6 27zM188 258l2 2l3 8l-11 19h-10l-4 -4zM588 1407h-4l-9 -4l-6 -14l19 -5v23zM799 934h6l6 2l8 22l-16 5l2 -23zM756 719h-6l-11 6v12l13 -2l4 -6v-10zM844 332v4v6l-10 4l-5 -8l-10 4v-8zM281 567h4h4l8 15l-6 14zM467 1389l-2 4h-6l-8 -9l-2 -8l4 -2 l4 4h10v11zM281 1241v-4v-6l10 -8l4 10zM692 1032h-6h-4l-6 15l10 -3zM315 1393l-4 2l-6 6l2 6l6 2l6 -6v-8zM252 215l-6 -2l-6 2l-4 14l14 -6zM276 762v4l-2 4l-14 2v-10h16zM428 82l-2 -4v-4l10 -6l6 6zM178 205h4l8 -6l3 -9h-9l-6 7v8zM246 1120l-2 -4l-4 -12l-13 -4 l6 14zM784 719l4 -2l5 2v14h-9v-14zM633 106v5l10 16l-6 4l-10 -18zM760 1153l-2 -4l-13 -6v6zM643 152v-5v-6h8v11h-8zM221 184v-4v-4h-8v8h8z" />
<glyph unicode="E" horiz-adv-x="854" d="M784 70v-7l-10 -10l-2 -10l6 -14l-14 -19l-12 -8l-31 -8l-21 2l-6 4l-14 -4l-6 4l-27 4l-6 6l-16 2l-64 -6l-33 4l-63 -12l-62 4l-69 8l-15 -10h-36l-66 -10l-20 10h-15l-26 14l-2 6l-9 3l-2 12l-10 4l-2 12l-6 4l-6 35l4 62v73l-10 11l4 24l6 64l2 61l-2 70l-10 10 l-2 18l12 45l2 62l-2 65l-2 68l2 68l2 53v65l-2 70v72l-2 69l-2 68l4 59l10 23v18l-10 12v19v74l10 61l19 21l65 8v-6l-12 -19l6 -10h10v-35h4l25 25l-2 4l-4 -2l-2 6l4 6l-4 10l8 4l-4 17l20 -6l39 -2l10 10l9 2l12 -25l8 -4l6 2l4 15l58 2l63 2h70h67l60 2l14 6l19 -8 l34 -2l13 -17l2 -12l-11 -12l-18 -2l6 -11l14 -10l9 10l6 -6v-45l2 -65l-10 -23l-27 -2v-10l-63 -4l-29 10l-47 -6l-66 -4l4 26l-2 15l-30 12l-7 14h21v21l6 -2l10 6l6 14v39l-4 4l-4 -6l-18 -6l2 -21l-4 -4h-11l-4 6l7 9l2 16l-21 12l-41 -4l-6 4l-12 -12l-6 -16l-17 6 l-33 -2l4 -47l-4 -31l23 25l2 10l20 2l9 12l-2 4l-11 -4l-6 4l25 25l26 -15h21l2 -10l-8 -2l-4 -16h-4l8 -23v-35l-8 -30h-15l-63 -11v-4l-11 -65v-33l11 -31l2 -32l-6 -64l4 -16l-2 -33l-4 -66l6 -32l8 -7l6 3l25 -11h67l56 -4l4 6l10 2l14 -6l10 2l64 -4l14 -35l6 -36 l-4 -7l-8 -2l-8 -14l4 -4h8l4 6l-2 4l6 -20l-2 -17l-14 -28l4 -9l-2 -14l-8 -16l-10 -6h-15l-67 -2l-66 6l-28 -2l-72 -4l-10 -37v-31l6 -33v-31l-8 -14v-45l-7 -6l9 -14l4 -70l-4 -66l-9 -65l35 -35h8h64l2 -6l-10 -8l4 -4l-6 -9l-33 -2l-8 -18l-13 -6l9 -12l22 6l6 -2 l2 -25l-20 -2l-4 -10l16 -6v-9l-18 2l-4 5l-2 14l-9 -4l2 -17l-6 2l-6 13l-6 4l-6 -2l-4 -15l-4 -2l4 -4h10l10 -10h8v-10h11v-4h4l10 10l8 -16l12 2l5 6l-5 22l5 4l-11 7l23 12l18 2l-4 20l-6 64l49 10l68 -2h69v-4l-10 -10v-4l12 2l11 12l2 10l28 -6l21 8l18 -2v-4l19 -8 l6 -8l10 -58l4 -65zM285 1047h4h10l2 34l12 -4v8l-14 11l-4 14l-6 6l-4 -10l-4 10l4 8h-29l-6 6l6 7l-10 18l14 4l4 31l-12 14l-8 35l-13 8l-22 -16l-19 -2l-8 4v-14l15 -25l22 8l6 6l13 -12l-2 -22l4 -7h-9v7l-16 -7l-4 -16l10 -25l10 -10l-20 2l-14 -8l8 -27l-4 -16l18 -2 l12 -6l5 -6l-5 -6v-11l-6 -4l-2 8l-6 -4l8 -14l-4 -10l15 -23l30 -4l4 -6l4 10l-4 12l-10 7l4 8l21 6l4 6l-6 10zM178 793l-2 -5l-14 -24h16l19 8l2 4l-4 4l36 2l2 6l-6 11l21 8l12 10l14 4v10l-10 11l6 39h-18l-6 4l-2 -6l12 -23l-12 -8l-13 2l-30 16l6 -49l-10 -14l4 -8z M182 676l4 -2l9 -2l14 4l12 12l4 17l-24 -3l-29 -16l2 -20l-4 -74l6 -31l17 -18l2 10l6 4v35l-4 14l4 6l-4 15l4 32l-4 7l-4 -7l-11 9v8zM250 719l2 2l6 4l35 2l2 6l-10 2l4 17l-21 22l-10 -2v-20h-14l-13 12h-10l-18 -19l-15 -6l-8 2l-2 -8l6 -4h17l10 21l18 -11l7 4z M348 1341l-4 -2h-31l-14 11v-33l6 -17l12 3l13 8h8l-4 -29l18 4l-2 12l-6 5v8h4l4 6v16zM299 1430v-7l-12 -34l2 -5h16v11l10 2l2 10l27 23h-45zM690 1384l-4 -2l-16 -22l-2 -14l4 -11h4l10 19l8 4l6 -2l-2 28h-8zM178 1374l-2 -4l-8 -33l4 -6l29 15l-8 22zM319 70h5l26 -2 l12 6l-24 28l-12 -14zM637 838h-4l-17 -7l11 -28l12 24zM465 1268l2 2l18 12l17 -2l4 -12h-41zM207 1253l2 2l2 9l-14 18l-9 -14l5 -6zM309 1116h4l23 6l2 8l-6 5l-17 -5zM295 1184v-4l-2 -15l6 -10l14 29h-18zM201 958v-6v-12h10l4 6l-4 12h-10zM373 719h-4l-13 2l-8 -6 l6 -6h17zM662 1296v-4v-6l14 -14l-6 22zM236 817h-5h-10v10l10 11zM225 1395v-6l6 -19zM299 504v-6l4 -6l14 8v8l-4 2l-4 -6h-10zM168 612v4v11h-14v-15h14zM289 578v4l6 20l-10 4l-4 -22zM651 70v4l-2 12l-8 2l4 -14zM270 528v-4l2 -12l9 -2l-5 14zM274 1458l-2 2l-10 8 l-2 -6h6l4 -14zM358 123v-4v-6h11v10h-11zM211 788l-4 3v12l8 -2l2 -8z" />
<glyph unicode="F" horiz-adv-x="847" d="M760 1430v-5l2 -12l12 -65l-2 -33l-8 -33l-29 -10l-63 -4h-68l-67 -6l-64 -5l-65 15l-15 -4l-20 -23l-8 -26l-5 -70l11 -27l2 -28v-78l-6 -60l-9 -2l2 -8l7 -4l8 -51l14 -23l12 -6l27 -4l74 4l63 -6l68 2l12 -4l12 -25l9 -32l4 -37l-8 -72l-11 -26l-63 -7l4 7l22 6l4 8 l-14 -2l-14 -8l-15 4l3 -15l-35 -14h-19l2 8h-24l-35 6l-35 -2l-59 -22v-8h-4v-60l-2 -65l-5 -64l7 -63l-4 -66v-65l8 -62l-8 -33l-3 -39v-57l-8 -29l-10 -10l-45 -6l-68 -4l2 8l9 2l2 8l22 17v10l-10 2l-23 -24l-14 -5l-2 -18h-45l-31 8l-14 43l2 66l-10 65l4 68l4 59 l18 25l5 18l-15 -2l-8 -12h-8v61l6 66l-6 65l6 64v65l-2 66l6 66l-8 30v33l8 31l-6 61l2 37l16 -6l6 -19l7 -4l-4 23l-21 12v6l10 11h-10l4 4l-8 39l-2 65l2 76v72l2 67v66l-2 57l18 21l23 10l49 -10l33 4l16 -7l23 7l14 -2l8 -13l4 2l4 17l23 4l49 -12l17 2l65 4l66 -4 l30 6l64 -4l67 4l33 -4l29 -15v-32zM643 1341h4l4 5l-8 24v14l-20 17l-5 22l-22 2l-8 -6l4 -2l2 -33l-14 -8l-13 -16h-12v10l-6 14l-6 -2l-27 13l-6 -29l6 -6l4 8l4 -4l-8 -14l12 -9h60l45 19v-17l6 -4zM436 1346l2 -3l33 -2v5l-10 10l6 33l-14 8l-11 12v14h-26l-8 -10h12 l2 -8h-14l-11 -16l-18 8l-6 -8l-2 8l-13 10l-4 -27l19 4l30 -24l9 10l-4 8l4 6l12 -12l12 -6l10 4v-14zM217 147l4 3l8 12l-2 4l-4 -2l4 26h-20l-2 -14l-23 -6l-4 -4l2 -16l8 -3v9l15 6l10 -15l-16 -26l-4 -19l8 -4l20 4v39zM389 1286l2 4l4 19l-2 14l-10 12l4 6l2 19l-16 8 l-8 -4l2 -21l16 -26v-27zM260 78h4l15 8l6 16h-4l-11 11h-4v-13l-4 -6zM197 1032v-4l-4 -31l12 4l2 9zM383 709v4l-4 6l-14 4l-3 -8l5 -4zM555 1272v4l6 14l-6 6l-6 -10v-8zM524 1419v-4l4 -8l9 -4l4 6l-9 8zM143 1042l4 -2l5 2v15l-9 -4v-11zM492 1341l-3 5l7 14l-15 -4 v-10z" />
<glyph unicode="G" horiz-adv-x="940" d="M821 328v-4l2 -7v-63l-2 -72v-65l6 -62l-4 -14l-16 -27l-27 -16l-37 -2l-4 4l-4 18l-8 5l-22 -13v10l-13 11l-10 30l-12 13l-17 2l-6 -15l-33 -16l-55 -31l-59 -26l-39 -6l2 6l-10 2l-2 -4l-64 -9l-33 11l-32 2l-33 10l-6 16l4 2l12 -12h8l-4 12l-20 23l-7 -18l-8 -3 l-6 -14l-8 4l-8 15h8l10 16l-6 8h-8l-4 -16l-6 -2l-23 8l-22 24l-15 9l-24 22l-4 15l-21 20l-2 23l-6 6l-6 22l-15 66l-10 14v57v70l-8 64v65l-6 33l6 47l-6 49l10 66l-6 61l6 66l-2 67l-2 64l4 61l-6 64l4 65l6 70l6 4l-6 14l25 64l14 14l10 2l2 4l-10 6l4 4v9l10 6l9 20 l45 33l6 12l20 11l21 24l26 10l62 19l70 16h67l10 -8l58 4l28 -6l13 -12l12 2l2 -8l6 2l2 -13l12 6l11 -10l41 -20l37 -35l2 -8l12 -15l14 -6l2 -10l19 -12l2 -13l12 -8v-10l10 -10l4 -15l-2 -14l6 -18l-4 -17l4 -8v-25l-4 -6l15 -16l4 -29l-4 -37l10 -67l-12 -43l-2 -33 l-7 -4v-4l-24 -6l-31 -2l-69 -2l-66 4l-10 14l-11 29l-8 69l4 66l-14 65l-29 56l-30 12l-9 12l-16 -4l-65 -10l-31 -12l-23 -25l-16 -27v-26l-8 -14l-6 -33l-15 -13l-6 -16l6 -6l6 4l9 16l8 -18l-4 -49l-4 -60v-63v-68l4 -69v-64l4 -63l-2 -33l-6 -64l6 -65v-59l-8 -66 l6 -68l16 -63l18 -23l-6 -6l4 -2l11 4l6 -2l4 -8h10l19 -14l24 -8l35 -2l31 8l57 30l16 39l5 39l8 15v20l-4 68l4 63l-4 35l4 10l-23 33l-49 -4l-33 4l-6 10h-16l-10 15h-5l-4 63l9 66l10 28l24 6l37 2l2 -18h10v16l48 2l69 2h68l63 -4l27 -6l12 -26l8 -4v-58l-10 -61v-62 l4 -63l-8 -68v-33zM606 612l2 4l13 11l-5 16l-20 12l-4 13l-14 4l-25 -31v10l-10 21l16 8l8 16h-10l4 9h-4l-8 -11l-14 17l-17 4l4 -6l-2 -7l-20 -6l2 -14l8 -12v-25l14 -10l31 -6l16 4zM279 1399l-3 -4l-8 -25l35 -14l-16 -10l-8 -15l20 -4l6 12l8 2l-2 27l11 6l6 -4 l-11 -10l9 2l4 6l45 8l16 29l-35 -6l-4 10l-26 6l-19 -2l-12 -10zM514 1454l-2 -6l2 -8h4l4 -6l-43 6l2 -19l-2 -65l13 4l6 -2l10 -23l4 17l-8 28l12 4l25 19l16 6v25l-25 -4l5 6l-5 22h-12zM236 1159v-4l-5 -8l-12 -8l-4 -9l6 -6l10 -30l17 -15l20 -8l6 10l-24 11l2 10l6 6 l21 -6v18h4l10 10l2 -4l8 9l-8 4l-31 -4l-6 10l-14 -4l-2 16zM705 1292l-3 -4l-4 -6l-14 -8v-10l-22 -9l-3 -8l29 -2l6 -4l6 -16l5 -2l-3 32l13 2l-6 19l12 4l2 6zM190 1014l3 -2l8 -11l-2 -16l-9 -2l9 -16l16 -6l4 6l-8 10l18 55l-10 2l-20 -8zM219 866l4 2l-2 6l-26 -43 l16 -26v-17h8l10 11l-2 4zM610 1307v-4l-4 -21l23 -2l10 -8l2 -8h29l-2 8l-19 24zM645 545l6 -2l15 20l-23 43l-8 2l-8 -10l6 -4l6 -14zM254 1311v-4v-11l16 -2l-2 -16l13 4l12 10l-8 8l-6 17h-11zM444 1487v-4l2 -8l15 -17l8 -4l6 6v13h4l10 10h-38zM739 1341h-6l-16 -4 l-6 -20l4 -6l14 8zM141 944v-4v-22l6 -11l9 -2l4 10l-15 29h-4zM500 1303v4l4 24l-15 4v-22l5 -8zM719 1190l-2 -4l-2 -8l6 -15l8 -4zM793 627l2 2l2 12l-4 8l-7 2l-2 -12zM92 641h6l8 -4v10l-14 19l4 -21zM709 1208v-4l6 -14l4 16zM240 743h4l10 -4v15l-4 6zM258 793l4 -2 h12l5 8l-17 -2zM219 930h4l13 -4v4l-11 10zM205 1331l-2 2l-6 15h-4l-3 -7l11 -14zM528 647l4 4l7 -4l-7 -8l-8 4z" />
<glyph unicode="H" horiz-adv-x="993" d="M870 252v-4v-41l2 -68l5 -65l-11 -62l-53 -10h-70l-67 -4l-31 4l-2 12l-12 9l-2 40l6 64l2 66l-6 65v66l2 63l4 68l-4 59v72l-6 28l-11 15l-34 10l-37 2l-62 -4l-69 8l-2 8l-13 -20l-18 -6l-14 -17l2 -35l-7 -63l3 -70l-3 -63l11 -4l-6 -25v-33v-67l-7 -17l-2 -30l4 -33 v-66v-67l-10 -29l-43 -10l-39 -2l-32 4l-13 8l-20 -8l-35 -2l-33 4l-4 21l-10 10l-2 16l6 66l-4 30l-2 62l2 65l2 66l-2 65l-4 62l-2 70v69l4 66l4 2l27 -15l-2 21l-15 6l-16 -6v20l4 64v63v68l14 31l-2 6l-10 4l-2 41v67l4 62l-4 63l4 33l-2 31l-6 63l8 66l-4 65l4 31 l18 10l2 9l64 4l63 4l64 -8l24 -45v-66l3 -74l8 -30l-2 -17l-9 -61l5 -35l6 -14l-8 -33l-3 -33l5 -66h-19l-10 13l-8 2l-31 -6v20l-14 25l-45 -6l-4 -13l-11 -2l2 -6l33 -4l-4 -10h14l9 -4l-3 -9h-22v-34l10 -13l6 -2l9 -26l-5 -15l-20 -22l2 -8l20 -11l3 -6l-5 -2l2 -6 l23 -12l4 -13l8 -4l8 4l-14 19l-6 24l-10 15h-4v16l-6 2l2 6l6 2l12 -8l2 11l-6 30l4 13l6 4l19 -4l6 2l-2 14l20 4l2 -8h6l2 4l7 -6l-13 -17v-18l15 -18l-2 -13l8 -16v-10l22 -15l27 -10l70 -6l69 4l35 10l25 15l8 28v66v65l8 33l-8 64l4 67l2 66l-2 57l18 4l15 10l-7 15 l-28 10l4 55l8 31l19 22l30 -2l66 13l33 -2l65 -9l14 -45l7 -67l-7 -66l7 -63l-7 -66v-63v-66v-65l-2 -66l2 -63l4 -58l-2 -69l-8 -68l-2 -65l10 -66l5 -65v-66l-7 -66v-65zM602 766l2 4l8 31l-30 -6l-4 6l-25 4l-2 -17l-8 -4l-11 15l-26 4l-33 -2h-67l16 -45l16 -27l2 -22 l11 2l32 -4l13 4l4 8h14l-2 16l-33 10l-4 9l14 14l7 -2l6 -14l8 -5l8 9l31 8l4 -6h10l-2 -21l12 -8l7 25l-7 14l-6 -6l-8 8v14h16zM793 1231l2 2l16 4l2 8h-10l-21 -22l-14 -6l2 -60l16 -16l2 -8h-10l-6 10h-8l-8 -17l2 -8l-10 -6l-13 -16l-10 -2l-10 -15l-8 -20l8 -4l2 16 l22 8l2 -4l9 -2l6 -12l2 -17l20 -18v-10l-16 2l-4 -8l6 -6l-4 -7l4 -6l14 4l25 -4v56l-6 12l-6 -4v18h12v35l-15 10l7 8l8 2v27l-4 70zM676 850l-6 -2l-6 -8l-2 -25h8v25l16 10l2 -8l14 -4l3 -23h10l24 -14h11v-17l10 -2l33 19l2 -4l8 4l-6 43l-17 4l-12 10v14l-4 7l-35 -2 l-4 -5l-8 19l-17 2l-2 -8l-20 -17l-6 -10zM211 1411l-4 -2l-10 -8l-7 -15h31l15 -6l4 -8l-11 -10v-10l-4 4l-6 -2l-8 -17h18l7 -4v4l10 11v-29l24 -35l-10 -24l6 -33l19 -27v4l12 2l4 4l-4 9l-12 10l-21 26l25 15v-19l4 -8l6 -2v39l-20 2l-7 6v15l13 30l14 -20l2 12l-16 23 l12 8l2 26h-10l-10 13l-9 2l-30 -15l-9 11l9 32h-15zM803 360v5v24l-6 4l-19 -4l-10 -18v-11h-14l-2 -6l4 -8h4l4 -6l-31 -41l-22 -23v-18l-11 -20l33 4l17 -15l4 -14l10 29l-6 24l14 21l14 6l2 4l-6 8h9l4 4l2 13l6 -7l-2 11l-6 4l-7 -4l5 12l-19 16l6 8l8 3v10l5 4l6 -23z M774 72l2 4l-2 24l6 15l-6 6l-8 -6l-14 8l-4 16l4 19l-2 12l-7 4l-28 -14l-10 -10l-13 -31l8 -15l19 -8v-10l10 -20zM172 1305l-2 -5l6 -16l-4 -14l8 -8l2 -21l11 -10l12 -31l6 -4v4l8 6l2 11h-16l-4 14l10 -8l18 -2l-6 16v29l-8 12l10 10l-12 10l-2 7l-33 -5zM686 1319 l-2 -4l-4 -25l10 -30l-4 -17l6 -14l8 -4l19 20l-4 10l6 5l8 14v10l12 10l9 15v10l-17 4l-8 -27l-14 -8l-4 10l-21 11l2 14zM270 1122l-2 6l4 2l9 -4l4 7l-9 6l-4 26l-8 13l-10 -11h-4l2 7l-4 12l-15 10h-8l-4 -4l4 -10l-4 -13l8 -8l7 -14l14 -4v-15zM172 1192v-6l-2 -4 l4 -17l23 -18l8 8l10 2l-2 23l-10 10l-15 4zM711 956l2 5l2 6l-4 24l10 -4l10 8l2 21l-18 8l-10 10v-16l4 -6l2 -17l-11 -4l-8 -14l-2 -16zM733 115h4h17l-4 -29l-7 -4h-10l-4 6v10l-16 11zM774 1421l2 -6l-2 -16l-20 -23h10l10 -8v8l8 -4v14l6 21l-8 2zM260 1348l-2 2 l-12 8l8 6l35 8v-10zM299 217v4v51l-4 4l-6 -10l6 -33l-4 -14zM705 276l2 5l4 6l2 16l-4 6l-9 2v-24zM733 1368l-2 2l-2 2l10 21l-10 4l2 -6l-12 -29l14 2v4zM700 1386v-6l2 -14l9 -4l-6 14l14 6zM221 961l2 4l17 2v10l-11 4l-2 -6l-12 -8zM190 1376v-4l5 -8l6 -2l10 10z M190 1094l-2 -4l11 -15l6 -2l6 6h-4l-8 11zM225 129v-4v-8l6 -6h9l-2 12zM260 961v4l2 4l17 2l2 -4l-5 -6h-16zM842 1044v5v10h-15v-8zM221 1049l4 2l11 2l4 6l-13 4zM778 1337l4 2l13 7l-19 6l-2 -4zM240 86v-4l4 -10l6 -4l4 4l-4 4v8l-4 4zM637 756l4 -2l8 -2l6 4v6l-14 2 zM733 1206v4v4l-14 7l6 -15h8zM373 745l2 5l6 4l2 8l-12 -4l-4 -8zM299 1108v4v4l-14 6v-8zM348 752l4 -2l4 2v14h-4v-4h-4v-10zM754 858h6l-4 -14h-6zM440 762h4l5 -2l2 -8l-5 -7z" />
<glyph unicode="I" horiz-adv-x="489" d="M371 154v-2l-4 -66l8 -35l-6 -10h-9l2 -14l-18 -17l-2 -8h-8l-64 -2l-67 2l-66 6l-2 4l-6 64l-12 67v31l10 14l-4 9l8 2v4l-10 10l2 20l-6 35l4 13h8l2 26l4 6l10 2l-4 -14l9 -4h20l10 8l2 8l-37 25h-8l4 12l-12 12l-8 29l-2 37l4 35l2 61l-2 68l-2 70l-2 65l4 59v68 l-2 68l-4 6l4 4l-4 4l6 53l-2 66v57v74l6 -2l-8 45l4 28l4 68l-10 68l4 34l12 27l23 16l71 11l21 -4l16 2l64 -4l28 -11l15 -28v-23l-4 -67l6 -33l-6 -17l-15 -8l2 -8l-8 -20l6 -3l8 15l7 -2l4 -13l-11 -65l5 -16l2 -62v-67v-68l-2 -55v-68l6 -65l-4 -62l2 -63l2 -72l6 -23 l-10 -47v-32l-21 20l-10 -6l-2 -12h10l2 -13l-14 6l2 -12l8 -2l-23 -24v-7l13 -8l39 19l-6 -37l-3 -64v-65l5 -70zM219 150h6l11 4l6 12l-2 8l-11 10l-14 -10zM272 82l2 4l13 10l-4 4l-15 -14z" />
<glyph unicode="J" horiz-adv-x="897" d="M575 25l-4 -2l7 -13l-3 -6l-43 -10l-12 -8l-33 -11l-32 -4l-66 15l-31 -6l-14 6h-16l-2 10h-15l-6 6l-22 4l-13 10l-28 13l-23 22l-26 17l-13 20l-26 18l-7 21l-26 39l-12 12l-13 31l4 12l-6 23l-10 69l-6 15l-2 26l2 66l2 69l-4 62l2 37l12 8l4 14l6 6l60 5h67l64 -5 l14 -18l10 -31l-4 -30l4 -64l-6 -65l2 -31l8 -33l-4 -33l9 -63l14 -17l2 -12l20 -4l5 -14l41 -8h30l17 8h16l12 10l8 2l48 51l-5 8l5 23l-7 33l5 32l10 66l-2 33l-13 65l2 68l13 10l-8 12l10 41l-4 31l-8 64l2 65v68l-5 65l-6 66l4 30l-4 66l4 12v29l7 8l-7 12l-4 31l4 25 l11 45l18 4l4 6l-4 8l6 6l-18 7l-8 10l2 12l6 -8l8 -2l8 4l-4 10l4 6l8 -12l4 2l-2 -18l7 -11l4 4l2 19l8 6l-10 16v9l10 10l-10 4l-11 -8l-4 14l-12 -4l-10 -14l-10 2l4 14l-2 68l6 30l10 2l10 13l15 -2l65 4l35 -4h59l27 -13l6 -12l-2 -31l4 -28l6 -66l-4 -63l-2 -58 l2 -73l-2 -60v-67l2 -68l4 -66l-4 -24l4 -64l-4 -57l-2 -65v-70v-68l6 -65l-4 -31l2 -33v-63l-16 -64l-4 -61l-8 -14l2 -5l-11 -4v4l-6 5l-2 -11l-6 -4v-10l-4 -2v-6h8l-10 -15v-10l-8 -14l-41 -49l-23 8l-22 -23l-17 -2l-10 -10l12 -12v-6l-8 -9h-6l-4 15l-4 -2l-2 -21 l-4 -2zM537 82v6v6l-11 15l-12 6l-22 24l-5 -2l-4 -14l-4 -2l-16 6l14 -29l-8 -12l4 -18h-14l-2 -9l16 4zM664 205v4l12 33l-6 14l12 4l-4 8l-2 -4l-17 -4l-6 -6l13 -4l6 -10l-8 -11l-15 2l-10 9l-8 -2l-17 -13l-8 -12l2 -8l8 4l31 2zM657 352l2 6v15l-6 14l6 4l9 25l-15 4 l-6 -25l-14 -4l-4 -6l2 -8l12 -8l4 -9l-12 -18v-8l4 -2zM311 113l2 2l13 12v10l-11 10v-16l-22 -12l-10 -17l-2 -10l24 -10l8 20zM625 1378v-4l8 -10h24l11 59h-15l-4 -4l4 -10l-10 -6l-4 -25h-14zM594 215l2 4l8 49l-14 6l-6 -16v-31zM594 293h6l16 4l9 10l-17 4l-14 -4 v-14zM301 274l-2 5l-6 24l-12 10l4 -26l8 -11zM428 39l-2 6l12 14l-14 15l-2 -15l-8 -14zM227 137v4l4 11l-14 6l-18 2l-6 -4l22 -6zM545 1237h6l14 14l-14 4l-6 -2v-16zM223 518l-2 -4l-8 -16h4l10 10l2 -4h9l-2 8zM231 244h7l6 4v16l-6 4l-5 -6zM256 532v7l-4 8l-21 10 l7 -16zM209 616h-6l-8 -8l8 -12l6 10v10zM242 156v4v6l-15 4v-14h15zM408 -4l2 4l-7 6l-14 -6l12 -6zM565 215v-4l-4 -2l-2 -8h14l7 4h-5zM682 1354l-4 4l-14 -6l2 -4l12 2zM168 571h4h4l8 11l-6 4zM664 514h4h10v4l-14 4v-8z" />
<glyph unicode="K" horiz-adv-x="929" d="M680 2l-6 2l-6 6l-13 2v11h-10l-12 28l-12 10v17l-5 6v16l-4 2v9l-12 8v10l-6 66l-19 47l-18 49l-4 67l-18 27l-13 47l-4 35l-8 10l-12 60h-9v18l-6 4l-14 25v16l-10 8l-27 -2l-6 -26l-20 -25l-3 -16l-18 -13l-2 -16l-8 -12l-13 -45l5 -33l-7 -14l-2 -29l9 -37v-66 l-2 -67l2 -64v-63l-11 -64l-16 -10l-16 -4l-17 6l-6 -10h-27l-63 -4l-70 8v6l-18 29l4 24l-4 13v65v66v67l-2 64l6 18l-6 21l6 18l-10 60l6 49v65l-6 66l-4 63l10 64l-4 33l-2 65l10 31l-4 63l-2 68l-4 63l2 62l4 69l-6 31v31l6 33v32l-2 66l10 63l16 11l17 4l16 10l41 -4 l33 -12h65l29 -9l17 -43l2 -63l-5 -64l5 -32v-64l2 -67l-7 -62l7 -33l8 -63l-4 -31l4 -16l8 2l23 20l2 9l24 61l33 55l16 62l13 12l22 47l2 31l10 14l13 31l30 61l2 31l7 8l4 25l12 8l18 47l7 -2l22 6l10 19l11 -6l4 -9l4 21l12 -2l66 -8l67 8l27 -13l4 -16l-2 -18l-12 -29 l-11 -10l-6 -33l-12 -31l-6 -30l-4 -3l-2 -8l-13 -8l-2 -14l-12 -31l-8 -2l-2 -12l-13 -23l-2 -31l-4 -2l-6 -14l-10 -10l-10 -2l4 -13l-12 -43l-21 -24l-8 -25l-27 -59l-28 -57l2 -13l-7 -39l2 -14l13 -2l4 -39l14 -39l-4 -2l10 -26l19 -66l10 -14l-4 -15l10 -6l-6 -4l8 -6 l4 -21l6 -4l3 -8l12 -63l20 -58l17 -32l10 -31l4 -31l23 -61l2 -33l18 -29l2 -12l18 -61l-2 -9l-12 -6l8 -8l-8 -23l17 -18l2 -49l4 -2l10 14l6 2l4 -4l4 -43l8 -4l2 -6l-6 -23l-30 -10l-29 -4l-68 -10l-34 2zM641 242h4l17 -17l4 -16l-11 -25l4 -6l13 6v37l-13 27l11 4v8 l-4 4v8l10 2l8 13h10l19 14h-4l-4 6l2 10l-7 5h-10l8 26l-14 51l-16 4l-2 11l8 12l8 2l16 -4l-8 14l4 2l4 13h-8l-20 -25v14l-17 -2l-12 -8v-20l4 -15l-4 -12l-4 10l-10 8l-2 11h-19l6 8l-2 12l-8 15l25 26l14 2l-2 -6l6 -12l12 -8l-10 14l2 4l-6 8l6 15v16l-6 18l-8 11 l-19 -21l-20 6l-10 -2l2 10l-4 5l-17 2l2 -25l13 -25l-4 -14l6 -16l18 -64l19 -63l4 -33zM621 770v4l-5 10l-8 -6l4 -28l-2 -5l-14 11l-6 -21l-12 -8l-9 27l-2 -31v-66l15 7l4 -7v-10l-4 -6l-9 -2l-6 4v-39l11 2l6 8l-2 19h10l14 14l-6 2l-2 17l-6 6l6 12l8 4l4 -8l-8 -16 h12l2 24l15 12v11l-10 20l10 21v8zM211 1157v2l4 8l8 4l41 -4l4 54l-30 24l-15 4l-8 -4l8 -4l6 -16l-14 -6l-14 2l2 -7l-4 -8l-19 -10l10 -4v-21zM666 150l4 -3l6 -4l14 -28h29v-11l4 -4v15l-10 10l-4 14l6 6l2 15l16 16l2 8l-6 6l-16 3l-15 -5l-8 5l-14 -15l4 -10l-14 -8 v-10zM567 1147v-4v-64v-57l4 -2l15 29l-4 6l14 4v14l12 23l-2 12l-10 -14l-4 6l10 12v10l-18 6zM649 1288h-6l-4 2l-16 -4l-13 -10l-2 -23l8 -14h-4l-6 -14l4 -4l19 10l4 6l22 2l-2 6l4 12l7 5l2 8l-13 10zM289 125l2 2v6l-4 -8l-13 -10l-8 2l-4 10h-14l-10 -12l-5 -15v-20 l9 -2l30 4l11 10l6 14v19zM602 1182v-4l8 -19v-8l-6 -8v-6l6 -9l15 9l14 24h10l2 33l-4 6h-6l-6 -6l-14 -4l-15 2zM649 1362l-4 -2l-8 -14l2 -17l6 -6l2 4l15 2l8 14l14 9l-2 28l-16 2l-2 15l-5 4l-8 -21zM219 1030h6l15 4l10 -6h16l8 -4l2 12l7 4v9l-43 10l-15 -4l-4 -6z M694 1122l-2 2v41l-8 17h-14l6 -19l-2 -35l-8 -14l8 -2l6 6zM289 193v6l4 14l-21 10h-18v-6l-12 -10l-2 -8l6 -2l28 12zM289 350l-4 2l-2 8h-15l-4 -20l4 -14l6 -7l15 13v18zM645 1073l4 2l6 15l-6 14l-14 -6h-10l6 -17zM705 1319h-5l-10 4l-2 -12l-14 -8l6 -19l12 4z M758 369l-4 2l-13 2l-14 -6l-4 -7l8 2l6 -8l13 -2l6 6zM670 375v-4l-4 -27l-11 14l13 23l6 2l6 -4zM705 414l-3 -2l-6 -11l-2 -16l8 2l11 14v9zM328 86l4 -2l2 -2l14 6l4 16l-22 -10zM297 104h4l8 2l8 15h-20v-17zM532 1083h5l8 11l6 20l-2 6zM655 1440v-6l-4 -17l8 -6l5 16 zM694 135h-4l-6 10l4 7l10 2zM641 453h-6l-12 -4l-7 -11l15 2zM713 1382l-4 -2l-11 -2l-4 -6h17zM621 86l4 -2l4 2v14h-4v-4h-4v-10zM625 369l4 -2l2 -7l-6 -6h-9zM578 555h-5h-6v-10h11v10zM180 1214v-4v-4h10v8h-10z" />
<glyph unicode="L" horiz-adv-x="798" d="M739 190v-4l-2 -4l-2 -67l-4 -68l-8 -27l-10 -10l-60 -10h-73l-27 8l-14 21l-7 -9l5 -18l-11 -2h-67l-62 -6l-14 6l-6 14l-15 -10l-4 4l-34 -14l-66 6l-65 -6l-48 12l-4 17l-6 4l-8 16v14l-8 33l4 33l10 8v8l-10 15l6 20v27l4 4l-2 8l-10 10l2 31v65l-4 66l4 31l4 63 l-4 66l2 63l2 66v61l-4 66l2 61v62v71l-2 72l-4 61l4 66l-4 63l4 66l-6 66l16 43l2 28l37 25h33l69 -4l29 10l4 -2l-4 -2l35 -2l12 -8h8l4 -15l5 -63v-66v-69l6 -64l-4 -63l-7 -66l7 -65v-66l-2 -66l-5 -65l5 -61l-5 -33l5 -64l4 -65l2 -64h-4l-9 15l-8 -19h-10l2 -10 l25 -14l4 -15v-35l-11 -63l5 -64l6 -65l20 -25l15 -2l8 -10l35 -2l65 8l59 -6l70 -4l66 8zM250 1374h-4l-6 -4l-4 -16l22 -8l10 -11l2 -10l-12 -20l-8 -5l4 -45l35 19l6 -2l-2 22l-8 -4l-9 2l-6 19l6 -2l7 6l4 14l8 -4v35l8 -8h14l17 8l-2 14l-17 17l-6 16l6 6v33l-12 20 l-2 -4l-12 4v-28l-25 -11l-2 -16l-14 -27zM319 1139l-4 -2h-12l-14 6l10 20v-4l10 -6l10 25l-8 2l-2 4l15 -2l4 -4l-4 -2l4 -9l4 9l-2 14l-8 4l-19 -10l-4 4l14 10l2 6l9 2v19l4 12l-6 -2l-21 8l-18 -4l-13 2l-20 -14l2 -8l10 -13l19 -4l14 6l4 -16h-4l-10 -10l2 -31l-23 -8 l4 -21l-4 -8l8 4l31 4l10 -4zM334 1051h-4l-8 -11l6 -4l2 8l4 3v-27l4 -12h10l10 8l-10 41l4 33l-10 -3l-6 -6zM295 864v4l-2 52l-4 4l-6 -19l-15 -24l2 -11l15 -6h10zM289 1403l-2 -2l-8 -19l-5 23l5 18l6 -4l4 4l6 -20l4 4l4 -2l-4 -10h-4zM279 1016v4v20h-13l-6 -4l8 -20 h11zM334 1251v4v45l-12 -26l-3 -14zM334 575l-2 -4l-2 -18l4 -2l8 6l-6 6l10 15l-12 4v-7zM270 958h4l11 11v14l-15 -14v-11zM299 1212l-4 -4z" />
<glyph unicode="M" horiz-adv-x="1247" d="M1032 31h-4l-4 -2l6 -23l-2 -6h-43l-59 6l-17 25l-2 24l4 19l-8 8l-8 35l10 63v66l-10 65l2 33l8 64l-4 32l4 64l-10 63l8 33l2 33v65l4 64l-4 63v66l-20 63l-8 -4l-13 -26l-2 -33l-10 -14l4 -15l-6 -28l-8 -3l4 -20l-6 -33l-13 -26l-6 -37l6 -15l-14 -55l-10 -67 l-17 -52l-2 -30l-10 -66l-10 -22l-8 -64l-6 -10l4 -31l-6 -14l-11 -64l-12 -63l-10 -15l2 -22l-6 -31l-17 -65l-14 -29l-33 -10l-43 2l-47 14l2 4l-20 21l4 4l-8 20l4 25l-19 53l-10 64l4 14l-2 4h-8v12l-8 15l-4 34l2 33l-5 29l-10 14v8l-8 66l-6 4l2 41l-12 23l6 16l-6 14 l6 15l-6 4v20l-9 15v14l-8 16l-6 49l-10 62l-16 45l-9 4v14l-8 15l-2 16l-4 4v10l8 15l-6 6l6 14l-4 2l-6 15l-6 34l-17 27l-10 -8l-4 -23l-6 -12l4 -66l-2 -32l-2 -64l-12 -45l-2 -65v-66l4 -67l6 -66l4 -66l2 -57l-2 -65v-72l4 -68l-8 -63l-8 -21l-29 -8l-70 -8l-69 6 l-29 8l-6 47l-2 66l4 63l-4 64l4 27v34l-8 68l4 57l-2 70v72l2 59v70l4 57l-2 65l-2 72l6 66l-2 32l-6 64l2 59l4 70l-4 61l-2 66l2 72l14 65l12 12l33 7l31 -4l61 4l70 -2l31 8l18 -10l8 4l31 -4l-4 -9l23 -8l2 -6l14 -64l12 -65l12 -64l13 -65l12 -64l12 -65l13 -64 l12 -65l8 -12l8 -39l-4 -17l-6 -4l10 -43l8 -14l5 -47l8 -31l18 -27l10 -63l21 4l16 37l-2 27l13 28l6 33l-4 16l6 13l2 18l12 10l2 23l6 10l-4 10l2 31l-8 18l4 3l10 26l7 6l4 29l12 65l18 62l-4 33l4 32l19 41l4 66l6 12l4 31l10 20v17l9 24l-3 37l5 25l6 4l8 18l20 9 l23 -33l2 -19l4 -4l-12 -6l-4 -8l10 -4l2 -6l-6 -4l20 -25l13 -2l10 -18h31l-5 10l5 4h10l10 10l4 -4l2 -18l8 -2v-7l-12 -6v-10l21 -2l-9 -12l2 -9l7 -4l10 2v23l-12 6l-3 8l35 13l21 -13v-24l-6 2l-9 -13l-10 9l-10 2l8 -23l21 -10l8 8l22 64l-10 24l19 25l14 28l16 7v16 l8 12l-4 15l15 -4l18 -13l8 -12l2 -10l-4 -19v-28l4 -66l-8 -33l4 -28l10 -31l-10 -64l10 -65l-4 -33l-2 -63l2 -66v-68l-6 -63l4 -31l-4 -63l4 -64v-59l2 -68l-4 -69v-68l2 -67v-66l-2 -61l-4 -64l6 -61l-6 -33l-12 -31h-23l-2 8l-10 -4l6 -10l-6 -2l-14 4l-19 -2l4 29z M973 950l6 -2l14 6l8 13l17 2l-2 24l-19 21l7 4l-15 10l8 4l2 6l-10 25l4 6l8 2l7 -4h10l4 4l-2 16l8 5l6 -11l8 -4v13l5 2l-5 26l2 17l13 30v25l10 33h-14l2 8l-21 8l-6 23h-14l-8 -25l12 -29l-29 -59l8 -19l7 -4v9l14 6l4 -6v-19l-16 -2l-2 -4l4 -6l-19 -19l-2 -8h-4 l2 -35l4 -4l-16 -16l6 -4l6 -14l4 -35l-35 -15l4 -2v-24l7 -4l8 2v24zM895 1454l-4 2l-49 14l-4 7l2 4l2 -4l32 -2l66 -2l-6 -15h8l4 6l-2 13l35 6v-10l-10 -21l2 -8l2 4l31 -18l28 24h10l-2 -18l-8 -2v-21l-4 -6l-14 -8l8 -13l-4 -16l-8 4l-11 12l5 9l-21 4l-2 26l-8 11 l-10 2l-2 -6l8 -9l-6 -14l2 -10l-7 2l-28 -10l-6 4l-15 30l-14 9v20zM700 500v4l-10 24l8 2l7 15l-17 43l-12 14l-14 -22l-11 -7l-10 5l-8 -21l-2 -18h10l14 -15l-4 -16l11 -19l14 -10h10l-4 15l4 4zM997 383l2 -2l19 -57l10 2l14 16l5 -6l10 -2v43l-4 6l-2 31l-4 2l-3 -4 l-12 4zM377 1077l6 2l6 8l2 23l-8 2l-6 14l-2 19l-8 14l2 -22l-4 -33l-11 -62l4 -24l9 4v10l18 10l2 19l-10 6v10zM436 1409v6v4l-10 11l-8 -3l-33 9l-12 -6l2 -29l12 -27l-4 -8l10 2l13 -8l4 6l2 18l-6 -2l-7 15l-14 6l-4 6l8 8h35zM1038 543l2 -6l-2 -5l4 -8l7 8v17 l-11 33l9 -4v20l-29 8l-6 -20l2 -8l14 -19l-6 -2l2 -6zM1014 807l4 -2l24 -12v10l-18 12zM821 1032l2 2l4 8l-2 9l-8 2l-4 -17zM1008 1405l2 4l-2 4l-15 6l-4 -6zM1047 313l4 2l6 9h-15v-5l-10 -10l4 -4zM973 641v-4l2 -29h6l2 4h-4v27zM821 1077l4 -2l4 2v15h-8v-15z" />
<glyph unicode="N" horiz-adv-x="997" d="M854 8l-4 -2l-37 -8l-70 -2l-61 10l-8 12l-31 60l2 6l4 -2l6 29l9 2l-5 8l-20 -17l-4 2v11l-14 4l-11 39l4 8l-18 65l-6 7l-4 24l-13 12l-2 9l-22 59l-19 27l-8 49l-16 26l-23 56v16l-6 10h4l2 7l-4 14l-26 61l-9 2l-18 47l-6 33l-6 6l4 15l-10 22l-9 33l-39 53l-14 -18 l-6 -33v-68v-63l2 -66l-2 -63l-2 -66l-12 -53l6 -65l8 -29l2 -66l-2 -67l2 -66l8 -30l-18 -60h-15l-2 -6l-14 -4h-35l-4 6l-2 -6l-18 -4l-13 6l-28 6l-66 6l-6 6l-4 23v33l-2 63l-6 64l4 32v66v66v61l-2 63l2 66l2 68l-4 63l4 68l2 67v68v67l-4 66l-2 65v66l-2 64l2 61l6 63 l-4 66l4 31l-4 14l4 8l-4 2l47 15l70 6l69 -4l29 -6l18 -33l27 -51l2 -31l12 -29l23 -61l-4 -6l8 -9l27 -61v-29l6 -33l20 -59l19 -24l12 -25l6 -23l20 -26l11 -64l24 -59l23 -62l20 -61l21 -27l8 -2l14 21l2 16v68l4 69v68l-10 57l10 47v31l-6 66l6 33l-6 32v31v66v67v66 l15 37l20 2l31 12l65 -14l66 -7l14 -28l-2 -13l15 -10l2 -29l-5 -67v-70l-10 -32l6 -11l4 -45v-71l3 -62v-67l-3 -70l-10 -31l-2 -33l6 -30l9 -66l2 -67l-5 -64l-10 -8l-4 -19l-6 -6l6 -10l12 -6v-68l2 -67l5 -68v-63l-5 -60l-8 -2l-6 -43l4 -14l10 -6v-29l-2 -70l-6 -28z M713 870v-4l-6 -10l2 -6l14 -10l6 6l4 14l-2 35l8 2l9 10l8 51l30 11l-2 6l7 22l-13 -4l-8 -10l-8 -2l-10 4l-11 10l-14 6v-8l-18 -55l8 -14l-6 -6l-2 -17zM762 137v6v17l-10 24l2 17l-6 8l-17 -8v8h-22l-2 -8l6 -31l-13 -4l-12 -29l31 -12l31 2zM541 547l4 2l4 2l29 -8l8 4 l4 8l6 66l-41 20l-6 -16v-31l-12 -8l-11 18l-8 4l-6 -2l4 -12l14 -8zM625 401h6l10 -4h14l9 4l-11 17l-18 2l-10 20l8 19h-4v-4l-19 10l-14 -6l8 -23l-4 -6l2 -8l10 -10l-2 -6h-20v-15l10 -10l10 2zM346 909l4 4l4 11l-2 8l-12 65l-12 9l-2 10l8 12l2 19l-14 4v-21l-11 -14 l11 -19h-11l6 -14v-25l7 -6l6 -18zM748 1110l-3 -6l7 -14l10 -11l-10 -2l-4 -6l12 -2l8 -12l12 -8l11 2l-3 6l11 10l2 8l-8 6v6l12 13l-4 2l-2 8l-6 4l-23 -8h-16zM727 352v4l-4 50l25 4l-5 18l-12 6l-16 -2l-13 -12l3 -8l8 -6l-8 -5l-3 -6l7 -24l-11 -19l15 -6zM297 1319 v-2l14 -21l4 -16h21v39l-12 2l-13 29l-10 10l-4 -12l4 -17zM233 807v4l5 14l-11 6l-16 -4l-6 4l-8 -18l-27 -16l10 -17l19 -4l8 23l14 8h12zM223 113v4v4l10 10l-10 14h-10l-4 -12l-23 -20v-7l-6 -6h-8l-2 -8l8 -4l35 25h10zM453 1016l-2 -2l-9 -17l2 -10l19 -14h14l-10 33z M459 786l4 2l45 13l-8 8l-8 2l-7 -4l-32 -2l-4 -4l2 -8zM668 49l6 -2l20 10h8l-8 15l-16 6l-12 -12zM801 582l2 2l4 24l-6 33l-10 -25l4 -10l-9 -14l5 -8zM709 801v-4l4 -21l6 2l22 -6l-12 35l-6 4l-2 -10h-12zM709 1104v-4l-2 -10l6 -15l14 4l10 11v10zM444 944l2 4l3 17 l-11 12l-10 -4v-15zM395 948h4l11 4l4 17h-13l-6 4l-4 -4zM674 948v-6v-12l10 -10l8 18l-10 10h-8zM702 606l-2 -4l-2 -4l7 -12l8 -4l4 18l-6 6h-9zM252 434l6 -2l8 6l2 8l-8 13h-8l4 -21zM174 831v-4v-10l-4 -6l25 6l-5 10zM692 430h6h4l5 6l-5 13h-10v-19zM268 494h-6 l-14 -15h20v15zM272 543v4l-4 16l-6 4l-2 -16zM860 1128h-6l-10 -2l-4 -6l10 -4l8 4zM811 410v4l-2 4l-14 2v-10h16zM483 870l-4 2l-6 13l-14 -11l6 3l14 -11zM414 1167v4v7h-11v-11h11zM438 836v4v6h-10v-10h10zM684 616v-4l6 -16l2 4zM727 74l2 4l2 6l-4 4l-4 -12z" />
<glyph unicode="O" d="M586 -8h-4l-21 -2l-65 -8l-64 -9l-63 13l-52 20l-6 -2l-14 8l-53 17l-11 12l-12 2l-4 10l-22 8v9l-25 22l-10 23l-8 4l-2 14l-19 17l-2 8l-2 -4l-10 10l-2 16l-17 62l-6 4l-6 33l-4 65v66v63l10 64l-2 32l-10 64v65l4 68l-2 68l2 65l2 59l6 7l-8 30l-2 33l4 33l6 72 l-4 32l2 33l8 35l19 59h4l-4 -12l14 -49l10 -10l4 -15l7 -6l4 6l-4 15l-21 28l6 35l-6 8l-14 6l10 25l8 4l2 19l19 26v8l24 17v8l21 12l14 23l14 4l4 10l46 14l28 13l60 14l69 8h64l30 -6l13 -8l49 -6l14 -8l6 4l2 -4l9 -2l2 -9h14l6 -14h14l15 -14l6 2l14 -13l2 -6l25 -6 l24 -41l27 -20v-11h10v-10l6 -8l9 -35l14 -33l2 -14l10 -61l2 -33l-4 -70l13 -67v-31l-9 -33v-33l-4 -65l2 -33l2 -61v-66l2 -65l-2 -68l-2 -66l2 -61v-66l-4 -65l-10 -66l-12 -26l-8 -31l-35 -53l-37 -55l-57 -37l-23 -23zM438 203l6 -2l50 -6l51 20l22 25l2 14l6 6l-4 16 l4 62l11 31v63l-11 29l7 24l-2 70l-7 70l-4 59l13 61l-2 31l-5 68l17 -21l14 -4l8 4l4 -12l7 -2l24 37l-4 6l-12 -12l2 -6l-19 4l-14 -4l2 -11h-8l-2 6l10 15l-4 4l-4 -4l-8 2l-4 6l-6 -2v22l6 11l8 -6l-6 8v8h14l6 4l-6 -16l14 -29v12l17 13l-6 2v4h10l4 14h-10l-15 6 l-8 12l-6 3l-12 -7l-4 25l-2 63v68l-9 33l5 67l-7 13h4v16l-14 39l-12 8l-4 17l-19 8l-4 10h-14l-4 10l-53 6l-33 -12l-25 -2l-24 -18l-27 -48v-18l-8 -2l-8 -43l2 -64l-4 -71v-60l8 -65l-6 -64l-2 -73l2 -68l4 -55v-66l-2 -71l-2 -72v-66l4 -55l16 -59l27 -25l14 -2l12 -12 h39zM254 868v4v50l-8 6l-2 8h-11l-43 20l-22 -14l-2 -10l10 -6v-25h6l13 -18l4 -23l20 -22l-4 -7l4 -26l10 -10l4 8l-4 16l9 2l8 13l2 18l-19 6l-6 14l25 2zM438 1415h-6l-12 -14l4 -12l10 -11v-8l-4 -4l29 10l4 -8l12 -6h33l6 39l-6 14l10 10l-8 11l-66 8v-4l11 -10z M121 1063l2 4l18 25l-6 -64l6 -14l9 20l20 25l-4 4v10l-10 10l10 4l2 7l-6 34l2 17l16 6l-2 10l-8 13l-25 22v-35l-24 -20l18 -6l2 -9l-10 -12l-8 -4l-17 2l-4 -29l4 -12zM670 1278v-6l-2 -4h-15l-4 -8l10 -7l19 -22l2 -51l8 2l8 24l6 4l19 -2l10 -8v-33l6 -6l4 13l2 36h-14 l-2 7l6 22l-12 6l-4 6l2 25l-8 -2l-2 4l4 12l-4 6l-11 2v-26l-10 -8zM180 848l4 -2l11 -8l-5 20l-6 4l-4 -2l-20 17l-4 -5h-11l-2 -8l-8 -2v-59l6 -15l19 41l8 -4l22 4l-2 9l-6 2zM752 1053v4v16l-11 -2l-6 10l-8 2v-36l10 -13l-14 -18l4 -10l-10 -7l2 -4h33v49l-13 5l-2 8 l6 6v-8zM279 1278l2 4l6 27l-13 8h-10l-2 12l-14 8v-4l-12 -12l-3 -8zM141 403l2 3l29 10l4 6l-10 6l4 14l-35 15l2 -49zM190 662l3 4v8l-17 18l4 19l-28 -19l4 -2l-9 -4l-4 -8l2 -6h15l10 10l-4 -20h4l10 10h4l2 -8zM772 1264l-6 -2l-23 10l-6 -4v-8l11 -21l-5 -10l5 -15 l8 11l2 18l12 10zM483 1489l-2 -4l-2 -12l17 -27h10l2 33h-6l-10 10h-9zM508 66h4l31 4l-4 8l2 26l-4 5l-2 -5l-9 11v-21h-4l-10 -12zM719 612l4 4l-2 11l-6 6l-2 16l-11 8l-2 -4h-6l11 -35zM621 770h6l14 12l-4 15l-16 8l-7 -12zM244 1112h4l6 2l2 25l-6 32l-6 -6l2 -4 l-6 -35l4 -4v-10zM297 1352l4 2l6 12v20l-18 9l-6 -4v-5l10 -10h-2l2 -18zM229 1161l-2 -4l-4 -4l-18 -2v-4l12 -12l12 -2l4 4l-10 4l10 12zM743 1298v-4l-6 -14l6 -2v8l15 6v-12l8 -2v14l-4 4zM737 696l2 4v21l-12 10l-2 -14l4 -6l14 -6zM782 1102h-4h-12l2 -27l4 -6l2 10 l8 13v10zM195 1049v4l-9 26l-4 2l-6 -4l8 -18zM592 45v6l-12 8l4 9l-2 2l-9 -13l7 -14zM483 1436v-4v-13h-14l4 17h10zM694 270h4h4l3 13l-7 4l-4 -2v-15zM655 1362v4l-6 10l-10 4l6 -14zM96 1122h4l9 2l8 13l-11 -2zM614 721l2 4l9 10l-9 -2l-6 -8zM655 696h4l5 4l-2 11 l-7 -4l4 -7h-4l-4 -8zM791 985v-4v-6h10v10h-10zM709 1214l-4 3l-3 8l7 4v-15zM713 1098l4 -2l8 -9l2 5l-8 12h-4z" />
<glyph unicode="P" horiz-adv-x="950" d="M764 668l-2 -2l-8 -11l-27 -16l-59 -25l-31 -8l-33 -2l-63 -10l-66 2l-65 -2l-29 -12l-16 -43v-33l6 -35v-33l-9 -32l5 -66l-5 -31l3 -63l8 -64l-2 -65l2 -64l-6 -33l-39 -28l-39 6l-66 8h-69l-17 8l-4 6v35l-10 39l2 68l4 63l-4 66l-2 63l2 56l-2 71v68v65l-2 66l-4 63 l2 31l6 66l-2 67l-4 64l10 65l-6 33l12 6l2 8l-8 9l12 24h-16l-2 55l-4 64l6 27l6 71l10 15l-14 14l6 10l-10 29l4 14l-4 4l8 6l2 19l14 24l15 7l33 4l32 -2l68 -2l65 4l64 -11l14 7l19 2l8 -13l18 11l29 4l33 -2l33 -9l63 -2l6 -6l10 -2l13 -10l30 -6l15 -8l10 -13l14 -2 l4 -14l13 -10l45 -45l22 -41l8 -31l15 -29v-20l10 -2v-13l6 -4l-2 -24l4 -33l4 -61l2 -68v-68l-4 -65l-10 -64l-14 -43l-11 -10v-12l-6 -17l-18 -26zM631 907l-2 4l-2 17l6 65l-6 66l-2 61l-13 27l-16 59l-8 8l4 11l-17 16l-2 8l-30 19l4 4l-4 10l2 10l-4 4l-13 -20l-8 -2 l-33 4l-32 -2l-64 -8l-18 -29l-2 4l-6 -4l-9 2l-4 27l-4 6l-6 -6l4 -4l-14 -9l8 -14l8 -2v-16l12 -2l7 -70l6 -57l-8 -64l4 -63v-66l-2 -67l6 -7l22 -34l39 -13l12 4l3 4l28 3l66 6l6 4l53 33l-2 8l18 28l7 31zM186 1229l2 -4l9 -31l-19 -20l-2 -9h6l8 6l5 13l8 2l12 -6v-19 l8 -2l2 -8l35 14v25l-8 29l2 16h-8l-8 12l-7 2l-2 15l7 2l14 -6v8l-14 2l-21 -6l-6 22l-8 12h-11l-8 -55l13 4v-16zM295 1186l2 4l6 4v6l-14 4l-8 -24l-17 -29l6 -35l-10 -8l-20 -45l10 -6l10 -15l6 11l29 -15v21v61v66zM207 1004l2 4l12 10l-4 -12l12 -11l25 43l-25 -4 l-4 13l-14 6l-4 -13l-21 9l-2 -7l15 -8l-2 -10l-11 -10v-4l11 -11v-14l14 -8l22 -21l9 2l10 15v16l-6 6h-6l-11 -10h-8l-16 14zM289 1411h6l10 2l4 6l-12 2l-18 -10h-9l-2 6l6 23l-20 14l-6 -6l-2 -12l8 -25l-4 -2l-4 -14l8 -4h16l9 -13l6 2zM348 193l2 4l2 8l-10 12l4 19 l-2 14l-6 6l4 -16l-8 -4l-4 12l-6 4l-9 -10l-6 4l-2 -17l6 -8l4 6l7 -16zM229 1346l-2 -3l9 -8l10 11l-8 2l-2 8l4 -4h8l12 10l-8 18l-16 6zM289 442l2 4l4 39h-16l-5 -14zM360 1364l-4 -2l-2 -2l-16 10h-10v-4l24 -14l-4 -19l10 -2l9 25l-2 8h-5zM215 1214l2 -4l10 -10 l-2 -6l-28 10l2 8l12 17l4 -4v-11zM236 922v6l2 8l-9 4l-14 -10l10 -8h11zM387 1282l-2 2l-8 4l-6 -2l-4 -8l8 -4l8 2zM260 1073v4v10l14 -4l-4 -10h-10zM166 852h4h4l2 12l-6 4l-4 -2v-14z" />
<glyph unicode="Q" d="M737 -309l-4 -2l-22 -6l-68 -2l-14 6l-31 -6l-12 6l-31 4l-10 12l-43 23l-15 4l5 20l-7 2l-8 -6v-8h-12l-2 10l-4 -4l-37 33l-4 16l-29 21l2 6l-4 6l-8 2l4 6l-6 2l-8 21l-15 16l-10 31l-2 18l4 8l-10 9l-2 14l-6 4l-9 20l-12 15v8l-26 10l-5 8h-24l-6 11l-29 12l-22 18 l-39 54l-23 24l-2 15h-10v8l-8 10l-2 10h4l-9 10l-10 33l-12 60l-4 65l6 68l-4 61l2 33l-4 35l2 33l2 55l-2 65v72v72l2 65l4 66l-4 33l-8 63l6 16l-2 68l10 64l21 63l-2 8l28 58l13 8l22 43l31 35l16 6l4 8h10l17 14l31 13l2 8l41 4l28 10l33 6l-12 -14h-8l14 -10l-2 -17 l-12 -8l8 -22l-13 -48l11 -16l-11 -2l7 -6l14 -2l18 4l19 -2l6 10l4 31l31 14l-6 6l-11 -6h-8l-10 25l-23 -11l-10 9v28l-6 13l6 4l15 -19l10 2l2 9l-10 22l2 6l47 -6l61 10l19 -4l4 -6l12 -6l18 -2l45 -12l7 -7l32 -14l2 -12l23 -6l12 -11l6 2l9 -10v-10h14l4 -12l27 -17 l10 -26l16 -29l27 -57v-35l10 -8l2 -27l6 -4v-16l-2 -64l-2 -65l6 -17l4 -31l-4 -30l4 -33l-4 -33l-2 -55l-2 -68l2 -71l4 -60l2 -71l-4 -66l-10 -29v-16l6 -66l-6 -63l2 -64l-10 -26l-6 -33l-13 -16l-4 -31l-8 -10v-17l-18 -16l-8 -23l-9 -10l-47 -37l-30 -14l-11 -12 l-14 -6v-9l-37 -14l-24 -18l-17 -31l12 -27l21 -22l16 -6l-4 -2l4 -11l4 4l-4 7l25 -13l70 -6l26 -8l6 -14l8 -5v-18l7 -12l-7 -15l5 -16v-35zM526 205l4 2l13 16l12 31l6 4l10 45l13 66l-2 34l-2 64l6 33l-11 65l5 66l2 67l-2 66l-2 67l2 62l2 68v67v64l-4 61l-7 66l-10 28 l-22 10l-27 19l-10 -4l-43 16l-37 6l-29 -8l-24 -22l-4 -13h-5l-14 -20l-8 -4l-2 -15l-8 -2l-2 -4l4 -14l-4 -25l-4 -4l4 -6l-4 -55l8 -64l-4 -63l4 -66l-4 -65l2 -64l-6 -6l8 -10l-4 -16v-64l-11 -63l11 -15v-45l-4 -65l4 -64l-4 -67l4 -13v-35l10 -61l41 -45l12 -2l10 -10 l29 -11l21 -2l61 9l2 10h14zM111 889l2 -2l47 -8l2 -13l26 -16l7 18l8 11l16 6l4 22l4 2l11 -6l4 19l-2 12l-7 4l-6 -4l-4 4l4 6h11l-11 19v10l15 2l6 22l-12 23l-9 35l-18 -4v-50l-8 -2l-11 -12l-6 -24l23 -2l10 -9l2 -8l-10 4l-6 -4l-19 2l-14 6l-18 -14l-62 -25l6 -4l2 4 l13 -14l-11 -2l-6 -18l6 -15l4 6l-2 15zM227 494l4 2l5 6v16l12 10l2 -4l2 4l-16 13l-3 26h-8l-6 15l12 2l2 22l-6 25h-22l-6 4l2 8l10 10l-2 17l-8 -2l-11 -11l-6 2l-6 11l4 8h13l-2 10l-13 6l-6 39l-10 4l-8 -2l-11 -12h-6l-4 10l4 -49l-4 -33l6 -12l9 -4l12 22l8 2 l-6 -12l16 -31l-4 -8l-8 -2l-33 10v-45l4 -65l17 -2v33l-11 10l5 14l6 6l6 -8l2 -16h4l12 12l2 20l-4 7l8 2l19 24l8 2l2 -41l8 -26l-8 -17l-2 -18l6 -12zM657 1198h-4l-14 -8l-4 -27l12 4v-12l-12 -8v-19h6l8 13l39 2v24l8 15l21 20l6 15l-10 2l-4 8l14 28l-6 -2l-4 15 l-6 4v-4h-19v4l12 6l5 6v14l-7 15l-20 26l-4 -10l-17 6l5 -22l12 -8l18 10v-4h-4l-2 -29l-6 -14l-16 -17l24 -20l-2 -21l-8 -12l-25 29zM283 1311h6l16 8l6 20l-14 2l-10 11l-15 47l-30 -23l-23 -22v-4l-6 4v-8l6 -13l-2 -8l-10 -12l-2 -13l8 -6l-18 6l18 -28l10 20l10 2 l-6 35l27 8l18 -2l2 -12zM121 1153l-2 -4l-13 -14l5 -35l4 -4l16 47h10l9 16l-5 2l5 23l24 6l-2 10l-16 2l-6 4l4 4l-7 13l-12 4v-15l-20 -41zM580 -270h6l10 22l8 2l-6 23l2 16l-14 2l-6 12l-21 -4l-12 -14l6 -4l27 4l16 -27l-6 -8l-21 4l-28 -14v-16l14 -15l25 2v15z M135 1124l2 -4l-2 -49h10l9 -10l4 -17l6 -4l26 21l9 14l-39 -4l-4 8v29zM174 248h4l12 6h9v4l-11 10v15h-18l4 -15l-4 -4l-18 8l-2 -4l4 -2l4 -22l12 -11l8 -14l2 6zM125 825h4l4 -6l2 -18l17 -8l18 -2l4 24l-14 -2l-6 4l-4 19l-19 -5zM174 1290l-2 -4l-12 -45l43 10v15 l-4 6l-6 -6l-5 2l-10 22h-4zM571 1407l-2 -4l-10 -21l-4 -18l12 -2l15 14l8 2l-8 21zM635 -279v-4l12 -18l6 -2l9 10l14 8l4 6l-2 9zM203 297v4v27l-8 12l-7 2l-2 -4l7 -14l-9 -2l6 -17zM276 131l3 4l2 21l-9 4l-14 -17l-6 -16l14 8zM233 152l5 -2l8 -9h8l4 4l-6 21h-8v-4z M219 1231h4l23 2l12 8l-29 2l9 -4zM664 1305l-2 -5l-5 -14l21 -6l-4 18zM635 1378h-4l-15 -6l-6 -14l15 6zM170 1272h4h4v-17h-8v17zM209 684l4 -2l6 6v6l-6 6l-4 -2v-14zM610 1343l-2 -2l-4 -8l4 -4h10l-2 10zM571 -256l4 -2l3 -4l-13 -12l-4 4zM565 -176v-4v-6h15v4z M385 1399l-4 2l-6 2l4 10l10 -6zM125 889v4v6h10v-10h-10z" />
<glyph unicode="R" horiz-adv-x="931" d="M811 -4l-6 2l-6 8l4 17l-2 6l-8 -4l-7 8l-4 -15l-6 2l-6 -10l2 -8l8 -2l-24 -8l-33 4l-68 12l-26 12l-4 9l-21 61l-8 66l-4 8l-23 59l-18 66l-4 30l-12 33l-19 29l-8 31l-6 4l6 10l-6 10v23l-15 55l-22 66l-10 12l-27 20l-53 -16l-8 -37v-63l4 -70l-6 -31v-65l2 -68v-65 l-7 -62l5 -65l-9 -66l-12 -6l-41 -2l-70 -2l-63 4l-31 10l-10 12l-10 66l2 64l2 63l12 53l-6 33l-4 66l4 63l2 66l-6 32l-8 66l4 65v66l4 65l-4 31l10 66l-6 65l4 31l8 14l-10 -4l-2 6l6 15l-6 43l6 32l-6 33l-4 64l-2 59l6 68l-4 67v66l29 31l24 2l6 6l4 -6l23 2h65l66 -2 h68h63l63 -4l-4 -9l15 -6l28 15h9l6 -7l4 7l47 -13l14 -10l2 -6l37 -17l49 -38l15 -5l34 -32l17 -52l10 -14l4 -16l21 -60l2 -30l2 -68l8 -63l-2 -31l-2 -64l-4 -71l-21 -60l-6 -47l-33 -37l-43 -53l-53 -35l-4 -6v-10l4 -64l10 -14l4 -25l11 -14l12 -31l2 -18l-4 -14l8 -25 h6v-8l6 -6l7 -33l14 -66l22 -57l-2 -8l-16 -12l-6 -15l4 -4l25 6l6 -2l12 -63l18 -60l9 -14l2 -41l10 -10v-17l-21 -22zM604 920v4l4 49v65l-4 68l-12 72l-23 53l-18 26l-39 5l-68 12l-30 -2l-31 -15h-8l2 -12l-10 -33l-2 -32v-68l-5 -61l11 -64v-37l-9 -67l3 -27l12 -33 l10 -6v-8h25l2 -12l43 4l67 8l27 8l24 23l15 6v12l4 8zM674 860h6l18 -10l13 -31l6 -2l8 4l12 19l15 10l6 -2l4 4l-4 2l4 12l-10 13l-4 16l26 49l-12 14l4 9l-10 2l-4 8l4 10l-29 -6l-10 -12l6 -4l-6 -17l10 -6l4 -8l25 4l6 -8h-8l-2 -21l-9 -2l-26 -20l-8 -2l-2 24l4 37 l-2 23l-7 -8l-34 -3l-6 -24l-3 -33l13 -18zM614 1331v4l11 49l-41 17l-37 2l2 -10l8 -13v-10l12 -4l6 -6l-4 -10v-19l4 -6l23 8zM258 772h4l6 6l2 25l-4 8h-4v-4l-10 -10l6 -4l-14 -21l-13 -29l2 -10l25 19l4 16zM350 1057v6v22h-4l-6 15h-18l4 -29l-11 -4l-4 -6v-10z M748 1364l-3 -4l-4 -8l-4 -31l17 4l12 21h-6l-6 14zM526 1423h-4l-14 11l-6 -7l14 -14l6 2zM762 1008l-2 2l-6 20l-6 2l-5 -4l5 -16h8l2 -8zM713 1106h-4l-15 -6l-2 -8l19 6zM772 109l-2 -5v-12l10 -8zM188 821l2 -2l5 2l-11 10l-6 -14l6 -6zM748 963l4 -2l4 -5v-8l-6 4z " />
<glyph unicode="S" horiz-adv-x="884" d="M807 481v-4l10 -55l6 -68l-2 -65l-14 -62l-8 -20l4 -6l-6 -21l2 -8l-39 -45l-17 -29l-6 -4l-2 4l-4 -2l4 -6l-2 -8l-6 -4l-2 -8l-51 -31l-60 -25l-55 -22l-29 -6l-67 -2l-72 2l-4 6l-8 -4l-33 12l-31 4l-6 6h-14l-35 17l-10 10v8h14l17 -18l4 14l-4 25h-35l-6 -7l6 -24 l-19 12h-8l-14 21h-8l4 2l-23 28l-39 56l-18 59l-8 12l-4 31l-11 49l-2 70l-8 65l16 45l19 13l65 10l72 -2l57 -23l5 -10l-3 -63v-68l7 -16l10 -54l33 -55h8v-10l55 -21l49 2l33 9l29 16l45 47l10 59l-10 33l2 17l-6 8l2 4l12 -4l-6 49l12 8l19 2l-2 15l-23 20l-10 -8 l-4 -23v-32l-21 32l4 6l-8 11l-20 41l-4 16l-7 6h-8l-8 23l-23 10l-12 12l-14 25l-14 10l-5 21l-43 26v4l-12 11l-2 10l-10 2l-12 8l-11 14l-41 25l-6 22l2 7l-12 -9l-37 43l-14 27l-25 27l-43 49l-26 57v21h-9l-2 18l-8 2l2 8l12 8l5 9l-5 8l-24 -4l-8 53l-13 63h-8l6 25 l2 33l11 65l6 4l12 29l6 2l15 49l14 11l4 24l16 19l27 16l12 12l6 15l11 10l16 6l6 14l41 11l29 14l22 2l4 4l48 4l67 4l70 -6l28 -8l15 4l49 -25l10 -12l15 -2l30 -24l21 -27l24 -23l17 -28l10 -31l14 -27l-2 -14l10 -53l13 -31l-2 -6l2 -70v-67l-6 -29l-35 -12l-33 -4h-68 l-65 10l-12 39l-2 33v71l6 -2l-17 58l-14 22l4 4l-20 25l-29 16l-33 8l-33 2l-30 -8l-27 -16l-8 -17l-8 -4l-11 -30l-6 -9l-8 -30l-10 -15l2 -32l18 -64l15 -27l8 -4l2 -12l12 -12l12 -31l13 -14v-8l39 -31l14 -21l27 -18l43 -49v-8l24 -31l25 -4l2 -4l45 -47l12 -3l2 -16 l15 -8l16 -25l43 -49v-4h-12l-6 14l-13 -16l-2 -14l-12 -4l-2 -7l16 5l4 -3v-10l9 6l-5 19l15 -8l14 8l27 -45l20 -23l2 -16l21 -66zM256 143l4 -2l29 2l10 19l-4 6l8 14l-10 11l2 14l-4 4h-17l-4 16l-14 27l-6 35l-6 8h-6l-45 -47l10 -12l-2 -52l12 2l18 -10h9l4 8l-2 15 l4 6h10l4 -6l-4 -25v-33zM285 915h4l30 7l-10 28h-20l-4 25l-15 4v10l-6 4v33l-4 16l-14 7l-2 -9l-11 -10l-2 -16h-4l-10 -10l4 -3l-6 -12l2 -4h23l4 -14l12 -10l-2 -3l6 -22zM186 299l4 2l27 12h19l4 17l-15 6l-12 22l-20 23l-17 6l-14 -29l14 -10l-4 -20zM362 856l5 2 l12 27l8 2l-18 35l-37 -7l-4 -14h10l6 -4l-4 -18l12 -31l-4 -23l4 -2l8 8l5 15zM348 74l2 4l8 20l-32 21l-2 20l4 8l-9 3l-12 12h-4l2 -21l-6 -26l8 -4l2 -7l-4 -10l4 -4h21zM440 690l2 4l19 51l-8 5l-27 -15l8 -41zM567 98v4v13h-14l-6 12l-8 2l-4 -6v-19l18 -8zM655 584 l4 4l13 28h-13l-12 -6l-16 -2l4 -12zM401 35l5 -2l10 -6l20 8l-20 31l2 -7l-6 -14zM799 1337h-6l-11 4l-6 13l-2 16l23 -14zM231 270l2 -2l5 -2l10 -24l-2 -6l-21 14l-2 8zM457 143h4l24 4l4 7l-4 2v6l-20 -4zM147 1126l3 2l8 33l-8 -2l-13 -20zM592 475l2 4l4 6l-6 15h-14 v-11zM319 41v4v21l-26 -21l-8 4l2 -8l22 8zM143 1087h7h2l-2 -10h8l-6 27l-9 12v-29zM465 768v6l-2 10l-6 4v-20h8zM168 1028v2l6 12l-6 7l-6 -17zM778 377l4 2l17 8l-17 -2z" />
<glyph unicode="T" horiz-adv-x="841" d="M801 1292l-2 -4l-15 -18l-24 -10l-35 -5l-37 2l-70 5v10l-8 12l-41 23v-9l9 -14l10 -6l14 8v-20l-12 -6l-17 -3l-18 -14v-10l-10 4l-6 -2v-6l6 -6l6 -19l-10 10h-15l4 7l-4 10l-8 4l-12 -2l-8 18l4 17l-10 -4l2 -19l-7 -8l17 -29l16 -8v4l6 4l-8 -16l-6 4l-29 -14l-2 -6 l4 -7l27 -4v-18v-62l10 -2l4 7l2 16h9l2 -4l6 -60l2 -65l-8 -68l4 -51v-70l4 -61l4 -70l-6 -30l4 -29v-61l-4 -72l-21 12l-18 2v-10l12 -10l2 -8l17 4l4 6l4 -21l-4 -2l6 -16l-6 -55l4 -33l-4 -64h-21v9l-4 -5v-20l4 -4l-6 -12l6 -23l8 14l7 2l2 -6l4 2l-15 15v6l6 8l-2 4 l9 -4l6 -14v-37l10 -64l-4 -32l-10 -31v-64l-19 -6l-24 -2l-6 -6l-5 4l-26 -12l-31 -4l-37 2l-63 14l-15 10v11h-10l2 16l-4 6l-6 -2l4 61v66l-2 70l2 63l6 57l-4 68l-4 66l2 65v68l2 61l-2 64v63l4 66l-4 57v68v69l6 -2l-2 17l17 4l-7 14h-8l-2 -14l-8 4l8 39l-2 61l-8 14 v21l6 33l-6 12v31l-4 20l8 -2l23 -18l14 -2l6 4l-2 33l12 4l17 -15l4 8l-6 3l-13 38l-14 -14l-14 21h-25l-4 -5l-14 5l-4 16l-7 2l-14 -4v4l-10 10l-31 -2l-63 2l10 -39l24 4l15 -4l6 4l33 -14l6 4l10 -31l14 -8l-12 -26l-10 -11l-17 5l3 -29l6 -2l-29 -6l-27 2l-67 -8h-33 l-20 12l-11 12l-14 8l-4 41v66l10 26v29l16 14l27 9h74l-2 -13l12 -10l8 6l-8 23l35 -6l67 -4l-8 -7l-2 -8l21 -14l4 4v10l6 15h6l19 -13l8 2l6 11l4 -5v-10l29 19l4 -4l-8 -5l2 -4l18 4l2 -6l12 -4l2 -12l-8 -12l4 -4l6 4v-11l-6 -4l-67 -4l-4 -6l2 -6l22 -2l4 -4v-13h8 l5 5l2 16l20 -6l14 14h11l2 41l-8 10l-9 4l7 7l14 -7h57l33 9l65 -4l5 -39l8 4l4 8l16 12l-6 4l-2 11l16 -3v-6l9 -2v6l49 11l37 -2h69l21 -15l4 -30l-4 -66l-6 4h-19l-10 -10l4 -10l-4 -13l2 -4l12 -2l-10 -14h10l15 8l-2 10l-11 11l-6 14h15l8 -8v-49h-8zM594 1356l6 6 l6 10l-14 17l-2 10l6 14l-2 6h-16l-11 -12h-8l-24 -14l-11 -11l-24 -6l-4 -8l10 -18l-12 -2l-27 -17l6 -49l-4 -16l8 -4l8 28l15 19l26 16l-6 21l8 2l11 12l6 -4l-6 -10l-2 -15l16 2l31 13zM752 1296l4 2l8 2l2 9l-4 22l-10 15l-2 38l12 29l-12 2l-5 -8l-8 -2l-4 16l8 25 l-10 8l-2 -8l-8 -2l4 -14l-6 -23l8 -12l-10 -15l-10 -32l-11 -13l6 2l7 -8l-4 -16l-17 -29l4 -6v8l19 10l2 -4l-4 -12l-13 -12h13l12 -6l10 2l8 10l11 2zM410 1335v-2l-17 -4v-8h15l20 -10l8 16l-6 31l2 16l6 6l2 -4l9 -2l-17 23l-12 2l-6 -4h8l2 -21h-21l-10 -4l4 -2l2 -22 l9 -3zM487 383v-6l-4 -6h-10l-16 6l2 -15l-17 -59l9 -12l16 -6l8 28l-2 35l19 4l2 23zM414 1169v7v12l4 6l-17 8l-26 -4l-2 -10l-13 -8l13 -2l2 -9h39zM393 1116v6v4l10 9l-16 8l-18 2l8 -21l-4 -4l-8 6l-7 -2l4 -24l-2 -8l15 8l4 14l6 6zM516 1135v6l6 18l15 6v-55h-5 l-12 25h-4zM418 1247l-4 -2l-4 -8l4 -8l14 -10l-6 57l-12 10l-7 -12zM139 1341v5l-28 20l-2 -6l12 -17zM541 119l-4 -2l-25 -8l16 -17l9 6l-5 4zM481 6l2 4l11 19l-2 10l-13 -2l-2 -17l4 -6l-4 -2zM424 1204v-4l6 -14l19 -2v6zM442 10h7l8 6l-4 15l4 2l-8 2l-3 -10l-22 -7z M139 1286v4v13h-14l2 -11zM737 1317l6 -2l-2 -10l4 -2l-14 -13zM252 1262v4l16 2l6 -6l-2 -5zM326 1081v-4l6 -10h8v8zM580 1356l-2 -4l-11 -4l-4 2l-2 10zM618 1434v-4v-5l11 -8l4 6z" />
<glyph unicode="U" horiz-adv-x="978" d="M868 618l-2 -2l-8 -43l4 -67l-4 -6l4 -4l-4 -4l-6 -48l4 -61l4 -72l-4 -30l-12 -68l4 -6h-10l6 -10l-10 -19l-5 -24l-8 -15h-8l-4 -14h-10l2 -10l-17 -15l-2 -14l-22 -20l-4 10l-6 4l-9 -6l4 -23l-34 -20l-58 -29l-59 -16l-6 -6l-21 -7h-30h-70l4 19h-10l-6 -12l-9 -3 l-4 25l-4 -2l-2 -8h-14l-29 -19l-8 9l-16 -5l-2 9l-9 2l-4 8l-35 18l-14 2v11l-20 -7l-19 15l-30 16l-15 21l-24 22v15l-9 8v8l-20 25l-10 4l-2 14h-6l-7 14l7 15l-11 26l-2 68l-12 35l4 55l-4 61l-8 70l-2 66l4 63l-4 33l12 61l-8 25l6 14l-6 25l2 16l8 66l-6 14l-4 33 l6 65l-2 31l-8 29l2 34l8 33l-2 66l4 63l-8 35l2 31l8 -2l-2 10l-10 10l-4 17l6 32l8 64l20 24l3 9l61 -2h61l68 2l16 -13l2 -12h9l4 -4l-4 -66l2 -32l4 -4l-2 -5l-2 5l-2 -15l2 -61v-68l-25 -43l10 -22l6 -4l5 2v-25l6 -61l-2 -33l-7 -66l3 -67v-64l-3 -55l-2 -68l2 -71 l7 -66l-11 -49v-33v-63l-10 -8v-5l10 -10l7 -14v-47l-7 -13h9l6 -49l10 -14l4 -16l21 -27l22 -8l64 -17l22 5l64 24l10 12l14 31v10l14 6l-2 48l5 61l2 61l-2 66l-3 68l-2 67l5 68l16 6l6 6v8l-25 21l3 16v64l-3 65l27 -4l12 10l-2 4h-22l-2 11l-13 10v20l-2 66v67v64l2 63 l5 66l28 -25l4 19l-2 14l-16 6l20 39l-14 -6l-12 10l-6 -2l-2 8l18 5l16 -5l-6 31l-4 2l-14 -8l-4 6l-8 -10l-3 10l7 12l22 -4l-2 11l6 22l-8 27l4 4l8 -4v12l-22 12l8 6l2 7l10 2l4 -4l50 -7l10 -10l10 8l23 2l30 13h31l2 -15l6 -8l19 8l14 -2l10 -45v-30l-2 -68l-2 -68 l-12 2l-8 19l-7 -12l3 -37l4 -8l8 -3l12 -10l-8 -35l-6 -4l14 -28l4 -35l-4 -64l-35 6v-10l27 -22l2 -39l4 -62l6 -65v-66v-63v-66zM784 481l4 2l15 -6v17l-8 -2l-11 12l-10 2l-10 -12l-25 -9v39l2 -8h9l10 8l-15 13l-16 6l-8 12h-14l-11 8h-14l25 17l-5 8l7 14l22 6l8 15 l11 -11l-2 19l-27 12l-12 21l-9 4l-6 -19l-6 -4l-6 2l12 -22l-2 -7h-20v-8l10 4l4 -6l-14 -28l4 -27v-37l14 -12l4 -17l15 -8l2 -8l-9 -12l5 -6l45 2l6 6l12 31h10v-31l4 2l15 -6v4l-13 10zM397 182l2 2l4 2l9 21l-11 4l-2 8l-6 2l-20 -8l-25 4l4 -12h-8l-14 26h-15l4 11 l-20 6l2 4l-8 43l-12 10l6 6l2 15l-8 14l-11 -37l2 -6l9 -6l-13 -21l-2 -14l-8 -14v-19l-14 -26l2 -9l20 13l10 2l9 -6l8 -15l-4 -65l4 -6h14l8 14l-14 8l14 55l-14 9l4 16l14 8l21 -43l27 6l-5 17l7 6l22 -23zM657 172h5l32 -4l6 -4l11 33l-6 4l-19 2l-6 14l4 6l14 8v13 l-12 20l-18 2l-2 -8l-15 -65l-18 -3v-8l12 2zM739 383l2 4l2 23l-4 8l-34 -17l2 -8h-11l-12 -10l2 -14l-4 -4l-8 4l-2 -4h4v-19l10 -8l8 4l2 6h-8l-2 21l10 4l11 -8h18v10zM461 20h6h10l-8 13l-2 18l-35 15l-2 -7l16 -6l-2 -16l-12 -10l8 -4l-4 -17l17 -4l4 16zM799 520l2 4 v2l4 68l-17 4l-8 -43l19 -10l-6 -6l-2 -15zM182 383h6l5 -2l14 4l4 6l2 17h-35v-19zM227 373l4 2l19 8l6 14l-39 6l2 -18zM725 819h-4l-8 -2l-2 -8l14 -6l4 12l10 12l6 17l-20 4v-29zM799 1204l-2 2l-21 8l-33 -8l-4 -6l6 -2l15 12v-4l24 -8zM821 1360v-2l6 -31h11l-4 10 l6 13l8 4l10 12h-10l-12 -8zM770 780l-4 -2l-6 4v17h-25v-19l4 -6l25 2zM731 745l-2 -2l-20 -14l-2 -8l14 -21v11l12 28zM285 55l4 -2l26 -2l-4 10l2 5l-8 10l-2 -6zM692 104l4 2l15 -8l6 6l-6 -2l-6 17h-5v-4h-16l-2 -6l8 -15l6 6h-4v4zM150 1401l4 2l-11 -17l13 7l6 14 l-2 8l-6 4l-9 -18h5zM707 739v6l-15 15l-6 -21h21zM125 1337l2 4h6v25h-4l-10 -23zM618 1401h-4l-2 24l17 -6v-4l-11 -10v-4zM721 104v-6l2 -12l12 -6l-4 14zM672 891v-4v-19h4l10 11v8zM193 1411l-3 -4v-12l7 -4l4 16zM428 100v4l-8 13l-8 -2h4l2 -13l4 -4zM154 1352l2 4 l12 16l-12 -4l-6 -8v-6zM270 129l2 4l4 6l-10 4l-6 -10z" />
<glyph unicode="V" horiz-adv-x="901" d="M831 1479l3 -4l14 -11l-2 -37l-8 -67l-9 -29l-12 -65l-14 -70l-10 -59l-9 -64l-10 -14v-23l-6 -30l-16 -64l-27 -2v-29h-8l-6 15l-11 -2l-10 -13l-22 -2l-27 -12l14 -10l19 10l31 -8l10 2l-2 -10l14 -27l16 -2l-4 -10l-10 -68l-10 -8l-10 -59l-11 -66l-14 -51l-4 -37 l-12 10l-2 10l-9 -6l-6 -12l2 -20l9 -11l4 4l-9 13l9 8l6 -10l-6 -50l-7 -12l-8 -2l-2 -24l-8 -31l4 -35l-8 -23v-24l-6 -12l-15 4l7 -19l-11 -2l-2 27l-12 26l-14 -32l4 -11l14 -6l-14 -18l4 -4l16 8l4 -4l15 4l-6 -41l-9 -61l-6 -56l2 -8h-6l-10 -10l-8 -53l-13 -31 l-18 -23l-8 17l4 16l10 -8l4 8l-6 14h-8l-14 -10l-7 -12l21 -35l-10 2l-60 23l-2 -11l19 -18l-13 -6h-49l-69 6l-27 8l-8 15l-8 28l-11 70l-8 12l-4 29l-14 67l4 33l-6 31v33l12 10l-2 10l-29 -4l-8 45l8 10l-4 27h21l-11 10l11 8l14 -6l4 8l-2 5l-47 -5l-10 5v45l6 10l-2 4 l-23 59l2 17l6 4l7 14l-3 6l-22 2l-4 37l-8 33l-23 57v62l-14 65l-10 62l-15 61l-14 68l29 30l12 -6l18 -24l4 8l-6 16v15h-12l-2 8h-16l2 -2l-9 -10l-12 8l-18 -4l-7 53l-18 27v18l-8 63l2 29l-6 66l-10 12l-7 35l-10 33v36l8 5l11 12l6 2l67 -6l11 4v4l43 -10h65l16 -15h9 l2 -20l18 -64l10 -63l4 -4l-6 -21l11 -55l12 -63l-2 -33l14 -19l-6 -26l6 -21v2l4 -12l4 -70l13 -30l-2 -19l6 -31l10 -63l4 -4l-4 -6l8 -45l-4 -9l12 -30l11 -68l12 -63l-2 -35l4 -6l8 -2l2 -17l12 -28l9 2l28 39l6 32l-4 17l4 16l9 66l12 63l-6 4h35l18 4l2 6l-6 7l6 14 l-10 8v17l-10 4l-4 22l-11 12l13 66l2 66l14 34l10 68l-10 14l8 6l2 9l-4 16l2 37l8 29l17 28l6 51l12 64l12 12l5 31l8 63l33 13l30 4l68 -4h71zM369 647l-2 -4v-6l4 -2l16 8l12 16l2 9l-4 8l-6 -8l-29 8l-4 -4l-20 28l-6 -8l-8 -2l-7 6v31l-4 18h15l-9 43h-20l6 -30 l-6 -15l-12 -10l-2 -8l14 4l10 -47l-10 -10l4 -6l-4 -4h-10l-15 -7v-8l21 4l8 -2l12 -10l23 -6l2 -8l4 2l-2 8l-12 10l-17 6l2 8l13 -2l14 15h10v-25l-4 -6zM686 657h-4h-41l-2 7l-8 2l-4 6l4 2l-8 2v-6l-7 -4l-22 4l-2 -8l10 -13l6 -16l-2 -12l-8 -5l-14 31v-24l-9 -15 l-2 -14l5 -6l2 8l4 2l14 -8l14 6l15 -8l12 16l16 6l11 13h-15l-18 -11l-10 11v14l24 4l2 -6l17 -8l18 2l6 4zM672 950l2 2l12 41l-20 15l-19 2l-31 28l-6 -12l13 -20l-17 -13l6 -14l11 -10l2 -8l-4 -9l-19 -16l12 -2l33 14l4 6zM598 539h-4l-8 2l-2 8l14 -4l4 4l-4 16 l-10 13l-2 -5l-8 5l-3 -7l-16 -2v-41h-10l-10 -18l14 2l10 12l25 -4v8zM549 207l4 -4l14 -4l11 12h-15l-16 14h-8l4 -12l-4 -2l-4 10l6 8l8 2v19l4 6l-8 -2l-31 -47l6 -21h4l6 -8l5 4l-5 2l15 9v12zM256 989l2 -4l-2 -31l43 7l-14 43l-13 -13zM225 936l-2 -4l-2 -17l19 -34 v10l16 24l-8 5l-6 12l-6 4h-11zM563 584l-4 2l-6 2l-25 -10l15 -23l10 -2l2 18zM231 803h5l24 2l-10 18h-10zM535 129l2 4l8 -4l4 4v8l-4 4l-17 2l2 -14zM250 1014v4l-2 8l-17 2l-2 -10l4 -4h17zM231 872l-4 -2l-6 -14l10 -14l-2 4l9 20zM358 788v-4v-12l11 -8l-2 24h-9z M328 729l4 -2l-4 -6l10 -6h10l-10 18h-8zM647 975v4l4 10h11v-8l4 -2l-4 -8zM432 133h4v-16l4 -4l6 2l-6 20l-6 2zM510 725h4l-6 -10l6 -4v10l21 8h-25v-4zM563 739l2 4v13l-6 4v-15z" />
<glyph unicode="W" horiz-adv-x="1306" d="M1253 1460v-4l2 -18l-4 -68l-14 -61l-12 -64l-11 -65l-8 -64l-10 -65l-14 -64l-8 -63l-13 -58l-2 -30l-18 -13l-6 -18l16 -6l4 -21l-12 -30l-21 -25l2 -4l6 4l11 -14l-11 -60l-14 -24l2 -9l8 -2l-8 -6l-6 -33l4 -14l-8 -14l-2 -25l-6 -12l-2 -51l-6 -6l6 -4l-11 -21 l-2 -33l-4 -12l-6 -6l-8 -55l4 -5l-12 5l-10 -39l10 -15l4 4l4 -12l-16 -45l-11 -61l-6 -68l-10 -61l-16 -23l-15 -6l-67 -2v12l4 6l2 17l-10 -2l-9 -13l-4 2l2 -16l4 -2l-2 -4l-45 6l-30 -6l-4 10l-23 10l-4 23l-16 67l-11 66l2 31l6 -2v10l-12 6l-6 14l2 15l14 2l9 6l-7 6 h-18l-6 4l2 10l-4 17l-6 4l2 20l-8 31l-7 64l-8 20v31l-8 65l4 8l-10 9l-2 24h-8l-2 31l-13 63l4 15l-2 8l-14 63l-10 68l-12 27l-15 -6l-18 -25l-8 -31l2 -37l-5 -4l-14 15l-16 -11l10 -12l-10 -2l4 -4h26l-16 -49l6 -15l-4 -6l4 -14l-6 -23l6 -6l-2 -4l-8 4v-35h-4 l-10 -10l4 -6l-8 -51l4 -6l-2 -10l-9 -9l-6 -61l-14 -66l-8 -61l4 -19l-25 -32l2 -11l9 -10l-11 -22l-8 -2l6 -23l-6 -65h-6l-12 -11l-6 -14h14l2 14h8l-6 -32l-8 -2l-2 -29l-8 -29l-15 -4l-67 -10l-35 2l-27 12l-45 6l-22 43l8 19v22l-10 -2l-3 10l-6 5v51l-14 65l-10 11 l-4 22l-6 66l-15 63l6 6l-8 23l-4 63l-4 13l-10 12l-2 35l-6 14l2 10l12 21l-8 12l-11 2v10l-16 62v30l8 -2l17 -12l4 6l-8 15l4 4h-25l-6 47l-6 2l-2 26l-13 64l-12 61l6 15l-2 16l-14 64l-8 67l-9 4l-6 33l-8 64l-12 30l-2 31l-2 63l-10 15l-5 53l-10 10l2 13l-2 65l17 17 l8 2l4 6l14 -6l49 4l15 -4l61 4l33 -2l16 -9l4 -6l2 -16l13 -29l6 -65l12 -66l-4 -24l14 -64v-29l4 -63l11 -6l4 -41l-12 -4l-7 -6l9 -13l16 -6l-6 -10l2 -16l6 -5l4 -30l2 -62l6 -6l-6 -22l2 -9l15 -65l-31 -4l-4 24l-17 -20l-2 -17l8 -32l3 4l14 6l18 -2l15 -8v-17l8 -63 l8 -31l12 -10l-4 -4l-6 8h-4l-10 -10l6 -4l-6 -7l16 -22l2 -27l6 -4l-6 -4l6 -4l21 23l4 -33l24 8l-6 27l2 14l-10 4h-18l-6 4l2 10l12 11l2 18l12 31v33l21 57l6 67l8 66l10 66l11 67l6 12l4 52l12 67l8 19l4 67l6 31l9 61h8l6 52l-6 6l10 35l-4 10l18 33l41 6h68l63 -6 l17 -23l10 -37l2 -33h-4l4 -26l-10 -17l16 -6l2 -20l9 -68l12 -31l4 -40l4 -68l16 -57v-23l-4 -6l4 -6l-4 -15l4 -32l11 -64l8 -8l12 -31l-4 -16l6 -45l8 -2v-4l4 -64l7 -16l2 -33l8 -49l12 -25h8l17 19l6 49l8 14l6 31l-6 33l6 14l4 49l15 66l6 65l6 64l8 30l-2 48l10 20 l4 35l-2 49h9l2 31h14l-10 14l8 19l2 67l4 10l-4 13l4 32l10 64l10 16l21 13l27 6l61 2l74 -6zM1147 1266l2 4l6 49l-6 2l-4 -16h-4l-17 38l-2 19h-10v20l-8 2l-4 31l-8 12l-11 -18l2 -16l-4 4l-12 -8l6 -7l6 7l8 -3l11 -14l-6 -8l2 -16l14 -15l-6 -4l-4 -18l-6 -6h-9 l-2 -13l-22 -24l4 -8l2 8l8 2l-10 -35v12l-14 4l-5 -4l9 -16l-11 -10l11 -15v-28l6 -25l-6 -25l6 -6v17h24l-4 28l8 4l21 -4l-2 -10h6l10 14h8l5 9l2 28l4 9l-25 22l-10 4l-8 -14l-6 2l-5 10l7 4l6 15l12 10h10v24l8 13l7 2v-11zM662 1280h4l39 12l16 -2v4l-25 21l4 8l-18 6 l-29 -8l-16 2v45l20 8l11 10l-25 -4l-4 15l-10 10l-8 -6l-9 -15l-8 -34v-33l14 -4l5 -6l-5 -15l29 -2l15 6l4 -4zM1059 1016l4 4l10 2l25 -21l4 7l-4 32l-11 -4l-6 15l-8 4l-4 -8l-16 4v-31zM158 1065l6 2l14 2l-4 2l4 8l-10 8l-4 17l16 2l13 8l-5 14l9 33l-4 6l-7 -12v-16 l-4 -13l-18 -4l-2 -16l-12 -6l2 -13l8 -12zM207 1196v6l-2 19l-6 10l-13 4l-18 -4v-4l10 -10l4 -15zM676 1104v6l-6 14l-23 2l-12 -10l-2 -16zM725 1026v4l4 8l16 2l-6 29l-6 2l-26 -16l4 -21zM594 1280l2 2l12 18l-2 9l-8 6v-10l-14 -7l4 -4l-19 -14l4 -4l-4 -14l4 -2z M1087 971l5 2l20 10l10 -2l-2 10l-12 10l-8 -10l-17 4l2 -39l5 -4h8l-2 9l-6 2zM956 37h7h4l8 10l-6 33l-8 2l4 -35l-9 -2v-8zM1063 1104h-4l-17 8l-4 -4l4 -6l2 -17l5 -6h10zM926 57h4l8 -4l2 8l-18 15h-9l-6 -29h6zM383 92v6l-2 15l-8 4l-8 -6l-3 -17l7 -8l4 6h10z M707 1188h4l8 2l2 8l-6 16l-8 3v-29zM403 8v4l-2 17h-8l-4 -21h14zM172 1051h6l12 -4l7 4l-2 10l-7 4l-4 -8zM1077 1217l-2 -3l-4 -16l-8 -2v21h14zM485 61l-2 2l-2 5l4 8l-14 6l4 -23zM1038 1196h-4l-14 6v-18l4 -2l4 6l8 2zM1092 1075l4 -2l4 -2l16 12zM203 1245l-2 -4 l2 -4h14v4zM1122 1227v-4l-6 -6h-8l8 24zM281 692l2 4l2 6l-9 7l-6 -11zM221 1163l4 4l6 13l-14 -11v-6h4z" />
<glyph unicode="X" horiz-adv-x="860" d="M813 70v-4l4 -35l-4 -15l-6 -6l-29 4l-47 -14l-69 -2l-31 4l-23 12l-30 37l-11 33l-4 4h-10l2 8l-6 17l4 16l-2 16l-8 17l-8 49l-7 4v10l-10 11l-4 16l-16 63l-19 64l-14 8v19l-10 26l-6 33l-11 8l-16 2l-8 -31l-35 -53l-10 -29l-4 -34l-11 -29l-12 -10l-6 -37l-8 -6 l4 -10h-4v-9l-11 2l-4 -4l9 -16v-16l-11 -37l-12 -13v-16l-16 -45l-7 -2l-2 -6h5l-7 -27l-16 -27l-25 -20h-32h-64h-65l2 6l-9 10l-12 7l12 2l-18 6l-2 8l8 43l8 6l-2 10l11 13l2 8l-7 4l13 6l4 33l4 2l22 63l21 23l10 37l15 65l6 6v33l10 10l2 13l27 57l6 29l8 4l-10 10v10 h8l-4 15l2 10l8 -10l4 6l2 16l4 6h11l-5 17l19 63l12 10l12 39l9 4l2 19h4v4l2 70l8 10l-8 20l-6 54l-15 -7l-6 -14l-20 47l-19 66l-18 24l-4 33l-13 31v39l-16 28l-12 11v4l-19 63l-22 62l-15 26l-8 2l-8 49l-10 29l12 6l2 10l-4 7l-20 6l-21 59l25 15l10 -5l14 11l35 4 l14 10l39 -16l58 2l30 -6l5 -13l10 -10l-4 -6h14l12 -47l-2 -13l-6 -4l14 -47l13 -24l8 -2v-15l10 -24l8 -49l13 -31l18 -62l19 -61l20 -27l8 2l15 15l14 30l12 11l4 34l6 5l7 14h8l-2 8l12 66h8l12 -9h9l-4 -20l2 -4h12l-4 -2l-2 -33h-8l2 -18l-9 4l7 -62l8 -12l24 8l6 -4 v-10l-6 -14l13 4l2 -13l8 2l4 9l-2 8h-10l10 4l-6 22l2 9l-15 10l2 14l-8 14v9l-4 2l6 4l6 -12l9 -5l6 7l-17 20l2 8l13 17l-8 10l-19 10l-6 14l8 29l-4 6l-16 -6l2 14l-6 9l-4 -4l-9 14l-12 10l6 23l8 2v20l11 29v14l14 6l6 25l12 -4l25 4l16 -6l25 14l-2 4l-12 -6l-7 2 l-4 19l4 6l-34 -8l-15 4l11 39h10l67 10l64 -8l31 8l12 -6l31 6l8 -21l6 -30l-4 -33l-10 -4l-11 -23l-14 -6l2 -8l8 -2l-6 -21l-27 -59l-26 -62l-10 -2l-19 11l-8 -11l8 -14h6l9 10l8 -16l-2 -16l-19 -60l-12 -10l-2 -23l-8 -6v-10l-11 -31l-18 -4l-2 -35l-14 -28l-2 -27 l-9 -8l-6 -43l-10 -19v-34h-10l4 -17l-19 -53l2 -16l13 -31v-14l16 -52h-6l12 -10l23 -67l24 -62l9 -65l12 -13l8 -2l8 -37l21 -61l14 -4v-15h10v-16h11l8 -55l-8 -2l8 -29l-8 -2l20 -18l10 -37l8 -2l-4 -15h9l-5 -6l13 -51l-2 -12l4 -4h10zM514 989l-2 -2l-10 -24l-2 -19 l4 -35l-10 -18l2 -21l14 2l14 -6l-2 15l6 28l15 2l6 15l-10 8l10 22v9l-19 18zM588 1292h4h45l2 8l12 11l-8 4l8 20l-2 25l6 14l-10 2l-14 -10l-4 4l10 10h10l-4 13l-16 2l-4 -21l-15 -24l-2 -19l-10 -2l6 -12l-10 -10zM729 1374l-2 4l-8 13l-8 -2l-19 -25l-6 -16l2 -15 l12 -12l33 6l6 8l-6 6l-4 15l12 2l13 12h10v19zM274 1159l-4 2l4 15l-10 14l-4 33h-22l-13 -4l2 -13l15 4l4 -2l-2 -10l4 -14l6 -4l-23 -35l9 -10l2 4l30 12zM190 1253l3 4l14 5h-14l-7 12v18l-12 4l-24 19l-9 -2l-12 -21l8 -10l6 14l43 -28v-11zM690 1341l2 5l23 22l10 2 l-14 -29l4 -10l-15 2zM666 176v-4l16 -18l8 -2l15 6l-25 20l12 2zM651 1423v-4v-20l19 4l-4 20h-15zM285 1135v-7l10 -10l14 4l4 8l-4 5v10l-12 -2l-4 -6zM119 1434v6l4 18h-31l-4 -4zM623 1106l2 2l6 10v17l-15 6v-31zM535 1028h-5l-12 -2l-4 -6v-16l16 -5l5 9l-9 2l-2 4z M631 1190v4l6 14h-25v-6l15 -4v-8h4zM637 264l2 4l8 8l-10 3l-2 -9l-12 -8v-12h8zM168 1341h-4l-8 9h-9v-13l5 -6l4 4l8 -2zM676 1468v-4l2 -4l18 2l15 6h-35zM373 1130v5v14h-15v-12l7 -7h8zM289 631h4l12 -17l8 -2l-12 23l-6 2zM690 123l4 -2l8 -2l13 8l-4 2l-2 12l-4 2 v-16h-11zM303 852h4h17l-7 12l-12 -2zM616 1219h5h10v14h-8zM274 518l2 -4l3 -14l10 -11l-4 17zM637 1253l4 -2l10 -8l4 4l-2 8l-12 2zM489 362h7l2 5l-6 6l-5 16zM553 930v-4v-6h6l4 14zM207 1409h4l10 -4v4l-10 10zM655 1067h4l3 4l-15 10v-14h8zM279 582l4 -2l4 -2l8 8 l-6 6zM496 1022l-2 -4l-9 -10l15 2l4 4z" />
<glyph unicode="Y" horiz-adv-x="907" d="M430 14l-2 -2l-18 -12l-45 4l-29 10l-2 47l-4 64l-2 68l-2 69v70l6 30l-4 13l-2 33l4 63l6 70l-10 47l-2 30l-13 27l-4 21l-10 63l-10 21l-8 4l-7 24l-10 6l-2 19l-12 22l4 15l-6 10l-8 2v12l-9 31l4 6l-14 33l4 14l-28 60h-5l5 8l-9 16l-6 27l-10 8l4 14l-10 13l-10 32 l-9 15l-10 33v16l12 -12l7 -13l-4 -10l28 -2l15 10l6 13l6 -2v10l-19 6l-2 8l25 6l4 -6l2 -20l4 -4l-2 -5l-16 -2l-2 -4l10 -28h10v-9h4l-6 -8l-16 -6l-11 -10l-10 14l-8 -6v-6l12 -19l-4 -4l19 4l-2 -6l14 -2l4 -6l21 33l8 31l18 -2l29 -13l-4 19l6 2l-4 8l-15 -2v16l21 8 l2 7l-4 8l-21 8l7 25l-3 8l-18 26v19l-10 63l-6 6l-6 -4l-7 4l9 35l-5 8l15 -10l35 12l34 3l2 -9h7l4 -30l20 -64l-2 -10l-6 -4l2 -4h6l-4 -11l19 -24v-8l-9 -6l-10 4l4 18l-4 2l-8 -6l-8 -14l-11 -33l-12 -21l2 -4l10 4l13 15l18 4l10 -4l15 10l6 -45l18 -68l-6 4l-14 29 l-8 2l-6 -14l6 -6l-25 -19v-8l-4 -2l8 -12l25 2l6 -49h33l-13 41l5 8l4 -2l10 -23l4 -49l12 -8l2 -17l21 -14h8l14 23l15 2l4 4l2 16l20 15l-2 8l-6 2l-2 8l14 10l4 19l-4 14l2 4l4 -2l11 20l8 33l31 15l8 39l-6 2l-23 -27l-2 6l-22 4l2 4l20 60l4 32l10 13l9 4v14l10 31 l22 18l-4 15l11 18l-3 10l-18 -18l-6 4l4 16l16 64l17 29l12 2l66 2h65l29 -21l-2 -8l-6 -2l-11 4l-4 6l-8 2l-2 -6l35 -18l6 4h10l-6 -27l-14 -12l4 -13l-4 -30h10l14 16l9 33l12 8l-10 -35l-27 -57l-6 -55l-6 -9l-6 -24l-13 -12l-6 -15l-14 -61l-23 2l-4 8l17 6l-3 6 l-18 17h-4l-6 12l-8 4l-7 -2l7 10v11l-17 -17l-4 -18l23 -21l6 -14h-10v-12l-9 -2v-9l15 -6l-4 -10l4 -8l6 -2l10 6l4 -4l-6 -10l-25 -21l-4 -65l4 -9l-8 -12l-16 -63l-14 -31l-11 -49l-14 -11l4 -8l-8 -35l-10 -10l-4 -33l-11 -2l-14 -53l-14 -26l-2 -17l-19 -59l4 -33 l-4 -16l4 -64l4 -57l2 -68l2 -71l-2 -68l-6 -64l6 -61l-8 -68l-37 -22h-10l-16 6l-11 10l-2 8l-10 -20h-53zM141 1204v2l-12 2l-4 -6l2 -4l-6 14l-4 35l-6 6l6 9l-15 24l2 21l-10 30l-4 35l-16 6l-8 37l-13 33l10 22l15 7l-10 -15l6 -6h14l12 10l6 17h50h63l14 -6l11 -15 l2 -10l-13 -63l-18 20l-4 -2l-2 -10l-6 -4h-35l-12 -7l-4 -14l-7 2l21 -53l18 -64l-12 -2l-12 7l-8 -9v-16l-7 -6l-10 -2l10 -19v-8l-4 -4l-4 2zM670 1321l-4 -4l-17 2l-4 -8l10 -6l4 -9l23 2l12 9l15 -9l4 -6l4 6l-8 13l14 20l-8 6l12 19l-2 6l-8 4v10l-17 21l-2 12l-20 4 l-14 -22l-5 -17l9 -2l6 -22h-25l4 -13l15 -8zM487 317l-2 5l-10 28l-14 4v19l16 14l-14 -2l-14 -8l-11 -12l-4 -13l21 -28l-11 -19l-10 -10l-14 22l-12 -6v-10l20 -12l2 -10l14 8l19 26l16 -6l6 -10l-2 -8l39 -15l2 -12l8 -2v21l-6 14l9 14l-9 15l-14 -23l-14 -6v12z M606 1184l-2 -4v-21l-4 -14h-4l20 -33l15 -10l14 18l-4 21l4 16v31l-6 6l-10 -18l-4 4l14 24l-4 13l2 40l-6 11l-4 -11v-16l-11 -14l-2 -25l7 -12zM367 877l6 -3l2 -6l-4 -16h4l10 10l2 -6h4l6 10l9 35h-15l-8 4l-23 39l-18 -4l2 -14l4 -70l6 -29l13 -28l4 4v28l-9 3l-6 12 l9 4l-3 24zM438 455v2l-6 4l-18 -2l2 -10l35 -5l32 7l-16 26h-14zM737 1307l-2 -4l-4 -13l2 -33h8l13 -8h6l2 4l-10 4v50l-4 -4zM762 1331l-2 2l-6 17l-6 -4l8 -9l2 -26l6 2l27 -17l4 17l-4 18h-29zM752 1366l-2 -6l4 -6h10l14 -6l2 -11l6 -4l19 -2l10 10l-4 2v7l-18 -4 l-9 10l-2 10h-30zM543 352l-4 -2l-9 -12l2 -6l11 -6l8 14l6 -2l4 39l-10 2l-6 -4zM854 1444h-4l-8 4l-6 14l-11 11l11 4l6 -2l10 -13zM522 211h4h6l15 14l-21 15l-4 -11v-18zM106 1405v4v4l-10 6v11l-20 -3l-4 -4zM385 535v-5v-22l6 -4l4 6v18zM473 88h4l15 10l2 8l-7 7 l-4 -13l-10 2v-14zM326 1149h6l24 10l-12 4l-14 -6zM375 846l2 -4l2 -11l6 -4l10 19h-20zM399 1077l4 -4v-8l-8 -12l-6 6zM381 993v-4l-2 -12l6 -8l6 14l-2 8zM811 1430h-4l-14 -13l4 -4l2 4l12 -4v17zM494 35h8h4l6 20h-6zM410 367l-4 2l-13 2l-8 -4l21 -9zM342 788l2 -2 l16 -14l7 6l-21 15zM287 1448v-4v-10h-15l7 14h8zM150 1296v-4v-12l6 -4l4 2v8zM551 535v4l-2 12l-6 2l2 -14zM307 1135l2 4l8 10h-14v-12zM219 1184h4l4 -2l2 -13l-10 5v10zM713 1061h4h4l2 -14l-10 6v8zM166 1409l-2 2l-12 8l-2 -6l12 -8zM195 1135v-5v-4h10v9h-10z" />
<glyph unicode="Z" horiz-adv-x="854" d="M731 8l-2 -4v-4l-12 -4h-68l-28 6l-7 6l-22 -10l-25 -2l-69 2l-25 -6l-65 14l-68 2l-66 -6l-61 -4l-33 4l-65 -2l-29 12l-8 60l-2 67l14 -4l6 -14l6 2l19 -19l4 5l-4 10l-15 10l5 6l-9 8l-16 7l2 6l8 4h19l-2 6l4 6l-8 10l-13 6v9l13 30l12 11l-2 4l6 14l10 10l-4 10 l6 19l25 57l8 37l12 8l2 9l11 12l-2 8l4 20l20 64l10 14l11 31l10 14l4 25l10 14l17 51l22 62l12 12l6 15l7 4l8 47l22 49l6 31l15 22l10 31l12 10l2 21l23 57l-2 10l12 53h8l4 21l5 4h8l18 49l6 4l2 15l7 6l6 57l-15 16l-6 -6l-10 11l-12 2l-60 12h-33l-67 -6l-66 -8l-28 8 l-8 12l-13 8l-4 -2l-8 -20l-8 -2l-13 4l-10 10l-10 22l-6 37v27v70l4 12l6 4l6 16l6 7l33 6h66l65 -4l60 4l67 -9l66 9l63 -9l66 5l8 -5v9l61 4l68 -13l4 -30h10l6 -64l-14 -6l-6 4l-10 -2l2 -8l16 -2l6 -12l-14 -17l8 -20l-12 -49l-8 -7l-2 -22l-15 -16l-14 -25v-23 l-10 -10l4 -14l-15 -25l-20 -63l-12 -12l-19 -54l-4 -28l-10 -13l-6 -16l-25 -59l-22 -60l-9 -2v-10l-10 -33l-28 -45v-39l-7 -6l2 -4l-4 -4l2 -10h-4l-10 -11v-16l-12 -21l-2 -12l-4 -4l-6 -35l-7 -6l-4 -22l-14 -17l-21 -55l-10 -14l-6 -31l-12 -4l-2 -19l-13 -28v-11 l-18 -34v-9l-4 -4l-12 8l-7 -2l-18 -24l-18 -2l10 -8l35 4l-17 -60l2 -4l15 2v-12h61l64 2l69 -4l66 6h61l64 -14l12 -49l4 -70l-6 -68h-8l-10 -8h-17zM453 1362v6v21l-11 26l-18 2l-64 4h-69h-58l3 -26l18 -27l4 -16l16 -6l2 -9h29l10 6h-4l-14 29l-12 -12l-9 2l5 8l16 6 l8 -4l19 -26l12 -9h10l8 21h25l-2 -8l-12 -7l10 -4l67 -2l2 6l-16 7v8l14 -2zM530 1010l2 -4l17 -17l2 -8l-12 4l-11 10l-6 -4l8 -43l-4 -16l13 4l4 14l24 64l25 61l22 62l-10 8l-18 -8l-6 24l-21 19l-8 2l-21 -60h11l6 -14h-15l-6 -4l11 -8l4 -17l-9 -10l5 -35zM541 1421 l2 -4l4 -26l-6 -15l32 8l15 -8l2 -18l-4 -6l4 -4h-10l-19 -15l-14 -6l14 -8l-6 -16l10 -43l10 -11l7 2l6 52l6 6h6l16 -15h9v29l-25 4l-10 10v11l16 2l6 -7v-8l6 -4h17l8 -4l-4 31h12l8 4l3 27l12 26l-31 8l-8 -12l-10 10l-13 -20l-2 -10l15 10l4 -35l-8 -4l-15 2l-6 6 l-6 16l8 3l2 8l-20 8l-4 6l4 8l-11 6l-10 19l-8 2l-4 -6l20 -19l-16 -10zM385 727v-6l-18 -8l-2 -6l10 -11v-14l10 -4l-4 -19l4 -6l10 4l-4 5l19 6v6l-19 14l-2 8l10 15h9l12 -9v-18l-6 -12l14 2l12 12l-6 25l10 10l-8 18l2 21l15 6l12 16l-6 2l-6 -4h-11l-6 13l-20 -5 l-17 3l-20 -46l8 -4l23 4v-4l10 -10l-2 -8l-15 -6zM258 287l4 2l14 8l21 22l-6 3v20l-4 8l-11 -2l-14 -18h-10l-14 6l4 16l8 2l16 -4l8 10l-12 23l17 10l8 15l-29 2l-6 4l-19 -39l-20 -64l14 -14l9 2l12 16h10l6 -6l2 -10zM379 537l2 4l22 53l21 63l-8 5l-6 -5l4 -6l-17 -2 l-4 -4l2 -16l-20 -11v-34l-4 -11l4 -14l-10 -8l6 -4l2 -8zM639 121l-2 2l-2 6l4 14l-39 2l-6 5l-2 -17l-37 -12l2 8l-4 8l-16 2l-7 -6l2 -6l15 2l4 -8l14 -6l2 -9l8 -2l15 7l10 10h10l-6 -10v-11l21 -4v6zM551 80l4 4h-12l8 12l-41 10l-12 -10l12 -2l2 -8l-12 4l-6 -2l-7 -8 l-2 4l9 16l-7 4l-10 -12l-10 -2l-10 19l-8 2l-7 -21l9 -6l2 -8l10 -4h31l28 6l15 -2l4 4h10zM438 897v-6l-2 -12l-8 -11l18 -2l7 6l6 -8l-6 -6l-4 -16l4 -33l20 8l19 2v29l-5 4l-12 -2l-8 4l4 12l-6 13zM291 418h6l10 -12l8 -3l9 15l8 33l8 12h-23l-8 -4l-4 -17zM283 487 l-4 -4l8 -12l4 -16l6 -6l10 16l8 2l-4 29l4 16l-12 -6l2 -19l-12 -6zM459 952v-6l-17 -35l7 -4l14 11h10l4 24h-8zM629 1167v4l14 39h-10l-8 11l-2 -15l6 -20l-17 -21l-2 -8l4 -6v10zM219 90l2 2l15 17v16l-9 4l-16 -27zM360 1397l2 2l3 16h24l-4 -10l-14 -8h-11zM170 1372 l-2 6l12 23h-8l-8 -15zM371 672l-2 -2l-4 -8l2 -17l8 -2l4 4l-8 15v10zM340 537l-4 -2l-21 -19l7 -4h10l-2 10l8 6zM199 96v-4l10 -18l6 -2l4 4l-8 2l-2 8zM227 193h6l5 2l6 14h-17v-16zM571 72l4 2l5 12l-23 -2zM248 1415l4 2l4 -2v-14h-8v14zM438 844v6l-14 14l2 -10z M575 1313h3l2 -8l-9 -7h-6z" />
<glyph unicode="[" horiz-adv-x="591" d="M477 -188v-5l-14 -34l-31 -11h-33l-65 11l-66 -6l-63 6l-64 -4l-32 6l-17 26l-4 33l-6 64l-4 63l2 70l8 65v66l-2 63l4 66l-4 63l2 62v65l-8 35l10 64l-4 65l4 64l-4 63l4 66l-4 63l-10 31l2 6l8 59v68l-4 70l-6 65l4 31l2 65l8 66l-2 65l-2 66l4 63l-6 64l2 27l6 4l2 24 l17 29l59 4h66h63l66 6l30 -2l33 -8v4l39 -14l-4 -11l8 -8l4 -39l-10 -65l-12 -8l-29 -9l-68 -4l-65 2l4 -4l-19 -12v-4h-4v-21l-12 -55l6 -20l2 -62l-2 -65l-4 -68v-67l6 -31l-4 -17v-59l2 -72l-2 -63l2 -66v-61v-64l-2 -59l2 -68l-4 -69l12 -64l2 -30l-10 -62l2 -35 l-4 -32l2 -62l-2 -59l2 -74l-2 -66v-63l6 -66l4 -2l48 -8l69 2l62 -4l12 -10l6 -19l10 -65zM188 492v4v36l5 9l-15 8h-10v-4l-8 -2l-2 -23h-15v-37l-4 -6l6 -2l7 12l10 -6l-2 -18l8 -6zM150 1606v-7v-32l26 2l27 12v18l8 31l-4 10l-6 -2l-17 11l-6 -4l-2 -11l12 -28l-4 -4 l4 -15l-18 -6l-6 6h-6l2 17l-6 4zM213 12v4v43l8 11l-4 6h-14l2 -19l-10 -10l-17 -6v-21l-20 -22l4 -2l2 -8l16 -2l13 -9l2 7l-17 14v4l10 -4l5 4l-5 10h25zM125 629l-4 -2h-4l-17 -19l4 -2v-8l31 -4l17 22l6 23v37h-4l-9 16l-6 -6h4v-57h-8l-2 -17h-4zM139 1309l-2 -4 l-33 -27l17 -41l8 -2v16l16 25l13 -2l6 24l-14 11h-11zM154 1186l4 2l4 10l-4 6l20 17l-10 12v10l-23 6l-6 -6l4 -12v-33zM143 893h7l8 -4l16 -27l16 8l-2 17l-14 -4l-16 39l-11 2l-4 6l-4 -4l6 -8zM143 213l4 -2l11 8l2 8l-17 17l-14 8v-10l6 -15l-24 -24h-11l11 -8l18 -2 l10 34l11 -10zM154 936v4l-2 25h-9v-23l4 -6h7zM154 735v-4l-11 -14v-10h4l7 14v14zM129 559v4l-4 10l-10 -14h14z" />
<glyph unicode="\" horiz-adv-x="538" d="M506 -143h-4l-33 4l-16 -4l-17 14l-2 8l-12 2l-6 23l-8 2l-2 41l-17 63l-12 64l-23 63l-4 33l-8 29l-16 69l4 15l-13 26l-8 2l-4 35l-10 25v8l10 10l-2 4l-14 4l-2 27l-6 6l10 4h14v4h-24l-11 33l-18 66l-14 59l8 -6l8 2l4 22l-6 2l-19 -12l-6 2l-6 33l-14 31v22l6 17 l-6 4l-10 32l-9 3l5 10l-7 18l-16 64l-16 63l10 -2l-4 -14l8 -2l12 16l8 2l5 6l-9 9l-26 -3l-4 -6l-4 33l-7 6l-4 25l-10 8l-2 16l-12 29l-11 68l-10 30l-10 11l-4 12l-12 70l-13 28l11 2l24 -16l6 6l-6 14h8l2 4l-6 7h-24v8l-9 -2l-16 8l10 37l11 12l-5 4h-10l4 6v19 l-16 -4l-2 8h4v-4l6 6l-10 12l-10 39l-11 10l4 13l-2 8l-16 18l-8 39l-17 60v38l11 15l10 -4v10l22 6l35 -2l33 -12l23 -17l6 -14l2 -18l10 -31l-8 -10l-4 -39l4 -35l-2 -33l10 14h10l-2 -18l-12 -6l-6 4l2 -35l4 -4l10 6v15l4 8l11 6l14 -6l16 -31l2 -35l8 -31l-2 -16 l-14 -2l-18 -8l-17 6l-2 18l-8 2v-24l-10 -10l4 -11h6l-2 -8l-6 -2l-2 -8l6 -4l47 -2l6 6l-26 4l-2 10h12l20 15l15 -4v-9l-15 -2v-6l11 -8l-3 -6l7 -4v-6l18 -11l6 2l-8 -8l-14 -6l-11 -10l7 -14l18 -25v-10l18 4l-10 -4v-11l21 -4l2 -8l8 -2l6 -49l6 -6l8 -49l13 -64 l16 -33h-6l10 -14l2 -33l12 -30l5 -31l6 -8l4 -21l10 -10l-2 -4l10 -55l13 -13l8 -41l-4 -12l12 -39l8 -2l6 -31l-6 -8l14 -14l-2 -21l13 -47l18 -65l17 -62l8 -4l6 -31l10 -67l12 -31l13 -51l18 -64l16 -63l15 -29l8 -57l10 -33l4 -31l-4 -4l-16 4l6 -20zM182 1030v6l11 11 v8l-17 18l-8 2l-4 -28l8 -15zM188 874l2 -4l9 -6l16 -4l12 -10l-2 14l-12 10l-2 19l-4 6zM242 811l-4 2v25l-7 12l-2 -4h-8l2 -15l-6 -10l10 -4l9 -12zM125 1456v4l2 8l16 2l7 -10zM213 1217l-4 2l-8 10l-4 16l8 -6l8 -14v-8zM217 1182l2 4l6 -2l6 -27l-8 4zM231 664l-4 -5 v-8l17 -14l-6 6l2 16zM178 1206l2 -2l15 8l2 9l-17 -7zM334 301l2 4l4 6l-14 6v-16h8zM158 1368v-4v-6h10v10h-10zM231 797h-4l-8 -2l-2 -9h4z" />
<glyph unicode="]" horiz-adv-x="591" d="M481 -225l-4 -2l-35 -4l-67 4l-74 -2l-74 -2l-61 4l-25 6l-8 8l-4 16l-8 13l-2 12l4 70l22 20l17 4l4 -4l-2 -6l-8 -6l-4 -10l6 -23l35 35l-9 4l9 12l10 2l-10 -4l4 -41l-11 -4l25 -16l-2 -6l-6 -2l-4 -9l-13 19l-2 -10l6 -13l17 -6h18l6 25l-2 30l7 15l8 4l6 14l39 2 l22 13l6 12l7 31v71v62l24 -25l-4 -12l2 -8l12 -11l11 6l4 -4l-2 -8l-6 2v-10l18 -20l8 -3l10 15v8l-6 2v18l6 7l-14 18l-29 21l-6 12l2 16l-14 -4l-2 -16l-4 4l2 10l12 12v13l-8 -2l-10 -21l-6 21l6 65v64v65v64l4 63l-4 29l6 69l-6 56l4 61l-6 66l6 63l-4 66l-2 63v66v67 l-4 64l-2 63l2 68l-2 70v63l12 61l-6 64l-6 6l-29 12l-33 4l-65 -6l-33 4l-4 7l-21 4l-4 14h-10l-4 25v34l6 35l10 27l21 10l32 2h58l67 -2l70 4l66 4l14 -6h18v-8l8 -2l11 -21l8 -57l2 -72l-6 -63l4 -64l-4 -67l4 -31l-2 -63l2 -64l2 -65l4 -68l-6 -63l4 -33v-64v-65l2 -64 l-6 -63l6 -37l-8 -64l6 -63l-2 -68l-6 -63l4 -31l2 -67l-4 -66l2 -61l-4 -66l6 -66l-4 -47l4 -63l-8 -14l4 -17l-45 -6l24 -8l7 -43l18 -2l4 -4l-2 -11l-6 -63zM387 1018h6l15 4l10 10h-8l-4 6l2 13h-21l4 -15l-8 -8l4 -2v-8zM422 1067v4l-2 29l-12 6l2 -10l-4 -6h-5l7 -13z M397 987l2 6l-2 8l-10 11l-4 -4l4 -2l2 -17zM369 88v-4l-4 -2l-13 6l2 4zM217 -117l-2 -4l-12 -6l6 8z" />
<glyph unicode="^" horiz-adv-x="1150" d="M1010 709v-4l4 -52l-13 -18h-8l-63 -4h-66l-10 -6l-6 8l-23 2l-26 33l-13 28l-6 33l-14 29h4l-4 18l-16 17l-23 53v14l-10 4l-12 47l-15 33l-20 25l-2 8l-6 63l-31 45l-23 60l-18 29l-41 -19l-21 -43l-16 -18v-19l-10 -10l4 -14l-12 -7l-17 -47l6 -8l-6 -6l-12 -33 l-6 -32l-8 -7l-5 -20l-12 -12l-8 -23l-12 -10l-15 -27l-2 -24l-22 -62v-24l-8 -13l-33 -55l-15 -8l-14 2l-69 -4l-31 4l-33 -6l-16 2l-15 8l-12 20l14 33l11 6l20 -10l4 2l-8 6l-2 9l2 47l12 32l31 60l33 59l10 47l29 60l4 16l-2 14l22 29l6 31l19 16l16 62l10 14l5 16 l14 29l-4 4l18 29l4 16l13 8v11l8 14l24 59l11 4l6 39l14 31l39 16l68 2l63 11l23 -13l18 -24l29 -62v-8l12 -16l10 -33l15 -29l12 -10l-4 -10l12 -25v-14l10 -20l8 -33l35 -56l19 -59l20 -29l21 -55l24 -65l35 -56l-4 -14l2 -6l23 -62l12 -10l22 -53zM614 1294l2 4l-2 27 h-10l-14 -6l-4 -14zM649 1255h4l15 13l6 -2v6l-8 12l-23 -4zM551 1280v4l4 21l-18 4v-19zM604 1403l2 -2l-6 -17l10 -6l4 23l-4 6zM737 1094v4v12l-16 -2l-4 -4l6 -4v4h4l2 -8zM492 1343h6l8 15h-8z" />
<glyph unicode="_" horiz-adv-x="841" d="M606 -283l-4 -2l-20 2l-47 -8l-68 4h-66l-63 4l-66 -6l-65 2l-64 -6l-24 6h-70l-29 8l-2 9l-8 6v20l-8 6l-6 15v16l22 45l7 2l65 10l31 -6l65 11l31 -11l49 4l31 -4l12 -10l15 10l34 2l62 -4l65 4l68 -2h68h57h65l70 6l-2 -6l14 -6l11 -10l8 -31v-33l-8 -32l-33 -17 l-64 2l-69 -6l-33 6l2 11l6 -11l4 2l2 9l-6 18l-27 4l-2 6l5 6l-3 9l-28 -21l4 -12l14 8l4 -4l-2 -18zM240 -258v4l10 16l-8 -2l-9 -14z" />
<glyph unicode="`" horiz-adv-x="368" d="M262 1663v-4l4 -17l-6 -26l-20 -14l-15 -3v13l-12 10l-10 23l-6 -3l-2 -16l10 -12h4l8 -15l-47 5l-29 14l-16 20l-8 2l-4 15l-13 14l-37 53l-18 13l-8 22l-17 15l-16 32l-12 6v11l-15 4v10l-10 10l-4 19l2 6l25 18l51 10l33 -2l67 -4l13 -4l22 -20l17 -27l10 -35l-35 -16 l2 -10l16 6l7 -23l-15 -2v-8l-4 -2l-2 -29l-4 -4h-8l4 -4h18l2 23l6 -2l11 4l4 6l8 2l4 -4h10l6 -19l17 -28zM217 1772l4 -3l6 -12l-2 -4l-8 8v11z" />
<glyph unicode="a" horiz-adv-x="886" d="M827 129v-2l2 -10l13 -68l-4 -33l-21 -14l-29 -10l-30 2l-31 8l-37 4l-14 -4l-55 8l-13 21l-18 61l-2 66l-15 35l-2 67l-10 33l-16 2l-45 20h-33l-66 -6l-34 4l-31 -2l-12 -10l-5 -16l-16 -29l6 -25l-4 -28l-18 -39v-33l-6 -65l-11 -33l-14 -27l-12 -6l-31 -2l-70 4h-63 l-8 10l-4 25l-13 8l8 41l13 66l-4 14l2 6l4 66l10 57l8 12v19l13 8l4 39l-4 33l6 24l10 6l-2 10l6 7l-2 16l6 66l4 6l-4 14l12 39l2 35l9 65l18 64l2 35l8 63l15 31l8 28l-6 11l4 20l-4 10l20 -16l8 4l9 25l12 12l-8 12l-21 -8l-4 4l8 8l-4 7h10l15 6l-21 18l2 4l6 66l17 53 l-4 31l14 47l-4 8l10 35l4 35l9 65l6 8l-2 25l4 18l16 29l21 25l49 2l63 4l66 -10l63 -3l6 -4l9 -14l24 -51l8 -66l6 -65l19 -64l-2 -30l16 -64l11 -63l10 -64l12 -65l12 -66l15 -31l2 -16l2 -64l6 -12l4 -31l10 -32l-8 -27l4 -33l12 -10l2 -14l11 -23l2 -31l10 -63l-4 -35 h4v-20l10 -9l4 -24l6 -6v-29l11 -63l6 -68l14 -57l8 -11v-16zM520 618v5l-6 47l-12 65l-8 68l4 35l-25 57l-2 61l-14 64h-11l-6 4v-4l-8 -6l4 -4l-4 -25h-10v-18l-8 -11l-6 -24l2 -49l-9 -15l-6 -32l-2 -66l-12 -29l-4 -32l-4 -66l-15 -53v-33l11 -33l37 -8l73 -2l31 4l10 6 v21l-6 24l6 31l-6 12zM246 217l2 4l2 15l-6 14l-8 2l-7 -12h-14l-8 -13l6 -4zM506 1243h4l14 14l4 17h-14v-8l-8 -15v-8zM260 731l4 2l4 8l-10 13l-8 -4l6 -2v-17h4zM260 770l2 2l2 4l-14 19l2 -15zM231 932v-4v-6l11 -7l-4 15zM500 1200v-4v-6h10v10h-10zM528 1405v-2v-8 l11 2v4zM528 1395l-2 -2l-2 -4l4 -3v9z" />
<glyph unicode="b" horiz-adv-x="917" d="M858 416v-4l-6 -62l6 -16l-12 -23l-2 -51l-8 -67l-9 -27l-12 -12l-20 -41l-19 -19l-45 -43l-12 -4l-55 -31l-35 -2l-27 -6l-67 -10l-70 -4h-64l-65 4l-64 2h-65l-64 8l-6 6l-10 52v65l2 72l-4 63l4 64l-2 65l-6 66l-2 65l6 64l-6 63l4 64l4 65v66l-2 65l-6 66l8 65v66v66 v65l-2 64l4 65l4 66l10 30l45 15l5 -4l10 4l33 -2l30 8l49 -10l33 -2l33 4l61 8l68 -8l65 -4l27 -9l19 4l20 -2l2 -12l29 -4l18 -12l31 -13l4 -10l16 -4l15 -20l12 -9l23 -41l-9 -10l-4 -28l-8 -9h29l10 -14l2 -12l2 4l10 -33l8 -65l15 -64v-68l-6 -67l-17 -59l-24 -62 l-15 -10l-4 -15l-6 -6l-49 -41l-2 -16l10 -33l27 -12l31 -35l43 -53l4 -21l14 -67v-64zM623 338l2 4l-4 29l-7 63v68l-6 16l6 14l-10 5l4 10l-6 4l2 10l-8 12l2 13l-4 16l-4 2l-45 45l-47 8l-66 9l-43 -21l-14 -2l-8 -14l2 -23v-69v-70v-57l-2 -64l2 -65l4 -66l12 -8l18 -2 l7 -10l36 -2l33 10l68 6l26 16l21 29l8 20zM516 1266l-4 2l-61 10l-33 -4l-31 -10l-12 -27l-10 -66l-7 -65l7 -31l6 -65v-66l8 -63l8 -7l-8 -4l6 -4l8 4l21 -4v-8l4 -4l33 -4h65l27 18l12 2l31 50l24 63l2 14l-4 15l4 14l-8 49v64l-16 63l-15 31l-26 20zM315 1305l4 4l5 8 l-9 22l33 15l8 -4h33l-6 28l14 15l11 30h-15l-6 -10l-14 -4l6 -25l-2 -6l-8 -4l-11 10l-4 15l-20 10l-2 14h-10l-3 -20l-38 -10l-15 30h-45l-14 -10l-10 4v-16l6 -15l37 -28l2 -8l22 -2l12 6l-4 2l-2 8l19 2l12 8l-2 -6l10 -20v-9h-4l-10 -10l20 -4l4 -4l-10 -14zM530 1417 v-4l-2 -8l-8 -2l10 -53l11 -11l6 2l8 15l-6 22h16l-2 15l-8 12v8h-18zM768 1057v4v33l-8 26l-10 -14h-9l-2 -10l6 -31l-8 -4l21 -14zM354 993h4h4l3 8h-5l-20 25l-6 -4l6 -14l4 -35l-12 -2l-6 -13l10 -6l22 17zM565 768l2 4l2 6l-10 15l19 2l2 6l-7 16h-6l-26 -16l10 -6 l-6 -23zM745 547l3 -2l20 -8l6 6l-18 53zM758 993v4l-2 9l-13 12l-8 -2l-2 -47l19 12l-4 6zM520 92l4 2v23h-14l2 -25h8zM182 944l2 2l4 17l-6 6l-6 -2zM348 1423v-4l4 -8l8 -4l5 6z" />
<glyph unicode="c" horiz-adv-x="892" d="M690 51l-2 -2l-20 -16l-52 -33l-45 -8l-63 -17l-29 -2l-33 4l-65 5l-4 6l-12 -6h-13l-30 8l-5 8l-12 2l-45 23l-24 18l-54 37l-4 12l-12 10l-6 17l-15 6l-16 27h-6l-4 22l-10 14l4 7l-15 34l-12 66l-6 67l-2 60l-2 74l4 57l14 4l-4 -6l-2 -19l8 -6l10 8h7l24 -32l4 12 l-6 53l-12 13v4l10 6l-2 10l-14 10l-8 -12l8 -31l-15 8l-26 -8l8 70l-6 31l8 61l-2 64l-4 67l-2 66l6 63l-4 6l-2 49l6 66l-2 61l6 66l10 8v17h11l4 24l8 12l10 29l19 31l45 49l16 25l53 22v8l12 -2l9 10l12 7l6 8l25 2l61 16l66 -2h69l62 -4l2 -4l49 -23l10 -12l58 -37 l4 -8h10l6 -16l8 -4l12 -33l19 -17l20 -59l7 -6l10 -25l4 -30l4 -74l8 -66l-12 -65l-2 -66l-8 -2l-13 -10l-41 -8l-36 2l-64 4l-35 -4l-14 6l-4 6l-2 31l-4 10l-7 4l-4 58l4 36l7 66l-11 27l-18 67l-12 6l-23 23v6l-41 14l-18 -4h-33l-4 -4l-8 4l-8 -12l-5 8l-4 -2v-14 l-35 -8l-6 -13v-8l-6 8l6 15l6 2l-14 20l-6 -2l-2 -8l8 -14l-31 14l9 -31l16 -22l-8 -17l-6 -30l-4 -62l4 -68l2 -67l-2 -66l-23 -18l-2 -10l4 -4l10 8l7 -8l4 4l6 -11l-17 -53l11 -65l-2 -17l-2 2l-5 -6l5 -16l-7 -12l-12 -11l-2 -8l4 -6l17 -6l6 -15l-6 -63l8 -64v-32 l-4 -62l-2 -59l8 -70l-2 -18l-15 -15l17 -2l22 -41l23 -24l27 -12l14 -2l2 -7l4 2l63 5l23 14l20 24l25 19v4l10 10l6 60v67l9 64l-11 18l2 35l11 20l-6 5l24 22l35 12l59 -4h70l33 -4l6 -6l2 -25l8 -14l2 -14l-6 -66l-2 -65v-68l-12 -61l2 -29l-25 -61l-10 -9l-25 -43 l-20 6l-10 -2l-4 -6l-15 -6l-6 2v-6l16 -12l15 8l4 -4l-17 -23zM690 471l2 -4l-6 -39l-14 -29l-6 -34l10 -3l18 11l4 -4l-4 -15l15 6l-4 23l12 10l6 15l10 10h10v43h25l2 20l-6 15l-10 4l-15 -8h-10l-10 8l4 2l4 14l-8 4l-8 -41l4 -8l-27 4zM303 1450v-4v-16h8l15 8l8 12 v-10l24 -17l4 -8l-4 -18l4 -6l15 6l12 12l19 10l-9 11h-18l-4 10h-10v10l-9 2zM719 246l2 4l4 31h-14l-21 -15l-6 -14l14 -23l4 -18l-4 -8l-12 -6l-2 -9l18 15zM254 1366l4 2l16 8l7 23l10 10l-6 2l-25 -16l-20 -23v-20l4 -2zM670 1337l-2 -4v-26l6 -7l16 -2v23l-12 14z M309 1376l-2 -2l-4 -18l6 -15l10 2l9 19l10 -4l4 8zM215 1102l-2 -4l-4 -8v-15l-12 -12h8l14 12l4 17zM94 1112h4h4l11 10l-2 13l-13 6l-6 -23zM246 1010h4h4l6 14l-6 14v-4l-10 6l-4 -6l8 -10zM725 530l-4 2h-19l-4 -12l2 -4l15 2zM141 213h6l7 2l4 8l-11 8l-6 -10v-8z M205 150l4 -3l16 -14l-2 12l-10 9h-6zM651 1341l-2 -2l-2 -4l4 -10l11 -2l-5 14zM578 1419l-7 2l-10 2l-4 -8l14 -2zM279 1444l2 -6l-7 -19l5 -4l4 6l2 19zM176 125v-6l6 -6h8v10v-2zM279 238h4h10l-4 8h-10v-8z" />
<glyph unicode="d" horiz-adv-x="942" d="M510 0h-2h-33l-67 2h-70l-64 -4l-47 6l-32 -4l-33 4v-4l-10 6l-19 4l-4 64v67l-10 64l10 47l-4 59l-2 72l4 66l-8 61l6 55l8 2l-10 15l-2 32l14 60l-2 20l-4 4l-4 25l-2 65v64l2 70l-4 61l-2 70l-4 67l2 62l6 69l6 64l14 -19l-2 7l6 20h-8l-2 18l-10 9l10 10h-6l-2 4 l-4 68l8 26l25 23h55h63l60 -4l70 -2h69l64 6l14 -8l33 -3l30 -14h13l26 -10l60 -27l22 -24l29 -13l10 -12l8 -2l-2 -10l15 -8l2 -9l-6 -2l8 -8l26 -59l-12 -8l-6 8l-4 -8l2 -7l29 -14l6 -14l6 -33l8 -12l-4 -10l4 -25l-2 -29l4 -35l8 -14l-2 -33l-2 -63l-6 -66l8 -28l2 -33 v-60v-73l-10 -31v-49h-8l-2 -19l-4 -6h-8l2 -12l12 -12l14 -4v-45l-2 -66v-61l4 -56l-8 2l-8 25l8 14l-8 29l4 10l-8 -2l4 8l-10 9l-9 -7l9 -24l-7 -15l7 -16l-4 -20l14 -5l8 -10l-4 -6l8 -12l2 -12l-10 -33l-10 -64l-8 -14v-16l-13 -7l2 -12l-4 -4l-20 4l4 -10l-2 -6l-8 -4 l2 -9l6 -2l2 -8l-10 -8l-43 -47l-23 -12l-22 -25l-33 -10l-6 -6l-25 -4l-6 -9l-53 -10zM436 1272h-6l-57 -10l-2 -17l-9 -63v-64v-67v-68v-63l7 -31l-4 -33l-3 -63v-66v-65v-64l3 -68l4 -61l-7 -25l7 -65l-4 -68v-61l12 -31l63 -18h60l2 10h26l31 16l14 2l5 13l12 10l16 47 v23h-4l6 14l2 33l11 67v37l-5 10l7 15l4 65l-11 64l-2 63v66l2 65l-6 70l4 29l7 6l-5 12l7 20l-2 31l-5 68l5 69l-5 29l-12 33h-4l-6 29l-12 12l-29 14l-18 19l-66 14zM774 920l-4 2l-6 8h-10l-11 -31l7 -12l-5 -31l15 -8l8 -10l6 -17l-16 -6l-10 -10l-7 -14l-2 -19h17l16 8 l6 -8l4 8l-4 56h6l11 8l-7 33l7 12zM682 1120l2 -6v-16l-12 -27l6 -4l10 -57l12 -27v4l25 2l-8 19l4 32l-6 7l-21 8l-4 6l8 -2l7 4l-3 6l9 -4l-15 27v8l21 30l8 5l-4 18l10 2v16l-14 9l-6 -2l6 -23l-2 -10l-8 4l4 -21l-19 -12zM700 1350h-4h-4l-14 14l-6 -4l18 -33l10 -31 l-4 -34l33 -25l-4 -4l4 -12l6 -4l-6 -9l10 -20v10l4 6l27 13l-22 22l-19 27l4 8l-2 14l-24 25zM754 233l2 5l2 4l16 61l-14 -6l-10 -23l-15 -6l-6 11h10l6 14l-10 20h-10l-12 -12l-13 -27l11 -16v2l14 -20l4 4h10zM236 705l-3 -5l-8 -8v-8l6 -4v-10l19 8l8 12l2 19l25 18 l10 2l2 27l-4 10l-8 2l-4 -6h-11l-12 -27l-16 -6zM578 1321l2 4l2 4l-11 14l-2 11h-24l6 -21l10 -8zM784 694v-4l-8 -8l-16 -2l-10 -10v-11l26 3l2 18h10zM305 924h4l4 10l-18 -4v8l-6 6l-6 -2l-2 -33h6zM793 508v4l2 35l-7 10l-14 -29l6 -4l4 -14zM295 1233h-4h-17l7 -29 l8 -2l6 4v27zM539 1384v-4l-11 -12l19 -2l12 -6l-6 18zM172 621v4v10l-20 -6l-9 -13zM295 817v4l-2 35l-4 4l-4 -22l4 -15zM147 592v4v14l-10 -4l-6 -16l2 -12l8 18zM770 180v-4v-4l6 -4l17 -2v8l-7 4zM725 170l2 4l2 12l-8 15l-2 -19z" />
<glyph unicode="e" horiz-adv-x="854" d="M739 6h-2l-47 -8l-57 8h-68l-71 -4l-66 -2l-63 6l-70 -6l-59 -8l-15 4l-14 -4l-23 10l-32 8l-2 8l-13 2v15h-10v14l-10 21l6 47l-4 33l4 32l6 2l12 -12l15 8l10 13l8 -3l6 -10l10 2l-2 17l-12 10h-14l-29 16h-16v25v65l4 4h10l6 5l-2 8l-16 2l-2 20l6 66l-6 65l4 58v67 v70l4 63l-2 66l-2 65l-2 66l2 66l4 61l-2 68l8 -15l2 -39l14 21l-10 14v21l15 16l-7 16l-12 -2l-8 -6l-2 -6l-4 2l4 10l2 74l8 -8v10l-10 10l2 9l12 2l-2 8l-12 10l-4 16l4 66l-4 16v33l10 31l16 26l13 9h61l64 -4l63 8l35 -6l20 -23l5 2l-9 21l9 2h65l66 -2h65l60 6l32 -4 l15 4l36 -13l17 -32l2 -17l2 -67l-8 -13l6 -30l-8 -2l-8 -23l-21 -8l2 -6l-61 -4h-66l-70 -2l-71 2l-62 -4l-24 -9l-6 -28l-7 -68l9 -31l2 -32l-6 -33l2 -66l-4 -65l2 -31l14 -31l14 -4h33l64 -2l65 8l16 -2l21 -8l31 4l16 -6l2 -24l16 -29l-6 -51l-8 -64l-8 -20l-33 -10 h-33h-67l-29 6h-33l-65 -13l-8 -20l-7 -35l3 -33l8 -22l-6 -15l-5 -30l5 -13l-5 -32l7 -68l4 -63l-17 -64l9 -14l2 -15l20 -8l59 -8h68l70 2l67 -8l8 14l27 -6l45 2l33 -22l12 -39l4 -80l-4 -27l-8 4l4 -20l-8 -25zM381 129v6v27l-23 4l-6 10l-2 19l-12 6l-25 -35l-4 -19 l15 -6l24 6l6 -2l17 -16h10zM180 965v4l17 24l-4 2l-7 15l-6 4l-4 -6l-24 -4l-11 -29l13 -10l10 -29l16 -6l-8 37l4 8zM612 74h4l31 2l29 8l-14 2l-11 12l-14 29l-10 10l-9 -8l-2 -29l5 -6l-7 -4zM725 123v-4l4 -21h19l6 -4l-6 21l-11 12l6 -14h-10zM260 84h4l6 2l4 18 l-12 -4zM172 999l2 -2l2 -14h-14v6zM725 80l4 -2l4 2v12l-8 2v-14z" />
<glyph unicode="f" horiz-adv-x="847" d="M586 657h-4l-56 -14l-18 4l-6 6l-21 6l-12 -2l-63 -10l-31 -14v-12l-6 -64l-2 -68v-65l4 -64l-15 -10l-10 -20l2 -6l6 -2l8 6l3 -17l2 -67l8 -60l-13 -4l-6 4l-2 -8l-8 2l-10 -28l4 -13l-4 -2l18 -31h11l-3 -61l-12 -27l-10 -6l-33 -4l-69 -6l-68 4l-29 8l-10 23l-4 31 l4 65l-6 31l-4 65l2 60v65v70l2 70l4 -3l2 -8l25 31l-4 6l4 14l-11 3v10l11 10l-9 -2l-2 -8l-10 -2l-6 -25l-8 -2v51l6 64l14 12v10h-6l-4 -14l-6 4v33l16 16l-10 10l-6 15l6 4l-6 10v14h10l-10 25l6 16l-10 58l10 45l-6 65v66v49v59v70l2 70v67v64l-2 55l18 19l17 6l4 6h12 l33 -10l24 4l31 -4l60 10h36l31 -10l31 6h33l63 -6l31 2l65 6l35 -4l4 -21l-2 -14l-6 -4h-10l4 -15v-30l16 -25l11 -24l16 -5l10 2l4 -10l11 -10h10v25l18 -9l13 -12v25l-35 2l-11 12h54l-4 33l4 16l-4 4l-11 -8v4l-10 10l4 9h6l2 -4l9 -3l4 5l8 -9v-8l10 -65v-33l-8 -33 l-18 -8l-31 -4l-68 -2h-69l6 43l-21 10v10l-6 -6l-6 -29l-2 -34l-6 -2h-66l-63 12l-31 -10l-10 -15l-6 -24l-9 -72l11 -20l4 -66l-4 -70l-2 -65l10 -49l29 -23l14 -4l55 8h72l6 -8l57 4l33 -4l14 -25l9 -30l2 -74l-15 -61l-6 -2zM346 1376h2l2 35l19 14h16l-14 21v18 l-45 -14l2 -14l8 -13l4 -16l-2 -33zM692 1421l-6 2l-4 4l10 31l-4 2l4 6l6 -8v-18l7 -2l16 14l6 -2v-25h-18l-9 5l-2 6l-6 -2l4 -13h-4zM502 760h6h4l6 18l8 2l2 -24l13 8l-4 2v29l-15 4zM360 139l-4 2v11l6 16l-2 6l11 -6l-2 -16zM586 1391l-2 -7l8 -14h10l2 8l-4 6z M145 1274v6l-2 12l-8 11l-4 -13l6 -12zM698 1382l-6 2v23l10 -2l3 -8zM596 1362h-4h-10l-7 -4l11 -10h10v14zM340 104v7l-4 6l-8 2l-6 -4v-4zM532 717l-2 -4l-10 -19l8 4l11 13zM365 340l-5 4l5 10l4 -6z" />
<glyph unicode="g" horiz-adv-x="940" d="M782 -6h-4h-55v4l-21 10l-2 17l-12 8l-6 26l-12 13l-17 2l-6 -4l-2 -11l-12 -6l-53 -28l-58 -31l-61 -14l-17 4l-14 -4l-63 -3l-33 7l-62 20v14l-8 -6l-2 -8l-24 23l-23 10l-20 24l-15 7l-24 22l-6 16l-9 5l-14 45l-4 2l-12 26l6 11l-13 26l-6 31l-6 6l-2 12l2 62l-2 67 l-8 64v69l16 -8l8 -41l11 13l4 18l-23 33l-16 -8l-4 2l4 37l-4 65l8 66l-4 63l2 64l2 65l-4 66l2 61l-2 68l4 63l6 66l4 6l-4 14l4 17l31 57l29 59l8 2l4 6l6 -4l16 21l15 4l18 25h10l7 16l14 8l59 23l62 14l71 8l31 -4l6 -6l29 4l35 -4l28 -8l60 -27l27 -18l18 -21l8 -4 l47 -47l2 -8l13 -10l2 -15h8l16 -24l6 -47l4 -7l-4 -4l6 -47l7 -12l6 -31l-2 -65l6 -31l-2 -31l-17 -61l-24 -4l-70 -8l-69 4l-29 6l-10 10l-9 27l-10 71l6 33l-8 68l-20 63l-19 25l-12 6l-33 4l-10 6l-20 -4h-33l-35 -14l-25 -23l-16 -29l-4 -32l-14 -29l4 -31l2 -63 l-2 -64v-61l2 -70l-2 -65l-9 -2l2 -9l11 -4l-2 -57l4 -63l-10 -66l4 -63l6 -64l-4 -29l-9 -67l9 -70l16 -53l16 -23l-4 -2l4 -8l7 6l10 -4l4 -8h8l21 -12l24 -8l35 -3l31 11l57 28v9l6 6l10 26l5 39l8 31v33l-4 65l4 64l-4 2l4 18l-25 29l-20 -4l-64 4l-2 10l-16 2l-15 19 l2 2l3 -9l49 -4l-6 15l-43 22l-11 13v18l8 68l13 26l30 8h39l-2 -18l6 -6l7 2l6 20l65 2l70 2h68l57 -10l10 -20l10 -11l2 -16l-8 -61l-4 -64l4 -65v-68l-8 -66l12 -61v-65l-2 -72v-64v-63l-16 -29l-14 -4zM229 1100l-2 2l-10 6h-18l-17 43l2 23l-34 8l-5 -15l5 -30l-3 -33 l9 -14l-6 -5l6 -10l-9 -14l-2 -14l5 -9l-5 -12l11 -4l-4 -6l4 -4l4 4h10l8 14l19 6l20 -2l6 6l-4 11l19 18l-5 2l-4 14l15 13h10l4 -4v24h-4l-10 -12zM268 606v4v4l-10 7v49l-6 -2l-10 18l-15 8l2 4l23 4l6 7l-2 41l-8 4l-15 -6l-10 -11h-8l-10 -24v10l-6 14l-11 -4l-2 -8 l-6 -2l-8 41l-12 12l6 6v29l-16 29v-11l-15 -24l6 -6l4 -33l-12 -2l-6 -12h23l10 -15v-10l33 -29l2 -10h28l4 -14l17 -25l6 -31l10 -12h8zM150 508h4l45 14l14 -20l45 10l2 53l-4 15l-12 6l-2 -13l-33 -2l-4 19l-15 6l-2 -4l-16 -4l-2 -31h4l10 10l15 6l6 -2l4 -10l-2 -8 l-12 -8l-17 -2l-18 4l4 -12l-4 -3l-6 5l-2 8l-21 12zM694 180v6l-2 9l-28 24l2 10l-11 7l-2 8l-14 -6h-10v14l-4 2l-11 -33l7 -8l-9 -2l-12 -21l8 -2l2 -14l35 -18l2 6l8 4l4 -6l-10 -10l8 -5l25 23h-2l8 14zM248 307h4l6 4l-10 15l-2 -4h-17l-20 -17l-12 4l-4 6l-9 2l-4 -6 l8 -26l-4 -6l-8 12l-10 2v-6l18 -25l25 4l6 -4l4 17l10 8l9 -4v14h10v10zM170 864v6l6 9l14 -5l9 17l-9 29l5 14h-15l-10 -10l-2 12l-8 2l4 -8l-8 -41l10 -4l-2 -21h6zM145 1202l-2 -4l2 -6l39 14l-4 39l13 8l2 9l-5 2v6h-18l-6 -4l8 -39l-4 -13zM287 776h6l18 6v9h-4 l-10 -11l-4 13l-10 12l-15 6l-2 -10l10 -6l3 -9l-21 11l2 -15l19 -10l4 12l10 7zM678 219h6l14 -10h11l8 10v8l-12 13l-7 -7l2 -6l-16 -2zM748 209l2 2l2 33l-15 -2l-4 -6l2 -17zM262 332l2 4v20l-10 15v-4l-10 -11l8 -4l-4 -16zM659 444l-2 -4l-4 -20l13 -2l4 -4l-4 -2 l4 -2l4 8l-2 16zM238 430l-2 6l-5 8l2 19l13 2l2 8l-25 -4l2 -29h4zM131 625v-7l4 -10l25 2l-4 11zM752 1300l-2 -2l-2 -8l14 -6l-2 25l6 6l-10 4l-4 -2v-17zM702 145v-6l3 -8l14 -6l8 6l-14 12zM629 283v-7v-12l-4 -6h8l10 12v6l-6 7h-8zM635 356v-4v-16h14v12zM111 346v-6 l4 -6l14 4l-2 8l-2 -4l-6 10zM184 670l-2 -4l-2 -17l4 -2l6 8zM145 987l5 -2l6 4l-2 17h-4zM233 547v-4l-2 -6h-16l8 8zM127 459h-4l-12 -4l16 -11v15zM244 395l-2 -4l4 -6h8l4 4zM444 645l2 -2l11 8l-2 8h-6zM135 776v6l-8 9l-6 -11z" />
<glyph unicode="h" horiz-adv-x="993" d="M870 254v-4v-4v-66l4 -67l-2 -66l-6 -29l-20 -12h-66l-2 19l-10 10v8l-6 6l-12 -8l4 -6v-31l-45 -4l-64 4l-2 10l-12 11v30v66l2 65v66v63v64v65v66l-2 68l6 4l33 -4l-4 49l-15 -2l-8 -13l-12 -6l-19 25l-24 8l-33 2l-68 -2l-65 6l-16 -4v-4l-21 -6l-16 -17l-2 -57 l-5 -68l3 -65l6 -59l-6 -29l2 -70l-9 -30l4 -64v-66l-2 -67l-8 -29l-6 -4l-31 -6h-71l-2 4l14 12l8 2l-4 15l-20 12l-9 14l-6 4v-8l-24 -16l-2 -6l12 -10l2 6l16 -4l9 4l2 -4l-11 -21l-24 -4l-68 4l-6 21l-6 6l-4 30l4 35l-2 64l-2 67l2 66v65l4 7l8 2l6 10l-10 10h-8l16 23 l2 10l-8 -8l-6 4l4 18l-12 2l-2 25v65v68v65l2 64l2 53l10 8l2 7l-6 2l-6 34l10 9l-10 14v6l4 70l-4 63l2 68l4 61l-4 64l4 30l-4 66l-6 14l10 66l-6 67l6 31l18 12v9l68 4l63 4l64 -10l4 -7l18 -51v-35v-73l9 -64l-9 -63l9 -47l-9 -58l5 -33l-5 -63l5 -70l-7 2l-4 -6 l25 -33l29 -18l49 -6h73l64 14l22 15l7 12l4 31l-2 32l-2 68l8 33l2 32l-4 31l2 66l2 63l-2 62l-2 69l8 66l18 26h39l31 7l66 4l63 -8l14 -46l4 -65l-2 -68l5 -65l-5 -31l-2 -63v-66v-65l-2 -68v-64l4 -57l2 -65l-4 -70l-8 -33v-65l8 -66l7 -65l-3 -66l-4 -66v-65zM698 557 v-4l11 -25l-25 -6v-8v-63l14 -2l25 -39l-4 -7l4 -16h10l-4 14l8 5l4 -7l15 -6l6 2l-6 33l-21 59v21l-16 -4l-6 4l4 14l-8 25h20v14l-4 8l-6 2zM758 666l2 -2l12 8l8 18l2 19l-28 14l-6 -14l10 -4l-15 -21l-8 6l-24 -4l-6 4l-5 -8l-20 -12l-6 -15l10 -2l4 -6v-14l8 -4l4 16h5 v-12l4 -6l8 2zM705 313l-3 -4l-10 -18l-10 -31l2 -10h27l4 -12l-4 -7l-15 -4l-2 -8l4 -8l11 2l12 10l8 2l14 -6v6l-14 17l2 16l12 31l-28 24h-10zM694 106h6l13 -2l30 9v12l-8 8l-14 35h-10l-13 18l-2 -4l-12 4l4 -67zM297 705l4 2l29 14l2 14l-13 37l3 10l-43 6l-11 -10 v-35l11 7l8 22h10l8 -12l2 -17l-14 -22zM250 621l2 6l2 4l8 -15l6 5l-2 4l-22 59l-13 -4l-6 -25l8 -10l7 -18zM465 743l4 2l18 15l7 14v33h-15v-35l-14 -18v-11zM733 74h4l37 8l4 6l-10 -4l-6 2l-8 12l-23 -18zM401 768v6l-8 4l-2 8h-16l-8 -8h14zM754 969l-2 -4l-9 -7v-10 l19 10zM684 1081v-4l4 -20v28zM786 817v4v4l-6 4l-6 -4l2 -8h10zM698 881v-4l2 -13l5 -4l4 6zM213 31v-2v2z" />
<glyph unicode="i" horiz-adv-x="489" d="M362 23l-2 -3l-16 -10l-2 -8h-8l-64 -2l-67 2l-66 6l-8 66l-10 59l-2 35l4 61l4 72v64l-2 65l4 64l-2 67l6 29l10 14l-4 4l-12 -4l-2 33l-2 65l6 33l20 25l5 14l-9 14l-2 15l-14 -8l-4 10v69l-6 62l2 8l18 27l-12 20l-4 35l4 35l-2 26l6 5l8 16l-10 8l-6 21l2 65l4 68v65 l-10 66l6 35l16 26l33 15l14 -13l29 13l35 6l39 -4l4 -4l24 4l39 -15l17 -41l-6 -32l4 -64v-67l-6 -62l-33 8l-4 -20l-15 -19l15 2l4 5v12l4 -4l10 2l6 6l10 2v-4l-10 -6l15 -6l2 -13v-63l-2 -70v-65l-2 -56l2 -71l4 -62l-4 -35l-5 -6l-16 -4l-2 -55l-6 -12l6 -11l27 -20 l2 -62l-4 -61l2 -68l-13 2l-6 15l-6 4l-6 -2l-2 -8l-6 -4l8 -11h27v-16l-7 -66l-22 9v-35l8 -4l-8 -15l8 -20l6 4l-4 8l-6 2l2 8l12 6l6 -2l-6 -16h11l2 -12l-2 -66v-67v-66l6 -35l-2 -14h-9v-18zM229 1010v-4l-6 -19l2 -6h4l15 -18l10 -2l2 14l-4 33l-10 8l-11 31l-8 2 l-4 6v49l10 4l9 10l2 19l-19 -2l-14 14l4 18l-16 2l-25 -22l10 -10l6 -33l13 -10l2 -11l-13 -4l-2 -10l4 -14v-21h-10v-14l-10 -4v-31l6 -4l4 6l31 12l10 13zM211 688v4v15l-14 14l-7 16v17l5 6h-13l-8 -4l-4 -15l12 -10l-2 -10l-14 8l-4 -8l10 -8l2 -17l-4 -32l31 22z M180 1407v-6l-4 -19l8 -4l25 2l6 6l16 -26l9 -2l4 28l-4 11h-21l-22 10h-17zM274 1313l-4 2l-6 4l-16 -4l-8 -10v-11l10 -2l14 8zM342 868l-2 -4v-10l12 -10l-2 20zM170 872v-4l6 -14l2 6z" />
<glyph unicode="j" horiz-adv-x="897" d="M641 37l-4 -2l-16 -4l-15 -11l-18 -6l-4 -6l-9 2l-2 8l-8 -2l-2 -16l-35 -6l-10 -12l-65 -13l-66 15h-63v10h-15l-10 10h-14l-19 14l-30 9v10l-15 6l-10 14l-14 4l-29 39l-14 6l-11 23l-39 55l-2 13l-8 14l4 8l-10 62l-14 55v29l4 65l4 70l-6 63l6 31l16 20l60 7h67 l64 -7l18 -24l4 -17l2 -65l-2 -66l-4 -63l12 -29l-6 -47l6 -49l19 -27v-8l16 -4l6 -14l60 -13l55 15l25 18l10 17l8 -13l-4 -16l16 2l13 6l16 2l2 8l-18 29l-6 25l-9 2l7 10l-7 31l4 32l13 64l-8 65l-9 66l7 63l8 25l2 39l-6 14l-4 33l-3 63l3 68v66l-11 65l4 66l-4 32l4 66 v63l11 62l2 33l-2 65l-2 64l8 28h6l18 15l11 -6l12 2l70 4l30 -6l33 6l39 -15l8 -20l-4 -12l4 -33l6 -64l-4 -67v-56l2 -71l-8 -68l6 -6l-6 -14l6 -25v-33v-63l4 -64l-4 -57l2 -61l-2 -66v-70l-2 -67v-68l6 -14l-2 -8l-14 12l-8 2l-13 -29l7 -10l6 10l18 -8l4 -20l-10 -10 l-12 -5l-4 -6l-9 2l-6 25l-10 2l-8 -14l6 -17l-2 -14l16 -4l27 -21l8 13l2 22l6 -20l-2 -33l-8 -17l-2 -32l-6 -17l-6 -63l-4 -4l-27 -58l-10 -10l6 -4l-39 -47zM588 1358l-2 -4l2 -25l8 -2v-8l-8 -6l6 -4l-6 -33l6 -6l4 6l14 4l6 8l-2 17l15 2l2 8l-4 22l4 6l4 -20l22 10 l7 17l-2 6l-15 -2l-6 4l-2 10h10l15 -6v16l-4 -4l-7 8l-8 -4l-14 43l-17 -4l-12 -8l-8 -12l-8 -29l10 -10h-10zM686 326v4l10 37l-6 8l-4 -6h-16l-27 -31l-2 -8l4 -19l-8 -28l4 -2l6 -48l8 3l-2 6l4 10l9 2l20 22l-10 7l-10 39l10 8zM422 51v4l14 45l-16 17l-29 18l-16 2 l-17 -6l11 -8l-7 -27l35 -20v-10l9 -11zM682 1337h-6l-4 -4l-2 -18l-4 -6l-23 -6l-2 -9l6 -2l21 15l4 -2l-10 -29l4 -6l-4 -23l10 -12l2 4l8 -4l6 -21l12 -8v25v63h-4l-10 11zM211 561h-6l-51 -6l16 -45l2 -18h10l4 -5l-8 -2l-6 -12l10 -10v-10l13 2l-2 -13l18 -4l2 6 l-10 11l-6 16l4 12l-8 4v19l-9 2l-2 4l11 6l4 29l14 6v8zM506 72v4l4 39l-16 4l-11 8l-4 12l2 21l-14 -2l-4 -4l-6 -33l6 -2l8 -37l14 -6v-4l-8 -6l4 -5l2 5l17 2zM193 276l2 5l26 45l12 -27l9 -2l-4 33l8 30h-15l-12 -26l-16 -4l-21 6l-10 -49h10zM299 139h6l8 2l6 15h-26 l-29 -11h-22l-11 -14l64 -20l-2 6zM612 1221l-2 -2l-12 -13h-10v-45h14l10 -14l13 22l2 17zM193 125l4 -2l4 2l-4 2v23l-29 6l-2 -4l4 -7l14 -8zM236 434h-5l-8 -4l-2 -16l12 -8l7 -15l6 4l-4 4zM158 258v-4l6 -18l4 -3l4 5l-4 10l22 12l3 6zM696 1153v2l6 23l-6 14l-10 -21 l2 -14zM178 170l-2 4v16l-4 7l-10 2l2 -23zM584 86v4l12 12l2 9l-6 -2l-10 6l-4 -4l6 -5l-4 -18zM594 131l2 -2l18 -6l15 2l-2 6l-9 -6l-20 14zM612 1305h-4h-10l4 18l6 -2l-12 -6zM633 1368h-6h-4l-7 14l13 -4l4 4v-14zM535 541v-4v-5l14 -6v15h-14zM133 590l4 -2l4 2l2 16 l-6 4zM432 131l4 -2l13 -8l2 4l-15 12zM696 618l2 5l2 6l-14 6v-17h10zM588 1227l2 -4l8 -2l10 4l-6 6v-4l-10 4zM559 483l2 4v7l-8 4l-4 -15h10zM711 1098l-2 -2l-4 -6h14l2 8h-10zM578 68v4v4h-9v-8h9z" />
<glyph unicode="k" horiz-adv-x="929" d="M821 2h-2l-33 -6l-71 -4l-31 6l-29 16v9h-8l-8 10l-6 16l-12 12l-7 35l-12 21l-4 22l-6 64l-8 16l-23 60l-10 67l-14 27l-7 33l-12 61l-8 2l-2 12l-10 54h-9v20l-10 4v14l-8 2v9l-14 24h-17l-8 -4l-8 -24l-14 -17l-11 -22l-30 -58l-9 -30l7 -33l-9 -14v-31l9 -37v-66 l-2 -63l2 -64v-65l-11 -64l-39 -16l-34 -2l-33 -8l-6 2v10l-33 -10l-49 6l4 6l-10 8v11l-11 -11v-10l-14 14l-2 13l-8 12v31l-2 69l6 29l12 12l-4 19l4 6l25 -4l4 -10l-6 -13l-6 -2l-17 4l4 -10l6 -2l25 6l8 -2l15 -45l16 8l12 15v30l6 11l-14 4l-6 6l2 10l-4 8l8 10h-22 l-27 -10l-4 6l-6 -6l-13 10l-6 -4l-14 21l-2 35l-2 59l4 66l2 38l-4 -8l-6 8l6 50v65l4 2l12 -12l8 -2l5 4l14 -8h8l4 4l-4 10l-20 14l-7 -4l-6 15l-12 10h-10l2 20l-6 68h4l-4 16l8 43v31l-6 64l4 34l8 31l-6 64v67l-4 62v63l2 68v61l2 68v65l8 37l16 21l31 16l17 2l32 -4 l29 -12h27l61 -4l8 -13l10 -30l7 -7v-22v-66l-7 -32l7 -50v-65v-66l-5 -63l15 -66l-4 -32l4 -31l12 4l21 22l24 62v8l10 12l29 56l4 32l21 29l4 14l18 33v23l23 43l24 59l19 70l14 12l10 31l21 22l28 19h33l68 -8l35 8l30 2l19 -17l6 -12l-6 -35l-19 -24l-6 -33l-12 -31 l-6 -30l-6 -3l-2 -16h-11l-8 -29l-26 -49l-7 -32l-12 -29l-27 -58l-20 -28l-4 -17l-27 -61l-28 -55l-2 -64l10 -14l6 -37l12 -29v-8l-4 -4l17 -39l6 -33l16 -30l-4 -15l8 -2l-4 -8l8 -6l4 -21l11 -10l8 -55l18 -53l23 -62l14 -63l14 -19l11 -65l14 -19l2 -14l14 -63l6 -5 l9 -32l18 -66l16 -63l-6 -13l-14 -6zM694 154h-6l-14 12l-6 14l-9 2l3 -18l6 -14l16 -17l-8 -6l-2 -8h4l12 -13l8 -2l31 15l29 -19l6 11l2 16l-23 61l-6 33h-24l6 -14l-12 -6l-7 -17v-24zM508 868v6v9l-16 26v15l-9 2l-4 -6l-16 -5l-8 -14l10 -2l4 -6l-2 -16l6 -33h8l2 14h6 zM272 80l-2 4l9 41l-11 2l-16 -4l-4 -19l-4 -4l-4 13l-11 6l2 -19l11 -10zM719 16l-2 7v6l14 14l2 8l-39 -10l2 -16l13 -9h10zM283 418v6l-7 22l-12 7l-6 -11l4 -16l10 -8h11zM459 668v4l4 8l16 2l-12 29h-12l10 -11l-10 -4l4 -18l-4 -6zM688 319l-2 -2l-6 -16l8 -10l8 10 h13l-4 14l-7 4h-10zM225 541h4l9 6l2 8l-11 18l-8 -8v-16zM258 481l2 2l2 4l-6 19l-12 12l-4 -2l10 -33zM272 358l2 2l13 19l-4 14l-7 -8l-8 -2l2 -10l-6 -15l12 -6zM508 956v5l-6 14l-8 4l-5 -4l5 -2l6 -15zM469 813l-2 -4l2 -8l10 -6l4 4h-4l-4 16zM504 1020l2 -2l10 8 l-2 8h-6zM547 573h6l4 5v8l-6 4l-4 -6l4 -2zM225 45l-2 -4l13 -10l4 6zM176 143v-4v-4l10 -6l4 4z" />
<glyph unicode="l" horiz-adv-x="798" d="M735 133v-4v-27l-4 -67l-12 -23l-43 -8l-70 -4l-65 -2l-66 2l4 8l-4 2l-16 -4l4 29l-6 6l-33 2l-6 6l-21 -24v-15l-10 -6l10 -4l-10 -4h-49v4l-23 -6l-69 6l-33 -4l-66 10l-4 14l-10 5l-8 38l-6 66l10 66l-6 32v31v66l-4 63l10 66l-2 32l-4 66l2 65l4 66l-2 61l-6 68 l4 59l2 64l-2 72l-2 71l-4 62l4 65l-4 66l4 30l-4 68l2 33l12 26v27l29 29l28 4l70 -6l31 4l14 8v-6l33 -2l12 -8h8l4 -23l5 -57v-74l-23 8l18 -39l5 2l2 -26l4 -64l-2 -63l-2 -66v-65l2 -64l-4 -69l-5 -66l7 -61l-7 -66l5 -68l6 -65l2 -64l-4 -63l-9 -62l7 -34l2 -70 l26 -37l13 -2l6 -6l26 -4l66 6l63 -4l70 -4l31 6l14 8l14 -14l15 -8l10 -13h8v7l-8 4l4 2l10 -15l2 -14zM657 133l-4 6l6 4l3 9l-5 6l-16 -11l-4 13v22h-10l-19 15l-4 -4l2 -11h-8l2 -12l8 -2l10 -10v-11l9 -10l-15 -4l-4 25h-33l-14 -4l-2 -7h10l11 -10l4 -14l-4 -17l4 -32 l43 6l-2 -21l12 -10l-2 4l16 17l-4 14l6 2l9 14zM530 98v6v9l-14 16l4 18l-2 7l-8 4l-4 -4l-4 -19l-6 -2l-4 4v8l8 13h-31h-61l-5 8l-12 8l-8 14l-4 -2l-6 -18l24 -16l-6 -9l6 -6l-4 -18l15 -10l-2 6l10 8h10l2 6l23 14l-2 -37l-7 -12l19 4l2 -12l20 -12l9 2l4 8l-21 14 l-8 15l4 14l-10 20l20 5l15 -39h28zM305 119l2 4l12 18v11l-16 8l-18 2l-4 16l-15 8l-2 -8l-8 -2l2 -4l-8 -16l6 -4l8 2l10 -13l7 -18h18zM217 80v6v8l-8 12l2 17l-18 10h-11l2 -29l6 -12l11 -8zM344 1077v4l-2 25l-12 -2l4 -19l-12 -16l8 -6v8zM221 143h6l11 2l8 13l-8 2 l-11 12zM217 264v-4l6 -18l8 -2l-4 24h-10zM481 197l-4 2l-10 2l-6 -15h10zM436 84v4v8l-6 6h-8v-12l6 -6h8zM485 6h4l9 4l-4 15h-5zM623 102l2 -2l-13 -14l-10 -2l2 8l14 2zM682 190l2 -2l2 2l-14 7l2 -17zM319 1159v-4v-6h11v10h-11z" />
<glyph unicode="m" horiz-adv-x="1247" d="M1114 12h-2l-33 -8l-73 -2l-70 2l-10 6l-13 27v39l-6 4l-8 24v17l8 65v66l-8 63l8 64l-4 65l4 64l-6 33v30l6 33v64v65v64l6 30v33l-6 33l-18 63l-10 -6l-9 -12l-16 -66l6 -4l-10 -32l-6 -2l4 -31l-4 -17l-17 -59l-2 -37l-12 -65l-12 -66l-10 -29l-7 -65l-8 -33l-6 6v17 l-4 2v8l6 -2l4 4l-6 4l-12 33l-21 26l2 -6l-12 -14l8 -25l17 -18l4 -25l-2 -10l-6 -4l-7 -25l-16 -4l-2 -6l18 6l7 -6l-3 -10h-28l-15 -29h17l41 19l2 -17l-10 -22l4 -25l-4 -20l-13 -62l-14 -67l-6 -6v-33l-4 -23l-17 -67l-14 -29h-8l-23 -10l-30 10l-7 -10l-18 2l-37 12 l2 4l-20 19l-2 6l6 4l-10 16l4 25l-9 39l-10 14l-4 17l-2 63l-10 8v15l-8 10v43l-6 16l6 4l-6 33l-9 12l-6 58l-8 20v45l-10 8l4 25l-4 14l4 17l-4 4l-2 22l-8 13v14l-7 12l-4 33l-14 63l-16 62h-9l-10 51l-4 4l6 12v23l4 8l-4 2l-6 15l-6 32l-19 29l-10 -12l-10 -51l6 -70 l-6 -19v-57l-8 -16l-4 -45v-66l2 -67l2 -68l8 -66v-63v-64v-67l4 -68v-63l-12 -62l-45 -12l-8 2l-3 6l-12 -6l-33 -6l-71 4l-27 10l-6 29l-2 33v65l2 64l-2 63l2 66l-6 33v26l2 56l-2 71v70l2 57l2 72l2 57l-2 68v71l6 64l-4 33l-6 65l2 60l4 71l-4 58l-2 67l4 70l16 61 l13 9l28 8l25 -2l61 -2l74 2h64l32 -11l17 -20l8 -33l10 -67l4 -7l-8 -14l6 -24l12 -11l-4 -18l-10 -10l8 -7l-10 -12v-8l-8 -2l-4 -6l4 -6l8 6l2 6l14 -39l9 2l-2 14l4 2l-9 11l3 10l12 -39l10 -61l14 -66l11 -61l12 -68l10 -14l4 -33l6 -6l-10 -25l12 -53l7 -4l4 -55 l8 -23l18 -27l8 -36l3 -27l12 4l12 10l4 17l10 14l-6 18l19 64l-4 24l6 7l4 24h6l6 8l2 25l6 10l-6 12l2 25l-6 16l12 29l9 6v4l8 66l4 -4l10 2l6 6l-8 4l-2 -8l-4 10v17l6 16l4 31l8 14l-4 8l4 31l-4 8l4 6l13 6l4 19l4 4l-10 14h6l4 13l4 67l6 4l4 39l10 14l-2 17l9 18 l4 70l8 12v10l35 15l30 -4l68 -4l29 4l67 4l31 -8l31 2l22 -13l4 -12v-66l6 -67l-10 -39l15 -47l-9 -64l9 -67l-5 -31l-2 -63l2 -66v-68l-4 -65l4 -61v-66l-4 -66l4 -32l-12 -23l-4 -16l2 -10h4v16l4 6l6 -2l5 -16l-3 -9l-2 -65v-64v-61v-66l-2 -67l-4 -66l6 -65zM942 1161 v-6l2 -12l10 -10l2 -17l-32 -8l8 -16l16 -5l6 3l11 22l8 4l12 -8l31 -6l2 16l-6 15l-11 8l15 10l12 -10l8 -15v-10l11 2l4 33l-25 14h4l-4 13l10 2l-2 8l-18 26l10 11l-8 8l-2 16h-8l-2 4l10 11l-8 2l-4 6l2 26l-13 -4l-30 -2l-19 31l-2 18l-24 7l2 -11l16 -12l2 -16l-10 -6 v-15l14 -28l-4 -17l2 -16l16 -27l-4 -10l4 -35zM977 1464h-4l-41 -14l2 -14l14 -27l-6 -57l10 -2l35 6l8 -21l6 -4l5 37l-2 8l-11 10l-2 9l4 24l-10 11l-6 14zM995 115l2 2l29 43l4 18l-6 4l-18 -10l-11 10l-26 2l-17 15l-4 18h-10l-6 -4l4 -6l2 -19l-10 -20v-18l16 -3l14 5 l5 6v-49l16 2l-6 2zM336 1176v6v18l-12 29l-17 24l4 9l-4 10l-10 6l-4 -10l8 -23l-2 -10l-16 -16l6 -5h16l2 -4l-4 -2l8 -8l-10 -4l-18 8l-4 -12l18 -27h-4v-4l14 -10zM424 1165v-4l-10 -59l4 -15l10 -10l8 8l8 -2v9l15 6l-4 28l4 11l-15 4l-4 6l-2 18h-14zM444 995l2 -4 l3 -18l8 -15l6 -2l-4 56l-15 47h-14l-6 4l-2 -12l12 -27l-6 -4l-4 -16zM1083 182v6v19l-18 8l-21 27l-6 -6l-2 -15l4 -16v-33h13l8 -4l6 12zM283 66l4 4v6l-13 12l-2 12l-12 11l-12 22h-15l3 -10l-7 -35l4 -12l35 14l8 -20zM748 735h4l10 10l-8 11h-27l-16 -25l2 -6v4l24 2 l2 -16l9 -4l4 8zM772 848v4l8 35v35l-16 -2l-2 -5l6 -6l-2 -6l10 -6l-18 -18l-6 -17l10 -14h10zM213 217l2 2l4 6v27h-14l-2 -14l-19 8l-6 -15l6 -14l21 14l2 -10zM1104 510l2 -4v-2l-14 -47l12 -11l12 27l-2 25zM512 877h4h4l2 6l-20 6l-17 -2l-12 -10l8 -7l2 -8h11z M1083 662l-2 -3l-4 -4l-2 -51l-8 -2l-2 -4l14 2l11 37l-9 2l-2 4l15 12zM1100 266l-2 4l-2 9l6 14l-8 12l-11 -45l9 -6l-2 -8l18 6zM684 158l2 2l4 22l-2 11l-10 10v-41zM498 823l4 -2l14 -2l-8 39zM776 1137h-4l-24 14l-7 -4l9 -2l8 -15l14 -8zM981 412v-4v-25l6 -4l8 8 l-6 23zM938 94v4l2 13l-4 6l-8 2l-4 -15l6 -8zM188 319v-4l-8 -16l4 -14l13 22zM737 827v-4v-8l4 -2l15 14v11h-13l-6 -4l8 -9zM1104 203l-4 2l10 10l-2 6l-18 -4l10 -18zM1040 397v-6l2 -4l13 -2l10 12h-25zM956 1063l2 -2l23 -2l6 4v4l-22 2zM512 1122h-4l-8 -4l-2 -16h8 l4 4zM1100 164h4l6 4v16l-6 4zM268 965l-4 -7l-4 -8l6 -8l8 4zM727 330l-2 -4l-12 -4l-4 -7h10l14 -6l-4 10l2 7zM414 1200l-2 -4v-6l12 -10l-2 20h-8zM1026 61h4l12 -2l5 7l-3 4h-18v-9zM664 408l2 2l4 8l-2 8l-9 2v-14zM723 862h-4l-4 17l-6 -2l2 -15l10 -4zM973 1161h-4 l-4 2l-2 17l10 -9v-10zM1090 76v-4l8 -4l6 4l-2 6l-10 2zM1036 1087v5l-10 10l-6 -15h16zM268 995l-2 -4l-2 -6l8 -6l4 16h-8zM1061 999l-2 -4l-4 -6l14 2zM977 1137h4l4 -2l2 -13l-10 4v11zM293 1126v4l4 3l-2 6l-8 -2zM748 541h4l4 12l-6 -8l-7 -2z" />
<glyph unicode="n" horiz-adv-x="997" d="M868 31l-2 -2l-16 -23l-8 -2l-66 -6l-65 4l-29 8l-16 27l-25 59l-16 29l-4 33l-11 14l4 16l-10 25l-29 59l-20 62l-16 28l-9 33l-16 27l-2 24l-4 7l-19 55l-18 61l-12 21l-25 61l-18 66l-21 61l-16 27l-23 22l-4 -6l-2 -18l-10 -29v-33l2 -65l-4 -66l8 -30l-2 -9l-8 -63 l4 -33l-8 -65v-33l6 -66l2 -65l4 -66l-4 -65l6 -64l-6 -16l-6 -2l-8 -21h-4l-60 -14h-35l-24 8l-15 -4l-14 6l-35 2l-14 6v31l2 66l-10 65l4 64l-4 32l8 64v33l-4 65l4 33l-4 59l-2 64v70l2 67l4 62l-4 65l4 29l-2 30v66l-4 68v65l2 66v63l16 -4l4 8h-18l-4 21l2 35l6 4 l6 14l17 6l6 6l-4 17l-27 12l8 31l12 2l9 14l14 6l4 10l-16 7l4 14l8 2l2 6l-10 10h-10l-7 -10l-2 10h9l-5 9l19 8l63 -2l37 4l12 6l64 -21l22 -41l11 -30l18 -68l10 -12l23 -64h-2l4 -8l20 -57l17 -62l-4 -4l4 -10l24 -59l13 -9v-14l8 -2l10 -47l8 -2v-8l13 -23l2 -33 l18 -34l8 -31l8 -2l-4 -8l13 -35l16 -31l23 -63l12 -11l12 7l6 12v69l4 5l-4 2v6l13 8l4 10l-13 8v19l7 65l-2 33l-9 31l6 47l-2 33l7 32l6 3l8 -15l12 10l12 66l-10 -4l-4 -14l-8 8l-2 10l-25 -4l-4 33l8 22v29l-4 67l6 33l-8 33l4 68l9 30l10 13l10 -11h8v-10l13 -2l6 -12 l10 2l10 14l-4 4l-4 23l6 6l37 -8l68 -8l30 -13l-4 -6l6 -16l4 -31l7 -4l2 -17l-5 -61v-63l-2 -58v-71l2 -70l5 -62l-5 -30l5 -35l-2 -6l-3 -62v-67l-2 -62l2 -67l5 -68l-2 -55l-5 -66v-65l5 -66l4 -65l-9 -62l-4 -67l6 -11v-12v-74zM766 281v6l6 18h-8l-4 8l2 17l-6 4 l-6 14l-7 33l-20 2l-4 -12l-31 -27l-10 -49l27 8l12 -8l-6 -6v-8l16 -21l21 31l8 -2l2 -6zM801 442v4l2 50l-6 20l-6 4l-15 -20l4 -6l-6 -17v-14l-22 -23l-4 -18h10zM772 1190l2 -2l-4 -12l-8 -5l6 -20l-2 -10l16 2l2 6l-4 14l11 27l-15 6zM801 573h-4l-19 2l-6 -6l21 -32 l8 -2v38zM145 1415h-4h-8l-4 6l2 9l14 -7v-8zM752 1243l-2 -2l-2 -4l4 -10l10 -2l-4 14zM766 559h-4l-12 -2l-2 -8l4 2l-2 2zM678 1116h-4v-4l-6 14l8 -2z" />
<glyph unicode="o" d="M563 -12l-2 4l-6 2l-23 -10l-47 -2l-30 -9h-37l-29 13h-16l-13 4l-6 6l-12 2l-14 8l-9 -2l-6 4l9 17l-13 16v10l-6 -8l6 -25l-14 2l-10 11l-15 6l-4 -10l8 -4l-4 -3l-39 19l-22 20l-8 2l-27 27l-12 27l-6 4l-2 12l-31 29l-4 8l-13 63l-10 13l-4 24l-8 47l6 7v12l-4 63v70 h4l-6 25l10 47l-10 65l-2 64v59v64v69l2 68l6 16l-6 66l4 61l6 70l-2 63l8 31l17 65l6 13l12 12l4 23l19 26v8l10 4l16 19l9 2l24 35l14 4l35 22l51 15l66 16l6 -4l8 -14l25 10l6 -2l4 16l43 -4l10 -10l27 10l23 -2l10 -6l30 -6l9 4l6 -8l33 -8l22 -15l2 -10l4 2l15 -6 l10 -10l4 4v-4l12 -4l6 -13l25 -6l22 -31l-14 -30l8 -15l4 11l-4 6l2 4l19 -6l4 6l24 -29l11 -31l18 -67l-10 4l-4 -8l2 -4l12 4l-4 -17l2 -8l2 8l4 -2v-12l6 -14v-31l-4 -64l2 -32l13 -64l-9 -30l-2 -66l-2 -64v-65v-57l2 -68v-70l-6 -63l4 -64l2 -67l-2 -64l-10 -69 l-10 -31l-23 -61l-18 -17l-4 -14l-39 -53l-57 -37l-23 -23l-14 -4zM549 219l2 2l16 15l4 20l7 6l-5 14l5 64l8 22v66l-8 31l6 26v64l-4 63l-7 66l9 65l-4 64v65l10 31l-2 29l-2 67v66l-9 35v30l3 66l-7 14l-30 58l-13 2l-4 10l-16 2l-2 8l-57 4l-60 -18l-27 -23v-6l-14 -12 l-4 -39h-10l-6 -45l2 -61l-4 -72v-60l8 -65l-4 -64v-67l-15 -17l-2 -8l11 -30l-5 -9l-14 17l-10 2l-4 -8l4 -7l10 5l4 -5l-10 -4v-10h-8l-6 -6l2 -6l12 -8l10 6l6 12l9 2l6 -49v-66v-71l-2 -70l-2 -67l4 -58l18 -63l27 -27l12 -2l14 -12h7l6 6h6l63 -14l17 4zM193 688v4 l-3 4l7 17l-19 -8l-16 -3v-6l12 -6l4 -6h-18l-6 4v-18l-11 -31l2 -12l9 -11v-16l24 4l2 17l17 53zM686 770v-6l8 -6l2 -6l-6 -4l10 -11l15 -6l16 6l25 33l-2 10l-31 17l-18 4zM137 776v-4v-29l6 -30l-6 -6l10 -9l3 4l8 -4l6 19l-2 10h-10l-9 10l11 8l18 -6l6 2l-4 13l-27 57 l-8 -4l8 -2l-2 -14zM735 928l2 -6l-2 -9l-12 -12l-2 -8l4 -6v-10l-4 -7l16 -28l11 -2l-5 16l2 8h9v54l-11 10h-8zM672 565v4l-13 41l3 15l-13 -4l-12 4v-11l10 -10l2 -10l-10 -27l-2 -16l4 -4l18 10l7 -2l2 8zM178 840h4l11 -6l4 6l-7 14l3 31l-11 14l-14 4l-6 -12l8 -23 l12 -10l-4 -2v-16zM633 1333v-4l-6 -10l-25 -21l12 -14l9 -4l2 18l32 19l5 8l-3 6zM260 596l2 4v12l-16 27h4l6 14l-12 -4l-8 -10l-5 -16l19 -25zM94 618l2 5l23 2l4 4l2 33l-6 6l-21 -15v-18l-6 -2l-2 -12zM113 565l2 -4l8 -6h10l2 4l8 2l-4 14l-6 5l-8 -2l-6 -13l-4 8 l-17 7l2 -15l6 -4zM754 977l-4 2l-7 2l-8 -4l-6 -14l14 -2l-4 -29l15 4l2 6l-11 29zM168 291l-2 6l-6 12l8 6l-6 7h-8v-11l-21 -10l-4 -25l8 3l17 18h6zM426 1403v-6l2 -13l10 -6h8l5 25h-25zM250 981l-2 -4l-4 -12v-17l12 -6l-2 35zM705 618l6 3l10 -3l12 -8l6 8l-8 3l-2 8 l-18 -2zM594 1245v6l-2 6l-19 13l7 -19zM119 268v-4l8 -10l10 4l-8 10h-10zM705 770l4 -2l4 -10l-2 -4l-11 -2zM735 762h-4l-10 6v8l8 -2zM465 1425h-6l-6 -6l2 -8l6 -4zM168 629v4v6h10v-10h-10z" />
<glyph unicode="p" horiz-adv-x="950" d="M655 608h-4l-35 -4l-63 -8l-66 -2l-65 2l-31 -6l-12 -10l-12 -25l-2 -16l2 -72l4 -14l-6 -29l-3 -35l5 -31l-2 -34v-66l4 -65l2 -64l-4 -6l4 -68l-6 -32l-9 -13l-14 -4l-16 -12h-15l-67 12h-33l-66 2l-14 12l6 15l-4 2l-2 14l-8 64v63l4 64v65l-2 60v63l-2 68v69l-2 68 l-2 65l-2 66l4 63l2 66l-6 68l10 65l-2 33l-2 63v66l-4 65l8 64l-6 70l2 30l10 8l-2 17l14 22l13 9l63 4l66 -6l63 6l66 -11l33 2l65 9l64 -9l63 -4l6 -6l10 -2l13 -10l30 -6l25 -21l14 -2l6 -16l25 -21l18 -24l15 -10l10 -29l29 -59l8 -31l6 -4v-11l4 -4l-2 -24l8 -64 l2 -63l2 -66l-2 -65l-6 -68l-8 -22l-12 -60h-11v-14l-26 -47l-23 -27l-45 -47l-20 -8zM586 823l4 2l4 6l8 3l-2 8l14 20l7 31l10 12l-4 33l8 66l-6 6l-4 16l6 47l-8 51l-13 31l-24 64l6 2l-2 6l-8 6l-9 14l-18 8l-2 9l-18 2l-25 12l-18 2l-37 -4l-64 -8l-29 -49l5 -41l2 -70 l2 -59l-15 2l-6 -4l-4 -13l4 -2l12 10l5 -4l-5 -12l5 -47v-64l-13 3l-8 -5l4 -22l15 -29l4 -33l22 -34l35 -9l78 7l57 14zM690 1010l-2 -2l-4 -17l2 -35l8 -10v4l15 11l-4 14l14 4v25l-10 -3l4 -12l-15 4l-2 15zM317 1225l2 -2l15 -9l12 5l6 6l-8 8v22l-6 9l-6 -7h-8v-26z M670 842l-2 -4l-15 -17l2 -4l9 6l16 -6v14l-4 9zM219 354l6 -2l21 2l4 8l-21 5l-8 -5zM338 236h6h4l8 20h-12l-6 4v-24zM610 1434h-4h-8l-2 -4l4 -3l6 -16l4 -2l4 4zM250 330l4 -2l4 2v14h-8v-14zM324 250l-2 -2l-5 -8l5 -4h10l-2 10zM616 1362v-4v-6h11v10h-11zM289 412v4 v6h-10v-10h10z" />
<glyph unicode="q" d="M670 -315h-4l-39 6l-31 -6l-14 6l-60 24l-24 19l-23 6l-6 -2l-4 10l-27 14v11l-20 14l2 10l-29 21v8l-10 6l4 14l-8 -4l2 11l-23 18l-14 55l4 8l-2 5h-8v16l-17 27l-12 12v8l-12 2l-23 19h-18l2 12l12 12l-10 -2l-6 -10l-8 -2v4l-15 4l-41 27l-34 53l-23 24v9h-10v10 l-10 20l6 4l-13 17l-12 33l-10 71v64l4 65l-4 64l-2 61l4 55v66l-2 76v67l2 66l4 63l-2 33l-8 64l2 32l-2 68l6 10l8 58l19 63l-5 4l11 10l4 25l12 12l2 15l29 26l4 15l12 10v10l8 2l17 23l14 4l2 8l12 2l48 27l2 8l36 2l27 12l12 -8l-2 8l19 6l33 -4l2 -6l24 10l15 -6l49 8 h34l19 -14l63 -12l-10 -13l6 -16l11 -12l4 2l2 8l-6 25l47 -31l30 -12l11 -11v-10l4 -4l10 4l4 -14l23 -13l12 -28l33 -58l10 -30l2 -33l6 -6l2 -23l10 -14l-4 -39l4 -31l-4 -63l8 -66l-4 -8v-14v-66l-2 -55l-2 -70l2 -71l6 -60l2 -71l-6 -66l-10 -29l6 -30l-2 -68l-4 -63 l4 -29l-4 -21l-16 -55l-11 -12l-2 -31l-10 -10l-2 -21l-20 -24l-4 -17l-41 -36l-27 -17l-33 -8l4 -4l-14 -6v-13l-53 -24l-11 -12l-14 -31l19 -29l20 -20l35 -19l57 -2l33 -6l12 -8v-8l11 -9l-11 -14l8 -12l7 -27l-2 -35l-13 -67l-16 -8l-16 -2l-7 10l-18 -2l-2 -6zM391 213 l2 -2l21 -14l35 -4l59 6l39 24l6 -4l8 8l-6 13l10 43l17 59l2 35l-2 67l4 62l-11 63l7 64l2 69l-4 66v68l2 61l2 68v67v64l-4 61l-9 66l-10 26l-49 31l-10 -6l-41 16l-39 8l-27 -8l-24 -22l-2 -8l-15 -11l-18 -24v-8l-8 -3v-43l-6 -4l6 -6v-8l-6 -63l10 -64l-4 -33l2 -32 l2 -64l-4 -63l4 -66l-4 -66v-67l-4 -68l-2 -61l6 -64v-65l-13 -8l7 -7l6 -16v-16l8 -66l18 -26l25 -23zM571 -188l2 2l9 4l8 14l-6 6l-21 6l-6 6v25l14 -10l11 2l-15 47l-10 10l-14 -10l24 -14l-2 -4l-28 -15v-10l-5 -4l-10 14l-14 8l10 -20l-4 -6l4 -6h-6l-10 -11h-4 l-4 -28l8 -2l4 -17l6 -2l31 25zM709 834l-2 -3l-11 -6h-18l-19 -49l13 -39l16 -6l2 -8l8 -2l9 27l-5 32l21 35l-6 4l-2 10zM215 946v4l-4 23l4 8l-16 16l-15 9l2 -21l11 -31v-32l-9 -31l11 -19l10 -4l-2 17zM635 1137v-2l4 -19l-4 -33l16 -28h8l5 22l-15 64l2 33l-6 22z M678 981l-2 4l-14 4l-17 -18v-8l10 -9l4 -8l-4 -8l7 -25l-3 -10l11 -4l8 -14l6 4l-6 4l6 14l-18 29l-2 20l14 17v8zM444 -119l2 2l9 23l-11 6l-12 41l-8 2l-4 -4v-8l10 -13l-6 -16l12 -12l2 -17zM635 150v-7l-4 -37h28l-2 9l-12 10v4l19 21h-29zM463 51l4 -2l25 -4l6 -4 l-4 18l-21 23l-10 -21v-10zM297 434v-2l-2 -8l8 -37l10 -6l9 4l-7 21l-10 10zM406 27v-4l10 -13l18 -2v29zM356 33l4 -2l15 -4l-2 18l-13 6zM279 213h4h14l-4 14h-10zM199 1069l2 2l2 8l-4 8l-9 3l3 -17zM614 -231l-2 4l6 22l-8 2v-14l-10 -10zM184 1128v-4v-12h9v16h-9z M741 -182l-4 2l-10 2v-10v2l8 -2zM449 -23l2 5l4 6l-11 6l-6 -10zM455 -41v4v6h-11v-10h11z" />
<glyph unicode="r" horiz-adv-x="931" d="M270 -4h-4h-35l-67 6l-27 8l-10 21l-2 32l-10 41l6 31v35l4 59l10 35l-6 31l-4 65l2 66l2 66l-12 65l-2 33l4 65v66l6 65l-6 33l2 33l8 31l-4 63l4 68l-4 30l2 60l-2 72l-4 6l-6 32l4 31l4 64l-2 67l-2 68l28 33l11 4l59 2l76 -4l65 -6l29 2l64 2l69 2l6 -4l33 2l31 -9 l10 7l37 -13l12 -8l4 -10l23 -8l55 -35l4 -8l25 -13l22 -20l15 -29l20 -59l6 -33l11 -10l10 -49l-6 -4l6 -29l-6 -17l10 -28l-4 -15l10 -49l-6 -6l-2 -51l-2 -70l-6 -14l6 -10l-10 -13l4 -12l-9 -14l-8 -47l-10 -29l-23 -24l-40 -54l-27 -22l-14 -4l-7 34l-8 68l-6 -2l-12 6 l-8 -10h-19l2 10l8 -2l17 27l-10 6l4 4h10v-14h24l-4 16l-12 2v4l6 2l-14 33l10 33l-2 22l6 15l-24 18h-19l4 -10l-8 -8l-22 4l16 20l14 6l19 2v11l14 16l-2 18l-20 25l-2 10l10 10v9l-19 63l-10 -8l2 -41l-29 -18l-8 -15l-4 8v68l-10 66l-12 14l-13 43l-20 27h-4l-66 10 l-65 4l-31 -14h-8l2 -9l-10 -30l-5 -62l3 -65l-5 -66l9 -33l2 -32l-6 -31h-5l-12 29h-4l-14 -15l4 -16l-4 -19l8 -8l27 -2l-5 -20l-10 -4l6 -7l13 -30l6 -6l-6 -3l-17 19l-8 2l-4 -8l8 -31l-8 -14l2 -8l12 -3l6 -12l27 -57l23 -10l4 -9l-11 -22l-14 -6l10 -15l7 -36l12 -9 l-43 -14l-4 -14l-6 -4v-5v-63l2 -66l2 -63l-2 -66v-63l-2 -66l-7 -65l7 -68l-13 -51l-14 -4zM823 -4h-2h-22h-68l-74 12l-26 10l-10 21l-21 63l-8 64l-10 14l-4 23l-21 59l-8 33l-2 31l-17 28l-24 47v17h-4l4 10l-4 4l4 14l-12 41l-5 31l-14 29l-10 33l-35 32l-8 50l4 4 l2 -9l10 17v26l-10 7v8l-10 6l-4 10h-17l-2 12l-6 2l14 33l-28 35v10l8 -2l6 -12l23 -2l10 -8l24 4l64 6l2 4l12 -4l27 10l22 21l17 8l2 22l6 7l4 32l8 11l19 -5l-2 -8l-19 -10v-10l6 -4l17 16l16 -2l6 -25l-35 -8l-12 -8v-14l12 -11l15 -4h20l-16 -32l6 -11l-25 -14l5 -22 l-5 -9l27 6l31 -10l10 -10l-6 -14l4 -23l2 4l4 -6l-22 -29l2 -8l10 -12l2 -16l10 -64l17 -27l16 -45l10 -61l15 -31v-24l8 -31l18 -62l19 -53l16 -63l18 -66l9 -14v-35l10 -8l-6 -25l-13 -16h-6zM741 115v2v4l-16 18l6 4h-10v11l-23 24l-6 15l10 14l-8 6l-6 12l-6 31l14 -4 l2 6l-16 4l-6 23l2 14l-6 12l6 6v7l-8 2l-2 4l8 14h-8v-6l-13 -8l-2 -25l-10 -2l-2 -4l21 -43l10 -35l-13 -12l-2 -16h-10l-10 -11l16 6l6 -2l3 -10l-5 -6l-24 2l-12 -29l8 -4l6 8l33 7l10 16l14 8l-2 -20l-10 -2l16 -17l-4 -10h15l4 -10h22zM199 995l-2 -4l-2 -8l18 -29h-4 v-4l12 -10l31 25l-6 41l-25 36l6 11l-14 14l2 -37l-4 -12l-12 -8l22 -11l-2 -2l8 -8l-8 -4zM678 100v6l-2 13l-23 20l-2 -6l11 -20l-5 -4l-6 8l-22 -6l-6 -17l22 6l8 -12l11 8zM672 535h-4l-25 -23l-12 -6l-8 4l2 -8l22 -21l2 -8l8 -2l5 6l-5 15l11 18l-6 14l16 2zM193 242 v-6l10 -19l30 6l5 8l-11 9l-14 -4v8l-10 8l-4 -6l2 -2zM633 961v-7l-19 -14l-8 -12l2 18l-4 4v21l25 4zM633 668h-4h-11l5 -21l14 -4l-4 8v17zM633 1014l-2 -2l-2 6h4l-4 8v16l4 7l8 -13zM647 422h4l8 4l3 16l-9 -4zM188 795v-4l-8 -17l8 -4l7 18zM653 623l-4 -2l4 -3l2 -16 l2 16h-4v5zM213 922l-2 4v4l-8 2v-10l4 -7z" />
<glyph unicode="s" horiz-adv-x="884" d="M651 70l-4 4h-8l-10 -13l-13 2l-4 7l-14 -4l8 -15l-2 -4l-20 2l-25 -8l2 10l-8 10h-18l4 -22l45 -8l-9 -19l5 -14l-19 -6h-31v14l-10 -2l-4 -8v-14l-65 2l-60 8l-18 -4l-29 14l-18 2l-56 23l-4 -4l-4 6l-33 20l-16 6l-8 15l-2 -4l-4 2l4 8l-6 2l-17 24l-24 25l-6 18 l-17 23l-18 68l-17 61l-2 65l-6 68l4 31l15 31l45 12l71 6l35 -4l31 -8l26 -15l5 -10l-3 -63l3 -70l12 -64l31 -57l14 -2v-10l18 -4l31 -15h41l35 7l28 10l29 26l8 15l19 -8l4 2l2 24l12 12l17 -10l-11 27l-18 2l6 20l-4 21l-8 14l-4 49l-11 29l-8 8v15l-16 34l-10 9l-7 24 l-12 2l-2 17l-33 22l-39 49l-4 15l-34 22l-19 19v8l-27 16l-22 23h-16l-9 12l-47 49l-35 55l-43 47l-2 9l-10 10l-33 61l-6 31l-6 4l6 6l-14 25l-10 49l-13 61l-8 3l8 45l9 65l14 27l2 14l12 8l13 37l12 12l6 33l4 4l53 43l6 17l21 10l16 18l17 2l55 27l18 4l13 -6l20 6 l70 6l63 -4l33 -8h31l51 -27l10 -12l13 -2l10 -10l18 -6l8 -17l45 -47l25 -61l10 -13l-2 -14l6 -35l15 -59v-70l2 -67l-6 -29l-43 -14l-33 -2l-60 2l-65 10l-12 35l-4 65l-3 70l-8 29l-10 16l2 10l-16 21l-29 18l-33 8l-39 2l-30 -8l-25 -14l-18 -25l-15 -28l-10 -35 l-12 -27l2 -18l10 -31l25 -64l34 -55l5 -14h10v-10l10 -13l14 -8l31 -39l29 -18l20 -23l37 -55l21 -10h8l10 -13l47 -45l6 -16l13 -6l41 -49l6 -2v-11l22 -20l2 -14l37 -52l8 -30l23 -60l6 -4l8 -47l8 -65v-68l-6 -31l-6 -4l-14 -55l4 -4l-6 -25l2 -4l-39 -49l-37 -51 l-25 -21l-30 -16l-6 10l-5 19zM301 139h-6l-21 4l-8 13v8l15 -4l14 2l20 12l-2 8l-41 45h-10l-26 -20l-15 4l-14 -43h4l6 -14l49 -43l27 14zM633 1171l-2 -2l2 -53l12 -4l17 4l16 -2l12 -8l15 10l-5 17l17 4v24l-10 -2l4 -12l-11 2l-4 6v10h-18l-8 4l-2 7l12 18l-8 2l-17 -8 l-8 -12zM422 70l2 4l4 14l10 12h15l-4 15l-11 12l-16 2l-2 -14l-37 -15l8 -24l12 -10l3 4h16zM315 1372l2 -4l13 -10l6 -15l8 -2l4 19l-2 14l-10 68l-6 2l-2 -19l-4 -4h-9l7 -16v-16zM524 66l4 2l39 10l13 8h-13l-65 -10l-6 -6l2 -9l10 -2zM612 133v6l4 11l13 2l8 -5h14l6 7 h-6l-6 12l-18 4l-15 -6l-8 -10zM147 340l7 -2l20 -6l14 2l-24 31h-10zM750 358l-2 -4l-13 6l-4 -2v-6l12 -20l-8 -13h8l7 7l4 12zM365 1260v6l-7 10l-6 2l-14 -6l-4 -8zM457 100l4 -2l20 -8l-2 16l-8 13l-2 -10zM569 129l2 4v4l-14 8l-12 -6l14 -10h10zM780 428v-6l-6 -19 l19 11l2 8z" />
<glyph unicode="t" horiz-adv-x="841" d="M784 1358l2 -2l7 -8l6 -31l-2 -35l-11 -10l-26 -10l-33 -2l-70 2h-69l-29 -9l-6 -14l2 -4l-8 -18l2 -13l-4 -26l-8 -64l6 -65l4 -62l-8 -65l2 -31l2 -64l2 -69l4 -66l-2 -61v-68l-2 -65l2 -66l-8 -61l6 -31l-2 -68v-61l12 -64l-4 -32l-10 -31l-2 -66l-23 -6l-61 -20 l-35 -4l-33 4l-63 16l-9 10v9h-8l-4 4l2 16h-8v45l2 64v65l2 68v65l4 64h4l4 -8h11l20 14l-4 -6l10 -10l-2 -13l6 6v9l-10 24l-25 -12l-14 2l-6 59l6 15h-4l-2 51l-2 67l4 64l-4 35l8 65l-6 31v33l2 63v66l-2 67l20 -6l-6 31l-10 -4l-4 4l-4 43l4 14l6 6v9l-2 63l-6 10 l-2 21l-21 24l11 7l4 16l-2 14l-6 6l-15 -8l-4 -8l4 -16l-18 6l-29 -4h-69l-33 -8l-35 6l-27 14l-6 14h-8l-2 17l-6 65l4 31l10 29l-2 20l8 6l2 8h8l13 11l49 -2l63 4l62 -6l72 -7l53 7l31 -2l69 -5l31 11l49 -6h31l63 4l68 2l67 -4l13 -11l2 -12l4 -57l-15 -6l-6 -15l6 -14 zM231 1333l2 2l9 2l26 -4l6 4l-6 35l-14 27l-8 2l2 -21l-4 -28l-17 -11v-6zM348 297l4 -2l6 -4l-2 14l-8 2v-10z" />
<glyph unicode="u" horiz-adv-x="978" d="M737 51l-4 -2l-45 -31l-29 -12l-63 -16l-6 -6l-12 -4l-64 -5l-70 7l-30 -5l-8 5l-11 -5l-10 9l-14 -4l-2 8h-9l-4 4v8l-20 4l-4 6v19l-15 -6v-9l-24 9l-55 30l-15 21l-24 22l2 6l-23 39l-18 15l-2 14h-8l2 6l-7 15l5 12l-11 24l2 52l-16 65l4 31v61l-8 70l-4 65l4 64 l-4 33l8 63l-4 31l4 6l-2 51l8 64l-10 30v33l4 66l-6 28l-2 33l10 66l-2 63l6 33l-8 33l-2 33l-4 61l4 33l14 63l25 23l14 -6l10 -29l6 18l7 7h8l-17 6l19 6l47 -6l65 6l31 -6l8 -9l2 -12h9l6 -10l-2 -33l-4 -57l-13 8l-20 -35l12 -10l6 2l2 8l4 -2l-4 -12l15 -21l-25 13 l-6 -2l-6 -9l4 -6h8l4 4h10l11 -8l-11 -14l11 -10l-4 -47l4 -66l-2 -33l4 -61l-4 -33l-4 -68l2 -65l-2 -66l-3 -55l-2 -68l2 -71l9 -66l-13 -65l2 -33l5 -64l2 -67l8 -62l22 -45l-2 -8l-6 15l-16 -9l-17 -2l2 6l17 11l-8 6l4 8l-4 2l-17 -12l-8 4l12 -47l11 -6l10 4l-4 -4 l2 -11l8 9l8 2l10 10l7 14l26 -14l64 -12l63 16l29 16l8 13l8 34h10l2 13l7 59l2 68l2 63l6 4l2 11l-8 -3l-4 5l2 8l-4 4l12 4l31 -14l2 12l-13 22l-22 -12l-10 2v37v66v63l4 4l-7 17l5 65l2 66l6 -11l8 2l2 11l21 14l4 8l-2 15l-17 20l2 14h-6l-16 -12l-6 2v64l8 -11l6 2 l-6 23l-8 10l-3 41l3 64l-7 63l9 64l2 65l-4 64l-7 65l17 -4l8 -6l-4 -12l10 -13l8 29h6l-4 6l-8 2l-6 19l2 14l-10 6l-4 -2l-6 -14l-2 -21l-7 13v26l15 15l14 2l2 8l39 -4l8 4l8 -8h62l29 14l26 -4l12 -8l25 -9l10 -28l2 -27l-2 -65l-4 -66v-63l-6 -33l8 -62v-63l-6 -64 v-69l8 -33l2 -66l-4 -53v-74l4 -67l-4 -60l2 -69l-10 -31l4 -55l2 -68v-63l-16 -68l6 -10h-10l4 -14l-13 -39l-8 -15h-8l-4 -14h-10l-6 -20l-17 -27l-22 -12v-11zM219 1391l-4 4l-10 -4l-10 10v-35l18 4l6 -10l-12 -17l-8 -2l4 -8v-14l-8 -31l6 -26l12 -66l16 -27l4 13l17 6 l4 6l-2 57l4 11l-2 18l-16 31l6 16l-15 8l2 25zM512 74v6l-2 12l-6 6h-10l-7 17l-10 -2l-6 6l2 10h-37l-10 -10l-6 -15h8l8 13l8 2l-8 -27l2 -12l17 8l18 2l8 -14l19 -4zM180 563l2 -2l17 -35l10 -10l10 -2l2 33l12 28l-14 19l8 10l-2 4h-10l-4 -16l-6 2l-2 12l-8 2l-7 -20 h15l2 -4l-17 -9zM293 539v4v26l-31 15l6 8l8 2v22l-14 25l10 31h-14l4 -2v-8l-12 6l-23 2l-8 6l4 -12l10 -13l5 6l8 -2l8 -8l8 -49l-16 -29l2 -6l8 6l16 4l13 -30zM219 989v4l-6 13v8l4 4l21 -2l6 8h-4l-19 16l-2 9l14 -7l5 7l-7 10l-2 18l-10 -4l-14 8l-6 -12v-31l10 -14 l-4 -6l2 -19zM670 1391l-4 -2l-7 -7l-4 -20l9 -35l22 2l12 8l-2 11l-10 10l-4 24l-8 15l-10 8zM776 313h-4l-31 17l9 -35l12 -27l6 -4l4 2zM670 266l-2 -4l-4 -37l38 11l-2 14l-22 20l-2 -4h-6zM645 1186l6 -2l23 16l2 -4l8 4l-6 19l-23 -2l-12 -11l-2 -12zM244 926l2 -2 l10 -19l6 6l-20 33l-9 2l-8 -31l4 -12l9 -2v12zM180 1112v-4l4 -21l23 7l6 -2v10l23 12l2 6h-15l-4 -8h-12l-12 -10l-7 8zM248 489v7l2 16l8 12h-12l-8 -14h-11l-8 -10l4 -2v-9h25zM727 143h-4h-14l-7 4l5 -28l6 -4l4 4h10v24zM244 700h2h6l2 -4l-4 -10l8 -4l-2 25l-6 12 l-12 10l-5 -6l3 -6l12 -10zM283 809l-2 -2l-2 -12l6 -15l8 -2l-2 19zM229 862v-4v-20h4v4l11 -6l4 6l-6 2l-4 16zM772 330v6l-4 8l-14 2l-2 -8zM537 74l2 4v6l-13 10l-4 -6l4 -12zM238 178v4l-7 19h-6l-2 -4l4 -2l6 -17h5zM698 217h4h7l4 14h-15v-14zM254 745l-4 3l-12 6 l6 -19zM709 553l2 2l2 16l-11 2l3 -16zM625 559v-4l4 -8l16 -6l4 4l-20 8l-2 10zM213 1419h-4l-19 -10l5 -4v4h16l4 4zM629 881l-2 -2l-2 -7l-4 19l18 -8zM213 1434v6l2 4l-4 12l-6 2zM293 745v7l-2 10l-4 -21zM233 1161h-4h-6v-10h10v10zM653 915l2 5l2 6l-4 4l-4 -8z" />
<glyph unicode="v" horiz-adv-x="901" d="M606 182v-4l2 -12l-4 -31l-12 -12l-10 -55l-17 -48h-8l-20 -18l-35 -2l-70 2h-65l-25 8l-23 60l-10 63l-10 10l-2 23l-6 2v47l-6 10l4 21l-6 30l2 33l-11 10v9h-10v20l-12 12l8 2l4 11l17 -6l6 2l2 8l-4 6l-31 -6l4 14l-6 35l-8 4v25l-8 2l10 22l-4 13l-17 59l-14 65 l-12 64l-19 63l2 31l-6 8l6 6l-14 41l-6 33l12 6l2 6l-6 21l2 10l-10 -6v-8l-6 6l-2 14l8 4l-17 19l-2 12l4 4h-6l-4 6l19 15l-4 4l4 2l41 6l4 -6v-19l39 11l-2 8l6 29l30 57l-2 16l-22 8l4 25l6 4h10l-10 55l-10 68h-49h-64l10 -8l15 2l-4 -19l4 -24l-4 -14l12 6l6 24l14 8 l5 -8l-7 -16l5 -4l12 -2l-4 -13l-15 -8l2 -26l9 -11l8 -30l-8 -25l-11 -2l-10 -10l-8 2l8 -8l14 -6l-2 -9l-12 -14l-4 4v10l-14 11v8h-17l-6 4l-2 8l4 12l-24 -10v10l6 11h8l-2 16l-8 2l20 25l-10 18l-18 2v10l14 19l-2 4l-17 -10l-10 2v18h15v21l14 6l-6 12h-17l-4 -16 l-4 -2l-8 14l-4 18l6 13l-8 22l6 6l-4 47l-10 31l-11 10v25l-10 16l4 47l21 15l43 2l63 -4l66 -8l6 6l24 -17h9l-2 -10l4 -33l10 -12l2 -23l10 -10l2 -39l8 -32l-2 -50l7 -6l-7 -14l9 -31l14 -63l2 -35l-8 -2l-2 -4l10 -11l2 3l-2 -11l16 -16v-59l11 -72l10 -64l8 -20 l-6 -25l12 -63l6 -4l2 -21l11 -20l4 -66l6 -33l-14 5v-13h14l4 -39l10 -10l8 -16l7 -4l6 2l8 12h10l-2 16l4 4h8l4 27l-4 12l4 6l-2 31l7 17l-9 4l15 45l4 39l6 14l-8 23l12 2v34h10l2 13l2 57l7 35l8 67l14 64l10 63l11 4l-15 11l2 63l13 10l4 25l6 4l-2 14l4 23l12 27 l-2 49l12 4l2 29l7 6l-3 18l7 29l12 31l31 8h30l70 -2h63l15 -17l-6 -4l-13 12l-10 -6v-45l4 6l15 9l6 14l4 -12l-2 -33l-13 -64l-12 -65l-6 -2v-4v-64h-14l-11 -10v-8l11 -21l-2 -10l-47 4l-7 6l2 -10l-6 -20h15v-9l-15 -6l-14 6v-24l-6 -6l10 -6l25 16v10l34 10v-24 l-16 -66l-14 -67l-6 -64l-15 -65l-8 -66h-10l-10 -65v-33h-4l-5 -6l-12 -62l2 -6l-6 4v31l-8 4l-10 -16l-11 -33l2 -8l7 -4l16 -2l-2 -29l-16 -60l-9 -71l-12 -60l-20 -22l12 -21v-8l-6 -8l-2 8l-4 2l-7 -14v-35l-2 -67zM637 1180h-4h-4l-2 -25l12 -4l6 -10l25 6l8 -2l2 -15 l-25 5l-4 -9l-14 4l-10 -10l18 -14v-35l6 -4h21l4 -4l-12 -14l2 -7h28l15 50l6 4l-10 6l-11 14l2 8l23 6l6 7v8h-18l-7 24l5 11l-11 4l-10 14h-8v-8l-6 -6l-6 2l6 22v25l-33 6l-4 -12zM461 412h4l10 2l12 10v10l-30 8l-2 9l14 28l-4 6l-2 -6l-12 10l-11 -4l-18 11l16 4l2 4 l-28 8l-15 -8l-4 8h-12l-4 -8l10 -2l-4 -15l4 -2h-20l-9 -30l7 -11l8 -4l18 33l10 2l11 -14h-9l-8 -12v-11l6 -12l2 4l13 -4l10 10l18 4zM158 1341v7l-8 4l-3 8l19 -4l-8 49l-13 6l2 8l-14 -2l-8 -12v-19l12 -20l4 2l6 -8l-10 -8l6 -15l7 -2zM676 993l2 2l10 31l-2 8l-6 4 v-10l-14 -14l-2 6l-23 8v-10l8 -14l13 -11l2 4zM274 1096l-4 -2l9 -9l-5 -8l15 -2l24 6h21l-2 9l-6 4l-19 2l-14 6l-17 -10zM270 514v4v25l-12 -2l-2 -9l-10 -10l-6 2v-14zM719 1239h-4h-21l8 -16l27 -19zM655 1087l4 5l7 6h6l28 -17l-6 -4zM229 1415l2 4l9 4h-7l-12 9 l-8 14l-8 2l2 -14zM162 1008l-4 4l-6 4l-15 -17l-4 2l4 3l-4 14l-6 6l4 2l27 -4l4 -4v-10zM117 1444l-2 -2l-2 -19l4 -6l10 2l-4 19zM426 387l2 -2l18 -2l9 4v4l-23 2zM279 1311v6l6 14l-15 4l4 -14l-10 -4zM621 1116v-4l2 -16h8l-2 16zM215 680l4 2l2 4h-4l-10 14l-6 -4 l8 -8l-4 -8h10zM381 426l-2 -2l-2 -8l4 -4h10v4zM641 1155l2 4l-2 10l4 2l6 -6l-2 -8zM690 1180l-2 -4l-2 -2l-6 4v12zM426 461h4l4 -2l2 -8l-6 -5l-4 5v10zM342 309h4l12 10l-14 -4z" />
<glyph unicode="w" horiz-adv-x="1306" d="M836 -6v4l-5 6l-22 10l-4 17l-14 63l-11 66l2 30l-10 19l-10 67l-10 15l4 20l-6 17l-5 65l-12 27v39l-10 65l4 6l-8 11l-2 22l-6 4l-11 64l-10 65l-8 66l-12 57l-6 6l2 11l-11 4l-16 -15l-18 -24l-3 -19l-4 -69l-14 -29l6 -25l-6 -10l4 -20l-4 -19l4 -4l-8 4v-24l-8 -17 l-6 -39l-7 -14v-10l7 -6l-2 -8l-9 -9l-4 -49l-14 -63l-10 -64l4 -31l-4 -8l-4 -30l-13 -23l-2 -16l-6 -62l-12 -65l-6 -6l-2 -29l-11 -29l-22 -4l-68 -12l-32 4l-27 10l-35 6l-12 19l-17 45l-6 35l2 45l-14 55l-10 29l-10 63l-11 68l-6 8l4 14l-8 31l-6 65l-10 17l10 10 l-12 10l-4 13l-3 51l-4 6l-4 33l-14 55l4 37l10 14l8 2v11l15 14l10 49h18v8l-10 10l13 29l-3 10l-20 -8l-10 -31l2 -18h-10l-19 -14v-6l14 -9v-10l-16 -22l-8 -2l-2 12l-8 2l-2 33l-13 63l-10 64l4 12l-14 63l-8 66l-13 29l-2 18l-8 64l-12 28l-2 27l-2 63l-8 19l-9 57 l-10 10l2 13l-2 65l8 6l2 8l6 3l66 8l31 -4l65 2l33 -6l10 -13l11 -26l8 -70l12 -64l-2 -28l14 -66l6 -6l-6 -18v-39l4 -35l11 -12l8 -58l-2 -32l10 -11l-2 -12l4 -8v-62l6 -16l-4 -14l4 -33l10 -31v-43l11 -69l-4 -13l10 -39l18 -26l4 -15l17 9l6 36l10 15l6 33l13 57 l12 65l-4 7l2 12l12 70l8 67l17 59v15l4 6l-4 27l6 30l16 58l2 20l4 70l13 63l12 31v68l6 4l-6 6l20 33l41 6h68l63 -6l9 -9l14 -28l6 -39l-6 -17l10 -55l8 -63l17 -62v-31l8 -65l16 -59l-4 -29l4 -14v-31l11 -70l4 -2l12 -29l2 -14l-4 -18l4 -15l-2 -18l-6 -6l8 -21l16 -18 l2 -57l13 -66l12 -27h12l9 13l8 34l16 64l-4 33l14 16l-10 6l6 37l10 31l5 55l6 66l8 63l6 14l-2 48l12 28l-2 72l6 4l7 12l2 33l10 29l6 47l-6 47l12 68l12 26l33 25l60 -2h73l-4 -17l4 -14l13 8l2 17l20 -7l8 -12l4 -35l-2 -30l-10 -64l-14 -65l-13 -68l-8 -64l-14 9 l-18 -17l4 -8l22 6l4 -8l-12 -22v-11h-18l-7 -4l2 -20h5l-25 -15v-6l8 -10l17 8l4 -2l6 14h8l-6 -18l-4 -35l-15 -4l-4 -14l15 4l-4 -21l-9 -67l-12 -60l4 -10l-10 -61l-12 -64l-11 -69l-12 -45v-23l-8 -29l-10 -65l-4 -6l4 -8l-7 -13l-8 -51l-10 -14l-4 -49l-2 -66l-8 -31 l-13 -24l-8 -66l-2 -74l-6 -28l-20 -29h-9l-4 -4l-30 -6h-35l-6 29l-13 10l-14 -13v-8l12 -8l2 -10l-41 4zM240 889l2 4l4 18l-6 50l4 6l-25 4v-10l-6 -13l-14 -8l6 -66h6v11l8 4l17 -4zM889 135v-4l-19 -22l4 -9l25 6v-6l6 -6l19 -4l14 6l-6 13l2 26l-12 4zM170 1001l2 5 l12 22l6 2l9 -4l2 4l-17 14l-8 21l4 10l-14 8v-28h-4l-10 -13l-5 -34l5 -7l4 7zM375 233l2 5l4 14l-6 14l-8 2l-7 -12h-14l-10 -12l6 -4zM190 1006h7l12 -2l4 -7l2 -16h25l4 23l-4 8h-7l-10 -11h-8l-12 19h-4zM184 1143h-6h-8l-10 -10h4l2 -25h18v35zM1143 854l-2 -2 l-11 -18l-2 -17l15 -6v33h6l2 4l-4 6h-4zM635 1260h4l14 14l6 16h-14l-10 -22v-8zM557 836v6v2l-10 -4l-4 4l4 14l-4 2l-6 -4v-16zM983 262v4l-8 13h-10l-2 -11zM639 1206v4v7h-8v-11h8zM575 893v-4l11 -10v4zM659 1411l5 2l6 4l-11 4v-10zM659 1411l-4 -2l4 -6v8z" />
<glyph unicode="x" horiz-adv-x="860" d="M803 68l2 -5l12 -26v-19l-31 -10l-65 -14h-35l-68 12l-24 14l-6 13l-13 10l3 8l-15 17l-6 47l-14 61l-8 14l-9 50l-16 18l-6 33l-10 28l-2 17l-13 6l4 16l-14 56l-27 57l-6 2l-16 -4l-6 -10l-8 -31l-15 -20l-24 -54l6 -12v-10l-8 -4l-5 -21l-10 -14l-16 -62l-15 -30 l-2 -29l-6 -14l-8 -2l-2 -21l-6 -4l-4 -39l-21 -63l-24 -11l-25 -18l-16 -2l-33 4l-63 -4l-33 8l-13 8l-18 25l10 43l25 61l20 64l17 29l4 14l22 53l2 23l11 30v31l12 12v17h6l8 22h8l5 21l6 4v63l10 6l20 46l23 63l31 57v13l4 67l-17 60l-8 2l-4 20l-24 60l-7 32l-18 54 l-14 34l2 15l-4 18l-27 62h-4l-6 18l-21 59l-18 62l-10 2l-9 27l-16 65l-29 62l2 14l4 2l2 10l-8 2l8 12l11 3l4 -5l2 -16l6 2l4 14l19 7l4 6h16l14 6l47 -10h35l15 -7l16 5l29 -9l4 -8l14 -61l21 -64l-5 -4l11 -16l4 -17l18 -26v-13l13 -65l8 -12l10 -31l14 -68l19 -32v-19 l33 12l14 37h8l4 25l10 10l13 43l16 66l25 -17v-8l-7 -4l-16 -2l-6 -4l6 -6h14l9 -4l2 -7l-17 -14v-4l23 2l10 -10l-4 8l6 6l21 8l8 15l-8 16l-11 10l-30 13l-7 6l-10 26v31l17 70l10 18l20 66l15 28h4l10 11h29l14 10l53 -17l35 3l64 4l6 -11l4 -49l-6 -16l-6 -4l-13 -31 l-10 -12l2 -19l-12 -24l-6 -31l-11 -16l-2 -13l-14 -30v-9l-4 -4l-16 4l-15 -14l2 -8l8 -2l5 -6l-9 -49l-16 -29l2 -8l-23 -58l-8 -2l-6 -30l-12 -31l-4 -29l-21 -59l-16 -62l-19 -63l11 -10l-4 -4v-19l22 -59l16 -62l9 -12l8 -31l14 -28l21 -66l-4 -8l10 -12l14 -31l-2 -6 l-22 -11l6 -22l6 -2l16 14l6 -2l2 -14l23 -60l10 -10v-8l8 -2l15 -49l-4 -4l4 -23l-4 -6l20 -59l6 -2l8 -21zM221 1413l-4 2l-20 8l-11 -2l4 -59l11 -29l8 10l4 17l-2 33l10 10v10zM221 1178l2 4l13 6l-7 31l-8 4l-12 -33zM186 1255l2 -2l23 -8l-10 29l-11 12zM186 106v5v24 h-14l2 -20l14 -6zM373 688h6l10 8l2 17l-14 6l6 -17l-8 -6zM588 1174v-7l24 -14l4 6l-18 15h-10zM705 176v4l-3 10l-8 5v-17l6 -4z" />
<glyph unicode="y" d="M567 29v-4l-6 -11l-29 -14l-4 -6l-26 4h-70l-67 4l-27 10l-4 41l-4 64l-2 65l-2 70l2 70l39 -19l4 -6l4 2l-6 29l2 4l-4 -2l-2 -13l-9 5l-6 -3l-4 5l6 14l-22 35v43l4 65v70l-8 67l-15 25l-10 51l2 35l-14 8l-2 15l-8 2l-7 26l-8 2v6l8 13l-8 -4l-6 4l-4 14l-6 6l14 23 l-6 14l-8 2l-4 -4l-4 4l-2 19l-9 14l4 10l-6 10l-6 33l-22 60l-9 2l5 8l-17 47l-8 2l6 10l-8 10l-2 15l-8 10l-15 49l-16 29l-6 29l-10 61l-9 8l2 10l-16 64l-6 4l-12 22l-4 31l-13 31l15 29l51 4l69 2l66 -6l27 -7l22 -61h10v-18l6 -11l9 -2l10 -51l18 -61l4 -33l11 -14 l6 -56l4 -4l4 -18l16 -66l23 -61v-31l10 -10l6 -15l13 -12h12l20 23l19 67l6 -2l4 17h4l4 45l13 -2l2 -9l8 2l4 21l8 2l-2 6h-20l-7 4l15 25v35l14 32l16 66l11 65l12 11l8 51l21 59l8 9l43 4l72 2l63 4l14 -8l17 -2l14 -11l-6 -8v-27l-8 -14l4 -4l-15 -10l-14 2l-2 8 l-14 -14l-8 -2v18l-7 12l-2 -14l11 -35l-2 -6l8 -14l14 10l2 -4l-6 -14l-4 4l4 -35l-6 -23l-14 -63l-13 -8l-6 -17l-18 -63l-13 -39l-8 -2l-2 -27l-8 -24l-27 -60l-4 -16l-18 -64l-19 -65l-14 -13v-18l-8 -29l-8 -6l-2 -30l-13 -11v-8l-6 -10l-8 -35l-10 -14l-6 -21l-19 -61 l2 -21l4 -6l-6 -31l8 -49l4 -65v-66l-2 -67l-2 -66v-65l2 -64l-4 6l-10 4l-14 -6l4 -4h10l4 -14l-8 -11l6 -18h6l2 4l4 -2l-6 -14zM680 1174l-4 -5l-6 -8l4 -16l-15 -35l23 2l6 -6l-6 22l2 7l10 -2l6 4l13 26l-19 -2l-10 -8v14zM532 156l-4 -4l-2 -7l6 -18l-4 -25l4 -4 l17 37l-2 21h-15zM713 1227l-2 -2l-13 -4v-9l7 2l8 -14l6 2v29l10 29l-2 12l-8 -15zM582 1139l-2 -2l-13 -9l6 -12l2 -16h9l6 6l-4 4v-4h-4l-2 6l16 4l-8 21zM719 1329l-2 -4l-10 -20l-9 -33l11 6l14 47zM743 1350l-2 -2l-14 -2l-4 -7l8 -4l14 13l7 16l-19 10v-14zM698 1036 h-4h-26l-9 -10l29 -14v14zM279 793h4l6 4l8 24h-25zM684 1208l2 -6l-6 -10l4 -4l2 4l12 -4l-2 12zM610 969l2 4l-2 4h-14v-4h4v-4h10zM684 1100h-4l-10 -4l14 -11v15zM508 68v-5v-4l10 -6l4 4z" />
<glyph unicode="z" horiz-adv-x="854" d="M733 2l-2 -2l-20 -4h-84l-64 2h-65l-15 -6l-24 2l-64 14h-33l-67 -6l-64 -4l-63 4h-64l-14 10l-2 6l-12 64l2 68l10 4v6l16 61l19 17l8 49l10 8v16l11 8l2 13l18 55l12 10l15 49l14 39l27 62l18 61l6 6v9h10l2 14l-4 8l2 4l13 -6l6 10v9l-8 12l12 22l10 31l8 4l7 17l6 4 l-2 8l16 63l16 29l4 16l9 11h-4l14 39l20 24v10l19 62l6 6l-2 10l10 33v20l10 2l7 23h8l10 18l14 35v8l9 11l6 61l-11 14h-4l-4 -6l-12 13l-31 6l-63 4l-66 -4l-69 -4l-66 2l-29 6l-10 16l-8 33l-2 39l4 6l-4 10l-2 39l6 31l14 24l45 7l70 2l61 -4l62 2l67 -7l64 9l63 -9 l66 7l61 6l68 -13l4 -30h8l4 -4v-64l-6 -6l4 -20l-4 -15l4 -18l-12 -6l-2 -33l-8 8h-8l-4 -4l2 -12l12 4l-14 -45l-13 -11l-4 -20l-8 -4l-4 -25l-6 -14l6 -4l-14 -25l-21 -63l-12 -10l-4 -9l-2 -24l-13 -17l-4 -32l-16 -27l-25 -61l-22 -62l-8 -2l-9 -41l-32 -53l2 -19 l-4 -26l-7 -2l4 -10l-10 -5l-2 -16l-12 -29l-10 -10l-9 -49l-6 -4l-10 -29l-16 -26l-6 -33l-11 -10l-8 -31l-12 -8l-4 -25l-10 -14l4 -8l-4 -2l-17 -35l-22 -62l-5 -37l11 -10l26 -10l68 4h68l63 -2l66 6l30 -2l64 -14l12 -49l4 -70l-6 -68zM317 1372l2 2l17 12l6 15l-2 10 l-18 12l-31 4l-37 -2l-6 -20l-12 -10l-3 -13l7 -14l10 -2v18l4 13l10 -6v10l25 6l2 -21l10 -10zM557 967v4l8 24v15l-4 6l-4 -8l-4 4v8l4 4l-6 2l-23 -6l-6 -39zM543 1421h-6l-23 -6l8 -39v-28l8 2l25 22l-16 23v10l4 6v10zM401 1391l2 4l-2 30h-16l-4 -10zM406 799h-5 l-8 -4l-12 -29l22 2zM522 932h4l9 -4l12 4l-2 14l-6 4l-15 -8zM528 1309h-4h-6l-10 -11l6 -4l8 4l2 -8l4 -2l4 4l-6 6zM561 1206l-2 -4l-12 -16l4 -2l12 8l2 10zM518 1055v-4l17 -15l4 2l-9 4l-4 11zM518 918l4 -3h15l-5 7v-4h-4v6l-4 2l-6 -4v-4zM469 1274h4h4l8 10l-6 4z M268 1411v4v6h11v-10h-11zM240 375v4v4h-11v-8h11zM539 682l-2 -2z" />
<glyph unicode="{" horiz-adv-x="614" d="M483 -213l-4 -2l-30 -14h-35l-68 -2l-22 12l-17 16l-6 -2l-18 8l-4 -6l-37 21l-17 14h-10l-4 6l-41 53l-14 9v10h-11l-16 49l-10 68v63l6 66l8 67l12 10l-4 15l4 16l15 47v33l8 29l14 67l11 62l2 71l-7 33l-14 27l-20 20l-37 17l-33 6l-61 2l-15 14l-8 15v16l-4 10l18 62 h13l14 6l63 12l31 12l-4 -28l4 -6l12 10l7 16l-2 17h8l12 8l4 8h6l21 -19l16 5l10 -2v20l-14 12l-14 2l-17 -4l2 6l13 62l-4 35l-13 30l-2 66l-8 20l4 15l-6 35l-14 22v16l-11 11l-4 28l4 15l-10 30l-4 60l-10 61l6 31l-6 23l4 8l-4 4l6 2l8 -14v-11l-4 -2h25l-13 23l-12 10 l4 14l-6 6l-2 25l10 31l19 26l2 15l12 30l6 5l4 14l21 26l8 3l22 22l27 6l10 13l39 14l33 -2l29 10l28 4l72 2l20 -39l-6 -10l4 -14l-8 -52l-10 -26l-10 2l-21 -6l4 4l-4 14l-6 -2l-4 -8l6 -4l-8 -6l-16 -4l-4 6l-7 -6l-24 -4l-23 -23l-16 -6l-6 -19l-17 -28l-16 -62l-2 -65 l6 -33l10 -63l6 -15l-4 -20l15 -43l8 -35l2 -70l6 -4l8 -43l4 -63l-2 -72l-10 -29l-27 -57l-30 -14l-39 -39l4 -35l8 -12l4 4l6 -2l11 -13l14 -8l10 -14l41 -51l-4 -11l8 -4l-4 -16l8 -12l2 -11l-6 -24l6 -17v-16l-14 -63l4 -33l-6 -10l4 -13l-4 -35l-10 -67l-8 -2v-33l-7 4 l-12 33l-10 12l-6 29l-15 29l-14 6l-2 -6l16 -19l-12 -20l-2 -19l8 -6l4 -14l23 -11v-10l24 -18v-4l-14 -66l4 -35l-12 -6l-2 -16l6 -68l12 -59l6 -6l-6 -4l37 -52l14 -6l5 -6l16 -2l68 -8l28 -10l8 -19l-4 -49l4 -29zM223 -37l4 4l2 8l-8 48l-4 61l-8 2l-4 -6l-10 2l-2 -12 l4 -17v-61l8 -19l12 -10h6zM244 424h4h6l-6 14l10 4l-10 21h-15l-12 -29v-22l8 -2l-2 2zM219 150l-4 4l-20 -9l4 -34l16 -5l-2 -10h6l2 35l-12 8zM219 1450v4l6 29l-6 6l-10 -6l-14 6v-8l10 -21l10 -2zM244 170v6l-4 17l-17 16l-4 -37l4 -8h6l-10 4zM268 819h-6l-8 -14 l12 -10h15l2 10l-15 4l-6 6zM205 1157v4l-8 23l-7 2l-6 -4l4 -17l7 -6zM367 1612v-4v-6h14v6zM254 262v-4l14 -12l4 2h-4l-6 12z" />
<glyph unicode="|" horiz-adv-x="446" d="M285 -74l-2 -2l-35 -6l-37 -2l-35 4l-12 6l-4 6l-6 33l-11 10l-2 11l4 6l-2 55v64v65l-4 12l4 45l-4 66l4 33l-4 30l8 64l3 66l-9 32l-2 31l4 66l-4 8l4 18v31l2 63l-2 66l-4 67l4 33v62v67l2 66l5 65l-5 64l-2 65l7 33l-7 14v25v64l2 59l-4 65l2 76l15 39l20 15l8 -5 l64 -6l6 6l25 -8l8 -12l12 -35l-8 -12l-12 -2l10 -19l-8 -2l-4 -10l4 -6h20l2 -10v-64v-61v-60l2 -67v-72l-8 -63l4 -64l-2 -67l4 -68l-4 -33l8 -65l-8 -66l4 -63l-4 -4l4 -13l2 -30l-2 -70l4 -64l-10 -65v-64l2 -65l2 -68l2 -63v-62v-63v-70v-63l-6 -33zM203 1044v-6l4 -18 l20 6v-31l9 -8l6 4l-4 4l18 -4l-4 10l4 15l-14 4l12 4l2 16l-18 4l-11 -4l-2 9l-8 6l-4 -2l4 -11zM174 1339v-4l2 -4h10l2 8l-12 4z" />
<glyph unicode="}" horiz-adv-x="614" d="M231 -233h-4h-34l-31 6l-27 14l-4 27l-6 71l14 19l15 6l67 4l27 12l24 19l31 55l8 59v72l-4 68l-6 67l-12 60l-19 28l-6 49l-6 64l-6 63l4 35l4 -2l4 -12l2 4l-4 14v29l14 29l29 59l33 19l22 20l5 12l-3 17l-6 12l-41 33l-4 14l-14 12l-16 25l-9 4l-4 14l-6 4v39l4 7 l-4 8l4 6l-10 49l4 33l6 63l13 31l4 66l14 63l14 66l4 61v66l4 8l-4 22l-22 60l-12 12l-7 14l-12 -6l-6 2l-8 10l-31 15l-4 6h-6h-64l-24 53v35l10 29l12 8l9 -2l14 -21l10 33l8 6h29l2 -4l23 -4l65 -6l4 -6l47 -17l43 -28l4 -15l-2 -8l21 -6v-8h10l12 -19h11l18 -34l8 -3 l-6 -24l21 -43l-21 -4l8 -10l-2 -9l-10 -12l10 -6l19 2v-47l-2 -62l-15 -43l-2 -34l-6 -4l6 -9v-30l-6 -25l-12 -66l-13 -18l-4 -29l-16 -67l-8 -68v-30l10 -11l2 -24l10 -29l-12 -6l33 -17l59 -26h49l29 -10l6 -15l4 -32l-10 -66l-6 -4l-33 -6l-70 -2l-34 -25l-9 -12 l-18 -4v-11l-10 -10l2 -16l-8 -55l6 -35l10 -10v-9l14 -65h-2l2 -10l4 -64l11 -10v-15l10 -4v-8l6 -6l-6 -20l4 -5l-2 -14l14 -67l11 -64v-63l-9 -66l4 -29l-14 -24l-2 -31l-22 -35l-37 -53l-17 -4l-6 -10l-18 -2l-45 -23l-66 -20zM252 1602h6l4 2l-6 22l8 19l-4 24h-8 l-6 -10l-4 -33l4 -14l8 -2l2 -4h-29zM369 1376v-6l4 -27l12 -26h8l4 24l-4 15zM422 1229l2 2l4 16l-2 15l-8 2l-4 -7l2 -24zM354 530l-2 -4l-8 -6l6 -18l15 -6l-5 8v22zM393 1038l2 4l2 9l-4 18l-8 10l-6 -2l8 -4v-10l-8 -14zM467 1479h-4l-10 18l-11 6l13 -26l6 -2z M555 780l-2 -4l-2 -16h14v10zM438 256v-4l-4 -19l8 -12l2 23zM418 1190h-4l-15 -10l9 -9zM565 750v-7l4 -6l9 -2l6 10zM270 485l2 4l4 13l-14 -6zM414 1284v-6l2 -8v16z" />
<glyph unicode="~" horiz-adv-x="1202" d="M223 674l-4 -2l-4 -4l4 -23l-16 2l-13 8v25l-10 6v4l-35 33v12l-4 4l2 4l13 -14h4l4 12l-10 11l-2 10h4l2 16l6 6l12 4l10 15l47 33l50 16v8l45 12l65 11h74l4 -6l12 -5l35 -2l33 -10h16v-4l19 -8l4 -12l18 -7l10 -8l3 6l14 -16l45 -8l51 -25l64 -14l69 -2l2 -4l15 -6 l32 -4l13 -13l8 -2l-2 12l-6 7l-17 6l-6 14l15 16l53 39l18 -2l15 -8l47 -45l10 -41l-2 -14l-8 -15l-23 -24l-29 -19l-8 -14l-24 -8l-25 -21l-16 -4l-27 -16l-47 -2l-66 2l-65 4l-35 8l-61 25l-60 29l-28 8v6l-19 14l-31 6l-59 19l-37 -2l-61 -11l-33 -12l-8 -8l-15 -4 l-38 -27l-15 11zM850 719v-4l-4 -17l6 -2l10 -12l17 -4l10 10l-10 25l-11 8l-4 -4l4 -4zM195 709h4l12 6h8l2 35l-6 4l-20 -21v-24zM688 698v-4l-2 -37l8 -12l8 -4l5 6l-13 19l8 20l-6 10zM659 733l5 -2l2 -2l-7 -14l5 -2l6 4l-2 18l-4 4zM424 772v4l-10 15l-8 -9zM649 739 l-2 -2l-4 -14l6 -4l6 14zM479 831l-2 -4l-8 -6l14 -4v10zM434 733l-2 -4l-2 -6l12 2l2 8h-10z" />
<glyph unicode="&#xa1;" horiz-adv-x="538" d="M328 -4h-4h-23l-33 6l-71 2l-27 6l-10 10l-6 15l-2 33l6 65l2 66l4 63l4 66l4 65l2 64v65l6 62l-2 61l6 37l-4 68l6 12l7 65l2 66l2 68l12 63l10 12l14 6l33 5l66 -13l6 -14l-2 -47l8 -68v-33l-6 -12l10 -53l-4 -68l12 -14v-35l2 -63v-66l-22 -6l2 -6l-10 -21l2 -6h16 l-4 2l2 13l16 2l2 -17l7 -63l2 -66l2 -67l4 -66l8 -61l6 -68l-2 -68l-10 -47l-35 -18l2 8zM180 1239l-2 2l-10 29l-2 35l-2 63l4 70l8 30l37 11h37l12 -9l2 -12l4 10l-4 7l10 4l43 -6l35 2l19 -7l8 -30l4 -33l-4 -72v-61l-12 -29l-52 -12l-71 -2zM283 686h4l20 4l-2 53 l-2 66h-4l-4 16l-6 -2l-6 -20l6 -6l8 -33l-16 -43zM244 1362v-6l6 -35l18 -23l-6 15l6 4l35 -35l2 18l8 13l-12 4l-6 12l-6 2l-8 12l-27 3l-6 16h-4zM322 506v-4l-13 -41l13 -10v41l20 6l10 12zM307 559l2 -4h4l-4 -18l2 -7h11l-5 9l2 53l-6 6zM322 1366l-3 -4v-21l13 -10 l6 25l-2 10h-14zM303 668h-6l-4 -9l2 -6l12 -8l6 6l-4 2l4 9l-14 -3z" />
<glyph unicode="&#xa2;" horiz-adv-x="794" d="M483 -66v-4l-2 -30l-16 -64l-6 -6l-17 -4l-2 -8h-8h-65l-25 16l-6 -2v21l-12 6l-5 47l-4 67l-8 33l-39 31l-16 2l-12 10l-27 10l-23 23v14l-22 21l2 8l-10 2l-2 14l-4 4h-9l5 5l-9 6l-4 16l-12 61l-8 66l2 33l8 65l-2 31l-4 68l2 61l2 64l-4 67l-4 66l6 61l8 14l-4 41 l8 33l-4 15l16 53l17 18l12 27l8 4l13 27l10 2l37 32l28 13l4 8l21 8l18 18l2 13v69l5 70l45 16l65 4l31 -10l4 -8l12 -53l-2 -70l6 -33l19 -16l20 -8v-8l29 -7l37 -22l14 -16l19 -33h10l14 -33l19 -55v-58l10 -30v-31l-4 -64l-6 -32l-29 -13l-33 -4l-33 2l-65 15l-27 53 l4 29l8 71l-8 29l-18 29l-14 4l-11 12l-14 8h-31l-33 -8l-28 -16l-4 -13l-21 -65l2 -49l4 -66l4 -65l-2 -66l-8 -63l4 -64l-4 -63l10 -66v-63l5 -64l8 -14l14 -15l4 2l27 -6l12 -8l47 -2l15 12l24 13l-4 10l10 10l8 41v35l2 72l9 28l-4 15l20 24l12 4l25 -2h67l33 -4l13 -8 l10 -29v-30l-4 -66l-2 -63l-13 -68l-8 -29l-14 -30l-10 -11l-17 -26l-20 -11l-11 -14l-24 -8l-57 -27l-9 -16zM180 526v-4l2 -73l6 -27l9 -4l4 4v16h4l4 -18l6 -6l4 8l-12 29l2 8l18 -15l-4 5v49l-4 30l4 33l15 17l2 18h-21l-4 8h-10l-4 -6v-16l10 -35l-4 -15l-6 -6v6 l-15 15l-2 8l4 4l-8 2v-35zM209 213l4 2l18 12l9 31l-7 12l-30 21l-13 2l-4 -6l7 -47l8 -25zM184 874v-4l2 -14l-6 -31l21 4h28l-20 15l14 12v8l-6 4l-12 -8l-10 4l-2 8zM367 1178l-2 -4l-7 -9l9 -65l10 6l4 16l-8 15l-2 14l-4 2l6 18zM170 473l2 6l-2 8l-10 11l8 6l2 8 l-6 4l-19 -2l-10 -12l23 -8zM219 971v-4l-10 -25h4l10 -10v33zM518 1001l-2 -2l-12 -2v-6l14 -14l-2 4l8 16zM219 879l-2 4l-10 6l-6 -10l14 -7zM201 473h-4l-4 2l-3 17l11 -9v-10z" />
<glyph unicode="&#xa3;" horiz-adv-x="985" d="M723 4l-2 -2l-19 -12l-59 -13l-74 3l-67 14l-8 8l-37 21l-17 2l-20 8l-6 -4l-29 6l-35 2l-8 -4l-33 12h-30l-68 -10l-12 -10l-15 -2l-2 -11l-20 -8l-37 -6l-14 10l-2 12l-7 3v4v63l9 31l-5 49l29 43l31 10l24 15l21 24l43 47l6 2l6 11l25 65l12 55l6 72l-8 57l2 4h-6 l8 33l-4 21l-22 22l-29 13h-19l-26 -7l-35 -14l-39 6l-31 13l-10 12l-4 14l-12 66l10 28l2 19h10l15 20l36 2h64l4 39l-12 64l-15 61l-14 29v16l-14 43v37l6 6l-4 15l8 34l-4 31l14 68l33 53l-4 10l20 25l4 14l15 4l2 12l8 5l16 26l48 35l34 23l33 10l64 22l16 -2l66 -4 l61 -8l57 -27l27 -18l53 -35l23 -27l35 -57l20 -61v-31l6 -16l6 -66l-6 -68l-6 -10l-2 -24l-4 -7l-23 -4l-34 4l12 17l-2 16l-6 6h-9l-10 -32l-10 -11h-16l-5 -6l-8 2v15l-24 -9l-23 9l-20 16v43l-4 70l-21 59l-16 21l-51 28l-72 2l-39 -26l-16 -25l-7 -33l-10 -61l2 -68 l17 -67l-4 -15l8 -32l20 -64l-4 -10l6 -6l2 -15l13 -10l6 -12l26 -27h9l2 -4h6l67 6l68 -4l29 -12l16 4l4 -4l4 -19l12 -22v-35l-12 -61l-33 -13l-34 -2l-35 6l-8 -2l-62 -20l-6 -6l-2 -13l4 -32l-6 -29l2 -14l-6 -17l2 -63l-6 -68l-17 -28l-24 -64l-33 -55l4 -19l23 -22 l26 -19l19 5l65 -9l-4 -8l8 -2l-10 -12h-23l5 -31l20 -14l8 14l-4 14l8 13v8l-4 4h21l-11 10h-10l37 6l43 23l6 12l23 66v30v70l14 37l8 2l2 8h58l6 4l16 -2l4 -6l9 -2l63 -4v-21l4 -2l4 -57l-8 -70v-55l-8 -31l-10 -63l-7 -4l-18 -45l-12 -8l-13 -27l-14 -12l-14 -6l-8 -11 zM459 96v4l-2 11l6 20l-19 -6l-10 14v11l-20 6l-15 18l-14 6l-10 -33l6 -16l6 -2l2 -18h4zM688 121l-2 -2l-6 -8l-2 -29l10 -10l49 34l4 -10h-8l-6 -14l6 -2l-4 -12h4v4h25l-13 24l3 10h-13l-6 11l2 24l-4 9l-12 -3l-13 -8l-4 11l-10 -5l-4 -12zM801 360h-4l-15 -6l-6 -14 l12 -4l33 4l29 -14l2 12l-6 6l-15 4l-4 8l15 9l-6 10v10h-15zM399 1427l2 -6l-12 -24l4 -8l21 -11l2 -8l8 -2l-2 6l4 17l23 16l-21 12l-4 11l-14 4l-15 -2h4v-5zM512 1397l-2 -4l-8 -7l8 -4l2 -6l-4 -24l4 -4l6 18l8 4l6 -2v10l-6 15zM723 340v-6l2 -6l-10 -27l2 -14h14l8 4 l2 6l-12 4l6 23l-2 14zM184 106h4h21v5l-21 8l-4 6l4 6l9 2l2 6l-13 4l-4 -4l-2 -14zM424 68l4 -5l10 -4l15 17l-4 4l-11 -2zM367 868v6l-2 13l-9 12l-4 -25zM410 825v4l-15 15l-14 -4zM117 150l-2 -5l6 -12l12 -2l2 4l-8 12zM293 61l2 5l6 20h-8l-6 -6v-12zM317 1182v4v6 l-10 10l-6 -6h4l2 -12l-12 -4zM748 389h-7l-8 -10l4 -6l11 -2v18zM424 850h-4l-8 -6l-2 -8h14v14zM184 678l-2 -2l-2 -8l4 -4h11v4zM420 1407l-2 2l-12 4v8h8zM287 117h4h10v12l-4 2zM301 1397v-4l-8 -11h14l-16 11zM414 82h4h6v10h-10v-10zM709 29v-6l8 -11l-2 13z" />
<glyph unicode="&#xa4;" horiz-adv-x="985" d="M881 365l-2 -3l-15 -16l-37 -14l-14 6l8 10v8l-6 2l-20 -10l-11 14l9 3l-11 10h-4v-4l-2 6l6 10l35 10l10 -2v21l-8 12h-18l-4 -22l-13 -3l-10 -20l-6 -2l-27 18l-16 7l-10 -13l-10 2l-54 -14l-57 -16l-66 -7l-67 4l-70 3l-63 18l-52 16h-34l-13 -8l-47 -47l-35 -12 l-20 4v4l-16 4l-11 18l-8 3l-4 16l4 8l-8 10l8 21l47 45l6 14l13 8l4 13l10 2v53l-4 31l-10 63l2 70l12 29l-6 32l2 33l-6 61l4 33l6 6l2 23l-6 33l-14 28l-50 43l-20 25l4 31l8 14l23 20l28 19l37 -14l27 -19l29 -26l30 -5l31 7l61 20l33 4l35 -2l6 -4l2 -8l6 -4l9 2l12 -6 l12 4l17 26l57 2l67 -6l29 -10l29 -16l8 2h64l12 10l14 4l43 41l17 2l30 -10l41 -53l-20 -43l-21 -25l-24 -21l-21 -24l-6 -16v-15l10 -63l6 -4v-27l-8 -33l6 -47l-6 -47v-63l-2 -74l-6 -68l6 -22l23 -23l45 -47l12 -29l-8 -22zM659 780v4l-2 60l-8 63l2 31l-4 6l-26 17 l-33 12l-33 4l-63 4l-31 -8l-74 -6l-27 -9l-20 -18l-8 -41l6 -10l-10 -66l4 -30l-8 -66l-2 -68l4 -63l16 -64l29 -14l32 -8h31l64 -16l45 8l63 16l25 10l18 25l8 29v65l-6 70zM725 522v4v29l-4 4l-6 -2v-16h-10v-15l-11 -10l8 -12l3 6zM725 967l2 4l6 18l-6 12l-8 5l-4 -7 l2 -18l8 -8v-6zM743 635v-4v-8l15 -9l-6 19zM743 1001v-4v-4l15 -8l6 6h-10l-11 6v4zM694 889v-4v-6h11v10h-11zM748 596v6l-3 6l-2 -10l5 -6v4z" />
<glyph unicode="&#xa5;" horiz-adv-x="987" d="M885 489l-2 -4l-9 -28l-8 -2l-61 -6l-68 -3l-63 -6l-33 4l-33 -8l-12 -10l-4 -20l4 -33l-10 -66l10 -65l-6 -25l-4 -65l10 -48l-2 -32l-12 -66l-45 -6l-72 -8l-59 18v19l4 6l-9 -2l-2 -8l-4 2l4 8l-6 53l-8 27l2 28l2 72l-6 33l2 65l4 62l-4 31l-10 30l-27 8l-31 5h-67 l-68 -5l-61 7l-10 20l-15 33v49l15 39l4 2l55 14l72 8l30 -8h37l62 15l-2 8l6 24l-2 11l-23 63l6 2v4l-10 4v15l-10 6l-2 10l-8 4l-2 12l-7 5l-34 2l-17 6l-22 -11l-15 5h-69l-49 14l-5 45l5 70l8 28l6 6l25 5l71 -3l27 9l12 16l8 -4l-12 59l-18 33l6 6l-2 8l-11 13l-12 37 l-10 10l4 6l-16 29l-2 14l-11 14l-8 47l-20 62l4 4l-10 8l-5 27l-22 35l-2 67l20 15l62 6l69 2l31 -6l29 -17l18 -45l8 -57l27 -60l-29 7l-2 -7l8 -6l13 2l14 -45l-2 -8l-16 14l8 -18l16 -6l-2 -12l4 -9h9l8 -63l16 -17l10 -28l9 -13l8 -65l18 -61l27 -21l16 12l14 52l11 22 l6 29l8 2l-4 14l8 -4l-4 20l12 29l6 35l15 63l35 19l-2 10h-23l10 33l11 10l10 62l6 4l2 22l8 2l6 47l6 7v18l39 31l41 2h76l23 -4l24 -19l8 -14l-8 -33l-20 -10l-4 -8l16 -11l-4 -2l-2 -12l-23 -61l-28 4l-4 -4l2 -11l-9 -14l2 -18l-8 -17l19 -6l2 -6l-8 -23l-21 -61 l-20 -64l-17 -65l-12 -8v-39l10 -10l33 -7l4 -6l18 -2l66 4l16 -8l9 -12l10 -33l-4 -33l4 -16l-17 -47l-22 -21h-8l-68 4l-63 -2l-33 -8l-14 -10l-11 -14l-24 -19v-12l-17 -59l-2 -37l6 -6l60 -9l61 -4l72 13h31l45 -33l-2 -21l10 -30v-17zM311 1198v-2l15 -8l6 6l-10 4 l4 16l-9 3l-32 -9l-13 6l15 21v18h-25l-4 25l27 16h-4l-9 23l-12 6l-4 6l2 6l-33 6l-6 -6l6 -6l2 -22l17 -29l-4 -10l14 -21h-4l-6 -10l6 -18l6 -7l6 -20l17 -8v6l18 8l-10 -14h10zM639 1257l-2 -4l-8 -10v-10l20 -8l4 -6l-4 -9l21 -41h-8l-13 -10l-14 2v-10l6 -4h16l27 -21 l4 21l21 61l-45 21l-11 20zM723 950l-2 4l-12 21l4 24h-8l-13 9h-8l6 -35l8 -12l-6 -11l10 2l13 -6zM297 1278v-6l4 -8h31l8 -4l6 4l-10 8l8 20l-2 4l-29 -20zM350 1081l4 -2l4 -2l7 4l-13 31l-6 33h-14l18 -53v-11zM684 1096h6h12l13 8l2 8l-25 8l-8 -14v-10zM649 520h4 l13 -2l12 6l-19 15zM395 823h4l15 13l6 16h-14v-10zM670 1092v4l4 6v10l-10 -2l-2 -6zM815 1282l2 -4l-4 -6h-16l2 8zM332 1184v-4l6 -15l4 4z" />
<glyph unicode="&#xa6;" horiz-adv-x="446" d="M297 -57l-2 -2l-35 -17l-33 -6h-67l-13 27l-6 32l11 64v65l-11 64l4 63l-4 33l2 62l2 65l2 70l19 8l-10 14l-4 -8l-7 4l9 25l-4 12l-11 6l4 60l13 59h8l14 10l15 4l34 -6l66 -14l12 -27l-2 -35l-10 -30l8 -53v-70l-8 -29l6 -6l4 -22l-6 -7l6 -4l-2 -18l2 -66l2 -67 l-12 -29l12 -31l-2 -69v-70zM141 1171v3v65l9 57l2 72l-11 64l4 61l-4 66l4 73l11 29l14 22l33 -2l67 -4l27 -12l-27 -12l-2 -8l8 -7l21 -2l2 -6l-4 -8h-4l-4 -6l4 -6l14 -4l-2 -47v-68l-2 -66l2 -63l-6 -64l4 -14l-10 -2l-17 10l-12 -4l10 -24l19 2l6 12l6 -16v-33v-68v-69 l-4 -70l-6 -55l-6 -6l-35 -5l-72 -6l-26 27l-9 61l-4 68v65zM293 1380h-4l-6 2l-21 -4l-10 -8l2 -4l4 2l8 -10l4 -29l4 -4l9 2l-9 8l7 21l-2 10l8 2zM283 1249l-2 -2l-13 -22v-21l13 2l12 8v11l-10 6v8l6 6zM248 1274v-6l-4 -19l12 4l6 15zM297 1581v4l-10 10l-4 -2l8 -10z " />
<glyph unicode="&#xa7;" horiz-adv-x="937" d="M575 -303l-2 -2l-47 -12l-67 -2l-68 4l-31 8l-20 12l-33 6l-16 15l-21 8l-49 49l-18 24l-15 31l-28 58l-2 32l-11 25l-2 31l-2 67l7 31l20 27l35 4h67l64 -4l14 -17l4 -26l4 -5l-2 -26l4 -15l-4 -6l4 -4l9 -65l16 -29l2 -10l45 -31l51 -2l33 8l33 15l20 22l6 25l11 12 l-4 22v66l-7 6l5 10l-39 52l-25 22l-49 43l-16 6l-33 25l-23 22l-47 47l-51 41l-8 15l-29 18l-24 41l-23 21l-43 53l-4 14l-10 4l-2 13l-9 14l-8 35l4 2l-8 6l-12 59v39l6 15l-6 24l2 8l14 66l21 22l4 17l16 28l2 15h10v14l7 4l43 41l4 17v22l-11 4l-4 15l-12 10l-2 8l-4 2 l-33 45l-16 29l-6 4l2 2l-13 12l-6 45l-8 60l6 67l17 60l30 57l35 55l14 8l58 27l22 21l23 2l8 12l39 4l59 12h64l65 -8l4 -8l17 -6l12 -13l12 -4l29 -18h6l23 -25l14 -4l12 -22l19 -13l18 -24l27 -55l12 -35l2 -33l-4 -33l-6 -2l6 -22l-2 -6l-10 8l-6 -2l-8 4l-5 -2l-4 -19 l-6 -4l2 -4l17 4v-10l26 2l4 8l6 -29l-6 -36l-12 -19l-16 -8l-66 14l-6 -2l-68 -8l-28 10l-6 49l-5 68l-8 29l-6 6l-4 16l-16 29l-27 20l-31 11l-32 4l-39 -15l-27 -22l-18 10l-11 -4l-10 4l-4 -10l-16 10l-9 -4l5 -10l16 -6l18 8l4 -8l9 -2l-23 -41l4 -19l4 -69l6 -25 l13 -12l33 -41l-13 -2l-4 -11l12 -18l-10 -8l15 -12l24 6v8l-10 2v16l-4 4l6 2l10 -16l19 -6l49 -45l28 -16l45 -50l48 -45h10l14 -6l27 -31l26 -18v-8l11 -6l2 -13l16 -14l39 -53l31 -62l6 -22l8 -74l4 -61l-8 -19l2 -24l-4 -17l-17 -28l-26 -54l-10 -4l-4 -20l-15 -19v-10 l-8 -2l-23 -22l-4 -50l21 -24l14 -8l10 -29l19 -27l24 -57v-12l13 -39l-2 -33l-9 -68l-6 -14v-31l-8 -14l-22 -59l-9 -4v-11l-6 -4l-45 -43h-8l-59 -28l-25 -23zM582 395l2 4l4 2l12 29l10 10l8 45l3 35l-7 37l-28 61l-19 25l-49 37l-2 14l-8 4l-6 -4l-8 4l-2 13l-41 43 l-27 16l-66 23l-10 -9l-8 -16l-31 -57l4 -64l9 -16l2 -31l8 -8l-4 -6l8 -15l24 -18l7 -16l32 -35l27 -13l14 -20l15 -4l22 -23l17 -6l8 -20l20 -15l-4 -16l4 -4l13 -2l18 12l20 6zM209 588h8l8 2l19 20l-4 33l4 12l-45 23l-19 2l-2 -21l12 -53l23 -4zM401 332l5 2h12l16 -6 l15 32l-5 17l-14 4l-2 8l-8 2l-4 -22l4 -7l-4 -2zM664 141v-4l-23 -24v-11l39 15l-4 18zM356 1477l-2 -4l2 -15l21 -16l4 31l-6 4h-19zM303 420v4l-4 14l-16 2l-4 9l-7 -5l9 -4l12 -18zM244 -35h4l10 6l-2 17l-8 2l-8 -19zM434 313l-4 -4l4 -12l15 -8l-3 16zM684 1227l-2 -2 l-6 -11v-8l8 -4v25zM688 451v-5l-6 -32l12 26l-12 9zM244 504v4l-2 4l-17 4l13 -14zM733 1208l-4 -4v-6l14 -10zM268 1120l4 -2l4 2v15h-4v-5h-4v-10zM240 563l2 4l-9 15l3 -15z" />
<glyph unicode="&#xa8;" horiz-adv-x="475" d="M182 1636l-2 -2l-10 -10l-2 -12l-53 -10l-29 2v4l-10 10l-4 -4l10 -6l-2 -4l-47 6l-27 12v39l8 2l15 16l18 2v11l-14 14l-2 8l10 21l-14 -4l-2 -13l-19 -18l-8 20l2 15l12 67l25 10l33 -2h69l27 -4l12 -34l4 -35l4 -70zM481 1739v-4l-4 -56l-14 -61l-19 -4l-12 -10 l-61 -2l-60 6l-20 14l-4 39l14 20l6 -4l-2 11l10 22l13 -6v-16l-11 -13h-8l4 -24l11 -11l-5 -12l11 2l16 66l4 4l-8 6l-2 10l12 6l2 47l-10 -6v-8l-6 -2l-23 6l2 -16l-8 -25l-18 -22l-4 2l-2 14l6 19l2 63l41 29l37 -25l14 2l4 19l27 -7l33 -2l14 -8zM55 1642h4l15 7l2 8 h-10l-15 -6l-2 -15l6 -14l4 4zM86 1686v4l4 16l-10 -2l-10 -12zM358 1780v4l-2 4l-16 2z" />
</font>
</defs>
</svg>
