<?xml version="1.0" standalone="no"?>
<!DOCTYPE svg PUBLIC "-//W3C//DTD SVG 1.1//EN" "http://www.w3.org/Graphics/SVG/1.1/DTD/svg11.dtd" >
<svg xmlns="http://www.w3.org/2000/svg">
<metadata></metadata>
<defs>
<font id="anodyneitalic" horiz-adv-x="905" >
<font-face units-per-em="2048" ascent="1479" descent="-569" />
<missing-glyph horiz-adv-x="409" />
<glyph horiz-adv-x="2048" />
<glyph horiz-adv-x="2048" />
<glyph unicode="&#xd;" horiz-adv-x="2048" />
<glyph unicode=" "  horiz-adv-x="409" />
<glyph unicode="&#x09;" horiz-adv-x="409" />
<glyph unicode="&#xa0;" horiz-adv-x="409" />
<glyph unicode="!" horiz-adv-x="538" d="M283 1008v4v16l6 66l8 65l4 64l6 67l4 66l4 65l11 29l20 27l23 2l63 2l66 -4l14 4l8 -11l33 -8l4 -16v-31l-16 -63l-19 -64l-4 -65l-12 -31l-4 -66l-23 -61l6 -4l-6 -2l-4 6l-26 -18l-3 -7l11 -8l4 -8l8 -2l2 -4l-8 -23l6 -10l8 -2l2 -4l-14 -55l-12 -64l-11 -67l-10 -70 l-10 -66l-14 -65l-5 -64l-20 -61l-18 -27l-54 -8l-32 4l-27 13l-4 57l2 63l14 49l2 37l-6 15l14 47v61l7 70l-5 33l13 63zM356 8l-4 -2l-26 -6l-64 -2l-67 4l-9 14l-8 4l-6 -10l-6 -2l-8 17l6 20l-2 21l8 79l14 66l13 29l49 8l69 2l64 -6l8 -19l-2 -16l6 -2l2 -35l-6 -33 l-18 -67zM438 1319l-2 -4l-10 -15l12 -43l6 -2v11l11 30h-11l-2 7l4 14zM457 1407l-2 -2l-15 -27l25 -4l-2 29zM498 1167h-6l-15 -4v-14l6 -14l17 14l2 10l-4 2v6zM299 522l-6 2l-8 -2l-21 -24l33 6zM227 74l4 -2l17 -9l6 5l-4 2l2 8h-25v-4z" />
<glyph unicode="&#x22;" horiz-adv-x="669" d="M651 973l-4 -2l-6 -2l-70 -8l-26 8l-2 14l-2 64l6 69l12 64l2 32l-10 11l2 12l10 63l-8 29l2 21l12 61l-8 14l10 4l-4 23l2 6h4l25 21l31 10l6 -4l65 -2l29 -6l6 -7l6 -20l2 -31l-4 -33l-14 -69l-8 -66l-15 -55l-8 -64l-8 -65l-18 -66zM338 969h-4h-10l-5 -11h-28l-64 15 l-6 53l6 66l6 69v64l9 32l4 64v65l12 66l-2 4l25 14l16 3l72 4l61 -11l2 -22l-4 -33l-18 -63l-4 -66l-23 -61l-4 -33l-8 -66l-6 -65l-5 -2l-2 -8l4 -17zM305 1276l4 2l10 4l11 10l4 19l-6 4l-15 -12l-6 2l10 6l-2 12h-8l-33 -12l-2 -27l11 -29h8zM305 1360v-6l-6 -11l-12 -8 l8 -10l10 14l8 -2l9 17zM397 1442l-2 -4l-4 -11h6l9 13z" />
<glyph unicode="#" horiz-adv-x="987" d="M627 6h-4l-68 -6l-33 4l-24 10l2 41l16 27l8 59l8 29l17 27l-2 12l6 16l6 45l14 64l13 28l4 33l-23 35l-28 2h-70l-59 -16l-23 -19l-4 -39l-14 -65l-23 -64l-14 -61l-19 -62l-4 -32l-14 -39l-19 -27l-22 -6h-72l-26 12l-6 11l4 24l8 66l12 35l21 61l2 29l10 6l18 28l-2 5 l-8 -11l-10 2l8 23v10l4 -2l33 8v4l-10 4l-4 7l2 10l-9 -2l-6 -17l-8 -2l18 62l-2 31l15 -5l2 7l-12 22l12 35l-19 -6l-18 -29l-57 -2l-66 8l-10 13l-8 2l2 57l8 31l43 24l31 8l34 -4l29 -10l31 8l8 -2l29 25v4h8l12 10h14l5 12l12 2l-2 15l-6 6l-2 -4l4 8l-27 21l2 4l19 59 l16 66l22 61l5 35l-5 16l-10 12l-59 5l-76 2l-29 8l-8 28v35l10 35l11 12l8 2l-2 -6l8 -8l31 12l4 7l-2 6h43l67 -2l27 6l21 22l12 -2l-2 15l18 10l-4 4h-10l12 63l17 -6l22 2v9l-35 2l-2 10l12 6l9 65l6 7l6 16l14 59l15 66l6 4l18 47l17 19l49 8l35 -4l28 -9l13 -36 l-9 -21l4 -8l-12 -21l-10 -30l-8 -4l2 -9l-6 -32v-33l-7 -4l-2 -15l-6 -4l-4 -20l-14 -31l-12 -65v-66l40 -22h80l31 6l23 12l22 31l12 63l21 68l8 12l8 31l-2 16l17 66l14 63l29 56l26 8l35 2l35 -4l27 -11l6 -18l-4 -25l-21 -67l-4 -31l-6 -6l10 -4l-24 -45l-3 -15h-6 l-18 15l2 -10l-8 -19l-15 2l-4 -8l6 -8h19l14 -6l-4 -13v-30l-18 -19l-4 8l-7 -34l7 -66l10 -8l29 -6h32h72l6 -6l4 -35l-4 -72l-18 -14v-8l-9 2l-63 -4l-31 6l-61 -15l-25 -24l-8 -17l2 -18l-12 -31l-6 -63l-13 -31l-6 -29l-12 -28l-6 -37h4l-4 -10l-2 -33l-4 -6l22 -19 l31 -2l14 -8l31 8l25 2l14 -6h16l13 -22l4 -35l-6 -35l-17 -29l-14 -6l-8 2l-15 -4l-6 -6l-20 2l-64 6l-8 6l-14 -6l-19 4l-33 -22l-4 -29l-10 -31l-16 -61l-15 -68l-16 -65l-20 -62l-7 -35l-10 -30zM453 573l4 -2l30 -8l33 -2l70 6l31 8l10 11l14 26l19 68l18 61l4 33l4 6 l8 2v25l13 70v32h-11l-6 13l-24 4l-37 -2l-6 -4l-58 -7l-49 -26v-17l-14 -18l-17 -66l-18 -65v-31h-8l-2 -16l-6 -4v-15l-21 -43l10 -6l5 -26zM324 479l-5 2v2l13 -2l6 29h-10l-4 4l8 2l4 8l-2 8l-10 13l-17 4l-35 -33l-6 -18l4 -31l9 -14l26 -13l-2 -4l-8 -2l-2 -4l31 6 l6 15h-19l-4 6l4 16zM461 973l2 4l8 16l25 11l-2 20l12 23l-19 22l-8 2l-30 -29l8 -2l6 -22l10 -10l-6 -13l4 -2l-31 -4l-14 6l-23 19l-6 -39l11 -10l6 8l6 2l31 -4zM829 1042l-2 -4l-16 -26l-2 -19l16 -14l9 22l-5 7l17 10l10 14l-12 10h-15zM256 485l4 4v29l8 2l4 8l-10 4 l2 17l-18 6l-6 -6l6 -8l-4 -17l12 -20l-10 -4h4zM975 1004l-2 4l-10 4l-23 -8l6 -31l21 6l-4 2zM260 313h4l19 6l6 9l-2 6l-4 -4l6 18l-33 -10h4v-25zM750 1004v-5l-5 -30l19 10l4 14l-8 11h-10zM858 1198l4 4l2 8l-10 15l-6 2l-8 -8l10 -17zM219 469h4l17 2l2 8l-4 4l-17 2 v9l-10 -5l8 -4v-16zM88 469l2 4l14 8l5 8l-7 -2l-20 7l-2 -9l10 -6l-6 -6zM197 1004l4 2l14 -5l6 3l6 10l-6 4l-26 -12zM297 500l4 -2l-6 -19l-12 4l-7 17l15 -6zM940 1434l-2 -4l-12 -7l-2 -10l12 4l8 15zM627 229v4v17h-9v-17zM489 909h-4h-16v-8l14 4l4 -8l7 4l-5 2v6z M922 1057v-4v-4l14 -9l6 7h-6l-10 10h-4zM909 1458v-4l-2 -10h11l4 12zM403 856h5l2 6l-15 8l-2 -14h10zM827 1233l-2 4v4l-4 -12l13 -8zM420 782v4l2 7h-10l-2 -11h10zM551 1444v-4l-2 -6h10l2 10h-10zM231 510l-4 -4l-6 -4l6 -2l9 14z" />
<glyph unicode="$" horiz-adv-x="827" d="M426 -123h-4l-43 -6l-35 2l-27 8l2 6l-12 45l2 17l-14 67l-8 9l-56 32l-53 39l-2 8l-39 54l-14 28l-4 33l-8 14v29l4 10l-9 4v43l-6 25l11 66l14 61l14 27l35 4l2 8l4 2l62 6l6 -4l67 -12l15 -49l-2 -17l-15 -63l4 -33l11 -64l14 -28l14 -10l4 -9l13 -2l6 -6l37 -2l30 6 l60 27l6 16l12 6l17 48l8 4l-2 47l-6 2v33l-17 63l-24 55l6 6l-19 9l-24 45l-27 28l-30 43l-48 50l-39 49l-43 49l-2 16l-10 15l-31 57l5 14l-7 8l-6 48l-4 4l-10 63l-6 6v23l6 65l18 66l23 59l18 25l13 31l45 45l6 12l28 18l11 13l8 -4l20 14l11 -6l6 6l59 31l23 41l-2 34 l16 60h14l45 16l37 -4l31 -10l10 -47l-6 -66l4 -12l23 -23l59 -26l25 -23l8 -14l-2 -6l12 -2l29 -43l2 -15h10l-2 -10h4l19 -49v-59l-7 -72l-4 -66l-20 -61l-47 -4h-70l-61 12l-6 27l4 67l6 64h-10v43l-9 12l-51 39l-39 -6l-59 -27l-25 -22l-18 -25l-2 -47l4 -35l8 -31 l-4 -14l12 -20l25 -60l35 -32l16 -29l8 -2l13 -17l28 -20v-25l15 -24l38 -29l21 -27l4 -14l25 -22l-2 -11h8l12 -16l10 -25l17 -18l2 -10l16 -29l-6 -4l12 -10l2 -27l13 -2l-2 -10h4l2 -25l10 -65l-6 -64l-2 -65l-8 -37l-7 -10l-4 -19l-6 -6l-20 -57l-25 -27l-10 -25l-8 -2 l-23 -24l-14 -4l-8 -15l-33 4l2 -14l10 -6l-16 -14l2 2l-4 4l-4 -4l-56 -27l-32 -10l-25 -19l-2 -18l-4 -63l-6 -21h-11l-2 -20l-14 -13zM547 629l6 2l10 6l-2 22l-8 7l2 6l-14 20l-9 31l-36 4l-19 -29l4 -6l-4 -8l4 -12l-8 -8v-7l12 -12l-4 -49l11 -10l10 20l20 23l-4 4v16 l10 23h-12l2 12l19 -6v-8l-11 -11l21 -16v-14zM397 846l4 2l15 12l6 14l-19 33l-8 2l-2 -6l4 -29l-37 -30l-8 -15l29 -24l-2 -6h10l-2 6l6 10l-4 6l6 4zM481 1368l-2 -4h-12l-6 4l4 -10l22 -8l33 8l-2 16l-10 8l-14 -14h-9l-2 10zM514 170l-2 -6l4 -10l14 -7l9 -20l10 -2 l4 12l-8 21l-13 8zM713 1227l-4 2l-13 6l-16 2v-23l10 -8l17 6zM231 326v-4l-16 -35l14 -8l11 4l-2 30zM623 254l-2 -4l-9 -27l6 -4l5 8l12 11l-6 4zM745 1094h-4h-8l-4 -4l8 -21h11zM477 1329l4 -2l4 -18l7 -4l12 10l-29 18zM500 1280l2 4l-2 12l-13 4l-2 -20h15zM705 1108 l-5 2l-6 12l-8 2v-8l8 -12h8zM565 102l-4 -4v-8l10 -8l2 10zM205 111h4h6l10 10h-18zM580 106v5l-5 16l-6 4v-20zM440 879h6h5l10 10l-12 4zM236 135h4l12 10l-12 -2z" />
<glyph unicode="%" horiz-adv-x="1421" d="M905 -2l-4 2l-47 25l-25 22l-4 14l-16 21l-4 14l-10 8v17l-7 16l-4 64l9 65l-5 33l3 31l16 63v31l6 4l6 12l8 35l25 60l20 28l23 21l27 16l8 14l12 9l68 22l26 4l70 13h33l22 -13l25 4l14 -4h31l12 -10l23 -2l18 -19l14 -6l5 -8l14 -10l20 -23l11 -28l8 -2v-29l6 -35 l-2 2l-6 -6l4 -65l-6 -66l-11 -68l-10 -63l-16 -64l-15 -22l-2 -19l-16 -28l-18 -23l-2 -10l-21 -10l-24 -19l-33 -10l-15 -8l-4 6l-14 -10l-41 -4l-66 -13l-63 5l-63 16l-3 -4zM416 829h-4l-54 7l-57 26l-10 10l-6 -4l-9 15l-22 24l-12 27l-13 63l-4 62l4 69h27l8 15v8 l-14 -4l-10 2l8 12l10 2l-8 15v10h14l19 22l6 17l-17 -2l-28 -13l-4 5l4 34l22 -20l8 4l-6 10l4 17l-2 8l23 24l-27 25l21 45l8 33l10 4l21 -8l2 6l-17 14l11 12l51 39l26 9l66 18l4 6l14 2l15 -4l6 4l65 2l68 -8l31 -12l57 -21l20 -20l19 -4l10 -23l19 -24l-2 -17l10 -47 v-29l-10 -65l-5 -66l-8 -63l-12 -70l-18 -61l-15 -19l-6 -24l-27 -25l-6 -16l-12 -6l-57 -37l-35 -6l-17 -9l-55 -6l-31 -10l-16 4l-6 8l-21 -6zM358 -2h-4l-69 2l-31 8l-10 10l2 19l10 31l23 22v12l4 -2l12 15l14 26l25 25l2 8l6 -4l2 -8l6 -2l4 8l-14 10l4 8l14 13l4 18 l33 55l29 35l4 19l27 30l41 50l16 38l31 -10l6 2l6 13v8l-16 2l-7 4l29 49l39 47l4 19l35 57l-2 4l8 12v8h10l4 17l19 12l-4 4l14 13l8 18l21 29l14 10l-2 12l35 39h6l-2 12l12 11l31 57l16 8l4 -8l3 16l34 19l-6 -15l-10 -4l6 -12l8 -4l6 2l2 12l-6 39l-16 2l8 8l14 31 l19 14l4 17l12 2l13 29l12 10l10 31l19 14l20 45l6 4l23 35l20 24l-2 9l12 -9l9 2v7l-7 6l5 10l6 -4v-6l6 -6l8 4l8 14l-4 14l-8 2l16 25l-2 4l31 45l6 -10l14 -10l5 6l2 16l6 8l-19 -6l9 35l10 -4l10 10l-16 -2l28 39l39 53l31 11l18 2l64 -4l24 -13l-16 -33v-14l-27 -29 l-4 -16h-10l-12 -14l-4 -23l-15 -28l-12 -9v-6l-12 -12v-6l-10 -4l-29 -47l-25 -23l2 -12l-6 -13l-12 -12l-19 -29l-14 -4v-18l-14 -18l-19 -41l-22 -29l-14 -8l-15 -31h-10l-2 -8l-8 -4l-4 -21l-13 -2l-10 -22l-35 -58l-4 -14l-18 -29l-21 -22l-16 -29l-33 -55l-18 -15 l-13 -26l-20 -25l-16 -30l-13 -11l-6 4l-4 -28l-27 -39h-8v-6l-16 -19l-29 -57l-22 -27l-4 -18l-19 -25l-22 -20l-19 -45l-14 -8l-4 -15l-19 -14v-6l-12 -2l-10 -21l-11 -2l-2 -10l-10 -14v-7l4 -2l-22 -26l-4 -19l-9 -4l-8 -20l-12 -10l-2 -15l-12 -10l-21 -29l-22 -53z M969 430l-2 -4l-6 -41l4 -31l-2 -35l-9 -69l-4 -64l6 -26l13 -4l10 -11h8l2 -8l31 -12l-2 -4l45 -4l20 8l39 10l35 31l4 33l10 10l7 18l10 66v67l10 25l12 -6l7 6l-11 2l-2 8l8 -4l9 4l6 19l-4 4l-6 -2l-13 -15l-4 5l2 6l-8 61l-12 2l-19 25l-16 4l-2 8l10 4l-16 19h12l-2 6 l-19 6l-2 -21l-8 -4l2 4l-8 11l-8 -9l-8 4l-2 -12l-33 -2l-4 -8l-47 -21l-23 -6l-6 -10l4 -14l-8 4zM389 1255l-2 -4l12 -10l4 -10v-60l-12 -75l-4 -66l4 -10l8 -4v-6l-6 -6l4 -7l29 -16h18l7 -4l65 -12l57 18l7 16l8 2l10 39l16 21l4 63l5 68l12 59l2 33l-4 33l-21 22 l-41 17l-39 -2l-63 -8l-23 -11l-20 -30l-10 -35l-6 -4h-17zM686 1231l-4 -2l-12 -8h8l-6 -19l10 -6l-4 -22h10l6 -5l6 -12l-4 -20l11 -35v-17l22 7l4 8l-24 33l10 69l-2 15l-6 10l-13 -15l-4 17zM809 805h-6l-21 6v-10l23 -35l18 -10l6 2l5 12l-3 16l-24 2l-8 5v4h8z M1116 1237v-6l-2 -12l-4 -5l-14 -2v-10l6 -12l8 -2l12 6l19 27v10l-15 6h-10zM967 102l2 -4l20 -10l37 4l-14 21l-8 4l-7 -11l-8 19l-6 -4v-4zM1073 1163l-4 -4l-10 -8l4 2l20 -8l15 4l12 -6l10 10l10 -6l5 2l8 25h-8l-5 -17h-18l-14 17l-8 -7zM1155 596v-4l2 -10h-8l4 -19 l14 -6l2 27l-6 10zM528 903l4 2l9 19l-4 8l-11 -14l4 -9h-20l-2 -8l-10 -8l-2 -8l8 2l10 14zM1200 1372h-4l-14 -6l-11 -12l-2 -11l29 13zM778 752l-2 -2l-14 -13v-10h18l8 4l3 6h-5l-4 13zM662 1231h-7l-14 2l-10 -12l14 -9h10zM360 92v6v4l-12 9l-8 -11l-2 -14l6 -6l10 14 zM489 825h5l18 4l2 7l-4 4l-2 -4l-4 4l4 10h-6v-6l-13 -10v-9zM565 483v-4l-4 -30h6l6 16l-2 18h-6zM1182 1393h-4l-19 -4l2 -9l21 -8v21zM377 987h-4l-8 -4l-9 -10l-2 -10l13 2l8 12zM545 967h-4l-9 -2l-4 -17l7 -6zM778 639h4h6l7 14l-4 6h-9zM1321 473v-6v-16l8 -2l4 14z M885 293v2l10 16v8l-4 3l-10 -19v-8zM705 1270l-3 -4l-10 -15l8 -2l7 -10l8 -2v4l-10 10l-3 9l5 8zM547 932h4h4l4 8l-2 8h-8zM305 86v-4l2 -8l6 -2l6 6zM705 1188v-4v-6h-11v10h11zM987 57h4l10 2v9h-8zM352 141l-6 -2l-6 -2v-12zM907 332v4l2 6h-8l-2 -10h8zM244 1178v-4 l-2 -7h-9l3 11h8z" />
<glyph unicode="&#x26;" horiz-adv-x="1243" d="M842 -10v2l-51 22l-27 21l-14 4l-21 24h-31l-28 -6l-54 -30l-59 -31l-6 -12h-4l-55 -15l-19 2l4 6l-4 7h-6l-12 -11h-17l-6 -4l-12 4h-17l-30 13l-64 8l-4 10l-14 2l-6 6l-23 6l2 11h-10l-4 10h-10l-2 8l-13 2l-6 14l-14 5l-2 14l-13 4l-10 25l-8 6l6 10l-2 8l-6 -4l-6 4 l-2 17l-6 4l4 2l-6 41l-9 12l-6 35l4 63l-2 64l11 33l8 4l-2 8l4 31l20 63l11 10l2 15l12 8l8 12h8l2 10l8 13l35 57l43 49l8 2l5 10l10 11v10l33 29l18 4l12 12l2 14l-4 33l-6 63l-10 11l2 14l-10 10l-6 47l-7 62l2 65l-4 64l6 37l25 63l6 29l-4 4l14 20l3 15l16 24l6 19 l29 39l6 -4l-2 -17l6 -8l10 8l4 21l-2 16l43 23l21 26l51 19l63 18l37 2l-4 -12l-10 -10l-16 -2v-25l6 -4l14 6l18 2v-14l5 -4l6 8l8 31l-2 4l-8 -4l-4 4l10 10l2 10h31l61 -10l12 -10l-6 -6l-14 10h-6l2 -12l-8 -17l6 -4l-2 -6h-17l-4 -14l-22 -2l-15 -9l-4 -8l-10 4l-2 -4 l10 -16l4 4l17 -2l4 8l35 -14l-3 -9l-12 -6l12 -24l23 -25l4 4l8 35l-6 6l14 8l-2 4l-8 3l-8 -5l-6 5l14 8l-2 4l-10 2l29 24l-2 7l8 12v8l10 8l2 8l33 -24v-4l6 2l37 -58l12 -30l10 -13l-4 -24l2 -25l6 -6v-51l-8 -72l-14 -63l-29 -55v-9l-8 -10l-10 -27l-23 -26l-8 -2 l-2 -10l-20 -25l-2 6l14 47h-10l4 -14l-6 -6l-7 8l5 18l-15 -22v-45l-12 -21l-21 -14l-2 -16l-24 -23l-15 -6l-8 -23l-26 -16l-47 -49l-9 -31v-33l13 -49l6 -4l-2 -12l4 -8l8 -4v-11l10 -12l6 -2l2 -18l9 -17v-29l20 -49l8 -30l6 -7l17 -2l31 15l10 30l20 62l23 63l14 -4 l6 15l15 6l-7 14h-10l-12 -20l-2 6l8 22l12 60l17 28l12 -4l2 4l14 7l3 -11l12 15h49h53l8 -13l11 -2l-7 -55l-14 -68h-8l-12 -51l-13 -65l-28 -60l-2 11l-6 6v-11l-9 -45l-6 -8l-8 6v21l-10 2l-8 -10l-7 -35l-20 -43l14 2l8 12l3 -6l-7 -16l-6 -7h-8l-16 -45h-25l-12 -47 l6 -16l18 35l4 -17l23 -43l39 -8l29 2l26 17l15 26l10 66l10 35l31 14l14 -4l49 4l31 -6l8 2l8 -19l4 -30l-12 -68v-29l-6 -34l-18 -35l-15 -11l-6 -26l-12 -8l-8 -13l-58 -41l-4 -10l-14 -2l-15 -10l-59 -8l-72 -4zM575 209l3 6l8 37l-17 55l-22 25l-12 30l-3 31l-10 13 l4 8l-6 4l-12 28l-23 64l2 16l-12 9l-16 2l-2 6l-15 8v-6l-18 -8l-6 -15l-10 -10l4 -4l-9 -10l-24 -62l-19 -67l-2 -35l7 -58l14 -20l2 -14l18 -17l7 -16l-33 -4l-6 -27l-13 -12l-6 2l-4 8l-8 4l-23 -16l-10 -12l4 -2l2 -15l-4 -16l2 -17l25 -6l14 6l8 -4v11l-12 4l6 12 l8 -2l4 8l-2 21l15 28l20 25l39 -4l14 -11h25l-2 -8l8 -6l19 4l14 10l20 -2zM569 1192v-4l-6 -35v-68l12 -59l7 -49l12 -27l16 -2l15 10l14 5l6 14l6 2l8 14l25 23l2 14l10 10l33 56l8 32l6 -2l5 9l12 10l-4 14l-11 8v31l9 33l-2 14l6 17l-13 30l-20 27l-25 8h-36l-31 -8 l-25 -21l-20 -24l-17 -66l7 -8zM717 328l2 4l18 33l15 6l8 -4v6l-8 2l-7 16l-16 -18h-6v6l12 12h-18l-6 4l-19 -33l8 -12l-2 -16l4 -6h15zM426 1069l2 4l8 12l15 9l6 -4l8 16l2 16l-4 2l-4 -4l-6 8h-4l-13 -14l-2 4l4 17h-18l2 -25l-6 -6l12 -4l-6 -23zM778 121l2 4l15 45 l-9 4l-38 -14v-4zM852 434l-4 2h-10l-35 -37l39 -4l4 4zM827 86l2 6l-12 17l4 14v33h-14l-10 -50zM471 713v-6l-2 -7h-12l-2 5l-19 -13l-6 4l6 -10l25 -6l28 14l-2 11zM473 621h-4l-4 4l4 16l-2 14l-25 9l11 -15l2 -35zM954 670l-4 2l-16 -13l20 -12l15 6l4 11l-4 2l-13 -7z M614 502h4l19 -15l8 7l-8 8l-6 16l-13 8l3 -8zM952 96l-2 -2l-16 -16v-10h16l11 16l-3 8zM768 1061l-2 -4v-4l-14 -2v-11l22 -10l4 12zM733 1374l-2 -4l-8 -8l-4 -19l8 3l10 10l2 14zM655 459l-2 -4l4 -15l13 -6l6 4l-8 11l-2 -3v11zM799 1079v-4l-2 -4l6 -12l10 2l2 18h-16 zM532 543l-4 2l13 22l-11 4l2 -6l-12 -14l-2 -8l4 -4h8zM932 600h4l14 12v13l-18 -15v-10zM909 1374l-2 -2l-4 -8l8 -14l9 18l-2 4zM250 145l-2 -6v-4l12 -8l6 4l-6 12zM850 1329l-2 -4l4 -6l8 -2l19 8zM629 885v6l2 8l-8 10l-7 -10zM860 1446h-4h-4l-10 -10v-9l12 5z M1008 111h-4l-7 -5l-6 -14l13 2l4 6v11zM786 1128l-2 -2l-8 -16l6 -6l9 20zM784 1085h-4h-10l-2 -14l4 -6zM231 82h7l8 2l8 12l-12 -2zM778 1427l6 3l13 -15l-17 4zM539 518h4l8 2l6 17l-4 6v-6zM336 131l-4 2v12l20 -4zM477 537v4l-2 12l-4 4l-4 -4v-8zM342 346l-2 -6l2 -8 l8 4zM809 1438l-4 2l6 12l4 -4zM784 1237h-4l-6 8l-2 -4l6 -10z" />
<glyph unicode="'" horiz-adv-x="450" d="M391 963l-4 -2l-25 -3l-67 13v4l-6 4v12h-10v17l-5 4v49l11 69l-4 9l4 6l2 16v64l2 65l16 10l2 11l-6 4v16l-4 60l4 34l10 35l25 15l65 4l70 -4l14 -27v-14l-8 -68l-8 -10l-2 -27l-12 -22l-2 -17l-7 -63l-12 -62l-2 -67l-8 -8l-8 -66zM373 1358l-2 6l16 6l-2 29l-8 4 l-12 -23l2 -16zM371 995v4l4 15l-2 14l-6 2l-2 -8l-15 -6l12 -19zM338 1319l4 -2l8 8l-2 8h-4l-4 -8l-18 -12l-7 -15h13l10 11v10z" />
<glyph unicode="(" horiz-adv-x="548" d="M322 -217l-3 -2l-34 -31l-29 -8l-18 6l-2 10l-9 -4l-10 15l-4 14l-10 2v4l-15 6v12l-16 15l-12 31l4 18l-14 2l-9 6l-4 31l-12 2v16l-8 13l-13 41v65l-8 14l2 48l8 65l-4 64l9 32l2 66l10 65l10 66l12 65l9 66l2 66h10l4 4l-4 10l2 29l12 73l-2 31l8 59l11 66l6 70l-4 61 l6 6l-4 6v15l20 67l6 64l17 61l2 31l12 69l6 64l10 14l9 25l8 10l10 31l37 53l27 33l-5 4l21 20l-2 5l4 -3l20 13l7 14l12 6l2 11l49 43l43 4l16 -9l33 -36l8 -2l-4 -13l2 -8l11 -10l10 6l6 -19l-2 -12l-4 -4l-14 6l-21 -16l-2 -8l18 6l7 -2l-2 -10l-15 -19l-26 -20l-9 -15 l-12 -4l-22 -22l-15 -9l-14 -45l-12 -2l-11 -10l-12 -31l16 5l5 6l2 -4l-13 -35l-2 14l-12 -6l2 10h-25l-6 -6l11 -18l-2 -11l-11 -8l-6 -39l6 -10l-4 -10l10 4l7 12v17l4 8l10 4l-4 18l2 10l4 -10l10 6v-16l-8 -18v-11l-12 -39l-19 -8l-12 -12l-4 -64h4l10 11v-13l-14 -2 l2 -10l14 -14l-2 -4h-12l2 -8l10 -5l-4 -65l-6 -66l-10 -65l-17 -55l9 -33l-5 -17l5 -24l-17 -45l4 -49l-4 -31l-8 -25l-8 -67l-6 -64l-13 -51l-8 -72l-4 -73l-2 -60l-8 -65l-6 -6l4 -56l-4 -63l-9 -29v-65l17 -25l12 -10l10 -41l15 -29l22 -20v-11l6 -4l4 2l9 -59l-9 -12 l-26 -25zM244 756l-2 -2l-13 -4l-2 -29l-8 -64l17 7l2 22l4 6l18 -6l10 64l-2 14l-8 14v8l-6 5l-8 -11zM168 139l2 -2l8 -8h10v14h11l2 17l6 63l-6 4l-25 -12l-12 2l4 -49h-8l-4 -14zM176 119l-2 -4l-4 -11l8 -24l10 -10l9 12l-4 22zM190 31l-2 -6l9 -23l-7 -27l11 -16l2 16 l6 5l4 -3l-10 37l4 9zM215 -90v6l-2 10l-14 6l-17 -2l-6 -6v-10l8 -10l4 8zM367 1587v-4l-23 -16l16 -29l5 6v17l14 6v12l-4 6zM244 -8v6l2 8l16 10l-8 2l-2 17l-4 2l-2 -10l-8 -11h12l2 -4h-29l-4 -6h10zM213 389l4 2l4 2l6 15l-2 8l-12 6l-6 -10l2 -19zM393 1454l4 2l4 8 l-2 17l-6 2l-6 -4l4 -2l-6 -19zM391 1264l2 6l8 8l-8 6l2 4l8 -2l5 -16l-2 -10zM201 510v-4l-11 -19l7 -6l12 27zM344 1401h-2l4 12l-2 2l-8 -8l-8 -2v-12l4 -7zM354 1528v-4l2 -13l13 -14l2 2l-6 6l-7 23h-4zM211 1083h6l14 -6v10l-6 5zM211 569l2 4v21l-4 -4l-2 -21l10 -4 zM233 150l5 -3l8 9l-2 8h-4zM256 735l-2 -4l-2 -6l-10 6l-4 10zM190 203l-2 -4l-12 -6l6 10h8z" />
<glyph unicode=")" horiz-adv-x="548" d="M317 -166v-4l-2 -8l-47 -35l-47 -43l-16 -8h-8l-25 16l-8 15l-4 18l-37 41v22l10 13l6 2v6l8 12l27 25v6l16 4l13 18l37 56l16 16l12 25l-4 12l8 12l9 33l2 25l12 69l10 66l6 67l6 64l11 33l4 65l12 64l8 65l10 -10l5 10l-19 15l2 8l15 6l4 6l-15 23l11 51v30v62l16 59 l2 33l6 72l12 -2l11 12l6 2l-21 6l-6 8l2 4l15 64l4 65l6 62l12 31l6 32l2 66l-6 63l-4 62l-14 65l-13 11l7 10l-23 20l-41 54l-6 26l6 25l25 24l14 7l2 10l33 28l8 3l2 8l45 -8l16 -19l43 -47l3 -14l14 -7l-2 -8l22 -41l11 -10l16 -49l18 -29l2 -22l5 -64l2 -67l-11 -66 l-12 -65l6 -31l-4 -33l-4 -61l-12 -31l-8 -53l-7 -68l-10 -31l2 -59l-4 -37l-12 -63l-6 -6v-33l-9 -64l-6 -65l-6 -66l-10 -65l-8 -66l-6 -61l-4 -60l-9 -69l-12 -70l-14 -66l-21 -61l-22 -61l-6 -7v-8h-11l-6 -16l-22 -21l-2 -12l-39 -29l-2 -10zM379 420h-4l-4 -10l2 -21 l16 -4v-8h-8l-8 -6l4 -9l4 9l22 10l-4 6l11 8l4 -8l12 4l-2 39l6 2l12 33l-26 16v-4l-17 -8l7 -6l-5 -8l-22 -15l2 -20h-2zM342 78v-4l-8 -29l6 -10h10l-2 10l6 10l15 6l10 13l2 10l-14 -4l-21 8l-2 14l10 2l2 9l-14 10l-8 -17zM147 -152l5 -2l26 -24l19 -2l-2 6l-17 4 l-12 8v27l-6 2zM340 176l2 2l4 8l-4 9h-10l2 -17zM451 528l2 4l-2 15l-11 4l-6 -8h6l6 -15h5zM391 391l-4 2l-6 8l2 11l6 -4zM401 205l2 4l3 6l-9 4l-6 -14h10z" />
<glyph unicode="*" horiz-adv-x="909" d="M793 850l-5 -2l-26 -12l-51 -33l-33 -10l-8 2l-17 24l-16 68l-14 31l-13 63l-18 27l-27 14l-53 -39l-18 -47l2 -6l-15 -8l-6 -33l-10 -8l-4 -13l-10 -12l-2 -12l-17 -29l-12 -12l-21 -4l-16 2l-29 12l-45 39l6 14h-10l-4 -6l-6 2l4 15l-6 4l10 22l10 10l15 7l8 10l43 47 l10 2l37 29l16 4l23 26v13l24 30l-20 19l-37 6v4l-35 10l-67 15l-70 6l-27 12v8l21 66l6 4l-2 6l4 4l29 59l35 5l-13 -9v-10l11 4v8l12 2l2 -8l16 -8l2 -8h15l12 -6l6 -13l17 -4l6 -6l51 -37l26 -6l39 -2l15 29l8 33l-2 16l-6 6l4 17l-2 8h-6l4 8l-2 22l6 13l-15 59l5 29 l14 31l6 2l70 8l26 -10v-19l4 -6l-16 -6l-2 -8l6 -7h8l21 15l12 -6l-2 -9l16 -4l-2 -12l-20 -61l2 -13l-6 -20l-25 -60l-4 -34l6 -15l23 -2l59 21l4 10l4 -4l19 8l4 -6l-12 -21l4 -6l8 2l18 33l23 10l53 33l19 4l14 -14v-4l8 4l-2 8l-6 2l4 4l10 -2l17 -16v-8l14 -62v-31 l-6 -18l-6 -6l-29 -8l-64 -13l-69 -6l-66 -10l-28 -10l2 -4l-4 -25l4 -12l39 -58l16 -2l20 -18l19 -29l18 -20l17 -2l2 -17l10 -4v-32zM700 1452h-4l-12 4l-4 21l12 -4l8 -13v-8zM334 1241v4l2 12h-14l-3 -6l7 -8zM315 1184l2 4l5 14h-15zM682 860l-2 -4l2 -8l6 -4l6 6z" />
<glyph unicode="+" horiz-adv-x="1130" d="M1106 678h-4l-19 -21l-32 -4l-64 -4l-63 -2l-70 2l4 13l-10 2l-6 -5v-8l-4 -4h-9h-69l-29 -6l-8 -12l-6 -31l-10 -63l-7 -66l-6 -68l-6 -67l-14 -64l-53 -20l-68 -4l-31 8l-24 16v9l-2 67l14 35l6 33l8 78l2 63l9 33l2 30l-7 15l-24 20h-31l10 13v16h-4l-8 -14l-18 14 l-6 -6l8 -14l-2 -7l-70 -8l-63 -2l-31 8l-10 -10h-45l-27 4l-14 8l-23 21l-2 33l8 65l27 60l45 6l67 6l64 -4l65 -8l11 -11l8 4l-4 11h4l70 2l28 8v4l12 10l-4 10l13 66v33l18 2l4 6l-16 16v9l-6 6l8 55l8 65l12 62l13 29l4 -2l-8 -13l6 -14l8 -2l4 8l6 -2l-2 -14l-10 -11 l8 -18l-2 -10l6 2l4 14l6 -2l-2 12l13 17l24 22l2 9l-10 18l4 10h43l31 -8l24 -14l7 -11v-43l-11 -67l-10 -70l-2 -61l-8 -23l-4 -71l6 -31l31 -8l63 -4l66 2l65 4h64l65 -9l6 -6v-43l-14 -69zM659 672l3 2l28 28v9l12 2l3 4l-17 6l-22 -6l-7 4l-8 -4l-10 10l-8 -2l-4 -6 l-8 -2l4 8l-4 14l-31 17l-8 -6l10 -50l6 -6l16 11l4 -3l5 -34l8 -29l-10 -10l12 -11h10v25l10 8zM596 918h6l19 4l-5 -9v-18l-8 -2l-2 -6l8 -6l11 8h6l-2 -21l14 6l10 23l-6 23l8 30h-14l-4 -49l-4 -4l-4 39l4 4l-2 6l-8 -2l-17 4l-10 -2v-28zM874 717h5l28 18l-4 37l4 8 h-33l-12 -14v-21zM588 336l6 4l12 10l-12 25l4 2l-4 2l-10 -6l-13 20l-2 -49l11 -8h8zM494 717l2 4l22 24h-10l-31 -10l-14 8l2 -6l-4 -14l-23 -21l4 -4l15 4l2 -8l8 -2l-6 23l8 6zM571 756v6v14l7 15l-15 2l-22 -9l-2 -18zM434 756l2 6v12l-8 10v-4h-25v-28l9 -2zM729 918 v2l6 8l6 -2l-8 -19h10l5 4v31l-25 4l2 -26zM893 819l-2 -4l-14 -16l-3 -8l5 -7l10 13l6 2l4 -13l8 -2v19zM600 502l-2 -6l4 -19l12 2l4 17l-10 6h-8zM653 1210l-2 -2l-4 -2l-4 13l2 8l10 10l11 -2l-11 -16l-6 -2zM678 672h4l18 4l5 6l-17 10zM717 657v5l6 10l-4 4l-10 -2 v-12zM881 760l4 4h8l2 -8l-6 -6zM623 854l-2 -4v-10l10 -6l-2 16zM612 770h-4h-10l6 -14zM672 623l2 4l6 2l-2 8l-8 2zM600 1010l-2 -4l8 -11z" />
<glyph unicode="," horiz-adv-x="425" d="M201 -172v-6l-6 -10l4 -5l-33 -26l-19 -2l-30 4l-29 10l14 49l23 23l-2 20l31 25l16 24l2 56l-16 10l-33 4l-2 8l-17 6l-2 25l4 33l9 61l8 68h4l8 -19l6 -2l11 13l-17 12l2 18l13 11v6l38 4l9 10l55 -6l67 -8l13 -41v-33l-8 -66l-21 -63l-4 -31l-12 -30l4 -15l-31 -59 l-29 -60l-12 -8h-8l-2 -14h-6zM193 53l2 4l8 35l-35 -6v16h-4l-4 -6zM254 184v-4l-2 -20l22 -6l7 6h-5l-4 6v18l-4 4v-8z" />
<glyph unicode="-" horiz-adv-x="694" d="M647 795h2h8l2 -17l-6 -33l-24 -63l-43 -18l-68 -7l-61 -2l-68 2l-70 5l-65 8l-31 -2l-12 8l-10 57l4 31l16 29l2 16l21 4l65 4l-8 -12l4 -6l12 4v16l17 -6l49 4l66 -4l34 2l68 6l65 -2l29 -6l-2 -6l8 -4zM336 725l2 4l22 59l-28 -2l-4 -6l6 -4v-16l4 -10l-10 -13z" />
<glyph unicode="." horiz-adv-x="425" d="M281 0h-5l-40 4l-60 2h-59l-8 27l-5 30l2 35l13 72l22 61l43 19l15 -6l6 6l31 -2l22 6l57 -10l9 -15h6l6 -28v-35l-17 -45l-4 -33l-12 -63zM193 141l2 2l4 13l-2 8l-9 2l-2 -21z" />
<glyph unicode="/" horiz-adv-x="538" d="M102 -90l-2 -4l-28 -39l-35 -10l-53 6l-27 12l-2 12l6 37l10 33l15 18l12 31l4 27l23 63l24 60l25 61l20 64l25 41l2 14l12 29l21 61l-2 14l26 45l2 13l19 26l12 33v14l10 13l10 26l7 37l8 12l8 33l14 29l11 -16l8 -3l2 11l-8 22h-5l-4 -8l-4 2l15 37l10 10v19l12 30 l-2 15l12 6l15 26l8 2l6 29l-2 15l10 10l25 59l-4 8l6 15l24 57l7 2l2 10l22 62l19 22l4 33l10 31l18 63l7 6l6 23l18 29l2 24l10 31l25 59l10 19l10 4l13 31l12 8v16l16 62l13 10l35 16h14l67 -20l11 -11l-6 -32l-13 -31l-22 -59l-25 -64l-29 -59l-4 -29l-22 -59l-17 -27 l5 -10l-19 -47l-22 -52l-9 13l-6 2l-14 -10l4 -15h4l-18 -14l2 -17l12 -6v-14l-12 -29l-23 -65l-14 -10l-6 -19l-6 -2l-5 -33l-30 -10v-16l10 -6l12 2l-20 -60l-10 -14l-21 -53l-16 -27v-23l-19 -51l-6 -2l-16 -51l-27 -59l-24 -60l-19 -61l-8 -10v-9l-12 -10l-17 -63l-6 -4 l-2 -15l-16 -20l-17 -64l-14 -18h-10l-2 -41l-11 -10l-4 -23l-26 -61l-27 -64l-22 -65v-15zM639 1565v4l-2 8l-12 6l-9 -4l9 -39l-4 -6l6 -14l-11 -4v-13l5 -4l4 8l18 11v10l6 6l21 -4l8 4l6 14h-16l-11 11l5 14h-9zM735 1597l-4 -2h-45l-10 -6l-8 -16l6 2l10 -4l8 -10 l10 -2l19 22l14 8v8zM430 836l-2 -5l-27 -28l-4 -17l2 -10l15 6l2 19l4 -10l8 12l8 2l2 6l-8 18l4 2zM582 1348v-5l-7 -10l7 4l10 -4l2 -18l12 -10l-2 6l14 2l5 6l-11 6l-8 14l25 29l-8 -2l-19 -25l-8 -2l2 4l-4 5h-10zM274 635l-2 -2l-2 -17l4 -16l19 29zM635 1382l4 2v5 l-12 2l-19 16l-8 -2l12 -8l21 -25zM82 106v5v22l-6 2l-4 -18l2 -6z" />
<glyph unicode="0" horiz-adv-x="858" d="M694 88l-2 -2l-12 -12l-6 -15l-21 -4l-55 -35l-2 5l-21 -15l-30 -14l-62 -21l-6 5l-18 2l-33 -7l-29 7l-67 4l-31 12l-31 2l-6 10l-12 2l-31 17l-4 6l-14 6l-13 12l-18 29l-20 12v8h-11l8 11l-10 12l-14 47l-17 64l9 20l12 63l-8 5l-2 32l4 60l12 67l10 72l4 63l5 66 l4 64l8 32l4 66l6 14l12 49l13 70v27l6 34l8 66l8 65l4 66l4 2l9 23h8l-4 2l6 26l20 27l29 47l14 10l8 12l48 46l47 34l51 13l22 10l31 8l31 2l6 6l49 -4l33 2l61 -2l9 -4l61 -20l14 -13l56 -37l20 -26l4 -17l10 -14l-4 -4l6 -16l13 -2v-23h10l-2 -8l6 -6l2 -54l-6 -14h8 v-24l8 -13l-6 -24l4 -62l-4 -35l-12 -28l-2 -19l-4 -63l-8 -66l-7 -63l-6 -64l-8 -65l-10 -68l-12 -67l-11 -64l4 -33l-14 -63l-6 -66l-10 -65l-19 -64l2 -16l-10 -6l-10 -31l-14 -12l-2 -8l-11 -2l-4 -15l-12 -10l-6 -14zM653 891l4 -2l5 -2l20 8v8l-4 4l-12 2l2 15l10 10 l-19 4v57l19 47v64l8 63l-8 15v8l-4 65l-8 5l-9 12l-16 4v8l-43 12l-29 5l-32 -7l-13 -10l-18 -4l-2 -8h-4l-31 -47l-20 -47l-9 -33v-31l-6 -35l-8 -59l4 -33l-12 -61l-8 -62l-9 -65l-8 -68l-8 -69l-10 -70l-8 -66l-9 -59l2 -31l-4 -32l-10 -31l-8 -74l6 -27l-4 -16l8 -12 l2 -17l8 -16l17 -14l47 -11l37 -2l30 4l27 19l16 2l9 -4l-9 -4l-4 -31l7 -8l10 -2l-4 -8l-9 -45l9 -11l4 11l14 -13l10 2l6 21l-8 20l-16 6l-4 7l6 12l22 12l9 31l-11 12l-14 31l14 24l9 35l-2 21l6 12l6 55l10 31l-2 18l-6 13l4 51l10 59l13 64l8 65l6 66l4 63zM328 676v4 l2 14h-13l-12 -8v14l-49 9l-29 -15l-12 -32l31 -15l-21 -16l-2 -8l10 -5l13 11l8 2l2 26l10 9l6 -4l-12 -11h6l13 11l32 4l4 12zM582 1438l-2 2l-9 4h-26l12 -60l-4 -2v-6l4 -2l14 19l17 6l2 10l-8 12v9l10 -9l20 13l13 -11l12 7v6l-6 6l-17 2zM297 1014l-2 -6l-8 -9l-29 15 l2 -25l6 -12l6 -2l-6 -12l4 -23l6 8l-2 17l29 32l-2 15zM317 1190l-2 -4l-18 -45l8 -2l8 -11l11 7l2 6l-4 8l20 8l2 8l-16 2l-4 7l2 14zM193 416l4 -2h10l12 12l-39 10l-4 -47l12 -6zM211 606l-2 -2l-8 -2l2 -14l4 -4l-4 -17l22 -10l11 2l-3 12l-18 27v8h-4zM231 856v-4 l-2 -25l13 2l37 33l-7 4l-20 -10h-21zM571 1356v-6l2 -15l-8 -4l2 10l-10 -2l-12 -8h14l23 -8l12 8l-4 10l2 9zM313 123h4l15 -2l12 6l-8 4l-10 19l-9 2l9 -15l-13 -10l-2 -16l11 -13v6l10 11v4h-15zM846 1374h4l-12 -14l4 -10l-2 -9l4 -6l12 13l4 32zM303 1063v-6l-10 -25 h22l2 6l-4 21zM313 475h6h5l8 -18l8 -2l-4 20l2 10l-14 -2l-9 21l-4 -4l6 -21zM735 1370l2 2l21 2v15l-4 6l-6 -6l-21 -9l6 -6l-2 -2zM225 397l2 4l17 25l-15 4v-10l-16 -12zM709 270l-2 -4l-21 -16l12 -10l13 26zM326 1307v-4l-9 -19l2 -4l11 -2l4 25zM373 127l-2 -2 l-4 -14l4 -7l8 -2l2 15zM764 1321v4l2 10l-18 -2l-5 -6l5 -6h16zM731 1366v-4l-8 -12v-9l12 5l2 14zM795 940v-4l2 -8l10 -13v17l-4 6zM586 1462h-4h-4l-9 -14l15 6z" />
<glyph unicode="1" horiz-adv-x="583" d="M590 1157l2 -6l4 -6l-6 -15l-4 -34l-8 -66l-11 -65l-10 -64l-8 -65l-6 -64l-11 -63l-6 -66l-4 -61l-6 -62l-10 -71l-10 -70l4 -17l-8 -12l-5 -39l-10 -65l-10 -66l-4 -65l-8 -66l-15 -31l-10 -10l-20 -6h-68l-70 -4l-28 8l-6 31v31l8 65l12 66l4 63l4 64l13 65l8 66 l-4 12l10 41l6 65l8 66l12 59l11 64l6 67l4 70l4 66l12 65l13 66l-4 28l-9 15l-12 2l-31 -4l-28 -17l-31 -8l-27 -14l-18 -4l-27 12l-4 12l8 72l4 68l11 28l20 15l6 -5l6 13l56 30l10 13l25 8l59 22l39 31l22 25l23 4l20 24l23 5l14 10l35 4l31 -6l31 -13v-47l-7 -67 l-12 -66v-33l-8 -28zM344 139h6l21 4l-2 25l-7 12h-20l-12 -8l-33 -12l-10 -10l18 -21l-12 -18l2 -7l2 5l4 -3l4 -16h8l9 10h8l2 15h10l4 8zM401 965v-4l-2 -41l7 -13l-5 -2l-6 -14l4 -33h4l5 8l16 2l6 15l6 4l8 31l-12 26v17l-10 -3zM506 1333v-4l-8 -47l-19 -61l-2 -31h10 l2 14l23 13l2 8l-8 16l18 43l-8 2l-4 6l-2 35zM393 242l-2 4v41l-10 4l-33 -4l-2 -11l-20 -18l2 -6l24 4l2 -6l11 -8h28zM451 1108h4l6 -4l-4 -33l-17 -29l-2 -16l4 -6l4 12l13 6l10 43l-4 6l12 7l6 14l-2 8l-14 8h-8l-6 -6zM356 76l2 2l25 18l2 6l-4 9l-19 -15l-8 -14z" />
<glyph unicode="2" horiz-adv-x="837" d="M524 -12h-4l-18 -2l-66 2l-65 4l-68 6h-65l-31 -8l-35 -2l-33 6l-61 18l-2 11l12 67l12 -4l4 -10h7l10 12l-4 10l-13 11l5 6h-11l-6 -4l-2 8l4 6v18l31 60v12l20 49l29 55l12 11v16l13 29l18 28l2 15l12 10v8h7l4 19l20 22l2 8l23 25l6 14l22 21l4 16l13 8l4 17l8 2 l12 18l13 31l26 25l4 14l23 22l16 27l8 31l9 2l10 22h10l8 25l37 29l2 8l35 55l21 43h10l12 23l29 59l10 2l2 14l25 49l2 27l8 72l-6 28l2 11l-8 18l-15 10l-2 21l-18 22l-13 7l-32 4l-37 -4l-33 -9l-12 -10l-2 2l4 6l-2 11l10 32l-6 11l-10 2l-11 -13l11 -37l-7 -16l5 -4 l-37 -27l-11 -30l-22 -60l14 -45l-2 -16l-22 -62l-56 -10l-67 -4l-64 10l-10 15v16l-10 8l2 39l8 37l6 61l17 66l16 31l45 49l6 16l12 4v15l19 14l22 25l37 12l9 12l16 6l8 10l16 5l3 8l16 2l16 8l29 4l72 4l63 8l31 -6l47 -20h14l15 -8l32 -11l-2 -10l13 -2l18 -35l27 -24 l16 -27l2 -14l10 -4l-2 -11h11l2 -24h10l6 -64l4 -2l-6 -10l-4 -55l-6 -66l-6 -20l-17 -66l-12 -31l-10 -10h-4l-11 -20l-4 -19h-10l-18 -32l-23 -25l-10 -41l-6 -4l-7 -12l-12 -13l-4 -16l-12 -8l-25 -43l-45 -54l-35 -57l-14 -8v-4h-4l-4 -17l-10 -12l4 -4l-9 -2l-2 -10 l-16 -19l-12 -28l-13 -11l-32 -49h-8l-21 -43l-35 -55l-35 -57l-22 -25l-17 -29l-2 -16l7 -4l-5 -19l9 -14l26 -8l64 -6l74 2l61 10l37 -2l67 4l29 -4l12 -8l7 -29l-7 -72l-2 -65l-16 -29l-12 -8l-21 -6l-31 -2l-69 2zM520 1376v4l15 31l-11 8l4 6l-2 11l-39 -6l-2 -31 l-20 -29l-2 -8l4 -6l53 16v4zM379 520h4l8 2l17 19l6 -9l6 -2l2 39l-8 29l-33 -47l-4 -14zM170 41l2 6l4 19l-14 34l-8 -8l-19 -2l-4 -14l4 -2l2 4l8 2l-6 -17l6 -22l19 4zM182 150l2 2l15 18l2 18h-19l-2 -14l-14 -18l2 -6h14zM305 70v6l12 18v10l-8 9l-8 2l-4 -6l-2 -17 l4 -18zM678 1356v4l4 16l-2 15l-6 4l-4 -13l-13 -6v-12l11 -8h10zM358 115l7 2l28 -8v34l-33 -20zM651 1419l2 4l11 13l-21 -6zM408 510l4 2l2 8l-23 -14l6 -4zM168 70l-2 -2l-10 -5l-9 5l3 8zM104 6l2 4l7 2l-2 6l-9 2z" />
<glyph unicode="3" horiz-adv-x="817" d="M655 92h-2l-35 -35l-8 -14l-6 2l-20 -10h-9l-12 -10l-55 -25l-10 -10l-33 -4l-19 -11l-22 5l-14 -9l-33 2l-55 11l-52 18v8l-22 4l-60 25l-8 14l-22 25l-8 4v14l-9 31l-26 29v30h-4l-13 33l6 17l-2 61l4 10l7 62l10 34l16 27l25 2l72 6l65 -4l25 -12l4 -23l-2 -30 l-11 -29l-4 -70l9 -30l18 -31l12 -6l19 -2v-11l14 5l4 -5h14l23 -10l25 8l30 19l11 2l20 24l8 3l12 18l-2 8l13 14v23l16 6l2 14l-8 43l4 37l12 29l2 31l9 63l-2 33l-15 66l-31 34l19 25l2 10l-10 8l2 7l-10 -9l-5 -37l-34 7l-68 12l-29 12l2 4l-8 4l4 33l9 70l8 30l10 13 l31 12l65 12l29 11l26 20l17 25l22 24l2 25l11 65l6 66l14 67l-8 64l6 6l-6 10l-4 35l-39 29l-16 -6l-17 2l-33 -4l-61 -25l-23 -47l-20 -66l-10 -65l-10 -29l-48 -8l-69 2l-64 6l-10 31l-2 33l12 67l6 66l11 8l18 43l10 2l21 35l37 57l22 23l21 8l55 33l63 20l35 4l15 6 l30 -6l33 6l33 -6l65 -14l35 -12v-4l31 -13v-12l16 -8l37 -33l12 -23l21 -22l-2 -6l8 -12l-6 -11l10 -10l-22 -25l-9 -14l9 -6l20 2l-6 -55l-14 -4l-6 2l-5 8l5 -16l-9 -13l-2 -10l4 -64l13 7l6 20l-10 12l-2 17l6 8h4l10 12l8 2l-8 -65l-12 -62v-34l8 -29l-21 -49l-10 -47 l-14 -27l-10 -35l-29 -16l-25 -21l-45 -47l-2 -8l11 -10l2 -10l12 -11l6 -14l47 -43l-6 -14l10 -7l6 -16l6 -65l3 -64l-5 -6l2 -4l-6 -64l-14 -65l-8 -70l-15 -61l-16 -25l-4 -24l-25 -58l-18 -14l-12 -21zM696 1149v-4l2 -10l-12 -29h14l19 18l26 -2l3 -4l-5 -6l19 -2l2 12 l-4 8l-10 9l-15 39l-14 2l-10 28h4l14 19l-4 6h-4l-21 -39l2 -18l21 -13l-6 -6l14 -12l-2 -10l-10 -2l-14 14zM684 958v-4l-10 -30h14l4 -11h31l-6 9l-2 28l-15 11l-4 47h-16l2 -11l6 -4l-8 -6l-2 -12zM567 729l2 2l17 17l6 14v10l-53 -10l20 -31zM602 1335h6l10 2l15 47 l-19 5l-4 -17l-8 -10l2 -12h-4l4 -11zM770 1237h-6l-10 -6l6 -47l22 10l4 8l-2 8l-16 2l-4 7l4 2zM215 92l2 6l-14 15v18l-10 10l-5 -18l7 -14v-17l4 -4l4 4h12zM483 1403l6 2l7 -4l6 -12l6 4l-4 2l-2 14l-6 6l-15 2l-2 13l-6 4l-12 -17v-6l20 -2l4 4zM225 328h4l11 2l6 14 l2 18l-15 5l-4 -9v-22zM348 1208l2 6l-2 13l-10 10l-6 14h-4l-2 -18l4 -16zM805 1120v-6l8 -16l12 -8l4 14l-2 14zM274 137l-2 -6l2 -6l13 -8l14 6v8l-10 8zM657 504l2 4l3 18l-17 6l-6 -18l6 2l6 -14zM606 332h4l15 -8h8l8 14h-27zM735 1296h-6l-12 -6l2 -14l10 2zM281 92 v4v17h-9l-8 -13v-8h17zM522 201h4l9 2l4 8l-4 14h-5zM373 1384l2 5l6 12v14l-4 8l-6 -14l-2 -20zM821 973l-2 -4l-12 -33l2 -6l16 33zM600 1438l-2 -4l-4 -11l14 -6v8zM287 156l-2 6v2l2 -21l8 -2l-2 11zM512 743h4h4l10 11h-10zM678 195v4l6 14l-8 2l-2 -14z" />
<glyph unicode="4" horiz-adv-x="831" d="M827 508l2 -4l7 -29l2 -33l-4 -36l-21 -64l-31 -6l-63 -12l-17 -23l-12 -63l-8 -72h-18l-19 10l-10 -10l-4 -16l2 -11l4 -2l25 8v-4l6 -4v-10l6 6l-2 17l4 6l4 -6l-6 -27l-8 -10l4 -9l-6 -65l-15 -29l-12 -10h-16l-13 -4l-8 4l-76 -6h-57l-8 39l-2 33l4 69l14 66l14 -8 v-31l5 -6l8 2l12 14l6 18l12 -6l-2 17l13 28l-21 2l2 9l-8 -2l-8 -13h-33l2 21l4 65l-24 8l-8 13l-27 4l-66 -6l-71 -4l-64 10l-35 -2l-65 -4l-29 6l-10 29l-4 34l4 11l6 63l8 31l25 59l20 29h9v14l6 6l30 58l33 57l8 31l35 53l33 57l8 2l10 37l11 17l-2 4l8 2l2 4l-6 4l8 4 l16 27l12 8l3 14l10 15l12 34l29 37l22 56l15 22h4l26 -27l11 7l6 18l16 16l-6 13l-21 -8l-6 4l11 8l-2 6h10l14 6l-18 19l14 28l-4 17l14 30l37 56l10 30l27 39l20 21l19 26l12 6l35 7l14 10h17l65 -6l10 -4l27 2l12 -11l11 -2l-4 -63l-5 -64l-8 -30l-12 -68l-2 -65l-8 -31 l-4 -64l-9 -63l-10 -66l-4 -57l-8 -66l-10 -71l-6 -66l-13 -71v-68l6 -25l27 -4zM539 713v4l4 33l2 61l10 31v30l6 66l-6 31l-31 -19l-35 -55l-24 -59l-10 -5l-6 -14l-13 -10l-12 -35l-10 -10l-13 -51l-6 -13l-12 -10l-6 -24h-10l-5 -13l-32 -55l4 -4l-4 -2l-19 -53l31 -19 l33 -4l35 2h71l15 6l18 29l6 29l6 67zM418 406l2 4l4 12l-2 14l-8 4l-8 -12h-15l-10 -12l6 -4zM494 297l-5 -4l-2 -10l5 -9l12 -10v25zM674 846h4l12 8l4 16h-14l-4 -6zM508 934h-2l-12 10l-7 -6l7 -2l-2 -16h4zM264 705v-5l4 -12l15 -2l6 8l-10 -2l-9 10zM502 958l4 5 l-12 20l2 -20zM492 1120v-4v-6l6 -6l2 14z" />
<glyph unicode="5" horiz-adv-x="831" d="M487 -18h-4l-49 2l15 14l-3 4l-22 4l-6 6l-4 -18l6 -8l4 2l-4 -4h-27l-22 -11l-33 -4l-62 29l-2 8h-34l-13 10l-43 21h-10l-6 14l-8 4l-10 13l-5 16l-18 27l-10 65l-6 12l6 21l-6 59l4 33l4 68l10 30l21 23l67 6l62 10l8 -2l24 -20l19 -27l-4 -47l2 -31l-13 -32l4 -23 l13 -33l12 -10l4 -16l21 -9l10 -10l43 -6l37 4l6 4l2 8h10l39 29l4 14l25 60l16 61l4 64l8 69l9 2l8 13l8 2l-2 6l-16 -10l-5 4l3 12l8 8l14 -6l2 25l2 57h-12l2 41l8 70l-2 32l-6 27l-6 4l-4 19l-9 2l-8 12l-18 14h-14l-64 -6l-51 -37l-43 -49l-53 -18l-52 14l-34 -2l-33 6 l-12 8l-5 31l2 33l9 30l8 64l12 65l17 64l8 61l4 68l12 27l2 14l4 68l10 67v64l7 16l18 61h4l60 13l69 4l6 -6l25 6l37 -2l65 -4l66 6l22 -6l-10 -11l17 -2l2 -6h8l10 17l68 4l63 2l57 -8v-9l4 -4l5 2l2 -8l-13 -31l2 -24l-6 -15l4 -14l-10 -31l-31 -57l-22 -10l-43 2 l-66 -4l-69 2l-64 -4l-65 10l-17 -4l-8 -12l-10 -64l-10 -14l-15 -51v-33l-12 -62l-14 -59l2 -14l10 -13l-4 -4h43l6 8l41 25l2 6l12 -2l33 6l64 8l67 -8l25 -10l59 -33l4 -6l29 -61v-15l4 -4l4 -20l10 -10v-25l6 -31l-8 -24l2 -54l-4 -32l-8 -21l14 -10l-2 -68l-16 -28 l-14 -72l-5 -61l-8 -68l-12 -66l-18 -57l-13 -8l-16 -27l-2 -20l-10 -33l-17 -25l-22 -24l-8 -17l-15 -8l-61 -28l-25 -21h-14v-8l-12 4zM668 1391l-2 -5l-21 -38l45 -2l10 -9v15l19 53l-8 -2l-2 16l-13 4l-32 -2l-2 -10zM530 207l2 -4l3 -4l-5 -15l-18 -26v-8l16 4l15 10 l-4 10l10 39l-14 -2zM573 125l-4 -2l-8 -2l-26 -21h28l6 -6l15 45l-9 11l-4 -5zM580 178h-7l-10 -16l-6 2v-10l14 -4l17 8l4 6h-8l-2 4l4 27l-4 4l-4 -6zM481 100l-2 -4l-2 -14l6 -14l9 -2l8 16l-4 14zM293 1235l-2 -6l-8 -39l8 2l14 18l2 19zM248 858h4l12 2l12 8l-2 27 l-6 12l-8 -20l10 -10zM315 66h4l31 -9l4 4h-4l-4 23l-4 2l-14 -14l-15 -4zM276 100l-4 -4l-2 -6l4 -6l25 -8v4l-14 6v12zM672 295l-2 -4v-15l4 -6l10 6l-4 5l6 14h-14zM258 829v-4v-14l8 -2v10l-10 29l-4 -2zM262 188v7l-8 4l4 -4z" />
<glyph unicode="6" horiz-adv-x="847" d="M397 -14h-4h-45l-12 10l-64 8l-2 6l-55 21l-16 20l-31 17l2 10h-10l-2 6l-19 59l-20 64l-4 53l-9 14v11l5 63l4 62l16 69h-4l2 8l8 64l15 65l6 66l8 33l2 63l8 64l6 65l4 64l15 61v19l4 67l-4 31l14 10l8 33l19 65l20 64l8 4l15 33l18 24l43 48l31 14l57 33l29 10l12 10 l55 6l70 4l70 -4l59 -14l8 -14l39 -13l2 -8l43 -39l13 -2l-3 -10l19 -8l14 -41l4 -33l9 -21v-20l10 -33v-33l-10 -30l-5 -64l-12 -30l-8 -3l-12 -12h-15l-8 -10l-18 -6h-27l-67 12l-11 10l-28 15l-4 49l14 33l-4 10l8 18l-2 13l-16 59l-13 12l-8 -4l-14 14h-21l-71 -2 l-27 -6l-23 -16l-8 -14l-18 20l6 6l-8 12l-13 -10l5 -4l-17 -16l6 -8l-2 -11l6 -2l19 15l6 -2l-27 -39l4 -13l-8 -69l-6 -66l-14 -63l-2 -66l-4 -63l6 -33l22 2l21 8l6 -2l47 33l31 8l63 14l45 -8h35l4 -6l8 -2l4 -6l13 -4l-2 -6h16l31 -17l45 -43l22 -57l9 -70l-2 -35 l-7 -4l4 -18l-2 -31l-2 -65l-6 -29l-10 -10v-13l-10 21l4 8l-8 -4l-11 14l-8 4l-14 -4l-14 4l-27 -16l-4 -14l4 -19h10l12 9l9 14l6 2l12 -10l6 6l2 -8l-10 -27l6 -2l29 8l2 8v-43l-8 -63l-11 -68l-14 -61l-24 -60l-31 -53l-14 -33l-25 -22l-51 -39l-31 -14l-27 -33l-18 -2 l-66 -8l-71 -9l-15 5zM362 215l5 -2l22 -20l64 -13l14 4l49 21l23 28l16 29l18 68l11 65l4 68l4 67l12 62l-2 70l-12 26l-21 19l-45 18l-8 -2v22l-4 7l-16 2l-7 -13l13 -18l-33 -8l-63 -35l-19 -23l-12 -36l-6 -62l-9 -74l-10 -69l-8 -68l4 -59l-4 -33zM719 690l-4 2l-39 2 l6 -20l14 -8l4 -19l27 -16l10 20l2 47l-6 2l-8 -12zM383 1106l2 4l33 35l-12 8l-15 -4l-14 -10v-31zM283 1026l2 2l8 27l-6 6l-6 -6l-5 -17l-8 -2l-8 11l-6 -5l8 -8l-12 -26l4 -7l2 7zM805 547h-4l-13 -4l3 -6l30 -9l4 23l-2 14l-6 2l-6 -4zM346 82v6l2 16l14 27l-14 6 l-14 -49zM311 117l-2 6l17 18h-25l-12 -10l4 2l6 -8l-4 -27l4 4l2 15h10zM307 170l4 2l17 6l18 17l-12 -2l-29 -17l-4 -22l2 -7l6 5zM627 1423v-4l-6 -16l6 -4h18l2 6l-6 12zM504 850h-4l-17 -6l-2 -19l15 -4zM281 698l-2 -6l4 -10l8 -4l20 2l-18 4l2 4l-6 12zM295 582l2 4 v6l-10 10l-2 -4l-9 -2l3 -18zM516 123v4l8 12v6l-4 2l-12 -10h-8v-12zM598 219l-4 -4l2 -20l14 6v16zM627 328l-2 -4l2 -19l6 -2l6 4l-2 17zM741 743l-4 -2l-12 -22l4 -4l8 4h-4v4l10 10l2 -4l5 4zM582 127v-4l-2 -10l18 6l4 8h-20zM244 522l2 6l-2 9l-13 6v-17zM680 170v-4 l4 -6l6 6v10zM666 381l2 4l2 4l-6 10l-5 -4z" />
<glyph unicode="7" horiz-adv-x="737" d="M369 10l-4 -2l-11 -2l-65 -10l-66 2l-65 12v8l8 64l-2 16l16 52l15 63l32 59l6 29l7 6l-7 6l9 23l-4 2l8 16l8 35l27 64l20 59l4 33l10 12l15 29l10 49l14 10l6 31l21 43l8 33l29 59l10 31l14 63l13 4l14 37l27 64l-4 8l8 10l12 33l10 10l8 25l7 4l8 14l2 31l14 16l29 66 l6 30l-6 7l-31 8l-61 2l-70 -2l-63 4l-37 -4l-68 -4l-31 4l-26 12l-4 59l2 68l18 62l17 2l63 6l66 -4l30 4l66 -8l65 4l66 2h65l64 2l63 4l-8 -19l12 15h11l-2 -8l4 -7l4 2l2 9l-4 4l6 2l35 -4l12 -19l8 -33l-2 -34l-14 -66l-14 -16l-7 -25l-10 -10l-8 -29l-6 -2l-15 -31 l-18 -63l-14 -29l-6 -32l-9 -7l-6 -16l-6 -2l-4 -14l-12 -11l-19 -61l-16 -27l-8 -28l-21 -62v-18l-33 -62l-8 -30l-22 -56l-23 -61l-22 -64l-21 -63l-10 -53l-27 -60l-8 -33l-14 -53l-21 -63l-16 -64l-10 -65l-11 -33l-14 -29l-10 -32zM555 983v-6l-4 -10l-14 -11v-12l2 4 l2 -10l12 -2l2 -37l8 2l19 23l6 -2l-4 -13l12 4l-4 13l-10 8v14l12 2l31 27l-11 8l-2 8h-6l-16 -14l-10 -2l4 16l6 4h16l12 15l-4 2l2 6l15 8l4 8h-23l-6 4l-2 15l17 10l-5 4l11 -2l6 29l-10 2l8 20l-2 10h-21l-2 -18l-26 -14l-7 -15l11 -2l8 4l6 -2l-16 -26l-13 -13l-8 -2 l4 -12l-10 -29l2 -6l10 21l8 4l7 -14v-11h-15v-14l11 -6v-10l-7 -2l-8 8l-4 14h-4zM467 1339l2 2l14 13h11l4 59l-19 -6l-8 -12l-14 -11l-8 2l-9 23l-12 12l-8 2l-8 -4l-2 -6h4v4h4l12 -26l2 -27l-12 4l-35 21v-39l-4 -9l8 -2l-4 -6l2 -4h6l8 14l25 7h23l12 -11h6zM713 1423 v-4l-6 -51l10 4l10 23l8 4l19 -2l8 -13l-6 -26l6 -8l8 22l4 27l-16 4l2 14l-6 2l-19 -16l-4 20h-18zM567 1354v6l23 29l-6 8l-6 22l-9 4l-8 -16l-4 -31l-8 -16zM500 874v-4l-23 -51l2 -22l17 20l10 25l10 10l6 18l-10 -2zM487 659h-4l-45 7v-17l4 -4l9 6l8 -4l2 -6l-4 -35h8 zM809 1448h-4l-23 12l-8 -4l8 -29l-6 -12l2 -12zM426 518l-2 -4l-12 -41l4 -12l6 -6l18 63h-14zM440 522v4l13 31l-2 10l-5 -6h-10l-10 -24l4 -15l4 4zM545 899h-6l-9 8l2 25l-6 6l-4 -23l4 -16h-10l-4 -4l20 -8zM272 1350h4h21l-4 8l-19 2l-6 -6l2 -2l-10 -31l14 -10l5 4 l-9 24zM786 1262l2 4l11 16v8h-15l-2 -22zM512 983v-4l-2 -16h10l2 20h-10zM584 1022l2 -6l-2 -2v16l18 2l-8 -8zM528 952l-4 2l-4 4l-8 -10l10 -4z" />
<glyph unicode="8" horiz-adv-x="833" d="M584 18l-4 -2l-39 -16l-66 -12l-29 -13l-63 -4l-31 9h-33v4l-16 6l-2 8l-8 -6l-43 12l-4 6l-15 8l-2 7l-39 14l-2 8l-16 6l-2 15l-12 8l-8 16h-11v10l-10 4l-16 46v8l6 6l-6 8l-2 19l-7 6l-2 20l-2 60l2 61l9 66l8 69l12 70l12 65l4 2l5 15h4l10 12l35 57l12 9l6 12 l37 37l6 16l-4 21l-8 14l-37 51l-6 27l-12 71l2 33l10 64l6 61l6 66l8 34l21 60l22 61l23 21l2 8l10 10l-4 2l31 23l6 -4l16 26l27 19l12 14l23 6l6 6l29 13l4 -4l37 18h14l6 4l2 8l45 -6l14 4l41 -6l4 -4l31 10l62 -14l2 -10l14 -2l31 -21l12 -2v-10l12 -4l52 -45l10 -19 l18 -63l10 -66l-2 -63l-4 -68l-6 -63l-12 -68l-19 -61l-6 -7l-10 -26l-27 -45l-8 -2l-4 -13l-14 -8v-10h-10l-2 -14l-9 2l-6 -6l-8 -23v-16l14 -23l25 -24l12 -29l19 -25l2 -18l-4 -25l-29 -49l4 -6l-2 -16h8l4 -4l-10 -17l2 -4l31 -6l2 -31l-10 -61l-15 -68l-4 -65l-16 -64 l-13 -20l-12 -33l-22 -31l-39 -55l-13 -2l-8 -17l-20 -14l-8 -12l-35 -8zM543 274l2 5l2 8l8 63l18 64l9 65l4 66l6 14l2 19l-8 30l-8 10v9l-7 8l-22 12l-8 12l16 -4l14 2l9 23l-2 14l-11 15l-24 4l2 -15l-10 -4l-11 -10l2 -14l-4 -6l-57 10l-21 -10l-32 -9l-15 -16l-35 -49 l-10 -37l-10 -66l-4 -67l-6 -64l-8 -65l-5 -55l13 -31l10 -10l35 -9l14 -8l15 -2l59 6l24 8l5 11l10 2l6 6v6l22 27zM440 1198v-2l-6 -31l-12 -65l-8 -72l2 -65l-6 -15v-20l6 -15v-12l30 -41l13 -6l4 -6l31 -2l38 4l31 8l8 12l17 4l2 5l31 57l18 65v33v66l6 24l14 33l-2 14 l5 31l-11 15l4 20l-8 4l-12 25l-10 6l-9 14l-61 14l-29 -4l-16 -14l-33 -16v-6l-20 -27l-4 -16l-11 -5zM291 938h6l16 -2l4 8l-4 2l-2 8l25 50l6 36h-20l-3 7l5 10l-11 -2l-4 -6l4 -23l-8 -2l-14 -23l-6 -4l-25 4l-4 -4v-24l-6 -15l6 -10l-2 -4l-2 4h-6l-6 6l-9 -24l15 -12 l43 -5l4 9zM614 782l-2 -4l-2 -28l-4 -7l8 -2l2 -22l9 -2l2 -27l-9 -16l3 -8l24 8h10l-4 4l15 31l-9 10v14l17 -20v8l-8 14l-13 8h-32l-3 11l7 14l14 10l16 -4l9 4l-7 4v9l-6 6l-2 -4l-4 4l-16 -11zM346 1153v4l-8 23v18l10 10l6 15l-14 -6h-10v8l-13 6l-12 -8l2 -9l19 -10 l-2 -10h-15l-14 6l-4 12v-38l-6 -15l30 -35zM313 1321v-2l-18 -39l8 -4l2 -8l-4 -13l4 -4l2 6h15l4 15l18 4l25 49l-2 6l-27 4l-18 -30l6 26l-9 4v-8zM553 113l2 6l8 8l21 4l6 25l-4 16l-11 8h-10l-8 -35l-18 -8v-16zM410 1389h4l8 4l4 8l-10 2v-10h-10l-15 -17l-31 -6 l-2 -6l9 -14l18 -4l10 8l15 -4v39zM711 889h-6l-5 2l-2 16l-10 13l-22 4l14 -33l2 -19l-4 -12l6 -2l12 6l13 17zM334 733v4v31l-6 -2l-4 10l-9 2l-8 -55zM451 78l4 4l6 12l-12 29h-15l2 -19zM188 356l5 2l8 4l-2 5l4 16l-8 8l-2 -8l-31 -12l-2 -19h10l16 15zM803 528l-4 2 l-6 7l-9 49l9 -2l2 -6l6 8l4 -21zM678 1124l-4 -4l-2 -8l4 -2l8 10l29 17l10 12h-8l-10 10l-3 -10l-20 -10zM694 401h-4h-10l-14 -6l4 -22l20 -6l4 10l-4 14zM483 797v-4l-8 -17v-8l21 -6v24zM580 68l-5 -5l-12 -20l17 -10l6 6l-2 2l4 8l-10 4l6 13zM504 117h4l10 6l6 14 h-18zM209 63l2 -2l8 -4l14 4l7 7l-4 6l-5 -6l-18 2zM293 870l2 2l4 9l-4 14l-6 -2l-2 -8zM754 1163l2 6l-15 7l-2 -9l4 -4h11zM846 1272h-6l-9 -6l-2 -9h9zM653 1466l-2 -4l8 -6l15 6zM717 1184v-4l-2 -6h14l2 4l-4 6h-10zM651 801v6l-4 4h-8l-2 -10h14zM285 483h-4h-7 l-2 -10h11zM229 395v4v7h-10v-11h10z" />
<glyph unicode="9" horiz-adv-x="849" d="M612 18h-4l-24 -4l-19 -14l-16 -4l-64 -16l-69 -7h-70l-59 11l-4 6l-25 4v10l-22 4l-11 19l-16 6l-16 28l-25 21l-2 14l-10 13l-6 16v16l-11 4l2 15l-4 6l-14 43v63l4 66l23 61l6 -2l4 6l10 3l12 -7l25 7h26l5 -7l-11 -12l2 -14l13 -21l10 4l63 21l-2 8l-26 14l16 4 l33 -8v-12l-4 -72v-63l10 -25l20 -24l27 -17l37 -4v-6h16l2 6l23 2l10 10l17 5l26 20h8l23 39l18 55l6 33l11 74l10 28l-4 13l2 49l10 74v32l-4 13l-33 -4l-30 -13l-58 -30l-30 -7h-33l-4 4l-6 -4h-23l-70 7l-28 10l-45 28l-21 25l-37 53l-6 39l8 10l-14 54l2 16l10 64v65 l17 39l8 66l-4 59l8 31l18 67l11 64l22 26v6h8l21 50l39 49l51 39l22 24v4l31 9l29 14h14l74 8l4 4h49l-10 -24l-4 -31l-8 -14l-15 16l11 6v16l-11 -4l-12 -12l-6 2l6 10h8l-4 9l-6 2l-14 -17l-2 6l-7 -8l5 -16l-9 -10l-39 -7l-8 -6l-16 -4l-17 2v-10l-10 -2l-2 -6l4 -17 l-22 -22l2 -8l-10 -15l4 -12l30 8l15 19l4 16l28 -4l15 20l-6 11l2 8l24 20l6 -6l-8 -47l2 -31l8 2l19 17l8 16l6 -4l25 4l-4 6l-4 27l2 8l14 10l16 29l-12 35l6 12h49l31 -8l55 -20l33 -7l4 -6l49 -41l21 -26l4 -19l8 -4l10 -31l9 -4l-4 -12l8 -4v-14l4 -9l8 -2l2 -32v-68 l-8 -68l-6 -12l4 -39l-8 -61l-13 -66h-4l2 -63l-6 -33l-8 -66l4 -24l-8 -14l-2 -56l-8 -33l-7 -63l-12 -68l-6 -67l-4 -66l-14 -59l-9 -14l-6 -33l-8 -64l-10 -30l4 -5l-6 -6l-6 -24h-11l-4 -8h-4l-2 -11l-16 -30l-21 -25l-24 -20l-47 -41zM588 786l4 -2l10 -4l33 13l-10 22 l4 10l6 -2l35 25l10 -2l20 49l-6 -2l-14 8l-4 -6l4 -4l-2 -4l-6 8h-4l-4 -14l-21 -11l6 31l4 62l11 63l10 6l-15 8l3 7l6 -5l12 9l-14 6l2 49l8 68l8 28l-8 2v17l-10 30l-13 4l-8 13l-20 28l-68 9l-29 -7l-6 -8l-18 -2l-15 -8l-12 -29l-33 -59v-33l-8 -33l-2 -32l4 -33 l-12 -39l-12 -64l-13 -63l-16 -10l6 -15l15 2l-5 -34l7 -31l14 -25l20 -20l29 -10l35 -4l39 4zM639 635l2 4l4 6v-12l21 -21l2 -8l-4 -12h8l16 8l-6 41l-12 8l-4 -4v10h-15l-10 13v8l-6 4l-2 -4l-12 4l-7 -16l2 4l-6 12l-4 -6l21 -29l-23 -6l2 -8l10 -10l5 16zM741 1266l2 2 h7l4 -17l-33 -34h12l6 -5l4 11l15 -4l6 8v18l16 27l-16 -6l-6 2l-2 10l18 16l-14 29l-10 2l-9 -6l4 -4l-4 -43l-4 -4zM797 1407l-2 -6l16 -23l2 -14l8 -4l-4 14l4 4l15 2l2 17l-13 10l-8 -6zM279 160l2 4v14l-11 6l-6 -4l2 19l-8 -9h-10v-10zM559 727v-6l2 -6l23 2l6 -4 l6 20l-8 4l-13 -8zM283 311l-7 2l-14 -8v-22l6 -4zM819 782v-6l-10 -24l22 6l-4 22zM442 1462l-2 -4l-2 -4l-12 -2l-4 -4v-10h22zM674 1354v4l-4 12l-17 4v-12l11 -8h10zM653 748l-4 2l2 10l-6 2l-2 -4h-8l-2 -15h14zM688 1036v-4l4 -14l8 -2v18zM625 360v-4l4 -14h10l-2 10 zM252 381l-4 2l-4 2v14l14 -4zM680 479v4l-2 13l-6 2l-4 -13l2 -4zM279 391l-5 -4l-6 -10h-8l4 10zM596 645l2 4v4l-12 2l-4 -6zM702 913v-4l-6 -10h6l9 12zM455 1477h-4l-13 -11zM410 889l-2 -4l-2 -11v15h4z" />
<glyph unicode=":" horiz-adv-x="425" d="M197 780v4l8 66l16 22l15 7l34 4l62 2l67 -2l4 -15h9v-63l-15 -25l2 -39l-8 -67l-12 -29l-12 -6l-17 -2h-65h-70l-29 8l-2 6v62zM373 784l-2 -4l4 -16l-6 -23l12 -14l-6 -8l4 -2l12 8l-8 23l-4 36h-6zM299 12l-4 -2l-21 -8l-30 -4h-70l-63 8l-5 31l3 67l14 9l14 26v11 l-14 6l-2 8l2 57l4 -2l6 4l2 8l8 9h19l14 6h23l20 10l35 2l63 -12l-2 -8l15 -11l-2 -24l4 -10l-10 -54l-3 -63l-6 -35zM225 70h4l13 -9l18 29l2 21h-16l-2 4l6 14l-8 -2l-13 -10l-4 -17l8 -18z" />
<glyph unicode=";" horiz-adv-x="425" d="M164 -106h-4l-10 6v6l14 4l4 -4l8 61l-4 13l-47 30l-23 25l2 22l7 62l10 61l26 62h35l64 12h30l7 -6l2 -12l-6 -21l2 -6l12 -8v-8l4 10l-2 28l4 11l33 -19v-35l6 -28l-10 -23l-13 -63l-10 -64l-20 -67l-31 -60l-6 -2l-27 -41l-43 -51l-18 -14l-33 -2l-25 14l-8 14v11h4 l4 14l9 4l16 25l12 30l11 15l-3 -17h11zM186 651l-2 4l-6 11l-2 22l2 62l15 69l-3 8l11 31l-2 2l16 17h16l2 8l39 4l76 -4l33 -11l25 -12l-9 -28l2 -48l-10 -10l-2 -24l8 -31l2 -33l-14 -31l-10 -10l-41 -6l-13 6l-12 -2l-61 -14l-37 2zM213 94l2 -6v-10l-16 -19h14l31 11 l41 -19l6 12l-12 21l2 6h-5zM115 -188h4h8l2 8h-10zM260 41v-4h6l8 6l-4 4z" />
<glyph unicode="&#x3c;" horiz-adv-x="1183" d="M1094 406v-3l2 -14l-6 -70l-11 -34l-12 -6l-16 -3l-17 -8l-14 4l-59 35l-5 6l-18 2l-57 17l-54 26l-24 19h-8l-21 12l-29 10l-12 11l-10 -4l-31 28l-28 15l-37 6v4l-15 6l-6 14l-10 -4l-23 10l-24 19l-47 10l-4 6l6 19l-4 4h-29l-6 20l-27 -4l-35 4l-30 12l-25 19l-24 4 l-27 12l-14 -4l-11 12l-45 19l-2 8l-20 10l2 7l-8 16l-2 27l6 34l18 70l33 20l8 13l12 8l64 22l57 33l6 -6l7 6l51 13l43 16l26 18l58 27l32 4l13 10h8v11l12 -3l27 15l31 10l59 27l27 20l16 4v8l61 15l5 -4l41 14l8 10l16 2l12 8l54 25l67 19l45 30l33 6l33 -4l4 -28 l-2 -68l-14 -68l-19 -14l-61 -22l-27 -19h-25l-26 -18l-31 -13l-61 -18l-15 -10l-8 2l-14 -17l-35 -8l-43 -22l-64 -23l-12 -8l-31 -4l-4 -4l-20 -4l-29 -17l2 -2l-26 -6l-15 -8l-8 6l-4 -8l-2 2l-16 -14v-5l-9 -2l-59 -26l-6 -10l-10 -2l2 -13l14 -26l33 -4l12 -13l35 -12 l29 -18l26 -5l12 -8l31 -4l4 -6l13 -2v-6l30 -4v-13l37 -20l29 -8l31 -15l63 -28l25 -17l45 -12l6 -12l53 -19l57 -34l7 -13l-3 -6l7 -6v-18zM424 754l2 2l23 45v16l-7 14l7 5l6 16l-4 6l-9 2l-6 -14l4 -25l-10 -4l-2 -8l-8 -2l6 -39l-8 -12zM467 754l4 2l21 8v4l-9 4 l-24 -16l-4 -6l2 -7l2 5l6 -19h10l2 6zM508 920v-7l20 -16l7 2l-3 16zM551 944l-2 -6l-4 -6l4 -2l6 6l16 -8l7 6l-21 12zM819 1032h-4h-10v-8l8 -12zM518 856l4 -2l10 8v10l-4 5z" />
<glyph unicode="=" horiz-adv-x="1183" d="M1042 627h5l10 -2l65 -17v-4l-2 -65l-14 -68l-12 -25l-64 -4l-61 -4l12 19l-47 -11l-19 5l-6 -13l-10 -2l-20 4h-29l-70 -4l-65 6l-31 -2l-66 -2l-67 -2l-66 4l-61 -6h-55h-66l-65 4l-64 2l-2 37l6 64l15 63l6 6l32 8l13 9l37 2l32 8l17 -6l65 -4h60h61l68 2h69l68 -6 l31 4l63 -4l68 4l65 6h64zM231 852l-2 2l-10 33l2 31l10 75l7 15l14 10v6l6 6l57 6l66 -4l63 -4l64 6l61 4l66 -4l67 -6l33 2l31 8h29l65 -8l35 2l-2 -14l-16 -14l-3 -15l7 -4l14 4l12 17l8 -2l-2 -13l-10 -12h-8v-18l-10 -15l-8 -4l-9 -12l2 -8l15 4l14 -21v-8l-20 4v-6 l18 -14l-2 -13l6 -4l8 2l9 -14l-21 -6l-23 4l-63 2l-68 -4h-67l-66 2l-61 -2l-62 -4l-65 6l-4 6l-10 -8l-48 -2l-67 6h-62zM952 975l-4 4l-6 2l-27 -16h-8l13 26l30 13v-15l13 -14l2 2l-11 22l17 25l-2 8l6 2l4 -10h14l11 -20l10 2l-13 18l3 4l30 6l15 -10l2 -6h4l8 10l14 6 l45 -4l2 -6l17 8l16 -2l10 -8l7 -33l-7 -63l-14 4l-4 -15l4 -10l10 -8l-14 -35l-14 -6l-2 -8l-21 -4l-70 -2l-75 4l-6 4l10 2l-21 10l4 15l-6 30l10 15h46l4 4v16l-15 8h4l4 6l-6 5v4l11 10l2 14l-4 -2l-58 -26l-2 -50l-14 17l-2 8l-15 4l9 16v9l6 -2zM930 553l2 4l4 6v10 l-39 -2l-33 7l-14 -21l-6 -18l-8 -2l-2 -9l8 -2l10 -12l2 -14l6 -4l4 10l-6 22l21 11l16 -29l16 18l13 2v13zM430 979l-2 -4l-8 -21l8 -14l-8 -2l-4 -16h39l-2 10l16 47h-39zM713 524l-2 4l-2 9l14 16l2 10l-18 10l-23 -28l-6 4h-19v-6l13 -13l35 -8zM356 588v4l4 14l-2 6 l-8 -4l-6 8h-4l-4 -6l-2 -16l8 2l-2 2l4 4l4 -4l-2 -8l4 -4zM993 944l-2 -4l-12 -12l-12 2l8 16l6 2zM1110 985v-4l-4 -31l18 29zM965 877v-7v-4l14 -2l6 13l-14 -5zM428 856v4l2 10l-4 2l-2 -4l-14 -6l4 8zM999 457l2 2l9 12l-6 4l-11 -14zM827 510l4 -2l7 8l-4 2l-11 -6z " />
<glyph unicode="&#x3e;" horiz-adv-x="1183" d="M1135 782l2 -4l10 -16l-8 -45l-17 -43l-22 -29l-15 -6l-57 -23l-63 -24l-25 -17l-29 -8l-26 -20l-19 2l-47 -21l-26 -6l-62 -33l-12 3l-12 -7l-11 4l9 -16l-25 -4l-31 -12l-53 -19l-59 -28l-21 -15l-31 -12l-51 -14l-28 -15l-56 -24l-37 -8l-18 -15l-21 -2l-32 -12 l-11 -14l-41 -11h-34l-13 21l2 16l11 70l16 59l27 19l61 26l10 10l23 3l26 16l48 14l12 10l37 7l10 14l31 8l26 17l19 2l12 12h6l64 20l26 21h23l10 12l16 2l62 27l8 -2l10 -13l9 5l4 20l4 4h16l6 -4l4 2l-2 8l8 2l3 9h8l14 8l-4 -21l-16 -33l6 -6l12 13l6 -7l8 11l19 4 l-17 35l15 43l-6 12l-23 8l-6 10l-25 2l-12 13l-25 4l-8 10l-30 8l-13 12l-18 3l-25 20l-55 16v4h-8v11l-37 14l-4 -4l-21 10l-14 2l-55 29l-64 27l-4 6l-16 2l-13 12h-14l-8 12l-37 9l-4 6l-31 8l-12 16l-6 66l-4 4l16 45l16 63l21 2l61 -16l-8 -18l-8 -2l2 -9l16 -4 l21 -12h10l2 6l-6 10l-20 9l8 10l14 -6l55 -33l56 -29l63 -22l10 -13l23 -2l12 -8l13 4l12 -4l-4 -8l20 -10l-2 -6l31 -4l2 -11l18 -2l11 -12l22 -6l12 -12l35 -11l4 -6l41 -24l31 -5v-8l8 -10l-4 -12l4 -2l12 12h13l8 -4l63 -14l29 -27l-2 -4l21 -4l14 -11h22l45 -24l5 -6 l-7 -15l5 -8l12 2l4 6l14 7l13 -15l-3 -4l-14 8l-16 -12l-10 4l4 -12l10 -10zM797 905v4l-4 21l2 8l8 6h-4l-15 14l-51 -43l-8 -2v-18l-10 -33l2 -16h8l8 12l2 16l21 17l16 4l-2 -8h12l2 10zM961 737l4 2l18 39v17l-8 12l-12 4l-27 -14l-6 14l-15 6l-8 -2l-6 -8l37 -25v-8 l10 -10v-16zM715 909v6l-4 13l2 10h-25l-2 35l-22 -6l-9 -15l9 -6l2 -22l14 -2l-4 -4l10 -9l-4 -2l2 -2l2 4l23 -4zM608 973v-4v-4l27 -4l4 14l-6 10l-15 6l-24 -4l-10 -14l8 -4zM784 850l2 2l5 8l-5 14l-12 11l4 -33z" />
<glyph unicode="?" horiz-adv-x="741" d="M375 1061l-4 -2l-17 -4l-71 -11l-68 9l-22 12l-5 49l13 64l2 65l24 62l11 10l4 16l20 12l14 25h9l-4 6l6 4l14 25l37 33l20 6l2 8l31 8l19 19l14 4l65 14l68 6l64 -4l63 -20l6 -11l19 -14l6 2l8 -10l14 -4l17 -17l2 -12l32 -37l3 -24l10 -13l6 -47l12 -63l-2 -17l-10 -63 l-6 -6l-6 -45l-17 -45l-10 -4l-25 -52l-32 -55l-39 -51l-13 -27l-6 -6l-43 -55l-39 -51l-12 -27l-12 -10l-29 -58l-6 -30l-29 -50l-8 -38h4v-5h-4l-20 -49l2 -18l-8 -31l-9 -4l-12 6l-4 -2v-8l-8 -4l-74 -2l-12 4l-4 6l-31 8l-2 6l2 64l8 63l14 9l9 55l14 61l6 6l4 17l17 18 l6 39l6 6l37 49l12 33l14 13l13 18l30 51l23 27l12 28l15 11l6 14h-4l12 21v8l18 37l13 12l10 61l6 68l-12 29h-9l-2 14l-6 6l-14 4l-4 14l-39 5l-31 -5l-55 -34l-23 -52l-18 -67l8 -6l4 -23zM424 113v-4l6 -23l-2 -16l-16 -62l-11 -2l-2 -6l-37 -6l-67 4l-68 6l-10 27 l-6 37l2 32l14 70l19 57l18 6l33 5l72 2l30 -7l15 7v-4l14 -15l8 -2l-2 -10l-6 -4l10 -6l-6 -23zM678 1030l4 2l6 10l-2 15l-14 8l-6 -25zM264 1159h4l11 6l12 23l-25 -4zM315 1270v-4l-6 -15l25 11l2 8h-21zM694 997v4l-8 15h-10l4 -10zM715 967l4 2v12l-6 2l-6 -6z M723 1427l2 5l-6 6h-6l-6 -6h12zM338 184h4l4 6l-12 5l-2 -2l6 -5l-2 -6z" />
<glyph unicode="@" horiz-adv-x="1347" d="M852 6l-4 -2l-21 -6l-59 -27l-33 4l-14 7l-8 -5l-31 9l-66 -4l-63 14l-64 14l-61 23l-10 12l-23 2l-33 27l7 10l-4 10l6 4l16 2l6 4l-6 33l-16 6l-4 -6l2 -4h10l-29 -16l-10 -15l10 -12l-2 -6l-6 6l-49 43l-10 25l-21 24l-6 -4l-6 2l-10 13l-4 16l-13 16v15l-8 -4l-8 10 l-29 55l-8 31l-12 69l4 5l14 -3l4 11h-12v8l-12 -2l-2 -8l-4 6l-3 26l-4 2v11l-6 14v18l8 9l-4 24l9 17l-7 39l2 34l11 64l14 20v27l6 31l17 26l12 47l14 29l27 64l28 28l9 15l32 55l13 4l24 22l43 48l51 43l13 2l8 -7l4 3l-4 14l35 20l10 13l18 6v10l5 4l20 2l29 15l61 20 l64 20l20 -4l47 13l66 12l67 -10l47 4l58 -17l12 -8l59 -22l5 -6l24 -13l57 -32l48 -46l8 -2l10 -10l29 -59l34 -51l21 -62l16 -63l6 -66l9 -33l-2 -65l-15 -68l-14 -57h-10l-11 -39h-4l-24 -37l-6 -29l-15 -18l-41 -51l-24 -23l-43 -47l-62 -31l-28 -8l-6 4h-11l8 -6 l-10 -4l-67 -16h-27l-37 10l-33 2l-28 12l-25 39l-22 62h-23l-20 6l-4 -4l2 -21l-15 -8l-16 -25l-25 -6l-14 -10l-51 -18l-35 -7h-35l-31 11l-32 4l-29 41l-8 2l2 4l-15 27v14h-8v12l-4 2l8 15l27 20l2 8l-10 10l2 11l-4 14l-4 2l-15 -6l-2 20l13 66l10 10l24 64l29 55 l35 55l45 37l16 29l56 31v10h10l8 12l6 2l68 14l16 9l51 2l29 -11l12 -12l13 -2l10 -16l29 -19l8 2l43 43l26 4h37l33 -6l25 -18l-5 -29l-10 -22l-24 -56h-21v-20h8l-16 -33l-21 -63l-20 -11l8 -12l-2 -6l-8 -2l-2 -4l4 -10l-6 -7l-10 -36l-31 -64l4 -6l-10 -49l8 -35 l20 -16l2 -9h11l14 -10l31 -2l6 -6l2 10l-4 4l2 4h16l29 19l14 2l23 20l49 47l4 15l29 39l10 30l6 9l12 63l15 31l6 33l2 65l-2 64l-10 18l-4 37l-27 51v17l-12 8l-6 24l-17 29l-14 4l-8 12l-9 2l-10 13l-14 4l-2 10l-19 18l-53 35l-18 17l-19 -2l-30 6l-66 14l-35 -4l-6 2 l-2 6l-66 -4l5 21l-13 -21l-65 -10l-15 -10l-30 -5l-13 -10l-10 4l-8 11l-19 2v14l-6 18l-4 -8l2 -31l-4 -10h39l-14 -10l-31 -12l-27 -17l-24 -22l-29 -15l-12 -12l-12 -2l-13 -12l-12 -6l-8 -23h-4l-19 -26l-45 -48l-12 -28l-18 -29l-31 -57l-6 -2l-2 -21l-9 -4l-4 -22 l-12 -29l-16 -68l-4 -65v-55l-5 -3v-45l11 -63l12 -27l2 -30l18 -43l29 -39v-9l6 -12l13 -12l14 -27l8 -2l23 -22l2 -8l10 -11l-2 -10l35 -12l57 -27l64 -27l67 -12l64 -4l32 4h68l59 19l6 8l11 -2v6l10 -2l14 12l33 8l53 33l33 4l25 -8l10 -10l10 -31l-2 -14l-16 -25 l-29 -24l-14 -2l-27 -17l-49 -20l-27 -17l-45 -10zM836 637l2 4l2 4l30 62l11 30v31l-21 39l-8 4l-8 12l-31 6l-35 -4l-30 -12l-25 -22l-29 -19l-6 -16l-8 -4l-18 -25l-31 -61l-6 -4l-9 -15l-24 -57l-8 -68l2 -35l8 -30l16 -25l29 -10l39 2l20 10l15 2l10 10h8l2 7l23 22 l41 51l6 33l6 4l14 45l8 6l3 7l14 8zM840 1264l-2 -2l-27 -39l-4 -19h18l19 41v8l-6 9zM936 94l-6 -2l-23 2l2 -20h27l4 6l-6 4zM860 436l4 -2l13 4l22 27l-29 -14zM852 440v4l6 15l16 2l-4 14h-8l-12 -14l4 -4l-8 -19zM872 506l5 -2l2 -6l-9 -13h11l4 4l2 15l-4 6zM584 641 l2 4l4 8l-2 9l-6 4l-7 -15zM553 627l2 -2l10 -2l13 10h-19zM496 1137v-4l2 -5h12l2 9h-16zM829 377h5l10 10l-13 -2z" />
<glyph unicode="A" horiz-adv-x="886" d="M797 2l-2 -2l-4 -6l-17 -4l-26 4l-62 18l-31 -14l4 4h-49v4l-16 47v31v70l8 14l-2 4l-16 2l4 12l-6 29l6 16h4v45l-4 9l4 2l-21 14l-67 14l-2 39l-8 -4l2 -10l-4 -10l4 -4l-15 -7l-47 -2l-67 -8l-27 -14l-16 -55l-19 -64l-24 -63l-2 -33l-19 -64l-33 -10l-65 -4l-70 -2 l-29 6l-14 37l10 18l2 31l9 31l16 67v29l12 29l4 33h9l6 10l2 16l10 12l4 15l31 6h33l-9 49l-14 -2l-16 -12l-8 4l-3 6l19 8l4 17l14 18l-4 6l-12 -6h-8l8 37l18 63l13 60l18 63l2 27l12 33l29 59l19 64l-9 10v10l15 6l6 29l8 6l2 6l-4 6l18 47l15 66l6 10l-2 19l6 6l22 63 l17 64l8 -4l8 45l19 63l16 62l29 -5l6 9l-4 6h-19l-6 4l17 63l34 54h37l70 4l8 6l12 -4l64 -17h35l6 11l18 -13l11 -32l-3 -7l-8 -2l19 -4l2 -8l8 -2l2 -61l-10 -66l6 -16l2 -33l6 -66l8 -63l-4 -64l6 -12v-39l6 -61v-70l11 -47l-6 -20l6 -33h-13l-6 -4l4 -8l15 -3v-43 l6 -30l-14 -39l6 -4l-4 -6l2 -7l10 -8l2 -33l2 -67l4 -66l4 -65l2 -64l4 -65l-12 -10l12 -37l2 -31l11 -31v-45l8 -33l-15 -30l-2 -15l-16 -12zM418 526l4 -2l51 -8l33 2l65 -2l4 12l-2 54l7 32l-5 15l11 6l-4 47v68l-4 65l10 6l-4 2l6 19l-2 16l-10 23l2 16l-11 4l6 29 l3 33l-13 61h-8l-25 -55l-12 -11l-12 -57l-23 -57l2 -6l-8 -23l-18 -65l-8 -64l-25 -61l-12 -66zM352 403l2 5l11 10l-3 4l-14 63l4 2l2 13l11 12v8l-9 -8l-8 4l-4 19l-4 4l-6 -4h4v-5l-33 -16l-14 -2l-8 4l6 14l10 5l2 18l35 2v4l4 64l8 14v8l-4 2l-14 -4l-4 14l16 17v24 l-6 4l-2 -10l-17 -14l5 -4l-9 -31l9 -12l-3 -8l-10 -2l-16 -15l-14 -2l-11 -12l-4 2l-8 -16v-9l25 6l4 -2l-6 -10l2 -28l-7 2l-20 -11h-8l-2 6l-8 3l-7 -19v-33l-6 -16l29 -2l12 -6l6 -21l-2 -10l-35 -20l-8 -15h6l5 -10l10 2l20 33l13 2l12 10l2 8l-14 15l-3 10l25 -6l6 6 h-4v4l10 10l13 -6l4 -12l-6 -37h10l10 -16zM264 319l-6 3l-4 4l-2 18l18 14l-12 11l-31 10l-14 -33l-18 -27v-10l4 -6l-13 -16l9 -15l-2 -10l-7 -6l15 -23l2 -16l22 8l17 -2l8 23l-8 2l-2 4l12 16zM733 111l2 4l15 10l4 18l-2 35l-11 4l-2 -22l-4 -6l-45 6v-31l-22 -35l8 2 l6 8l4 -4l-2 -8l8 -26l-2 -11l19 -2l2 -6l-21 6l-12 -6v-8l35 -2l16 24l-2 11h-6l-10 -11h-9l-8 11l6 12l-2 25l4 6l11 -4v-23l20 -2v6l-8 12zM580 418h6l22 4l-2 12l4 33l-16 4l10 14l-6 7l-8 -9l-27 -12l-35 -6l-6 -6l-28 -27l8 -4l12 8l18 2l3 -14l10 -10l6 8l35 10z M672 326h6l22 2l15 6l-2 4l12 12v8l14 19l17 31l-15 4v43l-10 8l-8 -14l-4 -31l-10 -15h14l-27 -24h2l-4 -14l-6 -5l-18 -2l2 -10l-4 -14zM180 76l2 4l29 45l-49 4l-17 -18v-9l9 -12l-2 -10l-13 -2l-16 10l-10 -6l4 -6l-2 -10l-11 -11v-4l33 10l29 15h14zM379 784l-2 2 l-33 15l-16 -6l-2 -15l12 -14l-4 -35l12 -10v-10l21 10zM186 160l4 -2l-12 -23l25 4l-2 17l10 12h-14zM739 86v-4l-2 -21l17 -4l12 9l-10 6l2 8zM303 358h4l23 17h10l2 12l-4 6l-4 -4h-8l2 -6l-4 -8l-23 -13zM326 809l-2 -4l-29 -14l-4 -7l37 15l2 14l-4 6v-10zM649 399 l-2 -6l4 -8l17 -2l-2 14zM786 27v6v2l-8 -4l-10 10h-8l-8 -10zM637 295l2 -2l14 -14l2 2l-10 20l-8 4v-10zM692 662l2 4l4 2l4 14l-8 4l-8 -18zM449 1274l-3 2l-2 6l-18 2l-4 -6h18l2 -8zM680 717l-2 -4l8 -11h8l2 5l-8 8zM623 1087v-4l-2 -10h8l8 10zM319 496v4l13 2l4 -6 l-2 -4z" />
<glyph unicode="B" horiz-adv-x="917" d="M694 33l-4 -2l-14 -8l-29 -9l-67 -10l-68 -8l-61 -2l-2 20l4 4l-11 -4l-4 -6l2 -14h-26h-58l-67 4l10 20h10l10 29l13 -4l4 2l2 10l-23 2l-14 -6l-2 -8h-29l2 12l-4 31l13 -4l20 8l-2 8l-18 8l-2 9l-25 -15l-6 4l-6 -8h-4l-5 6l7 13l6 2l-2 6l-11 2l-2 6l-4 -12l2 -8 l-18 -29l12 -8l19 -2l-6 -15l6 -14l16 -2l4 -4l-4 -12l14 -19l2 -8h-30l2 10l10 10l-29 -2l-8 -20l-14 2l-2 10l4 4h10l-8 8v17l-8 -8v-15l-6 -16l-41 2l-27 10l-4 19v26l8 64l10 71l4 70l13 62l2 34l4 60l6 69l6 68l23 22l-2 9l-13 6l6 8l-4 2v21l7 65l12 66h14l-4 10l-6 2 l-2 14l4 33l12 66l6 63l-4 31l6 30l17 64l2 27l6 67l12 68l-2 28l4 29l6 14v23l13 63l12 66l18 18l33 15h8l5 -4l24 2l60 4l28 -6l72 -4l31 10h34l64 -10l24 4l46 -11v2l63 -6l-2 -8l31 -8l24 -18l10 2l46 -43l8 -3l14 -53l10 -10l11 -63l6 -68l-4 -35l6 -29l-2 -16l-8 -63 l-15 -64l-14 -63l-23 -25l-10 -29l-20 -26l-23 -21l-51 -41l6 -39l-10 4l-6 -8l10 -10l4 10l31 -20l37 -53l22 -25l6 -53l4 -70l-12 -63v-33l-14 -64l2 -34l-8 -3l-11 -49l-10 -28l-12 -66l-6 -10l-23 -21l-4 -16l-14 -8l-2 -12l-21 -17l-49 -45l-20 -4zM631 195l2 4l14 24 l-6 2l-2 8l8 15l-14 14l-6 14l4 7l6 30l14 23l4 67v66l9 23l-5 30l9 4l2 6l-13 5l7 4v4l-11 10l9 6l-9 12l6 13l-6 12l-41 51l-53 10l-65 5l-23 -13l-29 -8l-6 -8l-6 -23l-2 -30l-10 -72l-8 -66l-7 -63l-12 -62v-65l-8 -31l8 -12l45 -23l31 5l61 16l15 -6l6 6l24 4l19 12 l22 25l13 2l-21 -49v-31l6 -33h-8l-14 -24l2 -13l-8 -16l24 6l13 10l4 11l-13 6l-4 6l2 4l15 -4l2 10l6 6l-8 9l8 4l6 20l-10 14zM494 1153l-2 -4l-7 -21l-2 -24l2 -64l-4 -32l-8 -66l2 -63l6 -7l-8 -4l6 -4l8 4l21 -4l-2 -8l4 -4l33 -4l65 2l29 16l12 2l13 21l8 2l10 12 l27 62l18 26l-4 23l8 16l-6 39l8 64l-6 63l-10 31l-23 22l-28 15l-27 8l-33 4l-67 -8l-17 -19l-12 -28zM817 393h-6h-10l-13 6l-8 11l-4 -17l12 -33v5h-6v-11l-10 -10l-2 -8l6 -12l-10 -19l18 -14v6l15 4l14 51v17l-8 10zM727 590l-2 -4v-13l16 -36l15 -7l6 35l14 27l-12 16 l2 6l10 9l-12 2l-8 -17l-6 2v17l-7 2v-6l-10 -19h10l5 -4zM840 1040h-2l-2 7l-15 10v8l17 -6l2 6l-6 29l-11 -4l-14 8l-12 -25v-8l8 -14l-2 -33l10 -12l-4 18l6 10l21 -2zM807 428l-2 2l2 35l-6 2l-29 -10l-12 -11l-2 -8l10 -8l18 -2l-2 -10l9 -6l12 2l-4 4zM567 82l2 4l9 6 l2 8l-27 11l-4 -5l-17 11l-22 -17l10 -6l6 -14l6 -4l7 10zM477 90l2 2l15 14l2 19h-9l-14 -8l-8 -15l-6 -2l-10 11l-7 -21l9 -12l-2 -6h14zM371 72h4l22 -2l15 6l-4 2l-2 8l-17 20l6 11l-4 4h-14l-4 4l6 -21zM512 27v6v4l14 16v6l-4 2l-14 -10l-8 2l-2 8l-13 -14v-29l9 7z M788 1128v-6l3 -18l20 6l10 -2l4 12l23 17h-14l-5 -9l-8 2l-18 -12v4zM195 227l4 2l20 4l2 9l-16 30v9l-4 2zM774 526h-4h-6l-10 -10l2 -10h24v10l6 14l11 11l-19 -2l-4 -4v-9zM838 928l2 4l2 12l-11 14l-8 3l-6 -9l-10 -30h10l4 -4l2 20l6 4l7 -2l-2 -10zM244 145h4l26 -14 l11 8l-4 4l-17 -4l-6 2l-8 13zM809 610l-2 -4l-21 -22l5 -4l2 4l14 4l4 6l-4 2l8 16l-2 2zM809 854l2 4l8 -6l6 6l-8 2l-2 17l-8 2zM784 217l2 2l2 17l-14 6l2 -13zM469 1147l4 -2l4 -8l8 -4l-2 18l-4 6zM707 330l-2 -4l-7 -15l9 -10l4 25zM406 2h6l6 4v8l-4 4l-6 -6l4 -2z M461 1167l4 -2l4 -8l6 6l-8 8zM295 125l-2 -4v-4h14v4z" />
<glyph unicode="C" horiz-adv-x="892" d="M868 506v-4l-12 -53l-8 -64l-8 -66l-15 -63l-18 -63l-14 -25l-39 -53l-9 14l-16 -4l-4 4l2 6l-10 -10l-23 -4l2 -12l29 -11v-14l-14 -6l-4 -6l2 -11l-9 -2l-53 -34l-31 -11l-49 2l-2 -8l-8 6l-16 2h-68l-10 -12v-31l-53 9l-64 2l-4 8l18 14l-2 8l-16 4l-37 -4l8 -12 l-4 -4l-59 27l-25 20l-6 12l4 4l-18 -4l-6 4l-2 9l-21 22l-37 53l-8 5l-2 30l-8 4l6 9l-8 30l-2 31l-2 68l2 59l8 72l2 63l10 33l-4 14l19 62v30l12 62l8 65l6 66l4 65l8 62l7 67l12 64l6 63l14 66l9 2l4 6l2 17h8l6 18l18 29l33 53l23 22l45 50l47 16l12 10l15 2v10l22 7 l4 8l47 6l64 12l63 -4l68 4l31 -8l61 -25l4 -8l25 -18l41 -35l12 -16l12 -27l23 -57l16 -70l6 -4l-8 -29l-2 -67v-64l-22 -61l-9 -64l-35 -14l-26 -6l-70 6l-65 -2l-13 4l-6 12v35l-6 6l-2 17l4 16l-6 10l14 37l13 64l-4 34l-7 66l-8 12l-14 8v5l-10 10v8l-15 2l-16 8h-64 l-4 -4l-6 4l-12 -10l-2 6l-19 -20l-24 -7l-4 -14l-15 -6l-4 -14l-8 -11l-12 -30l-8 -60l-6 -69l-11 -68l-8 -63l-4 -62l-14 -29l-4 -30l4 -33l-6 -61l-7 -64l-14 -68l2 -63l-10 -61l-15 -68l-4 -72l11 -63l14 -23l25 -22l26 -6v-9l53 7l31 8l25 20l49 47l10 45l10 66l11 65 l6 7l-8 18l8 43l10 10l-4 15l8 4l8 10l33 14l33 2l65 -4l62 2l6 -6l2 4l8 -4zM276 104l5 2l30 29l-18 12l-10 31l6 -4l8 4l-2 12l-4 5l-15 2l-2 6l5 18l-5 10l-24 -4l-2 -4l4 -14l-12 -4l-13 -41l4 -4l-4 -6l19 -27l16 -2l6 -16zM666 164l2 4l2 35l-13 2l5 10l-7 10l9 13 l-50 -5l-10 -10l8 -30l-6 -7l-24 -6l-2 -6h18l12 10l17 -12l4 -31l6 -6l4 4l14 2v23h11zM778 1225l-2 -4l-8 -21l-2 -33l4 -4l16 11l11 2l6 -7l26 2l13 54l-35 28l-16 -4h4l8 -18l-19 -10zM334 1083l-2 -4l-2 -14l6 -31l8 10l-16 -59h10l20 10l9 43l8 11l-8 2l-7 10l-2 18 l23 21l2 8h-25l-6 -14zM526 104h4h7l-2 9l-7 -2l-12 14l-6 14h-33v-37l-14 -30l4 -2l4 -15l2 4l10 2l2 15zM408 41h4l8 4l8 12l-18 9l-13 20l13 2l8 21l6 6l-21 14l3 10h-9l-12 -22l-8 -31h10l-8 -14l18 -2zM360 72l2 2l13 30l-27 11l-2 -4l-18 12l-6 -2l-3 -8l-14 -9 l21 -16l18 2v-6l-6 -6l2 -6h20zM836 1059h-7l-49 4l-8 -4l-4 -25l20 4l5 -4l28 -4l2 8l11 11zM598 1440v-4l-31 -47l-8 -27h14l17 18l16 4l4 7l-12 4l-2 14l4 16zM727 330l2 -2l37 12l-2 8l-12 8l-2 9h-15zM444 1376h-2l-20 -10l18 -2l4 -4v-17l25 5l8 12v12h-12l-12 -10h-7 zM223 301l4 -2l2 -2l17 10l12 -2v10l-6 11l24 8l5 6h-19l-4 -8l-27 -15zM463 1333l-6 2l-6 -2l-5 -8v-16l-20 -4l-2 -11l37 27zM686 203l4 2l21 6l10 12l-16 4l-17 -16zM395 1415v-4l-14 -27l2 -12l12 17v26zM369 1288v-6l-11 -10l4 -8l15 6l6 14zM293 383v4l4 37l-4 4 l-6 -16v-17zM606 1352l2 4l6 6l-16 4l-2 -14h10zM610 150l2 -3l9 -14l6 6l-19 15zM387 1147v6l6 16l-4 2l-10 -12zM557 -8l2 2l4 4l19 4v-8zM408 1366v4l2 6l-4 6l-13 -16h15z" />
<glyph unicode="D" horiz-adv-x="942" d="M387 4h-4l-39 4l-31 -8h-16l-66 4l-30 -4l-45 8l-19 -4v4h-6l-8 21l2 8h6l2 18l-4 37l6 35l-2 29l8 2l2 8l9 -12l-5 -9l33 11l-2 -37l17 2l2 -4l-11 -33l7 -6h10l18 16l8 2l7 25l-3 16l11 21v10l26 18l19 25l18 4l10 29l-18 26l-25 -2l-10 4l-22 -16l-2 -27l-9 -4l-20 15 l-4 -2l-6 -15l-11 2l-4 -35h-22l-27 -10l2 23l11 61l6 68h28l-8 10l-24 4v4l14 70l8 63l-6 29l8 35l10 63l11 31l14 27v37l-6 32l2 29l10 70l6 67l6 29l9 2v8l-15 27l8 65l9 66l-2 33l10 45l14 69l21 56l4 69l6 62l12 30l23 9l2 8l10 -2l63 2l62 -2l63 -2l74 -2l66 2h65 l31 -9l12 -12l27 -2l26 -10l33 -6l4 -15l13 -8l-2 -8l8 4l12 -18l10 2l23 -11l2 -12l-4 -12l-10 4l-7 -12l-20 -11l-12 -12l-31 21l-25 -31l-10 -4l-2 6l8 14l-12 -8l6 16l-10 5l-27 -13l4 13l-6 6l-4 -2l4 -9l-4 -4h-12l-23 11l-16 -4l-4 4l2 -15h16v-18l19 -14l18 -23 l49 -4l-2 -6l8 -29l-22 -24l-2 -52l-8 -65l4 -4l12 12l10 2l-8 14v9l8 2l6 -5l11 -30h10l-6 -17l2 -30l-6 -2l-7 4l-6 30l-24 5l-11 -15l-4 -18l4 -33l31 -4l6 -16l31 -3l6 -4l8 2l23 23h10l-2 8l-10 -2v8l6 4l14 -4l-2 27l6 70l-8 26l4 15l-2 30l-18 6l-2 7l-17 -15l-12 -2 l-6 8l12 17l23 2l10 14l-4 6h-16l6 53l18 9l21 16h16l8 10l8 -8l7 -16l-7 -25l5 -2l10 6l2 -12l10 -64l8 -63l-4 -35l-4 -61l-8 -35l-10 -62l-7 -6l9 -4l2 -8l-11 -57l-4 -68l-6 -67l-10 -60l-14 -18l-2 -8l10 -21l-2 -31l-15 -57l-2 -66l-10 -59l-8 -72l-8 -4l-6 4v-18 l8 -10l-2 -13l-17 -30l-8 -56l-6 -6l-2 -10l-12 -6l-4 -29l-25 -22l-20 -29v-8l-11 -10l-14 -7l-8 -14h-10l-17 -8l-2 -6h4l-2 -4l-18 -2l-37 -33l-29 -8l-63 -19l-23 -10l-51 -2l-31 4l-30 10zM627 1272l-4 2l-48 2l-57 -14l-12 -48l-12 -65l-7 -68l-8 -65l-12 -64l4 -6 l-4 -31l-8 -67l-8 -70l-13 -63l-10 -25l2 -4l8 -2v-8l-6 -62l-10 -63l-10 -70l-6 -67l-9 -62l-8 -65l-10 -15h8l4 -6l-2 -51h21l30 -12l31 -2l68 8l43 18l24 23l19 24l10 41l10 72l4 4h8l5 35l6 63l12 33l6 33l-2 33l2 65l8 70l11 63l6 62l-9 2l15 65l14 64l10 68l7 65 l-5 68l-6 20l-6 2l6 6l-4 15l-8 2l-16 16h-11l-24 16zM274 1032v-6l15 -12l-2 -6l8 -2l22 6l2 -8l21 -27l-12 -21l-27 -20l-16 -2l-9 4l11 -12l32 -2l3 -9l6 -4l2 -12h6l-2 12l-6 4l-6 13l6 16l16 25l2 18l29 25l-29 12l-2 8l29 39l-11 6l-4 8l21 7l33 2l6 -4l4 28l8 66 l-29 -8l-10 8l12 14v16l-4 9l-24 -4l-8 14l10 10l2 8l-29 -4l6 -6l-12 -4l-14 -18l-19 -2l-6 -54l-2 -59h4l6 -12l-2 -35h-8l-12 -21l-6 -4h-11zM788 723l-6 2l-12 -12v-54l21 -4l2 -8l6 2l6 -6l45 6l4 6l-6 33l12 12v7l-22 24l8 12l4 -4l-4 -6h12l8 12l11 3l4 38l-19 -4 l-4 4l2 21l10 12l9 2l6 -4l6 43l-25 10l-24 -34l4 -2v-7l-8 -2l-11 6l-4 -6l2 -14h-14l-2 -4l8 -14l6 -25l-18 -6zM471 1319v2l14 14l-8 15l-12 10l-2 8l20 23l6 -2l9 34l-27 4l-2 -12l-6 -6l-17 -2l-2 -6l11 -15v-8h-4l-9 -14l7 -4l2 4l4 -14h-9l3 -15l-21 -30l2 -33l6 -6 l2 -15l8 35l25 23v10zM299 719l2 6l14 12l-4 6l4 7l9 2l12 10h-8l-11 -8l-2 4l15 14l14 29h-16l-2 10l10 6v-8h8l21 20l18 2v9l-18 6l-21 -15l-16 -6l-4 15l-27 -9l-4 -14l6 2l6 -4l2 -20l8 -2l-2 -7h-6l-12 -8l-6 4l-8 -28l4 -2l6 6l10 -8l2 -7l-22 -8v-16h-11l-16 -10 l-2 -11l6 -4v6l8 13zM842 553v4l14 14l-2 9l-18 14l-2 6h4l8 14l-6 7l-27 -21h-18l-9 -20l-10 2l2 -11l8 -12zM481 1319h6h5l10 27l22 24l17 27l12 30l-41 -4l-2 -30l-10 -15l-11 -47zM842 983l-2 -4l-27 -12l-4 -9l14 -6l11 -10l16 -8l43 24l-2 11l6 16l-2 2l-16 -18 l-13 -2l-16 14zM338 1389l-2 -7l2 -4l14 6l6 -10l4 -18l15 -6l2 4h8l10 53l-12 10l-10 -14l-35 -8zM238 610l-2 -6v-8l8 -10v-8l24 43l-8 4v8l6 12l-6 -2l-2 16h-4l-6 -16l-29 -14l-10 -13h22zM786 659h-2v29l7 4l16 2l-8 11v18l16 -14h12l-6 -13l-26 -16l2 -10zM446 113h5 l4 2l-15 6l11 24l-7 5l-18 2l8 -15l-8 -18l4 -23l4 -4zM604 1360h-4l-22 -10l-7 -15l4 -6l9 8l18 -2l4 4zM727 537h4h35v10l-8 12l-13 8l-2 -16zM291 537h4h37l12 4l4 6l-8 10l-35 -12l-8 -8h-6zM408 1032l-5 2l-2 6l13 7l-15 4l-4 -9l-24 5l4 -15l18 -4zM965 1120v6l-4 7 l-13 -3l-26 -20zM766 846l-2 -4l-4 -8v-17l6 -6l2 4l8 2l-2 27zM211 258l2 2l2 12l-8 15h-10l-4 -4l2 -9zM750 1407h-5l-14 -10l-2 -8l19 -5zM903 934h6l6 2l13 22l-17 5l-2 -23zM834 719h-5l-12 6l-2 6l4 6l12 -2zM874 332v4l3 6l-11 4l-6 -8l-8 4l-2 -8zM340 567h4h4 l10 15l-4 14zM627 1389l-2 4h-7l-10 -13v-6l19 4v11zM924 1339l-4 2l-5 7l13 12l4 -12zM424 1241l-2 -4l2 -12l6 -2l6 10zM477 1393l-4 2l-6 6l10 8l4 -14zM809 1032h-6h-4l-4 15l14 -7v-8zM268 215l-6 -2l-10 8l2 8l14 -6v-8zM373 1120l-2 -4l-11 -14l-8 -2l6 12zM428 82 l-2 -4l4 -10h6l6 6zM242 567v4l2 4l-6 -2l-15 9l-4 -7l6 -6zM360 762v4l-2 4l-14 2v-10h16zM193 205h4l8 -6l2 -9h-10zM862 719l4 -2l8 8l-2 8h-8zM635 106v5l4 8l8 4l-4 8l-12 -22zM891 1153l-2 -4l-12 -6v6zM651 152v-5v-6h8v11h-8zM233 184v-4v-4h-8v8h8z" />
<glyph unicode="E" horiz-adv-x="854" d="M782 70v-7l-14 -20l4 -14l-8 -13l-25 -14l-28 -8l-21 2l-6 4l-14 -4l-6 4l-25 4l-6 6l-17 2l-65 -6l-31 4l-65 -12l-62 4l-67 8l-13 -8l-14 -2l-61 -8h-35l-15 8h-18l-23 14l-2 6l-8 3v12l-10 4l2 10l-8 14v27l10 62l10 73l-10 11l6 24l15 64l10 61l8 70l-8 6l-2 18l4 17 l14 28l10 62l7 63l4 68l8 65l10 56l10 63l6 70l9 71l6 70l6 68l12 59l17 49l-11 12l9 54l10 69l10 29l16 21l9 2l63 8l-4 -10l-10 -11v-10l4 -4h10l-4 -35h4l27 25l-2 4l-2 -2l-2 6l4 6l-4 6l10 8l-2 17l4 -4l55 -4l10 10l9 2l10 -25l8 -4l6 2l6 15l58 2l63 2h70h65l62 2 l14 6l19 -8l34 -2l11 -25l-2 -8l-13 -8l-16 -2l8 -15l8 -6l6 2l5 8l4 -2v-18l-9 -66l2 -14l-4 -16l-12 -23l-27 -2l-4 -10l-65 -4l-23 10l-47 -6l-67 -4v10l6 12l2 17l-4 6l-17 4l-14 10v8h20l3 21h12l10 12l8 45l-2 4l-22 -10l-4 -6v-17l-5 -4h-10l-4 6l12 17v8l-18 12 l-43 -4l-6 4l-15 -12l-6 -16l-16 6l-33 -2l-2 -47l-8 -31l27 25l2 10l22 2l8 12l-2 4l-12 -4v6l25 23l26 -15h19v-10l-9 -2l-4 -14l-6 -2l6 -23l-4 -35l-12 -30h-14l-64 -11l-6 -24l-14 -62l2 -63l-13 -64v-32l-6 -33l-12 -66l2 -32l8 -7l43 -10l72 4l37 -6l4 6l10 2l14 -6 l11 2l63 -4l10 -33l2 -36l-24 -21v-6l6 -4l8 2l2 8l-2 -37l-16 -26l2 -13l-14 -26l-11 -6h-14l-68 -2l-65 6l-29 -2l-71 -4l-15 -37l-4 -31l2 -33l-4 -31l-14 -28l2 -17l-4 -14l-6 -6l6 -12l-4 -72l-13 -64l-16 -63l8 -14l23 -25h8h63l-2 -10l-8 -4l4 -4l-10 -9l-33 -4 l-12 -20l-8 -2l2 -8l6 -4l20 6l6 -2v-23l-20 -4l-6 -10l4 -4h8l4 -4l-2 -7l-18 2l-4 19l-9 -4v-17l-6 2l-4 13l-6 4l-8 -4l-8 -15l16 -6l6 -8h8v-10h11v-4h4l10 10l4 -6l-2 -6l4 -4l12 2l7 6l-2 22l4 4l-9 7l23 12l18 2l-2 20l4 64l50 10l69 -2h68v-4l-12 -10v-4h8l12 8 l6 16l29 -6l20 8l19 -2v-6l14 -4l6 -6l4 -19l2 -69l-6 -31zM403 1047h5h10l4 32l6 2l8 -4v6l-14 17v8l-6 8l-6 -10l-2 10l6 8h-31l-4 6l8 7l-10 18l16 4l6 31l-8 6l-6 43l-10 8l-35 -18l-16 4l-2 -10l4 -17l8 -12l31 14l8 -10l-4 -24l4 -7h-8v7l-17 -7l-6 -16l8 -25l8 -10 l-20 2l-14 -8l4 -27l-6 -16l24 -4l8 -10l-6 -17l-6 -4l2 8l-10 -4l6 -14l-4 -10l10 -23l31 -4l4 -6l4 6l-6 23h-4l4 8l22 6l5 6zM266 793l-2 -5l-18 -24l28 4l9 8l-2 4l36 2l2 11l-4 6l21 8l14 10l15 4l2 6l-9 15l11 39h-19l-6 4l-2 -8l8 -13v-8l-12 -8l-14 2l-27 16l2 -20 l-4 -33l-10 -10l4 -8zM256 676l4 -2l8 -2l15 4l12 12l6 17l-41 -9l-14 -10l-2 -20l-11 -74l3 -31l14 -18v4l10 10l-2 16l6 15l-4 14l6 10l-2 23l6 18l-2 13l-6 -7l-6 5v12zM328 719l2 2l8 4l33 2l4 6l-10 2l6 21l-21 18l-10 -8v-14l-8 -2l-17 14h-10l-33 -25h-14l2 -8h25 l4 17l4 2l16 -11l8 4zM504 1341l-6 -2h-31l-12 11l2 -9l-6 -32l4 -9l12 3l14 8h8l-8 -29l19 4l2 6l-8 15l6 4l6 14zM465 1430l-2 -7l-14 -39h16l2 11l10 2l4 10l29 23h-45zM338 1374l-2 -4l-12 -24l2 -15l10 2l20 13l-4 22zM850 1384l-2 -2l-19 -16l-6 -14l2 -17l11 4l6 15 l8 4l6 -2l4 22l-2 6h-8zM317 70h5l28 -2l12 6l-22 28l-21 -22zM729 838h-4l-16 -7l6 -28l12 16zM610 1268l2 2l2 4l25 8l12 -6v-8h-41zM350 1253l2 2l4 9l-2 8l-10 10l-6 -6v-14zM436 1116h4l23 6l4 8l-14 5l-15 -11zM430 1184v-4l-4 -21l4 -4l19 29h-19zM309 958v-6l-6 -6 l2 -6h10l7 6l-3 12h-10zM451 719h-5l-12 2l-8 -6l16 -8zM811 1296l-2 -6l2 -8l10 -10l2 8l-4 14zM350 578v4l8 24h-10l-6 -22zM350 504v-6l2 -6l8 2l11 10l-4 6l-9 -6h-8zM387 1395v-6v-17l6 -2l4 14l-2 7zM326 817h-4h-11l2 10l11 11l4 -11zM233 612v4l3 11h-15l-2 -15h14z M326 528l-2 -4l2 -12l8 -2zM649 70l2 4l-2 12l-8 2zM297 788l-2 3v12l8 -2l2 -8zM444 1458l-2 2l-10 8l-2 -6h6l-2 -14zM362 123v-4v-6h11v10h-11zM485 874v3v-3z" />
<glyph unicode="F" horiz-adv-x="847" d="M926 1430v-5v-12l4 -65l-6 -33l-11 -29l-12 -8l-31 -8l-32 -2h-68l-65 -2l-68 -9l-64 13h-30l-15 -8l-14 -17l-8 -24l-17 -70l9 -29l-2 -28l-9 -78l-14 -60l-8 -2v-6l8 -4l-2 -29l4 -32l8 -13l23 -12h14l76 4l66 -6l65 2l12 -4l11 -25l4 -32l-2 -37l-17 -72l-12 -26 l-66 -7l7 7l24 6l4 8h-10l-20 -10l-15 4l2 -11l-6 -8l-31 -10h-18l2 8h-29l-35 6l-32 -2l-60 -22l-2 -8h-4v-9l-8 -65l-12 -64l-8 -63l-5 -64l-12 -65l-6 -66l4 -30l-16 -66l-11 -70l-8 -28l-16 -23l-47 -6l-68 -4l4 8l8 2l3 8l22 13l4 8l-2 8h-6l-29 -24l-14 -5l-4 -18 l-57 2l-19 8l-8 31l2 33l8 35l2 32v66l15 65l2 31l24 31l6 18h-10l-14 -14h-8l8 63l14 64l2 65l14 64l7 65l8 66l12 66l-4 30l4 33l12 31l2 61l7 37l16 -6l2 -19l6 -4l2 11l-8 18l-14 6l12 17l-8 -2l4 4l-4 43l8 67l8 76l10 70l11 69l8 62l4 57l16 16l31 15l33 -10l33 4 l32 -7l15 7l18 -2l8 -13l13 21h24l33 -8h29l65 4l64 -4l32 6l64 -4l67 4l33 -4l27 -15l2 -8zM799 1341h4l4 5l-6 24l2 14l-19 17l-2 22l-20 2l-10 -6l6 -8l-4 -27l-13 -4l-12 -18l-16 -2l-4 24l-13 -2l-18 13l-10 -29l6 -6l4 8l4 -4l-10 -14l12 -9h59l15 9l33 10l-3 -17 l5 -4zM592 1346l2 -3l33 -2l-11 19l11 20v9l-17 12l-4 8v14h-26l-9 -10h13v-8l-6 2l-21 -18l-16 8l-9 -8v8l-12 10l-6 -27l18 4l29 -24l8 10l-4 8l6 6l23 -18l10 4l-2 -14zM225 147h2l11 11l2 8h-9l11 24h-21l-4 -4v-10l-29 -10v-16l9 -3l2 9l14 6l8 -15l-20 -28l-6 -17 l8 -4l20 4zM537 1286l2 4l8 25l-4 14l-6 6l6 8l4 17l-17 8l-8 -4v-27l13 -20l-5 -27zM260 78h4l15 8l8 16h-6l-11 11zM313 1032v-4l-8 -20v-11h6l11 13zM444 725l-2 -6l2 -8l17 -2l2 6zM700 1272v4l9 12v6l-4 2l-11 -18zM688 1419v-4v-4l10 -8l7 6l-9 8zM262 1042l4 -2l4 2 l2 15l-10 -4v-11zM647 1341l-2 5l8 14l-16 -4v-10z" />
<glyph unicode="G" horiz-adv-x="940" d="M852 328v-4v-2l-6 -64l-10 -70l-11 -67l-2 -62l-10 -28l-16 -17l-27 -16l-37 -2l-4 4l-2 18l-8 5l-23 -13l2 6l-12 15l-10 39l-6 4l-17 2l-6 -4l-2 -11l-43 -18l-53 -31l-62 -24l-38 -6l2 6l-9 2l-4 -4l-63 -9l-31 11l-35 2l-30 10l-5 6l5 12l10 -12h8l-8 25l-10 10 l-5 -4v-8l-14 -9l-6 -14l-12 6l-4 6l2 7h8l10 14l-4 10h-8l-6 -16l-7 -2l-18 4l-20 26l-13 7l-24 24l-2 17l-19 22l2 16l-6 7l-2 14l-6 65l-10 31l6 62l8 69v64l10 65l-4 17l12 47l-2 33l5 30l16 64l2 61l12 66l6 67l7 64l12 61l2 64l12 65l14 66l7 4l-4 20l6 7l26 51l27 16 v8l-8 2l6 4v9l10 6l19 26l43 27l6 12l22 11l23 24l33 12l63 19l68 14h67l10 -8l58 4l28 -6l11 -12l10 2l2 -8l6 2l4 -5l-2 -8l12 6l17 -14l28 -14l35 -35v-8l13 -17l14 -6l-2 -8l18 -14l2 -17l11 -4l-2 -6l12 -27l-6 -20l6 -21l-4 -2v-34l-6 -13l6 -4l8 -26l-12 -70v-64 l-13 -28l-8 -33l-6 -4v-4l-25 -6l-32 -2l-70 -2l-65 4l-15 28l-2 68l12 65l-2 66l-16 64l-6 6l-29 12l-8 14l-21 -6l-65 -8l-31 -12l-24 -23l-19 -24l-4 -25l-20 -43v-10l-9 -2l-16 -27l4 -6l19 20l2 -34l-9 -33l-10 -60l-8 -63l-8 -68l-4 -69l-8 -64l-5 -63l-6 -33l-14 -64 v-32l-2 -64l-6 -26l-15 -64l-4 -67l9 -64l10 -22l6 -5l-6 -6l4 -2l10 4l6 -2l2 -8h11l18 -14l25 -8l34 -2l31 10l59 28l15 23l8 25l20 65l3 68l14 63v35l4 4l-6 21l-12 18l-50 -4l-32 4l-4 10h-17l-8 15h-4l2 32l6 64l10 33l15 28l30 8l35 -2l-4 -12l2 -4h10v12l4 6h9h67 l70 2h67l58 -10l6 -20l10 -10l-8 -56l-14 -59l-9 -68l-4 -67l-18 -64l-4 -31zM672 612l2 4l14 11v8l-8 14l-14 6l-2 13l-15 4l-26 -31l-2 18l-7 13l21 10l8 14h-10l4 9h-4l-10 -11l-17 21h-10v-13l-21 -6l-2 -10l9 -14l-4 -25l26 -16l19 -2l16 4l4 -6zM440 1399l-4 -4 l-10 -25l33 -14l-17 -10l-10 -15l21 -4l6 12l10 2l4 31l8 2l4 -4l-10 -10h4l10 10l35 2l13 6l16 27l-35 -6l2 2l-6 8l-18 6h-19l-20 -12zM682 1454l-2 -6l2 -8l6 -2v-4l-43 6v-19l-10 -65l14 4l4 -2l9 -23l6 15l-4 30l16 4l25 21l16 4l2 25l-25 -4l4 4v24h-12zM369 1159 l-2 -4v-4l-23 -21l6 -4l2 -26l17 -21l20 -8l8 10l-22 11l8 16l20 -6l3 18h6l10 10l2 -4l8 9l-8 4l-31 -4l-2 8l-8 2l-8 -4v16zM854 1292l-2 -4l-21 -14l-2 -10l-24 -9l-2 -8l28 -4l13 -20l4 32l12 2l-4 19l12 4l2 6zM305 1014l2 -2l4 -6l2 -17l-12 -6l2 -10l21 -12l4 6 l-9 10l27 55l-10 2l-23 -8zM760 1307v-4l-6 -21l22 -2l10 -8v-8h29l-8 24l-12 8zM315 866l4 2v6l-18 -20l-14 -27l12 -28l-2 -11h8l12 11l-2 4v63zM702 545l7 -2l8 8l2 8l6 4l-16 43l-9 2l-10 -10l10 -18zM406 1311v-4l-3 -11l13 -2l4 -4l-4 -12l14 4l12 10l-12 17v8h-10z M616 1487l-2 -6l23 -27l10 8l-2 11l12 4l5 6h-39zM895 1341h-6l-21 -6l-6 -14l2 -8l6 -2l13 10zM649 1303v4l8 14v10l-14 4v-30zM248 944v-4l-4 -18l2 -15l10 -2l4 4l-8 35h-4zM854 1190l-2 -4l-4 -8l6 -15l8 -4zM860 627l2 2v20l-6 2l-4 -18zM162 641h6l6 -4l-2 16l-8 13 l2 -21zM848 1208v-4l-2 -10l4 -4l8 14zM322 743h6l6 -4l4 15l-4 6zM324 930h4l12 -4v4l-12 10zM346 793l4 -2l6 -3l9 5l2 6l-17 -2zM358 1331l-2 2l-4 15l-6 -7l4 -14zM598 647l6 4l4 -4l-6 -8l-8 4z" />
<glyph unicode="H" horiz-adv-x="993" d="M891 252v-4l-2 -21l-6 -65l-4 -68l-13 -63l-12 -21l-20 -6l-33 -2h-68l-67 -4l-31 4v12l-12 9l4 45l14 63l10 66l2 65l6 66l11 63l14 66l2 57l8 72l-2 28l-8 15l-8 2l-58 10l-65 -4l-70 8l-2 8l-14 -20l-25 -10l-10 -13l-2 -35l-14 -63l-8 -70l-9 -63l11 -4l-13 -41 l-6 -68l-16 -53l-2 -63l-11 -64l-10 -66l-8 -12l-18 -6l-70 -6l-35 6l-4 6l-24 -8l-33 -2l-33 4l-4 25l-6 6v16l14 66v30l4 62l10 65l13 66l4 65l4 62l8 70l8 69l11 66l4 2l10 -8l16 -7v23l-12 4l-16 -6l-2 4l10 63l10 64l6 68l6 24l17 27l-13 6l-2 6l4 35l11 67l10 62l4 63 l12 64v63l6 33l13 66l8 63l22 10l2 9l64 4l63 4l64 -8l16 -41v-29l-6 -35l-8 -74l4 -34l-16 -62l-2 -31l4 -32l-13 -37l-6 -33l-4 -66h-18l-6 5l-2 8l-9 2l-30 -6l2 20l-13 25l-43 -4l-4 -13l-14 -4l2 -6l33 -4l-6 -12l14 2l8 -4l-2 -9h-24l2 -4l-7 -34l17 -15l4 -16l-4 -19 l-25 -20l-2 -8l21 -13l2 -8l-4 -2l2 -6l20 -12l2 -13l6 -4l9 2l2 7l-13 14l-2 24l-10 15h-4l4 16l-6 2l2 6l6 2l12 -8l5 54l6 4l24 -4l4 4l-2 12l21 4l-2 -6l6 -2l6 4l4 -6l-10 -13l-6 -18l2 -8l10 -10l-4 -15l8 -18l-2 -10l21 -15l26 -10l33 -4h74l67 12l27 15l10 28l8 66 l8 63l13 31v55l10 66l10 63l4 64l4 8l27 10l6 6v11l-28 12l-3 6l17 70l14 26l12 8l31 -2l68 13l31 -2l65 -9l10 -36v-33l-6 -68l-14 -65l4 -31l-12 -49l-11 -64l-8 -65l-8 -66l-8 -65l-8 -66l-4 -57l-7 -66l-12 -69l-10 -29l-8 -66l2 -65l-4 -66l-9 -65l-14 -64zM686 766 l2 4l12 31l-30 -6l-4 6l-25 4v-12l-12 -9l-8 15l-27 4l-33 -2h-67l18 -66l8 -12l-4 -16l10 2l33 -4l12 4l7 8h14v16l-31 10l-4 9l16 14l5 -2l6 -14l8 -5l8 9l33 8l2 -6h10l-4 -21l12 -8l6 14l3 19l-5 6l-6 -6l-4 2l-6 14l4 6h17l10 -10zM934 1231l2 2l18 4l2 8l-18 -4 l-16 -18l-15 -6l-6 -56l10 -12l7 -16h-7l-8 10h-8l-8 -10l-2 -15l-8 -2l-17 -20l-10 -2l-23 -29v-6l7 -4v10l4 6l24 8v-4l8 -2l9 -18l-2 -11l14 -12l2 -16h-19l-2 -6l5 -2l-5 -11l5 -6l14 4l24 -4l7 56l-4 12l-9 -4l4 18h11l6 35l-15 10l3 4l14 6l8 66v31zM770 850l-6 -2 l-6 -4l-6 -29h8l2 25h6l12 10l2 -8l13 -4v-23l18 -2l16 -12h9l-2 -17l10 -2l35 19l6 -4l6 8l-2 39l-25 12l-4 23h-26l-15 -7l-6 19l-14 2l-10 -14l-17 -11l-6 -10zM375 1411l-4 -2l-19 -14l-2 -9h31l14 -6l2 -8l-10 -10l-2 -10l-6 4l-14 -19h18l6 -4l12 15l2 -13l-6 -16 l21 -35l-10 -16l-5 -25l5 -16l14 -27l4 6l14 4l-2 7l-18 16l-12 22l26 15l2 -27l6 -2l4 39l-18 2l-8 8l4 17l14 26l13 -20l2 18l-13 17l13 8l6 26l-13 2l-10 13l-37 -15l-6 13l13 30l-7 2l-14 -6zM838 360v5l2 24l-4 4l-21 -4l-2 -8l-10 -10v-11h-15v-14l7 -2v-4l-35 -43 l-25 -21l-2 -14l-14 -24l35 4l14 -15l-2 -8l4 -6l12 29l-2 16l4 14l15 15l14 6l2 4l-6 8l14 4l2 13l6 -7l-4 13l-8 -2l4 8l-16 20l2 4l14 7v10l6 4l5 -23zM772 72l2 4l2 28l6 7v8l-4 2l-8 -6l-8 2l-4 6l-2 16l6 31l-6 4l-39 -18l-19 -27l-2 -14l25 -19l-2 -10l8 -12v-8z M322 1305l-3 -5l5 -16l-7 -14l11 -10l-2 -19l8 -8l8 -31l6 -6v4l12 10v7h-16l-2 14l12 -10h15v45l-7 12l11 10l-13 12v5l-32 -5zM838 1319l-2 -4l-9 -25l2 -18l7 -12l-7 -25l13 -10l16 14v16l14 13l5 16l22 25l2 10l-16 4l-13 -29l-14 -6l-2 10l-18 11l4 14zM397 1122v6l4 2 l7 -4l6 7l-6 4l-5 34l-4 7l-16 -11l2 17l-6 8l-17 4l-4 -4l2 -6l-6 -17l8 -8l5 -14l14 -4l-2 -15zM309 1192l-2 -6l-2 -10l4 -15l19 -14l8 8l10 2l2 10l-8 23l-14 4zM817 956l4 5l2 30l11 -4l6 2l8 17v10l-17 6l-10 12l-2 -10l4 -12v-17l-10 -4l-10 -14l-4 -16zM737 115h4 h17l-2 -19l-6 -12h-19v16zM938 1421v-6l2 -4l-6 -14l-21 -21h7l12 -8l2 8l6 -4v10l10 23zM416 1348l-4 4l-9 6l9 6l34 8l-2 -12zM315 217v4l4 55l-8 -10l2 -33l-6 -14zM729 276l2 5l8 14l-2 14l-8 2v-35zM891 1368l-2 2l12 21l-10 6l-2 -17l-6 -4l-6 -14l14 2v4zM860 1386 v-6v-14l8 -4l-4 14l15 6zM330 961l2 4l16 2l2 10l-10 4v-4l-16 -10zM315 1094l-2 -4l6 -15l9 -2l4 6zM350 1376v-6v-4l6 -4l9 2l4 8zM231 129l-2 -4l2 -12l13 -2l-4 16zM340 1049l4 2l16 8l-6 4l-12 -4zM961 1044v5l2 10h-15v-8zM369 961v4l2 4l16 2l-2 -10h-16zM719 756 l2 -2h14l4 8h-18zM240 86v-4l8 -14l4 4l-4 4l2 8l-4 4zM870 1206l2 4l-6 9l-8 2l4 -15h8zM455 745l2 5l10 12l-16 -8zM932 1337l4 2l14 7l-14 6l-6 -4zM426 1108v4v4l-14 6v-8zM430 752l4 -2l8 8l-2 8h-4v-4l-10 -4zM524 762h4l4 -2l-4 -15l-4 3v14zM850 858h4l2 -2l-8 -12 h-4z" />
<glyph unicode="I" horiz-adv-x="489" d="M379 154v-2l-8 -31l-4 -35l4 -35l-6 -10h-9l-4 -18l-20 -17v-4h-8l-64 -2l-67 2l-64 6l-4 33l4 35l-4 67l4 31l10 14l-2 9l8 2l-8 14l4 12v51l4 5h9l10 32l10 2l-6 -14l6 -4h23l14 12v4l-33 25h-8l4 12l-8 8l-8 43l6 41l10 60l8 65l8 70l7 68l10 59l8 63l8 70l-2 31l4 4 l-4 4l12 53l7 66l8 57l8 74l6 -2v53l6 27l15 71l-2 68l8 31l16 22l23 14l32 9l39 2l21 -4l16 2l62 -4l28 -11l11 -32l-2 -15l-15 -67l4 -31l-4 -21l-20 -10l2 -8l-10 -20h8l8 12l4 -2l2 -17l-16 -61l2 -16l-6 -62l-9 -67l-6 -68l-10 -55l-8 -68l-2 -65l-8 -29l-5 -33l-4 -63 l-8 -72l4 -14l-18 -56l-2 -32l-19 20l-12 -6l-4 -10l10 -2l2 -13l-14 6l2 -12l6 -2l-27 -29l9 -10l14 4l14 11l17 4l-10 -37l-11 -64l-6 -65l-6 -70zM227 150h6l13 4l6 20l-10 10l-15 -10v-24zM272 82l2 4l15 10l-4 4l-17 -14z" />
<glyph unicode="J" horiz-adv-x="897" d="M569 25l-4 -2h-2l4 -15l-6 -6l-31 -6l-26 -12l-64 -13l-63 15l-31 -6l-14 6h-17v10h-14l-6 6l-21 4l-6 6l-30 15l-23 24l-27 21l-6 14l-26 20v15l-9 20l-12 13l-4 12l-6 6l-12 29l2 43l-2 69l-7 15l7 57l12 70l8 65l8 68l13 8l12 20l59 5h68l63 -5l15 -24l4 -33l-8 -31 v-30l-11 -66l-8 -63l4 -17l-6 -33l-4 -65l8 -18l6 -5v-12l21 -4l2 -14l41 -8h31l16 8h16l27 14l49 49l-4 10l6 21v33l17 63l12 64l-4 65l6 68l16 14l-6 12l10 25l6 33l-4 30l2 31l7 66l10 67l6 66v65l12 64v31l6 49l13 18l-6 35l6 33l12 35l8 12l17 2l4 6l-2 8l6 6l-23 11 l-2 6l4 12l6 -10l15 4v16l8 -12l6 2l-4 -25l4 -4l4 4l4 19l11 10l-9 12v9l13 10l-2 4h-9l-12 -8l-2 14l-12 -4l-10 -12h-13l8 22l7 68l8 14v8l16 7l10 8h64l67 -4l35 4l29 -15l6 -16l-8 -20l2 -62l-6 -68l-12 -55l-9 -69l-8 -70l-8 -59l-6 -70l-10 -66l2 -32l-9 -25l-2 -63 l-6 -29l-10 -62l-10 -67l-11 -70l-6 -65l2 -33l-8 -31l-2 -33l-6 -63l-12 -29l-19 -53l-4 -31l-12 -30l2 -5l-12 -4l-4 9v-5l-11 -10l-6 -18h8l-10 -12l-6 -17l-10 -12l-43 -47l-19 8l-8 -2l-10 -14l-31 -11l-8 -6l12 -18l-16 -11l-4 5v10l-4 -2l-2 -17l-7 -6l-2 13zM537 82 l2 6l-4 14l-21 17l-16 20l-4 -2l-7 -14l-4 -2l-14 6v-8l10 -21l-10 -12l2 -18h-14l-2 -9l20 4zM678 205l2 4l16 35l-6 12l10 2l5 6l-5 4l-2 -4l-22 -6l-2 -4l14 -6l2 -8l-8 -11h-10l-10 9l-11 2l-26 -21l-2 -14l10 4l31 2zM690 352l4 6l2 9l-6 20l4 2l15 27l-15 4l-8 -25 l-18 -6l-2 -8l14 -19l-2 -8l-12 -12v-8l4 -2zM315 113l2 2l13 8v18l-6 6l-2 -16l-25 -12l-12 -17l-2 -10l22 -10l12 20zM784 1378v-4l4 -8l27 -2l16 59h-14l-4 -4l4 -10l-12 -6l-6 -25h-15zM610 215l2 4l15 49h-4l-5 6h-4l-8 -16l-4 -31zM621 293h6h8l18 14l-16 4l-14 -4z M326 274v5l-7 24l-10 10v-20l4 -12zM422 39v6l2 6l12 8l-4 2l-2 9l-6 4l-14 -29l2 -4zM233 137l3 4l4 11l-31 8l-8 -4l22 -6zM686 1237h4l19 14l-13 4l-10 -6v-12zM252 244h6l8 4v16l-6 4zM276 518l-2 -4l-10 -16l17 10v-4h8v8zM311 532l2 7l-2 6l-20 12l6 -16zM274 616h-6 l-8 -4v-10l6 -6zM250 156v4l2 6l-14 4l-2 -14h14zM397 -4l2 4l-8 6l-12 -6l12 -6zM582 215v-4l-9 -10h15l6 4l-8 2zM838 1354l-2 4l-17 -6l2 -4l13 2zM717 514h4h10l-4 8h-10v-8zM227 571h4l13 7l-4 8v-4z" />
<glyph unicode="K" horiz-adv-x="929" d="M670 2l-6 2l-5 6l-12 2v11h-10l-8 28l-11 10v39l-4 2l2 9l-10 8l2 6l-4 31l2 30l-10 62l-12 28v15l2 67l-15 27l-2 18l-4 64l-6 6l-6 64h-8l2 14l-8 14v8l-9 11l5 8l-3 8l-10 8h-20l-10 -12l-5 -16l-24 -25l-4 -16l-19 -13l-18 -34l-12 -31v-41l-9 -14l-6 -29v-70 l-10 -67l-8 -64l-4 -63l-6 -33l-19 -64l-26 -14l-19 2l-4 4l-8 -10h-27l-63 -4l-70 8l2 4l-16 29l8 31l-4 8l8 65l10 66l8 67l5 64l8 20v31l6 6l-2 64l10 32l4 33l6 66l-2 63l4 33l19 61l2 31l2 66l18 63l2 64l9 67l2 62l12 63l10 64l-2 32l14 64l7 65l12 66l8 18l49 23h33 l31 -10l35 -4l61 -2l10 -11l2 -18l10 -27l-8 -65l-6 -25l-6 -63l-8 -64l-6 -67l-13 -62l4 -63l-2 -33l-8 -31l2 -16l13 4l22 20l31 60l37 53l22 59l19 23l32 53l7 31l18 25l14 28l31 51l8 33l6 4l7 25l16 12l20 43l9 -2l26 8l4 15l4 2l13 -15l4 4l2 17l16 -2l66 -8l67 8 l23 -17l-2 -26l-15 -29l-14 -18l-12 -33l-25 -57h-4l-4 -11l-12 -8l-25 -47l-6 -2l-2 -12l-12 -21l-8 -31l-7 -4l-2 -8l-10 -12l-14 -4v-21l-10 -28l-29 -31l-14 -31l-33 -57l-35 -53l2 -13l-12 -53l12 -2v-39l6 -10l4 -29l-4 -2l-2 -8l6 -14l10 -66l11 -16l-6 -17l10 -6 l-6 -4l8 -10l-2 -15l10 -10l-2 -8l4 -6l2 -49l14 -66l17 -59v-31l16 -65l-2 -33l15 -29l-3 -6l9 -47l6 -16l-2 -9l-15 -6l7 -8l-11 -23l17 -22l-4 -47l10 12l8 4l6 -4l-2 -43l8 -4l-8 -29l-33 -10l-28 -4l-68 -10l-37 2zM662 242h4l10 -11l6 -18l-12 -23l2 -12l8 2l8 13v34 l-8 21l8 2l4 6l-4 16h6l8 11l21 6l16 12h-4v16l-14 5l10 16v14l-6 17l-4 32l-12 2l-2 11l10 12l8 2l16 -4l-8 14l10 15h-10l-20 -25l2 14l-19 -2l-12 -8v-35l-6 -12l-2 8l-10 10v11h-19l8 10l-8 20l2 7l23 22l18 4v-16l12 -10l-10 12l4 6l-4 8l8 15l-4 34l-6 11l-6 -11 l-14 -10l-21 6l-10 -2v15l-16 2l-2 -21l10 -29l-6 -14l10 -43l6 -61l8 -33l2 -33l13 -53zM705 770v4l2 6l-5 4l-10 -10v-29l-14 11l-14 -27l-7 -2l-6 27l-4 -31l-8 -66l14 7l4 -13l-8 -12l-12 4l-6 -39l10 2l8 8v19h10l17 14h-4l-4 6l2 13l-6 6l8 12l8 4l4 -8l-10 -16l6 -2 l10 8v18l10 4l5 6l2 19l-7 14l15 29zM342 1157v2l14 12l41 -4l11 39l-2 17l-25 22l-14 4l-9 -4l7 -4l6 -16l-17 -6l-14 2l-2 -15l-21 -10l11 -8l-4 -17zM674 150l4 -3l4 -2l12 -30h29l-2 -11l4 -4l2 15l-8 10l-4 14l8 6l8 21l14 10l3 8l-7 6l-14 3l-16 -5l-6 5l-17 -17l2 -8 l-10 -4zM698 1147v-4l-8 -64l-8 -57l4 -2l19 29l-5 6l17 4l2 14l16 29l-2 6l-12 -14l-4 6l10 12l2 10l-16 6zM797 1288h-4l-7 2l-16 -4l-12 -10l-6 -23l6 -14l-13 -14l5 -4l20 10l4 6l23 2l2 14l10 9l2 8zM295 125l2 2v6l-18 -18l-7 2l-6 12l-16 -4l-8 -10l-9 -35l17 -2 l29 8l10 12zM737 1182v-4l4 -27l-8 -12l6 -11l15 9l18 24h10l4 33l-2 6h-6l-6 -6l-16 -4l-13 2zM807 1362l-4 -2l-8 -10l-4 -15l6 -12l2 4l16 2l10 14l15 9l-2 6l4 18l-2 6h-15v15l-4 4l-14 -29v-10zM336 1030h6l14 4l2 -4l33 -6l2 12l6 4l2 9l-43 10l-14 -4l-8 -15v-10z M821 1122l-2 2l8 33l-8 25h-14l4 -19l-16 -49l8 -2l6 6zM303 193v6l6 14l-18 10h-21l-2 -8l-12 -8l-2 -8l10 -2l27 12l6 -4v-6zM322 350l-5 2v8h-14l-6 -28l6 -13l19 21v10zM766 1073l4 2l4 2l6 17l-6 10l-14 -6h-10l4 -17zM856 1319h-4l-10 4l-4 -14l-15 -6l4 -19h9z M707 375v-4l-9 -27l-8 14l6 17l15 8l6 -4zM793 369l-5 2l-10 2l-16 -6l-4 -7h12v-6l14 -2zM745 414l-2 -2l-12 -17v-10l8 2l13 12l2 9zM328 86l4 -2l2 -2l14 6l6 16l-22 -10zM299 104h4l16 9l3 8h-21zM655 1083h4l11 11l8 26l-8 -8zM821 1440v-6l-6 -17l8 -6l4 8v15z M700 135h-4l-4 10l15 9zM686 453h-4l-12 -4l-11 -11h11zM872 1382l-4 -2l-16 -8h18zM621 86l4 -2l8 8l-2 8h-4v-4h-4zM659 369l5 -2l2 -2l-9 -11h-8zM635 555h-4h-6v-10h10v10zM319 1214l-2 -4v-4h11l2 8h-11z" />
<glyph unicode="L" horiz-adv-x="798" d="M754 190l-2 -4l-2 -10l-13 -70l-12 -63l-12 -27l-13 -8l-16 -4l-66 -6l-38 2l-31 6l-10 8l-7 15l-4 -2v-25l-28 -4l-68 2l-53 -4l-10 10v8l-2 -4l-15 -6l-6 4l-29 -14l-65 6l-66 -6l-49 10l-2 14l-8 11l-6 63l8 31l12 12l-10 21l8 14l4 33l7 6l-11 10l8 60l9 65l-2 33 l16 55l6 64l6 63l11 66l10 65l4 60l4 67l12 60l8 65l9 72l6 69l4 62l10 65l6 64l10 65l5 66l18 27l8 30l27 19l14 4h33l65 -4l31 10l2 -2l-4 -2l35 -2l12 -8h8l2 -15l-2 -63l-10 -66l-8 -69l-2 -64l-10 -63l-17 -66l-2 -65l-6 -66l-10 -66l-12 -65l-4 -61l-9 -33l-4 -64 l-4 -65l-6 -64h-4l-6 15l-2 -9l-11 -10h-8l4 -14l19 -10l4 -15l-4 -35l-19 -63l-2 -64l-6 -36l2 -29l19 -25l14 -2l6 -10l35 -2l65 8l60 -6l70 -4l65 8zM410 1374h-4l-11 -8l-4 -12l31 -17v-16l-23 -21l2 -10l-4 -35l37 19l6 -2l2 22l-6 -4l-10 2l-4 19l4 -2l16 20l7 -4 l4 35l8 -8h14l17 8l-7 20l-10 11l-4 16l10 12l2 17l-10 30l-2 -4l-12 4l2 -6l-6 -22l-25 -11l-18 -34zM449 1139l-5 -2h-12l-12 6l6 16l6 4l8 -10l13 16l2 9l-9 2l-2 4l15 -2l4 -4l-6 -7l4 -4l6 23l-6 4l-23 -10l-4 4l27 18l8 31l-4 -2l-21 8l-18 -4l-12 2l-23 -14v-8 l10 -13l17 -4l16 6l-2 -4l4 -12h-6l-10 -10l-2 -31l-23 -8l2 -21l-6 -8l8 4l31 4l10 -4zM453 1051h-4l-9 -11l4 -4l9 11v-39h8l12 8l-4 55l6 19l-14 -5l-4 -28zM391 864v4l4 52l-4 4l-2 -13l-20 -22l-2 -19l14 -6h10zM451 1403l-2 -2l-11 -19l-2 23l6 18l7 -4l4 4l4 -20l4 4 l4 -2l-4 -10h-8zM393 1016v4l2 20h-12l-6 -4l2 -16zM477 1251v4l6 45l-18 -40zM395 575l-2 -4l-6 -16l2 -4l12 6l-6 6l13 15l-5 4v-4zM379 958h4l14 21l-2 4l-16 -16v-9zM438 1212l-4 -4z" />
<glyph unicode="M" horiz-adv-x="1247" d="M1026 31h-4l-4 -4v-27h-43l-60 6l-8 17l-4 30l6 21l-10 30l2 15l19 65l6 66l-2 65l18 64l4 65l10 64v61l11 31l10 66l8 65l8 64l8 63v66l-10 30l-10 -6l-10 -14l-10 -45l-11 -12l2 -15l-10 -28l-8 -3v-22l-8 -31l-15 -24l-12 -35l4 -14l-8 -29l-25 -64l-6 -34l-24 -60 l-13 -61l-10 -27l-16 -29l-21 -67v-31l-22 -61v-13l-23 -53v-14l-10 -10l-12 -60l-25 -63l-18 -29l-33 -10l-43 2l-47 14l2 8l-12 9l-5 8l5 4l-7 20l9 25l-4 8l2 14l-13 39l2 64l4 6l-2 4h-8l2 16l-8 19l8 65l-4 31l-6 6l2 8v66l-4 2l4 47l-10 14l10 21l-6 8l8 19l-4 10 l2 16l-6 15l2 14l-6 6l2 33l-4 28l-2 64l-8 16l-3 25l-8 4l2 10l-8 25l2 10l-4 8l12 21l-6 2l4 18h4l-8 12l-2 35l-14 31l-10 -8l-17 -41l-4 -70l-6 -30l-10 -64l-15 -31l-10 -63l-8 -66l-4 -67l-2 -66l-4 -65l-6 -58l-9 -65l-8 -72l-6 -65l-10 -64l-15 -31l-34 -8l-72 -8 l-68 6l-26 10l2 33l4 66l12 63l4 64l6 28l9 70l-4 31l12 57l6 68l8 73l8 60l11 69l10 58l6 65l8 70l12 67l5 66l4 61l12 62l10 72l2 57l6 69l15 70l14 29l2 14l10 12l39 9l33 -4l59 4l70 -2l31 8l12 -10l12 4h17l6 -4h10l-6 -9l6 -6l14 -2l7 -63l6 -66l4 -65l4 -66l4 -66 l6 -65l4 -66l4 -65l9 -21l-2 -16l4 -14l-7 -17l-6 -4l4 -10l2 -37l7 -12l-2 -41l4 -31l14 -31l4 -32l-2 -31l18 2l15 20l12 29l-2 17l16 26l11 33v24l12 29l6 2l6 8l2 15l11 18l-5 6l7 31l-7 18l25 35l18 62l21 65l14 29l8 63l15 29l10 10l8 58l13 24l6 25l14 26v9l10 24 l4 37l9 33l6 4l8 18l16 9h8l19 -33l-2 -19l4 -4l-12 -6l-4 -10l10 -4v-4l-8 -4l18 -25l12 -2l8 -18h31l-4 10l6 4h10l11 10l4 -4v-18l8 -2v-7l-14 -6v-10l18 -2l-8 -16l4 -7l8 -2l6 4l-2 23l-8 4l-2 8l37 13l18 -13l-2 -24l-6 2l-10 -13l-19 11v-17l5 -6l20 -10l10 12l29 60 l-4 6v10l-4 4l20 25l15 28l22 11l4 16l8 12l-2 15l23 -11l10 -10l4 -18l-10 -47l-2 -66l-12 -33v-30l6 -33l-19 -60l4 -49l-4 -33l-10 -32l-6 -64l-8 -67l-8 -66l-13 -55v-31l-10 -63l-4 -62l-8 -61l-6 -68l-13 -67l-8 -68l-6 -68l-8 -63l-10 -62l-11 -63l-2 -61l-10 -31 l-16 -29h-21l-2 8l-10 -4l4 -10l-6 -2l-14 4l-17 -2l-2 4l8 16v9zM1079 950l6 -2l15 6l10 13l16 2l2 22l-16 23l6 4l-12 6v4l10 8l-6 31l12 4l6 -4h11l6 8v12l8 5l4 -11l8 -4l2 13l7 6l-3 30l19 43l-2 7l18 47h-14l4 8l-20 8l-2 23h-15l-6 -9l-4 -16l8 -29l-2 -4l-35 -55 l6 -19l7 -4l2 9l14 6v-25l-16 -2l-3 -4l5 -6l-23 -19l-2 -8h-4v-39l-19 -16l9 -6l2 -47l-37 -15l4 -2l-2 -24l4 -4l8 2l4 6v18zM1063 1454l-4 2l-45 14l-4 7l2 4l2 -4l30 -2l66 -2l-6 -15l10 2l2 17l35 6v-6l-14 -29l2 -4l2 4l28 -18l31 24h10l-6 -20h-6l-4 -17l2 -4 l-20 -14l6 -21l-6 -8l-11 6l-4 8l4 11l-20 4v31l-10 8l-9 -2l7 -13l-7 -14v-10l-6 2l-26 -10l-9 2l-16 37l-8 4zM752 500v4l-7 24l11 4l6 17l-6 22l-17 31l-16 -22l-12 -7l-9 5l-12 -21l-4 -18l14 -2l11 -17l-9 -16l15 -21l18 -4l-2 15l4 4zM1034 383l2 -4l13 -55l14 6l4 8 l8 4l2 -6l10 -2l3 57l4 17l-7 8l-2 -4l-12 4zM500 1077l6 2l6 8l6 23l-8 2l-4 6l-2 35l-4 6v-14l-19 -66l-8 -61h4l6 14l19 8l6 17l-10 14zM600 1409v6l-8 15l-10 -3l-31 9l-12 -6l2 -3l-4 -4v-22l10 -27l-6 -8l12 2l10 -8l6 8l2 16l-6 -2l-6 17l-14 6l2 8l6 4h35zM1096 543 l2 -6l-4 -5l4 -8l6 8l2 17l-6 33l8 -4l-2 14l4 6l-29 8l-6 -16l2 -15l10 -16l-8 -6zM1102 807l4 -2l24 -12l-4 16l-14 6zM938 1032l2 2l4 17l-8 2l-6 -17zM1169 1405l2 4v4l-12 6l-6 -6zM1042 641v-4v-29l7 4h-5l3 29h-5zM1075 313l4 2l8 9h-14v-5l-12 -10l4 -4zM944 1077 l4 -2l4 2l2 15h-8z" />
<glyph unicode="N" horiz-adv-x="997" d="M846 8l-4 -2l-11 -2l-67 -8l-66 4l-28 8l-4 8l-23 62l2 6l4 -2l6 12l2 17l11 2l-6 8l-21 -17l-4 2l2 7l-16 10l-2 33l4 12l-11 65l-6 7v24l-10 8v4l-14 64l-17 27l-4 57l-10 12l-18 62l2 16l-5 14h5l2 13l-21 67l-6 2l-6 11l-8 36l-2 35l-7 6l7 7l-4 14l-11 57l-6 6 l-12 27l-12 12l-21 -28l-12 -64l-6 -67l-6 -64l-11 -66l-6 -61l-8 -35l-12 -28l-7 -33l3 -33l-5 -31l7 -14l-7 -66l-12 -67l-4 -66l4 -30l-24 -60l-11 2l-22 -12h-35l-4 6l-2 -6l-19 -4l-12 6l-29 6l-36 2l-31 6l-2 31l4 33l6 63l2 64l8 33l6 65l9 64l8 63l6 64l10 65l8 68 l7 63l10 68l10 67l10 66l6 67l7 66l6 66l6 65l6 62l10 61l13 63l2 33l10 64l-2 14l6 8l-4 2l49 15l70 6l67 -4l29 -6l10 -21l27 -59l-4 -27l8 -31l16 -65l-4 -8l6 -11l21 -63v-62l12 -59l16 -27l15 -53l12 -14v-17l6 -63l8 -12l11 -41l14 -66l14 -61l13 -13l8 -2l16 21l4 16 l8 68l13 69l10 68l-4 57l8 23l12 61l2 68l9 33v30l6 64l10 67l6 68l8 31l15 31l26 4l31 10l63 -17l64 -6l6 -14l2 -18l-4 -7l14 -12l-2 -31l-12 -65l-10 -70l-12 -30l6 -25l-2 -31l-11 -71l-4 -62l-8 -67l-12 -70l-12 -31l-7 -33l4 -63l-2 -33l-6 -67l-12 -64l-6 -4l-19 -29 l5 -10l12 -6l2 -8l-10 -60l-7 -67l-6 -68l-6 -63l-10 -60l-8 -2l-11 -33v-24l11 -6l-8 -68l-15 -59zM809 870v-4l-6 -16l12 -10l14 20l2 35l9 2l10 10l14 51l31 11l8 28l-12 -4l-10 -10l-9 -2l-12 6l-10 12l-10 2l-25 -49l-2 -14l6 -14l-6 -6l-6 -25zM768 137l2 6v17l-6 24 l4 17l-6 8l-17 -8l3 8h-23l-2 -39h-10l-19 -33l31 -12l29 2zM598 547l6 2l4 2l25 -8l10 4l6 10l13 64l-11 2l-26 18l-9 -16l-4 -31l-14 -8l-8 18l-8 4l-7 -2l3 -12l14 -8zM664 401h6l10 -4h14l8 4l-2 11l-6 6l-18 2l-6 16l10 23l-10 -4l-13 10l-14 -6l-2 -6l8 -13l-6 -10 l8 -14l-2 -10h-20v-19l12 -6l8 2zM449 909l4 4l4 19l-4 16v49l-13 9v10l11 12l4 19l-15 4l2 -4l-6 -21l-4 -2l-6 -14l8 -13h-10l4 -18l-4 -16l8 -15l2 -12zM874 1110l-2 -6l-2 -8l15 -17l-11 -2l-6 -6l9 -2l20 -20l12 2v10l13 6l2 8l-9 6l15 19l-8 12l-9 2l-6 -6l-26 -2z M760 352v4l2 50l26 4l3 10l-9 12h-22l-12 -8l-5 -8l9 -10l-13 -11l4 -16l-2 -17l-10 -10l14 -6zM449 1319v-2l12 -21l2 -16h20l4 39h-10l-8 12l-4 25l-6 4l-4 -4v-25zM322 807v4l8 14l-13 6l-14 -4l-6 4l-10 -18l-29 -16l8 -17l19 -4l2 10l8 13l14 8h13zM227 113v4l13 14 l-11 14h-8l-2 -8l-24 -18l-13 -19h-8l-2 -8l10 -4l35 25h10zM567 1016l-2 -2l-10 -17v-10l8 -4l8 -10h15l-6 33zM545 786l4 2l47 13l-6 8l-8 2l-7 -4h-24l-14 -6zM664 49l6 -2l12 2l10 8h8l-2 9l-20 12l-10 -8l-6 -13zM862 582l2 2l6 24v33l-14 -25l4 -6l-10 -22l2 -4z M834 1104v-4l-3 -19l5 -6l14 4l10 11l4 10zM797 801v-4l4 -11l-2 -10l6 2l20 -6l-12 39l-4 -10h-12zM551 944l2 4l4 13l-8 16l-12 -4l-2 -10l4 -11zM766 606l-2 -4l-2 -10l12 -10l6 10l-4 14h-10zM502 948h4l10 4l6 17h-12l-6 4l-4 -4zM780 948l-2 -6l2 -18l6 -4l11 18 l-9 10h-8zM295 434l6 -2l10 6l2 8l-6 13h-8l2 -17zM266 831l-2 -4v-10l-4 -6l25 6v8zM735 430h6l11 6l-4 13h-11zM319 494h-4l-18 -15h20zM330 543v4l-2 16l-6 4l-5 -16zM989 1128h-6l-12 -2l-4 -6l10 -4l8 4zM852 410v4l-2 4l-14 2v-10h16zM580 870l-5 2l-4 13l-14 -11l6 3 l10 -11zM547 1167v4l2 7h-10l-2 -11h10zM530 836v4l2 6h-10l-2 -10h10zM750 616v-4v-12l4 -4l2 4zM727 74l2 4l2 6l-4 4l-4 -12z" />
<glyph unicode="O" d="M575 -8h-4l-39 -4l-65 -11l-64 -4l-30 9l-62 20v4l-8 -2l-59 21l-13 10l-2 6l-12 2l-4 10l-20 8v9l-17 16l-12 29l-8 4v14l-17 17l-2 8l-2 -4l-8 10v16l-8 62l-6 4l2 14l-4 23l4 65l8 66l6 63l21 64v32l-3 64l9 65l12 66l8 68l6 63l13 59l6 7l-4 16v29l12 65l12 70l8 63 l13 33l26 51l-4 -12l2 -33l17 -30l2 -15l4 -2l4 19l-19 30l11 35l-2 8l-17 6l13 25l8 2l2 12l20 27l6 16l27 17v8l20 10l19 25l16 4l4 10l13 6l35 8l57 19l65 14l66 2l63 -4l15 -10l49 -6l14 -8l6 4l2 -4h7l2 -11h14l4 -14h14l13 -14l6 2l8 -4l6 -13l25 -8l18 -37l23 -22 l2 -13h10l-2 -4l10 -63l10 -14v-7v-63l-4 -68l-8 -67l4 -64l-16 -45l-8 -67l-9 -31l-2 -33l-6 -61l-6 -66l-6 -65l-10 -68l-11 -66l-6 -61l-8 -66l-12 -65l-12 -35l-7 -31l-4 -6l-26 -57l-19 -25l-8 -4l-18 -26l-41 -50l-56 -32l-26 -23zM453 203l6 -2l49 -6l53 20l17 12 l12 27l8 6l-2 16l10 54l12 32l11 64l-8 31l12 32l4 35l2 70l2 65l10 58l13 28l2 31l4 68l6 -4l4 -15l16 -6l9 4l4 -12l6 -2l26 37l-2 6l-12 -8v-10l-18 4l-15 -4v-11h-8v11l12 10l-4 4l-2 -4l-12 4v4h-10l4 20l8 11l8 -6l-6 12l2 4l19 2l-7 -12v-11l11 -20l2 14l18 11l-6 2 v4h10l6 14h-10l-14 6l-6 12l-7 3l-14 -7v25l8 63l6 68l-4 33l13 67l-4 13h4l2 16l-13 41l-8 2l-6 23l-14 6l-2 10h-15l-2 8l-39 8l-30 -2l-6 -6l-33 -6l-27 -16l-20 -23l-17 -29l-2 -16l-8 -2l-14 -43l-4 -64l-15 -71l-8 -60v-65l-12 -64l-10 -73l-9 -68l-4 -55l-6 -66 l-10 -69l-10 -72l-11 -64l-2 -55l11 -63l22 -25l14 -2l11 -12h39zM350 868v4l6 50l-6 4l-2 10h-10l-41 20l-25 -14l-2 -10l11 -6l-5 -25h7l4 -12l6 -6l2 -23l16 -22l-6 -15l4 -18l8 -10l5 8l-3 16l9 2l10 13l4 18l-16 4l-7 16l25 2zM602 1415h-4h-4l-12 -14v-8l12 -19l-6 -8 l30 10l9 -12l39 -2l10 39l-4 14l12 15l-18 10l-54 4l-2 -4l11 -10l-5 -7zM242 1063l2 4l22 25l-12 -39l-2 -25l4 -14l6 16l29 29l-4 2l-2 16l-6 6l8 2l6 21l-2 33l10 10l10 2l-2 16l-26 29l-4 -35l-27 -20l14 -4l4 -7l-2 -8l-20 -12l-15 2l-8 -29l2 -12zM817 1278l-2 -6 l-2 -4h-12l-6 -8l18 -15l6 -26l-4 -39l10 4l6 16l11 10l18 -2l8 -8l2 -10l-6 -23l6 -6l7 13l6 36h-15l-2 7l8 22l-10 6l-4 12l4 19l-6 -2l-2 4l4 12l-2 6l-10 2l-2 -22l-8 -12l-11 2zM274 848l5 -2l8 -8l-2 20l-4 4l-7 -2l-16 17l-6 -5h-10l-2 -8l-9 -2l-8 -59l4 -15l25 41 l8 -4l23 4l2 7l-13 6zM870 1053v4l2 16l-10 -2l-4 10l-8 2l-4 -36l8 -13l-14 -12v-16l-11 -7l2 -4h33l6 49h-8l-4 15l6 4l-2 -4zM426 1278l2 4l10 16v11l-12 8h-10l-2 16l-13 4l-2 -6l-12 -10l-2 -8zM180 403l2 3l25 6l10 10l-6 4l-2 8l6 8l-35 15l-4 -49zM262 662l2 4l2 8 l-14 18l6 19l-20 -9l-11 -10l2 -2l-14 -12l2 -6l16 2l11 8l-6 -20h4l10 10h4l2 -8zM918 1264l-7 -2l-20 10l-8 -4v-15l6 -14l-4 -10l2 -15l12 15l4 16l12 10zM655 1489l-2 -4v-27l11 -12h10l6 33h-8l-6 10h-11zM506 66h4l31 4l-4 8l6 26l-2 5l-2 -5l-9 11l-2 -21l-8 -2z M784 612l4 4l-8 21v18l-6 2l-2 -4h-8l6 -35zM705 770h6l10 6l6 15l-2 6l-16 8l-9 -21zM371 1112h4l10 8l-2 51l-6 -6l2 -4l-10 -26zM453 1352l2 2l10 14l2 18l-21 9l-4 -9l11 -10l-4 -8zM362 1161l-2 -4l-6 -4l-18 -2l4 -12l16 -6l6 4l-8 2l13 18zM893 1298v-4l-8 -12l6 -4 l2 8l14 6l-2 -12l8 -2l2 14l-6 4zM813 696l2 4l4 13l-2 8l-10 10l-2 -4zM907 1102h-4h-12l2 -33zM313 1049v4l-4 26l-4 2l-6 -4v-6zM588 45l2 6l-12 8l4 9l-2 2l-9 -11l2 -14h15zM649 1436v-4l-2 -13h-14l6 17h10zM717 270h4l8 4v9l-4 4l-6 -2zM813 1362v6v4l-14 8v-10z M223 1122h4l9 2l10 13l-13 -4zM692 721l4 4l9 10l-11 -2l-4 -12h2zM731 696h4l4 2v13l-8 -4l4 -7h-6l-2 -8zM901 985v-4v-6h10v10h-10zM848 1214l-4 3v8l4 4l4 -2zM838 1098l4 -2l8 -9l2 5l-8 12z" />
<glyph unicode="P" horiz-adv-x="950" d="M836 668l-2 -2l-29 -23l-31 -10l-61 -27l-33 -2l-64 -8l-65 -2l-66 2l-32 -8l-15 -10l-18 -43l-2 -33l-4 -66l-11 -30l-4 -33l-8 -64l-6 -63v-64l-10 -65v-31l-17 -66l-41 -28l-43 8l-65 6l-70 2l-12 10l-2 7l4 34l-4 23l2 33l12 67l8 64l7 65l4 64l10 55l6 74l8 65l8 66 l7 65l4 64l8 31l12 67l6 64l4 65l15 56v24l14 8l-6 11l14 26l-18 2l10 66l-2 30l4 33l8 19l17 71l10 11l-12 14l6 20l-6 23l6 6l-4 8l10 6l6 25l14 18l17 7l31 4l32 -2l66 -2l65 4l64 -11l33 9l8 -2l4 -11l29 15l51 -2l31 -9l63 -2l6 -6l10 -2l7 -8l32 -8l15 -8l8 -13l14 -2 l2 -14l19 -14l39 -50l4 -22l6 -6l10 -56l6 -8l-2 -20l10 -2l-2 -13l6 -4l-6 -20l2 -33l-4 -61l-6 -68l-8 -67l-12 -66l-17 -64l-12 -18l-10 -29l-10 -10l-7 -18l-20 -31l-33 -37zM733 907v4v35l12 68l-2 30l9 31v51l-15 45l-2 33l-8 15l6 6l-16 16v8l-29 19l6 10l-2 14h2 l-4 4l-16 -22l-39 4l-33 -2l-65 -8l-23 -29l-2 4l-6 -4l-8 2v27l-4 6l-7 -6l5 -4l-9 -2l-6 -13l4 -8l8 -2v-16l11 -2v-70l-2 -57l-17 -64l-4 -63l-10 -66l-8 -67l18 -35l43 -19l12 4l3 4h6l63 5l35 8l55 33v12l6 6zM328 1229v-4l6 -31l-25 -29l13 2l8 17h16l4 -13l-2 -10 l8 -2v-8l37 14l4 19l-6 26v17l4 8h-10l-4 12l-6 2v15l6 2l12 -6l2 8l-14 2l-21 -6l-2 20l-8 12l-10 2l-14 -55l12 4l2 -4l-4 -12zM430 1186l2 2l6 4l2 8l-14 4l-31 -57l2 -31l-22 -24l-15 -29l11 -6l8 -15l8 11l25 -15l2 21l8 61zM319 1004l5 2l12 12l-4 -12l2 -7l8 -4 l29 43l-25 -4l-2 13l-14 6l-4 -13l-21 9l-2 -7l12 -8l-2 -10l-12 -10l8 -15l-2 -14l15 -8l10 -14l12 -7l10 5l11 20l-7 14h-6l-12 -10h-8l-2 4l-8 2l-5 6zM453 1411h6l10 2l4 6l-10 2l-21 -10h-8l6 29l-18 14l-8 -10l-2 -19l6 -14l-4 -2l-6 -14l6 -4h16l8 -13l6 2v9l9 12v10 zM362 193l3 4l2 8l-9 12l9 27l-9 12l2 -16l-8 -4l-2 12l-6 4l-8 -10l-6 4l-4 -21l4 -4l6 6l2 -14l10 -12zM385 1346l-2 -3l4 -8h4l10 11l-8 2l-2 8l4 -4h8l15 10l-2 12l-21 12zM334 442l2 4l8 39h-16l-6 -14l4 -16zM518 1364l-4 -2l-2 -2l-16 10h-11l2 -8l21 -10l-4 -17 l2 -4l8 2l8 31h-4zM354 1214l2 -4l9 -6l-3 -10l-28 10l18 25l4 -4zM338 922l2 6l2 8l-8 4l-15 -10zM535 1282l-3 2l-8 4l-6 -2l-4 -8l6 -4zM381 1073v4l2 10l14 -4l-6 -10h-10zM260 852h4l8 4v8l-4 4l-6 -2z" />
<glyph unicode="Q" d="M690 -309l-4 -2l-24 -6l-64 -2l-31 6l-22 -6l-4 4l-33 6l-10 12l-54 27l7 10v10l-7 2l-8 -6l-2 -8h-12v10l-4 -4l-33 33l-2 16l-27 21v12l-8 2l4 6l-8 4l-18 51l-4 33l6 8l-11 9l2 8l-8 14l-2 14l-12 13v12l-27 10l-2 8h-24l-2 9l-21 10l-24 18l-19 23l-37 59l-2 15h-10 l2 8l-8 20h4l-8 15l-8 47l-2 59l8 70l14 65l-2 29l4 35l6 65l11 56l8 63l6 70l8 71l10 68l13 63l2 66l4 55l8 70l6 12l16 64l27 57v8l37 60l14 10l25 39l35 35l16 6l4 6l12 2l25 20l25 7l4 8l43 4l28 10l33 6l-6 -10l-16 -4l14 -10v-11l-19 -14l7 -14l-19 -56l8 -16l-10 -2 l2 -6l19 -2l18 4l18 -2l7 10l8 31l33 14l-5 6l-12 -6h-8v10l-8 15l-25 -11l-6 7l-2 16l4 18l-4 9l4 4l6 -2l8 -17l11 2l4 9l-8 22l2 6l47 -6l63 10l17 -4l4 -6l12 -6l61 -14l5 -7l30 -14l2 -12l17 -4l16 -13l6 2l6 -10l-2 -10h15l4 -12l24 -17l19 -53l20 -59l-4 -35l6 -6 v-23l9 -14l-11 -58l-10 -63l4 -63l-10 -31l2 -17l-10 -63l-11 -55l-10 -72l-6 -70l-2 -59l-6 -72l-8 -33l-21 -61l2 -31l-4 -34l-12 -64l-6 -63l-11 -19l-10 -35l-18 -24l-6 -31l-13 -16l-2 -15l-24 -22l-15 -25l-26 -20l-58 -31l-12 -12l-14 -6l-2 -9l-43 -16l-25 -21 l-18 -26l8 -29l22 -22l13 -4l-4 -5l2 -8l4 4l-4 7l37 -15l69 -6l17 -12v-8l8 -5l-2 -18l4 -12l-8 -23l4 -24l-6 -19zM541 205l4 2l18 20l12 27l7 4l10 27l20 49l11 65l4 64l10 33l-2 65l6 31l10 70l8 61l7 70l8 65l10 62l10 69l8 68l5 57l4 68l-4 61l-48 33l-12 -4l-14 6 l-64 16l-26 -8l-27 -18l-8 -17l-8 -2l-23 -24l-2 -13l-10 -2l-4 -39l-6 -8l2 -6l-11 -55v-64l-12 -63l-2 -66l-12 -65l-6 -64l-6 -6l6 -10l-6 -12l-7 -64l-18 -63l6 -23l-2 -31l-14 -63v-31l-6 -69l-9 -33v-27l-6 -49l4 -33l11 -24l26 -31l13 -2l8 -10l28 -11l19 -2l63 9 l2 10h15zM209 889l2 -2l47 -8v-11l25 -18l12 22l10 9l10 2l9 20l6 6l8 -6l8 25l-8 10l-6 -4l-4 4l8 6h8l-2 10l-6 4v15h10l6 4l8 20l-10 23l-4 35l-18 -4l-6 -50l-15 -8l-14 -30l22 -2l11 -9v-8l-7 4l-24 -4l-12 8l-29 -14l-61 -25l6 -4l2 4l10 -14l-14 -4l-4 -18l4 -13l4 6 v15zM279 494l4 2l10 28l10 4l2 -4l2 4l-16 19l2 20h-8l-4 15l12 2l4 14l-2 33h-23l-6 4l2 8l13 10v17l-9 -2l-10 -11l-6 2l-6 11l6 8h12l-2 10l-12 6v39l-10 4l-8 -2l-11 -10l-8 -2l2 4l-4 6l-2 -49l-6 -33l2 -12l8 -4l10 18l15 6l-9 -14l13 -20l-4 -17l-9 -2l-32 10l-4 -34 l-9 -70l5 -6l14 -2l4 37l-8 6l12 20l6 -8v-16l15 8l6 16l-2 15l8 2l22 24l9 2l-5 -41l7 -26l-15 -25l4 -22zM795 1198h-4l-17 -8l-6 -27l12 4l2 -4l-18 -20v-15h8l8 13l39 2l4 28l39 46l-10 2l-2 8l16 28l-6 -2l-8 19v-4h-18v4l16 10l4 12l-23 45v-6l-6 -4l-14 6l2 -22 l10 -8l8 2l5 6l8 2v-4h-4l-11 -39l-22 -21l22 -20l-2 -14l-12 -19l-20 29v-29zM434 1311h6l9 2l10 10l6 16l-14 2l-9 11l-2 32l-6 15l-6 -6l-53 -39v-4l-6 4l-2 -8l6 -13l-2 -8l-17 -18v-7l8 -6l-18 6v-10l14 -18l17 22h8l-4 19l2 16l27 8l18 -2v-12zM252 1153l-2 -4 l-14 -14l4 -17l-4 -18l4 -4l22 47l6 -2l15 18l-4 6l8 21l18 2l6 6l-2 6l-16 2l-6 4l6 8l-6 9l-11 4l-6 -21l-18 -26l-4 -15zM537 -270h6l8 8l6 14l6 2l-4 23l6 16l-14 2l-4 12h-12l-13 -6l-12 -12l10 -4l8 4l17 -2l12 -20l-8 -13l-19 4l-30 -14v-23l10 -8l25 2zM264 1124v-4 v-12l-6 -16l-2 -21h10l15 -31l18 13l23 22l-41 -4l-2 8l4 17l-2 12l-9 12zM195 248h6l10 6h8l-8 18l2 11h-18l2 -15l-7 -4l-12 8l-6 -4l4 -2l2 -26l12 -11v-8l5 -2v29zM322 1290l-3 -4l-16 -45l43 10l2 15l-4 6l-8 -6l-10 24h-4zM217 825h4l4 -6l-2 -18l15 -8l20 -2v10l6 14 l-14 -2l-6 4l-2 19l-19 -5zM733 1407l-2 -4l-18 -39l10 -2l27 16l-7 21zM590 -279v-4l4 -12l12 -8l4 8l27 16l-2 9zM229 297v4l2 33l-10 8l-2 -10l4 -6l-10 -4l4 -17zM283 131l2 4l6 15l-8 10l-17 -17l-8 -16h6l12 8zM242 152l4 -2l8 -9h8l4 4v15l-4 6h-8zM360 1231h5l24 2 l12 8l-24 4l-12 -6zM813 1305l-2 -5l-6 -14l20 -6l-2 14zM795 1378h-4l-15 -6l-8 -14l16 8zM315 1272h7l4 -4v-8l-4 -5h-9zM766 1343l-4 -2v-12h10v10zM283 684l4 -2l8 12l-6 6l-4 -2zM530 -256l5 -2v-6l-13 -10l-4 4zM535 -176v-4l-3 -6h15l-2 8zM547 1399l-4 2l-6 2l6 10 l2 -2l-10 -4zM223 889v4l2 6h11l-3 -10h-10z" />
<glyph unicode="R" horiz-adv-x="931" d="M801 -4l-6 2l-7 8l9 17l-2 6l-9 -4l-4 8l-8 -15l-6 2l-6 -10v-8l8 -2l-27 -8l-24 4l-72 12l-26 12l-13 56l-4 67l-14 64l-10 65l-7 66l-20 43l-4 31l-6 4l8 10l-6 10l2 15l-6 63l-15 66l-8 12l-24 20l-56 -16l-6 -14l-12 -62l-4 -67l-13 -66l-10 -65l-6 -68l-8 -66 l-14 -61l-3 -66l-18 -59l-8 -2l-66 -4l-67 -2l-60 8l-16 8l-4 6l-2 17l-2 65l12 64l12 63l15 31l-2 63l8 66l12 64l4 65l-4 66l6 32l13 66l6 65l8 33l4 64l12 30l6 31l2 66l17 28l-10 -4l-2 8l6 9l2 51l10 33v65l2 60l12 63l11 70l2 65l8 31l24 27l31 4l6 6l4 -6l23 2h65 l66 -2h68h63l61 -4l-4 -9l15 -6l28 15h11l4 -7l4 7l47 -13l18 -18l56 -33l18 -20l23 -11l2 -8l18 -14l14 -45l-2 -6l9 -15l6 -47l8 -24l2 -27l-4 -33l-4 -65l-2 -62l-8 -33l-9 -65l-14 -68l-16 -28l-21 -62l-45 -45l-45 -51l-55 -31l-8 -43v-31l8 -16l4 -31l6 -6l10 -45 l-8 -22l6 -25h6l6 -43l7 -68l16 -59l-25 -22l-4 -9l2 -8h11l16 6l6 -2l2 -41l12 -63v-15l9 -14l-4 -45l12 -12l-6 -19l-23 -18zM707 920v4l10 45l10 65l4 68l-2 72l-18 57l-15 26l-39 5l-65 12l-33 -2l-31 -15h-8l-2 -18l-14 -31l-6 -32l-6 -68l-13 -61l2 -64l-14 -70 l-8 -57l10 -35l6 -2l2 -12l23 2l2 -12l63 6l68 10l51 33l2 12l14 31zM770 860h6l15 -6l12 -37h6l37 33l4 -2l6 4l-4 2l6 12l-8 13l-2 16l31 49l-9 10l4 13l-10 2l-2 4l4 14l-30 -8l-11 -10l6 -4l-8 -17l11 -6l2 -8l26 4l4 -8h-8l-4 -21l-47 -24l4 43l8 33l-2 8l-6 -8l-35 -3 l-12 -26l-4 -31l8 -10zM768 1331v4l16 49l-39 17l-36 2l8 -23l-2 -10l12 -4l6 -6l-8 -21l4 -14l23 8zM342 772h4l8 8l4 29l-4 2l-14 -14l6 -4l-16 -19l-15 -24l-2 -17l27 19l6 14zM469 1057l2 6l2 22h-4l-4 15h-19l-2 -31l-8 -2l-6 -16zM905 1364l-4 -4l-12 -39l12 2l12 8 l9 15h-7zM690 1423h-4l-14 11l-4 -7l14 -14zM877 1008l-3 4l-4 16l-6 4l-4 -6l2 -14h8l2 -8zM838 1106h-4l-15 -6l-2 -8l19 6zM776 109l-4 -5l-2 -12l10 -8zM279 821l2 -2l4 2l-9 10l-8 -14l6 -6zM856 963l4 -2l2 -13l-6 4v11z" />
<glyph unicode="S" horiz-adv-x="884" d="M856 481v-4l2 -59l-2 -68l-10 -65l-12 -29l-19 -49l2 -6l-6 -13l-2 -16l-29 -29l-41 -49l-2 4l-4 -2v-14l-8 -4l-2 -8l-4 -2l-55 -31l-60 -23l-55 -22l-29 -6l-69 -2l-72 2l-2 6l-8 -4l-19 4l-14 8l-31 4l-4 6h-14l-29 13l-14 14l2 8l6 2l8 -4l14 -16l5 39h-35l-6 -7 l4 -16l-2 -8l-17 12h-8l-12 21h-8l6 6l-8 6l-35 53l-17 45l-2 33l-10 10l-4 58l2 30l6 70v65l19 37l26 17l33 8l35 2l69 -4l31 -8l23 -15v-6l-9 -61l-8 -70l4 -63l4 -13l25 -51h8v-10l43 -19h66l30 11l29 16l49 45v4l17 64l-6 26l4 17l-4 6l2 4l12 -4v49l12 8l19 2v10l-9 15 l-12 10l-14 -14l-6 -49l-4 2l-13 30l4 6l-6 7l-8 32l-6 7l-10 28h-9l-6 23l-20 10l-17 20l-4 15l-14 10l-2 23l-23 20l-16 6v4l-12 11v10l-10 2l-11 8l-8 14l-39 25v29l-12 -9l-14 17v6l-11 6l-16 25v8l-16 26l-39 52l-25 55l2 29h-8v18l-8 2l4 8l14 8l4 9l-4 8l-24 -4v28 l-9 64l2 24h-8l17 60l16 63l8 4l15 29l6 2l14 39l23 21l12 30l53 37l12 23l27 12l8 14l37 11l31 12l53 10l68 4h71l58 -12l14 4l6 -6l29 -12l16 -19l12 -2l11 -12l16 -8l4 -13l10 -12l37 -51l21 -62l-4 -34l4 -35l8 -31l-2 -6l-8 -68l-6 -67l-9 -29l-43 -14l-67 -6l-33 4 l-63 10l-3 6v61l9 74l6 -2v8l-17 66l-6 6l6 4l-16 23l-27 18l-32 8l-33 2l-33 -8l-27 -14l-6 -12l-14 -11l-25 -43l-10 -28l-10 -13l-2 -47l16 -67l13 -13v-10l14 -18l4 -25l12 -12v-12l37 -35l6 -15l37 -30l17 -29l12 -10v-13l16 -18l2 -8l25 -4l41 -51l12 -3v-16l14 -8 l5 -16l34 -43l11 -19h-13l-4 14l-16 -18l-2 -12l-13 -4l-4 -7l17 5l4 -3v-10l6 2v23l12 -8l17 8l8 -8l16 -45l13 -11l2 -20l12 -66zM264 143l4 -2l29 2v7l12 12l-4 6l2 6l8 4v6l-6 4l-2 9l4 10l-4 4h-16l-19 59l2 19l-8 10l-6 -4l-47 -45l8 -12l-8 -52l12 2l19 -10h8l4 4v19 l6 6l12 -2l-6 -21v-32zM387 915h4l31 7l-6 28h-21l2 15l-6 12h-8l-8 27l6 22l-2 16l-14 7l-19 -25v-10l-16 -10l4 -5l-6 -14h22l2 -12l13 -12v-21l14 -4zM213 299l6 2l27 12h18l6 17l-16 10l-4 16l-21 25l-16 6l-16 -29l12 -10l-4 -4l-2 -16zM457 856l6 2l10 25l12 4l-2 12 l-6 6l-6 17l-37 -7l-6 -14h10l6 -4l-6 -6v-17l8 -30l-8 -15l4 -6l13 15zM348 74l2 4l10 20l-26 17l-6 14l8 18l-8 3l-11 12h-4l-2 -21l-8 -26l8 -4l2 -7l-6 -10l4 -4h21l8 -12zM514 690l2 4l14 21l13 30l-8 5l-29 -15l2 -35zM569 98v4l2 13l-16 2v8l-4 4l-8 -2l-4 -6l-2 -17 l18 -8zM717 584l4 4l6 8v6l10 14l-41 -8l2 -12zM395 35l4 -2l11 -6l20 8l-16 31l2 -11zM952 1337h-6l-8 2l-6 13v18l16 -8l6 -14zM254 270l2 -2l8 -10v-22l-10 6l-8 14zM465 143h4l25 4l4 7l-4 4l2 4l-19 -2zM276 1126l3 2l12 33l-12 -4l-11 -12l2 -15zM641 475l2 4l4 6 l-4 15h-14v-15zM315 41v4l2 21l-30 -21l-6 4l2 -8l22 8zM266 1087h8h2l-6 -10h11l-5 27l-6 12zM549 768l2 6l-2 10l-6 4l-2 -20h8zM285 1028v2l6 8v9l-4 2l-8 -17zM815 377l4 2l17 8l-17 -2z" />
<glyph unicode="T" horiz-adv-x="841" d="M950 1292l-2 -4l-24 -22l-56 -11l-37 2l-67 5v14l-10 12l-35 19l2 -13l8 -14l6 -2l15 8l2 -8l-7 -14l-45 -15l-4 -16l-10 4l-6 -2l8 -31l-8 10h-14l4 11l-11 10l-12 -2l-6 20l6 15l-10 -2l-4 -25l-4 -4l10 -25l14 -12l11 8l-9 -16l-6 4l-31 -14v-13l27 -4l-2 -18l-8 -62 l10 -2l8 23h9v-4v-60l-7 -65l-12 -57l-4 -62l-8 -70l-4 -61l-6 -70l-11 -30v-64l-6 -26l-12 -72l-4 6l-33 8v-10l10 -18l17 4l6 6l4 -10l-2 -11l-6 -4l4 -10l-13 -68v-24l-12 -64l-16 -2l-4 6l2 5l-4 -5v-24l-6 -8l-3 -19l5 -8l10 14l6 2l2 -6l4 4l-14 15l8 16l8 -4l2 -14 l-4 -37l4 -64l-8 -32l-14 -31l-9 -64l-45 -8l-6 -6l-4 4l-8 -6l-55 -10l-35 2l-64 16v4l-8 4l2 11h-10v22l-6 -2v4l12 66l8 67l6 68l11 63l12 58l4 69l4 64l10 65l9 68l8 29l2 24l4 64l8 63l8 31l4 35l5 57l8 68l8 69l6 -2v17l16 4l-6 10l2 4h-8l-4 -14l-8 8l12 22v9l8 63 l-8 21l12 49l-4 8l2 55l9 -2l24 -20l15 2l4 4l-2 26l8 9h6l6 -11l8 -4l6 8l-6 3l-2 22l-6 16l-16 -14l-13 21h-24l-4 -5l-15 5v16l-6 2l-16 -4l-8 14l-31 -2l-64 2l7 -39l24 4l14 -4l7 4l32 -14l7 4l10 -37l8 -2l-16 -26l-11 -11l-16 5l-4 -23l2 -6l6 -2l-10 -4h-68l-65 -11 l-31 13l-14 18l-9 4v4l3 66l6 33l18 61l19 14l26 7h74l-4 -17l10 -6l10 6l-6 23l33 -6l67 -4l-8 -7l-2 -8l19 -14l12 29h6l19 -13l6 2l8 11l4 -5v-10l31 19l4 -2l-10 -7l2 -4l14 4l6 -2l2 -6l10 -2v-12l-10 -16l10 4l-4 -13l-61 -2l-15 -8l-2 -6l19 -2l10 -6l-2 -13l14 5 l2 16h11l10 -6l16 14h11l6 41l-6 10l-9 4l11 7l8 -5l30 -4l64 11l63 -4v-39l5 2l24 22h4l-6 4l-2 11l16 -3v-6l9 -2v6l53 11l35 -2h69l19 -15v-30l-13 -66l-10 4l-16 -2l-10 -12l4 -8l-4 -15l12 -2l-12 -14l26 8v10l-14 17v8l6 2l12 -4l4 -15l-8 -40h-8zM750 1356l6 6l8 10 l-10 12l-2 9l6 16v10h-17l-8 -10l-16 -4l-33 -23l-25 -6l-4 -16l7 -10h-11l-30 -19v-49l-7 -16l9 -4l10 24l20 23l27 16l-4 21l10 2l8 12l6 -4l-10 -15v-10l17 2l32 13zM901 1296l4 2l8 2l2 31l-8 15v30l11 27l8 10l-11 2l-8 -10h-8v20l10 19l-10 10l-2 -8l-8 -2l2 -4 l-10 -33l8 -12l-15 -15l-12 -32l-10 -13h8v-10l-24 -41l4 -6v8l18 10l4 -4l-8 -14l-12 -10h12l12 -6l11 2l8 10l14 6zM563 1335v-2l-16 -4l-2 -8h14l21 -10l10 18l-2 31l4 14l6 6l2 -4l8 -2l-14 23l-12 2l-7 -4h9v-21h-21l-12 -4l4 -2v-22l6 -3zM524 383l-2 -6l-6 -6l-22 6 v-15l-25 -59l8 -12l15 -6l12 28l2 35l18 4l4 27zM547 1169v5l8 20l-16 8l-27 -4l-4 -10l-12 -8l12 -2v-9l20 -2l-6 2h25zM520 1116v6l12 13l-14 8l-18 2l4 -21l-4 -4l-8 6l-5 -2l-2 -32l15 8l2 8l10 12zM645 1135v4l4 16l21 10v-22l-6 -33l-9 4l-4 16zM561 1247l-4 -2l-4 -2 l2 -14l12 -10v57l-10 10l-8 -12zM295 1341v5l-19 12l-4 8h-4l-4 -6l4 -12zM545 119l-4 -2l-25 -8l2 -7l12 -10l9 6l-4 4zM471 6l2 4l10 10l2 19l-10 -2l-4 -8l2 -15l-6 -6zM561 1204v-4l4 -14l19 -2l-4 12zM434 10h6l11 10l-5 11l5 2l-9 2l-8 -17v-8zM287 1286v4l2 13h-15 v-11zM889 1317l6 -2v-12l-4 -7h-10v-6zM397 1262v4l17 2l6 -6l-2 -5zM449 1081v-4l4 -10h8l2 4l-6 8zM735 1356l-2 -4l-10 -4l-4 2v10zM784 1434l-2 -4l11 -13l4 6z" />
<glyph unicode="U" horiz-adv-x="978" d="M934 618l-2 -2l-17 -61l3 -29l-9 -26l4 -4l-6 -7l-12 -49l-2 -61l-6 -72l-8 -33l-19 -61l4 -6h-10l4 -14l-14 -19v-8l-15 -27h-10l-4 -14h-10l2 -6l-6 -10l-15 -9l-2 -14l-26 -20l-8 14l-9 -4v-25l-12 -4l-2 -4l-31 -16l-59 -27l-55 -14l-7 -6l-20 -7h-31h-69l6 19h-10 l-9 -12l-8 -3l2 11l-4 14l-8 -10l-16 -2l-27 -17l-8 9l-17 -5l-2 9l-8 2l-2 8l-16 4l-13 12l-18 8l2 7l-18 -7l-29 23l-16 6l-37 45l2 6l-8 19l2 6l-19 25l-10 4v14h-6l2 6l-6 8l8 13l-6 24l4 49l-6 70l6 31l8 61v68l4 67l12 64l4 63l15 31l2 18l-6 15l10 22l-4 25l6 16 l14 62l-4 14v33l15 65l-5 60l5 28l14 31l4 57l14 64l-4 65l6 17l9 -2v10l-11 10l-2 8l6 35l13 29l4 33l8 16l14 10l9 15l61 -2h61l68 2l8 -4l8 -15l-2 -6h11l2 -6l-13 -64l-2 -32l4 -4l-2 -5l-2 5l-4 -15l-6 -61l-8 -68l-29 -47l6 -18l6 -4l5 2l2 -4l-9 -50l2 -28l-4 -33 l-14 -68l-8 -65l-6 -64l-11 -55l-10 -68l-6 -71l-2 -66l-18 -61l-7 -66l-8 -28l-6 -2v-9l12 -12l-6 -55l-8 -13h8l2 -53l6 -6l5 -24l8 -5l4 -14l8 -6l41 -14l35 -9l31 5l65 26l14 19l15 32l14 6l2 43l12 62l9 61l6 66l6 67l8 68l8 68l6 6l17 4l6 14l-4 6l-14 9l-5 6l5 16 l8 64l6 65l20 -4l15 4l6 6l-2 4h-23v7l-10 12v22l6 66l8 67l9 64l10 63l12 66l12 -6l13 -19l8 25l-2 8l-15 6l23 31l2 8l-16 -6l-7 10l-10 -2v8l19 5l16 -5l-6 21l2 10l-4 2l-14 -8l-5 6l-10 -10v10l8 12l23 -4v15l8 30l-6 15l4 4l10 -4v12l-16 8l-2 6l10 11l10 2l4 -4 l48 -7l10 -10l14 10l23 2l28 11h31v-15l6 -8l19 8l14 -2l2 -14v-61l-12 -68l-11 -68l-12 2l-4 5l-2 14l-8 -23l2 -34l8 -3l10 -10l-8 -28l-10 -11l10 -26v-37l-12 -64l-33 6v-14l23 -18l2 -6l-4 -33l-5 -62l-4 -65l-6 -66l-8 -63l-8 -66zM834 481l4 2l14 -6v17l-6 -2l-10 12 l-11 2l-6 -8l-31 -13l3 33l4 6v-8h8l12 8l-35 23l-2 8h-10l-12 8h-15l27 17v16l14 10l15 2l8 15l10 -11l2 15l-26 16l-13 21l-6 4l-8 -19l-6 -4l-6 2v-8l8 -10l-2 -11h-21l-2 -6l4 -2l9 4l4 -6l-19 -28l-4 -64l12 -10l2 -17l15 -10l2 -8l-10 -12l2 -6h43l10 10l16 29h10 l-4 -11v-20l4 2l11 -6l4 4l-12 10v10zM410 182l2 2l16 23h-6l-6 12l-6 2l-21 -8l-24 4l2 -10l-5 -4l-4 2l-6 24l-18 2l6 11l-21 4v49l-12 10l10 12l-6 23l-14 -39l10 -10l-2 -4l-29 -51v-13l-20 -26l2 -9l33 15l8 -6l6 -23l-12 -51l4 -12h14l11 14l-15 8l6 25l15 30l-15 9 l13 22l10 2l16 -43l25 4l4 6l-2 13l6 6l18 -23zM668 172h4l33 -4l6 -4l14 33l-4 4l-19 2l-4 4v10l4 6l15 8l4 7l-12 26l-19 2l-4 -12l-20 -61l-19 -3l-2 -8l12 2zM776 383l2 4l4 8l-2 23l-35 -17v-8l-20 -6l-6 -12l2 -6l-4 -4l-6 4l-4 -4h4l-2 -19l10 -8l10 10h-8v21l10 4 l10 -8h19l-2 4l4 6zM453 20h6h10l-6 13v18l-33 15l-2 -7l4 -4h8l2 -4l-6 -16l-10 -8l6 -4l-6 -17l16 -4zM852 520l2 2l2 8l12 64l-12 4l-6 -2l-12 -41l18 -10l-10 -13v-8zM219 383h6l4 -2l15 4l10 23l-33 2l-6 -17zM262 373l4 2l15 4l12 10l2 8l-39 6l-2 -10zM815 819h-4 l-8 -2l-2 -8l12 -6l27 41l-21 4l-4 -12v-17zM856 780l-4 -2l-4 4v17h-25l-2 -19l4 -6l25 2zM936 1204l-2 2l-10 6l-19 2l-16 -4l-12 -10l6 -2l16 12l4 -8l19 -4zM979 1360v-2l-2 -8l4 -23h10l-2 14l8 11l15 8l4 6h-10l-15 -8zM813 745l-4 -2l-21 -14l-2 -8l11 -21v11l18 28z M281 55l4 -2l26 -2v21l-6 4zM311 1401l4 2l-12 -17l19 11l2 18l-7 4l-8 -12l-24 -6h26zM694 104l6 2l15 -8l4 6l-6 -2l-4 17h-4v-4h-17l-2 -6l6 -15l6 6h-4v4zM786 739v6v5l-10 10l-10 -21h20zM279 1337l2 4h8l2 25h-4l-13 -18v-9zM780 1401h-4l2 24l15 -6l-2 -8zM723 104 l-2 -6l2 -12l12 -6l-2 14zM772 891v-4l-4 -19l16 11v8zM356 1411l-4 -4l-2 -12l6 -4l6 16zM430 100v4l-2 9l-6 4l-6 -2h4v-13l4 -4zM309 1352l2 4l15 16l-13 -4l-8 -14zM276 129l3 4l4 6l-9 4l-8 -10z" />
<glyph unicode="V" horiz-adv-x="901" d="M1004 1479l2 -4l12 -11l-2 -12l-15 -66l-20 -61l-20 -63l-19 -62l-20 -63l-17 -64l-10 -12l-12 -55l-23 -62l-31 -4l-4 -20l2 -9h-8l-4 15l-10 -2l-10 -11l-25 -4l-29 -12l13 -6v-4l10 2l10 8l31 -8l10 2l-4 -10l10 -27l17 -2l-7 -10l-14 -64l-14 -10l-15 -55l-18 -66 l-12 -31l-21 -63l-10 10l-2 10l-16 -18l-2 -12l10 -19l4 4l-6 13l8 8l4 -10l-6 -33l-12 -29l-9 -2l-6 -26l-12 -29l-2 -35l-6 -16l-4 -29l-8 -14l-15 4l4 -19l-10 -2v25l-8 28l-6 -6l-6 -22l-7 -4l7 -15l10 -2l-13 -10l-4 -8l7 -4l14 8l4 -4l14 4l-12 -43l-14 -59l-13 -64 h-4l-10 -10h-4l-16 -57l-15 -29l-20 -21l-6 17l6 16l8 -8l6 8l-2 12l-6 2l-14 -6l-13 -12v-10l15 -21v-8l-7 2l-59 23l-4 -11l16 -18l-12 -6h-41l-72 4l-28 8l-15 41v70l-6 6v10l-2 66l-6 30l8 33v64l13 8l4 8l-2 4l-29 -4l-4 39l10 16v27h21l-11 10l9 8l18 -6l4 8l-6 7 l-43 -7l-10 5l4 10l2 35l6 10l-12 37l-4 35l20 26l-2 6l-23 2l-2 66l-18 57l8 56l-6 63l-2 64l-6 67l-4 64l-4 8l32 30l9 -4l18 -26l4 2v37h-12v6l-6 4h-11l-8 -14l-12 8l-18 -4l2 49l-17 35l2 18l-2 64l6 28v66l-6 4l-2 45l-4 6l-2 21l4 36l27 19l67 -6l11 4v4l43 -10h65 l14 -15h9l2 -51l8 -33l2 -63l4 -4l-8 -17v-32l6 -64l-4 -63l10 -11v-10l-8 -20l4 -21v2l2 -12l-4 -70l8 -30l-4 -19l2 -31l2 -63l4 -4l-4 -6l4 -31l-8 -23l6 -10l2 -16l4 -68l4 -65l-8 -31l4 -12l9 -2l8 -45l14 6l23 24l14 31v33l6 12l6 29l23 69l6 31l-4 4h35l18 4l2 6 l-4 7l8 14l-10 8l2 17l-10 4v20l-10 14l20 62l10 65l17 29l18 59l2 19l-8 14l12 10l-2 15l6 16l2 31l13 29l18 28l2 17l21 57l6 33l16 16l8 31l17 63l35 13l30 4l68 -4h72zM438 647l-2 -4v-8l15 4l20 23v14l-10 -8l-27 8l-4 -4l-16 28l-2 -4l-15 -6l-6 15l6 30l-2 10h15 l-4 43h-21l-2 -8l4 -14l-2 -16l-12 -11l-8 -14l14 4l6 -41l-6 -12l-8 -4l4 -6l-4 -4l-21 -3l-6 -12l25 4l20 -14l17 -4v-8l6 2l-2 8l-11 10l-16 6v6h12l19 15h10v-19l-6 -12zM758 657h-4h-41l-2 7l-9 2l-4 6l4 4h-6l-8 -10l-20 4l-4 -8l10 -19l2 -16l-12 -11l-11 31l-4 -26 l-12 -21l2 -12l8 10l15 -8l14 6l12 -8l4 8l29 14l10 13h-12l-21 -11l-10 15l2 10l27 4l4 -10l12 -4l19 2l6 4v24zM778 950l2 2l4 2l15 39l-27 17h-10l-29 28l-6 -14l8 -20l-18 -15l4 -10l10 -10l-4 -17l-20 -16h14l33 12v6zM653 539h-4l-10 6l2 4l14 -4l4 4l-2 16l-8 13 l-2 -5l-8 5l-4 -7l-17 -2l-4 -41h-10l-12 -18h8l18 14l23 -4l2 8zM565 207l2 -4l15 -4l12 12l-6 -2l-13 4l-10 10l-8 2l2 -12l-4 -2l-4 10l2 4l14 6v11l6 14l-8 -2l-35 -47l2 -21h5l4 -8l6 4l-4 2l16 9v8zM367 989v-4l2 -8l-7 -23l46 7l-11 43l-12 -13zM330 936l-2 -4 l-4 -14l14 -35l6 16l14 16l-18 21h-10zM625 584l-2 2l-9 2l-24 -10l6 -17l14 -8v6zM319 803h5h22l4 6l-10 14h-10zM541 129l2 4l6 -4l6 4v12l-18 2v-14zM365 1014l2 4l-2 8l-17 2v-14h17zM444 788v-6v-16l9 -2v24h-9zM408 729l4 -2l-6 -6l10 -6h10l-4 16l-8 2zM328 872 l-4 -2l-7 -14l9 -14l-2 4l8 22zM758 975v4l4 10h10v-8l4 -2l-6 -8zM438 133h4l-2 -16l4 -4l7 2l-7 22zM590 725h4l-6 -10l4 -4l2 10l20 8h-24v-4zM643 739l4 4l2 13l-6 4v-21z" />
<glyph unicode="W" horiz-adv-x="1306" d="M1423 1460v-4l-8 -59l-18 -64l-21 -59l-18 -64l-19 -63l-16 -66l-18 -63l-23 -62l-12 -63l-21 -59l-20 -15l-4 -16l14 -4v-25l-16 -29l-23 -22l2 -4l6 4l11 -14l-19 -64l-18 -24l2 -5l8 -2l-12 -12l-6 -27l2 -14l-23 -51l-8 -51l-8 -6l6 -4l-13 -21l-6 -33l-16 -24 l-12 -49l4 -5l-13 5l-4 -7l-4 -24l-6 -8l8 -15l4 4l2 -16l-26 -55l-17 -66l-12 -67l-10 -33l-14 -25l-27 -14l-66 -2l11 35l-11 -2l-8 -13l-6 2v-16l4 -2l-2 -4l-45 6l-31 -6l-2 10l-22 10l-4 56l-6 71l4 60l6 -2l2 6l-12 10l-5 14l3 15l16 2l8 6l-4 6h-18l-7 4v27l-4 4 l4 16l-6 31l6 49l-8 31l4 47l-4 33l8 32l-8 9v24h-8l2 31l-4 63l6 23l-8 63l-2 68l-10 27l-17 -9l-18 -24l-12 -31l-2 -35l-5 -4l-6 2l-8 13l-16 -11l8 -12l-10 -2l4 -4h24l-20 -49l4 -15l-6 -6l2 -14l-6 -14l4 -15l-4 -4l-6 4l-5 -35l-16 -10v-24l-12 -33l4 -10l-12 -19 l-2 -16l-19 -60l-22 -63v-14l-9 -31l2 -19l-10 -8l-18 -24v-11l8 -10l-14 -22l-9 -2l5 -23l-15 -65l-10 -2l-18 -23h14l4 14h8l-6 -10v-16l-4 -6l-8 -2l-6 -31l-11 -27l-18 -4l-72 -10l-33 2l-26 12l-8 -2l-29 6l-18 45l8 11l6 24l-2 6l-10 -2l-7 15l7 51l-7 65l-10 11v8 l2 63l-8 66l2 14l6 10l-6 33l2 62l-6 6l-2 49l-4 6l4 12l14 19l-6 12l-10 2l2 14l-10 56l4 32l8 -2l14 -12l4 2l-4 19l4 4h-24v43l-8 10l2 27l-4 65l-2 64l6 6l-2 16l-4 64v67l-9 4l-2 25v65l-8 31v29l6 33l-2 47l-6 6l2 53l-8 6l4 17l4 65l14 12l15 7l4 6l18 -6l25 4l31 -4 l61 4l37 -2l14 -9l4 -6v-16l9 -29l-2 -65l4 -66l-7 -24l7 -64l-4 -29l-5 -63l11 -6v-41l-21 -10l6 -13l17 -6l-11 -20l9 -11l2 -45l-4 -12l-2 -35l4 -6l-9 -31l7 -65l-31 -4l-2 4l4 14l-2 6l-19 -20l-4 -17l2 -32l19 10l18 -2l13 -8l-2 -31l4 -16l-4 -33l6 -31l10 -10l-4 -4 l-6 8h-4l-11 -10l6 -4l-6 -7v-6l13 -20l-2 -23l6 -4l-6 -4l6 -4l22 23l4 -15l-4 -18l25 8l-2 35l4 6l-10 4h-19l-6 4l2 10l16 15l11 30l20 62l17 31l8 28l14 68l16 63l17 64l18 61l6 6l9 52l10 32l24 60l13 69l12 29l10 55h8l13 52l-4 2l14 43l-2 6l22 33l41 6h68l64 -6 l14 -23l4 -37l-2 -33h-4l2 -8l-4 -6l4 -10l-14 -19l16 -6v-20v-68l8 -31l-2 -57v-67l4 -64l-6 -6l4 -6l-6 -47l2 -64l4 -2l12 -37l-4 -8l-2 -53l8 -2v-4l-4 -64l4 -16l-2 -33h2v-49l11 -25h8l22 25l4 37l17 28l8 31l-4 25l6 6l12 57l4 6l19 64l14 63l15 62l12 30v23l18 61 l11 68h8l6 31h14l-8 10l2 12l10 17l6 57l7 16v21l16 70l16 28l25 17l29 6l61 2l74 -6zM1292 1266l2 4l13 49h-9l-4 -14h-4l-12 38l2 19l-10 4l2 16l-10 4l2 29l-7 12l-14 -26l2 -8l-2 4h-8l-6 -11l4 -4l6 7l8 -3l8 -14l-4 -4l-2 -16l13 -19l-21 -28h-8l-6 -17l-19 -16v-12 l2 8l9 2l-9 -29l-6 -6l2 12l-14 4l-4 -4l6 -14l-8 -8l-2 -8l6 -7v-49l-8 -33l4 -6l2 17h24v28l9 4l20 -4l-4 -10l10 2l8 12h9l10 15v22l6 9l-14 10l-9 12l-8 4l-10 -14l-6 2l-2 10l6 4l12 21l19 4l4 26l8 11l8 2l-2 -11zM809 1280h4l39 12l16 -2v8l-20 15l4 10l-16 6l-31 -8 l-17 2l7 45l22 8l10 10l-24 -4l-2 15l-10 10l-21 -23l-10 -34l-4 -31l14 -4l4 -6l-6 -15l29 -2l14 6l2 -4zM1174 1016l4 4l8 2l24 -21l7 7l-5 22l2 10l-10 -4l-4 13l-8 6l-6 -8l-15 4l-4 -23zM279 1065l6 2l14 2l-4 2l6 8l-12 15v10l16 2l14 8v23l9 16l-2 14l-9 -16l-2 -14 l-6 -11l-18 -4v-10l-4 -6l-13 -6l7 -25zM344 1196l2 6l-4 27l-12 6l-17 -2l-6 -6l10 -10l2 -15zM801 1104l2 6l-8 16l-23 -2l-12 -12l-2 -12zM842 1026v4l4 8l16 2l-4 19l2 10l-4 2l-31 -16v-15zM741 1280l2 2l15 18l-8 15l-2 -10l-15 -7l4 -4l-14 -6l-6 -8l4 -4l-6 -14 l4 -2zM1196 971h4l23 12l10 -2v10l-12 10l-11 -10l-14 4l-4 -39l4 -4h8l2 6l-12 7zM950 37h6l11 4l4 12l-2 27l-8 2v-35l-9 -2zM1188 1104h-4l-15 8l-4 -4l4 -6l-2 -17l4 -6h11l6 15v10zM924 57h2l8 -4l4 8l-8 5l-8 10h-9l-10 -29zM385 92v6l-2 15l-6 4l-8 -6l-4 -21l4 -4 l8 6h8zM842 1188h4l8 2l4 8l-4 16l-8 3zM395 8v4v17h-8l-6 -11v-10h14zM483 61l-2 2l4 13l-14 6v-19l4 -4zM291 1051h6l14 -4l6 8l-8 10l-4 -8zM1176 1196h-5l-14 6l-2 -18l4 -2zM1217 1217l-3 -3l-6 -16l-8 -2l2 21h15zM1214 1075l5 -2h10l10 10zM346 1245l-2 -4v-4l12 -2 l4 6zM1264 1227l-2 -4l-7 -6h-8l10 24zM356 692l2 4l2 6l-6 7l-8 -11zM354 1163l4 4l9 13l-15 -11l6 -6h-4z" />
<glyph unicode="X" horiz-adv-x="860" d="M811 70v-4l-2 -43l-10 -13l-15 4l-34 -4l-29 -10l-70 -2l-30 4l-21 12l-29 39l-4 35h-14l4 8l-4 8l2 19l4 6v16l-6 17l-2 49l-6 4l2 8l-8 10l-4 15l-9 65l-10 66l-14 8l2 27l-8 28l2 19l-13 14l-16 -2l-6 -8l-6 -25l-21 -20l-20 -29l-13 -29l-8 -34l-14 -29l-14 -10 l-11 -37l-8 -6l2 -10h-4v-7h-10l-4 -4l4 -4l2 -12l-19 -53l-12 -13l-2 -16l-22 -45l-7 -2l-2 -6h5l-5 -15l-16 -28l-37 -31h-33h-63h-66l2 10l-18 13l14 2l-18 6l-2 8l10 22v15l12 12l-2 4l15 19l2 8l-6 4l14 6l8 33l14 20l13 31l18 29l12 8l17 41l20 61l6 4l5 31l18 29 l31 55l10 29l8 4l-8 14l2 6h8v25l4 -2l2 -8l4 2l7 22l14 4v23l24 57l15 10l10 33l14 10l4 19h5l8 61l12 23l-4 18v56l-16 -7l-9 -14l-12 41l-12 68l-15 28l-2 33l-8 31l8 22l-2 17l-12 28l-12 11l-4 28l-13 66l-18 61l-8 2v8l-10 66l2 6l14 8v11l-21 6l-4 24l-6 13v18l-4 6 l10 8l17 7l8 -5l16 11l37 4l15 10l40 -16l52 2l30 -6l2 -11l11 -10l-4 -8h14l6 -47l-4 -13l-6 -4l2 -6l14 -63l8 -4l7 -39v-35l8 -31l12 -65l8 -62l10 -24l11 -13l16 6l41 52l8 34l6 5l9 14h8l-2 10l20 64h10l11 -9h8l-8 -20l2 -4h12l-4 -2l-2 -27l-4 -6h-8l2 -18l-9 4 l-4 -54l9 -20l28 8l2 -4l-8 -24l12 4v-13l9 2l6 9l-2 8h-11l5 4h8l-4 22l4 9l-15 10l4 8l-8 31l4 4l13 -17l8 5v6l-14 16l18 25l-6 10l-17 8l-6 14l13 31l-5 6l-16 -6l4 14l-6 9l-4 -4l-18 24l10 23l8 2l4 30l10 15l6 20l17 8l4 21l12 -4l25 4l16 -6l27 14v4l-17 -6l-8 12 l6 15l-34 -8l-15 4l6 8l9 31l12 2l67 8l64 -8l31 8l12 -6l31 6l6 -21l2 -30l-8 -33l-9 -2l-20 -29l-10 -2l-2 -6l10 -4l-12 -27l-33 -57l-31 -58l-10 -2l-8 9l-11 2l-8 -11l6 -14h7l10 10l6 -16l-4 -14l-27 -62l-14 -10v-16l-12 -13l-2 -12l-15 -29l-18 -4l-13 -47l-10 -12 l-8 -33l-10 -10l-8 -33l-15 -25l-4 -34l-10 -2l4 -11l-27 -57v-29l11 -14l-2 -8l10 -60l-8 -2l12 -10l12 -67l19 -62v-65l10 -13l8 -2l4 -39l17 -61l10 -2l-2 -15h10l-2 -16h10l2 -55l-8 -2l6 -21l-2 -8l-8 -2l16 -14l2 -27l7 -14l8 -2l-6 -15h8l-6 -14l8 -45l-4 -14h12z M625 989l-2 -2l-13 -22l-4 -19v-33l-14 -24v-19l14 2l15 -6v15l10 28h8l14 17l-10 8l14 22v9l-22 22zM737 1292h4h45l2 8l15 11l-8 6l10 14l2 29l8 14l-6 2l-21 -10l-4 4l4 6l19 4l-2 13l-17 2v-6l-28 -48v-10l-10 -2l4 -12l-13 -10zM889 1374l-2 4l-6 13l-11 -2l-26 -33 l-4 -15l4 -14l8 -6l35 6l6 8l-6 6l-2 15l12 2l14 12h11l2 19zM408 1159l-5 2l5 15l-9 14v33l-34 -4v-13l14 4l6 -2l-4 -18l8 -10l-27 -33v-6l7 -6l2 4l30 10zM334 1253l2 4l16 5h-14l-6 12l4 18l-17 6l-8 11l-12 6l-12 -8l-8 -21l6 -4l2 10l6 4l37 -24zM846 1341l2 5l18 18 l17 6l-6 -12l-7 -4l-4 -13l2 -10l-12 2zM678 176v-4l12 -18l8 -2l17 6l-29 22zM815 1423v-4l-2 -20l14 2l17 22h-29zM414 1135v-7l2 -6l14 -4l12 12l-4 5l2 10l-12 -2zM285 1434v6l8 18h-33l-4 -4zM748 1106l2 2l6 6l6 16l-4 9l-10 2l-5 -31zM651 1028h-6l-10 -2l-8 -14v-8 l14 -5l8 9l-8 2l-2 8zM766 1190l2 4l8 14h-24l-2 -6l14 -4zM659 264l3 2l8 13h-8v-7l-19 -12v-10l4 -2zM324 1341h-5l-8 9h-8l-2 -13l4 -6l6 4l6 -2zM846 1468l-2 -4l4 -4l18 2l15 6h-35zM502 1130v5l2 14h-15v-16zM694 123l4 -2l9 -2l14 8l-4 2v12l-4 2l-2 -16h-15z M356 631h4l5 -2l6 -15l8 -2l-4 17l-13 8zM397 852h4h17l-4 12l-15 -2zM780 1253l4 -2l11 -8l6 8l-2 6zM756 1219h4h10l2 14h-8zM524 362h6l2 5l-6 6v16l-4 -2l-2 -10zM328 518l2 -4l2 -20l6 -5l-2 17zM657 930v-4l-2 -6l4 -2l9 14l-4 2zM776 1067h4l2 4l-12 10l-2 -14h8z M340 582l2 -2l4 -2l8 6l2 6l-4 2l-2 -4l-8 -2zM610 1022l-2 -4l-8 -10l18 6zM371 1409l4 -2l8 -2l-2 10l-6 4z" />
<glyph unicode="Y" horiz-adv-x="907" d="M422 14l-2 -2l-21 -12l-45 4l-26 10l4 47l4 64l4 68l8 69l8 70l11 22l-5 29l5 31l12 63l14 66l-6 49l4 16l-12 60l-2 59l-8 23l-9 4l-2 24l-10 4l-2 25l-8 14l8 17l-6 12l-8 2l4 20l-6 23l4 6l-10 33l6 14l-15 51l-6 9h-4l4 6l-8 24v23l-10 6l6 14l-6 6l-6 21l-17 66 l2 16l13 -12l4 -13l-6 -10l8 -2l30 4l9 14l6 5l4 -2l2 10l-18 6v8l24 6l4 -6v-29l-16 -2l-2 -8l6 -24h10v-9h4l-2 -4l-31 -14l-4 -6l-4 2v8l-4 4l-10 -6v-6l10 -12l-4 -11l19 4l-3 -6l17 -4v-4l26 35l11 29l18 -2l27 -13v19l6 2v6l-21 2l3 10l10 10l14 5v10l-4 6l-16 4l6 16 v17l-15 26l2 9v65l-6 14l-10 -4l-2 4l10 27l-2 16l15 -10l34 12l35 3l2 -9h6l2 -34l11 -64l-11 -10l2 -4h7l-4 -11l14 -24l-2 -8l-8 -6l-9 2l5 14l-3 8l-16 -16l-14 -31l-19 -27l2 -4h7l18 19l22 4l7 -4l8 8l8 2v-45l10 -68l-10 11l-6 22l-8 2l-9 -14l7 -6l-27 -19l-2 -8 l-4 -2l2 -6l8 -6l21 2l-2 -19l4 -30h32l-10 41l6 8l6 -6l5 -23l-3 -33l5 -14l8 -2v-16l10 -13l14 -6l6 2l15 21l14 2l8 20l21 10l4 11l-8 4l-2 8l18 12l4 35l4 -2l13 20l12 33l16 10l17 5l12 32l-2 9h-4l-25 -27l-2 6l-20 4l2 4l26 56l7 34l22 19l4 24l12 21l25 18l-2 13 l14 26l-4 4l-18 -18l-6 4l12 33l22 57l13 14l10 7l63 2l70 2l29 -19l-2 -12l-6 -2l-11 4l-2 6l-8 2l-4 -6l33 -18l6 4h10l-10 -29l-14 -10l2 -13l-9 -30l15 2l10 10l20 43l9 2l-15 -33l-30 -55l-19 -63l-14 -29l-14 -12l-27 -60l-2 -16l-23 2l-4 8l15 4l4 6l-17 13l-2 6h-4 l-12 16l-6 -2l8 21l-25 -29l2 -10l17 -17l6 -14h-10l-2 -12l-9 -2l-2 -5l15 -10l-4 -10l2 -8l6 -2l14 6l-8 -14l-27 -21l-8 -43v-31l-14 -20l-23 -64l-18 -30l-8 -33l-7 -10l-14 -9l2 -12l-14 -33l-10 -12l-7 -31l-12 -2l-14 -41l-29 -57l-26 -59l4 -25l-7 -16l-4 -64 l-4 -57l-4 -68l-8 -71l-10 -68l-15 -63v-27l-6 -70l-10 -35l-41 -24l-18 2l-13 8l-6 14l-12 -20h-53zM279 1204v4h-13l-4 -8l-2 47l-6 6l8 9l-12 24l4 19l-4 28v37l-17 8l-4 37l-8 33l15 22l14 7l-12 -11l6 -10h14l18 19l3 8h53h63l13 -8l2 -11l4 -2v-14l-21 -59l-8 16l-6 4 l-14 -16l-50 -4l-2 -13l-8 -2l12 -51l13 -66l-15 -2l-10 7l-8 -7l-4 -18l-6 -6l-11 -2l9 -23l-6 -8l-5 2zM821 1321l-4 -4l-16 2l-4 -8l12 -15l22 2l13 9l14 -9l4 -6l4 4l-6 15l17 20l-9 6l17 19l-2 6l-9 4l-2 18l-10 13v12l-20 4l-17 -22l-6 -17l8 -2l2 -22h-24l2 -13 l12 -8zM516 317v5l-6 26l-16 6l2 19l18 14l-12 -2l-27 -18l-8 -15l18 -28l-24 -29l-6 16l-6 6l-13 -6l-4 -8l21 -14l2 -10l12 4l25 30l20 -14l-4 -10l39 -15v-12l8 -2l2 21l-4 14l10 22l-6 7l-16 -23l-17 -6l2 12zM741 1184l-2 -4l-8 -35h-4l16 -33l13 -10l16 18l-2 21 l12 33v14l-6 6l-12 -18l-4 4l18 28l-2 19l4 37l-4 4l-4 -6l-2 -17l-16 -26l-2 -17l4 -12zM465 877l4 -3l4 -2l-8 -20l16 10l4 -6l9 10l12 35l-19 2l-6 6l-6 23l-8 12l-21 -4l-2 -51l2 -62l9 -28l8 8v24h-6l-6 15l8 4v22zM483 455v2l-18 4l-6 -6l2 -6l35 -5l32 7l-10 22 l-14 6zM887 1307l-2 -4l-8 -29l2 -17h8l10 -8h6l2 4l-8 4l6 46l-2 4l-4 -4zM909 1366l-2 -6v-4l25 -6l4 -15l25 -4l10 10l-4 2v7l-17 -4l-10 10v10h-31zM915 1331l-2 2l-4 17l-6 -4l6 -5v-30l6 2l11 -10l14 -7l6 11l-2 24h-29zM575 352l-4 -2l-6 -6l-2 -12l8 -6l13 14l4 -2 l10 39l-12 2l-8 -12zM1022 1444h-4l-6 4l-6 14l-11 11l11 4l6 -2l12 -21zM539 211h4h6l16 14l-20 15zM268 1405l2 4l-10 14l2 7l-20 -3l-6 -4zM440 535v-5l-4 -22l6 -4l9 14l-7 17h-4zM457 1149h6l26 10l-6 4l-16 -2zM473 88h4l17 12l2 9l-4 4l-9 -13l-8 2l-12 -8zM522 1077 l4 -4l2 -2l-14 -18l-6 6zM469 846v-4l2 -11l6 -4l12 19h-20zM977 1430h-4l-15 -9l3 -8l2 4l12 -4zM494 993v-4l-5 -16l5 -4l8 14v8zM487 35h7l12 6l2 14l-14 -2zM444 367l-4 2l-12 2l-8 -4l12 -9h6zM428 788l2 -2l16 -14l7 6l-23 15zM455 1448v-4l-2 -10h-15l8 14h9z M299 1296v-4l-2 -12l4 -4l6 2l-2 14zM436 1135l2 4l11 10h-15l-2 -8zM606 535l2 4l-2 12l-6 2l2 -14zM354 1184h4l4 -2v-13l-10 5zM330 1409l-2 2l-9 8l-6 -6l15 -8zM834 1061h4h4v-14l-11 6zM324 1135v-5v-4h10v9h-10z" />
<glyph unicode="Z" horiz-adv-x="854" d="M723 8l-2 -4l-2 -4l-12 -4h-68l-29 6l-4 6l-20 -8l-25 -4l-69 2l-33 -6l-64 14l-67 2l-68 -6l-61 -4l-35 4l-66 -2l-20 12l-2 60l6 67l18 -10v-8l6 2l17 -19l6 9l-16 16l4 10l-23 11l6 8l25 2l-2 4l4 12l-16 12l16 39l12 11l-2 4l21 24l-2 6l26 56l25 61l14 8l15 21l8 31 l26 61l21 29l4 16l10 12l12 31l11 10l8 25l31 55l12 33l8 4l14 23l7 4l14 47l29 49l10 31l18 24l15 29l12 10l4 23l29 55v12l14 31l4 20l10 2l8 23l13 2l20 47l8 4v8l9 11l14 63l-12 12l-6 -6l-13 13l-24 2l-31 10h-57l-68 -8l-63 -6l-21 10l-8 14l-8 4l-4 -2l-11 -20l-8 -2 l-16 10l-13 31l-2 36l5 25l10 70l24 37l41 6h66l63 -4l60 4l65 -9l64 9l65 -9l64 5l8 -5v9l61 4l66 -13l2 -6l-4 -18l2 -6h10v-64l-16 -6l-6 4l-11 -2l2 -8l17 -2l4 -12l-16 -17l6 -20l-19 -49l-12 -9l-2 -20l-14 -14l-19 -29l-6 -23l-10 -12l4 -10l-21 -31l-26 -59l-15 -13 l-4 -16l-16 -31l-8 -30l-17 -17l-20 -43l-31 -55l-10 -29l-14 -8l-13 -39l-37 -49l-6 -39l-6 -6l2 -4l-6 -8l2 -6l-16 -11l-2 -14l-17 -25v-6l-8 -12l-2 -16l-14 -23l-4 -20l-21 -21l-6 -16l-33 -51l-4 -25l-6 -6h-8l-4 -15l-19 -32l2 -9l-22 -30l-8 -21l-13 8l-6 -2 l-20 -24l-19 -2l2 -4l13 -4l28 4l-22 -60l2 -4l10 2l4 -4l-2 -8h57l64 2l70 -4l65 6h62l65 -14l6 -49l-4 -70l-14 -68h-8l-11 -8h-16zM610 1362l2 6v18l-6 29l-18 2l-64 4h-67h-60l-2 -24l13 -17l4 -24l4 -6l10 -2l6 -7l-2 -4h31l10 6h-4l-12 29l-13 -12l-8 2l6 8l17 6 l32 -39h11l12 21h25l-5 -8l-12 -7l8 -4l68 -2l2 9l-14 4l2 8l12 -2zM645 1010l2 -4l12 -15l3 -10h-7l-10 12l-10 -2l2 -43l-6 -16l14 6l8 25l19 28l12 29l31 59l28 58l-8 8l-20 -8l2 10l-4 14l-27 21l-12 -33l-17 -27l17 -6v-8h-17l-6 -4l8 -8l5 -17l-11 -14v-27zM705 1421 v-4l4 -18l-9 -23l33 8l12 -8l3 -8l-7 -16l4 -4l-14 -2l-31 -19l13 -8l-8 -16l8 -50l6 -4l6 2l16 56l11 2l12 -15h10l2 29l-16 2l-12 6l-3 17h21l2 -13l4 -4h16l9 -4l2 10l-4 11l2 10h12l8 4l4 27l17 26l-31 8l-8 -12l-11 10l-16 -22l-2 -8l16 10v-35l-8 -4l-14 2l-10 14v8 l8 3l4 8l-23 10l7 12l-9 4l-6 17l-14 6l-4 -6l18 -19l-16 -10zM465 727v-4l-8 -8l-15 -4l9 -17l-2 -12l10 -4l-6 -19l4 -6l10 4l-4 5l18 6v6l-14 14l-2 8l10 13h17l4 -7l-2 -18l-9 -12h9l18 10l2 8l-4 12l2 9l10 10l-6 14l6 25l15 6l2 6l12 10l-6 2l-6 -4h-11l-8 13l-14 -5 l-19 3l-26 -46l6 -4l25 4l8 -18l-19 -10l-8 8zM283 287l4 2l16 8l23 22l-9 7l5 16l-3 8l-12 -2l-12 -16l-16 -2l-7 4v16l11 4l16 -4l10 10l-10 23l27 16l2 9l-29 2l-6 4l-25 -41l-26 -62l10 -12l6 -2l8 4l8 12h17l2 -16zM434 537l2 4l31 55l29 61l-9 5l-6 -5l4 -4l-18 -4 l-4 -4v-16l-23 -11l-8 -45l2 -14l-12 -8l8 -14h4zM643 121l-2 2v10l6 10l-39 2l-6 5l-4 -17l-20 -10l-19 -2v16l-16 2l-6 -12l16 2l2 -8l14 -6l2 -9l7 -2l26 17h10l-8 -21l21 -4zM551 80l4 4l-12 2l10 10l-41 10l-12 -10l12 -2v-8l-10 4l-15 -10l9 20l-7 4l-10 -12l-10 -2 l-8 19l-8 2l-9 -21l7 -4l2 -10l8 -4h35l26 6l15 -2l4 4h10zM539 897v-6l-4 -12l-11 -11l19 -2l6 6l6 -8l-4 -2l-10 -24l2 -29l20 8l19 2l4 29l-4 4l-13 -2l-8 4l6 8v8l-16 19l4 4zM332 418h4l14 -15l6 3l31 57h-25l-8 -4l-4 -17zM332 487l-4 -4l8 -16l2 -16l4 -2l12 16l8 2 v29l7 16l-11 -4l-4 -21l-12 -6zM565 952v-6l-20 -35l6 -4l14 11h10l9 24h-11zM762 1167v4l20 39l-6 -2l-12 13v-35l-19 -21v-14l3 10zM221 90l2 2l19 25l-2 8l-7 4l-20 -27zM522 1397l2 2l4 16h25l-6 -10l-15 -8h-10zM328 1372v6v4l12 11l2 8h-10l-6 -6l-2 -17zM395 537 l-4 -2l-22 -19l6 -4h10l-2 6l10 10zM442 672l-2 -2l-6 -17l4 -8l6 -2l5 4l-9 15l4 8zM201 96l-2 -4l8 -18l6 -2l6 4l-10 8l-2 8zM569 72l4 2l7 12l-23 -2zM242 193h4l14 16h-16zM412 1415l4 2l6 -8l-4 -8h-8zM532 844v6l-12 14v-10zM727 1313h2l2 -2l-6 -11l-10 -2z" />
<glyph unicode="[" horiz-adv-x="591" d="M444 -188l-2 -5l-18 -34l-33 -11h-31l-65 11l-66 -6l-61 6l-68 -4l-32 8l-9 14l-2 47l2 64l4 63l11 70l16 61l8 66l6 63l13 66l4 63l8 62l8 65l-4 35l19 64l2 32l6 66l10 63l4 64l8 33l4 63l-6 31l2 4l17 57l8 68l4 69l2 66l12 64l13 63l14 63v33l6 66l12 63l2 64l7 35 l6 4l6 24l18 29l62 4h65h64l65 6l31 -2l31 -8l2 4l37 -14l-7 -11l9 -8l-2 -39l-19 -65l-12 -8l-31 -9l-67 -4l-66 2l2 -6l-14 -6l-4 -8l-6 -2l-17 -66v-32l-6 -62l-10 -63l-10 -66l-11 -67l2 -31l-10 -43l-6 -70l-8 -65l-8 -64l-5 -59l-10 -70l-6 -63l-6 -27l-6 -68l-13 -69 l5 -64l-2 -30l-19 -62l-2 -35l-10 -61l-6 -68l-6 -24l-9 -74l-8 -66l-8 -63l-2 -66l4 -2l51 -8l33 2h70l26 -6l8 -12l7 -31zM240 492v4l2 28l8 17l-14 8h-11v-4l-8 -2l-6 -23h-14l-2 -28l-7 -15l7 -2l8 12l8 -6l-4 -20l6 -4zM336 1606v-7v-24l-4 -8l28 2l27 12l12 45l-2 14 l-6 -2l-14 11l-6 -4l-4 -11l8 -28l-4 -4l2 -15l-19 -6l-6 6h-6l4 17l-4 4zM193 629l-5 -2h-6l-16 -19l4 -4l-2 -6l31 -4l14 16l14 29l4 37l-12 16l-6 -6h4l-6 -57h-8l-4 -17h-4zM205 12v4l4 39l10 15l-2 6h-14l2 -13l-15 -16l-16 -6l-4 -23l-23 -20l5 -2v-8l18 -2l10 -9 l2 11l-12 8l-2 6l10 -4l10 14h17zM291 1309l-2 -4l-37 -27l10 -41l8 -2l4 20l21 21l8 -2v6l10 18l-12 11h-10zM289 1186l4 2l6 10l-4 6l22 17l-4 6l-2 16h-10l-12 6l-6 -6l-2 -37l2 -14zM160 213l4 -2l10 8l2 8l-12 17l-14 8l-3 -10l7 -15l-29 -24h-10l10 -8l18 -2l4 20 l11 14l4 -2zM244 893h6l16 -16l4 -15l17 8v17l-15 -4l-12 39l-12 4v4l-4 -4l4 -4zM258 936v4l4 18l-2 7h-8l-4 -23l2 -6h8zM233 735v-4l-12 -14l-2 -10h4l13 12l2 12zM188 559v4l-4 10l-10 -14h14z" />
<glyph unicode="\" horiz-adv-x="538" d="M479 -143h-4l-35 4l-14 -4l-16 14v8l-13 2v15l-4 8l-8 2l4 24l-2 33l-8 64l-4 65l-6 12l-7 33l-4 62l-10 69l6 15l-4 2l-4 24l-8 2v37l-8 27l10 10l2 8l-12 2l-2 33l-4 2l10 4h14v4h-24l-7 29l-8 68l-8 61l8 -6l8 2l7 22l-7 2l-14 -10h-12v25l-8 31l-2 30l10 17l-4 4 l-8 32l-9 3l4 6l-2 18l-8 66l-10 65l10 -2l-6 -14l8 -2l29 24l-8 9l-27 -3l-4 -6v33l-6 6l-2 25l-6 6l-4 31l-7 12v33l-6 65l-14 23l-4 71l-8 31h16l16 -14l7 6l-5 14h9l2 4l-6 7h-23v8l-14 -2l-8 8l14 39l12 10l-4 4h-10l4 6l2 19l-14 -4l-4 2l2 6l2 -4l8 6l-8 8l-7 43 l-10 10l6 13l-14 26l-2 39l-8 29l-2 31l4 38l8 5l4 10l8 -4l2 10l23 6l51 -6l29 -14l8 -11l10 -63l-14 -19l-4 -65l-6 -33l12 14h10l-4 -18l-12 -6l-8 4l-2 -35l4 -4l12 6v15l16 14l11 -2l12 -19l4 -18l-2 -35l4 -33l-4 -12l-35 -10l-14 6v18l-8 2v-20l-17 -18l4 -7h6l-2 -8 l-10 -6l2 -6l8 -4l47 2l2 6l-24 2l-2 10h14l21 15l14 -4l-2 -9l-14 -2v-6l8 -8l-2 -6l6 -4l-2 -6l18 -11l6 2l-2 -4l-22 -8l-12 -12l16 -31l2 -18l20 4l-12 -4v-11l21 -4v-8l8 -2l2 -33l-4 -10l8 -12l2 -49l4 -64l12 -33h-6l9 -12l-3 -47l11 -23v-30l4 -4v-21l10 -10l-2 -4 l4 -14l-4 -25l6 -23l8 -6l2 -41l-4 -12l6 -23v-16l9 -2l-2 -10l4 -21l-6 -8l12 -14l-4 -33l4 -31l12 -67l8 -64l8 -2l5 -49l2 -63l10 -33l2 -31l10 -63l8 -68l9 -20l4 -68l8 -64l-6 -4l-15 4l2 -20zM299 1030v6l12 15l-6 14l-14 10l-8 -28l2 -9zM287 874l2 -4l28 -14l5 -6 l2 6l-13 18v19l-4 6zM332 811l-2 2v33l-4 4l-2 -4h-9l2 -15l-10 -10l10 -4l9 -12zM293 1456v4l4 8l16 2l17 -10zM352 1217l-4 2l-6 8l-2 18l10 -10zM352 1182l4 4l4 -2l2 -27l-8 6zM303 664l-4 -5v-12l12 -10l-4 10l4 12zM315 1206l2 -2l11 4l8 13l-19 -7zM360 301l2 4l7 6 l-15 6l-2 -16h8zM315 1368v-4v-6h11v10h-11zM319 797h-4l-12 -6v-5l12 5z" />
<glyph unicode="]" horiz-adv-x="591" d="M444 -225l-4 -2l-16 -4h-29l-69 4l-74 -2l-74 -2l-59 6l-21 10l-10 43l12 70l25 20l16 4l4 -6l-12 -10l-4 -10l4 -23l23 27l16 8l-8 4l2 8l18 6l-12 -6l2 -35l-4 -6l-8 -2l20 -16l-2 -6l-6 -2l-4 -9l-10 19l-4 -8l4 -13l14 -6l21 -2l8 16l6 48l18 16l2 8l52 4l18 19 l10 28l10 70l9 70l20 -25l-4 -12l2 -8l10 -11l15 6v-10l-13 -2l7 -14l12 -14l6 -3l12 15v8l-6 4l2 12l8 15l-41 39l-2 16l4 8l-14 -4l-4 -16l-4 8l18 22v9l-8 -2l-12 -21l-2 39l10 31l4 30l6 66l11 63l6 66l8 31l4 63l10 35l4 33l4 61l9 64l4 61l8 27l4 49l6 63l6 66l8 68 l7 65l4 62l8 65l10 70l6 67l11 60l12 28l4 66l-4 6l-31 14l-33 4l-65 -6l-33 4l-2 7l-21 4l-4 14h-8l-2 16l12 70l13 29l10 10l16 6l33 2h57l68 -2l70 4l65 4l15 -6h18l-2 -4l8 -6l8 -27v-59l-6 -72l-14 -63v-33l-6 -31l-11 -67l3 -31l-9 -31l-2 -33l-6 -63l-6 -66l-6 -65 l-12 -64v-65l-9 -33l-8 -63l-6 -66l-12 -63v-37l-17 -64v-31l-6 -67l-12 -64l-6 -63l-8 -68l-13 -65l-4 -62l-12 -65v-66l-8 -30l-4 -64l-13 -31l2 -8l-45 -6l25 -8l-2 -8l4 -35l16 -2l4 -4l-4 -15l-14 -59zM502 1018h6l14 4l13 10l-11 2l2 17h-20l2 -11l-8 -12l4 -2z M543 1067v4l2 27l-4 6l-9 2l3 -10l-11 -6l4 -11zM508 987l2 6v6l-8 13l-4 -4l4 -7v-12zM369 88v-4l-9 -2l-6 4l2 6zM193 -117l-3 -4l-12 -6l6 8z" />
<glyph unicode="^" horiz-adv-x="1150" d="M1087 709v-4l-2 -43l-16 -27h-8l-64 -4h-65l-10 -6l-11 10l-20 2l-12 12l-13 29l-10 67l-6 7l4 10l-4 18l-10 8l-9 15l-2 26l-8 17l2 14l-10 4l-8 56l-12 30l-17 27l4 33l-2 30l-8 21l-6 4l-6 14l-19 64l-16 31l-29 -9l-22 -20l-15 -31l-22 -24v-15l-10 -8l-2 -6l4 -6 l-15 -11l-22 -47l6 -6l-18 -26l-15 -43l-12 -13l-2 -14l-12 -10l-15 -29l-28 -29l-9 -32l-28 -60l-6 -28l-37 -54l-27 -20l-14 2l-70 -4l-31 4l-32 -6l-25 6l-14 20l24 43l11 -2l12 -8l4 2l-8 10l8 52l24 45l35 57l37 53l8 31l15 29l35 59l-3 14l27 29l10 31l25 22l16 47 l19 27l4 16l16 23v12l19 23l6 16l14 8v11l27 43l16 30l12 8l9 31l18 35l41 16l68 2l65 11l2 -4l21 -11l20 -43l8 -34l6 -7v-12l9 -6l10 -51l18 -27l-4 -14l8 -21l-2 -14l4 -8l5 -33l10 -29l16 -28l12 -58l29 -63l12 -66l11 -32l6 -7l22 -53l-6 -6l8 -27l9 -45l12 -14l14 -47 zM764 1294l2 4l2 27h-14l-13 -6l-6 -14zM793 1255h4l16 13l6 -2l-2 14l-4 4l-22 -4l-3 -10zM698 1280v4l7 10v11l-17 4l-4 -19zM766 1403l2 -2l-8 -17l10 -6l6 13v10l-4 6zM862 1094v4l2 12l-18 -2l-4 -4l6 -4v4h4l2 -8zM647 1343h6l11 15h-9z" />
<glyph unicode="_" horiz-adv-x="841" d="M561 -283l-4 -2l-20 2l-48 -8l-67 4h-66l-63 4l-66 -6l-65 2l-64 -6l-24 6h-70l-27 8l3 5l-11 10l4 4v16l-10 13l-2 14l4 16l29 41l55 10l47 -6l66 11l31 -11l67 4l19 -14l16 10l35 2l61 -4l66 4l67 -2h68h57h66l69 6l-2 -6l23 -16l4 -31l-4 -33l-12 -32l-35 -17l-64 2 l-69 -6l-33 6l2 11l6 -11l8 11l-4 18l-26 4l-3 6l7 6v9l-33 -21l2 -12l20 8zM199 -258v4v4l12 12l-16 -8v-8z" />
<glyph unicode="`" horiz-adv-x="368" d="M457 1663v-4v-17l-8 -26l-15 -10l-20 -7l-2 5l4 6l-17 20l-4 15l-6 -3l-4 -8l2 -14l16 -12v-9h-20l-33 7l-24 16l-11 16l-6 2l-8 23l-12 12l-13 29l-18 27l-8 2l-14 34l-9 7l-14 32l-8 4v11l-12 4v10l-11 16l2 19l25 16l35 10l32 2l33 -4l64 -4l20 -20l15 -27l6 -37 l-37 -16l2 -10l16 6l4 -23l-14 -2l-6 -10l-2 -20l-8 -13h-9l5 -4h18l4 23l6 -2l25 12v-4h14l4 -19zM424 1772l4 -3v-8l4 -4l-2 -4l-4 2z" />
<glyph unicode="a" horiz-adv-x="886" d="M834 129v-2l2 -12l2 -62l-7 -33l-26 -20l-31 -8l-61 12l-37 2l-14 -4l-7 4h-24l-23 6l-14 54l-2 34l4 33l-8 60l6 67l-6 33l-17 2l-43 20h-32l-66 -6l-35 4l-30 -2l-15 -10l-6 -16l-18 -29l2 -25l-13 -34l-18 -29l-8 -66l-17 -55l-16 -31l-23 -16l-30 -2l-70 4h-63l-9 18 v17l-12 8l14 41l21 66l4 53l21 63l18 58l12 8l8 31v32l9 33l12 6v10l6 7l8 59l13 33l-5 10l13 20l14 66l19 64l22 61l12 63l29 58l2 14l8 14l-6 11l6 12l-2 18l17 -8l2 -8l8 4l14 27l8 4l2 6l-6 12l-20 -8l-4 4l10 8l-4 7l26 6l-18 18l4 8l12 62l11 14l14 49l-2 15l8 30 l12 23l-4 8l21 59l14 60l12 24v17l9 28l43 52l49 2l63 4l66 -10l65 -5l4 -6l21 -57l4 -33l-2 -33l-2 -65l12 -64l-6 -47l4 -33l6 -63l2 -66l2 -65l7 -66l10 -63l-6 -64l6 -12v-31l6 -32l-10 -27v-33l10 -10v-14l8 -23l-4 -63l4 -31l-8 -35h4v-24l6 -5l2 -24l4 -6l-4 -25 l4 -63l-2 -68l6 -59l7 -6v-23zM586 618v5v34l-2 66l-2 68l8 34l-4 35l-13 27l-2 20l9 49l-9 64h-10l-4 4l-10 -10l4 -4l-8 -25h-11l-4 -22l-14 -25l-4 -51l-16 -29l-11 -63l-24 -62l-10 -61l-23 -62l-8 -32v-21l6 -33l35 -8l73 -2l33 4l10 6l-2 8l5 17l-5 24l11 31l-4 8z M262 217l2 4l4 23l-4 6l-8 2l-6 -12h-14l-11 -13l4 -4zM649 1243h4l15 14l6 17h-15v-8zM340 731l4 2l4 10l-8 11l-8 -4l6 -2l-2 -17h4zM344 770l4 4v6l-10 15v-11zM637 1200v-4l-2 -6h10l2 10h-10zM336 932v-4l-2 -6l10 -7l-2 15zM690 1405v-2v-8l10 2v4zM690 1395l-2 -2 l-4 -4l4 -3z" />
<glyph unicode="b" horiz-adv-x="917" d="M899 416v-4l-14 -62l4 -16l-12 -17l-11 -49l-14 -69l-10 -27l-41 -51l-2 -8l-19 -19l-26 -18l-23 -23l-22 -8l-29 -18l-29 -11l-33 -2l-59 -12l-72 -6h-61h-68l-63 2l-66 2l-67 2l-31 8l-6 29v31l10 65l8 72l7 63l10 64l6 65l2 66l6 65l12 64l4 63l11 64l12 65l8 66l6 66 l2 65l9 31l12 63l4 66l14 65l4 64l9 65l12 66l20 63l29 13l18 2l5 -4l10 4l33 -2l30 8l49 -10l33 -2l33 4l61 8l68 -8l63 -4l27 -9l21 4l18 -2v-12l29 -4l16 -12l31 -13l-2 -4l4 -6l16 -4l13 -20l14 -11l12 -34l-8 -15l-4 -22l-12 -15h28l8 -14v-12l2 4l5 -12l2 -33l2 -66 l4 -63l-8 -68l-17 -63l-22 -56l-31 -57l-14 -10l-7 -15l-26 -24l-29 -16l-8 -11l4 -43l33 -20l18 -27l37 -55l2 -21l6 -67l-8 -64zM653 338l2 4v29l2 63l9 68l-4 20l8 13l-8 2l4 10l-7 4l5 10l-9 12l4 5l-4 26l-39 43l-45 10l-67 9l-45 -21l-17 -2l-8 -14l-2 -23l-8 -69 l-8 -70l-6 -57l-11 -64l-8 -65l-2 -66l10 -8l19 -2l4 -8l12 -4h31l33 10l65 6l12 10l17 6l35 51zM662 1266l-3 2l-57 10l-35 -2l-32 -10l-11 -13l-12 -26l-8 -31l-17 -68v-53l-4 -65l-8 -66l2 -63l6 -7l-8 -4l6 -4l8 4l21 -4l-2 -8l4 -4l33 -4h65l29 18l12 2l11 17l18 14 l29 62l16 26l-2 23l6 14l-2 57l6 64l-10 63l-12 29l-29 18l-27 7zM465 1305l4 4l4 4l-4 26l35 15l8 -4h33v12l-4 6l2 10l14 15l14 30h-14l-12 -14h-8v-31l-9 -4l-10 10l-2 15l-16 6l-4 18h-11l-4 -20l-39 -10l-12 30h-45l-14 -10h-9l-2 4l-2 -16l4 -15l29 -22l6 -14l23 -2 l12 6l-4 10l21 2l12 8l-4 -14l6 -21h-4l-10 -10l6 -4h16l-10 -18zM694 1417v-4l-4 -8l-8 -2l4 -55l12 -9l13 17l2 16l-4 6h16v15l-6 20h-19zM887 1057l2 4l2 33l-4 26l-13 -14h-8l-4 -19l4 -22l-8 -4l19 -14zM467 993h4h4l2 8h-4l-18 25l-6 -4l4 -14v-35l-13 -2l-6 -13 l10 -6l23 17v24zM649 768l4 4l-6 21l19 2l2 6l-4 16h-9l-26 -16l10 -6l-10 -23zM803 547l2 -2l18 -8l8 6l-6 39l-6 14zM870 993v4l-6 17l-6 4l-8 -2l-8 -47l20 12zM522 92l4 2l2 23h-14v-25h8zM289 944l2 2l4 21h-10l-2 -9zM512 1423v-4v-4l10 -8l6 6z" />
<glyph unicode="c" horiz-adv-x="892" d="M686 51l-2 -2l-22 -16l-56 -33l-45 -8l-65 -17l-31 -2l-33 4l-63 5l-4 6l-13 -6h-12l-31 8l-2 8l-18 6l-56 33l-53 43v10l-12 10l-4 17l-14 6l-13 27h-6v22l-10 14l6 7l-8 14l-4 55l-2 70l2 57l10 74l6 65l10 25l11 2l-7 -8l-2 -17l9 -6l10 8h6l20 -32l9 24v35l-13 23 l9 4l4 8l-15 14l-8 -6l-4 -14l6 -23l-14 8l-25 -8l-2 2l15 60v30l8 31l10 64l4 63l4 68l8 65l11 31l-2 31l4 32l12 66l6 61l14 66l13 8v12l4 5h8l8 28l10 10l15 31l47 55l43 46l55 22l2 8l10 -2l11 10l14 7l6 8l41 6l64 14l67 -4l70 2l45 -8l37 -20l51 -37l22 -25h11l4 -16 l10 -13l6 -24l12 -10l11 -31l4 -33l12 -22v-64l-4 -70v-59l-23 -61l-6 -58l-12 -2l-12 -10l-39 -8l-37 2l-64 4l-34 -4l-17 12l-2 41l-6 4l2 41l14 66l9 65l-9 27l-2 37l-8 20l-14 10v5l-10 10l-2 8h-9l-28 14l-23 -4h-33l-4 -4l-8 4l-10 -12l-2 8l-6 -8v-8l-35 -8l-10 -21 l-4 4l8 19l6 2l-12 20l-11 -8l9 -16l-31 14l4 -29l14 -24l-12 -21l-8 -31l-10 -61l-7 -68l-6 -67l-10 -66l-18 -10l-9 -14l5 -4l10 8l2 -6l6 -2l2 4l4 -11l-4 -14l-10 -16l-8 -31l2 -66l-4 -8l-3 2l-4 -6l2 -16l-20 -23v-14l14 -6l4 -6l-2 -25l-12 -63l2 -64l-10 -31l-8 -63 l-9 -60l-2 -71l-16 -15l14 -2l9 -20l24 -39l27 -16l18 -2v-9l4 2l66 5l16 8l25 22l45 41l10 31l8 63l8 66l11 31l-6 10l2 35l16 28l-6 5l49 32l16 2l62 -4h69l33 -6v-14l8 -35l-12 -49l-8 -55l-10 -66l-11 -61l-12 -33v-23l-4 -16l-33 -57l-39 -50l-20 6l-10 -2l-4 -6 l-15 -6l-6 2l2 -8l12 -10l13 8l6 -4l-19 -23zM737 471v-4l2 -4l-4 -23l-24 -43l-11 -32l11 -3l18 11l4 -4l-6 -15l14 6v23l21 25l12 10h10l7 43h24l4 26l-4 9l-10 4l-14 -8h-11l-10 8l4 2l6 14l-8 4l-12 -35l2 -14l-19 4zM471 1450v-4l-2 -16h8l15 8l10 12v-10l4 -6l18 -11 l2 -8l-6 -16l2 -8l47 26l2 8l-6 5h-18l-6 10h-9l3 10l-9 2zM739 246l2 4l9 31h-11l-14 -7l-20 -22l12 -27v-18l-21 -19l23 15l4 14zM412 1366l4 2l20 12l4 15l15 12l-6 4l-46 -33l-8 -16v-10l4 -2zM823 1337l-2 -4l-4 -20l6 -13l17 -2l4 7l-2 16l-11 14zM469 1376l-2 -2 l-6 -10v-16l4 -7l10 2l6 7l4 12l11 -4l4 8h-11zM340 1102l-4 -4l-6 -23l-13 -12l15 2l12 14l2 13zM221 1112h4h4l11 10l-2 17l-9 2l-8 -19v-10zM360 1010h5h4l4 6l2 16l-4 6v-4l-11 6l-4 -6l9 -10zM780 530l-4 2h-18l-4 -6v-10l16 2zM158 213h6l8 2v14l-6 2zM213 150l4 -3 l14 -14v8l-8 13h-8zM807 1341l-2 -2l-4 -8l4 -6l8 -2l-2 14zM741 1419l-6 2h-12l-2 -6l14 -2zM446 1444l3 -6l-11 -19l4 -4l11 21zM182 125v-6v-4l13 -2v10l-2 -2zM297 238h4h10l2 4l-4 4h-10z" />
<glyph unicode="d" horiz-adv-x="942" d="M500 0h-2h-33l-68 2h-69l-64 -4l-47 6l-33 -4l-32 4v-4l-15 8l-12 2l2 64l8 67l-2 64l17 45l4 57l6 72l10 65v54l14 67l9 2l-7 6l-2 25l6 33l13 26l6 37l-4 4v25l4 65l8 64l10 70l6 67l7 66l2 65l10 62l14 69l15 64l12 -19l-2 7l8 20l-4 -2l-2 20l-10 9l12 10h-6l-2 20 l8 70l35 31h51h63l60 -4l69 -2h70l64 6l28 -11l33 -4l12 -10h8l64 -20l27 -17l20 -24l27 -13l12 -14h4v-12l12 -10l-8 -7l6 -4l21 -63l-15 -8l-4 8l-4 -4l2 -11l29 -16l2 -27l8 -30l-2 -4l-8 -60v-35l6 -6l-4 -32l-10 -64l-15 -65l5 -54l-7 -57l-10 -76l-16 -55l-2 -35 l-4 -6h-9l-8 -25h-8v-12l10 -12l15 -4l-4 -31l-11 -68l-8 -63l-2 -64h-10l-4 11v16l10 12l-4 31l4 8l-8 -2l6 8l-10 9l-9 -7l5 -16l-7 -23l2 -16l-6 -20l15 -5l4 -10l-2 -6l8 -14l-19 -47l-16 -62l-6 -6l-4 -22l-10 -5l-4 -8l2 -6l-11 -4l-14 4l2 -14l-12 -6l-2 -6l12 -7 l-10 -14l-49 -45l-27 -14l-25 -25l-30 -8l-6 -6l-23 -4l-14 -11l-56 -10zM582 1272h-7l-57 -10l-10 -35l-12 -64l-9 -65l-8 -68l-10 -67l-2 -62l-12 -65l-2 -33l-9 -64l-8 -65l-8 -64l-6 -67l-4 -64l-10 -30l-2 -33l-5 -66l-14 -65l-2 -31l6 -31l15 -10l49 -12h59l4 10h27 l33 16l14 2l2 9l16 14l17 31l10 30l-2 9h-4l6 6l14 61l17 74l-2 24l6 9l12 63v64l4 63l8 66l11 65l2 70l6 31l8 10l-2 10l10 25l2 30l4 68l13 69v29l-17 39l2 14l-4 9l-41 26l-10 15h-4l-64 14zM877 920l-5 2l-6 8h-8l-14 -29l4 -10l-2 -19l-6 -14l24 -27v-10l-28 -18 l-13 -31l6 -2l29 10l4 -8l8 14v50h7l10 8v33l6 12l-6 18zM809 1120l2 -6l-2 -16l-16 -27l6 -6l6 -70l6 -12l4 4h19l4 6l-9 15l7 34l-25 19l8 -2l6 10l6 -4l-2 12l-8 15v8l35 39l-4 14l10 2l4 8l-2 8l-12 9l-6 -2v-33l-8 4l2 -21l-23 -12zM856 1350h-4h-4l-12 14l-7 -4l2 -4 l19 -58l-8 -36l24 -17l4 -8l-4 -4v-8l8 -8l-6 -13l6 -16l7 16l28 13l-35 49l5 4l2 16l-25 29v35zM772 233l2 5l4 4l23 61l-13 -2l-18 -31l-12 -2l-4 11h10l8 14l-10 20h-8l-29 -32l2 -15l6 -8v2l6 -6l-2 -8l6 -6l7 4h10zM311 705l-2 -5l-8 -8l-2 -8l4 -2v-12l8 2l23 20l4 17 h4l23 20h10l4 23l-2 14l-8 2l-2 -4l-17 -4l-10 -23l-21 -10zM729 1321l4 4v6l-8 12v11h-25l2 -19zM860 694v-4l-6 -6l-29 -8l-4 -6v-11l27 3l4 18h10l2 8zM408 924h4l4 2l2 8l-19 -4v12h-10l-6 -14v-19h6zM846 508v4l6 41l-4 4l-4 -10l-13 -10l-2 -9l7 -4l2 -14zM436 1233 h-4h-16l2 -29l8 -2l6 4zM698 1384v-4l-12 -12l19 -2l12 -6l2 6l-6 12zM238 621v4l2 10l-21 -6l-10 -13zM385 817v4l4 35l-4 4l-6 -12v-19zM211 592v4l2 14l-12 -4l-8 -16l2 -12l6 16l6 2zM782 180v-4l4 -8l17 -2v8l-4 4zM735 170l2 4l4 21l-6 6l-4 -27z" />
<glyph unicode="e" horiz-adv-x="854" d="M729 6h-2l-51 -8l-58 8h-65l-74 -4l-65 -2l-64 6l-71 -6l-58 -8l-6 4l-14 -4l-58 18l-2 8l-12 2l2 15h-10l2 10l-8 25l12 47l8 65l6 2l11 -12l28 21h6l7 -13l10 2l2 15l-8 10l-17 2l-24 16l-19 -2l-2 6l4 25l8 63l21 7l-2 8l-16 2l-3 16l17 62v65l12 60l8 65l9 70l10 65 l4 6l6 66l6 65l4 66l10 66l13 61l6 68l6 -15l-2 -39l16 21l-6 4v31l17 16l-4 16l-15 -2l-10 -12l-4 2l6 10l12 74l6 -8l2 10l-8 6l-2 8l17 7l-2 8l-7 4l-6 14l2 33l11 33l-2 33l6 30l14 31l18 23l13 6h18h64l22 -6l64 10h32l27 -8l6 -17l6 -4l6 8l-6 15l9 2h65l64 -2h65 l62 6l32 -4l15 4l34 -13l5 -16l8 -12v-21l-6 -67l-9 -8l5 -25l-3 -10h-8l-14 -27l-16 -4l-3 -8l-65 -4h-66l-69 -2l-70 2l-63 -4l-25 -11l-8 -30l-14 -64l6 -31l-13 -65l-6 -66l-12 -65l-2 -31l10 -31l10 -4h45l64 -2l66 8l16 -4l6 -6l33 4l16 -4l4 -6v-25l11 -20l-9 -51 l-18 -64l-16 -26l-33 -8l-68 -3l-33 5l-59 4l-68 -15l-14 -39l-6 -34l6 -31l-16 -43l4 -12l-4 -13l-8 -69v-64l-7 -33l-20 -59l6 -25l45 -14l31 -2h67l70 2l68 -8l12 14l10 -4l64 -2l16 -10l8 -10l10 -39l-6 -80l-8 -27l-8 4l2 -16l-10 -29zM387 129v6v19l4 8l-22 4l-7 10 l3 10l-5 13l-8 2l-28 -37l-7 -17l13 -6l26 6l6 -2l15 -16h10zM289 965l2 4v4l18 20l-4 2l-4 15l-6 4l-6 -6l-25 -4l-12 -29l12 -14l4 -25l17 -6l2 8l-4 33l4 4zM612 74h4l31 2l29 8l-19 6l-14 37l-10 10l-6 -4l-6 -14l-3 -19l5 -6l-11 -10v-10zM729 123v-4l4 -10l-2 -11h19 l6 -4v10l-13 23l-2 -2l7 -12h-11zM260 84h4h4l8 10v10l-12 -4zM285 999l2 -2v-14h-15l2 6l-10 4zM725 80l4 -2l6 10l-8 6z" />
<glyph unicode="f" horiz-adv-x="847" d="M657 657h-4l-57 -14l-18 4l-7 6l-14 2l-4 4l-16 -2l-64 -10l-31 -14l-2 -12l-12 -64l-10 -68l-8 -65l-4 -64l-15 -8l-14 -28l4 -2l12 6v-17l-6 -67v-60l-12 -4l-6 4l-4 -8l-7 2l-14 -28l2 -11l-4 -4l6 -18l10 -13h9l-5 -36l-8 -33l-16 -23l-39 -6l-72 -6l-67 4l-27 8 l-6 23v33l10 67l-2 31l4 63l11 60l6 65l10 70l10 68l4 -3v-8l29 31l-4 6l6 10l-2 4l-8 3l2 10l10 10l-8 -2l-2 -8l-13 -2l-8 -25l-8 -2l8 59l13 56l16 12v10h-6l-6 -14l-4 4l2 25l6 14l14 10l-8 6l-6 19l6 8l-4 6l2 14h10l-8 21l10 29l-6 49l12 30l4 62l9 70l10 63h-2l8 64 l8 69l10 68l9 67l8 62l4 55l29 23l10 2l4 6h12l33 -10l25 4l30 -4l60 10h36l31 -10l31 6h33l63 -6l31 2l65 6l35 -4v-29l-10 -10h-10l4 -10l-6 -27l2 -12l8 -13l12 -32l17 -5l10 2l4 -16l6 -4h10l4 25l19 -9l10 -12v27h-33l-6 4l-2 8h53v33l7 16l-5 4l-10 -8l-2 10l-6 4l6 9 l12 -7l7 5l6 -5v-32l2 -66l-17 -45l-20 -8l-29 -4l-69 -2h-70l12 39l-2 6l-14 6l-4 6l2 6l-14 -20l-9 -49l-20 -4h-33l-29 6l-63 8l-16 -6l-17 -19l-10 -22l-16 -70l6 -16l2 -31l-8 -70l-13 -69l-6 -62l4 -26l10 -13l29 -14l57 8h72l6 -6l-2 -2l60 4l32 -4l11 -25l4 -30 l-6 -74l-23 -61l-6 -2zM506 1376h2l4 29l10 14l15 6h14l-12 19l2 20l-47 -14v-14l6 -13l2 -16l-4 -33zM856 1421l-6 2l-4 4l16 31l-4 2l6 6v-26l6 -2l19 14l6 -2l-2 -25h-23l-6 11l-6 -2l4 -11zM586 760h6l6 2l6 16l8 2l-4 -18l2 -6l15 8l-4 2l4 29l-15 4zM745 1391l-2 -7 v-8l7 -6h10v14zM367 139l-2 2l-3 4l11 19v10l8 -6v-8l-8 -17zM858 1382l-6 2l-2 5l4 18l10 -2l2 -6zM291 1274v6l2 4l-8 19l-6 -13zM754 1362h-4h-11l-6 -4l10 -10h9zM342 104l2 7l-8 8h-6l-4 -8zM610 717l-2 -4l-14 -19l14 6l6 9v6zM395 340l-2 4l4 10l4 -2v-6z" />
<glyph unicode="g" horiz-adv-x="940" d="M772 -6h-4h-55l-6 10l-11 2l-4 6v17l-10 4l-8 35l-6 4l-17 2l-6 -4l-6 -15l-59 -26l-58 -31l-59 -18h-21l-6 4l-47 -7l-65 5l-62 22l-2 4l4 10l-12 -14l-21 23l-16 6l-20 26l-13 7l-24 24l-6 16l-7 5v10l-6 12l-16 51l8 11l-6 14l-2 33l-8 28l2 31l10 66l4 65v66l6 34 l8 -2l9 -12l2 -35l14 17l2 20l-16 27l-17 -8l-4 2l6 32l4 66l9 31l12 61l-2 33l12 63l10 66l4 65l9 62l6 67l12 64l14 66l7 14l-2 6l8 33l37 51l34 57l9 2l4 6l6 -4l20 23h8l23 25l14 2l13 20l16 6l61 21l60 14l72 8l30 -4l6 -6l52 2l32 -8l27 -12l59 -33l17 -23l45 -45 l6 -14l10 -10v-15h8l15 -28l2 -50l-4 -4l4 -10l-4 -33l6 -16v-31l-8 -65l2 -31l-6 -31l-25 -61l-33 -6l-71 -6l-68 6l-27 8l-8 24v72l12 66l-2 32l-10 70l-16 27l-13 8l-32 4l-11 6l-57 -6l-14 -8l-23 -6l-26 -23l-17 -29l-8 -30l-18 -29l2 -31l-9 -63l-10 -64l-4 -61 l-8 -70l-10 -65l-8 -2l2 -9l12 -6l-2 -10l-17 -65l2 -31l-4 -31l-10 -31l-8 -63v-66l-12 -57l-15 -68v-32l8 -66l17 -33l-6 -6l4 -4l8 6l8 -4l4 -8l13 -2l43 -21h34l29 11l59 28l19 31l2 12l22 68l3 33l4 65l12 64l-4 2l6 12l-2 10l-19 25l-20 -4l-63 4l2 10h-15l-16 17l2 6 l2 -9l47 -4l-6 15l-37 20l-10 15l8 53l10 31l15 26l53 12l22 -2l-6 -20l4 -4l13 8l4 14l63 2l70 2h67l58 -10l6 -20l10 -11v-20l-6 -31l-18 -65l-5 -62l-4 -67l-8 -33l-14 -62l4 -61l-8 -65l-11 -72l-8 -64l-8 -63l-18 -29l-17 -4zM354 1100l-2 2l-8 6h-18l-9 27l-4 30l4 9 l-14 6l-18 2l-6 -19l-5 -63l5 -8l-3 -7h-4l7 -10l-15 -20l2 -17l-4 -12l8 -4l-4 -6l4 -4l4 4h11l6 10l12 8h31l6 6l-2 11l20 18l-6 6v10l17 13l14 -4l2 24h-4l-12 -12zM332 606l2 6l-10 11l6 47h-8l-5 14l-14 6l2 8l23 4l8 7l4 26l-2 15l-8 4l-27 -17h-8l-12 -24l2 10l-6 14 l-11 -4l-2 -8l-8 -2l-2 41l-10 12l10 19l-2 16l-12 29v-11l-19 -24l8 -12l-2 -27l-18 -6l-2 -8h22l11 -15l-2 -10l16 -10l12 -19v-10h29l4 -18l12 -25l4 -33zM203 508h4l45 14l14 -20l45 10l4 68l-10 6v-8l-4 -5l-33 -2l2 11l-8 12l-8 2l-2 -4l-19 -4l-4 -31h4l11 10l14 6 l6 -2l4 -10l-6 -10l-12 -6l-17 -2l-16 4l2 -12l-4 -3l-14 23l-11 2l3 -18zM707 180l2 6l-7 15l-22 18l2 6l-8 19l-17 -6h-10l2 14l-4 2l-2 -14l-10 -13l4 -14l-10 -2l-13 -21h7v-12l32 -22l13 10l4 -6l-2 -4l-9 -2l-2 -4l9 -5l26 23h-2l2 8l8 6zM276 307h5l6 4l-4 2v9l-4 4 l-5 -4h-16l-12 -13l-10 -4l-11 4l-4 6l-8 2l-4 -6l4 -18l-4 -14l-8 12l-8 2l2 -12l10 -11l2 -8l24 4l7 -4l10 23l6 2l8 -4l2 14h10zM266 864v6l8 9l15 -5l10 21l-4 31l4 8h-14l-13 -10v12l-8 2v-20l-10 -29l10 -4l-4 -21h6zM283 1202l-2 -4l2 -6l39 14l2 39l14 8l2 9l-4 2v6 h-19l-6 -4l4 -39l-4 -6zM373 776h4l16 2l6 13l-16 -11l-4 19l-12 10l-9 2l-2 -6l9 -19l-19 11l-2 -11l4 -8l14 -6l13 16l6 3zM694 219h6l15 -10h10l10 18l-4 9l-8 4l-6 -7l2 -4l-23 -6zM764 209l2 2l6 33l-14 -2l-6 -15l2 -8zM705 444l-3 -2l-8 -22l13 -2l4 -4l-4 -2l4 -2 l6 16l-2 8zM293 332l2 4l4 12l-10 23v-4l-13 -11l9 -4l-6 -16zM281 430v6l-5 8l5 19l12 2l2 8l-25 -4l2 -35zM199 625l-2 -7l4 -10l24 2l-2 8l-6 5zM901 1300l-2 -2l-4 -8l14 -6l2 25l7 6l-9 4l-6 -2zM711 145l-2 -6l6 -12h16l2 4l-12 12zM653 283v-7l-6 -18h8l11 10l-4 15 h-9zM668 356v-4l-2 -16h14v16zM143 346l-2 -6l9 -6l12 8l-2 4l-2 -4l-6 10zM256 670l-2 -4l-4 -17h8l2 17zM256 987l4 -2l8 4l2 10l-4 7h-4v-5l-8 -6zM174 459h-4l-14 -4l16 -11zM291 547v-4l-4 -6h-17l6 6zM283 395l-2 -4v-4l10 -2l4 4zM221 776v6l-4 9l-6 -3l-4 -8z M514 645l2 -2l12 12l-2 4h-6z" />
<glyph unicode="h" horiz-adv-x="993" d="M891 254v-4l-2 -21l-8 -65l-4 -68l-13 -63l-12 -21l-14 -4l-66 -4v16l-8 11l-2 16l-4 2l-2 -4l-13 -4l5 -6l-5 -31l-45 -4l-63 4v10l-10 11l4 34l8 66l8 65l8 64l9 63l8 64l8 63l6 66l8 68l6 4l33 -4l2 49h-10l-14 -15l-13 -2l-2 -4l-16 27l-21 6l-32 2l-70 -2l-63 6 l-17 -4l-10 -8l-16 -4l-17 -19l-10 -65l-10 -68l-6 -63l-3 -62l-8 -26l-8 -72l-14 -31v-8v-63l-11 -66l-12 -66l-10 -12l-37 -8h-67l-5 4l9 8l16 6l-2 15l-18 12l-7 14l-6 4v-8l-16 -8l-12 -12v-6l8 -6l4 6l16 -4l8 4l2 -4l-4 -11l-18 -14h-16l-68 4l-2 21l-6 6v30l8 35 l4 64l6 67l10 66l9 65l4 7l8 2l10 10l-10 10h-8l22 33l-8 -8l-6 4l6 10v8h-8l-4 6l2 17l8 65l6 68l8 65l11 64l12 61l8 4l2 7l-4 2l-4 24l4 17l8 2l-8 18l12 51l2 31l4 65l13 66l10 63v31l10 56l4 65l-4 14l17 62l4 67l8 31l14 6l8 15l64 4l65 4l64 -8l12 -31l4 -23l-4 -32 l-10 -74l4 -64l-18 -63l2 -47l-17 -66v-33l-10 -63l-6 -70l-4 2l-4 -10l20 -29l25 -18l49 -6h74l63 14l25 13l8 12l8 29l2 32l6 68l19 61l-2 15l6 65l14 66l4 57l6 72l13 65l10 29l20 25l33 -3l33 7l66 4l65 -8l6 -19l2 -31l-4 -65l-8 -68l-6 -65l-15 -64l-8 -63l-6 -66 l-8 -65l-10 -68l-4 -59l-7 -62l-8 -69l-20 -64l-6 -63l2 -66l-4 -65l-11 -66l-12 -66zM758 557l-2 -6l8 -23l-16 -6h-11v-8l-8 -63l14 -2l21 -39l-6 -7v-10l4 -6h8l-2 14l8 5l4 -7l15 -6l6 2l2 15l-19 61l4 33l-4 4l-16 -4l-2 4l4 8l-4 31h20l2 10l-4 12l-6 2zM829 666l2 -2 l9 2l20 43l-29 14l-6 -14h6l3 -4l-17 -21l-6 6l-27 -4l-6 4l-4 -8l-20 -12l-11 -15l13 -4l-2 -14l8 -8l4 2l4 14h4v-16l6 -2l6 4zM733 313l-2 -4l-24 -39l-2 -20l26 2v-19l-14 -4l-6 -6l6 -12l28 14l15 -6v8l-12 17l20 45l-10 16l-13 8h-12zM696 106h4h35l15 11l-11 20 l-8 31h-10l-10 18l-2 -4l-13 4l-4 -51zM373 705l4 2l10 2l21 12l4 14l-9 29l5 18l-43 6l-11 -10l-4 -35l6 2l11 23l14 4l8 -10l-2 -23l-16 -18zM315 621l2 6l2 4l9 -15l6 5l-17 63l-12 -4l-8 -12l8 -41zM547 743l4 2l14 9l10 12l7 16v25h-15l-6 -39l-14 -14v-11zM733 74h4 l37 8l4 6l-10 -4l-10 6l-2 8l-23 -14v-10zM485 768l2 6l-12 6l2 6h-16l-8 -8h14zM862 969l-2 -4l-8 -7l-2 -10l10 2l10 13zM807 1081v-4l-2 -18l4 -2l2 28zM877 817v4v8l-11 -4v-8h11zM797 881l-2 -4v-13l4 -4l6 6l-4 4v9zM207 31v-2v2z" />
<glyph unicode="i" horiz-adv-x="489" d="M354 23l-2 -3l-18 -10l-2 -8h-8l-64 -2l-67 2l-64 6l-4 31l4 35l-2 30v64l8 35l10 63l13 66l2 65l6 33l12 64l6 67l9 29l12 14l-4 4l-11 -4l3 39l4 64l12 30l12 13l15 24l-7 29l-14 -8l-4 10l2 16l8 70l2 53l23 31l-8 12l-2 35l8 35l2 28l18 23l-12 10v39l10 66l14 65 l7 64l-4 32l4 33l12 29l16 16l33 15l14 -13l31 15l29 4l39 -2l8 -6l24 4l37 -15l11 -41l-9 -32l-4 -64l-10 -67l-12 -62l-33 8l-6 -20l-17 -19l19 2l2 17l10 -4l12 8l11 2l-13 -10l15 -6l-4 -41l-11 -72l-8 -68l-8 -59l-8 -62l-4 -65l-10 -68l-7 -6l-16 -4l-8 -55l-8 -12 l4 -9l24 -22l-2 -31l-10 -61l-10 -64v-35l-13 2l-4 15l-6 4l-6 -2l-10 -17l12 -6h21l-4 -24l-13 -58l-20 9l-6 -29l2 -6l8 -4v-4l-10 -11l6 -20l6 4l-2 8l-8 2l4 8l16 6l2 -6l-8 -12h10l-4 -43l-10 -72l-8 -65v-66l-4 -14h-9zM344 1010l-2 -4l-6 -15v-10h4l12 -18l10 -2 l5 14l-2 33l-13 16l2 16l-4 7l-8 2l-4 6l6 49l12 4l13 18v11l-19 -2l-10 8v14l4 10h-18l-25 -20l12 -25l-2 -18l13 -10v-11l-15 -8l-2 -41h-10l-4 -16l-8 -2l-4 -23l6 -12l8 8l29 10l4 9l24 4zM285 688v4l2 10l-8 11l-9 24l9 23h-13l-8 -4l-6 -15l8 -10l-2 -10l-12 8l-6 -8 l10 -8v-17l-8 -32l32 22zM342 1407v-6l-6 -19l8 -4l25 2l6 6l14 -26l8 -2l6 28l-4 11h-18l-23 10h-16zM426 1313l-2 2l-12 4l-9 -2l-12 -10v-15h8zM438 868l-2 -4v-10l10 -10v20zM266 872v-4l4 -14l4 6z" />
<glyph unicode="j" horiz-adv-x="897" d="M635 37l-4 -2l-17 -4l-14 -11l-20 -6l-5 -6l-8 2l-2 8l-8 -2l-4 -16l-8 -4h-23l-20 -16l-64 -11l-63 15h-64l2 10h-14l-10 10h-15l-20 16l-25 7v10l-14 8l-8 14h-8l-35 45l-8 2l-2 13l-13 26l-12 15l-12 28l2 7l-8 12l2 37l-2 65l-5 6v43l13 64l12 70l2 63l8 35l23 24 l59 7h68l63 -7l13 -18l4 -29l-6 -67l-13 -66l-8 -63l8 -13l-10 -47v-63l14 -21l-2 -8l21 -8v-10l57 -13l57 15l19 10l20 25l9 -9l-7 -20l17 2l12 6l16 2l3 8l-11 21l-6 33l-8 2l8 14l-2 31l19 61l12 64l-4 32v66l14 63l12 25l6 39l-6 47l4 31l9 65l10 68l2 67l4 64l8 65 l10 66l9 63l18 62l4 33l6 65l9 64l10 28h10l16 15l11 -6l12 2l70 4l30 -6l33 6l37 -15l4 -26l-6 -19l2 -26l-2 -66l-14 -63l-7 -60l-6 -71l-14 -60l4 -6l-8 -14l4 -25l-6 -63l-11 -64l3 -33l-5 -8l-8 -57l-8 -62l-8 -65l-10 -70l-9 -69l-8 -66l4 -6l-2 -8l-14 12l-8 2 l-15 -24l5 -15l8 10l6 -2v-4l12 -4v-18l-10 -10l-14 -5l-5 -6h-4l-4 6l2 15l-4 6l-10 2l-10 -14l4 -23l-4 -8l16 -4l23 -21l12 21l2 14l4 -20l-6 -33l-8 -12l-4 -17l-19 -63l-4 -29l-8 -12l-33 -58l-12 -10l6 -4l-49 -51zM745 1358l-2 -4l-2 -25l9 -2l-2 -8l-9 -6l4 -4 l-10 -31l6 -8l6 6l15 4l6 8v17l16 2v30l6 6l5 -6l-5 -14l17 4l10 10l6 17l-20 2l-2 12h10l14 -6l4 10l-2 6l-6 -4l-4 8l-8 -4l-10 43l-31 -12l-21 -41l11 -10h-11zM717 326v4l16 32l-6 13l-4 -6l-16 2l-35 -35l-2 -39l-8 -14l6 -11l-2 -39l8 3l4 16l8 2l25 22l-11 11l-6 35 l11 8zM418 51v4l20 45l-14 17l-27 18l-16 2l-16 -6l6 -2l2 -14l-8 -19l32 -20v-15zM836 1337h-7l-8 -12v-10l-4 -6l-22 -6l-4 -9l6 -2l20 15l4 -2l-14 -29l4 -6l-6 -23l8 -12l2 4l8 -4l-2 -6l6 -15l11 -8l4 25l8 63h-4l-10 11v32zM270 561h-6l-53 -6l10 -37l2 -26h13v-5 l-15 -6l-2 -8l10 -14l-2 -6l15 2l-4 -13l16 -4l2 8l-12 27l6 10l-8 4l2 19l-8 2v4l12 10l-2 6l8 19l14 6zM504 72v4l10 39l-18 6l-9 10l5 29l-15 -2l-10 -11l-6 -26h4l8 -41l8 -2l2 -6l-8 -6l4 -5l2 5l17 2zM217 276l2 5l33 45l8 -27l8 -2v33l13 30h-15l-16 -26l-17 -4 l-20 6l-16 -49h10zM305 139h6l11 4l6 13h-23l-26 -11l-25 2l-12 -8l-4 -8l61 -20zM752 1221l-2 -2l-15 -13h-10l-4 -45l6 2l8 -4l8 -12l7 6l12 29l-2 16l-8 14v9zM199 125l4 -2l4 2l-4 2l2 23l-29 6l-2 -4l16 -15zM279 434h-5l-10 -8l-2 -16l12 -7l5 -12l6 4l-9 19zM180 258 v-4l-2 -4l4 -17l8 5l-4 8l29 16v4zM827 1153v2l11 31l-4 6l-15 -29zM188 170l-2 4v23l-10 2v-23zM584 86l2 4l14 12l2 9l-6 -2l-12 6l-2 -4l4 -2l2 -9l-6 -8zM600 131l2 -2l29 -6l4 4l-2 4l-8 -6l-21 14zM195 590l4 -2l8 4l2 10l-6 8zM762 1305h-4h-10l6 10v8l10 -8z M791 1368h-7h-4l-4 14l12 -4l5 4l2 -4zM592 541l-2 -4l6 -9l8 -2l2 15h-14zM438 131l2 -2l15 -8l2 4l-13 12zM762 618l2 5l4 6l-14 6l-2 -17h10zM608 483l2 4l2 2l-8 9l-6 -15h10zM729 1227l2 -4h17v6l-5 2v-4l-10 4zM836 1098l-2 -2l-7 -6l17 2l2 6h-10zM575 68v4l3 4h-9 l-2 -8h8z" />
<glyph unicode="k" horiz-adv-x="929" d="M811 2h-2l-10 -2l-68 -8l-65 8l-19 14v9h-10l-6 22l-10 12l-9 52l-8 10v16l2 64l-10 30l-10 62l-6 67l-7 7l-2 24l-8 64l2 14l-8 2l-4 35v31h-8l2 20l-8 4v14l-7 2v9l-10 24l-20 -2l-10 -10l-7 -16l-14 -15l-16 -26l-37 -56l-12 -30l4 -31l-15 -27l2 -53l-6 -66l-10 -65 l-6 -61l-6 -64l-19 -66l-12 -10l-31 -10l-35 -2l-34 -8l-5 2v10l-32 -10l-49 6l4 4l-11 14l2 7l-10 -11l-2 -10l-12 18l2 7l-10 10l6 24l-2 13l4 35l14 63l13 10l8 -12l30 6l9 -12l4 -35l20 10l10 13l5 30l6 6l-4 9h-9l-6 6l4 10l-2 8l8 10h-22l-29 -10l-2 6l-8 -6l-10 10 l-6 -4l-13 15l-2 14l4 27l7 59l10 66l10 34l-2 4l-6 -8l-4 8l12 50l8 65l4 2l11 -12l8 -2l4 4l10 -2l4 -6h8l7 8l-25 20l-6 -4l-4 15l-11 10h-10l4 20l2 68h4l-2 12l17 66v31l6 67l14 31l4 31l-2 32l9 68l4 63l6 62l12 67l6 62l12 67l7 68l10 35l14 26l37 21l49 2l29 -12 l16 -2h66l12 -6l10 -41l6 -7l-6 -39l-12 -65l-2 -66l-10 -65l-6 -66l-11 -30l-2 -33l6 -66l-8 -32v-31l27 14l18 27l29 61l25 25l20 37l2 16l8 21l19 24l30 55l9 29l10 10l14 29l31 57l25 64l18 14l14 29l23 22l28 17h33l68 -8l35 8l30 2l17 -17l6 -12l-10 -35l-21 -22 l-14 -39l-25 -57l-6 -3l-4 -16h-10l-15 -33l-32 -51l-9 -33l-16 -24l-33 -58l-22 -26l-15 -31l-32 -55l-33 -55l-4 -64l6 -6v-21l10 -53h-4l-2 -8l6 -14l10 -66l11 -16l-6 -17l8 -2l-4 -8l8 -10l-2 -15l12 -16l2 -67l6 -17l4 -29l13 -30l4 -31l8 -61l8 -13l2 -65l8 -10 l7 -17l-3 -6l7 -27l2 -36l4 -5l6 -32l8 -66l10 -63l-8 -13l-14 -6zM702 154h-6l-10 10l-6 14l-8 4l2 -24l16 -25l-12 -14h4l14 -15l37 15l27 -19l10 19l-4 37l-10 32l-2 33h-25l6 -14l-16 -10l-6 -15v-16zM604 868l2 6v9l-12 26v15l-6 2l-2 -4l-29 -13l-2 -8l10 -2l4 -6 l-4 -16l2 -33h8l5 14zM272 80l-2 4l15 41l-11 2l-18 -4l-4 -19l-6 -4l-8 19h-5l-2 -10l5 -15zM711 16v7v6l16 14l2 8l-39 -10v-16l10 -9h11zM180 193l-2 -7l-12 -8l-16 4l-3 19l7 6l24 -4zM324 418v6l2 4l-4 16l-13 9l-8 -19l2 -8l10 -8h11zM530 668v4l7 8l16 2l-6 23l-8 8 l-7 -2l9 -11l-11 -4l-2 -8l4 -6l-6 -12zM717 319l-2 -2l-8 -16l8 -10l8 10h12l-2 14l-6 4h-10zM283 541h4l8 6l2 16l-8 10l-8 -8l-2 -16zM307 481l2 2l4 9l-8 22l-6 4l-6 -2l8 -33zM307 358l2 2l15 19l-2 14l-3 -4l-14 -6v-10l-6 -15l10 -6zM614 956v5v6l-10 12l-4 -4l6 -17 zM559 813l-2 -4v-8l6 -6h6l2 4h-4l-2 16zM606 573h6l6 5v8l-4 4l-6 -6l4 -4zM618 1020l3 -2l8 4l4 8l-2 4h-6zM221 45l-2 -4l2 -6l8 -4l4 6zM184 143l-2 -4l4 -8l9 -2l2 4z" />
<glyph unicode="l" horiz-adv-x="798" d="M741 133v-4l-4 -27l-12 -67l-14 -23l-43 -8l-72 -4l-66 -2l-65 2l4 8l-20 -2l8 29l-6 6l-31 2l-6 6l-23 -24l-2 -15l-12 -6l10 -4l-10 -4h-49v4l-23 -6l-69 6l-33 -4l-66 10l-2 14l-10 9l-2 22v68l16 59l2 33l4 63l11 66l4 63l12 29l4 66l6 63l11 66l10 63l6 62l4 67 l12 60l8 63l7 72l6 71l4 62l10 65l6 66l10 63l9 64l16 27l4 26l29 25l31 4l67 -6l33 4l14 8l2 -4l-4 -2l33 -2l12 -8h8l2 -23l-4 -57l-8 -74l-22 8l14 -39l4 2l-4 -45l-4 -65l-10 -64l-11 -65l-6 -64l-8 -65l-12 -66l-10 -63v-31l-13 -66l-4 -67l-4 -66l-4 -63l-10 -64 l-17 -63v-31l-6 -72l2 -28l19 -25l12 -2l6 -6l27 -4l65 6l64 -4l69 -4l31 6l14 8l11 -12l14 -8l10 -15h11l-9 11l2 2l7 -4l6 -15zM664 133l-2 6l6 4v15h-6l-13 -11l-2 13l4 14l-2 8h-10l-16 15l-7 -9l2 -6h-8l-2 -6l21 -18l-2 -11l6 -10l-15 -4v25l-49 -4l-2 -7l13 -2l8 -22 l-6 -17l2 -32l43 6l-4 -21l10 -10v8l10 4l6 9v16l8 2l7 8v37zM532 98l3 6l-13 25l6 25l-8 4l-6 -4l-4 -19l-8 -2l-2 12l10 13h-31h-61l-4 8l-8 4l-9 18l-6 -2l-8 -18l23 -16l-7 -2l4 -21l-6 -10l15 -10v10l18 4l8 10l21 10l-4 -22l-11 -27l19 4l6 -18l14 -6l6 2l7 8l-19 14 l-6 15l4 14l-6 12v8l20 5l11 -39h28v-11zM309 119l2 4l11 10l6 19l-33 10l-2 16l-14 8l-3 -8l-8 -2l-2 -10l-6 -6l4 -8l6 2l6 -4l9 -27h18zM217 80l2 6l-8 20l4 17l-16 10h-11l-2 -29l4 -12zM467 1077v4l2 21l-4 4l-10 -2l2 -19l-13 -16l7 -6l2 8zM229 143h4l13 2l10 13 l-8 2l-10 12v-8l-9 -12v-9zM240 264v-4l-2 -12l4 -6l8 -2l2 10l-4 14h-8zM496 197l-4 2l-11 2l-8 -15h12zM436 84l2 4l-2 12l-12 2v-12l4 -6h8zM475 6h4l8 4l5 8l-5 7l-8 -5v-10zM686 197l-2 -9l2 -10l8 10l6 2zM625 102l2 -2l-15 -14l-10 -2l6 8l15 4zM453 1159v-4l-2 -6 h10l2 10h-10z" />
<glyph unicode="m" horiz-adv-x="1247" d="M1106 12h-2l-35 -8l-74 -2l-69 2l-11 6l-6 15l-2 28l6 23l-4 2l-4 12l-2 33l19 63l6 66v63l16 64l4 65l10 64l3 63l10 33l8 64l8 65l8 64l15 63l-2 33l-13 63l-14 -10l-8 -12l-8 -33l-15 -29l6 -4l-8 -26l-12 -8v-31l-25 -58l-6 -32l-16 -66l-21 -59l-24 -62l-13 -63 l-12 -31l-6 6l2 17l-4 2l2 8l6 -2l4 4l-6 4l-2 18l-22 41v-10l-15 -10l10 -33l11 -10l-2 -8l4 -17l-4 -10h-4l-7 -22l-6 -7l-16 -4l-2 -6l20 6l4 -6l-4 -10h-28l-19 -29h17l43 19v-13l-13 -30l2 -17l-8 -26l-18 -60l-21 -63l-10 -10l-4 -33l-8 -29l-23 -63l-18 -27h-8 l-23 -10l-29 10l-8 -10l-18 2l-37 12v12l-14 9l-2 8l6 4l-9 16l9 25l-4 39l-9 14v8v64l4 8l-8 4l2 16l-8 11l6 51l-6 10l8 4l-2 33l-8 12v8v66l-4 4l6 45l-8 8v11l6 14l-4 10l8 21l-4 4l2 14l-8 21l2 14l-4 8l-4 64l-4 63l-8 33l-9 2l2 10l-8 31l2 10l-4 4l8 12l9 31l-5 2 l-6 47l-16 29l-10 -8l-17 -49l-2 -70l-10 -33l-10 -55l-17 -59l-8 -66l-6 -70l-6 -65v-66l-8 -63l-6 -64l-9 -67l-4 -66l-8 -63l-20 -60l-48 -12l-6 2l-2 6l-12 -6l-33 -6l-71 4l-27 10l-2 37l6 66l10 63l4 66l13 59v70l4 18l8 56l6 71l10 70l9 57l10 72l8 57l6 68l8 71 l8 33l9 64l2 65l10 60l10 71l4 58l6 67l13 70l24 61l13 9l30 8l6 -2l58 -2h74l63 4l37 -4l24 -15l7 -12l4 -31l2 -71l4 -7l-10 -14l2 -20l10 -19l-6 -16l-11 -8l7 -4l-13 -23l-8 -2l-4 -6l4 -6l10 8v4l4 -12v-19l5 -6l8 -2v12l6 6l-6 7l2 14l6 -12l2 -33l4 -55l4 -66l4 -61 l2 -68l11 -14l-2 -25l6 -14l-13 -25l5 -14v-35l6 -20l-2 -33l6 -31l14 -29l2 -63l17 6l12 12l16 27l-4 25l16 26l11 33l-2 14l8 15l6 24l10 4l10 33l7 2l-7 16l7 25l-4 16l14 27l12 12l14 66l11 -4l12 8l-2 4l-10 -4v-4l-2 22l12 25l6 31l10 10l-2 16l4 15l-2 16l19 12l4 19 l6 4l-8 14h6l6 13l12 67l7 4l14 47l6 4l4 23l4 4l13 68l14 34l37 15l30 -4l68 -4l29 4l67 4l31 -8l29 2l22 -13l4 -18l-8 -60l-4 -67l-14 -31l6 -41v-28l-10 -31l-5 -31l3 -35l-5 -32l-12 -62l-8 -65l-6 -68l-10 -66l-7 -63l-8 -61l-12 -68l-4 -57l-17 -27l-2 -18h5l4 20 l4 2l6 -6l-10 -57l-7 -64l-10 -65l-2 -64l-8 -29l-10 -69l-13 -66l-2 -65zM1075 1161l-2 -6l10 -39l-32 -8l2 -12l12 -9h10l12 21l13 8l10 -8l31 -6l4 24l-12 15l14 10l12 -10l4 -25h8l11 31l-2 6l-21 12h4l-4 11l12 4l-16 34l12 11l-4 2l-4 22h-8v8l10 7l-8 2l-2 6l4 26 l-12 -4l-31 -2l-16 39l2 10l-25 7l2 -13l12 -10v-16l-10 -11v-10l10 -28l-6 -31l4 -17l9 -12l-7 -10v-35l17 4zM1147 1464h-4l-43 -14v-10l10 -31l-2 -8l-10 -49l10 -2l35 6l6 -21l6 -4l8 45l-10 10l6 33l-14 25zM999 115l2 2l11 16l22 23l8 22l-6 4l-20 -10l-8 10l-27 2 l-18 23l2 10h-11l-6 -4l2 -25l-14 -28v-10h27l10 8l-6 -49zM471 1176l2 6l-2 32l-20 39l6 9l-4 12l-9 4l-4 -10v-33l-18 -16l6 -5h16l2 -4l-4 -4l7 -6l-11 -4l-18 8l-4 -12l14 -27h-4v-4l12 -10zM557 1165v-4l-14 -43l-2 -31l10 -10l8 8l8 -2l2 9l15 6v30l4 9l-15 4l-4 14 l2 10h-14zM557 995v-4l6 -33l6 -2l4 62l-8 41h-14l-6 4l-4 -12l10 -27l-12 -12l-2 -8zM1096 182l2 6l-2 9l4 10l-19 8l-16 27l-12 -21l4 -33l-6 -16h14l6 -4l8 12zM281 66l4 4l2 4l-11 14l-2 12l-20 33h-14l-9 -45l2 -12l37 14l4 -20zM827 735h4l11 6l2 9l-8 6h-27l-18 -25 l2 -6v4l24 2v-16l8 -4l4 8zM866 848v4l13 35l4 35l-17 -2l-2 -5l4 -2v-10l4 -6h5l-21 -18l-8 -17l10 -14h8zM229 217l2 2l7 14l2 19h-15l-4 -14l-16 8l-8 -15v-10l4 -4l20 12v-8zM1157 510l2 -4l-2 -10l-16 -25l-4 -14l12 -11l8 11l10 35l-4 12zM610 877h4h4l3 6l-21 6 l-14 -2l-15 -10l7 -5l2 -10l14 2zM1155 662l-2 -3l-10 -18l-4 -37l-9 -2l-2 -4l15 2l10 16l4 21l-8 2v4l14 8v6zM1122 266l-2 4l8 25l-8 10l-14 -45l8 -6l-4 -8l18 6l2 4zM694 158l2 2l6 22l-4 17l-6 4v-10l-6 -17l2 -14zM588 823l4 -2l14 -2l-2 39zM905 1137h-4l-18 14 l-11 -4l9 -2l10 -21l8 -2zM1022 412v-4l-4 -17l6 -12l8 8l2 16l-4 7zM940 94v4v19l-8 2l-4 -6l4 -17zM217 319v-4l-12 -24l4 -6l16 24zM829 827l-2 -4v-8l4 -2l11 10l6 15h-12l-7 -4l7 -9zM1118 203l-4 2l12 10l-2 6l-18 -4l8 -18zM639 1122h-4l-8 -4l-4 -16l14 4zM1079 397 v-6v-4l13 -2l12 12h-25zM1077 1063l2 -2h25l4 6l-29 2zM1110 164h4l10 12l-2 8l-6 4zM377 965l-4 -4l-6 -7v-6l6 -6l6 2l2 6zM758 330l-2 -4l-13 -4l-6 -7h11l14 -6zM551 1200l-2 -4l-2 -4l12 -12v20h-8zM705 408l2 2l4 16l-9 2l-2 -14zM819 862h-4l-2 17l-6 -2v-15l6 -4z M1024 61h4h14v9h-18v-9zM1090 76l-3 -4l11 -4l6 4l-2 6l-10 2zM1106 1161h-4l-4 2v17l6 -2l-17 -7zM1159 1087v5l-8 10l-8 -15h16zM381 995l-4 -4l-2 -2l8 -10l6 16h-8zM1174 999l-3 -4l-6 -6l15 -4v6zM1106 1137h4l4 -2v-13l-8 4v11zM422 1126v4l4 3l-2 6l-6 -2zM805 541h4 l4 12l-6 -8l-6 -2z" />
<glyph unicode="n" horiz-adv-x="997" d="M862 31l-2 -2l-20 -23l-41 -6l-68 -2l-61 14l-19 45l-4 33l-18 45v27l-8 16l6 6l-2 17l-25 63l-14 66l-13 28l-6 50l-10 10v28l-12 46l-13 65l-22 64l-4 22l-10 68l-15 65l-32 51l-7 -8l-8 -31l-8 -14l-6 -33l-4 -65l-8 -31l-5 -35l5 -30l-2 -9l-17 -63l-6 -66l-10 -32 l-4 -33l-2 -66l-7 -65l-4 -66l-12 -65l-2 -64l-8 -16l-6 -2l-11 -21h-4l-61 -14h-35l-24 8l-15 -4l-10 6l-37 2l-14 6l4 31l10 66l-2 65l12 64l-2 32l8 31l13 66l4 65l8 33l2 59l8 64l8 70l11 67l10 62l4 65l8 29l2 30l8 66l5 68l8 65l10 66l8 63l8 -4l9 2l4 6h-19l-4 15 l8 41l13 10l2 8l20 8l4 19l-20 8l-6 6l10 31l14 2l12 16l9 2l8 14l-14 5v8l14 8l2 6h-4l-6 8l-9 2l-2 9l19 8l63 -2l37 4l13 6l61 -21l8 -16l19 -61l10 -68l6 -6l14 -64h-2l15 -47l6 -65l6 -15h-4v-6l16 -63l12 -8v-19l9 -2l4 -47l8 -2l-2 -8l8 -13l2 -47l12 -30v-25l5 -6 l8 -2l-4 -12l10 -48l6 -8l16 -65l11 -13h12l10 17l8 69l6 5l-4 2l2 8l13 8l4 8l-10 8l4 35l14 66l-2 63l10 31l2 33l8 32l7 3l8 -15l12 10l21 66h-7l-10 -18l-8 18l-25 -4v29l15 45l2 63l10 35l-2 65l6 17l19 61l12 13l8 -11h8l-2 -10h10l4 -12h15l12 14l-4 4l-2 23l6 6h8 l56 -10l65 -15l2 -8l-4 -2l6 -18v-31l6 -6l-12 -56l-6 -63l-10 -55l-8 -70l-7 -72l-4 -63l-12 -64l-4 -53l-8 -65l-8 -66l-11 -61l-6 -70l-4 -66l-14 -63l-8 -66l-9 -65l-2 -68l-8 -61l-18 -59l-2 -35l4 -13l-2 -12l-9 -74zM791 281v6l8 18h-8l-3 8l5 17l-11 10l-2 41l-20 2 l-17 -23l-24 -20l-14 -45l28 8l10 -8l-8 -14l15 -21l24 31l8 -2v-6zM846 442v4l6 64l-8 10l-17 -20l4 -6l-8 -17v-10l-32 -35l-3 -10h15zM907 1190h2l-2 -8l-12 -11l4 -20l-2 -10l14 2l4 6l-2 14l13 27l-13 6zM860 573h-4l-16 2l-9 -6l7 -6l10 -24l8 -4zM895 1243l-2 -2v-14 l10 -2l-2 14zM309 1415h-4h-8v15l10 -5l4 -6zM825 559h-4l-12 -2l-4 -8zM805 1116h-4v-4l-4 4v10l8 -2v-8zM311 1464l4 -2h4l-8 -8v10zM319 1462v2v-2z" />
<glyph unicode="o" d="M551 -12l-2 4v2l-41 -10l-62 -9l-36 -2l-29 11l-31 4l-4 8l-14 2l-15 8h-12l8 23l-10 12l2 10l-6 -8l4 -16l-2 -9l-14 2l-8 11l-15 6l-4 -10l6 -4h-12l-4 6l-25 10l-12 12l-43 45l-2 17l-10 8l2 6l-29 37l-6 65l-10 23l2 31l-4 32l6 7l2 12l4 63l8 70h4l-2 29l17 47 l-5 65l7 31l2 63l8 58l8 67l10 68l15 66l4 65l14 61l10 66l8 64l15 28l20 60l21 20l2 14l20 27l6 16l13 4l16 19l14 8l21 27l59 30l19 3l35 12l63 14l6 -4l6 -14l13 2l14 8l4 -2l6 16l43 -4l10 -10l27 10l23 -2l32 -12l17 4l6 -8l31 -8l20 -15v-10l10 2l17 -16l4 4v-4l10 -4 l8 -15l19 -2l22 -33l-16 -24l-2 -12l6 -9l4 2l2 9l-4 6l4 4l16 -6l7 6l12 -12l14 -46l10 -69l-6 4l-8 -8l2 -4l12 4l-8 -17l2 -8l4 8l5 -4l-3 -16l5 -4l-5 -39l-12 -64v-32l4 -64l-14 -31l-6 -32l-8 -66l-7 -63l-8 -31l-6 -59l-6 -68l-8 -70l-13 -63l-6 -64l-4 -67l-12 -66 l-16 -63l-15 -29l-28 -59l-25 -25l-16 -22l-39 -46l-58 -34l-22 -21l-17 -4zM565 219l4 2l19 17l2 14l10 10l-2 8l8 29l2 33l13 30l8 66l-4 31l8 20l6 33l4 59l2 66l4 65l17 54l2 30l2 66l20 61v31l8 68l7 67l-5 31l13 68v30l-27 60l-12 2l-2 10l-17 2l-2 8l-53 4l-61 -16 l-27 -18l-6 -13l-19 -16l-6 -35h-10l-12 -39v-10l-4 -62l-6 -34l-15 -62l-2 -31l2 -65l-12 -64l-8 -67l-19 -17l-2 -18l6 -20l-4 -9l-6 4l-2 9l-14 6l-6 -10l4 -5l12 5l2 -5l-10 -4l-2 -10l-13 -2l-2 -8l11 -10l14 6l6 12l8 2v-51l-6 -68l-10 -69l-10 -70l-9 -65l-4 -58 l11 -63l22 -27l21 -6l4 -8l18 6l64 -14l16 4zM266 688v4l8 21l-20 -8l-16 -3l-2 -6l14 -6l2 -6h-19l-6 4v-14l-16 -37v-8l6 -6v-23l25 4l2 8l26 62zM770 770v-6l8 -12l-6 -4l23 -17l22 12l21 21l2 16l-31 17l-16 4l-2 -8zM223 776l-2 -4v-61l-8 -4l10 -9l2 4l8 -4l7 11l2 18 h-11l-8 10l13 8l16 -6l8 2l-10 41l-12 29l-11 -4l9 -2v-8zM840 928v-6v-4l-19 -19l2 -16l-6 -15l17 -28h6l2 24h8l6 54l-8 8zM731 565v4l-6 49l4 7l-14 -4l-10 4l-3 -7l7 -8l2 -16l-17 -43l4 -4l19 10l6 -2zM270 840h4l11 -6l4 6l-4 14l6 33l-8 12l-15 4l-8 -16l8 -19 l11 -10l-5 -2zM786 1333l-2 -4l-6 -10l-26 -21l10 -14l8 -4v10l8 13l29 12l8 14l-10 4h-19zM324 596l4 4v16l-15 23h4l9 14l-19 -8l-8 -12l-2 -10l12 -21zM160 618l2 5l22 2l6 4l5 33l-5 6l-22 -15l-2 -18l-6 -2l-4 -8zM195 291l-2 4l-7 10l11 10l-7 7h-8l-2 -11l-20 -10 l-6 -25l8 3l18 18h6zM172 565l2 -4l8 -6h8l13 6l-2 12l-6 7l-9 -2l-8 -13v4l-18 11v-15l6 -4zM864 977l-4 2l-6 2l-14 -10l-2 -8l12 -2l2 -5l-8 -24l10 2l8 12l-8 23zM588 1403v-6v-8l10 -11h8l6 25h-24zM360 981l-2 -4l-6 -12l-2 -17l12 -6l3 35zM770 618l6 3l10 -3l13 -8 l6 8l-8 3v8l-21 -2zM737 1245v6l-4 11l-14 8l4 -17zM141 268l-2 -4l8 -10h9l4 4l-8 10h-11zM788 770l5 -2l4 -10l-15 -6zM819 762h-4l-8 2v12h6zM631 1425h-6l-9 -6l7 -12zM236 629v4v6h10v-10h-10z" />
<glyph unicode="p" horiz-adv-x="950" d="M721 608h-4l-41 -4l-64 -10h-32l-66 2l-65 -8l-11 -10l-14 -25l-8 -31v-69l-17 -64l-4 -65l-8 -66l-4 -65l-6 -64l-4 -2l-2 -55l-9 -35l-14 -27l-16 -4l-17 -12h-14l-68 12h-32l-64 2l-14 12l8 15l-4 6v12v66l10 63l10 64l7 65l8 60l6 63l8 68l8 69l6 68l5 66l6 63l12 63 l10 64l2 68l6 30l13 31v25l4 63l8 66l2 65l6 17l15 59l2 70l6 30l12 8v17l12 20l15 9l28 6h35l68 -6l65 6l64 -11l32 2l64 9l63 -6l66 -7l6 -6l10 -2l7 -8l32 -8l23 -21l14 -2l2 -14l17 -14l41 -50v-16l4 -12l22 -66v-16l8 -6l-2 -11l4 -4l-6 -49l-2 -61l-4 -66l-8 -65 l-10 -66l-21 -65l-20 -60h-10l-17 -37l-45 -51l-45 -45l-31 -10zM676 823l4 2l14 9l-2 4l6 14l13 12l10 29l10 16v31l17 64l-9 22l13 61l-2 37l-9 31l-16 64l8 6l-12 10l-2 10l-19 8l-2 11l-22 2l-10 8l-31 6l-29 -4l-67 -8l-23 -27l-16 -31l2 -32l-6 -70l-7 -59h-18l-8 -15 l4 -2l14 10l2 -4l-6 -30v-29l-8 -64l-12 3l-11 -7l3 -18l14 -31l-4 -24l16 -29v-8l12 -10l29 -5l78 7l57 14zM805 1010l-2 -2l-10 -35l2 -17l6 -10v4l16 11l-4 12l16 6l2 25h-6v-13h-12l-4 19h-4zM459 1225l2 -2l14 -9l12 5l7 6l-9 12l2 18l-4 9l-6 -7h-8l-4 -26zM764 842 l-2 -4l-19 -17l2 -4l3 4l8 2l14 -6v23zM252 354l6 -2l21 2l6 8l-6 5h-17zM356 236h6l11 4l4 16h-10l-7 4v-20zM776 1434h-4h-8l-2 -4l12 -21l4 4zM281 330l4 -2l4 2l2 14h-8zM344 250l-4 -2v-12h10v10zM774 1362v-4l-2 -6h10l2 10h-10zM330 412v4v6h-11v-10h11z" />
<glyph unicode="q" d="M621 -315h-5l-36 6l-29 -6l-39 12l-55 31l-2 6l-23 6l-6 -2v10l-10 2l-15 10l-2 13l-16 12l2 12l-27 21l2 8l-10 6l6 14l-8 -4l2 11l-18 16l-10 47l6 23h-11l2 16l-8 12v6l-14 21v8l-33 18l-18 3l6 14l12 10l-10 -2l-8 -10l-8 -2v6l-19 6l-29 18l-18 25l-12 33l-21 24v9 h-10l2 10l-8 20l6 4l-6 9l-14 67v37l8 64l12 65v33l8 61l6 64l11 53l8 72l6 71l10 68l10 63l9 66v63l12 68v33l10 24l12 52l21 53l6 6l-4 8l12 10l6 25l7 2l10 12l2 15l35 26l4 13l12 10l2 10l8 2l19 23l14 4l4 8l12 2l52 27l2 8l39 2l26 12l12 -8l-2 8l19 6l33 -4l2 -6 l28 10l17 -6l65 10l17 -4l10 -10l65 -14l-10 -8l-2 -9l4 -16l8 -8l9 10l-2 25l55 -39l16 -4v-5l10 -10v-10l13 4l4 -16l20 -13l13 -39l24 -59l4 -31l-4 -18l8 -12l-4 -17l11 -14l-9 -27l-4 -63l-8 -31l-2 -33l4 -32l-10 -33l-6 -64l-10 -55l-11 -70l-6 -71l-2 -60l-6 -71 l-12 -66l-17 -29l2 -30l-8 -68l-12 -63v-29l-15 -35l-28 -61l-6 -29l-9 -6l-4 -21l-24 -22l-6 -17l-21 -20l-55 -37l-33 -8l2 -6l-14 -4l-2 -13l-53 -22l-21 -23l-12 -22l6 -17l20 -26l27 -12l12 -13l70 -2l29 -12l4 -16l6 -3l-12 -14l6 -12l4 -27l-6 -35l-21 -67l-18 -8 l-17 -2l-8 10l-12 2l-6 -12h-8zM408 213l2 -2l18 -14l35 -4l59 6l41 24l6 -4l11 8l-5 6l13 48l24 57l6 33l7 65l12 64l-2 61l6 31l12 67l9 66l6 68l8 65l10 62l8 71l8 66l7 59l4 70l-6 59l-48 35l-12 -6l-37 16l-39 8l-26 -8l-27 -18l-8 -17l-8 -2l-25 -28l-2 -8l-8 -3 l2 -10l-8 -33l-6 -4l6 -6l-4 -16l-13 -64l2 -63l-8 -33l-2 -33l-6 -63l-12 -64l-4 -65l-11 -66l-10 -67l-12 -66l-8 -59l-2 -64l-6 -63l-11 -2l-2 -8l8 -15l-4 -31l4 -63l35 -41zM539 -188l2 2l16 10l2 8l-31 18l4 25l11 -10l12 2l-4 31l-12 26l-2 -4l-13 -2l-2 -4l23 -14 l-2 -4l-31 -15v-10l-6 -4l-8 14l-15 8v-4l11 -10l-7 -12l5 -6h-7l-16 -11l-8 -28l8 -2l2 -17l6 -2l33 25zM801 834l-2 -3l-11 -6h-18l-6 -18l-16 -25l-3 -16l9 -29l14 -6l2 -8l6 -2l12 27v32l25 35l-6 4v10zM322 946v4l-3 23l7 8l-29 25l-2 -13l10 -55l-16 -47l2 -12l14 -11 l4 45zM764 1137v-2v-33l-6 -15l12 -30l8 -2l6 14v31l-6 33l4 63zM788 981l-2 4l-10 4l-14 -6l-8 -16l2 -9l10 -12l-6 -8v-35l10 -4l6 -14l6 4l-6 8l8 10l-6 8l-10 31l2 10l12 11zM420 -119l2 2l10 23l-8 6l-2 27l-6 14l-8 2l-5 -4v-8l9 -13l-9 -16l11 -12v-17zM643 150 l-2 -7l-8 -37h29l-3 13l-8 10l21 21h-29zM459 51l4 -2l24 -4l7 -4l-2 18l-19 23zM340 434l-2 -2l-2 -8l4 -37l10 -6l8 4l-2 18l-10 13l-2 16zM399 27v-4l4 -13l23 -2l4 23l-2 6zM350 33l4 -2l15 -4v18l-13 6zM295 213h4h14l-2 14h-10zM575 -231v4l9 22l-9 2v-10l-14 -14z M319 1069l3 2v16l-9 3l-2 -11zM313 1128v-4l-2 -12h8l3 16h-9zM709 -182l-4 2h-13l2 -8v2l8 -2zM436 -23l2 5l4 6l-8 6l-8 -10zM440 -41v4v6h-10v-10h10z" />
<glyph unicode="r" horiz-adv-x="931" d="M260 -4h-4h-29l-67 4l-27 8l-10 10v50l-6 32l8 31l10 66l21 59v47l4 66l12 65l8 66l-6 65l12 66l9 65l12 66l4 65l18 64l2 63l13 68l4 59l8 66l-2 67l8 31l10 64l9 67l6 68l6 2l12 18l25 17l59 2l76 -4l63 -6l31 2l64 2l69 2l6 -4l17 4l33 -4l12 -7l12 7l8 -7l31 -8 l10 -16l19 -8l53 -35l2 -8l25 -13l2 -6l12 -8l14 -29l8 -32l9 -66l10 -10l4 -49l-6 -9l2 -30l-8 -15l6 -16l-6 -23l4 -49l-4 -2l-11 -59l-10 -70l-8 -16l4 -4l-12 -15l4 -14l-16 -24l-19 -60l-47 -45l-47 -49l-27 -12l-2 34v68l-6 -2l-10 6l-10 -10h-19l4 10l8 -2l19 27 l-2 4l-8 2l16 4l-2 -14h25l-3 16l-12 2v4l6 2l-10 29l12 29l4 32l7 13l-9 10l-14 8h-18l4 -10l-8 -8l-23 4l6 10l27 16l18 2l2 11l15 16l2 18l-17 25l-2 10l10 10l3 9l-11 63l-10 -8l-4 -14l2 -17l-4 -14l-16 -6l-23 -23l-2 8l6 68v66l-8 8l-10 49l-17 27h-4l-63 10l-68 4 l-31 -14h-8v-13l-14 -30l-8 -29l-4 -33l-5 -65l-10 -31l-2 -31l2 -65l-10 -31h-4l-4 6l-2 18l-6 5l-17 -15l-4 -35l6 -8l27 -2l-6 -20l-10 -4l18 -43l-6 -3l-6 5l-9 14l-8 2l-4 -4l-2 -12l6 -23l-2 -8l-8 -6v-6l16 -5v-4l21 -63l20 -12l4 -9l-8 -18l-20 -10l4 -2l4 -13 l2 -36l12 -9l-45 -14l-10 -16l-6 -31l-8 -64l-2 -63l-11 -66l-8 -63l-10 -66l-8 -65l-10 -33l-5 -35l-4 -63l-14 -29l-14 -4zM813 -4h-2h-27l-69 2l-72 12l-22 10l-3 9l-14 63v66l-4 16l-6 6l-2 23l-12 63l-5 64l-16 43l-6 4l-8 18l2 23h-4l6 10l-4 4l6 19l-6 16v47l-4 6 l-17 64l-28 28l2 35l-4 15l4 4l2 -9l6 9l8 34l-10 7l2 8l-10 6l-4 10h-15l2 8l-8 6l8 21l10 12l-22 27l-2 18l8 -2l6 -12l21 -2l10 -8l25 4l65 6l2 4l10 -4l19 4l53 35l2 18l10 11l9 32l8 11l18 -5l-4 -8l-18 -10l-2 -10l4 -4l18 14h19l4 -14l-2 -11l-37 -8l-13 -8l-2 -8 l13 -17l14 -4h20l-16 -20l-4 -16l4 -7l-27 -14l5 -16l-9 -15l27 6l31 -10l10 -10l-10 -20v-15l4 -2l2 4l2 -6l-25 -33l11 -20l-2 -25l6 -63l10 -15l10 -45l4 -61l10 -31l-4 -24l2 -17l13 -65l12 -64l10 -63l10 -66l7 -14l-7 -25l5 -12l6 -4l-4 -21l-19 -22h-6zM745 115v4 l-14 20l8 4h-10v11l-22 34v9l12 10l-10 8l-7 41l15 -4l2 8l-14 2v35l-5 12l9 15l-9 2l-2 4l11 14h-9l-2 -8l-10 -2l-6 -25l-14 -10l16 -43l4 -35l-16 -18v-10h-13l-10 -11l21 6l4 -6l-2 -10h-29l-14 -29l6 -4l8 8l33 7l29 24l-5 -16l-10 -6l12 -17l-4 -10h15l2 -10h22z M311 995l-2 -4l-2 -16l12 -21l-4 -2l11 -12l34 25l2 20l-22 57l6 13l-12 12l-8 -49l-13 -8l21 -6l-2 -9l6 -6l-4 -4h-8zM680 100v6v13l-8 12l-13 8l-2 -10l9 -16l-4 -4v4l-7 4l-22 -6l-8 -17h12l12 6l4 -12zM727 535h-4l-27 -23l-12 -6l-8 4l2 -10l16 -17l6 -12l9 2l2 25 l6 6v20l8 2zM213 242l-2 -6l8 -19l33 6l4 8l-8 9l-17 -4v12l-6 4l-6 -6l2 -2zM741 961l-2 -5l-4 -6l-14 -8l-2 -6l-10 -8l6 18l-4 12l2 13l26 4l-2 -4zM705 668h-5h-10v-15l6 -10h11l-5 14zM748 1014l-5 -2l-2 2l7 4l-3 16l7 15l4 -2l2 -11zM688 422h4h4l11 10v10h-9l-4 -14 zM276 795l-2 -4l-10 -17l8 -4l9 23zM719 623l-4 -2l4 -3l-2 -14l4 -2l2 16h-4v5zM315 922v4l-8 6l2 -17z" />
<glyph unicode="s" horiz-adv-x="884" d="M649 70l-4 4l-14 -4l-4 -9l-13 2v5l-12 2l-6 -4l6 -11l-2 -8l-20 2l-25 -8l2 10l-8 10h-17l-2 -16l5 -6l43 -8l-11 -19l2 -14l-47 -8l-6 8l4 8l-10 -2l-6 -22h-35l-61 4l-25 6l-23 -4l-26 14h-10l-60 25l-6 -4l-4 8l-47 28l-2 11l-4 -4l-4 2l6 8l-13 8l-6 16l-22 25 l-2 14l-15 27l-4 37l-8 33l-8 61l6 65l2 68l8 31l19 31l14 6l33 6l72 6l63 -12l25 -15l2 -24l-7 -31l-10 -72v-32l6 -15v-22l21 -64l6 -6h10v-10l17 -4l28 -15h49l62 19l22 18l17 21l16 -8l4 2l6 24l13 12l16 -10l-4 25l-14 6l-6 -2l8 35l-6 16l-2 64l-13 30v17l-10 20v8 l-8 9l-4 24l-13 2v21l-22 12l-37 51l-8 23l-33 20v4l-12 13v8l-25 16l-18 23h-17l-16 26l-23 25l-18 29l-12 28l-41 51l-4 13l-17 24l-8 33l-8 14l-4 31l-6 4l8 6l-6 19l-6 6l-4 57l-5 53l-8 3l15 47l16 63l16 27v6l11 14l8 2l2 11l16 30l12 8l11 33l51 39l20 27l17 6l22 20 l17 2l51 23l31 8l10 -6l59 10h66l61 -10h33l43 -27l8 -12h8l21 -16l10 -2l2 -9l41 -51l8 -16l6 -33l15 -29l-4 -14l4 -72l6 -12l-2 -14l-8 -68l-6 -67l-9 -27l-45 -14l-35 -2l-59 2l-63 10l-9 43l7 65l4 70l-9 27l-2 20h2l-18 25l-45 20l-37 4l-33 -4l-26 -12l-23 -21 l-20 -28l-29 -55l-8 -31l6 -31l18 -68l29 -57v-8l4 -4h8v-14l25 -19l18 -33l27 -18l18 -27l37 -57l13 -8h10l6 -11l45 -47l4 -16l8 -4l37 -51l6 -2l2 -13l13 -12l6 -14l-2 -6l33 -54l2 -16l12 -64l10 -12v-10l2 -66l-2 -67l-14 -64l-10 -12l-19 -51l2 -8l-6 -25l-6 -6 l-43 -49l-43 -49l-57 -33l-7 29zM307 139h-6l-18 4l-7 21l13 -4l16 2l23 12l-6 14l-11 11l-16 26h-19l-24 -18l-14 4l-21 -43l6 -2l4 -16l43 -39l29 14zM766 1171l-2 -2l-4 -53l12 -4l16 4l17 -2l12 -8l14 10l-2 17l17 4l4 24h-8l-4 -4l4 -10l-11 2l-4 6l2 10l-22 2l-4 4 l14 21l-2 4l-20 -4l-13 -16zM420 70l2 4l14 22l13 6l6 -2l-4 21l-13 8h-10l-2 -10l-10 -8l-31 -11v-10l6 -14l10 -10l2 4h17zM473 1372l2 -4l10 -10l7 -15l8 -2l6 19v14l-4 68l-4 2l-4 -19l-15 -4l4 -20zM522 66l4 2l54 18h-5l-65 -6l-14 -6l-2 -8l-19 -7zM618 133l3 6l4 11 l12 2l8 -5h14l7 7l-11 4v8l-8 4l-18 -2l-13 -8l-4 -13zM178 340l6 -2l21 -6l14 2l-20 31h-11zM784 358l-2 -4h-6l-6 6l-4 -2v-14l6 -16l-8 -9l12 3l10 16zM510 1260v6l-4 10l-8 2l-15 -6l-4 -8zM459 100l4 -2l20 -8l-2 16l-6 13l-4 -10zM575 129l3 4l-5 10l-8 2l-14 -6 l14 -10h10zM823 428v-6l-10 -19l14 5l9 14z" />
<glyph unicode="t" horiz-adv-x="841" d="M942 1358l2 -2l4 -8l2 -31l-6 -35l-12 -10l-27 -10l-33 -2l-69 2h-70l-31 -9l-8 -14l2 -4l-10 -18v-13l-18 -65l-4 -29l-2 -66l-5 -61l-16 -65l-4 -60l-6 -70l-4 -67l-9 -64l-6 -65l-8 -33l-8 -65l-6 -66l-17 -61l2 -31l-10 -68l-6 -61l2 -64l-20 -59l-11 -66l-53 -16 l-65 -14l-33 2l-64 18l-8 10l2 9h-8l-4 4l4 16h-8l6 47l10 66l8 65l9 64l10 65l10 64h4v-4l15 -4l22 14l-4 -6l6 -10l-2 -13l6 6l-6 33l-10 -2l-15 -10l-14 2v4l2 64l6 6h-4l4 55l6 68l13 63v35l6 33l10 28l-2 31l4 33l8 63l9 66l6 67l20 -6v31l-14 -6l-2 26l4 31l10 12v9 l8 63l-8 19l2 12l-18 24l16 15l2 16l-6 12l-12 -6l-8 -12l2 -14l-25 6l-31 -4l-37 2l-65 -10l-47 16l-8 10v8h-9v41l7 66l14 26l4 19l-2 10l10 6l2 8h8l15 11l49 -2l63 4l62 -6l70 -7l61 7l72 -7l65 11l33 -6h31l63 2l68 4l65 -2l15 -9l4 -36l-4 -37l-21 -11l-2 -10l4 -14z M385 1333l2 2l8 2l25 -4l8 4l-4 49l-10 13l-6 2l2 -21l-11 -28l-16 -11l-2 -6zM375 297l4 -2l6 -4v14l-8 2l10 -4z" />
<glyph unicode="u" horiz-adv-x="978" d="M733 51l-4 -2l-18 -14l-31 -17l-29 -10l-61 -16l-25 -12l-63 -5l-70 7l-31 -5l-8 5l-10 -5l-10 9l-15 -4l2 6l-12 2l-2 12l-20 4v25l-15 -6l-2 -9l-16 7l-55 30l-37 45l2 11l-8 12v8l-13 21l-14 12v10h-8l4 6l-6 8l6 17l-6 26l6 35v35l-8 35l2 16l14 62v65l2 70l10 63 l4 64l19 63l-2 23l6 14l-2 33l6 16l14 62l-4 14v33l6 33l9 63l-4 29l4 28l10 23l6 33l6 63l10 21l-4 65l4 31l4 63l15 29l4 23l12 28l12 13l19 6l6 -4l8 -31l4 12l11 13h8l-15 6l21 6l45 -6l66 6l30 -6v-4l8 -7v-10h11v-26l-11 -35l-2 -31l-4 -8l-10 8l-25 -35l11 -10l8 2 l2 8l4 -2l-6 -12l12 -21l-28 13l-9 -15l9 -2l14 4l12 -8l-12 -14l8 -6l2 -17l-14 -47v-33l-8 -65v-33l-13 -63l-10 -66l-6 -65l-10 -64l-11 -57l-10 -68l-6 -72l2 -32l-4 -31l-12 -31l-6 -65l-5 -64l-6 -65l4 -64l13 -28l-2 -17l-4 4v11l-17 -9l-16 -2l8 13l12 4l-8 6l4 8 l-8 2l-8 -10l-8 -2l-5 4l7 -47l10 -6l8 2l-2 -13l31 21l6 14l45 -20l35 -6l33 4l63 22l18 21l13 32h10v5l14 61l11 66l8 65l10 10l2 11l-10 -3l2 13l-4 4l14 4l29 -14l4 6l-10 28l-25 -12l-10 2l4 37l8 66l8 63l4 4l-2 17l11 65l10 66l6 -11l8 2v9l27 16l6 16l-12 19l-4 14 l4 8h-7l-18 -12l-6 2l8 64l2 -9l4 -2l8 4l-6 13l2 8l-8 10l4 41l10 64l-2 30l5 33l16 64l8 65l4 64l2 65l17 -4l6 -6l-4 -12l8 -13l6 23l6 6h6l-4 6l-8 2l-4 17l4 16l-10 6l-8 -8l-9 -18v-11l-4 4l4 35l15 15l16 2l2 8l39 -4l8 4l10 -10l58 2l31 14l26 -4l35 -17v-16l4 -8 l2 -31l-10 -65l-12 -68l-9 -61l-10 -29v-47l-4 -66l-12 -59l-15 -68l7 -65l-9 -68l-10 -53l-8 -76l-4 -63l-8 -33l-2 -29l-13 -69l-12 -31v-47l-6 -68l-8 -63l-25 -64l6 -10h-10l2 -14l-27 -54h-8l-6 -14h-10l-2 -8l-21 -25l-6 -14l-24 -12v-11zM379 1391l-2 4l-15 -4l-2 8 l-4 2l-4 -35l21 4l4 -10l-15 -17l-8 -2v-22l-12 -31l4 -24l2 -66l14 -29l3 9l22 10l4 6l-2 10l6 19v30l8 13l-8 28l-8 13l10 20l-14 12l4 17zM512 74v6v12l-6 6h-10l-4 17l-11 -2l-6 6l4 10h-37l-12 -10l-8 -15h10l6 13l11 2l-13 -27l2 -12l19 8l18 2v-8l6 -6l17 -4z M240 563l2 -2l10 -35l10 -10l10 -2l4 29l17 32l-10 19l10 12l-12 2l-9 -16l-4 2l-2 12l-6 2l-10 -20h14l2 -4l-22 -13zM348 539v4l4 26l-28 15l2 4l14 6l2 29l-10 18l12 31h-14l4 -2v-8l-10 6l-23 2l-8 6l2 -12l8 -13l6 6l15 -10l2 -49l-21 -29l2 -6l8 6l17 4l6 -24z M330 989v4l-4 15l6 10l20 -2l8 8h-6l-2 6l-14 10v9l14 -7l4 7l-6 18l2 10l-10 -4l-14 8l-9 -12l-4 -25l4 -14l7 -6l-7 -6v-19zM829 1391l-4 -2l-10 -13l-4 -14l6 -35l21 2l14 8l-10 27v18l-6 15l-11 8zM805 313h-6l-27 17l6 -41l13 -25l4 2l8 31l22 6zM692 266l-2 -4l-8 -37 l39 11l2 14l-23 20l-2 -4h-6zM780 1186l6 -2l9 2l16 14l2 -4l8 4l-4 19l-26 -5l-13 -10l-2 -8zM348 926l2 -2l6 -19l9 6l-11 27l-14 8l-12 -39l10 -6l4 21zM307 1112v-4v-21l23 7l8 -2l4 12l23 16h-15l-4 -8l-8 2l-19 -12v4zM297 489v7l16 28l-16 -2l-6 -12h-10l-11 -10 l4 -2l-2 -9h25zM735 143h-4h-14l-6 4v-28l6 -4l4 4h10zM319 700h3h6l2 -4l-6 -10l8 -4l2 16l-6 21l-11 10l-6 -8l13 -14zM373 809l-2 -2l-4 -21l4 -6l8 -2v19zM326 862v-4l-4 -20l8 4l6 -6l6 6l-8 2l-2 16zM803 330v6l-2 8l-15 2v-12zM537 74l2 4v10l-11 6l-4 -10l2 -8z M766 553l2 2l6 14l-2 4h-10v-16zM250 178l2 4l-4 19l-10 -4l4 -2l4 -17h4zM336 745l-4 3l-2 4l-11 2v-13l5 -6zM715 217h4h6l6 14h-14zM377 1419h-4l-19 -10l2 -4l4 4l17 2v8zM684 559v-4l2 -8l14 -6l7 4l-21 8v10zM727 881l-2 -2l-4 -7l-4 5l4 12l14 -6zM379 1434l2 6v16 l-6 2v-18zM375 745v7v10l-4 -2l-4 -17l14 -2zM367 1161h-5h-6l-2 -10h11zM756 915l2 5l4 6l-4 4l-6 -10zM389 199h-2h2z" />
<glyph unicode="v" horiz-adv-x="901" d="M618 182v-4l-2 -31l-6 -12l-14 -12l-10 -43l-25 -57l-12 -3l-19 -16l-14 -4h-20l-68 2h-68l-26 8l-17 58l-2 65l-8 6v27h-4l-4 6l6 16l2 23l-4 18l4 9l2 65l4 6l-10 10l2 9h-10l2 20l-10 12l8 2l4 11l18 -6l7 6v8l-7 2l-26 -6l6 14l-2 35l-8 4l4 19l-2 6l-8 2l14 22l-2 8 l-10 60l-7 69l-4 64l-10 63l6 31l-6 8l8 11l-2 4l-12 65l14 6l2 37h-4l-6 -14l-6 6v14l8 4l-16 27l6 8l-10 2l2 6l20 15l-4 2l4 2l41 6l4 -14l-2 -11l39 11l6 32l29 39l14 33l-2 6l-22 8l8 25l6 4h10l-4 55l-2 68h-49h-63l10 -8l14 2l-4 -12v-31l-6 -14l14 10l8 20l15 8 l2 -4l-6 -20l2 -4l12 -2l-4 -13l-14 -6l-5 -14l2 -14l5 -4l6 -35l-13 -27l-10 -2l-10 -10l-8 2l4 -6l16 -8l-16 -23l-4 4v10l-13 11v8h-14l-6 4l-2 8l6 12l-27 -10l5 16l14 5v14l-8 4l10 12l6 2l6 15l-8 14l-18 2l2 12l16 17l-2 4l-16 -10l-11 2l2 18h15v16l4 7l14 8l-6 8 h-18l-4 -16l-5 -2l-8 24l8 21l-6 22l8 14l-4 66l-10 14v33l-6 8l10 47l23 15l35 2l65 -4l64 -8l16 6l29 -17l-6 -30l12 -31l-2 -17l10 -10l-4 -28l2 -54l-6 -22l2 -21l4 -4l-6 -8l-2 -16l6 -29l6 -68l-6 -22h-6l-2 -4l8 -11l2 3l-4 -11l16 -16l-4 -14l-2 -64v-67l4 -66l4 -4 l-10 -25l6 -63l6 -6l-2 -17l8 -22l-4 -66l2 -33l-14 5l-2 -11l16 -2l-2 -10l4 -35l7 -4l10 -20l18 14h8v16l5 4h8l8 27l-2 12l4 6l2 31l8 17l-8 4l4 4l17 43l8 37l8 14l-4 16l2 9h8l4 4l2 30h10l9 56l20 67l2 25l8 24l21 60l16 63l15 8l-13 11l11 63l12 10l6 25l8 4l6 39 l15 25l6 49l12 4l2 22l10 13l2 22l11 29l16 29l31 6h30l68 -2h64l12 -17l-8 -4l-11 12l-8 -4l-8 -47l27 21l2 8l2 -12l-4 -33l-21 -64l-22 -65l-7 -2v-4l-8 -64h-14l-6 -4l-6 -14l8 -12l-4 -19l-45 4l-6 6l-9 -30h15l-4 -13l-13 -2l-12 6v-20l-10 -10l8 -6l22 12l7 14l37 10 l-3 -22l-8 -19l-22 -59l-19 -63l-14 -62l-23 -65l-14 -62h-8l-8 -18l-6 -35l-13 -29l2 -16h-4l-8 -14l-16 -48v-12l-6 6l6 25l-9 8l-28 -53l8 -8l16 -2l-2 -19l-24 -57l-8 -33l-17 -66l-14 -30v-15l-25 -22l11 -21l-9 -16v8l-4 2l-8 -14l-4 -35l-12 -67zM772 1180h-6l-8 -25 l12 -4l6 -10l25 6l8 -2v-15l-25 5l-4 -9l-14 4l-12 -10l14 -8l4 -12l-6 -29l6 -4h21l4 -4l-13 -10v-11h29l16 43l11 11l-17 12l-2 8l4 8l23 6l8 15h-18l-4 29l6 6l-11 4l-8 14h-8l-6 -14l-8 2l10 22l2 25h-10l-13 6h-10l-6 -29v-30zM502 412h4l18 6l8 14l-28 8l-4 6l18 33 l-4 6l-2 -6l-12 10l-11 -4l-16 7v4l16 4l3 4l-21 8l-14 -2l-8 -6l-5 8h-12l-4 -8l10 -4l-4 -8l2 -7h-20l-10 -34l12 -11l16 29l17 6l8 -14h-8l-11 -12v-17l4 -6l2 4l13 -4l20 14h10zM313 1341v7l-10 6l2 6l17 -4l-3 49l-12 8l4 6l-14 -2l-10 -12l2 -27l6 -12l4 2l6 -8 l-10 -8l2 -15l8 -2zM788 993l3 2l12 39l-6 4l-2 -14l-15 -10l-2 6l-20 8l4 -24l12 -11l2 4zM399 1096l-4 -2l6 -9l-4 -8l13 -2l26 6h21l-6 13l-19 2l-14 6l-19 -10v4zM324 514v4l4 25h-11l-10 -19h-12l-2 -14zM860 1239h-4h-20l6 -16l24 -19v21zM778 1087l4 5l9 6h6l26 -17 l-14 -4l-12 8zM276 1008l-4 4l-4 4l-6 -2l-12 -15l-4 2l4 3l-6 20l4 2l26 -4zM393 1415l2 4l8 4l-10 2l-12 19l-8 4l4 -18zM285 1444l-2 -2l-7 -12l5 -13l10 2l-2 19zM463 387l2 -2h24l5 6l-23 2zM430 1311v6l8 14l-14 4l2 -14l-10 -4zM748 1116v-4v-16h8v16zM289 680l4 2 l2 4h-4l-8 14l-7 -4l7 -6l-4 -10h10zM424 426l-2 -2l-4 -8l4 -4h10l-2 10zM772 1155l2 4v8l4 4l6 -6l-2 -8zM825 1180l-2 -4l-6 -2l-4 8l2 8zM371 309h4l12 10l-14 -4zM473 461h4l4 -10l-6 -5l-4 5z" />
<glyph unicode="w" horiz-adv-x="1306" d="M825 -6v4l-24 16l-2 17l-6 65l-2 66l6 33l-9 14l-2 67l-8 15l6 16l-6 33l4 63l-6 17l2 31l-2 65l6 14l-6 11l2 16l-8 10l-2 56v65l-2 66l-6 65l-4 2l2 15l-10 4l-5 -6l-14 -9l-22 -30l-9 -68l-24 -43l4 -25l-8 -10l2 -20l-6 -19l2 -4l-6 4l-5 -20l-12 -25l-8 -35l-8 -14 v-10l4 -6l-12 -17l-13 -57l-20 -64l-17 -55v-31l-16 -43l-10 -12l-6 -22l-15 -62l-18 -65l-10 -11l-4 -26l-13 -27l-24 -4l-66 -12l-31 4l-28 10l-35 6l-6 11l-17 63v31l7 14l-5 47l-10 66l-2 63l-2 68l-4 10l6 23l-4 8l2 49l-4 31l-6 6l12 14l-10 10v45l-4 33l2 14l-6 62 l4 35l8 16l14 6l2 11l17 14l16 49h19l-9 14l13 25l2 18l-21 -8l-8 -12l-6 -37l-23 -6l-10 -12l14 -11l-2 -10l-18 -22l-8 -2l-2 12l-6 2l2 24l-2 64l-7 63l7 15l-4 61l-3 66l-8 28v27l-2 64l-8 32l2 35l4 64l-6 14v49l-8 10l4 13l4 65l10 6l2 8l6 3l68 8l31 -4l65 2l31 -6 l8 -13l8 -26v-70l5 -64l-7 -28l7 -66l6 -6l-9 -18l-6 -41l2 -35l11 -12l-2 -23l-5 -65l9 -11l-4 -12l4 -25l-6 -26l2 -35l-7 -14v-33l7 -31l-5 -43v-69l-4 -17l4 -31l17 -28l2 -17l16 9l17 45l10 10l4 16l20 60l17 65l6 6l-4 15l4 12l20 66l15 63l24 59l9 29l-2 21l10 30 l24 60l11 67l8 27l18 59l17 31l8 68l6 4l-4 6l24 33l41 6h68l63 -6l17 -37l2 -39l-8 -17l4 -22l-2 -33l2 -63l10 -58l-4 -30l-2 -66l10 -55l-8 -31l4 -14l-6 -37l2 -70l14 -35l-8 -30v-31l-8 -6l20 -39l-4 -57l4 -66l9 -27l6 -2l12 6l6 15l23 59l10 35v31l16 18l-8 4l23 68 l12 63l16 64l15 61l6 6l2 31l6 25l12 26l8 70l7 4l6 12l6 33l14 29l8 30l5 64l20 68l14 26l39 25l58 -2h73l-6 -17l2 -14h6l6 6l5 17l4 2l14 -5l10 -20l-8 -68l-18 -61l-23 -64l-20 -65l-17 -62l-12 9l-21 -17v-6l13 -2l16 6l-2 -16l-12 -17v-8l-21 -2l-6 -6v-16h4l-20 -11 l-6 -10l8 -10l14 8l6 -2l9 14h8l-19 -55l-16 -4l-4 -10l16 2l-8 -25l-14 -63l-21 -60l4 -6l-4 -14l-18 -64l-21 -63l-16 -64l-16 -30v-27l-17 -35l-16 -63l-6 -6l4 -15l-6 -4l-17 -53l-10 -10l-12 -64l-11 -63l-28 -53l-15 -64l-10 -70l-10 -28l-19 -25l-18 -8l-31 -6h-34 v22l-15 17l-12 -8l-4 -9l2 -8l12 -8l-2 -6l-41 4zM338 889l2 4l6 10v51l6 13l-24 4v-10l-9 -13l-14 -8l-2 -66l8 3l-2 8l8 4l17 -4zM895 135v-4l-21 -22l3 -9l24 6v-6l6 -6l17 -4l16 6l-4 4l4 35l-12 4zM283 1001l2 5l6 10l18 14l6 -4v10l-8 2l-10 27l6 10l-14 8l-4 -28 l-6 -2l-13 -15l-4 -14l2 -23l6 7zM393 233l2 5l6 22l-4 6l-8 2l-6 -12h-14l-9 -4l-4 -8l6 -4zM303 1006h6l13 -2l4 -7v-16h24l6 23l-2 8h-6l-12 -11h-8l-4 13l-11 6v-4zM315 1143h-6h-8l-12 -10h4v-25h18l6 29zM1237 854l-2 -2l-16 -31l4 -8l10 -2l4 33h6l2 4l-4 6h-4z M780 1260h4l7 4l16 26h-14l-11 -18zM649 836l2 6v2l-12 -4l-2 8l6 6l-4 6l-6 -4l-4 -16zM1006 262v4l-7 13l-6 2l-8 -13zM776 1206v4l2 7h-8l-2 -11h8zM676 893v-4l8 -10l-2 10zM823 1411l4 2l7 4l-11 4v-10zM823 1411l-2 -2l-4 -2l4 -4z" />
<glyph unicode="x" horiz-adv-x="860" d="M721 1174l2 4l-6 20l-23 19l-16 4l-8 12l-4 27l8 34l20 56l31 59l29 57l16 11h29l14 10h8l31 -14h51l62 4l6 -11l-4 -49l-6 -14l-11 -8l-14 -29l-12 -12l2 -15l-13 -20l-12 -33l-16 -24l-17 -33l-4 -17l-6 -4l-14 4l-17 -14l2 -8l11 -4l-15 -56l-20 -26v-8l-12 -31 l-17 -27l-8 -2l-2 -14l-25 -51l-8 -29l-26 -57l-25 -62l-25 -61l9 -10l-9 -15l17 -63l8 -64l6 -6l8 -47l11 -20l10 -66l-4 -8l8 -12l10 -31l-10 -10l-14 -7l-2 -8l4 -14l6 -2l18 14l6 -2v-26l17 -50l6 -6l2 -12h6l4 -43l4 -6l-4 -6v-25l-4 -2l12 -57l13 -13l2 -16l4 -66 l10 -26l-2 -19l-39 -12l-63 -12l-70 4l-31 10l-22 15v8l-13 8l2 12l-12 17v41l-8 59l2 8l-8 31v33l-15 18v16l-12 64l-8 4l4 18l-2 33l-6 25l-19 53l-6 2l-16 -4l-6 -6l-10 -33l-11 -12l-37 -53l-2 -17l5 -6l-3 -10l-8 -2l-6 -21l-16 -26l-13 -31l-28 -57l-2 -23l-8 -14 l-11 -2l-4 -21l-6 -4v-10l-10 -31l-27 -61l-28 -11l-25 -18l-16 -2l-33 4l-64 -4l-32 8l-15 10l-12 23l14 39l29 59l31 60l30 57l29 55l2 17l16 30l5 31l12 12l2 17h6l10 22h8l9 21l6 4l-2 16l10 47l8 2l25 43l30 60l29 55l12 12l11 56v63l-6 21l-9 2v8l-14 65l-10 64l-8 16 l-7 41l-4 6l4 15l-2 18l-18 62h-4l-2 14l-12 59l-13 64l-10 4v4l-8 63l-8 33l-19 60l10 20l-8 2l10 12l11 3l4 -5v-16h4l6 14l27 15h16l14 6l47 -10h35l13 -7l16 5l29 -9l2 -8l6 -61l14 -64l-4 -4l14 -45l11 -14v-17l4 -65l6 -6l8 -47l8 -64l13 -31l-5 -10l23 6l14 11l13 30 l12 2l6 25l12 10l17 45l24 64l21 -13l2 -10l-4 -6l-21 -2l-6 -4l6 -6h15l8 -4v-11l-15 -8l-4 -6l23 2l8 -10l-2 8l25 10l12 11l2 -9l22 -12l5 6l-11 10zM385 1413l-4 2l-19 8l-12 -2l-2 -59l6 -29l11 13l6 16l2 31l10 10zM356 1178l2 4l11 4l4 6l-4 27l-9 4l-14 -27l2 -12z M330 1255l2 -2l22 -8l-6 29l-10 12v-10l-8 -10v-11zM446 688h7l8 2l8 23l-14 6v-10l4 -7zM188 106v5l5 24h-15v-20zM717 176v4l2 4l-10 11l-2 -17l4 -4z" />
<glyph unicode="y" d="M561 29l-2 -4l-6 -11l-35 -20l-22 4h-72l-68 4l-26 10v41l4 64l6 65l8 70l8 70l31 -15l10 -10l4 2l2 8l-4 15l2 10l-8 -15l-8 5l-6 -3l-2 5l6 14l-18 35l6 43l12 65l8 70v67l-10 25l-4 51l6 35l-14 8v15l-9 2v20l-10 8v4l10 11v4l-10 -4l-4 4l-2 14l-6 6l12 13l6 12 l-4 12l-8 2l-6 -4l-4 2l4 16l-10 15l6 14l-6 25l-2 35l-15 43l-6 2l4 10l-10 45l-8 2l8 10l-10 15v12l-10 28l-5 33l-14 33v51l-4 6l2 25l-8 8l2 41l-6 33l-13 16l-6 58l-6 14l19 29l16 2l66 4l69 -2l60 -11l6 -14l4 -33l6 -14h10l-2 -23l4 -6l8 -2l2 -45l13 -65v-31l8 -18 v-56l4 -4l2 -12l8 -66l15 -63l-4 -35l16 -29l14 -10l10 4l19 23l27 65l6 -2l6 17h4l10 45h10l5 -6l-3 -5l9 2l8 21l8 2l-6 8l-16 -2l-7 4l19 25v20l26 60l23 65l16 53l13 11l10 39l24 57l17 23l45 4l72 2l63 4l14 -8l17 -2l12 -11l-6 -6l-4 -24l-10 -23h4l-17 -10l-14 2v8 l-8 -4l-8 -10l-9 -2v26l-4 4l-2 -22l4 -8l-2 -25l6 -14l17 10v-10l-10 -8v4l-5 -9l5 -18l-9 -31l-22 -63l-12 -8l-27 -60l-27 -59l-8 -2l-4 -23l-10 -22l-31 -60l-27 -59l-26 -59l-10 -33l-17 -13l2 -8l-12 -32l-12 -13l-6 -30l-15 -11l-18 -49l-17 -24l-12 -29l-22 -60 l6 -14l-9 -18v-66l-4 -65l-8 -66l-10 -65l-10 -66l-8 -63l-7 -64l-12 10l-14 -6v-4h12l4 -14l-10 -11l4 -18h6l2 4l4 -4l-6 -8v-8zM813 1174l-4 -5l-6 -8l2 -16l-19 -35l21 2l6 -6v29l10 -2l8 4l15 26l-19 -2l-12 -8l2 14zM541 156l-4 -4l-7 -50l5 -4l20 37v21h-14z M854 1227l-4 -2l-10 -4l-2 -9l6 2l6 -14l6 2l8 37l10 27l-2 6l-10 -15zM711 1139l-2 -2l-11 -4l-2 -9l6 -14l-2 -10h11l6 6l-4 4l-6 -4v8l16 2l-4 6l-2 17h-6zM872 1329l-2 -4l-14 -22l-12 -31l10 4l20 45zM815 1036h-4h-25l-10 -10l27 -14l2 14zM899 1350l-2 -2l-14 -2 l-6 -7l8 -4l12 6l12 23l-16 10l-2 -14zM367 793h4l6 4l10 24h-25l7 -22zM823 1208v-6l-8 -10l4 -4l2 4l13 -4v10zM719 969l2 4v4l-12 2l-4 -6h4v-4h10zM809 1100h-4l-10 -4l12 -11zM506 68v-5l6 -10h6l2 4z" />
<glyph unicode="z" horiz-adv-x="854" d="M723 2l-2 -2l-21 -4h-84l-63 2h-66l-14 -6l-33 4l-65 12l-68 -2l-63 -8l-64 2h-63l-33 8l-2 10l-4 64l8 68l8 2l4 6l21 59l24 23l13 47l12 8l2 16l10 8v9l8 10l21 49l14 10l17 39l30 64l31 57l29 57v9h10l4 26l12 -6l9 16l-7 19l13 14l10 29l14 10l8 17l7 4v12l20 55l6 6 l21 39l12 10v5h-4l20 39l23 24l8 31l25 47l-2 4l18 59l12 2l9 23l10 2l22 47l6 4l2 13l13 12l6 41v22l-10 6l-4 -6l-11 13l-61 10h-64l-69 -6l-70 -2l-59 8l-13 33v34l9 27v49l10 31l16 24l31 3l12 4l68 2l63 -4l62 2l69 -7l66 9l61 -9l68 7l61 6l66 -13l2 -6l-4 -18l2 -6 h10l2 -33l-4 -29l-10 -12l2 -12l-8 -31l4 -10l-12 -6l-9 -33l-6 8h-8l-4 -4v-12l12 4l-18 -45l-15 -11l-6 -20l-10 -4l-6 -25l-8 -14l6 -4v-4l-19 -23l-16 -28l-10 -33l-14 -10l-9 -17l-2 -16l-12 -10l-10 -39l-23 -33l-28 -57l-31 -60l-8 -2l-9 -31l-36 -51l-9 -16l4 -12 l-4 -3l-4 -20l-8 -8l2 -10l-8 -2l-16 -35l-21 -27l-12 -45l-6 -4l-33 -55l-10 -33l-13 -10l-18 -37l-6 -2l-19 -39l2 -8l-4 -2l-6 -15l-33 -53l-12 -31l-8 -35l22 -18l39 -2l72 6l64 -4l65 2l64 2l65 -14l6 -49l-4 -70l-14 -68l-25 -10h-8zM475 1372l4 2l21 17l4 16l-4 6 l-25 14l-55 -2l-6 -16l-21 -23l2 -16l13 -4l4 27l4 4l8 -6l2 10l23 4l2 -19zM666 967v4l12 33l-2 12l-4 -8l-4 2v6l6 8l-10 2l-21 -6l-10 -39l16 -10zM707 1421h-7l-22 -6l-2 -12l6 -49l-4 -6l16 6l17 14l2 10l-11 8l-2 15l7 12v8zM561 1391l2 4l4 30h-16l-6 -12zM494 799 h-5l-10 -6l-14 -27l16 2zM627 932h4l16 -4l4 4l-2 14l-4 4l-16 -8zM680 1309h-4h-6l-13 -11l7 -4l8 4v-8l4 -2l6 8zM698 1206l-2 -4l-14 -16l6 -2l8 4l6 14zM637 1055v-4l14 -15l4 2l-10 15zM621 918l4 -3h14l-4 7v-4h-4v8zM614 1274h4l13 6l-4 8l-2 -8zM432 1411v4v6h10 v-10h-10zM276 375v4v4h-10v-8h10zM612 682l-2 -2z" />
<glyph unicode="{" horiz-adv-x="614" d="M446 -213l-4 -2l-16 -10l-64 -4h-59l-31 26l-4 -2l-20 8l-4 -6l-41 29l-19 6l-2 4l-35 55l-14 9l2 10h-10l-12 49v68l6 63l14 66l19 67l12 10v25l12 18l12 31l2 33l23 61l20 62l17 65l4 70l-8 27l-19 26l-49 23l-24 2l-60 4l-18 22v33l26 60h15l33 14h32l45 16l-8 -28 l4 -6l10 6l13 28l-2 9l16 4l10 12l11 -4l4 -8l10 -7l16 5l11 -2v24l-9 8l-16 2l-16 -4l2 6l20 62v35l-6 14v33l2 65l-4 4l6 15l-2 35l-12 22l2 16l-6 7l-4 28l8 15l-4 22v68l-4 61l10 31l-2 22l4 11l-2 6l4 2l8 -14l-2 -11l-4 -2h24l-2 8l-18 25l6 14l-6 6l2 23l12 31l21 24 l4 17l16 28l39 49l15 7l22 18l19 4l12 12l31 9l14 8l33 -2l28 10l31 4l72 2l14 -33l-6 -16l2 -23l-14 -43l-15 -26l-8 2l-22 -6l6 6l-4 12l-11 -6l4 -8l-8 -6l-16 -4l-4 6l-6 -6l-29 -7l-39 -26l-4 -6l-31 -54l-10 -28l-16 -70v-31l2 -61l6 -35l-8 -28l8 -29l4 -37l-6 -68 l8 -14l2 -49l-6 -68l-12 -67l-29 -47l-14 -29l-29 -12l-49 -41v-35l8 -12l4 4l6 -2l8 -13l9 -4l10 -12l37 -55l2 -9l-6 -4l8 -4l-8 -20l10 -15l-10 -28l4 -17l-6 -32l-21 -64l2 -16l-6 -15l-8 -47l-17 -63l-8 -2l-4 -33l-6 4l-8 33l-8 12l-11 51l-10 11l-8 2l-2 -6l14 -19 l-14 -18l-6 -17l10 -10l2 -14l20 -11l-2 -10l23 -18l-6 -21l-19 -61v-25l-14 -6v-14l-4 -68l6 -59l4 -6l-6 -4l10 -23l21 -29l14 -6l2 -6l16 -2l68 -8l27 -10l2 -15l4 -4l-10 -49v-29zM209 -37l4 4l4 8l-4 23l2 33l2 53l-8 2l-4 -6l-10 2l-5 -16l3 -9l-9 -63l17 -31h8z M287 424h2h8l-6 14l12 4l-8 21h-14l-13 -21l-6 -30h14zM227 150l-2 4l-22 -9l-2 -32l4 -4h10v-13h6l6 35l-12 8zM387 1450v4l10 25l-2 8l-4 2l-10 -6l-14 6l-2 -6l10 -15v-8l-8 -2l-5 -8h25zM254 170l2 6l-2 17l-14 16l-11 -35l4 -10zM358 819h-6h-4l-6 -14l12 -10h13l4 10 l-19 10zM336 1157v4l2 6l-6 17l-6 2l-7 -4l3 -17l4 -6zM276 262v-4l5 -8l8 -4l4 2h-4l-4 12zM555 1612v-4l-2 -6h14l-4 10h-8z" />
<glyph unicode="|" horiz-adv-x="446" d="M266 -74l-4 -2h-2l-70 -8l-32 4l-13 6l-6 13v26l-8 8l-2 11l6 8l4 55l6 64l7 28l2 62l8 24l2 66l8 33l6 63l10 33l11 63l-2 64l12 63l-2 19l4 6l6 47l10 63l6 66l5 68l12 61l8 66l6 67l12 66l9 63l4 66l14 67l-4 13l6 32l4 60l10 65l5 66l14 69l10 23l27 23l8 -5l63 -6 l7 6l16 -2l10 -10l10 -43l-8 -12l-12 -2l8 -19l-10 -2l-4 -14h22v-16l-6 -64l-8 -59l-8 -62l-6 -69l-8 -70l-17 -63l-4 -64l-10 -70l-4 -65l-8 -33l2 -65l-17 -62l-4 -63l-4 -4l4 -11l-6 -47l-8 -67l-4 -62l-19 -55l-4 -31l-8 -65l-4 -68l-4 -66l-8 -63l-9 -59l-8 -66 l-6 -70l-14 -63zM322 1044l-3 -6l3 -18l22 6v-37l4 -2l6 4l-4 4l19 -4l-2 10l4 15l-15 4l15 6l2 14l-25 4l-4 -4l2 4l-10 11l-4 -4l4 -7h-14zM328 1339v-4l2 -4h10v10l-8 2z" />
<glyph unicode="}" horiz-adv-x="614" d="M193 -233h-5l-53 4l-29 10l-8 8v29l4 69l19 19l51 10l31 -2l14 10l14 2l11 8l43 50l20 55l10 70l7 69l4 70l-4 63l-9 31l-10 12l2 49v64l2 63l8 35l4 -2l3 -12l4 8l-4 10l4 9v26l20 25l33 57l47 27l18 22l2 15l-6 14l-37 35l-2 14l-10 6l-26 39v8l-7 11l4 30l7 11l-4 4 l6 14l-4 33l4 32l14 66l25 57l2 33l10 31l22 63l21 64l10 61l12 66v14l-18 64l-10 12l-4 14l-15 -6l-10 12l-24 11l-11 10h-6h-63l-15 33l-2 36l8 33l11 15l12 8l6 -2l14 -21l9 25l14 14h29l6 -6l14 -2l68 -6l4 -6l28 -13l15 -2l4 -6l31 -18l8 -13l-2 -16l18 -6v-8h10 l11 -19h10l12 -34l8 -3v-8l-8 -12l15 -47l-21 -4l6 -10l-2 -9l-12 -12l10 -6l19 2l-5 -31l-8 -63l-22 -58l-6 -34l-7 -4l5 -13l-17 -59l-18 -62l-13 -10l-4 -26l-12 -31l-22 -68l-15 -65l4 -15l6 -4l-2 -24l9 -29l-15 -6l29 -14l57 -29h51l27 -10l4 -15v-32l-18 -66l-23 -8 l-71 -2l-29 -8l-25 -19l-10 -12l-18 -4l-2 -11l-11 -10l-4 -28l-12 -64l4 -16l6 -4l2 -39l6 -35l-4 -4l-4 -62l4 -16l6 -6l-2 -15l11 -4l4 -14l-8 -20l4 -5l-4 -10l4 -26l2 -70l2 -64l-6 -30l-19 -64l2 -30l-6 -19l-10 -10l-15 -45l-22 -25l-41 -53l-16 -4l-9 -10l-18 -2 l-21 -11l-65 -24zM438 1602h6l5 2l-3 22l9 12v31h-9l-12 -27v-30l8 -2v-4h-4v-4zM528 1376l-2 -6l2 -27l9 -26h8l6 35zM563 1229l2 2l6 16l-2 15l-6 2l-8 -15v-8zM410 530l-2 -4l-11 -6l9 -22l10 -2v30zM510 1038l2 4l4 19l-8 18l-6 -2l6 -8l-10 -20zM641 780l-2 -4l-4 -6 v-10h14l-2 16zM639 1479h-4l-8 18l-11 6l5 -16l8 -12h10v4zM459 256v-4l-6 -25l6 -6l4 31zM553 1190h-4l-14 -10v-4l6 -5zM647 750l-2 -7l8 -8l9 2l4 8zM319 485l3 4l6 13l-15 -6l4 -2zM561 1284v-6v-8l4 10l-2 6z" />
<glyph unicode="~" horiz-adv-x="1202" d="M297 674l-6 -2l-2 -27l-17 2l-10 8l-2 15l4 10l-10 6l-10 23l-21 14l2 12l-4 4l2 4l13 -14h4l4 12l-8 21l8 2v14l6 6l12 4l17 19l12 4l26 20l60 21l2 8h10l39 14l66 9h71l4 -6l13 -5l32 -2l33 -10h17l2 -8l14 -6l2 -10l10 -2l17 -13l4 6l12 -16l41 -6l47 -27l64 -14 l71 -2l6 -8l41 -6l11 -13l8 -2v12l-27 19v8l14 12l50 37l18 6l23 -8l43 -47l6 -33l-2 -16l-17 -25l-24 -22l-29 -19l-8 -12l-27 -10l-26 -19l-19 -4l-26 -16h-9l-63 -2l-66 2l-67 10l-31 10l-61 31l-58 23l2 6l-10 4l-10 10l-27 4l-45 19h-35l-67 -8l-45 -15l-9 -8l-14 -4 l-39 -27l-10 2l-6 6zM928 719v-4l-6 -17l20 -16l10 -2l11 10l-5 6l-2 19l-10 8l-4 -4l4 -4zM272 709h4l11 6h10v14l6 21l-6 4l-23 -23l-4 -16zM764 698l-2 -4l-2 -43l12 -10l4 8l-10 10v11l10 12l-4 14zM739 733l4 -2l-6 -16l4 -2l7 4l2 10l-7 12zM508 772v6v4l-12 9l-4 -9z M729 739l-2 -2l-6 -14l6 -4l8 14zM571 831l-2 -4l-8 -2l-2 -4l14 -4zM514 733l-2 -4l-4 -6l16 6v4h-10z" />
<glyph unicode="&#xa1;" horiz-adv-x="538" d="M317 -4h-4h-6l-67 6l-70 4l-16 10l-7 15l3 32l12 66l12 64l10 63l13 66l10 63l10 64l10 65l15 61l4 62l14 59l-2 25l6 33l10 22l9 35l10 70l8 65l16 64l19 26l14 6l33 5l35 -5l31 -8l4 -28l-11 -68l4 -33l-4 -33l-8 -12l2 -26l-2 -62l-8 -37l10 -10l-6 -35l-4 -63l-8 -66 l-25 -6v-12l-10 -19l6 -4h10l-2 15l19 4v-4v-64l-6 -65l-7 -68l-4 -66l-2 -61l2 -68l-10 -65l-16 -62l-39 -18l2 8zM322 1239l-3 2l-6 31l6 65l7 68l20 63l21 9l53 2l12 -9l2 -12l4 2l2 8l-4 7l10 4l41 -6l37 2l17 -7l4 -38l-4 -70l-11 -33l-2 -49l-16 -25l-2 -10l-49 -10 l-70 -4l-78 8zM356 686h6l19 4l4 21l2 63l6 35h-4l-4 16l-6 -2l-8 -20l6 -8l4 -35l-10 -12l-13 -29zM401 1362v-6l-2 -19l4 -16l15 -23l-4 15l6 4l31 -35v14l14 17l-12 4l-4 12l-7 2l-6 12l-26 3l-4 16h-5zM373 506v-4l-17 -41l2 -6l9 -4l6 41h8l20 18zM367 559l2 -4l2 -2 l-6 -16l2 -7h10l-2 27l8 35l-6 6zM479 1366l-4 -4v-21l10 -10l9 35h-15zM375 668h-6l-4 -2v-13l12 -8l6 6l-4 2l6 9l-14 -3z" />
<glyph unicode="&#xa2;" horiz-adv-x="794" d="M465 -66v-4l-6 -34l-27 -64l-22 -6l-2 -8h-9h-65l-23 16l-6 -2l-2 12l4 9l-10 4v45l6 67l-4 33l-8 12l-25 21l-18 2l-8 10l-19 4l-12 8l-8 17l-8 4v12l-21 29l4 4l-12 4v16h-10l4 5l-6 4l-7 41l-2 69l4 64l17 61l2 31l6 67l8 62l10 63l7 68l2 65l12 66l8 10l6 27l2 33 l9 12l-3 16l23 62l25 24l10 21l8 4l16 27l11 2l36 30l31 13l10 12l23 8l18 18l2 13l9 69l14 68l47 16l66 4l28 -10l8 -33v-22l-8 -72v-33l6 -12l11 -8l20 -8v-8l23 -4l47 -35l20 -35l-2 -4h10l13 -43l8 -70l-4 -33l4 -30l-12 -64l-13 -63l-30 -13l-33 -4l-33 2l-63 15 l-21 43v12l8 31l17 67l-4 31l-19 29l-10 2l-8 12l-23 10l-30 -2l-31 -10l-29 -16l-14 -41l-15 -27l-6 -66l-4 -65l-4 -66l-10 -65l-17 -64l-4 -63l-10 -64v-65l-8 -64l4 -14l-6 -41l20 -29l4 2l25 -6l12 -8l47 -2l17 14l24 11l-2 10l11 10l14 47l8 72l19 61l-2 9l34 30 l25 -2h70l30 -4l13 -8l6 -25l-11 -63l-8 -64l-16 -63l-19 -62l-16 -28l-22 -23l-19 -26l-8 -2l-23 -21l-30 -10l-56 -25l-2 -8l-12 -16zM236 526v-4v-6l-9 -72l4 -24h9l8 18l8 -24l4 4v12l-8 21l4 8l8 -10l8 -5l-4 5l6 49v30l9 33l16 17l4 18h-20l-2 6h-15l-4 -14l6 -35 l-2 -14l-10 -13l-2 13l-12 8v8l4 4l-6 2zM225 213l4 2l23 16l8 15l2 16l-31 29l-14 2l-8 -17l4 -55l4 -6zM283 874v-4l-11 -45l21 4h29l-19 15l12 8l4 8l-2 8l-16 -8l-10 4l-2 8zM502 1178l-4 -4l-6 -9v-65l8 2l8 20l-4 4v17l-6 10l8 23zM217 473l2 6v8l-8 11l12 14l-18 4 l-19 -14l19 -6zM328 971v-4l-13 -25l9 -2l4 -8l4 22zM631 1001l-2 -2l-13 -2l2 -10l11 -10l-2 4l8 12zM317 879l-2 4l-8 6l-8 -10l14 -7zM248 473h-4l-4 8l2 11l6 -3v-16z" />
<glyph unicode="&#xa3;" horiz-adv-x="985" d="M713 4l-2 -2l-29 -16l-66 -9l-71 3l-56 16l-2 4l-26 12l-10 11l-33 6l-4 4l-6 -4l-29 6l-35 2l-8 -4l-31 12h-31l-69 -10l-15 -10l-14 -2v-11l-24 -8l-37 -6l-13 10l-2 12l-6 3l6 34v15l17 61l-2 33l16 24l25 25l43 16l49 45l45 39l16 33l23 53l18 50l12 73v51h-4l13 43 l-4 13l-11 12l-24 19l-35 2l-61 -21l-50 12l-20 13l-6 20l-4 66l6 16l6 6l6 25h10l9 14l18 8l68 -2l26 4l6 49l-6 64l-8 63l-8 15v33l-6 26l4 37l6 6v15l10 34v31l23 68l39 53l-3 10l31 41h10l5 12l14 11l2 6l25 22l28 19l33 24l61 23l64 18l49 -6l64 -2l32 -10l25 -17 l24 -10l54 -35l30 -39l31 -59l12 -61l-4 -31l6 -33l-2 -33l-12 -69l-20 -56l-23 -4l-35 4l11 13l6 16l-4 8l-11 2l-6 -4l-4 -20l-10 -15l-8 -4h-15l-10 -6l-2 17l-22 -9l-23 7l-23 20l7 37l6 70l-13 59l-14 22l-24 21l-25 10l-72 2l-41 -24v-4l-20 -23l-10 -33l-17 -61 l-6 -68l8 -67l-6 -15l4 -32l13 -64l-7 -10l7 -6v-15l12 -10l4 -12l22 -27l15 -4l65 6l68 -2l37 -14l8 4l6 -4v-8l10 -23l-2 -41l-18 -61l-21 -13l-28 -6h-37l-14 6l-27 -4l-57 -22l-7 -62l-8 -18v-16l-6 -15l-6 -63l-16 -68l-19 -26l-31 -60l-39 -53v-19l17 -26l26 -19l19 5 l65 -9l-4 -8l9 -2l-3 -4h21l-8 10h-10l45 8l41 23l6 12l28 60v8l7 67l8 31l8 10l10 25l8 2l2 8h58l6 4l16 -2l4 -6l9 -2l63 -4l-4 -21l6 -8l-4 -16l-4 -64l-10 -32l-11 -64l-12 -31l-16 -63l-8 -4l-5 -15l-18 -30l-8 -2l-12 -21l-23 -22l-14 -6l-11 -13zM461 96v4l8 31 l-18 -6l-11 14l2 11l-16 6l-20 22l-9 2l-14 -26l4 -23l6 -2v-18h4zM692 121l-2 -2l-10 -19l-2 -18l8 -10l53 34l4 -10h-8l-8 -14l6 -2l-6 -12h4v4h25l-8 24l2 10h-11l-6 5l4 22l-2 17l-12 -3l-14 -8l-2 11l-11 -5l-6 -14zM836 360h-5l-22 -12l-2 -8l12 -4l33 4l29 -14l2 16 l-19 6l-2 8l10 6l2 9l-4 4l2 10h-14zM565 1427v-6l-12 -16v-16l20 -11l2 -8l7 -2l2 16l26 23l-18 12l-6 13h-25h4v-5zM569 145l2 5l9 12l-5 8l-10 -8l-16 -4l-6 2l2 -4l-4 -19l2 -6l18 -14l10 14l-6 10zM674 1397l-2 -4l-10 -7l8 -4l2 -6l-8 -24l4 -4l16 22l6 -2l2 10l-4 15 zM754 340v-6l-2 -15l-13 -24l2 -8l23 4l4 6l-12 4l10 31l-2 6zM186 106h4l15 -2l8 7l-20 8l-3 6l5 6l8 2l2 6l-12 4l-9 -18zM422 68l4 -5l8 -4l19 17l-4 4l-13 -2zM463 868v6l2 5l-8 20l-8 -25zM502 825v4l-6 11l-9 4l-14 -4zM125 150l-2 -5l2 -12l14 -2l2 4l-8 12z M453 1182l2 4v6l-11 10l-6 -6h4v-12l4 -4zM291 61l2 2l8 23h-8l-6 -6v-17zM784 389h-4l-10 -8v-6l12 -4zM518 850h-4l-10 -6l-2 -8h14zM258 678l-2 -2l-4 -8l4 -4h10l-2 10zM582 1407l-2 2l-9 4l-2 8h9zM291 117h4h10l2 8l-4 6zM463 1397l-2 -4l-8 -11h14v11zM414 82h4h6 l2 10h-10zM702 29v-6v-7l7 -4v13z" />
<glyph unicode="&#xa4;" horiz-adv-x="985" d="M915 365l-2 -3l-18 -16l-37 -14l-14 6l10 10v8l-6 2l-21 -10l-8 14l8 3l-10 10l-4 -4l6 16l37 10l10 -2v27l-4 4l-16 2l-4 -4l-2 -14l-4 -4l-13 -3l-12 -20l-6 -2l-25 18l-16 7l-10 -13l-11 2l-57 -16l-57 -14l-66 -7l-67 4l-70 3l-66 20l-61 16l-27 -6l-49 -45l-45 -18 l-20 4v4l-13 4l-6 6l-4 12l-8 3l-2 14l4 14l-6 6l12 23l51 43l9 14l12 8l6 13l10 2l2 28l4 64v63l11 68l14 27l-2 24l4 33l4 61l6 33l10 15l3 43l-9 30l-45 47l-20 27l4 18l14 29l25 21l31 16l36 -16l47 -43l15 -5l31 2l55 17l63 12l35 -4l8 -14l9 2l12 -6l12 4l21 26h8h65 l66 -8l43 -22h63l27 14l49 41l17 4l30 -8l37 -55l-8 -21l-43 -49l-49 -43l-10 -31l6 -43l-4 -14l6 -10v-17l-11 -31l-4 -65l-10 -29l-6 -63l-8 -70l-8 -31l-13 -57l8 -27l13 -12l41 -47l10 -31l-10 -22zM745 780v4l5 60v63l6 31l-6 8l-27 17l-35 12l-67 6l-68 -10l-68 -6 l-24 -11l-19 -22l-10 -33l6 -10l-20 -66l2 -30l-19 -66l-10 -68l-2 -63l8 -64l29 -14l23 -6l63 -6l33 -12h14l62 16l61 16l12 11l17 26l10 29l4 65l4 68zM778 522l2 4l4 21l-4 12l-6 -2l2 -6l-4 -10h-10l-2 -15l-12 -10l6 -10zM834 967l2 4l4 2l4 22l-13 11l-4 -7v-18z M811 635l-2 -4l2 -13l12 -4v13l-4 6zM856 1001l-2 -4l8 -10l8 -2l7 6h-11zM793 889v-4v-6h10v10h-10zM811 596v6l-2 6v-16z" />
<glyph unicode="&#xa5;" horiz-adv-x="987" d="M934 489l-2 -4l-12 -28l-15 -4l-63 -4l-68 -3l-35 -6l-61 4l-14 -4l-27 -16l-6 -31v-35l-17 -47l-2 -30l4 -35l-10 -25l-2 -24l-10 -66l6 -14l-8 -49l-21 -62l-45 -6l-71 -8l-58 18v10l6 15l-8 -2l-2 -8l-4 2l4 8l2 53l-6 23l4 28l13 72v65l8 33l10 62v32l-6 33l-21 8 l-32 5h-68l-68 -5l-63 7l-19 53l3 24l8 31l20 35l55 14l74 8l31 -8h35l63 15l10 43l-16 63l6 2v4l-10 4l2 15l-6 4l-4 12l-6 4l-6 17l-35 2l-17 6l-20 -11l-15 3l-71 2l-49 14v16l6 68l22 63l52 7h65l25 16l2 6l8 -4v4l-8 64l-13 24l9 6l-13 25l-8 37l-6 6l4 6l-4 14l-10 15 l2 14l-6 6l-4 55l-15 62l4 4l-6 4l-4 31l-16 35l6 67l18 12l27 7l37 2l69 2l31 -6l29 -17l8 -33l4 -65l21 -64l-29 7l-2 -9l8 -4l12 2l8 -45l-2 -8l-16 14l2 -12l21 -12l-5 -15l3 -6h10l-2 -34l4 -31l10 -15l8 -28l6 -6l2 -15l-4 -32l9 -66l6 -20l22 -21l10 4l13 17l30 65 l9 29l8 2v14l6 -4v25l14 26l11 33l22 63l37 19l-2 10h-21l15 33l10 10v4l18 58l7 4l6 22l8 2l4 10l2 29l4 8l6 2l2 17l19 20l26 17l52 2h73l15 -6l26 -23l-10 -41l-22 -10l-5 -8l15 -11l-4 -2l-6 -16l-29 -57l-29 4l-6 -23l-4 -2l-4 -31l-8 -8l2 -4h10l6 -4l-14 -37l-27 -59 l-29 -60l-22 -61l-12 -8l-7 -25l3 -14l8 -10l32 -7l7 -8l69 4l31 -10l8 -43l-8 -33l2 -16l-20 -45l-23 -21l-16 -2l-33 4h-68l-63 -12l-15 -10l-22 -25l-14 -6l-7 -26l-22 -60v-26l45 -9l63 -8l39 2l35 10l31 5l16 -5l37 -30l-4 -21l4 -16v-31zM449 1198v-2l14 -8l6 6h-10 l6 20l-8 3l-33 -9l-12 6l16 21l2 18h-24v25l28 16l-6 2l-2 17l-4 6l-12 6l2 10l-33 6l-6 -6l8 -14l-4 -14l14 -29l-6 -10l12 -21l-12 -8l4 -20l8 -13v-14l17 -8v6l20 8l-12 -14h10zM784 1257l-2 -4l-10 -10l-2 -10l21 -8l2 -6l-7 -13l13 -20l4 -17h-8l-13 -10l-14 2l-2 -10 l29 -6l18 -19l6 25l29 57l-43 21l-8 20zM829 950l-2 4l-8 29l6 16l-12 2l-2 5l-12 2l-2 -23l8 -27l-6 -8l12 2l10 -6zM444 1278l-2 -6l7 -10l24 2l14 -4l5 4l-9 4v8l11 16l-2 4l-31 -20zM473 1081l4 -2l4 -2l6 4l-8 31l-2 33h-14l2 -21l10 -32l-4 -7zM809 1096h6h12l9 4 l8 12l-25 8zM702 520h5l14 -2l12 6l-18 15zM485 823h4l17 13l8 16h-14l-2 -10l-11 -11zM795 1092v4l6 16l-10 -2l-5 -6zM963 1282v-4v-4l-21 -2l4 8zM467 1184l-2 -4l6 -15l4 4l-4 2v9z" />
<glyph unicode="&#xa6;" horiz-adv-x="446" d="M281 -57l-5 -2l-38 -19l-33 -6l-66 2l-10 35v33l18 63l9 66l-2 63l12 64l-2 32l10 60l10 67l11 62l18 8l-6 14l-6 -8l-6 4l8 15l4 20l-12 8l10 62l20 57l39 14l33 -6l63 -14l9 -27l-4 -35l-15 -30l2 -53l-10 -70l-10 -29l6 -10v-18l-6 -7l4 -4l-4 -14l2 -8l-8 -66l-7 -63 l-14 -29l6 -8l2 -23l-12 -69l-8 -70zM274 1171v3v22l9 39l14 59l12 68l-2 68l12 59l3 65l14 76l12 29l17 22h30l70 -4l27 -12l-29 -12l-2 -8l4 -5l22 -4v-10l-12 -10l4 -6l10 -2l5 -6l-11 -43l-6 -68l-10 -66l-4 -63l-17 -64l3 -10l-13 -6l-14 10l-12 -4l8 -24l18 2l8 12 l5 -12l-5 -33l-8 -68l-10 -69l-10 -70l-13 -55l-10 -10l-35 -5l-71 -6l-19 19l-6 16l2 64l4 65l8 29zM453 1380h-4l-7 2l-20 -4l-12 -8l2 -4h10l2 -37l4 -4l8 2l-8 8l10 21l-2 10l8 2zM426 1249l-2 -2l-16 -24l-2 -19l12 2l14 8l2 7l-10 10v8l6 6zM393 1274v-6l-6 -19l19 11 l2 8zM481 1581l2 4l-10 10l-4 -2l8 -12h4z" />
</font>
</defs>
</svg>
